<?xml version="1.0" encoding="UTF-8" ?>
<!-- Generated by clip v0.7.0 (clip-lang.org) -->
<svg xmlns="http://www.w3.org/2000/svg" width="396.850394" height="559.370079">
  <rect width="396.850394" height="559.370079" fill="#ffffff" fill-opacity="1.000000"/>
  <path d="M0 559.37 L0 0 L396.85 0 L396.85 559.37 Z" fill="#fc0202" fill-opacity="1.000000" stroke-width="1.333333" stroke="#000000ff"/>
  <path d="M89.5971 404.185 L89.5971 384.498 L106.472 382.154 L186.003 176.685 L212.41 176.685 L290.535 382.154 L307.253 384.498 L307.253 404.185 L241.941 404.185 L241.941 384.498 L259.128 381.529 L244.128 339.654 L153.035 339.654 L137.566 381.529 L154.753 384.498 L154.753 404.185 L89.5971 404.185 ZM162.566 313.873 L234.753 313.873 L201.316 221.373 L199.441 216.216 L198.503 216.216 L196.628 221.373 L162.566 313.873 Z" fill="#ffffff" fill-opacity="1.000000"/>
</svg>