<?xml version="1.0" encoding="UTF-8" ?>
<!-- Generated by clip v0.7.0 (clip-lang.org) -->
<svg xmlns="http://www.w3.org/2000/svg" width="396.850394" height="559.370079">
  <rect width="396.850394" height="559.370079" fill="#ffffff" fill-opacity="1.000000"/>
  <path d="M0 559.37 L0 0 L396.85 0 L396.85 559.37 Z" fill="#fc3c02" fill-opacity="1.000000" stroke-width="1.333333" stroke="#000000ff"/>
  <path d="M107.8 404.185 L107.8 384.498 L133.269 380.123 L133.269 200.904 L107.8 196.529 L107.8 176.685 L133.269 176.685 L205.925 176.685 Q241.55 176.685 261.628 192.076 Q281.706 207.466 281.706 238.248 Q281.706 253.404 272.097 265.357 Q262.488 277.31 246.706 283.091 Q260.456 285.904 270.3 294.107 Q280.144 302.31 285.535 314.107 Q290.925 325.904 290.925 339.966 Q290.925 371.216 270.613 387.701 Q250.3 404.185 215.613 404.185 L107.8 404.185 ZM164.05 380.123 L215.613 380.123 Q236.706 380.123 248.347 369.732 Q259.988 359.341 259.988 340.279 Q259.988 326.841 255.691 317.31 Q251.394 307.779 242.566 302.623 Q233.738 297.466 220.3 297.466 L164.05 297.466 L164.05 380.123 ZM164.05 273.404 L213.894 273.404 Q230.456 273.404 240.691 263.794 Q250.925 254.185 250.925 237.623 Q250.925 219.185 239.363 210.044 Q227.8 200.904 205.925 200.904 L164.05 200.904 L164.05 273.404 Z" fill="#ffffff" fill-opacity="1.000000"/>
</svg>