<?xml version="1.0" encoding="UTF-8" ?>
<!-- Generated by clip v0.7.0 (clip-lang.org) -->
<svg xmlns="http://www.w3.org/2000/svg" width="396.850394" height="559.370079">
  <rect width="396.850394" height="559.370079" fill="#ffffff" fill-opacity="1.000000"/>
  <path d="M0 559.37 L0 0 L396.85 0 L396.85 559.37 Z" fill="#fc7502" fill-opacity="1.000000" stroke-width="1.333333" stroke="#000000ff"/>
  <path d="M213.113 407.466 Q178.894 407.466 156.003 392.466 Q133.113 377.466 121.628 351.373 Q110.144 325.279 110.144 292.154 L110.144 288.873 Q110.144 255.435 122.175 229.419 Q134.206 203.404 156.706 188.404 Q179.206 173.404 210.456 173.404 Q232.488 173.404 250.769 180.279 Q269.05 187.154 281.081 197.779 L281.081 246.841 L256.55 246.841 L253.269 210.904 Q248.269 206.998 241.785 204.341 Q235.3 201.685 227.41 200.279 Q219.519 198.873 210.3 198.873 Q187.956 198.873 172.488 210.357 Q157.019 221.841 149.05 241.998 Q141.081 262.154 141.081 288.56 L141.081 292.154 Q141.081 320.748 149.597 340.982 Q158.113 361.216 174.441 371.841 Q190.769 382.466 214.206 382.466 Q225.144 382.466 235.613 379.81 Q246.081 377.154 252.956 372.935 L256.394 341.216 L280.456 341.216 L280.456 390.591 Q267.644 398.56 249.831 403.013 Q232.019 407.466 213.113 407.466 Z" fill="#ffffff" fill-opacity="1.000000"/>
</svg>