<?xml version="1.0" encoding="UTF-8" ?>
<!-- Generated by clip v0.7.0 (clip-lang.org) -->
<svg xmlns="http://www.w3.org/2000/svg" width="396.850394" height="559.370079">
  <rect width="396.850394" height="559.370079" fill="#ffffff" fill-opacity="1.000000"/>
  <path d="M0 559.37 L0 0 L396.85 0 L396.85 559.37 Z" fill="#fcaf02" fill-opacity="1.000000" stroke-width="1.333333" stroke="#000000ff"/>
  <path d="M105.144 404.185 L105.144 384.498 L130.613 380.123 L130.613 200.904 L105.144 196.529 L105.144 176.685 L130.613 176.685 L194.206 176.685 Q224.363 176.685 246.785 191.06 Q269.206 205.435 281.706 230.591 Q294.206 255.748 294.206 288.091 L294.206 292.935 Q294.206 324.498 282.175 349.732 Q270.144 374.966 248.035 389.576 Q225.925 404.185 195.769 404.185 L105.144 404.185 ZM161.394 380.123 L194.206 380.123 Q215.769 380.123 231.238 368.326 Q246.706 356.529 255.066 336.763 Q263.425 316.998 263.425 292.935 L263.425 287.779 Q263.425 262.935 255.066 243.326 Q246.706 223.716 231.238 212.31 Q215.769 200.904 194.206 200.904 L161.394 200.904 L161.394 380.123 Z" fill="#ffffff" fill-opacity="1.000000"/>
</svg>