<?xml version="1.0" encoding="UTF-8" ?>
<!-- Generated by clip v0.7.0 (clip-lang.org) -->
<svg xmlns="http://www.w3.org/2000/svg" width="396.850394" height="559.370079">
  <rect width="396.850394" height="559.370079" fill="#ffffff" fill-opacity="1.000000"/>
  <path d="M0 559.37 L0 0 L396.85 0 L396.85 559.37 Z" fill="#9cfc02" fill-opacity="1.000000" stroke-width="1.333333" stroke="#000000ff"/>
  <path d="M208.581 407.466 Q177.019 407.466 153.894 392.857 Q130.769 378.248 118.269 352.31 Q105.769 326.373 105.769 292.31 L105.769 288.56 Q105.769 254.185 118.347 228.326 Q130.925 202.466 152.8 187.935 Q174.675 173.404 202.488 173.404 Q229.05 173.404 247.566 179.498 Q266.081 185.591 279.206 195.904 L279.206 241.841 L253.894 241.841 L250.613 208.873 Q242.956 203.873 231.863 201.294 Q220.769 198.716 205.613 198.716 Q186.081 198.716 170.456 209.966 Q154.831 221.216 145.769 241.294 Q136.706 261.373 136.706 288.248 L136.706 292.31 Q136.706 319.498 145.066 339.732 Q153.425 359.966 169.519 371.138 Q185.613 382.31 208.581 382.31 Q224.206 382.31 234.988 379.576 Q245.769 376.841 254.05 372.466 L254.05 319.029 L210.456 317.466 L210.456 294.81 L284.831 294.81 L284.831 382.935 Q274.988 392.154 256.628 399.81 Q238.269 407.466 208.581 407.466 Z" fill="#ffffff" fill-opacity="1.000000"/>
</svg>