<?xml version="1.0" encoding="UTF-8" ?>
<!-- Generated by clip v0.7.0 (clip-lang.org) -->
<svg xmlns="http://www.w3.org/2000/svg" width="396.850394" height="559.370079">
  <rect width="396.850394" height="559.370079" fill="#ffffff" fill-opacity="1.000000"/>
  <path d="M0 559.37 L0 0 L396.85 0 L396.85 559.37 Z" fill="#62fc02" fill-opacity="1.000000" stroke-width="1.333333" stroke="#000000ff"/>
  <path d="M87.8002 404.185 L87.8002 384.498 L113.269 380.123 L113.269 200.904 L87.8002 196.529 L87.8002 176.685 L169.519 176.685 L169.519 196.529 L144.05 200.904 L144.05 279.498 L252.8 279.498 L252.8 200.904 L227.331 196.529 L227.331 176.685 L252.8 176.685 L283.581 176.685 L309.05 176.685 L309.05 196.529 L283.581 200.904 L283.581 380.123 L309.05 384.498 L309.05 404.185 L227.331 404.185 L227.331 384.498 L252.8 380.123 L252.8 303.716 L144.05 303.716 L144.05 380.123 L169.519 384.498 L169.519 404.185 L87.8002 404.185 Z" fill="#ffffff" fill-opacity="1.000000"/>
</svg>