<?xml version="1.0" encoding="UTF-8" ?>
<!-- Generated by clip v0.7.0 (clip-lang.org) -->
<svg xmlns="http://www.w3.org/2000/svg" width="396.850394" height="559.370079">
  <rect width="396.850394" height="559.370079" fill="#ffffff" fill-opacity="1.000000"/>
  <path d="M0 559.37 L0 0 L396.85 0 L396.85 559.37 Z" fill="#02fc15" fill-opacity="1.000000" stroke-width="1.333333" stroke="#000000ff"/>
  <path d="M185.691 407.466 Q166.785 407.466 151.394 399.966 Q136.003 392.466 126.706 377.31 Q117.41 362.154 116.472 339.341 L116.785 338.404 L146.316 338.404 Q146.941 361.373 156.863 372.154 Q166.785 382.935 185.222 382.935 Q198.191 382.935 206.472 377.388 Q214.753 371.841 218.738 362.076 Q222.722 352.31 222.722 339.654 L222.722 200.904 L192.41 196.841 L192.41 176.685 L278.972 176.685 L278.972 196.529 L253.503 200.904 L253.503 339.654 Q253.503 359.966 245.769 375.279 Q238.035 390.591 222.956 399.029 Q207.878 407.466 185.691 407.466 Z" fill="#ffffff" fill-opacity="1.000000"/>
</svg>