<?xml version="1.0" encoding="UTF-8" ?>
<!-- Generated by clip v0.7.0 (clip-lang.org) -->
<svg xmlns="http://www.w3.org/2000/svg" width="396.850394" height="559.370079">
  <rect width="396.850394" height="559.370079" fill="#ffffff" fill-opacity="1.000000"/>
  <path d="M0 559.37 L0 0 L396.85 0 L396.85 559.37 Z" fill="#02fc4f" fill-opacity="1.000000" stroke-width="1.333333" stroke="#000000ff"/>
  <path d="M147.878 338.404 L131.472 319.341 L239.441 199.498 L240.066 198.716 L223.035 196.529 L223.035 176.685 L296.003 176.685 L296.003 196.529 L274.597 200.435 L147.878 338.404 ZM93.8158 404.185 L93.8158 384.498 L119.285 380.123 L119.285 200.904 L93.8158 196.529 L93.8158 176.685 L175.535 176.685 L175.535 196.529 L150.066 200.904 L150.066 380.123 L175.535 384.498 L175.535 404.185 L93.8158 404.185 ZM228.191 404.185 L228.191 384.498 L246.941 382.31 L246.785 382.154 L183.816 294.81 L201.003 270.591 L283.191 380.591 L304.128 384.498 L304.128 404.185 L228.191 404.185 Z" fill="#ffffff" fill-opacity="1.000000"/>
</svg>