<?xml version="1.0" encoding="UTF-8" ?>
<!-- Generated by clip v0.7.0 (clip-lang.org) -->
<svg xmlns="http://www.w3.org/2000/svg" width="396.850394" height="559.370079">
  <rect width="396.850394" height="559.370079" fill="#ffffff" fill-opacity="1.000000"/>
  <path d="M0 559.37 L0 0 L396.85 0 L396.85 559.37 Z" fill="#02fcc2" fill-opacity="1.000000" stroke-width="1.333333" stroke="#000000ff"/>
  <path d="M58.2689 404.185 L58.2689 384.498 L83.7377 380.123 L83.7377 200.904 L58.2689 196.529 L58.2689 176.685 L83.7377 176.685 L124.831 176.685 L198.113 349.341 L199.05 349.341 L269.988 176.685 L338.581 176.685 L338.581 196.529 L313.113 200.904 L313.113 380.123 L338.581 384.498 L338.581 404.185 L256.863 404.185 L256.863 384.498 L283.738 380.123 L283.738 314.185 L283.738 218.716 L282.956 218.56 L209.05 396.06 L188.581 396.06 L112.175 218.873 L111.394 219.029 L112.488 314.185 L112.488 380.123 L139.988 384.498 L139.988 404.185 L58.2689 404.185 Z" fill="#ffffff" fill-opacity="1.000000"/>
</svg>