<?xml version="1.0" encoding="UTF-8" ?>
<!-- Generated by clip v0.7.0 (clip-lang.org) -->
<svg xmlns="http://www.w3.org/2000/svg" width="396.850394" height="559.370079">
  <rect width="396.850394" height="559.370079" fill="#ffffff" fill-opacity="1.000000"/>
  <path d="M0 559.37 L0 0 L396.85 0 L396.85 559.37 Z" fill="#02fcfc" fill-opacity="1.000000" stroke-width="1.333333" stroke="#000000ff"/>
  <path d="M87.0189 404.185 L87.0189 384.498 L112.488 380.123 L112.488 200.904 L87.0189 196.529 L87.0189 176.685 L112.488 176.685 L143.581 176.685 L255.144 354.029 L256.081 353.716 L256.081 200.904 L228.113 196.529 L228.113 176.685 L284.363 176.685 L309.831 176.685 L309.831 196.529 L284.363 200.904 L284.363 404.185 L256.238 404.185 L141.706 225.904 L140.769 226.216 L140.769 380.123 L168.738 384.498 L168.738 404.185 L87.0189 404.185 Z" fill="#ffffff" fill-opacity="1.000000"/>
</svg>