<?xml version="1.0" encoding="UTF-8" ?>
<!-- Generated by clip v0.7.0 (clip-lang.org) -->
<svg xmlns="http://www.w3.org/2000/svg" width="396.850394" height="559.370079">
  <rect width="396.850394" height="559.370079" fill="#ffffff" fill-opacity="1.000000"/>
  <path d="M0 559.37 L0 0 L396.85 0 L396.85 559.37 Z" fill="#02c2fc" fill-opacity="1.000000" stroke-width="1.333333" stroke="#000000ff"/>
  <path d="M198.347 407.466 Q176.316 407.466 158.816 399.029 Q141.316 390.591 129.05 375.201 Q116.785 359.81 110.3 338.716 Q103.816 317.623 103.816 292.154 L103.816 288.873 Q103.816 263.56 110.3 242.388 Q116.785 221.216 129.05 205.748 Q141.316 190.279 158.816 181.841 Q176.316 173.404 198.347 173.404 Q221.628 173.404 239.285 181.841 Q256.941 190.279 268.894 205.748 Q280.847 221.216 286.941 242.388 Q293.035 263.56 293.035 288.873 L293.035 292.154 Q293.035 317.623 286.941 338.716 Q280.847 359.81 268.894 375.201 Q256.941 390.591 239.285 399.029 Q221.628 407.466 198.347 407.466 ZM198.347 381.841 Q221.003 381.841 234.988 370.591 Q248.972 359.341 255.535 339.107 Q262.097 318.873 262.097 292.154 L262.097 288.56 Q262.097 261.998 255.456 241.919 Q248.816 221.841 234.753 210.513 Q220.691 199.185 198.347 199.185 Q177.878 199.185 163.66 210.591 Q149.441 221.998 142.097 242.076 Q134.753 262.154 134.753 288.56 L134.753 292.154 Q134.753 318.716 142.097 338.951 Q149.441 359.185 163.66 370.513 Q177.878 381.841 198.347 381.841 Z" fill="#ffffff" fill-opacity="1.000000"/>
</svg>