<?xml version="1.0" encoding="UTF-8" ?>
<!-- Generated by clip v0.7.0 (clip-lang.org) -->
<svg xmlns="http://www.w3.org/2000/svg" width="396.850394" height="559.370079">
  <rect width="396.850394" height="559.370079" fill="#ffffff" fill-opacity="1.000000"/>
  <path d="M0 559.37 L0 0 L396.85 0 L396.85 559.37 Z" fill="#0289fc" fill-opacity="1.000000" stroke-width="1.333333" stroke="#000000ff"/>
  <path d="M109.753 404.185 L109.753 384.498 L135.222 380.123 L135.222 200.904 L109.753 196.529 L109.753 176.685 L135.222 176.685 L214.285 176.685 Q238.66 176.685 255.847 185.201 Q273.035 193.716 282.097 209.029 Q291.16 224.341 291.16 244.81 Q291.16 265.435 282.097 280.748 Q273.035 296.06 255.847 304.498 Q238.66 312.935 214.285 312.935 L166.003 312.935 L166.003 380.123 L191.472 384.498 L191.472 404.185 L109.753 404.185 ZM166.003 288.873 L214.285 288.873 Q237.41 288.873 248.894 276.451 Q260.378 264.029 260.378 245.123 Q260.378 226.216 248.894 213.56 Q237.41 200.904 214.285 200.904 L166.003 200.904 L166.003 288.873 Z" fill="#ffffff" fill-opacity="1.000000"/>
</svg>