<?xml version="1.0" encoding="UTF-8" ?>
<!-- Generated by clip v0.7.0 (clip-lang.org) -->
<svg xmlns="http://www.w3.org/2000/svg" width="396.850394" height="559.370079">
  <rect width="396.850394" height="559.370079" fill="#ffffff" fill-opacity="1.000000"/>
  <path d="M0 559.37 L0 0 L396.85 0 L396.85 559.37 Z" fill="#024ffc" fill-opacity="1.000000" stroke-width="1.333333" stroke="#000000ff"/>
  <path d="M284.206 442.466 L229.206 402.154 Q221.394 404.654 213.113 406.06 Q204.831 407.466 196.238 407.466 Q174.363 407.466 156.863 399.029 Q139.363 390.591 127.097 375.123 Q114.831 359.654 108.347 338.56 Q101.863 317.466 101.863 292.154 L101.863 288.873 Q101.863 263.56 108.347 242.466 Q114.831 221.373 127.019 205.826 Q139.206 190.279 156.706 181.841 Q174.206 173.404 196.238 173.404 Q219.363 173.404 237.019 181.841 Q254.675 190.279 266.628 205.826 Q278.581 221.373 284.675 242.466 Q290.769 263.56 290.769 288.873 L290.769 292.154 Q290.769 322.935 283.425 347.701 Q276.081 372.466 255.925 387.779 L301.55 419.498 L284.206 442.466 ZM196.238 381.841 Q218.269 381.841 232.331 370.591 Q246.394 359.341 253.191 339.107 Q259.988 318.873 259.988 292.154 L259.988 288.56 Q259.988 261.998 253.347 241.919 Q246.706 221.841 232.644 210.513 Q218.581 199.185 196.238 199.185 Q175.925 199.185 161.706 210.591 Q147.488 221.998 140.066 242.076 Q132.644 262.154 132.644 288.56 L132.644 292.154 Q132.644 318.716 139.91 338.951 Q147.175 359.185 161.394 370.513 Q175.613 381.841 196.238 381.841 Z" fill="#ffffff" fill-opacity="1.000000"/>
</svg>