<?xml version="1.0" encoding="UTF-8" ?>
<!-- Generated by clip v0.7.0 (clip-lang.org) -->
<svg xmlns="http://www.w3.org/2000/svg" width="396.850394" height="559.370079">
  <rect width="396.850394" height="559.370079" fill="#ffffff" fill-opacity="1.000000"/>
  <path d="M0 559.37 L0 0 L396.85 0 L396.85 559.37 Z" fill="#0215fc" fill-opacity="1.000000" stroke-width="1.333333" stroke="#000000ff"/>
  <path d="M102.878 404.185 L102.878 384.498 L128.347 380.123 L128.347 200.904 L102.878 196.529 L102.878 176.841 L204.285 176.841 Q229.128 176.841 246.238 184.263 Q263.347 191.685 272.253 205.748 Q281.16 219.81 281.16 240.123 Q281.16 260.123 272.488 273.716 Q263.816 287.31 247.878 294.263 Q231.941 301.216 210.066 301.685 L159.128 302.623 L159.128 380.123 L184.597 384.498 L184.597 404.185 L102.878 404.185 ZM253.035 404.185 L202.41 290.591 L233.191 290.279 L275.222 381.216 L291.003 384.029 L291.003 404.185 L253.035 404.185 ZM159.128 278.404 L201.16 278.404 Q226.941 278.404 238.66 268.56 Q250.378 258.716 250.378 239.81 Q250.378 221.841 239.128 211.373 Q227.878 200.904 204.285 200.904 L159.128 200.904 L159.128 278.404 Z" fill="#ffffff" fill-opacity="1.000000"/>
</svg>