<?xml version="1.0" encoding="UTF-8" ?>
<!-- Generated by clip v0.7.0 (clip-lang.org) -->
<svg xmlns="http://www.w3.org/2000/svg" width="396.850394" height="559.370079">
  <rect width="396.850394" height="559.370079" fill="#ffffff" fill-opacity="1.000000"/>
  <path d="M0 559.37 L0 0 L396.85 0 L396.85 559.37 Z" fill="#2802fc" fill-opacity="1.000000" stroke-width="1.333333" stroke="#000000ff"/>
  <path d="M198.894 407.466 Q178.113 407.466 158.894 401.373 Q139.675 395.279 122.175 382.623 L122.175 334.029 L146.081 334.029 L151.238 369.81 Q161.394 376.06 173.269 379.498 Q185.144 382.935 198.894 382.935 Q214.519 382.935 225.378 378.169 Q236.238 373.404 242.019 364.966 Q247.8 356.529 247.8 345.279 Q247.8 334.81 242.8 326.841 Q237.8 318.873 226.316 312.857 Q214.831 306.841 194.988 302.31 Q171.55 296.841 155.378 287.701 Q139.206 278.56 130.847 265.513 Q122.488 252.466 122.488 235.591 Q122.488 217.779 131.941 203.716 Q141.394 189.654 158.269 181.529 Q175.144 173.404 197.644 173.404 Q221.55 173.404 239.91 180.669 Q258.269 187.935 270.144 198.248 L270.144 243.716 L246.238 243.716 L241.081 211.216 Q234.05 205.591 223.581 201.841 Q213.113 198.091 197.644 198.091 Q184.519 198.091 174.519 202.701 Q164.519 207.31 158.894 215.591 Q153.269 223.873 153.269 235.123 Q153.269 244.966 158.347 252.31 Q163.425 259.654 174.91 265.201 Q186.394 270.748 205.613 275.591 Q241.55 284.498 260.066 301.919 Q278.581 319.341 278.581 344.966 Q278.581 363.248 268.738 377.388 Q258.894 391.529 241.003 399.498 Q223.113 407.466 198.894 407.466 Z" fill="#ffffff" fill-opacity="1.000000"/>
</svg>