<?xml version="1.0" encoding="UTF-8" ?>
<!-- Generated by clip v0.7.0 (clip-lang.org) -->
<svg xmlns="http://www.w3.org/2000/svg" width="396.850394" height="559.370079">
  <rect width="396.850394" height="559.370079" fill="#ffffff" fill-opacity="1.000000"/>
  <path d="M0 559.37 L0 0 L396.85 0 L396.85 559.37 Z" fill="#9c02fc" fill-opacity="1.000000" stroke-width="1.333333" stroke="#000000ff"/>
  <path d="M197.488 407.466 Q174.05 407.466 155.613 398.248 Q137.175 389.029 126.55 371.919 Q115.925 354.81 115.925 330.904 L115.925 200.904 L90.4564 196.529 L90.4564 176.685 L172.175 176.685 L172.175 196.529 L146.706 200.904 L146.706 330.904 Q146.706 347.935 153.191 359.498 Q159.675 371.06 171.238 376.919 Q182.8 382.779 197.956 382.779 Q213.269 382.779 225.066 376.998 Q236.863 371.216 243.503 359.654 Q250.144 348.091 250.144 330.904 L250.144 200.904 L224.675 196.529 L224.675 176.685 L306.394 176.685 L306.394 196.529 L280.925 200.904 L280.925 330.904 Q280.925 355.591 270.535 372.701 Q260.144 389.81 241.394 398.638 Q222.644 407.466 197.488 407.466 Z" fill="#ffffff" fill-opacity="1.000000"/>
</svg>