<?xml version="1.0" encoding="UTF-8" ?>
<!-- Generated by clip v0.7.0 (clip-lang.org) -->
<svg xmlns="http://www.w3.org/2000/svg" width="396.850394" height="559.370079">
  <rect width="396.850394" height="559.370079" fill="#ffffff" fill-opacity="1.000000"/>
  <path d="M0 559.37 L0 0 L396.85 0 L396.85 559.37 Z" fill="#fc02e9" fill-opacity="1.000000" stroke-width="1.333333" stroke="#000000ff"/>
  <path d="M115.691 404.185 L62.5658 198.873 L43.3471 196.529 L43.3471 176.685 L117.097 176.685 L117.097 196.529 L93.5033 200.123 L123.191 325.279 L130.066 354.498 L131.003 354.654 L140.066 325.435 L185.847 176.685 L212.878 176.685 L259.128 325.435 L268.035 356.373 L268.972 356.373 L277.097 325.435 L306.472 200.123 L281.003 196.529 L281.003 176.685 L353.503 176.685 L353.503 196.529 L335.535 198.873 L284.597 404.185 L255.378 404.185 L206.003 246.685 L199.753 223.716 L198.816 223.716 L192.722 246.685 L143.191 404.185 L115.691 404.185 Z" fill="#ffffff" fill-opacity="1.000000"/>
</svg>