<?xml version="1.0" encoding="UTF-8" ?>
<!-- Generated by clip v0.7.0 (clip-lang.org) -->
<svg xmlns="http://www.w3.org/2000/svg" width="396.850394" height="559.370079">
  <rect width="396.850394" height="559.370079" fill="#ffffff" fill-opacity="1.000000"/>
  <path d="M0 559.37 L0 0 L396.85 0 L396.85 559.37 Z" fill="#fc02af" fill-opacity="1.000000" stroke-width="1.333333" stroke="#000000ff"/>
  <path d="M91.4721 404.185 L91.4721 384.498 L111.16 381.06 L181.628 288.716 L116.316 199.966 L96.4721 196.529 L96.4721 176.685 L170.222 176.685 L170.222 196.529 L148.816 198.56 L199.128 268.716 L246.941 198.56 L225.066 196.529 L225.066 176.685 L299.285 176.685 L299.285 196.529 L278.503 199.966 L216.785 288.716 L285.222 381.06 L305.378 384.498 L305.378 404.185 L230.691 404.185 L230.691 384.498 L252.722 382.466 L198.816 308.56 L145.066 382.466 L165.847 384.498 L165.847 404.185 L91.4721 404.185 Z" fill="#ffffff" fill-opacity="1.000000"/>
</svg>