<?xml version="1.0" encoding="UTF-8" ?>
<!-- Generated by clip v0.7.0 (clip-lang.org) -->
<svg xmlns="http://www.w3.org/2000/svg" width="396.850394" height="559.370079">
  <rect width="396.850394" height="559.370079" fill="#ffffff" fill-opacity="1.000000"/>
  <path d="M0 559.37 L0 0 L396.85 0 L396.85 559.37 Z" fill="#fc0275" fill-opacity="1.000000" stroke-width="1.333333" stroke="#000000ff"/>
  <path d="M157.722 404.185 L157.722 384.498 L183.191 380.123 L183.191 321.373 L113.191 199.498 L94.4408 196.529 L94.4408 176.685 L172.878 176.685 L172.878 196.529 L146.941 199.498 L195.222 288.873 L198.503 294.966 L198.66 294.654 L201.785 288.873 L252.41 199.498 L225.535 196.529 L225.535 176.685 L302.41 176.685 L302.41 196.529 L282.566 199.498 L213.816 319.029 L213.816 380.123 L239.285 384.498 L239.285 404.185 L157.722 404.185 Z" fill="#ffffff" fill-opacity="1.000000"/>
</svg>