<?xml version="1.0" encoding="UTF-8" ?>
<!-- Generated by clip v0.7.0 (clip-lang.org) -->
<svg xmlns="http://www.w3.org/2000/svg" width="2048.000000" height="1024.000000">
  <rect width="2048.000000" height="1024.000000" fill="#ffffff" fill-opacity="1.000000"/>
  <path d="M108.594 78 L108.594 54 L99.875 54 L99.875 51 L120.859 51 L120.859 54 L112.094 54 L112.094 78 L108.594 78 Z" fill="#000000" fill-opacity="1.000000"/>
  <path d="M134.953 72 L138.312 72 Q137.516 74.8438 135.367 76.4219 Q133.219 78 129.875 78 Q125.672 78 123.203 75.4141 Q120.734 72.8281 120.734 68.1562 Q120.734 63.3281 123.227 60.6641 Q125.719 58 129.703 58 Q133.547 58 135.984 60.6562 Q138.422 63.3125 138.422 68.125 Q138.422 68.4219 138.406 69 L124.094 69 Q124.281 71.9062 125.883 73.4531 Q127.484 75 129.891 75 Q131.688 75 132.953 74.2812 Q134.219 73.5625 134.953 72 ZM124.266 66 L134.984 66 Q134.766 63.7969 133.75 62.7031 Q132.203 61 129.719 61 Q127.484 61 125.953 62.3594 Q124.422 63.7188 124.266 66 Z" fill="#000000" fill-opacity="1.000000"/>
  <path d="M138.875 71 L142.094 71 Q142.359 72.9375 143.602 73.9688 Q144.844 75 147.062 75 Q149.297 75 150.383 74.1641 Q151.469 73.3281 151.469 72.2188 Q151.469 71.2031 150.516 70.625 Q149.844 70.2344 147.188 69.625 Q143.609 68.7188 142.227 68.0469 Q140.844 67.375 140.133 66.1953 Q139.422 65.0156 139.422 63.5938 Q139.422 62.2969 140.008 61.1875 Q140.594 60.0781 141.609 59.3594 Q142.359 58.7812 143.672 58.3906 Q144.984 58 146.484 58 Q148.734 58 150.438 58.7266 Q152.141 59.4531 152.953 60.6875 Q153.766 61.9219 154.078 64 L150.906 64 Q150.688 62.5938 149.648 61.7969 Q148.609 61 146.719 61 Q144.484 61 143.523 61.6719 Q142.562 62.3438 142.562 63.25 Q142.562 63.8125 142.953 64.2812 Q143.359 64.75 144.203 65.0625 Q144.688 65.2188 147.078 65.8125 Q150.531 66.75 151.898 67.3359 Q153.266 67.9219 154.039 69.0547 Q154.812 70.1875 154.812 71.875 Q154.812 73.5156 153.867 74.9609 Q152.922 76.4062 151.133 77.2031 Q149.344 78 147.078 78 Q143.344 78 141.383 76.2344 Q139.422 74.4688 138.875 71 Z" fill="#000000" fill-opacity="1.000000"/>
  <path d="M165.625 74.8438 L166.094 77.7188 Q164.719 78 163.641 78 Q161.859 78 160.883 77.4375 Q159.906 76.875 159.508 75.9609 Q159.109 75.0469 159.109 72.0938 L159.109 61 L156.734 61 L156.734 58 L159.109 58 L159.109 53.25 L162.344 51.2969 L162.344 58 L165.625 58 L165.625 61 L162.344 61 L162.344 72.3125 Q162.344 73.7188 162.516 74.125 Q162.688 74.5312 163.078 74.7656 Q163.469 75 164.188 75 Q164.734 75 165.625 74.8438 Z" fill="#000000" fill-opacity="1.000000"/>
  <path d="" fill="#000000" fill-opacity="1.000000"/>
  <path d="M198.203 68.3906 L201.703 69.25 Q200.594 73.5156 197.734 75.7578 Q194.875 78 190.734 78 Q186.453 78 183.773 76.2812 Q181.094 74.5625 179.695 71.3047 Q178.297 68.0469 178.297 64.2969 Q178.297 60.2188 179.875 57.1875 Q181.453 54.1562 184.375 52.5781 Q187.297 51 190.797 51 Q194.781 51 197.492 53 Q200.203 55 201.266 58.625 L197.812 59.4219 Q196.891 56.5938 195.141 55.2969 Q193.391 54 190.734 54 Q187.672 54 185.617 55.4375 Q183.562 56.875 182.734 59.2969 Q181.906 61.7188 181.906 64.2812 Q181.906 67.6094 182.891 70.0781 Q183.875 72.5469 185.953 73.7734 Q188.031 75 190.453 75 Q193.391 75 195.438 73.3359 Q197.484 71.6719 198.203 68.3906 Z" fill="#000000" fill-opacity="1.000000"/>
  <path d="M204.172 68 Q204.172 62.6875 207.141 60.125 Q209.609 58 213.172 58 Q217.125 58 219.633 60.5859 Q222.141 63.1719 222.141 67.7344 Q222.141 71.4219 221.031 73.5391 Q219.922 75.6562 217.797 76.8281 Q215.672 78 213.172 78 Q209.141 78 206.656 75.4219 Q204.172 72.8438 204.172 68 ZM207.516 67.9844 Q207.516 71.5 209.125 73.25 Q210.734 75 213.172 75 Q215.578 75 217.188 73.2422 Q218.797 71.4844 218.797 67.8906 Q218.797 64.5 217.18 62.75 Q215.562 61 213.172 61 Q210.734 61 209.125 62.7422 Q207.516 64.4844 207.516 67.9844 Z" fill="#000000" fill-opacity="1.000000"/>
  <path d="M225.688 78 L225.688 51 L228.953 51 L228.953 78 L225.688 78 Z" fill="#000000" fill-opacity="1.000000"/>
  <path d="M232.703 68 Q232.703 62.6875 235.672 60.125 Q238.141 58 241.703 58 Q245.656 58 248.164 60.5859 Q250.672 63.1719 250.672 67.7344 Q250.672 71.4219 249.562 73.5391 Q248.453 75.6562 246.328 76.8281 Q244.203 78 241.703 78 Q237.672 78 235.188 75.4219 Q232.703 72.8438 232.703 68 ZM236.047 67.9844 Q236.047 71.5 237.656 73.25 Q239.266 75 241.703 75 Q244.109 75 245.719 73.2422 Q247.328 71.4844 247.328 67.8906 Q247.328 64.5 245.711 62.75 Q244.094 61 241.703 61 Q239.266 61 237.656 62.7422 Q236.047 64.4844 236.047 67.9844 Z" fill="#000000" fill-opacity="1.000000"/>
  <path d="M254.266 78 L254.266 58 L257.188 58 L257.188 60.9844 Q258.312 59.1562 259.258 58.5781 Q260.203 58 261.344 58 Q262.984 58 264.688 58.625 L263.562 61.6406 Q262.375 61 261.188 61 Q260.125 61 259.273 61.6719 Q258.422 62.3438 258.062 63.5312 Q257.516 65.3438 257.516 67.5 L257.516 78 L254.266 78 Z" fill="#000000" fill-opacity="1.000000"/>
  <path d="" fill="#000000" fill-opacity="1.000000"/>
  <path d="M288.047 78 L284.797 78 L284.797 56.9688 Q283.625 58.1094 281.719 59.2422 Q279.812 60.375 278.297 60.9375 L278.297 57.75 Q281.031 56.4531 283.07 54.6016 Q285.109 52.75 285.953 51 L288.047 51 L288.047 78 Z" fill="#000000" fill-opacity="1.000000"/>
  <path d="M64.1667 78.75 C56.5728 78.75 50.4167 72.5939 50.4167 65 C50.4167 57.4061 56.5728 51.25 64.1667 51.25 C71.7606 51.25 77.9167 57.4061 77.9167 65 C77.9167 72.5939 71.7606 78.75 64.1667 78.75 Z" fill="#4572a7" fill-opacity="1.000000"/>
  <path d="M108.594 131 L108.594 107 L99.875 107 L99.875 104 L120.859 104 L120.859 107 L112.094 107 L112.094 131 L108.594 131 Z" fill="#000000" fill-opacity="1.000000"/>
  <path d="M134.953 125 L138.312 125 Q137.516 127.844 135.367 129.422 Q133.219 131 129.875 131 Q125.672 131 123.203 128.414 Q120.734 125.828 120.734 121.156 Q120.734 116.328 123.227 113.664 Q125.719 111 129.703 111 Q133.547 111 135.984 113.656 Q138.422 116.312 138.422 121.125 Q138.422 121.422 138.406 122 L124.094 122 Q124.281 124.906 125.883 126.453 Q127.484 128 129.891 128 Q131.688 128 132.953 127.281 Q134.219 126.562 134.953 125 ZM124.266 119 L134.984 119 Q134.766 116.797 133.75 115.703 Q132.203 114 129.719 114 Q127.484 114 125.953 115.359 Q124.422 116.719 124.266 119 Z" fill="#000000" fill-opacity="1.000000"/>
  <path d="M138.875 124 L142.094 124 Q142.359 125.938 143.602 126.969 Q144.844 128 147.062 128 Q149.297 128 150.383 127.164 Q151.469 126.328 151.469 125.219 Q151.469 124.203 150.516 123.625 Q149.844 123.234 147.188 122.625 Q143.609 121.719 142.227 121.047 Q140.844 120.375 140.133 119.195 Q139.422 118.016 139.422 116.594 Q139.422 115.297 140.008 114.188 Q140.594 113.078 141.609 112.359 Q142.359 111.781 143.672 111.391 Q144.984 111 146.484 111 Q148.734 111 150.438 111.727 Q152.141 112.453 152.953 113.688 Q153.766 114.922 154.078 117 L150.906 117 Q150.688 115.594 149.648 114.797 Q148.609 114 146.719 114 Q144.484 114 143.523 114.672 Q142.562 115.344 142.562 116.25 Q142.562 116.812 142.953 117.281 Q143.359 117.75 144.203 118.062 Q144.688 118.219 147.078 118.812 Q150.531 119.75 151.898 120.336 Q153.266 120.922 154.039 122.055 Q154.812 123.188 154.812 124.875 Q154.812 126.516 153.867 127.961 Q152.922 129.406 151.133 130.203 Q149.344 131 147.078 131 Q143.344 131 141.383 129.234 Q139.422 127.469 138.875 124 Z" fill="#000000" fill-opacity="1.000000"/>
  <path d="M165.625 127.844 L166.094 130.719 Q164.719 131 163.641 131 Q161.859 131 160.883 130.438 Q159.906 129.875 159.508 128.961 Q159.109 128.047 159.109 125.094 L159.109 114 L156.734 114 L156.734 111 L159.109 111 L159.109 106.25 L162.344 104.297 L162.344 111 L165.625 111 L165.625 114 L162.344 114 L162.344 125.312 Q162.344 126.719 162.516 127.125 Q162.688 127.531 163.078 127.766 Q163.469 128 164.188 128 Q164.734 128 165.625 127.844 Z" fill="#000000" fill-opacity="1.000000"/>
  <path d="" fill="#000000" fill-opacity="1.000000"/>
  <path d="M198.203 121.391 L201.703 122.25 Q200.594 126.516 197.734 128.758 Q194.875 131 190.734 131 Q186.453 131 183.773 129.281 Q181.094 127.562 179.695 124.305 Q178.297 121.047 178.297 117.297 Q178.297 113.219 179.875 110.188 Q181.453 107.156 184.375 105.578 Q187.297 104 190.797 104 Q194.781 104 197.492 106 Q200.203 108 201.266 111.625 L197.812 112.422 Q196.891 109.594 195.141 108.297 Q193.391 107 190.734 107 Q187.672 107 185.617 108.438 Q183.562 109.875 182.734 112.297 Q181.906 114.719 181.906 117.281 Q181.906 120.609 182.891 123.078 Q183.875 125.547 185.953 126.773 Q188.031 128 190.453 128 Q193.391 128 195.438 126.336 Q197.484 124.672 198.203 121.391 Z" fill="#000000" fill-opacity="1.000000"/>
  <path d="M204.172 121 Q204.172 115.688 207.141 113.125 Q209.609 111 213.172 111 Q217.125 111 219.633 113.586 Q222.141 116.172 222.141 120.734 Q222.141 124.422 221.031 126.539 Q219.922 128.656 217.797 129.828 Q215.672 131 213.172 131 Q209.141 131 206.656 128.422 Q204.172 125.844 204.172 121 ZM207.516 120.984 Q207.516 124.5 209.125 126.25 Q210.734 128 213.172 128 Q215.578 128 217.188 126.242 Q218.797 124.484 218.797 120.891 Q218.797 117.5 217.18 115.75 Q215.562 114 213.172 114 Q210.734 114 209.125 115.742 Q207.516 117.484 207.516 120.984 Z" fill="#000000" fill-opacity="1.000000"/>
  <path d="M225.688 131 L225.688 104 L228.953 104 L228.953 131 L225.688 131 Z" fill="#000000" fill-opacity="1.000000"/>
  <path d="M232.703 121 Q232.703 115.688 235.672 113.125 Q238.141 111 241.703 111 Q245.656 111 248.164 113.586 Q250.672 116.172 250.672 120.734 Q250.672 124.422 249.562 126.539 Q248.453 128.656 246.328 129.828 Q244.203 131 241.703 131 Q237.672 131 235.188 128.422 Q232.703 125.844 232.703 121 ZM236.047 120.984 Q236.047 124.5 237.656 126.25 Q239.266 128 241.703 128 Q244.109 128 245.719 126.242 Q247.328 124.484 247.328 120.891 Q247.328 117.5 245.711 115.75 Q244.094 114 241.703 114 Q239.266 114 237.656 115.742 Q236.047 117.484 236.047 120.984 Z" fill="#000000" fill-opacity="1.000000"/>
  <path d="M254.266 131 L254.266 111 L257.188 111 L257.188 113.984 Q258.312 112.156 259.258 111.578 Q260.203 111 261.344 111 Q262.984 111 264.688 111.625 L263.562 114.641 Q262.375 114 261.188 114 Q260.125 114 259.273 114.672 Q258.422 115.344 258.062 116.531 Q257.516 118.344 257.516 120.5 L257.516 131 L254.266 131 Z" fill="#000000" fill-opacity="1.000000"/>
  <path d="" fill="#000000" fill-opacity="1.000000"/>
  <path d="M292.891 128 L292.891 131 L275.391 131 Q275.344 129.875 275.766 128.828 Q276.438 127.109 277.906 125.445 Q279.375 123.781 282.156 121.406 Q286.484 117.719 288 115.617 Q289.516 113.516 289.516 111.656 Q289.516 109.688 288.133 108.344 Q286.75 107 284.531 107 Q282.188 107 280.773 108.062 Q279.359 109.125 279.344 111 L276 111 Q276.344 107.578 278.586 105.789 Q280.828 104 284.594 104 Q288.422 104 290.641 106.172 Q292.859 108.344 292.859 111.562 Q292.859 113.203 292.211 114.781 Q291.562 116.359 290.047 118.109 Q288.531 119.859 285.031 122.844 Q282.109 125.328 281.281 126.219 Q280.453 127.109 279.906 128 L292.891 128 Z" fill="#000000" fill-opacity="1.000000"/>
  <path d="M64.1667 131.75 C56.5728 131.75 50.4167 125.594 50.4167 118 C50.4167 110.406 56.5728 104.25 64.1667 104.25 C71.7606 104.25 77.9167 110.406 77.9167 118 C77.9167 125.594 71.7606 131.75 64.1667 131.75 Z" fill="#aa4643" fill-opacity="1.000000"/>
  <path d="M108.594 184 L108.594 160 L99.875 160 L99.875 157 L120.859 157 L120.859 160 L112.094 160 L112.094 184 L108.594 184 Z" fill="#000000" fill-opacity="1.000000"/>
  <path d="M134.953 178 L138.312 178 Q137.516 180.844 135.367 182.422 Q133.219 184 129.875 184 Q125.672 184 123.203 181.414 Q120.734 178.828 120.734 174.156 Q120.734 169.328 123.227 166.664 Q125.719 164 129.703 164 Q133.547 164 135.984 166.656 Q138.422 169.312 138.422 174.125 Q138.422 174.422 138.406 175 L124.094 175 Q124.281 177.906 125.883 179.453 Q127.484 181 129.891 181 Q131.688 181 132.953 180.281 Q134.219 179.562 134.953 178 ZM124.266 172 L134.984 172 Q134.766 169.797 133.75 168.703 Q132.203 167 129.719 167 Q127.484 167 125.953 168.359 Q124.422 169.719 124.266 172 Z" fill="#000000" fill-opacity="1.000000"/>
  <path d="M138.875 177 L142.094 177 Q142.359 178.938 143.602 179.969 Q144.844 181 147.062 181 Q149.297 181 150.383 180.164 Q151.469 179.328 151.469 178.219 Q151.469 177.203 150.516 176.625 Q149.844 176.234 147.188 175.625 Q143.609 174.719 142.227 174.047 Q140.844 173.375 140.133 172.195 Q139.422 171.016 139.422 169.594 Q139.422 168.297 140.008 167.188 Q140.594 166.078 141.609 165.359 Q142.359 164.781 143.672 164.391 Q144.984 164 146.484 164 Q148.734 164 150.438 164.727 Q152.141 165.453 152.953 166.688 Q153.766 167.922 154.078 170 L150.906 170 Q150.688 168.594 149.648 167.797 Q148.609 167 146.719 167 Q144.484 167 143.523 167.672 Q142.562 168.344 142.562 169.25 Q142.562 169.812 142.953 170.281 Q143.359 170.75 144.203 171.062 Q144.688 171.219 147.078 171.812 Q150.531 172.75 151.898 173.336 Q153.266 173.922 154.039 175.055 Q154.812 176.188 154.812 177.875 Q154.812 179.516 153.867 180.961 Q152.922 182.406 151.133 183.203 Q149.344 184 147.078 184 Q143.344 184 141.383 182.234 Q139.422 180.469 138.875 177 Z" fill="#000000" fill-opacity="1.000000"/>
  <path d="M165.625 180.844 L166.094 183.719 Q164.719 184 163.641 184 Q161.859 184 160.883 183.438 Q159.906 182.875 159.508 181.961 Q159.109 181.047 159.109 178.094 L159.109 167 L156.734 167 L156.734 164 L159.109 164 L159.109 159.25 L162.344 157.297 L162.344 164 L165.625 164 L165.625 167 L162.344 167 L162.344 178.312 Q162.344 179.719 162.516 180.125 Q162.688 180.531 163.078 180.766 Q163.469 181 164.188 181 Q164.734 181 165.625 180.844 Z" fill="#000000" fill-opacity="1.000000"/>
  <path d="" fill="#000000" fill-opacity="1.000000"/>
  <path d="M198.203 174.391 L201.703 175.25 Q200.594 179.516 197.734 181.758 Q194.875 184 190.734 184 Q186.453 184 183.773 182.281 Q181.094 180.562 179.695 177.305 Q178.297 174.047 178.297 170.297 Q178.297 166.219 179.875 163.188 Q181.453 160.156 184.375 158.578 Q187.297 157 190.797 157 Q194.781 157 197.492 159 Q200.203 161 201.266 164.625 L197.812 165.422 Q196.891 162.594 195.141 161.297 Q193.391 160 190.734 160 Q187.672 160 185.617 161.438 Q183.562 162.875 182.734 165.297 Q181.906 167.719 181.906 170.281 Q181.906 173.609 182.891 176.078 Q183.875 178.547 185.953 179.773 Q188.031 181 190.453 181 Q193.391 181 195.438 179.336 Q197.484 177.672 198.203 174.391 Z" fill="#000000" fill-opacity="1.000000"/>
  <path d="M204.172 174 Q204.172 168.688 207.141 166.125 Q209.609 164 213.172 164 Q217.125 164 219.633 166.586 Q222.141 169.172 222.141 173.734 Q222.141 177.422 221.031 179.539 Q219.922 181.656 217.797 182.828 Q215.672 184 213.172 184 Q209.141 184 206.656 181.422 Q204.172 178.844 204.172 174 ZM207.516 173.984 Q207.516 177.5 209.125 179.25 Q210.734 181 213.172 181 Q215.578 181 217.188 179.242 Q218.797 177.484 218.797 173.891 Q218.797 170.5 217.18 168.75 Q215.562 167 213.172 167 Q210.734 167 209.125 168.742 Q207.516 170.484 207.516 173.984 Z" fill="#000000" fill-opacity="1.000000"/>
  <path d="M225.688 184 L225.688 157 L228.953 157 L228.953 184 L225.688 184 Z" fill="#000000" fill-opacity="1.000000"/>
  <path d="M232.703 174 Q232.703 168.688 235.672 166.125 Q238.141 164 241.703 164 Q245.656 164 248.164 166.586 Q250.672 169.172 250.672 173.734 Q250.672 177.422 249.562 179.539 Q248.453 181.656 246.328 182.828 Q244.203 184 241.703 184 Q237.672 184 235.188 181.422 Q232.703 178.844 232.703 174 ZM236.047 173.984 Q236.047 177.5 237.656 179.25 Q239.266 181 241.703 181 Q244.109 181 245.719 179.242 Q247.328 177.484 247.328 173.891 Q247.328 170.5 245.711 168.75 Q244.094 167 241.703 167 Q239.266 167 237.656 168.742 Q236.047 170.484 236.047 173.984 Z" fill="#000000" fill-opacity="1.000000"/>
  <path d="M254.266 184 L254.266 164 L257.188 164 L257.188 166.984 Q258.312 165.156 259.258 164.578 Q260.203 164 261.344 164 Q262.984 164 264.688 164.625 L263.562 167.641 Q262.375 167 261.188 167 Q260.125 167 259.273 167.672 Q258.422 168.344 258.062 169.531 Q257.516 171.344 257.516 173.5 L257.516 184 L254.266 184 Z" fill="#000000" fill-opacity="1.000000"/>
  <path d="" fill="#000000" fill-opacity="1.000000"/>
  <path d="M275.812 177 L279.078 177 Q279.641 179.125 280.984 180.062 Q282.328 181 284.266 181 Q286.562 181 288.141 179.461 Q289.719 177.922 289.719 175.641 Q289.719 173.469 288.258 172.047 Q286.797 170.625 284.531 170.625 Q283.609 170.625 282.234 171 L282.594 168 Q282.922 168.031 283.125 168.031 Q285.203 168.031 286.859 167.016 Q288.516 166 288.516 163.875 Q288.516 162.203 287.305 161.102 Q286.094 160 284.172 160 Q282.281 160 281.016 161 Q279.75 162 279.391 164 L276.141 164 Q276.734 160.672 278.852 158.836 Q280.969 157 284.109 157 Q286.281 157 288.102 157.922 Q289.922 158.844 290.891 160.43 Q291.859 162.016 291.859 163.797 Q291.859 165.484 290.938 166.875 Q290.016 168.266 288.219 169.094 Q290.562 169.641 291.859 171.359 Q293.156 173.078 293.156 175.656 Q293.156 179.141 290.625 181.57 Q288.094 184 284.234 184 Q280.75 184 278.445 182.055 Q276.141 180.109 275.812 177 Z" fill="#000000" fill-opacity="1.000000"/>
  <path d="M64.1667 184.75 C56.5728 184.75 50.4167 178.594 50.4167 171 C50.4167 163.406 56.5728 157.25 64.1667 157.25 C71.7606 157.25 77.9167 163.406 77.9167 171 C77.9167 178.594 71.7606 184.75 64.1667 184.75 Z" fill="#db843d" fill-opacity="1.000000"/>
  <path d="M108.594 237 L108.594 213 L99.875 213 L99.875 210 L120.859 210 L120.859 213 L112.094 213 L112.094 237 L108.594 237 Z" fill="#000000" fill-opacity="1.000000"/>
  <path d="M134.953 231 L138.312 231 Q137.516 233.844 135.367 235.422 Q133.219 237 129.875 237 Q125.672 237 123.203 234.414 Q120.734 231.828 120.734 227.156 Q120.734 222.328 123.227 219.664 Q125.719 217 129.703 217 Q133.547 217 135.984 219.656 Q138.422 222.312 138.422 227.125 Q138.422 227.422 138.406 228 L124.094 228 Q124.281 230.906 125.883 232.453 Q127.484 234 129.891 234 Q131.688 234 132.953 233.281 Q134.219 232.562 134.953 231 ZM124.266 225 L134.984 225 Q134.766 222.797 133.75 221.703 Q132.203 220 129.719 220 Q127.484 220 125.953 221.359 Q124.422 222.719 124.266 225 Z" fill="#000000" fill-opacity="1.000000"/>
  <path d="M138.875 230 L142.094 230 Q142.359 231.938 143.602 232.969 Q144.844 234 147.062 234 Q149.297 234 150.383 233.164 Q151.469 232.328 151.469 231.219 Q151.469 230.203 150.516 229.625 Q149.844 229.234 147.188 228.625 Q143.609 227.719 142.227 227.047 Q140.844 226.375 140.133 225.195 Q139.422 224.016 139.422 222.594 Q139.422 221.297 140.008 220.188 Q140.594 219.078 141.609 218.359 Q142.359 217.781 143.672 217.391 Q144.984 217 146.484 217 Q148.734 217 150.438 217.727 Q152.141 218.453 152.953 219.688 Q153.766 220.922 154.078 223 L150.906 223 Q150.688 221.594 149.648 220.797 Q148.609 220 146.719 220 Q144.484 220 143.523 220.672 Q142.562 221.344 142.562 222.25 Q142.562 222.812 142.953 223.281 Q143.359 223.75 144.203 224.062 Q144.688 224.219 147.078 224.812 Q150.531 225.75 151.898 226.336 Q153.266 226.922 154.039 228.055 Q154.812 229.188 154.812 230.875 Q154.812 232.516 153.867 233.961 Q152.922 235.406 151.133 236.203 Q149.344 237 147.078 237 Q143.344 237 141.383 235.234 Q139.422 233.469 138.875 230 Z" fill="#000000" fill-opacity="1.000000"/>
  <path d="M165.625 233.844 L166.094 236.719 Q164.719 237 163.641 237 Q161.859 237 160.883 236.438 Q159.906 235.875 159.508 234.961 Q159.109 234.047 159.109 231.094 L159.109 220 L156.734 220 L156.734 217 L159.109 217 L159.109 212.25 L162.344 210.297 L162.344 217 L165.625 217 L165.625 220 L162.344 220 L162.344 231.312 Q162.344 232.719 162.516 233.125 Q162.688 233.531 163.078 233.766 Q163.469 234 164.188 234 Q164.734 234 165.625 233.844 Z" fill="#000000" fill-opacity="1.000000"/>
  <path d="" fill="#000000" fill-opacity="1.000000"/>
  <path d="M198.203 227.391 L201.703 228.25 Q200.594 232.516 197.734 234.758 Q194.875 237 190.734 237 Q186.453 237 183.773 235.281 Q181.094 233.562 179.695 230.305 Q178.297 227.047 178.297 223.297 Q178.297 219.219 179.875 216.188 Q181.453 213.156 184.375 211.578 Q187.297 210 190.797 210 Q194.781 210 197.492 212 Q200.203 214 201.266 217.625 L197.812 218.422 Q196.891 215.594 195.141 214.297 Q193.391 213 190.734 213 Q187.672 213 185.617 214.438 Q183.562 215.875 182.734 218.297 Q181.906 220.719 181.906 223.281 Q181.906 226.609 182.891 229.078 Q183.875 231.547 185.953 232.773 Q188.031 234 190.453 234 Q193.391 234 195.438 232.336 Q197.484 230.672 198.203 227.391 Z" fill="#000000" fill-opacity="1.000000"/>
  <path d="M204.172 227 Q204.172 221.688 207.141 219.125 Q209.609 217 213.172 217 Q217.125 217 219.633 219.586 Q222.141 222.172 222.141 226.734 Q222.141 230.422 221.031 232.539 Q219.922 234.656 217.797 235.828 Q215.672 237 213.172 237 Q209.141 237 206.656 234.422 Q204.172 231.844 204.172 227 ZM207.516 226.984 Q207.516 230.5 209.125 232.25 Q210.734 234 213.172 234 Q215.578 234 217.188 232.242 Q218.797 230.484 218.797 226.891 Q218.797 223.5 217.18 221.75 Q215.562 220 213.172 220 Q210.734 220 209.125 221.742 Q207.516 223.484 207.516 226.984 Z" fill="#000000" fill-opacity="1.000000"/>
  <path d="M225.688 237 L225.688 210 L228.953 210 L228.953 237 L225.688 237 Z" fill="#000000" fill-opacity="1.000000"/>
  <path d="M232.703 227 Q232.703 221.688 235.672 219.125 Q238.141 217 241.703 217 Q245.656 217 248.164 219.586 Q250.672 222.172 250.672 226.734 Q250.672 230.422 249.562 232.539 Q248.453 234.656 246.328 235.828 Q244.203 237 241.703 237 Q237.672 237 235.188 234.422 Q232.703 231.844 232.703 227 ZM236.047 226.984 Q236.047 230.5 237.656 232.25 Q239.266 234 241.703 234 Q244.109 234 245.719 232.242 Q247.328 230.484 247.328 226.891 Q247.328 223.5 245.711 221.75 Q244.094 220 241.703 220 Q239.266 220 237.656 221.742 Q236.047 223.484 236.047 226.984 Z" fill="#000000" fill-opacity="1.000000"/>
  <path d="M254.266 237 L254.266 217 L257.188 217 L257.188 219.984 Q258.312 218.156 259.258 217.578 Q260.203 217 261.344 217 Q262.984 217 264.688 217.625 L263.562 220.641 Q262.375 220 261.188 220 Q260.125 220 259.273 220.672 Q258.422 221.344 258.062 222.531 Q257.516 224.344 257.516 226.5 L257.516 237 L254.266 237 Z" fill="#000000" fill-opacity="1.000000"/>
  <path d="" fill="#000000" fill-opacity="1.000000"/>
  <path d="M286.219 237 L286.219 231 L274.734 231 L274.734 228 L286.828 210 L289.484 210 L289.484 228 L293.062 228 L293.062 231 L289.484 231 L289.484 237 L286.219 237 ZM286.219 228 L286.219 215.672 L277.938 228 L286.219 228 Z" fill="#000000" fill-opacity="1.000000"/>
  <path d="M64.1667 237.75 C56.5728 237.75 50.4167 231.594 50.4167 224 C50.4167 216.406 56.5728 210.25 64.1667 210.25 C71.7606 210.25 77.9167 216.406 77.9167 224 C77.9167 231.594 71.7606 237.75 64.1667 237.75 Z" fill="#89a54e" fill-opacity="1.000000"/>
  <path d="M108.594 290 L108.594 266 L99.875 266 L99.875 263 L120.859 263 L120.859 266 L112.094 266 L112.094 290 L108.594 290 Z" fill="#000000" fill-opacity="1.000000"/>
  <path d="M134.953 284 L138.312 284 Q137.516 286.844 135.367 288.422 Q133.219 290 129.875 290 Q125.672 290 123.203 287.414 Q120.734 284.828 120.734 280.156 Q120.734 275.328 123.227 272.664 Q125.719 270 129.703 270 Q133.547 270 135.984 272.656 Q138.422 275.312 138.422 280.125 Q138.422 280.422 138.406 281 L124.094 281 Q124.281 283.906 125.883 285.453 Q127.484 287 129.891 287 Q131.688 287 132.953 286.281 Q134.219 285.562 134.953 284 ZM124.266 278 L134.984 278 Q134.766 275.797 133.75 274.703 Q132.203 273 129.719 273 Q127.484 273 125.953 274.359 Q124.422 275.719 124.266 278 Z" fill="#000000" fill-opacity="1.000000"/>
  <path d="M138.875 283 L142.094 283 Q142.359 284.938 143.602 285.969 Q144.844 287 147.062 287 Q149.297 287 150.383 286.164 Q151.469 285.328 151.469 284.219 Q151.469 283.203 150.516 282.625 Q149.844 282.234 147.188 281.625 Q143.609 280.719 142.227 280.047 Q140.844 279.375 140.133 278.195 Q139.422 277.016 139.422 275.594 Q139.422 274.297 140.008 273.188 Q140.594 272.078 141.609 271.359 Q142.359 270.781 143.672 270.391 Q144.984 270 146.484 270 Q148.734 270 150.438 270.727 Q152.141 271.453 152.953 272.688 Q153.766 273.922 154.078 276 L150.906 276 Q150.688 274.594 149.648 273.797 Q148.609 273 146.719 273 Q144.484 273 143.523 273.672 Q142.562 274.344 142.562 275.25 Q142.562 275.812 142.953 276.281 Q143.359 276.75 144.203 277.062 Q144.688 277.219 147.078 277.812 Q150.531 278.75 151.898 279.336 Q153.266 279.922 154.039 281.055 Q154.812 282.188 154.812 283.875 Q154.812 285.516 153.867 286.961 Q152.922 288.406 151.133 289.203 Q149.344 290 147.078 290 Q143.344 290 141.383 288.234 Q139.422 286.469 138.875 283 Z" fill="#000000" fill-opacity="1.000000"/>
  <path d="M165.625 286.844 L166.094 289.719 Q164.719 290 163.641 290 Q161.859 290 160.883 289.438 Q159.906 288.875 159.508 287.961 Q159.109 287.047 159.109 284.094 L159.109 273 L156.734 273 L156.734 270 L159.109 270 L159.109 265.25 L162.344 263.297 L162.344 270 L165.625 270 L165.625 273 L162.344 273 L162.344 284.312 Q162.344 285.719 162.516 286.125 Q162.688 286.531 163.078 286.766 Q163.469 287 164.188 287 Q164.734 287 165.625 286.844 Z" fill="#000000" fill-opacity="1.000000"/>
  <path d="" fill="#000000" fill-opacity="1.000000"/>
  <path d="M198.203 280.391 L201.703 281.25 Q200.594 285.516 197.734 287.758 Q194.875 290 190.734 290 Q186.453 290 183.773 288.281 Q181.094 286.562 179.695 283.305 Q178.297 280.047 178.297 276.297 Q178.297 272.219 179.875 269.188 Q181.453 266.156 184.375 264.578 Q187.297 263 190.797 263 Q194.781 263 197.492 265 Q200.203 267 201.266 270.625 L197.812 271.422 Q196.891 268.594 195.141 267.297 Q193.391 266 190.734 266 Q187.672 266 185.617 267.438 Q183.562 268.875 182.734 271.297 Q181.906 273.719 181.906 276.281 Q181.906 279.609 182.891 282.078 Q183.875 284.547 185.953 285.773 Q188.031 287 190.453 287 Q193.391 287 195.438 285.336 Q197.484 283.672 198.203 280.391 Z" fill="#000000" fill-opacity="1.000000"/>
  <path d="M204.172 280 Q204.172 274.688 207.141 272.125 Q209.609 270 213.172 270 Q217.125 270 219.633 272.586 Q222.141 275.172 222.141 279.734 Q222.141 283.422 221.031 285.539 Q219.922 287.656 217.797 288.828 Q215.672 290 213.172 290 Q209.141 290 206.656 287.422 Q204.172 284.844 204.172 280 ZM207.516 279.984 Q207.516 283.5 209.125 285.25 Q210.734 287 213.172 287 Q215.578 287 217.188 285.242 Q218.797 283.484 218.797 279.891 Q218.797 276.5 217.18 274.75 Q215.562 273 213.172 273 Q210.734 273 209.125 274.742 Q207.516 276.484 207.516 279.984 Z" fill="#000000" fill-opacity="1.000000"/>
  <path d="M225.688 290 L225.688 263 L228.953 263 L228.953 290 L225.688 290 Z" fill="#000000" fill-opacity="1.000000"/>
  <path d="M232.703 280 Q232.703 274.688 235.672 272.125 Q238.141 270 241.703 270 Q245.656 270 248.164 272.586 Q250.672 275.172 250.672 279.734 Q250.672 283.422 249.562 285.539 Q248.453 287.656 246.328 288.828 Q244.203 290 241.703 290 Q237.672 290 235.188 287.422 Q232.703 284.844 232.703 280 ZM236.047 279.984 Q236.047 283.5 237.656 285.25 Q239.266 287 241.703 287 Q244.109 287 245.719 285.242 Q247.328 283.484 247.328 279.891 Q247.328 276.5 245.711 274.75 Q244.094 273 241.703 273 Q239.266 273 237.656 274.742 Q236.047 276.484 236.047 279.984 Z" fill="#000000" fill-opacity="1.000000"/>
  <path d="M254.266 290 L254.266 270 L257.188 270 L257.188 272.984 Q258.312 271.156 259.258 270.578 Q260.203 270 261.344 270 Q262.984 270 264.688 270.625 L263.562 273.641 Q262.375 273 261.188 273 Q260.125 273 259.273 273.672 Q258.422 274.344 258.062 275.531 Q257.516 277.344 257.516 279.5 L257.516 290 L254.266 290 Z" fill="#000000" fill-opacity="1.000000"/>
  <path d="" fill="#000000" fill-opacity="1.000000"/>
  <path d="M275.797 283 L279.219 283 Q279.594 285 280.977 286 Q282.359 287 284.312 287 Q286.656 287 288.281 285.297 Q289.906 283.594 289.906 280.781 Q289.906 278.094 288.344 276.547 Q286.781 275 284.25 275 Q282.688 275 281.422 275.555 Q280.156 276.109 279.438 277 L276.375 277 L278.938 263 L292.109 263 L292.109 266 L281.547 266 L280.125 273.734 Q282.516 272 285.125 272 Q288.594 272 290.977 274.398 Q293.359 276.797 293.359 280.578 Q293.359 284.172 291.266 286.781 Q288.719 290 284.312 290 Q280.688 290 278.406 288.086 Q276.125 286.172 275.797 283 Z" fill="#000000" fill-opacity="1.000000"/>
  <path d="M64.1667 290.75 C56.5728 290.75 50.4167 284.594 50.4167 277 C50.4167 269.406 56.5728 263.25 64.1667 263.25 C71.7606 263.25 77.9167 269.406 77.9167 277 C77.9167 284.594 71.7606 290.75 64.1667 290.75 Z" fill="#80699b" fill-opacity="1.000000"/>
  <path d="M108.594 343 L108.594 319 L99.875 319 L99.875 316 L120.859 316 L120.859 319 L112.094 319 L112.094 343 L108.594 343 Z" fill="#000000" fill-opacity="1.000000"/>
  <path d="M134.953 337 L138.312 337 Q137.516 339.844 135.367 341.422 Q133.219 343 129.875 343 Q125.672 343 123.203 340.414 Q120.734 337.828 120.734 333.156 Q120.734 328.328 123.227 325.664 Q125.719 323 129.703 323 Q133.547 323 135.984 325.656 Q138.422 328.312 138.422 333.125 Q138.422 333.422 138.406 334 L124.094 334 Q124.281 336.906 125.883 338.453 Q127.484 340 129.891 340 Q131.688 340 132.953 339.281 Q134.219 338.562 134.953 337 ZM124.266 331 L134.984 331 Q134.766 328.797 133.75 327.703 Q132.203 326 129.719 326 Q127.484 326 125.953 327.359 Q124.422 328.719 124.266 331 Z" fill="#000000" fill-opacity="1.000000"/>
  <path d="M138.875 336 L142.094 336 Q142.359 337.938 143.602 338.969 Q144.844 340 147.062 340 Q149.297 340 150.383 339.164 Q151.469 338.328 151.469 337.219 Q151.469 336.203 150.516 335.625 Q149.844 335.234 147.188 334.625 Q143.609 333.719 142.227 333.047 Q140.844 332.375 140.133 331.195 Q139.422 330.016 139.422 328.594 Q139.422 327.297 140.008 326.188 Q140.594 325.078 141.609 324.359 Q142.359 323.781 143.672 323.391 Q144.984 323 146.484 323 Q148.734 323 150.438 323.727 Q152.141 324.453 152.953 325.688 Q153.766 326.922 154.078 329 L150.906 329 Q150.688 327.594 149.648 326.797 Q148.609 326 146.719 326 Q144.484 326 143.523 326.672 Q142.562 327.344 142.562 328.25 Q142.562 328.812 142.953 329.281 Q143.359 329.75 144.203 330.062 Q144.688 330.219 147.078 330.812 Q150.531 331.75 151.898 332.336 Q153.266 332.922 154.039 334.055 Q154.812 335.188 154.812 336.875 Q154.812 338.516 153.867 339.961 Q152.922 341.406 151.133 342.203 Q149.344 343 147.078 343 Q143.344 343 141.383 341.234 Q139.422 339.469 138.875 336 Z" fill="#000000" fill-opacity="1.000000"/>
  <path d="M165.625 339.844 L166.094 342.719 Q164.719 343 163.641 343 Q161.859 343 160.883 342.438 Q159.906 341.875 159.508 340.961 Q159.109 340.047 159.109 337.094 L159.109 326 L156.734 326 L156.734 323 L159.109 323 L159.109 318.25 L162.344 316.297 L162.344 323 L165.625 323 L165.625 326 L162.344 326 L162.344 337.312 Q162.344 338.719 162.516 339.125 Q162.688 339.531 163.078 339.766 Q163.469 340 164.188 340 Q164.734 340 165.625 339.844 Z" fill="#000000" fill-opacity="1.000000"/>
  <path d="" fill="#000000" fill-opacity="1.000000"/>
  <path d="M198.203 333.391 L201.703 334.25 Q200.594 338.516 197.734 340.758 Q194.875 343 190.734 343 Q186.453 343 183.773 341.281 Q181.094 339.562 179.695 336.305 Q178.297 333.047 178.297 329.297 Q178.297 325.219 179.875 322.188 Q181.453 319.156 184.375 317.578 Q187.297 316 190.797 316 Q194.781 316 197.492 318 Q200.203 320 201.266 323.625 L197.812 324.422 Q196.891 321.594 195.141 320.297 Q193.391 319 190.734 319 Q187.672 319 185.617 320.438 Q183.562 321.875 182.734 324.297 Q181.906 326.719 181.906 329.281 Q181.906 332.609 182.891 335.078 Q183.875 337.547 185.953 338.773 Q188.031 340 190.453 340 Q193.391 340 195.438 338.336 Q197.484 336.672 198.203 333.391 Z" fill="#000000" fill-opacity="1.000000"/>
  <path d="M204.172 333 Q204.172 327.688 207.141 325.125 Q209.609 323 213.172 323 Q217.125 323 219.633 325.586 Q222.141 328.172 222.141 332.734 Q222.141 336.422 221.031 338.539 Q219.922 340.656 217.797 341.828 Q215.672 343 213.172 343 Q209.141 343 206.656 340.422 Q204.172 337.844 204.172 333 ZM207.516 332.984 Q207.516 336.5 209.125 338.25 Q210.734 340 213.172 340 Q215.578 340 217.188 338.242 Q218.797 336.484 218.797 332.891 Q218.797 329.5 217.18 327.75 Q215.562 326 213.172 326 Q210.734 326 209.125 327.742 Q207.516 329.484 207.516 332.984 Z" fill="#000000" fill-opacity="1.000000"/>
  <path d="M225.688 343 L225.688 316 L228.953 316 L228.953 343 L225.688 343 Z" fill="#000000" fill-opacity="1.000000"/>
  <path d="M232.703 333 Q232.703 327.688 235.672 325.125 Q238.141 323 241.703 323 Q245.656 323 248.164 325.586 Q250.672 328.172 250.672 332.734 Q250.672 336.422 249.562 338.539 Q248.453 340.656 246.328 341.828 Q244.203 343 241.703 343 Q237.672 343 235.188 340.422 Q232.703 337.844 232.703 333 ZM236.047 332.984 Q236.047 336.5 237.656 338.25 Q239.266 340 241.703 340 Q244.109 340 245.719 338.242 Q247.328 336.484 247.328 332.891 Q247.328 329.5 245.711 327.75 Q244.094 326 241.703 326 Q239.266 326 237.656 327.742 Q236.047 329.484 236.047 332.984 Z" fill="#000000" fill-opacity="1.000000"/>
  <path d="M254.266 343 L254.266 323 L257.188 323 L257.188 325.984 Q258.312 324.156 259.258 323.578 Q260.203 323 261.344 323 Q262.984 323 264.688 323.625 L263.562 326.641 Q262.375 326 261.188 326 Q260.125 326 259.273 326.672 Q258.422 327.344 258.062 328.531 Q257.516 330.344 257.516 332.5 L257.516 343 L254.266 343 Z" fill="#000000" fill-opacity="1.000000"/>
  <path d="" fill="#000000" fill-opacity="1.000000"/>
  <path d="M292.672 323 L289.438 323 Q289 321.172 288.203 320.328 Q286.891 319 284.953 319 Q283.406 319 282.234 319.766 Q280.703 320.766 279.812 322.68 Q278.922 324.594 278.891 328.531 Q280.062 326.734 281.758 325.867 Q283.453 325 285.328 325 Q288.578 325 290.859 327.445 Q293.141 329.891 293.141 333.766 Q293.141 336.312 292.062 338.492 Q290.984 340.672 289.109 341.836 Q287.234 343 284.844 343 Q280.781 343 278.219 340.016 Q275.656 337.031 275.656 330.172 Q275.656 322.516 278.5 319.031 Q280.969 316 285.156 316 Q288.281 316 290.281 317.859 Q292.281 319.719 292.672 323 ZM279.391 333.688 Q279.391 335.359 280.102 336.883 Q280.812 338.406 282.102 339.203 Q283.391 340 284.797 340 Q286.859 340 288.344 338.352 Q289.828 336.703 289.828 333.859 Q289.828 331.141 288.359 329.57 Q286.891 328 284.672 328 Q282.469 328 280.93 329.57 Q279.391 331.141 279.391 333.688 Z" fill="#000000" fill-opacity="1.000000"/>
  <path d="M64.1667 343.75 C56.5728 343.75 50.4167 337.594 50.4167 330 C50.4167 322.406 56.5728 316.25 64.1667 316.25 C71.7606 316.25 77.9167 322.406 77.9167 330 C77.9167 337.594 71.7606 343.75 64.1667 343.75 Z" fill="#3d96ae" fill-opacity="1.000000"/>
  <path d="M108.594 396 L108.594 372 L99.875 372 L99.875 369 L120.859 369 L120.859 372 L112.094 372 L112.094 396 L108.594 396 Z" fill="#000000" fill-opacity="1.000000"/>
  <path d="M134.953 390 L138.312 390 Q137.516 392.844 135.367 394.422 Q133.219 396 129.875 396 Q125.672 396 123.203 393.414 Q120.734 390.828 120.734 386.156 Q120.734 381.328 123.227 378.664 Q125.719 376 129.703 376 Q133.547 376 135.984 378.656 Q138.422 381.312 138.422 386.125 Q138.422 386.422 138.406 387 L124.094 387 Q124.281 389.906 125.883 391.453 Q127.484 393 129.891 393 Q131.688 393 132.953 392.281 Q134.219 391.562 134.953 390 ZM124.266 384 L134.984 384 Q134.766 381.797 133.75 380.703 Q132.203 379 129.719 379 Q127.484 379 125.953 380.359 Q124.422 381.719 124.266 384 Z" fill="#000000" fill-opacity="1.000000"/>
  <path d="M138.875 389 L142.094 389 Q142.359 390.938 143.602 391.969 Q144.844 393 147.062 393 Q149.297 393 150.383 392.164 Q151.469 391.328 151.469 390.219 Q151.469 389.203 150.516 388.625 Q149.844 388.234 147.188 387.625 Q143.609 386.719 142.227 386.047 Q140.844 385.375 140.133 384.195 Q139.422 383.016 139.422 381.594 Q139.422 380.297 140.008 379.188 Q140.594 378.078 141.609 377.359 Q142.359 376.781 143.672 376.391 Q144.984 376 146.484 376 Q148.734 376 150.438 376.727 Q152.141 377.453 152.953 378.688 Q153.766 379.922 154.078 382 L150.906 382 Q150.688 380.594 149.648 379.797 Q148.609 379 146.719 379 Q144.484 379 143.523 379.672 Q142.562 380.344 142.562 381.25 Q142.562 381.812 142.953 382.281 Q143.359 382.75 144.203 383.062 Q144.688 383.219 147.078 383.812 Q150.531 384.75 151.898 385.336 Q153.266 385.922 154.039 387.055 Q154.812 388.188 154.812 389.875 Q154.812 391.516 153.867 392.961 Q152.922 394.406 151.133 395.203 Q149.344 396 147.078 396 Q143.344 396 141.383 394.234 Q139.422 392.469 138.875 389 Z" fill="#000000" fill-opacity="1.000000"/>
  <path d="M165.625 392.844 L166.094 395.719 Q164.719 396 163.641 396 Q161.859 396 160.883 395.438 Q159.906 394.875 159.508 393.961 Q159.109 393.047 159.109 390.094 L159.109 379 L156.734 379 L156.734 376 L159.109 376 L159.109 371.25 L162.344 369.297 L162.344 376 L165.625 376 L165.625 379 L162.344 379 L162.344 390.312 Q162.344 391.719 162.516 392.125 Q162.688 392.531 163.078 392.766 Q163.469 393 164.188 393 Q164.734 393 165.625 392.844 Z" fill="#000000" fill-opacity="1.000000"/>
  <path d="" fill="#000000" fill-opacity="1.000000"/>
  <path d="M198.203 386.391 L201.703 387.25 Q200.594 391.516 197.734 393.758 Q194.875 396 190.734 396 Q186.453 396 183.773 394.281 Q181.094 392.562 179.695 389.305 Q178.297 386.047 178.297 382.297 Q178.297 378.219 179.875 375.188 Q181.453 372.156 184.375 370.578 Q187.297 369 190.797 369 Q194.781 369 197.492 371 Q200.203 373 201.266 376.625 L197.812 377.422 Q196.891 374.594 195.141 373.297 Q193.391 372 190.734 372 Q187.672 372 185.617 373.438 Q183.562 374.875 182.734 377.297 Q181.906 379.719 181.906 382.281 Q181.906 385.609 182.891 388.078 Q183.875 390.547 185.953 391.773 Q188.031 393 190.453 393 Q193.391 393 195.438 391.336 Q197.484 389.672 198.203 386.391 Z" fill="#000000" fill-opacity="1.000000"/>
  <path d="M204.172 386 Q204.172 380.688 207.141 378.125 Q209.609 376 213.172 376 Q217.125 376 219.633 378.586 Q222.141 381.172 222.141 385.734 Q222.141 389.422 221.031 391.539 Q219.922 393.656 217.797 394.828 Q215.672 396 213.172 396 Q209.141 396 206.656 393.422 Q204.172 390.844 204.172 386 ZM207.516 385.984 Q207.516 389.5 209.125 391.25 Q210.734 393 213.172 393 Q215.578 393 217.188 391.242 Q218.797 389.484 218.797 385.891 Q218.797 382.5 217.18 380.75 Q215.562 379 213.172 379 Q210.734 379 209.125 380.742 Q207.516 382.484 207.516 385.984 Z" fill="#000000" fill-opacity="1.000000"/>
  <path d="M225.688 396 L225.688 369 L228.953 369 L228.953 396 L225.688 396 Z" fill="#000000" fill-opacity="1.000000"/>
  <path d="M232.703 386 Q232.703 380.688 235.672 378.125 Q238.141 376 241.703 376 Q245.656 376 248.164 378.586 Q250.672 381.172 250.672 385.734 Q250.672 389.422 249.562 391.539 Q248.453 393.656 246.328 394.828 Q244.203 396 241.703 396 Q237.672 396 235.188 393.422 Q232.703 390.844 232.703 386 ZM236.047 385.984 Q236.047 389.5 237.656 391.25 Q239.266 393 241.703 393 Q244.109 393 245.719 391.242 Q247.328 389.484 247.328 385.891 Q247.328 382.5 245.711 380.75 Q244.094 379 241.703 379 Q239.266 379 237.656 380.742 Q236.047 382.484 236.047 385.984 Z" fill="#000000" fill-opacity="1.000000"/>
  <path d="M254.266 396 L254.266 376 L257.188 376 L257.188 378.984 Q258.312 377.156 259.258 376.578 Q260.203 376 261.344 376 Q262.984 376 264.688 376.625 L263.562 379.641 Q262.375 379 261.188 379 Q260.125 379 259.273 379.672 Q258.422 380.344 258.062 381.531 Q257.516 383.344 257.516 385.5 L257.516 396 L254.266 396 Z" fill="#000000" fill-opacity="1.000000"/>
  <path d="" fill="#000000" fill-opacity="1.000000"/>
  <path d="M276.016 372 L276.016 369 L293.156 369 L293.156 371.422 Q290.641 374.188 288.156 378.844 Q285.672 383.5 284.312 388.406 Q283.328 391.875 283.062 396 L279.719 396 Q279.766 392.734 280.945 388.125 Q282.125 383.516 284.32 379.227 Q286.516 374.938 288.984 372 L276.016 372 Z" fill="#000000" fill-opacity="1.000000"/>
  <path d="M64.1667 396.75 C56.5728 396.75 50.4167 390.594 50.4167 383 C50.4167 375.406 56.5728 369.25 64.1667 369.25 C71.7606 369.25 77.9167 375.406 77.9167 383 C77.9167 390.594 71.7606 396.75 64.1667 396.75 Z" fill="#4572a7" fill-opacity="1.000000"/>
  <path d="M108.594 449 L108.594 425 L99.875 425 L99.875 422 L120.859 422 L120.859 425 L112.094 425 L112.094 449 L108.594 449 Z" fill="#000000" fill-opacity="1.000000"/>
  <path d="M134.953 443 L138.312 443 Q137.516 445.844 135.367 447.422 Q133.219 449 129.875 449 Q125.672 449 123.203 446.414 Q120.734 443.828 120.734 439.156 Q120.734 434.328 123.227 431.664 Q125.719 429 129.703 429 Q133.547 429 135.984 431.656 Q138.422 434.312 138.422 439.125 Q138.422 439.422 138.406 440 L124.094 440 Q124.281 442.906 125.883 444.453 Q127.484 446 129.891 446 Q131.688 446 132.953 445.281 Q134.219 444.562 134.953 443 ZM124.266 437 L134.984 437 Q134.766 434.797 133.75 433.703 Q132.203 432 129.719 432 Q127.484 432 125.953 433.359 Q124.422 434.719 124.266 437 Z" fill="#000000" fill-opacity="1.000000"/>
  <path d="M138.875 442 L142.094 442 Q142.359 443.938 143.602 444.969 Q144.844 446 147.062 446 Q149.297 446 150.383 445.164 Q151.469 444.328 151.469 443.219 Q151.469 442.203 150.516 441.625 Q149.844 441.234 147.188 440.625 Q143.609 439.719 142.227 439.047 Q140.844 438.375 140.133 437.195 Q139.422 436.016 139.422 434.594 Q139.422 433.297 140.008 432.188 Q140.594 431.078 141.609 430.359 Q142.359 429.781 143.672 429.391 Q144.984 429 146.484 429 Q148.734 429 150.438 429.727 Q152.141 430.453 152.953 431.688 Q153.766 432.922 154.078 435 L150.906 435 Q150.688 433.594 149.648 432.797 Q148.609 432 146.719 432 Q144.484 432 143.523 432.672 Q142.562 433.344 142.562 434.25 Q142.562 434.812 142.953 435.281 Q143.359 435.75 144.203 436.062 Q144.688 436.219 147.078 436.812 Q150.531 437.75 151.898 438.336 Q153.266 438.922 154.039 440.055 Q154.812 441.188 154.812 442.875 Q154.812 444.516 153.867 445.961 Q152.922 447.406 151.133 448.203 Q149.344 449 147.078 449 Q143.344 449 141.383 447.234 Q139.422 445.469 138.875 442 Z" fill="#000000" fill-opacity="1.000000"/>
  <path d="M165.625 445.844 L166.094 448.719 Q164.719 449 163.641 449 Q161.859 449 160.883 448.438 Q159.906 447.875 159.508 446.961 Q159.109 446.047 159.109 443.094 L159.109 432 L156.734 432 L156.734 429 L159.109 429 L159.109 424.25 L162.344 422.297 L162.344 429 L165.625 429 L165.625 432 L162.344 432 L162.344 443.312 Q162.344 444.719 162.516 445.125 Q162.688 445.531 163.078 445.766 Q163.469 446 164.188 446 Q164.734 446 165.625 445.844 Z" fill="#000000" fill-opacity="1.000000"/>
  <path d="" fill="#000000" fill-opacity="1.000000"/>
  <path d="M198.203 439.391 L201.703 440.25 Q200.594 444.516 197.734 446.758 Q194.875 449 190.734 449 Q186.453 449 183.773 447.281 Q181.094 445.562 179.695 442.305 Q178.297 439.047 178.297 435.297 Q178.297 431.219 179.875 428.188 Q181.453 425.156 184.375 423.578 Q187.297 422 190.797 422 Q194.781 422 197.492 424 Q200.203 426 201.266 429.625 L197.812 430.422 Q196.891 427.594 195.141 426.297 Q193.391 425 190.734 425 Q187.672 425 185.617 426.438 Q183.562 427.875 182.734 430.297 Q181.906 432.719 181.906 435.281 Q181.906 438.609 182.891 441.078 Q183.875 443.547 185.953 444.773 Q188.031 446 190.453 446 Q193.391 446 195.438 444.336 Q197.484 442.672 198.203 439.391 Z" fill="#000000" fill-opacity="1.000000"/>
  <path d="M204.172 439 Q204.172 433.688 207.141 431.125 Q209.609 429 213.172 429 Q217.125 429 219.633 431.586 Q222.141 434.172 222.141 438.734 Q222.141 442.422 221.031 444.539 Q219.922 446.656 217.797 447.828 Q215.672 449 213.172 449 Q209.141 449 206.656 446.422 Q204.172 443.844 204.172 439 ZM207.516 438.984 Q207.516 442.5 209.125 444.25 Q210.734 446 213.172 446 Q215.578 446 217.188 444.242 Q218.797 442.484 218.797 438.891 Q218.797 435.5 217.18 433.75 Q215.562 432 213.172 432 Q210.734 432 209.125 433.742 Q207.516 435.484 207.516 438.984 Z" fill="#000000" fill-opacity="1.000000"/>
  <path d="M225.688 449 L225.688 422 L228.953 422 L228.953 449 L225.688 449 Z" fill="#000000" fill-opacity="1.000000"/>
  <path d="M232.703 439 Q232.703 433.688 235.672 431.125 Q238.141 429 241.703 429 Q245.656 429 248.164 431.586 Q250.672 434.172 250.672 438.734 Q250.672 442.422 249.562 444.539 Q248.453 446.656 246.328 447.828 Q244.203 449 241.703 449 Q237.672 449 235.188 446.422 Q232.703 443.844 232.703 439 ZM236.047 438.984 Q236.047 442.5 237.656 444.25 Q239.266 446 241.703 446 Q244.109 446 245.719 444.242 Q247.328 442.484 247.328 438.891 Q247.328 435.5 245.711 433.75 Q244.094 432 241.703 432 Q239.266 432 237.656 433.742 Q236.047 435.484 236.047 438.984 Z" fill="#000000" fill-opacity="1.000000"/>
  <path d="M254.266 449 L254.266 429 L257.188 429 L257.188 431.984 Q258.312 430.156 259.258 429.578 Q260.203 429 261.344 429 Q262.984 429 264.688 429.625 L263.562 432.641 Q262.375 432 261.188 432 Q260.125 432 259.273 432.672 Q258.422 433.344 258.062 434.531 Q257.516 436.344 257.516 438.5 L257.516 449 L254.266 449 Z" fill="#000000" fill-opacity="1.000000"/>
  <path d="" fill="#000000" fill-opacity="1.000000"/>
  <path d="M280.812 434.406 Q278.781 433.656 277.805 432.266 Q276.828 430.875 276.828 428.922 Q276.828 426 278.906 424 Q280.984 422 284.438 422 Q287.906 422 290.023 424.047 Q292.141 426.094 292.141 429.016 Q292.141 430.891 291.172 432.273 Q290.203 433.656 288.234 434.406 Q290.672 435.188 291.945 436.93 Q293.219 438.672 293.219 441.094 Q293.219 444.438 290.812 446.719 Q288.406 449 284.484 449 Q280.578 449 278.172 446.711 Q275.766 444.422 275.766 441.016 Q275.766 438.469 277.078 436.75 Q278.391 435.031 280.812 434.406 ZM280.156 428.891 Q280.156 430.703 281.367 431.852 Q282.578 433 284.516 433 Q286.391 433 287.594 431.859 Q288.797 430.719 288.797 429.062 Q288.797 427.344 287.562 426.172 Q286.328 425 284.484 425 Q282.609 425 281.383 426.148 Q280.156 427.297 280.156 428.891 ZM279.109 440.953 Q279.109 442.25 279.766 443.461 Q280.422 444.672 281.727 445.336 Q283.031 446 284.531 446 Q286.859 446 288.375 444.602 Q289.891 443.203 289.891 441.047 Q289.891 438.859 288.328 437.43 Q286.766 436 284.422 436 Q282.125 436 280.617 437.414 Q279.109 438.828 279.109 440.953 Z" fill="#000000" fill-opacity="1.000000"/>
  <path d="M64.1667 449.75 C56.5728 449.75 50.4167 443.594 50.4167 436 C50.4167 428.406 56.5728 422.25 64.1667 422.25 C71.7606 422.25 77.9167 428.406 77.9167 436 C77.9167 443.594 71.7606 449.75 64.1667 449.75 Z" fill="#aa4643" fill-opacity="1.000000"/>
</svg>