<?xml version="1.0" encoding="UTF-8" ?>
<!-- Generated by clip v0.8.0 (clip-lang.org) -->
<svg xmlns="http://www.w3.org/2000/svg" width="2048" height="800">
  <rect width="2048" height="800" fill="#ffffff" fill-opacity="1"/>
  <path d="M157.750 692 L2011.333 692" fill="none" stroke="#000000" stroke-width="3.333"/>
  <path d="M157.750 692 L157.750 678.667" fill="none" stroke="#000000" stroke-width="3.333"/>
  <path d="M466.681 692 L466.681 678.667" fill="none" stroke="#000000" stroke-width="3.333"/>
  <path d="M775.611 692 L775.611 678.667" fill="none" stroke="#000000" stroke-width="3.333"/>
  <path d="M1084.542 692 L1084.542 678.667" fill="none" stroke="#000000" stroke-width="3.333"/>
  <path d="M1393.472 692 L1393.472 678.667" fill="none" stroke="#000000" stroke-width="3.333"/>
  <path d="M1702.403 692 L1702.403 678.667" fill="none" stroke="#000000" stroke-width="3.333"/>
  <path d="M2011.333 692 L2011.333 678.667" fill="none" stroke="#000000" stroke-width="3.333"/>
  <path d="M87.922 741.849 Q87.922 737.146 88.891 734.294 Q89.859 731.443 91.766 729.888 Q93.672 728.333 96.562 728.333 Q98.703 728.333 100.305 729.193 Q101.906 730.052 102.961 731.661 Q104.016 733.271 104.609 735.591 Q105.203 737.911 105.203 741.849 Q105.203 746.490 104.242 749.349 Q103.281 752.208 101.375 753.771 Q99.469 755.333 96.562 755.333 Q92.734 755.333 90.547 752.599 Q87.922 749.286 87.922 741.849 Z M91.266 741.833 Q91.266 748.146 92.797 750.240 Q94.328 752.333 96.562 752.333 Q98.797 752.333 100.328 750.232 Q101.859 748.130 101.859 741.833 Q101.859 735.505 100.328 733.419 Q98.797 731.333 96.531 731.333 Q94.281 731.333 92.953 733.177 Q91.266 735.521 91.266 741.833 Z"/>
  <path d="M108.312 748.333 L111.734 748.333 Q112.109 750.333 113.492 751.333 Q114.875 752.333 116.828 752.333 Q119.172 752.333 120.797 750.630 Q122.422 748.927 122.422 746.115 Q122.422 743.427 120.859 741.880 Q119.297 740.333 116.766 740.333 Q115.203 740.333 113.938 740.888 Q112.672 741.443 111.953 742.333 L108.891 742.333 L111.453 728.333 L124.625 728.333 L124.625 731.333 L114.062 731.333 L112.641 739.068 Q115.031 737.333 117.641 737.333 Q121.109 737.333 123.492 739.732 Q125.875 742.130 125.875 745.911 Q125.875 749.505 123.781 752.115 Q121.234 755.333 116.828 755.333 Q113.203 755.333 110.922 753.419 Q108.641 751.505 108.312 748.333 Z"/>
  <path d="M130.516 738.333 L130.516 735.333 L134.219 735.333 L134.219 738.333 L130.516 738.333 Z M130.516 755.333 L130.516 752.333 L134.219 752.333 L134.219 755.333 L130.516 755.333 Z"/>
  <path d="M151.141 755.333 L147.891 755.333 L147.891 734.302 Q146.719 735.443 144.812 736.576 Q142.906 737.708 141.391 738.271 L141.391 735.083 Q144.125 733.786 146.164 731.935 Q148.203 730.083 149.047 728.333 L151.141 728.333 L151.141 755.333 Z"/>
  <path d="M159.281 748.333 L162.703 748.333 Q163.078 750.333 164.461 751.333 Q165.844 752.333 167.797 752.333 Q170.141 752.333 171.766 750.630 Q173.391 748.927 173.391 746.115 Q173.391 743.427 171.828 741.880 Q170.266 740.333 167.734 740.333 Q166.172 740.333 164.906 740.888 Q163.641 741.443 162.922 742.333 L159.859 742.333 L162.422 728.333 L175.594 728.333 L175.594 731.333 L165.031 731.333 L163.609 739.068 Q166 737.333 168.609 737.333 Q172.078 737.333 174.461 739.732 Q176.844 742.130 176.844 745.911 Q176.844 749.505 174.750 752.115 Q172.203 755.333 167.797 755.333 Q164.172 755.333 161.891 753.419 Q159.609 751.505 159.281 748.333 Z"/>
  <path d="M181.484 738.333 L181.484 735.333 L185.188 735.333 L185.188 738.333 L181.484 738.333 Z M181.484 755.333 L181.484 752.333 L185.188 752.333 L185.188 755.333 L181.484 755.333 Z"/>
  <path d="M189.859 741.849 Q189.859 737.146 190.828 734.294 Q191.797 731.443 193.703 729.888 Q195.609 728.333 198.500 728.333 Q200.641 728.333 202.242 729.193 Q203.844 730.052 204.898 731.661 Q205.953 733.271 206.547 735.591 Q207.141 737.911 207.141 741.849 Q207.141 746.490 206.180 749.349 Q205.219 752.208 203.312 753.771 Q201.406 755.333 198.500 755.333 Q194.672 755.333 192.484 752.599 Q189.859 749.286 189.859 741.849 Z M193.203 741.833 Q193.203 748.146 194.734 750.240 Q196.266 752.333 198.500 752.333 Q200.734 752.333 202.266 750.232 Q203.797 748.130 203.797 741.833 Q203.797 735.505 202.266 733.419 Q200.734 731.333 198.469 731.333 Q196.219 731.333 194.891 733.177 Q193.203 735.521 193.203 741.833 Z"/>
  <path d="M210.250 741.849 Q210.250 737.146 211.219 734.294 Q212.188 731.443 214.094 729.888 Q216 728.333 218.891 728.333 Q221.031 728.333 222.633 729.193 Q224.234 730.052 225.289 731.661 Q226.344 733.271 226.938 735.591 Q227.531 737.911 227.531 741.849 Q227.531 746.490 226.570 749.349 Q225.609 752.208 223.703 753.771 Q221.797 755.333 218.891 755.333 Q215.062 755.333 212.875 752.599 Q210.250 749.286 210.250 741.849 Z M213.594 741.833 Q213.594 748.146 215.125 750.240 Q216.656 752.333 218.891 752.333 Q221.125 752.333 222.656 750.232 Q224.188 748.130 224.188 741.833 Q224.188 735.505 222.656 733.419 Q221.125 731.333 218.859 731.333 Q216.609 731.333 215.281 733.177 Q213.594 735.521 213.594 741.833 Z"/>
  <path d="M396.852 741.849 Q396.852 737.146 397.821 734.294 Q398.790 731.443 400.696 729.888 Q402.602 728.333 405.493 728.333 Q407.634 728.333 409.235 729.193 Q410.837 730.052 411.892 731.661 Q412.946 733.271 413.540 735.591 Q414.134 737.911 414.134 741.849 Q414.134 746.490 413.173 749.349 Q412.212 752.208 410.306 753.771 Q408.399 755.333 405.493 755.333 Q401.665 755.333 399.477 752.599 Q396.852 749.286 396.852 741.849 Z M400.196 741.833 Q400.196 748.146 401.727 750.240 Q403.259 752.333 405.493 752.333 Q407.727 752.333 409.259 750.232 Q410.790 748.130 410.790 741.833 Q410.790 735.505 409.259 733.419 Q407.727 731.333 405.462 731.333 Q403.212 731.333 401.884 733.177 Q400.196 735.521 400.196 741.833 Z"/>
  <path d="M434.118 735.333 L430.884 735.333 Q430.446 733.505 429.649 732.661 Q428.337 731.333 426.399 731.333 Q424.852 731.333 423.681 732.099 Q422.149 733.099 421.259 735.013 Q420.368 736.927 420.337 740.865 Q421.509 739.068 423.204 738.201 Q424.899 737.333 426.774 737.333 Q430.024 737.333 432.306 739.779 Q434.587 742.224 434.587 746.099 Q434.587 748.646 433.509 750.826 Q432.431 753.005 430.556 754.169 Q428.681 755.333 426.290 755.333 Q422.227 755.333 419.665 752.349 Q417.102 749.365 417.102 742.505 Q417.102 734.849 419.946 731.365 Q422.415 728.333 426.602 728.333 Q429.727 728.333 431.727 730.193 Q433.727 732.052 434.118 735.333 Z M420.837 746.021 Q420.837 747.693 421.548 749.216 Q422.259 750.740 423.548 751.536 Q424.837 752.333 426.243 752.333 Q428.306 752.333 429.790 750.685 Q431.274 749.036 431.274 746.193 Q431.274 743.474 429.806 741.904 Q428.337 740.333 426.118 740.333 Q423.915 740.333 422.376 741.904 Q420.837 743.474 420.837 746.021 Z"/>
  <path d="M439.446 738.333 L439.446 735.333 L443.149 735.333 L443.149 738.333 L439.446 738.333 Z M439.446 755.333 L439.446 752.333 L443.149 752.333 L443.149 755.333 L439.446 755.333 Z"/>
  <path d="M460.071 755.333 L456.821 755.333 L456.821 734.302 Q455.649 735.443 453.743 736.576 Q451.837 737.708 450.321 738.271 L450.321 735.083 Q453.056 733.786 455.095 731.935 Q457.134 730.083 457.977 728.333 L460.071 728.333 L460.071 755.333 Z"/>
  <path d="M468.212 748.333 L471.634 748.333 Q472.009 750.333 473.392 751.333 Q474.774 752.333 476.727 752.333 Q479.071 752.333 480.696 750.630 Q482.321 748.927 482.321 746.115 Q482.321 743.427 480.759 741.880 Q479.196 740.333 476.665 740.333 Q475.102 740.333 473.837 740.888 Q472.571 741.443 471.852 742.333 L468.790 742.333 L471.352 728.333 L484.524 728.333 L484.524 731.333 L473.962 731.333 L472.540 739.068 Q474.931 737.333 477.540 737.333 Q481.009 737.333 483.392 739.732 Q485.774 742.130 485.774 745.911 Q485.774 749.505 483.681 752.115 Q481.134 755.333 476.727 755.333 Q473.102 755.333 470.821 753.419 Q468.540 751.505 468.212 748.333 Z"/>
  <path d="M490.415 738.333 L490.415 735.333 L494.118 735.333 L494.118 738.333 L490.415 738.333 Z M490.415 755.333 L490.415 752.333 L494.118 752.333 L494.118 755.333 L490.415 755.333 Z"/>
  <path d="M498.790 741.849 Q498.790 737.146 499.759 734.294 Q500.727 731.443 502.634 729.888 Q504.540 728.333 507.431 728.333 Q509.571 728.333 511.173 729.193 Q512.774 730.052 513.829 731.661 Q514.884 733.271 515.477 735.591 Q516.071 737.911 516.071 741.849 Q516.071 746.490 515.110 749.349 Q514.149 752.208 512.243 753.771 Q510.337 755.333 507.431 755.333 Q503.602 755.333 501.415 752.599 Q498.790 749.286 498.790 741.849 Z M502.134 741.833 Q502.134 748.146 503.665 750.240 Q505.196 752.333 507.431 752.333 Q509.665 752.333 511.196 750.232 Q512.727 748.130 512.727 741.833 Q512.727 735.505 511.196 733.419 Q509.665 731.333 507.399 731.333 Q505.149 731.333 503.821 733.177 Q502.134 735.521 502.134 741.833 Z"/>
  <path d="M519.181 741.849 Q519.181 737.146 520.149 734.294 Q521.118 731.443 523.024 729.888 Q524.931 728.333 527.821 728.333 Q529.962 728.333 531.563 729.193 Q533.165 730.052 534.220 731.661 Q535.274 733.271 535.868 735.591 Q536.462 737.911 536.462 741.849 Q536.462 746.490 535.501 749.349 Q534.540 752.208 532.634 753.771 Q530.727 755.333 527.821 755.333 Q523.993 755.333 521.806 752.599 Q519.181 749.286 519.181 741.849 Z M522.524 741.833 Q522.524 748.146 524.056 750.240 Q525.587 752.333 527.821 752.333 Q530.056 752.333 531.587 750.232 Q533.118 748.130 533.118 741.833 Q533.118 735.505 531.587 733.419 Q530.056 731.333 527.790 731.333 Q525.540 731.333 524.212 733.177 Q522.524 735.521 522.524 741.833 Z"/>
  <path d="M705.783 741.849 Q705.783 737.146 706.752 734.294 Q707.721 731.443 709.627 729.888 Q711.533 728.333 714.424 728.333 Q716.564 728.333 718.166 729.193 Q719.767 730.052 720.822 731.661 Q721.877 733.271 722.471 735.591 Q723.064 737.911 723.064 741.849 Q723.064 746.490 722.103 749.349 Q721.142 752.208 719.236 753.771 Q717.330 755.333 714.424 755.333 Q710.596 755.333 708.408 752.599 Q705.783 749.286 705.783 741.849 Z M709.127 741.833 Q709.127 748.146 710.658 750.240 Q712.189 752.333 714.424 752.333 Q716.658 752.333 718.189 750.232 Q719.721 748.130 719.721 741.833 Q719.721 735.505 718.189 733.419 Q716.658 731.333 714.392 731.333 Q712.142 731.333 710.814 733.177 Q709.127 735.521 709.127 741.833 Z"/>
  <path d="M726.392 731.333 L726.392 728.333 L743.533 728.333 L743.533 730.755 Q741.017 733.521 738.533 738.177 Q736.049 742.833 734.689 747.740 Q733.705 751.208 733.439 755.333 L730.096 755.333 Q730.142 752.068 731.322 747.458 Q732.502 742.849 734.697 738.560 Q736.892 734.271 739.361 731.333 L726.392 731.333 Z"/>
  <path d="M748.377 738.333 L748.377 735.333 L752.080 735.333 L752.080 738.333 L748.377 738.333 Z M748.377 755.333 L748.377 752.333 L752.080 752.333 L752.080 755.333 L748.377 755.333 Z"/>
  <path d="M769.002 755.333 L765.752 755.333 L765.752 734.302 Q764.580 735.443 762.674 736.576 Q760.767 737.708 759.252 738.271 L759.252 735.083 Q761.986 733.786 764.025 731.935 Q766.064 730.083 766.908 728.333 L769.002 728.333 L769.002 755.333 Z"/>
  <path d="M777.142 748.333 L780.564 748.333 Q780.939 750.333 782.322 751.333 Q783.705 752.333 785.658 752.333 Q788.002 752.333 789.627 750.630 Q791.252 748.927 791.252 746.115 Q791.252 743.427 789.689 741.880 Q788.127 740.333 785.596 740.333 Q784.033 740.333 782.767 740.888 Q781.502 741.443 780.783 742.333 L777.721 742.333 L780.283 728.333 L793.455 728.333 L793.455 731.333 L782.892 731.333 L781.471 739.068 Q783.861 737.333 786.471 737.333 Q789.939 737.333 792.322 739.732 Q794.705 742.130 794.705 745.911 Q794.705 749.505 792.611 752.115 Q790.064 755.333 785.658 755.333 Q782.033 755.333 779.752 753.419 Q777.471 751.505 777.142 748.333 Z"/>
  <path d="M799.346 738.333 L799.346 735.333 L803.049 735.333 L803.049 738.333 L799.346 738.333 Z M799.346 755.333 L799.346 752.333 L803.049 752.333 L803.049 755.333 L799.346 755.333 Z"/>
  <path d="M807.721 741.849 Q807.721 737.146 808.689 734.294 Q809.658 731.443 811.564 729.888 Q813.471 728.333 816.361 728.333 Q818.502 728.333 820.103 729.193 Q821.705 730.052 822.760 731.661 Q823.814 733.271 824.408 735.591 Q825.002 737.911 825.002 741.849 Q825.002 746.490 824.041 749.349 Q823.080 752.208 821.174 753.771 Q819.267 755.333 816.361 755.333 Q812.533 755.333 810.346 752.599 Q807.721 749.286 807.721 741.849 Z M811.064 741.833 Q811.064 748.146 812.596 750.240 Q814.127 752.333 816.361 752.333 Q818.596 752.333 820.127 750.232 Q821.658 748.130 821.658 741.833 Q821.658 735.505 820.127 733.419 Q818.596 731.333 816.330 731.333 Q814.080 731.333 812.752 733.177 Q811.064 735.521 811.064 741.833 Z"/>
  <path d="M828.111 741.849 Q828.111 737.146 829.080 734.294 Q830.049 731.443 831.955 729.888 Q833.861 728.333 836.752 728.333 Q838.892 728.333 840.494 729.193 Q842.096 730.052 843.150 731.661 Q844.205 733.271 844.799 735.591 Q845.392 737.911 845.392 741.849 Q845.392 746.490 844.431 749.349 Q843.471 752.208 841.564 753.771 Q839.658 755.333 836.752 755.333 Q832.924 755.333 830.736 752.599 Q828.111 749.286 828.111 741.849 Z M831.455 741.833 Q831.455 748.146 832.986 750.240 Q834.517 752.333 836.752 752.333 Q838.986 752.333 840.517 750.232 Q842.049 748.130 842.049 741.833 Q842.049 735.505 840.517 733.419 Q838.986 731.333 836.721 731.333 Q834.471 731.333 833.142 733.177 Q831.455 735.521 831.455 741.833 Z"/>
  <path d="M1014.714 741.849 Q1014.714 737.146 1015.682 734.294 Q1016.651 731.443 1018.557 729.888 Q1020.464 728.333 1023.354 728.333 Q1025.495 728.333 1027.096 729.193 Q1028.698 730.052 1029.753 731.661 Q1030.807 733.271 1031.401 735.591 Q1031.995 737.911 1031.995 741.849 Q1031.995 746.490 1031.034 749.349 Q1030.073 752.208 1028.167 753.771 Q1026.260 755.333 1023.354 755.333 Q1019.526 755.333 1017.339 752.599 Q1014.714 749.286 1014.714 741.849 Z M1018.057 741.833 Q1018.057 748.146 1019.589 750.240 Q1021.120 752.333 1023.354 752.333 Q1025.589 752.333 1027.120 750.232 Q1028.651 748.130 1028.651 741.833 Q1028.651 735.505 1027.120 733.419 Q1025.589 731.333 1023.323 731.333 Q1021.073 731.333 1019.745 733.177 Q1018.057 735.521 1018.057 741.833 Z"/>
  <path d="M1040.120 740.740 Q1038.089 739.990 1037.112 738.599 Q1036.135 737.208 1036.135 735.255 Q1036.135 732.333 1038.214 730.333 Q1040.292 728.333 1043.745 728.333 Q1047.214 728.333 1049.331 730.380 Q1051.448 732.427 1051.448 735.349 Q1051.448 737.224 1050.479 738.607 Q1049.510 739.990 1047.542 740.740 Q1049.979 741.521 1051.253 743.263 Q1052.526 745.005 1052.526 747.427 Q1052.526 750.771 1050.120 753.052 Q1047.714 755.333 1043.792 755.333 Q1039.885 755.333 1037.479 753.044 Q1035.073 750.755 1035.073 747.349 Q1035.073 744.802 1036.385 743.083 Q1037.698 741.365 1040.120 740.740 Z M1039.464 735.224 Q1039.464 737.036 1040.674 738.185 Q1041.885 739.333 1043.823 739.333 Q1045.698 739.333 1046.901 738.193 Q1048.104 737.052 1048.104 735.396 Q1048.104 733.677 1046.870 732.505 Q1045.635 731.333 1043.792 731.333 Q1041.917 731.333 1040.690 732.482 Q1039.464 733.630 1039.464 735.224 Z M1038.417 747.286 Q1038.417 748.583 1039.073 749.794 Q1039.729 751.005 1041.034 751.669 Q1042.339 752.333 1043.839 752.333 Q1046.167 752.333 1047.682 750.935 Q1049.198 749.536 1049.198 747.380 Q1049.198 745.193 1047.635 743.763 Q1046.073 742.333 1043.729 742.333 Q1041.432 742.333 1039.924 743.747 Q1038.417 745.161 1038.417 747.286 Z"/>
  <path d="M1057.307 738.333 L1057.307 735.333 L1061.010 735.333 L1061.010 738.333 L1057.307 738.333 Z M1057.307 755.333 L1057.307 752.333 L1061.010 752.333 L1061.010 755.333 L1057.307 755.333 Z"/>
  <path d="M1077.932 755.333 L1074.682 755.333 L1074.682 734.302 Q1073.510 735.443 1071.604 736.576 Q1069.698 737.708 1068.182 738.271 L1068.182 735.083 Q1070.917 733.786 1072.956 731.935 Q1074.995 730.083 1075.839 728.333 L1077.932 728.333 L1077.932 755.333 Z"/>
  <path d="M1086.073 748.333 L1089.495 748.333 Q1089.870 750.333 1091.253 751.333 Q1092.635 752.333 1094.589 752.333 Q1096.932 752.333 1098.557 750.630 Q1100.182 748.927 1100.182 746.115 Q1100.182 743.427 1098.620 741.880 Q1097.057 740.333 1094.526 740.333 Q1092.964 740.333 1091.698 740.888 Q1090.432 741.443 1089.714 742.333 L1086.651 742.333 L1089.214 728.333 L1102.385 728.333 L1102.385 731.333 L1091.823 731.333 L1090.401 739.068 Q1092.792 737.333 1095.401 737.333 Q1098.870 737.333 1101.253 739.732 Q1103.635 742.130 1103.635 745.911 Q1103.635 749.505 1101.542 752.115 Q1098.995 755.333 1094.589 755.333 Q1090.964 755.333 1088.682 753.419 Q1086.401 751.505 1086.073 748.333 Z"/>
  <path d="M1108.276 738.333 L1108.276 735.333 L1111.979 735.333 L1111.979 738.333 L1108.276 738.333 Z M1108.276 755.333 L1108.276 752.333 L1111.979 752.333 L1111.979 755.333 L1108.276 755.333 Z"/>
  <path d="M1116.651 741.849 Q1116.651 737.146 1117.620 734.294 Q1118.589 731.443 1120.495 729.888 Q1122.401 728.333 1125.292 728.333 Q1127.432 728.333 1129.034 729.193 Q1130.635 730.052 1131.690 731.661 Q1132.745 733.271 1133.339 735.591 Q1133.932 737.911 1133.932 741.849 Q1133.932 746.490 1132.971 749.349 Q1132.010 752.208 1130.104 753.771 Q1128.198 755.333 1125.292 755.333 Q1121.464 755.333 1119.276 752.599 Q1116.651 749.286 1116.651 741.849 Z M1119.995 741.833 Q1119.995 748.146 1121.526 750.240 Q1123.057 752.333 1125.292 752.333 Q1127.526 752.333 1129.057 750.232 Q1130.589 748.130 1130.589 741.833 Q1130.589 735.505 1129.057 733.419 Q1127.526 731.333 1125.260 731.333 Q1123.010 731.333 1121.682 733.177 Q1119.995 735.521 1119.995 741.833 Z"/>
  <path d="M1137.042 741.849 Q1137.042 737.146 1138.010 734.294 Q1138.979 731.443 1140.885 729.888 Q1142.792 728.333 1145.682 728.333 Q1147.823 728.333 1149.424 729.193 Q1151.026 730.052 1152.081 731.661 Q1153.135 733.271 1153.729 735.591 Q1154.323 737.911 1154.323 741.849 Q1154.323 746.490 1153.362 749.349 Q1152.401 752.208 1150.495 753.771 Q1148.589 755.333 1145.682 755.333 Q1141.854 755.333 1139.667 752.599 Q1137.042 749.286 1137.042 741.849 Z M1140.385 741.833 Q1140.385 748.146 1141.917 750.240 Q1143.448 752.333 1145.682 752.333 Q1147.917 752.333 1149.448 750.232 Q1150.979 748.130 1150.979 741.833 Q1150.979 735.505 1149.448 733.419 Q1147.917 731.333 1145.651 731.333 Q1143.401 731.333 1142.073 733.177 Q1140.385 735.521 1140.385 741.833 Z"/>
  <path d="M1323.644 741.849 Q1323.644 737.146 1324.613 734.294 Q1325.582 731.443 1327.488 729.888 Q1329.394 728.333 1332.285 728.333 Q1334.425 728.333 1336.027 729.193 Q1337.629 730.052 1338.683 731.661 Q1339.738 733.271 1340.332 735.591 Q1340.925 737.911 1340.925 741.849 Q1340.925 746.490 1339.964 749.349 Q1339.004 752.208 1337.097 753.771 Q1335.191 755.333 1332.285 755.333 Q1328.457 755.333 1326.269 752.599 Q1323.644 749.286 1323.644 741.849 Z M1326.988 741.833 Q1326.988 748.146 1328.519 750.240 Q1330.050 752.333 1332.285 752.333 Q1334.519 752.333 1336.050 750.232 Q1337.582 748.130 1337.582 741.833 Q1337.582 735.505 1336.050 733.419 Q1334.519 731.333 1332.254 731.333 Q1330.004 731.333 1328.675 733.177 Q1326.988 735.521 1326.988 741.833 Z"/>
  <path d="M1344.535 748.333 L1347.660 748.333 Q1348.050 750.443 1349.175 751.388 Q1350.300 752.333 1352.050 752.333 Q1353.550 752.333 1354.675 751.724 Q1355.800 751.115 1356.527 750.099 Q1357.254 749.083 1357.738 747.302 Q1358.222 745.521 1358.222 743.505 Q1358.222 743.286 1358.207 742.849 Q1357.238 744.411 1355.543 745.372 Q1353.847 746.333 1351.879 746.333 Q1348.597 746.333 1346.316 743.896 Q1344.035 741.458 1344.035 737.474 Q1344.035 733.349 1346.410 730.841 Q1348.785 728.333 1352.363 728.333 Q1354.957 728.333 1357.097 729.724 Q1359.238 731.115 1360.347 733.685 Q1361.457 736.255 1361.457 741.115 Q1361.457 746.193 1360.355 749.193 Q1359.254 752.193 1357.074 753.763 Q1354.894 755.333 1351.972 755.333 Q1348.863 755.333 1346.894 753.497 Q1344.925 751.661 1344.535 748.333 Z M1357.847 737.396 Q1357.847 734.615 1356.355 732.974 Q1354.863 731.333 1352.769 731.333 Q1350.597 731.333 1348.988 733.099 Q1347.379 734.865 1347.379 737.661 Q1347.379 740.193 1348.910 741.763 Q1350.441 743.333 1352.675 743.333 Q1354.941 743.333 1356.394 741.763 Q1357.847 740.193 1357.847 737.396 Z"/>
  <path d="M1366.238 738.333 L1366.238 735.333 L1369.941 735.333 L1369.941 738.333 L1366.238 738.333 Z M1366.238 755.333 L1366.238 752.333 L1369.941 752.333 L1369.941 755.333 L1366.238 755.333 Z"/>
  <path d="M1386.863 755.333 L1383.613 755.333 L1383.613 734.302 Q1382.441 735.443 1380.535 736.576 Q1378.629 737.708 1377.113 738.271 L1377.113 735.083 Q1379.847 733.786 1381.886 731.935 Q1383.925 730.083 1384.769 728.333 L1386.863 728.333 L1386.863 755.333 Z"/>
  <path d="M1395.004 748.333 L1398.425 748.333 Q1398.800 750.333 1400.183 751.333 Q1401.566 752.333 1403.519 752.333 Q1405.863 752.333 1407.488 750.630 Q1409.113 748.927 1409.113 746.115 Q1409.113 743.427 1407.550 741.880 Q1405.988 740.333 1403.457 740.333 Q1401.894 740.333 1400.629 740.888 Q1399.363 741.443 1398.644 742.333 L1395.582 742.333 L1398.144 728.333 L1411.316 728.333 L1411.316 731.333 L1400.754 731.333 L1399.332 739.068 Q1401.722 737.333 1404.332 737.333 Q1407.800 737.333 1410.183 739.732 Q1412.566 742.130 1412.566 745.911 Q1412.566 749.505 1410.472 752.115 Q1407.925 755.333 1403.519 755.333 Q1399.894 755.333 1397.613 753.419 Q1395.332 751.505 1395.004 748.333 Z"/>
  <path d="M1417.207 738.333 L1417.207 735.333 L1420.910 735.333 L1420.910 738.333 L1417.207 738.333 Z M1417.207 755.333 L1417.207 752.333 L1420.910 752.333 L1420.910 755.333 L1417.207 755.333 Z"/>
  <path d="M1425.582 741.849 Q1425.582 737.146 1426.550 734.294 Q1427.519 731.443 1429.425 729.888 Q1431.332 728.333 1434.222 728.333 Q1436.363 728.333 1437.964 729.193 Q1439.566 730.052 1440.621 731.661 Q1441.675 733.271 1442.269 735.591 Q1442.863 737.911 1442.863 741.849 Q1442.863 746.490 1441.902 749.349 Q1440.941 752.208 1439.035 753.771 Q1437.129 755.333 1434.222 755.333 Q1430.394 755.333 1428.207 752.599 Q1425.582 749.286 1425.582 741.849 Z M1428.925 741.833 Q1428.925 748.146 1430.457 750.240 Q1431.988 752.333 1434.222 752.333 Q1436.457 752.333 1437.988 750.232 Q1439.519 748.130 1439.519 741.833 Q1439.519 735.505 1437.988 733.419 Q1436.457 731.333 1434.191 731.333 Q1431.941 731.333 1430.613 733.177 Q1428.925 735.521 1428.925 741.833 Z"/>
  <path d="M1445.972 741.849 Q1445.972 737.146 1446.941 734.294 Q1447.910 731.443 1449.816 729.888 Q1451.722 728.333 1454.613 728.333 Q1456.754 728.333 1458.355 729.193 Q1459.957 730.052 1461.011 731.661 Q1462.066 733.271 1462.660 735.591 Q1463.254 737.911 1463.254 741.849 Q1463.254 746.490 1462.293 749.349 Q1461.332 752.208 1459.425 753.771 Q1457.519 755.333 1454.613 755.333 Q1450.785 755.333 1448.597 752.599 Q1445.972 749.286 1445.972 741.849 Z M1449.316 741.833 Q1449.316 748.146 1450.847 750.240 Q1452.379 752.333 1454.613 752.333 Q1456.847 752.333 1458.379 750.232 Q1459.910 748.130 1459.910 741.833 Q1459.910 735.505 1458.379 733.419 Q1456.847 731.333 1454.582 731.333 Q1452.332 731.333 1451.004 733.177 Q1449.316 735.521 1449.316 741.833 Z"/>
  <path d="M1644.825 755.333 L1641.575 755.333 L1641.575 734.302 Q1640.403 735.443 1638.497 736.576 Q1636.590 737.708 1635.075 738.271 L1635.075 735.083 Q1637.809 733.786 1639.848 731.935 Q1641.887 730.083 1642.731 728.333 L1644.825 728.333 L1644.825 755.333 Z"/>
  <path d="M1652.965 741.849 Q1652.965 737.146 1653.934 734.294 Q1654.903 731.443 1656.809 729.888 Q1658.715 728.333 1661.606 728.333 Q1663.747 728.333 1665.348 729.193 Q1666.950 730.052 1668.004 731.661 Q1669.059 733.271 1669.653 735.591 Q1670.247 737.911 1670.247 741.849 Q1670.247 746.490 1669.286 749.349 Q1668.325 752.208 1666.418 753.771 Q1664.512 755.333 1661.606 755.333 Q1657.778 755.333 1655.590 752.599 Q1652.965 749.286 1652.965 741.849 Z M1656.309 741.833 Q1656.309 748.146 1657.840 750.240 Q1659.372 752.333 1661.606 752.333 Q1663.840 752.333 1665.372 750.232 Q1666.903 748.130 1666.903 741.833 Q1666.903 735.505 1665.372 733.419 Q1663.840 731.333 1661.575 731.333 Q1659.325 731.333 1657.997 733.177 Q1656.309 735.521 1656.309 741.833 Z"/>
  <path d="M1675.168 738.333 L1675.168 735.333 L1678.872 735.333 L1678.872 738.333 L1675.168 738.333 Z M1675.168 755.333 L1675.168 752.333 L1678.872 752.333 L1678.872 755.333 L1675.168 755.333 Z"/>
  <path d="M1695.793 755.333 L1692.543 755.333 L1692.543 734.302 Q1691.372 735.443 1689.465 736.576 Q1687.559 737.708 1686.043 738.271 L1686.043 735.083 Q1688.778 733.786 1690.817 731.935 Q1692.856 730.083 1693.700 728.333 L1695.793 728.333 L1695.793 755.333 Z"/>
  <path d="M1703.934 748.333 L1707.356 748.333 Q1707.731 750.333 1709.114 751.333 Q1710.497 752.333 1712.450 752.333 Q1714.793 752.333 1716.418 750.630 Q1718.043 748.927 1718.043 746.115 Q1718.043 743.427 1716.481 741.880 Q1714.918 740.333 1712.387 740.333 Q1710.825 740.333 1709.559 740.888 Q1708.293 741.443 1707.575 742.333 L1704.512 742.333 L1707.075 728.333 L1720.247 728.333 L1720.247 731.333 L1709.684 731.333 L1708.262 739.068 Q1710.653 737.333 1713.262 737.333 Q1716.731 737.333 1719.114 739.732 Q1721.497 742.130 1721.497 745.911 Q1721.497 749.505 1719.403 752.115 Q1716.856 755.333 1712.450 755.333 Q1708.825 755.333 1706.543 753.419 Q1704.262 751.505 1703.934 748.333 Z"/>
  <path d="M1726.137 738.333 L1726.137 735.333 L1729.840 735.333 L1729.840 738.333 L1726.137 738.333 Z M1726.137 755.333 L1726.137 752.333 L1729.840 752.333 L1729.840 755.333 L1726.137 755.333 Z"/>
  <path d="M1734.512 741.849 Q1734.512 737.146 1735.481 734.294 Q1736.450 731.443 1738.356 729.888 Q1740.262 728.333 1743.153 728.333 Q1745.293 728.333 1746.895 729.193 Q1748.497 730.052 1749.551 731.661 Q1750.606 733.271 1751.200 735.591 Q1751.793 737.911 1751.793 741.849 Q1751.793 746.490 1750.833 749.349 Q1749.872 752.208 1747.965 753.771 Q1746.059 755.333 1743.153 755.333 Q1739.325 755.333 1737.137 752.599 Q1734.512 749.286 1734.512 741.849 Z M1737.856 741.833 Q1737.856 748.146 1739.387 750.240 Q1740.918 752.333 1743.153 752.333 Q1745.387 752.333 1746.918 750.232 Q1748.450 748.130 1748.450 741.833 Q1748.450 735.505 1746.918 733.419 Q1745.387 731.333 1743.122 731.333 Q1740.872 731.333 1739.543 733.177 Q1737.856 735.521 1737.856 741.833 Z"/>
  <path d="M1754.903 741.849 Q1754.903 737.146 1755.872 734.294 Q1756.840 731.443 1758.747 729.888 Q1760.653 728.333 1763.543 728.333 Q1765.684 728.333 1767.286 729.193 Q1768.887 730.052 1769.942 731.661 Q1770.997 733.271 1771.590 735.591 Q1772.184 737.911 1772.184 741.849 Q1772.184 746.490 1771.223 749.349 Q1770.262 752.208 1768.356 753.771 Q1766.450 755.333 1763.543 755.333 Q1759.715 755.333 1757.528 752.599 Q1754.903 749.286 1754.903 741.849 Z M1758.247 741.833 Q1758.247 748.146 1759.778 750.240 Q1761.309 752.333 1763.543 752.333 Q1765.778 752.333 1767.309 750.232 Q1768.840 748.130 1768.840 741.833 Q1768.840 735.505 1767.309 733.419 Q1765.778 731.333 1763.512 731.333 Q1761.262 731.333 1759.934 733.177 Q1758.247 735.521 1758.247 741.833 Z"/>
  <path d="M1955.115 755.333 L1951.865 755.333 L1951.865 734.302 Q1950.693 735.443 1948.786 736.576 Q1946.880 737.708 1945.365 738.271 L1945.365 735.083 Q1948.099 733.786 1950.138 731.935 Q1952.177 730.083 1953.021 728.333 L1955.115 728.333 L1955.115 755.333 Z"/>
  <path d="M1974.146 755.333 L1970.896 755.333 L1970.896 734.302 Q1969.724 735.443 1967.818 736.576 Q1965.911 737.708 1964.396 738.271 L1964.396 735.083 Q1967.130 733.786 1969.169 731.935 Q1971.208 730.083 1972.052 728.333 L1974.146 728.333 L1974.146 755.333 Z"/>
  <path d="M1982.740 738.333 L1982.740 735.333 L1986.443 735.333 L1986.443 738.333 L1982.740 738.333 Z M1982.740 755.333 L1982.740 752.333 L1986.443 752.333 L1986.443 755.333 L1982.740 755.333 Z"/>
  <path d="M2003.365 755.333 L2000.115 755.333 L2000.115 734.302 Q1998.943 735.443 1997.036 736.576 Q1995.130 737.708 1993.615 738.271 L1993.615 735.083 Q1996.349 733.786 1998.388 731.935 Q2000.427 730.083 2001.271 728.333 L2003.365 728.333 L2003.365 755.333 Z"/>
  <path d="M2011.505 748.333 L2014.927 748.333 Q2015.302 750.333 2016.685 751.333 Q2018.068 752.333 2020.021 752.333 Q2022.365 752.333 2023.990 750.630 Q2025.615 748.927 2025.615 746.115 Q2025.615 743.427 2024.052 741.880 Q2022.490 740.333 2019.958 740.333 Q2018.396 740.333 2017.130 740.888 Q2015.865 741.443 2015.146 742.333 L2012.083 742.333 L2014.646 728.333 L2027.818 728.333 L2027.818 731.333 L2017.255 731.333 L2015.833 739.068 Q2018.224 737.333 2020.833 737.333 Q2024.302 737.333 2026.685 739.732 Q2029.068 742.130 2029.068 745.911 Q2029.068 749.505 2026.974 752.115 Q2024.427 755.333 2020.021 755.333 Q2016.396 755.333 2014.115 753.419 Q2011.833 751.505 2011.505 748.333 Z"/>
  <path d="M2033.708 738.333 L2033.708 735.333 L2037.411 735.333 L2037.411 738.333 L2033.708 738.333 Z M2033.708 755.333 L2033.708 752.333 L2037.411 752.333 L2037.411 755.333 L2033.708 755.333 Z"/>
  <path d="M2042.083 741.849 Q2042.083 737.146 2043.052 734.294 Q2044.021 731.443 2045.927 729.888 Q2047.833 728.333 2050.724 728.333 Q2052.865 728.333 2054.466 729.193 Q2056.068 730.052 2057.122 731.661 Q2058.177 733.271 2058.771 735.591 Q2059.365 737.911 2059.365 741.849 Q2059.365 746.490 2058.404 749.349 Q2057.443 752.208 2055.536 753.771 Q2053.630 755.333 2050.724 755.333 Q2046.896 755.333 2044.708 752.599 Q2042.083 749.286 2042.083 741.849 Z M2045.427 741.833 Q2045.427 748.146 2046.958 750.240 Q2048.490 752.333 2050.724 752.333 Q2052.958 752.333 2054.490 750.232 Q2056.021 748.130 2056.021 741.833 Q2056.021 735.505 2054.490 733.419 Q2052.958 731.333 2050.693 731.333 Q2048.443 731.333 2047.115 733.177 Q2045.427 735.521 2045.427 741.833 Z"/>
  <path d="M2062.474 741.849 Q2062.474 737.146 2063.443 734.294 Q2064.411 731.443 2066.318 729.888 Q2068.224 728.333 2071.115 728.333 Q2073.255 728.333 2074.857 729.193 Q2076.458 730.052 2077.513 731.661 Q2078.568 733.271 2079.161 735.591 Q2079.755 737.911 2079.755 741.849 Q2079.755 746.490 2078.794 749.349 Q2077.833 752.208 2075.927 753.771 Q2074.021 755.333 2071.115 755.333 Q2067.286 755.333 2065.099 752.599 Q2062.474 749.286 2062.474 741.849 Z M2065.818 741.833 Q2065.818 748.146 2067.349 750.240 Q2068.880 752.333 2071.115 752.333 Q2073.349 752.333 2074.880 750.232 Q2076.411 748.130 2076.411 741.833 Q2076.411 735.505 2074.880 733.419 Q2073.349 731.333 2071.083 731.333 Q2068.833 731.333 2067.505 733.177 Q2065.818 735.521 2065.818 741.833 Z"/>
  <path d="M157.750 692 L157.750 36.667" fill="none" stroke="#000000" stroke-width="3.333"/>
  <path d="M157.750 36.667 L171.083 36.667" fill="none" stroke="#000000" stroke-width="3.333"/>
  <path d="M157.750 130.286 L171.083 130.286" fill="none" stroke="#000000" stroke-width="3.333"/>
  <path d="M157.750 223.905 L171.083 223.905" fill="none" stroke="#000000" stroke-width="3.333"/>
  <path d="M157.750 317.524 L171.083 317.524" fill="none" stroke="#000000" stroke-width="3.333"/>
  <path d="M157.750 411.143 L171.083 411.143" fill="none" stroke="#000000" stroke-width="3.333"/>
  <path d="M157.750 504.762 L171.083 504.762" fill="none" stroke="#000000" stroke-width="3.333"/>
  <path d="M157.750 598.381 L171.083 598.381" fill="none" stroke="#000000" stroke-width="3.333"/>
  <path d="M157.750 692 L171.083 692" fill="none" stroke="#000000" stroke-width="3.333"/>
  <path d="M78.979 36.182 Q78.979 31.479 79.948 28.628 Q80.917 25.776 82.823 24.221 Q84.729 22.667 87.620 22.667 Q89.760 22.667 91.362 23.526 Q92.964 24.385 94.018 25.995 Q95.073 27.604 95.667 29.924 Q96.260 32.245 96.260 36.182 Q96.260 40.823 95.299 43.682 Q94.339 46.542 92.432 48.104 Q90.526 49.667 87.620 49.667 Q83.792 49.667 81.604 46.932 Q78.979 43.620 78.979 36.182 Z M82.323 36.167 Q82.323 42.479 83.854 44.573 Q85.385 46.667 87.620 46.667 Q89.854 46.667 91.385 44.565 Q92.917 42.464 92.917 36.167 Q92.917 29.839 91.385 27.753 Q89.854 25.667 87.589 25.667 Q85.339 25.667 84.010 27.510 Q82.323 29.854 82.323 36.167 Z"/>
  <path d="M101.198 49.667 L101.198 46.667 L104.901 46.667 L104.901 49.667 L101.198 49.667 Z"/>
  <path d="M109.557 36.182 Q109.557 31.479 110.526 28.628 Q111.495 25.776 113.401 24.221 Q115.307 22.667 118.198 22.667 Q120.339 22.667 121.940 23.526 Q123.542 24.385 124.596 25.995 Q125.651 27.604 126.245 29.924 Q126.839 32.245 126.839 36.182 Q126.839 40.823 125.878 43.682 Q124.917 46.542 123.010 48.104 Q121.104 49.667 118.198 49.667 Q114.370 49.667 112.182 46.932 Q109.557 43.620 109.557 36.182 Z M112.901 36.167 Q112.901 42.479 114.432 44.573 Q115.964 46.667 118.198 46.667 Q120.432 46.667 121.964 44.565 Q123.495 42.464 123.495 36.167 Q123.495 29.839 121.964 27.753 Q120.432 25.667 118.167 25.667 Q115.917 25.667 114.589 27.510 Q112.901 29.854 112.901 36.167 Z"/>
  <path d="M75.682 140.286 L75.682 143.286 L58.182 143.286 Q58.135 142.161 58.557 141.114 Q59.229 139.395 60.698 137.731 Q62.167 136.067 64.948 133.692 Q69.276 130.004 70.792 127.903 Q72.307 125.801 72.307 123.942 Q72.307 121.973 70.924 120.629 Q69.542 119.286 67.323 119.286 Q64.979 119.286 63.565 120.348 Q62.151 121.411 62.135 123.286 L58.792 123.286 Q59.135 119.864 61.378 118.075 Q63.620 116.286 67.385 116.286 Q71.214 116.286 73.432 118.458 Q75.651 120.629 75.651 123.848 Q75.651 125.489 75.003 127.067 Q74.354 128.645 72.839 130.395 Q71.323 132.145 67.823 135.129 Q64.901 137.614 64.073 138.504 Q63.245 139.395 62.698 140.286 L75.682 140.286 Z"/>
  <path d="M78.979 129.801 Q78.979 125.098 79.948 122.247 Q80.917 119.395 82.823 117.840 Q84.729 116.286 87.620 116.286 Q89.760 116.286 91.362 117.145 Q92.964 118.004 94.018 119.614 Q95.073 121.223 95.667 123.544 Q96.260 125.864 96.260 129.801 Q96.260 134.442 95.299 137.301 Q94.339 140.161 92.432 141.723 Q90.526 143.286 87.620 143.286 Q83.792 143.286 81.604 140.551 Q78.979 137.239 78.979 129.801 Z M82.323 129.786 Q82.323 136.098 83.854 138.192 Q85.385 140.286 87.620 140.286 Q89.854 140.286 91.385 138.184 Q92.917 136.083 92.917 129.786 Q92.917 123.458 91.385 121.372 Q89.854 119.286 87.589 119.286 Q85.339 119.286 84.010 121.129 Q82.323 123.473 82.323 129.786 Z"/>
  <path d="M101.198 143.286 L101.198 140.286 L104.901 140.286 L104.901 143.286 L101.198 143.286 Z"/>
  <path d="M109.557 129.801 Q109.557 125.098 110.526 122.247 Q111.495 119.395 113.401 117.840 Q115.307 116.286 118.198 116.286 Q120.339 116.286 121.940 117.145 Q123.542 118.004 124.596 119.614 Q125.651 121.223 126.245 123.544 Q126.839 125.864 126.839 129.801 Q126.839 134.442 125.878 137.301 Q124.917 140.161 123.010 141.723 Q121.104 143.286 118.198 143.286 Q114.370 143.286 112.182 140.551 Q109.557 137.239 109.557 129.801 Z M112.901 129.786 Q112.901 136.098 114.432 138.192 Q115.964 140.286 118.198 140.286 Q120.432 140.286 121.964 138.184 Q123.495 136.083 123.495 129.786 Q123.495 123.458 121.964 121.372 Q120.432 119.286 118.167 119.286 Q115.917 119.286 114.589 121.129 Q112.901 123.473 112.901 129.786 Z"/>
  <path d="M69.010 236.905 L69.010 230.905 L57.526 230.905 L57.526 227.905 L69.620 209.905 L72.276 209.905 L72.276 227.905 L75.854 227.905 L75.854 230.905 L72.276 230.905 L72.276 236.905 L69.010 236.905 Z M69.010 227.905 L69.010 215.577 L60.729 227.905 L69.010 227.905 Z"/>
  <path d="M78.979 223.420 Q78.979 218.717 79.948 215.866 Q80.917 213.014 82.823 211.459 Q84.729 209.905 87.620 209.905 Q89.760 209.905 91.362 210.764 Q92.964 211.624 94.018 213.233 Q95.073 214.842 95.667 217.163 Q96.260 219.483 96.260 223.420 Q96.260 228.061 95.299 230.920 Q94.339 233.780 92.432 235.342 Q90.526 236.905 87.620 236.905 Q83.792 236.905 81.604 234.170 Q78.979 230.858 78.979 223.420 Z M82.323 223.405 Q82.323 229.717 83.854 231.811 Q85.385 233.905 87.620 233.905 Q89.854 233.905 91.385 231.803 Q92.917 229.702 92.917 223.405 Q92.917 217.077 91.385 214.991 Q89.854 212.905 87.589 212.905 Q85.339 212.905 84.010 214.749 Q82.323 217.092 82.323 223.405 Z"/>
  <path d="M101.198 236.905 L101.198 233.905 L104.901 233.905 L104.901 236.905 L101.198 236.905 Z"/>
  <path d="M109.557 223.420 Q109.557 218.717 110.526 215.866 Q111.495 213.014 113.401 211.459 Q115.307 209.905 118.198 209.905 Q120.339 209.905 121.940 210.764 Q123.542 211.624 124.596 213.233 Q125.651 214.842 126.245 217.163 Q126.839 219.483 126.839 223.420 Q126.839 228.061 125.878 230.920 Q124.917 233.780 123.010 235.342 Q121.104 236.905 118.198 236.905 Q114.370 236.905 112.182 234.170 Q109.557 230.858 109.557 223.420 Z M112.901 223.405 Q112.901 229.717 114.432 231.811 Q115.964 233.905 118.198 233.905 Q120.432 233.905 121.964 231.803 Q123.495 229.702 123.495 223.405 Q123.495 217.077 121.964 214.991 Q120.432 212.905 118.167 212.905 Q115.917 212.905 114.589 214.749 Q112.901 217.092 112.901 223.405 Z"/>
  <path d="M75.464 310.524 L72.229 310.524 Q71.792 308.696 70.995 307.852 Q69.682 306.524 67.745 306.524 Q66.198 306.524 65.026 307.289 Q63.495 308.289 62.604 310.203 Q61.714 312.118 61.682 316.055 Q62.854 314.258 64.549 313.391 Q66.245 312.524 68.120 312.524 Q71.370 312.524 73.651 314.969 Q75.932 317.414 75.932 321.289 Q75.932 323.836 74.854 326.016 Q73.776 328.196 71.901 329.360 Q70.026 330.524 67.635 330.524 Q63.573 330.524 61.010 327.539 Q58.448 324.555 58.448 317.696 Q58.448 310.039 61.292 306.555 Q63.760 303.524 67.948 303.524 Q71.073 303.524 73.073 305.383 Q75.073 307.243 75.464 310.524 Z M62.182 321.211 Q62.182 322.883 62.893 324.407 Q63.604 325.930 64.893 326.727 Q66.182 327.524 67.589 327.524 Q69.651 327.524 71.135 325.875 Q72.620 324.227 72.620 321.383 Q72.620 318.664 71.151 317.094 Q69.682 315.524 67.464 315.524 Q65.260 315.524 63.721 317.094 Q62.182 318.664 62.182 321.211 Z"/>
  <path d="M78.979 317.039 Q78.979 312.336 79.948 309.485 Q80.917 306.633 82.823 305.078 Q84.729 303.524 87.620 303.524 Q89.760 303.524 91.362 304.383 Q92.964 305.243 94.018 306.852 Q95.073 308.461 95.667 310.782 Q96.260 313.102 96.260 317.039 Q96.260 321.680 95.299 324.539 Q94.339 327.399 92.432 328.961 Q90.526 330.524 87.620 330.524 Q83.792 330.524 81.604 327.789 Q78.979 324.477 78.979 317.039 Z M82.323 317.024 Q82.323 323.336 83.854 325.430 Q85.385 327.524 87.620 327.524 Q89.854 327.524 91.385 325.422 Q92.917 323.321 92.917 317.024 Q92.917 310.696 91.385 308.610 Q89.854 306.524 87.589 306.524 Q85.339 306.524 84.010 308.368 Q82.323 310.711 82.323 317.024 Z"/>
  <path d="M101.198 330.524 L101.198 327.524 L104.901 327.524 L104.901 330.524 L101.198 330.524 Z"/>
  <path d="M109.557 317.039 Q109.557 312.336 110.526 309.485 Q111.495 306.633 113.401 305.078 Q115.307 303.524 118.198 303.524 Q120.339 303.524 121.940 304.383 Q123.542 305.243 124.596 306.852 Q125.651 308.461 126.245 310.782 Q126.839 313.102 126.839 317.039 Q126.839 321.680 125.878 324.539 Q124.917 327.399 123.010 328.961 Q121.104 330.524 118.198 330.524 Q114.370 330.524 112.182 327.789 Q109.557 324.477 109.557 317.039 Z M112.901 317.024 Q112.901 323.336 114.432 325.430 Q115.964 327.524 118.198 327.524 Q120.432 327.524 121.964 325.422 Q123.495 323.321 123.495 317.024 Q123.495 310.696 121.964 308.610 Q120.432 306.524 118.167 306.524 Q115.917 306.524 114.589 308.368 Q112.901 310.711 112.901 317.024 Z"/>
  <path d="M63.604 409.549 Q61.573 408.799 60.596 407.408 Q59.620 406.018 59.620 404.065 Q59.620 401.143 61.698 399.143 Q63.776 397.143 67.229 397.143 Q70.698 397.143 72.815 399.190 Q74.932 401.237 74.932 404.158 Q74.932 406.033 73.964 407.416 Q72.995 408.799 71.026 409.549 Q73.464 410.330 74.737 412.073 Q76.010 413.815 76.010 416.237 Q76.010 419.580 73.604 421.862 Q71.198 424.143 67.276 424.143 Q63.370 424.143 60.964 421.854 Q58.557 419.565 58.557 416.158 Q58.557 413.612 59.870 411.893 Q61.182 410.174 63.604 409.549 Z M62.948 404.033 Q62.948 405.846 64.159 406.994 Q65.370 408.143 67.307 408.143 Q69.182 408.143 70.385 407.002 Q71.589 405.862 71.589 404.205 Q71.589 402.487 70.354 401.315 Q69.120 400.143 67.276 400.143 Q65.401 400.143 64.174 401.291 Q62.948 402.440 62.948 404.033 Z M61.901 416.096 Q61.901 417.393 62.557 418.604 Q63.214 419.815 64.518 420.479 Q65.823 421.143 67.323 421.143 Q69.651 421.143 71.167 419.744 Q72.682 418.346 72.682 416.190 Q72.682 414.002 71.120 412.573 Q69.557 411.143 67.214 411.143 Q64.917 411.143 63.409 412.557 Q61.901 413.971 61.901 416.096 Z"/>
  <path d="M78.979 410.658 Q78.979 405.955 79.948 403.104 Q80.917 400.252 82.823 398.698 Q84.729 397.143 87.620 397.143 Q89.760 397.143 91.362 398.002 Q92.964 398.862 94.018 400.471 Q95.073 402.080 95.667 404.401 Q96.260 406.721 96.260 410.658 Q96.260 415.299 95.299 418.158 Q94.339 421.018 92.432 422.580 Q90.526 424.143 87.620 424.143 Q83.792 424.143 81.604 421.408 Q78.979 418.096 78.979 410.658 Z M82.323 410.643 Q82.323 416.955 83.854 419.049 Q85.385 421.143 87.620 421.143 Q89.854 421.143 91.385 419.041 Q92.917 416.940 92.917 410.643 Q92.917 404.315 91.385 402.229 Q89.854 400.143 87.589 400.143 Q85.339 400.143 84.010 401.987 Q82.323 404.330 82.323 410.643 Z"/>
  <path d="M101.198 424.143 L101.198 421.143 L104.901 421.143 L104.901 424.143 L101.198 424.143 Z"/>
  <path d="M109.557 410.658 Q109.557 405.955 110.526 403.104 Q111.495 400.252 113.401 398.698 Q115.307 397.143 118.198 397.143 Q120.339 397.143 121.940 398.002 Q123.542 398.862 124.596 400.471 Q125.651 402.080 126.245 404.401 Q126.839 406.721 126.839 410.658 Q126.839 415.299 125.878 418.158 Q124.917 421.018 123.010 422.580 Q121.104 424.143 118.198 424.143 Q114.370 424.143 112.182 421.408 Q109.557 418.096 109.557 410.658 Z M112.901 410.643 Q112.901 416.955 114.432 419.049 Q115.964 421.143 118.198 421.143 Q120.432 421.143 121.964 419.041 Q123.495 416.940 123.495 410.643 Q123.495 404.315 121.964 402.229 Q120.432 400.143 118.167 400.143 Q115.917 400.143 114.589 401.987 Q112.901 404.330 112.901 410.643 Z"/>
  <path d="M50.448 517.762 L47.198 517.762 L47.198 496.731 Q46.026 497.871 44.120 499.004 Q42.214 500.137 40.698 500.699 L40.698 497.512 Q43.432 496.215 45.471 494.363 Q47.510 492.512 48.354 490.762 L50.448 490.762 L50.448 517.762 Z"/>
  <path d="M58.589 504.278 Q58.589 499.574 59.557 496.723 Q60.526 493.871 62.432 492.317 Q64.339 490.762 67.229 490.762 Q69.370 490.762 70.971 491.621 Q72.573 492.481 73.628 494.090 Q74.682 495.699 75.276 498.020 Q75.870 500.340 75.870 504.278 Q75.870 508.918 74.909 511.778 Q73.948 514.637 72.042 516.199 Q70.135 517.762 67.229 517.762 Q63.401 517.762 61.214 515.028 Q58.589 511.715 58.589 504.278 Z M61.932 504.262 Q61.932 510.574 63.464 512.668 Q64.995 514.762 67.229 514.762 Q69.464 514.762 70.995 512.660 Q72.526 510.559 72.526 504.262 Q72.526 497.934 70.995 495.848 Q69.464 493.762 67.198 493.762 Q64.948 493.762 63.620 495.606 Q61.932 497.949 61.932 504.262 Z"/>
  <path d="M78.979 504.278 Q78.979 499.574 79.948 496.723 Q80.917 493.871 82.823 492.317 Q84.729 490.762 87.620 490.762 Q89.760 490.762 91.362 491.621 Q92.964 492.481 94.018 494.090 Q95.073 495.699 95.667 498.020 Q96.260 500.340 96.260 504.278 Q96.260 508.918 95.299 511.778 Q94.339 514.637 92.432 516.199 Q90.526 517.762 87.620 517.762 Q83.792 517.762 81.604 515.028 Q78.979 511.715 78.979 504.278 Z M82.323 504.262 Q82.323 510.574 83.854 512.668 Q85.385 514.762 87.620 514.762 Q89.854 514.762 91.385 512.660 Q92.917 510.559 92.917 504.262 Q92.917 497.934 91.385 495.848 Q89.854 493.762 87.589 493.762 Q85.339 493.762 84.010 495.606 Q82.323 497.949 82.323 504.262 Z"/>
  <path d="M101.198 517.762 L101.198 514.762 L104.901 514.762 L104.901 517.762 L101.198 517.762 Z"/>
  <path d="M109.557 504.278 Q109.557 499.574 110.526 496.723 Q111.495 493.871 113.401 492.317 Q115.307 490.762 118.198 490.762 Q120.339 490.762 121.940 491.621 Q123.542 492.481 124.596 494.090 Q125.651 495.699 126.245 498.020 Q126.839 500.340 126.839 504.278 Q126.839 508.918 125.878 511.778 Q124.917 514.637 123.010 516.199 Q121.104 517.762 118.198 517.762 Q114.370 517.762 112.182 515.028 Q109.557 511.715 109.557 504.278 Z M112.901 504.262 Q112.901 510.574 114.432 512.668 Q115.964 514.762 118.198 514.762 Q120.432 514.762 121.964 512.660 Q123.495 510.559 123.495 504.262 Q123.495 497.934 121.964 495.848 Q120.432 493.762 118.167 493.762 Q115.917 493.762 114.589 495.606 Q112.901 497.949 112.901 504.262 Z"/>
  <path d="M50.448 611.381 L47.198 611.381 L47.198 590.350 Q46.026 591.490 44.120 592.623 Q42.214 593.756 40.698 594.318 L40.698 591.131 Q43.432 589.834 45.471 587.983 Q47.510 586.131 48.354 584.381 L50.448 584.381 L50.448 611.381 Z"/>
  <path d="M75.682 608.381 L75.682 611.381 L58.182 611.381 Q58.135 610.256 58.557 609.209 Q59.229 607.490 60.698 605.826 Q62.167 604.162 64.948 601.787 Q69.276 598.100 70.792 595.998 Q72.307 593.897 72.307 592.037 Q72.307 590.068 70.924 588.725 Q69.542 587.381 67.323 587.381 Q64.979 587.381 63.565 588.443 Q62.151 589.506 62.135 591.381 L58.792 591.381 Q59.135 587.959 61.378 586.170 Q63.620 584.381 67.385 584.381 Q71.214 584.381 73.432 586.553 Q75.651 588.725 75.651 591.943 Q75.651 593.584 75.003 595.162 Q74.354 596.740 72.839 598.490 Q71.323 600.240 67.823 603.225 Q64.901 605.709 64.073 606.600 Q63.245 607.490 62.698 608.381 L75.682 608.381 Z"/>
  <path d="M78.979 597.897 Q78.979 593.193 79.948 590.342 Q80.917 587.490 82.823 585.936 Q84.729 584.381 87.620 584.381 Q89.760 584.381 91.362 585.240 Q92.964 586.100 94.018 587.709 Q95.073 589.318 95.667 591.639 Q96.260 593.959 96.260 597.897 Q96.260 602.537 95.299 605.397 Q94.339 608.256 92.432 609.818 Q90.526 611.381 87.620 611.381 Q83.792 611.381 81.604 608.647 Q78.979 605.334 78.979 597.897 Z M82.323 597.881 Q82.323 604.193 83.854 606.287 Q85.385 608.381 87.620 608.381 Q89.854 608.381 91.385 606.279 Q92.917 604.178 92.917 597.881 Q92.917 591.553 91.385 589.467 Q89.854 587.381 87.589 587.381 Q85.339 587.381 84.010 589.225 Q82.323 591.568 82.323 597.881 Z"/>
  <path d="M101.198 611.381 L101.198 608.381 L104.901 608.381 L104.901 611.381 L101.198 611.381 Z"/>
  <path d="M109.557 597.897 Q109.557 593.193 110.526 590.342 Q111.495 587.490 113.401 585.936 Q115.307 584.381 118.198 584.381 Q120.339 584.381 121.940 585.240 Q123.542 586.100 124.596 587.709 Q125.651 589.318 126.245 591.639 Q126.839 593.959 126.839 597.897 Q126.839 602.537 125.878 605.397 Q124.917 608.256 123.010 609.818 Q121.104 611.381 118.198 611.381 Q114.370 611.381 112.182 608.647 Q109.557 605.334 109.557 597.897 Z M112.901 597.881 Q112.901 604.193 114.432 606.287 Q115.964 608.381 118.198 608.381 Q120.432 608.381 121.964 606.279 Q123.495 604.178 123.495 597.881 Q123.495 591.553 121.964 589.467 Q120.432 587.381 118.167 587.381 Q115.917 587.381 114.589 589.225 Q112.901 591.568 112.901 597.881 Z"/>
  <path d="M50.448 705 L47.198 705 L47.198 683.969 Q46.026 685.109 44.120 686.242 Q42.214 687.375 40.698 687.938 L40.698 684.750 Q43.432 683.453 45.471 681.602 Q47.510 679.750 48.354 678 L50.448 678 L50.448 705 Z"/>
  <path d="M69.010 705 L69.010 699 L57.526 699 L57.526 696 L69.620 678 L72.276 678 L72.276 696 L75.854 696 L75.854 699 L72.276 699 L72.276 705 L69.010 705 Z M69.010 696 L69.010 683.672 L60.729 696 L69.010 696 Z"/>
  <path d="M78.979 691.516 Q78.979 686.812 79.948 683.961 Q80.917 681.109 82.823 679.555 Q84.729 678 87.620 678 Q89.760 678 91.362 678.859 Q92.964 679.719 94.018 681.328 Q95.073 682.938 95.667 685.258 Q96.260 687.578 96.260 691.516 Q96.260 696.156 95.299 699.016 Q94.339 701.875 92.432 703.438 Q90.526 705 87.620 705 Q83.792 705 81.604 702.266 Q78.979 698.953 78.979 691.516 Z M82.323 691.500 Q82.323 697.812 83.854 699.906 Q85.385 702 87.620 702 Q89.854 702 91.385 699.898 Q92.917 697.797 92.917 691.500 Q92.917 685.172 91.385 683.086 Q89.854 681 87.589 681 Q85.339 681 84.010 682.844 Q82.323 685.188 82.323 691.500 Z"/>
  <path d="M101.198 705 L101.198 702 L104.901 702 L104.901 705 L101.198 705 Z"/>
  <path d="M109.557 691.516 Q109.557 686.812 110.526 683.961 Q111.495 681.109 113.401 679.555 Q115.307 678 118.198 678 Q120.339 678 121.940 678.859 Q123.542 679.719 124.596 681.328 Q125.651 682.938 126.245 685.258 Q126.839 687.578 126.839 691.516 Q126.839 696.156 125.878 699.016 Q124.917 701.875 123.010 703.438 Q121.104 705 118.198 705 Q114.370 705 112.182 702.266 Q109.557 698.953 109.557 691.516 Z M112.901 691.500 Q112.901 697.812 114.432 699.906 Q115.964 702 118.198 702 Q120.432 702 121.964 699.898 Q123.495 697.797 123.495 691.500 Q123.495 685.172 121.964 683.086 Q120.432 681 118.167 681 Q115.917 681 114.589 682.844 Q112.901 685.188 112.901 691.500 Z"/>
  <path d="M157.750 184.069 L183.494 171.790 L209.238 73.286 L234.983 77.745 L260.727 98.499 L286.471 51.205 L312.215 47.762 L337.959 77.652 L363.704 105.737 L389.448 48.799 L415.192 83.323 L440.936 70.231 L466.681 145.300 L492.425 121.374 L518.169 89.635 L543.913 126.348 L569.657 83.580 L595.402 65.361 L621.146 50.371 L646.890 49.775 L672.634 49.849 L698.378 118.385 L724.123 379.891 L749.867 579.087 L775.611 569.703 L801.355 552.600 L827.100 320.048 L852.844 257.952 L878.588 141.069 L904.332 80.454 L930.076 59.100 L955.821 64.710 L981.565 57.885 L1007.309 64.669 L1033.053 132.020 L1058.797 137.913 L1084.542 140.301 L1110.286 166.570 L1136.030 154.495 L1161.774 133.776 L1187.519 143.595 L1213.263 177.140 L1239.007 229.037 L1264.751 223.159 L1290.495 257.284 L1316.240 203.459 L1341.984 179.445 L1367.728 123.855 L1393.472 152.763 L1419.216 248.533 L1444.961 266.923 L1470.705 220.825 L1496.449 211.273 L1522.193 224.455 L1547.938 248.906 L1573.682 151.869 L1599.426 120.363 L1625.170 207.079 L1650.914 150.657 L1676.659 87.695 L1702.403 94.271 L1728.147 159.521 L1753.891 111.035 L1779.635 105.861 L1805.380 96.184 L1831.124 106.433 L1856.868 96.746 L1882.612 133.000 L1908.356 101.243 L1934.101 121.070 L1959.845 140.941 L1985.589 123.344 L2011.333 88.088" fill="none" stroke="#0066cc" stroke-width="5"/>
</svg>
