<?xml version="1.0" encoding="UTF-8" ?>
<!-- Generated by clip v0.7.0 (clip-lang.org) -->
<svg xmlns="http://www.w3.org/2000/svg" width="2048.000000" height="800.000000">
  <rect width="2048.000000" height="800.000000" fill="#ffffff" fill-opacity="1.000000"/>
  <path d="M157.75 692 L2011.33 692 " fill="none" stroke-width="3.333333" stroke="#000000ff"/>
  <path d="M157.75 692 L157.75 678.667 " fill="none" stroke-width="3.333333" stroke="#000000ff"/>
  <path d="M466.681 692 L466.681 678.667 " fill="none" stroke-width="3.333333" stroke="#000000ff"/>
  <path d="M775.611 692 L775.611 678.667 " fill="none" stroke-width="3.333333" stroke="#000000ff"/>
  <path d="M1084.54 692 L1084.54 678.667 " fill="none" stroke-width="3.333333" stroke="#000000ff"/>
  <path d="M1393.47 692 L1393.47 678.667 " fill="none" stroke-width="3.333333" stroke="#000000ff"/>
  <path d="M1702.4 692 L1702.4 678.667 " fill="none" stroke-width="3.333333" stroke="#000000ff"/>
  <path d="M2011.33 692 L2011.33 678.667 " fill="none" stroke-width="3.333333" stroke="#000000ff"/>
  <path d="M87.9219 741.849 Q87.9219 737.146 88.8906 734.294 Q89.8594 731.443 91.7656 729.888 Q93.6719 728.333 96.5625 728.333 Q98.7031 728.333 100.305 729.193 Q101.906 730.052 102.961 731.661 Q104.016 733.271 104.609 735.591 Q105.203 737.911 105.203 741.849 Q105.203 746.49 104.242 749.349 Q103.281 752.208 101.375 753.771 Q99.4688 755.333 96.5625 755.333 Q92.7344 755.333 90.5469 752.599 Q87.9219 749.286 87.9219 741.849 ZM91.2656 741.833 Q91.2656 748.146 92.7969 750.24 Q94.3281 752.333 96.5625 752.333 Q98.7969 752.333 100.328 750.232 Q101.859 748.13 101.859 741.833 Q101.859 735.505 100.328 733.419 Q98.7969 731.333 96.5312 731.333 Q94.2812 731.333 92.9531 733.177 Q91.2656 735.521 91.2656 741.833 Z" fill="#000000" fill-opacity="1.000000"/>
  <path d="M108.312 748.333 L111.734 748.333 Q112.109 750.333 113.492 751.333 Q114.875 752.333 116.828 752.333 Q119.172 752.333 120.797 750.63 Q122.422 748.927 122.422 746.115 Q122.422 743.427 120.859 741.88 Q119.297 740.333 116.766 740.333 Q115.203 740.333 113.938 740.888 Q112.672 741.443 111.953 742.333 L108.891 742.333 L111.453 728.333 L124.625 728.333 L124.625 731.333 L114.062 731.333 L112.641 739.068 Q115.031 737.333 117.641 737.333 Q121.109 737.333 123.492 739.732 Q125.875 742.13 125.875 745.911 Q125.875 749.505 123.781 752.115 Q121.234 755.333 116.828 755.333 Q113.203 755.333 110.922 753.419 Q108.641 751.505 108.312 748.333 Z" fill="#000000" fill-opacity="1.000000"/>
  <path d="M130.516 738.333 L130.516 735.333 L134.219 735.333 L134.219 738.333 L130.516 738.333 ZM130.516 755.333 L130.516 752.333 L134.219 752.333 L134.219 755.333 L130.516 755.333 Z" fill="#000000" fill-opacity="1.000000"/>
  <path d="M151.141 755.333 L147.891 755.333 L147.891 734.302 Q146.719 735.443 144.812 736.576 Q142.906 737.708 141.391 738.271 L141.391 735.083 Q144.125 733.786 146.164 731.935 Q148.203 730.083 149.047 728.333 L151.141 728.333 L151.141 755.333 Z" fill="#000000" fill-opacity="1.000000"/>
  <path d="M159.281 748.333 L162.703 748.333 Q163.078 750.333 164.461 751.333 Q165.844 752.333 167.797 752.333 Q170.141 752.333 171.766 750.63 Q173.391 748.927 173.391 746.115 Q173.391 743.427 171.828 741.88 Q170.266 740.333 167.734 740.333 Q166.172 740.333 164.906 740.888 Q163.641 741.443 162.922 742.333 L159.859 742.333 L162.422 728.333 L175.594 728.333 L175.594 731.333 L165.031 731.333 L163.609 739.068 Q166 737.333 168.609 737.333 Q172.078 737.333 174.461 739.732 Q176.844 742.13 176.844 745.911 Q176.844 749.505 174.75 752.115 Q172.203 755.333 167.797 755.333 Q164.172 755.333 161.891 753.419 Q159.609 751.505 159.281 748.333 Z" fill="#000000" fill-opacity="1.000000"/>
  <path d="M181.484 738.333 L181.484 735.333 L185.188 735.333 L185.188 738.333 L181.484 738.333 ZM181.484 755.333 L181.484 752.333 L185.188 752.333 L185.188 755.333 L181.484 755.333 Z" fill="#000000" fill-opacity="1.000000"/>
  <path d="M189.859 741.849 Q189.859 737.146 190.828 734.294 Q191.797 731.443 193.703 729.888 Q195.609 728.333 198.5 728.333 Q200.641 728.333 202.242 729.193 Q203.844 730.052 204.898 731.661 Q205.953 733.271 206.547 735.591 Q207.141 737.911 207.141 741.849 Q207.141 746.49 206.18 749.349 Q205.219 752.208 203.312 753.771 Q201.406 755.333 198.5 755.333 Q194.672 755.333 192.484 752.599 Q189.859 749.286 189.859 741.849 ZM193.203 741.833 Q193.203 748.146 194.734 750.24 Q196.266 752.333 198.5 752.333 Q200.734 752.333 202.266 750.232 Q203.797 748.13 203.797 741.833 Q203.797 735.505 202.266 733.419 Q200.734 731.333 198.469 731.333 Q196.219 731.333 194.891 733.177 Q193.203 735.521 193.203 741.833 Z" fill="#000000" fill-opacity="1.000000"/>
  <path d="M210.25 741.849 Q210.25 737.146 211.219 734.294 Q212.188 731.443 214.094 729.888 Q216 728.333 218.891 728.333 Q221.031 728.333 222.633 729.193 Q224.234 730.052 225.289 731.661 Q226.344 733.271 226.938 735.591 Q227.531 737.911 227.531 741.849 Q227.531 746.49 226.57 749.349 Q225.609 752.208 223.703 753.771 Q221.797 755.333 218.891 755.333 Q215.062 755.333 212.875 752.599 Q210.25 749.286 210.25 741.849 ZM213.594 741.833 Q213.594 748.146 215.125 750.24 Q216.656 752.333 218.891 752.333 Q221.125 752.333 222.656 750.232 Q224.188 748.13 224.188 741.833 Q224.188 735.505 222.656 733.419 Q221.125 731.333 218.859 731.333 Q216.609 731.333 215.281 733.177 Q213.594 735.521 213.594 741.833 Z" fill="#000000" fill-opacity="1.000000"/>
  <path d="M396.852 741.849 Q396.852 737.146 397.821 734.294 Q398.79 731.443 400.696 729.888 Q402.602 728.333 405.493 728.333 Q407.634 728.333 409.235 729.193 Q410.837 730.052 411.892 731.661 Q412.946 733.271 413.54 735.591 Q414.134 737.911 414.134 741.849 Q414.134 746.49 413.173 749.349 Q412.212 752.208 410.306 753.771 Q408.399 755.333 405.493 755.333 Q401.665 755.333 399.477 752.599 Q396.852 749.286 396.852 741.849 ZM400.196 741.833 Q400.196 748.146 401.727 750.24 Q403.259 752.333 405.493 752.333 Q407.727 752.333 409.259 750.232 Q410.79 748.13 410.79 741.833 Q410.79 735.505 409.259 733.419 Q407.727 731.333 405.462 731.333 Q403.212 731.333 401.884 733.177 Q400.196 735.521 400.196 741.833 Z" fill="#000000" fill-opacity="1.000000"/>
  <path d="M434.118 735.333 L430.884 735.333 Q430.446 733.505 429.649 732.661 Q428.337 731.333 426.399 731.333 Q424.852 731.333 423.681 732.099 Q422.149 733.099 421.259 735.013 Q420.368 736.927 420.337 740.865 Q421.509 739.068 423.204 738.201 Q424.899 737.333 426.774 737.333 Q430.024 737.333 432.306 739.779 Q434.587 742.224 434.587 746.099 Q434.587 748.646 433.509 750.826 Q432.431 753.005 430.556 754.169 Q428.681 755.333 426.29 755.333 Q422.227 755.333 419.665 752.349 Q417.102 749.365 417.102 742.505 Q417.102 734.849 419.946 731.365 Q422.415 728.333 426.602 728.333 Q429.727 728.333 431.727 730.193 Q433.727 732.052 434.118 735.333 ZM420.837 746.021 Q420.837 747.693 421.548 749.216 Q422.259 750.74 423.548 751.536 Q424.837 752.333 426.243 752.333 Q428.306 752.333 429.79 750.685 Q431.274 749.036 431.274 746.193 Q431.274 743.474 429.806 741.904 Q428.337 740.333 426.118 740.333 Q423.915 740.333 422.376 741.904 Q420.837 743.474 420.837 746.021 Z" fill="#000000" fill-opacity="1.000000"/>
  <path d="M439.446 738.333 L439.446 735.333 L443.149 735.333 L443.149 738.333 L439.446 738.333 ZM439.446 755.333 L439.446 752.333 L443.149 752.333 L443.149 755.333 L439.446 755.333 Z" fill="#000000" fill-opacity="1.000000"/>
  <path d="M460.071 755.333 L456.821 755.333 L456.821 734.302 Q455.649 735.443 453.743 736.576 Q451.837 737.708 450.321 738.271 L450.321 735.083 Q453.056 733.786 455.095 731.935 Q457.134 730.083 457.977 728.333 L460.071 728.333 L460.071 755.333 Z" fill="#000000" fill-opacity="1.000000"/>
  <path d="M468.212 748.333 L471.634 748.333 Q472.009 750.333 473.392 751.333 Q474.774 752.333 476.727 752.333 Q479.071 752.333 480.696 750.63 Q482.321 748.927 482.321 746.115 Q482.321 743.427 480.759 741.88 Q479.196 740.333 476.665 740.333 Q475.102 740.333 473.837 740.888 Q472.571 741.443 471.852 742.333 L468.79 742.333 L471.352 728.333 L484.524 728.333 L484.524 731.333 L473.962 731.333 L472.54 739.068 Q474.931 737.333 477.54 737.333 Q481.009 737.333 483.392 739.732 Q485.774 742.13 485.774 745.911 Q485.774 749.505 483.681 752.115 Q481.134 755.333 476.727 755.333 Q473.102 755.333 470.821 753.419 Q468.54 751.505 468.212 748.333 Z" fill="#000000" fill-opacity="1.000000"/>
  <path d="M490.415 738.333 L490.415 735.333 L494.118 735.333 L494.118 738.333 L490.415 738.333 ZM490.415 755.333 L490.415 752.333 L494.118 752.333 L494.118 755.333 L490.415 755.333 Z" fill="#000000" fill-opacity="1.000000"/>
  <path d="M498.79 741.849 Q498.79 737.146 499.759 734.294 Q500.727 731.443 502.634 729.888 Q504.54 728.333 507.431 728.333 Q509.571 728.333 511.173 729.193 Q512.774 730.052 513.829 731.661 Q514.884 733.271 515.477 735.591 Q516.071 737.911 516.071 741.849 Q516.071 746.49 515.11 749.349 Q514.149 752.208 512.243 753.771 Q510.337 755.333 507.431 755.333 Q503.602 755.333 501.415 752.599 Q498.79 749.286 498.79 741.849 ZM502.134 741.833 Q502.134 748.146 503.665 750.24 Q505.196 752.333 507.431 752.333 Q509.665 752.333 511.196 750.232 Q512.727 748.13 512.727 741.833 Q512.727 735.505 511.196 733.419 Q509.665 731.333 507.399 731.333 Q505.149 731.333 503.821 733.177 Q502.134 735.521 502.134 741.833 Z" fill="#000000" fill-opacity="1.000000"/>
  <path d="M519.181 741.849 Q519.181 737.146 520.149 734.294 Q521.118 731.443 523.024 729.888 Q524.931 728.333 527.821 728.333 Q529.962 728.333 531.563 729.193 Q533.165 730.052 534.22 731.661 Q535.274 733.271 535.868 735.591 Q536.462 737.911 536.462 741.849 Q536.462 746.49 535.501 749.349 Q534.54 752.208 532.634 753.771 Q530.727 755.333 527.821 755.333 Q523.993 755.333 521.806 752.599 Q519.181 749.286 519.181 741.849 ZM522.524 741.833 Q522.524 748.146 524.056 750.24 Q525.587 752.333 527.821 752.333 Q530.056 752.333 531.587 750.232 Q533.118 748.13 533.118 741.833 Q533.118 735.505 531.587 733.419 Q530.056 731.333 527.79 731.333 Q525.54 731.333 524.212 733.177 Q522.524 735.521 522.524 741.833 Z" fill="#000000" fill-opacity="1.000000"/>
  <path d="M705.783 741.849 Q705.783 737.146 706.752 734.294 Q707.721 731.443 709.627 729.888 Q711.533 728.333 714.424 728.333 Q716.564 728.333 718.166 729.193 Q719.767 730.052 720.822 731.661 Q721.877 733.271 722.471 735.591 Q723.064 737.911 723.064 741.849 Q723.064 746.49 722.103 749.349 Q721.142 752.208 719.236 753.771 Q717.33 755.333 714.424 755.333 Q710.596 755.333 708.408 752.599 Q705.783 749.286 705.783 741.849 ZM709.127 741.833 Q709.127 748.146 710.658 750.24 Q712.189 752.333 714.424 752.333 Q716.658 752.333 718.189 750.232 Q719.721 748.13 719.721 741.833 Q719.721 735.505 718.189 733.419 Q716.658 731.333 714.392 731.333 Q712.142 731.333 710.814 733.177 Q709.127 735.521 709.127 741.833 Z" fill="#000000" fill-opacity="1.000000"/>
  <path d="M726.392 731.333 L726.392 728.333 L743.533 728.333 L743.533 730.755 Q741.017 733.521 738.533 738.177 Q736.049 742.833 734.689 747.74 Q733.705 751.208 733.439 755.333 L730.096 755.333 Q730.142 752.068 731.322 747.458 Q732.502 742.849 734.697 738.56 Q736.892 734.271 739.361 731.333 L726.392 731.333 Z" fill="#000000" fill-opacity="1.000000"/>
  <path d="M748.377 738.333 L748.377 735.333 L752.08 735.333 L752.08 738.333 L748.377 738.333 ZM748.377 755.333 L748.377 752.333 L752.08 752.333 L752.08 755.333 L748.377 755.333 Z" fill="#000000" fill-opacity="1.000000"/>
  <path d="M769.002 755.333 L765.752 755.333 L765.752 734.302 Q764.58 735.443 762.674 736.576 Q760.767 737.708 759.252 738.271 L759.252 735.083 Q761.986 733.786 764.025 731.935 Q766.064 730.083 766.908 728.333 L769.002 728.333 L769.002 755.333 Z" fill="#000000" fill-opacity="1.000000"/>
  <path d="M777.142 748.333 L780.564 748.333 Q780.939 750.333 782.322 751.333 Q783.705 752.333 785.658 752.333 Q788.002 752.333 789.627 750.63 Q791.252 748.927 791.252 746.115 Q791.252 743.427 789.689 741.88 Q788.127 740.333 785.596 740.333 Q784.033 740.333 782.767 740.888 Q781.502 741.443 780.783 742.333 L777.721 742.333 L780.283 728.333 L793.455 728.333 L793.455 731.333 L782.892 731.333 L781.471 739.068 Q783.861 737.333 786.471 737.333 Q789.939 737.333 792.322 739.732 Q794.705 742.13 794.705 745.911 Q794.705 749.505 792.611 752.115 Q790.064 755.333 785.658 755.333 Q782.033 755.333 779.752 753.419 Q777.471 751.505 777.142 748.333 Z" fill="#000000" fill-opacity="1.000000"/>
  <path d="M799.346 738.333 L799.346 735.333 L803.049 735.333 L803.049 738.333 L799.346 738.333 ZM799.346 755.333 L799.346 752.333 L803.049 752.333 L803.049 755.333 L799.346 755.333 Z" fill="#000000" fill-opacity="1.000000"/>
  <path d="M807.721 741.849 Q807.721 737.146 808.689 734.294 Q809.658 731.443 811.564 729.888 Q813.471 728.333 816.361 728.333 Q818.502 728.333 820.103 729.193 Q821.705 730.052 822.76 731.661 Q823.814 733.271 824.408 735.591 Q825.002 737.911 825.002 741.849 Q825.002 746.49 824.041 749.349 Q823.08 752.208 821.174 753.771 Q819.267 755.333 816.361 755.333 Q812.533 755.333 810.346 752.599 Q807.721 749.286 807.721 741.849 ZM811.064 741.833 Q811.064 748.146 812.596 750.24 Q814.127 752.333 816.361 752.333 Q818.596 752.333 820.127 750.232 Q821.658 748.13 821.658 741.833 Q821.658 735.505 820.127 733.419 Q818.596 731.333 816.33 731.333 Q814.08 731.333 812.752 733.177 Q811.064 735.521 811.064 741.833 Z" fill="#000000" fill-opacity="1.000000"/>
  <path d="M828.111 741.849 Q828.111 737.146 829.08 734.294 Q830.049 731.443 831.955 729.888 Q833.861 728.333 836.752 728.333 Q838.892 728.333 840.494 729.193 Q842.096 730.052 843.15 731.661 Q844.205 733.271 844.799 735.591 Q845.392 737.911 845.392 741.849 Q845.392 746.49 844.431 749.349 Q843.471 752.208 841.564 753.771 Q839.658 755.333 836.752 755.333 Q832.924 755.333 830.736 752.599 Q828.111 749.286 828.111 741.849 ZM831.455 741.833 Q831.455 748.146 832.986 750.24 Q834.517 752.333 836.752 752.333 Q838.986 752.333 840.517 750.232 Q842.049 748.13 842.049 741.833 Q842.049 735.505 840.517 733.419 Q838.986 731.333 836.721 731.333 Q834.471 731.333 833.142 733.177 Q831.455 735.521 831.455 741.833 Z" fill="#000000" fill-opacity="1.000000"/>
  <path d="M1014.71 741.849 Q1014.71 737.146 1015.68 734.294 Q1016.65 731.443 1018.56 729.888 Q1020.46 728.333 1023.35 728.333 Q1025.49 728.333 1027.1 729.193 Q1028.7 730.052 1029.75 731.661 Q1030.81 733.271 1031.4 735.591 Q1031.99 737.911 1031.99 741.849 Q1031.99 746.49 1031.03 749.349 Q1030.07 752.208 1028.17 753.771 Q1026.26 755.333 1023.35 755.333 Q1019.53 755.333 1017.34 752.599 Q1014.71 749.286 1014.71 741.849 ZM1018.06 741.833 Q1018.06 748.146 1019.59 750.24 Q1021.12 752.333 1023.35 752.333 Q1025.59 752.333 1027.12 750.232 Q1028.65 748.13 1028.65 741.833 Q1028.65 735.505 1027.12 733.419 Q1025.59 731.333 1023.32 731.333 Q1021.07 731.333 1019.74 733.177 Q1018.06 735.521 1018.06 741.833 Z" fill="#000000" fill-opacity="1.000000"/>
  <path d="M1040.12 740.74 Q1038.09 739.99 1037.11 738.599 Q1036.14 737.208 1036.14 735.255 Q1036.14 732.333 1038.21 730.333 Q1040.29 728.333 1043.74 728.333 Q1047.21 728.333 1049.33 730.38 Q1051.45 732.427 1051.45 735.349 Q1051.45 737.224 1050.48 738.607 Q1049.51 739.99 1047.54 740.74 Q1049.98 741.521 1051.25 743.263 Q1052.53 745.005 1052.53 747.427 Q1052.53 750.771 1050.12 753.052 Q1047.71 755.333 1043.79 755.333 Q1039.89 755.333 1037.48 753.044 Q1035.07 750.755 1035.07 747.349 Q1035.07 744.802 1036.39 743.083 Q1037.7 741.365 1040.12 740.74 ZM1039.46 735.224 Q1039.46 737.036 1040.67 738.185 Q1041.89 739.333 1043.82 739.333 Q1045.7 739.333 1046.9 738.193 Q1048.1 737.052 1048.1 735.396 Q1048.1 733.677 1046.87 732.505 Q1045.64 731.333 1043.79 731.333 Q1041.92 731.333 1040.69 732.482 Q1039.46 733.63 1039.46 735.224 ZM1038.42 747.286 Q1038.42 748.583 1039.07 749.794 Q1039.73 751.005 1041.03 751.669 Q1042.34 752.333 1043.84 752.333 Q1046.17 752.333 1047.68 750.935 Q1049.2 749.536 1049.2 747.38 Q1049.2 745.193 1047.64 743.763 Q1046.07 742.333 1043.73 742.333 Q1041.43 742.333 1039.92 743.747 Q1038.42 745.161 1038.42 747.286 Z" fill="#000000" fill-opacity="1.000000"/>
  <path d="M1057.31 738.333 L1057.31 735.333 L1061.01 735.333 L1061.01 738.333 L1057.31 738.333 ZM1057.31 755.333 L1057.31 752.333 L1061.01 752.333 L1061.01 755.333 L1057.31 755.333 Z" fill="#000000" fill-opacity="1.000000"/>
  <path d="M1077.93 755.333 L1074.68 755.333 L1074.68 734.302 Q1073.51 735.443 1071.6 736.576 Q1069.7 737.708 1068.18 738.271 L1068.18 735.083 Q1070.92 733.786 1072.96 731.935 Q1074.99 730.083 1075.84 728.333 L1077.93 728.333 L1077.93 755.333 Z" fill="#000000" fill-opacity="1.000000"/>
  <path d="M1086.07 748.333 L1089.49 748.333 Q1089.87 750.333 1091.25 751.333 Q1092.64 752.333 1094.59 752.333 Q1096.93 752.333 1098.56 750.63 Q1100.18 748.927 1100.18 746.115 Q1100.18 743.427 1098.62 741.88 Q1097.06 740.333 1094.53 740.333 Q1092.96 740.333 1091.7 740.888 Q1090.43 741.443 1089.71 742.333 L1086.65 742.333 L1089.21 728.333 L1102.39 728.333 L1102.39 731.333 L1091.82 731.333 L1090.4 739.068 Q1092.79 737.333 1095.4 737.333 Q1098.87 737.333 1101.25 739.732 Q1103.64 742.13 1103.64 745.911 Q1103.64 749.505 1101.54 752.115 Q1098.99 755.333 1094.59 755.333 Q1090.96 755.333 1088.68 753.419 Q1086.4 751.505 1086.07 748.333 Z" fill="#000000" fill-opacity="1.000000"/>
  <path d="M1108.28 738.333 L1108.28 735.333 L1111.98 735.333 L1111.98 738.333 L1108.28 738.333 ZM1108.28 755.333 L1108.28 752.333 L1111.98 752.333 L1111.98 755.333 L1108.28 755.333 Z" fill="#000000" fill-opacity="1.000000"/>
  <path d="M1116.65 741.849 Q1116.65 737.146 1117.62 734.294 Q1118.59 731.443 1120.49 729.888 Q1122.4 728.333 1125.29 728.333 Q1127.43 728.333 1129.03 729.193 Q1130.64 730.052 1131.69 731.661 Q1132.74 733.271 1133.34 735.591 Q1133.93 737.911 1133.93 741.849 Q1133.93 746.49 1132.97 749.349 Q1132.01 752.208 1130.1 753.771 Q1128.2 755.333 1125.29 755.333 Q1121.46 755.333 1119.28 752.599 Q1116.65 749.286 1116.65 741.849 ZM1119.99 741.833 Q1119.99 748.146 1121.53 750.24 Q1123.06 752.333 1125.29 752.333 Q1127.53 752.333 1129.06 750.232 Q1130.59 748.13 1130.59 741.833 Q1130.59 735.505 1129.06 733.419 Q1127.53 731.333 1125.26 731.333 Q1123.01 731.333 1121.68 733.177 Q1119.99 735.521 1119.99 741.833 Z" fill="#000000" fill-opacity="1.000000"/>
  <path d="M1137.04 741.849 Q1137.04 737.146 1138.01 734.294 Q1138.98 731.443 1140.89 729.888 Q1142.79 728.333 1145.68 728.333 Q1147.82 728.333 1149.42 729.193 Q1151.03 730.052 1152.08 731.661 Q1153.14 733.271 1153.73 735.591 Q1154.32 737.911 1154.32 741.849 Q1154.32 746.49 1153.36 749.349 Q1152.4 752.208 1150.49 753.771 Q1148.59 755.333 1145.68 755.333 Q1141.85 755.333 1139.67 752.599 Q1137.04 749.286 1137.04 741.849 ZM1140.39 741.833 Q1140.39 748.146 1141.92 750.24 Q1143.45 752.333 1145.68 752.333 Q1147.92 752.333 1149.45 750.232 Q1150.98 748.13 1150.98 741.833 Q1150.98 735.505 1149.45 733.419 Q1147.92 731.333 1145.65 731.333 Q1143.4 731.333 1142.07 733.177 Q1140.39 735.521 1140.39 741.833 Z" fill="#000000" fill-opacity="1.000000"/>
  <path d="M1323.64 741.849 Q1323.64 737.146 1324.61 734.294 Q1325.58 731.443 1327.49 729.888 Q1329.39 728.333 1332.28 728.333 Q1334.43 728.333 1336.03 729.193 Q1337.63 730.052 1338.68 731.661 Q1339.74 733.271 1340.33 735.591 Q1340.93 737.911 1340.93 741.849 Q1340.93 746.49 1339.96 749.349 Q1339 752.208 1337.1 753.771 Q1335.19 755.333 1332.28 755.333 Q1328.46 755.333 1326.27 752.599 Q1323.64 749.286 1323.64 741.849 ZM1326.99 741.833 Q1326.99 748.146 1328.52 750.24 Q1330.05 752.333 1332.28 752.333 Q1334.52 752.333 1336.05 750.232 Q1337.58 748.13 1337.58 741.833 Q1337.58 735.505 1336.05 733.419 Q1334.52 731.333 1332.25 731.333 Q1330 731.333 1328.68 733.177 Q1326.99 735.521 1326.99 741.833 Z" fill="#000000" fill-opacity="1.000000"/>
  <path d="M1344.53 748.333 L1347.66 748.333 Q1348.05 750.443 1349.18 751.388 Q1350.3 752.333 1352.05 752.333 Q1353.55 752.333 1354.68 751.724 Q1355.8 751.115 1356.53 750.099 Q1357.25 749.083 1357.74 747.302 Q1358.22 745.521 1358.22 743.505 Q1358.22 743.286 1358.21 742.849 Q1357.24 744.411 1355.54 745.372 Q1353.85 746.333 1351.88 746.333 Q1348.6 746.333 1346.32 743.896 Q1344.03 741.458 1344.03 737.474 Q1344.03 733.349 1346.41 730.841 Q1348.78 728.333 1352.36 728.333 Q1354.96 728.333 1357.1 729.724 Q1359.24 731.115 1360.35 733.685 Q1361.46 736.255 1361.46 741.115 Q1361.46 746.193 1360.36 749.193 Q1359.25 752.193 1357.07 753.763 Q1354.89 755.333 1351.97 755.333 Q1348.86 755.333 1346.89 753.497 Q1344.93 751.661 1344.53 748.333 ZM1357.85 737.396 Q1357.85 734.615 1356.36 732.974 Q1354.86 731.333 1352.77 731.333 Q1350.6 731.333 1348.99 733.099 Q1347.38 734.865 1347.38 737.661 Q1347.38 740.193 1348.91 741.763 Q1350.44 743.333 1352.68 743.333 Q1354.94 743.333 1356.39 741.763 Q1357.85 740.193 1357.85 737.396 Z" fill="#000000" fill-opacity="1.000000"/>
  <path d="M1366.24 738.333 L1366.24 735.333 L1369.94 735.333 L1369.94 738.333 L1366.24 738.333 ZM1366.24 755.333 L1366.24 752.333 L1369.94 752.333 L1369.94 755.333 L1366.24 755.333 Z" fill="#000000" fill-opacity="1.000000"/>
  <path d="M1386.86 755.333 L1383.61 755.333 L1383.61 734.302 Q1382.44 735.443 1380.53 736.576 Q1378.63 737.708 1377.11 738.271 L1377.11 735.083 Q1379.85 733.786 1381.89 731.935 Q1383.93 730.083 1384.77 728.333 L1386.86 728.333 L1386.86 755.333 Z" fill="#000000" fill-opacity="1.000000"/>
  <path d="M1395 748.333 L1398.43 748.333 Q1398.8 750.333 1400.18 751.333 Q1401.57 752.333 1403.52 752.333 Q1405.86 752.333 1407.49 750.63 Q1409.11 748.927 1409.11 746.115 Q1409.11 743.427 1407.55 741.88 Q1405.99 740.333 1403.46 740.333 Q1401.89 740.333 1400.63 740.888 Q1399.36 741.443 1398.64 742.333 L1395.58 742.333 L1398.14 728.333 L1411.32 728.333 L1411.32 731.333 L1400.75 731.333 L1399.33 739.068 Q1401.72 737.333 1404.33 737.333 Q1407.8 737.333 1410.18 739.732 Q1412.57 742.13 1412.57 745.911 Q1412.57 749.505 1410.47 752.115 Q1407.93 755.333 1403.52 755.333 Q1399.89 755.333 1397.61 753.419 Q1395.33 751.505 1395 748.333 Z" fill="#000000" fill-opacity="1.000000"/>
  <path d="M1417.21 738.333 L1417.21 735.333 L1420.91 735.333 L1420.91 738.333 L1417.21 738.333 ZM1417.21 755.333 L1417.21 752.333 L1420.91 752.333 L1420.91 755.333 L1417.21 755.333 Z" fill="#000000" fill-opacity="1.000000"/>
  <path d="M1425.58 741.849 Q1425.58 737.146 1426.55 734.294 Q1427.52 731.443 1429.43 729.888 Q1431.33 728.333 1434.22 728.333 Q1436.36 728.333 1437.96 729.193 Q1439.57 730.052 1440.62 731.661 Q1441.68 733.271 1442.27 735.591 Q1442.86 737.911 1442.86 741.849 Q1442.86 746.49 1441.9 749.349 Q1440.94 752.208 1439.03 753.771 Q1437.13 755.333 1434.22 755.333 Q1430.39 755.333 1428.21 752.599 Q1425.58 749.286 1425.58 741.849 ZM1428.93 741.833 Q1428.93 748.146 1430.46 750.24 Q1431.99 752.333 1434.22 752.333 Q1436.46 752.333 1437.99 750.232 Q1439.52 748.13 1439.52 741.833 Q1439.52 735.505 1437.99 733.419 Q1436.46 731.333 1434.19 731.333 Q1431.94 731.333 1430.61 733.177 Q1428.93 735.521 1428.93 741.833 Z" fill="#000000" fill-opacity="1.000000"/>
  <path d="M1445.97 741.849 Q1445.97 737.146 1446.94 734.294 Q1447.91 731.443 1449.82 729.888 Q1451.72 728.333 1454.61 728.333 Q1456.75 728.333 1458.36 729.193 Q1459.96 730.052 1461.01 731.661 Q1462.07 733.271 1462.66 735.591 Q1463.25 737.911 1463.25 741.849 Q1463.25 746.49 1462.29 749.349 Q1461.33 752.208 1459.43 753.771 Q1457.52 755.333 1454.61 755.333 Q1450.78 755.333 1448.6 752.599 Q1445.97 749.286 1445.97 741.849 ZM1449.32 741.833 Q1449.32 748.146 1450.85 750.24 Q1452.38 752.333 1454.61 752.333 Q1456.85 752.333 1458.38 750.232 Q1459.91 748.13 1459.91 741.833 Q1459.91 735.505 1458.38 733.419 Q1456.85 731.333 1454.58 731.333 Q1452.33 731.333 1451 733.177 Q1449.32 735.521 1449.32 741.833 Z" fill="#000000" fill-opacity="1.000000"/>
  <path d="M1644.82 755.333 L1641.57 755.333 L1641.57 734.302 Q1640.4 735.443 1638.5 736.576 Q1636.59 737.708 1635.07 738.271 L1635.07 735.083 Q1637.81 733.786 1639.85 731.935 Q1641.89 730.083 1642.73 728.333 L1644.82 728.333 L1644.82 755.333 Z" fill="#000000" fill-opacity="1.000000"/>
  <path d="M1652.97 741.849 Q1652.97 737.146 1653.93 734.294 Q1654.9 731.443 1656.81 729.888 Q1658.72 728.333 1661.61 728.333 Q1663.75 728.333 1665.35 729.193 Q1666.95 730.052 1668 731.661 Q1669.06 733.271 1669.65 735.591 Q1670.25 737.911 1670.25 741.849 Q1670.25 746.49 1669.29 749.349 Q1668.32 752.208 1666.42 753.771 Q1664.51 755.333 1661.61 755.333 Q1657.78 755.333 1655.59 752.599 Q1652.97 749.286 1652.97 741.849 ZM1656.31 741.833 Q1656.31 748.146 1657.84 750.24 Q1659.37 752.333 1661.61 752.333 Q1663.84 752.333 1665.37 750.232 Q1666.9 748.13 1666.9 741.833 Q1666.9 735.505 1665.37 733.419 Q1663.84 731.333 1661.57 731.333 Q1659.32 731.333 1658 733.177 Q1656.31 735.521 1656.31 741.833 Z" fill="#000000" fill-opacity="1.000000"/>
  <path d="M1675.17 738.333 L1675.17 735.333 L1678.87 735.333 L1678.87 738.333 L1675.17 738.333 ZM1675.17 755.333 L1675.17 752.333 L1678.87 752.333 L1678.87 755.333 L1675.17 755.333 Z" fill="#000000" fill-opacity="1.000000"/>
  <path d="M1695.79 755.333 L1692.54 755.333 L1692.54 734.302 Q1691.37 735.443 1689.47 736.576 Q1687.56 737.708 1686.04 738.271 L1686.04 735.083 Q1688.78 733.786 1690.82 731.935 Q1692.86 730.083 1693.7 728.333 L1695.79 728.333 L1695.79 755.333 Z" fill="#000000" fill-opacity="1.000000"/>
  <path d="M1703.93 748.333 L1707.36 748.333 Q1707.73 750.333 1709.11 751.333 Q1710.5 752.333 1712.45 752.333 Q1714.79 752.333 1716.42 750.63 Q1718.04 748.927 1718.04 746.115 Q1718.04 743.427 1716.48 741.88 Q1714.92 740.333 1712.39 740.333 Q1710.82 740.333 1709.56 740.888 Q1708.29 741.443 1707.57 742.333 L1704.51 742.333 L1707.07 728.333 L1720.25 728.333 L1720.25 731.333 L1709.68 731.333 L1708.26 739.068 Q1710.65 737.333 1713.26 737.333 Q1716.73 737.333 1719.11 739.732 Q1721.5 742.13 1721.5 745.911 Q1721.5 749.505 1719.4 752.115 Q1716.86 755.333 1712.45 755.333 Q1708.82 755.333 1706.54 753.419 Q1704.26 751.505 1703.93 748.333 Z" fill="#000000" fill-opacity="1.000000"/>
  <path d="M1726.14 738.333 L1726.14 735.333 L1729.84 735.333 L1729.84 738.333 L1726.14 738.333 ZM1726.14 755.333 L1726.14 752.333 L1729.84 752.333 L1729.84 755.333 L1726.14 755.333 Z" fill="#000000" fill-opacity="1.000000"/>
  <path d="M1734.51 741.849 Q1734.51 737.146 1735.48 734.294 Q1736.45 731.443 1738.36 729.888 Q1740.26 728.333 1743.15 728.333 Q1745.29 728.333 1746.9 729.193 Q1748.5 730.052 1749.55 731.661 Q1750.61 733.271 1751.2 735.591 Q1751.79 737.911 1751.79 741.849 Q1751.79 746.49 1750.83 749.349 Q1749.87 752.208 1747.97 753.771 Q1746.06 755.333 1743.15 755.333 Q1739.32 755.333 1737.14 752.599 Q1734.51 749.286 1734.51 741.849 ZM1737.86 741.833 Q1737.86 748.146 1739.39 750.24 Q1740.92 752.333 1743.15 752.333 Q1745.39 752.333 1746.92 750.232 Q1748.45 748.13 1748.45 741.833 Q1748.45 735.505 1746.92 733.419 Q1745.39 731.333 1743.12 731.333 Q1740.87 731.333 1739.54 733.177 Q1737.86 735.521 1737.86 741.833 Z" fill="#000000" fill-opacity="1.000000"/>
  <path d="M1754.9 741.849 Q1754.9 737.146 1755.87 734.294 Q1756.84 731.443 1758.75 729.888 Q1760.65 728.333 1763.54 728.333 Q1765.68 728.333 1767.29 729.193 Q1768.89 730.052 1769.94 731.661 Q1771 733.271 1771.59 735.591 Q1772.18 737.911 1772.18 741.849 Q1772.18 746.49 1771.22 749.349 Q1770.26 752.208 1768.36 753.771 Q1766.45 755.333 1763.54 755.333 Q1759.72 755.333 1757.53 752.599 Q1754.9 749.286 1754.9 741.849 ZM1758.25 741.833 Q1758.25 748.146 1759.78 750.24 Q1761.31 752.333 1763.54 752.333 Q1765.78 752.333 1767.31 750.232 Q1768.84 748.13 1768.84 741.833 Q1768.84 735.505 1767.31 733.419 Q1765.78 731.333 1763.51 731.333 Q1761.26 731.333 1759.93 733.177 Q1758.25 735.521 1758.25 741.833 Z" fill="#000000" fill-opacity="1.000000"/>
  <path d="M1955.11 755.333 L1951.86 755.333 L1951.86 734.302 Q1950.69 735.443 1948.79 736.576 Q1946.88 737.708 1945.36 738.271 L1945.36 735.083 Q1948.1 733.786 1950.14 731.935 Q1952.18 730.083 1953.02 728.333 L1955.11 728.333 L1955.11 755.333 Z" fill="#000000" fill-opacity="1.000000"/>
  <path d="M1974.15 755.333 L1970.9 755.333 L1970.9 734.302 Q1969.72 735.443 1967.82 736.576 Q1965.91 737.708 1964.4 738.271 L1964.4 735.083 Q1967.13 733.786 1969.17 731.935 Q1971.21 730.083 1972.05 728.333 L1974.15 728.333 L1974.15 755.333 Z" fill="#000000" fill-opacity="1.000000"/>
  <path d="M1982.74 738.333 L1982.74 735.333 L1986.44 735.333 L1986.44 738.333 L1982.74 738.333 ZM1982.74 755.333 L1982.74 752.333 L1986.44 752.333 L1986.44 755.333 L1982.74 755.333 Z" fill="#000000" fill-opacity="1.000000"/>
  <path d="M2003.36 755.333 L2000.11 755.333 L2000.11 734.302 Q1998.94 735.443 1997.04 736.576 Q1995.13 737.708 1993.61 738.271 L1993.61 735.083 Q1996.35 733.786 1998.39 731.935 Q2000.43 730.083 2001.27 728.333 L2003.36 728.333 L2003.36 755.333 Z" fill="#000000" fill-opacity="1.000000"/>
  <path d="M2011.51 748.333 L2014.93 748.333 Q2015.3 750.333 2016.68 751.333 Q2018.07 752.333 2020.02 752.333 Q2022.36 752.333 2023.99 750.63 Q2025.61 748.927 2025.61 746.115 Q2025.61 743.427 2024.05 741.88 Q2022.49 740.333 2019.96 740.333 Q2018.4 740.333 2017.13 740.888 Q2015.86 741.443 2015.15 742.333 L2012.08 742.333 L2014.65 728.333 L2027.82 728.333 L2027.82 731.333 L2017.26 731.333 L2015.83 739.068 Q2018.22 737.333 2020.83 737.333 Q2024.3 737.333 2026.68 739.732 Q2029.07 742.13 2029.07 745.911 Q2029.07 749.505 2026.97 752.115 Q2024.43 755.333 2020.02 755.333 Q2016.4 755.333 2014.11 753.419 Q2011.83 751.505 2011.51 748.333 Z" fill="#000000" fill-opacity="1.000000"/>
  <path d="M2033.71 738.333 L2033.71 735.333 L2037.41 735.333 L2037.41 738.333 L2033.71 738.333 ZM2033.71 755.333 L2033.71 752.333 L2037.41 752.333 L2037.41 755.333 L2033.71 755.333 Z" fill="#000000" fill-opacity="1.000000"/>
  <path d="M2042.08 741.849 Q2042.08 737.146 2043.05 734.294 Q2044.02 731.443 2045.93 729.888 Q2047.83 728.333 2050.72 728.333 Q2052.86 728.333 2054.47 729.193 Q2056.07 730.052 2057.12 731.661 Q2058.18 733.271 2058.77 735.591 Q2059.36 737.911 2059.36 741.849 Q2059.36 746.49 2058.4 749.349 Q2057.44 752.208 2055.54 753.771 Q2053.63 755.333 2050.72 755.333 Q2046.9 755.333 2044.71 752.599 Q2042.08 749.286 2042.08 741.849 ZM2045.43 741.833 Q2045.43 748.146 2046.96 750.24 Q2048.49 752.333 2050.72 752.333 Q2052.96 752.333 2054.49 750.232 Q2056.02 748.13 2056.02 741.833 Q2056.02 735.505 2054.49 733.419 Q2052.96 731.333 2050.69 731.333 Q2048.44 731.333 2047.11 733.177 Q2045.43 735.521 2045.43 741.833 Z" fill="#000000" fill-opacity="1.000000"/>
  <path d="M2062.47 741.849 Q2062.47 737.146 2063.44 734.294 Q2064.41 731.443 2066.32 729.888 Q2068.22 728.333 2071.11 728.333 Q2073.26 728.333 2074.86 729.193 Q2076.46 730.052 2077.51 731.661 Q2078.57 733.271 2079.16 735.591 Q2079.76 737.911 2079.76 741.849 Q2079.76 746.49 2078.79 749.349 Q2077.83 752.208 2075.93 753.771 Q2074.02 755.333 2071.11 755.333 Q2067.29 755.333 2065.1 752.599 Q2062.47 749.286 2062.47 741.849 ZM2065.82 741.833 Q2065.82 748.146 2067.35 750.24 Q2068.88 752.333 2071.11 752.333 Q2073.35 752.333 2074.88 750.232 Q2076.41 748.13 2076.41 741.833 Q2076.41 735.505 2074.88 733.419 Q2073.35 731.333 2071.08 731.333 Q2068.83 731.333 2067.51 733.177 Q2065.82 735.521 2065.82 741.833 Z" fill="#000000" fill-opacity="1.000000"/>
  <path d="M157.75 692 L157.75 36.6667 " fill="none" stroke-width="3.333333" stroke="#000000ff"/>
  <path d="M157.75 36.6667 L171.083 36.6667 " fill="none" stroke-width="3.333333" stroke="#000000ff"/>
  <path d="M157.75 130.286 L171.083 130.286 " fill="none" stroke-width="3.333333" stroke="#000000ff"/>
  <path d="M157.75 223.905 L171.083 223.905 " fill="none" stroke-width="3.333333" stroke="#000000ff"/>
  <path d="M157.75 317.524 L171.083 317.524 " fill="none" stroke-width="3.333333" stroke="#000000ff"/>
  <path d="M157.75 411.143 L171.083 411.143 " fill="none" stroke-width="3.333333" stroke="#000000ff"/>
  <path d="M157.75 504.762 L171.083 504.762 " fill="none" stroke-width="3.333333" stroke="#000000ff"/>
  <path d="M157.75 598.381 L171.083 598.381 " fill="none" stroke-width="3.333333" stroke="#000000ff"/>
  <path d="M157.75 692 L171.083 692 " fill="none" stroke-width="3.333333" stroke="#000000ff"/>
  <path d="M78.9792 36.1823 Q78.9792 31.4792 79.9479 28.6276 Q80.9167 25.776 82.8229 24.2214 Q84.7292 22.6667 87.6198 22.6667 Q89.7604 22.6667 91.362 23.526 Q92.9635 24.3854 94.0182 25.9948 Q95.0729 27.6042 95.6667 29.9245 Q96.2604 32.2448 96.2604 36.1823 Q96.2604 40.8229 95.2995 43.6823 Q94.3385 46.5417 92.4323 48.1042 Q90.526 49.6667 87.6198 49.6667 Q83.7917 49.6667 81.6042 46.9323 Q78.9792 43.6198 78.9792 36.1823 ZM82.3229 36.1667 Q82.3229 42.4792 83.8542 44.5729 Q85.3854 46.6667 87.6198 46.6667 Q89.8542 46.6667 91.3854 44.5651 Q92.9167 42.4635 92.9167 36.1667 Q92.9167 29.8385 91.3854 27.7526 Q89.8542 25.6667 87.5885 25.6667 Q85.3385 25.6667 84.0104 27.5104 Q82.3229 29.8542 82.3229 36.1667 Z" fill="#000000" fill-opacity="1.000000"/>
  <path d="M101.198 49.6667 L101.198 46.6667 L104.901 46.6667 L104.901 49.6667 L101.198 49.6667 Z" fill="#000000" fill-opacity="1.000000"/>
  <path d="M109.557 36.1823 Q109.557 31.4792 110.526 28.6276 Q111.495 25.776 113.401 24.2214 Q115.307 22.6667 118.198 22.6667 Q120.339 22.6667 121.94 23.526 Q123.542 24.3854 124.596 25.9948 Q125.651 27.6042 126.245 29.9245 Q126.839 32.2448 126.839 36.1823 Q126.839 40.8229 125.878 43.6823 Q124.917 46.5417 123.01 48.1042 Q121.104 49.6667 118.198 49.6667 Q114.37 49.6667 112.182 46.9323 Q109.557 43.6198 109.557 36.1823 ZM112.901 36.1667 Q112.901 42.4792 114.432 44.5729 Q115.964 46.6667 118.198 46.6667 Q120.432 46.6667 121.964 44.5651 Q123.495 42.4635 123.495 36.1667 Q123.495 29.8385 121.964 27.7526 Q120.432 25.6667 118.167 25.6667 Q115.917 25.6667 114.589 27.5104 Q112.901 29.8542 112.901 36.1667 Z" fill="#000000" fill-opacity="1.000000"/>
  <path d="M75.6823 140.286 L75.6823 143.286 L58.1823 143.286 Q58.1354 142.161 58.5573 141.114 Q59.2292 139.395 60.6979 137.731 Q62.1667 136.067 64.9479 133.692 Q69.276 130.004 70.7917 127.903 Q72.3073 125.801 72.3073 123.942 Q72.3073 121.973 70.9245 120.629 Q69.5417 119.286 67.3229 119.286 Q64.9792 119.286 63.5651 120.348 Q62.151 121.411 62.1354 123.286 L58.7917 123.286 Q59.1354 119.864 61.3776 118.075 Q63.6198 116.286 67.3854 116.286 Q71.2135 116.286 73.4323 118.458 Q75.651 120.629 75.651 123.848 Q75.651 125.489 75.0026 127.067 Q74.3542 128.645 72.8385 130.395 Q71.3229 132.145 67.8229 135.129 Q64.901 137.614 64.0729 138.504 Q63.2448 139.395 62.6979 140.286 L75.6823 140.286 Z" fill="#000000" fill-opacity="1.000000"/>
  <path d="M78.9792 129.801 Q78.9792 125.098 79.9479 122.247 Q80.9167 119.395 82.8229 117.84 Q84.7292 116.286 87.6198 116.286 Q89.7604 116.286 91.362 117.145 Q92.9635 118.004 94.0182 119.614 Q95.0729 121.223 95.6667 123.544 Q96.2604 125.864 96.2604 129.801 Q96.2604 134.442 95.2995 137.301 Q94.3385 140.161 92.4323 141.723 Q90.526 143.286 87.6198 143.286 Q83.7917 143.286 81.6042 140.551 Q78.9792 137.239 78.9792 129.801 ZM82.3229 129.786 Q82.3229 136.098 83.8542 138.192 Q85.3854 140.286 87.6198 140.286 Q89.8542 140.286 91.3854 138.184 Q92.9167 136.083 92.9167 129.786 Q92.9167 123.458 91.3854 121.372 Q89.8542 119.286 87.5885 119.286 Q85.3385 119.286 84.0104 121.129 Q82.3229 123.473 82.3229 129.786 Z" fill="#000000" fill-opacity="1.000000"/>
  <path d="M101.198 143.286 L101.198 140.286 L104.901 140.286 L104.901 143.286 L101.198 143.286 Z" fill="#000000" fill-opacity="1.000000"/>
  <path d="M109.557 129.801 Q109.557 125.098 110.526 122.247 Q111.495 119.395 113.401 117.84 Q115.307 116.286 118.198 116.286 Q120.339 116.286 121.94 117.145 Q123.542 118.004 124.596 119.614 Q125.651 121.223 126.245 123.544 Q126.839 125.864 126.839 129.801 Q126.839 134.442 125.878 137.301 Q124.917 140.161 123.01 141.723 Q121.104 143.286 118.198 143.286 Q114.37 143.286 112.182 140.551 Q109.557 137.239 109.557 129.801 ZM112.901 129.786 Q112.901 136.098 114.432 138.192 Q115.964 140.286 118.198 140.286 Q120.432 140.286 121.964 138.184 Q123.495 136.083 123.495 129.786 Q123.495 123.458 121.964 121.372 Q120.432 119.286 118.167 119.286 Q115.917 119.286 114.589 121.129 Q112.901 123.473 112.901 129.786 Z" fill="#000000" fill-opacity="1.000000"/>
  <path d="M69.0104 236.905 L69.0104 230.905 L57.526 230.905 L57.526 227.905 L69.6198 209.905 L72.276 209.905 L72.276 227.905 L75.8542 227.905 L75.8542 230.905 L72.276 230.905 L72.276 236.905 L69.0104 236.905 ZM69.0104 227.905 L69.0104 215.577 L60.7292 227.905 L69.0104 227.905 Z" fill="#000000" fill-opacity="1.000000"/>
  <path d="M78.9792 223.42 Q78.9792 218.717 79.9479 215.866 Q80.9167 213.014 82.8229 211.459 Q84.7292 209.905 87.6198 209.905 Q89.7604 209.905 91.362 210.764 Q92.9635 211.624 94.0182 213.233 Q95.0729 214.842 95.6667 217.163 Q96.2604 219.483 96.2604 223.42 Q96.2604 228.061 95.2995 230.92 Q94.3385 233.78 92.4323 235.342 Q90.526 236.905 87.6198 236.905 Q83.7917 236.905 81.6042 234.17 Q78.9792 230.858 78.9792 223.42 ZM82.3229 223.405 Q82.3229 229.717 83.8542 231.811 Q85.3854 233.905 87.6198 233.905 Q89.8542 233.905 91.3854 231.803 Q92.9167 229.702 92.9167 223.405 Q92.9167 217.077 91.3854 214.991 Q89.8542 212.905 87.5885 212.905 Q85.3385 212.905 84.0104 214.749 Q82.3229 217.092 82.3229 223.405 Z" fill="#000000" fill-opacity="1.000000"/>
  <path d="M101.198 236.905 L101.198 233.905 L104.901 233.905 L104.901 236.905 L101.198 236.905 Z" fill="#000000" fill-opacity="1.000000"/>
  <path d="M109.557 223.42 Q109.557 218.717 110.526 215.866 Q111.495 213.014 113.401 211.459 Q115.307 209.905 118.198 209.905 Q120.339 209.905 121.94 210.764 Q123.542 211.624 124.596 213.233 Q125.651 214.842 126.245 217.163 Q126.839 219.483 126.839 223.42 Q126.839 228.061 125.878 230.92 Q124.917 233.78 123.01 235.342 Q121.104 236.905 118.198 236.905 Q114.37 236.905 112.182 234.17 Q109.557 230.858 109.557 223.42 ZM112.901 223.405 Q112.901 229.717 114.432 231.811 Q115.964 233.905 118.198 233.905 Q120.432 233.905 121.964 231.803 Q123.495 229.702 123.495 223.405 Q123.495 217.077 121.964 214.991 Q120.432 212.905 118.167 212.905 Q115.917 212.905 114.589 214.749 Q112.901 217.092 112.901 223.405 Z" fill="#000000" fill-opacity="1.000000"/>
  <path d="M75.4635 310.524 L72.2292 310.524 Q71.7917 308.696 70.9948 307.852 Q69.6823 306.524 67.7448 306.524 Q66.1979 306.524 65.026 307.289 Q63.4948 308.289 62.6042 310.203 Q61.7135 312.118 61.6823 316.055 Q62.8542 314.258 64.5495 313.391 Q66.2448 312.524 68.1198 312.524 Q71.3698 312.524 73.651 314.969 Q75.9323 317.414 75.9323 321.289 Q75.9323 323.836 74.8542 326.016 Q73.776 328.196 71.901 329.36 Q70.026 330.524 67.6354 330.524 Q63.5729 330.524 61.0104 327.539 Q58.4479 324.555 58.4479 317.696 Q58.4479 310.039 61.2917 306.555 Q63.7604 303.524 67.9479 303.524 Q71.0729 303.524 73.0729 305.383 Q75.0729 307.243 75.4635 310.524 ZM62.1823 321.211 Q62.1823 322.883 62.8932 324.407 Q63.6042 325.93 64.8932 326.727 Q66.1823 327.524 67.5885 327.524 Q69.651 327.524 71.1354 325.875 Q72.6198 324.227 72.6198 321.383 Q72.6198 318.664 71.151 317.094 Q69.6823 315.524 67.4635 315.524 Q65.2604 315.524 63.7214 317.094 Q62.1823 318.664 62.1823 321.211 Z" fill="#000000" fill-opacity="1.000000"/>
  <path d="M78.9792 317.039 Q78.9792 312.336 79.9479 309.485 Q80.9167 306.633 82.8229 305.078 Q84.7292 303.524 87.6198 303.524 Q89.7604 303.524 91.362 304.383 Q92.9635 305.243 94.0182 306.852 Q95.0729 308.461 95.6667 310.782 Q96.2604 313.102 96.2604 317.039 Q96.2604 321.68 95.2995 324.539 Q94.3385 327.399 92.4323 328.961 Q90.526 330.524 87.6198 330.524 Q83.7917 330.524 81.6042 327.789 Q78.9792 324.477 78.9792 317.039 ZM82.3229 317.024 Q82.3229 323.336 83.8542 325.43 Q85.3854 327.524 87.6198 327.524 Q89.8542 327.524 91.3854 325.422 Q92.9167 323.321 92.9167 317.024 Q92.9167 310.696 91.3854 308.61 Q89.8542 306.524 87.5885 306.524 Q85.3385 306.524 84.0104 308.368 Q82.3229 310.711 82.3229 317.024 Z" fill="#000000" fill-opacity="1.000000"/>
  <path d="M101.198 330.524 L101.198 327.524 L104.901 327.524 L104.901 330.524 L101.198 330.524 Z" fill="#000000" fill-opacity="1.000000"/>
  <path d="M109.557 317.039 Q109.557 312.336 110.526 309.485 Q111.495 306.633 113.401 305.078 Q115.307 303.524 118.198 303.524 Q120.339 303.524 121.94 304.383 Q123.542 305.243 124.596 306.852 Q125.651 308.461 126.245 310.782 Q126.839 313.102 126.839 317.039 Q126.839 321.68 125.878 324.539 Q124.917 327.399 123.01 328.961 Q121.104 330.524 118.198 330.524 Q114.37 330.524 112.182 327.789 Q109.557 324.477 109.557 317.039 ZM112.901 317.024 Q112.901 323.336 114.432 325.43 Q115.964 327.524 118.198 327.524 Q120.432 327.524 121.964 325.422 Q123.495 323.321 123.495 317.024 Q123.495 310.696 121.964 308.61 Q120.432 306.524 118.167 306.524 Q115.917 306.524 114.589 308.368 Q112.901 310.711 112.901 317.024 Z" fill="#000000" fill-opacity="1.000000"/>
  <path d="M63.6042 409.549 Q61.5729 408.799 60.5964 407.408 Q59.6198 406.018 59.6198 404.065 Q59.6198 401.143 61.6979 399.143 Q63.776 397.143 67.2292 397.143 Q70.6979 397.143 72.8151 399.19 Q74.9323 401.237 74.9323 404.158 Q74.9323 406.033 73.9635 407.416 Q72.9948 408.799 71.026 409.549 Q73.4635 410.33 74.737 412.073 Q76.0104 413.815 76.0104 416.237 Q76.0104 419.58 73.6042 421.862 Q71.1979 424.143 67.276 424.143 Q63.3698 424.143 60.9635 421.854 Q58.5573 419.565 58.5573 416.158 Q58.5573 413.612 59.8698 411.893 Q61.1823 410.174 63.6042 409.549 ZM62.9479 404.033 Q62.9479 405.846 64.1589 406.994 Q65.3698 408.143 67.3073 408.143 Q69.1823 408.143 70.3854 407.002 Q71.5885 405.862 71.5885 404.205 Q71.5885 402.487 70.3542 401.315 Q69.1198 400.143 67.276 400.143 Q65.401 400.143 64.1745 401.291 Q62.9479 402.44 62.9479 404.033 ZM61.901 416.096 Q61.901 417.393 62.5573 418.604 Q63.2135 419.815 64.5182 420.479 Q65.8229 421.143 67.3229 421.143 Q69.651 421.143 71.1667 419.744 Q72.6823 418.346 72.6823 416.19 Q72.6823 414.002 71.1198 412.573 Q69.5573 411.143 67.2135 411.143 Q64.9167 411.143 63.4089 412.557 Q61.901 413.971 61.901 416.096 Z" fill="#000000" fill-opacity="1.000000"/>
  <path d="M78.9792 410.658 Q78.9792 405.955 79.9479 403.104 Q80.9167 400.252 82.8229 398.698 Q84.7292 397.143 87.6198 397.143 Q89.7604 397.143 91.362 398.002 Q92.9635 398.862 94.0182 400.471 Q95.0729 402.08 95.6667 404.401 Q96.2604 406.721 96.2604 410.658 Q96.2604 415.299 95.2995 418.158 Q94.3385 421.018 92.4323 422.58 Q90.526 424.143 87.6198 424.143 Q83.7917 424.143 81.6042 421.408 Q78.9792 418.096 78.9792 410.658 ZM82.3229 410.643 Q82.3229 416.955 83.8542 419.049 Q85.3854 421.143 87.6198 421.143 Q89.8542 421.143 91.3854 419.041 Q92.9167 416.94 92.9167 410.643 Q92.9167 404.315 91.3854 402.229 Q89.8542 400.143 87.5885 400.143 Q85.3385 400.143 84.0104 401.987 Q82.3229 404.33 82.3229 410.643 Z" fill="#000000" fill-opacity="1.000000"/>
  <path d="M101.198 424.143 L101.198 421.143 L104.901 421.143 L104.901 424.143 L101.198 424.143 Z" fill="#000000" fill-opacity="1.000000"/>
  <path d="M109.557 410.658 Q109.557 405.955 110.526 403.104 Q111.495 400.252 113.401 398.698 Q115.307 397.143 118.198 397.143 Q120.339 397.143 121.94 398.002 Q123.542 398.862 124.596 400.471 Q125.651 402.08 126.245 404.401 Q126.839 406.721 126.839 410.658 Q126.839 415.299 125.878 418.158 Q124.917 421.018 123.01 422.58 Q121.104 424.143 118.198 424.143 Q114.37 424.143 112.182 421.408 Q109.557 418.096 109.557 410.658 ZM112.901 410.643 Q112.901 416.955 114.432 419.049 Q115.964 421.143 118.198 421.143 Q120.432 421.143 121.964 419.041 Q123.495 416.94 123.495 410.643 Q123.495 404.315 121.964 402.229 Q120.432 400.143 118.167 400.143 Q115.917 400.143 114.589 401.987 Q112.901 404.33 112.901 410.643 Z" fill="#000000" fill-opacity="1.000000"/>
  <path d="M50.4479 517.762 L47.1979 517.762 L47.1979 496.731 Q46.026 497.871 44.1198 499.004 Q42.2135 500.137 40.6979 500.699 L40.6979 497.512 Q43.4323 496.215 45.4714 494.363 Q47.5104 492.512 48.3542 490.762 L50.4479 490.762 L50.4479 517.762 Z" fill="#000000" fill-opacity="1.000000"/>
  <path d="M58.5885 504.278 Q58.5885 499.574 59.5573 496.723 Q60.526 493.871 62.4323 492.317 Q64.3385 490.762 67.2292 490.762 Q69.3698 490.762 70.9714 491.621 Q72.5729 492.481 73.6276 494.09 Q74.6823 495.699 75.276 498.02 Q75.8698 500.34 75.8698 504.278 Q75.8698 508.918 74.9089 511.778 Q73.9479 514.637 72.0417 516.199 Q70.1354 517.762 67.2292 517.762 Q63.401 517.762 61.2135 515.028 Q58.5885 511.715 58.5885 504.278 ZM61.9323 504.262 Q61.9323 510.574 63.4635 512.668 Q64.9948 514.762 67.2292 514.762 Q69.4635 514.762 70.9948 512.66 Q72.526 510.559 72.526 504.262 Q72.526 497.934 70.9948 495.848 Q69.4635 493.762 67.1979 493.762 Q64.9479 493.762 63.6198 495.606 Q61.9323 497.949 61.9323 504.262 Z" fill="#000000" fill-opacity="1.000000"/>
  <path d="M78.9792 504.278 Q78.9792 499.574 79.9479 496.723 Q80.9167 493.871 82.8229 492.317 Q84.7292 490.762 87.6198 490.762 Q89.7604 490.762 91.362 491.621 Q92.9635 492.481 94.0182 494.09 Q95.0729 495.699 95.6667 498.02 Q96.2604 500.34 96.2604 504.278 Q96.2604 508.918 95.2995 511.778 Q94.3385 514.637 92.4323 516.199 Q90.526 517.762 87.6198 517.762 Q83.7917 517.762 81.6042 515.028 Q78.9792 511.715 78.9792 504.278 ZM82.3229 504.262 Q82.3229 510.574 83.8542 512.668 Q85.3854 514.762 87.6198 514.762 Q89.8542 514.762 91.3854 512.66 Q92.9167 510.559 92.9167 504.262 Q92.9167 497.934 91.3854 495.848 Q89.8542 493.762 87.5885 493.762 Q85.3385 493.762 84.0104 495.606 Q82.3229 497.949 82.3229 504.262 Z" fill="#000000" fill-opacity="1.000000"/>
  <path d="M101.198 517.762 L101.198 514.762 L104.901 514.762 L104.901 517.762 L101.198 517.762 Z" fill="#000000" fill-opacity="1.000000"/>
  <path d="M109.557 504.278 Q109.557 499.574 110.526 496.723 Q111.495 493.871 113.401 492.317 Q115.307 490.762 118.198 490.762 Q120.339 490.762 121.94 491.621 Q123.542 492.481 124.596 494.09 Q125.651 495.699 126.245 498.02 Q126.839 500.34 126.839 504.278 Q126.839 508.918 125.878 511.778 Q124.917 514.637 123.01 516.199 Q121.104 517.762 118.198 517.762 Q114.37 517.762 112.182 515.028 Q109.557 511.715 109.557 504.278 ZM112.901 504.262 Q112.901 510.574 114.432 512.668 Q115.964 514.762 118.198 514.762 Q120.432 514.762 121.964 512.66 Q123.495 510.559 123.495 504.262 Q123.495 497.934 121.964 495.848 Q120.432 493.762 118.167 493.762 Q115.917 493.762 114.589 495.606 Q112.901 497.949 112.901 504.262 Z" fill="#000000" fill-opacity="1.000000"/>
  <path d="M50.4479 611.381 L47.1979 611.381 L47.1979 590.35 Q46.026 591.49 44.1198 592.623 Q42.2135 593.756 40.6979 594.318 L40.6979 591.131 Q43.4323 589.834 45.4714 587.983 Q47.5104 586.131 48.3542 584.381 L50.4479 584.381 L50.4479 611.381 Z" fill="#000000" fill-opacity="1.000000"/>
  <path d="M75.6823 608.381 L75.6823 611.381 L58.1823 611.381 Q58.1354 610.256 58.5573 609.209 Q59.2292 607.49 60.6979 605.826 Q62.1667 604.162 64.9479 601.787 Q69.276 598.1 70.7917 595.998 Q72.3073 593.897 72.3073 592.037 Q72.3073 590.068 70.9245 588.725 Q69.5417 587.381 67.3229 587.381 Q64.9792 587.381 63.5651 588.443 Q62.151 589.506 62.1354 591.381 L58.7917 591.381 Q59.1354 587.959 61.3776 586.17 Q63.6198 584.381 67.3854 584.381 Q71.2135 584.381 73.4323 586.553 Q75.651 588.725 75.651 591.943 Q75.651 593.584 75.0026 595.162 Q74.3542 596.74 72.8385 598.49 Q71.3229 600.24 67.8229 603.225 Q64.901 605.709 64.0729 606.6 Q63.2448 607.49 62.6979 608.381 L75.6823 608.381 Z" fill="#000000" fill-opacity="1.000000"/>
  <path d="M78.9792 597.897 Q78.9792 593.193 79.9479 590.342 Q80.9167 587.49 82.8229 585.936 Q84.7292 584.381 87.6198 584.381 Q89.7604 584.381 91.362 585.24 Q92.9635 586.1 94.0182 587.709 Q95.0729 589.318 95.6667 591.639 Q96.2604 593.959 96.2604 597.897 Q96.2604 602.537 95.2995 605.397 Q94.3385 608.256 92.4323 609.818 Q90.526 611.381 87.6198 611.381 Q83.7917 611.381 81.6042 608.647 Q78.9792 605.334 78.9792 597.897 ZM82.3229 597.881 Q82.3229 604.193 83.8542 606.287 Q85.3854 608.381 87.6198 608.381 Q89.8542 608.381 91.3854 606.279 Q92.9167 604.178 92.9167 597.881 Q92.9167 591.553 91.3854 589.467 Q89.8542 587.381 87.5885 587.381 Q85.3385 587.381 84.0104 589.225 Q82.3229 591.568 82.3229 597.881 Z" fill="#000000" fill-opacity="1.000000"/>
  <path d="M101.198 611.381 L101.198 608.381 L104.901 608.381 L104.901 611.381 L101.198 611.381 Z" fill="#000000" fill-opacity="1.000000"/>
  <path d="M109.557 597.897 Q109.557 593.193 110.526 590.342 Q111.495 587.49 113.401 585.936 Q115.307 584.381 118.198 584.381 Q120.339 584.381 121.94 585.24 Q123.542 586.1 124.596 587.709 Q125.651 589.318 126.245 591.639 Q126.839 593.959 126.839 597.897 Q126.839 602.537 125.878 605.397 Q124.917 608.256 123.01 609.818 Q121.104 611.381 118.198 611.381 Q114.37 611.381 112.182 608.647 Q109.557 605.334 109.557 597.897 ZM112.901 597.881 Q112.901 604.193 114.432 606.287 Q115.964 608.381 118.198 608.381 Q120.432 608.381 121.964 606.279 Q123.495 604.178 123.495 597.881 Q123.495 591.553 121.964 589.467 Q120.432 587.381 118.167 587.381 Q115.917 587.381 114.589 589.225 Q112.901 591.568 112.901 597.881 Z" fill="#000000" fill-opacity="1.000000"/>
  <path d="M50.4479 705 L47.1979 705 L47.1979 683.969 Q46.026 685.109 44.1198 686.242 Q42.2135 687.375 40.6979 687.938 L40.6979 684.75 Q43.4323 683.453 45.4714 681.602 Q47.5104 679.75 48.3542 678 L50.4479 678 L50.4479 705 Z" fill="#000000" fill-opacity="1.000000"/>
  <path d="M69.0104 705 L69.0104 699 L57.526 699 L57.526 696 L69.6198 678 L72.276 678 L72.276 696 L75.8542 696 L75.8542 699 L72.276 699 L72.276 705 L69.0104 705 ZM69.0104 696 L69.0104 683.672 L60.7292 696 L69.0104 696 Z" fill="#000000" fill-opacity="1.000000"/>
  <path d="M78.9792 691.516 Q78.9792 686.812 79.9479 683.961 Q80.9167 681.109 82.8229 679.555 Q84.7292 678 87.6198 678 Q89.7604 678 91.362 678.859 Q92.9635 679.719 94.0182 681.328 Q95.0729 682.938 95.6667 685.258 Q96.2604 687.578 96.2604 691.516 Q96.2604 696.156 95.2995 699.016 Q94.3385 701.875 92.4323 703.438 Q90.526 705 87.6198 705 Q83.7917 705 81.6042 702.266 Q78.9792 698.953 78.9792 691.516 ZM82.3229 691.5 Q82.3229 697.812 83.8542 699.906 Q85.3854 702 87.6198 702 Q89.8542 702 91.3854 699.898 Q92.9167 697.797 92.9167 691.5 Q92.9167 685.172 91.3854 683.086 Q89.8542 681 87.5885 681 Q85.3385 681 84.0104 682.844 Q82.3229 685.188 82.3229 691.5 Z" fill="#000000" fill-opacity="1.000000"/>
  <path d="M101.198 705 L101.198 702 L104.901 702 L104.901 705 L101.198 705 Z" fill="#000000" fill-opacity="1.000000"/>
  <path d="M109.557 691.516 Q109.557 686.812 110.526 683.961 Q111.495 681.109 113.401 679.555 Q115.307 678 118.198 678 Q120.339 678 121.94 678.859 Q123.542 679.719 124.596 681.328 Q125.651 682.938 126.245 685.258 Q126.839 687.578 126.839 691.516 Q126.839 696.156 125.878 699.016 Q124.917 701.875 123.01 703.438 Q121.104 705 118.198 705 Q114.37 705 112.182 702.266 Q109.557 698.953 109.557 691.516 ZM112.901 691.5 Q112.901 697.812 114.432 699.906 Q115.964 702 118.198 702 Q120.432 702 121.964 699.898 Q123.495 697.797 123.495 691.5 Q123.495 685.172 121.964 683.086 Q120.432 681 118.167 681 Q115.917 681 114.589 682.844 Q112.901 685.188 112.901 691.5 Z" fill="#000000" fill-opacity="1.000000"/>
  <path d="M157.75 184.069 L183.494 171.79 L209.238 73.2859 L234.983 77.7448 L260.727 98.499 L286.471 51.2052 L312.215 47.7617 L337.959 77.6521 L363.704 105.737 L389.448 48.7989 L415.192 83.3231 L440.936 70.2305 L466.681 145.3 L492.425 121.374 L518.169 89.6346 L543.913 126.348 L569.657 83.5801 L595.402 65.3607 L621.146 50.3707 L646.89 49.7745 L672.634 49.8494 L698.378 118.385 L724.123 379.891 L749.867 579.087 L775.611 569.703 L801.355 552.6 L827.1 320.048 L852.844 257.952 L878.588 141.069 L904.332 80.454 L930.076 59.1001 L955.821 64.7096 L981.565 57.8848 L1007.31 64.6686 L1033.05 132.02 L1058.8 137.913 L1084.54 140.301 L1110.29 166.57 L1136.03 154.495 L1161.77 133.776 L1187.52 143.595 L1213.26 177.14 L1239.01 229.037 L1264.75 223.159 L1290.5 257.284 L1316.24 203.459 L1341.98 179.445 L1367.73 123.855 L1393.47 152.763 L1419.22 248.533 L1444.96 266.923 L1470.7 220.825 L1496.45 211.273 L1522.19 224.455 L1547.94 248.906 L1573.68 151.869 L1599.43 120.363 L1625.17 207.079 L1650.91 150.657 L1676.66 87.6955 L1702.4 94.2709 L1728.15 159.521 L1753.89 111.035 L1779.64 105.861 L1805.38 96.1841 L1831.12 106.433 L1856.87 96.7461 L1882.61 133 L1908.36 101.243 L1934.1 121.07 L1959.84 140.941 L1985.59 123.344 L2011.33 88.0875 " fill="none" stroke-width="5.000000" stroke="#0066ccff"/>
</svg>