<?xml version="1.0" encoding="UTF-8" ?>
<!-- Generated by clip v0.8.0 (clip-lang.org) -->
<svg xmlns="http://www.w3.org/2000/svg" width="2048" height="800">
  <rect width="2048" height="800" fill="#ffffff" fill-opacity="1"/>
  <path d="M149.578 692 L2011.333 692" fill="none" stroke="#000000" stroke-width="3.333"/>
  <path d="M149.578 692 L149.578 678.667" fill="none" stroke="#000000" stroke-width="3.333"/>
  <path d="M335.754 692 L335.754 678.667" fill="none" stroke="#000000" stroke-width="3.333"/>
  <path d="M521.929 692 L521.929 678.667" fill="none" stroke="#000000" stroke-width="3.333"/>
  <path d="M708.105 692 L708.105 678.667" fill="none" stroke="#000000" stroke-width="3.333"/>
  <path d="M894.280 692 L894.280 678.667" fill="none" stroke="#000000" stroke-width="3.333"/>
  <path d="M1080.456 692 L1080.456 678.667" fill="none" stroke="#000000" stroke-width="3.333"/>
  <path d="M1266.631 692 L1266.631 678.667" fill="none" stroke="#000000" stroke-width="3.333"/>
  <path d="M1452.807 692 L1452.807 678.667" fill="none" stroke="#000000" stroke-width="3.333"/>
  <path d="M1638.982 692 L1638.982 678.667" fill="none" stroke="#000000" stroke-width="3.333"/>
  <path d="M1825.158 692 L1825.158 678.667" fill="none" stroke="#000000" stroke-width="3.333"/>
  <path d="M2011.333 692 L2011.333 678.667" fill="none" stroke="#000000" stroke-width="3.333"/>
  <path d="M108.961 747.333 L108.961 744.333 L118.961 744.333 L118.961 747.333 L108.961 747.333 Z"/>
  <path d="M133.789 755.333 L130.539 755.333 L130.539 734.302 Q129.367 735.443 127.461 736.576 Q125.555 737.708 124.039 738.271 L124.039 735.083 Q126.773 733.786 128.812 731.935 Q130.852 730.083 131.695 728.333 L133.789 728.333 L133.789 755.333 Z"/>
  <path d="M159.023 752.333 L159.023 755.333 L141.523 755.333 Q141.477 754.208 141.898 753.161 Q142.570 751.443 144.039 749.779 Q145.508 748.115 148.289 745.740 Q152.617 742.052 154.133 739.951 Q155.648 737.849 155.648 735.990 Q155.648 734.021 154.266 732.677 Q152.883 731.333 150.664 731.333 Q148.320 731.333 146.906 732.396 Q145.492 733.458 145.477 735.333 L142.133 735.333 Q142.477 731.911 144.719 730.122 Q146.961 728.333 150.727 728.333 Q154.555 728.333 156.773 730.505 Q158.992 732.677 158.992 735.896 Q158.992 737.536 158.344 739.115 Q157.695 740.693 156.180 742.443 Q154.664 744.193 151.164 747.177 Q148.242 749.661 147.414 750.552 Q146.586 751.443 146.039 752.333 L159.023 752.333 Z"/>
  <path d="M164.148 755.333 L164.148 752.333 L167.852 752.333 L167.852 755.333 L164.148 755.333 Z"/>
  <path d="M172.508 741.849 Q172.508 737.146 173.477 734.294 Q174.445 731.443 176.352 729.888 Q178.258 728.333 181.148 728.333 Q183.289 728.333 184.891 729.193 Q186.492 730.052 187.547 731.661 Q188.602 733.271 189.195 735.591 Q189.789 737.911 189.789 741.849 Q189.789 746.490 188.828 749.349 Q187.867 752.208 185.961 753.771 Q184.055 755.333 181.148 755.333 Q177.320 755.333 175.133 752.599 Q172.508 749.286 172.508 741.849 Z M175.852 741.833 Q175.852 748.146 177.383 750.240 Q178.914 752.333 181.148 752.333 Q183.383 752.333 184.914 750.232 Q186.445 748.130 186.445 741.833 Q186.445 735.505 184.914 733.419 Q183.383 731.333 181.117 731.333 Q178.867 731.333 177.539 733.177 Q175.852 735.521 175.852 741.833 Z"/>
  <path d="M305.332 747.333 L305.332 744.333 L315.332 744.333 L315.332 747.333 L305.332 747.333 Z"/>
  <path d="M322.926 740.740 Q320.894 739.990 319.918 738.599 Q318.941 737.208 318.941 735.255 Q318.941 732.333 321.019 730.333 Q323.097 728.333 326.551 728.333 Q330.019 728.333 332.136 730.380 Q334.254 732.427 334.254 735.349 Q334.254 737.224 333.285 738.607 Q332.316 739.990 330.347 740.740 Q332.785 741.521 334.058 743.263 Q335.332 745.005 335.332 747.427 Q335.332 750.771 332.926 753.052 Q330.519 755.333 326.597 755.333 Q322.691 755.333 320.285 753.044 Q317.879 750.755 317.879 747.349 Q317.879 744.802 319.191 743.083 Q320.504 741.365 322.926 740.740 Z M322.269 735.224 Q322.269 737.036 323.480 738.185 Q324.691 739.333 326.629 739.333 Q328.504 739.333 329.707 738.193 Q330.910 737.052 330.910 735.396 Q330.910 733.677 329.676 732.505 Q328.441 731.333 326.597 731.333 Q324.722 731.333 323.496 732.482 Q322.269 733.630 322.269 735.224 Z M321.222 747.286 Q321.222 748.583 321.879 749.794 Q322.535 751.005 323.840 751.669 Q325.144 752.333 326.644 752.333 Q328.972 752.333 330.488 750.935 Q332.004 749.536 332.004 747.380 Q332.004 745.193 330.441 743.763 Q328.879 742.333 326.535 742.333 Q324.238 742.333 322.730 743.747 Q321.222 745.161 321.222 747.286 Z"/>
  <path d="M340.129 755.333 L340.129 752.333 L343.832 752.333 L343.832 755.333 L340.129 755.333 Z"/>
  <path d="M365.363 735.333 L362.129 735.333 Q361.691 733.505 360.894 732.661 Q359.582 731.333 357.644 731.333 Q356.097 731.333 354.926 732.099 Q353.394 733.099 352.504 735.013 Q351.613 736.927 351.582 740.865 Q352.754 739.068 354.449 738.201 Q356.144 737.333 358.019 737.333 Q361.269 737.333 363.551 739.779 Q365.832 742.224 365.832 746.099 Q365.832 748.646 364.754 750.826 Q363.676 753.005 361.801 754.169 Q359.926 755.333 357.535 755.333 Q353.472 755.333 350.910 752.349 Q348.347 749.365 348.347 742.505 Q348.347 734.849 351.191 731.365 Q353.660 728.333 357.847 728.333 Q360.972 728.333 362.972 730.193 Q364.972 732.052 365.363 735.333 Z M352.082 746.021 Q352.082 747.693 352.793 749.216 Q353.504 750.740 354.793 751.536 Q356.082 752.333 357.488 752.333 Q359.551 752.333 361.035 750.685 Q362.519 749.036 362.519 746.193 Q362.519 743.474 361.051 741.904 Q359.582 740.333 357.363 740.333 Q355.160 740.333 353.621 741.904 Q352.082 743.474 352.082 746.021 Z"/>
  <path d="M491.507 747.333 L491.507 744.333 L501.507 744.333 L501.507 747.333 L491.507 747.333 Z"/>
  <path d="M504.085 748.333 L507.507 748.333 Q507.882 750.333 509.265 751.333 Q510.648 752.333 512.601 752.333 Q514.945 752.333 516.570 750.630 Q518.195 748.927 518.195 746.115 Q518.195 743.427 516.632 741.880 Q515.070 740.333 512.539 740.333 Q510.976 740.333 509.710 740.888 Q508.445 741.443 507.726 742.333 L504.664 742.333 L507.226 728.333 L520.398 728.333 L520.398 731.333 L509.835 731.333 L508.414 739.068 Q510.804 737.333 513.414 737.333 Q516.882 737.333 519.265 739.732 Q521.648 742.130 521.648 745.911 Q521.648 749.505 519.554 752.115 Q517.007 755.333 512.601 755.333 Q508.976 755.333 506.695 753.419 Q504.414 751.505 504.085 748.333 Z"/>
  <path d="M526.304 755.333 L526.304 752.333 L530.007 752.333 L530.007 755.333 L526.304 755.333 Z"/>
  <path d="M551.757 752.333 L551.757 755.333 L534.257 755.333 Q534.210 754.208 534.632 753.161 Q535.304 751.443 536.773 749.779 Q538.242 748.115 541.023 745.740 Q545.351 742.052 546.867 739.951 Q548.382 737.849 548.382 735.990 Q548.382 734.021 546.999 732.677 Q545.617 731.333 543.398 731.333 Q541.054 731.333 539.640 732.396 Q538.226 733.458 538.210 735.333 L534.867 735.333 Q535.210 731.911 537.453 730.122 Q539.695 728.333 543.460 728.333 Q547.289 728.333 549.507 730.505 Q551.726 732.677 551.726 735.896 Q551.726 737.536 551.078 739.115 Q550.429 740.693 548.914 742.443 Q547.398 744.193 543.898 747.177 Q540.976 749.661 540.148 750.552 Q539.320 751.443 538.773 752.333 L551.757 752.333 Z"/>
  <path d="M677.683 747.333 L677.683 744.333 L687.683 744.333 L687.683 747.333 L677.683 747.333 Z"/>
  <path d="M702.511 755.333 L699.261 755.333 L699.261 734.302 Q698.089 735.443 696.183 736.576 Q694.277 737.708 692.761 738.271 L692.761 735.083 Q695.495 733.786 697.534 731.935 Q699.573 730.083 700.417 728.333 L702.511 728.333 L702.511 755.333 Z"/>
  <path d="M712.480 755.333 L712.480 752.333 L716.183 752.333 L716.183 755.333 L712.480 755.333 Z"/>
  <path d="M725.855 740.740 Q723.823 739.990 722.847 738.599 Q721.870 737.208 721.870 735.255 Q721.870 732.333 723.948 730.333 Q726.027 728.333 729.480 728.333 Q732.948 728.333 735.066 730.380 Q737.183 732.427 737.183 735.349 Q737.183 737.224 736.214 738.607 Q735.245 739.990 733.277 740.740 Q735.714 741.521 736.988 743.263 Q738.261 745.005 738.261 747.427 Q738.261 750.771 735.855 753.052 Q733.448 755.333 729.527 755.333 Q725.620 755.333 723.214 753.044 Q720.808 750.755 720.808 747.349 Q720.808 744.802 722.120 743.083 Q723.433 741.365 725.855 740.740 Z M725.198 735.224 Q725.198 737.036 726.409 738.185 Q727.620 739.333 729.558 739.333 Q731.433 739.333 732.636 738.193 Q733.839 737.052 733.839 735.396 Q733.839 733.677 732.605 732.505 Q731.370 731.333 729.527 731.333 Q727.652 731.333 726.425 732.482 Q725.198 733.630 725.198 735.224 Z M724.152 747.286 Q724.152 748.583 724.808 749.794 Q725.464 751.005 726.769 751.669 Q728.073 752.333 729.573 752.333 Q731.902 752.333 733.417 750.935 Q734.933 749.536 734.933 747.380 Q734.933 745.193 733.370 743.763 Q731.808 742.333 729.464 742.333 Q727.167 742.333 725.659 743.747 Q724.152 745.161 724.152 747.286 Z"/>
  <path d="M882.577 755.333 L879.327 755.333 L879.327 734.302 Q878.155 735.443 876.249 736.576 Q874.343 737.708 872.827 738.271 L872.827 735.083 Q875.561 733.786 877.601 731.935 Q879.640 730.083 880.483 728.333 L882.577 728.333 L882.577 755.333 Z"/>
  <path d="M892.546 755.333 L892.546 752.333 L896.249 752.333 L896.249 755.333 L892.546 755.333 Z"/>
  <path d="M917.780 735.333 L914.546 735.333 Q914.108 733.505 913.311 732.661 Q911.999 731.333 910.061 731.333 Q908.515 731.333 907.343 732.099 Q905.811 733.099 904.921 735.013 Q904.030 736.927 903.999 740.865 Q905.171 739.068 906.866 738.201 Q908.561 737.333 910.436 737.333 Q913.686 737.333 915.968 739.779 Q918.249 742.224 918.249 746.099 Q918.249 748.646 917.171 750.826 Q916.093 753.005 914.218 754.169 Q912.343 755.333 909.952 755.333 Q905.890 755.333 903.327 752.349 Q900.765 749.365 900.765 742.505 Q900.765 734.849 903.608 731.365 Q906.077 728.333 910.265 728.333 Q913.390 728.333 915.390 730.193 Q917.390 732.052 917.780 735.333 Z M904.499 746.021 Q904.499 747.693 905.210 749.216 Q905.921 750.740 907.210 751.536 Q908.499 752.333 909.905 752.333 Q911.968 752.333 913.452 750.685 Q914.936 749.036 914.936 746.193 Q914.936 743.474 913.468 741.904 Q911.999 740.333 909.780 740.333 Q907.577 740.333 906.038 741.904 Q904.499 743.474 904.499 746.021 Z"/>
  <path d="M1056.503 748.333 L1059.924 748.333 Q1060.299 750.333 1061.682 751.333 Q1063.065 752.333 1065.018 752.333 Q1067.362 752.333 1068.987 750.630 Q1070.612 748.927 1070.612 746.115 Q1070.612 743.427 1069.049 741.880 Q1067.487 740.333 1064.956 740.333 Q1063.393 740.333 1062.128 740.888 Q1060.862 741.443 1060.143 742.333 L1057.081 742.333 L1059.643 728.333 L1072.815 728.333 L1072.815 731.333 L1062.253 731.333 L1060.831 739.068 Q1063.221 737.333 1065.831 737.333 Q1069.299 737.333 1071.682 739.732 Q1074.065 742.130 1074.065 745.911 Q1074.065 749.505 1071.971 752.115 Q1069.424 755.333 1065.018 755.333 Q1061.393 755.333 1059.112 753.419 Q1056.831 751.505 1056.503 748.333 Z"/>
  <path d="M1078.721 755.333 L1078.721 752.333 L1082.424 752.333 L1082.424 755.333 L1078.721 755.333 Z"/>
  <path d="M1087.081 741.849 Q1087.081 737.146 1088.049 734.294 Q1089.018 731.443 1090.924 729.888 Q1092.831 728.333 1095.721 728.333 Q1097.862 728.333 1099.464 729.193 Q1101.065 730.052 1102.120 731.661 Q1103.174 733.271 1103.768 735.591 Q1104.362 737.911 1104.362 741.849 Q1104.362 746.490 1103.401 749.349 Q1102.440 752.208 1100.534 753.771 Q1098.628 755.333 1095.721 755.333 Q1091.893 755.333 1089.706 752.599 Q1087.081 749.286 1087.081 741.849 Z M1090.424 741.833 Q1090.424 748.146 1091.956 750.240 Q1093.487 752.333 1095.721 752.333 Q1097.956 752.333 1099.487 750.232 Q1101.018 748.130 1101.018 741.833 Q1101.018 735.505 1099.487 733.419 Q1097.956 731.333 1095.690 731.333 Q1093.440 731.333 1092.112 733.177 Q1090.424 735.521 1090.424 741.833 Z"/>
  <path d="M1247.694 740.740 Q1245.663 739.990 1244.686 738.599 Q1243.709 737.208 1243.709 735.255 Q1243.709 732.333 1245.788 730.333 Q1247.866 728.333 1251.319 728.333 Q1254.788 728.333 1256.905 730.380 Q1259.022 732.427 1259.022 735.349 Q1259.022 737.224 1258.053 738.607 Q1257.084 739.990 1255.116 740.740 Q1257.553 741.521 1258.827 743.263 Q1260.100 745.005 1260.100 747.427 Q1260.100 750.771 1257.694 753.052 Q1255.288 755.333 1251.366 755.333 Q1247.459 755.333 1245.053 753.044 Q1242.647 750.755 1242.647 747.349 Q1242.647 744.802 1243.959 743.083 Q1245.272 741.365 1247.694 740.740 Z M1247.038 735.224 Q1247.038 737.036 1248.248 738.185 Q1249.459 739.333 1251.397 739.333 Q1253.272 739.333 1254.475 738.193 Q1255.678 737.052 1255.678 735.396 Q1255.678 733.677 1254.444 732.505 Q1253.209 731.333 1251.366 731.333 Q1249.491 731.333 1248.264 732.482 Q1247.038 733.630 1247.038 735.224 Z M1245.991 747.286 Q1245.991 748.583 1246.647 749.794 Q1247.303 751.005 1248.608 751.669 Q1249.913 752.333 1251.413 752.333 Q1253.741 752.333 1255.256 750.935 Q1256.772 749.536 1256.772 747.380 Q1256.772 745.193 1255.209 743.763 Q1253.647 742.333 1251.303 742.333 Q1249.006 742.333 1247.498 743.747 Q1245.991 745.161 1245.991 747.286 Z"/>
  <path d="M1264.897 755.333 L1264.897 752.333 L1268.600 752.333 L1268.600 755.333 L1264.897 755.333 Z"/>
  <path d="M1283.678 755.333 L1283.678 749.333 L1272.194 749.333 L1272.194 746.333 L1284.288 728.333 L1286.944 728.333 L1286.944 746.333 L1290.522 746.333 L1290.522 749.333 L1286.944 749.333 L1286.944 755.333 L1283.678 755.333 Z M1283.678 746.333 L1283.678 734.005 L1275.397 746.333 L1283.678 746.333 Z"/>
  <path d="M1432.268 755.333 L1429.018 755.333 L1429.018 734.302 Q1427.846 735.443 1425.940 736.576 Q1424.033 737.708 1422.518 738.271 L1422.518 735.083 Q1425.252 733.786 1427.291 731.935 Q1429.330 730.083 1430.174 728.333 L1432.268 728.333 L1432.268 755.333 Z"/>
  <path d="M1451.299 755.333 L1448.049 755.333 L1448.049 734.302 Q1446.877 735.443 1444.971 736.576 Q1443.065 737.708 1441.549 738.271 L1441.549 735.083 Q1444.283 733.786 1446.322 731.935 Q1448.361 730.083 1449.205 728.333 L1451.299 728.333 L1451.299 755.333 Z"/>
  <path d="M1459.908 755.333 L1459.908 752.333 L1463.611 752.333 L1463.611 755.333 L1459.908 755.333 Z"/>
  <path d="M1473.283 740.740 Q1471.252 739.990 1470.275 738.599 Q1469.299 737.208 1469.299 735.255 Q1469.299 732.333 1471.377 730.333 Q1473.455 728.333 1476.908 728.333 Q1480.377 728.333 1482.494 730.380 Q1484.611 732.427 1484.611 735.349 Q1484.611 737.224 1483.643 738.607 Q1482.674 739.990 1480.705 740.740 Q1483.143 741.521 1484.416 743.263 Q1485.690 745.005 1485.690 747.427 Q1485.690 750.771 1483.283 753.052 Q1480.877 755.333 1476.955 755.333 Q1473.049 755.333 1470.643 753.044 Q1468.236 750.755 1468.236 747.349 Q1468.236 744.802 1469.549 743.083 Q1470.861 741.365 1473.283 740.740 Z M1472.627 735.224 Q1472.627 737.036 1473.838 738.185 Q1475.049 739.333 1476.986 739.333 Q1478.861 739.333 1480.065 738.193 Q1481.268 737.052 1481.268 735.396 Q1481.268 733.677 1480.033 732.505 Q1478.799 731.333 1476.955 731.333 Q1475.080 731.333 1473.854 732.482 Q1472.627 733.630 1472.627 735.224 Z M1471.580 747.286 Q1471.580 748.583 1472.236 749.794 Q1472.893 751.005 1474.197 751.669 Q1475.502 752.333 1477.002 752.333 Q1479.330 752.333 1480.846 750.935 Q1482.361 749.536 1482.361 747.380 Q1482.361 745.193 1480.799 743.763 Q1479.236 742.333 1476.893 742.333 Q1474.596 742.333 1473.088 743.747 Q1471.580 745.161 1471.580 747.286 Z"/>
  <path d="M1617.084 755.333 L1613.834 755.333 L1613.834 734.302 Q1612.662 735.443 1610.756 736.576 Q1608.850 737.708 1607.334 738.271 L1607.334 735.083 Q1610.068 733.786 1612.107 731.935 Q1614.146 730.083 1614.990 728.333 L1617.084 728.333 L1617.084 755.333 Z"/>
  <path d="M1625.225 748.333 L1628.646 748.333 Q1629.021 750.333 1630.404 751.333 Q1631.787 752.333 1633.740 752.333 Q1636.084 752.333 1637.709 750.630 Q1639.334 748.927 1639.334 746.115 Q1639.334 743.427 1637.771 741.880 Q1636.209 740.333 1633.678 740.333 Q1632.115 740.333 1630.850 740.888 Q1629.584 741.443 1628.865 742.333 L1625.803 742.333 L1628.365 728.333 L1641.537 728.333 L1641.537 731.333 L1630.975 731.333 L1629.553 739.068 Q1631.943 737.333 1634.553 737.333 Q1638.021 737.333 1640.404 739.732 Q1642.787 742.130 1642.787 745.911 Q1642.787 749.505 1640.693 752.115 Q1638.146 755.333 1633.740 755.333 Q1630.115 755.333 1627.834 753.419 Q1625.553 751.505 1625.225 748.333 Z"/>
  <path d="M1647.443 755.333 L1647.443 752.333 L1651.146 752.333 L1651.146 755.333 L1647.443 755.333 Z"/>
  <path d="M1672.896 752.333 L1672.896 755.333 L1655.396 755.333 Q1655.350 754.208 1655.771 753.161 Q1656.443 751.443 1657.912 749.779 Q1659.381 748.115 1662.162 745.740 Q1666.490 742.052 1668.006 739.951 Q1669.521 737.849 1669.521 735.990 Q1669.521 734.021 1668.139 732.677 Q1666.756 731.333 1664.537 731.333 Q1662.193 731.333 1660.779 732.396 Q1659.365 733.458 1659.350 735.333 L1656.006 735.333 Q1656.350 731.911 1658.592 730.122 Q1660.834 728.333 1664.600 728.333 Q1668.428 728.333 1670.646 730.505 Q1672.865 732.677 1672.865 735.896 Q1672.865 737.536 1672.217 739.115 Q1671.568 740.693 1670.053 742.443 Q1668.537 744.193 1665.037 747.177 Q1662.115 749.661 1661.287 750.552 Q1660.459 751.443 1659.912 752.333 L1672.896 752.333 Z"/>
  <path d="M1803.259 755.333 L1800.009 755.333 L1800.009 734.302 Q1798.838 735.443 1796.931 736.576 Q1795.025 737.708 1793.509 738.271 L1793.509 735.083 Q1796.244 733.786 1798.283 731.935 Q1800.322 730.083 1801.166 728.333 L1803.259 728.333 L1803.259 755.333 Z"/>
  <path d="M1816.416 740.740 Q1814.384 739.990 1813.408 738.599 Q1812.431 737.208 1812.431 735.255 Q1812.431 732.333 1814.509 730.333 Q1816.588 728.333 1820.041 728.333 Q1823.509 728.333 1825.627 730.380 Q1827.744 732.427 1827.744 735.349 Q1827.744 737.224 1826.775 738.607 Q1825.806 739.990 1823.838 740.740 Q1826.275 741.521 1827.549 743.263 Q1828.822 745.005 1828.822 747.427 Q1828.822 750.771 1826.416 753.052 Q1824.009 755.333 1820.088 755.333 Q1816.181 755.333 1813.775 753.044 Q1811.369 750.755 1811.369 747.349 Q1811.369 744.802 1812.681 743.083 Q1813.994 741.365 1816.416 740.740 Z M1815.759 735.224 Q1815.759 737.036 1816.970 738.185 Q1818.181 739.333 1820.119 739.333 Q1821.994 739.333 1823.197 738.193 Q1824.400 737.052 1824.400 735.396 Q1824.400 733.677 1823.166 732.505 Q1821.931 731.333 1820.088 731.333 Q1818.213 731.333 1816.986 732.482 Q1815.759 733.630 1815.759 735.224 Z M1814.713 747.286 Q1814.713 748.583 1815.369 749.794 Q1816.025 751.005 1817.330 751.669 Q1818.634 752.333 1820.134 752.333 Q1822.463 752.333 1823.978 750.935 Q1825.494 749.536 1825.494 747.380 Q1825.494 745.193 1823.931 743.763 Q1822.369 742.333 1820.025 742.333 Q1817.728 742.333 1816.220 743.747 Q1814.713 745.161 1814.713 747.286 Z"/>
  <path d="M1833.619 755.333 L1833.619 752.333 L1837.322 752.333 L1837.322 755.333 L1833.619 755.333 Z"/>
  <path d="M1858.853 735.333 L1855.619 735.333 Q1855.181 733.505 1854.384 732.661 Q1853.072 731.333 1851.134 731.333 Q1849.588 731.333 1848.416 732.099 Q1846.884 733.099 1845.994 735.013 Q1845.103 736.927 1845.072 740.865 Q1846.244 739.068 1847.939 738.201 Q1849.634 737.333 1851.509 737.333 Q1854.759 737.333 1857.041 739.779 Q1859.322 742.224 1859.322 746.099 Q1859.322 748.646 1858.244 750.826 Q1857.166 753.005 1855.291 754.169 Q1853.416 755.333 1851.025 755.333 Q1846.963 755.333 1844.400 752.349 Q1841.838 749.365 1841.838 742.505 Q1841.838 734.849 1844.681 731.365 Q1847.150 728.333 1851.338 728.333 Q1854.463 728.333 1856.463 730.193 Q1858.463 732.052 1858.853 735.333 Z M1845.572 746.021 Q1845.572 747.693 1846.283 749.216 Q1846.994 750.740 1848.283 751.536 Q1849.572 752.333 1850.978 752.333 Q1853.041 752.333 1854.525 750.685 Q1856.009 749.036 1856.009 746.193 Q1856.009 743.474 1854.541 741.904 Q1853.072 740.333 1850.853 740.333 Q1848.650 740.333 1847.111 741.904 Q1845.572 743.474 1845.572 746.021 Z"/>
  <path d="M1994.279 752.333 L1994.279 755.333 L1976.779 755.333 Q1976.732 754.208 1977.154 753.161 Q1977.826 751.443 1979.294 749.779 Q1980.763 748.115 1983.544 745.740 Q1987.872 742.052 1989.388 739.951 Q1990.904 737.849 1990.904 735.990 Q1990.904 734.021 1989.521 732.677 Q1988.138 731.333 1985.919 731.333 Q1983.576 731.333 1982.161 732.396 Q1980.747 733.458 1980.732 735.333 L1977.388 735.333 Q1977.732 731.911 1979.974 730.122 Q1982.216 728.333 1985.982 728.333 Q1989.810 728.333 1992.029 730.505 Q1994.247 732.677 1994.247 735.896 Q1994.247 737.536 1993.599 739.115 Q1992.951 740.693 1991.435 742.443 Q1989.919 744.193 1986.419 747.177 Q1983.497 749.661 1982.669 750.552 Q1981.841 751.443 1981.294 752.333 L1994.279 752.333 Z"/>
  <path d="M2014.669 752.333 L2014.669 755.333 L1997.169 755.333 Q1997.122 754.208 1997.544 753.161 Q1998.216 751.443 1999.685 749.779 Q2001.154 748.115 2003.935 745.740 Q2008.263 742.052 2009.779 739.951 Q2011.294 737.849 2011.294 735.990 Q2011.294 734.021 2009.911 732.677 Q2008.529 731.333 2006.310 731.333 Q2003.966 731.333 2002.552 732.396 Q2001.138 733.458 2001.122 735.333 L1997.779 735.333 Q1998.122 731.911 2000.365 730.122 Q2002.607 728.333 2006.372 728.333 Q2010.201 728.333 2012.419 730.505 Q2014.638 732.677 2014.638 735.896 Q2014.638 737.536 2013.990 739.115 Q2013.341 740.693 2011.826 742.443 Q2010.310 744.193 2006.810 747.177 Q2003.888 749.661 2003.060 750.552 Q2002.232 751.443 2001.685 752.333 L2014.669 752.333 Z"/>
  <path d="M2019.794 755.333 L2019.794 752.333 L2023.497 752.333 L2023.497 755.333 L2019.794 755.333 Z"/>
  <path d="M2028.154 741.849 Q2028.154 737.146 2029.122 734.294 Q2030.091 731.443 2031.997 729.888 Q2033.904 728.333 2036.794 728.333 Q2038.935 728.333 2040.536 729.193 Q2042.138 730.052 2043.193 731.661 Q2044.247 733.271 2044.841 735.591 Q2045.435 737.911 2045.435 741.849 Q2045.435 746.490 2044.474 749.349 Q2043.513 752.208 2041.607 753.771 Q2039.701 755.333 2036.794 755.333 Q2032.966 755.333 2030.779 752.599 Q2028.154 749.286 2028.154 741.849 Z M2031.497 741.833 Q2031.497 748.146 2033.029 750.240 Q2034.560 752.333 2036.794 752.333 Q2039.029 752.333 2040.560 750.232 Q2042.091 748.130 2042.091 741.833 Q2042.091 735.505 2040.560 733.419 Q2039.029 731.333 2036.763 731.333 Q2034.513 731.333 2033.185 733.177 Q2031.497 735.521 2031.497 741.833 Z"/>
  <path d="M149.578 692 L149.578 36.667" fill="none" stroke="#000000" stroke-width="3.333"/>
  <path d="M149.578 692 L162.911 692" fill="none" stroke="#000000" stroke-width="3.333"/>
  <path d="M149.578 626.467 L162.911 626.467" fill="none" stroke="#000000" stroke-width="3.333"/>
  <path d="M149.578 560.933 L162.911 560.933" fill="none" stroke="#000000" stroke-width="3.333"/>
  <path d="M149.578 495.400 L162.911 495.400" fill="none" stroke="#000000" stroke-width="3.333"/>
  <path d="M149.578 429.867 L162.911 429.867" fill="none" stroke="#000000" stroke-width="3.333"/>
  <path d="M149.578 364.333 L162.911 364.333" fill="none" stroke="#000000" stroke-width="3.333"/>
  <path d="M149.578 298.800 L162.911 298.800" fill="none" stroke="#000000" stroke-width="3.333"/>
  <path d="M149.578 233.267 L162.911 233.267" fill="none" stroke="#000000" stroke-width="3.333"/>
  <path d="M149.578 167.733 L162.911 167.733" fill="none" stroke="#000000" stroke-width="3.333"/>
  <path d="M149.578 102.200 L162.911 102.200" fill="none" stroke="#000000" stroke-width="3.333"/>
  <path d="M149.578 36.667 L162.911 36.667" fill="none" stroke="#000000" stroke-width="3.333"/>
  <path d="M37.839 697 L37.839 694 L47.839 694 L47.839 697 L37.839 697 Z"/>
  <path d="M50.432 698 L53.698 698 Q54.260 700.125 55.604 701.062 Q56.948 702 58.885 702 Q61.182 702 62.760 700.461 Q64.339 698.922 64.339 696.641 Q64.339 694.469 62.878 693.047 Q61.417 691.625 59.151 691.625 Q58.229 691.625 56.854 692 L57.214 689 Q57.542 689.031 57.745 689.031 Q59.823 689.031 61.479 688.016 Q63.135 687 63.135 684.875 Q63.135 683.203 61.924 682.102 Q60.714 681 58.792 681 Q56.901 681 55.635 682 Q54.370 683 54.010 685 L50.760 685 Q51.354 681.672 53.471 679.836 Q55.589 678 58.729 678 Q60.901 678 62.721 678.922 Q64.542 679.844 65.510 681.430 Q66.479 683.016 66.479 684.797 Q66.479 686.484 65.557 687.875 Q64.635 689.266 62.839 690.094 Q65.182 690.641 66.479 692.359 Q67.776 694.078 67.776 696.656 Q67.776 700.141 65.245 702.570 Q62.714 705 58.854 705 Q55.370 705 53.065 703.055 Q50.760 701.109 50.432 698 Z"/>
  <path d="M70.807 698 L74.229 698 Q74.604 700 75.987 701 Q77.370 702 79.323 702 Q81.667 702 83.292 700.297 Q84.917 698.594 84.917 695.781 Q84.917 693.094 83.354 691.547 Q81.792 690 79.260 690 Q77.698 690 76.432 690.555 Q75.167 691.109 74.448 692 L71.385 692 L73.948 678 L87.120 678 L87.120 681 L76.557 681 L75.135 688.734 Q77.526 687 80.135 687 Q83.604 687 85.987 689.398 Q88.370 691.797 88.370 695.578 Q88.370 699.172 86.276 701.781 Q83.729 705 79.323 705 Q75.698 705 73.417 703.086 Q71.135 701.172 70.807 698 Z"/>
  <path d="M93.026 705 L93.026 702 L96.729 702 L96.729 705 L93.026 705 Z"/>
  <path d="M101.385 691.516 Q101.385 686.812 102.354 683.961 Q103.323 681.109 105.229 679.555 Q107.135 678 110.026 678 Q112.167 678 113.768 678.859 Q115.370 679.719 116.424 681.328 Q117.479 682.938 118.073 685.258 Q118.667 687.578 118.667 691.516 Q118.667 696.156 117.706 699.016 Q116.745 701.875 114.839 703.438 Q112.932 705 110.026 705 Q106.198 705 104.010 702.266 Q101.385 698.953 101.385 691.516 Z M104.729 691.500 Q104.729 697.812 106.260 699.906 Q107.792 702 110.026 702 Q112.260 702 113.792 699.898 Q115.323 697.797 115.323 691.500 Q115.323 685.172 113.792 683.086 Q112.260 681 109.995 681 Q107.745 681 106.417 682.844 Q104.729 685.188 104.729 691.500 Z"/>
  <path d="M37.839 631.467 L37.839 628.467 L47.839 628.467 L47.839 631.467 L37.839 631.467 Z"/>
  <path d="M67.510 636.467 L67.510 639.467 L50.010 639.467 Q49.964 638.342 50.385 637.295 Q51.057 635.576 52.526 633.912 Q53.995 632.248 56.776 629.873 Q61.104 626.185 62.620 624.084 Q64.135 621.982 64.135 620.123 Q64.135 618.154 62.753 616.810 Q61.370 615.467 59.151 615.467 Q56.807 615.467 55.393 616.529 Q53.979 617.592 53.964 619.467 L50.620 619.467 Q50.964 616.045 53.206 614.256 Q55.448 612.467 59.214 612.467 Q63.042 612.467 65.260 614.639 Q67.479 616.810 67.479 620.029 Q67.479 621.670 66.831 623.248 Q66.182 624.826 64.667 626.576 Q63.151 628.326 59.651 631.310 Q56.729 633.795 55.901 634.685 Q55.073 635.576 54.526 636.467 L67.510 636.467 Z"/>
  <path d="M87.682 619.467 L84.448 619.467 Q84.010 617.639 83.214 616.795 Q81.901 615.467 79.964 615.467 Q78.417 615.467 77.245 616.232 Q75.714 617.232 74.823 619.146 Q73.932 621.060 73.901 624.998 Q75.073 623.201 76.768 622.334 Q78.464 621.467 80.339 621.467 Q83.589 621.467 85.870 623.912 Q88.151 626.357 88.151 630.232 Q88.151 632.779 87.073 634.959 Q85.995 637.139 84.120 638.303 Q82.245 639.467 79.854 639.467 Q75.792 639.467 73.229 636.482 Q70.667 633.498 70.667 626.639 Q70.667 618.982 73.510 615.498 Q75.979 612.467 80.167 612.467 Q83.292 612.467 85.292 614.326 Q87.292 616.185 87.682 619.467 Z M74.401 630.154 Q74.401 631.826 75.112 633.349 Q75.823 634.873 77.112 635.670 Q78.401 636.467 79.807 636.467 Q81.870 636.467 83.354 634.818 Q84.839 633.170 84.839 630.326 Q84.839 627.607 83.370 626.037 Q81.901 624.467 79.682 624.467 Q77.479 624.467 75.940 626.037 Q74.401 627.607 74.401 630.154 Z"/>
  <path d="M93.026 639.467 L93.026 636.467 L96.729 636.467 L96.729 639.467 L93.026 639.467 Z"/>
  <path d="M101.385 625.982 Q101.385 621.279 102.354 618.428 Q103.323 615.576 105.229 614.021 Q107.135 612.467 110.026 612.467 Q112.167 612.467 113.768 613.326 Q115.370 614.185 116.424 615.795 Q117.479 617.404 118.073 619.724 Q118.667 622.045 118.667 625.982 Q118.667 630.623 117.706 633.482 Q116.745 636.342 114.839 637.904 Q112.932 639.467 110.026 639.467 Q106.198 639.467 104.010 636.732 Q101.385 633.420 101.385 625.982 Z M104.729 625.967 Q104.729 632.279 106.260 634.373 Q107.792 636.467 110.026 636.467 Q112.260 636.467 113.792 634.365 Q115.323 632.264 115.323 625.967 Q115.323 619.639 113.792 617.553 Q112.260 615.467 109.995 615.467 Q107.745 615.467 106.417 617.310 Q104.729 619.654 104.729 625.967 Z"/>
  <path d="M37.839 565.933 L37.839 562.933 L47.839 562.933 L47.839 565.933 L37.839 565.933 Z"/>
  <path d="M62.667 573.933 L59.417 573.933 L59.417 552.902 Q58.245 554.043 56.339 555.176 Q54.432 556.308 52.917 556.871 L52.917 553.683 Q55.651 552.386 57.690 550.535 Q59.729 548.683 60.573 546.933 L62.667 546.933 L62.667 573.933 Z"/>
  <path d="M71.026 549.933 L71.026 546.933 L88.167 546.933 L88.167 549.355 Q85.651 552.121 83.167 556.777 Q80.682 561.433 79.323 566.340 Q78.339 569.808 78.073 573.933 L74.729 573.933 Q74.776 570.668 75.956 566.058 Q77.135 561.449 79.331 557.160 Q81.526 552.871 83.995 549.933 L71.026 549.933 Z"/>
  <path d="M93.026 573.933 L93.026 570.933 L96.729 570.933 L96.729 573.933 L93.026 573.933 Z"/>
  <path d="M101.385 560.449 Q101.385 555.746 102.354 552.894 Q103.323 550.043 105.229 548.488 Q107.135 546.933 110.026 546.933 Q112.167 546.933 113.768 547.793 Q115.370 548.652 116.424 550.261 Q117.479 551.871 118.073 554.191 Q118.667 556.511 118.667 560.449 Q118.667 565.090 117.706 567.949 Q116.745 570.808 114.839 572.371 Q112.932 573.933 110.026 573.933 Q106.198 573.933 104.010 571.199 Q101.385 567.886 101.385 560.449 Z M104.729 560.433 Q104.729 566.746 106.260 568.840 Q107.792 570.933 110.026 570.933 Q112.260 570.933 113.792 568.832 Q115.323 566.730 115.323 560.433 Q115.323 554.105 113.792 552.019 Q112.260 549.933 109.995 549.933 Q107.745 549.933 106.417 551.777 Q104.729 554.121 104.729 560.433 Z"/>
  <path d="M58.229 500.400 L58.229 497.400 L68.229 497.400 L68.229 500.400 L58.229 500.400 Z"/>
  <path d="M75.823 493.806 Q73.792 493.056 72.815 491.666 Q71.839 490.275 71.839 488.322 Q71.839 485.400 73.917 483.400 Q75.995 481.400 79.448 481.400 Q82.917 481.400 85.034 483.447 Q87.151 485.494 87.151 488.416 Q87.151 490.291 86.182 491.673 Q85.214 493.056 83.245 493.806 Q85.682 494.587 86.956 496.330 Q88.229 498.072 88.229 500.494 Q88.229 503.837 85.823 506.119 Q83.417 508.400 79.495 508.400 Q75.589 508.400 73.182 506.111 Q70.776 503.822 70.776 500.416 Q70.776 497.869 72.089 496.150 Q73.401 494.431 75.823 493.806 Z M75.167 488.291 Q75.167 490.103 76.378 491.252 Q77.589 492.400 79.526 492.400 Q81.401 492.400 82.604 491.259 Q83.807 490.119 83.807 488.462 Q83.807 486.744 82.573 485.572 Q81.339 484.400 79.495 484.400 Q77.620 484.400 76.393 485.548 Q75.167 486.697 75.167 488.291 Z M74.120 500.353 Q74.120 501.650 74.776 502.861 Q75.432 504.072 76.737 504.736 Q78.042 505.400 79.542 505.400 Q81.870 505.400 83.385 504.002 Q84.901 502.603 84.901 500.447 Q84.901 498.259 83.339 496.830 Q81.776 495.400 79.432 495.400 Q77.135 495.400 75.628 496.814 Q74.120 498.228 74.120 500.353 Z"/>
  <path d="M93.026 508.400 L93.026 505.400 L96.729 505.400 L96.729 508.400 L93.026 508.400 Z"/>
  <path d="M101.385 494.916 Q101.385 490.212 102.354 487.361 Q103.323 484.509 105.229 482.955 Q107.135 481.400 110.026 481.400 Q112.167 481.400 113.768 482.259 Q115.370 483.119 116.424 484.728 Q117.479 486.337 118.073 488.658 Q118.667 490.978 118.667 494.916 Q118.667 499.556 117.706 502.416 Q116.745 505.275 114.839 506.837 Q112.932 508.400 110.026 508.400 Q106.198 508.400 104.010 505.666 Q101.385 502.353 101.385 494.916 Z M104.729 494.900 Q104.729 501.212 106.260 503.306 Q107.792 505.400 110.026 505.400 Q112.260 505.400 113.792 503.298 Q115.323 501.197 115.323 494.900 Q115.323 488.572 113.792 486.486 Q112.260 484.400 109.995 484.400 Q107.745 484.400 106.417 486.244 Q104.729 488.587 104.729 494.900 Z"/>
  <path d="M83.057 442.867 L79.807 442.867 L79.807 421.835 Q78.635 422.976 76.729 424.109 Q74.823 425.242 73.307 425.804 L73.307 422.617 Q76.042 421.320 78.081 419.468 Q80.120 417.617 80.964 415.867 L83.057 415.867 L83.057 442.867 Z"/>
  <path d="M93.026 442.867 L93.026 439.867 L96.729 439.867 L96.729 442.867 L93.026 442.867 Z"/>
  <path d="M101.385 429.382 Q101.385 424.679 102.354 421.828 Q103.323 418.976 105.229 417.421 Q107.135 415.867 110.026 415.867 Q112.167 415.867 113.768 416.726 Q115.370 417.585 116.424 419.195 Q117.479 420.804 118.073 423.124 Q118.667 425.445 118.667 429.382 Q118.667 434.023 117.706 436.882 Q116.745 439.742 114.839 441.304 Q112.932 442.867 110.026 442.867 Q106.198 442.867 104.010 440.132 Q101.385 436.820 101.385 429.382 Z M104.729 429.367 Q104.729 435.679 106.260 437.773 Q107.792 439.867 110.026 439.867 Q112.260 439.867 113.792 437.765 Q115.323 435.664 115.323 429.367 Q115.323 423.039 113.792 420.953 Q112.260 418.867 109.995 418.867 Q107.745 418.867 106.417 420.710 Q104.729 423.054 104.729 429.367 Z"/>
  <path d="M62.667 377.333 L59.417 377.333 L59.417 356.302 Q58.245 357.443 56.339 358.576 Q54.432 359.708 52.917 360.271 L52.917 357.083 Q55.651 355.786 57.690 353.935 Q59.729 352.083 60.573 350.333 L62.667 350.333 L62.667 377.333 Z"/>
  <path d="M70.807 363.849 Q70.807 359.146 71.776 356.294 Q72.745 353.443 74.651 351.888 Q76.557 350.333 79.448 350.333 Q81.589 350.333 83.190 351.193 Q84.792 352.052 85.846 353.661 Q86.901 355.271 87.495 357.591 Q88.089 359.911 88.089 363.849 Q88.089 368.490 87.128 371.349 Q86.167 374.208 84.260 375.771 Q82.354 377.333 79.448 377.333 Q75.620 377.333 73.432 374.599 Q70.807 371.286 70.807 363.849 Z M74.151 363.833 Q74.151 370.146 75.682 372.240 Q77.214 374.333 79.448 374.333 Q81.682 374.333 83.214 372.232 Q84.745 370.130 84.745 363.833 Q84.745 357.505 83.214 355.419 Q81.682 353.333 79.417 353.333 Q77.167 353.333 75.839 355.177 Q74.151 357.521 74.151 363.833 Z"/>
  <path d="M93.026 377.333 L93.026 374.333 L96.729 374.333 L96.729 377.333 L93.026 377.333 Z"/>
  <path d="M101.385 363.849 Q101.385 359.146 102.354 356.294 Q103.323 353.443 105.229 351.888 Q107.135 350.333 110.026 350.333 Q112.167 350.333 113.768 351.193 Q115.370 352.052 116.424 353.661 Q117.479 355.271 118.073 357.591 Q118.667 359.911 118.667 363.849 Q118.667 368.490 117.706 371.349 Q116.745 374.208 114.839 375.771 Q112.932 377.333 110.026 377.333 Q106.198 377.333 104.010 374.599 Q101.385 371.286 101.385 363.849 Z M104.729 363.833 Q104.729 370.146 106.260 372.240 Q107.792 374.333 110.026 374.333 Q112.260 374.333 113.792 372.232 Q115.323 370.130 115.323 363.833 Q115.323 357.505 113.792 355.419 Q112.260 353.333 109.995 353.333 Q107.745 353.333 106.417 355.177 Q104.729 357.521 104.729 363.833 Z"/>
  <path d="M62.667 311.800 L59.417 311.800 L59.417 290.769 Q58.245 291.909 56.339 293.042 Q54.432 294.175 52.917 294.737 L52.917 291.550 Q55.651 290.253 57.690 288.402 Q59.729 286.550 60.573 284.800 L62.667 284.800 L62.667 311.800 Z"/>
  <path d="M71.307 304.800 L74.432 304.800 Q74.823 306.909 75.948 307.855 Q77.073 308.800 78.823 308.800 Q80.323 308.800 81.448 308.191 Q82.573 307.581 83.299 306.566 Q84.026 305.550 84.510 303.769 Q84.995 301.987 84.995 299.972 Q84.995 299.753 84.979 299.316 Q84.010 300.878 82.315 301.839 Q80.620 302.800 78.651 302.800 Q75.370 302.800 73.089 300.362 Q70.807 297.925 70.807 293.941 Q70.807 289.816 73.182 287.308 Q75.557 284.800 79.135 284.800 Q81.729 284.800 83.870 286.191 Q86.010 287.581 87.120 290.152 Q88.229 292.722 88.229 297.581 Q88.229 302.659 87.128 305.659 Q86.026 308.659 83.846 310.230 Q81.667 311.800 78.745 311.800 Q75.635 311.800 73.667 309.964 Q71.698 308.128 71.307 304.800 Z M84.620 293.862 Q84.620 291.081 83.128 289.441 Q81.635 287.800 79.542 287.800 Q77.370 287.800 75.760 289.566 Q74.151 291.331 74.151 294.128 Q74.151 296.659 75.682 298.230 Q77.214 299.800 79.448 299.800 Q81.714 299.800 83.167 298.230 Q84.620 296.659 84.620 293.862 Z"/>
  <path d="M93.026 311.800 L93.026 308.800 L96.729 308.800 L96.729 311.800 L93.026 311.800 Z"/>
  <path d="M101.385 298.316 Q101.385 293.612 102.354 290.761 Q103.323 287.909 105.229 286.355 Q107.135 284.800 110.026 284.800 Q112.167 284.800 113.768 285.659 Q115.370 286.519 116.424 288.128 Q117.479 289.737 118.073 292.058 Q118.667 294.378 118.667 298.316 Q118.667 302.956 117.706 305.816 Q116.745 308.675 114.839 310.237 Q112.932 311.800 110.026 311.800 Q106.198 311.800 104.010 309.066 Q101.385 305.753 101.385 298.316 Z M104.729 298.300 Q104.729 304.612 106.260 306.706 Q107.792 308.800 110.026 308.800 Q112.260 308.800 113.792 306.698 Q115.323 304.597 115.323 298.300 Q115.323 291.972 113.792 289.886 Q112.260 287.800 109.995 287.800 Q107.745 287.800 106.417 289.644 Q104.729 291.987 104.729 298.300 Z"/>
  <path d="M67.510 243.267 L67.510 246.267 L50.010 246.267 Q49.964 245.142 50.385 244.095 Q51.057 242.376 52.526 240.712 Q53.995 239.048 56.776 236.673 Q61.104 232.985 62.620 230.884 Q64.135 228.782 64.135 226.923 Q64.135 224.954 62.753 223.610 Q61.370 222.267 59.151 222.267 Q56.807 222.267 55.393 223.329 Q53.979 224.392 53.964 226.267 L50.620 226.267 Q50.964 222.845 53.206 221.056 Q55.448 219.267 59.214 219.267 Q63.042 219.267 65.260 221.439 Q67.479 223.610 67.479 226.829 Q67.479 228.470 66.831 230.048 Q66.182 231.626 64.667 233.376 Q63.151 235.126 59.651 238.110 Q56.729 240.595 55.901 241.485 Q55.073 242.376 54.526 243.267 L67.510 243.267 Z"/>
  <path d="M75.823 231.673 Q73.792 230.923 72.815 229.532 Q71.839 228.142 71.839 226.189 Q71.839 223.267 73.917 221.267 Q75.995 219.267 79.448 219.267 Q82.917 219.267 85.034 221.314 Q87.151 223.360 87.151 226.282 Q87.151 228.157 86.182 229.540 Q85.214 230.923 83.245 231.673 Q85.682 232.454 86.956 234.196 Q88.229 235.939 88.229 238.360 Q88.229 241.704 85.823 243.985 Q83.417 246.267 79.495 246.267 Q75.589 246.267 73.182 243.978 Q70.776 241.689 70.776 238.282 Q70.776 235.735 72.089 234.017 Q73.401 232.298 75.823 231.673 Z M75.167 226.157 Q75.167 227.970 76.378 229.118 Q77.589 230.267 79.526 230.267 Q81.401 230.267 82.604 229.126 Q83.807 227.985 83.807 226.329 Q83.807 224.610 82.573 223.439 Q81.339 222.267 79.495 222.267 Q77.620 222.267 76.393 223.415 Q75.167 224.564 75.167 226.157 Z M74.120 238.220 Q74.120 239.517 74.776 240.728 Q75.432 241.939 76.737 242.603 Q78.042 243.267 79.542 243.267 Q81.870 243.267 83.385 241.868 Q84.901 240.470 84.901 238.314 Q84.901 236.126 83.339 234.696 Q81.776 233.267 79.432 233.267 Q77.135 233.267 75.628 234.681 Q74.120 236.095 74.120 238.220 Z"/>
  <path d="M93.026 246.267 L93.026 243.267 L96.729 243.267 L96.729 246.267 L93.026 246.267 Z"/>
  <path d="M101.385 232.782 Q101.385 228.079 102.354 225.228 Q103.323 222.376 105.229 220.821 Q107.135 219.267 110.026 219.267 Q112.167 219.267 113.768 220.126 Q115.370 220.985 116.424 222.595 Q117.479 224.204 118.073 226.524 Q118.667 228.845 118.667 232.782 Q118.667 237.423 117.706 240.282 Q116.745 243.142 114.839 244.704 Q112.932 246.267 110.026 246.267 Q106.198 246.267 104.010 243.532 Q101.385 240.220 101.385 232.782 Z M104.729 232.767 Q104.729 239.079 106.260 241.173 Q107.792 243.267 110.026 243.267 Q112.260 243.267 113.792 241.165 Q115.323 239.064 115.323 232.767 Q115.323 226.439 113.792 224.353 Q112.260 222.267 109.995 222.267 Q107.745 222.267 106.417 224.110 Q104.729 226.454 104.729 232.767 Z"/>
  <path d="M50.432 173.733 L53.698 173.733 Q54.260 175.858 55.604 176.796 Q56.948 177.733 58.885 177.733 Q61.182 177.733 62.760 176.194 Q64.339 174.655 64.339 172.374 Q64.339 170.202 62.878 168.780 Q61.417 167.358 59.151 167.358 Q58.229 167.358 56.854 167.733 L57.214 164.733 Q57.542 164.765 57.745 164.765 Q59.823 164.765 61.479 163.749 Q63.135 162.733 63.135 160.608 Q63.135 158.936 61.924 157.835 Q60.714 156.733 58.792 156.733 Q56.901 156.733 55.635 157.733 Q54.370 158.733 54.010 160.733 L50.760 160.733 Q51.354 157.405 53.471 155.569 Q55.589 153.733 58.729 153.733 Q60.901 153.733 62.721 154.655 Q64.542 155.577 65.510 157.163 Q66.479 158.749 66.479 160.530 Q66.479 162.218 65.557 163.608 Q64.635 164.999 62.839 165.827 Q65.182 166.374 66.479 168.093 Q67.776 169.811 67.776 172.390 Q67.776 175.874 65.245 178.304 Q62.714 180.733 58.854 180.733 Q55.370 180.733 53.065 178.788 Q50.760 176.843 50.432 173.733 Z"/>
  <path d="M71.026 156.733 L71.026 153.733 L88.167 153.733 L88.167 156.155 Q85.651 158.921 83.167 163.577 Q80.682 168.233 79.323 173.140 Q78.339 176.608 78.073 180.733 L74.729 180.733 Q74.776 177.468 75.956 172.858 Q77.135 168.249 79.331 163.960 Q81.526 159.671 83.995 156.733 L71.026 156.733 Z"/>
  <path d="M93.026 180.733 L93.026 177.733 L96.729 177.733 L96.729 180.733 L93.026 180.733 Z"/>
  <path d="M101.385 167.249 Q101.385 162.546 102.354 159.694 Q103.323 156.843 105.229 155.288 Q107.135 153.733 110.026 153.733 Q112.167 153.733 113.768 154.593 Q115.370 155.452 116.424 157.061 Q117.479 158.671 118.073 160.991 Q118.667 163.311 118.667 167.249 Q118.667 171.890 117.706 174.749 Q116.745 177.608 114.839 179.171 Q112.932 180.733 110.026 180.733 Q106.198 180.733 104.010 177.999 Q101.385 174.686 101.385 167.249 Z M104.729 167.233 Q104.729 173.546 106.260 175.640 Q107.792 177.733 110.026 177.733 Q112.260 177.733 113.792 175.632 Q115.323 173.530 115.323 167.233 Q115.323 160.905 113.792 158.819 Q112.260 156.733 109.995 156.733 Q107.745 156.733 106.417 158.577 Q104.729 160.921 104.729 167.233 Z"/>
  <path d="M60.839 115.200 L60.839 109.200 L49.354 109.200 L49.354 106.200 L61.448 88.200 L64.104 88.200 L64.104 106.200 L67.682 106.200 L67.682 109.200 L64.104 109.200 L64.104 115.200 L60.839 115.200 Z M60.839 106.200 L60.839 93.872 L52.557 106.200 L60.839 106.200 Z"/>
  <path d="M87.682 95.200 L84.448 95.200 Q84.010 93.372 83.214 92.528 Q81.901 91.200 79.964 91.200 Q78.417 91.200 77.245 91.966 Q75.714 92.966 74.823 94.880 Q73.932 96.794 73.901 100.731 Q75.073 98.934 76.768 98.067 Q78.464 97.200 80.339 97.200 Q83.589 97.200 85.870 99.645 Q88.151 102.091 88.151 105.966 Q88.151 108.512 87.073 110.692 Q85.995 112.872 84.120 114.036 Q82.245 115.200 79.854 115.200 Q75.792 115.200 73.229 112.216 Q70.667 109.231 70.667 102.372 Q70.667 94.716 73.510 91.231 Q75.979 88.200 80.167 88.200 Q83.292 88.200 85.292 90.059 Q87.292 91.919 87.682 95.200 Z M74.401 105.887 Q74.401 107.559 75.112 109.083 Q75.823 110.606 77.112 111.403 Q78.401 112.200 79.807 112.200 Q81.870 112.200 83.354 110.552 Q84.839 108.903 84.839 106.059 Q84.839 103.341 83.370 101.770 Q81.901 100.200 79.682 100.200 Q77.479 100.200 75.940 101.770 Q74.401 103.341 74.401 105.887 Z"/>
  <path d="M93.026 115.200 L93.026 112.200 L96.729 112.200 L96.729 115.200 L93.026 115.200 Z"/>
  <path d="M101.385 101.716 Q101.385 97.012 102.354 94.161 Q103.323 91.309 105.229 89.755 Q107.135 88.200 110.026 88.200 Q112.167 88.200 113.768 89.059 Q115.370 89.919 116.424 91.528 Q117.479 93.137 118.073 95.458 Q118.667 97.778 118.667 101.716 Q118.667 106.356 117.706 109.216 Q116.745 112.075 114.839 113.637 Q112.932 115.200 110.026 115.200 Q106.198 115.200 104.010 112.466 Q101.385 109.153 101.385 101.716 Z M104.729 101.700 Q104.729 108.012 106.260 110.106 Q107.792 112.200 110.026 112.200 Q112.260 112.200 113.792 110.098 Q115.323 107.997 115.323 101.700 Q115.323 95.372 113.792 93.286 Q112.260 91.200 109.995 91.200 Q107.745 91.200 106.417 93.044 Q104.729 95.387 104.729 101.700 Z"/>
  <path d="M50.417 42.667 L53.839 42.667 Q54.214 44.667 55.596 45.667 Q56.979 46.667 58.932 46.667 Q61.276 46.667 62.901 44.964 Q64.526 43.260 64.526 40.448 Q64.526 37.760 62.964 36.214 Q61.401 34.667 58.870 34.667 Q57.307 34.667 56.042 35.221 Q54.776 35.776 54.057 36.667 L50.995 36.667 L53.557 22.667 L66.729 22.667 L66.729 25.667 L56.167 25.667 L54.745 33.401 Q57.135 31.667 59.745 31.667 Q63.214 31.667 65.596 34.065 Q67.979 36.464 67.979 40.245 Q67.979 43.839 65.885 46.448 Q63.339 49.667 58.932 49.667 Q55.307 49.667 53.026 47.753 Q50.745 45.839 50.417 42.667 Z"/>
  <path d="M70.807 42.667 L74.229 42.667 Q74.604 44.667 75.987 45.667 Q77.370 46.667 79.323 46.667 Q81.667 46.667 83.292 44.964 Q84.917 43.260 84.917 40.448 Q84.917 37.760 83.354 36.214 Q81.792 34.667 79.260 34.667 Q77.698 34.667 76.432 35.221 Q75.167 35.776 74.448 36.667 L71.385 36.667 L73.948 22.667 L87.120 22.667 L87.120 25.667 L76.557 25.667 L75.135 33.401 Q77.526 31.667 80.135 31.667 Q83.604 31.667 85.987 34.065 Q88.370 36.464 88.370 40.245 Q88.370 43.839 86.276 46.448 Q83.729 49.667 79.323 49.667 Q75.698 49.667 73.417 47.753 Q71.135 45.839 70.807 42.667 Z"/>
  <path d="M93.026 49.667 L93.026 46.667 L96.729 46.667 L96.729 49.667 L93.026 49.667 Z"/>
  <path d="M101.385 36.182 Q101.385 31.479 102.354 28.628 Q103.323 25.776 105.229 24.221 Q107.135 22.667 110.026 22.667 Q112.167 22.667 113.768 23.526 Q115.370 24.385 116.424 25.995 Q117.479 27.604 118.073 29.924 Q118.667 32.245 118.667 36.182 Q118.667 40.823 117.706 43.682 Q116.745 46.542 114.839 48.104 Q112.932 49.667 110.026 49.667 Q106.198 49.667 104.010 46.932 Q101.385 43.620 101.385 36.182 Z M104.729 36.167 Q104.729 42.479 106.260 44.573 Q107.792 46.667 110.026 46.667 Q112.260 46.667 113.792 44.565 Q115.323 42.464 115.323 36.167 Q115.323 29.839 113.792 27.753 Q112.260 25.667 109.995 25.667 Q107.745 25.667 106.417 27.510 Q104.729 29.854 104.729 36.167 Z"/>
  <path d="M259.093 189.578 L368.608 306.081 L916.183 466.274 L1299.486 298.800 L1354.243 619.185 L1463.758 604.622" fill="none" stroke="#89a54e" stroke-width="5"/>
  <path d="M259.093 194.578 C256.332 194.578 254.093 192.339 254.093 189.578 C254.093 186.816 256.332 184.578 259.093 184.578 C261.855 184.578 264.093 186.816 264.093 189.578 C264.093 192.339 261.855 194.578 259.093 194.578 Z" fill="#89a54e"/>
  <path d="M368.608 311.081 C365.847 311.081 363.608 308.843 363.608 306.081 C363.608 303.320 365.847 301.081 368.608 301.081 C371.370 301.081 373.608 303.320 373.608 306.081 C373.608 308.843 371.370 311.081 368.608 311.081 Z" fill="#89a54e"/>
  <path d="M916.183 471.274 C913.422 471.274 911.183 469.035 911.183 466.274 C911.183 463.513 913.422 461.274 916.183 461.274 C918.945 461.274 921.183 463.513 921.183 466.274 C921.183 469.035 918.945 471.274 916.183 471.274 Z" fill="#89a54e"/>
  <path d="M1299.486 303.800 C1296.724 303.800 1294.486 301.561 1294.486 298.800 C1294.486 296.039 1296.724 293.800 1299.486 293.800 C1302.247 293.800 1304.486 296.039 1304.486 298.800 C1304.486 301.561 1302.247 303.800 1299.486 303.800 Z" fill="#89a54e"/>
  <path d="M1354.243 624.185 C1351.482 624.185 1349.243 621.947 1349.243 619.185 C1349.243 616.424 1351.482 614.185 1354.243 614.185 C1357.005 614.185 1359.243 616.424 1359.243 619.185 C1359.243 621.947 1357.005 624.185 1354.243 624.185 Z" fill="#89a54e"/>
  <path d="M1463.758 609.622 C1460.997 609.622 1458.758 607.384 1458.758 604.622 C1458.758 601.861 1460.997 599.622 1463.758 599.622 C1466.520 599.622 1468.758 601.861 1468.758 604.622 C1468.758 607.384 1466.520 609.622 1463.758 609.622 Z" fill="#89a54e"/>
  <path d="M368.608 189.578 L916.183 568.215 L1463.758 124.044 L1573.273 575.496 L1737.546 255.111 L1901.818 196.859" fill="none" stroke="#3d96ae" stroke-width="5"/>
  <path d="M368.608 194.578 C365.847 194.578 363.608 192.339 363.608 189.578 C363.608 186.816 365.847 184.578 368.608 184.578 C371.370 184.578 373.608 186.816 373.608 189.578 C373.608 192.339 371.370 194.578 368.608 194.578 Z" fill="#3d96ae"/>
  <path d="M916.183 573.215 C913.422 573.215 911.183 570.976 911.183 568.215 C911.183 565.453 913.422 563.215 916.183 563.215 C918.945 563.215 921.183 565.453 921.183 568.215 C921.183 570.976 918.945 573.215 916.183 573.215 Z" fill="#3d96ae"/>
  <path d="M1463.758 129.044 C1460.997 129.044 1458.758 126.806 1458.758 124.044 C1458.758 121.283 1460.997 119.044 1463.758 119.044 C1466.520 119.044 1468.758 121.283 1468.758 124.044 C1468.758 126.806 1466.520 129.044 1463.758 129.044 Z" fill="#3d96ae"/>
  <path d="M1573.273 580.496 C1570.512 580.496 1568.273 578.258 1568.273 575.496 C1568.273 572.735 1570.512 570.496 1573.273 570.496 C1576.035 570.496 1578.273 572.735 1578.273 575.496 C1578.273 578.258 1576.035 580.496 1573.273 580.496 Z" fill="#3d96ae"/>
  <path d="M1737.546 260.111 C1734.784 260.111 1732.546 257.873 1732.546 255.111 C1732.546 252.350 1734.784 250.111 1737.546 250.111 C1740.307 250.111 1742.546 252.350 1742.546 255.111 C1742.546 257.873 1740.307 260.111 1737.546 260.111 Z" fill="#3d96ae"/>
  <path d="M1901.818 201.859 C1899.057 201.859 1896.818 199.621 1896.818 196.859 C1896.818 194.098 1899.057 191.859 1901.818 191.859 C1904.580 191.859 1906.818 194.098 1906.818 196.859 C1906.818 199.621 1904.580 201.859 1901.818 201.859 Z" fill="#3d96ae"/>
  <path d="M171.578 670 L171.578 531 L423.823 531 L423.823 670 Z" fill="#ffffff"/>
  <path d="M250.234 578 L253.547 578 Q253.781 579.953 254.641 581.203 Q255.500 582.453 257.305 583.227 Q259.109 584 261.375 584 Q263.375 584 264.914 583.414 Q266.453 582.828 267.203 581.805 Q267.953 580.781 267.953 579.562 Q267.953 578.312 267.227 577.383 Q266.500 576.453 264.828 575.828 Q263.766 575.406 260.117 574.539 Q256.469 573.672 255 572.906 Q253.109 571.922 252.180 570.469 Q251.250 569.016 251.250 567.203 Q251.250 565.234 252.391 563.508 Q253.531 561.781 255.719 560.891 Q257.906 560 260.578 560 Q263.516 560 265.766 560.961 Q268.016 561.922 269.227 563.781 Q270.438 565.641 270.531 568 L267.172 568 Q266.906 565.531 265.336 564.266 Q263.766 563 260.719 563 Q257.531 563 256.078 564.156 Q254.625 565.312 254.625 566.938 Q254.625 568.359 255.656 569.266 Q256.672 570.188 260.945 571.148 Q265.219 572.109 266.812 572.828 Q269.125 573.875 270.227 575.484 Q271.328 577.094 271.328 579.188 Q271.328 581.266 270.117 583.109 Q268.906 584.953 266.641 585.977 Q264.375 587 261.531 587 Q257.938 587 255.508 585.945 Q253.078 584.891 251.695 582.781 Q250.312 580.672 250.234 578 Z"/>
  <path d="M288.609 581 L291.969 581 Q291.172 583.844 289.023 585.422 Q286.875 587 283.531 587 Q279.328 587 276.859 584.414 Q274.391 581.828 274.391 577.156 Q274.391 572.328 276.883 569.664 Q279.375 567 283.359 567 Q287.203 567 289.641 569.656 Q292.078 572.312 292.078 577.125 Q292.078 577.422 292.062 578 L277.750 578 Q277.938 580.906 279.539 582.453 Q281.141 584 283.547 584 Q285.344 584 286.609 583.281 Q287.875 582.562 288.609 581 Z M277.922 575 L288.641 575 Q288.422 572.797 287.406 571.703 Q285.859 570 283.375 570 Q281.141 570 279.609 571.359 Q278.078 572.719 277.922 575 Z"/>
  <path d="M295.828 587 L295.828 567 L298.750 567 L298.750 569.984 Q299.875 568.156 300.820 567.578 Q301.766 567 302.906 567 Q304.547 567 306.250 567.625 L305.125 570.641 Q303.938 570 302.750 570 Q301.688 570 300.836 570.672 Q299.984 571.344 299.625 572.531 Q299.078 574.344 299.078 576.500 L299.078 587 L295.828 587 Z"/>
  <path d="M308.094 563 L308.094 560 L311.344 560 L311.344 563 L308.094 563 Z M308.094 587 L308.094 567 L311.344 567 L311.344 587 L308.094 587 Z"/>
  <path d="M329.359 581 L332.719 581 Q331.922 583.844 329.773 585.422 Q327.625 587 324.281 587 Q320.078 587 317.609 584.414 Q315.141 581.828 315.141 577.156 Q315.141 572.328 317.633 569.664 Q320.125 567 324.109 567 Q327.953 567 330.391 569.656 Q332.828 572.312 332.828 577.125 Q332.828 577.422 332.812 578 L318.500 578 Q318.688 580.906 320.289 582.453 Q321.891 584 324.297 584 Q326.094 584 327.359 583.281 Q328.625 582.562 329.359 581 Z M318.672 575 L329.391 575 Q329.172 572.797 328.156 571.703 Q326.609 570 324.125 570 Q321.891 570 320.359 571.359 Q318.828 572.719 318.672 575 Z"/>
  <path d="M335.312 580 L338.531 580 Q338.797 581.938 340.039 582.969 Q341.281 584 343.500 584 Q345.734 584 346.820 583.164 Q347.906 582.328 347.906 581.219 Q347.906 580.203 346.953 579.625 Q346.281 579.234 343.625 578.625 Q340.047 577.719 338.664 577.047 Q337.281 576.375 336.570 575.195 Q335.859 574.016 335.859 572.594 Q335.859 571.297 336.445 570.188 Q337.031 569.078 338.047 568.359 Q338.797 567.781 340.109 567.391 Q341.422 567 342.922 567 Q345.172 567 346.875 567.727 Q348.578 568.453 349.391 569.688 Q350.203 570.922 350.516 573 L347.344 573 Q347.125 571.594 346.086 570.797 Q345.047 570 343.156 570 Q340.922 570 339.961 570.672 Q339 571.344 339 572.250 Q339 572.812 339.391 573.281 Q339.797 573.750 340.641 574.062 Q341.125 574.219 343.516 574.812 Q346.969 575.750 348.336 576.336 Q349.703 576.922 350.477 578.055 Q351.250 579.188 351.250 580.875 Q351.250 582.516 350.305 583.961 Q349.359 585.406 347.570 586.203 Q345.781 587 343.516 587 Q339.781 587 337.820 585.234 Q335.859 583.469 335.312 580 Z"/>
  <path d=""/>
  <path d="M361.641 587 L371.812 560 L375.578 560 L386.422 587 L382.422 587 L379.344 579 L368.266 579 L365.359 587 L361.641 587 Z M369.281 576 L378.250 576 L375.484 568.703 Q374.219 565.359 373.609 563 Q373.109 565.703 372.188 568.234 L369.281 576 Z"/>
  <path d="M213.745 587.750 C206.151 587.750 199.995 581.594 199.995 574 C199.995 566.406 206.151 560.250 213.745 560.250 C221.339 560.250 227.495 566.406 227.495 574 C227.495 581.594 221.339 587.750 213.745 587.750 Z" fill="#89a54e"/>
  <path d="M250.234 631 L253.547 631 Q253.781 632.953 254.641 634.203 Q255.500 635.453 257.305 636.227 Q259.109 637 261.375 637 Q263.375 637 264.914 636.414 Q266.453 635.828 267.203 634.805 Q267.953 633.781 267.953 632.562 Q267.953 631.312 267.227 630.383 Q266.500 629.453 264.828 628.828 Q263.766 628.406 260.117 627.539 Q256.469 626.672 255 625.906 Q253.109 624.922 252.180 623.469 Q251.250 622.016 251.250 620.203 Q251.250 618.234 252.391 616.508 Q253.531 614.781 255.719 613.891 Q257.906 613 260.578 613 Q263.516 613 265.766 613.961 Q268.016 614.922 269.227 616.781 Q270.438 618.641 270.531 621 L267.172 621 Q266.906 618.531 265.336 617.266 Q263.766 616 260.719 616 Q257.531 616 256.078 617.156 Q254.625 618.312 254.625 619.938 Q254.625 621.359 255.656 622.266 Q256.672 623.188 260.945 624.148 Q265.219 625.109 266.812 625.828 Q269.125 626.875 270.227 628.484 Q271.328 630.094 271.328 632.188 Q271.328 634.266 270.117 636.109 Q268.906 637.953 266.641 638.977 Q264.375 640 261.531 640 Q257.938 640 255.508 638.945 Q253.078 637.891 251.695 635.781 Q250.312 633.672 250.234 631 Z"/>
  <path d="M288.609 634 L291.969 634 Q291.172 636.844 289.023 638.422 Q286.875 640 283.531 640 Q279.328 640 276.859 637.414 Q274.391 634.828 274.391 630.156 Q274.391 625.328 276.883 622.664 Q279.375 620 283.359 620 Q287.203 620 289.641 622.656 Q292.078 625.312 292.078 630.125 Q292.078 630.422 292.062 631 L277.750 631 Q277.938 633.906 279.539 635.453 Q281.141 637 283.547 637 Q285.344 637 286.609 636.281 Q287.875 635.562 288.609 634 Z M277.922 628 L288.641 628 Q288.422 625.797 287.406 624.703 Q285.859 623 283.375 623 Q281.141 623 279.609 624.359 Q278.078 625.719 277.922 628 Z"/>
  <path d="M295.828 640 L295.828 620 L298.750 620 L298.750 622.984 Q299.875 621.156 300.820 620.578 Q301.766 620 302.906 620 Q304.547 620 306.250 620.625 L305.125 623.641 Q303.938 623 302.750 623 Q301.688 623 300.836 623.672 Q299.984 624.344 299.625 625.531 Q299.078 627.344 299.078 629.500 L299.078 640 L295.828 640 Z"/>
  <path d="M308.094 616 L308.094 613 L311.344 613 L311.344 616 L308.094 616 Z M308.094 640 L308.094 620 L311.344 620 L311.344 640 L308.094 640 Z"/>
  <path d="M329.359 634 L332.719 634 Q331.922 636.844 329.773 638.422 Q327.625 640 324.281 640 Q320.078 640 317.609 637.414 Q315.141 634.828 315.141 630.156 Q315.141 625.328 317.633 622.664 Q320.125 620 324.109 620 Q327.953 620 330.391 622.656 Q332.828 625.312 332.828 630.125 Q332.828 630.422 332.812 631 L318.500 631 Q318.688 633.906 320.289 635.453 Q321.891 637 324.297 637 Q326.094 637 327.359 636.281 Q328.625 635.562 329.359 634 Z M318.672 628 L329.391 628 Q329.172 625.797 328.156 624.703 Q326.609 623 324.125 623 Q321.891 623 320.359 624.359 Q318.828 625.719 318.672 628 Z"/>
  <path d="M335.312 633 L338.531 633 Q338.797 634.938 340.039 635.969 Q341.281 637 343.500 637 Q345.734 637 346.820 636.164 Q347.906 635.328 347.906 634.219 Q347.906 633.203 346.953 632.625 Q346.281 632.234 343.625 631.625 Q340.047 630.719 338.664 630.047 Q337.281 629.375 336.570 628.195 Q335.859 627.016 335.859 625.594 Q335.859 624.297 336.445 623.188 Q337.031 622.078 338.047 621.359 Q338.797 620.781 340.109 620.391 Q341.422 620 342.922 620 Q345.172 620 346.875 620.727 Q348.578 621.453 349.391 622.688 Q350.203 623.922 350.516 626 L347.344 626 Q347.125 624.594 346.086 623.797 Q345.047 623 343.156 623 Q340.922 623 339.961 623.672 Q339 624.344 339 625.250 Q339 625.812 339.391 626.281 Q339.797 626.750 340.641 627.062 Q341.125 627.219 343.516 627.812 Q346.969 628.750 348.336 629.336 Q349.703 629.922 350.477 631.055 Q351.250 632.188 351.250 633.875 Q351.250 635.516 350.305 636.961 Q349.359 638.406 347.570 639.203 Q345.781 640 343.516 640 Q339.781 640 337.820 638.234 Q335.859 636.469 335.312 633 Z"/>
  <path d=""/>
  <path d="M365.406 640 L365.406 613 L375.344 613 Q378.375 613 380.211 613.844 Q382.047 614.688 383.086 616.438 Q384.125 618.188 384.125 620.109 Q384.125 621.891 383.203 623.461 Q382.281 625.031 380.422 626 Q382.828 626.703 384.117 628.391 Q385.406 630.078 385.406 632.375 Q385.406 634.219 384.617 635.805 Q383.828 637.391 382.672 638.258 Q381.516 639.125 379.773 639.562 Q378.031 640 375.500 640 L365.406 640 Z M368.922 625 L374.656 625 Q376.984 625 377.984 624.656 Q379.328 624.203 380 623.164 Q380.672 622.125 380.672 620.562 Q380.672 619.094 380.039 617.961 Q379.406 616.828 378.234 616.414 Q377.062 616 374.203 616 L368.922 616 L368.922 625 Z M368.922 637 L375.516 637 Q377.219 637 377.891 636.875 Q379.109 636.656 379.922 636.156 Q380.734 635.656 381.258 634.703 Q381.781 633.750 381.781 632.500 Q381.781 631.031 381.023 629.953 Q380.266 628.875 378.922 628.438 Q377.578 628 375.047 628 L368.922 628 L368.922 637 Z"/>
  <path d="M213.745 640.750 C206.151 640.750 199.995 634.594 199.995 627 C199.995 619.406 206.151 613.250 213.745 613.250 C221.339 613.250 227.495 619.406 227.495 627 C227.495 634.594 221.339 640.750 213.745 640.750 Z" fill="#3d96ae"/>
</svg>
