<?xml version="1.0" encoding="UTF-8" ?>
<!-- Generated by clip v0.7.0 (clip-lang.org) -->
<svg xmlns="http://www.w3.org/2000/svg" width="2048.000000" height="800.000000">
  <rect width="2048.000000" height="800.000000" fill="#ffffff" fill-opacity="1.000000"/>
  <path d="M149.578 692 L2011.33 692 " fill="none" stroke-width="3.333333" stroke="#000000ff"/>
  <path d="M149.578 692 L149.578 678.667 " fill="none" stroke-width="3.333333" stroke="#000000ff"/>
  <path d="M335.754 692 L335.754 678.667 " fill="none" stroke-width="3.333333" stroke="#000000ff"/>
  <path d="M521.929 692 L521.929 678.667 " fill="none" stroke-width="3.333333" stroke="#000000ff"/>
  <path d="M708.105 692 L708.105 678.667 " fill="none" stroke-width="3.333333" stroke="#000000ff"/>
  <path d="M894.28 692 L894.28 678.667 " fill="none" stroke-width="3.333333" stroke="#000000ff"/>
  <path d="M1080.46 692 L1080.46 678.667 " fill="none" stroke-width="3.333333" stroke="#000000ff"/>
  <path d="M1266.63 692 L1266.63 678.667 " fill="none" stroke-width="3.333333" stroke="#000000ff"/>
  <path d="M1452.81 692 L1452.81 678.667 " fill="none" stroke-width="3.333333" stroke="#000000ff"/>
  <path d="M1638.98 692 L1638.98 678.667 " fill="none" stroke-width="3.333333" stroke="#000000ff"/>
  <path d="M1825.16 692 L1825.16 678.667 " fill="none" stroke-width="3.333333" stroke="#000000ff"/>
  <path d="M2011.33 692 L2011.33 678.667 " fill="none" stroke-width="3.333333" stroke="#000000ff"/>
  <path d="M108.961 747.333 L108.961 744.333 L118.961 744.333 L118.961 747.333 L108.961 747.333 Z" fill="#000000" fill-opacity="1.000000"/>
  <path d="M133.789 755.333 L130.539 755.333 L130.539 734.302 Q129.367 735.443 127.461 736.576 Q125.555 737.708 124.039 738.271 L124.039 735.083 Q126.773 733.786 128.812 731.935 Q130.852 730.083 131.695 728.333 L133.789 728.333 L133.789 755.333 Z" fill="#000000" fill-opacity="1.000000"/>
  <path d="M159.023 752.333 L159.023 755.333 L141.523 755.333 Q141.477 754.208 141.898 753.161 Q142.57 751.443 144.039 749.779 Q145.508 748.115 148.289 745.74 Q152.617 742.052 154.133 739.951 Q155.648 737.849 155.648 735.99 Q155.648 734.021 154.266 732.677 Q152.883 731.333 150.664 731.333 Q148.32 731.333 146.906 732.396 Q145.492 733.458 145.477 735.333 L142.133 735.333 Q142.477 731.911 144.719 730.122 Q146.961 728.333 150.727 728.333 Q154.555 728.333 156.773 730.505 Q158.992 732.677 158.992 735.896 Q158.992 737.536 158.344 739.115 Q157.695 740.693 156.18 742.443 Q154.664 744.193 151.164 747.177 Q148.242 749.661 147.414 750.552 Q146.586 751.443 146.039 752.333 L159.023 752.333 Z" fill="#000000" fill-opacity="1.000000"/>
  <path d="M164.148 755.333 L164.148 752.333 L167.852 752.333 L167.852 755.333 L164.148 755.333 Z" fill="#000000" fill-opacity="1.000000"/>
  <path d="M172.508 741.849 Q172.508 737.146 173.477 734.294 Q174.445 731.443 176.352 729.888 Q178.258 728.333 181.148 728.333 Q183.289 728.333 184.891 729.193 Q186.492 730.052 187.547 731.661 Q188.602 733.271 189.195 735.591 Q189.789 737.911 189.789 741.849 Q189.789 746.49 188.828 749.349 Q187.867 752.208 185.961 753.771 Q184.055 755.333 181.148 755.333 Q177.32 755.333 175.133 752.599 Q172.508 749.286 172.508 741.849 ZM175.852 741.833 Q175.852 748.146 177.383 750.24 Q178.914 752.333 181.148 752.333 Q183.383 752.333 184.914 750.232 Q186.445 748.13 186.445 741.833 Q186.445 735.505 184.914 733.419 Q183.383 731.333 181.117 731.333 Q178.867 731.333 177.539 733.177 Q175.852 735.521 175.852 741.833 Z" fill="#000000" fill-opacity="1.000000"/>
  <path d="M305.332 747.333 L305.332 744.333 L315.332 744.333 L315.332 747.333 L305.332 747.333 Z" fill="#000000" fill-opacity="1.000000"/>
  <path d="M322.926 740.74 Q320.894 739.99 319.918 738.599 Q318.941 737.208 318.941 735.255 Q318.941 732.333 321.019 730.333 Q323.097 728.333 326.551 728.333 Q330.019 728.333 332.136 730.38 Q334.254 732.427 334.254 735.349 Q334.254 737.224 333.285 738.607 Q332.316 739.99 330.347 740.74 Q332.785 741.521 334.058 743.263 Q335.332 745.005 335.332 747.427 Q335.332 750.771 332.926 753.052 Q330.519 755.333 326.597 755.333 Q322.691 755.333 320.285 753.044 Q317.879 750.755 317.879 747.349 Q317.879 744.802 319.191 743.083 Q320.504 741.365 322.926 740.74 ZM322.269 735.224 Q322.269 737.036 323.48 738.185 Q324.691 739.333 326.629 739.333 Q328.504 739.333 329.707 738.193 Q330.91 737.052 330.91 735.396 Q330.91 733.677 329.676 732.505 Q328.441 731.333 326.597 731.333 Q324.722 731.333 323.496 732.482 Q322.269 733.63 322.269 735.224 ZM321.222 747.286 Q321.222 748.583 321.879 749.794 Q322.535 751.005 323.84 751.669 Q325.144 752.333 326.644 752.333 Q328.972 752.333 330.488 750.935 Q332.004 749.536 332.004 747.38 Q332.004 745.193 330.441 743.763 Q328.879 742.333 326.535 742.333 Q324.238 742.333 322.73 743.747 Q321.222 745.161 321.222 747.286 Z" fill="#000000" fill-opacity="1.000000"/>
  <path d="M340.129 755.333 L340.129 752.333 L343.832 752.333 L343.832 755.333 L340.129 755.333 Z" fill="#000000" fill-opacity="1.000000"/>
  <path d="M365.363 735.333 L362.129 735.333 Q361.691 733.505 360.894 732.661 Q359.582 731.333 357.644 731.333 Q356.097 731.333 354.926 732.099 Q353.394 733.099 352.504 735.013 Q351.613 736.927 351.582 740.865 Q352.754 739.068 354.449 738.201 Q356.144 737.333 358.019 737.333 Q361.269 737.333 363.551 739.779 Q365.832 742.224 365.832 746.099 Q365.832 748.646 364.754 750.826 Q363.676 753.005 361.801 754.169 Q359.926 755.333 357.535 755.333 Q353.472 755.333 350.91 752.349 Q348.347 749.365 348.347 742.505 Q348.347 734.849 351.191 731.365 Q353.66 728.333 357.847 728.333 Q360.972 728.333 362.972 730.193 Q364.972 732.052 365.363 735.333 ZM352.082 746.021 Q352.082 747.693 352.793 749.216 Q353.504 750.74 354.793 751.536 Q356.082 752.333 357.488 752.333 Q359.551 752.333 361.035 750.685 Q362.519 749.036 362.519 746.193 Q362.519 743.474 361.051 741.904 Q359.582 740.333 357.363 740.333 Q355.16 740.333 353.621 741.904 Q352.082 743.474 352.082 746.021 Z" fill="#000000" fill-opacity="1.000000"/>
  <path d="M491.507 747.333 L491.507 744.333 L501.507 744.333 L501.507 747.333 L491.507 747.333 Z" fill="#000000" fill-opacity="1.000000"/>
  <path d="M504.085 748.333 L507.507 748.333 Q507.882 750.333 509.265 751.333 Q510.648 752.333 512.601 752.333 Q514.945 752.333 516.57 750.63 Q518.195 748.927 518.195 746.115 Q518.195 743.427 516.632 741.88 Q515.07 740.333 512.539 740.333 Q510.976 740.333 509.71 740.888 Q508.445 741.443 507.726 742.333 L504.664 742.333 L507.226 728.333 L520.398 728.333 L520.398 731.333 L509.835 731.333 L508.414 739.068 Q510.804 737.333 513.414 737.333 Q516.882 737.333 519.265 739.732 Q521.648 742.13 521.648 745.911 Q521.648 749.505 519.554 752.115 Q517.007 755.333 512.601 755.333 Q508.976 755.333 506.695 753.419 Q504.414 751.505 504.085 748.333 Z" fill="#000000" fill-opacity="1.000000"/>
  <path d="M526.304 755.333 L526.304 752.333 L530.007 752.333 L530.007 755.333 L526.304 755.333 Z" fill="#000000" fill-opacity="1.000000"/>
  <path d="M551.757 752.333 L551.757 755.333 L534.257 755.333 Q534.21 754.208 534.632 753.161 Q535.304 751.443 536.773 749.779 Q538.242 748.115 541.023 745.74 Q545.351 742.052 546.867 739.951 Q548.382 737.849 548.382 735.99 Q548.382 734.021 546.999 732.677 Q545.617 731.333 543.398 731.333 Q541.054 731.333 539.64 732.396 Q538.226 733.458 538.21 735.333 L534.867 735.333 Q535.21 731.911 537.453 730.122 Q539.695 728.333 543.46 728.333 Q547.289 728.333 549.507 730.505 Q551.726 732.677 551.726 735.896 Q551.726 737.536 551.078 739.115 Q550.429 740.693 548.914 742.443 Q547.398 744.193 543.898 747.177 Q540.976 749.661 540.148 750.552 Q539.32 751.443 538.773 752.333 L551.757 752.333 Z" fill="#000000" fill-opacity="1.000000"/>
  <path d="M677.683 747.333 L677.683 744.333 L687.683 744.333 L687.683 747.333 L677.683 747.333 Z" fill="#000000" fill-opacity="1.000000"/>
  <path d="M702.511 755.333 L699.261 755.333 L699.261 734.302 Q698.089 735.443 696.183 736.576 Q694.277 737.708 692.761 738.271 L692.761 735.083 Q695.495 733.786 697.534 731.935 Q699.573 730.083 700.417 728.333 L702.511 728.333 L702.511 755.333 Z" fill="#000000" fill-opacity="1.000000"/>
  <path d="M712.48 755.333 L712.48 752.333 L716.183 752.333 L716.183 755.333 L712.48 755.333 Z" fill="#000000" fill-opacity="1.000000"/>
  <path d="M725.855 740.74 Q723.823 739.99 722.847 738.599 Q721.87 737.208 721.87 735.255 Q721.87 732.333 723.948 730.333 Q726.027 728.333 729.48 728.333 Q732.948 728.333 735.066 730.38 Q737.183 732.427 737.183 735.349 Q737.183 737.224 736.214 738.607 Q735.245 739.99 733.277 740.74 Q735.714 741.521 736.988 743.263 Q738.261 745.005 738.261 747.427 Q738.261 750.771 735.855 753.052 Q733.448 755.333 729.527 755.333 Q725.62 755.333 723.214 753.044 Q720.808 750.755 720.808 747.349 Q720.808 744.802 722.12 743.083 Q723.433 741.365 725.855 740.74 ZM725.198 735.224 Q725.198 737.036 726.409 738.185 Q727.62 739.333 729.558 739.333 Q731.433 739.333 732.636 738.193 Q733.839 737.052 733.839 735.396 Q733.839 733.677 732.605 732.505 Q731.37 731.333 729.527 731.333 Q727.652 731.333 726.425 732.482 Q725.198 733.63 725.198 735.224 ZM724.152 747.286 Q724.152 748.583 724.808 749.794 Q725.464 751.005 726.769 751.669 Q728.073 752.333 729.573 752.333 Q731.902 752.333 733.417 750.935 Q734.933 749.536 734.933 747.38 Q734.933 745.193 733.37 743.763 Q731.808 742.333 729.464 742.333 Q727.167 742.333 725.659 743.747 Q724.152 745.161 724.152 747.286 Z" fill="#000000" fill-opacity="1.000000"/>
  <path d="M882.577 755.333 L879.327 755.333 L879.327 734.302 Q878.155 735.443 876.249 736.576 Q874.343 737.708 872.827 738.271 L872.827 735.083 Q875.561 733.786 877.601 731.935 Q879.64 730.083 880.483 728.333 L882.577 728.333 L882.577 755.333 Z" fill="#000000" fill-opacity="1.000000"/>
  <path d="M892.546 755.333 L892.546 752.333 L896.249 752.333 L896.249 755.333 L892.546 755.333 Z" fill="#000000" fill-opacity="1.000000"/>
  <path d="M917.78 735.333 L914.546 735.333 Q914.108 733.505 913.311 732.661 Q911.999 731.333 910.061 731.333 Q908.515 731.333 907.343 732.099 Q905.811 733.099 904.921 735.013 Q904.03 736.927 903.999 740.865 Q905.171 739.068 906.866 738.201 Q908.561 737.333 910.436 737.333 Q913.686 737.333 915.968 739.779 Q918.249 742.224 918.249 746.099 Q918.249 748.646 917.171 750.826 Q916.093 753.005 914.218 754.169 Q912.343 755.333 909.952 755.333 Q905.89 755.333 903.327 752.349 Q900.765 749.365 900.765 742.505 Q900.765 734.849 903.608 731.365 Q906.077 728.333 910.265 728.333 Q913.39 728.333 915.39 730.193 Q917.39 732.052 917.78 735.333 ZM904.499 746.021 Q904.499 747.693 905.21 749.216 Q905.921 750.74 907.21 751.536 Q908.499 752.333 909.905 752.333 Q911.968 752.333 913.452 750.685 Q914.936 749.036 914.936 746.193 Q914.936 743.474 913.468 741.904 Q911.999 740.333 909.78 740.333 Q907.577 740.333 906.038 741.904 Q904.499 743.474 904.499 746.021 Z" fill="#000000" fill-opacity="1.000000"/>
  <path d="M1056.5 748.333 L1059.92 748.333 Q1060.3 750.333 1061.68 751.333 Q1063.07 752.333 1065.02 752.333 Q1067.36 752.333 1068.99 750.63 Q1070.61 748.927 1070.61 746.115 Q1070.61 743.427 1069.05 741.88 Q1067.49 740.333 1064.96 740.333 Q1063.39 740.333 1062.13 740.888 Q1060.86 741.443 1060.14 742.333 L1057.08 742.333 L1059.64 728.333 L1072.82 728.333 L1072.82 731.333 L1062.25 731.333 L1060.83 739.068 Q1063.22 737.333 1065.83 737.333 Q1069.3 737.333 1071.68 739.732 Q1074.07 742.13 1074.07 745.911 Q1074.07 749.505 1071.97 752.115 Q1069.42 755.333 1065.02 755.333 Q1061.39 755.333 1059.11 753.419 Q1056.83 751.505 1056.5 748.333 Z" fill="#000000" fill-opacity="1.000000"/>
  <path d="M1078.72 755.333 L1078.72 752.333 L1082.42 752.333 L1082.42 755.333 L1078.72 755.333 Z" fill="#000000" fill-opacity="1.000000"/>
  <path d="M1087.08 741.849 Q1087.08 737.146 1088.05 734.294 Q1089.02 731.443 1090.92 729.888 Q1092.83 728.333 1095.72 728.333 Q1097.86 728.333 1099.46 729.193 Q1101.07 730.052 1102.12 731.661 Q1103.17 733.271 1103.77 735.591 Q1104.36 737.911 1104.36 741.849 Q1104.36 746.49 1103.4 749.349 Q1102.44 752.208 1100.53 753.771 Q1098.63 755.333 1095.72 755.333 Q1091.89 755.333 1089.71 752.599 Q1087.08 749.286 1087.08 741.849 ZM1090.42 741.833 Q1090.42 748.146 1091.96 750.24 Q1093.49 752.333 1095.72 752.333 Q1097.96 752.333 1099.49 750.232 Q1101.02 748.13 1101.02 741.833 Q1101.02 735.505 1099.49 733.419 Q1097.96 731.333 1095.69 731.333 Q1093.44 731.333 1092.11 733.177 Q1090.42 735.521 1090.42 741.833 Z" fill="#000000" fill-opacity="1.000000"/>
  <path d="M1247.69 740.74 Q1245.66 739.99 1244.69 738.599 Q1243.71 737.208 1243.71 735.255 Q1243.71 732.333 1245.79 730.333 Q1247.87 728.333 1251.32 728.333 Q1254.79 728.333 1256.9 730.38 Q1259.02 732.427 1259.02 735.349 Q1259.02 737.224 1258.05 738.607 Q1257.08 739.99 1255.12 740.74 Q1257.55 741.521 1258.83 743.263 Q1260.1 745.005 1260.1 747.427 Q1260.1 750.771 1257.69 753.052 Q1255.29 755.333 1251.37 755.333 Q1247.46 755.333 1245.05 753.044 Q1242.65 750.755 1242.65 747.349 Q1242.65 744.802 1243.96 743.083 Q1245.27 741.365 1247.69 740.74 ZM1247.04 735.224 Q1247.04 737.036 1248.25 738.185 Q1249.46 739.333 1251.4 739.333 Q1253.27 739.333 1254.48 738.193 Q1255.68 737.052 1255.68 735.396 Q1255.68 733.677 1254.44 732.505 Q1253.21 731.333 1251.37 731.333 Q1249.49 731.333 1248.26 732.482 Q1247.04 733.63 1247.04 735.224 ZM1245.99 747.286 Q1245.99 748.583 1246.65 749.794 Q1247.3 751.005 1248.61 751.669 Q1249.91 752.333 1251.41 752.333 Q1253.74 752.333 1255.26 750.935 Q1256.77 749.536 1256.77 747.38 Q1256.77 745.193 1255.21 743.763 Q1253.65 742.333 1251.3 742.333 Q1249.01 742.333 1247.5 743.747 Q1245.99 745.161 1245.99 747.286 Z" fill="#000000" fill-opacity="1.000000"/>
  <path d="M1264.9 755.333 L1264.9 752.333 L1268.6 752.333 L1268.6 755.333 L1264.9 755.333 Z" fill="#000000" fill-opacity="1.000000"/>
  <path d="M1283.68 755.333 L1283.68 749.333 L1272.19 749.333 L1272.19 746.333 L1284.29 728.333 L1286.94 728.333 L1286.94 746.333 L1290.52 746.333 L1290.52 749.333 L1286.94 749.333 L1286.94 755.333 L1283.68 755.333 ZM1283.68 746.333 L1283.68 734.005 L1275.4 746.333 L1283.68 746.333 Z" fill="#000000" fill-opacity="1.000000"/>
  <path d="M1432.27 755.333 L1429.02 755.333 L1429.02 734.302 Q1427.85 735.443 1425.94 736.576 Q1424.03 737.708 1422.52 738.271 L1422.52 735.083 Q1425.25 733.786 1427.29 731.935 Q1429.33 730.083 1430.17 728.333 L1432.27 728.333 L1432.27 755.333 Z" fill="#000000" fill-opacity="1.000000"/>
  <path d="M1451.3 755.333 L1448.05 755.333 L1448.05 734.302 Q1446.88 735.443 1444.97 736.576 Q1443.06 737.708 1441.55 738.271 L1441.55 735.083 Q1444.28 733.786 1446.32 731.935 Q1448.36 730.083 1449.21 728.333 L1451.3 728.333 L1451.3 755.333 Z" fill="#000000" fill-opacity="1.000000"/>
  <path d="M1459.91 755.333 L1459.91 752.333 L1463.61 752.333 L1463.61 755.333 L1459.91 755.333 Z" fill="#000000" fill-opacity="1.000000"/>
  <path d="M1473.28 740.74 Q1471.25 739.99 1470.28 738.599 Q1469.3 737.208 1469.3 735.255 Q1469.3 732.333 1471.38 730.333 Q1473.46 728.333 1476.91 728.333 Q1480.38 728.333 1482.49 730.38 Q1484.61 732.427 1484.61 735.349 Q1484.61 737.224 1483.64 738.607 Q1482.67 739.99 1480.71 740.74 Q1483.14 741.521 1484.42 743.263 Q1485.69 745.005 1485.69 747.427 Q1485.69 750.771 1483.28 753.052 Q1480.88 755.333 1476.96 755.333 Q1473.05 755.333 1470.64 753.044 Q1468.24 750.755 1468.24 747.349 Q1468.24 744.802 1469.55 743.083 Q1470.86 741.365 1473.28 740.74 ZM1472.63 735.224 Q1472.63 737.036 1473.84 738.185 Q1475.05 739.333 1476.99 739.333 Q1478.86 739.333 1480.06 738.193 Q1481.27 737.052 1481.27 735.396 Q1481.27 733.677 1480.03 732.505 Q1478.8 731.333 1476.96 731.333 Q1475.08 731.333 1473.85 732.482 Q1472.63 733.63 1472.63 735.224 ZM1471.58 747.286 Q1471.58 748.583 1472.24 749.794 Q1472.89 751.005 1474.2 751.669 Q1475.5 752.333 1477 752.333 Q1479.33 752.333 1480.85 750.935 Q1482.36 749.536 1482.36 747.38 Q1482.36 745.193 1480.8 743.763 Q1479.24 742.333 1476.89 742.333 Q1474.6 742.333 1473.09 743.747 Q1471.58 745.161 1471.58 747.286 Z" fill="#000000" fill-opacity="1.000000"/>
  <path d="M1617.08 755.333 L1613.83 755.333 L1613.83 734.302 Q1612.66 735.443 1610.76 736.576 Q1608.85 737.708 1607.33 738.271 L1607.33 735.083 Q1610.07 733.786 1612.11 731.935 Q1614.15 730.083 1614.99 728.333 L1617.08 728.333 L1617.08 755.333 Z" fill="#000000" fill-opacity="1.000000"/>
  <path d="M1625.22 748.333 L1628.65 748.333 Q1629.02 750.333 1630.4 751.333 Q1631.79 752.333 1633.74 752.333 Q1636.08 752.333 1637.71 750.63 Q1639.33 748.927 1639.33 746.115 Q1639.33 743.427 1637.77 741.88 Q1636.21 740.333 1633.68 740.333 Q1632.12 740.333 1630.85 740.888 Q1629.58 741.443 1628.87 742.333 L1625.8 742.333 L1628.37 728.333 L1641.54 728.333 L1641.54 731.333 L1630.97 731.333 L1629.55 739.068 Q1631.94 737.333 1634.55 737.333 Q1638.02 737.333 1640.4 739.732 Q1642.79 742.13 1642.79 745.911 Q1642.79 749.505 1640.69 752.115 Q1638.15 755.333 1633.74 755.333 Q1630.12 755.333 1627.83 753.419 Q1625.55 751.505 1625.22 748.333 Z" fill="#000000" fill-opacity="1.000000"/>
  <path d="M1647.44 755.333 L1647.44 752.333 L1651.15 752.333 L1651.15 755.333 L1647.44 755.333 Z" fill="#000000" fill-opacity="1.000000"/>
  <path d="M1672.9 752.333 L1672.9 755.333 L1655.4 755.333 Q1655.35 754.208 1655.77 753.161 Q1656.44 751.443 1657.91 749.779 Q1659.38 748.115 1662.16 745.74 Q1666.49 742.052 1668.01 739.951 Q1669.52 737.849 1669.52 735.99 Q1669.52 734.021 1668.14 732.677 Q1666.76 731.333 1664.54 731.333 Q1662.19 731.333 1660.78 732.396 Q1659.37 733.458 1659.35 735.333 L1656.01 735.333 Q1656.35 731.911 1658.59 730.122 Q1660.83 728.333 1664.6 728.333 Q1668.43 728.333 1670.65 730.505 Q1672.87 732.677 1672.87 735.896 Q1672.87 737.536 1672.22 739.115 Q1671.57 740.693 1670.05 742.443 Q1668.54 744.193 1665.04 747.177 Q1662.12 749.661 1661.29 750.552 Q1660.46 751.443 1659.91 752.333 L1672.9 752.333 Z" fill="#000000" fill-opacity="1.000000"/>
  <path d="M1803.26 755.333 L1800.01 755.333 L1800.01 734.302 Q1798.84 735.443 1796.93 736.576 Q1795.03 737.708 1793.51 738.271 L1793.51 735.083 Q1796.24 733.786 1798.28 731.935 Q1800.32 730.083 1801.17 728.333 L1803.26 728.333 L1803.26 755.333 Z" fill="#000000" fill-opacity="1.000000"/>
  <path d="M1816.42 740.74 Q1814.38 739.99 1813.41 738.599 Q1812.43 737.208 1812.43 735.255 Q1812.43 732.333 1814.51 730.333 Q1816.59 728.333 1820.04 728.333 Q1823.51 728.333 1825.63 730.38 Q1827.74 732.427 1827.74 735.349 Q1827.74 737.224 1826.78 738.607 Q1825.81 739.99 1823.84 740.74 Q1826.28 741.521 1827.55 743.263 Q1828.82 745.005 1828.82 747.427 Q1828.82 750.771 1826.42 753.052 Q1824.01 755.333 1820.09 755.333 Q1816.18 755.333 1813.78 753.044 Q1811.37 750.755 1811.37 747.349 Q1811.37 744.802 1812.68 743.083 Q1813.99 741.365 1816.42 740.74 ZM1815.76 735.224 Q1815.76 737.036 1816.97 738.185 Q1818.18 739.333 1820.12 739.333 Q1821.99 739.333 1823.2 738.193 Q1824.4 737.052 1824.4 735.396 Q1824.4 733.677 1823.17 732.505 Q1821.93 731.333 1820.09 731.333 Q1818.21 731.333 1816.99 732.482 Q1815.76 733.63 1815.76 735.224 ZM1814.71 747.286 Q1814.71 748.583 1815.37 749.794 Q1816.03 751.005 1817.33 751.669 Q1818.63 752.333 1820.13 752.333 Q1822.46 752.333 1823.98 750.935 Q1825.49 749.536 1825.49 747.38 Q1825.49 745.193 1823.93 743.763 Q1822.37 742.333 1820.03 742.333 Q1817.73 742.333 1816.22 743.747 Q1814.71 745.161 1814.71 747.286 Z" fill="#000000" fill-opacity="1.000000"/>
  <path d="M1833.62 755.333 L1833.62 752.333 L1837.32 752.333 L1837.32 755.333 L1833.62 755.333 Z" fill="#000000" fill-opacity="1.000000"/>
  <path d="M1858.85 735.333 L1855.62 735.333 Q1855.18 733.505 1854.38 732.661 Q1853.07 731.333 1851.13 731.333 Q1849.59 731.333 1848.42 732.099 Q1846.88 733.099 1845.99 735.013 Q1845.1 736.927 1845.07 740.865 Q1846.24 739.068 1847.94 738.201 Q1849.63 737.333 1851.51 737.333 Q1854.76 737.333 1857.04 739.779 Q1859.32 742.224 1859.32 746.099 Q1859.32 748.646 1858.24 750.826 Q1857.17 753.005 1855.29 754.169 Q1853.42 755.333 1851.03 755.333 Q1846.96 755.333 1844.4 752.349 Q1841.84 749.365 1841.84 742.505 Q1841.84 734.849 1844.68 731.365 Q1847.15 728.333 1851.34 728.333 Q1854.46 728.333 1856.46 730.193 Q1858.46 732.052 1858.85 735.333 ZM1845.57 746.021 Q1845.57 747.693 1846.28 749.216 Q1846.99 750.74 1848.28 751.536 Q1849.57 752.333 1850.98 752.333 Q1853.04 752.333 1854.53 750.685 Q1856.01 749.036 1856.01 746.193 Q1856.01 743.474 1854.54 741.904 Q1853.07 740.333 1850.85 740.333 Q1848.65 740.333 1847.11 741.904 Q1845.57 743.474 1845.57 746.021 Z" fill="#000000" fill-opacity="1.000000"/>
  <path d="M1994.28 752.333 L1994.28 755.333 L1976.78 755.333 Q1976.73 754.208 1977.15 753.161 Q1977.83 751.443 1979.29 749.779 Q1980.76 748.115 1983.54 745.74 Q1987.87 742.052 1989.39 739.951 Q1990.9 737.849 1990.9 735.99 Q1990.9 734.021 1989.52 732.677 Q1988.14 731.333 1985.92 731.333 Q1983.58 731.333 1982.16 732.396 Q1980.75 733.458 1980.73 735.333 L1977.39 735.333 Q1977.73 731.911 1979.97 730.122 Q1982.22 728.333 1985.98 728.333 Q1989.81 728.333 1992.03 730.505 Q1994.25 732.677 1994.25 735.896 Q1994.25 737.536 1993.6 739.115 Q1992.95 740.693 1991.43 742.443 Q1989.92 744.193 1986.42 747.177 Q1983.5 749.661 1982.67 750.552 Q1981.84 751.443 1981.29 752.333 L1994.28 752.333 Z" fill="#000000" fill-opacity="1.000000"/>
  <path d="M2014.67 752.333 L2014.67 755.333 L1997.17 755.333 Q1997.12 754.208 1997.54 753.161 Q1998.22 751.443 1999.68 749.779 Q2001.15 748.115 2003.93 745.74 Q2008.26 742.052 2009.78 739.951 Q2011.29 737.849 2011.29 735.99 Q2011.29 734.021 2009.91 732.677 Q2008.53 731.333 2006.31 731.333 Q2003.97 731.333 2002.55 732.396 Q2001.14 733.458 2001.12 735.333 L1997.78 735.333 Q1998.12 731.911 2000.36 730.122 Q2002.61 728.333 2006.37 728.333 Q2010.2 728.333 2012.42 730.505 Q2014.64 732.677 2014.64 735.896 Q2014.64 737.536 2013.99 739.115 Q2013.34 740.693 2011.83 742.443 Q2010.31 744.193 2006.81 747.177 Q2003.89 749.661 2003.06 750.552 Q2002.23 751.443 2001.68 752.333 L2014.67 752.333 Z" fill="#000000" fill-opacity="1.000000"/>
  <path d="M2019.79 755.333 L2019.79 752.333 L2023.5 752.333 L2023.5 755.333 L2019.79 755.333 Z" fill="#000000" fill-opacity="1.000000"/>
  <path d="M2028.15 741.849 Q2028.15 737.146 2029.12 734.294 Q2030.09 731.443 2032 729.888 Q2033.9 728.333 2036.79 728.333 Q2038.93 728.333 2040.54 729.193 Q2042.14 730.052 2043.19 731.661 Q2044.25 733.271 2044.84 735.591 Q2045.43 737.911 2045.43 741.849 Q2045.43 746.49 2044.47 749.349 Q2043.51 752.208 2041.61 753.771 Q2039.7 755.333 2036.79 755.333 Q2032.97 755.333 2030.78 752.599 Q2028.15 749.286 2028.15 741.849 ZM2031.5 741.833 Q2031.5 748.146 2033.03 750.24 Q2034.56 752.333 2036.79 752.333 Q2039.03 752.333 2040.56 750.232 Q2042.09 748.13 2042.09 741.833 Q2042.09 735.505 2040.56 733.419 Q2039.03 731.333 2036.76 731.333 Q2034.51 731.333 2033.18 733.177 Q2031.5 735.521 2031.5 741.833 Z" fill="#000000" fill-opacity="1.000000"/>
  <path d="M149.578 692 L149.578 36.6667 " fill="none" stroke-width="3.333333" stroke="#000000ff"/>
  <path d="M149.578 692 L162.911 692 " fill="none" stroke-width="3.333333" stroke="#000000ff"/>
  <path d="M149.578 626.467 L162.911 626.467 " fill="none" stroke-width="3.333333" stroke="#000000ff"/>
  <path d="M149.578 560.933 L162.911 560.933 " fill="none" stroke-width="3.333333" stroke="#000000ff"/>
  <path d="M149.578 495.4 L162.911 495.4 " fill="none" stroke-width="3.333333" stroke="#000000ff"/>
  <path d="M149.578 429.867 L162.911 429.867 " fill="none" stroke-width="3.333333" stroke="#000000ff"/>
  <path d="M149.578 364.333 L162.911 364.333 " fill="none" stroke-width="3.333333" stroke="#000000ff"/>
  <path d="M149.578 298.8 L162.911 298.8 " fill="none" stroke-width="3.333333" stroke="#000000ff"/>
  <path d="M149.578 233.267 L162.911 233.267 " fill="none" stroke-width="3.333333" stroke="#000000ff"/>
  <path d="M149.578 167.733 L162.911 167.733 " fill="none" stroke-width="3.333333" stroke="#000000ff"/>
  <path d="M149.578 102.2 L162.911 102.2 " fill="none" stroke-width="3.333333" stroke="#000000ff"/>
  <path d="M149.578 36.6667 L162.911 36.6667 " fill="none" stroke-width="3.333333" stroke="#000000ff"/>
  <path d="M37.8385 697 L37.8385 694 L47.8385 694 L47.8385 697 L37.8385 697 Z" fill="#000000" fill-opacity="1.000000"/>
  <path d="M50.4323 698 L53.6979 698 Q54.2604 700.125 55.6042 701.062 Q56.9479 702 58.8854 702 Q61.1823 702 62.7604 700.461 Q64.3385 698.922 64.3385 696.641 Q64.3385 694.469 62.8776 693.047 Q61.4167 691.625 59.151 691.625 Q58.2292 691.625 56.8542 692 L57.2135 689 Q57.5417 689.031 57.7448 689.031 Q59.8229 689.031 61.4792 688.016 Q63.1354 687 63.1354 684.875 Q63.1354 683.203 61.9245 682.102 Q60.7135 681 58.7917 681 Q56.901 681 55.6354 682 Q54.3698 683 54.0104 685 L50.7604 685 Q51.3542 681.672 53.4714 679.836 Q55.5885 678 58.7292 678 Q60.901 678 62.7214 678.922 Q64.5417 679.844 65.5104 681.43 Q66.4792 683.016 66.4792 684.797 Q66.4792 686.484 65.5573 687.875 Q64.6354 689.266 62.8385 690.094 Q65.1823 690.641 66.4792 692.359 Q67.776 694.078 67.776 696.656 Q67.776 700.141 65.2448 702.57 Q62.7135 705 58.8542 705 Q55.3698 705 53.0651 703.055 Q50.7604 701.109 50.4323 698 Z" fill="#000000" fill-opacity="1.000000"/>
  <path d="M70.8073 698 L74.2292 698 Q74.6042 700 75.987 701 Q77.3698 702 79.3229 702 Q81.6667 702 83.2917 700.297 Q84.9167 698.594 84.9167 695.781 Q84.9167 693.094 83.3542 691.547 Q81.7917 690 79.2604 690 Q77.6979 690 76.4323 690.555 Q75.1667 691.109 74.4479 692 L71.3854 692 L73.9479 678 L87.1198 678 L87.1198 681 L76.5573 681 L75.1354 688.734 Q77.526 687 80.1354 687 Q83.6042 687 85.987 689.398 Q88.3698 691.797 88.3698 695.578 Q88.3698 699.172 86.276 701.781 Q83.7292 705 79.3229 705 Q75.6979 705 73.4167 703.086 Q71.1354 701.172 70.8073 698 Z" fill="#000000" fill-opacity="1.000000"/>
  <path d="M93.026 705 L93.026 702 L96.7292 702 L96.7292 705 L93.026 705 Z" fill="#000000" fill-opacity="1.000000"/>
  <path d="M101.385 691.516 Q101.385 686.812 102.354 683.961 Q103.323 681.109 105.229 679.555 Q107.135 678 110.026 678 Q112.167 678 113.768 678.859 Q115.37 679.719 116.424 681.328 Q117.479 682.938 118.073 685.258 Q118.667 687.578 118.667 691.516 Q118.667 696.156 117.706 699.016 Q116.745 701.875 114.839 703.438 Q112.932 705 110.026 705 Q106.198 705 104.01 702.266 Q101.385 698.953 101.385 691.516 ZM104.729 691.5 Q104.729 697.812 106.26 699.906 Q107.792 702 110.026 702 Q112.26 702 113.792 699.898 Q115.323 697.797 115.323 691.5 Q115.323 685.172 113.792 683.086 Q112.26 681 109.995 681 Q107.745 681 106.417 682.844 Q104.729 685.188 104.729 691.5 Z" fill="#000000" fill-opacity="1.000000"/>
  <path d="M37.8385 631.467 L37.8385 628.467 L47.8385 628.467 L47.8385 631.467 L37.8385 631.467 Z" fill="#000000" fill-opacity="1.000000"/>
  <path d="M67.5104 636.467 L67.5104 639.467 L50.0104 639.467 Q49.9635 638.342 50.3854 637.295 Q51.0573 635.576 52.526 633.912 Q53.9948 632.248 56.776 629.873 Q61.1042 626.185 62.6198 624.084 Q64.1354 621.982 64.1354 620.123 Q64.1354 618.154 62.7526 616.81 Q61.3698 615.467 59.151 615.467 Q56.8073 615.467 55.3932 616.529 Q53.9792 617.592 53.9635 619.467 L50.6198 619.467 Q50.9635 616.045 53.2057 614.256 Q55.4479 612.467 59.2135 612.467 Q63.0417 612.467 65.2604 614.639 Q67.4792 616.81 67.4792 620.029 Q67.4792 621.67 66.8307 623.248 Q66.1823 624.826 64.6667 626.576 Q63.151 628.326 59.651 631.31 Q56.7292 633.795 55.901 634.685 Q55.0729 635.576 54.526 636.467 L67.5104 636.467 Z" fill="#000000" fill-opacity="1.000000"/>
  <path d="M87.6823 619.467 L84.4479 619.467 Q84.0104 617.639 83.2135 616.795 Q81.901 615.467 79.9635 615.467 Q78.4167 615.467 77.2448 616.232 Q75.7135 617.232 74.8229 619.146 Q73.9323 621.06 73.901 624.998 Q75.0729 623.201 76.7682 622.334 Q78.4635 621.467 80.3385 621.467 Q83.5885 621.467 85.8698 623.912 Q88.151 626.357 88.151 630.232 Q88.151 632.779 87.0729 634.959 Q85.9948 637.139 84.1198 638.303 Q82.2448 639.467 79.8542 639.467 Q75.7917 639.467 73.2292 636.482 Q70.6667 633.498 70.6667 626.639 Q70.6667 618.982 73.5104 615.498 Q75.9792 612.467 80.1667 612.467 Q83.2917 612.467 85.2917 614.326 Q87.2917 616.185 87.6823 619.467 ZM74.401 630.154 Q74.401 631.826 75.112 633.349 Q75.8229 634.873 77.112 635.67 Q78.401 636.467 79.8073 636.467 Q81.8698 636.467 83.3542 634.818 Q84.8385 633.17 84.8385 630.326 Q84.8385 627.607 83.3698 626.037 Q81.901 624.467 79.6823 624.467 Q77.4792 624.467 75.9401 626.037 Q74.401 627.607 74.401 630.154 Z" fill="#000000" fill-opacity="1.000000"/>
  <path d="M93.026 639.467 L93.026 636.467 L96.7292 636.467 L96.7292 639.467 L93.026 639.467 Z" fill="#000000" fill-opacity="1.000000"/>
  <path d="M101.385 625.982 Q101.385 621.279 102.354 618.428 Q103.323 615.576 105.229 614.021 Q107.135 612.467 110.026 612.467 Q112.167 612.467 113.768 613.326 Q115.37 614.185 116.424 615.795 Q117.479 617.404 118.073 619.724 Q118.667 622.045 118.667 625.982 Q118.667 630.623 117.706 633.482 Q116.745 636.342 114.839 637.904 Q112.932 639.467 110.026 639.467 Q106.198 639.467 104.01 636.732 Q101.385 633.42 101.385 625.982 ZM104.729 625.967 Q104.729 632.279 106.26 634.373 Q107.792 636.467 110.026 636.467 Q112.26 636.467 113.792 634.365 Q115.323 632.264 115.323 625.967 Q115.323 619.639 113.792 617.553 Q112.26 615.467 109.995 615.467 Q107.745 615.467 106.417 617.31 Q104.729 619.654 104.729 625.967 Z" fill="#000000" fill-opacity="1.000000"/>
  <path d="M37.8385 565.933 L37.8385 562.933 L47.8385 562.933 L47.8385 565.933 L37.8385 565.933 Z" fill="#000000" fill-opacity="1.000000"/>
  <path d="M62.6667 573.933 L59.4167 573.933 L59.4167 552.902 Q58.2448 554.043 56.3385 555.176 Q54.4323 556.308 52.9167 556.871 L52.9167 553.683 Q55.651 552.386 57.6901 550.535 Q59.7292 548.683 60.5729 546.933 L62.6667 546.933 L62.6667 573.933 Z" fill="#000000" fill-opacity="1.000000"/>
  <path d="M71.026 549.933 L71.026 546.933 L88.1667 546.933 L88.1667 549.355 Q85.651 552.121 83.1667 556.777 Q80.6823 561.433 79.3229 566.34 Q78.3385 569.808 78.0729 573.933 L74.7292 573.933 Q74.776 570.668 75.9557 566.058 Q77.1354 561.449 79.3307 557.16 Q81.526 552.871 83.9948 549.933 L71.026 549.933 Z" fill="#000000" fill-opacity="1.000000"/>
  <path d="M93.026 573.933 L93.026 570.933 L96.7292 570.933 L96.7292 573.933 L93.026 573.933 Z" fill="#000000" fill-opacity="1.000000"/>
  <path d="M101.385 560.449 Q101.385 555.746 102.354 552.894 Q103.323 550.043 105.229 548.488 Q107.135 546.933 110.026 546.933 Q112.167 546.933 113.768 547.793 Q115.37 548.652 116.424 550.261 Q117.479 551.871 118.073 554.191 Q118.667 556.511 118.667 560.449 Q118.667 565.09 117.706 567.949 Q116.745 570.808 114.839 572.371 Q112.932 573.933 110.026 573.933 Q106.198 573.933 104.01 571.199 Q101.385 567.886 101.385 560.449 ZM104.729 560.433 Q104.729 566.746 106.26 568.84 Q107.792 570.933 110.026 570.933 Q112.26 570.933 113.792 568.832 Q115.323 566.73 115.323 560.433 Q115.323 554.105 113.792 552.019 Q112.26 549.933 109.995 549.933 Q107.745 549.933 106.417 551.777 Q104.729 554.121 104.729 560.433 Z" fill="#000000" fill-opacity="1.000000"/>
  <path d="M58.2292 500.4 L58.2292 497.4 L68.2292 497.4 L68.2292 500.4 L58.2292 500.4 Z" fill="#000000" fill-opacity="1.000000"/>
  <path d="M75.8229 493.806 Q73.7917 493.056 72.8151 491.666 Q71.8385 490.275 71.8385 488.322 Q71.8385 485.4 73.9167 483.4 Q75.9948 481.4 79.4479 481.4 Q82.9167 481.4 85.0339 483.447 Q87.151 485.494 87.151 488.416 Q87.151 490.291 86.1823 491.673 Q85.2135 493.056 83.2448 493.806 Q85.6823 494.587 86.9557 496.33 Q88.2292 498.072 88.2292 500.494 Q88.2292 503.837 85.8229 506.119 Q83.4167 508.4 79.4948 508.4 Q75.5885 508.4 73.1823 506.111 Q70.776 503.822 70.776 500.416 Q70.776 497.869 72.0885 496.15 Q73.401 494.431 75.8229 493.806 ZM75.1667 488.291 Q75.1667 490.103 76.3776 491.252 Q77.5885 492.4 79.526 492.4 Q81.401 492.4 82.6042 491.259 Q83.8073 490.119 83.8073 488.462 Q83.8073 486.744 82.5729 485.572 Q81.3385 484.4 79.4948 484.4 Q77.6198 484.4 76.3932 485.548 Q75.1667 486.697 75.1667 488.291 ZM74.1198 500.353 Q74.1198 501.65 74.776 502.861 Q75.4323 504.072 76.737 504.736 Q78.0417 505.4 79.5417 505.4 Q81.8698 505.4 83.3854 504.002 Q84.901 502.603 84.901 500.447 Q84.901 498.259 83.3385 496.83 Q81.776 495.4 79.4323 495.4 Q77.1354 495.4 75.6276 496.814 Q74.1198 498.228 74.1198 500.353 Z" fill="#000000" fill-opacity="1.000000"/>
  <path d="M93.026 508.4 L93.026 505.4 L96.7292 505.4 L96.7292 508.4 L93.026 508.4 Z" fill="#000000" fill-opacity="1.000000"/>
  <path d="M101.385 494.916 Q101.385 490.212 102.354 487.361 Q103.323 484.509 105.229 482.955 Q107.135 481.4 110.026 481.4 Q112.167 481.4 113.768 482.259 Q115.37 483.119 116.424 484.728 Q117.479 486.337 118.073 488.658 Q118.667 490.978 118.667 494.916 Q118.667 499.556 117.706 502.416 Q116.745 505.275 114.839 506.837 Q112.932 508.4 110.026 508.4 Q106.198 508.4 104.01 505.666 Q101.385 502.353 101.385 494.916 ZM104.729 494.9 Q104.729 501.212 106.26 503.306 Q107.792 505.4 110.026 505.4 Q112.26 505.4 113.792 503.298 Q115.323 501.197 115.323 494.9 Q115.323 488.572 113.792 486.486 Q112.26 484.4 109.995 484.4 Q107.745 484.4 106.417 486.244 Q104.729 488.587 104.729 494.9 Z" fill="#000000" fill-opacity="1.000000"/>
  <path d="M83.0573 442.867 L79.8073 442.867 L79.8073 421.835 Q78.6354 422.976 76.7292 424.109 Q74.8229 425.242 73.3073 425.804 L73.3073 422.617 Q76.0417 421.32 78.0807 419.468 Q80.1198 417.617 80.9635 415.867 L83.0573 415.867 L83.0573 442.867 Z" fill="#000000" fill-opacity="1.000000"/>
  <path d="M93.026 442.867 L93.026 439.867 L96.7292 439.867 L96.7292 442.867 L93.026 442.867 Z" fill="#000000" fill-opacity="1.000000"/>
  <path d="M101.385 429.382 Q101.385 424.679 102.354 421.828 Q103.323 418.976 105.229 417.421 Q107.135 415.867 110.026 415.867 Q112.167 415.867 113.768 416.726 Q115.37 417.585 116.424 419.195 Q117.479 420.804 118.073 423.124 Q118.667 425.445 118.667 429.382 Q118.667 434.023 117.706 436.882 Q116.745 439.742 114.839 441.304 Q112.932 442.867 110.026 442.867 Q106.198 442.867 104.01 440.132 Q101.385 436.82 101.385 429.382 ZM104.729 429.367 Q104.729 435.679 106.26 437.773 Q107.792 439.867 110.026 439.867 Q112.26 439.867 113.792 437.765 Q115.323 435.664 115.323 429.367 Q115.323 423.039 113.792 420.953 Q112.26 418.867 109.995 418.867 Q107.745 418.867 106.417 420.71 Q104.729 423.054 104.729 429.367 Z" fill="#000000" fill-opacity="1.000000"/>
  <path d="M62.6667 377.333 L59.4167 377.333 L59.4167 356.302 Q58.2448 357.443 56.3385 358.576 Q54.4323 359.708 52.9167 360.271 L52.9167 357.083 Q55.651 355.786 57.6901 353.935 Q59.7292 352.083 60.5729 350.333 L62.6667 350.333 L62.6667 377.333 Z" fill="#000000" fill-opacity="1.000000"/>
  <path d="M70.8073 363.849 Q70.8073 359.146 71.776 356.294 Q72.7448 353.443 74.651 351.888 Q76.5573 350.333 79.4479 350.333 Q81.5885 350.333 83.1901 351.193 Q84.7917 352.052 85.8464 353.661 Q86.901 355.271 87.4948 357.591 Q88.0885 359.911 88.0885 363.849 Q88.0885 368.49 87.1276 371.349 Q86.1667 374.208 84.2604 375.771 Q82.3542 377.333 79.4479 377.333 Q75.6198 377.333 73.4323 374.599 Q70.8073 371.286 70.8073 363.849 ZM74.151 363.833 Q74.151 370.146 75.6823 372.24 Q77.2135 374.333 79.4479 374.333 Q81.6823 374.333 83.2135 372.232 Q84.7448 370.13 84.7448 363.833 Q84.7448 357.505 83.2135 355.419 Q81.6823 353.333 79.4167 353.333 Q77.1667 353.333 75.8385 355.177 Q74.151 357.521 74.151 363.833 Z" fill="#000000" fill-opacity="1.000000"/>
  <path d="M93.026 377.333 L93.026 374.333 L96.7292 374.333 L96.7292 377.333 L93.026 377.333 Z" fill="#000000" fill-opacity="1.000000"/>
  <path d="M101.385 363.849 Q101.385 359.146 102.354 356.294 Q103.323 353.443 105.229 351.888 Q107.135 350.333 110.026 350.333 Q112.167 350.333 113.768 351.193 Q115.37 352.052 116.424 353.661 Q117.479 355.271 118.073 357.591 Q118.667 359.911 118.667 363.849 Q118.667 368.49 117.706 371.349 Q116.745 374.208 114.839 375.771 Q112.932 377.333 110.026 377.333 Q106.198 377.333 104.01 374.599 Q101.385 371.286 101.385 363.849 ZM104.729 363.833 Q104.729 370.146 106.26 372.24 Q107.792 374.333 110.026 374.333 Q112.26 374.333 113.792 372.232 Q115.323 370.13 115.323 363.833 Q115.323 357.505 113.792 355.419 Q112.26 353.333 109.995 353.333 Q107.745 353.333 106.417 355.177 Q104.729 357.521 104.729 363.833 Z" fill="#000000" fill-opacity="1.000000"/>
  <path d="M62.6667 311.8 L59.4167 311.8 L59.4167 290.769 Q58.2448 291.909 56.3385 293.042 Q54.4323 294.175 52.9167 294.737 L52.9167 291.55 Q55.651 290.253 57.6901 288.402 Q59.7292 286.55 60.5729 284.8 L62.6667 284.8 L62.6667 311.8 Z" fill="#000000" fill-opacity="1.000000"/>
  <path d="M71.3073 304.8 L74.4323 304.8 Q74.8229 306.909 75.9479 307.855 Q77.0729 308.8 78.8229 308.8 Q80.3229 308.8 81.4479 308.191 Q82.5729 307.581 83.2995 306.566 Q84.026 305.55 84.5104 303.769 Q84.9948 301.987 84.9948 299.972 Q84.9948 299.753 84.9792 299.316 Q84.0104 300.878 82.3151 301.839 Q80.6198 302.8 78.651 302.8 Q75.3698 302.8 73.0885 300.362 Q70.8073 297.925 70.8073 293.941 Q70.8073 289.816 73.1823 287.308 Q75.5573 284.8 79.1354 284.8 Q81.7292 284.8 83.8698 286.191 Q86.0104 287.581 87.1198 290.152 Q88.2292 292.722 88.2292 297.581 Q88.2292 302.659 87.1276 305.659 Q86.026 308.659 83.8464 310.23 Q81.6667 311.8 78.7448 311.8 Q75.6354 311.8 73.6667 309.964 Q71.6979 308.128 71.3073 304.8 ZM84.6198 293.862 Q84.6198 291.081 83.1276 289.441 Q81.6354 287.8 79.5417 287.8 Q77.3698 287.8 75.7604 289.566 Q74.151 291.331 74.151 294.128 Q74.151 296.659 75.6823 298.23 Q77.2135 299.8 79.4479 299.8 Q81.7135 299.8 83.1667 298.23 Q84.6198 296.659 84.6198 293.862 Z" fill="#000000" fill-opacity="1.000000"/>
  <path d="M93.026 311.8 L93.026 308.8 L96.7292 308.8 L96.7292 311.8 L93.026 311.8 Z" fill="#000000" fill-opacity="1.000000"/>
  <path d="M101.385 298.316 Q101.385 293.612 102.354 290.761 Q103.323 287.909 105.229 286.355 Q107.135 284.8 110.026 284.8 Q112.167 284.8 113.768 285.659 Q115.37 286.519 116.424 288.128 Q117.479 289.737 118.073 292.058 Q118.667 294.378 118.667 298.316 Q118.667 302.956 117.706 305.816 Q116.745 308.675 114.839 310.237 Q112.932 311.8 110.026 311.8 Q106.198 311.8 104.01 309.066 Q101.385 305.753 101.385 298.316 ZM104.729 298.3 Q104.729 304.612 106.26 306.706 Q107.792 308.8 110.026 308.8 Q112.26 308.8 113.792 306.698 Q115.323 304.597 115.323 298.3 Q115.323 291.972 113.792 289.886 Q112.26 287.8 109.995 287.8 Q107.745 287.8 106.417 289.644 Q104.729 291.987 104.729 298.3 Z" fill="#000000" fill-opacity="1.000000"/>
  <path d="M67.5104 243.267 L67.5104 246.267 L50.0104 246.267 Q49.9635 245.142 50.3854 244.095 Q51.0573 242.376 52.526 240.712 Q53.9948 239.048 56.776 236.673 Q61.1042 232.985 62.6198 230.884 Q64.1354 228.782 64.1354 226.923 Q64.1354 224.954 62.7526 223.61 Q61.3698 222.267 59.151 222.267 Q56.8073 222.267 55.3932 223.329 Q53.9792 224.392 53.9635 226.267 L50.6198 226.267 Q50.9635 222.845 53.2057 221.056 Q55.4479 219.267 59.2135 219.267 Q63.0417 219.267 65.2604 221.439 Q67.4792 223.61 67.4792 226.829 Q67.4792 228.47 66.8307 230.048 Q66.1823 231.626 64.6667 233.376 Q63.151 235.126 59.651 238.11 Q56.7292 240.595 55.901 241.485 Q55.0729 242.376 54.526 243.267 L67.5104 243.267 Z" fill="#000000" fill-opacity="1.000000"/>
  <path d="M75.8229 231.673 Q73.7917 230.923 72.8151 229.532 Q71.8385 228.142 71.8385 226.189 Q71.8385 223.267 73.9167 221.267 Q75.9948 219.267 79.4479 219.267 Q82.9167 219.267 85.0339 221.314 Q87.151 223.36 87.151 226.282 Q87.151 228.157 86.1823 229.54 Q85.2135 230.923 83.2448 231.673 Q85.6823 232.454 86.9557 234.196 Q88.2292 235.939 88.2292 238.36 Q88.2292 241.704 85.8229 243.985 Q83.4167 246.267 79.4948 246.267 Q75.5885 246.267 73.1823 243.978 Q70.776 241.689 70.776 238.282 Q70.776 235.735 72.0885 234.017 Q73.401 232.298 75.8229 231.673 ZM75.1667 226.157 Q75.1667 227.97 76.3776 229.118 Q77.5885 230.267 79.526 230.267 Q81.401 230.267 82.6042 229.126 Q83.8073 227.985 83.8073 226.329 Q83.8073 224.61 82.5729 223.439 Q81.3385 222.267 79.4948 222.267 Q77.6198 222.267 76.3932 223.415 Q75.1667 224.564 75.1667 226.157 ZM74.1198 238.22 Q74.1198 239.517 74.776 240.728 Q75.4323 241.939 76.737 242.603 Q78.0417 243.267 79.5417 243.267 Q81.8698 243.267 83.3854 241.868 Q84.901 240.47 84.901 238.314 Q84.901 236.126 83.3385 234.696 Q81.776 233.267 79.4323 233.267 Q77.1354 233.267 75.6276 234.681 Q74.1198 236.095 74.1198 238.22 Z" fill="#000000" fill-opacity="1.000000"/>
  <path d="M93.026 246.267 L93.026 243.267 L96.7292 243.267 L96.7292 246.267 L93.026 246.267 Z" fill="#000000" fill-opacity="1.000000"/>
  <path d="M101.385 232.782 Q101.385 228.079 102.354 225.228 Q103.323 222.376 105.229 220.821 Q107.135 219.267 110.026 219.267 Q112.167 219.267 113.768 220.126 Q115.37 220.985 116.424 222.595 Q117.479 224.204 118.073 226.524 Q118.667 228.845 118.667 232.782 Q118.667 237.423 117.706 240.282 Q116.745 243.142 114.839 244.704 Q112.932 246.267 110.026 246.267 Q106.198 246.267 104.01 243.532 Q101.385 240.22 101.385 232.782 ZM104.729 232.767 Q104.729 239.079 106.26 241.173 Q107.792 243.267 110.026 243.267 Q112.26 243.267 113.792 241.165 Q115.323 239.064 115.323 232.767 Q115.323 226.439 113.792 224.353 Q112.26 222.267 109.995 222.267 Q107.745 222.267 106.417 224.11 Q104.729 226.454 104.729 232.767 Z" fill="#000000" fill-opacity="1.000000"/>
  <path d="M50.4323 173.733 L53.6979 173.733 Q54.2604 175.858 55.6042 176.796 Q56.9479 177.733 58.8854 177.733 Q61.1823 177.733 62.7604 176.194 Q64.3385 174.655 64.3385 172.374 Q64.3385 170.202 62.8776 168.78 Q61.4167 167.358 59.151 167.358 Q58.2292 167.358 56.8542 167.733 L57.2135 164.733 Q57.5417 164.765 57.7448 164.765 Q59.8229 164.765 61.4792 163.749 Q63.1354 162.733 63.1354 160.608 Q63.1354 158.936 61.9245 157.835 Q60.7135 156.733 58.7917 156.733 Q56.901 156.733 55.6354 157.733 Q54.3698 158.733 54.0104 160.733 L50.7604 160.733 Q51.3542 157.405 53.4714 155.569 Q55.5885 153.733 58.7292 153.733 Q60.901 153.733 62.7214 154.655 Q64.5417 155.577 65.5104 157.163 Q66.4792 158.749 66.4792 160.53 Q66.4792 162.218 65.5573 163.608 Q64.6354 164.999 62.8385 165.827 Q65.1823 166.374 66.4792 168.093 Q67.776 169.811 67.776 172.39 Q67.776 175.874 65.2448 178.304 Q62.7135 180.733 58.8542 180.733 Q55.3698 180.733 53.0651 178.788 Q50.7604 176.843 50.4323 173.733 Z" fill="#000000" fill-opacity="1.000000"/>
  <path d="M71.026 156.733 L71.026 153.733 L88.1667 153.733 L88.1667 156.155 Q85.651 158.921 83.1667 163.577 Q80.6823 168.233 79.3229 173.14 Q78.3385 176.608 78.0729 180.733 L74.7292 180.733 Q74.776 177.468 75.9557 172.858 Q77.1354 168.249 79.3307 163.96 Q81.526 159.671 83.9948 156.733 L71.026 156.733 Z" fill="#000000" fill-opacity="1.000000"/>
  <path d="M93.026 180.733 L93.026 177.733 L96.7292 177.733 L96.7292 180.733 L93.026 180.733 Z" fill="#000000" fill-opacity="1.000000"/>
  <path d="M101.385 167.249 Q101.385 162.546 102.354 159.694 Q103.323 156.843 105.229 155.288 Q107.135 153.733 110.026 153.733 Q112.167 153.733 113.768 154.593 Q115.37 155.452 116.424 157.061 Q117.479 158.671 118.073 160.991 Q118.667 163.311 118.667 167.249 Q118.667 171.89 117.706 174.749 Q116.745 177.608 114.839 179.171 Q112.932 180.733 110.026 180.733 Q106.198 180.733 104.01 177.999 Q101.385 174.686 101.385 167.249 ZM104.729 167.233 Q104.729 173.546 106.26 175.64 Q107.792 177.733 110.026 177.733 Q112.26 177.733 113.792 175.632 Q115.323 173.53 115.323 167.233 Q115.323 160.905 113.792 158.819 Q112.26 156.733 109.995 156.733 Q107.745 156.733 106.417 158.577 Q104.729 160.921 104.729 167.233 Z" fill="#000000" fill-opacity="1.000000"/>
  <path d="M60.8385 115.2 L60.8385 109.2 L49.3542 109.2 L49.3542 106.2 L61.4479 88.2 L64.1042 88.2 L64.1042 106.2 L67.6823 106.2 L67.6823 109.2 L64.1042 109.2 L64.1042 115.2 L60.8385 115.2 ZM60.8385 106.2 L60.8385 93.8719 L52.5573 106.2 L60.8385 106.2 Z" fill="#000000" fill-opacity="1.000000"/>
  <path d="M87.6823 95.2 L84.4479 95.2 Q84.0104 93.3719 83.2135 92.5281 Q81.901 91.2 79.9635 91.2 Q78.4167 91.2 77.2448 91.9656 Q75.7135 92.9656 74.8229 94.8797 Q73.9323 96.7937 73.901 100.731 Q75.0729 98.9344 76.7682 98.0672 Q78.4635 97.2 80.3385 97.2 Q83.5885 97.2 85.8698 99.6453 Q88.151 102.091 88.151 105.966 Q88.151 108.512 87.0729 110.692 Q85.9948 112.872 84.1198 114.036 Q82.2448 115.2 79.8542 115.2 Q75.7917 115.2 73.2292 112.216 Q70.6667 109.231 70.6667 102.372 Q70.6667 94.7156 73.5104 91.2312 Q75.9792 88.2 80.1667 88.2 Q83.2917 88.2 85.2917 90.0594 Q87.2917 91.9187 87.6823 95.2 ZM74.401 105.887 Q74.401 107.559 75.112 109.083 Q75.8229 110.606 77.112 111.403 Q78.401 112.2 79.8073 112.2 Q81.8698 112.2 83.3542 110.552 Q84.8385 108.903 84.8385 106.059 Q84.8385 103.341 83.3698 101.77 Q81.901 100.2 79.6823 100.2 Q77.4792 100.2 75.9401 101.77 Q74.401 103.341 74.401 105.887 Z" fill="#000000" fill-opacity="1.000000"/>
  <path d="M93.026 115.2 L93.026 112.2 L96.7292 112.2 L96.7292 115.2 L93.026 115.2 Z" fill="#000000" fill-opacity="1.000000"/>
  <path d="M101.385 101.716 Q101.385 97.0125 102.354 94.1609 Q103.323 91.3094 105.229 89.7547 Q107.135 88.2 110.026 88.2 Q112.167 88.2 113.768 89.0594 Q115.37 89.9187 116.424 91.5281 Q117.479 93.1375 118.073 95.4578 Q118.667 97.7781 118.667 101.716 Q118.667 106.356 117.706 109.216 Q116.745 112.075 114.839 113.637 Q112.932 115.2 110.026 115.2 Q106.198 115.2 104.01 112.466 Q101.385 109.153 101.385 101.716 ZM104.729 101.7 Q104.729 108.012 106.26 110.106 Q107.792 112.2 110.026 112.2 Q112.26 112.2 113.792 110.098 Q115.323 107.997 115.323 101.7 Q115.323 95.3719 113.792 93.2859 Q112.26 91.2 109.995 91.2 Q107.745 91.2 106.417 93.0437 Q104.729 95.3875 104.729 101.7 Z" fill="#000000" fill-opacity="1.000000"/>
  <path d="M50.4167 42.6667 L53.8385 42.6667 Q54.2135 44.6667 55.5964 45.6667 Q56.9792 46.6667 58.9323 46.6667 Q61.276 46.6667 62.901 44.9635 Q64.526 43.2604 64.526 40.4479 Q64.526 37.7604 62.9635 36.2135 Q61.401 34.6667 58.8698 34.6667 Q57.3073 34.6667 56.0417 35.2214 Q54.776 35.776 54.0573 36.6667 L50.9948 36.6667 L53.5573 22.6667 L66.7292 22.6667 L66.7292 25.6667 L56.1667 25.6667 L54.7448 33.401 Q57.1354 31.6667 59.7448 31.6667 Q63.2135 31.6667 65.5964 34.0651 Q67.9792 36.4635 67.9792 40.2448 Q67.9792 43.8385 65.8854 46.4479 Q63.3385 49.6667 58.9323 49.6667 Q55.3073 49.6667 53.026 47.7526 Q50.7448 45.8385 50.4167 42.6667 Z" fill="#000000" fill-opacity="1.000000"/>
  <path d="M70.8073 42.6667 L74.2292 42.6667 Q74.6042 44.6667 75.987 45.6667 Q77.3698 46.6667 79.3229 46.6667 Q81.6667 46.6667 83.2917 44.9635 Q84.9167 43.2604 84.9167 40.4479 Q84.9167 37.7604 83.3542 36.2135 Q81.7917 34.6667 79.2604 34.6667 Q77.6979 34.6667 76.4323 35.2214 Q75.1667 35.776 74.4479 36.6667 L71.3854 36.6667 L73.9479 22.6667 L87.1198 22.6667 L87.1198 25.6667 L76.5573 25.6667 L75.1354 33.401 Q77.526 31.6667 80.1354 31.6667 Q83.6042 31.6667 85.987 34.0651 Q88.3698 36.4635 88.3698 40.2448 Q88.3698 43.8385 86.276 46.4479 Q83.7292 49.6667 79.3229 49.6667 Q75.6979 49.6667 73.4167 47.7526 Q71.1354 45.8385 70.8073 42.6667 Z" fill="#000000" fill-opacity="1.000000"/>
  <path d="M93.026 49.6667 L93.026 46.6667 L96.7292 46.6667 L96.7292 49.6667 L93.026 49.6667 Z" fill="#000000" fill-opacity="1.000000"/>
  <path d="M101.385 36.1823 Q101.385 31.4792 102.354 28.6276 Q103.323 25.776 105.229 24.2214 Q107.135 22.6667 110.026 22.6667 Q112.167 22.6667 113.768 23.526 Q115.37 24.3854 116.424 25.9948 Q117.479 27.6042 118.073 29.9245 Q118.667 32.2448 118.667 36.1823 Q118.667 40.8229 117.706 43.6823 Q116.745 46.5417 114.839 48.1042 Q112.932 49.6667 110.026 49.6667 Q106.198 49.6667 104.01 46.9323 Q101.385 43.6198 101.385 36.1823 ZM104.729 36.1667 Q104.729 42.4792 106.26 44.5729 Q107.792 46.6667 110.026 46.6667 Q112.26 46.6667 113.792 44.5651 Q115.323 42.4635 115.323 36.1667 Q115.323 29.8385 113.792 27.7526 Q112.26 25.6667 109.995 25.6667 Q107.745 25.6667 106.417 27.5104 Q104.729 29.8542 104.729 36.1667 Z" fill="#000000" fill-opacity="1.000000"/>
  <path d="M259.093 189.578 L368.608 306.081 L916.183 466.274 L1299.49 298.8 L1354.24 619.185 L1463.76 604.622 " fill="none" stroke-width="5.000000" stroke="#89a54eff"/>
  <path d="M259.093 194.578 C256.332 194.578 254.093 192.339 254.093 189.578 C254.093 186.816 256.332 184.578 259.093 184.578 C261.855 184.578 264.093 186.816 264.093 189.578 C264.093 192.339 261.855 194.578 259.093 194.578 Z" fill="#89a54e" fill-opacity="1.000000"/>
  <path d="M368.608 311.081 C365.847 311.081 363.608 308.843 363.608 306.081 C363.608 303.32 365.847 301.081 368.608 301.081 C371.37 301.081 373.608 303.32 373.608 306.081 C373.608 308.843 371.37 311.081 368.608 311.081 Z" fill="#89a54e" fill-opacity="1.000000"/>
  <path d="M916.183 471.274 C913.422 471.274 911.183 469.035 911.183 466.274 C911.183 463.513 913.422 461.274 916.183 461.274 C918.945 461.274 921.183 463.513 921.183 466.274 C921.183 469.035 918.945 471.274 916.183 471.274 Z" fill="#89a54e" fill-opacity="1.000000"/>
  <path d="M1299.49 303.8 C1296.72 303.8 1294.49 301.561 1294.49 298.8 C1294.49 296.039 1296.72 293.8 1299.49 293.8 C1302.25 293.8 1304.49 296.039 1304.49 298.8 C1304.49 301.561 1302.25 303.8 1299.49 303.8 Z" fill="#89a54e" fill-opacity="1.000000"/>
  <path d="M1354.24 624.185 C1351.48 624.185 1349.24 621.947 1349.24 619.185 C1349.24 616.424 1351.48 614.185 1354.24 614.185 C1357 614.185 1359.24 616.424 1359.24 619.185 C1359.24 621.947 1357 624.185 1354.24 624.185 Z" fill="#89a54e" fill-opacity="1.000000"/>
  <path d="M1463.76 609.622 C1461 609.622 1458.76 607.384 1458.76 604.622 C1458.76 601.861 1461 599.622 1463.76 599.622 C1466.52 599.622 1468.76 601.861 1468.76 604.622 C1468.76 607.384 1466.52 609.622 1463.76 609.622 Z" fill="#89a54e" fill-opacity="1.000000"/>
  <path d="M368.608 189.578 L916.183 568.215 L1463.76 124.044 L1573.27 575.496 L1737.55 255.111 L1901.82 196.859 " fill="none" stroke-width="5.000000" stroke="#3d96aeff"/>
  <path d="M368.608 194.578 C365.847 194.578 363.608 192.339 363.608 189.578 C363.608 186.816 365.847 184.578 368.608 184.578 C371.37 184.578 373.608 186.816 373.608 189.578 C373.608 192.339 371.37 194.578 368.608 194.578 Z" fill="#3d96ae" fill-opacity="1.000000"/>
  <path d="M916.183 573.215 C913.422 573.215 911.183 570.976 911.183 568.215 C911.183 565.453 913.422 563.215 916.183 563.215 C918.945 563.215 921.183 565.453 921.183 568.215 C921.183 570.976 918.945 573.215 916.183 573.215 Z" fill="#3d96ae" fill-opacity="1.000000"/>
  <path d="M1463.76 129.044 C1461 129.044 1458.76 126.806 1458.76 124.044 C1458.76 121.283 1461 119.044 1463.76 119.044 C1466.52 119.044 1468.76 121.283 1468.76 124.044 C1468.76 126.806 1466.52 129.044 1463.76 129.044 Z" fill="#3d96ae" fill-opacity="1.000000"/>
  <path d="M1573.27 580.496 C1570.51 580.496 1568.27 578.258 1568.27 575.496 C1568.27 572.735 1570.51 570.496 1573.27 570.496 C1576.03 570.496 1578.27 572.735 1578.27 575.496 C1578.27 578.258 1576.03 580.496 1573.27 580.496 Z" fill="#3d96ae" fill-opacity="1.000000"/>
  <path d="M1737.55 260.111 C1734.78 260.111 1732.55 257.873 1732.55 255.111 C1732.55 252.35 1734.78 250.111 1737.55 250.111 C1740.31 250.111 1742.55 252.35 1742.55 255.111 C1742.55 257.873 1740.31 260.111 1737.55 260.111 Z" fill="#3d96ae" fill-opacity="1.000000"/>
  <path d="M1901.82 201.859 C1899.06 201.859 1896.82 199.621 1896.82 196.859 C1896.82 194.098 1899.06 191.859 1901.82 191.859 C1904.58 191.859 1906.82 194.098 1906.82 196.859 C1906.82 199.621 1904.58 201.859 1901.82 201.859 Z" fill="#3d96ae" fill-opacity="1.000000"/>
  <path d="M171.578 670 L171.578 531 L423.823 531 L423.823 670 Z" fill="#ffffff" fill-opacity="1.000000"/>
  <path d="M250.234 578 L253.547 578 Q253.781 579.953 254.641 581.203 Q255.5 582.453 257.305 583.227 Q259.109 584 261.375 584 Q263.375 584 264.914 583.414 Q266.453 582.828 267.203 581.805 Q267.953 580.781 267.953 579.562 Q267.953 578.312 267.227 577.383 Q266.5 576.453 264.828 575.828 Q263.766 575.406 260.117 574.539 Q256.469 573.672 255 572.906 Q253.109 571.922 252.18 570.469 Q251.25 569.016 251.25 567.203 Q251.25 565.234 252.391 563.508 Q253.531 561.781 255.719 560.891 Q257.906 560 260.578 560 Q263.516 560 265.766 560.961 Q268.016 561.922 269.227 563.781 Q270.438 565.641 270.531 568 L267.172 568 Q266.906 565.531 265.336 564.266 Q263.766 563 260.719 563 Q257.531 563 256.078 564.156 Q254.625 565.312 254.625 566.938 Q254.625 568.359 255.656 569.266 Q256.672 570.188 260.945 571.148 Q265.219 572.109 266.812 572.828 Q269.125 573.875 270.227 575.484 Q271.328 577.094 271.328 579.188 Q271.328 581.266 270.117 583.109 Q268.906 584.953 266.641 585.977 Q264.375 587 261.531 587 Q257.938 587 255.508 585.945 Q253.078 584.891 251.695 582.781 Q250.312 580.672 250.234 578 Z" fill="#000000" fill-opacity="1.000000"/>
  <path d="M288.609 581 L291.969 581 Q291.172 583.844 289.023 585.422 Q286.875 587 283.531 587 Q279.328 587 276.859 584.414 Q274.391 581.828 274.391 577.156 Q274.391 572.328 276.883 569.664 Q279.375 567 283.359 567 Q287.203 567 289.641 569.656 Q292.078 572.312 292.078 577.125 Q292.078 577.422 292.062 578 L277.75 578 Q277.938 580.906 279.539 582.453 Q281.141 584 283.547 584 Q285.344 584 286.609 583.281 Q287.875 582.562 288.609 581 ZM277.922 575 L288.641 575 Q288.422 572.797 287.406 571.703 Q285.859 570 283.375 570 Q281.141 570 279.609 571.359 Q278.078 572.719 277.922 575 Z" fill="#000000" fill-opacity="1.000000"/>
  <path d="M295.828 587 L295.828 567 L298.75 567 L298.75 569.984 Q299.875 568.156 300.82 567.578 Q301.766 567 302.906 567 Q304.547 567 306.25 567.625 L305.125 570.641 Q303.938 570 302.75 570 Q301.688 570 300.836 570.672 Q299.984 571.344 299.625 572.531 Q299.078 574.344 299.078 576.5 L299.078 587 L295.828 587 Z" fill="#000000" fill-opacity="1.000000"/>
  <path d="M308.094 563 L308.094 560 L311.344 560 L311.344 563 L308.094 563 ZM308.094 587 L308.094 567 L311.344 567 L311.344 587 L308.094 587 Z" fill="#000000" fill-opacity="1.000000"/>
  <path d="M329.359 581 L332.719 581 Q331.922 583.844 329.773 585.422 Q327.625 587 324.281 587 Q320.078 587 317.609 584.414 Q315.141 581.828 315.141 577.156 Q315.141 572.328 317.633 569.664 Q320.125 567 324.109 567 Q327.953 567 330.391 569.656 Q332.828 572.312 332.828 577.125 Q332.828 577.422 332.812 578 L318.5 578 Q318.688 580.906 320.289 582.453 Q321.891 584 324.297 584 Q326.094 584 327.359 583.281 Q328.625 582.562 329.359 581 ZM318.672 575 L329.391 575 Q329.172 572.797 328.156 571.703 Q326.609 570 324.125 570 Q321.891 570 320.359 571.359 Q318.828 572.719 318.672 575 Z" fill="#000000" fill-opacity="1.000000"/>
  <path d="M335.312 580 L338.531 580 Q338.797 581.938 340.039 582.969 Q341.281 584 343.5 584 Q345.734 584 346.82 583.164 Q347.906 582.328 347.906 581.219 Q347.906 580.203 346.953 579.625 Q346.281 579.234 343.625 578.625 Q340.047 577.719 338.664 577.047 Q337.281 576.375 336.57 575.195 Q335.859 574.016 335.859 572.594 Q335.859 571.297 336.445 570.188 Q337.031 569.078 338.047 568.359 Q338.797 567.781 340.109 567.391 Q341.422 567 342.922 567 Q345.172 567 346.875 567.727 Q348.578 568.453 349.391 569.688 Q350.203 570.922 350.516 573 L347.344 573 Q347.125 571.594 346.086 570.797 Q345.047 570 343.156 570 Q340.922 570 339.961 570.672 Q339 571.344 339 572.25 Q339 572.812 339.391 573.281 Q339.797 573.75 340.641 574.062 Q341.125 574.219 343.516 574.812 Q346.969 575.75 348.336 576.336 Q349.703 576.922 350.477 578.055 Q351.25 579.188 351.25 580.875 Q351.25 582.516 350.305 583.961 Q349.359 585.406 347.57 586.203 Q345.781 587 343.516 587 Q339.781 587 337.82 585.234 Q335.859 583.469 335.312 580 Z" fill="#000000" fill-opacity="1.000000"/>
  <path d="" fill="#000000" fill-opacity="1.000000"/>
  <path d="M361.641 587 L371.812 560 L375.578 560 L386.422 587 L382.422 587 L379.344 579 L368.266 579 L365.359 587 L361.641 587 ZM369.281 576 L378.25 576 L375.484 568.703 Q374.219 565.359 373.609 563 Q373.109 565.703 372.188 568.234 L369.281 576 Z" fill="#000000" fill-opacity="1.000000"/>
  <path d="M213.745 587.75 C206.151 587.75 199.995 581.594 199.995 574 C199.995 566.406 206.151 560.25 213.745 560.25 C221.339 560.25 227.495 566.406 227.495 574 C227.495 581.594 221.339 587.75 213.745 587.75 Z" fill="#89a54e" fill-opacity="1.000000"/>
  <path d="M250.234 631 L253.547 631 Q253.781 632.953 254.641 634.203 Q255.5 635.453 257.305 636.227 Q259.109 637 261.375 637 Q263.375 637 264.914 636.414 Q266.453 635.828 267.203 634.805 Q267.953 633.781 267.953 632.562 Q267.953 631.312 267.227 630.383 Q266.5 629.453 264.828 628.828 Q263.766 628.406 260.117 627.539 Q256.469 626.672 255 625.906 Q253.109 624.922 252.18 623.469 Q251.25 622.016 251.25 620.203 Q251.25 618.234 252.391 616.508 Q253.531 614.781 255.719 613.891 Q257.906 613 260.578 613 Q263.516 613 265.766 613.961 Q268.016 614.922 269.227 616.781 Q270.438 618.641 270.531 621 L267.172 621 Q266.906 618.531 265.336 617.266 Q263.766 616 260.719 616 Q257.531 616 256.078 617.156 Q254.625 618.312 254.625 619.938 Q254.625 621.359 255.656 622.266 Q256.672 623.188 260.945 624.148 Q265.219 625.109 266.812 625.828 Q269.125 626.875 270.227 628.484 Q271.328 630.094 271.328 632.188 Q271.328 634.266 270.117 636.109 Q268.906 637.953 266.641 638.977 Q264.375 640 261.531 640 Q257.938 640 255.508 638.945 Q253.078 637.891 251.695 635.781 Q250.312 633.672 250.234 631 Z" fill="#000000" fill-opacity="1.000000"/>
  <path d="M288.609 634 L291.969 634 Q291.172 636.844 289.023 638.422 Q286.875 640 283.531 640 Q279.328 640 276.859 637.414 Q274.391 634.828 274.391 630.156 Q274.391 625.328 276.883 622.664 Q279.375 620 283.359 620 Q287.203 620 289.641 622.656 Q292.078 625.312 292.078 630.125 Q292.078 630.422 292.062 631 L277.75 631 Q277.938 633.906 279.539 635.453 Q281.141 637 283.547 637 Q285.344 637 286.609 636.281 Q287.875 635.562 288.609 634 ZM277.922 628 L288.641 628 Q288.422 625.797 287.406 624.703 Q285.859 623 283.375 623 Q281.141 623 279.609 624.359 Q278.078 625.719 277.922 628 Z" fill="#000000" fill-opacity="1.000000"/>
  <path d="M295.828 640 L295.828 620 L298.75 620 L298.75 622.984 Q299.875 621.156 300.82 620.578 Q301.766 620 302.906 620 Q304.547 620 306.25 620.625 L305.125 623.641 Q303.938 623 302.75 623 Q301.688 623 300.836 623.672 Q299.984 624.344 299.625 625.531 Q299.078 627.344 299.078 629.5 L299.078 640 L295.828 640 Z" fill="#000000" fill-opacity="1.000000"/>
  <path d="M308.094 616 L308.094 613 L311.344 613 L311.344 616 L308.094 616 ZM308.094 640 L308.094 620 L311.344 620 L311.344 640 L308.094 640 Z" fill="#000000" fill-opacity="1.000000"/>
  <path d="M329.359 634 L332.719 634 Q331.922 636.844 329.773 638.422 Q327.625 640 324.281 640 Q320.078 640 317.609 637.414 Q315.141 634.828 315.141 630.156 Q315.141 625.328 317.633 622.664 Q320.125 620 324.109 620 Q327.953 620 330.391 622.656 Q332.828 625.312 332.828 630.125 Q332.828 630.422 332.812 631 L318.5 631 Q318.688 633.906 320.289 635.453 Q321.891 637 324.297 637 Q326.094 637 327.359 636.281 Q328.625 635.562 329.359 634 ZM318.672 628 L329.391 628 Q329.172 625.797 328.156 624.703 Q326.609 623 324.125 623 Q321.891 623 320.359 624.359 Q318.828 625.719 318.672 628 Z" fill="#000000" fill-opacity="1.000000"/>
  <path d="M335.312 633 L338.531 633 Q338.797 634.938 340.039 635.969 Q341.281 637 343.5 637 Q345.734 637 346.82 636.164 Q347.906 635.328 347.906 634.219 Q347.906 633.203 346.953 632.625 Q346.281 632.234 343.625 631.625 Q340.047 630.719 338.664 630.047 Q337.281 629.375 336.57 628.195 Q335.859 627.016 335.859 625.594 Q335.859 624.297 336.445 623.188 Q337.031 622.078 338.047 621.359 Q338.797 620.781 340.109 620.391 Q341.422 620 342.922 620 Q345.172 620 346.875 620.727 Q348.578 621.453 349.391 622.688 Q350.203 623.922 350.516 626 L347.344 626 Q347.125 624.594 346.086 623.797 Q345.047 623 343.156 623 Q340.922 623 339.961 623.672 Q339 624.344 339 625.25 Q339 625.812 339.391 626.281 Q339.797 626.75 340.641 627.062 Q341.125 627.219 343.516 627.812 Q346.969 628.75 348.336 629.336 Q349.703 629.922 350.477 631.055 Q351.25 632.188 351.25 633.875 Q351.25 635.516 350.305 636.961 Q349.359 638.406 347.57 639.203 Q345.781 640 343.516 640 Q339.781 640 337.82 638.234 Q335.859 636.469 335.312 633 Z" fill="#000000" fill-opacity="1.000000"/>
  <path d="" fill="#000000" fill-opacity="1.000000"/>
  <path d="M365.406 640 L365.406 613 L375.344 613 Q378.375 613 380.211 613.844 Q382.047 614.688 383.086 616.438 Q384.125 618.188 384.125 620.109 Q384.125 621.891 383.203 623.461 Q382.281 625.031 380.422 626 Q382.828 626.703 384.117 628.391 Q385.406 630.078 385.406 632.375 Q385.406 634.219 384.617 635.805 Q383.828 637.391 382.672 638.258 Q381.516 639.125 379.773 639.562 Q378.031 640 375.5 640 L365.406 640 ZM368.922 625 L374.656 625 Q376.984 625 377.984 624.656 Q379.328 624.203 380 623.164 Q380.672 622.125 380.672 620.562 Q380.672 619.094 380.039 617.961 Q379.406 616.828 378.234 616.414 Q377.062 616 374.203 616 L368.922 616 L368.922 625 ZM368.922 637 L375.516 637 Q377.219 637 377.891 636.875 Q379.109 636.656 379.922 636.156 Q380.734 635.656 381.258 634.703 Q381.781 633.75 381.781 632.5 Q381.781 631.031 381.023 629.953 Q380.266 628.875 378.922 628.438 Q377.578 628 375.047 628 L368.922 628 L368.922 637 Z" fill="#000000" fill-opacity="1.000000"/>
  <path d="M213.745 640.75 C206.151 640.75 199.995 634.594 199.995 627 C199.995 619.406 206.151 613.25 213.745 613.25 C221.339 613.25 227.495 619.406 227.495 627 C227.495 634.594 221.339 640.75 213.745 640.75 Z" fill="#3d96ae" fill-opacity="1.000000"/>
</svg>