<?xml version="1.0" encoding="UTF-8" ?>
<!-- Generated by clip v0.8.0 (clip-lang.org) -->
<svg xmlns="http://www.w3.org/2000/svg" width="2048" height="1200">
  <rect width="2048" height="1200" fill="#ffffff" fill-opacity="1"/>
  <path d="M119.000 108 L1929 108" fill="none" stroke="#000000" stroke-width="3.333"/>
  <path d="M119.000 121.333 L119.000 108" fill="none" stroke="#000000" stroke-width="3.333"/>
  <path d="M300.000 121.333 L300.000 108" fill="none" stroke="#000000" stroke-width="3.333"/>
  <path d="M481.000 121.333 L481.000 108" fill="none" stroke="#000000" stroke-width="3.333"/>
  <path d="M662.000 121.333 L662.000 108" fill="none" stroke="#000000" stroke-width="3.333"/>
  <path d="M843.000 121.333 L843.000 108" fill="none" stroke="#000000" stroke-width="3.333"/>
  <path d="M1024 121.333 L1024 108" fill="none" stroke="#000000" stroke-width="3.333"/>
  <path d="M1205.000 121.333 L1205.000 108" fill="none" stroke="#000000" stroke-width="3.333"/>
  <path d="M1386.000 121.333 L1386.000 108" fill="none" stroke="#000000" stroke-width="3.333"/>
  <path d="M1567.000 121.333 L1567.000 108" fill="none" stroke="#000000" stroke-width="3.333"/>
  <path d="M1748.000 121.333 L1748.000 108" fill="none" stroke="#000000" stroke-width="3.333"/>
  <path d="M1929 121.333 L1929 108" fill="none" stroke="#000000" stroke-width="3.333"/>
  <path d="M107.297 70.667 L104.047 70.667 L104.047 49.635 Q102.875 50.776 100.969 51.909 Q99.063 53.042 97.547 53.604 L97.547 50.417 Q100.281 49.120 102.320 47.268 Q104.359 45.417 105.203 43.667 L107.297 43.667 L107.297 70.667 Z"/>
  <path d="M117.266 70.667 L117.266 67.667 L120.969 67.667 L120.969 70.667 L117.266 70.667 Z"/>
  <path d="M125.625 57.182 Q125.625 52.479 126.594 49.628 Q127.563 46.776 129.469 45.221 Q131.375 43.667 134.266 43.667 Q136.406 43.667 138.008 44.526 Q139.609 45.385 140.664 46.995 Q141.719 48.604 142.312 50.924 Q142.906 53.245 142.906 57.182 Q142.906 61.823 141.945 64.682 Q140.984 67.542 139.078 69.104 Q137.172 70.667 134.266 70.667 Q130.438 70.667 128.250 67.932 Q125.625 64.620 125.625 57.182 Z M128.969 57.167 Q128.969 63.479 130.500 65.573 Q132.031 67.667 134.266 67.667 Q136.500 67.667 138.031 65.565 Q139.562 63.464 139.562 57.167 Q139.562 50.839 138.031 48.753 Q136.500 46.667 134.234 46.667 Q131.984 46.667 130.656 48.510 Q128.969 50.854 128.969 57.167 Z"/>
  <path d="M288.297 70.667 L285.047 70.667 L285.047 49.635 Q283.875 50.776 281.969 51.909 Q280.063 53.042 278.547 53.604 L278.547 50.417 Q281.281 49.120 283.320 47.268 Q285.359 45.417 286.203 43.667 L288.297 43.667 L288.297 70.667 Z"/>
  <path d="M298.266 70.667 L298.266 67.667 L301.969 67.667 L301.969 70.667 L298.266 70.667 Z"/>
  <path d="M317.047 70.667 L317.047 64.667 L305.563 64.667 L305.563 61.667 L317.656 43.667 L320.313 43.667 L320.313 61.667 L323.891 61.667 L323.891 64.667 L320.313 64.667 L320.313 70.667 L317.047 70.667 Z M317.047 61.667 L317.047 49.339 L308.766 61.667 L317.047 61.667 Z"/>
  <path d="M469.297 70.667 L466.047 70.667 L466.047 49.635 Q464.875 50.776 462.969 51.909 Q461.063 53.042 459.547 53.604 L459.547 50.417 Q462.281 49.120 464.320 47.268 Q466.359 45.417 467.203 43.667 L469.297 43.667 L469.297 70.667 Z"/>
  <path d="M479.266 70.667 L479.266 67.667 L482.969 67.667 L482.969 70.667 L479.266 70.667 Z"/>
  <path d="M492.641 56.073 Q490.609 55.323 489.633 53.932 Q488.656 52.542 488.656 50.589 Q488.656 47.667 490.734 45.667 Q492.813 43.667 496.266 43.667 Q499.734 43.667 501.852 45.714 Q503.969 47.760 503.969 50.682 Q503.969 52.557 503.000 53.940 Q502.031 55.323 500.063 56.073 Q502.500 56.854 503.773 58.596 Q505.047 60.339 505.047 62.760 Q505.047 66.104 502.641 68.385 Q500.234 70.667 496.313 70.667 Q492.406 70.667 490.000 68.378 Q487.594 66.089 487.594 62.682 Q487.594 60.135 488.906 58.417 Q490.219 56.698 492.641 56.073 Z M491.984 50.557 Q491.984 52.370 493.195 53.518 Q494.406 54.667 496.344 54.667 Q498.219 54.667 499.422 53.526 Q500.625 52.385 500.625 50.729 Q500.625 49.010 499.391 47.839 Q498.156 46.667 496.313 46.667 Q494.438 46.667 493.211 47.815 Q491.984 48.964 491.984 50.557 Z M490.938 62.620 Q490.938 63.917 491.594 65.128 Q492.250 66.339 493.555 67.003 Q494.859 67.667 496.359 67.667 Q498.688 67.667 500.203 66.268 Q501.719 64.870 501.719 62.714 Q501.719 60.526 500.156 59.096 Q498.594 57.667 496.250 57.667 Q493.953 57.667 492.445 59.081 Q490.938 60.495 490.938 62.620 Z"/>
  <path d="M655.141 67.667 L655.141 70.667 L637.641 70.667 Q637.594 69.542 638.016 68.495 Q638.688 66.776 640.156 65.112 Q641.625 63.448 644.406 61.073 Q648.734 57.385 650.250 55.284 Q651.766 53.182 651.766 51.323 Q651.766 49.354 650.383 48.010 Q649.000 46.667 646.781 46.667 Q644.438 46.667 643.023 47.729 Q641.609 48.792 641.594 50.667 L638.250 50.667 Q638.594 47.245 640.836 45.456 Q643.078 43.667 646.844 43.667 Q650.672 43.667 652.891 45.839 Q655.109 48.010 655.109 51.229 Q655.109 52.870 654.461 54.448 Q653.813 56.026 652.297 57.776 Q650.781 59.526 647.281 62.510 Q644.359 64.995 643.531 65.885 Q642.703 66.776 642.156 67.667 L655.141 67.667 Z"/>
  <path d="M660.266 70.667 L660.266 67.667 L663.969 67.667 L663.969 70.667 L660.266 70.667 Z"/>
  <path d="M685.719 67.667 L685.719 70.667 L668.219 70.667 Q668.172 69.542 668.594 68.495 Q669.266 66.776 670.734 65.112 Q672.203 63.448 674.984 61.073 Q679.313 57.385 680.828 55.284 Q682.344 53.182 682.344 51.323 Q682.344 49.354 680.961 48.010 Q679.578 46.667 677.359 46.667 Q675.016 46.667 673.602 47.729 Q672.188 48.792 672.172 50.667 L668.828 50.667 Q669.172 47.245 671.414 45.456 Q673.656 43.667 677.422 43.667 Q681.250 43.667 683.469 45.839 Q685.688 48.010 685.688 51.229 Q685.688 52.870 685.039 54.448 Q684.391 56.026 682.875 57.776 Q681.359 59.526 677.859 62.510 Q674.938 64.995 674.109 65.885 Q673.281 66.776 672.734 67.667 L685.719 67.667 Z"/>
  <path d="M836.141 67.667 L836.141 70.667 L818.641 70.667 Q818.594 69.542 819.016 68.495 Q819.688 66.776 821.156 65.112 Q822.625 63.448 825.406 61.073 Q829.734 57.385 831.250 55.284 Q832.766 53.182 832.766 51.323 Q832.766 49.354 831.383 48.010 Q830.000 46.667 827.781 46.667 Q825.438 46.667 824.023 47.729 Q822.609 48.792 822.594 50.667 L819.250 50.667 Q819.594 47.245 821.836 45.456 Q824.078 43.667 827.844 43.667 Q831.672 43.667 833.891 45.839 Q836.109 48.010 836.109 51.229 Q836.109 52.870 835.461 54.448 Q834.813 56.026 833.297 57.776 Q831.781 59.526 828.281 62.510 Q825.359 64.995 824.531 65.885 Q823.703 66.776 823.156 67.667 L836.141 67.667 Z"/>
  <path d="M841.266 70.667 L841.266 67.667 L844.969 67.667 L844.969 70.667 L841.266 70.667 Z"/>
  <path d="M866.500 50.667 L863.266 50.667 Q862.828 48.839 862.031 47.995 Q860.719 46.667 858.781 46.667 Q857.234 46.667 856.063 47.432 Q854.531 48.432 853.641 50.346 Q852.750 52.260 852.719 56.198 Q853.891 54.401 855.586 53.534 Q857.281 52.667 859.156 52.667 Q862.406 52.667 864.688 55.112 Q866.969 57.557 866.969 61.432 Q866.969 63.979 865.891 66.159 Q864.813 68.339 862.938 69.503 Q861.063 70.667 858.672 70.667 Q854.609 70.667 852.047 67.682 Q849.484 64.698 849.484 57.839 Q849.484 50.182 852.328 46.698 Q854.797 43.667 858.984 43.667 Q862.109 43.667 864.109 45.526 Q866.109 47.385 866.500 50.667 Z M853.219 61.354 Q853.219 63.026 853.930 64.549 Q854.641 66.073 855.930 66.870 Q857.219 67.667 858.625 67.667 Q860.688 67.667 862.172 66.018 Q863.656 64.370 863.656 61.526 Q863.656 58.807 862.188 57.237 Q860.719 55.667 858.500 55.667 Q856.297 55.667 854.758 57.237 Q853.219 58.807 853.219 61.354 Z"/>
  <path d="M1000.062 63.667 L1003.328 63.667 Q1003.891 65.792 1005.234 66.729 Q1006.578 67.667 1008.516 67.667 Q1010.812 67.667 1012.391 66.128 Q1013.969 64.589 1013.969 62.307 Q1013.969 60.135 1012.508 58.714 Q1011.047 57.292 1008.781 57.292 Q1007.859 57.292 1006.484 57.667 L1006.844 54.667 Q1007.172 54.698 1007.375 54.698 Q1009.453 54.698 1011.109 53.682 Q1012.766 52.667 1012.766 50.542 Q1012.766 48.870 1011.555 47.768 Q1010.344 46.667 1008.422 46.667 Q1006.531 46.667 1005.266 47.667 Q1004 48.667 1003.641 50.667 L1000.391 50.667 Q1000.984 47.339 1003.102 45.503 Q1005.219 43.667 1008.359 43.667 Q1010.531 43.667 1012.352 44.589 Q1014.172 45.510 1015.141 47.096 Q1016.109 48.682 1016.109 50.464 Q1016.109 52.151 1015.188 53.542 Q1014.266 54.932 1012.469 55.760 Q1014.812 56.307 1016.109 58.026 Q1017.406 59.745 1017.406 62.323 Q1017.406 65.807 1014.875 68.237 Q1012.344 70.667 1008.484 70.667 Q1005 70.667 1002.695 68.721 Q1000.391 66.776 1000.062 63.667 Z"/>
  <path d="M1022.266 70.667 L1022.266 67.667 L1025.969 67.667 L1025.969 70.667 L1022.266 70.667 Z"/>
  <path d="M1030.625 57.182 Q1030.625 52.479 1031.594 49.628 Q1032.562 46.776 1034.469 45.221 Q1036.375 43.667 1039.266 43.667 Q1041.406 43.667 1043.008 44.526 Q1044.609 45.385 1045.664 46.995 Q1046.719 48.604 1047.312 50.924 Q1047.906 53.245 1047.906 57.182 Q1047.906 61.823 1046.945 64.682 Q1045.984 67.542 1044.078 69.104 Q1042.172 70.667 1039.266 70.667 Q1035.438 70.667 1033.250 67.932 Q1030.625 64.620 1030.625 57.182 Z M1033.969 57.167 Q1033.969 63.479 1035.500 65.573 Q1037.031 67.667 1039.266 67.667 Q1041.500 67.667 1043.031 65.565 Q1044.562 63.464 1044.562 57.167 Q1044.562 50.839 1043.031 48.753 Q1041.500 46.667 1039.234 46.667 Q1036.984 46.667 1035.656 48.510 Q1033.969 50.854 1033.969 57.167 Z"/>
  <path d="M1181.063 63.667 L1184.328 63.667 Q1184.891 65.792 1186.234 66.729 Q1187.578 67.667 1189.516 67.667 Q1191.813 67.667 1193.391 66.128 Q1194.969 64.589 1194.969 62.307 Q1194.969 60.135 1193.508 58.714 Q1192.047 57.292 1189.781 57.292 Q1188.859 57.292 1187.484 57.667 L1187.844 54.667 Q1188.172 54.698 1188.375 54.698 Q1190.453 54.698 1192.109 53.682 Q1193.766 52.667 1193.766 50.542 Q1193.766 48.870 1192.555 47.768 Q1191.344 46.667 1189.422 46.667 Q1187.531 46.667 1186.266 47.667 Q1185.000 48.667 1184.641 50.667 L1181.391 50.667 Q1181.984 47.339 1184.102 45.503 Q1186.219 43.667 1189.359 43.667 Q1191.531 43.667 1193.352 44.589 Q1195.172 45.510 1196.141 47.096 Q1197.109 48.682 1197.109 50.464 Q1197.109 52.151 1196.188 53.542 Q1195.266 54.932 1193.469 55.760 Q1195.813 56.307 1197.109 58.026 Q1198.406 59.745 1198.406 62.323 Q1198.406 65.807 1195.875 68.237 Q1193.344 70.667 1189.484 70.667 Q1186.000 70.667 1183.695 68.721 Q1181.391 66.776 1181.063 63.667 Z"/>
  <path d="M1203.266 70.667 L1203.266 67.667 L1206.969 67.667 L1206.969 70.667 L1203.266 70.667 Z"/>
  <path d="M1222.047 70.667 L1222.047 64.667 L1210.563 64.667 L1210.563 61.667 L1222.656 43.667 L1225.313 43.667 L1225.313 61.667 L1228.891 61.667 L1228.891 64.667 L1225.313 64.667 L1225.313 70.667 L1222.047 70.667 Z M1222.047 61.667 L1222.047 49.339 L1213.766 61.667 L1222.047 61.667 Z"/>
  <path d="M1362.062 63.667 L1365.328 63.667 Q1365.891 65.792 1367.234 66.729 Q1368.578 67.667 1370.516 67.667 Q1372.812 67.667 1374.391 66.128 Q1375.969 64.589 1375.969 62.307 Q1375.969 60.135 1374.508 58.714 Q1373.047 57.292 1370.781 57.292 Q1369.859 57.292 1368.484 57.667 L1368.844 54.667 Q1369.172 54.698 1369.375 54.698 Q1371.453 54.698 1373.109 53.682 Q1374.766 52.667 1374.766 50.542 Q1374.766 48.870 1373.555 47.768 Q1372.344 46.667 1370.422 46.667 Q1368.531 46.667 1367.266 47.667 Q1366.000 48.667 1365.641 50.667 L1362.391 50.667 Q1362.984 47.339 1365.102 45.503 Q1367.219 43.667 1370.359 43.667 Q1372.531 43.667 1374.352 44.589 Q1376.172 45.510 1377.141 47.096 Q1378.109 48.682 1378.109 50.464 Q1378.109 52.151 1377.187 53.542 Q1376.266 54.932 1374.469 55.760 Q1376.812 56.307 1378.109 58.026 Q1379.406 59.745 1379.406 62.323 Q1379.406 65.807 1376.875 68.237 Q1374.344 70.667 1370.484 70.667 Q1367.000 70.667 1364.695 68.721 Q1362.391 66.776 1362.062 63.667 Z"/>
  <path d="M1384.266 70.667 L1384.266 67.667 L1387.969 67.667 L1387.969 70.667 L1384.266 70.667 Z"/>
  <path d="M1397.641 56.073 Q1395.609 55.323 1394.633 53.932 Q1393.656 52.542 1393.656 50.589 Q1393.656 47.667 1395.734 45.667 Q1397.812 43.667 1401.266 43.667 Q1404.734 43.667 1406.852 45.714 Q1408.969 47.760 1408.969 50.682 Q1408.969 52.557 1408.000 53.940 Q1407.031 55.323 1405.062 56.073 Q1407.500 56.854 1408.773 58.596 Q1410.047 60.339 1410.047 62.760 Q1410.047 66.104 1407.641 68.385 Q1405.234 70.667 1401.312 70.667 Q1397.406 70.667 1395.000 68.378 Q1392.594 66.089 1392.594 62.682 Q1392.594 60.135 1393.906 58.417 Q1395.219 56.698 1397.641 56.073 Z M1396.984 50.557 Q1396.984 52.370 1398.195 53.518 Q1399.406 54.667 1401.344 54.667 Q1403.219 54.667 1404.422 53.526 Q1405.625 52.385 1405.625 50.729 Q1405.625 49.010 1404.391 47.839 Q1403.156 46.667 1401.312 46.667 Q1399.437 46.667 1398.211 47.815 Q1396.984 48.964 1396.984 50.557 Z M1395.937 62.620 Q1395.937 63.917 1396.594 65.128 Q1397.250 66.339 1398.555 67.003 Q1399.859 67.667 1401.359 67.667 Q1403.687 67.667 1405.203 66.268 Q1406.719 64.870 1406.719 62.714 Q1406.719 60.526 1405.156 59.096 Q1403.594 57.667 1401.250 57.667 Q1398.953 57.667 1397.445 59.081 Q1395.937 60.495 1395.937 62.620 Z"/>
  <path d="M1553.469 70.667 L1553.469 64.667 L1541.984 64.667 L1541.984 61.667 L1554.078 43.667 L1556.734 43.667 L1556.734 61.667 L1560.313 61.667 L1560.313 64.667 L1556.734 64.667 L1556.734 70.667 L1553.469 70.667 Z M1553.469 61.667 L1553.469 49.339 L1545.188 61.667 L1553.469 61.667 Z"/>
  <path d="M1565.266 70.667 L1565.266 67.667 L1568.969 67.667 L1568.969 70.667 L1565.266 70.667 Z"/>
  <path d="M1590.719 67.667 L1590.719 70.667 L1573.219 70.667 Q1573.172 69.542 1573.594 68.495 Q1574.266 66.776 1575.734 65.112 Q1577.203 63.448 1579.984 61.073 Q1584.313 57.385 1585.828 55.284 Q1587.344 53.182 1587.344 51.323 Q1587.344 49.354 1585.961 48.010 Q1584.578 46.667 1582.359 46.667 Q1580.016 46.667 1578.602 47.729 Q1577.188 48.792 1577.172 50.667 L1573.828 50.667 Q1574.172 47.245 1576.414 45.456 Q1578.656 43.667 1582.422 43.667 Q1586.250 43.667 1588.469 45.839 Q1590.688 48.010 1590.688 51.229 Q1590.688 52.870 1590.039 54.448 Q1589.391 56.026 1587.875 57.776 Q1586.359 59.526 1582.859 62.510 Q1579.938 64.995 1579.109 65.885 Q1578.281 66.776 1577.734 67.667 L1590.719 67.667 Z"/>
  <path d="M1734.469 70.667 L1734.469 64.667 L1722.984 64.667 L1722.984 61.667 L1735.078 43.667 L1737.734 43.667 L1737.734 61.667 L1741.313 61.667 L1741.313 64.667 L1737.734 64.667 L1737.734 70.667 L1734.469 70.667 Z M1734.469 61.667 L1734.469 49.339 L1726.188 61.667 L1734.469 61.667 Z"/>
  <path d="M1746.266 70.667 L1746.266 67.667 L1749.969 67.667 L1749.969 70.667 L1746.266 70.667 Z"/>
  <path d="M1771.500 50.667 L1768.266 50.667 Q1767.828 48.839 1767.031 47.995 Q1765.719 46.667 1763.781 46.667 Q1762.234 46.667 1761.063 47.432 Q1759.531 48.432 1758.641 50.346 Q1757.750 52.260 1757.719 56.198 Q1758.891 54.401 1760.586 53.534 Q1762.281 52.667 1764.156 52.667 Q1767.406 52.667 1769.688 55.112 Q1771.969 57.557 1771.969 61.432 Q1771.969 63.979 1770.891 66.159 Q1769.813 68.339 1767.938 69.503 Q1766.063 70.667 1763.672 70.667 Q1759.609 70.667 1757.047 67.682 Q1754.484 64.698 1754.484 57.839 Q1754.484 50.182 1757.328 46.698 Q1759.797 43.667 1763.984 43.667 Q1767.109 43.667 1769.109 45.526 Q1771.109 47.385 1771.500 50.667 Z M1758.219 61.354 Q1758.219 63.026 1758.930 64.549 Q1759.641 66.073 1760.930 66.870 Q1762.219 67.667 1763.625 67.667 Q1765.688 67.667 1767.172 66.018 Q1768.656 64.370 1768.656 61.526 Q1768.656 58.807 1767.188 57.237 Q1765.719 55.667 1763.500 55.667 Q1761.297 55.667 1759.758 57.237 Q1758.219 58.807 1758.219 61.354 Z"/>
  <path d="M1905.047 63.667 L1908.469 63.667 Q1908.844 65.667 1910.227 66.667 Q1911.609 67.667 1913.562 67.667 Q1915.906 67.667 1917.531 65.964 Q1919.156 64.260 1919.156 61.448 Q1919.156 58.760 1917.594 57.214 Q1916.031 55.667 1913.500 55.667 Q1911.938 55.667 1910.672 56.221 Q1909.406 56.776 1908.688 57.667 L1905.625 57.667 L1908.188 43.667 L1921.359 43.667 L1921.359 46.667 L1910.797 46.667 L1909.375 54.401 Q1911.766 52.667 1914.375 52.667 Q1917.844 52.667 1920.227 55.065 Q1922.609 57.464 1922.609 61.245 Q1922.609 64.839 1920.516 67.448 Q1917.969 70.667 1913.562 70.667 Q1909.938 70.667 1907.656 68.753 Q1905.375 66.839 1905.047 63.667 Z"/>
  <path d="M1927.266 70.667 L1927.266 67.667 L1930.969 67.667 L1930.969 70.667 L1927.266 70.667 Z"/>
  <path d="M1935.625 57.182 Q1935.625 52.479 1936.594 49.628 Q1937.562 46.776 1939.469 45.221 Q1941.375 43.667 1944.266 43.667 Q1946.406 43.667 1948.008 44.526 Q1949.609 45.385 1950.664 46.995 Q1951.719 48.604 1952.312 50.924 Q1952.906 53.245 1952.906 57.182 Q1952.906 61.823 1951.945 64.682 Q1950.984 67.542 1949.078 69.104 Q1947.172 70.667 1944.266 70.667 Q1940.438 70.667 1938.250 67.932 Q1935.625 64.620 1935.625 57.182 Z M1938.969 57.167 Q1938.969 63.479 1940.500 65.573 Q1942.031 67.667 1944.266 67.667 Q1946.500 67.667 1948.031 65.565 Q1949.562 63.464 1949.562 57.167 Q1949.562 50.839 1948.031 48.753 Q1946.500 46.667 1944.234 46.667 Q1941.984 46.667 1940.656 48.510 Q1938.969 50.854 1938.969 57.167 Z"/>
  <path d="M1929 1092 L1929 108" fill="none" stroke="#000000" stroke-width="3.333"/>
  <path d="M1915.667 1092 L1929 1092" fill="none" stroke="#000000" stroke-width="3.333"/>
  <path d="M1915.667 1017.947 L1929 1017.947" fill="none" stroke="#000000" stroke-width="3.333"/>
  <path d="M1915.667 974.628 L1929 974.628" fill="none" stroke="#000000" stroke-width="3.333"/>
  <path d="M1915.667 943.893 L1929 943.893" fill="none" stroke="#000000" stroke-width="3.333"/>
  <path d="M1915.667 920.053 L1929 920.053" fill="none" stroke="#000000" stroke-width="3.333"/>
  <path d="M1915.667 900.575 L1929 900.575" fill="none" stroke="#000000" stroke-width="3.333"/>
  <path d="M1915.667 884.106 L1929 884.106" fill="none" stroke="#000000" stroke-width="3.333"/>
  <path d="M1915.667 869.840 L1929 869.840" fill="none" stroke="#000000" stroke-width="3.333"/>
  <path d="M1915.667 857.256 L1929 857.256" fill="none" stroke="#000000" stroke-width="3.333"/>
  <path d="M1915.667 846 L1929 846" fill="none" stroke="#000000" stroke-width="3.333"/>
  <path d="M1915.667 771.947 L1929 771.947" fill="none" stroke="#000000" stroke-width="3.333"/>
  <path d="M1915.667 728.628 L1929 728.628" fill="none" stroke="#000000" stroke-width="3.333"/>
  <path d="M1915.667 697.893 L1929 697.893" fill="none" stroke="#000000" stroke-width="3.333"/>
  <path d="M1915.667 674.053 L1929 674.053" fill="none" stroke="#000000" stroke-width="3.333"/>
  <path d="M1915.667 654.575 L1929 654.575" fill="none" stroke="#000000" stroke-width="3.333"/>
  <path d="M1915.667 638.106 L1929 638.106" fill="none" stroke="#000000" stroke-width="3.333"/>
  <path d="M1915.667 623.840 L1929 623.840" fill="none" stroke="#000000" stroke-width="3.333"/>
  <path d="M1915.667 611.256 L1929 611.256" fill="none" stroke="#000000" stroke-width="3.333"/>
  <path d="M1915.667 600 L1929 600" fill="none" stroke="#000000" stroke-width="3.333"/>
  <path d="M1915.667 525.947 L1929 525.947" fill="none" stroke="#000000" stroke-width="3.333"/>
  <path d="M1915.667 482.628 L1929 482.628" fill="none" stroke="#000000" stroke-width="3.333"/>
  <path d="M1915.667 451.893 L1929 451.893" fill="none" stroke="#000000" stroke-width="3.333"/>
  <path d="M1915.667 428.053 L1929 428.053" fill="none" stroke="#000000" stroke-width="3.333"/>
  <path d="M1915.667 408.575 L1929 408.575" fill="none" stroke="#000000" stroke-width="3.333"/>
  <path d="M1915.667 392.106 L1929 392.106" fill="none" stroke="#000000" stroke-width="3.333"/>
  <path d="M1915.667 377.840 L1929 377.840" fill="none" stroke="#000000" stroke-width="3.333"/>
  <path d="M1915.667 365.256 L1929 365.256" fill="none" stroke="#000000" stroke-width="3.333"/>
  <path d="M1915.667 354.000 L1929 354.000" fill="none" stroke="#000000" stroke-width="3.333"/>
  <path d="M1915.667 279.947 L1929 279.947" fill="none" stroke="#000000" stroke-width="3.333"/>
  <path d="M1915.667 236.628 L1929 236.628" fill="none" stroke="#000000" stroke-width="3.333"/>
  <path d="M1915.667 205.893 L1929 205.893" fill="none" stroke="#000000" stroke-width="3.333"/>
  <path d="M1915.667 182.053 L1929 182.053" fill="none" stroke="#000000" stroke-width="3.333"/>
  <path d="M1915.667 162.575 L1929 162.575" fill="none" stroke="#000000" stroke-width="3.333"/>
  <path d="M1915.667 146.106 L1929 146.106" fill="none" stroke="#000000" stroke-width="3.333"/>
  <path d="M1915.667 131.840 L1929 131.840" fill="none" stroke="#000000" stroke-width="3.333"/>
  <path d="M1915.667 119.256 L1929 119.256" fill="none" stroke="#000000" stroke-width="3.333"/>
  <path d="M1915.667 108 L1929 108" fill="none" stroke="#000000" stroke-width="3.333"/>
  <path d="M1967.818 1081.625 L1967.818 1100.500 L1971.052 1100.500 L1971.052 1074 L1968.927 1074 C1967.786 1078.062 1967.052 1078.625 1962.068 1079.281 L1962.068 1081.625 L1967.818 1081.625 Z"/>
  <path d="M1988.802 1074.500 C1986.380 1074.500 1984.177 1075.609 1982.818 1077.406 C1981.130 1079.609 1980.286 1082.906 1980.286 1087.516 C1980.286 1095.906 1983.224 1100.500 1988.802 1100.500 C1994.302 1100.500 1997.302 1095.906 1997.302 1087.719 C1997.302 1082.906 1996.505 1079.672 1994.771 1077.406 C1993.427 1075.578 1991.255 1074.500 1988.802 1074.500 Z M1988.802 1077.375 C1992.286 1077.375 1994.005 1080.703 1994.005 1087.438 C1994.005 1094.531 1992.318 1097.828 1988.724 1097.828 C1985.318 1097.828 1983.599 1094.391 1983.599 1087.547 C1983.599 1080.703 1985.318 1077.375 1988.802 1077.375 Z"/>
  <path d="M2005.115 1074.500 C2001.568 1074.500 1999.661 1077.281 1999.661 1082.484 C1999.661 1087.734 2001.568 1090.500 2005.161 1090.500 C2008.677 1090.500 2010.615 1087.734 2010.615 1082.641 C2010.615 1077.250 2008.755 1074.500 2005.115 1074.500 Z M2005.115 1076.453 C2007.240 1076.453 2008.318 1078.453 2008.318 1082.453 C2008.318 1086.703 2007.286 1088.672 2005.083 1088.672 C2002.990 1088.672 2001.974 1086.594 2001.974 1082.531 C2001.974 1078.422 2002.990 1076.453 2005.115 1076.453 Z"/>
  <path d="M1972.115 859 L1968.865 859 L1968.865 837.969 Q1967.693 839.109 1965.786 840.242 Q1963.880 841.375 1962.365 841.938 L1962.365 838.750 Q1965.099 837.453 1967.138 835.602 Q1969.177 833.750 1970.021 832 L1972.115 832 L1972.115 859 Z"/>
  <path d="M1980.255 845.516 Q1980.255 840.812 1981.224 837.961 Q1982.193 835.109 1984.099 833.555 Q1986.005 832 1988.896 832 Q1991.036 832 1992.638 832.859 Q1994.240 833.719 1995.294 835.328 Q1996.349 836.938 1996.943 839.258 Q1997.536 841.578 1997.536 845.516 Q1997.536 850.156 1996.576 853.016 Q1995.615 855.875 1993.708 857.438 Q1991.802 859 1988.896 859 Q1985.068 859 1982.880 856.266 Q1980.255 852.953 1980.255 845.516 Z M1983.599 845.500 Q1983.599 851.812 1985.130 853.906 Q1986.661 856 1988.896 856 Q1991.130 856 1992.661 853.898 Q1994.193 851.797 1994.193 845.500 Q1994.193 839.172 1992.661 837.086 Q1991.130 835 1988.865 835 Q1986.615 835 1985.286 836.844 Q1983.599 839.188 1983.599 845.500 Z"/>
  <path d="M2005.099 846 L2005.099 835.250 Q2003.255 837.219 2001.052 838 L2001.052 835 Q2002.177 834.672 2003.552 833.828 Q2004.927 832.984 2005.771 832 L2007.708 832 L2007.708 846 L2005.099 846 Z"/>
  <path d="M1972.115 613 L1968.865 613 L1968.865 591.969 Q1967.693 593.109 1965.786 594.242 Q1963.880 595.375 1962.365 595.938 L1962.365 592.750 Q1965.099 591.453 1967.138 589.602 Q1969.177 587.750 1970.021 586 L1972.115 586 L1972.115 613 Z"/>
  <path d="M1980.255 599.516 Q1980.255 594.812 1981.224 591.961 Q1982.193 589.109 1984.099 587.555 Q1986.005 586 1988.896 586 Q1991.036 586 1992.638 586.859 Q1994.240 587.719 1995.294 589.328 Q1996.349 590.938 1996.943 593.258 Q1997.536 595.578 1997.536 599.516 Q1997.536 604.156 1996.576 607.016 Q1995.615 609.875 1993.708 611.438 Q1991.802 613 1988.896 613 Q1985.068 613 1982.880 610.266 Q1980.255 606.953 1980.255 599.516 Z M1983.599 599.500 Q1983.599 605.812 1985.130 607.906 Q1986.661 610 1988.896 610 Q1991.130 610 1992.661 607.898 Q1994.193 605.797 1994.193 599.500 Q1994.193 593.172 1992.661 591.086 Q1991.130 589 1988.865 589 Q1986.615 589 1985.286 590.844 Q1983.599 593.188 1983.599 599.500 Z"/>
  <path d="M1999.568 600 Q1999.677 598.922 2000.411 597.844 Q2001.552 596.203 2004.154 594.227 Q2006.755 592.250 2007.240 591.672 Q2007.911 590.906 2007.911 590.078 Q2007.911 589.172 2007.279 588.586 Q2006.646 588 2005.427 588 Q2004.224 588 2003.638 588.414 Q2003.052 588.828 2002.677 590 L1999.943 590 Q2000.474 587.938 2001.763 586.969 Q2003.052 586 2005.474 586 Q2008.208 586 2009.482 587.125 Q2010.755 588.250 2010.755 589.875 Q2010.755 591.484 2009.693 592.922 Q2008.865 593.984 2005.974 596.188 Q2004.474 597.328 2003.849 598 L2010.818 598 L2010.818 600 L1999.568 600 Z"/>
  <path d="M1972.115 367.000 L1968.865 367.000 L1968.865 345.969 Q1967.693 347.109 1965.786 348.242 Q1963.880 349.375 1962.365 349.938 L1962.365 346.750 Q1965.099 345.453 1967.138 343.602 Q1969.177 341.750 1970.021 340.000 L1972.115 340.000 L1972.115 367.000 Z"/>
  <path d="M1980.255 353.516 Q1980.255 348.813 1981.224 345.961 Q1982.193 343.109 1984.099 341.555 Q1986.005 340.000 1988.896 340.000 Q1991.036 340.000 1992.638 340.859 Q1994.240 341.719 1995.294 343.328 Q1996.349 344.938 1996.943 347.258 Q1997.536 349.578 1997.536 353.516 Q1997.536 358.156 1996.576 361.016 Q1995.615 363.875 1993.708 365.438 Q1991.802 367.000 1988.896 367.000 Q1985.068 367.000 1982.880 364.266 Q1980.255 360.953 1980.255 353.516 Z M1983.599 353.500 Q1983.599 359.813 1985.130 361.906 Q1986.661 364.000 1988.896 364.000 Q1991.130 364.000 1992.661 361.898 Q1994.193 359.797 1994.193 353.500 Q1994.193 347.172 1992.661 345.086 Q1991.130 343.000 1988.865 343.000 Q1986.615 343.000 1985.286 344.844 Q1983.599 347.188 1983.599 353.500 Z"/>
  <path d="M1999.568 354.000 Q1999.677 352.922 2000.411 351.844 Q2001.552 350.203 2004.154 348.227 Q2006.755 346.250 2007.240 345.672 Q2007.911 344.906 2007.911 344.078 Q2007.911 343.172 2007.279 342.586 Q2006.646 342.000 2005.427 342.000 Q2004.224 342.000 2003.638 342.414 Q2003.052 342.828 2002.677 344.000 L1999.943 344.000 Q2000.474 341.938 2001.763 340.969 Q2003.052 340.000 2005.474 340.000 Q2008.208 340.000 2009.482 341.125 Q2010.755 342.250 2010.755 343.875 Q2010.755 345.484 2009.693 346.922 Q2008.865 347.984 2005.974 350.188 Q2004.474 351.328 2003.849 352.000 L2010.818 352.000 L2010.818 354.000 L1999.568 354.000 Z"/>
  <path d="M1967.818 97.625 L1967.818 116.500 L1971.052 116.500 L1971.052 90 L1968.927 90 C1967.786 94.062 1967.052 94.625 1962.068 95.281 L1962.068 97.625 L1967.818 97.625 Z"/>
  <path d="M1988.802 90.500 C1986.380 90.500 1984.177 91.609 1982.818 93.406 C1981.130 95.609 1980.286 98.906 1980.286 103.516 C1980.286 111.906 1983.224 116.500 1988.802 116.500 C1994.302 116.500 1997.302 111.906 1997.302 103.719 C1997.302 98.906 1996.505 95.672 1994.771 93.406 C1993.427 91.578 1991.255 90.500 1988.802 90.500 Z M1988.802 93.375 C1992.286 93.375 1994.005 96.703 1994.005 103.438 C1994.005 110.531 1992.318 113.828 1988.724 113.828 C1985.318 113.828 1983.599 110.391 1983.599 103.547 C1983.599 96.703 1985.318 93.375 1988.802 93.375 Z"/>
  <path d="M2006.177 102.453 L2006.177 106.125 L2008.458 106.125 L2008.458 102.453 L2010.911 102.453 L2010.911 100.500 L2008.458 100.500 L2008.458 90.531 L2006.771 90.531 L1999.286 100.281 L1999.286 102.453 L2006.177 102.453 Z M2006.177 100.500 L2001.458 100.500 L2006.177 94.281 L2006.177 100.500 Z"/>
  <path d="M119.000 1092 L1929 1092" fill="none" stroke="#000000" stroke-width="3.333"/>
  <path d="M119.000 1092 L119.000 1078.667" fill="none" stroke="#000000" stroke-width="3.333"/>
  <path d="M300.000 1092 L300.000 1078.667" fill="none" stroke="#000000" stroke-width="3.333"/>
  <path d="M481.000 1092 L481.000 1078.667" fill="none" stroke="#000000" stroke-width="3.333"/>
  <path d="M662.000 1092 L662.000 1078.667" fill="none" stroke="#000000" stroke-width="3.333"/>
  <path d="M843.000 1092 L843.000 1078.667" fill="none" stroke="#000000" stroke-width="3.333"/>
  <path d="M1024 1092 L1024 1078.667" fill="none" stroke="#000000" stroke-width="3.333"/>
  <path d="M1205.000 1092 L1205.000 1078.667" fill="none" stroke="#000000" stroke-width="3.333"/>
  <path d="M1386.000 1092 L1386.000 1078.667" fill="none" stroke="#000000" stroke-width="3.333"/>
  <path d="M1567.000 1092 L1567.000 1078.667" fill="none" stroke="#000000" stroke-width="3.333"/>
  <path d="M1748.000 1092 L1748.000 1078.667" fill="none" stroke="#000000" stroke-width="3.333"/>
  <path d="M1929 1092 L1929 1078.667" fill="none" stroke="#000000" stroke-width="3.333"/>
  <path d="M107.297 1155.333 L104.047 1155.333 L104.047 1134.302 Q102.875 1135.443 100.969 1136.576 Q99.063 1137.708 97.547 1138.271 L97.547 1135.083 Q100.281 1133.786 102.320 1131.935 Q104.359 1130.083 105.203 1128.333 L107.297 1128.333 L107.297 1155.333 Z"/>
  <path d="M117.266 1155.333 L117.266 1152.333 L120.969 1152.333 L120.969 1155.333 L117.266 1155.333 Z"/>
  <path d="M125.625 1141.849 Q125.625 1137.146 126.594 1134.294 Q127.563 1131.443 129.469 1129.888 Q131.375 1128.333 134.266 1128.333 Q136.406 1128.333 138.008 1129.193 Q139.609 1130.052 140.664 1131.661 Q141.719 1133.271 142.312 1135.591 Q142.906 1137.911 142.906 1141.849 Q142.906 1146.490 141.945 1149.349 Q140.984 1152.208 139.078 1153.771 Q137.172 1155.333 134.266 1155.333 Q130.438 1155.333 128.250 1152.599 Q125.625 1149.286 125.625 1141.849 Z M128.969 1141.833 Q128.969 1148.146 130.500 1150.240 Q132.031 1152.333 134.266 1152.333 Q136.500 1152.333 138.031 1150.232 Q139.562 1148.130 139.562 1141.833 Q139.562 1135.505 138.031 1133.419 Q136.500 1131.333 134.234 1131.333 Q131.984 1131.333 130.656 1133.177 Q128.969 1135.521 128.969 1141.833 Z"/>
  <path d="M288.297 1155.333 L285.047 1155.333 L285.047 1134.302 Q283.875 1135.443 281.969 1136.576 Q280.063 1137.708 278.547 1138.271 L278.547 1135.083 Q281.281 1133.786 283.320 1131.935 Q285.359 1130.083 286.203 1128.333 L288.297 1128.333 L288.297 1155.333 Z"/>
  <path d="M298.266 1155.333 L298.266 1152.333 L301.969 1152.333 L301.969 1155.333 L298.266 1155.333 Z"/>
  <path d="M317.047 1155.333 L317.047 1149.333 L305.563 1149.333 L305.563 1146.333 L317.656 1128.333 L320.313 1128.333 L320.313 1146.333 L323.891 1146.333 L323.891 1149.333 L320.313 1149.333 L320.313 1155.333 L317.047 1155.333 Z M317.047 1146.333 L317.047 1134.005 L308.766 1146.333 L317.047 1146.333 Z"/>
  <path d="M469.297 1155.333 L466.047 1155.333 L466.047 1134.302 Q464.875 1135.443 462.969 1136.576 Q461.063 1137.708 459.547 1138.271 L459.547 1135.083 Q462.281 1133.786 464.320 1131.935 Q466.359 1130.083 467.203 1128.333 L469.297 1128.333 L469.297 1155.333 Z"/>
  <path d="M479.266 1155.333 L479.266 1152.333 L482.969 1152.333 L482.969 1155.333 L479.266 1155.333 Z"/>
  <path d="M492.641 1140.740 Q490.609 1139.990 489.633 1138.599 Q488.656 1137.208 488.656 1135.255 Q488.656 1132.333 490.734 1130.333 Q492.813 1128.333 496.266 1128.333 Q499.734 1128.333 501.852 1130.380 Q503.969 1132.427 503.969 1135.349 Q503.969 1137.224 503.000 1138.607 Q502.031 1139.990 500.063 1140.740 Q502.500 1141.521 503.773 1143.263 Q505.047 1145.005 505.047 1147.427 Q505.047 1150.771 502.641 1153.052 Q500.234 1155.333 496.313 1155.333 Q492.406 1155.333 490.000 1153.044 Q487.594 1150.755 487.594 1147.349 Q487.594 1144.802 488.906 1143.083 Q490.219 1141.365 492.641 1140.740 Z M491.984 1135.224 Q491.984 1137.036 493.195 1138.185 Q494.406 1139.333 496.344 1139.333 Q498.219 1139.333 499.422 1138.193 Q500.625 1137.052 500.625 1135.396 Q500.625 1133.677 499.391 1132.505 Q498.156 1131.333 496.313 1131.333 Q494.438 1131.333 493.211 1132.482 Q491.984 1133.630 491.984 1135.224 Z M490.938 1147.286 Q490.938 1148.583 491.594 1149.794 Q492.250 1151.005 493.555 1151.669 Q494.859 1152.333 496.359 1152.333 Q498.688 1152.333 500.203 1150.935 Q501.719 1149.536 501.719 1147.380 Q501.719 1145.193 500.156 1143.763 Q498.594 1142.333 496.250 1142.333 Q493.953 1142.333 492.445 1143.747 Q490.938 1145.161 490.938 1147.286 Z"/>
  <path d="M655.141 1152.333 L655.141 1155.333 L637.641 1155.333 Q637.594 1154.208 638.016 1153.161 Q638.688 1151.443 640.156 1149.779 Q641.625 1148.115 644.406 1145.740 Q648.734 1142.052 650.250 1139.951 Q651.766 1137.849 651.766 1135.990 Q651.766 1134.021 650.383 1132.677 Q649.000 1131.333 646.781 1131.333 Q644.438 1131.333 643.023 1132.396 Q641.609 1133.458 641.594 1135.333 L638.250 1135.333 Q638.594 1131.911 640.836 1130.122 Q643.078 1128.333 646.844 1128.333 Q650.672 1128.333 652.891 1130.505 Q655.109 1132.677 655.109 1135.896 Q655.109 1137.536 654.461 1139.115 Q653.813 1140.693 652.297 1142.443 Q650.781 1144.193 647.281 1147.177 Q644.359 1149.661 643.531 1150.552 Q642.703 1151.443 642.156 1152.333 L655.141 1152.333 Z"/>
  <path d="M660.266 1155.333 L660.266 1152.333 L663.969 1152.333 L663.969 1155.333 L660.266 1155.333 Z"/>
  <path d="M685.719 1152.333 L685.719 1155.333 L668.219 1155.333 Q668.172 1154.208 668.594 1153.161 Q669.266 1151.443 670.734 1149.779 Q672.203 1148.115 674.984 1145.740 Q679.313 1142.052 680.828 1139.951 Q682.344 1137.849 682.344 1135.990 Q682.344 1134.021 680.961 1132.677 Q679.578 1131.333 677.359 1131.333 Q675.016 1131.333 673.602 1132.396 Q672.188 1133.458 672.172 1135.333 L668.828 1135.333 Q669.172 1131.911 671.414 1130.122 Q673.656 1128.333 677.422 1128.333 Q681.250 1128.333 683.469 1130.505 Q685.688 1132.677 685.688 1135.896 Q685.688 1137.536 685.039 1139.115 Q684.391 1140.693 682.875 1142.443 Q681.359 1144.193 677.859 1147.177 Q674.938 1149.661 674.109 1150.552 Q673.281 1151.443 672.734 1152.333 L685.719 1152.333 Z"/>
  <path d="M836.141 1152.333 L836.141 1155.333 L818.641 1155.333 Q818.594 1154.208 819.016 1153.161 Q819.688 1151.443 821.156 1149.779 Q822.625 1148.115 825.406 1145.740 Q829.734 1142.052 831.250 1139.951 Q832.766 1137.849 832.766 1135.990 Q832.766 1134.021 831.383 1132.677 Q830.000 1131.333 827.781 1131.333 Q825.438 1131.333 824.023 1132.396 Q822.609 1133.458 822.594 1135.333 L819.250 1135.333 Q819.594 1131.911 821.836 1130.122 Q824.078 1128.333 827.844 1128.333 Q831.672 1128.333 833.891 1130.505 Q836.109 1132.677 836.109 1135.896 Q836.109 1137.536 835.461 1139.115 Q834.813 1140.693 833.297 1142.443 Q831.781 1144.193 828.281 1147.177 Q825.359 1149.661 824.531 1150.552 Q823.703 1151.443 823.156 1152.333 L836.141 1152.333 Z"/>
  <path d="M841.266 1155.333 L841.266 1152.333 L844.969 1152.333 L844.969 1155.333 L841.266 1155.333 Z"/>
  <path d="M866.500 1135.333 L863.266 1135.333 Q862.828 1133.505 862.031 1132.661 Q860.719 1131.333 858.781 1131.333 Q857.234 1131.333 856.063 1132.099 Q854.531 1133.099 853.641 1135.013 Q852.750 1136.927 852.719 1140.865 Q853.891 1139.068 855.586 1138.201 Q857.281 1137.333 859.156 1137.333 Q862.406 1137.333 864.688 1139.779 Q866.969 1142.224 866.969 1146.099 Q866.969 1148.646 865.891 1150.826 Q864.813 1153.005 862.938 1154.169 Q861.063 1155.333 858.672 1155.333 Q854.609 1155.333 852.047 1152.349 Q849.484 1149.365 849.484 1142.505 Q849.484 1134.849 852.328 1131.365 Q854.797 1128.333 858.984 1128.333 Q862.109 1128.333 864.109 1130.193 Q866.109 1132.052 866.500 1135.333 Z M853.219 1146.021 Q853.219 1147.693 853.930 1149.216 Q854.641 1150.740 855.930 1151.536 Q857.219 1152.333 858.625 1152.333 Q860.688 1152.333 862.172 1150.685 Q863.656 1149.036 863.656 1146.193 Q863.656 1143.474 862.188 1141.904 Q860.719 1140.333 858.500 1140.333 Q856.297 1140.333 854.758 1141.904 Q853.219 1143.474 853.219 1146.021 Z"/>
  <path d="M1000.062 1148.333 L1003.328 1148.333 Q1003.891 1150.458 1005.234 1151.396 Q1006.578 1152.333 1008.516 1152.333 Q1010.812 1152.333 1012.391 1150.794 Q1013.969 1149.255 1013.969 1146.974 Q1013.969 1144.802 1012.508 1143.380 Q1011.047 1141.958 1008.781 1141.958 Q1007.859 1141.958 1006.484 1142.333 L1006.844 1139.333 Q1007.172 1139.365 1007.375 1139.365 Q1009.453 1139.365 1011.109 1138.349 Q1012.766 1137.333 1012.766 1135.208 Q1012.766 1133.536 1011.555 1132.435 Q1010.344 1131.333 1008.422 1131.333 Q1006.531 1131.333 1005.266 1132.333 Q1004 1133.333 1003.641 1135.333 L1000.391 1135.333 Q1000.984 1132.005 1003.102 1130.169 Q1005.219 1128.333 1008.359 1128.333 Q1010.531 1128.333 1012.352 1129.255 Q1014.172 1130.177 1015.141 1131.763 Q1016.109 1133.349 1016.109 1135.130 Q1016.109 1136.818 1015.188 1138.208 Q1014.266 1139.599 1012.469 1140.427 Q1014.812 1140.974 1016.109 1142.693 Q1017.406 1144.411 1017.406 1146.990 Q1017.406 1150.474 1014.875 1152.904 Q1012.344 1155.333 1008.484 1155.333 Q1005 1155.333 1002.695 1153.388 Q1000.391 1151.443 1000.062 1148.333 Z"/>
  <path d="M1022.266 1155.333 L1022.266 1152.333 L1025.969 1152.333 L1025.969 1155.333 L1022.266 1155.333 Z"/>
  <path d="M1030.625 1141.849 Q1030.625 1137.146 1031.594 1134.294 Q1032.562 1131.443 1034.469 1129.888 Q1036.375 1128.333 1039.266 1128.333 Q1041.406 1128.333 1043.008 1129.193 Q1044.609 1130.052 1045.664 1131.661 Q1046.719 1133.271 1047.312 1135.591 Q1047.906 1137.911 1047.906 1141.849 Q1047.906 1146.490 1046.945 1149.349 Q1045.984 1152.208 1044.078 1153.771 Q1042.172 1155.333 1039.266 1155.333 Q1035.438 1155.333 1033.250 1152.599 Q1030.625 1149.286 1030.625 1141.849 Z M1033.969 1141.833 Q1033.969 1148.146 1035.500 1150.240 Q1037.031 1152.333 1039.266 1152.333 Q1041.500 1152.333 1043.031 1150.232 Q1044.562 1148.130 1044.562 1141.833 Q1044.562 1135.505 1043.031 1133.419 Q1041.500 1131.333 1039.234 1131.333 Q1036.984 1131.333 1035.656 1133.177 Q1033.969 1135.521 1033.969 1141.833 Z"/>
  <path d="M1181.063 1148.333 L1184.328 1148.333 Q1184.891 1150.458 1186.234 1151.396 Q1187.578 1152.333 1189.516 1152.333 Q1191.813 1152.333 1193.391 1150.794 Q1194.969 1149.255 1194.969 1146.974 Q1194.969 1144.802 1193.508 1143.380 Q1192.047 1141.958 1189.781 1141.958 Q1188.859 1141.958 1187.484 1142.333 L1187.844 1139.333 Q1188.172 1139.365 1188.375 1139.365 Q1190.453 1139.365 1192.109 1138.349 Q1193.766 1137.333 1193.766 1135.208 Q1193.766 1133.536 1192.555 1132.435 Q1191.344 1131.333 1189.422 1131.333 Q1187.531 1131.333 1186.266 1132.333 Q1185.000 1133.333 1184.641 1135.333 L1181.391 1135.333 Q1181.984 1132.005 1184.102 1130.169 Q1186.219 1128.333 1189.359 1128.333 Q1191.531 1128.333 1193.352 1129.255 Q1195.172 1130.177 1196.141 1131.763 Q1197.109 1133.349 1197.109 1135.130 Q1197.109 1136.818 1196.188 1138.208 Q1195.266 1139.599 1193.469 1140.427 Q1195.813 1140.974 1197.109 1142.693 Q1198.406 1144.411 1198.406 1146.990 Q1198.406 1150.474 1195.875 1152.904 Q1193.344 1155.333 1189.484 1155.333 Q1186.000 1155.333 1183.695 1153.388 Q1181.391 1151.443 1181.063 1148.333 Z"/>
  <path d="M1203.266 1155.333 L1203.266 1152.333 L1206.969 1152.333 L1206.969 1155.333 L1203.266 1155.333 Z"/>
  <path d="M1222.047 1155.333 L1222.047 1149.333 L1210.563 1149.333 L1210.563 1146.333 L1222.656 1128.333 L1225.313 1128.333 L1225.313 1146.333 L1228.891 1146.333 L1228.891 1149.333 L1225.313 1149.333 L1225.313 1155.333 L1222.047 1155.333 Z M1222.047 1146.333 L1222.047 1134.005 L1213.766 1146.333 L1222.047 1146.333 Z"/>
  <path d="M1362.062 1148.333 L1365.328 1148.333 Q1365.891 1150.458 1367.234 1151.396 Q1368.578 1152.333 1370.516 1152.333 Q1372.812 1152.333 1374.391 1150.794 Q1375.969 1149.255 1375.969 1146.974 Q1375.969 1144.802 1374.508 1143.380 Q1373.047 1141.958 1370.781 1141.958 Q1369.859 1141.958 1368.484 1142.333 L1368.844 1139.333 Q1369.172 1139.365 1369.375 1139.365 Q1371.453 1139.365 1373.109 1138.349 Q1374.766 1137.333 1374.766 1135.208 Q1374.766 1133.536 1373.555 1132.435 Q1372.344 1131.333 1370.422 1131.333 Q1368.531 1131.333 1367.266 1132.333 Q1366.000 1133.333 1365.641 1135.333 L1362.391 1135.333 Q1362.984 1132.005 1365.102 1130.169 Q1367.219 1128.333 1370.359 1128.333 Q1372.531 1128.333 1374.352 1129.255 Q1376.172 1130.177 1377.141 1131.763 Q1378.109 1133.349 1378.109 1135.130 Q1378.109 1136.818 1377.187 1138.208 Q1376.266 1139.599 1374.469 1140.427 Q1376.812 1140.974 1378.109 1142.693 Q1379.406 1144.411 1379.406 1146.990 Q1379.406 1150.474 1376.875 1152.904 Q1374.344 1155.333 1370.484 1155.333 Q1367.000 1155.333 1364.695 1153.388 Q1362.391 1151.443 1362.062 1148.333 Z"/>
  <path d="M1384.266 1155.333 L1384.266 1152.333 L1387.969 1152.333 L1387.969 1155.333 L1384.266 1155.333 Z"/>
  <path d="M1397.641 1140.740 Q1395.609 1139.990 1394.633 1138.599 Q1393.656 1137.208 1393.656 1135.255 Q1393.656 1132.333 1395.734 1130.333 Q1397.812 1128.333 1401.266 1128.333 Q1404.734 1128.333 1406.852 1130.380 Q1408.969 1132.427 1408.969 1135.349 Q1408.969 1137.224 1408.000 1138.607 Q1407.031 1139.990 1405.062 1140.740 Q1407.500 1141.521 1408.773 1143.263 Q1410.047 1145.005 1410.047 1147.427 Q1410.047 1150.771 1407.641 1153.052 Q1405.234 1155.333 1401.312 1155.333 Q1397.406 1155.333 1395.000 1153.044 Q1392.594 1150.755 1392.594 1147.349 Q1392.594 1144.802 1393.906 1143.083 Q1395.219 1141.365 1397.641 1140.740 Z M1396.984 1135.224 Q1396.984 1137.036 1398.195 1138.185 Q1399.406 1139.333 1401.344 1139.333 Q1403.219 1139.333 1404.422 1138.193 Q1405.625 1137.052 1405.625 1135.396 Q1405.625 1133.677 1404.391 1132.505 Q1403.156 1131.333 1401.312 1131.333 Q1399.437 1131.333 1398.211 1132.482 Q1396.984 1133.630 1396.984 1135.224 Z M1395.937 1147.286 Q1395.937 1148.583 1396.594 1149.794 Q1397.250 1151.005 1398.555 1151.669 Q1399.859 1152.333 1401.359 1152.333 Q1403.687 1152.333 1405.203 1150.935 Q1406.719 1149.536 1406.719 1147.380 Q1406.719 1145.193 1405.156 1143.763 Q1403.594 1142.333 1401.250 1142.333 Q1398.953 1142.333 1397.445 1143.747 Q1395.937 1145.161 1395.937 1147.286 Z"/>
  <path d="M1553.469 1155.333 L1553.469 1149.333 L1541.984 1149.333 L1541.984 1146.333 L1554.078 1128.333 L1556.734 1128.333 L1556.734 1146.333 L1560.313 1146.333 L1560.313 1149.333 L1556.734 1149.333 L1556.734 1155.333 L1553.469 1155.333 Z M1553.469 1146.333 L1553.469 1134.005 L1545.188 1146.333 L1553.469 1146.333 Z"/>
  <path d="M1565.266 1155.333 L1565.266 1152.333 L1568.969 1152.333 L1568.969 1155.333 L1565.266 1155.333 Z"/>
  <path d="M1590.719 1152.333 L1590.719 1155.333 L1573.219 1155.333 Q1573.172 1154.208 1573.594 1153.161 Q1574.266 1151.443 1575.734 1149.779 Q1577.203 1148.115 1579.984 1145.740 Q1584.313 1142.052 1585.828 1139.951 Q1587.344 1137.849 1587.344 1135.990 Q1587.344 1134.021 1585.961 1132.677 Q1584.578 1131.333 1582.359 1131.333 Q1580.016 1131.333 1578.602 1132.396 Q1577.188 1133.458 1577.172 1135.333 L1573.828 1135.333 Q1574.172 1131.911 1576.414 1130.122 Q1578.656 1128.333 1582.422 1128.333 Q1586.250 1128.333 1588.469 1130.505 Q1590.688 1132.677 1590.688 1135.896 Q1590.688 1137.536 1590.039 1139.115 Q1589.391 1140.693 1587.875 1142.443 Q1586.359 1144.193 1582.859 1147.177 Q1579.938 1149.661 1579.109 1150.552 Q1578.281 1151.443 1577.734 1152.333 L1590.719 1152.333 Z"/>
  <path d="M1734.469 1155.333 L1734.469 1149.333 L1722.984 1149.333 L1722.984 1146.333 L1735.078 1128.333 L1737.734 1128.333 L1737.734 1146.333 L1741.313 1146.333 L1741.313 1149.333 L1737.734 1149.333 L1737.734 1155.333 L1734.469 1155.333 Z M1734.469 1146.333 L1734.469 1134.005 L1726.188 1146.333 L1734.469 1146.333 Z"/>
  <path d="M1746.266 1155.333 L1746.266 1152.333 L1749.969 1152.333 L1749.969 1155.333 L1746.266 1155.333 Z"/>
  <path d="M1771.500 1135.333 L1768.266 1135.333 Q1767.828 1133.505 1767.031 1132.661 Q1765.719 1131.333 1763.781 1131.333 Q1762.234 1131.333 1761.063 1132.099 Q1759.531 1133.099 1758.641 1135.013 Q1757.750 1136.927 1757.719 1140.865 Q1758.891 1139.068 1760.586 1138.201 Q1762.281 1137.333 1764.156 1137.333 Q1767.406 1137.333 1769.688 1139.779 Q1771.969 1142.224 1771.969 1146.099 Q1771.969 1148.646 1770.891 1150.826 Q1769.813 1153.005 1767.938 1154.169 Q1766.063 1155.333 1763.672 1155.333 Q1759.609 1155.333 1757.047 1152.349 Q1754.484 1149.365 1754.484 1142.505 Q1754.484 1134.849 1757.328 1131.365 Q1759.797 1128.333 1763.984 1128.333 Q1767.109 1128.333 1769.109 1130.193 Q1771.109 1132.052 1771.500 1135.333 Z M1758.219 1146.021 Q1758.219 1147.693 1758.930 1149.216 Q1759.641 1150.740 1760.930 1151.536 Q1762.219 1152.333 1763.625 1152.333 Q1765.688 1152.333 1767.172 1150.685 Q1768.656 1149.036 1768.656 1146.193 Q1768.656 1143.474 1767.188 1141.904 Q1765.719 1140.333 1763.500 1140.333 Q1761.297 1140.333 1759.758 1141.904 Q1758.219 1143.474 1758.219 1146.021 Z"/>
  <path d="M1905.047 1148.333 L1908.469 1148.333 Q1908.844 1150.333 1910.227 1151.333 Q1911.609 1152.333 1913.562 1152.333 Q1915.906 1152.333 1917.531 1150.630 Q1919.156 1148.927 1919.156 1146.115 Q1919.156 1143.427 1917.594 1141.880 Q1916.031 1140.333 1913.500 1140.333 Q1911.938 1140.333 1910.672 1140.888 Q1909.406 1141.443 1908.688 1142.333 L1905.625 1142.333 L1908.188 1128.333 L1921.359 1128.333 L1921.359 1131.333 L1910.797 1131.333 L1909.375 1139.068 Q1911.766 1137.333 1914.375 1137.333 Q1917.844 1137.333 1920.227 1139.732 Q1922.609 1142.130 1922.609 1145.911 Q1922.609 1149.505 1920.516 1152.115 Q1917.969 1155.333 1913.562 1155.333 Q1909.938 1155.333 1907.656 1153.419 Q1905.375 1151.505 1905.047 1148.333 Z"/>
  <path d="M1927.266 1155.333 L1927.266 1152.333 L1930.969 1152.333 L1930.969 1155.333 L1927.266 1155.333 Z"/>
  <path d="M1935.625 1141.849 Q1935.625 1137.146 1936.594 1134.294 Q1937.562 1131.443 1939.469 1129.888 Q1941.375 1128.333 1944.266 1128.333 Q1946.406 1128.333 1948.008 1129.193 Q1949.609 1130.052 1950.664 1131.661 Q1951.719 1133.271 1952.312 1135.591 Q1952.906 1137.911 1952.906 1141.849 Q1952.906 1146.490 1951.945 1149.349 Q1950.984 1152.208 1949.078 1153.771 Q1947.172 1155.333 1944.266 1155.333 Q1940.438 1155.333 1938.250 1152.599 Q1935.625 1149.286 1935.625 1141.849 Z M1938.969 1141.833 Q1938.969 1148.146 1940.500 1150.240 Q1942.031 1152.333 1944.266 1152.333 Q1946.500 1152.333 1948.031 1150.232 Q1949.562 1148.130 1949.562 1141.833 Q1949.562 1135.505 1948.031 1133.419 Q1946.500 1131.333 1944.234 1131.333 Q1941.984 1131.333 1940.656 1133.177 Q1938.969 1135.521 1938.969 1141.833 Z"/>
  <path d="M119.000 1092 L119.000 108" fill="none" stroke="#000000" stroke-width="3.333"/>
  <path d="M119.000 1092 L132.333 1092" fill="none" stroke="#000000" stroke-width="3.333"/>
  <path d="M119.000 1017.947 L132.333 1017.947" fill="none" stroke="#000000" stroke-width="3.333"/>
  <path d="M119.000 974.628 L132.333 974.628" fill="none" stroke="#000000" stroke-width="3.333"/>
  <path d="M119.000 943.893 L132.333 943.893" fill="none" stroke="#000000" stroke-width="3.333"/>
  <path d="M119.000 920.053 L132.333 920.053" fill="none" stroke="#000000" stroke-width="3.333"/>
  <path d="M119.000 900.575 L132.333 900.575" fill="none" stroke="#000000" stroke-width="3.333"/>
  <path d="M119.000 884.106 L132.333 884.106" fill="none" stroke="#000000" stroke-width="3.333"/>
  <path d="M119.000 869.840 L132.333 869.840" fill="none" stroke="#000000" stroke-width="3.333"/>
  <path d="M119.000 857.256 L132.333 857.256" fill="none" stroke="#000000" stroke-width="3.333"/>
  <path d="M119.000 846 L132.333 846" fill="none" stroke="#000000" stroke-width="3.333"/>
  <path d="M119.000 771.947 L132.333 771.947" fill="none" stroke="#000000" stroke-width="3.333"/>
  <path d="M119.000 728.628 L132.333 728.628" fill="none" stroke="#000000" stroke-width="3.333"/>
  <path d="M119.000 697.893 L132.333 697.893" fill="none" stroke="#000000" stroke-width="3.333"/>
  <path d="M119.000 674.053 L132.333 674.053" fill="none" stroke="#000000" stroke-width="3.333"/>
  <path d="M119.000 654.575 L132.333 654.575" fill="none" stroke="#000000" stroke-width="3.333"/>
  <path d="M119.000 638.106 L132.333 638.106" fill="none" stroke="#000000" stroke-width="3.333"/>
  <path d="M119.000 623.840 L132.333 623.840" fill="none" stroke="#000000" stroke-width="3.333"/>
  <path d="M119.000 611.256 L132.333 611.256" fill="none" stroke="#000000" stroke-width="3.333"/>
  <path d="M119.000 600 L132.333 600" fill="none" stroke="#000000" stroke-width="3.333"/>
  <path d="M119.000 525.947 L132.333 525.947" fill="none" stroke="#000000" stroke-width="3.333"/>
  <path d="M119.000 482.628 L132.333 482.628" fill="none" stroke="#000000" stroke-width="3.333"/>
  <path d="M119.000 451.893 L132.333 451.893" fill="none" stroke="#000000" stroke-width="3.333"/>
  <path d="M119.000 428.053 L132.333 428.053" fill="none" stroke="#000000" stroke-width="3.333"/>
  <path d="M119.000 408.575 L132.333 408.575" fill="none" stroke="#000000" stroke-width="3.333"/>
  <path d="M119.000 392.106 L132.333 392.106" fill="none" stroke="#000000" stroke-width="3.333"/>
  <path d="M119.000 377.840 L132.333 377.840" fill="none" stroke="#000000" stroke-width="3.333"/>
  <path d="M119.000 365.256 L132.333 365.256" fill="none" stroke="#000000" stroke-width="3.333"/>
  <path d="M119.000 354.000 L132.333 354.000" fill="none" stroke="#000000" stroke-width="3.333"/>
  <path d="M119.000 279.947 L132.333 279.947" fill="none" stroke="#000000" stroke-width="3.333"/>
  <path d="M119.000 236.628 L132.333 236.628" fill="none" stroke="#000000" stroke-width="3.333"/>
  <path d="M119.000 205.893 L132.333 205.893" fill="none" stroke="#000000" stroke-width="3.333"/>
  <path d="M119.000 182.053 L132.333 182.053" fill="none" stroke="#000000" stroke-width="3.333"/>
  <path d="M119.000 162.575 L132.333 162.575" fill="none" stroke="#000000" stroke-width="3.333"/>
  <path d="M119.000 146.106 L132.333 146.106" fill="none" stroke="#000000" stroke-width="3.333"/>
  <path d="M119.000 131.840 L132.333 131.840" fill="none" stroke="#000000" stroke-width="3.333"/>
  <path d="M119.000 119.256 L132.333 119.256" fill="none" stroke="#000000" stroke-width="3.333"/>
  <path d="M119.000 108 L132.333 108" fill="none" stroke="#000000" stroke-width="3.333"/>
  <path d="M46.151 1081.625 L46.151 1100.500 L49.385 1100.500 L49.385 1074 L47.260 1074 C46.120 1078.062 45.385 1078.625 40.401 1079.281 L40.401 1081.625 L46.151 1081.625 Z"/>
  <path d="M67.135 1074.500 C64.714 1074.500 62.510 1075.609 61.151 1077.406 C59.464 1079.609 58.620 1082.906 58.620 1087.516 C58.620 1095.906 61.557 1100.500 67.135 1100.500 C72.635 1100.500 75.635 1095.906 75.635 1087.719 C75.635 1082.906 74.839 1079.672 73.104 1077.406 C71.760 1075.578 69.589 1074.500 67.135 1074.500 Z M67.135 1077.375 C70.620 1077.375 72.339 1080.703 72.339 1087.438 C72.339 1094.531 70.651 1097.828 67.057 1097.828 C63.651 1097.828 61.932 1094.391 61.932 1087.547 C61.932 1080.703 63.651 1077.375 67.135 1077.375 Z"/>
  <path d="M83.448 1074.500 C79.901 1074.500 77.995 1077.281 77.995 1082.484 C77.995 1087.734 79.901 1090.500 83.495 1090.500 C87.010 1090.500 88.948 1087.734 88.948 1082.641 C88.948 1077.250 87.089 1074.500 83.448 1074.500 Z M83.448 1076.453 C85.573 1076.453 86.651 1078.453 86.651 1082.453 C86.651 1086.703 85.620 1088.672 83.417 1088.672 C81.323 1088.672 80.307 1086.594 80.307 1082.531 C80.307 1078.422 81.323 1076.453 83.448 1076.453 Z"/>
  <path d="M50.448 859 L47.198 859 L47.198 837.969 Q46.026 839.109 44.120 840.242 Q42.214 841.375 40.698 841.938 L40.698 838.750 Q43.432 837.453 45.471 835.602 Q47.510 833.750 48.354 832 L50.448 832 L50.448 859 Z"/>
  <path d="M58.589 845.516 Q58.589 840.812 59.557 837.961 Q60.526 835.109 62.432 833.555 Q64.339 832 67.229 832 Q69.370 832 70.971 832.859 Q72.573 833.719 73.628 835.328 Q74.682 836.938 75.276 839.258 Q75.870 841.578 75.870 845.516 Q75.870 850.156 74.909 853.016 Q73.948 855.875 72.042 857.438 Q70.135 859 67.229 859 Q63.401 859 61.214 856.266 Q58.589 852.953 58.589 845.516 Z M61.932 845.500 Q61.932 851.812 63.464 853.906 Q64.995 856 67.229 856 Q69.464 856 70.995 853.898 Q72.526 851.797 72.526 845.500 Q72.526 839.172 70.995 837.086 Q69.464 835 67.198 835 Q64.948 835 63.620 836.844 Q61.932 839.188 61.932 845.500 Z"/>
  <path d="M83.432 846 L83.432 835.250 Q81.589 837.219 79.385 838 L79.385 835 Q80.510 834.672 81.885 833.828 Q83.260 832.984 84.104 832 L86.042 832 L86.042 846 L83.432 846 Z"/>
  <path d="M50.448 613 L47.198 613 L47.198 591.969 Q46.026 593.109 44.120 594.242 Q42.214 595.375 40.698 595.938 L40.698 592.750 Q43.432 591.453 45.471 589.602 Q47.510 587.750 48.354 586 L50.448 586 L50.448 613 Z"/>
  <path d="M58.589 599.516 Q58.589 594.812 59.557 591.961 Q60.526 589.109 62.432 587.555 Q64.339 586 67.229 586 Q69.370 586 70.971 586.859 Q72.573 587.719 73.628 589.328 Q74.682 590.938 75.276 593.258 Q75.870 595.578 75.870 599.516 Q75.870 604.156 74.909 607.016 Q73.948 609.875 72.042 611.438 Q70.135 613 67.229 613 Q63.401 613 61.214 610.266 Q58.589 606.953 58.589 599.516 Z M61.932 599.500 Q61.932 605.812 63.464 607.906 Q64.995 610 67.229 610 Q69.464 610 70.995 607.898 Q72.526 605.797 72.526 599.500 Q72.526 593.172 70.995 591.086 Q69.464 589 67.198 589 Q64.948 589 63.620 590.844 Q61.932 593.188 61.932 599.500 Z"/>
  <path d="M77.901 600 Q78.010 598.922 78.745 597.844 Q79.885 596.203 82.487 594.227 Q85.089 592.250 85.573 591.672 Q86.245 590.906 86.245 590.078 Q86.245 589.172 85.612 588.586 Q84.979 588 83.760 588 Q82.557 588 81.971 588.414 Q81.385 588.828 81.010 590 L78.276 590 Q78.807 587.938 80.096 586.969 Q81.385 586 83.807 586 Q86.542 586 87.815 587.125 Q89.089 588.250 89.089 589.875 Q89.089 591.484 88.026 592.922 Q87.198 593.984 84.307 596.188 Q82.807 597.328 82.182 598 L89.151 598 L89.151 600 L77.901 600 Z"/>
  <path d="M50.448 367.000 L47.198 367.000 L47.198 345.969 Q46.026 347.109 44.120 348.242 Q42.214 349.375 40.698 349.938 L40.698 346.750 Q43.432 345.453 45.471 343.602 Q47.510 341.750 48.354 340.000 L50.448 340.000 L50.448 367.000 Z"/>
  <path d="M58.589 353.516 Q58.589 348.813 59.557 345.961 Q60.526 343.109 62.432 341.555 Q64.339 340.000 67.229 340.000 Q69.370 340.000 70.971 340.859 Q72.573 341.719 73.628 343.328 Q74.682 344.938 75.276 347.258 Q75.870 349.578 75.870 353.516 Q75.870 358.156 74.909 361.016 Q73.948 363.875 72.042 365.438 Q70.135 367.000 67.229 367.000 Q63.401 367.000 61.214 364.266 Q58.589 360.953 58.589 353.516 Z M61.932 353.500 Q61.932 359.813 63.464 361.906 Q64.995 364.000 67.229 364.000 Q69.464 364.000 70.995 361.898 Q72.526 359.797 72.526 353.500 Q72.526 347.172 70.995 345.086 Q69.464 343.000 67.198 343.000 Q64.948 343.000 63.620 344.844 Q61.932 347.188 61.932 353.500 Z"/>
  <path d="M77.901 354.000 Q78.010 352.922 78.745 351.844 Q79.885 350.203 82.487 348.227 Q85.089 346.250 85.573 345.672 Q86.245 344.906 86.245 344.078 Q86.245 343.172 85.612 342.586 Q84.979 342.000 83.760 342.000 Q82.557 342.000 81.971 342.414 Q81.385 342.828 81.010 344.000 L78.276 344.000 Q78.807 341.938 80.096 340.969 Q81.385 340.000 83.807 340.000 Q86.542 340.000 87.815 341.125 Q89.089 342.250 89.089 343.875 Q89.089 345.484 88.026 346.922 Q87.198 347.984 84.307 350.188 Q82.807 351.328 82.182 352.000 L89.151 352.000 L89.151 354.000 L77.901 354.000 Z"/>
  <path d="M46.151 97.625 L46.151 116.500 L49.385 116.500 L49.385 90 L47.260 90 C46.120 94.062 45.385 94.625 40.401 95.281 L40.401 97.625 L46.151 97.625 Z"/>
  <path d="M67.135 90.500 C64.714 90.500 62.510 91.609 61.151 93.406 C59.464 95.609 58.620 98.906 58.620 103.516 C58.620 111.906 61.557 116.500 67.135 116.500 C72.635 116.500 75.635 111.906 75.635 103.719 C75.635 98.906 74.839 95.672 73.104 93.406 C71.760 91.578 69.589 90.500 67.135 90.500 Z M67.135 93.375 C70.620 93.375 72.339 96.703 72.339 103.438 C72.339 110.531 70.651 113.828 67.057 113.828 C63.651 113.828 61.932 110.391 61.932 103.547 C61.932 96.703 63.651 93.375 67.135 93.375 Z"/>
  <path d="M84.510 102.453 L84.510 106.125 L86.792 106.125 L86.792 102.453 L89.245 102.453 L89.245 100.500 L86.792 100.500 L86.792 90.531 L85.104 90.531 L77.620 100.281 L77.620 102.453 L84.510 102.453 Z M84.510 100.500 L79.792 100.500 L84.510 94.281 L84.510 100.500 Z"/>
  <path d="M119.000 1092 L119.000 108" fill="none" stroke="#000000" stroke-opacity="0.050" stroke-width="3.333"/>
  <path d="M300.000 1092 L300.000 108" fill="none" stroke="#000000" stroke-opacity="0.050" stroke-width="3.333"/>
  <path d="M481.000 1092 L481.000 108" fill="none" stroke="#000000" stroke-opacity="0.050" stroke-width="3.333"/>
  <path d="M662.000 1092 L662.000 108" fill="none" stroke="#000000" stroke-opacity="0.050" stroke-width="3.333"/>
  <path d="M843.000 1092 L843.000 108" fill="none" stroke="#000000" stroke-opacity="0.050" stroke-width="3.333"/>
  <path d="M1024 1092 L1024 108" fill="none" stroke="#000000" stroke-opacity="0.050" stroke-width="3.333"/>
  <path d="M1205.000 1092 L1205.000 108" fill="none" stroke="#000000" stroke-opacity="0.050" stroke-width="3.333"/>
  <path d="M1386.000 1092 L1386.000 108" fill="none" stroke="#000000" stroke-opacity="0.050" stroke-width="3.333"/>
  <path d="M1567.000 1092 L1567.000 108" fill="none" stroke="#000000" stroke-opacity="0.050" stroke-width="3.333"/>
  <path d="M1748.000 1092 L1748.000 108" fill="none" stroke="#000000" stroke-opacity="0.050" stroke-width="3.333"/>
  <path d="M1929 1092 L1929 108" fill="none" stroke="#000000" stroke-opacity="0.050" stroke-width="3.333"/>
  <path d="M119.000 108 L1929 108" fill="none" stroke="#000000" stroke-opacity="0.050" stroke-width="3.333"/>
  <path d="M119.000 182.053 L1929 182.053" fill="none" stroke="#000000" stroke-opacity="0.050" stroke-width="3.333"/>
  <path d="M119.000 225.372 L1929 225.372" fill="none" stroke="#000000" stroke-opacity="0.050" stroke-width="3.333"/>
  <path d="M119.000 256.107 L1929 256.107" fill="none" stroke="#000000" stroke-opacity="0.050" stroke-width="3.333"/>
  <path d="M119.000 279.947 L1929 279.947" fill="none" stroke="#000000" stroke-opacity="0.050" stroke-width="3.333"/>
  <path d="M119.000 299.425 L1929 299.425" fill="none" stroke="#000000" stroke-opacity="0.050" stroke-width="3.333"/>
  <path d="M119.000 315.894 L1929 315.894" fill="none" stroke="#000000" stroke-opacity="0.050" stroke-width="3.333"/>
  <path d="M119.000 330.160 L1929 330.160" fill="none" stroke="#000000" stroke-opacity="0.050" stroke-width="3.333"/>
  <path d="M119.000 342.744 L1929 342.744" fill="none" stroke="#000000" stroke-opacity="0.050" stroke-width="3.333"/>
  <path d="M119.000 354 L1929 354" fill="none" stroke="#000000" stroke-opacity="0.050" stroke-width="3.333"/>
  <path d="M119.000 428.053 L1929 428.053" fill="none" stroke="#000000" stroke-opacity="0.050" stroke-width="3.333"/>
  <path d="M119.000 471.372 L1929 471.372" fill="none" stroke="#000000" stroke-opacity="0.050" stroke-width="3.333"/>
  <path d="M119.000 502.107 L1929 502.107" fill="none" stroke="#000000" stroke-opacity="0.050" stroke-width="3.333"/>
  <path d="M119.000 525.947 L1929 525.947" fill="none" stroke="#000000" stroke-opacity="0.050" stroke-width="3.333"/>
  <path d="M119.000 545.425 L1929 545.425" fill="none" stroke="#000000" stroke-opacity="0.050" stroke-width="3.333"/>
  <path d="M119.000 561.894 L1929 561.894" fill="none" stroke="#000000" stroke-opacity="0.050" stroke-width="3.333"/>
  <path d="M119.000 576.160 L1929 576.160" fill="none" stroke="#000000" stroke-opacity="0.050" stroke-width="3.333"/>
  <path d="M119.000 588.744 L1929 588.744" fill="none" stroke="#000000" stroke-opacity="0.050" stroke-width="3.333"/>
  <path d="M119.000 600 L1929 600" fill="none" stroke="#000000" stroke-opacity="0.050" stroke-width="3.333"/>
  <path d="M119.000 674.053 L1929 674.053" fill="none" stroke="#000000" stroke-opacity="0.050" stroke-width="3.333"/>
  <path d="M119.000 717.372 L1929 717.372" fill="none" stroke="#000000" stroke-opacity="0.050" stroke-width="3.333"/>
  <path d="M119.000 748.107 L1929 748.107" fill="none" stroke="#000000" stroke-opacity="0.050" stroke-width="3.333"/>
  <path d="M119.000 771.947 L1929 771.947" fill="none" stroke="#000000" stroke-opacity="0.050" stroke-width="3.333"/>
  <path d="M119.000 791.425 L1929 791.425" fill="none" stroke="#000000" stroke-opacity="0.050" stroke-width="3.333"/>
  <path d="M119.000 807.894 L1929 807.894" fill="none" stroke="#000000" stroke-opacity="0.050" stroke-width="3.333"/>
  <path d="M119.000 822.160 L1929 822.160" fill="none" stroke="#000000" stroke-opacity="0.050" stroke-width="3.333"/>
  <path d="M119.000 834.744 L1929 834.744" fill="none" stroke="#000000" stroke-opacity="0.050" stroke-width="3.333"/>
  <path d="M119.000 846.000 L1929 846.000" fill="none" stroke="#000000" stroke-opacity="0.050" stroke-width="3.333"/>
  <path d="M119.000 920.053 L1929 920.053" fill="none" stroke="#000000" stroke-opacity="0.050" stroke-width="3.333"/>
  <path d="M119.000 963.372 L1929 963.372" fill="none" stroke="#000000" stroke-opacity="0.050" stroke-width="3.333"/>
  <path d="M119.000 994.107 L1929 994.107" fill="none" stroke="#000000" stroke-opacity="0.050" stroke-width="3.333"/>
  <path d="M119.000 1017.947 L1929 1017.947" fill="none" stroke="#000000" stroke-opacity="0.050" stroke-width="3.333"/>
  <path d="M119.000 1037.425 L1929 1037.425" fill="none" stroke="#000000" stroke-opacity="0.050" stroke-width="3.333"/>
  <path d="M119.000 1053.894 L1929 1053.894" fill="none" stroke="#000000" stroke-opacity="0.050" stroke-width="3.333"/>
  <path d="M119.000 1068.160 L1929 1068.160" fill="none" stroke="#000000" stroke-opacity="0.050" stroke-width="3.333"/>
  <path d="M119.000 1080.744 L1929 1080.744" fill="none" stroke="#000000" stroke-opacity="0.050" stroke-width="3.333"/>
  <path d="M119.000 1092 L1929 1092" fill="none" stroke="#000000" stroke-opacity="0.050" stroke-width="3.333"/>
  <path d="M119.000 1092 L571.500 846 L1024 600 L1476.500 354.000 L1929 108" fill="none" stroke="#000000" stroke-width="5"/>
</svg>
