<?xml version="1.0" encoding="UTF-8" ?>
<!-- Generated by clip v0.7.0 (clip-lang.org) -->
<svg xmlns="http://www.w3.org/2000/svg" width="2048.000000" height="1200.000000">
  <rect width="2048.000000" height="1200.000000" fill="#ffffff" fill-opacity="1.000000"/>
  <path d="M119 108 L1929 108 " fill="none" stroke-width="3.333333" stroke="#000000ff"/>
  <path d="M119 121.333 L119 108 " fill="none" stroke-width="3.333333" stroke="#000000ff"/>
  <path d="M300 121.333 L300 108 " fill="none" stroke-width="3.333333" stroke="#000000ff"/>
  <path d="M481 121.333 L481 108 " fill="none" stroke-width="3.333333" stroke="#000000ff"/>
  <path d="M662 121.333 L662 108 " fill="none" stroke-width="3.333333" stroke="#000000ff"/>
  <path d="M843 121.333 L843 108 " fill="none" stroke-width="3.333333" stroke="#000000ff"/>
  <path d="M1024 121.333 L1024 108 " fill="none" stroke-width="3.333333" stroke="#000000ff"/>
  <path d="M1205 121.333 L1205 108 " fill="none" stroke-width="3.333333" stroke="#000000ff"/>
  <path d="M1386 121.333 L1386 108 " fill="none" stroke-width="3.333333" stroke="#000000ff"/>
  <path d="M1567 121.333 L1567 108 " fill="none" stroke-width="3.333333" stroke="#000000ff"/>
  <path d="M1748 121.333 L1748 108 " fill="none" stroke-width="3.333333" stroke="#000000ff"/>
  <path d="M1929 121.333 L1929 108 " fill="none" stroke-width="3.333333" stroke="#000000ff"/>
  <path d="M107.297 70.6667 L104.047 70.6667 L104.047 49.6354 Q102.875 50.776 100.969 51.9089 Q99.0625 53.0417 97.5469 53.6042 L97.5469 50.4167 Q100.281 49.1198 102.32 47.2682 Q104.359 45.4167 105.203 43.6667 L107.297 43.6667 L107.297 70.6667 Z" fill="#000000" fill-opacity="1.000000"/>
  <path d="M117.266 70.6667 L117.266 67.6667 L120.969 67.6667 L120.969 70.6667 L117.266 70.6667 Z" fill="#000000" fill-opacity="1.000000"/>
  <path d="M125.625 57.1823 Q125.625 52.4792 126.594 49.6276 Q127.563 46.776 129.469 45.2214 Q131.375 43.6667 134.266 43.6667 Q136.406 43.6667 138.008 44.526 Q139.609 45.3854 140.664 46.9948 Q141.719 48.6042 142.312 50.9245 Q142.906 53.2448 142.906 57.1823 Q142.906 61.8229 141.945 64.6823 Q140.984 67.5417 139.078 69.1042 Q137.172 70.6667 134.266 70.6667 Q130.438 70.6667 128.25 67.9323 Q125.625 64.6198 125.625 57.1823 ZM128.969 57.1667 Q128.969 63.4792 130.5 65.5729 Q132.031 67.6667 134.266 67.6667 Q136.5 67.6667 138.031 65.5651 Q139.562 63.4635 139.562 57.1667 Q139.562 50.8385 138.031 48.7526 Q136.5 46.6667 134.234 46.6667 Q131.984 46.6667 130.656 48.5104 Q128.969 50.8542 128.969 57.1667 Z" fill="#000000" fill-opacity="1.000000"/>
  <path d="M288.297 70.6667 L285.047 70.6667 L285.047 49.6354 Q283.875 50.776 281.969 51.9089 Q280.063 53.0417 278.547 53.6042 L278.547 50.4167 Q281.281 49.1198 283.32 47.2682 Q285.359 45.4167 286.203 43.6667 L288.297 43.6667 L288.297 70.6667 Z" fill="#000000" fill-opacity="1.000000"/>
  <path d="M298.266 70.6667 L298.266 67.6667 L301.969 67.6667 L301.969 70.6667 L298.266 70.6667 Z" fill="#000000" fill-opacity="1.000000"/>
  <path d="M317.047 70.6667 L317.047 64.6667 L305.563 64.6667 L305.563 61.6667 L317.656 43.6667 L320.313 43.6667 L320.313 61.6667 L323.891 61.6667 L323.891 64.6667 L320.313 64.6667 L320.313 70.6667 L317.047 70.6667 ZM317.047 61.6667 L317.047 49.3385 L308.766 61.6667 L317.047 61.6667 Z" fill="#000000" fill-opacity="1.000000"/>
  <path d="M469.297 70.6667 L466.047 70.6667 L466.047 49.6354 Q464.875 50.776 462.969 51.9089 Q461.063 53.0417 459.547 53.6042 L459.547 50.4167 Q462.281 49.1198 464.32 47.2682 Q466.359 45.4167 467.203 43.6667 L469.297 43.6667 L469.297 70.6667 Z" fill="#000000" fill-opacity="1.000000"/>
  <path d="M479.266 70.6667 L479.266 67.6667 L482.969 67.6667 L482.969 70.6667 L479.266 70.6667 Z" fill="#000000" fill-opacity="1.000000"/>
  <path d="M492.641 56.0729 Q490.609 55.3229 489.633 53.9323 Q488.656 52.5417 488.656 50.5885 Q488.656 47.6667 490.734 45.6667 Q492.813 43.6667 496.266 43.6667 Q499.734 43.6667 501.852 45.7135 Q503.969 47.7604 503.969 50.6823 Q503.969 52.5573 503 53.9401 Q502.031 55.3229 500.063 56.0729 Q502.5 56.8542 503.773 58.5964 Q505.047 60.3385 505.047 62.7604 Q505.047 66.1042 502.641 68.3854 Q500.234 70.6667 496.313 70.6667 Q492.406 70.6667 490 68.3776 Q487.594 66.0885 487.594 62.6823 Q487.594 60.1354 488.906 58.4167 Q490.219 56.6979 492.641 56.0729 ZM491.984 50.5573 Q491.984 52.3698 493.195 53.5182 Q494.406 54.6667 496.344 54.6667 Q498.219 54.6667 499.422 53.526 Q500.625 52.3854 500.625 50.7292 Q500.625 49.0104 499.391 47.8385 Q498.156 46.6667 496.313 46.6667 Q494.438 46.6667 493.211 47.8151 Q491.984 48.9635 491.984 50.5573 ZM490.938 62.6198 Q490.938 63.9167 491.594 65.1276 Q492.25 66.3385 493.555 67.0026 Q494.859 67.6667 496.359 67.6667 Q498.688 67.6667 500.203 66.2682 Q501.719 64.8698 501.719 62.7135 Q501.719 60.526 500.156 59.0964 Q498.594 57.6667 496.25 57.6667 Q493.953 57.6667 492.445 59.0807 Q490.938 60.4948 490.938 62.6198 Z" fill="#000000" fill-opacity="1.000000"/>
  <path d="M655.141 67.6667 L655.141 70.6667 L637.641 70.6667 Q637.594 69.5417 638.016 68.4948 Q638.688 66.776 640.156 65.112 Q641.625 63.4479 644.406 61.0729 Q648.734 57.3854 650.25 55.2839 Q651.766 53.1823 651.766 51.3229 Q651.766 49.3542 650.383 48.0104 Q649 46.6667 646.781 46.6667 Q644.438 46.6667 643.023 47.7292 Q641.609 48.7917 641.594 50.6667 L638.25 50.6667 Q638.594 47.2448 640.836 45.4557 Q643.078 43.6667 646.844 43.6667 Q650.672 43.6667 652.891 45.8385 Q655.109 48.0104 655.109 51.2292 Q655.109 52.8698 654.461 54.4479 Q653.813 56.026 652.297 57.776 Q650.781 59.526 647.281 62.5104 Q644.359 64.9948 643.531 65.8854 Q642.703 66.776 642.156 67.6667 L655.141 67.6667 Z" fill="#000000" fill-opacity="1.000000"/>
  <path d="M660.266 70.6667 L660.266 67.6667 L663.969 67.6667 L663.969 70.6667 L660.266 70.6667 Z" fill="#000000" fill-opacity="1.000000"/>
  <path d="M685.719 67.6667 L685.719 70.6667 L668.219 70.6667 Q668.172 69.5417 668.594 68.4948 Q669.266 66.776 670.734 65.112 Q672.203 63.4479 674.984 61.0729 Q679.313 57.3854 680.828 55.2839 Q682.344 53.1823 682.344 51.3229 Q682.344 49.3542 680.961 48.0104 Q679.578 46.6667 677.359 46.6667 Q675.016 46.6667 673.602 47.7292 Q672.188 48.7917 672.172 50.6667 L668.828 50.6667 Q669.172 47.2448 671.414 45.4557 Q673.656 43.6667 677.422 43.6667 Q681.25 43.6667 683.469 45.8385 Q685.688 48.0104 685.688 51.2292 Q685.688 52.8698 685.039 54.4479 Q684.391 56.026 682.875 57.776 Q681.359 59.526 677.859 62.5104 Q674.938 64.9948 674.109 65.8854 Q673.281 66.776 672.734 67.6667 L685.719 67.6667 Z" fill="#000000" fill-opacity="1.000000"/>
  <path d="M836.141 67.6667 L836.141 70.6667 L818.641 70.6667 Q818.594 69.5417 819.016 68.4948 Q819.688 66.776 821.156 65.112 Q822.625 63.4479 825.406 61.0729 Q829.734 57.3854 831.25 55.2839 Q832.766 53.1823 832.766 51.3229 Q832.766 49.3542 831.383 48.0104 Q830 46.6667 827.781 46.6667 Q825.438 46.6667 824.023 47.7292 Q822.609 48.7917 822.594 50.6667 L819.25 50.6667 Q819.594 47.2448 821.836 45.4557 Q824.078 43.6667 827.844 43.6667 Q831.672 43.6667 833.891 45.8385 Q836.109 48.0104 836.109 51.2292 Q836.109 52.8698 835.461 54.4479 Q834.813 56.026 833.297 57.776 Q831.781 59.526 828.281 62.5104 Q825.359 64.9948 824.531 65.8854 Q823.703 66.776 823.156 67.6667 L836.141 67.6667 Z" fill="#000000" fill-opacity="1.000000"/>
  <path d="M841.266 70.6667 L841.266 67.6667 L844.969 67.6667 L844.969 70.6667 L841.266 70.6667 Z" fill="#000000" fill-opacity="1.000000"/>
  <path d="M866.5 50.6667 L863.266 50.6667 Q862.828 48.8385 862.031 47.9948 Q860.719 46.6667 858.781 46.6667 Q857.234 46.6667 856.063 47.4323 Q854.531 48.4323 853.641 50.3464 Q852.75 52.2604 852.719 56.1979 Q853.891 54.401 855.586 53.5339 Q857.281 52.6667 859.156 52.6667 Q862.406 52.6667 864.688 55.112 Q866.969 57.5573 866.969 61.4323 Q866.969 63.9792 865.891 66.1589 Q864.813 68.3385 862.938 69.5026 Q861.063 70.6667 858.672 70.6667 Q854.609 70.6667 852.047 67.6823 Q849.484 64.6979 849.484 57.8385 Q849.484 50.1823 852.328 46.6979 Q854.797 43.6667 858.984 43.6667 Q862.109 43.6667 864.109 45.526 Q866.109 47.3854 866.5 50.6667 ZM853.219 61.3542 Q853.219 63.026 853.93 64.5495 Q854.641 66.0729 855.93 66.8698 Q857.219 67.6667 858.625 67.6667 Q860.688 67.6667 862.172 66.0182 Q863.656 64.3698 863.656 61.526 Q863.656 58.8073 862.188 57.237 Q860.719 55.6667 858.5 55.6667 Q856.297 55.6667 854.758 57.237 Q853.219 58.8073 853.219 61.3542 Z" fill="#000000" fill-opacity="1.000000"/>
  <path d="M1000.06 63.6667 L1003.33 63.6667 Q1003.89 65.7917 1005.23 66.7292 Q1006.58 67.6667 1008.52 67.6667 Q1010.81 67.6667 1012.39 66.1276 Q1013.97 64.5885 1013.97 62.3073 Q1013.97 60.1354 1012.51 58.7135 Q1011.05 57.2917 1008.78 57.2917 Q1007.86 57.2917 1006.48 57.6667 L1006.84 54.6667 Q1007.17 54.6979 1007.38 54.6979 Q1009.45 54.6979 1011.11 53.6823 Q1012.77 52.6667 1012.77 50.5417 Q1012.77 48.8698 1011.55 47.7682 Q1010.34 46.6667 1008.42 46.6667 Q1006.53 46.6667 1005.27 47.6667 Q1004 48.6667 1003.64 50.6667 L1000.39 50.6667 Q1000.98 47.3385 1003.1 45.5026 Q1005.22 43.6667 1008.36 43.6667 Q1010.53 43.6667 1012.35 44.5885 Q1014.17 45.5104 1015.14 47.0964 Q1016.11 48.6823 1016.11 50.4635 Q1016.11 52.151 1015.19 53.5417 Q1014.27 54.9323 1012.47 55.7604 Q1014.81 56.3073 1016.11 58.026 Q1017.41 59.7448 1017.41 62.3229 Q1017.41 65.8073 1014.88 68.237 Q1012.34 70.6667 1008.48 70.6667 Q1005 70.6667 1002.7 68.7214 Q1000.39 66.776 1000.06 63.6667 Z" fill="#000000" fill-opacity="1.000000"/>
  <path d="M1022.27 70.6667 L1022.27 67.6667 L1025.97 67.6667 L1025.97 70.6667 L1022.27 70.6667 Z" fill="#000000" fill-opacity="1.000000"/>
  <path d="M1030.62 57.1823 Q1030.62 52.4792 1031.59 49.6276 Q1032.56 46.776 1034.47 45.2214 Q1036.38 43.6667 1039.27 43.6667 Q1041.41 43.6667 1043.01 44.526 Q1044.61 45.3854 1045.66 46.9948 Q1046.72 48.6042 1047.31 50.9245 Q1047.91 53.2448 1047.91 57.1823 Q1047.91 61.8229 1046.95 64.6823 Q1045.98 67.5417 1044.08 69.1042 Q1042.17 70.6667 1039.27 70.6667 Q1035.44 70.6667 1033.25 67.9323 Q1030.62 64.6198 1030.62 57.1823 ZM1033.97 57.1667 Q1033.97 63.4792 1035.5 65.5729 Q1037.03 67.6667 1039.27 67.6667 Q1041.5 67.6667 1043.03 65.5651 Q1044.56 63.4635 1044.56 57.1667 Q1044.56 50.8385 1043.03 48.7526 Q1041.5 46.6667 1039.23 46.6667 Q1036.98 46.6667 1035.66 48.5104 Q1033.97 50.8542 1033.97 57.1667 Z" fill="#000000" fill-opacity="1.000000"/>
  <path d="M1181.06 63.6667 L1184.33 63.6667 Q1184.89 65.7917 1186.23 66.7292 Q1187.58 67.6667 1189.52 67.6667 Q1191.81 67.6667 1193.39 66.1276 Q1194.97 64.5885 1194.97 62.3073 Q1194.97 60.1354 1193.51 58.7135 Q1192.05 57.2917 1189.78 57.2917 Q1188.86 57.2917 1187.48 57.6667 L1187.84 54.6667 Q1188.17 54.6979 1188.38 54.6979 Q1190.45 54.6979 1192.11 53.6823 Q1193.77 52.6667 1193.77 50.5417 Q1193.77 48.8698 1192.55 47.7682 Q1191.34 46.6667 1189.42 46.6667 Q1187.53 46.6667 1186.27 47.6667 Q1185 48.6667 1184.64 50.6667 L1181.39 50.6667 Q1181.98 47.3385 1184.1 45.5026 Q1186.22 43.6667 1189.36 43.6667 Q1191.53 43.6667 1193.35 44.5885 Q1195.17 45.5104 1196.14 47.0964 Q1197.11 48.6823 1197.11 50.4635 Q1197.11 52.151 1196.19 53.5417 Q1195.27 54.9323 1193.47 55.7604 Q1195.81 56.3073 1197.11 58.026 Q1198.41 59.7448 1198.41 62.3229 Q1198.41 65.8073 1195.88 68.237 Q1193.34 70.6667 1189.48 70.6667 Q1186 70.6667 1183.7 68.7214 Q1181.39 66.776 1181.06 63.6667 Z" fill="#000000" fill-opacity="1.000000"/>
  <path d="M1203.27 70.6667 L1203.27 67.6667 L1206.97 67.6667 L1206.97 70.6667 L1203.27 70.6667 Z" fill="#000000" fill-opacity="1.000000"/>
  <path d="M1222.05 70.6667 L1222.05 64.6667 L1210.56 64.6667 L1210.56 61.6667 L1222.66 43.6667 L1225.31 43.6667 L1225.31 61.6667 L1228.89 61.6667 L1228.89 64.6667 L1225.31 64.6667 L1225.31 70.6667 L1222.05 70.6667 ZM1222.05 61.6667 L1222.05 49.3385 L1213.77 61.6667 L1222.05 61.6667 Z" fill="#000000" fill-opacity="1.000000"/>
  <path d="M1362.06 63.6667 L1365.33 63.6667 Q1365.89 65.7917 1367.23 66.7292 Q1368.58 67.6667 1370.52 67.6667 Q1372.81 67.6667 1374.39 66.1276 Q1375.97 64.5885 1375.97 62.3073 Q1375.97 60.1354 1374.51 58.7135 Q1373.05 57.2917 1370.78 57.2917 Q1369.86 57.2917 1368.48 57.6667 L1368.84 54.6667 Q1369.17 54.6979 1369.37 54.6979 Q1371.45 54.6979 1373.11 53.6823 Q1374.77 52.6667 1374.77 50.5417 Q1374.77 48.8698 1373.55 47.7682 Q1372.34 46.6667 1370.42 46.6667 Q1368.53 46.6667 1367.27 47.6667 Q1366 48.6667 1365.64 50.6667 L1362.39 50.6667 Q1362.98 47.3385 1365.1 45.5026 Q1367.22 43.6667 1370.36 43.6667 Q1372.53 43.6667 1374.35 44.5885 Q1376.17 45.5104 1377.14 47.0964 Q1378.11 48.6823 1378.11 50.4635 Q1378.11 52.151 1377.19 53.5417 Q1376.27 54.9323 1374.47 55.7604 Q1376.81 56.3073 1378.11 58.026 Q1379.41 59.7448 1379.41 62.3229 Q1379.41 65.8073 1376.87 68.237 Q1374.34 70.6667 1370.48 70.6667 Q1367 70.6667 1364.7 68.7214 Q1362.39 66.776 1362.06 63.6667 Z" fill="#000000" fill-opacity="1.000000"/>
  <path d="M1384.27 70.6667 L1384.27 67.6667 L1387.97 67.6667 L1387.97 70.6667 L1384.27 70.6667 Z" fill="#000000" fill-opacity="1.000000"/>
  <path d="M1397.64 56.0729 Q1395.61 55.3229 1394.63 53.9323 Q1393.66 52.5417 1393.66 50.5885 Q1393.66 47.6667 1395.73 45.6667 Q1397.81 43.6667 1401.27 43.6667 Q1404.73 43.6667 1406.85 45.7135 Q1408.97 47.7604 1408.97 50.6823 Q1408.97 52.5573 1408 53.9401 Q1407.03 55.3229 1405.06 56.0729 Q1407.5 56.8542 1408.77 58.5964 Q1410.05 60.3385 1410.05 62.7604 Q1410.05 66.1042 1407.64 68.3854 Q1405.23 70.6667 1401.31 70.6667 Q1397.41 70.6667 1395 68.3776 Q1392.59 66.0885 1392.59 62.6823 Q1392.59 60.1354 1393.91 58.4167 Q1395.22 56.6979 1397.64 56.0729 ZM1396.98 50.5573 Q1396.98 52.3698 1398.2 53.5182 Q1399.41 54.6667 1401.34 54.6667 Q1403.22 54.6667 1404.42 53.526 Q1405.62 52.3854 1405.62 50.7292 Q1405.62 49.0104 1404.39 47.8385 Q1403.16 46.6667 1401.31 46.6667 Q1399.44 46.6667 1398.21 47.8151 Q1396.98 48.9635 1396.98 50.5573 ZM1395.94 62.6198 Q1395.94 63.9167 1396.59 65.1276 Q1397.25 66.3385 1398.55 67.0026 Q1399.86 67.6667 1401.36 67.6667 Q1403.69 67.6667 1405.2 66.2682 Q1406.72 64.8698 1406.72 62.7135 Q1406.72 60.526 1405.16 59.0964 Q1403.59 57.6667 1401.25 57.6667 Q1398.95 57.6667 1397.45 59.0807 Q1395.94 60.4948 1395.94 62.6198 Z" fill="#000000" fill-opacity="1.000000"/>
  <path d="M1553.47 70.6667 L1553.47 64.6667 L1541.98 64.6667 L1541.98 61.6667 L1554.08 43.6667 L1556.73 43.6667 L1556.73 61.6667 L1560.31 61.6667 L1560.31 64.6667 L1556.73 64.6667 L1556.73 70.6667 L1553.47 70.6667 ZM1553.47 61.6667 L1553.47 49.3385 L1545.19 61.6667 L1553.47 61.6667 Z" fill="#000000" fill-opacity="1.000000"/>
  <path d="M1565.27 70.6667 L1565.27 67.6667 L1568.97 67.6667 L1568.97 70.6667 L1565.27 70.6667 Z" fill="#000000" fill-opacity="1.000000"/>
  <path d="M1590.72 67.6667 L1590.72 70.6667 L1573.22 70.6667 Q1573.17 69.5417 1573.59 68.4948 Q1574.27 66.776 1575.73 65.112 Q1577.2 63.4479 1579.98 61.0729 Q1584.31 57.3854 1585.83 55.2839 Q1587.34 53.1823 1587.34 51.3229 Q1587.34 49.3542 1585.96 48.0104 Q1584.58 46.6667 1582.36 46.6667 Q1580.02 46.6667 1578.6 47.7292 Q1577.19 48.7917 1577.17 50.6667 L1573.83 50.6667 Q1574.17 47.2448 1576.41 45.4557 Q1578.66 43.6667 1582.42 43.6667 Q1586.25 43.6667 1588.47 45.8385 Q1590.69 48.0104 1590.69 51.2292 Q1590.69 52.8698 1590.04 54.4479 Q1589.39 56.026 1587.88 57.776 Q1586.36 59.526 1582.86 62.5104 Q1579.94 64.9948 1579.11 65.8854 Q1578.28 66.776 1577.73 67.6667 L1590.72 67.6667 Z" fill="#000000" fill-opacity="1.000000"/>
  <path d="M1734.47 70.6667 L1734.47 64.6667 L1722.98 64.6667 L1722.98 61.6667 L1735.08 43.6667 L1737.73 43.6667 L1737.73 61.6667 L1741.31 61.6667 L1741.31 64.6667 L1737.73 64.6667 L1737.73 70.6667 L1734.47 70.6667 ZM1734.47 61.6667 L1734.47 49.3385 L1726.19 61.6667 L1734.47 61.6667 Z" fill="#000000" fill-opacity="1.000000"/>
  <path d="M1746.27 70.6667 L1746.27 67.6667 L1749.97 67.6667 L1749.97 70.6667 L1746.27 70.6667 Z" fill="#000000" fill-opacity="1.000000"/>
  <path d="M1771.5 50.6667 L1768.27 50.6667 Q1767.83 48.8385 1767.03 47.9948 Q1765.72 46.6667 1763.78 46.6667 Q1762.23 46.6667 1761.06 47.4323 Q1759.53 48.4323 1758.64 50.3464 Q1757.75 52.2604 1757.72 56.1979 Q1758.89 54.401 1760.59 53.5339 Q1762.28 52.6667 1764.16 52.6667 Q1767.41 52.6667 1769.69 55.112 Q1771.97 57.5573 1771.97 61.4323 Q1771.97 63.9792 1770.89 66.1589 Q1769.81 68.3385 1767.94 69.5026 Q1766.06 70.6667 1763.67 70.6667 Q1759.61 70.6667 1757.05 67.6823 Q1754.48 64.6979 1754.48 57.8385 Q1754.48 50.1823 1757.33 46.6979 Q1759.8 43.6667 1763.98 43.6667 Q1767.11 43.6667 1769.11 45.526 Q1771.11 47.3854 1771.5 50.6667 ZM1758.22 61.3542 Q1758.22 63.026 1758.93 64.5495 Q1759.64 66.0729 1760.93 66.8698 Q1762.22 67.6667 1763.63 67.6667 Q1765.69 67.6667 1767.17 66.0182 Q1768.66 64.3698 1768.66 61.526 Q1768.66 58.8073 1767.19 57.237 Q1765.72 55.6667 1763.5 55.6667 Q1761.3 55.6667 1759.76 57.237 Q1758.22 58.8073 1758.22 61.3542 Z" fill="#000000" fill-opacity="1.000000"/>
  <path d="M1905.05 63.6667 L1908.47 63.6667 Q1908.84 65.6667 1910.23 66.6667 Q1911.61 67.6667 1913.56 67.6667 Q1915.91 67.6667 1917.53 65.9635 Q1919.16 64.2604 1919.16 61.4479 Q1919.16 58.7604 1917.59 57.2135 Q1916.03 55.6667 1913.5 55.6667 Q1911.94 55.6667 1910.67 56.2214 Q1909.41 56.776 1908.69 57.6667 L1905.62 57.6667 L1908.19 43.6667 L1921.36 43.6667 L1921.36 46.6667 L1910.8 46.6667 L1909.38 54.401 Q1911.77 52.6667 1914.38 52.6667 Q1917.84 52.6667 1920.23 55.0651 Q1922.61 57.4635 1922.61 61.2448 Q1922.61 64.8385 1920.52 67.4479 Q1917.97 70.6667 1913.56 70.6667 Q1909.94 70.6667 1907.66 68.7526 Q1905.38 66.8385 1905.05 63.6667 Z" fill="#000000" fill-opacity="1.000000"/>
  <path d="M1927.27 70.6667 L1927.27 67.6667 L1930.97 67.6667 L1930.97 70.6667 L1927.27 70.6667 Z" fill="#000000" fill-opacity="1.000000"/>
  <path d="M1935.62 57.1823 Q1935.62 52.4792 1936.59 49.6276 Q1937.56 46.776 1939.47 45.2214 Q1941.38 43.6667 1944.27 43.6667 Q1946.41 43.6667 1948.01 44.526 Q1949.61 45.3854 1950.66 46.9948 Q1951.72 48.6042 1952.31 50.9245 Q1952.91 53.2448 1952.91 57.1823 Q1952.91 61.8229 1951.95 64.6823 Q1950.98 67.5417 1949.08 69.1042 Q1947.17 70.6667 1944.27 70.6667 Q1940.44 70.6667 1938.25 67.9323 Q1935.62 64.6198 1935.62 57.1823 ZM1938.97 57.1667 Q1938.97 63.4792 1940.5 65.5729 Q1942.03 67.6667 1944.27 67.6667 Q1946.5 67.6667 1948.03 65.5651 Q1949.56 63.4635 1949.56 57.1667 Q1949.56 50.8385 1948.03 48.7526 Q1946.5 46.6667 1944.23 46.6667 Q1941.98 46.6667 1940.66 48.5104 Q1938.97 50.8542 1938.97 57.1667 Z" fill="#000000" fill-opacity="1.000000"/>
  <path d="M1929 1092 L1929 108 " fill="none" stroke-width="3.333333" stroke="#000000ff"/>
  <path d="M1915.67 1092 L1929 1092 " fill="none" stroke-width="3.333333" stroke="#000000ff"/>
  <path d="M1915.67 1017.95 L1929 1017.95 " fill="none" stroke-width="3.333333" stroke="#000000ff"/>
  <path d="M1915.67 974.628 L1929 974.628 " fill="none" stroke-width="3.333333" stroke="#000000ff"/>
  <path d="M1915.67 943.893 L1929 943.893 " fill="none" stroke-width="3.333333" stroke="#000000ff"/>
  <path d="M1915.67 920.053 L1929 920.053 " fill="none" stroke-width="3.333333" stroke="#000000ff"/>
  <path d="M1915.67 900.575 L1929 900.575 " fill="none" stroke-width="3.333333" stroke="#000000ff"/>
  <path d="M1915.67 884.106 L1929 884.106 " fill="none" stroke-width="3.333333" stroke="#000000ff"/>
  <path d="M1915.67 869.84 L1929 869.84 " fill="none" stroke-width="3.333333" stroke="#000000ff"/>
  <path d="M1915.67 857.256 L1929 857.256 " fill="none" stroke-width="3.333333" stroke="#000000ff"/>
  <path d="M1915.67 846 L1929 846 " fill="none" stroke-width="3.333333" stroke="#000000ff"/>
  <path d="M1915.67 771.947 L1929 771.947 " fill="none" stroke-width="3.333333" stroke="#000000ff"/>
  <path d="M1915.67 728.628 L1929 728.628 " fill="none" stroke-width="3.333333" stroke="#000000ff"/>
  <path d="M1915.67 697.893 L1929 697.893 " fill="none" stroke-width="3.333333" stroke="#000000ff"/>
  <path d="M1915.67 674.053 L1929 674.053 " fill="none" stroke-width="3.333333" stroke="#000000ff"/>
  <path d="M1915.67 654.575 L1929 654.575 " fill="none" stroke-width="3.333333" stroke="#000000ff"/>
  <path d="M1915.67 638.106 L1929 638.106 " fill="none" stroke-width="3.333333" stroke="#000000ff"/>
  <path d="M1915.67 623.84 L1929 623.84 " fill="none" stroke-width="3.333333" stroke="#000000ff"/>
  <path d="M1915.67 611.256 L1929 611.256 " fill="none" stroke-width="3.333333" stroke="#000000ff"/>
  <path d="M1915.67 600 L1929 600 " fill="none" stroke-width="3.333333" stroke="#000000ff"/>
  <path d="M1915.67 525.947 L1929 525.947 " fill="none" stroke-width="3.333333" stroke="#000000ff"/>
  <path d="M1915.67 482.628 L1929 482.628 " fill="none" stroke-width="3.333333" stroke="#000000ff"/>
  <path d="M1915.67 451.893 L1929 451.893 " fill="none" stroke-width="3.333333" stroke="#000000ff"/>
  <path d="M1915.67 428.053 L1929 428.053 " fill="none" stroke-width="3.333333" stroke="#000000ff"/>
  <path d="M1915.67 408.575 L1929 408.575 " fill="none" stroke-width="3.333333" stroke="#000000ff"/>
  <path d="M1915.67 392.106 L1929 392.106 " fill="none" stroke-width="3.333333" stroke="#000000ff"/>
  <path d="M1915.67 377.84 L1929 377.84 " fill="none" stroke-width="3.333333" stroke="#000000ff"/>
  <path d="M1915.67 365.256 L1929 365.256 " fill="none" stroke-width="3.333333" stroke="#000000ff"/>
  <path d="M1915.67 354 L1929 354 " fill="none" stroke-width="3.333333" stroke="#000000ff"/>
  <path d="M1915.67 279.947 L1929 279.947 " fill="none" stroke-width="3.333333" stroke="#000000ff"/>
  <path d="M1915.67 236.628 L1929 236.628 " fill="none" stroke-width="3.333333" stroke="#000000ff"/>
  <path d="M1915.67 205.893 L1929 205.893 " fill="none" stroke-width="3.333333" stroke="#000000ff"/>
  <path d="M1915.67 182.053 L1929 182.053 " fill="none" stroke-width="3.333333" stroke="#000000ff"/>
  <path d="M1915.67 162.575 L1929 162.575 " fill="none" stroke-width="3.333333" stroke="#000000ff"/>
  <path d="M1915.67 146.106 L1929 146.106 " fill="none" stroke-width="3.333333" stroke="#000000ff"/>
  <path d="M1915.67 131.84 L1929 131.84 " fill="none" stroke-width="3.333333" stroke="#000000ff"/>
  <path d="M1915.67 119.256 L1929 119.256 " fill="none" stroke-width="3.333333" stroke="#000000ff"/>
  <path d="M1915.67 108 L1929 108 " fill="none" stroke-width="3.333333" stroke="#000000ff"/>
  <path d="M1967.82 1081.62 L1967.82 1100.5 L1971.05 1100.5 L1971.05 1074 L1968.93 1074 C1967.79 1078.06 1967.05 1078.62 1962.07 1079.28 L1962.07 1081.62 L1967.82 1081.62 Z" fill="#000000" fill-opacity="1.000000"/>
  <path d="M1988.8 1074.5 C1986.38 1074.5 1984.18 1075.61 1982.82 1077.41 C1981.13 1079.61 1980.29 1082.91 1980.29 1087.52 C1980.29 1095.91 1983.22 1100.5 1988.8 1100.5 C1994.3 1100.5 1997.3 1095.91 1997.3 1087.72 C1997.3 1082.91 1996.51 1079.67 1994.77 1077.41 C1993.43 1075.58 1991.26 1074.5 1988.8 1074.5 ZM1988.8 1077.38 C1992.29 1077.38 1994.01 1080.7 1994.01 1087.44 C1994.01 1094.53 1992.32 1097.83 1988.72 1097.83 C1985.32 1097.83 1983.6 1094.39 1983.6 1087.55 C1983.6 1080.7 1985.32 1077.38 1988.8 1077.38 Z" fill="#000000" fill-opacity="1.000000"/>
  <path d="M2005.11 1074.5 C2001.57 1074.5 1999.66 1077.28 1999.66 1082.48 C1999.66 1087.73 2001.57 1090.5 2005.16 1090.5 C2008.68 1090.5 2010.61 1087.73 2010.61 1082.64 C2010.61 1077.25 2008.76 1074.5 2005.11 1074.5 ZM2005.11 1076.45 C2007.24 1076.45 2008.32 1078.45 2008.32 1082.45 C2008.32 1086.7 2007.29 1088.67 2005.08 1088.67 C2002.99 1088.67 2001.97 1086.59 2001.97 1082.53 C2001.97 1078.42 2002.99 1076.45 2005.11 1076.45 Z" fill="#000000" fill-opacity="1.000000"/>
  <path d="M1972.11 859 L1968.86 859 L1968.86 837.969 Q1967.69 839.109 1965.79 840.242 Q1963.88 841.375 1962.36 841.938 L1962.36 838.75 Q1965.1 837.453 1967.14 835.602 Q1969.18 833.75 1970.02 832 L1972.11 832 L1972.11 859 Z" fill="#000000" fill-opacity="1.000000"/>
  <path d="M1980.26 845.516 Q1980.26 840.812 1981.22 837.961 Q1982.19 835.109 1984.1 833.555 Q1986.01 832 1988.9 832 Q1991.04 832 1992.64 832.859 Q1994.24 833.719 1995.29 835.328 Q1996.35 836.938 1996.94 839.258 Q1997.54 841.578 1997.54 845.516 Q1997.54 850.156 1996.58 853.016 Q1995.61 855.875 1993.71 857.438 Q1991.8 859 1988.9 859 Q1985.07 859 1982.88 856.266 Q1980.26 852.953 1980.26 845.516 ZM1983.6 845.5 Q1983.6 851.812 1985.13 853.906 Q1986.66 856 1988.9 856 Q1991.13 856 1992.66 853.898 Q1994.19 851.797 1994.19 845.5 Q1994.19 839.172 1992.66 837.086 Q1991.13 835 1988.86 835 Q1986.61 835 1985.29 836.844 Q1983.6 839.188 1983.6 845.5 Z" fill="#000000" fill-opacity="1.000000"/>
  <path d="M2005.1 846 L2005.1 835.25 Q2003.26 837.219 2001.05 838 L2001.05 835 Q2002.18 834.672 2003.55 833.828 Q2004.93 832.984 2005.77 832 L2007.71 832 L2007.71 846 L2005.1 846 Z" fill="#000000" fill-opacity="1.000000"/>
  <path d="M1972.11 613 L1968.86 613 L1968.86 591.969 Q1967.69 593.109 1965.79 594.242 Q1963.88 595.375 1962.36 595.938 L1962.36 592.75 Q1965.1 591.453 1967.14 589.602 Q1969.18 587.75 1970.02 586 L1972.11 586 L1972.11 613 Z" fill="#000000" fill-opacity="1.000000"/>
  <path d="M1980.26 599.516 Q1980.26 594.812 1981.22 591.961 Q1982.19 589.109 1984.1 587.555 Q1986.01 586 1988.9 586 Q1991.04 586 1992.64 586.859 Q1994.24 587.719 1995.29 589.328 Q1996.35 590.938 1996.94 593.258 Q1997.54 595.578 1997.54 599.516 Q1997.54 604.156 1996.58 607.016 Q1995.61 609.875 1993.71 611.438 Q1991.8 613 1988.9 613 Q1985.07 613 1982.88 610.266 Q1980.26 606.953 1980.26 599.516 ZM1983.6 599.5 Q1983.6 605.812 1985.13 607.906 Q1986.66 610 1988.9 610 Q1991.13 610 1992.66 607.898 Q1994.19 605.797 1994.19 599.5 Q1994.19 593.172 1992.66 591.086 Q1991.13 589 1988.86 589 Q1986.61 589 1985.29 590.844 Q1983.6 593.188 1983.6 599.5 Z" fill="#000000" fill-opacity="1.000000"/>
  <path d="M1999.57 600 Q1999.68 598.922 2000.41 597.844 Q2001.55 596.203 2004.15 594.227 Q2006.76 592.25 2007.24 591.672 Q2007.91 590.906 2007.91 590.078 Q2007.91 589.172 2007.28 588.586 Q2006.65 588 2005.43 588 Q2004.22 588 2003.64 588.414 Q2003.05 588.828 2002.68 590 L1999.94 590 Q2000.47 587.938 2001.76 586.969 Q2003.05 586 2005.47 586 Q2008.21 586 2009.48 587.125 Q2010.76 588.25 2010.76 589.875 Q2010.76 591.484 2009.69 592.922 Q2008.86 593.984 2005.97 596.188 Q2004.47 597.328 2003.85 598 L2010.82 598 L2010.82 600 L1999.57 600 Z" fill="#000000" fill-opacity="1.000000"/>
  <path d="M1972.11 367 L1968.86 367 L1968.86 345.969 Q1967.69 347.109 1965.79 348.242 Q1963.88 349.375 1962.36 349.938 L1962.36 346.75 Q1965.1 345.453 1967.14 343.602 Q1969.18 341.75 1970.02 340 L1972.11 340 L1972.11 367 Z" fill="#000000" fill-opacity="1.000000"/>
  <path d="M1980.26 353.516 Q1980.26 348.813 1981.22 345.961 Q1982.19 343.109 1984.1 341.555 Q1986.01 340 1988.9 340 Q1991.04 340 1992.64 340.859 Q1994.24 341.719 1995.29 343.328 Q1996.35 344.938 1996.94 347.258 Q1997.54 349.578 1997.54 353.516 Q1997.54 358.156 1996.58 361.016 Q1995.61 363.875 1993.71 365.438 Q1991.8 367 1988.9 367 Q1985.07 367 1982.88 364.266 Q1980.26 360.953 1980.26 353.516 ZM1983.6 353.5 Q1983.6 359.813 1985.13 361.906 Q1986.66 364 1988.9 364 Q1991.13 364 1992.66 361.898 Q1994.19 359.797 1994.19 353.5 Q1994.19 347.172 1992.66 345.086 Q1991.13 343 1988.86 343 Q1986.61 343 1985.29 344.844 Q1983.6 347.188 1983.6 353.5 Z" fill="#000000" fill-opacity="1.000000"/>
  <path d="M1999.57 354 Q1999.68 352.922 2000.41 351.844 Q2001.55 350.203 2004.15 348.227 Q2006.76 346.25 2007.24 345.672 Q2007.91 344.906 2007.91 344.078 Q2007.91 343.172 2007.28 342.586 Q2006.65 342 2005.43 342 Q2004.22 342 2003.64 342.414 Q2003.05 342.828 2002.68 344 L1999.94 344 Q2000.47 341.938 2001.76 340.969 Q2003.05 340 2005.47 340 Q2008.21 340 2009.48 341.125 Q2010.76 342.25 2010.76 343.875 Q2010.76 345.484 2009.69 346.922 Q2008.86 347.984 2005.97 350.188 Q2004.47 351.328 2003.85 352 L2010.82 352 L2010.82 354 L1999.57 354 Z" fill="#000000" fill-opacity="1.000000"/>
  <path d="M1967.82 97.625 L1967.82 116.5 L1971.05 116.5 L1971.05 90 L1968.93 90 C1967.79 94.0625 1967.05 94.625 1962.07 95.2812 L1962.07 97.625 L1967.82 97.625 Z" fill="#000000" fill-opacity="1.000000"/>
  <path d="M1988.8 90.5 C1986.38 90.5 1984.18 91.6094 1982.82 93.4062 C1981.13 95.6094 1980.29 98.9062 1980.29 103.516 C1980.29 111.906 1983.22 116.5 1988.8 116.5 C1994.3 116.5 1997.3 111.906 1997.3 103.719 C1997.3 98.9062 1996.51 95.6719 1994.77 93.4062 C1993.43 91.5781 1991.26 90.5 1988.8 90.5 ZM1988.8 93.375 C1992.29 93.375 1994.01 96.7031 1994.01 103.438 C1994.01 110.531 1992.32 113.828 1988.72 113.828 C1985.32 113.828 1983.6 110.391 1983.6 103.547 C1983.6 96.7031 1985.32 93.375 1988.8 93.375 Z" fill="#000000" fill-opacity="1.000000"/>
  <path d="M2006.18 102.453 L2006.18 106.125 L2008.46 106.125 L2008.46 102.453 L2010.91 102.453 L2010.91 100.5 L2008.46 100.5 L2008.46 90.5312 L2006.77 90.5312 L1999.29 100.281 L1999.29 102.453 L2006.18 102.453 ZM2006.18 100.5 L2001.46 100.5 L2006.18 94.2812 L2006.18 100.5 Z" fill="#000000" fill-opacity="1.000000"/>
  <path d="M119 1092 L1929 1092 " fill="none" stroke-width="3.333333" stroke="#000000ff"/>
  <path d="M119 1092 L119 1078.67 " fill="none" stroke-width="3.333333" stroke="#000000ff"/>
  <path d="M300 1092 L300 1078.67 " fill="none" stroke-width="3.333333" stroke="#000000ff"/>
  <path d="M481 1092 L481 1078.67 " fill="none" stroke-width="3.333333" stroke="#000000ff"/>
  <path d="M662 1092 L662 1078.67 " fill="none" stroke-width="3.333333" stroke="#000000ff"/>
  <path d="M843 1092 L843 1078.67 " fill="none" stroke-width="3.333333" stroke="#000000ff"/>
  <path d="M1024 1092 L1024 1078.67 " fill="none" stroke-width="3.333333" stroke="#000000ff"/>
  <path d="M1205 1092 L1205 1078.67 " fill="none" stroke-width="3.333333" stroke="#000000ff"/>
  <path d="M1386 1092 L1386 1078.67 " fill="none" stroke-width="3.333333" stroke="#000000ff"/>
  <path d="M1567 1092 L1567 1078.67 " fill="none" stroke-width="3.333333" stroke="#000000ff"/>
  <path d="M1748 1092 L1748 1078.67 " fill="none" stroke-width="3.333333" stroke="#000000ff"/>
  <path d="M1929 1092 L1929 1078.67 " fill="none" stroke-width="3.333333" stroke="#000000ff"/>
  <path d="M107.297 1155.33 L104.047 1155.33 L104.047 1134.3 Q102.875 1135.44 100.969 1136.58 Q99.0625 1137.71 97.5469 1138.27 L97.5469 1135.08 Q100.281 1133.79 102.32 1131.93 Q104.359 1130.08 105.203 1128.33 L107.297 1128.33 L107.297 1155.33 Z" fill="#000000" fill-opacity="1.000000"/>
  <path d="M117.266 1155.33 L117.266 1152.33 L120.969 1152.33 L120.969 1155.33 L117.266 1155.33 Z" fill="#000000" fill-opacity="1.000000"/>
  <path d="M125.625 1141.85 Q125.625 1137.15 126.594 1134.29 Q127.563 1131.44 129.469 1129.89 Q131.375 1128.33 134.266 1128.33 Q136.406 1128.33 138.008 1129.19 Q139.609 1130.05 140.664 1131.66 Q141.719 1133.27 142.312 1135.59 Q142.906 1137.91 142.906 1141.85 Q142.906 1146.49 141.945 1149.35 Q140.984 1152.21 139.078 1153.77 Q137.172 1155.33 134.266 1155.33 Q130.438 1155.33 128.25 1152.6 Q125.625 1149.29 125.625 1141.85 ZM128.969 1141.83 Q128.969 1148.15 130.5 1150.24 Q132.031 1152.33 134.266 1152.33 Q136.5 1152.33 138.031 1150.23 Q139.562 1148.13 139.562 1141.83 Q139.562 1135.51 138.031 1133.42 Q136.5 1131.33 134.234 1131.33 Q131.984 1131.33 130.656 1133.18 Q128.969 1135.52 128.969 1141.83 Z" fill="#000000" fill-opacity="1.000000"/>
  <path d="M288.297 1155.33 L285.047 1155.33 L285.047 1134.3 Q283.875 1135.44 281.969 1136.58 Q280.063 1137.71 278.547 1138.27 L278.547 1135.08 Q281.281 1133.79 283.32 1131.93 Q285.359 1130.08 286.203 1128.33 L288.297 1128.33 L288.297 1155.33 Z" fill="#000000" fill-opacity="1.000000"/>
  <path d="M298.266 1155.33 L298.266 1152.33 L301.969 1152.33 L301.969 1155.33 L298.266 1155.33 Z" fill="#000000" fill-opacity="1.000000"/>
  <path d="M317.047 1155.33 L317.047 1149.33 L305.563 1149.33 L305.563 1146.33 L317.656 1128.33 L320.313 1128.33 L320.313 1146.33 L323.891 1146.33 L323.891 1149.33 L320.313 1149.33 L320.313 1155.33 L317.047 1155.33 ZM317.047 1146.33 L317.047 1134.01 L308.766 1146.33 L317.047 1146.33 Z" fill="#000000" fill-opacity="1.000000"/>
  <path d="M469.297 1155.33 L466.047 1155.33 L466.047 1134.3 Q464.875 1135.44 462.969 1136.58 Q461.063 1137.71 459.547 1138.27 L459.547 1135.08 Q462.281 1133.79 464.32 1131.93 Q466.359 1130.08 467.203 1128.33 L469.297 1128.33 L469.297 1155.33 Z" fill="#000000" fill-opacity="1.000000"/>
  <path d="M479.266 1155.33 L479.266 1152.33 L482.969 1152.33 L482.969 1155.33 L479.266 1155.33 Z" fill="#000000" fill-opacity="1.000000"/>
  <path d="M492.641 1140.74 Q490.609 1139.99 489.633 1138.6 Q488.656 1137.21 488.656 1135.26 Q488.656 1132.33 490.734 1130.33 Q492.813 1128.33 496.266 1128.33 Q499.734 1128.33 501.852 1130.38 Q503.969 1132.43 503.969 1135.35 Q503.969 1137.22 503 1138.61 Q502.031 1139.99 500.063 1140.74 Q502.5 1141.52 503.773 1143.26 Q505.047 1145.01 505.047 1147.43 Q505.047 1150.77 502.641 1153.05 Q500.234 1155.33 496.313 1155.33 Q492.406 1155.33 490 1153.04 Q487.594 1150.76 487.594 1147.35 Q487.594 1144.8 488.906 1143.08 Q490.219 1141.36 492.641 1140.74 ZM491.984 1135.22 Q491.984 1137.04 493.195 1138.18 Q494.406 1139.33 496.344 1139.33 Q498.219 1139.33 499.422 1138.19 Q500.625 1137.05 500.625 1135.4 Q500.625 1133.68 499.391 1132.51 Q498.156 1131.33 496.313 1131.33 Q494.438 1131.33 493.211 1132.48 Q491.984 1133.63 491.984 1135.22 ZM490.938 1147.29 Q490.938 1148.58 491.594 1149.79 Q492.25 1151.01 493.555 1151.67 Q494.859 1152.33 496.359 1152.33 Q498.688 1152.33 500.203 1150.93 Q501.719 1149.54 501.719 1147.38 Q501.719 1145.19 500.156 1143.76 Q498.594 1142.33 496.25 1142.33 Q493.953 1142.33 492.445 1143.75 Q490.938 1145.16 490.938 1147.29 Z" fill="#000000" fill-opacity="1.000000"/>
  <path d="M655.141 1152.33 L655.141 1155.33 L637.641 1155.33 Q637.594 1154.21 638.016 1153.16 Q638.688 1151.44 640.156 1149.78 Q641.625 1148.11 644.406 1145.74 Q648.734 1142.05 650.25 1139.95 Q651.766 1137.85 651.766 1135.99 Q651.766 1134.02 650.383 1132.68 Q649 1131.33 646.781 1131.33 Q644.438 1131.33 643.023 1132.4 Q641.609 1133.46 641.594 1135.33 L638.25 1135.33 Q638.594 1131.91 640.836 1130.12 Q643.078 1128.33 646.844 1128.33 Q650.672 1128.33 652.891 1130.51 Q655.109 1132.68 655.109 1135.9 Q655.109 1137.54 654.461 1139.11 Q653.813 1140.69 652.297 1142.44 Q650.781 1144.19 647.281 1147.18 Q644.359 1149.66 643.531 1150.55 Q642.703 1151.44 642.156 1152.33 L655.141 1152.33 Z" fill="#000000" fill-opacity="1.000000"/>
  <path d="M660.266 1155.33 L660.266 1152.33 L663.969 1152.33 L663.969 1155.33 L660.266 1155.33 Z" fill="#000000" fill-opacity="1.000000"/>
  <path d="M685.719 1152.33 L685.719 1155.33 L668.219 1155.33 Q668.172 1154.21 668.594 1153.16 Q669.266 1151.44 670.734 1149.78 Q672.203 1148.11 674.984 1145.74 Q679.313 1142.05 680.828 1139.95 Q682.344 1137.85 682.344 1135.99 Q682.344 1134.02 680.961 1132.68 Q679.578 1131.33 677.359 1131.33 Q675.016 1131.33 673.602 1132.4 Q672.188 1133.46 672.172 1135.33 L668.828 1135.33 Q669.172 1131.91 671.414 1130.12 Q673.656 1128.33 677.422 1128.33 Q681.25 1128.33 683.469 1130.51 Q685.688 1132.68 685.688 1135.9 Q685.688 1137.54 685.039 1139.11 Q684.391 1140.69 682.875 1142.44 Q681.359 1144.19 677.859 1147.18 Q674.938 1149.66 674.109 1150.55 Q673.281 1151.44 672.734 1152.33 L685.719 1152.33 Z" fill="#000000" fill-opacity="1.000000"/>
  <path d="M836.141 1152.33 L836.141 1155.33 L818.641 1155.33 Q818.594 1154.21 819.016 1153.16 Q819.688 1151.44 821.156 1149.78 Q822.625 1148.11 825.406 1145.74 Q829.734 1142.05 831.25 1139.95 Q832.766 1137.85 832.766 1135.99 Q832.766 1134.02 831.383 1132.68 Q830 1131.33 827.781 1131.33 Q825.438 1131.33 824.023 1132.4 Q822.609 1133.46 822.594 1135.33 L819.25 1135.33 Q819.594 1131.91 821.836 1130.12 Q824.078 1128.33 827.844 1128.33 Q831.672 1128.33 833.891 1130.51 Q836.109 1132.68 836.109 1135.9 Q836.109 1137.54 835.461 1139.11 Q834.813 1140.69 833.297 1142.44 Q831.781 1144.19 828.281 1147.18 Q825.359 1149.66 824.531 1150.55 Q823.703 1151.44 823.156 1152.33 L836.141 1152.33 Z" fill="#000000" fill-opacity="1.000000"/>
  <path d="M841.266 1155.33 L841.266 1152.33 L844.969 1152.33 L844.969 1155.33 L841.266 1155.33 Z" fill="#000000" fill-opacity="1.000000"/>
  <path d="M866.5 1135.33 L863.266 1135.33 Q862.828 1133.51 862.031 1132.66 Q860.719 1131.33 858.781 1131.33 Q857.234 1131.33 856.063 1132.1 Q854.531 1133.1 853.641 1135.01 Q852.75 1136.93 852.719 1140.86 Q853.891 1139.07 855.586 1138.2 Q857.281 1137.33 859.156 1137.33 Q862.406 1137.33 864.688 1139.78 Q866.969 1142.22 866.969 1146.1 Q866.969 1148.65 865.891 1150.83 Q864.813 1153.01 862.938 1154.17 Q861.063 1155.33 858.672 1155.33 Q854.609 1155.33 852.047 1152.35 Q849.484 1149.36 849.484 1142.51 Q849.484 1134.85 852.328 1131.36 Q854.797 1128.33 858.984 1128.33 Q862.109 1128.33 864.109 1130.19 Q866.109 1132.05 866.5 1135.33 ZM853.219 1146.02 Q853.219 1147.69 853.93 1149.22 Q854.641 1150.74 855.93 1151.54 Q857.219 1152.33 858.625 1152.33 Q860.688 1152.33 862.172 1150.68 Q863.656 1149.04 863.656 1146.19 Q863.656 1143.47 862.188 1141.9 Q860.719 1140.33 858.5 1140.33 Q856.297 1140.33 854.758 1141.9 Q853.219 1143.47 853.219 1146.02 Z" fill="#000000" fill-opacity="1.000000"/>
  <path d="M1000.06 1148.33 L1003.33 1148.33 Q1003.89 1150.46 1005.23 1151.4 Q1006.58 1152.33 1008.52 1152.33 Q1010.81 1152.33 1012.39 1150.79 Q1013.97 1149.26 1013.97 1146.97 Q1013.97 1144.8 1012.51 1143.38 Q1011.05 1141.96 1008.78 1141.96 Q1007.86 1141.96 1006.48 1142.33 L1006.84 1139.33 Q1007.17 1139.36 1007.38 1139.36 Q1009.45 1139.36 1011.11 1138.35 Q1012.77 1137.33 1012.77 1135.21 Q1012.77 1133.54 1011.55 1132.43 Q1010.34 1131.33 1008.42 1131.33 Q1006.53 1131.33 1005.27 1132.33 Q1004 1133.33 1003.64 1135.33 L1000.39 1135.33 Q1000.98 1132.01 1003.1 1130.17 Q1005.22 1128.33 1008.36 1128.33 Q1010.53 1128.33 1012.35 1129.26 Q1014.17 1130.18 1015.14 1131.76 Q1016.11 1133.35 1016.11 1135.13 Q1016.11 1136.82 1015.19 1138.21 Q1014.27 1139.6 1012.47 1140.43 Q1014.81 1140.97 1016.11 1142.69 Q1017.41 1144.41 1017.41 1146.99 Q1017.41 1150.47 1014.88 1152.9 Q1012.34 1155.33 1008.48 1155.33 Q1005 1155.33 1002.7 1153.39 Q1000.39 1151.44 1000.06 1148.33 Z" fill="#000000" fill-opacity="1.000000"/>
  <path d="M1022.27 1155.33 L1022.27 1152.33 L1025.97 1152.33 L1025.97 1155.33 L1022.27 1155.33 Z" fill="#000000" fill-opacity="1.000000"/>
  <path d="M1030.62 1141.85 Q1030.62 1137.15 1031.59 1134.29 Q1032.56 1131.44 1034.47 1129.89 Q1036.38 1128.33 1039.27 1128.33 Q1041.41 1128.33 1043.01 1129.19 Q1044.61 1130.05 1045.66 1131.66 Q1046.72 1133.27 1047.31 1135.59 Q1047.91 1137.91 1047.91 1141.85 Q1047.91 1146.49 1046.95 1149.35 Q1045.98 1152.21 1044.08 1153.77 Q1042.17 1155.33 1039.27 1155.33 Q1035.44 1155.33 1033.25 1152.6 Q1030.62 1149.29 1030.62 1141.85 ZM1033.97 1141.83 Q1033.97 1148.15 1035.5 1150.24 Q1037.03 1152.33 1039.27 1152.33 Q1041.5 1152.33 1043.03 1150.23 Q1044.56 1148.13 1044.56 1141.83 Q1044.56 1135.51 1043.03 1133.42 Q1041.5 1131.33 1039.23 1131.33 Q1036.98 1131.33 1035.66 1133.18 Q1033.97 1135.52 1033.97 1141.83 Z" fill="#000000" fill-opacity="1.000000"/>
  <path d="M1181.06 1148.33 L1184.33 1148.33 Q1184.89 1150.46 1186.23 1151.4 Q1187.58 1152.33 1189.52 1152.33 Q1191.81 1152.33 1193.39 1150.79 Q1194.97 1149.26 1194.97 1146.97 Q1194.97 1144.8 1193.51 1143.38 Q1192.05 1141.96 1189.78 1141.96 Q1188.86 1141.96 1187.48 1142.33 L1187.84 1139.33 Q1188.17 1139.36 1188.38 1139.36 Q1190.45 1139.36 1192.11 1138.35 Q1193.77 1137.33 1193.77 1135.21 Q1193.77 1133.54 1192.55 1132.43 Q1191.34 1131.33 1189.42 1131.33 Q1187.53 1131.33 1186.27 1132.33 Q1185 1133.33 1184.64 1135.33 L1181.39 1135.33 Q1181.98 1132.01 1184.1 1130.17 Q1186.22 1128.33 1189.36 1128.33 Q1191.53 1128.33 1193.35 1129.26 Q1195.17 1130.18 1196.14 1131.76 Q1197.11 1133.35 1197.11 1135.13 Q1197.11 1136.82 1196.19 1138.21 Q1195.27 1139.6 1193.47 1140.43 Q1195.81 1140.97 1197.11 1142.69 Q1198.41 1144.41 1198.41 1146.99 Q1198.41 1150.47 1195.88 1152.9 Q1193.34 1155.33 1189.48 1155.33 Q1186 1155.33 1183.7 1153.39 Q1181.39 1151.44 1181.06 1148.33 Z" fill="#000000" fill-opacity="1.000000"/>
  <path d="M1203.27 1155.33 L1203.27 1152.33 L1206.97 1152.33 L1206.97 1155.33 L1203.27 1155.33 Z" fill="#000000" fill-opacity="1.000000"/>
  <path d="M1222.05 1155.33 L1222.05 1149.33 L1210.56 1149.33 L1210.56 1146.33 L1222.66 1128.33 L1225.31 1128.33 L1225.31 1146.33 L1228.89 1146.33 L1228.89 1149.33 L1225.31 1149.33 L1225.31 1155.33 L1222.05 1155.33 ZM1222.05 1146.33 L1222.05 1134.01 L1213.77 1146.33 L1222.05 1146.33 Z" fill="#000000" fill-opacity="1.000000"/>
  <path d="M1362.06 1148.33 L1365.33 1148.33 Q1365.89 1150.46 1367.23 1151.4 Q1368.58 1152.33 1370.52 1152.33 Q1372.81 1152.33 1374.39 1150.79 Q1375.97 1149.26 1375.97 1146.97 Q1375.97 1144.8 1374.51 1143.38 Q1373.05 1141.96 1370.78 1141.96 Q1369.86 1141.96 1368.48 1142.33 L1368.84 1139.33 Q1369.17 1139.36 1369.37 1139.36 Q1371.45 1139.36 1373.11 1138.35 Q1374.77 1137.33 1374.77 1135.21 Q1374.77 1133.54 1373.55 1132.43 Q1372.34 1131.33 1370.42 1131.33 Q1368.53 1131.33 1367.27 1132.33 Q1366 1133.33 1365.64 1135.33 L1362.39 1135.33 Q1362.98 1132.01 1365.1 1130.17 Q1367.22 1128.33 1370.36 1128.33 Q1372.53 1128.33 1374.35 1129.26 Q1376.17 1130.18 1377.14 1131.76 Q1378.11 1133.35 1378.11 1135.13 Q1378.11 1136.82 1377.19 1138.21 Q1376.27 1139.6 1374.47 1140.43 Q1376.81 1140.97 1378.11 1142.69 Q1379.41 1144.41 1379.41 1146.99 Q1379.41 1150.47 1376.87 1152.9 Q1374.34 1155.33 1370.48 1155.33 Q1367 1155.33 1364.7 1153.39 Q1362.39 1151.44 1362.06 1148.33 Z" fill="#000000" fill-opacity="1.000000"/>
  <path d="M1384.27 1155.33 L1384.27 1152.33 L1387.97 1152.33 L1387.97 1155.33 L1384.27 1155.33 Z" fill="#000000" fill-opacity="1.000000"/>
  <path d="M1397.64 1140.74 Q1395.61 1139.99 1394.63 1138.6 Q1393.66 1137.21 1393.66 1135.26 Q1393.66 1132.33 1395.73 1130.33 Q1397.81 1128.33 1401.27 1128.33 Q1404.73 1128.33 1406.85 1130.38 Q1408.97 1132.43 1408.97 1135.35 Q1408.97 1137.22 1408 1138.61 Q1407.03 1139.99 1405.06 1140.74 Q1407.5 1141.52 1408.77 1143.26 Q1410.05 1145.01 1410.05 1147.43 Q1410.05 1150.77 1407.64 1153.05 Q1405.23 1155.33 1401.31 1155.33 Q1397.41 1155.33 1395 1153.04 Q1392.59 1150.76 1392.59 1147.35 Q1392.59 1144.8 1393.91 1143.08 Q1395.22 1141.36 1397.64 1140.74 ZM1396.98 1135.22 Q1396.98 1137.04 1398.2 1138.18 Q1399.41 1139.33 1401.34 1139.33 Q1403.22 1139.33 1404.42 1138.19 Q1405.62 1137.05 1405.62 1135.4 Q1405.62 1133.68 1404.39 1132.51 Q1403.16 1131.33 1401.31 1131.33 Q1399.44 1131.33 1398.21 1132.48 Q1396.98 1133.63 1396.98 1135.22 ZM1395.94 1147.29 Q1395.94 1148.58 1396.59 1149.79 Q1397.25 1151.01 1398.55 1151.67 Q1399.86 1152.33 1401.36 1152.33 Q1403.69 1152.33 1405.2 1150.93 Q1406.72 1149.54 1406.72 1147.38 Q1406.72 1145.19 1405.16 1143.76 Q1403.59 1142.33 1401.25 1142.33 Q1398.95 1142.33 1397.45 1143.75 Q1395.94 1145.16 1395.94 1147.29 Z" fill="#000000" fill-opacity="1.000000"/>
  <path d="M1553.47 1155.33 L1553.47 1149.33 L1541.98 1149.33 L1541.98 1146.33 L1554.08 1128.33 L1556.73 1128.33 L1556.73 1146.33 L1560.31 1146.33 L1560.31 1149.33 L1556.73 1149.33 L1556.73 1155.33 L1553.47 1155.33 ZM1553.47 1146.33 L1553.47 1134.01 L1545.19 1146.33 L1553.47 1146.33 Z" fill="#000000" fill-opacity="1.000000"/>
  <path d="M1565.27 1155.33 L1565.27 1152.33 L1568.97 1152.33 L1568.97 1155.33 L1565.27 1155.33 Z" fill="#000000" fill-opacity="1.000000"/>
  <path d="M1590.72 1152.33 L1590.72 1155.33 L1573.22 1155.33 Q1573.17 1154.21 1573.59 1153.16 Q1574.27 1151.44 1575.73 1149.78 Q1577.2 1148.11 1579.98 1145.74 Q1584.31 1142.05 1585.83 1139.95 Q1587.34 1137.85 1587.34 1135.99 Q1587.34 1134.02 1585.96 1132.68 Q1584.58 1131.33 1582.36 1131.33 Q1580.02 1131.33 1578.6 1132.4 Q1577.19 1133.46 1577.17 1135.33 L1573.83 1135.33 Q1574.17 1131.91 1576.41 1130.12 Q1578.66 1128.33 1582.42 1128.33 Q1586.25 1128.33 1588.47 1130.51 Q1590.69 1132.68 1590.69 1135.9 Q1590.69 1137.54 1590.04 1139.11 Q1589.39 1140.69 1587.88 1142.44 Q1586.36 1144.19 1582.86 1147.18 Q1579.94 1149.66 1579.11 1150.55 Q1578.28 1151.44 1577.73 1152.33 L1590.72 1152.33 Z" fill="#000000" fill-opacity="1.000000"/>
  <path d="M1734.47 1155.33 L1734.47 1149.33 L1722.98 1149.33 L1722.98 1146.33 L1735.08 1128.33 L1737.73 1128.33 L1737.73 1146.33 L1741.31 1146.33 L1741.31 1149.33 L1737.73 1149.33 L1737.73 1155.33 L1734.47 1155.33 ZM1734.47 1146.33 L1734.47 1134.01 L1726.19 1146.33 L1734.47 1146.33 Z" fill="#000000" fill-opacity="1.000000"/>
  <path d="M1746.27 1155.33 L1746.27 1152.33 L1749.97 1152.33 L1749.97 1155.33 L1746.27 1155.33 Z" fill="#000000" fill-opacity="1.000000"/>
  <path d="M1771.5 1135.33 L1768.27 1135.33 Q1767.83 1133.51 1767.03 1132.66 Q1765.72 1131.33 1763.78 1131.33 Q1762.23 1131.33 1761.06 1132.1 Q1759.53 1133.1 1758.64 1135.01 Q1757.75 1136.93 1757.72 1140.86 Q1758.89 1139.07 1760.59 1138.2 Q1762.28 1137.33 1764.16 1137.33 Q1767.41 1137.33 1769.69 1139.78 Q1771.97 1142.22 1771.97 1146.1 Q1771.97 1148.65 1770.89 1150.83 Q1769.81 1153.01 1767.94 1154.17 Q1766.06 1155.33 1763.67 1155.33 Q1759.61 1155.33 1757.05 1152.35 Q1754.48 1149.36 1754.48 1142.51 Q1754.48 1134.85 1757.33 1131.36 Q1759.8 1128.33 1763.98 1128.33 Q1767.11 1128.33 1769.11 1130.19 Q1771.11 1132.05 1771.5 1135.33 ZM1758.22 1146.02 Q1758.22 1147.69 1758.93 1149.22 Q1759.64 1150.74 1760.93 1151.54 Q1762.22 1152.33 1763.63 1152.33 Q1765.69 1152.33 1767.17 1150.68 Q1768.66 1149.04 1768.66 1146.19 Q1768.66 1143.47 1767.19 1141.9 Q1765.72 1140.33 1763.5 1140.33 Q1761.3 1140.33 1759.76 1141.9 Q1758.22 1143.47 1758.22 1146.02 Z" fill="#000000" fill-opacity="1.000000"/>
  <path d="M1905.05 1148.33 L1908.47 1148.33 Q1908.84 1150.33 1910.23 1151.33 Q1911.61 1152.33 1913.56 1152.33 Q1915.91 1152.33 1917.53 1150.63 Q1919.16 1148.93 1919.16 1146.11 Q1919.16 1143.43 1917.59 1141.88 Q1916.03 1140.33 1913.5 1140.33 Q1911.94 1140.33 1910.67 1140.89 Q1909.41 1141.44 1908.69 1142.33 L1905.62 1142.33 L1908.19 1128.33 L1921.36 1128.33 L1921.36 1131.33 L1910.8 1131.33 L1909.38 1139.07 Q1911.77 1137.33 1914.38 1137.33 Q1917.84 1137.33 1920.23 1139.73 Q1922.61 1142.13 1922.61 1145.91 Q1922.61 1149.51 1920.52 1152.11 Q1917.97 1155.33 1913.56 1155.33 Q1909.94 1155.33 1907.66 1153.42 Q1905.38 1151.51 1905.05 1148.33 Z" fill="#000000" fill-opacity="1.000000"/>
  <path d="M1927.27 1155.33 L1927.27 1152.33 L1930.97 1152.33 L1930.97 1155.33 L1927.27 1155.33 Z" fill="#000000" fill-opacity="1.000000"/>
  <path d="M1935.62 1141.85 Q1935.62 1137.15 1936.59 1134.29 Q1937.56 1131.44 1939.47 1129.89 Q1941.38 1128.33 1944.27 1128.33 Q1946.41 1128.33 1948.01 1129.19 Q1949.61 1130.05 1950.66 1131.66 Q1951.72 1133.27 1952.31 1135.59 Q1952.91 1137.91 1952.91 1141.85 Q1952.91 1146.49 1951.95 1149.35 Q1950.98 1152.21 1949.08 1153.77 Q1947.17 1155.33 1944.27 1155.33 Q1940.44 1155.33 1938.25 1152.6 Q1935.62 1149.29 1935.62 1141.85 ZM1938.97 1141.83 Q1938.97 1148.15 1940.5 1150.24 Q1942.03 1152.33 1944.27 1152.33 Q1946.5 1152.33 1948.03 1150.23 Q1949.56 1148.13 1949.56 1141.83 Q1949.56 1135.51 1948.03 1133.42 Q1946.5 1131.33 1944.23 1131.33 Q1941.98 1131.33 1940.66 1133.18 Q1938.97 1135.52 1938.97 1141.83 Z" fill="#000000" fill-opacity="1.000000"/>
  <path d="M119 1092 L119 108 " fill="none" stroke-width="3.333333" stroke="#000000ff"/>
  <path d="M119 1092 L132.333 1092 " fill="none" stroke-width="3.333333" stroke="#000000ff"/>
  <path d="M119 1017.95 L132.333 1017.95 " fill="none" stroke-width="3.333333" stroke="#000000ff"/>
  <path d="M119 974.628 L132.333 974.628 " fill="none" stroke-width="3.333333" stroke="#000000ff"/>
  <path d="M119 943.893 L132.333 943.893 " fill="none" stroke-width="3.333333" stroke="#000000ff"/>
  <path d="M119 920.053 L132.333 920.053 " fill="none" stroke-width="3.333333" stroke="#000000ff"/>
  <path d="M119 900.575 L132.333 900.575 " fill="none" stroke-width="3.333333" stroke="#000000ff"/>
  <path d="M119 884.106 L132.333 884.106 " fill="none" stroke-width="3.333333" stroke="#000000ff"/>
  <path d="M119 869.84 L132.333 869.84 " fill="none" stroke-width="3.333333" stroke="#000000ff"/>
  <path d="M119 857.256 L132.333 857.256 " fill="none" stroke-width="3.333333" stroke="#000000ff"/>
  <path d="M119 846 L132.333 846 " fill="none" stroke-width="3.333333" stroke="#000000ff"/>
  <path d="M119 771.947 L132.333 771.947 " fill="none" stroke-width="3.333333" stroke="#000000ff"/>
  <path d="M119 728.628 L132.333 728.628 " fill="none" stroke-width="3.333333" stroke="#000000ff"/>
  <path d="M119 697.893 L132.333 697.893 " fill="none" stroke-width="3.333333" stroke="#000000ff"/>
  <path d="M119 674.053 L132.333 674.053 " fill="none" stroke-width="3.333333" stroke="#000000ff"/>
  <path d="M119 654.575 L132.333 654.575 " fill="none" stroke-width="3.333333" stroke="#000000ff"/>
  <path d="M119 638.106 L132.333 638.106 " fill="none" stroke-width="3.333333" stroke="#000000ff"/>
  <path d="M119 623.84 L132.333 623.84 " fill="none" stroke-width="3.333333" stroke="#000000ff"/>
  <path d="M119 611.256 L132.333 611.256 " fill="none" stroke-width="3.333333" stroke="#000000ff"/>
  <path d="M119 600 L132.333 600 " fill="none" stroke-width="3.333333" stroke="#000000ff"/>
  <path d="M119 525.947 L132.333 525.947 " fill="none" stroke-width="3.333333" stroke="#000000ff"/>
  <path d="M119 482.628 L132.333 482.628 " fill="none" stroke-width="3.333333" stroke="#000000ff"/>
  <path d="M119 451.893 L132.333 451.893 " fill="none" stroke-width="3.333333" stroke="#000000ff"/>
  <path d="M119 428.053 L132.333 428.053 " fill="none" stroke-width="3.333333" stroke="#000000ff"/>
  <path d="M119 408.575 L132.333 408.575 " fill="none" stroke-width="3.333333" stroke="#000000ff"/>
  <path d="M119 392.106 L132.333 392.106 " fill="none" stroke-width="3.333333" stroke="#000000ff"/>
  <path d="M119 377.84 L132.333 377.84 " fill="none" stroke-width="3.333333" stroke="#000000ff"/>
  <path d="M119 365.256 L132.333 365.256 " fill="none" stroke-width="3.333333" stroke="#000000ff"/>
  <path d="M119 354 L132.333 354 " fill="none" stroke-width="3.333333" stroke="#000000ff"/>
  <path d="M119 279.947 L132.333 279.947 " fill="none" stroke-width="3.333333" stroke="#000000ff"/>
  <path d="M119 236.628 L132.333 236.628 " fill="none" stroke-width="3.333333" stroke="#000000ff"/>
  <path d="M119 205.893 L132.333 205.893 " fill="none" stroke-width="3.333333" stroke="#000000ff"/>
  <path d="M119 182.053 L132.333 182.053 " fill="none" stroke-width="3.333333" stroke="#000000ff"/>
  <path d="M119 162.575 L132.333 162.575 " fill="none" stroke-width="3.333333" stroke="#000000ff"/>
  <path d="M119 146.106 L132.333 146.106 " fill="none" stroke-width="3.333333" stroke="#000000ff"/>
  <path d="M119 131.84 L132.333 131.84 " fill="none" stroke-width="3.333333" stroke="#000000ff"/>
  <path d="M119 119.256 L132.333 119.256 " fill="none" stroke-width="3.333333" stroke="#000000ff"/>
  <path d="M119 108 L132.333 108 " fill="none" stroke-width="3.333333" stroke="#000000ff"/>
  <path d="M46.151 1081.62 L46.151 1100.5 L49.3854 1100.5 L49.3854 1074 L47.2604 1074 C46.1198 1078.06 45.3854 1078.62 40.401 1079.28 L40.401 1081.62 L46.151 1081.62 Z" fill="#000000" fill-opacity="1.000000"/>
  <path d="M67.1354 1074.5 C64.7135 1074.5 62.5104 1075.61 61.151 1077.41 C59.4635 1079.61 58.6198 1082.91 58.6198 1087.52 C58.6198 1095.91 61.5573 1100.5 67.1354 1100.5 C72.6354 1100.5 75.6354 1095.91 75.6354 1087.72 C75.6354 1082.91 74.8385 1079.67 73.1042 1077.41 C71.7604 1075.58 69.5885 1074.5 67.1354 1074.5 ZM67.1354 1077.38 C70.6198 1077.38 72.3385 1080.7 72.3385 1087.44 C72.3385 1094.53 70.651 1097.83 67.0573 1097.83 C63.651 1097.83 61.9323 1094.39 61.9323 1087.55 C61.9323 1080.7 63.651 1077.38 67.1354 1077.38 Z" fill="#000000" fill-opacity="1.000000"/>
  <path d="M83.4479 1074.5 C79.901 1074.5 77.9948 1077.28 77.9948 1082.48 C77.9948 1087.73 79.901 1090.5 83.4948 1090.5 C87.0104 1090.5 88.9479 1087.73 88.9479 1082.64 C88.9479 1077.25 87.0885 1074.5 83.4479 1074.5 ZM83.4479 1076.45 C85.5729 1076.45 86.651 1078.45 86.651 1082.45 C86.651 1086.7 85.6198 1088.67 83.4167 1088.67 C81.3229 1088.67 80.3073 1086.59 80.3073 1082.53 C80.3073 1078.42 81.3229 1076.45 83.4479 1076.45 Z" fill="#000000" fill-opacity="1.000000"/>
  <path d="M50.4479 859 L47.1979 859 L47.1979 837.969 Q46.026 839.109 44.1198 840.242 Q42.2135 841.375 40.6979 841.938 L40.6979 838.75 Q43.4323 837.453 45.4714 835.602 Q47.5104 833.75 48.3542 832 L50.4479 832 L50.4479 859 Z" fill="#000000" fill-opacity="1.000000"/>
  <path d="M58.5885 845.516 Q58.5885 840.812 59.5573 837.961 Q60.526 835.109 62.4323 833.555 Q64.3385 832 67.2292 832 Q69.3698 832 70.9714 832.859 Q72.5729 833.719 73.6276 835.328 Q74.6823 836.938 75.276 839.258 Q75.8698 841.578 75.8698 845.516 Q75.8698 850.156 74.9089 853.016 Q73.9479 855.875 72.0417 857.438 Q70.1354 859 67.2292 859 Q63.401 859 61.2135 856.266 Q58.5885 852.953 58.5885 845.516 ZM61.9323 845.5 Q61.9323 851.812 63.4635 853.906 Q64.9948 856 67.2292 856 Q69.4635 856 70.9948 853.898 Q72.526 851.797 72.526 845.5 Q72.526 839.172 70.9948 837.086 Q69.4635 835 67.1979 835 Q64.9479 835 63.6198 836.844 Q61.9323 839.188 61.9323 845.5 Z" fill="#000000" fill-opacity="1.000000"/>
  <path d="M83.4323 846 L83.4323 835.25 Q81.5885 837.219 79.3854 838 L79.3854 835 Q80.5104 834.672 81.8854 833.828 Q83.2604 832.984 84.1042 832 L86.0417 832 L86.0417 846 L83.4323 846 Z" fill="#000000" fill-opacity="1.000000"/>
  <path d="M50.4479 613 L47.1979 613 L47.1979 591.969 Q46.026 593.109 44.1198 594.242 Q42.2135 595.375 40.6979 595.938 L40.6979 592.75 Q43.4323 591.453 45.4714 589.602 Q47.5104 587.75 48.3542 586 L50.4479 586 L50.4479 613 Z" fill="#000000" fill-opacity="1.000000"/>
  <path d="M58.5885 599.516 Q58.5885 594.812 59.5573 591.961 Q60.526 589.109 62.4323 587.555 Q64.3385 586 67.2292 586 Q69.3698 586 70.9714 586.859 Q72.5729 587.719 73.6276 589.328 Q74.6823 590.938 75.276 593.258 Q75.8698 595.578 75.8698 599.516 Q75.8698 604.156 74.9089 607.016 Q73.9479 609.875 72.0417 611.438 Q70.1354 613 67.2292 613 Q63.401 613 61.2135 610.266 Q58.5885 606.953 58.5885 599.516 ZM61.9323 599.5 Q61.9323 605.812 63.4635 607.906 Q64.9948 610 67.2292 610 Q69.4635 610 70.9948 607.898 Q72.526 605.797 72.526 599.5 Q72.526 593.172 70.9948 591.086 Q69.4635 589 67.1979 589 Q64.9479 589 63.6198 590.844 Q61.9323 593.188 61.9323 599.5 Z" fill="#000000" fill-opacity="1.000000"/>
  <path d="M77.901 600 Q78.0104 598.922 78.7448 597.844 Q79.8854 596.203 82.487 594.227 Q85.0885 592.25 85.5729 591.672 Q86.2448 590.906 86.2448 590.078 Q86.2448 589.172 85.612 588.586 Q84.9792 588 83.7604 588 Q82.5573 588 81.9714 588.414 Q81.3854 588.828 81.0104 590 L78.276 590 Q78.8073 587.938 80.0964 586.969 Q81.3854 586 83.8073 586 Q86.5417 586 87.8151 587.125 Q89.0885 588.25 89.0885 589.875 Q89.0885 591.484 88.026 592.922 Q87.1979 593.984 84.3073 596.188 Q82.8073 597.328 82.1823 598 L89.151 598 L89.151 600 L77.901 600 Z" fill="#000000" fill-opacity="1.000000"/>
  <path d="M50.4479 367 L47.1979 367 L47.1979 345.969 Q46.026 347.109 44.1198 348.242 Q42.2135 349.375 40.6979 349.938 L40.6979 346.75 Q43.4323 345.453 45.4714 343.602 Q47.5104 341.75 48.3542 340 L50.4479 340 L50.4479 367 Z" fill="#000000" fill-opacity="1.000000"/>
  <path d="M58.5885 353.516 Q58.5885 348.813 59.5573 345.961 Q60.526 343.109 62.4323 341.555 Q64.3385 340 67.2292 340 Q69.3698 340 70.9714 340.859 Q72.5729 341.719 73.6276 343.328 Q74.6823 344.938 75.276 347.258 Q75.8698 349.578 75.8698 353.516 Q75.8698 358.156 74.9089 361.016 Q73.9479 363.875 72.0417 365.438 Q70.1354 367 67.2292 367 Q63.401 367 61.2135 364.266 Q58.5885 360.953 58.5885 353.516 ZM61.9323 353.5 Q61.9323 359.813 63.4635 361.906 Q64.9948 364 67.2292 364 Q69.4635 364 70.9948 361.898 Q72.526 359.797 72.526 353.5 Q72.526 347.172 70.9948 345.086 Q69.4635 343 67.1979 343 Q64.9479 343 63.6198 344.844 Q61.9323 347.188 61.9323 353.5 Z" fill="#000000" fill-opacity="1.000000"/>
  <path d="M77.901 354 Q78.0104 352.922 78.7448 351.844 Q79.8854 350.203 82.487 348.227 Q85.0885 346.25 85.5729 345.672 Q86.2448 344.906 86.2448 344.078 Q86.2448 343.172 85.612 342.586 Q84.9792 342 83.7604 342 Q82.5573 342 81.9714 342.414 Q81.3854 342.828 81.0104 344 L78.276 344 Q78.8073 341.938 80.0964 340.969 Q81.3854 340 83.8073 340 Q86.5417 340 87.8151 341.125 Q89.0885 342.25 89.0885 343.875 Q89.0885 345.484 88.026 346.922 Q87.1979 347.984 84.3073 350.188 Q82.8073 351.328 82.1823 352 L89.151 352 L89.151 354 L77.901 354 Z" fill="#000000" fill-opacity="1.000000"/>
  <path d="M46.151 97.625 L46.151 116.5 L49.3854 116.5 L49.3854 90 L47.2604 90 C46.1198 94.0625 45.3854 94.625 40.401 95.2812 L40.401 97.625 L46.151 97.625 Z" fill="#000000" fill-opacity="1.000000"/>
  <path d="M67.1354 90.5 C64.7135 90.5 62.5104 91.6094 61.151 93.4062 C59.4635 95.6094 58.6198 98.9062 58.6198 103.516 C58.6198 111.906 61.5573 116.5 67.1354 116.5 C72.6354 116.5 75.6354 111.906 75.6354 103.719 C75.6354 98.9062 74.8385 95.6719 73.1042 93.4062 C71.7604 91.5781 69.5885 90.5 67.1354 90.5 ZM67.1354 93.375 C70.6198 93.375 72.3385 96.7031 72.3385 103.438 C72.3385 110.531 70.651 113.828 67.0573 113.828 C63.651 113.828 61.9323 110.391 61.9323 103.547 C61.9323 96.7031 63.651 93.375 67.1354 93.375 Z" fill="#000000" fill-opacity="1.000000"/>
  <path d="M84.5104 102.453 L84.5104 106.125 L86.7917 106.125 L86.7917 102.453 L89.2448 102.453 L89.2448 100.5 L86.7917 100.5 L86.7917 90.5312 L85.1042 90.5312 L77.6198 100.281 L77.6198 102.453 L84.5104 102.453 ZM84.5104 100.5 L79.7917 100.5 L84.5104 94.2812 L84.5104 100.5 Z" fill="#000000" fill-opacity="1.000000"/>
  <path d="M119 1092 L119 108 " fill="none" stroke-width="3.333333" stroke="#0000000c"/>
  <path d="M300 1092 L300 108 " fill="none" stroke-width="3.333333" stroke="#0000000c"/>
  <path d="M481 1092 L481 108 " fill="none" stroke-width="3.333333" stroke="#0000000c"/>
  <path d="M662 1092 L662 108 " fill="none" stroke-width="3.333333" stroke="#0000000c"/>
  <path d="M843 1092 L843 108 " fill="none" stroke-width="3.333333" stroke="#0000000c"/>
  <path d="M1024 1092 L1024 108 " fill="none" stroke-width="3.333333" stroke="#0000000c"/>
  <path d="M1205 1092 L1205 108 " fill="none" stroke-width="3.333333" stroke="#0000000c"/>
  <path d="M1386 1092 L1386 108 " fill="none" stroke-width="3.333333" stroke="#0000000c"/>
  <path d="M1567 1092 L1567 108 " fill="none" stroke-width="3.333333" stroke="#0000000c"/>
  <path d="M1748 1092 L1748 108 " fill="none" stroke-width="3.333333" stroke="#0000000c"/>
  <path d="M1929 1092 L1929 108 " fill="none" stroke-width="3.333333" stroke="#0000000c"/>
  <path d="M119 108 L1929 108 " fill="none" stroke-width="3.333333" stroke="#0000000c"/>
  <path d="M119 182.053 L1929 182.053 " fill="none" stroke-width="3.333333" stroke="#0000000c"/>
  <path d="M119 225.372 L1929 225.372 " fill="none" stroke-width="3.333333" stroke="#0000000c"/>
  <path d="M119 256.107 L1929 256.107 " fill="none" stroke-width="3.333333" stroke="#0000000c"/>
  <path d="M119 279.947 L1929 279.947 " fill="none" stroke-width="3.333333" stroke="#0000000c"/>
  <path d="M119 299.425 L1929 299.425 " fill="none" stroke-width="3.333333" stroke="#0000000c"/>
  <path d="M119 315.894 L1929 315.894 " fill="none" stroke-width="3.333333" stroke="#0000000c"/>
  <path d="M119 330.16 L1929 330.16 " fill="none" stroke-width="3.333333" stroke="#0000000c"/>
  <path d="M119 342.744 L1929 342.744 " fill="none" stroke-width="3.333333" stroke="#0000000c"/>
  <path d="M119 354 L1929 354 " fill="none" stroke-width="3.333333" stroke="#0000000c"/>
  <path d="M119 428.053 L1929 428.053 " fill="none" stroke-width="3.333333" stroke="#0000000c"/>
  <path d="M119 471.372 L1929 471.372 " fill="none" stroke-width="3.333333" stroke="#0000000c"/>
  <path d="M119 502.107 L1929 502.107 " fill="none" stroke-width="3.333333" stroke="#0000000c"/>
  <path d="M119 525.947 L1929 525.947 " fill="none" stroke-width="3.333333" stroke="#0000000c"/>
  <path d="M119 545.425 L1929 545.425 " fill="none" stroke-width="3.333333" stroke="#0000000c"/>
  <path d="M119 561.894 L1929 561.894 " fill="none" stroke-width="3.333333" stroke="#0000000c"/>
  <path d="M119 576.16 L1929 576.16 " fill="none" stroke-width="3.333333" stroke="#0000000c"/>
  <path d="M119 588.744 L1929 588.744 " fill="none" stroke-width="3.333333" stroke="#0000000c"/>
  <path d="M119 600 L1929 600 " fill="none" stroke-width="3.333333" stroke="#0000000c"/>
  <path d="M119 674.053 L1929 674.053 " fill="none" stroke-width="3.333333" stroke="#0000000c"/>
  <path d="M119 717.372 L1929 717.372 " fill="none" stroke-width="3.333333" stroke="#0000000c"/>
  <path d="M119 748.107 L1929 748.107 " fill="none" stroke-width="3.333333" stroke="#0000000c"/>
  <path d="M119 771.947 L1929 771.947 " fill="none" stroke-width="3.333333" stroke="#0000000c"/>
  <path d="M119 791.425 L1929 791.425 " fill="none" stroke-width="3.333333" stroke="#0000000c"/>
  <path d="M119 807.894 L1929 807.894 " fill="none" stroke-width="3.333333" stroke="#0000000c"/>
  <path d="M119 822.16 L1929 822.16 " fill="none" stroke-width="3.333333" stroke="#0000000c"/>
  <path d="M119 834.744 L1929 834.744 " fill="none" stroke-width="3.333333" stroke="#0000000c"/>
  <path d="M119 846 L1929 846 " fill="none" stroke-width="3.333333" stroke="#0000000c"/>
  <path d="M119 920.053 L1929 920.053 " fill="none" stroke-width="3.333333" stroke="#0000000c"/>
  <path d="M119 963.372 L1929 963.372 " fill="none" stroke-width="3.333333" stroke="#0000000c"/>
  <path d="M119 994.107 L1929 994.107 " fill="none" stroke-width="3.333333" stroke="#0000000c"/>
  <path d="M119 1017.95 L1929 1017.95 " fill="none" stroke-width="3.333333" stroke="#0000000c"/>
  <path d="M119 1037.43 L1929 1037.43 " fill="none" stroke-width="3.333333" stroke="#0000000c"/>
  <path d="M119 1053.89 L1929 1053.89 " fill="none" stroke-width="3.333333" stroke="#0000000c"/>
  <path d="M119 1068.16 L1929 1068.16 " fill="none" stroke-width="3.333333" stroke="#0000000c"/>
  <path d="M119 1080.74 L1929 1080.74 " fill="none" stroke-width="3.333333" stroke="#0000000c"/>
  <path d="M119 1092 L1929 1092 " fill="none" stroke-width="3.333333" stroke="#0000000c"/>
  <path d="M119 1092 L571.5 846 L1024 600 L1476.5 354 L1929 108 " fill="none" stroke-width="5.000000" stroke="#000000ff"/>
</svg>