<?xml version="1.0" encoding="UTF-8" ?>
<!-- Generated by clip v0.7.0 (clip-lang.org) -->
<svg xmlns="http://www.w3.org/2000/svg" width="3600.000000" height="1920.000000">
  <rect width="3600.000000" height="1920.000000" fill="#ffffff" fill-opacity="1.000000"/>
  <path d="M148.349 51.8229 L153.115 51.8229 L153.115 105.432 L148.349 105.432 L148.349 92.3229 Q141.677 97.0885 133.583 100.667 L131.677 95.4167 Q140.724 91.3698 148.349 86.6042 L148.349 70.401 L132.38 70.401 L132.38 65.6354 L148.349 65.6354 L148.349 51.8229 ZM162.411 51.8229 L167.177 51.8229 L167.177 69.6823 Q175.271 65.6354 182.427 60.401 L185.521 64.6823 Q177.177 70.6354 167.177 74.9323 L167.177 98.0417 Q167.177 98.9948 168.247 99.4714 Q169.318 99.9479 173.849 99.9479 Q178.38 99.9479 179.333 99.3542 Q180.286 98.7604 180.763 97.0885 Q181.24 95.4167 181.474 88.7448 L186.474 90.1823 Q186.24 97.8073 185.286 100.19 Q184.333 102.573 182.544 103.526 Q180.755 104.479 173.849 104.479 Q166.458 104.479 164.435 103.409 Q162.411 102.339 162.411 99.7135 L162.411 51.8229 Z" fill="#000000" fill-opacity="1.000000"/>
  <path d="M220.661 51.1042 Q222.568 53.9635 223.521 57.2917 L247.115 57.2917 L247.115 61.8229 L192.786 61.8229 L192.786 57.2917 L217.568 57.2917 Q216.849 54.6823 215.661 52.776 L220.661 51.1042 ZM199.927 66.3542 L238.771 66.3542 L238.771 84.6979 L222.333 84.6979 L222.333 99.9479 Q222.333 103.526 221.138 104.839 Q219.943 106.151 216.849 106.151 Q212.552 106.151 208.99 105.432 L208.036 100.667 Q212.083 101.62 216.13 101.62 Q217.568 101.62 217.568 98.7604 L217.568 84.6979 L199.927 84.6979 L199.927 66.3542 ZM204.693 80.1667 L234.005 80.1667 L234.005 70.8854 L204.693 70.8854 L204.693 80.1667 ZM207.083 86.8385 L211.365 89.2292 Q205.88 97.8073 195.396 103.76 L192.536 99.9479 Q202.068 93.9948 207.083 86.8385 ZM231.615 86.8385 Q238.771 92.3229 245.911 99.7135 L242.099 103.76 Q235.911 96.6198 227.568 89.4635 L231.615 86.8385 Z" fill="#000000" fill-opacity="1.000000"/>
  <path d="M278.677 63.7292 L254.13 63.7292 L254.13 59.1979 L278.427 59.1979 Q277.24 55.6354 275.568 52.0573 L280.583 50.8698 Q282.724 55.151 283.677 59.1979 L307.974 59.1979 L307.974 63.7292 L283.443 63.7292 L283.443 71.8385 L302.021 71.8385 L302.021 93.7604 Q302.021 96.6198 299.997 98.1667 Q297.974 99.7135 294.161 99.7135 Q292.021 99.7135 288.911 99.2292 L287.724 94.4635 Q291.771 94.9479 293.927 94.9479 Q295.583 94.9479 296.419 94.3542 Q297.255 93.7604 297.255 92.5573 L297.255 76.3542 L283.443 76.3542 L283.443 106.151 L278.677 106.151 L278.677 76.3542 L264.849 76.3542 L264.849 99.9479 L260.083 99.9479 L260.083 71.8385 L278.677 71.8385 L278.677 63.7292 Z" fill="#000000" fill-opacity="1.000000"/>
  <path d="" fill="#000000" fill-opacity="1.000000"/>
  <path d="M339.099 57.0573 L344.099 57.0573 Q335.771 68.9792 335.771 83.9792 Q335.771 98.7604 344.099 110.198 L339.099 110.198 Q330.052 99.9479 330.052 83.9792 Q330.052 67.776 339.099 57.0573 Z" fill="#000000" fill-opacity="1.000000"/>
  <path d="M351.99 57.0573 L363.911 57.0573 Q372.49 57.0573 375.943 59.7995 Q379.396 62.5417 379.396 68.026 Q379.396 76.1198 370.583 77.5573 L370.583 77.7917 Q380.583 79.4635 380.583 88.0417 Q380.583 93.7604 376.896 97.2135 Q373.208 100.667 366.536 100.667 L351.99 100.667 L351.99 57.0573 ZM357.474 75.651 L364.865 75.651 Q369.63 75.651 371.654 73.862 Q373.677 72.0729 373.677 68.4948 Q373.677 65.1667 371.294 63.4948 Q368.911 61.8229 364.146 61.8229 L357.474 61.8229 L357.474 75.651 ZM357.474 80.1667 L357.474 95.901 L365.333 95.901 Q370.099 95.901 372.365 93.8776 Q374.63 91.8542 374.63 87.7917 Q374.63 83.9792 372.247 82.0729 Q369.865 80.1667 365.099 80.1667 L357.474 80.1667 Z" fill="#000000" fill-opacity="1.000000"/>
  <path d="M413.536 85.4167 L393.052 85.4167 Q393.052 90.901 395.31 93.7604 Q397.568 96.6198 402.099 96.6198 Q407.349 96.6198 412.115 94.2292 L412.115 98.9948 Q407.583 101.151 402.099 101.151 Q395.427 101.151 391.38 96.8542 Q387.333 92.5573 387.333 84.4635 Q387.333 76.3542 391.146 71.8307 Q394.958 67.3073 400.911 67.3073 Q406.63 67.3073 410.083 71.237 Q413.536 75.1667 413.536 82.0729 L413.536 85.4167 ZM393.052 80.8854 L407.818 80.8854 Q407.818 76.3542 406.029 74.0964 Q404.24 71.8385 400.677 71.8385 Q393.755 71.8385 393.052 80.8854 Z" fill="#000000" fill-opacity="1.000000"/>
  <path d="M427.896 59.1979 Q427.896 60.8698 427.06 61.7057 Q426.224 62.5417 424.552 62.5417 Q423.13 62.5417 422.294 61.7057 Q421.458 60.8698 421.458 59.1979 Q421.458 57.2917 422.294 56.4635 Q423.13 55.6354 424.552 55.6354 Q426.224 55.6354 427.06 56.4635 Q427.896 57.2917 427.896 59.1979 ZM427.411 100.667 L421.943 100.667 L421.943 68.026 L427.411 68.026 L427.411 100.667 Z" fill="#000000" fill-opacity="1.000000"/>
  <path d="M443.646 59.1979 Q443.646 60.8698 442.81 61.7057 Q441.974 62.5417 440.302 62.5417 Q438.88 62.5417 438.044 61.7057 Q437.208 60.8698 437.208 59.1979 Q437.208 57.2917 438.044 56.4635 Q438.88 55.6354 440.302 55.6354 Q441.974 55.6354 442.81 56.4635 Q443.646 57.2917 443.646 59.1979 ZM430.536 114.495 L430.536 110.198 Q431.958 110.682 433.88 110.682 Q435.786 110.682 436.74 109.487 Q437.693 108.292 437.693 105.667 L437.693 68.026 L443.161 68.026 L443.161 105.432 Q443.161 110.432 440.904 112.815 Q438.646 115.198 434.349 115.198 Q431.958 115.198 430.536 114.495 Z" fill="#000000" fill-opacity="1.000000"/>
  <path d="M459.396 59.1979 Q459.396 60.8698 458.56 61.7057 Q457.724 62.5417 456.052 62.5417 Q454.63 62.5417 453.794 61.7057 Q452.958 60.8698 452.958 59.1979 Q452.958 57.2917 453.794 56.4635 Q454.63 55.6354 456.052 55.6354 Q457.724 55.6354 458.56 56.4635 Q459.396 57.2917 459.396 59.1979 ZM458.911 100.667 L453.443 100.667 L453.443 68.026 L458.911 68.026 L458.911 100.667 Z" fill="#000000" fill-opacity="1.000000"/>
  <path d="M489.677 100.667 L489.677 79.6979 Q489.677 75.651 488.013 73.7448 Q486.349 71.8385 483.005 71.8385 Q478.958 71.8385 476.81 74.5729 Q474.661 77.3073 474.661 83.7448 L474.661 100.667 L469.193 100.667 L469.193 68.026 L473.474 68.026 L474.427 72.3073 L474.661 72.3073 Q477.521 67.3073 483.958 67.3073 Q489.443 67.3073 492.185 70.2839 Q494.927 73.2604 494.927 79.2135 L494.927 100.667 L489.677 100.667 Z" fill="#000000" fill-opacity="1.000000"/>
  <path d="M530.49 68.026 L530.49 71.3542 L524.536 72.0729 Q526.443 74.6979 526.443 78.5104 Q526.443 83.276 523.466 86.1354 Q520.49 88.9948 515.24 88.9948 Q513.333 88.9948 512.865 88.7448 Q510.24 90.4167 510.24 92.8073 Q510.24 93.9948 511.31 94.5885 Q512.38 95.1823 514.771 95.1823 L520.005 95.1823 Q525.005 95.1823 527.513 97.4479 Q530.021 99.7135 530.021 104.01 Q530.021 109.729 525.966 112.464 Q521.911 115.198 513.818 115.198 Q507.38 115.198 504.279 112.94 Q501.177 110.682 501.177 106.151 Q501.177 99.9479 508.333 98.0417 Q505.474 96.8542 505.474 93.5104 Q505.474 90.1823 509.286 87.7917 Q503.568 85.4167 503.568 78.7448 Q503.568 73.2604 506.661 70.2839 Q509.755 67.3073 515.24 67.3073 Q517.865 67.3073 519.536 68.026 L530.49 68.026 ZM521.193 78.2604 Q521.193 74.9323 519.646 73.1432 Q518.099 71.3542 515.005 71.3542 Q511.911 71.3542 510.482 73.1432 Q509.052 74.9323 509.052 78.5104 Q509.052 81.8385 510.599 83.5104 Q512.146 85.1823 515.24 85.1823 Q518.099 85.1823 519.646 83.5104 Q521.193 81.8385 521.193 78.2604 ZM517.865 100.182 L512.615 100.182 Q509.521 100.182 507.857 101.62 Q506.193 103.057 506.193 105.917 Q506.193 108.526 508.099 109.839 Q510.005 111.151 513.818 111.151 Q519.286 111.151 522.029 109.487 Q524.771 107.823 524.771 104.479 Q524.771 102.104 523.458 101.143 Q522.146 100.182 517.865 100.182 Z" fill="#000000" fill-opacity="1.000000"/>
  <path d="M538.646 110.198 L533.646 110.198 Q541.99 98.7604 541.99 83.9792 Q541.99 68.7292 533.646 57.0573 L538.646 57.0573 Q547.708 68.026 547.708 83.9792 Q547.708 99.7135 538.646 110.198 Z" fill="#000000" fill-opacity="1.000000"/>
  <path d="M70.2778 100.083 C57.6213 100.083 47.3611 89.8232 47.3611 77.1667 C47.3611 64.5101 57.6213 54.25 70.2778 54.25 C82.9343 54.25 93.1944 64.5101 93.1944 77.1667 C93.1944 89.8232 82.9343 100.083 70.2778 100.083 Z" fill="#0066cc" fill-opacity="1.000000"/>
  <path d="M155.021 187 L160.052 187 L160.052 192 L129.818 192 L129.818 187 L149.333 187 L149.333 175.859 Q149.333 171.297 148.349 169 Q147.365 166.703 144.786 165.352 Q142.208 164 136.755 164 Q134.818 164 130.771 165 L130.302 160 Q134.318 159 138.849 159 Q147.365 159 151.193 162.805 Q155.021 166.609 155.021 174.328 L155.021 187 Z" fill="#000000" fill-opacity="1.000000"/>
  <path d="M171.88 160 L171.88 176 L166.068 176 L166.068 160 L171.88 160 Z" fill="#000000" fill-opacity="1.000000"/>
  <path d="M203.208 187 L208.24 187 L208.24 192 L178.005 192 L178.005 187 L197.521 187 L197.521 175.859 Q197.521 171.297 196.536 169 Q195.552 166.703 192.974 165.352 Q190.396 164 184.943 164 Q183.005 164 178.958 165 L178.49 160 Q182.505 159 187.036 159 Q195.552 159 199.38 162.805 Q203.208 166.609 203.208 174.328 L203.208 187 Z" fill="#000000" fill-opacity="1.000000"/>
  <path d="M242.349 192 L235.318 192 L223.255 174.891 Q220.458 176.406 219.958 181.047 L218.677 192 L212.771 192 L214.052 180.938 Q214.943 173.219 220.255 170.5 L212.896 160 L219.896 160 L230.021 174.359 Q231.865 173.125 232.591 171.562 Q233.318 170 233.74 166.438 L234.49 160 L240.38 160 L239.677 166.609 Q239.193 170.859 237.779 173.594 Q236.365 176.328 232.88 178.469 L242.349 192 Z" fill="#000000" fill-opacity="1.000000"/>
  <path d="" fill="#000000" fill-opacity="1.000000"/>
  <path d="M268.49 160 L285.99 160 L285.99 167.969 Q285.99 171.344 285.365 173.438 Q284.74 175.531 283.193 177.672 L281.583 179.844 Q279.177 183.141 279.177 186.875 L279.177 192 L273.49 192 L273.49 187.719 Q273.49 183.844 274.247 181.898 Q275.005 179.953 276.458 178.062 L278.255 175.781 Q279.552 174.109 279.927 172.758 Q280.302 171.406 280.302 169.281 L280.302 165 L262.818 165 L262.818 148 L268.49 148 L268.49 160 Z" fill="#000000" fill-opacity="1.000000"/>
  <path d="M290.505 191.5 L291.49 186.5 Q293.036 187 294.849 187 Q296.911 187 297.685 186.078 Q298.458 185.156 298.458 182.734 L298.458 164.188 Q295.896 164.188 292.177 164.719 L291.677 159.891 Q298.458 159 305.458 159 Q312.552 159 316.365 160.227 Q320.177 161.453 322.185 164.734 Q324.193 168.016 324.193 174.375 L324.193 192 L318.505 192 L318.505 175.922 Q318.505 171.141 317.802 168.922 Q317.099 166.703 314.747 165.32 Q312.396 163.938 306.974 163.938 L304.115 164 L304.115 183.641 Q304.115 186.688 303.56 188.305 Q303.005 189.922 301.263 190.961 Q299.521 192 296.068 192 Q293.271 192 290.505 191.5 Z" fill="#000000" fill-opacity="1.000000"/>
  <path d="" fill="#000000" fill-opacity="1.000000"/>
  <path d="M359.833 204 Q355.396 198.516 352.326 191.18 Q349.255 183.844 349.255 175.969 Q349.255 169.031 351.552 162.688 Q354.224 155.312 359.833 148 L363.677 148 Q360.068 154.062 358.911 156.656 Q357.099 160.672 356.052 165.047 Q354.771 170.5 354.771 176 Q354.771 190.016 363.677 204 L359.833 204 Z" fill="#000000" fill-opacity="1.000000"/>
  <path d="M381.724 192 L381.724 153 L367.349 153 L367.349 148 L401.958 148 L401.958 153 L387.505 153 L387.505 192 L381.724 192 Z" fill="#000000" fill-opacity="1.000000"/>
  <path d="M425.521 182 L431.068 183 Q429.755 187.75 426.208 190.375 Q422.661 193 417.161 193 Q410.208 193 406.146 188.602 Q402.083 184.203 402.083 176.281 Q402.083 168.062 406.193 163.531 Q410.302 159 416.849 159 Q423.193 159 427.216 163.344 Q431.24 167.688 431.24 175.562 Q431.24 176.047 431.208 177 L407.63 177 Q407.927 182.328 410.576 185.164 Q413.224 188 417.193 188 Q420.13 188 422.216 186.57 Q424.302 185.141 425.521 182 ZM407.927 172 L425.583 172 Q425.224 168.484 423.552 166.734 Q421.005 164 416.911 164 Q413.224 164 410.708 166.18 Q408.193 168.359 407.927 172 Z" fill="#000000" fill-opacity="1.000000"/>
  <path d="M434.365 192 L434.365 148 L439.724 148 L439.724 192 L434.365 192 Z" fill="#000000" fill-opacity="1.000000"/>
  <path d="" fill="#000000" fill-opacity="1.000000"/>
  <path d="M459.24 192 L476.021 148 L482.24 148 L500.115 192 L493.521 192 L488.427 178 L470.177 178 L465.38 192 L459.24 192 ZM471.849 173 L486.646 173 L482.083 161.891 Q480.005 156.375 478.99 153 Q478.161 156.938 476.646 161.094 L471.849 173 Z" fill="#000000" fill-opacity="1.000000"/>
  <path d="M510.661 192 L498.63 160 L504.286 160 L511.068 179.156 Q512.177 182.266 513.099 185.609 Q513.818 183.078 515.099 179.516 L522.13 160 L527.63 160 L515.661 192 L510.661 192 Z" fill="#000000" fill-opacity="1.000000"/>
  <path d="M531.911 153 L531.911 148 L537.271 148 L537.271 153 L531.911 153 ZM531.911 192 L531.911 160 L537.271 160 L537.271 192 L531.911 192 Z" fill="#000000" fill-opacity="1.000000"/>
  <path d="M554.255 192 L542.224 160 L547.88 160 L554.661 179.156 Q555.771 182.266 556.693 185.609 Q557.411 183.078 558.693 179.516 L565.724 160 L571.224 160 L559.255 192 L554.255 192 Z" fill="#000000" fill-opacity="1.000000"/>
  <path d="M579.536 204 L575.693 204 Q584.599 190.016 584.599 176 Q584.599 170.516 583.318 165.125 Q582.302 160.766 580.49 156.734 Q579.333 154.125 575.693 148 L579.536 148 Q585.146 155.312 587.818 162.688 Q590.115 169.031 590.115 175.969 Q590.115 183.844 587.029 191.18 Q583.943 198.516 579.536 204 Z" fill="#000000" fill-opacity="1.000000"/>
  <path d="M70.2778 193.417 C57.6213 193.417 47.3611 183.157 47.3611 170.5 C47.3611 157.843 57.6213 147.583 70.2778 147.583 C82.9343 147.583 93.1944 157.843 93.1944 170.5 C93.1944 183.157 82.9343 193.417 70.2778 193.417 Z" fill="#cc0066" fill-opacity="1.000000"/>
  <path d="M142.271 240.927 L139.943 245.333 L135.13 242.708 L137.365 238.333 L142.271 240.927 ZM135.427 243.896 L133.161 248.333 L128.333 245.771 L130.536 241.333 L135.427 243.896 ZM144.896 260.38 Q144.896 264.74 143.521 266.943 Q141.411 270.333 135.786 270.333 Q133.599 270.333 132.177 269.427 Q130.536 268.38 130.536 266.474 Q130.536 264.271 131.583 261.38 Q132.536 258.943 133.521 256.458 L133.068 256.333 L134.88 251.333 Q140.271 254.271 141.318 255.036 Q144.896 257.63 144.896 260.38 ZM142.302 262.583 Q142.302 261.411 139.021 259.458 Q137.63 258.615 136.021 257.818 Q134.677 259.333 134.411 259.708 Q133.583 260.911 133.583 261.99 Q133.583 263.568 134.435 264.451 Q135.286 265.333 136.708 265.333 Q138.38 265.333 140.341 264.357 Q142.302 263.38 142.302 262.583 Z" fill="#000000" fill-opacity="1.000000"/>
  <path d="M175.396 270.958 Q175.396 274.255 172.599 277.802 Q170.161 280.927 166.521 283.177 Q163.068 285.333 160.833 285.333 Q158.771 285.333 156.396 284.583 Q154.583 284.036 152.052 282.849 Q149.896 281.833 147.786 280.833 L148.286 279.693 Q150.255 280.224 152.388 280.779 Q154.521 281.333 156.24 281.333 Q160.052 281.333 164.193 278.943 Q167.958 276.755 170.607 273.411 Q173.255 270.068 173.255 267.38 Q173.255 265.083 171.88 262.536 Q170.786 260.49 168.786 258.333 L170.49 253.333 Q172.927 255.615 174.083 257.896 Q175.396 260.474 175.396 263.661 L175.396 270.958 Z" fill="#000000" fill-opacity="1.000000"/>
  <path d="M191.427 260.38 Q191.427 264.74 190.052 266.943 Q187.943 270.333 182.318 270.333 Q180.13 270.333 178.708 269.427 Q177.068 268.38 177.068 266.474 Q177.068 264.271 178.115 261.38 Q179.068 258.943 180.052 256.458 L179.599 256.333 L181.411 251.333 Q186.802 254.271 187.849 255.036 Q191.427 257.63 191.427 260.38 ZM188.833 262.583 Q188.833 261.411 185.552 259.458 Q184.161 258.615 182.552 257.818 Q181.208 259.333 180.943 259.708 Q180.099 260.911 180.099 261.99 Q180.099 263.568 180.951 264.451 Q181.802 265.333 183.224 265.333 Q184.896 265.333 186.865 264.357 Q188.833 263.38 188.833 262.583 Z" fill="#000000" fill-opacity="1.000000"/>
  <path d="M202.771 262.99 Q202.771 265.349 201.911 267.568 Q201.458 268.755 199.974 271.333 L199.443 271.036 Q199.536 270.161 199.607 269.013 Q199.677 267.865 199.677 267.474 Q199.677 264.333 199.185 258.693 Q198.693 253.052 198.005 246.911 Q197.583 243.208 197.083 239.333 Q197.677 238.177 198.435 236.841 Q199.193 235.505 199.88 234.333 Q200.365 237.708 201.091 243.568 Q201.818 249.427 202.24 254.13 Q202.771 259.99 202.771 262.99 Z" fill="#000000" fill-opacity="1.000000"/>
  <path d="M237.349 239.927 L235.036 244.333 L230.208 241.708 L232.443 237.333 L237.349 239.927 ZM230.505 242.896 L228.24 247.333 L223.411 244.771 L225.615 240.333 L230.505 242.896 ZM240.833 271.818 Q240.833 277.599 235.177 280.63 Q230.083 283.333 221.646 283.333 Q215.005 283.333 211.38 280.911 Q207.443 278.286 207.443 273.099 Q207.443 269.536 208.583 265.599 Q209.63 261.958 211.568 258.333 L212.818 258.896 Q211.958 261.052 211.349 262.724 Q210.552 265.005 210.193 266.646 Q209.74 268.708 209.74 270.646 Q209.74 274.661 213.021 276.568 Q216.052 278.333 221.974 278.333 Q228.318 278.333 233.083 276.052 Q238.599 273.427 238.599 268.943 Q238.599 267.271 238.497 266.56 Q238.396 265.849 238.13 265.177 Q237.005 265.708 235.857 266.021 Q234.708 266.333 233.536 266.333 Q230.927 266.333 229.286 265.255 Q227.286 263.943 227.286 261.318 Q227.286 258.271 229.021 255.474 Q230.943 252.333 233.599 252.333 Q237.083 252.333 239.099 256.99 Q240.833 260.958 240.833 266.177 L240.833 271.818 ZM236.099 260.521 Q235.318 258.849 235.005 258.443 Q234.161 257.333 232.911 257.333 Q231.49 257.333 230.818 257.958 Q230.146 258.583 230.146 259.521 Q230.146 260.365 231.005 260.849 Q231.865 261.333 232.974 261.333 Q233.755 261.333 234.419 261.13 Q235.083 260.927 236.099 260.521 Z" fill="#000000" fill-opacity="1.000000"/>
  <path d="M271.786 266.552 Q271.786 271.63 269.552 274.615 Q267.552 277.24 263.677 278.38 Q260.411 279.333 255.365 279.333 Q249.615 279.333 246.458 277.083 Q243.005 274.615 243.005 269.693 Q243.005 266.974 243.755 264.021 Q244.38 261.521 245.661 258.536 Q246.583 256.38 248.161 253.333 L249.115 253.943 Q248.005 256.115 247.271 257.833 Q246.286 260.146 245.802 261.958 Q245.24 264.177 245.24 266.255 Q245.24 270.24 247.904 272.286 Q250.568 274.333 255.302 274.333 Q260.333 274.333 264.63 272.474 Q269.333 270.427 269.333 267.568 Q269.333 264.458 268.411 257.036 Q267.693 251.333 266.661 244.286 L265.677 238.068 L264.302 237.38 Q264.302 233.443 265.943 230.224 L266.458 230.224 Q266.583 231.349 266.88 231.904 Q267.177 232.458 267.849 232.724 Q268.771 233.115 269.88 233.646 Q270.677 234.036 271.271 234.333 Q271.271 236.365 271.122 237.294 Q270.974 238.224 270.536 239.911 L268.833 239.333 Q268.896 240.036 269.693 245.708 Q270.63 252.333 271.068 256.458 Q271.786 263.068 271.786 266.552 Z" fill="#000000" fill-opacity="1.000000"/>
  <path d="M281.896 262.99 Q281.896 265.349 281.036 267.568 Q280.583 268.755 279.099 271.333 L278.568 271.036 Q278.661 270.161 278.732 269.013 Q278.802 267.865 278.802 267.474 Q278.802 264.333 278.31 258.693 Q277.818 253.052 277.13 246.911 Q276.708 243.208 276.208 239.333 Q276.802 238.177 277.56 236.841 Q278.318 235.505 279.005 234.333 Q279.49 237.708 280.216 243.568 Q280.943 249.427 281.365 254.13 Q281.896 259.99 281.896 262.99 Z" fill="#000000" fill-opacity="1.000000"/>
  <path d="" fill="#000000" fill-opacity="1.000000"/>
  <path d="" fill="#000000" fill-opacity="1.000000"/>
  <path d="M315.74 291.333 Q311.302 285.849 308.232 278.513 Q305.161 271.177 305.161 263.302 Q305.161 256.365 307.458 250.021 Q310.13 242.646 315.74 235.333 L319.583 235.333 Q315.974 241.396 314.818 243.99 Q313.005 248.005 311.958 252.38 Q310.677 257.833 310.677 263.333 Q310.677 277.349 319.583 291.333 L315.74 291.333 Z" fill="#000000" fill-opacity="1.000000"/>
  <path d="M357.677 263.99 L363.458 265.49 Q361.646 272.724 356.919 276.529 Q352.193 280.333 345.38 280.333 Q338.318 280.333 333.896 277.404 Q329.474 274.474 327.161 268.919 Q324.849 263.365 324.849 257.005 Q324.849 250.052 327.458 244.88 Q330.068 239.708 334.872 237.021 Q339.677 234.333 345.458 234.333 Q352.021 234.333 356.49 237.724 Q360.958 241.115 362.708 247.271 L357.021 248.63 Q355.505 243.771 352.615 241.552 Q349.724 239.333 345.349 239.333 Q340.318 239.333 336.935 241.794 Q333.552 244.255 332.185 248.404 Q330.818 252.552 330.818 256.974 Q330.818 262.661 332.443 266.896 Q334.068 271.13 337.49 273.232 Q340.911 275.333 344.896 275.333 Q349.755 275.333 353.122 272.474 Q356.49 269.615 357.677 263.99 Z" fill="#000000" fill-opacity="1.000000"/>
  <path d="M390.599 275.333 Q387.63 278.068 384.872 279.201 Q382.115 280.333 378.958 280.333 Q373.74 280.333 370.943 277.763 Q368.146 275.193 368.146 271.193 Q368.146 268.833 369.201 266.896 Q370.255 264.958 371.974 263.786 Q373.693 262.615 375.833 262.005 Q377.411 261.583 380.599 261.193 Q387.099 260.411 390.161 259.333 Q390.193 258.208 390.193 257.911 Q390.193 254.552 388.677 253.193 Q386.615 251.333 382.568 251.333 Q378.786 251.333 376.982 252.654 Q375.177 253.974 374.318 257.333 L369.068 256.333 Q369.786 252.88 371.427 250.755 Q373.068 248.63 376.161 247.482 Q379.255 246.333 383.333 246.333 Q387.396 246.333 389.927 247.326 Q392.458 248.318 393.646 249.818 Q394.833 251.318 395.318 253.615 Q395.583 255.036 395.583 258.583 L395.583 265.677 Q395.583 273.083 395.927 275.224 Q396.271 277.365 397.271 279.333 L391.677 279.333 Q390.833 277.63 390.599 275.333 ZM390.161 264.333 Q387.24 265.396 381.396 266.13 Q378.099 266.552 376.724 267.083 Q375.349 267.615 374.607 268.63 Q373.865 269.646 373.865 270.896 Q373.865 272.802 375.49 274.068 Q377.115 275.333 380.24 275.333 Q383.333 275.333 385.747 274.005 Q388.161 272.677 389.302 270.646 Q390.161 269.083 390.161 266.021 L390.161 264.333 Z" fill="#000000" fill-opacity="1.000000"/>
  <path d="M403.974 240.333 L403.974 235.333 L409.333 235.333 L409.333 240.333 L403.974 240.333 ZM403.974 279.333 L403.974 247.333 L409.333 247.333 L409.333 279.333 L403.974 279.333 Z" fill="#000000" fill-opacity="1.000000"/>
  <path d="M417.474 279.333 L417.474 247.333 L422.286 247.333 L422.286 251.302 Q424.13 248.271 425.693 247.302 Q427.255 246.333 429.13 246.333 Q431.849 246.333 434.646 248.177 L432.802 253.13 Q430.833 251.333 428.88 251.333 Q427.115 251.333 425.716 252.435 Q424.318 253.536 423.724 255.49 Q422.833 258.49 422.833 262.036 L422.833 279.333 L417.474 279.333 Z" fill="#000000" fill-opacity="1.000000"/>
  <path d="M435.88 263.333 Q435.88 254.302 440.771 249.943 Q444.849 246.333 450.708 246.333 Q457.224 246.333 461.365 250.732 Q465.505 255.13 465.505 262.88 Q465.505 269.146 463.677 272.747 Q461.849 276.349 458.349 278.341 Q454.849 280.333 450.708 280.333 Q444.068 280.333 439.974 275.951 Q435.88 271.568 435.88 263.333 ZM441.38 263.318 Q441.38 269.333 444.029 272.333 Q446.677 275.333 450.708 275.333 Q454.708 275.333 457.357 272.326 Q460.005 269.318 460.005 263.146 Q460.005 257.333 457.341 254.333 Q454.677 251.333 450.708 251.333 Q446.677 251.333 444.029 254.318 Q441.38 257.302 441.38 263.318 Z" fill="#000000" fill-opacity="1.000000"/>
  <path d="M475.365 291.333 L471.521 291.333 Q480.427 277.349 480.427 263.333 Q480.427 257.849 479.146 252.458 Q478.13 248.099 476.318 244.068 Q475.161 241.458 471.521 235.333 L475.365 235.333 Q480.974 242.646 483.646 250.021 Q485.943 256.365 485.943 263.302 Q485.943 271.177 482.857 278.513 Q479.771 285.849 475.365 291.333 Z" fill="#000000" fill-opacity="1.000000"/>
  <path d="M70.2778 280.75 C57.6213 280.75 47.3611 270.49 47.3611 257.833 C47.3611 245.177 57.6213 234.917 70.2778 234.917 C82.9343 234.917 93.1944 245.177 93.1944 257.833 C93.1944 270.49 82.9343 280.75 70.2778 280.75 Z" fill="#cc0066" fill-opacity="1.000000"/>
  <path d="M132.865 366.667 L132.865 322.667 L141.552 322.667 L151.896 353.589 Q153.318 357.917 153.974 360.057 Q154.724 357.667 156.302 353.057 L166.755 322.667 L174.536 322.667 L174.536 366.667 L168.958 366.667 L168.958 327.667 L156.271 366.667 L151.052 366.667 L138.427 327.667 L138.427 366.667 L132.865 366.667 Z" fill="#000000" fill-opacity="1.000000"/>
  <path d="M181.615 350.667 Q181.615 341.635 186.505 337.276 Q190.583 333.667 196.443 333.667 Q202.958 333.667 207.099 338.065 Q211.24 342.464 211.24 350.214 Q211.24 356.479 209.411 360.081 Q207.583 363.682 204.083 365.674 Q200.583 367.667 196.443 367.667 Q189.802 367.667 185.708 363.284 Q181.615 358.901 181.615 350.667 ZM187.115 350.651 Q187.115 356.667 189.763 359.667 Q192.411 362.667 196.443 362.667 Q200.443 362.667 203.091 359.659 Q205.74 356.651 205.74 350.479 Q205.74 344.667 203.076 341.667 Q200.411 338.667 196.443 338.667 Q192.411 338.667 189.763 341.651 Q187.115 344.635 187.115 350.651 Z" fill="#000000" fill-opacity="1.000000"/>
  <path d="M238.568 354.667 L243.849 355.667 Q242.99 361.292 239.427 364.479 Q235.865 367.667 230.693 367.667 Q224.193 367.667 220.247 363.299 Q216.302 358.932 216.302 350.792 Q216.302 345.526 217.997 341.573 Q219.693 337.62 223.161 335.643 Q226.63 333.667 230.708 333.667 Q235.865 333.667 239.138 336.268 Q242.411 338.87 243.333 343.667 L238.13 344.667 Q237.38 341.682 235.49 340.174 Q233.599 338.667 230.927 338.667 Q226.865 338.667 224.333 341.542 Q221.802 344.417 221.802 350.635 Q221.802 356.948 224.247 359.807 Q226.693 362.667 230.615 362.667 Q233.771 362.667 235.888 360.706 Q238.005 358.745 238.568 354.667 Z" fill="#000000" fill-opacity="1.000000"/>
  <path d="M248.458 334.667 L253.833 334.667 L253.833 348.667 Q256.396 348.667 257.419 347.659 Q258.443 346.651 260.443 341.807 Q262.021 337.964 263.005 336.745 Q263.99 335.526 265.263 335.096 Q266.536 334.667 269.365 334.667 L270.443 334.667 L270.443 339.698 L268.958 339.667 Q266.833 339.667 266.24 340.26 Q265.615 340.885 264.333 343.979 Q263.115 346.932 262.099 348.096 Q261.083 349.26 258.974 350.214 Q262.427 351.135 265.771 356.62 L271.646 366.667 L265.74 366.667 L260.021 356.698 Q258.271 353.62 256.958 352.643 Q255.646 351.667 253.833 351.667 L253.833 366.667 L248.458 366.667 L248.458 334.667 Z" fill="#000000" fill-opacity="1.000000"/>
  <path d="M275.255 334.667 L287.615 334.667 Q292.177 334.667 294.396 335.424 Q296.615 336.182 298.208 338.198 Q299.802 340.214 299.802 343.026 Q299.802 345.276 298.865 346.956 Q297.927 348.635 296.052 349.76 Q298.286 350.526 299.763 352.62 Q301.24 354.714 301.24 357.589 Q300.943 362.198 298.021 364.432 Q295.099 366.667 289.536 366.667 L275.255 366.667 L275.255 334.667 ZM280.615 347.667 L286.333 347.667 Q289.755 347.667 291.036 347.346 Q292.318 347.026 293.333 346.042 Q294.349 345.057 294.349 343.698 Q294.349 341.432 292.576 340.549 Q290.802 339.667 286.521 339.667 L280.615 339.667 L280.615 347.667 ZM280.615 361.667 L287.677 361.667 Q292.24 361.667 293.935 360.667 Q295.63 359.667 295.724 357.214 Q295.724 355.776 294.74 354.549 Q293.755 353.323 292.177 352.995 Q290.599 352.667 287.115 352.667 L280.615 352.667 L280.615 361.667 Z" fill="#000000" fill-opacity="1.000000"/>
  <path d="M327.99 362.667 Q325.021 365.401 322.263 366.534 Q319.505 367.667 316.349 367.667 Q311.13 367.667 308.333 365.096 Q305.536 362.526 305.536 358.526 Q305.536 356.167 306.591 354.229 Q307.646 352.292 309.365 351.12 Q311.083 349.948 313.224 349.339 Q314.802 348.917 317.99 348.526 Q324.49 347.745 327.552 346.667 Q327.583 345.542 327.583 345.245 Q327.583 341.885 326.068 340.526 Q324.005 338.667 319.958 338.667 Q316.177 338.667 314.372 339.987 Q312.568 341.307 311.708 344.667 L306.458 343.667 Q307.177 340.214 308.818 338.089 Q310.458 335.964 313.552 334.815 Q316.646 333.667 320.724 333.667 Q324.786 333.667 327.318 334.659 Q329.849 335.651 331.036 337.151 Q332.224 338.651 332.708 340.948 Q332.974 342.37 332.974 345.917 L332.974 353.01 Q332.974 360.417 333.318 362.557 Q333.661 364.698 334.661 366.667 L329.068 366.667 Q328.224 364.964 327.99 362.667 ZM327.552 351.667 Q324.63 352.729 318.786 353.464 Q315.49 353.885 314.115 354.417 Q312.74 354.948 311.997 355.964 Q311.255 356.979 311.255 358.229 Q311.255 360.135 312.88 361.401 Q314.505 362.667 317.63 362.667 Q320.724 362.667 323.138 361.339 Q325.552 360.01 326.693 357.979 Q327.552 356.417 327.552 353.354 L327.552 351.667 Z" fill="#000000" fill-opacity="1.000000"/>
  <path d="M70.2778 368.083 C57.6213 368.083 47.3611 357.823 47.3611 345.167 C47.3611 332.51 57.6213 322.25 70.2778 322.25 C82.9343 322.25 93.1944 332.51 93.1944 345.167 C93.1944 357.823 82.9343 368.083 70.2778 368.083 Z" fill="#6600cc" fill-opacity="1.000000"/>
  <path d="M131.427 416.969 L156.208 416.969 L156.208 412.672 L160.74 412.672 L160.74 416.969 L186.24 416.969 L186.24 421.25 L160.74 421.25 L160.74 425.781 L180.286 425.781 L180.286 448.656 L165.036 448.656 Q173.365 456.516 186.474 460.562 L183.615 466.047 Q169.552 460.562 160.74 450.078 L160.74 467.484 L156.208 467.484 L156.208 450.797 Q147.88 460.562 134.771 466.047 L131.193 461.516 Q144.302 456.516 152.396 448.656 L136.677 448.656 L136.677 425.781 L156.208 425.781 L156.208 421.25 L131.427 421.25 L131.427 416.969 ZM141.443 435.078 L156.208 435.078 L156.208 430.062 L141.443 430.062 L141.443 435.078 ZM160.74 430.062 L160.74 435.078 L175.521 435.078 L175.521 430.062 L160.74 430.062 ZM141.443 444.359 L156.208 444.359 L156.208 439.359 L141.443 439.359 L141.443 444.359 ZM160.74 439.359 L160.74 444.359 L175.521 444.359 L175.521 439.359 L160.74 439.359 Z" fill="#000000" fill-opacity="1.000000"/>
  <path d="M220.661 412.438 Q222.568 415.297 223.521 418.625 L247.115 418.625 L247.115 423.156 L192.786 423.156 L192.786 418.625 L217.568 418.625 Q216.849 416.016 215.661 414.109 L220.661 412.438 ZM199.927 427.688 L238.771 427.688 L238.771 446.031 L222.333 446.031 L222.333 461.281 Q222.333 464.859 221.138 466.172 Q219.943 467.484 216.849 467.484 Q212.552 467.484 208.99 466.766 L208.036 462 Q212.083 462.953 216.13 462.953 Q217.568 462.953 217.568 460.094 L217.568 446.031 L199.927 446.031 L199.927 427.688 ZM204.693 441.5 L234.005 441.5 L234.005 432.219 L204.693 432.219 L204.693 441.5 ZM207.083 448.172 L211.365 450.562 Q205.88 459.141 195.396 465.094 L192.536 461.281 Q202.068 455.328 207.083 448.172 ZM231.615 448.172 Q238.771 453.656 245.911 461.047 L242.099 465.094 Q235.911 457.953 227.568 450.797 L231.615 448.172 Z" fill="#000000" fill-opacity="1.000000"/>
  <path d="M307.505 415.531 L307.505 420.062 L301.068 435.312 Q307.974 442.703 307.974 449.844 Q307.974 454.844 305.951 457.469 Q303.927 460.094 300.115 460.094 Q297.974 460.094 294.88 459.141 L293.927 454.141 Q297.49 455.328 300.115 455.328 Q301.552 455.328 302.38 453.898 Q303.208 452.469 303.208 449.844 Q303.208 442.938 295.833 436.266 L302.505 420.062 L291.536 420.062 L291.536 467.484 L286.771 467.484 L286.771 415.531 L307.505 415.531 ZM256.036 418.875 L264.849 418.875 L264.849 412.672 L269.38 412.672 L269.38 418.875 L278.193 418.875 Q279.63 417.203 280.583 415.297 L284.396 417.438 Q280.818 423.391 275.333 429.594 L284.865 429.594 L284.865 433.875 L271.052 433.875 L264.38 439.594 L282.24 439.594 L282.24 467.484 L277.724 467.484 L277.724 463.438 L263.896 463.438 L263.896 467.484 L259.365 467.484 L259.365 443.406 Q256.505 445.312 254.365 446.516 L251.74 443.172 Q257.943 439.359 264.13 433.875 L253.646 433.875 L253.646 429.594 L264.849 429.594 L264.849 423.156 L256.036 423.156 L256.036 418.875 ZM269.38 429.109 L274.865 423.156 L269.38 423.156 L269.38 429.109 ZM263.896 449.609 L277.724 449.609 L277.724 443.891 L263.896 443.891 L263.896 449.609 ZM263.896 459.375 L277.724 459.375 L277.724 453.656 L263.896 453.656 L263.896 459.375 Z" fill="#000000" fill-opacity="1.000000"/>
  <path d="" fill="#000000" fill-opacity="1.000000"/>
  <path d="M339.099 418.391 L344.099 418.391 Q335.771 430.312 335.771 445.312 Q335.771 460.094 344.099 471.531 L339.099 471.531 Q330.052 461.281 330.052 445.312 Q330.052 429.109 339.099 418.391 Z" fill="#000000" fill-opacity="1.000000"/>
  <path d="M364.63 462 L359.146 462 L359.146 423.391 L346.755 423.391 L346.755 418.391 L377.021 418.391 L377.021 423.391 L364.63 423.391 L364.63 462 Z" fill="#000000" fill-opacity="1.000000"/>
  <path d="M377.552 445.562 Q377.552 437.453 381.482 433.047 Q385.411 428.641 391.849 428.641 Q398.036 428.641 402.091 433.164 Q406.146 437.688 406.146 445.562 Q406.146 453.891 402.208 458.188 Q398.271 462.484 391.849 462.484 Q385.411 462.484 381.482 458.07 Q377.552 453.656 377.552 445.562 ZM400.427 445.562 Q400.427 439.359 398.279 436.266 Q396.13 433.172 391.849 433.172 Q387.552 433.172 385.411 436.266 Q383.271 439.359 383.271 445.562 Q383.271 451.75 385.411 454.969 Q387.552 458.188 391.849 458.188 Q396.13 458.188 398.279 454.969 Q400.427 451.75 400.427 445.562 Z" fill="#000000" fill-opacity="1.000000"/>
  <path d="M419.786 445.078 L432.411 429.359 L438.849 429.359 L426.927 443.406 L439.568 462 L433.365 462 L423.365 446.984 L420.021 449.375 L420.021 462 L414.786 462 L414.786 415.531 L420.021 415.531 L420.021 436.984 L419.552 445.078 L419.786 445.078 Z" fill="#000000" fill-opacity="1.000000"/>
  <path d="M440.083 429.359 L445.802 429.359 L452.24 447.469 Q454.38 454.141 454.865 457.469 L455.099 457.469 Q455.818 453.891 457.958 447.469 L463.677 429.359 L469.396 429.359 L456.536 466.297 Q454.38 472.25 451.763 474.391 Q449.146 476.531 445.333 476.531 Q442.943 476.531 440.568 476.062 L440.568 471.766 Q442.24 472.25 444.146 472.25 Q448.911 472.25 450.818 467 L452.474 462.234 L440.083 429.359 Z" fill="#000000" fill-opacity="1.000000"/>
  <path d="M473.036 445.562 Q473.036 437.453 476.966 433.047 Q480.896 428.641 487.333 428.641 Q493.521 428.641 497.576 433.164 Q501.63 437.688 501.63 445.562 Q501.63 453.891 497.693 458.188 Q493.755 462.484 487.333 462.484 Q480.896 462.484 476.966 458.07 Q473.036 453.656 473.036 445.562 ZM495.911 445.562 Q495.911 439.359 493.763 436.266 Q491.615 433.172 487.333 433.172 Q483.036 433.172 480.896 436.266 Q478.755 439.359 478.755 445.562 Q478.755 451.75 480.896 454.969 Q483.036 458.188 487.333 458.188 Q491.615 458.188 493.763 454.969 Q495.911 451.75 495.911 445.562 Z" fill="#000000" fill-opacity="1.000000"/>
  <path d="M511.927 471.531 L506.927 471.531 Q515.271 460.094 515.271 445.312 Q515.271 430.062 506.927 418.391 L511.927 418.391 Q520.99 429.359 520.99 445.312 Q520.99 461.047 511.927 471.531 Z" fill="#000000" fill-opacity="1.000000"/>
  <path d="M70.2778 461.417 C57.6213 461.417 47.3611 451.157 47.3611 438.5 C47.3611 425.843 57.6213 415.583 70.2778 415.583 C82.9343 415.583 93.1944 425.843 93.1944 438.5 C93.1944 451.157 82.9343 461.417 70.2778 461.417 Z" fill="#66cc00" fill-opacity="1.000000"/>
  <path d="M147.88 534.411 Q144.536 547.036 133.099 555.13 L129.771 551.318 Q136.677 547.505 140.849 540.599 Q145.021 533.693 145.974 524.63 L145.974 516.302 L150.74 516.302 L150.74 524.88 Q150.74 542.505 164.552 549.411 L161.458 553.224 Q156.458 550.365 152.646 545.005 Q148.833 539.646 147.88 534.411 ZM173.13 533.458 L173.13 512.24 L177.896 512.24 L177.896 566.333 L173.13 566.333 L173.13 537.974 L160.021 537.974 L160.021 533.458 L173.13 533.458 Z" fill="#000000" fill-opacity="1.000000"/>
  <path d="M219.708 531.068 Q209.943 531.068 205.052 528.208 Q200.161 525.349 200.161 521.536 Q200.161 517.724 205.052 514.865 Q209.943 512.005 219.708 512.005 Q229.474 512.005 234.357 514.865 Q239.24 517.724 239.24 521.536 Q239.24 525.349 234.357 528.208 Q229.474 531.068 219.708 531.068 ZM219.708 516.302 Q211.849 516.302 208.388 517.966 Q204.927 519.63 204.927 521.536 Q204.927 523.443 208.505 525.115 Q212.083 526.786 219.708 526.786 Q227.333 526.786 231.029 525.115 Q234.724 523.443 234.724 521.536 Q234.724 519.63 231.146 517.966 Q227.568 516.302 219.708 516.302 ZM245.443 535.365 L245.443 539.88 L222.083 539.88 L222.083 546.552 L217.568 546.552 L217.568 539.88 L194.443 539.88 L194.443 535.365 L245.443 535.365 ZM201.365 543.224 L238.536 543.224 L238.536 556.333 L205.88 556.333 L205.88 561.333 L239.24 561.333 L239.24 565.865 L201.115 565.865 L201.115 551.802 L233.771 551.802 L233.771 547.755 L201.365 547.755 L201.365 543.224 Z" fill="#000000" fill-opacity="1.000000"/>
  <path d="" fill="#000000" fill-opacity="1.000000"/>
  <path d="M277.99 517.724 L282.99 517.724 Q274.661 529.646 274.661 544.646 Q274.661 559.427 282.99 570.865 L277.99 570.865 Q268.943 560.615 268.943 544.646 Q268.943 528.443 277.99 517.724 Z" fill="#000000" fill-opacity="1.000000"/>
  <path d="M288.021 559.896 L288.021 554.661 Q293.74 557.036 298.99 557.036 Q303.755 557.036 306.021 555.372 Q308.286 553.708 308.286 550.13 Q308.286 547.271 306.615 545.365 Q305.427 544.177 297.802 540.833 Q292.786 538.458 290.646 535.599 Q288.505 532.74 288.505 528.208 Q288.505 523.208 291.958 520.232 Q295.411 517.255 301.615 517.255 Q308.036 517.255 313.052 519.63 L311.146 524.161 Q306.13 522.021 301.615 522.021 Q297.802 522.021 295.896 523.685 Q293.99 525.349 293.99 528.208 Q293.99 531.552 295.536 533.099 Q297.083 534.646 303.396 537.388 Q309.708 540.13 311.732 542.865 Q313.755 545.599 313.755 549.661 Q313.755 555.13 309.943 558.474 Q306.13 561.818 298.99 561.818 Q292.083 561.818 288.021 559.896 Z" fill="#000000" fill-opacity="1.000000"/>
  <path d="M346.224 546.083 L325.74 546.083 Q325.74 551.568 327.997 554.427 Q330.255 557.286 334.786 557.286 Q340.036 557.286 344.802 554.896 L344.802 559.661 Q340.271 561.818 334.786 561.818 Q328.115 561.818 324.068 557.521 Q320.021 553.224 320.021 545.13 Q320.021 537.021 323.833 532.497 Q327.646 527.974 333.599 527.974 Q339.318 527.974 342.771 531.904 Q346.224 535.833 346.224 542.74 L346.224 546.083 ZM325.74 541.552 L340.505 541.552 Q340.505 537.021 338.716 534.763 Q336.927 532.505 333.365 532.505 Q326.443 532.505 325.74 541.552 Z" fill="#000000" fill-opacity="1.000000"/>
  <path d="M352.724 544.896 Q352.724 536.786 356.654 532.38 Q360.583 527.974 367.021 527.974 Q373.208 527.974 377.263 532.497 Q381.318 537.021 381.318 544.896 Q381.318 553.224 377.38 557.521 Q373.443 561.818 367.021 561.818 Q360.583 561.818 356.654 557.404 Q352.724 552.99 352.724 544.896 ZM375.599 544.896 Q375.599 538.693 373.451 535.599 Q371.302 532.505 367.021 532.505 Q362.724 532.505 360.583 535.599 Q358.443 538.693 358.443 544.896 Q358.443 551.083 360.583 554.302 Q362.724 557.521 367.021 557.521 Q371.302 557.521 373.451 554.302 Q375.599 551.083 375.599 544.896 Z" fill="#000000" fill-opacity="1.000000"/>
  <path d="M411.161 561.333 L410.208 557.036 L409.974 557.036 Q407.115 561.818 400.677 561.818 Q395.193 561.818 392.451 558.833 Q389.708 555.849 389.708 549.896 L389.708 528.693 L394.958 528.693 L394.958 549.661 Q394.958 553.474 396.622 555.497 Q398.286 557.521 401.396 557.521 Q405.677 557.521 407.826 554.779 Q409.974 552.036 409.974 545.599 L409.974 528.693 L415.443 528.693 L415.443 561.333 L411.161 561.333 Z" fill="#000000" fill-opacity="1.000000"/>
  <path d="M431.474 561.333 L426.005 561.333 L426.005 514.865 L431.474 514.865 L431.474 561.333 Z" fill="#000000" fill-opacity="1.000000"/>
  <path d="M443.411 570.865 L438.411 570.865 Q446.755 559.427 446.755 544.646 Q446.755 529.396 438.411 517.724 L443.411 517.724 Q452.474 528.693 452.474 544.646 Q452.474 560.38 443.411 570.865 Z" fill="#000000" fill-opacity="1.000000"/>
  <path d="M70.2778 560.75 C57.6213 560.75 47.3611 550.49 47.3611 537.833 C47.3611 525.177 57.6213 514.917 70.2778 514.917 C82.9343 514.917 93.1944 525.177 93.1944 537.833 C93.1944 550.49 82.9343 560.75 70.2778 560.75 Z" fill="#000000" fill-opacity="1.000000"/>
</svg>