<?xml version="1.0" encoding="UTF-8" ?>
<!-- Generated by clip v0.7.0 (clip-lang.org) -->
<svg xmlns="http://www.w3.org/2000/svg" width="2048.000000" height="800.000000">
  <rect width="2048.000000" height="800.000000" fill="#ffffff" fill-opacity="1.000000"/>
  <path d="M326.875 763.333 L326.875 36.6667 " fill="none" stroke-width="3.333333" stroke="#000000ff"/>
  <path d="M326.875 763.333 L340.208 763.333 " fill="none" stroke-width="3.333333" stroke="#000000ff"/>
  <path d="M326.875 682.593 L340.208 682.593 " fill="none" stroke-width="3.333333" stroke="#000000ff"/>
  <path d="M326.875 601.852 L340.208 601.852 " fill="none" stroke-width="3.333333" stroke="#000000ff"/>
  <path d="M326.875 521.111 L340.208 521.111 " fill="none" stroke-width="3.333333" stroke="#000000ff"/>
  <path d="M326.875 440.37 L340.208 440.37 " fill="none" stroke-width="3.333333" stroke="#000000ff"/>
  <path d="M326.875 359.63 L340.208 359.63 " fill="none" stroke-width="3.333333" stroke="#000000ff"/>
  <path d="M326.875 278.889 L340.208 278.889 " fill="none" stroke-width="3.333333" stroke="#000000ff"/>
  <path d="M326.875 198.148 L340.208 198.148 " fill="none" stroke-width="3.333333" stroke="#000000ff"/>
  <path d="M326.875 117.407 L340.208 117.407 " fill="none" stroke-width="3.333333" stroke="#000000ff"/>
  <path d="M326.875 36.6667 L340.208 36.6667 " fill="none" stroke-width="3.333333" stroke="#000000ff"/>
  <path d="M97.651 708.963 L101.151 708.963 L101.151 724.307 Q101.151 728.307 100.245 730.658 Q99.3385 733.01 96.987 734.486 Q94.6354 735.963 90.8073 735.963 Q87.0729 735.963 84.7057 734.674 Q82.3385 733.385 81.3307 730.955 Q80.3229 728.525 80.3229 724.307 L80.3229 708.963 L83.8229 708.963 L83.8229 724.385 Q83.8229 727.869 84.4635 729.525 Q85.1042 731.182 86.6667 732.072 Q88.2292 732.963 90.4948 732.963 Q94.3542 732.963 96.0026 731.197 Q97.651 729.432 97.651 724.385 L97.651 708.963 Z" fill="#000000" fill-opacity="1.000000"/>
  <path d="M106.339 735.963 L106.339 715.963 L109.26 715.963 L109.26 718.697 Q111.37 715.963 115.37 715.963 Q117.104 715.963 118.557 716.596 Q120.01 717.229 120.737 718.26 Q121.464 719.291 121.745 720.713 Q121.932 721.635 121.932 723.932 L121.932 735.963 L118.682 735.963 L118.682 724.15 Q118.682 722.15 118.299 721.15 Q117.917 720.15 116.956 719.557 Q115.995 718.963 114.682 718.963 Q112.604 718.963 111.096 720.299 Q109.589 721.635 109.589 725.369 L109.589 735.963 L106.339 735.963 Z" fill="#000000" fill-opacity="1.000000"/>
  <path d="M126.745 711.963 L126.745 708.963 L129.995 708.963 L129.995 711.963 L126.745 711.963 ZM126.745 735.963 L126.745 715.963 L129.995 715.963 L129.995 735.963 L126.745 735.963 Z" fill="#000000" fill-opacity="1.000000"/>
  <path d="M141.979 732.807 L142.448 735.682 Q141.073 735.963 139.995 735.963 Q138.214 735.963 137.237 735.4 Q136.26 734.838 135.862 733.924 Q135.464 733.01 135.464 730.057 L135.464 718.963 L133.089 718.963 L133.089 715.963 L135.464 715.963 L135.464 711.213 L138.698 709.26 L138.698 715.963 L141.979 715.963 L141.979 718.963 L138.698 718.963 L138.698 730.275 Q138.698 731.682 138.87 732.088 Q139.042 732.494 139.432 732.729 Q139.823 732.963 140.542 732.963 Q141.089 732.963 141.979 732.807 Z" fill="#000000" fill-opacity="1.000000"/>
  <path d="M158.198 729.963 L161.557 729.963 Q160.76 732.807 158.612 734.385 Q156.464 735.963 153.12 735.963 Q148.917 735.963 146.448 733.377 Q143.979 730.791 143.979 726.119 Q143.979 721.291 146.471 718.627 Q148.964 715.963 152.948 715.963 Q156.792 715.963 159.229 718.619 Q161.667 721.275 161.667 726.088 Q161.667 726.385 161.651 726.963 L147.339 726.963 Q147.526 729.869 149.128 731.416 Q150.729 732.963 153.135 732.963 Q154.932 732.963 156.198 732.244 Q157.464 731.525 158.198 729.963 ZM147.51 723.963 L158.229 723.963 Q158.01 721.76 156.995 720.666 Q155.448 718.963 152.964 718.963 Q150.729 718.963 149.198 720.322 Q147.667 721.682 147.51 723.963 Z" fill="#000000" fill-opacity="1.000000"/>
  <path d="M177.901 735.963 L177.901 732.76 Q176.073 735.963 172.542 735.963 Q170.245 735.963 168.315 734.705 Q166.385 733.447 165.331 731.182 Q164.276 728.916 164.276 725.979 Q164.276 723.119 165.237 720.783 Q166.198 718.447 168.112 717.205 Q170.026 715.963 172.385 715.963 Q174.12 715.963 175.479 716.775 Q176.839 717.588 177.682 718.9 L177.682 708.963 L180.917 708.963 L180.917 735.963 L177.901 735.963 ZM167.62 725.979 Q167.62 729.479 169.174 731.221 Q170.729 732.963 172.839 732.963 Q174.964 732.963 176.456 731.299 Q177.948 729.635 177.948 726.229 Q177.948 722.479 176.432 720.721 Q174.917 718.963 172.698 718.963 Q170.526 718.963 169.073 720.65 Q167.62 722.338 167.62 725.979 Z" fill="#000000" fill-opacity="1.000000"/>
  <path d="" fill="#000000" fill-opacity="1.000000"/>
  <path d="M195.245 726.963 L198.557 726.963 Q198.792 728.916 199.651 730.166 Q200.51 731.416 202.315 732.19 Q204.12 732.963 206.385 732.963 Q208.385 732.963 209.924 732.377 Q211.464 731.791 212.214 730.768 Q212.964 729.744 212.964 728.525 Q212.964 727.275 212.237 726.346 Q211.51 725.416 209.839 724.791 Q208.776 724.369 205.128 723.502 Q201.479 722.635 200.01 721.869 Q198.12 720.885 197.19 719.432 Q196.26 717.979 196.26 716.166 Q196.26 714.197 197.401 712.471 Q198.542 710.744 200.729 709.854 Q202.917 708.963 205.589 708.963 Q208.526 708.963 210.776 709.924 Q213.026 710.885 214.237 712.744 Q215.448 714.604 215.542 716.963 L212.182 716.963 Q211.917 714.494 210.346 713.229 Q208.776 711.963 205.729 711.963 Q202.542 711.963 201.089 713.119 Q199.635 714.275 199.635 715.9 Q199.635 717.322 200.667 718.229 Q201.682 719.15 205.956 720.111 Q210.229 721.072 211.823 721.791 Q214.135 722.838 215.237 724.447 Q216.339 726.057 216.339 728.15 Q216.339 730.229 215.128 732.072 Q213.917 733.916 211.651 734.94 Q209.385 735.963 206.542 735.963 Q202.948 735.963 200.518 734.908 Q198.089 733.854 196.706 731.744 Q195.323 729.635 195.245 726.963 Z" fill="#000000" fill-opacity="1.000000"/>
  <path d="M227.589 732.807 L228.057 735.682 Q226.682 735.963 225.604 735.963 Q223.823 735.963 222.846 735.4 Q221.87 734.838 221.471 733.924 Q221.073 733.01 221.073 730.057 L221.073 718.963 L218.698 718.963 L218.698 715.963 L221.073 715.963 L221.073 711.213 L224.307 709.26 L224.307 715.963 L227.589 715.963 L227.589 718.963 L224.307 718.963 L224.307 730.275 Q224.307 731.682 224.479 732.088 Q224.651 732.494 225.042 732.729 Q225.432 732.963 226.151 732.963 Q226.698 732.963 227.589 732.807 Z" fill="#000000" fill-opacity="1.000000"/>
  <path d="M243.182 733.963 Q241.385 735.057 239.714 735.51 Q238.042 735.963 236.135 735.963 Q232.964 735.963 231.268 734.369 Q229.573 732.775 229.573 730.307 Q229.573 728.854 230.214 727.65 Q230.854 726.447 231.893 725.721 Q232.932 724.994 234.229 724.619 Q235.182 724.354 237.12 724.119 Q241.057 723.635 242.917 722.963 Q242.932 722.4 242.932 722.244 Q242.932 720.572 242.01 719.885 Q240.76 718.963 238.307 718.963 Q236.01 718.963 234.924 719.627 Q233.839 720.291 233.307 721.963 L230.12 721.963 Q230.557 719.885 231.549 718.611 Q232.542 717.338 234.417 716.65 Q236.292 715.963 238.776 715.963 Q241.229 715.963 242.768 716.557 Q244.307 717.15 245.026 718.049 Q245.745 718.947 246.042 720.322 Q246.198 721.182 246.198 723.229 L246.198 727.307 Q246.198 731.588 246.409 733.088 Q246.62 734.588 247.229 735.963 L243.839 735.963 Q243.323 735.104 243.182 733.963 ZM242.917 725.963 Q241.151 726.635 237.604 727.104 Q235.604 727.369 234.776 727.713 Q233.948 728.057 233.495 728.697 Q233.042 729.338 233.042 730.135 Q233.042 731.354 234.026 732.158 Q235.01 732.963 236.901 732.963 Q238.792 732.963 240.253 732.15 Q241.714 731.338 242.401 730.025 Q242.917 729.025 242.917 727.057 L242.917 725.963 Z" fill="#000000" fill-opacity="1.000000"/>
  <path d="M258.167 732.807 L258.635 735.682 Q257.26 735.963 256.182 735.963 Q254.401 735.963 253.424 735.4 Q252.448 734.838 252.049 733.924 Q251.651 733.01 251.651 730.057 L251.651 718.963 L249.276 718.963 L249.276 715.963 L251.651 715.963 L251.651 711.213 L254.885 709.26 L254.885 715.963 L258.167 715.963 L258.167 718.963 L254.885 718.963 L254.885 730.275 Q254.885 731.682 255.057 732.088 Q255.229 732.494 255.62 732.729 Q256.01 732.963 256.729 732.963 Q257.276 732.963 258.167 732.807 Z" fill="#000000" fill-opacity="1.000000"/>
  <path d="M274.385 729.963 L277.745 729.963 Q276.948 732.807 274.799 734.385 Q272.651 735.963 269.307 735.963 Q265.104 735.963 262.635 733.377 Q260.167 730.791 260.167 726.119 Q260.167 721.291 262.659 718.627 Q265.151 715.963 269.135 715.963 Q272.979 715.963 275.417 718.619 Q277.854 721.275 277.854 726.088 Q277.854 726.385 277.839 726.963 L263.526 726.963 Q263.714 729.869 265.315 731.416 Q266.917 732.963 269.323 732.963 Q271.12 732.963 272.385 732.244 Q273.651 731.525 274.385 729.963 ZM263.698 723.963 L274.417 723.963 Q274.198 721.76 273.182 720.666 Q271.635 718.963 269.151 718.963 Q266.917 718.963 265.385 720.322 Q263.854 721.682 263.698 723.963 Z" fill="#000000" fill-opacity="1.000000"/>
  <path d="M280.339 728.963 L283.557 728.963 Q283.823 730.9 285.065 731.932 Q286.307 732.963 288.526 732.963 Q290.76 732.963 291.846 732.127 Q292.932 731.291 292.932 730.182 Q292.932 729.166 291.979 728.588 Q291.307 728.197 288.651 727.588 Q285.073 726.682 283.69 726.01 Q282.307 725.338 281.596 724.158 Q280.885 722.979 280.885 721.557 Q280.885 720.26 281.471 719.15 Q282.057 718.041 283.073 717.322 Q283.823 716.744 285.135 716.354 Q286.448 715.963 287.948 715.963 Q290.198 715.963 291.901 716.69 Q293.604 717.416 294.417 718.65 Q295.229 719.885 295.542 721.963 L292.37 721.963 Q292.151 720.557 291.112 719.76 Q290.073 718.963 288.182 718.963 Q285.948 718.963 284.987 719.635 Q284.026 720.307 284.026 721.213 Q284.026 721.775 284.417 722.244 Q284.823 722.713 285.667 723.025 Q286.151 723.182 288.542 723.775 Q291.995 724.713 293.362 725.299 Q294.729 725.885 295.503 727.018 Q296.276 728.15 296.276 729.838 Q296.276 731.479 295.331 732.924 Q294.385 734.369 292.596 735.166 Q290.807 735.963 288.542 735.963 Q284.807 735.963 282.846 734.197 Q280.885 732.432 280.339 728.963 Z" fill="#000000" fill-opacity="1.000000"/>
  <path d="M223.495 645.613 L226.995 646.472 Q225.885 650.738 223.026 652.98 Q220.167 655.222 216.026 655.222 Q211.745 655.222 209.065 653.503 Q206.385 651.785 204.987 648.527 Q203.589 645.269 203.589 641.519 Q203.589 637.441 205.167 634.41 Q206.745 631.378 209.667 629.8 Q212.589 628.222 216.089 628.222 Q220.073 628.222 222.784 630.222 Q225.495 632.222 226.557 635.847 L223.104 636.644 Q222.182 633.816 220.432 632.519 Q218.682 631.222 216.026 631.222 Q212.964 631.222 210.909 632.66 Q208.854 634.097 208.026 636.519 Q207.198 638.941 207.198 641.503 Q207.198 644.832 208.182 647.3 Q209.167 649.769 211.245 650.996 Q213.323 652.222 215.745 652.222 Q218.682 652.222 220.729 650.558 Q222.776 648.894 223.495 645.613 Z" fill="#000000" fill-opacity="1.000000"/>
  <path d="M230.667 655.222 L230.667 628.222 L233.917 628.222 L233.917 638.05 Q236.198 635.222 239.667 635.222 Q241.792 635.222 243.362 636.082 Q244.932 636.941 245.612 638.449 Q246.292 639.957 246.292 642.832 L246.292 655.222 L243.042 655.222 L243.042 642.941 Q243.042 640.472 241.987 639.347 Q240.932 638.222 238.995 638.222 Q237.557 638.222 236.284 638.98 Q235.01 639.738 234.464 641.035 Q233.917 642.332 233.917 644.613 L233.917 655.222 L230.667 655.222 Z" fill="#000000" fill-opacity="1.000000"/>
  <path d="M251.073 631.222 L251.073 628.222 L254.323 628.222 L254.323 631.222 L251.073 631.222 ZM251.073 655.222 L251.073 635.222 L254.323 635.222 L254.323 655.222 L251.073 655.222 Z" fill="#000000" fill-opacity="1.000000"/>
  <path d="M259.198 655.222 L259.198 635.222 L262.12 635.222 L262.12 637.957 Q264.229 635.222 268.229 635.222 Q269.964 635.222 271.417 635.855 Q272.87 636.488 273.596 637.519 Q274.323 638.55 274.604 639.972 Q274.792 640.894 274.792 643.191 L274.792 655.222 L271.542 655.222 L271.542 643.41 Q271.542 641.41 271.159 640.41 Q270.776 639.41 269.815 638.816 Q268.854 638.222 267.542 638.222 Q265.464 638.222 263.956 639.558 Q262.448 640.894 262.448 644.628 L262.448 655.222 L259.198 655.222 Z" fill="#000000" fill-opacity="1.000000"/>
  <path d="M292.104 653.222 Q290.307 654.316 288.635 654.769 Q286.964 655.222 285.057 655.222 Q281.885 655.222 280.19 653.628 Q278.495 652.035 278.495 649.566 Q278.495 648.113 279.135 646.91 Q279.776 645.707 280.815 644.98 Q281.854 644.253 283.151 643.878 Q284.104 643.613 286.042 643.378 Q289.979 642.894 291.839 642.222 Q291.854 641.66 291.854 641.503 Q291.854 639.832 290.932 639.144 Q289.682 638.222 287.229 638.222 Q284.932 638.222 283.846 638.886 Q282.76 639.55 282.229 641.222 L279.042 641.222 Q279.479 639.144 280.471 637.871 Q281.464 636.597 283.339 635.91 Q285.214 635.222 287.698 635.222 Q290.151 635.222 291.69 635.816 Q293.229 636.41 293.948 637.308 Q294.667 638.207 294.964 639.582 Q295.12 640.441 295.12 642.488 L295.12 646.566 Q295.12 650.847 295.331 652.347 Q295.542 653.847 296.151 655.222 L292.76 655.222 Q292.245 654.363 292.104 653.222 ZM291.839 645.222 Q290.073 645.894 286.526 646.363 Q284.526 646.628 283.698 646.972 Q282.87 647.316 282.417 647.957 Q281.964 648.597 281.964 649.394 Q281.964 650.613 282.948 651.418 Q283.932 652.222 285.823 652.222 Q287.714 652.222 289.174 651.41 Q290.635 650.597 291.323 649.285 Q291.839 648.285 291.839 646.316 L291.839 645.222 Z" fill="#000000" fill-opacity="1.000000"/>
  <path d="M198.698 566.888 L201.87 566.481 Q201.995 569.356 203.01 570.419 Q204.026 571.481 205.807 571.481 Q207.12 571.481 208.081 570.872 Q209.042 570.263 209.401 569.216 Q209.76 568.169 209.76 565.872 L209.76 547.481 L213.26 547.481 L213.26 565.575 Q213.26 568.903 212.456 570.731 Q211.651 572.56 209.909 573.521 Q208.167 574.481 205.823 574.481 Q202.323 574.481 200.479 572.575 Q198.635 570.669 198.698 566.888 Z" fill="#000000" fill-opacity="1.000000"/>
  <path d="M230.932 572.481 Q229.135 573.575 227.464 574.028 Q225.792 574.481 223.885 574.481 Q220.714 574.481 219.018 572.888 Q217.323 571.294 217.323 568.825 Q217.323 567.372 217.964 566.169 Q218.604 564.966 219.643 564.239 Q220.682 563.513 221.979 563.138 Q222.932 562.872 224.87 562.638 Q228.807 562.153 230.667 561.481 Q230.682 560.919 230.682 560.763 Q230.682 559.091 229.76 558.403 Q228.51 557.481 226.057 557.481 Q223.76 557.481 222.674 558.146 Q221.589 558.81 221.057 560.481 L217.87 560.481 Q218.307 558.403 219.299 557.13 Q220.292 555.856 222.167 555.169 Q224.042 554.481 226.526 554.481 Q228.979 554.481 230.518 555.075 Q232.057 555.669 232.776 556.567 Q233.495 557.466 233.792 558.841 Q233.948 559.7 233.948 561.747 L233.948 565.825 Q233.948 570.106 234.159 571.606 Q234.37 573.106 234.979 574.481 L231.589 574.481 Q231.073 573.622 230.932 572.481 ZM230.667 564.481 Q228.901 565.153 225.354 565.622 Q223.354 565.888 222.526 566.231 Q221.698 566.575 221.245 567.216 Q220.792 567.856 220.792 568.653 Q220.792 569.872 221.776 570.677 Q222.76 571.481 224.651 571.481 Q226.542 571.481 228.003 570.669 Q229.464 569.856 230.151 568.544 Q230.667 567.544 230.667 565.575 L230.667 564.481 Z" fill="#000000" fill-opacity="1.000000"/>
  <path d="M238.807 581.481 L238.807 554.481 L241.776 554.481 L241.776 557.841 Q242.823 556.153 244.143 555.317 Q245.464 554.481 247.339 554.481 Q249.792 554.481 251.667 555.739 Q253.542 556.997 254.503 559.294 Q255.464 561.591 255.464 564.341 Q255.464 567.278 254.409 569.63 Q253.354 571.981 251.339 573.231 Q249.323 574.481 247.104 574.481 Q245.479 574.481 244.182 573.708 Q242.885 572.935 242.057 571.763 L242.057 581.481 L238.807 581.481 ZM241.76 564.638 Q241.76 568.138 243.26 569.81 Q244.76 571.481 246.885 571.481 Q249.057 571.481 250.596 569.747 Q252.135 568.013 252.135 564.388 Q252.135 560.919 250.628 559.2 Q249.12 557.481 247.026 557.481 Q244.948 557.481 243.354 559.317 Q241.76 561.153 241.76 564.638 Z" fill="#000000" fill-opacity="1.000000"/>
  <path d="M271.714 572.481 Q269.917 573.575 268.245 574.028 Q266.573 574.481 264.667 574.481 Q261.495 574.481 259.799 572.888 Q258.104 571.294 258.104 568.825 Q258.104 567.372 258.745 566.169 Q259.385 564.966 260.424 564.239 Q261.464 563.513 262.76 563.138 Q263.714 562.872 265.651 562.638 Q269.589 562.153 271.448 561.481 Q271.464 560.919 271.464 560.763 Q271.464 559.091 270.542 558.403 Q269.292 557.481 266.839 557.481 Q264.542 557.481 263.456 558.146 Q262.37 558.81 261.839 560.481 L258.651 560.481 Q259.089 558.403 260.081 557.13 Q261.073 555.856 262.948 555.169 Q264.823 554.481 267.307 554.481 Q269.76 554.481 271.299 555.075 Q272.839 555.669 273.557 556.567 Q274.276 557.466 274.573 558.841 Q274.729 559.7 274.729 561.747 L274.729 565.825 Q274.729 570.106 274.94 571.606 Q275.151 573.106 275.76 574.481 L272.37 574.481 Q271.854 573.622 271.714 572.481 ZM271.448 564.481 Q269.682 565.153 266.135 565.622 Q264.135 565.888 263.307 566.231 Q262.479 566.575 262.026 567.216 Q261.573 567.856 261.573 568.653 Q261.573 569.872 262.557 570.677 Q263.542 571.481 265.432 571.481 Q267.323 571.481 268.784 570.669 Q270.245 569.856 270.932 568.544 Q271.448 567.544 271.448 565.575 L271.448 564.481 Z" fill="#000000" fill-opacity="1.000000"/>
  <path d="M279.589 574.481 L279.589 554.481 L282.51 554.481 L282.51 557.216 Q284.62 554.481 288.62 554.481 Q290.354 554.481 291.807 555.114 Q293.26 555.747 293.987 556.778 Q294.714 557.81 294.995 559.231 Q295.182 560.153 295.182 562.45 L295.182 574.481 L291.932 574.481 L291.932 562.669 Q291.932 560.669 291.549 559.669 Q291.167 558.669 290.206 558.075 Q289.245 557.481 287.932 557.481 Q285.854 557.481 284.346 558.817 Q282.839 560.153 282.839 563.888 L282.839 574.481 L279.589 574.481 Z" fill="#000000" fill-opacity="1.000000"/>
  <path d="M161.979 482.741 L161.979 479.741 L173.198 479.741 L173.198 489.6 Q170.62 491.663 167.87 492.702 Q165.12 493.741 162.229 493.741 Q158.323 493.741 155.135 492.092 Q151.948 490.444 150.323 487.327 Q148.698 484.209 148.698 480.366 Q148.698 476.553 150.315 473.249 Q151.932 469.944 154.964 468.342 Q157.995 466.741 161.948 466.741 Q164.823 466.741 167.143 467.647 Q169.464 468.553 170.784 470.17 Q172.104 471.788 172.792 474.397 L169.635 475.256 Q169.042 473.288 168.159 472.178 Q167.276 471.069 165.628 470.405 Q163.979 469.741 161.979 469.741 Q159.573 469.741 157.823 470.467 Q156.073 471.194 154.995 472.374 Q153.917 473.553 153.323 474.959 Q152.307 477.397 152.307 480.225 Q152.307 483.741 153.526 486.1 Q154.745 488.459 157.073 489.6 Q159.401 490.741 162.026 490.741 Q164.307 490.741 166.471 489.827 Q168.635 488.913 169.76 487.881 L169.76 482.741 L161.979 482.741 Z" fill="#000000" fill-opacity="1.000000"/>
  <path d="M190.839 487.741 L194.198 487.741 Q193.401 490.584 191.253 492.163 Q189.104 493.741 185.76 493.741 Q181.557 493.741 179.089 491.155 Q176.62 488.569 176.62 483.897 Q176.62 479.069 179.112 476.405 Q181.604 473.741 185.589 473.741 Q189.432 473.741 191.87 476.397 Q194.307 479.053 194.307 483.866 Q194.307 484.163 194.292 484.741 L179.979 484.741 Q180.167 487.647 181.768 489.194 Q183.37 490.741 185.776 490.741 Q187.573 490.741 188.839 490.022 Q190.104 489.303 190.839 487.741 ZM180.151 481.741 L190.87 481.741 Q190.651 479.538 189.635 478.444 Q188.089 476.741 185.604 476.741 Q183.37 476.741 181.839 478.1 Q180.307 479.459 180.151 481.741 Z" fill="#000000" fill-opacity="1.000000"/>
  <path d="M198.057 493.741 L198.057 473.741 L200.979 473.741 L200.979 476.725 Q202.104 474.897 203.049 474.319 Q203.995 473.741 205.135 473.741 Q206.776 473.741 208.479 474.366 L207.354 477.381 Q206.167 476.741 204.979 476.741 Q203.917 476.741 203.065 477.413 Q202.214 478.084 201.854 479.272 Q201.307 481.084 201.307 483.241 L201.307 493.741 L198.057 493.741 Z" fill="#000000" fill-opacity="1.000000"/>
  <path d="M210.307 493.741 L210.307 473.741 L213.214 473.741 L213.214 477.053 Q214.12 475.553 215.62 474.647 Q217.12 473.741 219.026 473.741 Q221.167 473.741 222.526 474.678 Q223.885 475.616 224.448 477.288 Q226.729 473.741 230.385 473.741 Q233.229 473.741 234.768 475.35 Q236.307 476.959 236.307 480.319 L236.307 493.741 L233.073 493.741 L233.073 481.506 Q233.073 479.538 232.76 478.67 Q232.448 477.803 231.612 477.272 Q230.776 476.741 229.667 476.741 Q227.635 476.741 226.299 478.1 Q224.964 479.459 224.964 482.459 L224.964 493.741 L221.714 493.741 L221.714 481.131 Q221.714 478.928 220.917 477.834 Q220.12 476.741 218.307 476.741 Q216.932 476.741 215.768 477.475 Q214.604 478.209 214.081 479.616 Q213.557 481.022 213.557 483.678 L213.557 493.741 L210.307 493.741 Z" fill="#000000" fill-opacity="1.000000"/>
  <path d="M253.37 491.741 Q251.573 492.834 249.901 493.288 Q248.229 493.741 246.323 493.741 Q243.151 493.741 241.456 492.147 Q239.76 490.553 239.76 488.084 Q239.76 486.631 240.401 485.428 Q241.042 484.225 242.081 483.499 Q243.12 482.772 244.417 482.397 Q245.37 482.131 247.307 481.897 Q251.245 481.413 253.104 480.741 Q253.12 480.178 253.12 480.022 Q253.12 478.35 252.198 477.663 Q250.948 476.741 248.495 476.741 Q246.198 476.741 245.112 477.405 Q244.026 478.069 243.495 479.741 L240.307 479.741 Q240.745 477.663 241.737 476.389 Q242.729 475.116 244.604 474.428 Q246.479 473.741 248.964 473.741 Q251.417 473.741 252.956 474.334 Q254.495 474.928 255.214 475.827 Q255.932 476.725 256.229 478.1 Q256.385 478.959 256.385 481.006 L256.385 485.084 Q256.385 489.366 256.596 490.866 Q256.807 492.366 257.417 493.741 L254.026 493.741 Q253.51 492.881 253.37 491.741 ZM253.104 483.741 Q251.339 484.413 247.792 484.881 Q245.792 485.147 244.964 485.491 Q244.135 485.834 243.682 486.475 Q243.229 487.116 243.229 487.913 Q243.229 489.131 244.214 489.936 Q245.198 490.741 247.089 490.741 Q248.979 490.741 250.44 489.928 Q251.901 489.116 252.589 487.803 Q253.104 486.803 253.104 484.834 L253.104 483.741 Z" fill="#000000" fill-opacity="1.000000"/>
  <path d="M261.245 493.741 L261.245 473.741 L264.167 473.741 L264.167 476.475 Q266.276 473.741 270.276 473.741 Q272.01 473.741 273.464 474.374 Q274.917 475.006 275.643 476.038 Q276.37 477.069 276.651 478.491 Q276.839 479.413 276.839 481.709 L276.839 493.741 L273.589 493.741 L273.589 481.928 Q273.589 479.928 273.206 478.928 Q272.823 477.928 271.862 477.334 Q270.901 476.741 269.589 476.741 Q267.51 476.741 266.003 478.077 Q264.495 479.413 264.495 483.147 L264.495 493.741 L261.245 493.741 Z" fill="#000000" fill-opacity="1.000000"/>
  <path d="M281.495 500.366 L281.135 497.459 Q282.198 497.741 282.995 497.741 Q284.073 497.741 284.721 497.374 Q285.37 497.006 285.792 496.35 Q286.104 495.866 286.792 493.913 Q286.87 493.647 287.073 493.116 L279.792 473.741 L283.292 473.741 L287.292 484.803 Q288.073 486.913 288.682 489.225 Q289.245 487.834 290.026 485.694 L294.12 473.741 L297.37 473.741 L290.073 494.116 Q288.901 496.928 288.245 497.975 Q287.385 499.413 286.26 500.077 Q285.135 500.741 283.589 500.741 Q282.651 500.741 281.495 500.366 Z" fill="#000000" fill-opacity="1.000000"/>
  <path d="M56.901 386 L60.401 386 L60.401 401.344 Q60.401 405.344 59.4948 407.695 Q58.5885 410.047 56.237 411.523 Q53.8854 413 50.0573 413 Q46.3229 413 43.9557 411.711 Q41.5885 410.422 40.5807 407.992 Q39.5729 405.562 39.5729 401.344 L39.5729 386 L43.0729 386 L43.0729 401.422 Q43.0729 404.906 43.7135 406.562 Q44.3542 408.219 45.9167 409.109 Q47.4792 410 49.7448 410 Q53.6042 410 55.2526 408.234 Q56.901 406.469 56.901 401.422 L56.901 386 Z" fill="#000000" fill-opacity="1.000000"/>
  <path d="M65.5885 413 L65.5885 393 L68.5104 393 L68.5104 395.734 Q70.6198 393 74.6198 393 Q76.3542 393 77.8073 393.633 Q79.2604 394.266 79.987 395.297 Q80.7135 396.328 80.9948 397.75 Q81.1823 398.672 81.1823 400.969 L81.1823 413 L77.9323 413 L77.9323 401.188 Q77.9323 399.188 77.5495 398.188 Q77.1667 397.188 76.2057 396.594 Q75.2448 396 73.9323 396 Q71.8542 396 70.3464 397.336 Q68.8385 398.672 68.8385 402.406 L68.8385 413 L65.5885 413 Z" fill="#000000" fill-opacity="1.000000"/>
  <path d="M85.9948 389 L85.9948 386 L89.2448 386 L89.2448 389 L85.9948 389 ZM85.9948 413 L85.9948 393 L89.2448 393 L89.2448 413 L85.9948 413 Z" fill="#000000" fill-opacity="1.000000"/>
  <path d="M101.229 409.844 L101.698 412.719 Q100.323 413 99.2448 413 Q97.4635 413 96.487 412.438 Q95.5104 411.875 95.112 410.961 Q94.7135 410.047 94.7135 407.094 L94.7135 396 L92.3385 396 L92.3385 393 L94.7135 393 L94.7135 388.25 L97.9479 386.297 L97.9479 393 L101.229 393 L101.229 396 L97.9479 396 L97.9479 407.312 Q97.9479 408.719 98.1198 409.125 Q98.2917 409.531 98.6823 409.766 Q99.0729 410 99.7917 410 Q100.339 410 101.229 409.844 Z" fill="#000000" fill-opacity="1.000000"/>
  <path d="M117.448 407 L120.807 407 Q120.01 409.844 117.862 411.422 Q115.714 413 112.37 413 Q108.167 413 105.698 410.414 Q103.229 407.828 103.229 403.156 Q103.229 398.328 105.721 395.664 Q108.214 393 112.198 393 Q116.042 393 118.479 395.656 Q120.917 398.312 120.917 403.125 Q120.917 403.422 120.901 404 L106.589 404 Q106.776 406.906 108.378 408.453 Q109.979 410 112.385 410 Q114.182 410 115.448 409.281 Q116.714 408.562 117.448 407 ZM106.76 401 L117.479 401 Q117.26 398.797 116.245 397.703 Q114.698 396 112.214 396 Q109.979 396 108.448 397.359 Q106.917 398.719 106.76 401 Z" fill="#000000" fill-opacity="1.000000"/>
  <path d="M137.151 413 L137.151 409.797 Q135.323 413 131.792 413 Q129.495 413 127.565 411.742 Q125.635 410.484 124.581 408.219 Q123.526 405.953 123.526 403.016 Q123.526 400.156 124.487 397.82 Q125.448 395.484 127.362 394.242 Q129.276 393 131.635 393 Q133.37 393 134.729 393.812 Q136.089 394.625 136.932 395.938 L136.932 386 L140.167 386 L140.167 413 L137.151 413 ZM126.87 403.016 Q126.87 406.516 128.424 408.258 Q129.979 410 132.089 410 Q134.214 410 135.706 408.336 Q137.198 406.672 137.198 403.266 Q137.198 399.516 135.682 397.758 Q134.167 396 131.948 396 Q129.776 396 128.323 397.688 Q126.87 399.375 126.87 403.016 Z" fill="#000000" fill-opacity="1.000000"/>
  <path d="" fill="#000000" fill-opacity="1.000000"/>
  <path d="M155.542 413 L155.542 386 L159.057 386 L159.057 399.234 L172.214 386 L176.964 386 L165.854 397.203 L177.448 413 L172.823 413 L163.385 399.703 L159.057 404 L159.057 413 L155.542 413 Z" fill="#000000" fill-opacity="1.000000"/>
  <path d="M179.745 389 L179.745 386 L182.995 386 L182.995 389 L179.745 389 ZM179.745 413 L179.745 393 L182.995 393 L182.995 413 L179.745 413 Z" fill="#000000" fill-opacity="1.000000"/>
  <path d="M187.87 413 L187.87 393 L190.792 393 L190.792 395.734 Q192.901 393 196.901 393 Q198.635 393 200.089 393.633 Q201.542 394.266 202.268 395.297 Q202.995 396.328 203.276 397.75 Q203.464 398.672 203.464 400.969 L203.464 413 L200.214 413 L200.214 401.188 Q200.214 399.188 199.831 398.188 Q199.448 397.188 198.487 396.594 Q197.526 396 196.214 396 Q194.135 396 192.628 397.336 Q191.12 398.672 191.12 402.406 L191.12 413 L187.87 413 Z" fill="#000000" fill-opacity="1.000000"/>
  <path d="M207.667 414 L210.823 414 Q211.026 415.453 211.932 416.109 Q213.135 417 215.229 417 Q217.495 417 218.721 416.289 Q219.948 415.578 220.385 414.297 Q220.635 413.516 220.62 411 Q218.495 413 215.307 413 Q211.354 413 209.182 410.094 Q207.01 407.188 207.01 403.109 Q207.01 400.312 208.003 397.945 Q208.995 395.578 210.885 394.289 Q212.776 393 215.323 393 Q218.729 393 220.932 396 L220.932 393 L223.932 393 L223.932 409.594 Q223.932 414.094 223.018 415.961 Q222.104 417.828 220.128 418.914 Q218.151 420 215.26 420 Q211.823 420 209.706 418.508 Q207.589 417.016 207.667 414 ZM210.354 402.875 Q210.354 406.594 211.854 408.297 Q213.354 410 215.604 410 Q217.854 410 219.37 408.305 Q220.885 406.609 220.885 402.984 Q220.885 399.516 219.323 397.758 Q217.76 396 215.557 396 Q213.385 396 211.87 397.734 Q210.354 399.469 210.354 402.875 Z" fill="#000000" fill-opacity="1.000000"/>
  <path d="M241.104 413 L241.104 409.797 Q239.276 413 235.745 413 Q233.448 413 231.518 411.742 Q229.589 410.484 228.534 408.219 Q227.479 405.953 227.479 403.016 Q227.479 400.156 228.44 397.82 Q229.401 395.484 231.315 394.242 Q233.229 393 235.589 393 Q237.323 393 238.682 393.812 Q240.042 394.625 240.885 395.938 L240.885 386 L244.12 386 L244.12 413 L241.104 413 ZM230.823 403.016 Q230.823 406.516 232.378 408.258 Q233.932 410 236.042 410 Q238.167 410 239.659 408.336 Q241.151 406.672 241.151 403.266 Q241.151 399.516 239.635 397.758 Q238.12 396 235.901 396 Q233.729 396 232.276 397.688 Q230.823 399.375 230.823 403.016 Z" fill="#000000" fill-opacity="1.000000"/>
  <path d="M247.839 403 Q247.839 397.688 250.807 395.125 Q253.276 393 256.839 393 Q260.792 393 263.299 395.586 Q265.807 398.172 265.807 402.734 Q265.807 406.422 264.698 408.539 Q263.589 410.656 261.464 411.828 Q259.339 413 256.839 413 Q252.807 413 250.323 410.422 Q247.839 407.844 247.839 403 ZM251.182 402.984 Q251.182 406.5 252.792 408.25 Q254.401 410 256.839 410 Q259.245 410 260.854 408.242 Q262.464 406.484 262.464 402.891 Q262.464 399.5 260.846 397.75 Q259.229 396 256.839 396 Q254.401 396 252.792 397.742 Q251.182 399.484 251.182 402.984 Z" fill="#000000" fill-opacity="1.000000"/>
  <path d="M269.432 413 L269.432 393 L272.339 393 L272.339 396.312 Q273.245 394.812 274.745 393.906 Q276.245 393 278.151 393 Q280.292 393 281.651 393.938 Q283.01 394.875 283.573 396.547 Q285.854 393 289.51 393 Q292.354 393 293.893 394.609 Q295.432 396.219 295.432 399.578 L295.432 413 L292.198 413 L292.198 400.766 Q292.198 398.797 291.885 397.93 Q291.573 397.062 290.737 396.531 Q289.901 396 288.792 396 Q286.76 396 285.424 397.359 Q284.089 398.719 284.089 401.719 L284.089 413 L280.839 413 L280.839 400.391 Q280.839 398.188 280.042 397.094 Q279.245 396 277.432 396 Q276.057 396 274.893 396.734 Q273.729 397.469 273.206 398.875 Q272.682 400.281 272.682 402.938 L272.682 413 L269.432 413 Z" fill="#000000" fill-opacity="1.000000"/>
  <path d="M186.432 332.259 L186.432 305.259 L204.307 305.259 L204.307 308.259 L189.948 308.259 L189.948 317.259 L202.37 317.259 L202.37 320.259 L189.948 320.259 L189.948 332.259 L186.432 332.259 Z" fill="#000000" fill-opacity="1.000000"/>
  <path d="M208.214 332.259 L208.214 312.259 L211.135 312.259 L211.135 315.244 Q212.26 313.416 213.206 312.837 Q214.151 312.259 215.292 312.259 Q216.932 312.259 218.635 312.884 L217.51 315.9 Q216.323 315.259 215.135 315.259 Q214.073 315.259 213.221 315.931 Q212.37 316.603 212.01 317.791 Q211.464 319.603 211.464 321.759 L211.464 332.259 L208.214 332.259 Z" fill="#000000" fill-opacity="1.000000"/>
  <path d="M232.979 330.259 Q231.182 331.353 229.51 331.806 Q227.839 332.259 225.932 332.259 Q222.76 332.259 221.065 330.666 Q219.37 329.072 219.37 326.603 Q219.37 325.15 220.01 323.947 Q220.651 322.744 221.69 322.017 Q222.729 321.291 224.026 320.916 Q224.979 320.65 226.917 320.416 Q230.854 319.931 232.714 319.259 Q232.729 318.697 232.729 318.541 Q232.729 316.869 231.807 316.181 Q230.557 315.259 228.104 315.259 Q225.807 315.259 224.721 315.923 Q223.635 316.587 223.104 318.259 L219.917 318.259 Q220.354 316.181 221.346 314.908 Q222.339 313.634 224.214 312.947 Q226.089 312.259 228.573 312.259 Q231.026 312.259 232.565 312.853 Q234.104 313.447 234.823 314.345 Q235.542 315.244 235.839 316.619 Q235.995 317.478 235.995 319.525 L235.995 323.603 Q235.995 327.884 236.206 329.384 Q236.417 330.884 237.026 332.259 L233.635 332.259 Q233.12 331.4 232.979 330.259 ZM232.714 322.259 Q230.948 322.931 227.401 323.4 Q225.401 323.666 224.573 324.009 Q223.745 324.353 223.292 324.994 Q222.839 325.634 222.839 326.431 Q222.839 327.65 223.823 328.455 Q224.807 329.259 226.698 329.259 Q228.589 329.259 230.049 328.447 Q231.51 327.634 232.198 326.322 Q232.714 325.322 232.714 323.353 L232.714 322.259 Z" fill="#000000" fill-opacity="1.000000"/>
  <path d="M240.854 332.259 L240.854 312.259 L243.776 312.259 L243.776 314.994 Q245.885 312.259 249.885 312.259 Q251.62 312.259 253.073 312.892 Q254.526 313.525 255.253 314.556 Q255.979 315.587 256.26 317.009 Q256.448 317.931 256.448 320.228 L256.448 332.259 L253.198 332.259 L253.198 320.447 Q253.198 318.447 252.815 317.447 Q252.432 316.447 251.471 315.853 Q250.51 315.259 249.198 315.259 Q247.12 315.259 245.612 316.595 Q244.104 317.931 244.104 321.666 L244.104 332.259 L240.854 332.259 Z" fill="#000000" fill-opacity="1.000000"/>
  <path d="M273.76 325.259 L276.964 325.259 Q276.432 328.541 274.276 330.4 Q272.12 332.259 268.979 332.259 Q265.042 332.259 262.651 329.689 Q260.26 327.119 260.26 322.337 Q260.26 319.228 261.292 316.908 Q262.323 314.587 264.424 313.423 Q266.526 312.259 268.995 312.259 Q272.12 312.259 274.104 314.08 Q276.089 315.9 276.651 319.259 L273.495 319.259 Q273.042 317.275 271.893 316.267 Q270.745 315.259 269.12 315.259 Q266.667 315.259 265.128 316.939 Q263.589 318.619 263.589 322.244 Q263.589 325.916 265.073 327.587 Q266.557 329.259 268.932 329.259 Q270.854 329.259 272.135 328.275 Q273.417 327.291 273.76 325.259 Z" fill="#000000" fill-opacity="1.000000"/>
  <path d="M292.729 326.259 L296.089 326.259 Q295.292 329.103 293.143 330.681 Q290.995 332.259 287.651 332.259 Q283.448 332.259 280.979 329.673 Q278.51 327.087 278.51 322.416 Q278.51 317.587 281.003 314.923 Q283.495 312.259 287.479 312.259 Q291.323 312.259 293.76 314.916 Q296.198 317.572 296.198 322.384 Q296.198 322.681 296.182 323.259 L281.87 323.259 Q282.057 326.166 283.659 327.712 Q285.26 329.259 287.667 329.259 Q289.464 329.259 290.729 328.541 Q291.995 327.822 292.729 326.259 ZM282.042 320.259 L292.76 320.259 Q292.542 318.056 291.526 316.962 Q289.979 315.259 287.495 315.259 Q285.26 315.259 283.729 316.619 Q282.198 317.978 282.042 320.259 Z" fill="#000000" fill-opacity="1.000000"/>
  <path d="M221.495 251.519 L221.495 224.519 L224.995 224.519 L224.995 251.519 L221.495 251.519 Z" fill="#000000" fill-opacity="1.000000"/>
  <path d="M230.667 251.519 L230.667 231.519 L233.589 231.519 L233.589 234.253 Q235.698 231.519 239.698 231.519 Q241.432 231.519 242.885 232.151 Q244.339 232.784 245.065 233.815 Q245.792 234.847 246.073 236.269 Q246.26 237.19 246.26 239.487 L246.26 251.519 L243.01 251.519 L243.01 239.706 Q243.01 237.706 242.628 236.706 Q242.245 235.706 241.284 235.112 Q240.323 234.519 239.01 234.519 Q236.932 234.519 235.424 235.854 Q233.917 237.19 233.917 240.925 L233.917 251.519 L230.667 251.519 Z" fill="#000000" fill-opacity="1.000000"/>
  <path d="M263.51 251.519 L263.51 248.315 Q261.682 251.519 258.151 251.519 Q255.854 251.519 253.924 250.261 Q251.995 249.003 250.94 246.737 Q249.885 244.472 249.885 241.534 Q249.885 238.675 250.846 236.339 Q251.807 234.003 253.721 232.761 Q255.635 231.519 257.995 231.519 Q259.729 231.519 261.089 232.331 Q262.448 233.144 263.292 234.456 L263.292 224.519 L266.526 224.519 L266.526 251.519 L263.51 251.519 ZM253.229 241.534 Q253.229 245.034 254.784 246.776 Q256.339 248.519 258.448 248.519 Q260.573 248.519 262.065 246.854 Q263.557 245.19 263.557 241.784 Q263.557 238.034 262.042 236.276 Q260.526 234.519 258.307 234.519 Q256.135 234.519 254.682 236.206 Q253.229 237.894 253.229 241.534 Z" fill="#000000" fill-opacity="1.000000"/>
  <path d="M271.464 227.519 L271.464 224.519 L274.714 224.519 L274.714 227.519 L271.464 227.519 ZM271.464 251.519 L271.464 231.519 L274.714 231.519 L274.714 251.519 L271.464 251.519 Z" fill="#000000" fill-opacity="1.000000"/>
  <path d="M292.104 249.519 Q290.307 250.612 288.635 251.065 Q286.964 251.519 285.057 251.519 Q281.885 251.519 280.19 249.925 Q278.495 248.331 278.495 245.862 Q278.495 244.409 279.135 243.206 Q279.776 242.003 280.815 241.276 Q281.854 240.55 283.151 240.175 Q284.104 239.909 286.042 239.675 Q289.979 239.19 291.839 238.519 Q291.854 237.956 291.854 237.8 Q291.854 236.128 290.932 235.44 Q289.682 234.519 287.229 234.519 Q284.932 234.519 283.846 235.183 Q282.76 235.847 282.229 237.519 L279.042 237.519 Q279.479 235.44 280.471 234.167 Q281.464 232.894 283.339 232.206 Q285.214 231.519 287.698 231.519 Q290.151 231.519 291.69 232.112 Q293.229 232.706 293.948 233.604 Q294.667 234.503 294.964 235.878 Q295.12 236.737 295.12 238.784 L295.12 242.862 Q295.12 247.144 295.331 248.644 Q295.542 250.144 296.151 251.519 L292.76 251.519 Q292.245 250.659 292.104 249.519 ZM291.839 241.519 Q290.073 242.19 286.526 242.659 Q284.526 242.925 283.698 243.269 Q282.87 243.612 282.417 244.253 Q281.964 244.894 281.964 245.69 Q281.964 246.909 282.948 247.714 Q283.932 248.519 285.823 248.519 Q287.714 248.519 289.174 247.706 Q290.635 246.894 291.323 245.581 Q291.839 244.581 291.839 242.612 L291.839 241.519 Z" fill="#000000" fill-opacity="1.000000"/>
  <path d="M233.745 170.778 L233.745 143.778 L237.245 143.778 L237.245 170.778 L233.745 170.778 Z" fill="#000000" fill-opacity="1.000000"/>
  <path d="M250.026 167.622 L250.495 170.497 Q249.12 170.778 248.042 170.778 Q246.26 170.778 245.284 170.215 Q244.307 169.653 243.909 168.739 Q243.51 167.825 243.51 164.872 L243.51 153.778 L241.135 153.778 L241.135 150.778 L243.51 150.778 L243.51 146.028 L246.745 144.075 L246.745 150.778 L250.026 150.778 L250.026 153.778 L246.745 153.778 L246.745 165.09 Q246.745 166.497 246.917 166.903 Q247.089 167.309 247.479 167.543 Q247.87 167.778 248.589 167.778 Q249.135 167.778 250.026 167.622 Z" fill="#000000" fill-opacity="1.000000"/>
  <path d="M265.62 168.778 Q263.823 169.872 262.151 170.325 Q260.479 170.778 258.573 170.778 Q255.401 170.778 253.706 169.184 Q252.01 167.59 252.01 165.122 Q252.01 163.668 252.651 162.465 Q253.292 161.262 254.331 160.536 Q255.37 159.809 256.667 159.434 Q257.62 159.168 259.557 158.934 Q263.495 158.45 265.354 157.778 Q265.37 157.215 265.37 157.059 Q265.37 155.387 264.448 154.7 Q263.198 153.778 260.745 153.778 Q258.448 153.778 257.362 154.442 Q256.276 155.106 255.745 156.778 L252.557 156.778 Q252.995 154.7 253.987 153.426 Q254.979 152.153 256.854 151.465 Q258.729 150.778 261.214 150.778 Q263.667 150.778 265.206 151.372 Q266.745 151.965 267.464 152.864 Q268.182 153.762 268.479 155.137 Q268.635 155.997 268.635 158.043 L268.635 162.122 Q268.635 166.403 268.846 167.903 Q269.057 169.403 269.667 170.778 L266.276 170.778 Q265.76 169.918 265.62 168.778 ZM265.354 160.778 Q263.589 161.45 260.042 161.918 Q258.042 162.184 257.214 162.528 Q256.385 162.872 255.932 163.512 Q255.479 164.153 255.479 164.95 Q255.479 166.168 256.464 166.973 Q257.448 167.778 259.339 167.778 Q261.229 167.778 262.69 166.965 Q264.151 166.153 264.839 164.84 Q265.354 163.84 265.354 161.872 L265.354 160.778 Z" fill="#000000" fill-opacity="1.000000"/>
  <path d="M273.417 170.778 L273.417 143.778 L276.682 143.778 L276.682 170.778 L273.417 170.778 Z" fill="#000000" fill-opacity="1.000000"/>
  <path d="M281.495 177.403 L281.135 174.497 Q282.198 174.778 282.995 174.778 Q284.073 174.778 284.721 174.411 Q285.37 174.043 285.792 173.387 Q286.104 172.903 286.792 170.95 Q286.87 170.684 287.073 170.153 L279.792 150.778 L283.292 150.778 L287.292 161.84 Q288.073 163.95 288.682 166.262 Q289.245 164.872 290.026 162.731 L294.12 150.778 L297.37 150.778 L290.073 171.153 Q288.901 173.965 288.245 175.012 Q287.385 176.45 286.26 177.114 Q285.135 177.778 283.589 177.778 Q282.651 177.778 281.495 177.403 Z" fill="#000000" fill-opacity="1.000000"/>
  <path d="M208.557 90.037 L208.557 63.037 L218.495 63.037 Q221.526 63.037 223.362 63.8808 Q225.198 64.7245 226.237 66.4745 Q227.276 68.2245 227.276 70.1464 Q227.276 71.9277 226.354 73.498 Q225.432 75.0683 223.573 76.037 Q225.979 76.7402 227.268 78.4277 Q228.557 80.1152 228.557 82.412 Q228.557 84.2558 227.768 85.8417 Q226.979 87.4277 225.823 88.2948 Q224.667 89.162 222.924 89.5995 Q221.182 90.037 218.651 90.037 L208.557 90.037 ZM212.073 75.037 L217.807 75.037 Q220.135 75.037 221.135 74.6933 Q222.479 74.2402 223.151 73.2011 Q223.823 72.162 223.823 70.5995 Q223.823 69.1308 223.19 67.998 Q222.557 66.8652 221.385 66.4511 Q220.214 66.037 217.354 66.037 L212.073 66.037 L212.073 75.037 ZM212.073 87.037 L218.667 87.037 Q220.37 87.037 221.042 86.912 Q222.26 86.6933 223.073 86.1933 Q223.885 85.6933 224.409 84.7402 Q224.932 83.787 224.932 82.537 Q224.932 81.0683 224.174 79.9902 Q223.417 78.912 222.073 78.4745 Q220.729 78.037 218.198 78.037 L212.073 78.037 L212.073 87.037 Z" fill="#000000" fill-opacity="1.000000"/>
  <path d="M232.714 90.037 L232.714 70.037 L235.635 70.037 L235.635 73.0214 Q236.76 71.1933 237.706 70.6152 Q238.651 70.037 239.792 70.037 Q241.432 70.037 243.135 70.662 L242.01 73.6777 Q240.823 73.037 239.635 73.037 Q238.573 73.037 237.721 73.7089 Q236.87 74.3808 236.51 75.5683 Q235.964 77.3808 235.964 79.537 L235.964 90.037 L232.714 90.037 Z" fill="#000000" fill-opacity="1.000000"/>
  <path d="M257.479 88.037 Q255.682 89.1308 254.01 89.5839 Q252.339 90.037 250.432 90.037 Q247.26 90.037 245.565 88.4433 Q243.87 86.8495 243.87 84.3808 Q243.87 82.9277 244.51 81.7245 Q245.151 80.5214 246.19 79.7948 Q247.229 79.0683 248.526 78.6933 Q249.479 78.4277 251.417 78.1933 Q255.354 77.7089 257.214 77.037 Q257.229 76.4745 257.229 76.3183 Q257.229 74.6464 256.307 73.9589 Q255.057 73.037 252.604 73.037 Q250.307 73.037 249.221 73.7011 Q248.135 74.3652 247.604 76.037 L244.417 76.037 Q244.854 73.9589 245.846 72.6855 Q246.839 71.412 248.714 70.7245 Q250.589 70.037 253.073 70.037 Q255.526 70.037 257.065 70.6308 Q258.604 71.2245 259.323 72.123 Q260.042 73.0214 260.339 74.3964 Q260.495 75.2558 260.495 77.3027 L260.495 81.3808 Q260.495 85.662 260.706 87.162 Q260.917 88.662 261.526 90.037 L258.135 90.037 Q257.62 89.1777 257.479 88.037 ZM257.214 80.037 Q255.448 80.7089 251.901 81.1777 Q249.901 81.4433 249.073 81.787 Q248.245 82.1308 247.792 82.7714 Q247.339 83.412 247.339 84.2089 Q247.339 85.4277 248.323 86.2323 Q249.307 87.037 251.198 87.037 Q253.089 87.037 254.549 86.2245 Q256.01 85.412 256.698 84.0995 Q257.214 83.0995 257.214 81.1308 L257.214 80.037 Z" fill="#000000" fill-opacity="1.000000"/>
  <path d="M263.635 90.037 L263.635 87.2089 L275.854 73.037 Q273.776 73.037 272.182 73.037 L264.37 73.037 L264.37 70.037 L280.042 70.037 L280.042 72.5839 L269.651 84.9745 L267.651 87.037 Q269.839 87.037 271.745 87.037 L280.62 87.037 L280.62 90.037 L263.635 90.037 Z" fill="#000000" fill-opacity="1.000000"/>
  <path d="M283.714 66.037 L283.714 63.037 L286.964 63.037 L286.964 66.037 L283.714 66.037 ZM283.714 90.037 L283.714 70.037 L286.964 70.037 L286.964 90.037 L283.714 90.037 Z" fill="#000000" fill-opacity="1.000000"/>
  <path d="M291.76 90.037 L291.76 63.037 L295.026 63.037 L295.026 90.037 L291.76 90.037 Z" fill="#000000" fill-opacity="1.000000"/>
  <path d="M326.875 748.63 L1634.01 748.63 L1634.01 697.296 L326.875 697.296 Z" fill="#4c7bb0" fill-opacity="1.000000"/>
  <path d="M326.875 667.889 L1114.22 667.889 L1114.22 616.556 L326.875 616.556 Z" fill="#4c7bb0" fill-opacity="1.000000"/>
  <path d="M326.875 587.148 L673.312 587.148 L673.312 535.815 L326.875 535.815 Z" fill="#4c7bb0" fill-opacity="1.000000"/>
  <path d="M326.875 506.407 L570.911 506.407 L570.911 455.074 L326.875 455.074 Z" fill="#4c7bb0" fill-opacity="1.000000"/>
  <path d="M326.875 425.667 L512.657 425.667 L512.657 374.333 L326.875 374.333 Z" fill="#4c7bb0" fill-opacity="1.000000"/>
  <path d="M326.875 344.926 L499.883 344.926 L499.883 293.593 L326.875 293.593 Z" fill="#4c7bb0" fill-opacity="1.000000"/>
  <path d="M326.875 264.185 L485.425 264.185 L485.425 212.852 L326.875 212.852 Z" fill="#4c7bb0" fill-opacity="1.000000"/>
  <path d="M326.875 183.444 L457.28 183.444 L457.28 132.111 L326.875 132.111 Z" fill="#4c7bb0" fill-opacity="1.000000"/>
  <path d="M326.875 102.704 L452.858 102.704 L452.858 51.3704 L326.875 51.3704 Z" fill="#4c7bb0" fill-opacity="1.000000"/>
  <path d="M1649.83 738.963 L1649.83 735.963 Q1647.4 735.65 1645.86 734.854 Q1644.33 734.057 1643.22 732.291 Q1642.11 730.525 1641.93 727.963 L1645.21 727.963 Q1645.58 730.229 1646.55 731.291 Q1647.91 732.791 1649.83 732.963 L1649.83 723.197 Q1647.82 722.729 1645.72 721.604 Q1644.18 720.791 1643.33 719.322 Q1642.49 717.854 1642.49 715.994 Q1642.49 712.697 1644.94 710.65 Q1646.6 709.275 1649.83 708.963 L1649.83 707.963 L1651.74 707.963 L1651.74 708.963 Q1654.57 709.26 1656.24 710.744 Q1658.36 712.65 1658.8 715.963 L1655.44 715.963 Q1655.16 714.182 1654.25 713.221 Q1653.33 712.26 1651.74 711.963 L1651.74 720.541 Q1654.19 721.104 1654.99 721.447 Q1656.51 722.088 1657.47 723.033 Q1658.43 723.979 1658.94 725.268 Q1659.46 726.557 1659.46 728.057 Q1659.46 731.369 1657.31 733.588 Q1655.16 735.807 1651.74 735.963 L1651.74 738.963 L1649.83 738.963 ZM1649.83 711.963 Q1647.93 712.229 1646.83 713.354 Q1645.74 714.479 1645.74 716.01 Q1645.74 717.541 1646.67 718.565 Q1647.6 719.588 1649.83 720.104 L1649.83 711.963 ZM1651.74 732.963 Q1653.63 732.729 1654.87 731.369 Q1656.11 730.01 1656.11 728.01 Q1656.11 726.307 1655.24 725.268 Q1654.36 724.229 1651.74 723.635 L1651.74 732.963 Z" fill="#000000" fill-opacity="1.000000"/>
  <path d="M1674.79 735.963 L1671.54 735.963 L1671.54 714.932 Q1670.36 716.072 1668.46 717.205 Q1666.55 718.338 1665.04 718.9 L1665.04 715.713 Q1667.77 714.416 1669.81 712.565 Q1671.85 710.713 1672.69 708.963 L1674.79 708.963 L1674.79 735.963 Z" fill="#000000" fill-opacity="1.000000"/>
  <path d="M1687.94 721.369 Q1685.91 720.619 1684.93 719.229 Q1683.96 717.838 1683.96 715.885 Q1683.96 712.963 1686.04 710.963 Q1688.11 708.963 1691.57 708.963 Q1695.04 708.963 1697.15 711.01 Q1699.27 713.057 1699.27 715.979 Q1699.27 717.854 1698.3 719.236 Q1697.33 720.619 1695.36 721.369 Q1697.8 722.15 1699.08 723.893 Q1700.35 725.635 1700.35 728.057 Q1700.35 731.4 1697.94 733.682 Q1695.54 735.963 1691.61 735.963 Q1687.71 735.963 1685.3 733.674 Q1682.9 731.385 1682.9 727.979 Q1682.9 725.432 1684.21 723.713 Q1685.52 721.994 1687.94 721.369 ZM1687.29 715.854 Q1687.29 717.666 1688.5 718.815 Q1689.71 719.963 1691.65 719.963 Q1693.52 719.963 1694.72 718.822 Q1695.93 717.682 1695.93 716.025 Q1695.93 714.307 1694.69 713.135 Q1693.46 711.963 1691.61 711.963 Q1689.74 711.963 1688.51 713.111 Q1687.29 714.26 1687.29 715.854 ZM1686.24 727.916 Q1686.24 729.213 1686.9 730.424 Q1687.55 731.635 1688.86 732.299 Q1690.16 732.963 1691.66 732.963 Q1693.99 732.963 1695.51 731.565 Q1697.02 730.166 1697.02 728.01 Q1697.02 725.822 1695.46 724.393 Q1693.9 722.963 1691.55 722.963 Q1689.26 722.963 1687.75 724.377 Q1686.24 725.791 1686.24 727.916 Z" fill="#000000" fill-opacity="1.000000"/>
  <path d="M1705.07 735.963 L1705.07 732.963 L1708.77 732.963 L1708.77 735.963 Q1708.77 738.307 1708.05 739.744 Q1707.33 741.182 1705.76 741.963 L1704.86 740.963 Q1705.9 740.369 1706.38 739.236 Q1706.86 738.104 1706.91 735.963 L1705.07 735.963 Z" fill="#000000" fill-opacity="1.000000"/>
  <path d="M1730.38 715.963 L1727.15 715.963 Q1726.71 714.135 1725.91 713.291 Q1724.6 711.963 1722.66 711.963 Q1721.11 711.963 1719.94 712.729 Q1718.41 713.729 1717.52 715.643 Q1716.63 717.557 1716.6 721.494 Q1717.77 719.697 1719.47 718.83 Q1721.16 717.963 1723.04 717.963 Q1726.29 717.963 1728.57 720.408 Q1730.85 722.854 1730.85 726.729 Q1730.85 729.275 1729.77 731.455 Q1728.69 733.635 1726.82 734.799 Q1724.94 735.963 1722.55 735.963 Q1718.49 735.963 1715.93 732.979 Q1713.36 729.994 1713.36 723.135 Q1713.36 715.479 1716.21 711.994 Q1718.68 708.963 1722.86 708.963 Q1725.99 708.963 1727.99 710.822 Q1729.99 712.682 1730.38 715.963 ZM1717.1 726.65 Q1717.1 728.322 1717.81 729.846 Q1718.52 731.369 1719.81 732.166 Q1721.1 732.963 1722.51 732.963 Q1724.57 732.963 1726.05 731.315 Q1727.54 729.666 1727.54 726.822 Q1727.54 724.104 1726.07 722.533 Q1724.6 720.963 1722.38 720.963 Q1720.18 720.963 1718.64 722.533 Q1717.1 724.104 1717.1 726.65 Z" fill="#000000" fill-opacity="1.000000"/>
  <path d="M1750.99 732.963 L1750.99 735.963 L1733.49 735.963 Q1733.44 734.838 1733.86 733.791 Q1734.54 732.072 1736.01 730.408 Q1737.47 728.744 1740.26 726.369 Q1744.58 722.682 1746.1 720.58 Q1747.61 718.479 1747.61 716.619 Q1747.61 714.65 1746.23 713.307 Q1744.85 711.963 1742.63 711.963 Q1740.29 711.963 1738.87 713.025 Q1737.46 714.088 1737.44 715.963 L1734.1 715.963 Q1734.44 712.541 1736.68 710.752 Q1738.93 708.963 1742.69 708.963 Q1746.52 708.963 1748.74 711.135 Q1750.96 713.307 1750.96 716.525 Q1750.96 718.166 1750.31 719.744 Q1749.66 721.322 1748.15 723.072 Q1746.63 724.822 1743.13 727.807 Q1740.21 730.291 1739.38 731.182 Q1738.55 732.072 1738.01 732.963 L1750.99 732.963 Z" fill="#000000" fill-opacity="1.000000"/>
  <path d="M1764.71 735.963 L1764.71 729.963 L1753.22 729.963 L1753.22 726.963 L1765.32 708.963 L1767.97 708.963 L1767.97 726.963 L1771.55 726.963 L1771.55 729.963 L1767.97 729.963 L1767.97 735.963 L1764.71 735.963 ZM1764.71 726.963 L1764.71 714.635 L1756.43 726.963 L1764.71 726.963 Z" fill="#000000" fill-opacity="1.000000"/>
  <path d="M1778.58 735.963 L1775.57 735.963 L1775.57 708.963 L1778.82 708.963 L1778.82 718.869 Q1780.88 715.963 1784.08 715.963 Q1785.85 715.963 1787.43 716.674 Q1789.01 717.385 1790.03 718.674 Q1791.05 719.963 1791.63 721.783 Q1792.21 723.604 1792.21 725.682 Q1792.21 730.588 1789.77 733.275 Q1787.33 735.963 1783.91 735.963 Q1780.52 735.963 1778.58 732.775 L1778.58 735.963 ZM1778.55 725.822 Q1778.55 729.104 1779.49 730.572 Q1781.02 732.963 1783.65 732.963 Q1785.77 732.963 1787.33 731.197 Q1788.88 729.432 1788.88 725.947 Q1788.88 722.369 1787.39 720.666 Q1785.9 718.963 1783.79 718.963 Q1781.66 718.963 1780.11 720.729 Q1778.55 722.494 1778.55 725.822 Z" fill="#000000" fill-opacity="1.000000"/>
  <path d="M1795.9 735.963 L1795.9 708.963 L1799.16 708.963 L1799.16 735.963 L1795.9 735.963 Z" fill="#000000" fill-opacity="1.000000"/>
  <path d="M1804.11 735.963 L1804.11 715.963 L1807.04 715.963 L1807.04 718.697 Q1809.15 715.963 1813.15 715.963 Q1814.88 715.963 1816.33 716.596 Q1817.79 717.229 1818.51 718.26 Q1819.24 719.291 1819.52 720.713 Q1819.71 721.635 1819.71 723.932 L1819.71 735.963 L1816.46 735.963 L1816.46 724.15 Q1816.46 722.15 1816.08 721.15 Q1815.69 720.15 1814.73 719.557 Q1813.77 718.963 1812.46 718.963 Q1810.38 718.963 1808.87 720.299 Q1807.36 721.635 1807.36 725.369 L1807.36 735.963 L1804.11 735.963 Z" fill="#000000" fill-opacity="1.000000"/>
  <path d="M1130.04 658.222 L1130.04 655.222 Q1127.6 654.91 1126.07 654.113 Q1124.54 653.316 1123.43 651.55 Q1122.32 649.785 1122.13 647.222 L1125.41 647.222 Q1125.79 649.488 1126.76 650.55 Q1128.12 652.05 1130.04 652.222 L1130.04 642.457 Q1128.02 641.988 1125.93 640.863 Q1124.38 640.05 1123.54 638.582 Q1122.69 637.113 1122.69 635.253 Q1122.69 631.957 1125.15 629.91 Q1126.8 628.535 1130.04 628.222 L1130.04 627.222 L1131.94 627.222 L1131.94 628.222 Q1134.77 628.519 1136.44 630.003 Q1138.57 631.91 1139.01 635.222 L1135.65 635.222 Q1135.37 633.441 1134.45 632.48 Q1133.54 631.519 1131.94 631.222 L1131.94 639.8 Q1134.4 640.363 1135.19 640.707 Q1136.71 641.347 1137.67 642.293 Q1138.63 643.238 1139.15 644.527 Q1139.66 645.816 1139.66 647.316 Q1139.66 650.628 1137.51 652.847 Q1135.37 655.066 1131.94 655.222 L1131.94 658.222 L1130.04 658.222 ZM1130.04 631.222 Q1128.13 631.488 1127.04 632.613 Q1125.94 633.738 1125.94 635.269 Q1125.94 636.8 1126.87 637.824 Q1127.8 638.847 1130.04 639.363 L1130.04 631.222 ZM1131.94 652.222 Q1133.83 651.988 1135.08 650.628 Q1136.32 649.269 1136.32 647.269 Q1136.32 645.566 1135.44 644.527 Q1134.57 643.488 1131.94 642.894 L1131.94 652.222 Z" fill="#000000" fill-opacity="1.000000"/>
  <path d="M1154.99 655.222 L1151.74 655.222 L1151.74 634.191 Q1150.57 635.332 1148.66 636.464 Q1146.76 637.597 1145.24 638.16 L1145.24 634.972 Q1147.98 633.675 1150.01 631.824 Q1152.05 629.972 1152.9 628.222 L1154.99 628.222 L1154.99 655.222 Z" fill="#000000" fill-opacity="1.000000"/>
  <path d="M1174.02 655.222 L1170.77 655.222 L1170.77 634.191 Q1169.6 635.332 1167.69 636.464 Q1165.79 637.597 1164.27 638.16 L1164.27 634.972 Q1167.01 633.675 1169.05 631.824 Q1171.08 629.972 1171.93 628.222 L1174.02 628.222 L1174.02 655.222 Z" fill="#000000" fill-opacity="1.000000"/>
  <path d="M1182.55 655.222 L1182.55 652.222 L1186.26 652.222 L1186.26 655.222 Q1186.26 657.566 1185.54 659.003 Q1184.82 660.441 1183.24 661.222 L1182.35 660.222 Q1183.38 659.628 1183.87 658.496 Q1184.35 657.363 1184.4 655.222 L1182.55 655.222 Z" fill="#000000" fill-opacity="1.000000"/>
  <path d="M1208.08 652.222 L1208.08 655.222 L1190.58 655.222 Q1190.54 654.097 1190.96 653.05 Q1191.63 651.332 1193.1 649.668 Q1194.57 648.003 1197.35 645.628 Q1201.68 641.941 1203.19 639.839 Q1204.71 637.738 1204.71 635.878 Q1204.71 633.91 1203.33 632.566 Q1201.94 631.222 1199.73 631.222 Q1197.38 631.222 1195.97 632.285 Q1194.55 633.347 1194.54 635.222 L1191.19 635.222 Q1191.54 631.8 1193.78 630.011 Q1196.02 628.222 1199.79 628.222 Q1203.62 628.222 1205.83 630.394 Q1208.05 632.566 1208.05 635.785 Q1208.05 637.425 1207.4 639.003 Q1206.76 640.582 1205.24 642.332 Q1203.73 644.082 1200.23 647.066 Q1197.3 649.55 1196.48 650.441 Q1195.65 651.332 1195.1 652.222 L1208.08 652.222 Z" fill="#000000" fill-opacity="1.000000"/>
  <path d="M1223.63 655.222 L1220.38 655.222 L1220.38 634.191 Q1219.21 635.332 1217.3 636.464 Q1215.4 637.597 1213.88 638.16 L1213.88 634.972 Q1216.62 633.675 1218.65 631.824 Q1220.69 629.972 1221.54 628.222 L1223.63 628.222 L1223.63 655.222 Z" fill="#000000" fill-opacity="1.000000"/>
  <path d="M1236.79 640.628 Q1234.76 639.878 1233.78 638.488 Q1232.8 637.097 1232.8 635.144 Q1232.8 632.222 1234.88 630.222 Q1236.96 628.222 1240.41 628.222 Q1243.88 628.222 1246 630.269 Q1248.12 632.316 1248.12 635.238 Q1248.12 637.113 1247.15 638.496 Q1246.18 639.878 1244.21 640.628 Q1246.65 641.41 1247.92 643.152 Q1249.19 644.894 1249.19 647.316 Q1249.19 650.66 1246.79 652.941 Q1244.38 655.222 1240.46 655.222 Q1236.55 655.222 1234.15 652.933 Q1231.74 650.644 1231.74 647.238 Q1231.74 644.691 1233.05 642.972 Q1234.37 641.253 1236.79 640.628 ZM1236.13 635.113 Q1236.13 636.925 1237.34 638.074 Q1238.55 639.222 1240.49 639.222 Q1242.37 639.222 1243.57 638.082 Q1244.77 636.941 1244.77 635.285 Q1244.77 633.566 1243.54 632.394 Q1242.3 631.222 1240.46 631.222 Q1238.58 631.222 1237.36 632.371 Q1236.13 633.519 1236.13 635.113 ZM1235.08 647.175 Q1235.08 648.472 1235.74 649.683 Q1236.4 650.894 1237.7 651.558 Q1239.01 652.222 1240.51 652.222 Q1242.83 652.222 1244.35 650.824 Q1245.87 649.425 1245.87 647.269 Q1245.87 645.082 1244.3 643.652 Q1242.74 642.222 1240.4 642.222 Q1238.1 642.222 1236.59 643.636 Q1235.08 645.05 1235.08 647.175 Z" fill="#000000" fill-opacity="1.000000"/>
  <path d="M1256.07 655.222 L1253.05 655.222 L1253.05 628.222 L1256.3 628.222 L1256.3 638.128 Q1258.37 635.222 1261.57 635.222 Q1263.33 635.222 1264.91 635.933 Q1266.49 636.644 1267.51 637.933 Q1268.54 639.222 1269.12 641.043 Q1269.69 642.863 1269.69 644.941 Q1269.69 649.847 1267.26 652.535 Q1264.82 655.222 1261.4 655.222 Q1258.01 655.222 1256.07 652.035 L1256.07 655.222 ZM1256.04 645.082 Q1256.04 648.363 1256.98 649.832 Q1258.51 652.222 1261.13 652.222 Q1263.26 652.222 1264.81 650.457 Q1266.37 648.691 1266.37 645.207 Q1266.37 641.628 1264.87 639.925 Q1263.38 638.222 1261.27 638.222 Q1259.15 638.222 1257.59 639.988 Q1256.04 641.753 1256.04 645.082 Z" fill="#000000" fill-opacity="1.000000"/>
  <path d="M1273.38 655.222 L1273.38 628.222 L1276.65 628.222 L1276.65 655.222 L1273.38 655.222 Z" fill="#000000" fill-opacity="1.000000"/>
  <path d="M1281.6 655.222 L1281.6 635.222 L1284.52 635.222 L1284.52 637.957 Q1286.63 635.222 1290.63 635.222 Q1292.37 635.222 1293.82 635.855 Q1295.27 636.488 1296 637.519 Q1296.73 638.55 1297.01 639.972 Q1297.19 640.894 1297.19 643.191 L1297.19 655.222 L1293.94 655.222 L1293.94 643.41 Q1293.94 641.41 1293.56 640.41 Q1293.18 639.41 1292.22 638.816 Q1291.26 638.222 1289.94 638.222 Q1287.87 638.222 1286.36 639.558 Q1284.85 640.894 1284.85 644.628 L1284.85 655.222 L1281.6 655.222 Z" fill="#000000" fill-opacity="1.000000"/>
  <path d="M689.131 577.481 L689.131 574.481 Q686.693 574.169 685.162 573.372 Q683.631 572.575 682.521 570.81 Q681.412 569.044 681.224 566.481 L684.506 566.481 Q684.881 568.747 685.849 569.81 Q687.209 571.31 689.131 571.481 L689.131 561.716 Q687.115 561.247 685.021 560.122 Q683.474 559.31 682.631 557.841 Q681.787 556.372 681.787 554.513 Q681.787 551.216 684.24 549.169 Q685.896 547.794 689.131 547.481 L689.131 546.481 L691.037 546.481 L691.037 547.481 Q693.865 547.778 695.537 549.263 Q697.662 551.169 698.099 554.481 L694.74 554.481 Q694.459 552.7 693.545 551.739 Q692.631 550.778 691.037 550.481 L691.037 559.06 Q693.49 559.622 694.287 559.966 Q695.803 560.606 696.763 561.552 Q697.724 562.497 698.24 563.786 Q698.756 565.075 698.756 566.575 Q698.756 569.888 696.607 572.106 Q694.459 574.325 691.037 574.481 L691.037 577.481 L689.131 577.481 ZM689.131 550.481 Q687.224 550.747 686.131 551.872 Q685.037 552.997 685.037 554.528 Q685.037 556.06 685.967 557.083 Q686.896 558.106 689.131 558.622 L689.131 550.481 ZM691.037 571.481 Q692.928 571.247 694.17 569.888 Q695.412 568.528 695.412 566.528 Q695.412 564.825 694.537 563.786 Q693.662 562.747 691.037 562.153 L691.037 571.481 Z" fill="#000000" fill-opacity="1.000000"/>
  <path d="M714.084 574.481 L710.834 574.481 L710.834 553.45 Q709.662 554.591 707.756 555.724 Q705.849 556.856 704.334 557.419 L704.334 554.231 Q707.068 552.935 709.107 551.083 Q711.146 549.231 711.99 547.481 L714.084 547.481 L714.084 574.481 Z" fill="#000000" fill-opacity="1.000000"/>
  <path d="M733.115 574.481 L729.865 574.481 L729.865 553.45 Q728.693 554.591 726.787 555.724 Q724.881 556.856 723.365 557.419 L723.365 554.231 Q726.099 552.935 728.138 551.083 Q730.178 549.231 731.021 547.481 L733.115 547.481 L733.115 574.481 Z" fill="#000000" fill-opacity="1.000000"/>
  <path d="M741.646 574.481 L741.646 571.481 L745.349 571.481 L745.349 574.481 Q745.349 576.825 744.631 578.263 Q743.912 579.7 742.334 580.481 L741.443 579.481 Q742.474 578.888 742.959 577.755 Q743.443 576.622 743.49 574.481 L741.646 574.481 Z" fill="#000000" fill-opacity="1.000000"/>
  <path d="M767.178 571.481 L767.178 574.481 L749.678 574.481 Q749.631 573.356 750.053 572.31 Q750.724 570.591 752.193 568.927 Q753.662 567.263 756.443 564.888 Q760.771 561.2 762.287 559.099 Q763.803 556.997 763.803 555.138 Q763.803 553.169 762.42 551.825 Q761.037 550.481 758.818 550.481 Q756.474 550.481 755.06 551.544 Q753.646 552.606 753.631 554.481 L750.287 554.481 Q750.631 551.06 752.873 549.271 Q755.115 547.481 758.881 547.481 Q762.709 547.481 764.928 549.653 Q767.146 551.825 767.146 555.044 Q767.146 556.685 766.498 558.263 Q765.849 559.841 764.334 561.591 Q762.818 563.341 759.318 566.325 Q756.396 568.81 755.568 569.7 Q754.74 570.591 754.193 571.481 L767.178 571.481 Z" fill="#000000" fill-opacity="1.000000"/>
  <path d="M782.724 574.481 L779.474 574.481 L779.474 553.45 Q778.303 554.591 776.396 555.724 Q774.49 556.856 772.974 557.419 L772.974 554.231 Q775.709 552.935 777.748 551.083 Q779.787 549.231 780.631 547.481 L782.724 547.481 L782.724 574.481 Z" fill="#000000" fill-opacity="1.000000"/>
  <path d="M795.881 559.888 Q793.849 559.138 792.873 557.747 Q791.896 556.356 791.896 554.403 Q791.896 551.481 793.974 549.481 Q796.053 547.481 799.506 547.481 Q802.974 547.481 805.092 549.528 Q807.209 551.575 807.209 554.497 Q807.209 556.372 806.24 557.755 Q805.271 559.138 803.303 559.888 Q805.74 560.669 807.013 562.411 Q808.287 564.153 808.287 566.575 Q808.287 569.919 805.881 572.2 Q803.474 574.481 799.553 574.481 Q795.646 574.481 793.24 572.192 Q790.834 569.903 790.834 566.497 Q790.834 563.95 792.146 562.231 Q793.459 560.513 795.881 559.888 ZM795.224 554.372 Q795.224 556.185 796.435 557.333 Q797.646 558.481 799.584 558.481 Q801.459 558.481 802.662 557.341 Q803.865 556.2 803.865 554.544 Q803.865 552.825 802.631 551.653 Q801.396 550.481 799.553 550.481 Q797.678 550.481 796.451 551.63 Q795.224 552.778 795.224 554.372 ZM794.178 566.435 Q794.178 567.731 794.834 568.942 Q795.49 570.153 796.795 570.817 Q798.099 571.481 799.599 571.481 Q801.928 571.481 803.443 570.083 Q804.959 568.685 804.959 566.528 Q804.959 564.341 803.396 562.911 Q801.834 561.481 799.49 561.481 Q797.193 561.481 795.685 562.896 Q794.178 564.31 794.178 566.435 Z" fill="#000000" fill-opacity="1.000000"/>
  <path d="M815.162 574.481 L812.146 574.481 L812.146 547.481 L815.396 547.481 L815.396 557.388 Q817.459 554.481 820.662 554.481 Q822.428 554.481 824.006 555.192 Q825.584 555.903 826.607 557.192 Q827.631 558.481 828.209 560.302 Q828.787 562.122 828.787 564.2 Q828.787 569.106 826.349 571.794 Q823.912 574.481 820.49 574.481 Q817.099 574.481 815.162 571.294 L815.162 574.481 ZM815.131 564.341 Q815.131 567.622 816.068 569.091 Q817.599 571.481 820.224 571.481 Q822.349 571.481 823.904 569.716 Q825.459 567.95 825.459 564.466 Q825.459 560.888 823.967 559.185 Q822.474 557.481 820.365 557.481 Q818.24 557.481 816.685 559.247 Q815.131 561.013 815.131 564.341 Z" fill="#000000" fill-opacity="1.000000"/>
  <path d="M832.474 574.481 L832.474 547.481 L835.74 547.481 L835.74 574.481 L832.474 574.481 Z" fill="#000000" fill-opacity="1.000000"/>
  <path d="M840.693 574.481 L840.693 554.481 L843.615 554.481 L843.615 557.216 Q845.724 554.481 849.724 554.481 Q851.459 554.481 852.912 555.114 Q854.365 555.747 855.092 556.778 Q855.818 557.81 856.099 559.231 Q856.287 560.153 856.287 562.45 L856.287 574.481 L853.037 574.481 L853.037 562.669 Q853.037 560.669 852.654 559.669 Q852.271 558.669 851.31 558.075 Q850.349 557.481 849.037 557.481 Q846.959 557.481 845.451 558.817 Q843.943 560.153 843.943 563.888 L843.943 574.481 L840.693 574.481 Z" fill="#000000" fill-opacity="1.000000"/>
  <path d="M586.73 496.741 L586.73 493.741 Q584.292 493.428 582.761 492.631 Q581.23 491.834 580.12 490.069 Q579.011 488.303 578.823 485.741 L582.105 485.741 Q582.48 488.006 583.448 489.069 Q584.808 490.569 586.73 490.741 L586.73 480.975 Q584.714 480.506 582.62 479.381 Q581.073 478.569 580.23 477.1 Q579.386 475.631 579.386 473.772 Q579.386 470.475 581.839 468.428 Q583.495 467.053 586.73 466.741 L586.73 465.741 L588.636 465.741 L588.636 466.741 Q591.464 467.038 593.136 468.522 Q595.261 470.428 595.698 473.741 L592.339 473.741 Q592.058 471.959 591.144 470.999 Q590.23 470.038 588.636 469.741 L588.636 478.319 Q591.089 478.881 591.886 479.225 Q593.402 479.866 594.362 480.811 Q595.323 481.756 595.839 483.045 Q596.355 484.334 596.355 485.834 Q596.355 489.147 594.206 491.366 Q592.058 493.584 588.636 493.741 L588.636 496.741 L586.73 496.741 ZM586.73 469.741 Q584.823 470.006 583.73 471.131 Q582.636 472.256 582.636 473.788 Q582.636 475.319 583.566 476.342 Q584.495 477.366 586.73 477.881 L586.73 469.741 ZM588.636 490.741 Q590.527 490.506 591.769 489.147 Q593.011 487.788 593.011 485.788 Q593.011 484.084 592.136 483.045 Q591.261 482.006 588.636 481.413 L588.636 490.741 Z" fill="#000000" fill-opacity="1.000000"/>
  <path d="M611.683 493.741 L608.433 493.741 L608.433 472.709 Q607.261 473.85 605.355 474.983 Q603.448 476.116 601.933 476.678 L601.933 473.491 Q604.667 472.194 606.706 470.342 Q608.745 468.491 609.589 466.741 L611.683 466.741 L611.683 493.741 Z" fill="#000000" fill-opacity="1.000000"/>
  <path d="M630.714 493.741 L627.464 493.741 L627.464 472.709 Q626.292 473.85 624.386 474.983 Q622.48 476.116 620.964 476.678 L620.964 473.491 Q623.698 472.194 625.737 470.342 Q627.777 468.491 628.62 466.741 L630.714 466.741 L630.714 493.741 Z" fill="#000000" fill-opacity="1.000000"/>
  <path d="M639.245 493.741 L639.245 490.741 L642.948 490.741 L642.948 493.741 Q642.948 496.084 642.23 497.522 Q641.511 498.959 639.933 499.741 L639.042 498.741 Q640.073 498.147 640.558 497.014 Q641.042 495.881 641.089 493.741 L639.245 493.741 Z" fill="#000000" fill-opacity="1.000000"/>
  <path d="M664.777 490.741 L664.777 493.741 L647.277 493.741 Q647.23 492.616 647.652 491.569 Q648.323 489.85 649.792 488.186 Q651.261 486.522 654.042 484.147 Q658.37 480.459 659.886 478.358 Q661.402 476.256 661.402 474.397 Q661.402 472.428 660.019 471.084 Q658.636 469.741 656.417 469.741 Q654.073 469.741 652.659 470.803 Q651.245 471.866 651.23 473.741 L647.886 473.741 Q648.23 470.319 650.472 468.53 Q652.714 466.741 656.48 466.741 Q660.308 466.741 662.527 468.913 Q664.745 471.084 664.745 474.303 Q664.745 475.944 664.097 477.522 Q663.448 479.1 661.933 480.85 Q660.417 482.6 656.917 485.584 Q653.995 488.069 653.167 488.959 Q652.339 489.85 651.792 490.741 L664.777 490.741 Z" fill="#000000" fill-opacity="1.000000"/>
  <path d="M680.323 493.741 L677.073 493.741 L677.073 472.709 Q675.902 473.85 673.995 474.983 Q672.089 476.116 670.573 476.678 L670.573 473.491 Q673.308 472.194 675.347 470.342 Q677.386 468.491 678.23 466.741 L680.323 466.741 L680.323 493.741 Z" fill="#000000" fill-opacity="1.000000"/>
  <path d="M693.48 479.147 Q691.448 478.397 690.472 477.006 Q689.495 475.616 689.495 473.663 Q689.495 470.741 691.573 468.741 Q693.652 466.741 697.105 466.741 Q700.573 466.741 702.691 468.788 Q704.808 470.834 704.808 473.756 Q704.808 475.631 703.839 477.014 Q702.87 478.397 700.902 479.147 Q703.339 479.928 704.612 481.67 Q705.886 483.413 705.886 485.834 Q705.886 489.178 703.48 491.459 Q701.073 493.741 697.152 493.741 Q693.245 493.741 690.839 491.452 Q688.433 489.163 688.433 485.756 Q688.433 483.209 689.745 481.491 Q691.058 479.772 693.48 479.147 ZM692.823 473.631 Q692.823 475.444 694.034 476.592 Q695.245 477.741 697.183 477.741 Q699.058 477.741 700.261 476.6 Q701.464 475.459 701.464 473.803 Q701.464 472.084 700.23 470.913 Q698.995 469.741 697.152 469.741 Q695.277 469.741 694.05 470.889 Q692.823 472.038 692.823 473.631 ZM691.777 485.694 Q691.777 486.991 692.433 488.202 Q693.089 489.413 694.394 490.077 Q695.698 490.741 697.198 490.741 Q699.527 490.741 701.042 489.342 Q702.558 487.944 702.558 485.788 Q702.558 483.6 700.995 482.17 Q699.433 480.741 697.089 480.741 Q694.792 480.741 693.284 482.155 Q691.777 483.569 691.777 485.694 Z" fill="#000000" fill-opacity="1.000000"/>
  <path d="M712.761 493.741 L709.745 493.741 L709.745 466.741 L712.995 466.741 L712.995 476.647 Q715.058 473.741 718.261 473.741 Q720.027 473.741 721.605 474.452 Q723.183 475.163 724.206 476.452 Q725.23 477.741 725.808 479.561 Q726.386 481.381 726.386 483.459 Q726.386 488.366 723.948 491.053 Q721.511 493.741 718.089 493.741 Q714.698 493.741 712.761 490.553 L712.761 493.741 ZM712.73 483.6 Q712.73 486.881 713.667 488.35 Q715.198 490.741 717.823 490.741 Q719.948 490.741 721.503 488.975 Q723.058 487.209 723.058 483.725 Q723.058 480.147 721.566 478.444 Q720.073 476.741 717.964 476.741 Q715.839 476.741 714.284 478.506 Q712.73 480.272 712.73 483.6 Z" fill="#000000" fill-opacity="1.000000"/>
  <path d="M730.073 493.741 L730.073 466.741 L733.339 466.741 L733.339 493.741 L730.073 493.741 Z" fill="#000000" fill-opacity="1.000000"/>
  <path d="M738.292 493.741 L738.292 473.741 L741.214 473.741 L741.214 476.475 Q743.323 473.741 747.323 473.741 Q749.058 473.741 750.511 474.374 Q751.964 475.006 752.691 476.038 Q753.417 477.069 753.698 478.491 Q753.886 479.413 753.886 481.709 L753.886 493.741 L750.636 493.741 L750.636 481.928 Q750.636 479.928 750.253 478.928 Q749.87 477.928 748.909 477.334 Q747.948 476.741 746.636 476.741 Q744.558 476.741 743.05 478.077 Q741.542 479.413 741.542 483.147 L741.542 493.741 L738.292 493.741 Z" fill="#000000" fill-opacity="1.000000"/>
  <path d="M528.475 416 L528.475 413 Q526.038 412.688 524.507 411.891 Q522.975 411.094 521.866 409.328 Q520.757 407.562 520.569 405 L523.85 405 Q524.225 407.266 525.194 408.328 Q526.554 409.828 528.475 410 L528.475 400.234 Q526.46 399.766 524.366 398.641 Q522.819 397.828 521.975 396.359 Q521.132 394.891 521.132 393.031 Q521.132 389.734 523.585 387.688 Q525.241 386.312 528.475 386 L528.475 385 L530.382 385 L530.382 386 Q533.21 386.297 534.882 387.781 Q537.007 389.688 537.444 393 L534.085 393 Q533.804 391.219 532.89 390.258 Q531.975 389.297 530.382 389 L530.382 397.578 Q532.835 398.141 533.632 398.484 Q535.147 399.125 536.108 400.07 Q537.069 401.016 537.585 402.305 Q538.1 403.594 538.1 405.094 Q538.1 408.406 535.952 410.625 Q533.804 412.844 530.382 413 L530.382 416 L528.475 416 ZM528.475 389 Q526.569 389.266 525.475 390.391 Q524.382 391.516 524.382 393.047 Q524.382 394.578 525.311 395.602 Q526.241 396.625 528.475 397.141 L528.475 389 ZM530.382 410 Q532.272 409.766 533.515 408.406 Q534.757 407.047 534.757 405.047 Q534.757 403.344 533.882 402.305 Q533.007 401.266 530.382 400.672 L530.382 410 Z" fill="#000000" fill-opacity="1.000000"/>
  <path d="M553.429 413 L550.179 413 L550.179 391.969 Q549.007 393.109 547.1 394.242 Q545.194 395.375 543.679 395.938 L543.679 392.75 Q546.413 391.453 548.452 389.602 Q550.491 387.75 551.335 386 L553.429 386 L553.429 413 Z" fill="#000000" fill-opacity="1.000000"/>
  <path d="M572.46 413 L569.21 413 L569.21 391.969 Q568.038 393.109 566.132 394.242 Q564.225 395.375 562.71 395.938 L562.71 392.75 Q565.444 391.453 567.483 389.602 Q569.522 387.75 570.366 386 L572.46 386 L572.46 413 Z" fill="#000000" fill-opacity="1.000000"/>
  <path d="M580.991 413 L580.991 410 L584.694 410 L584.694 413 Q584.694 415.344 583.975 416.781 Q583.257 418.219 581.679 419 L580.788 418 Q581.819 417.406 582.304 416.273 Q582.788 415.141 582.835 413 L580.991 413 Z" fill="#000000" fill-opacity="1.000000"/>
  <path d="M606.522 410 L606.522 413 L589.022 413 Q588.975 411.875 589.397 410.828 Q590.069 409.109 591.538 407.445 Q593.007 405.781 595.788 403.406 Q600.116 399.719 601.632 397.617 Q603.147 395.516 603.147 393.656 Q603.147 391.688 601.765 390.344 Q600.382 389 598.163 389 Q595.819 389 594.405 390.062 Q592.991 391.125 592.975 393 L589.632 393 Q589.975 389.578 592.218 387.789 Q594.46 386 598.225 386 Q602.054 386 604.272 388.172 Q606.491 390.344 606.491 393.562 Q606.491 395.203 605.843 396.781 Q605.194 398.359 603.679 400.109 Q602.163 401.859 598.663 404.844 Q595.741 407.328 594.913 408.219 Q594.085 409.109 593.538 410 L606.522 410 Z" fill="#000000" fill-opacity="1.000000"/>
  <path d="M622.069 413 L618.819 413 L618.819 391.969 Q617.647 393.109 615.741 394.242 Q613.835 395.375 612.319 395.938 L612.319 392.75 Q615.054 391.453 617.093 389.602 Q619.132 387.75 619.975 386 L622.069 386 L622.069 413 Z" fill="#000000" fill-opacity="1.000000"/>
  <path d="M635.225 398.406 Q633.194 397.656 632.218 396.266 Q631.241 394.875 631.241 392.922 Q631.241 390 633.319 388 Q635.397 386 638.85 386 Q642.319 386 644.436 388.047 Q646.554 390.094 646.554 393.016 Q646.554 394.891 645.585 396.273 Q644.616 397.656 642.647 398.406 Q645.085 399.188 646.358 400.93 Q647.632 402.672 647.632 405.094 Q647.632 408.438 645.225 410.719 Q642.819 413 638.897 413 Q634.991 413 632.585 410.711 Q630.179 408.422 630.179 405.016 Q630.179 402.469 631.491 400.75 Q632.804 399.031 635.225 398.406 ZM634.569 392.891 Q634.569 394.703 635.78 395.852 Q636.991 397 638.929 397 Q640.804 397 642.007 395.859 Q643.21 394.719 643.21 393.062 Q643.21 391.344 641.975 390.172 Q640.741 389 638.897 389 Q637.022 389 635.796 390.148 Q634.569 391.297 634.569 392.891 ZM633.522 404.953 Q633.522 406.25 634.179 407.461 Q634.835 408.672 636.14 409.336 Q637.444 410 638.944 410 Q641.272 410 642.788 408.602 Q644.304 407.203 644.304 405.047 Q644.304 402.859 642.741 401.43 Q641.179 400 638.835 400 Q636.538 400 635.03 401.414 Q633.522 402.828 633.522 404.953 Z" fill="#000000" fill-opacity="1.000000"/>
  <path d="M654.507 413 L651.491 413 L651.491 386 L654.741 386 L654.741 395.906 Q656.804 393 660.007 393 Q661.772 393 663.35 393.711 Q664.929 394.422 665.952 395.711 Q666.975 397 667.554 398.82 Q668.132 400.641 668.132 402.719 Q668.132 407.625 665.694 410.312 Q663.257 413 659.835 413 Q656.444 413 654.507 409.812 L654.507 413 ZM654.475 402.859 Q654.475 406.141 655.413 407.609 Q656.944 410 659.569 410 Q661.694 410 663.249 408.234 Q664.804 406.469 664.804 402.984 Q664.804 399.406 663.311 397.703 Q661.819 396 659.71 396 Q657.585 396 656.03 397.766 Q654.475 399.531 654.475 402.859 Z" fill="#000000" fill-opacity="1.000000"/>
  <path d="M671.819 413 L671.819 386 L675.085 386 L675.085 413 L671.819 413 Z" fill="#000000" fill-opacity="1.000000"/>
  <path d="M680.038 413 L680.038 393 L682.96 393 L682.96 395.734 Q685.069 393 689.069 393 Q690.804 393 692.257 393.633 Q693.71 394.266 694.436 395.297 Q695.163 396.328 695.444 397.75 Q695.632 398.672 695.632 400.969 L695.632 413 L692.382 413 L692.382 401.188 Q692.382 399.188 691.999 398.188 Q691.616 397.188 690.655 396.594 Q689.694 396 688.382 396 Q686.304 396 684.796 397.336 Q683.288 398.672 683.288 402.406 L683.288 413 L680.038 413 Z" fill="#000000" fill-opacity="1.000000"/>
  <path d="M515.702 335.259 L515.702 332.259 Q513.264 331.947 511.733 331.15 Q510.202 330.353 509.092 328.587 Q507.983 326.822 507.795 324.259 L511.077 324.259 Q511.452 326.525 512.42 327.587 Q513.78 329.087 515.702 329.259 L515.702 319.494 Q513.686 319.025 511.592 317.9 Q510.045 317.087 509.202 315.619 Q508.358 314.15 508.358 312.291 Q508.358 308.994 510.811 306.947 Q512.467 305.572 515.702 305.259 L515.702 304.259 L517.608 304.259 L517.608 305.259 Q520.436 305.556 522.108 307.041 Q524.233 308.947 524.67 312.259 L521.311 312.259 Q521.03 310.478 520.116 309.517 Q519.202 308.556 517.608 308.259 L517.608 316.837 Q520.061 317.4 520.858 317.744 Q522.374 318.384 523.334 319.33 Q524.295 320.275 524.811 321.564 Q525.327 322.853 525.327 324.353 Q525.327 327.666 523.178 329.884 Q521.03 332.103 517.608 332.259 L517.608 335.259 L515.702 335.259 ZM515.702 308.259 Q513.795 308.525 512.702 309.65 Q511.608 310.775 511.608 312.306 Q511.608 313.837 512.538 314.861 Q513.467 315.884 515.702 316.4 L515.702 308.259 ZM517.608 329.259 Q519.499 329.025 520.741 327.666 Q521.983 326.306 521.983 324.306 Q521.983 322.603 521.108 321.564 Q520.233 320.525 517.608 319.931 L517.608 329.259 Z" fill="#000000" fill-opacity="1.000000"/>
  <path d="M545.499 329.259 L545.499 332.259 L527.999 332.259 Q527.952 331.134 528.374 330.087 Q529.045 328.369 530.514 326.705 Q531.983 325.041 534.764 322.666 Q539.092 318.978 540.608 316.876 Q542.124 314.775 542.124 312.916 Q542.124 310.947 540.741 309.603 Q539.358 308.259 537.139 308.259 Q534.795 308.259 533.381 309.322 Q531.967 310.384 531.952 312.259 L528.608 312.259 Q528.952 308.837 531.194 307.048 Q533.436 305.259 537.202 305.259 Q541.03 305.259 543.249 307.431 Q545.467 309.603 545.467 312.822 Q545.467 314.462 544.819 316.041 Q544.17 317.619 542.655 319.369 Q541.139 321.119 537.639 324.103 Q534.717 326.587 533.889 327.478 Q533.061 328.369 532.514 329.259 L545.499 329.259 Z" fill="#000000" fill-opacity="1.000000"/>
  <path d="M550.545 332.259 L550.545 329.259 L554.249 329.259 L554.249 332.259 Q554.249 334.603 553.53 336.041 Q552.811 337.478 551.233 338.259 L550.342 337.259 Q551.374 336.666 551.858 335.533 Q552.342 334.4 552.389 332.259 L550.545 332.259 Z" fill="#000000" fill-opacity="1.000000"/>
  <path d="M569.405 332.259 L569.405 326.259 L557.92 326.259 L557.92 323.259 L570.014 305.259 L572.67 305.259 L572.67 323.259 L576.249 323.259 L576.249 326.259 L572.67 326.259 L572.67 332.259 L569.405 332.259 ZM569.405 323.259 L569.405 310.931 L561.124 323.259 L569.405 323.259 Z" fill="#000000" fill-opacity="1.000000"/>
  <path d="M596.249 312.259 L593.014 312.259 Q592.577 310.431 591.78 309.587 Q590.467 308.259 588.53 308.259 Q586.983 308.259 585.811 309.025 Q584.28 310.025 583.389 311.939 Q582.499 313.853 582.467 317.791 Q583.639 315.994 585.334 315.126 Q587.03 314.259 588.905 314.259 Q592.155 314.259 594.436 316.705 Q596.717 319.15 596.717 323.025 Q596.717 325.572 595.639 327.751 Q594.561 329.931 592.686 331.095 Q590.811 332.259 588.42 332.259 Q584.358 332.259 581.795 329.275 Q579.233 326.291 579.233 319.431 Q579.233 311.775 582.077 308.291 Q584.545 305.259 588.733 305.259 Q591.858 305.259 593.858 307.119 Q595.858 308.978 596.249 312.259 ZM582.967 322.947 Q582.967 324.619 583.678 326.142 Q584.389 327.666 585.678 328.462 Q586.967 329.259 588.374 329.259 Q590.436 329.259 591.92 327.611 Q593.405 325.962 593.405 323.119 Q593.405 320.4 591.936 318.83 Q590.467 317.259 588.249 317.259 Q586.045 317.259 584.506 318.83 Q582.967 320.4 582.967 322.947 Z" fill="#000000" fill-opacity="1.000000"/>
  <path d="M599.764 325.259 L603.186 325.259 Q603.561 327.259 604.944 328.259 Q606.327 329.259 608.28 329.259 Q610.624 329.259 612.249 327.556 Q613.874 325.853 613.874 323.041 Q613.874 320.353 612.311 318.806 Q610.749 317.259 608.217 317.259 Q606.655 317.259 605.389 317.814 Q604.124 318.369 603.405 319.259 L600.342 319.259 L602.905 305.259 L616.077 305.259 L616.077 308.259 L605.514 308.259 L604.092 315.994 Q606.483 314.259 609.092 314.259 Q612.561 314.259 614.944 316.658 Q617.327 319.056 617.327 322.837 Q617.327 326.431 615.233 329.041 Q612.686 332.259 608.28 332.259 Q604.655 332.259 602.374 330.345 Q600.092 328.431 599.764 325.259 Z" fill="#000000" fill-opacity="1.000000"/>
  <path d="M624.061 332.259 L621.045 332.259 L621.045 305.259 L624.295 305.259 L624.295 315.166 Q626.358 312.259 629.561 312.259 Q631.327 312.259 632.905 312.97 Q634.483 313.681 635.506 314.97 Q636.53 316.259 637.108 318.08 Q637.686 319.9 637.686 321.978 Q637.686 326.884 635.249 329.572 Q632.811 332.259 629.389 332.259 Q625.999 332.259 624.061 329.072 L624.061 332.259 ZM624.03 322.119 Q624.03 325.4 624.967 326.869 Q626.499 329.259 629.124 329.259 Q631.249 329.259 632.803 327.494 Q634.358 325.728 634.358 322.244 Q634.358 318.666 632.866 316.962 Q631.374 315.259 629.264 315.259 Q627.139 315.259 625.584 317.025 Q624.03 318.791 624.03 322.119 Z" fill="#000000" fill-opacity="1.000000"/>
  <path d="M641.374 332.259 L641.374 305.259 L644.639 305.259 L644.639 332.259 L641.374 332.259 Z" fill="#000000" fill-opacity="1.000000"/>
  <path d="M649.592 332.259 L649.592 312.259 L652.514 312.259 L652.514 314.994 Q654.624 312.259 658.624 312.259 Q660.358 312.259 661.811 312.892 Q663.264 313.525 663.991 314.556 Q664.717 315.587 664.999 317.009 Q665.186 317.931 665.186 320.228 L665.186 332.259 L661.936 332.259 L661.936 320.447 Q661.936 318.447 661.553 317.447 Q661.17 316.447 660.209 315.853 Q659.249 315.259 657.936 315.259 Q655.858 315.259 654.35 316.595 Q652.842 317.931 652.842 321.666 L652.842 332.259 L649.592 332.259 Z" fill="#000000" fill-opacity="1.000000"/>
  <path d="M501.243 254.519 L501.243 251.519 Q498.806 251.206 497.275 250.409 Q495.743 249.612 494.634 247.847 Q493.525 246.081 493.337 243.519 L496.618 243.519 Q496.993 245.784 497.962 246.847 Q499.322 248.347 501.243 248.519 L501.243 238.753 Q499.228 238.284 497.134 237.159 Q495.587 236.347 494.743 234.878 Q493.9 233.409 493.9 231.55 Q493.9 228.253 496.353 226.206 Q498.009 224.831 501.243 224.519 L501.243 223.519 L503.15 223.519 L503.15 224.519 Q505.978 224.815 507.65 226.3 Q509.775 228.206 510.212 231.519 L506.853 231.519 Q506.572 229.737 505.657 228.776 Q504.743 227.815 503.15 227.519 L503.15 236.097 Q505.603 236.659 506.4 237.003 Q507.915 237.644 508.876 238.589 Q509.837 239.534 510.353 240.823 Q510.868 242.112 510.868 243.612 Q510.868 246.925 508.72 249.144 Q506.572 251.362 503.15 251.519 L503.15 254.519 L501.243 254.519 ZM501.243 227.519 Q499.337 227.784 498.243 228.909 Q497.15 230.034 497.15 231.565 Q497.15 233.097 498.079 234.12 Q499.009 235.144 501.243 235.659 L501.243 227.519 ZM503.15 248.519 Q505.04 248.284 506.282 246.925 Q507.525 245.565 507.525 243.565 Q507.525 241.862 506.65 240.823 Q505.775 239.784 503.15 239.19 L503.15 248.519 Z" fill="#000000" fill-opacity="1.000000"/>
  <path d="M531.04 248.519 L531.04 251.519 L513.54 251.519 Q513.493 250.394 513.915 249.347 Q514.587 247.628 516.056 245.964 Q517.525 244.3 520.306 241.925 Q524.634 238.237 526.15 236.136 Q527.665 234.034 527.665 232.175 Q527.665 230.206 526.282 228.862 Q524.9 227.519 522.681 227.519 Q520.337 227.519 518.923 228.581 Q517.509 229.644 517.493 231.519 L514.15 231.519 Q514.493 228.097 516.736 226.308 Q518.978 224.519 522.743 224.519 Q526.572 224.519 528.79 226.69 Q531.009 228.862 531.009 232.081 Q531.009 233.722 530.361 235.3 Q529.712 236.878 528.197 238.628 Q526.681 240.378 523.181 243.362 Q520.259 245.847 519.431 246.737 Q518.603 247.628 518.056 248.519 L531.04 248.519 Z" fill="#000000" fill-opacity="1.000000"/>
  <path d="M536.165 251.519 L536.165 248.519 L539.868 248.519 L539.868 251.519 L536.165 251.519 Z" fill="#000000" fill-opacity="1.000000"/>
  <path d="M561.618 248.519 L561.618 251.519 L544.118 251.519 Q544.072 250.394 544.493 249.347 Q545.165 247.628 546.634 245.964 Q548.103 244.3 550.884 241.925 Q555.212 238.237 556.728 236.136 Q558.243 234.034 558.243 232.175 Q558.243 230.206 556.861 228.862 Q555.478 227.519 553.259 227.519 Q550.915 227.519 549.501 228.581 Q548.087 229.644 548.072 231.519 L544.728 231.519 Q545.072 228.097 547.314 226.308 Q549.556 224.519 553.322 224.519 Q557.15 224.519 559.368 226.69 Q561.587 228.862 561.587 232.081 Q561.587 233.722 560.939 235.3 Q560.29 236.878 558.775 238.628 Q557.259 240.378 553.759 243.362 Q550.837 245.847 550.009 246.737 Q549.181 247.628 548.634 248.519 L561.618 248.519 Z" fill="#000000" fill-opacity="1.000000"/>
  <path d="M564.915 244.519 L568.337 244.519 Q568.712 246.519 570.095 247.519 Q571.478 248.519 573.431 248.519 Q575.775 248.519 577.4 246.815 Q579.025 245.112 579.025 242.3 Q579.025 239.612 577.462 238.065 Q575.9 236.519 573.368 236.519 Q571.806 236.519 570.54 237.073 Q569.275 237.628 568.556 238.519 L565.493 238.519 L568.056 224.519 L581.228 224.519 L581.228 227.519 L570.665 227.519 L569.243 235.253 Q571.634 233.519 574.243 233.519 Q577.712 233.519 580.095 235.917 Q582.478 238.315 582.478 242.097 Q582.478 245.69 580.384 248.3 Q577.837 251.519 573.431 251.519 Q569.806 251.519 567.525 249.604 Q565.243 247.69 564.915 244.519 Z" fill="#000000" fill-opacity="1.000000"/>
  <path d="M585.806 244.519 L588.931 244.519 Q589.322 246.628 590.447 247.573 Q591.572 248.519 593.322 248.519 Q594.822 248.519 595.947 247.909 Q597.072 247.3 597.798 246.284 Q598.525 245.269 599.009 243.487 Q599.493 241.706 599.493 239.69 Q599.493 239.472 599.478 239.034 Q598.509 240.597 596.814 241.558 Q595.118 242.519 593.15 242.519 Q589.868 242.519 587.587 240.081 Q585.306 237.644 585.306 233.659 Q585.306 229.534 587.681 227.026 Q590.056 224.519 593.634 224.519 Q596.228 224.519 598.368 225.909 Q600.509 227.3 601.618 229.87 Q602.728 232.44 602.728 237.3 Q602.728 242.378 601.626 245.378 Q600.525 248.378 598.345 249.948 Q596.165 251.519 593.243 251.519 Q590.134 251.519 588.165 249.683 Q586.197 247.847 585.806 244.519 ZM599.118 233.581 Q599.118 230.8 597.626 229.159 Q596.134 227.519 594.04 227.519 Q591.868 227.519 590.259 229.284 Q588.65 231.05 588.65 233.847 Q588.65 236.378 590.181 237.948 Q591.712 239.519 593.947 239.519 Q596.212 239.519 597.665 237.948 Q599.118 236.378 599.118 233.581 Z" fill="#000000" fill-opacity="1.000000"/>
  <path d="M609.603 251.519 L606.587 251.519 L606.587 224.519 L609.837 224.519 L609.837 234.425 Q611.9 231.519 615.103 231.519 Q616.868 231.519 618.447 232.229 Q620.025 232.94 621.048 234.229 Q622.072 235.519 622.65 237.339 Q623.228 239.159 623.228 241.237 Q623.228 246.144 620.79 248.831 Q618.353 251.519 614.931 251.519 Q611.54 251.519 609.603 248.331 L609.603 251.519 ZM609.572 241.378 Q609.572 244.659 610.509 246.128 Q612.04 248.519 614.665 248.519 Q616.79 248.519 618.345 246.753 Q619.9 244.987 619.9 241.503 Q619.9 237.925 618.407 236.222 Q616.915 234.519 614.806 234.519 Q612.681 234.519 611.126 236.284 Q609.572 238.05 609.572 241.378 Z" fill="#000000" fill-opacity="1.000000"/>
  <path d="M626.915 251.519 L626.915 224.519 L630.181 224.519 L630.181 251.519 L626.915 251.519 Z" fill="#000000" fill-opacity="1.000000"/>
  <path d="M635.134 251.519 L635.134 231.519 L638.056 231.519 L638.056 234.253 Q640.165 231.519 644.165 231.519 Q645.9 231.519 647.353 232.151 Q648.806 232.784 649.532 233.815 Q650.259 234.847 650.54 236.269 Q650.728 237.19 650.728 239.487 L650.728 251.519 L647.478 251.519 L647.478 239.706 Q647.478 237.706 647.095 236.706 Q646.712 235.706 645.751 235.112 Q644.79 234.519 643.478 234.519 Q641.4 234.519 639.892 235.854 Q638.384 237.19 638.384 240.925 L638.384 251.519 L635.134 251.519 Z" fill="#000000" fill-opacity="1.000000"/>
  <path d="M473.099 173.778 L473.099 170.778 Q470.661 170.465 469.13 169.668 Q467.599 168.872 466.49 167.106 Q465.38 165.34 465.193 162.778 L468.474 162.778 Q468.849 165.043 469.818 166.106 Q471.177 167.606 473.099 167.778 L473.099 158.012 Q471.083 157.543 468.99 156.418 Q467.443 155.606 466.599 154.137 Q465.755 152.668 465.755 150.809 Q465.755 147.512 468.208 145.465 Q469.865 144.09 473.099 143.778 L473.099 142.778 L475.005 142.778 L475.005 143.778 Q477.833 144.075 479.505 145.559 Q481.63 147.465 482.068 150.778 L478.708 150.778 Q478.427 148.997 477.513 148.036 Q476.599 147.075 475.005 146.778 L475.005 155.356 Q477.458 155.918 478.255 156.262 Q479.771 156.903 480.732 157.848 Q481.693 158.793 482.208 160.082 Q482.724 161.372 482.724 162.872 Q482.724 166.184 480.575 168.403 Q478.427 170.622 475.005 170.778 L475.005 173.778 L473.099 173.778 ZM473.099 146.778 Q471.193 147.043 470.099 148.168 Q469.005 149.293 469.005 150.825 Q469.005 152.356 469.935 153.379 Q470.865 154.403 473.099 154.918 L473.099 146.778 ZM475.005 167.778 Q476.896 167.543 478.138 166.184 Q479.38 164.825 479.38 162.825 Q479.38 161.122 478.505 160.082 Q477.63 159.043 475.005 158.45 L475.005 167.778 Z" fill="#000000" fill-opacity="1.000000"/>
  <path d="M498.052 170.778 L494.802 170.778 L494.802 149.747 Q493.63 150.887 491.724 152.02 Q489.818 153.153 488.302 153.715 L488.302 150.528 Q491.036 149.231 493.075 147.379 Q495.115 145.528 495.958 143.778 L498.052 143.778 L498.052 170.778 Z" fill="#000000" fill-opacity="1.000000"/>
  <path d="M508.021 170.778 L508.021 167.778 L511.724 167.778 L511.724 170.778 L508.021 170.778 Z" fill="#000000" fill-opacity="1.000000"/>
  <path d="M521.396 156.184 Q519.365 155.434 518.388 154.043 Q517.411 152.653 517.411 150.7 Q517.411 147.778 519.49 145.778 Q521.568 143.778 525.021 143.778 Q528.49 143.778 530.607 145.825 Q532.724 147.872 532.724 150.793 Q532.724 152.668 531.755 154.051 Q530.786 155.434 528.818 156.184 Q531.255 156.965 532.529 158.707 Q533.802 160.45 533.802 162.872 Q533.802 166.215 531.396 168.497 Q528.99 170.778 525.068 170.778 Q521.161 170.778 518.755 168.489 Q516.349 166.2 516.349 162.793 Q516.349 160.247 517.661 158.528 Q518.974 156.809 521.396 156.184 ZM520.74 150.668 Q520.74 152.481 521.95 153.629 Q523.161 154.778 525.099 154.778 Q526.974 154.778 528.177 153.637 Q529.38 152.497 529.38 150.84 Q529.38 149.122 528.146 147.95 Q526.911 146.778 525.068 146.778 Q523.193 146.778 521.966 147.926 Q520.74 149.075 520.74 150.668 ZM519.693 162.731 Q519.693 164.028 520.349 165.239 Q521.005 166.45 522.31 167.114 Q523.615 167.778 525.115 167.778 Q527.443 167.778 528.958 166.379 Q530.474 164.981 530.474 162.825 Q530.474 160.637 528.911 159.207 Q527.349 157.778 525.005 157.778 Q522.708 157.778 521.2 159.192 Q519.693 160.606 519.693 162.731 Z" fill="#000000" fill-opacity="1.000000"/>
  <path d="M536.771 163.778 L540.193 163.778 Q540.568 165.778 541.95 166.778 Q543.333 167.778 545.286 167.778 Q547.63 167.778 549.255 166.075 Q550.88 164.372 550.88 161.559 Q550.88 158.872 549.318 157.325 Q547.755 155.778 545.224 155.778 Q543.661 155.778 542.396 156.332 Q541.13 156.887 540.411 157.778 L537.349 157.778 L539.911 143.778 L553.083 143.778 L553.083 146.778 L542.521 146.778 L541.099 154.512 Q543.49 152.778 546.099 152.778 Q549.568 152.778 551.95 155.176 Q554.333 157.575 554.333 161.356 Q554.333 164.95 552.24 167.559 Q549.693 170.778 545.286 170.778 Q541.661 170.778 539.38 168.864 Q537.099 166.95 536.771 163.778 Z" fill="#000000" fill-opacity="1.000000"/>
  <path d="M562.177 156.184 Q560.146 155.434 559.169 154.043 Q558.193 152.653 558.193 150.7 Q558.193 147.778 560.271 145.778 Q562.349 143.778 565.802 143.778 Q569.271 143.778 571.388 145.825 Q573.505 147.872 573.505 150.793 Q573.505 152.668 572.536 154.051 Q571.568 155.434 569.599 156.184 Q572.036 156.965 573.31 158.707 Q574.583 160.45 574.583 162.872 Q574.583 166.215 572.177 168.497 Q569.771 170.778 565.849 170.778 Q561.943 170.778 559.536 168.489 Q557.13 166.2 557.13 162.793 Q557.13 160.247 558.443 158.528 Q559.755 156.809 562.177 156.184 ZM561.521 150.668 Q561.521 152.481 562.732 153.629 Q563.943 154.778 565.88 154.778 Q567.755 154.778 568.958 153.637 Q570.161 152.497 570.161 150.84 Q570.161 149.122 568.927 147.95 Q567.693 146.778 565.849 146.778 Q563.974 146.778 562.747 147.926 Q561.521 149.075 561.521 150.668 ZM560.474 162.731 Q560.474 164.028 561.13 165.239 Q561.786 166.45 563.091 167.114 Q564.396 167.778 565.896 167.778 Q568.224 167.778 569.74 166.379 Q571.255 164.981 571.255 162.825 Q571.255 160.637 569.693 159.207 Q568.13 157.778 565.786 157.778 Q563.49 157.778 561.982 159.192 Q560.474 160.606 560.474 162.731 Z" fill="#000000" fill-opacity="1.000000"/>
  <path d="M581.458 170.778 L578.443 170.778 L578.443 143.778 L581.693 143.778 L581.693 153.684 Q583.755 150.778 586.958 150.778 Q588.724 150.778 590.302 151.489 Q591.88 152.2 592.904 153.489 Q593.927 154.778 594.505 156.598 Q595.083 158.418 595.083 160.497 Q595.083 165.403 592.646 168.09 Q590.208 170.778 586.786 170.778 Q583.396 170.778 581.458 167.59 L581.458 170.778 ZM581.427 160.637 Q581.427 163.918 582.365 165.387 Q583.896 167.778 586.521 167.778 Q588.646 167.778 590.2 166.012 Q591.755 164.247 591.755 160.762 Q591.755 157.184 590.263 155.481 Q588.771 153.778 586.661 153.778 Q584.536 153.778 582.982 155.543 Q581.427 157.309 581.427 160.637 Z" fill="#000000" fill-opacity="1.000000"/>
  <path d="M598.771 170.778 L598.771 143.778 L602.036 143.778 L602.036 170.778 L598.771 170.778 Z" fill="#000000" fill-opacity="1.000000"/>
  <path d="M606.99 170.778 L606.99 150.778 L609.911 150.778 L609.911 153.512 Q612.021 150.778 616.021 150.778 Q617.755 150.778 619.208 151.411 Q620.661 152.043 621.388 153.075 Q622.115 154.106 622.396 155.528 Q622.583 156.45 622.583 158.747 L622.583 170.778 L619.333 170.778 L619.333 158.965 Q619.333 156.965 618.95 155.965 Q618.568 154.965 617.607 154.372 Q616.646 153.778 615.333 153.778 Q613.255 153.778 611.747 155.114 Q610.24 156.45 610.24 160.184 L610.24 170.778 L606.99 170.778 Z" fill="#000000" fill-opacity="1.000000"/>
  <path d="M468.677 93.037 L468.677 90.037 Q466.24 89.7245 464.708 88.9277 Q463.177 88.1308 462.068 86.3652 Q460.958 84.5995 460.771 82.037 L464.052 82.037 Q464.427 84.3027 465.396 85.3652 Q466.755 86.8652 468.677 87.037 L468.677 77.2714 Q466.662 76.8027 464.568 75.6777 Q463.021 74.8652 462.177 73.3964 Q461.333 71.9277 461.333 70.0683 Q461.333 66.7714 463.787 64.7245 Q465.443 63.3495 468.677 63.037 L468.677 62.037 L470.583 62.037 L470.583 63.037 Q473.412 63.3339 475.083 64.8183 Q477.208 66.7245 477.646 70.037 L474.287 70.037 Q474.005 68.2558 473.091 67.2948 Q472.177 66.3339 470.583 66.037 L470.583 74.6152 Q473.037 75.1777 473.833 75.5214 Q475.349 76.162 476.31 77.1073 Q477.271 78.0527 477.787 79.3417 Q478.302 80.6308 478.302 82.1308 Q478.302 85.4433 476.154 87.662 Q474.005 89.8808 470.583 90.037 L470.583 93.037 L468.677 93.037 ZM468.677 66.037 Q466.771 66.3027 465.677 67.4277 Q464.583 68.5527 464.583 70.0839 Q464.583 71.6152 465.513 72.6386 Q466.443 73.662 468.677 74.1777 L468.677 66.037 ZM470.583 87.037 Q472.474 86.8027 473.716 85.4433 Q474.958 84.0839 474.958 82.0839 Q474.958 80.3808 474.083 79.3417 Q473.208 78.3027 470.583 77.7089 L470.583 87.037 Z" fill="#000000" fill-opacity="1.000000"/>
  <path d="M493.63 90.037 L490.38 90.037 L490.38 69.0058 Q489.208 70.1464 487.302 71.2792 Q485.396 72.412 483.88 72.9745 L483.88 69.787 Q486.615 68.4902 488.654 66.6386 Q490.693 64.787 491.537 63.037 L493.63 63.037 L493.63 90.037 Z" fill="#000000" fill-opacity="1.000000"/>
  <path d="M503.599 90.037 L503.599 87.037 L507.302 87.037 L507.302 90.037 L503.599 90.037 Z" fill="#000000" fill-opacity="1.000000"/>
  <path d="M512.177 66.037 L512.177 63.037 L529.318 63.037 L529.318 65.4589 Q526.802 68.2245 524.318 72.8808 Q521.833 77.537 520.474 82.4433 Q519.49 85.912 519.224 90.037 L515.88 90.037 Q515.927 86.7714 517.107 82.162 Q518.287 77.5527 520.482 73.2636 Q522.677 68.9745 525.146 66.037 L512.177 66.037 Z" fill="#000000" fill-opacity="1.000000"/>
  <path d="M532.849 83.037 L535.974 83.037 Q536.365 85.1464 537.49 86.0917 Q538.615 87.037 540.365 87.037 Q541.865 87.037 542.99 86.4277 Q544.115 85.8183 544.841 84.8027 Q545.568 83.787 546.052 82.0058 Q546.537 80.2245 546.537 78.2089 Q546.537 77.9902 546.521 77.5527 Q545.552 79.1152 543.857 80.0761 Q542.162 81.037 540.193 81.037 Q536.912 81.037 534.63 78.5995 Q532.349 76.162 532.349 72.1777 Q532.349 68.0527 534.724 65.5448 Q537.099 63.037 540.677 63.037 Q543.271 63.037 545.412 64.4277 Q547.552 65.8183 548.662 68.3886 Q549.771 70.9589 549.771 75.8183 Q549.771 80.8964 548.669 83.8964 Q547.568 86.8964 545.388 88.4667 Q543.208 90.037 540.287 90.037 Q537.177 90.037 535.208 88.2011 Q533.24 86.3652 532.849 83.037 ZM546.162 72.0995 Q546.162 69.3183 544.669 67.6777 Q543.177 66.037 541.083 66.037 Q538.912 66.037 537.302 67.8027 Q535.693 69.5683 535.693 72.3652 Q535.693 74.8964 537.224 76.4667 Q538.755 78.037 540.99 78.037 Q543.255 78.037 544.708 76.4667 Q546.162 74.8964 546.162 72.0995 Z" fill="#000000" fill-opacity="1.000000"/>
  <path d="M552.74 83.037 L556.162 83.037 Q556.537 85.037 557.919 86.037 Q559.302 87.037 561.255 87.037 Q563.599 87.037 565.224 85.3339 Q566.849 83.6308 566.849 80.8183 Q566.849 78.1308 565.287 76.5839 Q563.724 75.037 561.193 75.037 Q559.63 75.037 558.365 75.5917 Q557.099 76.1464 556.38 77.037 L553.318 77.037 L555.88 63.037 L569.052 63.037 L569.052 66.037 L558.49 66.037 L557.068 73.7714 Q559.458 72.037 562.068 72.037 Q565.537 72.037 567.919 74.4355 Q570.302 76.8339 570.302 80.6152 Q570.302 84.2089 568.208 86.8183 Q565.662 90.037 561.255 90.037 Q557.63 90.037 555.349 88.123 Q553.068 86.2089 552.74 83.037 Z" fill="#000000" fill-opacity="1.000000"/>
  <path d="M577.037 90.037 L574.021 90.037 L574.021 63.037 L577.271 63.037 L577.271 72.9433 Q579.333 70.037 582.537 70.037 Q584.302 70.037 585.88 70.748 Q587.458 71.4589 588.482 72.748 Q589.505 74.037 590.083 75.8573 Q590.662 77.6777 590.662 79.7558 Q590.662 84.662 588.224 87.3495 Q585.787 90.037 582.365 90.037 Q578.974 90.037 577.037 86.8495 L577.037 90.037 ZM577.005 79.8964 Q577.005 83.1777 577.943 84.6464 Q579.474 87.037 582.099 87.037 Q584.224 87.037 585.779 85.2714 Q587.333 83.5058 587.333 80.0214 Q587.333 76.4433 585.841 74.7402 Q584.349 73.037 582.24 73.037 Q580.115 73.037 578.56 74.8027 Q577.005 76.5683 577.005 79.8964 Z" fill="#000000" fill-opacity="1.000000"/>
  <path d="M594.349 90.037 L594.349 63.037 L597.615 63.037 L597.615 90.037 L594.349 90.037 Z" fill="#000000" fill-opacity="1.000000"/>
  <path d="M602.568 90.037 L602.568 70.037 L605.49 70.037 L605.49 72.7714 Q607.599 70.037 611.599 70.037 Q613.333 70.037 614.787 70.6698 Q616.24 71.3027 616.966 72.3339 Q617.693 73.3652 617.974 74.787 Q618.162 75.7089 618.162 78.0058 L618.162 90.037 L614.912 90.037 L614.912 78.2245 Q614.912 76.2245 614.529 75.2245 Q614.146 74.2245 613.185 73.6308 Q612.224 73.037 610.912 73.037 Q608.833 73.037 607.326 74.373 Q605.818 75.7089 605.818 79.4433 L605.818 90.037 L602.568 90.037 Z" fill="#000000" fill-opacity="1.000000"/>
</svg>