<?xml version="1.0" encoding="UTF-8" ?>
<!-- Generated by clip v0.8.0 (clip-lang.org) -->
<svg xmlns="http://www.w3.org/2000/svg" width="960" height="280">
  <rect width="960" height="280" fill="#ffffff" fill-opacity="1"/>
  <path d="M14.667 235.600 L945.333 235.600" fill="none" stroke="#000000" stroke-width="1.333"/>
  <path d="M86.256 235.600 L86.256 230.267" fill="none" stroke="#000000" stroke-width="1.333"/>
  <path d="M157.846 235.600 L157.846 230.267" fill="none" stroke="#000000" stroke-width="1.333"/>
  <path d="M229.436 235.600 L229.436 230.267" fill="none" stroke="#000000" stroke-width="1.333"/>
  <path d="M301.026 235.600 L301.026 230.267" fill="none" stroke="#000000" stroke-width="1.333"/>
  <path d="M372.615 235.600 L372.615 230.267" fill="none" stroke="#000000" stroke-width="1.333"/>
  <path d="M444.205 235.600 L444.205 230.267" fill="none" stroke="#000000" stroke-width="1.333"/>
  <path d="M515.795 235.600 L515.795 230.267" fill="none" stroke="#000000" stroke-width="1.333"/>
  <path d="M587.385 235.600 L587.385 230.267" fill="none" stroke="#000000" stroke-width="1.333"/>
  <path d="M658.974 235.600 L658.974 230.267" fill="none" stroke="#000000" stroke-width="1.333"/>
  <path d="M730.564 235.600 L730.564 230.267" fill="none" stroke="#000000" stroke-width="1.333"/>
  <path d="M802.154 235.600 L802.154 230.267" fill="none" stroke="#000000" stroke-width="1.333"/>
  <path d="M873.744 235.600 L873.744 230.267" fill="none" stroke="#000000" stroke-width="1.333"/>
  <path d="M74.866 258.490 L76.147 258.333 Q76.194 259.490 76.608 259.911 Q77.022 260.333 77.741 260.333 Q78.288 260.333 78.670 260.076 Q79.053 259.818 79.202 259.388 Q79.350 258.958 79.350 257.990 L79.350 250.333 L80.756 250.333 L80.756 257.708 Q80.756 259.068 80.428 259.810 Q80.100 260.552 79.397 260.943 Q78.694 261.333 77.741 261.333 Q76.335 261.333 75.585 260.615 Q74.835 259.896 74.866 258.490 Z"/>
  <path d="M87.835 260.333 Q87.100 260.880 86.420 261.107 Q85.741 261.333 84.975 261.333 Q83.694 261.333 83.006 260.724 Q82.319 260.115 82.319 259.161 Q82.319 258.599 82.577 258.138 Q82.835 257.677 83.256 257.396 Q83.678 257.115 84.210 256.974 Q84.600 256.865 85.381 256.771 Q86.975 256.599 87.725 256.333 Q87.741 256.052 87.741 255.974 Q87.741 255.146 87.366 254.802 Q86.866 254.333 85.866 254.333 Q84.928 254.333 84.491 254.552 Q84.053 254.771 83.835 255.333 L82.538 255.333 Q82.710 254.646 83.116 254.216 Q83.522 253.786 84.280 253.560 Q85.038 253.333 86.038 253.333 Q87.038 253.333 87.663 253.529 Q88.288 253.724 88.577 254.029 Q88.866 254.333 88.991 254.786 Q89.053 255.068 89.053 255.974 L89.053 257.802 Q89.053 259.708 89.139 260.263 Q89.225 260.818 89.475 261.333 L88.100 261.333 Q87.897 260.911 87.835 260.333 Z M87.725 257.333 Q87.006 257.615 85.569 257.818 Q84.756 257.943 84.420 258.083 Q84.085 258.224 83.905 258.505 Q83.725 258.786 83.725 259.115 Q83.725 259.646 84.124 259.990 Q84.522 260.333 85.288 260.333 Q86.053 260.333 86.647 259.966 Q87.241 259.599 87.522 259.052 Q87.725 258.630 87.725 257.786 L87.725 257.333 Z"/>
  <path d="M90.913 261.333 L90.913 253.333 L92.100 253.333 L92.100 254.443 Q92.960 253.333 94.585 253.333 Q95.288 253.333 95.874 253.591 Q96.460 253.849 96.756 254.255 Q97.053 254.661 97.163 255.240 Q97.241 255.599 97.241 256.521 L97.241 261.333 L95.913 261.333 L95.913 256.474 Q95.913 255.646 95.756 255.232 Q95.600 254.818 95.210 254.576 Q94.819 254.333 94.303 254.333 Q93.460 254.333 92.850 254.880 Q92.241 255.427 92.241 256.958 L92.241 261.333 L90.913 261.333 Z"/>
  <path d="M146.440 261.333 L146.440 250.333 L153.674 250.333 L153.674 251.333 L147.862 251.333 L147.862 255.333 L152.893 255.333 L152.893 256.333 L147.862 256.333 L147.862 261.333 L146.440 261.333 Z"/>
  <path d="M160.487 259.333 L161.846 259.333 Q161.518 260.286 160.651 260.810 Q159.784 261.333 158.424 261.333 Q156.721 261.333 155.721 260.302 Q154.721 259.271 154.721 257.396 Q154.721 255.474 155.729 254.404 Q156.737 253.333 158.362 253.333 Q159.909 253.333 160.901 254.302 Q161.893 255.271 161.893 257.021 Q161.893 257.115 161.893 257.333 L156.081 257.333 Q156.159 258.786 156.807 259.560 Q157.456 260.333 158.440 260.333 Q159.159 260.333 159.674 260.091 Q160.190 259.849 160.487 259.333 Z M156.159 256.333 L160.502 256.333 Q160.409 255.458 160.002 255.021 Q159.377 254.333 158.377 254.333 Q157.456 254.333 156.838 254.880 Q156.221 255.427 156.159 256.333 Z"/>
  <path d="M164.534 261.333 L163.315 261.333 L163.315 250.333 L164.627 250.333 L164.627 254.302 Q165.471 253.333 166.768 253.333 Q167.487 253.333 168.127 253.615 Q168.768 253.896 169.182 254.411 Q169.596 254.927 169.831 255.661 Q170.065 256.396 170.065 257.224 Q170.065 259.193 169.073 260.263 Q168.081 261.333 166.706 261.333 Q165.315 261.333 164.534 260.271 L164.534 261.333 Z M164.518 257.271 Q164.518 258.677 164.893 259.302 Q165.518 260.333 166.581 260.333 Q167.440 260.333 168.073 259.576 Q168.706 258.818 168.706 257.333 Q168.706 255.786 168.104 255.060 Q167.502 254.333 166.643 254.333 Q165.784 254.333 165.151 255.091 Q164.518 255.849 164.518 257.271 Z"/>
  <path d="M217.912 261.333 L217.912 250.333 L220.053 250.333 L222.600 257.927 Q222.959 258.990 223.116 259.521 Q223.303 258.943 223.694 257.802 L226.256 250.333 L228.162 250.333 L228.162 261.333 L226.787 261.333 L226.787 251.333 L223.678 261.333 L222.397 261.333 L219.287 251.333 L219.287 261.333 L217.912 261.333 Z"/>
  <path d="M235.084 260.333 Q234.350 260.880 233.670 261.107 Q232.991 261.333 232.225 261.333 Q230.944 261.333 230.256 260.724 Q229.569 260.115 229.569 259.161 Q229.569 258.599 229.827 258.138 Q230.084 257.677 230.506 257.396 Q230.928 257.115 231.459 256.974 Q231.850 256.865 232.631 256.771 Q234.225 256.599 234.975 256.333 Q234.991 256.052 234.991 255.974 Q234.991 255.146 234.616 254.802 Q234.116 254.333 233.116 254.333 Q232.178 254.333 231.741 254.552 Q231.303 254.771 231.084 255.333 L229.787 255.333 Q229.959 254.646 230.366 254.216 Q230.772 253.786 231.530 253.560 Q232.287 253.333 233.287 253.333 Q234.287 253.333 234.912 253.529 Q235.537 253.724 235.827 254.029 Q236.116 254.333 236.241 254.786 Q236.303 255.068 236.303 255.974 L236.303 257.802 Q236.303 259.708 236.389 260.263 Q236.475 260.818 236.725 261.333 L235.350 261.333 Q235.147 260.911 235.084 260.333 Z M234.975 257.333 Q234.256 257.615 232.819 257.818 Q232.006 257.943 231.670 258.083 Q231.334 258.224 231.155 258.505 Q230.975 258.786 230.975 259.115 Q230.975 259.646 231.373 259.990 Q231.772 260.333 232.537 260.333 Q233.303 260.333 233.897 259.966 Q234.491 259.599 234.772 259.052 Q234.975 258.630 234.975 257.786 L234.975 257.333 Z"/>
  <path d="M238.147 261.333 L238.147 253.333 L239.334 253.333 L239.334 254.333 Q239.787 253.724 240.170 253.529 Q240.553 253.333 241.022 253.333 Q241.694 253.333 242.381 253.536 L241.928 254.755 Q241.444 254.333 240.959 254.333 Q240.522 254.333 240.178 254.607 Q239.834 254.880 239.694 255.365 Q239.475 256.115 239.475 257.005 L239.475 261.333 L238.147 261.333 Z"/>
  <path d="M289.596 261.333 L293.721 250.333 L295.237 250.333 L299.643 261.333 L298.018 261.333 L296.768 258.333 L292.283 258.333 L291.096 261.333 L289.596 261.333 Z M292.690 257.333 L296.330 257.333 L295.205 253.896 Q294.690 252.536 294.440 251.333 Q294.237 252.677 293.862 253.708 L292.690 257.333 Z"/>
  <path d="M300.377 264.333 L300.377 253.333 L301.580 253.333 L301.580 254.490 Q302.002 253.911 302.541 253.622 Q303.080 253.333 303.830 253.333 Q304.830 253.333 305.588 253.841 Q306.346 254.349 306.737 255.263 Q307.127 256.177 307.127 257.271 Q307.127 258.443 306.698 259.388 Q306.268 260.333 305.455 260.833 Q304.643 261.333 303.737 261.333 Q303.080 261.333 302.565 261.076 Q302.049 260.818 301.705 260.427 L301.705 264.333 L300.377 264.333 Z M301.580 257.396 Q301.580 258.896 302.190 259.615 Q302.799 260.333 303.658 260.333 Q304.533 260.333 305.158 259.591 Q305.783 258.849 305.783 257.286 Q305.783 255.802 305.174 255.068 Q304.565 254.333 303.721 254.333 Q302.877 254.333 302.229 255.122 Q301.580 255.911 301.580 257.396 Z"/>
  <path d="M308.518 261.333 L308.518 253.333 L309.705 253.333 L309.705 254.333 Q310.158 253.724 310.541 253.529 Q310.924 253.333 311.393 253.333 Q312.065 253.333 312.752 253.536 L312.299 254.755 Q311.815 254.333 311.330 254.333 Q310.893 254.333 310.549 254.607 Q310.205 254.880 310.065 255.365 Q309.846 256.115 309.846 257.005 L309.846 261.333 L308.518 261.333 Z"/>
  <path d="M359.865 261.333 L359.865 250.333 L362.006 250.333 L364.553 257.927 Q364.912 258.990 365.069 259.521 Q365.256 258.943 365.647 257.802 L368.209 250.333 L370.115 250.333 L370.115 261.333 L368.740 261.333 L368.740 251.333 L365.631 261.333 L364.350 261.333 L361.240 251.333 L361.240 261.333 L359.865 261.333 Z"/>
  <path d="M377.037 260.333 Q376.303 260.880 375.623 261.107 Q374.944 261.333 374.178 261.333 Q372.897 261.333 372.209 260.724 Q371.522 260.115 371.522 259.161 Q371.522 258.599 371.779 258.138 Q372.037 257.677 372.459 257.396 Q372.881 257.115 373.412 256.974 Q373.803 256.865 374.584 256.771 Q376.178 256.599 376.928 256.333 Q376.944 256.052 376.944 255.974 Q376.944 255.146 376.569 254.802 Q376.069 254.333 375.069 254.333 Q374.131 254.333 373.694 254.552 Q373.256 254.771 373.037 255.333 L371.740 255.333 Q371.912 254.646 372.319 254.216 Q372.725 253.786 373.483 253.560 Q374.240 253.333 375.240 253.333 Q376.240 253.333 376.865 253.529 Q377.490 253.724 377.779 254.029 Q378.069 254.333 378.194 254.786 Q378.256 255.068 378.256 255.974 L378.256 257.802 Q378.256 259.708 378.342 260.263 Q378.428 260.818 378.678 261.333 L377.303 261.333 Q377.100 260.911 377.037 260.333 Z M376.928 257.333 Q376.209 257.615 374.772 257.818 Q373.959 257.943 373.623 258.083 Q373.287 258.224 373.108 258.505 Q372.928 258.786 372.928 259.115 Q372.928 259.646 373.326 259.990 Q373.725 260.333 374.490 260.333 Q375.256 260.333 375.850 259.966 Q376.444 259.599 376.725 259.052 Q376.928 258.630 376.928 257.786 L376.928 257.333 Z"/>
  <path d="M380.069 264.208 L379.912 263.224 Q380.350 263.333 380.662 263.333 Q381.100 263.333 381.365 263.185 Q381.631 263.036 381.803 262.755 Q381.928 262.552 382.209 261.740 Q382.240 261.630 382.319 261.411 L379.365 253.333 L380.787 253.333 L382.412 257.755 Q382.725 258.599 382.975 259.521 Q383.209 258.943 383.522 258.068 L385.178 253.333 L386.506 253.333 L383.537 261.474 Q383.069 262.693 382.803 263.146 Q382.444 263.755 381.990 264.044 Q381.537 264.333 380.912 264.333 Q380.537 264.333 380.069 264.208 Z"/>
  <path d="M432.815 258.490 L434.096 258.333 Q434.143 259.490 434.557 259.911 Q434.971 260.333 435.690 260.333 Q436.236 260.333 436.619 260.076 Q437.002 259.818 437.150 259.388 Q437.299 258.958 437.299 257.990 L437.299 250.333 L438.705 250.333 L438.705 257.708 Q438.705 259.068 438.377 259.810 Q438.049 260.552 437.346 260.943 Q436.643 261.333 435.690 261.333 Q434.283 261.333 433.533 260.615 Q432.783 259.896 432.815 258.490 Z"/>
  <path d="M445.815 261.333 L445.815 260.146 Q444.908 261.333 443.346 261.333 Q442.643 261.333 442.049 261.068 Q441.455 260.802 441.166 260.404 Q440.877 260.005 440.752 259.411 Q440.674 259.021 440.674 258.177 L440.674 253.333 L442.002 253.333 L442.002 257.755 Q442.002 258.818 442.080 259.193 Q442.205 259.724 442.611 260.029 Q443.018 260.333 443.611 260.333 Q444.190 260.333 444.713 260.021 Q445.236 259.708 445.455 259.169 Q445.674 258.630 445.674 257.615 L445.674 253.333 L446.986 253.333 L446.986 261.333 L445.815 261.333 Z"/>
  <path d="M448.861 261.333 L448.861 253.333 L450.049 253.333 L450.049 254.443 Q450.908 253.333 452.533 253.333 Q453.236 253.333 453.822 253.591 Q454.408 253.849 454.705 254.255 Q455.002 254.661 455.111 255.240 Q455.190 255.599 455.190 256.521 L455.190 261.333 L453.861 261.333 L453.861 256.474 Q453.861 255.646 453.705 255.232 Q453.549 254.818 453.158 254.576 Q452.768 254.333 452.252 254.333 Q451.408 254.333 450.799 254.880 Q450.190 255.427 450.190 256.958 L450.190 261.333 L448.861 261.333 Z"/>
  <path d="M506.850 258.490 L508.131 258.333 Q508.178 259.490 508.592 259.911 Q509.006 260.333 509.725 260.333 Q510.271 260.333 510.654 260.076 Q511.037 259.818 511.185 259.388 Q511.334 258.958 511.334 257.990 L511.334 250.333 L512.740 250.333 L512.740 257.708 Q512.740 259.068 512.412 259.810 Q512.084 260.552 511.381 260.943 Q510.678 261.333 509.725 261.333 Q508.318 261.333 507.568 260.615 Q506.818 259.896 506.850 258.490 Z"/>
  <path d="M519.850 261.333 L519.850 260.146 Q518.943 261.333 517.381 261.333 Q516.678 261.333 516.084 261.068 Q515.490 260.802 515.201 260.404 Q514.912 260.005 514.787 259.411 Q514.709 259.021 514.709 258.177 L514.709 253.333 L516.037 253.333 L516.037 257.755 Q516.037 258.818 516.115 259.193 Q516.240 259.724 516.646 260.029 Q517.053 260.333 517.646 260.333 Q518.225 260.333 518.748 260.021 Q519.271 259.708 519.490 259.169 Q519.709 258.630 519.709 257.615 L519.709 253.333 L521.021 253.333 L521.021 261.333 L519.850 261.333 Z"/>
  <path d="M522.865 261.333 L522.865 250.333 L524.193 250.333 L524.193 261.333 L522.865 261.333 Z"/>
  <path d="M574.322 261.333 L578.447 250.333 L579.963 250.333 L584.369 261.333 L582.744 261.333 L581.494 258.333 L577.010 258.333 L575.822 261.333 L574.322 261.333 Z M577.416 257.333 L581.056 257.333 L579.931 253.896 Q579.416 252.536 579.166 251.333 Q578.963 252.677 578.588 253.708 L577.416 257.333 Z"/>
  <path d="M590.213 261.333 L590.213 260.146 Q589.306 261.333 587.744 261.333 Q587.041 261.333 586.447 261.068 Q585.853 260.802 585.564 260.404 Q585.275 260.005 585.150 259.411 Q585.072 259.021 585.072 258.177 L585.072 253.333 L586.400 253.333 L586.400 257.755 Q586.400 258.818 586.478 259.193 Q586.603 259.724 587.010 260.029 Q587.416 260.333 588.010 260.333 Q588.588 260.333 589.111 260.021 Q589.635 259.708 589.853 259.169 Q590.072 258.630 590.072 257.615 L590.072 253.333 L591.385 253.333 L591.385 261.333 L590.213 261.333 Z"/>
  <path d="M593.025 262.333 L594.306 262.333 Q594.385 262.818 594.760 263.036 Q595.244 263.333 596.088 263.333 Q597.010 263.333 597.510 262.974 Q598.010 262.615 598.181 261.974 Q598.275 261.583 598.275 260.333 Q597.416 261.333 596.119 261.333 Q594.525 261.333 593.642 260.169 Q592.760 259.005 592.760 257.380 Q592.760 256.255 593.166 255.310 Q593.572 254.365 594.338 253.849 Q595.103 253.333 596.135 253.333 Q597.510 253.333 598.400 254.333 L598.400 253.333 L599.619 253.333 L599.619 260.099 Q599.619 261.927 599.252 262.685 Q598.885 263.443 598.080 263.888 Q597.275 264.333 596.103 264.333 Q594.713 264.333 593.853 263.833 Q592.994 263.333 593.025 262.333 Z M594.119 257.286 Q594.119 258.865 594.728 259.599 Q595.338 260.333 596.244 260.333 Q597.150 260.333 597.767 259.607 Q598.385 258.880 598.385 257.333 Q598.385 255.833 597.752 255.083 Q597.119 254.333 596.228 254.333 Q595.353 254.333 594.736 255.076 Q594.119 255.818 594.119 257.286 Z"/>
  <path d="M646.599 258.333 L647.943 258.333 Q648.037 258.990 648.388 259.404 Q648.740 259.818 649.474 260.076 Q650.209 260.333 651.115 260.333 Q651.927 260.333 652.552 260.138 Q653.177 259.943 653.482 259.599 Q653.787 259.255 653.787 258.646 Q653.787 258.021 653.490 257.560 Q653.193 257.099 652.521 256.818 Q652.084 256.646 650.607 256.279 Q649.131 255.911 648.537 255.599 Q647.756 255.193 647.381 254.599 Q647.006 254.005 647.006 253.271 Q647.006 252.474 647.467 251.771 Q647.927 251.068 648.818 250.701 Q649.709 250.333 650.787 250.333 Q651.990 250.333 652.904 250.693 Q653.818 251.052 654.310 251.747 Q654.802 252.443 654.834 253.333 L653.459 253.333 Q653.349 252.349 652.717 251.841 Q652.084 251.333 650.849 251.333 Q649.552 251.333 648.967 251.826 Q648.381 252.318 648.381 253.021 Q648.381 253.630 648.802 254.021 Q649.209 254.411 650.943 254.826 Q652.677 255.240 653.318 255.536 Q654.256 255.958 654.701 256.615 Q655.146 257.271 655.146 258.130 Q655.146 258.990 654.654 259.740 Q654.162 260.490 653.248 260.911 Q652.334 261.333 651.177 261.333 Q649.724 261.333 648.740 260.982 Q647.756 260.630 647.193 259.927 Q646.631 259.224 646.599 258.333 Z"/>
  <path d="M662.021 259.333 L663.381 259.333 Q663.052 260.286 662.185 260.810 Q661.318 261.333 659.959 261.333 Q658.256 261.333 657.256 260.302 Q656.256 259.271 656.256 257.396 Q656.256 255.474 657.263 254.404 Q658.271 253.333 659.896 253.333 Q661.443 253.333 662.435 254.302 Q663.427 255.271 663.427 257.021 Q663.427 257.115 663.427 257.333 L657.615 257.333 Q657.693 258.786 658.342 259.560 Q658.990 260.333 659.974 260.333 Q660.693 260.333 661.209 260.091 Q661.724 259.849 662.021 259.333 Z M657.693 256.333 L662.037 256.333 Q661.943 255.458 661.537 255.021 Q660.912 254.333 659.912 254.333 Q658.990 254.333 658.373 254.880 Q657.756 255.427 657.693 256.333 Z"/>
  <path d="M664.849 264.333 L664.849 253.333 L666.052 253.333 L666.052 254.490 Q666.474 253.911 667.013 253.622 Q667.552 253.333 668.302 253.333 Q669.302 253.333 670.060 253.841 Q670.818 254.349 671.209 255.263 Q671.599 256.177 671.599 257.271 Q671.599 258.443 671.170 259.388 Q670.740 260.333 669.927 260.833 Q669.115 261.333 668.209 261.333 Q667.552 261.333 667.037 261.076 Q666.521 260.818 666.177 260.427 L666.177 264.333 L664.849 264.333 Z M666.052 257.396 Q666.052 258.896 666.662 259.615 Q667.271 260.333 668.131 260.333 Q669.006 260.333 669.631 259.591 Q670.256 258.849 670.256 257.286 Q670.256 255.802 669.646 255.068 Q669.037 254.333 668.193 254.333 Q667.349 254.333 666.701 255.122 Q666.052 255.911 666.052 257.396 Z"/>
  <path d="M719.869 255.974 Q719.869 253.333 721.306 251.833 Q722.744 250.333 725.009 250.333 Q726.509 250.333 727.705 251.036 Q728.900 251.740 729.525 252.997 Q730.150 254.255 730.150 255.849 Q730.150 257.474 729.494 258.747 Q728.838 260.021 727.627 260.677 Q726.416 261.333 725.009 261.333 Q723.494 261.333 722.298 260.607 Q721.103 259.880 720.486 258.630 Q719.869 257.380 719.869 255.974 Z M721.338 256.005 Q721.338 258.021 722.384 259.177 Q723.431 260.333 725.009 260.333 Q726.603 260.333 727.642 259.161 Q728.681 257.990 728.681 255.833 Q728.681 254.474 728.236 253.466 Q727.791 252.458 726.939 251.896 Q726.088 251.333 725.025 251.333 Q723.509 251.333 722.423 252.411 Q721.338 253.490 721.338 256.005 Z"/>
  <path d="M736.619 259.333 L737.916 259.333 Q737.697 260.271 736.830 260.802 Q735.963 261.333 734.681 261.333 Q733.088 261.333 732.119 260.310 Q731.150 259.286 731.150 257.365 Q731.150 256.130 731.564 255.201 Q731.978 254.271 732.830 253.802 Q733.681 253.333 734.697 253.333 Q735.963 253.333 736.759 253.857 Q737.556 254.380 737.791 255.333 L736.509 255.333 Q736.322 254.833 735.861 254.583 Q735.400 254.333 734.744 254.333 Q733.744 254.333 733.119 255.052 Q732.494 255.771 732.494 257.333 Q732.494 258.896 733.095 259.615 Q733.697 260.333 734.666 260.333 Q735.447 260.333 735.963 260.091 Q736.478 259.849 736.619 259.333 Z"/>
  <path d="M741.775 260.068 L741.963 261.240 Q741.400 261.333 740.963 261.333 Q740.244 261.333 739.853 261.099 Q739.463 260.865 739.298 260.490 Q739.134 260.115 739.134 258.896 L739.134 254.333 L738.166 254.333 L738.166 253.333 L739.134 253.333 L739.134 251.411 L740.447 250.615 L740.447 253.333 L741.775 253.333 L741.775 254.333 L740.447 254.333 L740.447 259.177 Q740.447 259.786 740.517 259.958 Q740.588 260.130 740.744 260.232 Q740.900 260.333 741.197 260.333 Q741.416 260.333 741.775 260.068 Z"/>
  <path d="M790.248 261.333 L790.248 250.333 L791.701 250.333 L797.341 259.974 L797.341 250.333 L798.716 250.333 L798.716 261.333 L797.248 261.333 L791.607 251.708 L791.607 261.333 L790.248 261.333 Z"/>
  <path d="M800.201 257.333 Q800.201 255.208 801.404 254.177 Q802.404 253.333 803.841 253.333 Q805.451 253.333 806.466 254.365 Q807.482 255.396 807.482 257.224 Q807.482 258.708 807.029 259.552 Q806.576 260.396 805.716 260.865 Q804.857 261.333 803.841 261.333 Q802.216 261.333 801.209 260.302 Q800.201 259.271 800.201 257.333 Z M801.560 257.333 Q801.560 258.833 802.209 259.583 Q802.857 260.333 803.857 260.333 Q804.841 260.333 805.490 259.583 Q806.138 258.833 806.138 257.286 Q806.138 255.833 805.482 255.083 Q804.826 254.333 803.857 254.333 Q802.857 254.333 802.209 255.076 Q801.560 255.818 801.560 257.333 Z"/>
  <path d="M811.013 261.333 L808.044 253.333 L809.435 253.333 L811.107 258.130 Q811.373 258.896 811.607 259.740 Q811.779 259.099 812.091 258.224 L813.826 253.333 L815.185 253.333 L812.232 261.333 L811.013 261.333 Z"/>
  <path d="M861.853 261.333 L861.853 250.333 L865.556 250.333 Q866.806 250.333 867.462 250.490 Q868.384 250.708 869.040 251.271 Q869.884 252.021 870.306 253.161 Q870.728 254.302 870.728 255.771 Q870.728 257.021 870.439 257.990 Q870.150 258.958 869.705 259.591 Q869.259 260.224 868.728 260.591 Q868.197 260.958 867.447 261.146 Q866.697 261.333 865.728 261.333 L861.853 261.333 Z M863.275 260.333 L865.572 260.333 Q866.619 260.333 867.228 260.115 Q867.837 259.896 868.197 259.505 Q868.697 258.958 868.978 258.021 Q869.259 257.083 869.259 255.740 Q869.259 253.896 868.705 252.904 Q868.150 251.911 867.369 251.568 Q866.790 251.333 865.525 251.333 L863.275 251.333 L863.275 260.333 Z"/>
  <path d="M877.603 259.333 L878.962 259.333 Q878.634 260.286 877.767 260.810 Q876.900 261.333 875.540 261.333 Q873.837 261.333 872.837 260.302 Q871.837 259.271 871.837 257.396 Q871.837 255.474 872.845 254.404 Q873.853 253.333 875.478 253.333 Q877.025 253.333 878.017 254.302 Q879.009 255.271 879.009 257.021 Q879.009 257.115 879.009 257.333 L873.197 257.333 Q873.275 258.786 873.923 259.560 Q874.572 260.333 875.556 260.333 Q876.275 260.333 876.790 260.091 Q877.306 259.849 877.603 259.333 Z M873.275 256.333 L877.619 256.333 Q877.525 255.458 877.119 255.021 Q876.494 254.333 875.494 254.333 Q874.572 254.333 873.955 254.880 Q873.337 255.427 873.275 256.333 Z"/>
  <path d="M885.509 259.333 L886.806 259.333 Q886.587 260.271 885.720 260.802 Q884.853 261.333 883.572 261.333 Q881.978 261.333 881.009 260.310 Q880.040 259.286 880.040 257.365 Q880.040 256.130 880.455 255.201 Q880.869 254.271 881.720 253.802 Q882.572 253.333 883.587 253.333 Q884.853 253.333 885.650 253.857 Q886.447 254.380 886.681 255.333 L885.400 255.333 Q885.212 254.833 884.751 254.583 Q884.290 254.333 883.634 254.333 Q882.634 254.333 882.009 255.052 Q881.384 255.771 881.384 257.333 Q881.384 258.896 881.986 259.615 Q882.587 260.333 883.556 260.333 Q884.337 260.333 884.853 260.091 Q885.369 259.849 885.509 259.333 Z"/>
  <path d="M71.590 235.600 L71.590 198.137 L100.923 198.137 L100.923 235.600 Z" fill="#aa4643"/>
  <path d="M143.179 235.600 L143.179 195.256 L172.513 195.256 L172.513 235.600 Z" fill="#aa4643"/>
  <path d="M214.769 235.600 L214.769 180.847 L244.103 180.847 L244.103 235.600 Z" fill="#aa4643"/>
  <path d="M286.359 235.600 L286.359 153.951 L315.692 153.951 L315.692 235.600 Z" fill="#aa4643"/>
  <path d="M357.949 235.600 L357.949 121.291 L387.282 121.291 L387.282 235.600 Z" fill="#aa4643"/>
  <path d="M429.538 235.600 L429.538 89.592 L458.872 89.592 L458.872 235.600 Z" fill="#aa4643"/>
  <path d="M501.128 235.600 L501.128 72.301 L530.462 72.301 L530.462 235.600 Z" fill="#aa4643"/>
  <path d="M572.718 235.600 L572.718 76.144 L602.051 76.144 L602.051 235.600 Z" fill="#aa4643"/>
  <path d="M644.308 235.600 L644.308 99.198 L673.641 99.198 L673.641 235.600 Z" fill="#aa4643"/>
  <path d="M715.897 235.600 L715.897 136.660 L745.231 136.660 L745.231 235.600 Z" fill="#aa4643"/>
  <path d="M787.487 235.600 L787.487 172.202 L816.821 172.202 L816.821 235.600 Z" fill="#aa4643"/>
  <path d="M859.077 235.600 L859.077 189.492 L888.410 189.492 L888.410 235.600 Z" fill="#aa4643"/>
  <path d="M68.452 182.337 L69.780 182.337 Q70.014 183.400 70.553 183.869 Q71.092 184.337 71.874 184.337 Q72.811 184.337 73.452 183.720 Q74.092 183.103 74.092 182.197 Q74.092 181.322 73.499 180.751 Q72.905 180.181 71.983 180.181 Q71.608 180.181 71.061 180.337 L71.202 179.337 Q71.342 179.353 71.420 179.353 Q72.264 179.353 72.936 178.845 Q73.608 178.337 73.608 177.275 Q73.608 176.447 73.116 175.892 Q72.624 175.337 71.842 175.337 Q71.077 175.337 70.561 175.837 Q70.045 176.337 69.905 177.337 L68.592 177.337 Q68.827 175.916 69.686 175.126 Q70.545 174.337 71.827 174.337 Q72.702 174.337 73.444 174.744 Q74.186 175.150 74.577 175.853 Q74.967 176.556 74.967 177.353 Q74.967 178.103 74.592 178.720 Q74.217 179.337 73.483 179.697 Q74.436 179.900 74.960 180.548 Q75.483 181.197 75.483 182.181 Q75.483 183.494 74.460 184.416 Q73.436 185.337 71.858 185.337 Q70.452 185.337 69.514 184.501 Q68.577 183.666 68.452 182.337 Z"/>
  <path d="M77.342 185.337 L77.342 184.337 L78.842 184.337 L78.842 185.337 L77.342 185.337 Z"/>
  <path d="M80.889 182.337 L82.155 182.337 Q82.311 183.384 82.764 183.861 Q83.217 184.337 83.936 184.337 Q84.530 184.337 84.991 184.033 Q85.452 183.728 85.741 183.220 Q86.030 182.712 86.233 181.861 Q86.436 181.009 86.436 180.181 Q86.436 180.103 86.420 179.931 Q86.030 180.556 85.342 180.947 Q84.655 181.337 83.858 181.337 Q82.530 181.337 81.608 180.392 Q80.686 179.447 80.686 177.884 Q80.686 176.291 81.647 175.314 Q82.608 174.337 84.061 174.337 Q85.108 174.337 85.975 174.900 Q86.842 175.462 87.295 176.509 Q87.749 177.556 87.749 179.541 Q87.749 181.619 87.303 182.837 Q86.858 184.056 85.975 184.697 Q85.092 185.337 83.905 185.337 Q82.639 185.337 81.842 184.548 Q81.045 183.759 80.889 182.337 Z M86.280 177.869 Q86.280 176.697 85.678 176.017 Q85.077 175.337 84.217 175.337 Q83.342 175.337 82.694 176.072 Q82.045 176.806 82.045 177.978 Q82.045 179.025 82.663 179.681 Q83.280 180.337 84.186 180.337 Q85.108 180.337 85.694 179.681 Q86.280 179.025 86.280 177.869 Z"/>
  <path d="M89.155 176.337 Q89.155 175.509 89.749 174.923 Q90.342 174.337 91.186 174.337 Q92.030 174.337 92.624 174.923 Q93.217 175.509 93.217 176.337 Q93.217 177.166 92.624 177.751 Q92.030 178.337 91.186 178.337 Q90.342 178.337 89.749 177.751 Q89.155 177.166 89.155 176.337 Z M89.952 176.337 Q89.952 176.759 90.311 177.048 Q90.670 177.337 91.186 177.337 Q91.702 177.337 92.061 177.048 Q92.420 176.759 92.420 176.337 Q92.420 175.916 92.061 175.626 Q91.702 175.337 91.186 175.337 Q90.670 175.337 90.311 175.626 Q89.952 175.916 89.952 176.337 Z"/>
  <path d="M102.905 181.509 L104.327 181.869 Q103.874 183.556 102.717 184.447 Q101.561 185.337 99.889 185.337 Q98.155 185.337 97.069 184.634 Q95.983 183.931 95.413 182.603 Q94.842 181.275 94.842 179.759 Q94.842 178.103 95.483 176.861 Q96.124 175.619 97.311 174.978 Q98.499 174.337 99.905 174.337 Q101.530 174.337 102.624 175.119 Q103.717 175.900 104.155 177.322 L102.749 177.666 Q102.374 176.447 101.663 175.892 Q100.952 175.337 99.874 175.337 Q98.639 175.337 97.811 175.955 Q96.983 176.572 96.647 177.611 Q96.311 178.650 96.311 179.744 Q96.311 181.166 96.710 182.228 Q97.108 183.291 97.952 183.814 Q98.795 184.337 99.764 184.337 Q100.967 184.337 101.788 183.626 Q102.608 182.916 102.905 181.509 Z"/>
  <path d="M144.260 182.456 L144.260 179.456 L139.604 179.456 L139.604 178.456 L144.510 171.456 L145.588 171.456 L145.588 178.456 L147.041 178.456 L147.041 179.456 L145.588 179.456 L145.588 182.456 L144.260 182.456 Z M144.260 178.456 L144.260 173.659 L140.901 178.456 L144.260 178.456 Z"/>
  <path d="M148.932 182.456 L148.932 181.456 L150.432 181.456 L150.432 182.456 L148.932 182.456 Z"/>
  <path d="M159.198 181.456 L159.198 182.456 L152.104 182.456 Q152.088 182.065 152.260 181.690 Q152.526 181.081 153.127 180.495 Q153.729 179.909 154.854 178.846 Q156.604 177.190 157.221 176.260 Q157.838 175.331 157.838 174.518 Q157.838 173.643 157.276 173.049 Q156.713 172.456 155.823 172.456 Q154.870 172.456 154.291 172.987 Q153.713 173.518 153.713 174.456 L152.354 174.456 Q152.495 172.987 153.401 172.221 Q154.307 171.456 155.838 171.456 Q157.385 171.456 158.284 172.346 Q159.182 173.237 159.182 174.565 Q159.182 175.237 158.916 175.885 Q158.651 176.534 158.041 177.253 Q157.432 177.971 156.010 179.253 Q154.823 180.315 154.487 180.690 Q154.151 181.065 153.932 181.456 L159.198 181.456 Z"/>
  <path d="M160.745 173.456 Q160.745 172.628 161.338 172.042 Q161.932 171.456 162.776 171.456 Q163.620 171.456 164.213 172.042 Q164.807 172.628 164.807 173.456 Q164.807 174.284 164.213 174.870 Q163.620 175.456 162.776 175.456 Q161.932 175.456 161.338 174.870 Q160.745 174.284 160.745 173.456 Z M161.541 173.456 Q161.541 173.878 161.901 174.167 Q162.260 174.456 162.776 174.456 Q163.291 174.456 163.651 174.167 Q164.010 173.878 164.010 173.456 Q164.010 173.034 163.651 172.745 Q163.291 172.456 162.776 172.456 Q162.260 172.456 161.901 172.745 Q161.541 173.034 161.541 173.456 Z"/>
  <path d="M174.495 178.628 L175.916 178.987 Q175.463 180.674 174.307 181.565 Q173.151 182.456 171.479 182.456 Q169.745 182.456 168.659 181.753 Q167.573 181.049 167.002 179.721 Q166.432 178.393 166.432 176.878 Q166.432 175.221 167.073 173.979 Q167.713 172.737 168.901 172.096 Q170.088 171.456 171.495 171.456 Q173.120 171.456 174.213 172.237 Q175.307 173.018 175.745 174.440 L174.338 174.784 Q173.963 173.565 173.252 173.010 Q172.541 172.456 171.463 172.456 Q170.229 172.456 169.401 173.073 Q168.573 173.690 168.237 174.729 Q167.901 175.768 167.901 176.862 Q167.901 178.284 168.299 179.346 Q168.698 180.409 169.541 180.932 Q170.385 181.456 171.354 181.456 Q172.557 181.456 173.377 180.745 Q174.198 180.034 174.495 178.628 Z"/>
  <path d="M211.631 165.047 L213.006 165.047 Q213.162 166.047 213.725 166.547 Q214.287 167.047 215.069 167.047 Q216.022 167.047 216.686 166.336 Q217.350 165.625 217.350 164.453 Q217.350 163.344 216.717 162.695 Q216.084 162.047 215.053 162.047 Q214.412 162.047 213.905 162.328 Q213.397 162.609 213.100 163.047 L211.866 163.047 L212.897 157.047 L218.241 157.047 L218.241 158.047 L213.959 158.047 L213.381 161.625 Q214.350 161.047 215.412 161.047 Q216.803 161.047 217.772 161.984 Q218.741 162.922 218.741 164.375 Q218.741 165.781 217.897 166.797 Q216.866 168.047 215.069 168.047 Q213.616 168.047 212.686 167.227 Q211.756 166.406 211.631 165.047 Z"/>
  <path d="M220.522 168.047 L220.522 167.047 L222.022 167.047 L222.022 168.047 L220.522 168.047 Z"/>
  <path d="M223.944 158.047 L223.944 157.047 L230.897 157.047 L230.897 157.859 Q229.881 158.953 228.873 160.891 Q227.866 162.828 227.303 164.875 Q226.912 166.328 226.803 168.047 L225.459 168.047 Q225.475 166.688 225.952 164.766 Q226.428 162.844 227.319 161.055 Q228.209 159.266 229.209 158.047 L223.944 158.047 Z"/>
  <path d="M232.334 159.047 Q232.334 158.219 232.928 157.633 Q233.522 157.047 234.366 157.047 Q235.209 157.047 235.803 157.633 Q236.397 158.219 236.397 159.047 Q236.397 159.875 235.803 160.461 Q235.209 161.047 234.366 161.047 Q233.522 161.047 232.928 160.461 Q232.334 159.875 232.334 159.047 Z M233.131 159.047 Q233.131 159.469 233.491 159.758 Q233.850 160.047 234.366 160.047 Q234.881 160.047 235.241 159.758 Q235.600 159.469 235.600 159.047 Q235.600 158.625 235.241 158.336 Q234.881 158.047 234.366 158.047 Q233.850 158.047 233.491 158.336 Q233.131 158.625 233.131 159.047 Z"/>
  <path d="M246.084 164.219 L247.506 164.578 Q247.053 166.266 245.897 167.156 Q244.741 168.047 243.069 168.047 Q241.334 168.047 240.248 167.344 Q239.162 166.641 238.592 165.313 Q238.022 163.984 238.022 162.469 Q238.022 160.813 238.662 159.570 Q239.303 158.328 240.491 157.688 Q241.678 157.047 243.084 157.047 Q244.709 157.047 245.803 157.828 Q246.897 158.609 247.334 160.031 L245.928 160.375 Q245.553 159.156 244.842 158.602 Q244.131 158.047 243.053 158.047 Q241.819 158.047 240.991 158.664 Q240.162 159.281 239.827 160.320 Q239.491 161.359 239.491 162.453 Q239.491 163.875 239.889 164.938 Q240.287 166.000 241.131 166.524 Q241.975 167.047 242.944 167.047 Q244.147 167.047 244.967 166.336 Q245.787 165.625 246.084 164.219 Z"/>
  <path d="M285.252 135.619 Q284.440 135.291 284.041 134.674 Q283.643 134.057 283.643 133.198 Q283.643 131.916 284.487 131.034 Q285.330 130.151 286.721 130.151 Q288.127 130.151 288.987 131.049 Q289.846 131.948 289.846 133.244 Q289.846 134.073 289.448 134.682 Q289.049 135.291 288.252 135.619 Q289.252 135.916 289.768 136.580 Q290.283 137.244 290.283 138.151 Q290.283 139.416 289.307 140.284 Q288.330 141.151 286.752 141.151 Q285.158 141.151 284.182 140.284 Q283.205 139.416 283.205 138.119 Q283.205 137.151 283.737 136.502 Q284.268 135.854 285.252 135.619 Z M284.987 133.104 Q284.987 134.010 285.479 134.580 Q285.971 135.151 286.752 135.151 Q287.518 135.151 288.002 134.580 Q288.487 134.010 288.487 133.182 Q288.487 132.323 287.987 131.737 Q287.487 131.151 286.737 131.151 Q285.987 131.151 285.487 131.721 Q284.987 132.291 284.987 133.104 Z M284.565 138.135 Q284.565 138.651 284.830 139.135 Q285.096 139.619 285.619 139.885 Q286.143 140.151 286.752 140.151 Q287.690 140.151 288.307 139.588 Q288.924 139.026 288.924 138.166 Q288.924 137.291 288.291 136.721 Q287.658 136.151 286.705 136.151 Q285.783 136.151 285.174 136.713 Q284.565 137.276 284.565 138.135 Z"/>
  <path d="M292.112 141.151 L292.112 140.151 L293.612 140.151 L293.612 141.151 L292.112 141.151 Z"/>
  <path d="M295.455 138.151 L296.830 138.151 Q296.987 139.151 297.549 139.651 Q298.112 140.151 298.893 140.151 Q299.846 140.151 300.510 139.440 Q301.174 138.729 301.174 137.557 Q301.174 136.448 300.541 135.799 Q299.908 135.151 298.877 135.151 Q298.237 135.151 297.729 135.432 Q297.221 135.713 296.924 136.151 L295.690 136.151 L296.721 130.151 L302.065 130.151 L302.065 131.151 L297.783 131.151 L297.205 134.729 Q298.174 134.151 299.237 134.151 Q300.627 134.151 301.596 135.088 Q302.565 136.026 302.565 137.479 Q302.565 138.885 301.721 139.901 Q300.690 141.151 298.893 141.151 Q297.440 141.151 296.510 140.330 Q295.580 139.510 295.455 138.151 Z"/>
  <path d="M303.924 132.151 Q303.924 131.323 304.518 130.737 Q305.112 130.151 305.955 130.151 Q306.799 130.151 307.393 130.737 Q307.987 131.323 307.987 132.151 Q307.987 132.979 307.393 133.565 Q306.799 134.151 305.955 134.151 Q305.112 134.151 304.518 133.565 Q303.924 132.979 303.924 132.151 Z M304.721 132.151 Q304.721 132.573 305.080 132.862 Q305.440 133.151 305.955 133.151 Q306.471 133.151 306.830 132.862 Q307.190 132.573 307.190 132.151 Q307.190 131.729 306.830 131.440 Q306.471 131.151 305.955 131.151 Q305.440 131.151 305.080 131.440 Q304.721 131.729 304.721 132.151 Z"/>
  <path d="M317.674 137.323 L319.096 137.682 Q318.643 139.369 317.487 140.260 Q316.330 141.151 314.658 141.151 Q312.924 141.151 311.838 140.448 Q310.752 139.744 310.182 138.416 Q309.612 137.088 309.612 135.573 Q309.612 133.916 310.252 132.674 Q310.893 131.432 312.080 130.791 Q313.268 130.151 314.674 130.151 Q316.299 130.151 317.393 130.932 Q318.487 131.713 318.924 133.135 L317.518 133.479 Q317.143 132.260 316.432 131.705 Q315.721 131.151 314.643 131.151 Q313.408 131.151 312.580 131.768 Q311.752 132.385 311.416 133.424 Q311.080 134.463 311.080 135.557 Q311.080 136.979 311.479 138.041 Q311.877 139.104 312.721 139.627 Q313.565 140.151 314.533 140.151 Q315.737 140.151 316.557 139.440 Q317.377 138.729 317.674 137.323 Z"/>
  <path d="M356.248 108.491 L354.920 108.491 L354.920 99.913 Q354.451 100.382 353.678 100.843 Q352.904 101.304 352.295 101.538 L352.295 100.241 Q353.404 99.710 354.225 98.952 Q355.045 98.194 355.389 97.491 L356.248 97.491 L356.248 108.491 Z"/>
  <path d="M363.858 108.491 L362.529 108.491 L362.529 99.913 Q362.061 100.382 361.287 100.843 Q360.514 101.304 359.904 101.538 L359.904 100.241 Q361.014 99.710 361.834 98.952 Q362.654 98.194 362.998 97.491 L363.858 97.491 L363.858 108.491 Z"/>
  <path d="M367.233 108.491 L367.233 107.491 L368.733 107.491 L368.733 108.491 L367.233 108.491 Z"/>
  <path d="M370.779 105.491 L372.045 105.491 Q372.201 106.538 372.654 107.014 Q373.108 107.491 373.826 107.491 Q374.420 107.491 374.881 107.186 Q375.342 106.882 375.631 106.374 Q375.920 105.866 376.123 105.014 Q376.326 104.163 376.326 103.335 Q376.326 103.257 376.311 103.085 Q375.920 103.710 375.233 104.100 Q374.545 104.491 373.748 104.491 Q372.420 104.491 371.498 103.546 Q370.576 102.600 370.576 101.038 Q370.576 99.444 371.537 98.468 Q372.498 97.491 373.951 97.491 Q374.998 97.491 375.865 98.054 Q376.733 98.616 377.186 99.663 Q377.639 100.710 377.639 102.694 Q377.639 104.772 377.194 105.991 Q376.748 107.210 375.865 107.850 Q374.983 108.491 373.795 108.491 Q372.529 108.491 371.733 107.702 Q370.936 106.913 370.779 105.491 Z M376.170 101.022 Q376.170 99.850 375.569 99.171 Q374.967 98.491 374.108 98.491 Q373.233 98.491 372.584 99.225 Q371.936 99.960 371.936 101.132 Q371.936 102.179 372.553 102.835 Q373.170 103.491 374.076 103.491 Q374.998 103.491 375.584 102.835 Q376.170 102.179 376.170 101.022 Z"/>
  <path d="M379.045 99.491 Q379.045 98.663 379.639 98.077 Q380.233 97.491 381.076 97.491 Q381.920 97.491 382.514 98.077 Q383.108 98.663 383.108 99.491 Q383.108 100.319 382.514 100.905 Q381.920 101.491 381.076 101.491 Q380.233 101.491 379.639 100.905 Q379.045 100.319 379.045 99.491 Z M379.842 99.491 Q379.842 99.913 380.201 100.202 Q380.561 100.491 381.076 100.491 Q381.592 100.491 381.951 100.202 Q382.311 99.913 382.311 99.491 Q382.311 99.069 381.951 98.780 Q381.592 98.491 381.076 98.491 Q380.561 98.491 380.201 98.780 Q379.842 99.069 379.842 99.491 Z"/>
  <path d="M392.795 104.663 L394.217 105.022 Q393.764 106.710 392.608 107.600 Q391.451 108.491 389.779 108.491 Q388.045 108.491 386.959 107.788 Q385.873 107.085 385.303 105.757 Q384.733 104.429 384.733 102.913 Q384.733 101.257 385.373 100.014 Q386.014 98.772 387.201 98.132 Q388.389 97.491 389.795 97.491 Q391.420 97.491 392.514 98.272 Q393.608 99.054 394.045 100.475 L392.639 100.819 Q392.264 99.600 391.553 99.046 Q390.842 98.491 389.764 98.491 Q388.529 98.491 387.701 99.108 Q386.873 99.725 386.537 100.764 Q386.201 101.804 386.201 102.897 Q386.201 104.319 386.600 105.382 Q386.998 106.444 387.842 106.968 Q388.686 107.491 389.654 107.491 Q390.858 107.491 391.678 106.780 Q392.498 106.069 392.795 104.663 Z"/>
  <path d="M427.291 76.792 L425.963 76.792 L425.963 68.214 Q425.494 68.683 424.721 69.143 Q423.947 69.604 423.338 69.839 L423.338 68.542 Q424.447 68.011 425.268 67.253 Q426.088 66.495 426.432 65.792 L427.291 65.792 L427.291 76.792 Z"/>
  <path d="M430.479 73.792 L431.854 73.792 Q432.010 74.792 432.572 75.292 Q433.135 75.792 433.916 75.792 Q434.869 75.792 435.533 75.081 Q436.197 74.370 436.197 73.198 Q436.197 72.089 435.565 71.440 Q434.932 70.792 433.900 70.792 Q433.260 70.792 432.752 71.073 Q432.244 71.354 431.947 71.792 L430.713 71.792 L431.744 65.792 L437.088 65.792 L437.088 66.792 L432.807 66.792 L432.229 70.370 Q433.197 69.792 434.260 69.792 Q435.650 69.792 436.619 70.729 Q437.588 71.667 437.588 73.120 Q437.588 74.526 436.744 75.542 Q435.713 76.792 433.916 76.792 Q432.463 76.792 431.533 75.972 Q430.604 75.151 430.479 73.792 Z"/>
  <path d="M439.369 76.792 L439.369 75.792 L440.869 75.792 L440.869 76.792 L439.369 76.792 Z"/>
  <path d="M449.635 75.792 L449.635 76.792 L442.541 76.792 Q442.525 76.401 442.697 76.026 Q442.963 75.417 443.565 74.831 Q444.166 74.245 445.291 73.183 Q447.041 71.526 447.658 70.597 Q448.275 69.667 448.275 68.854 Q448.275 67.979 447.713 67.386 Q447.150 66.792 446.260 66.792 Q445.307 66.792 444.729 67.323 Q444.150 67.854 444.150 68.792 L442.791 68.792 Q442.932 67.323 443.838 66.558 Q444.744 65.792 446.275 65.792 Q447.822 65.792 448.721 66.683 Q449.619 67.573 449.619 68.901 Q449.619 69.573 449.354 70.222 Q449.088 70.870 448.479 71.589 Q447.869 72.308 446.447 73.589 Q445.260 74.651 444.924 75.026 Q444.588 75.401 444.369 75.792 L449.635 75.792 Z"/>
  <path d="M451.182 67.792 Q451.182 66.964 451.775 66.378 Q452.369 65.792 453.213 65.792 Q454.057 65.792 454.650 66.378 Q455.244 66.964 455.244 67.792 Q455.244 68.620 454.650 69.206 Q454.057 69.792 453.213 69.792 Q452.369 69.792 451.775 69.206 Q451.182 68.620 451.182 67.792 Z M451.979 67.792 Q451.979 68.214 452.338 68.503 Q452.697 68.792 453.213 68.792 Q453.729 68.792 454.088 68.503 Q454.447 68.214 454.447 67.792 Q454.447 67.370 454.088 67.081 Q453.729 66.792 453.213 66.792 Q452.697 66.792 452.338 67.081 Q451.979 67.370 451.979 67.792 Z"/>
  <path d="M464.932 72.964 L466.354 73.323 Q465.900 75.011 464.744 75.901 Q463.588 76.792 461.916 76.792 Q460.182 76.792 459.096 76.089 Q458.010 75.386 457.440 74.058 Q456.869 72.729 456.869 71.214 Q456.869 69.558 457.510 68.315 Q458.150 67.073 459.338 66.433 Q460.525 65.792 461.932 65.792 Q463.557 65.792 464.650 66.573 Q465.744 67.354 466.182 68.776 L464.775 69.120 Q464.400 67.901 463.690 67.347 Q462.979 66.792 461.900 66.792 Q460.666 66.792 459.838 67.409 Q459.010 68.026 458.674 69.065 Q458.338 70.104 458.338 71.198 Q458.338 72.620 458.736 73.683 Q459.135 74.745 459.979 75.268 Q460.822 75.792 461.791 75.792 Q462.994 75.792 463.815 75.081 Q464.635 74.370 464.932 72.964 Z"/>
  <path d="M498.881 59.501 L497.553 59.501 L497.553 50.923 Q497.084 51.392 496.310 51.853 Q495.537 52.314 494.928 52.548 L494.928 51.251 Q496.037 50.720 496.857 49.962 Q497.678 49.205 498.021 48.501 L498.881 48.501 L498.881 59.501 Z"/>
  <path d="M502.146 49.501 L502.146 48.501 L509.100 48.501 L509.100 49.314 Q508.084 50.408 507.076 52.345 Q506.068 54.283 505.506 56.330 Q505.115 57.783 505.006 59.501 L503.662 59.501 Q503.678 58.142 504.154 56.220 Q504.631 54.298 505.521 52.509 Q506.412 50.720 507.412 49.501 L502.146 49.501 Z"/>
  <path d="M510.959 59.501 L510.959 58.501 L512.459 58.501 L512.459 59.501 L510.959 59.501 Z"/>
  <path d="M514.303 54.001 Q514.303 52.095 514.693 50.931 Q515.084 49.767 515.857 49.134 Q516.631 48.501 517.803 48.501 Q518.662 48.501 519.318 48.853 Q519.975 49.205 520.396 49.861 Q520.818 50.517 521.060 51.462 Q521.303 52.408 521.303 54.001 Q521.303 55.908 520.912 57.072 Q520.521 58.236 519.748 58.869 Q518.975 59.501 517.803 59.501 Q516.256 59.501 515.365 58.392 Q514.303 57.033 514.303 54.001 Z M515.662 54.001 Q515.662 56.705 516.279 57.603 Q516.896 58.501 517.803 58.501 Q518.709 58.501 519.326 57.603 Q519.943 56.705 519.943 54.001 Q519.943 51.283 519.326 50.392 Q518.709 49.501 517.787 49.501 Q516.881 49.501 516.334 50.283 Q515.662 51.298 515.662 54.001 Z"/>
  <path d="M522.771 50.501 Q522.771 49.673 523.365 49.087 Q523.959 48.501 524.803 48.501 Q525.646 48.501 526.240 49.087 Q526.834 49.673 526.834 50.501 Q526.834 51.330 526.240 51.916 Q525.646 52.501 524.803 52.501 Q523.959 52.501 523.365 51.916 Q522.771 51.330 522.771 50.501 Z M523.568 50.501 Q523.568 50.923 523.928 51.212 Q524.287 51.501 524.803 51.501 Q525.318 51.501 525.678 51.212 Q526.037 50.923 526.037 50.501 Q526.037 50.080 525.678 49.791 Q525.318 49.501 524.803 49.501 Q524.287 49.501 523.928 49.791 Q523.568 50.080 523.568 50.501 Z"/>
  <path d="M536.521 55.673 L537.943 56.033 Q537.490 57.720 536.334 58.611 Q535.178 59.501 533.506 59.501 Q531.771 59.501 530.685 58.798 Q529.600 58.095 529.029 56.767 Q528.459 55.439 528.459 53.923 Q528.459 52.267 529.100 51.025 Q529.740 49.783 530.928 49.142 Q532.115 48.501 533.521 48.501 Q535.146 48.501 536.240 49.283 Q537.334 50.064 537.771 51.486 L536.365 51.830 Q535.990 50.611 535.279 50.056 Q534.568 49.501 533.490 49.501 Q532.256 49.501 531.428 50.119 Q530.600 50.736 530.264 51.775 Q529.928 52.814 529.928 53.908 Q529.928 55.330 530.326 56.392 Q530.725 57.455 531.568 57.978 Q532.412 58.501 533.381 58.501 Q534.584 58.501 535.404 57.791 Q536.225 57.080 536.521 55.673 Z"/>
  <path d="M570.471 63.344 L569.142 63.344 L569.142 54.766 Q568.674 55.234 567.900 55.695 Q567.127 56.156 566.517 56.391 L566.517 55.094 Q567.627 54.563 568.447 53.805 Q569.267 53.047 569.611 52.344 L570.471 52.344 L570.471 63.344 Z"/>
  <path d="M580.502 55.344 L579.189 55.344 Q579.017 54.422 578.689 54.016 Q578.158 53.344 577.377 53.344 Q576.736 53.344 576.267 53.734 Q575.642 54.234 575.283 55.188 Q574.924 56.141 574.908 57.781 Q575.377 57.047 576.072 56.695 Q576.767 56.344 577.517 56.344 Q578.830 56.344 579.760 57.297 Q580.689 58.250 580.689 59.750 Q580.689 60.734 580.252 61.586 Q579.814 62.438 579.056 62.891 Q578.299 63.344 577.330 63.344 Q575.674 63.344 574.635 62.125 Q573.596 60.906 573.596 58.125 Q573.596 55.000 574.752 53.578 Q575.752 52.344 577.455 52.344 Q578.721 52.344 579.533 53.141 Q580.346 53.938 580.502 55.344 Z M575.111 59.719 Q575.111 60.406 575.400 61.039 Q575.689 61.672 576.213 62.008 Q576.736 62.344 577.299 62.344 Q578.142 62.344 578.744 61.656 Q579.346 60.969 579.346 59.781 Q579.346 58.656 578.752 58.000 Q578.158 57.344 577.252 57.344 Q576.361 57.344 575.736 58.000 Q575.111 58.656 575.111 59.719 Z"/>
  <path d="M582.549 63.344 L582.549 62.344 L584.049 62.344 L584.049 63.344 L582.549 63.344 Z"/>
  <path d="M592.736 55.344 L591.424 55.344 Q591.252 54.422 590.924 54.016 Q590.392 53.344 589.611 53.344 Q588.971 53.344 588.502 53.734 Q587.877 54.234 587.517 55.188 Q587.158 56.141 587.142 57.781 Q587.611 57.047 588.306 56.695 Q589.002 56.344 589.752 56.344 Q591.064 56.344 591.994 57.297 Q592.924 58.250 592.924 59.750 Q592.924 60.734 592.486 61.586 Q592.049 62.438 591.291 62.891 Q590.533 63.344 589.564 63.344 Q587.908 63.344 586.869 62.125 Q585.830 60.906 585.830 58.125 Q585.830 55.000 586.986 53.578 Q587.986 52.344 589.689 52.344 Q590.955 52.344 591.767 53.141 Q592.580 53.938 592.736 55.344 Z M587.346 59.719 Q587.346 60.406 587.635 61.039 Q587.924 61.672 588.447 62.008 Q588.971 62.344 589.533 62.344 Q590.377 62.344 590.978 61.656 Q591.580 60.969 591.580 59.781 Q591.580 58.656 590.986 58.000 Q590.392 57.344 589.486 57.344 Q588.596 57.344 587.971 58.000 Q587.346 58.656 587.346 59.719 Z"/>
  <path d="M594.361 54.344 Q594.361 53.516 594.955 52.930 Q595.549 52.344 596.392 52.344 Q597.236 52.344 597.830 52.930 Q598.424 53.516 598.424 54.344 Q598.424 55.172 597.830 55.758 Q597.236 56.344 596.392 56.344 Q595.549 56.344 594.955 55.758 Q594.361 55.172 594.361 54.344 Z M595.158 54.344 Q595.158 54.766 595.517 55.055 Q595.877 55.344 596.392 55.344 Q596.908 55.344 597.267 55.055 Q597.627 54.766 597.627 54.344 Q597.627 53.922 597.267 53.633 Q596.908 53.344 596.392 53.344 Q595.877 53.344 595.517 53.633 Q595.158 53.922 595.158 54.344 Z"/>
  <path d="M608.111 59.516 L609.533 59.875 Q609.080 61.563 607.924 62.453 Q606.767 63.344 605.096 63.344 Q603.361 63.344 602.275 62.641 Q601.189 61.938 600.619 60.609 Q600.049 59.281 600.049 57.766 Q600.049 56.109 600.689 54.867 Q601.330 53.625 602.517 52.984 Q603.705 52.344 605.111 52.344 Q606.736 52.344 607.830 53.125 Q608.924 53.906 609.361 55.328 L607.955 55.672 Q607.580 54.453 606.869 53.898 Q606.158 53.344 605.080 53.344 Q603.846 53.344 603.017 53.961 Q602.189 54.578 601.853 55.617 Q601.517 56.656 601.517 57.750 Q601.517 59.172 601.916 60.234 Q602.314 61.297 603.158 61.820 Q604.002 62.344 604.971 62.344 Q606.174 62.344 606.994 61.633 Q607.814 60.922 608.111 59.516 Z"/>
  <path d="M642.060 86.398 L640.732 86.398 L640.732 77.820 Q640.263 78.288 639.490 78.749 Q638.717 79.210 638.107 79.445 L638.107 78.148 Q639.217 77.616 640.037 76.859 Q640.857 76.101 641.201 75.398 L642.060 75.398 L642.060 86.398 Z"/>
  <path d="M649.467 86.398 L649.467 83.398 L644.810 83.398 L644.810 82.398 L649.717 75.398 L650.795 75.398 L650.795 82.398 L652.248 82.398 L652.248 83.398 L650.795 83.398 L650.795 86.398 L649.467 86.398 Z M649.467 82.398 L649.467 77.601 L646.107 82.398 L649.467 82.398 Z"/>
  <path d="M654.138 86.398 L654.138 85.398 L655.638 85.398 L655.638 86.398 L654.138 86.398 Z"/>
  <path d="M664.404 85.398 L664.404 86.398 L657.310 86.398 Q657.295 86.007 657.467 85.632 Q657.732 85.023 658.334 84.437 Q658.935 83.851 660.060 82.788 Q661.810 81.132 662.427 80.202 Q663.045 79.273 663.045 78.460 Q663.045 77.585 662.482 76.991 Q661.920 76.398 661.029 76.398 Q660.076 76.398 659.498 76.929 Q658.920 77.460 658.920 78.398 L657.560 78.398 Q657.701 76.929 658.607 76.163 Q659.513 75.398 661.045 75.398 Q662.592 75.398 663.490 76.288 Q664.388 77.179 664.388 78.507 Q664.388 79.179 664.123 79.827 Q663.857 80.476 663.248 81.195 Q662.638 81.913 661.217 83.195 Q660.029 84.257 659.693 84.632 Q659.357 85.007 659.138 85.398 L664.404 85.398 Z"/>
  <path d="M665.951 77.398 Q665.951 76.570 666.545 75.984 Q667.138 75.398 667.982 75.398 Q668.826 75.398 669.420 75.984 Q670.013 76.570 670.013 77.398 Q670.013 78.226 669.420 78.812 Q668.826 79.398 667.982 79.398 Q667.138 79.398 666.545 78.812 Q665.951 78.226 665.951 77.398 Z M666.748 77.398 Q666.748 77.820 667.107 78.109 Q667.467 78.398 667.982 78.398 Q668.498 78.398 668.857 78.109 Q669.217 77.820 669.217 77.398 Q669.217 76.976 668.857 76.687 Q668.498 76.398 667.982 76.398 Q667.467 76.398 667.107 76.687 Q666.748 76.976 666.748 77.398 Z"/>
  <path d="M679.701 82.570 L681.123 82.929 Q680.670 84.616 679.513 85.507 Q678.357 86.398 676.685 86.398 Q674.951 86.398 673.865 85.695 Q672.779 84.991 672.209 83.663 Q671.638 82.335 671.638 80.820 Q671.638 79.163 672.279 77.921 Q672.920 76.679 674.107 76.038 Q675.295 75.398 676.701 75.398 Q678.326 75.398 679.420 76.179 Q680.513 76.960 680.951 78.382 L679.545 78.726 Q679.170 77.507 678.459 76.952 Q677.748 76.398 676.670 76.398 Q675.435 76.398 674.607 77.015 Q673.779 77.632 673.443 78.671 Q673.107 79.710 673.107 80.804 Q673.107 82.226 673.506 83.288 Q673.904 84.351 674.748 84.874 Q675.592 85.398 676.560 85.398 Q677.763 85.398 678.584 84.687 Q679.404 83.976 679.701 82.570 Z"/>
  <path d="M713.650 123.860 L712.322 123.860 L712.322 115.282 Q711.853 115.751 711.080 116.212 Q710.306 116.673 709.697 116.907 L709.697 115.610 Q710.806 115.079 711.627 114.321 Q712.447 113.563 712.791 112.860 L713.650 112.860 L713.650 123.860 Z"/>
  <path d="M716.838 118.360 Q716.838 116.454 717.228 115.290 Q717.619 114.126 718.392 113.493 Q719.166 112.860 720.338 112.860 Q721.197 112.860 721.853 113.212 Q722.509 113.563 722.931 114.220 Q723.353 114.876 723.595 115.821 Q723.838 116.767 723.838 118.360 Q723.838 120.267 723.447 121.431 Q723.056 122.595 722.283 123.227 Q721.509 123.860 720.338 123.860 Q718.791 123.860 717.900 122.751 Q716.838 121.392 716.838 118.360 Z M718.197 118.360 Q718.197 121.063 718.814 121.962 Q719.431 122.860 720.338 122.860 Q721.244 122.860 721.861 121.962 Q722.478 121.063 722.478 118.360 Q722.478 115.642 721.861 114.751 Q721.244 113.860 720.322 113.860 Q719.416 113.860 718.869 114.642 Q718.197 115.657 718.197 118.360 Z"/>
  <path d="M725.728 123.860 L725.728 122.860 L727.228 122.860 L727.228 123.860 L725.728 123.860 Z"/>
  <path d="M729.072 120.860 L730.400 120.860 Q730.634 121.923 731.173 122.392 Q731.713 122.860 732.494 122.860 Q733.431 122.860 734.072 122.243 Q734.713 121.626 734.713 120.720 Q734.713 119.845 734.119 119.274 Q733.525 118.704 732.603 118.704 Q732.228 118.704 731.681 118.860 L731.822 117.860 Q731.963 117.876 732.041 117.876 Q732.884 117.876 733.556 117.368 Q734.228 116.860 734.228 115.798 Q734.228 114.970 733.736 114.415 Q733.244 113.860 732.463 113.860 Q731.697 113.860 731.181 114.360 Q730.666 114.860 730.525 115.860 L729.213 115.860 Q729.447 114.438 730.306 113.649 Q731.166 112.860 732.447 112.860 Q733.322 112.860 734.064 113.267 Q734.806 113.673 735.197 114.376 Q735.588 115.079 735.588 115.876 Q735.588 116.626 735.213 117.243 Q734.838 117.860 734.103 118.220 Q735.056 118.423 735.580 119.071 Q736.103 119.720 736.103 120.704 Q736.103 122.017 735.080 122.938 Q734.056 123.860 732.478 123.860 Q731.072 123.860 730.134 123.024 Q729.197 122.188 729.072 120.860 Z"/>
  <path d="M737.541 114.860 Q737.541 114.032 738.134 113.446 Q738.728 112.860 739.572 112.860 Q740.416 112.860 741.009 113.446 Q741.603 114.032 741.603 114.860 Q741.603 115.688 741.009 116.274 Q740.416 116.860 739.572 116.860 Q738.728 116.860 738.134 116.274 Q737.541 115.688 737.541 114.860 Z M738.338 114.860 Q738.338 115.282 738.697 115.571 Q739.056 115.860 739.572 115.860 Q740.088 115.860 740.447 115.571 Q740.806 115.282 740.806 114.860 Q740.806 114.438 740.447 114.149 Q740.088 113.860 739.572 113.860 Q739.056 113.860 738.697 114.149 Q738.338 114.438 738.338 114.860 Z"/>
  <path d="M751.291 120.032 L752.713 120.392 Q752.259 122.079 751.103 122.970 Q749.947 123.860 748.275 123.860 Q746.541 123.860 745.455 123.157 Q744.369 122.454 743.798 121.126 Q743.228 119.798 743.228 118.282 Q743.228 116.626 743.869 115.384 Q744.509 114.142 745.697 113.501 Q746.884 112.860 748.291 112.860 Q749.916 112.860 751.009 113.642 Q752.103 114.423 752.541 115.845 L751.134 116.188 Q750.759 114.970 750.048 114.415 Q749.338 113.860 748.259 113.860 Q747.025 113.860 746.197 114.477 Q745.369 115.095 745.033 116.134 Q744.697 117.173 744.697 118.267 Q744.697 119.688 745.095 120.751 Q745.494 121.813 746.338 122.337 Q747.181 122.860 748.150 122.860 Q749.353 122.860 750.173 122.149 Q750.994 121.438 751.291 120.032 Z"/>
  <path d="M791.193 151.402 L789.880 151.402 Q789.709 150.480 789.380 150.074 Q788.849 149.402 788.068 149.402 Q787.427 149.402 786.959 149.792 Q786.334 150.292 785.974 151.245 Q785.615 152.199 785.599 153.839 Q786.068 153.105 786.763 152.753 Q787.459 152.402 788.209 152.402 Q789.521 152.402 790.451 153.355 Q791.380 154.308 791.380 155.808 Q791.380 156.792 790.943 157.644 Q790.505 158.495 789.748 158.949 Q788.990 159.402 788.021 159.402 Q786.365 159.402 785.326 158.183 Q784.287 156.964 784.287 154.183 Q784.287 151.058 785.443 149.636 Q786.443 148.402 788.146 148.402 Q789.412 148.402 790.224 149.199 Q791.037 149.995 791.193 151.402 Z M785.802 155.777 Q785.802 156.464 786.091 157.097 Q786.380 157.730 786.904 158.066 Q787.427 158.402 787.990 158.402 Q788.834 158.402 789.435 157.714 Q790.037 157.027 790.037 155.839 Q790.037 154.714 789.443 154.058 Q788.849 153.402 787.943 153.402 Q787.052 153.402 786.427 154.058 Q785.802 154.714 785.802 155.777 Z"/>
  <path d="M793.240 159.402 L793.240 158.402 L794.740 158.402 L794.740 159.402 L793.240 159.402 Z"/>
  <path d="M803.427 151.402 L802.115 151.402 Q801.943 150.480 801.615 150.074 Q801.084 149.402 800.302 149.402 Q799.662 149.402 799.193 149.792 Q798.568 150.292 798.209 151.245 Q797.849 152.199 797.834 153.839 Q798.302 153.105 798.998 152.753 Q799.693 152.402 800.443 152.402 Q801.755 152.402 802.685 153.355 Q803.615 154.308 803.615 155.808 Q803.615 156.792 803.177 157.644 Q802.740 158.495 801.982 158.949 Q801.224 159.402 800.255 159.402 Q798.599 159.402 797.560 158.183 Q796.521 156.964 796.521 154.183 Q796.521 151.058 797.677 149.636 Q798.677 148.402 800.380 148.402 Q801.646 148.402 802.459 149.199 Q803.271 149.995 803.427 151.402 Z M798.037 155.777 Q798.037 156.464 798.326 157.097 Q798.615 157.730 799.138 158.066 Q799.662 158.402 800.224 158.402 Q801.068 158.402 801.669 157.714 Q802.271 157.027 802.271 155.839 Q802.271 154.714 801.677 154.058 Q801.084 153.402 800.177 153.402 Q799.287 153.402 798.662 154.058 Q798.037 154.714 798.037 155.777 Z"/>
  <path d="M805.052 150.402 Q805.052 149.574 805.646 148.988 Q806.240 148.402 807.084 148.402 Q807.927 148.402 808.521 148.988 Q809.115 149.574 809.115 150.402 Q809.115 151.230 808.521 151.816 Q807.927 152.402 807.084 152.402 Q806.240 152.402 805.646 151.816 Q805.052 151.230 805.052 150.402 Z M805.849 150.402 Q805.849 150.824 806.209 151.113 Q806.568 151.402 807.084 151.402 Q807.599 151.402 807.959 151.113 Q808.318 150.824 808.318 150.402 Q808.318 149.980 807.959 149.691 Q807.599 149.402 807.084 149.402 Q806.568 149.402 806.209 149.691 Q805.849 149.980 805.849 150.402 Z"/>
  <path d="M818.802 155.574 L820.224 155.933 Q819.771 157.620 818.615 158.511 Q817.459 159.402 815.787 159.402 Q814.052 159.402 812.966 158.699 Q811.880 157.995 811.310 156.667 Q810.740 155.339 810.740 153.824 Q810.740 152.167 811.380 150.925 Q812.021 149.683 813.209 149.042 Q814.396 148.402 815.802 148.402 Q817.427 148.402 818.521 149.183 Q819.615 149.964 820.052 151.386 L818.646 151.730 Q818.271 150.511 817.560 149.956 Q816.849 149.402 815.771 149.402 Q814.537 149.402 813.709 150.019 Q812.880 150.636 812.544 151.675 Q812.209 152.714 812.209 153.808 Q812.209 155.230 812.607 156.292 Q813.005 157.355 813.849 157.878 Q814.693 158.402 815.662 158.402 Q816.865 158.402 817.685 157.691 Q818.505 156.980 818.802 155.574 Z"/>
  <path d="M860.158 176.692 L860.158 173.692 L855.501 173.692 L855.501 172.692 L860.408 165.692 L861.486 165.692 L861.486 172.692 L862.939 172.692 L862.939 173.692 L861.486 173.692 L861.486 176.692 L860.158 176.692 Z M860.158 172.692 L860.158 167.895 L856.798 172.692 L860.158 172.692 Z"/>
  <path d="M864.830 176.692 L864.830 175.692 L866.330 175.692 L866.330 176.692 L864.830 176.692 Z"/>
  <path d="M870.205 171.161 Q869.392 170.833 868.994 170.216 Q868.595 169.598 868.595 168.739 Q868.595 167.458 869.439 166.575 Q870.283 165.692 871.673 165.692 Q873.080 165.692 873.939 166.591 Q874.798 167.489 874.798 168.786 Q874.798 169.614 874.400 170.223 Q874.001 170.833 873.205 171.161 Q874.205 171.458 874.720 172.122 Q875.236 172.786 875.236 173.692 Q875.236 174.958 874.259 175.825 Q873.283 176.692 871.705 176.692 Q870.111 176.692 869.134 175.825 Q868.158 174.958 868.158 173.661 Q868.158 172.692 868.689 172.044 Q869.220 171.395 870.205 171.161 Z M869.939 168.645 Q869.939 169.552 870.431 170.122 Q870.923 170.692 871.705 170.692 Q872.470 170.692 872.955 170.122 Q873.439 169.552 873.439 168.723 Q873.439 167.864 872.939 167.278 Q872.439 166.692 871.689 166.692 Q870.939 166.692 870.439 167.262 Q869.939 167.833 869.939 168.645 Z M869.517 173.677 Q869.517 174.192 869.783 174.677 Q870.048 175.161 870.572 175.427 Q871.095 175.692 871.705 175.692 Q872.642 175.692 873.259 175.130 Q873.876 174.567 873.876 173.708 Q873.876 172.833 873.244 172.262 Q872.611 171.692 871.658 171.692 Q870.736 171.692 870.126 172.255 Q869.517 172.817 869.517 173.677 Z"/>
  <path d="M876.642 167.692 Q876.642 166.864 877.236 166.278 Q877.830 165.692 878.673 165.692 Q879.517 165.692 880.111 166.278 Q880.705 166.864 880.705 167.692 Q880.705 168.520 880.111 169.106 Q879.517 169.692 878.673 169.692 Q877.830 169.692 877.236 169.106 Q876.642 168.520 876.642 167.692 Z M877.439 167.692 Q877.439 168.114 877.798 168.403 Q878.158 168.692 878.673 168.692 Q879.189 168.692 879.548 168.403 Q879.908 168.114 879.908 167.692 Q879.908 167.270 879.548 166.981 Q879.189 166.692 878.673 166.692 Q878.158 166.692 877.798 166.981 Q877.439 167.270 877.439 167.692 Z"/>
  <path d="M890.392 172.864 L891.814 173.223 Q891.361 174.911 890.205 175.802 Q889.048 176.692 887.376 176.692 Q885.642 176.692 884.556 175.989 Q883.470 175.286 882.900 173.958 Q882.330 172.630 882.330 171.114 Q882.330 169.458 882.970 168.216 Q883.611 166.973 884.798 166.333 Q885.986 165.692 887.392 165.692 Q889.017 165.692 890.111 166.473 Q891.205 167.255 891.642 168.677 L890.236 169.020 Q889.861 167.802 889.150 167.247 Q888.439 166.692 887.361 166.692 Q886.126 166.692 885.298 167.309 Q884.470 167.927 884.134 168.966 Q883.798 170.005 883.798 171.098 Q883.798 172.520 884.197 173.583 Q884.595 174.645 885.439 175.169 Q886.283 175.692 887.251 175.692 Q888.455 175.692 889.275 174.981 Q890.095 174.270 890.392 172.864 Z"/>
  <path d="M55.360 46.267 L55.360 35.267 L56.782 35.267 L56.782 45.267 L62.079 45.267 L62.079 46.267 L55.360 46.267 Z"/>
  <path d="M62.923 42.267 Q62.923 40.142 64.126 39.110 Q65.126 38.267 66.564 38.267 Q68.173 38.267 69.189 39.298 Q70.204 40.329 70.204 42.157 Q70.204 43.642 69.751 44.485 Q69.298 45.329 68.439 45.798 Q67.579 46.267 66.564 46.267 Q64.939 46.267 63.931 45.235 Q62.923 44.204 62.923 42.267 Z M64.282 42.267 Q64.282 43.767 64.931 44.517 Q65.579 45.267 66.579 45.267 Q67.564 45.267 68.212 44.517 Q68.860 43.767 68.860 42.220 Q68.860 40.767 68.204 40.017 Q67.548 39.267 66.579 39.267 Q65.579 39.267 64.931 40.009 Q64.282 40.751 64.282 42.267 Z"/>
  <path d="M71.564 46.267 L71.564 38.267 L72.751 38.267 L72.751 39.376 Q73.610 38.267 75.235 38.267 Q75.939 38.267 76.524 38.524 Q77.110 38.782 77.407 39.189 Q77.704 39.595 77.814 40.173 Q77.892 40.532 77.892 41.454 L77.892 46.267 L76.564 46.267 L76.564 41.407 Q76.564 40.579 76.407 40.165 Q76.251 39.751 75.860 39.509 Q75.470 39.267 74.954 39.267 Q74.110 39.267 73.501 39.814 Q72.892 40.360 72.892 41.892 L72.892 46.267 L71.564 46.267 Z"/>
  <path d="M84.767 46.267 L84.767 45.204 Q84.032 46.267 82.595 46.267 Q81.657 46.267 80.884 45.759 Q80.110 45.251 79.681 44.353 Q79.251 43.454 79.251 42.267 Q79.251 41.126 79.642 40.196 Q80.032 39.267 80.806 38.767 Q81.579 38.267 82.548 38.267 Q83.251 38.267 83.798 38.540 Q84.345 38.814 84.689 39.251 L84.689 35.267 L86.001 35.267 L86.001 46.267 L84.767 46.267 Z M80.610 42.267 Q80.610 43.782 81.243 44.524 Q81.876 45.267 82.720 45.267 Q83.595 45.267 84.196 44.556 Q84.798 43.845 84.798 42.376 Q84.798 40.767 84.181 40.017 Q83.564 39.267 82.673 39.267 Q81.782 39.267 81.196 39.993 Q80.610 40.720 80.610 42.267 Z"/>
  <path d="M87.392 42.267 Q87.392 40.142 88.595 39.110 Q89.595 38.267 91.032 38.267 Q92.642 38.267 93.657 39.298 Q94.673 40.329 94.673 42.157 Q94.673 43.642 94.220 44.485 Q93.767 45.329 92.907 45.798 Q92.048 46.267 91.032 46.267 Q89.407 46.267 88.399 45.235 Q87.392 44.204 87.392 42.267 Z M88.751 42.267 Q88.751 43.767 89.399 44.517 Q90.048 45.267 91.048 45.267 Q92.032 45.267 92.681 44.517 Q93.329 43.767 93.329 42.220 Q93.329 40.767 92.673 40.017 Q92.017 39.267 91.048 39.267 Q90.048 39.267 89.399 40.009 Q88.751 40.751 88.751 42.267 Z"/>
  <path d="M96.032 46.267 L96.032 38.267 L97.220 38.267 L97.220 39.376 Q98.079 38.267 99.704 38.267 Q100.407 38.267 100.993 38.524 Q101.579 38.782 101.876 39.189 Q102.173 39.595 102.282 40.173 Q102.360 40.532 102.360 41.454 L102.360 46.267 L101.032 46.267 L101.032 41.407 Q101.032 40.579 100.876 40.165 Q100.720 39.751 100.329 39.509 Q99.939 39.267 99.423 39.267 Q98.579 39.267 97.970 39.814 Q97.360 40.360 97.360 41.892 L97.360 46.267 L96.032 46.267 Z"/>
  <path d=""/>
  <path d="M107.751 43.267 L107.751 42.267 L111.814 42.267 L111.814 43.267 L107.751 43.267 Z"/>
  <path d=""/>
  <path d="M115.829 46.267 L119.954 35.267 L121.470 35.267 L125.876 46.267 L124.251 46.267 L123.001 43.267 L118.517 43.267 L117.329 46.267 L115.829 46.267 Z M118.923 42.267 L122.564 42.267 L121.439 38.829 Q120.923 37.470 120.673 36.267 Q120.470 37.610 120.095 38.642 L118.923 42.267 Z"/>
  <path d="M128.235 46.267 L125.267 38.267 L126.657 38.267 L128.329 43.064 Q128.595 43.829 128.829 44.673 Q129.001 44.032 129.314 43.157 L131.048 38.267 L132.407 38.267 L129.454 46.267 L128.235 46.267 Z"/>
  <path d="M138.610 44.267 L139.970 44.267 Q139.642 45.220 138.774 45.743 Q137.907 46.267 136.548 46.267 Q134.845 46.267 133.845 45.235 Q132.845 44.204 132.845 42.329 Q132.845 40.407 133.853 39.337 Q134.860 38.267 136.485 38.267 Q138.032 38.267 139.024 39.235 Q140.017 40.204 140.017 41.954 Q140.017 42.048 140.017 42.267 L134.204 42.267 Q134.282 43.720 134.931 44.493 Q135.579 45.267 136.564 45.267 Q137.282 45.267 137.798 45.024 Q138.314 44.782 138.610 44.267 Z M134.282 41.267 L138.626 41.267 Q138.532 40.392 138.126 39.954 Q137.501 39.267 136.501 39.267 Q135.579 39.267 134.962 39.814 Q134.345 40.360 134.282 41.267 Z"/>
  <path d="M141.423 46.267 L141.423 38.267 L142.610 38.267 L142.610 39.267 Q143.064 38.657 143.446 38.462 Q143.829 38.267 144.298 38.267 Q144.970 38.267 145.657 38.470 L145.204 39.689 Q144.720 39.267 144.235 39.267 Q143.798 39.267 143.454 39.540 Q143.110 39.814 142.970 40.298 Q142.751 41.048 142.751 41.939 L142.751 46.267 L141.423 46.267 Z"/>
  <path d="M151.407 45.267 Q150.673 45.814 149.993 46.040 Q149.314 46.267 148.548 46.267 Q147.267 46.267 146.579 45.657 Q145.892 45.048 145.892 44.095 Q145.892 43.532 146.149 43.071 Q146.407 42.610 146.829 42.329 Q147.251 42.048 147.782 41.907 Q148.173 41.798 148.954 41.704 Q150.548 41.532 151.298 41.267 Q151.314 40.985 151.314 40.907 Q151.314 40.079 150.939 39.735 Q150.439 39.267 149.439 39.267 Q148.501 39.267 148.064 39.485 Q147.626 39.704 147.407 40.267 L146.110 40.267 Q146.282 39.579 146.689 39.149 Q147.095 38.720 147.853 38.493 Q148.610 38.267 149.610 38.267 Q150.610 38.267 151.235 38.462 Q151.860 38.657 152.149 38.962 Q152.439 39.267 152.564 39.720 Q152.626 40.001 152.626 40.907 L152.626 42.735 Q152.626 44.642 152.712 45.196 Q152.798 45.751 153.048 46.267 L151.673 46.267 Q151.470 45.845 151.407 45.267 Z M151.298 42.267 Q150.579 42.548 149.142 42.751 Q148.329 42.876 147.993 43.017 Q147.657 43.157 147.478 43.439 Q147.298 43.720 147.298 44.048 Q147.298 44.579 147.696 44.923 Q148.095 45.267 148.860 45.267 Q149.626 45.267 150.220 44.899 Q150.814 44.532 151.095 43.985 Q151.298 43.564 151.298 42.720 L151.298 42.267 Z"/>
  <path d="M154.251 47.267 L155.532 47.267 Q155.610 47.751 155.985 47.970 Q156.470 48.267 157.314 48.267 Q158.235 48.267 158.735 47.907 Q159.235 47.548 159.407 46.907 Q159.501 46.517 159.501 45.267 Q158.642 46.267 157.345 46.267 Q155.751 46.267 154.868 45.103 Q153.985 43.939 153.985 42.314 Q153.985 41.189 154.392 40.243 Q154.798 39.298 155.564 38.782 Q156.329 38.267 157.360 38.267 Q158.735 38.267 159.626 39.267 L159.626 38.267 L160.845 38.267 L160.845 45.032 Q160.845 46.860 160.478 47.618 Q160.110 48.376 159.306 48.821 Q158.501 49.267 157.329 49.267 Q155.939 49.267 155.079 48.767 Q154.220 48.267 154.251 47.267 Z M155.345 42.220 Q155.345 43.798 155.954 44.532 Q156.564 45.267 157.470 45.267 Q158.376 45.267 158.993 44.540 Q159.610 43.814 159.610 42.267 Q159.610 40.767 158.978 40.017 Q158.345 39.267 157.454 39.267 Q156.579 39.267 155.962 40.009 Q155.345 40.751 155.345 42.220 Z"/>
  <path d="M167.970 44.267 L169.329 44.267 Q169.001 45.220 168.134 45.743 Q167.267 46.267 165.907 46.267 Q164.204 46.267 163.204 45.235 Q162.204 44.204 162.204 42.329 Q162.204 40.407 163.212 39.337 Q164.220 38.267 165.845 38.267 Q167.392 38.267 168.384 39.235 Q169.376 40.204 169.376 41.954 Q169.376 42.048 169.376 42.267 L163.564 42.267 Q163.642 43.720 164.290 44.493 Q164.939 45.267 165.923 45.267 Q166.642 45.267 167.157 45.024 Q167.673 44.782 167.970 44.267 Z M163.642 41.267 L167.985 41.267 Q167.892 40.392 167.485 39.954 Q166.860 39.267 165.860 39.267 Q164.939 39.267 164.321 39.814 Q163.704 40.360 163.642 41.267 Z"/>
  <path d=""/>
  <path d="M175.001 46.267 L175.001 35.267 L177.142 35.267 L179.689 42.860 Q180.048 43.923 180.204 44.454 Q180.392 43.876 180.782 42.735 L183.345 35.267 L185.251 35.267 L185.251 46.267 L183.876 46.267 L183.876 36.267 L180.767 46.267 L179.485 46.267 L176.376 36.267 L176.376 46.267 L175.001 46.267 Z"/>
  <path d="M186.610 42.267 Q186.610 40.142 187.814 39.110 Q188.814 38.267 190.251 38.267 Q191.860 38.267 192.876 39.298 Q193.892 40.329 193.892 42.157 Q193.892 43.642 193.439 44.485 Q192.985 45.329 192.126 45.798 Q191.267 46.267 190.251 46.267 Q188.626 46.267 187.618 45.235 Q186.610 44.204 186.610 42.267 Z M187.970 42.267 Q187.970 43.767 188.618 44.517 Q189.267 45.267 190.267 45.267 Q191.251 45.267 191.899 44.517 Q192.548 43.767 192.548 42.220 Q192.548 40.767 191.892 40.017 Q191.235 39.267 190.267 39.267 Q189.267 39.267 188.618 40.009 Q187.970 40.751 187.970 42.267 Z"/>
  <path d="M195.251 46.267 L195.251 38.267 L196.439 38.267 L196.439 39.376 Q197.298 38.267 198.923 38.267 Q199.626 38.267 200.212 38.524 Q200.798 38.782 201.095 39.189 Q201.392 39.595 201.501 40.173 Q201.579 40.532 201.579 41.454 L201.579 46.267 L200.251 46.267 L200.251 41.407 Q200.251 40.579 200.095 40.165 Q199.939 39.751 199.548 39.509 Q199.157 39.267 198.642 39.267 Q197.798 39.267 197.189 39.814 Q196.579 40.360 196.579 41.892 L196.579 46.267 L195.251 46.267 Z"/>
  <path d="M206.298 45.001 L206.485 46.173 Q205.923 46.267 205.485 46.267 Q204.767 46.267 204.376 46.032 Q203.985 45.798 203.821 45.423 Q203.657 45.048 203.657 43.829 L203.657 39.267 L202.689 39.267 L202.689 38.267 L203.657 38.267 L203.657 36.345 L204.970 35.548 L204.970 38.267 L206.298 38.267 L206.298 39.267 L204.970 39.267 L204.970 44.110 Q204.970 44.720 205.040 44.892 Q205.110 45.064 205.267 45.165 Q205.423 45.267 205.720 45.267 Q205.939 45.267 206.298 45.001 Z"/>
  <path d="M207.485 46.267 L207.485 35.267 L208.814 35.267 L208.814 39.204 Q209.735 38.267 211.142 38.267 Q212.001 38.267 212.642 38.610 Q213.282 38.954 213.556 39.556 Q213.829 40.157 213.829 41.314 L213.829 46.267 L212.501 46.267 L212.501 41.204 Q212.501 40.189 212.071 39.728 Q211.642 39.267 210.860 39.267 Q210.282 39.267 209.767 39.579 Q209.251 39.892 209.032 40.423 Q208.814 40.954 208.814 41.892 L208.814 46.267 L207.485 46.267 Z"/>
  <path d="M215.610 46.267 L215.610 35.267 L216.939 35.267 L216.939 46.267 L215.610 46.267 Z"/>
  <path d="M218.860 49.142 L218.704 48.157 Q219.142 48.267 219.454 48.267 Q219.892 48.267 220.157 48.118 Q220.423 47.970 220.595 47.689 Q220.720 47.485 221.001 46.673 Q221.032 46.564 221.110 46.345 L218.157 38.267 L219.579 38.267 L221.204 42.689 Q221.517 43.532 221.767 44.454 Q222.001 43.876 222.314 43.001 L223.970 38.267 L225.298 38.267 L222.329 46.407 Q221.860 47.626 221.595 48.079 Q221.235 48.689 220.782 48.978 Q220.329 49.267 219.704 49.267 Q219.329 49.267 218.860 49.142 Z"/>
  <path d=""/>
  <path d="M233.095 46.267 L233.095 36.267 L229.564 36.267 L229.564 35.267 L238.064 35.267 L238.064 36.267 L234.517 36.267 L234.517 46.267 L233.095 46.267 Z"/>
  <path d="M243.548 44.267 L244.907 44.267 Q244.579 45.220 243.712 45.743 Q242.845 46.267 241.485 46.267 Q239.782 46.267 238.782 45.235 Q237.782 44.204 237.782 42.329 Q237.782 40.407 238.790 39.337 Q239.798 38.267 241.423 38.267 Q242.970 38.267 243.962 39.235 Q244.954 40.204 244.954 41.954 Q244.954 42.048 244.954 42.267 L239.142 42.267 Q239.220 43.720 239.868 44.493 Q240.517 45.267 241.501 45.267 Q242.220 45.267 242.735 45.024 Q243.251 44.782 243.548 44.267 Z M239.220 41.267 L243.564 41.267 Q243.470 40.392 243.064 39.954 Q242.439 39.267 241.439 39.267 Q240.517 39.267 239.899 39.814 Q239.282 40.360 239.220 41.267 Z"/>
  <path d="M245.564 46.267 L245.564 38.267 L246.751 38.267 L246.751 39.392 Q247.110 38.892 247.720 38.579 Q248.329 38.267 249.110 38.267 Q249.970 38.267 250.517 38.587 Q251.064 38.907 251.298 39.485 Q252.220 38.267 253.704 38.267 Q254.860 38.267 255.485 38.915 Q256.110 39.564 256.110 40.892 L256.110 46.267 L254.798 46.267 L254.798 41.235 Q254.798 40.423 254.673 40.064 Q254.548 39.704 254.204 39.485 Q253.860 39.267 253.407 39.267 Q252.595 39.267 252.048 39.829 Q251.501 40.392 251.501 41.626 L251.501 46.267 L250.189 46.267 L250.189 41.079 Q250.189 40.173 249.868 39.720 Q249.548 39.267 248.814 39.267 Q248.251 39.267 247.782 39.571 Q247.314 39.876 247.103 40.454 Q246.892 41.032 246.892 42.126 L246.892 46.267 L245.564 46.267 Z"/>
  <path d="M257.782 49.267 L257.782 38.267 L258.985 38.267 L258.985 39.423 Q259.407 38.845 259.946 38.556 Q260.485 38.267 261.235 38.267 Q262.235 38.267 262.993 38.774 Q263.751 39.282 264.142 40.196 Q264.532 41.110 264.532 42.204 Q264.532 43.376 264.103 44.321 Q263.673 45.267 262.860 45.767 Q262.048 46.267 261.142 46.267 Q260.485 46.267 259.970 46.009 Q259.454 45.751 259.110 45.360 L259.110 49.267 L257.782 49.267 Z M258.985 42.329 Q258.985 43.829 259.595 44.548 Q260.204 45.267 261.064 45.267 Q261.939 45.267 262.564 44.524 Q263.189 43.782 263.189 42.220 Q263.189 40.735 262.579 40.001 Q261.970 39.267 261.126 39.267 Q260.282 39.267 259.634 40.056 Q258.985 40.845 258.985 42.329 Z"/>
  <path d="M271.267 44.267 L272.626 44.267 Q272.298 45.220 271.431 45.743 Q270.564 46.267 269.204 46.267 Q267.501 46.267 266.501 45.235 Q265.501 44.204 265.501 42.329 Q265.501 40.407 266.509 39.337 Q267.517 38.267 269.142 38.267 Q270.689 38.267 271.681 39.235 Q272.673 40.204 272.673 41.954 Q272.673 42.048 272.673 42.267 L266.860 42.267 Q266.939 43.720 267.587 44.493 Q268.235 45.267 269.220 45.267 Q269.939 45.267 270.454 45.024 Q270.970 44.782 271.267 44.267 Z M266.939 41.267 L271.282 41.267 Q271.189 40.392 270.782 39.954 Q270.157 39.267 269.157 39.267 Q268.235 39.267 267.618 39.814 Q267.001 40.360 266.939 41.267 Z"/>
  <path d="M274.079 46.267 L274.079 38.267 L275.267 38.267 L275.267 39.267 Q275.720 38.657 276.103 38.462 Q276.485 38.267 276.954 38.267 Q277.626 38.267 278.314 38.470 L277.860 39.689 Q277.376 39.267 276.892 39.267 Q276.454 39.267 276.110 39.540 Q275.767 39.814 275.626 40.298 Q275.407 41.048 275.407 41.939 L275.407 46.267 L274.079 46.267 Z"/>
  <path d="M284.064 45.267 Q283.329 45.814 282.649 46.040 Q281.970 46.267 281.204 46.267 Q279.923 46.267 279.235 45.657 Q278.548 45.048 278.548 44.095 Q278.548 43.532 278.806 43.071 Q279.064 42.610 279.485 42.329 Q279.907 42.048 280.439 41.907 Q280.829 41.798 281.610 41.704 Q283.204 41.532 283.954 41.267 Q283.970 40.985 283.970 40.907 Q283.970 40.079 283.595 39.735 Q283.095 39.267 282.095 39.267 Q281.157 39.267 280.720 39.485 Q280.282 39.704 280.064 40.267 L278.767 40.267 Q278.939 39.579 279.345 39.149 Q279.751 38.720 280.509 38.493 Q281.267 38.267 282.267 38.267 Q283.267 38.267 283.892 38.462 Q284.517 38.657 284.806 38.962 Q285.095 39.267 285.220 39.720 Q285.282 40.001 285.282 40.907 L285.282 42.735 Q285.282 44.642 285.368 45.196 Q285.454 45.751 285.704 46.267 L284.329 46.267 Q284.126 45.845 284.064 45.267 Z M283.954 42.267 Q283.235 42.548 281.798 42.751 Q280.985 42.876 280.649 43.017 Q280.314 43.157 280.134 43.439 Q279.954 43.720 279.954 44.048 Q279.954 44.579 280.353 44.923 Q280.751 45.267 281.517 45.267 Q282.282 45.267 282.876 44.899 Q283.470 44.532 283.751 43.985 Q283.954 43.564 283.954 42.720 L283.954 42.267 Z"/>
  <path d="M290.032 45.001 L290.220 46.173 Q289.657 46.267 289.220 46.267 Q288.501 46.267 288.110 46.032 Q287.720 45.798 287.556 45.423 Q287.392 45.048 287.392 43.829 L287.392 39.267 L286.423 39.267 L286.423 38.267 L287.392 38.267 L287.392 36.345 L288.704 35.548 L288.704 38.267 L290.032 38.267 L290.032 39.267 L288.704 39.267 L288.704 44.110 Q288.704 44.720 288.774 44.892 Q288.845 45.064 289.001 45.165 Q289.157 45.267 289.454 45.267 Q289.673 45.267 290.032 45.001 Z"/>
  <path d="M296.329 46.267 L296.329 45.079 Q295.423 46.267 293.860 46.267 Q293.157 46.267 292.564 46.001 Q291.970 45.735 291.681 45.337 Q291.392 44.939 291.267 44.345 Q291.189 43.954 291.189 43.110 L291.189 38.267 L292.517 38.267 L292.517 42.689 Q292.517 43.751 292.595 44.126 Q292.720 44.657 293.126 44.962 Q293.532 45.267 294.126 45.267 Q294.704 45.267 295.228 44.954 Q295.751 44.642 295.970 44.103 Q296.189 43.564 296.189 42.548 L296.189 38.267 L297.501 38.267 L297.501 46.267 L296.329 46.267 Z"/>
  <path d="M299.360 46.267 L299.360 38.267 L300.548 38.267 L300.548 39.267 Q301.001 38.657 301.384 38.462 Q301.767 38.267 302.235 38.267 Q302.907 38.267 303.595 38.470 L303.142 39.689 Q302.657 39.267 302.173 39.267 Q301.735 39.267 301.392 39.540 Q301.048 39.814 300.907 40.298 Q300.689 41.048 300.689 41.939 L300.689 46.267 L299.360 46.267 Z"/>
  <path d="M309.595 44.267 L310.954 44.267 Q310.626 45.220 309.759 45.743 Q308.892 46.267 307.532 46.267 Q305.829 46.267 304.829 45.235 Q303.829 44.204 303.829 42.329 Q303.829 40.407 304.837 39.337 Q305.845 38.267 307.470 38.267 Q309.017 38.267 310.009 39.235 Q311.001 40.204 311.001 41.954 Q311.001 42.048 311.001 42.267 L305.189 42.267 Q305.267 43.720 305.915 44.493 Q306.564 45.267 307.548 45.267 Q308.267 45.267 308.782 45.024 Q309.298 44.782 309.595 44.267 Z M305.267 41.267 L309.610 41.267 Q309.517 40.392 309.110 39.954 Q308.485 39.267 307.485 39.267 Q306.564 39.267 305.946 39.814 Q305.329 40.360 305.267 41.267 Z"/>
  <path d="M40.333 46.767 C37.296 46.767 34.833 44.304 34.833 41.267 C34.833 38.229 37.296 35.767 40.333 35.767 C43.371 35.767 45.833 38.229 45.833 41.267 C45.833 44.304 43.371 46.767 40.333 46.767 Z" fill="#aa4643"/>
</svg>
