<?xml version="1.0" encoding="UTF-8" ?>
<!-- Generated by clip v0.8.0 (clip-lang.org) -->
<svg xmlns="http://www.w3.org/2000/svg" width="2048" height="800">
  <rect width="2048" height="800" fill="#ffffff" fill-opacity="1"/>
  <path d="M326.875 763.333 L326.875 36.667" fill="none" stroke="#000000" stroke-width="3.333"/>
  <path d="M326.875 763.333 L340.208 763.333" fill="none" stroke="#000000" stroke-width="3.333"/>
  <path d="M326.875 682.593 L340.208 682.593" fill="none" stroke="#000000" stroke-width="3.333"/>
  <path d="M326.875 601.852 L340.208 601.852" fill="none" stroke="#000000" stroke-width="3.333"/>
  <path d="M326.875 521.111 L340.208 521.111" fill="none" stroke="#000000" stroke-width="3.333"/>
  <path d="M326.875 440.370 L340.208 440.370" fill="none" stroke="#000000" stroke-width="3.333"/>
  <path d="M326.875 359.630 L340.208 359.630" fill="none" stroke="#000000" stroke-width="3.333"/>
  <path d="M326.875 278.889 L340.208 278.889" fill="none" stroke="#000000" stroke-width="3.333"/>
  <path d="M326.875 198.148 L340.208 198.148" fill="none" stroke="#000000" stroke-width="3.333"/>
  <path d="M326.875 117.407 L340.208 117.407" fill="none" stroke="#000000" stroke-width="3.333"/>
  <path d="M326.875 36.667 L340.208 36.667" fill="none" stroke="#000000" stroke-width="3.333"/>
  <path d="M97.651 708.963 L101.151 708.963 L101.151 724.307 Q101.151 728.307 100.245 730.658 Q99.339 733.010 96.987 734.486 Q94.635 735.963 90.807 735.963 Q87.073 735.963 84.706 734.674 Q82.339 733.385 81.331 730.955 Q80.323 728.525 80.323 724.307 L80.323 708.963 L83.823 708.963 L83.823 724.385 Q83.823 727.869 84.464 729.525 Q85.104 731.182 86.667 732.072 Q88.229 732.963 90.495 732.963 Q94.354 732.963 96.003 731.197 Q97.651 729.432 97.651 724.385 L97.651 708.963 Z"/>
  <path d="M106.339 735.963 L106.339 715.963 L109.260 715.963 L109.260 718.697 Q111.370 715.963 115.370 715.963 Q117.104 715.963 118.557 716.596 Q120.010 717.229 120.737 718.260 Q121.464 719.291 121.745 720.713 Q121.932 721.635 121.932 723.932 L121.932 735.963 L118.682 735.963 L118.682 724.150 Q118.682 722.150 118.299 721.150 Q117.917 720.150 116.956 719.557 Q115.995 718.963 114.682 718.963 Q112.604 718.963 111.096 720.299 Q109.589 721.635 109.589 725.369 L109.589 735.963 L106.339 735.963 Z"/>
  <path d="M126.745 711.963 L126.745 708.963 L129.995 708.963 L129.995 711.963 L126.745 711.963 Z M126.745 735.963 L126.745 715.963 L129.995 715.963 L129.995 735.963 L126.745 735.963 Z"/>
  <path d="M141.979 732.807 L142.448 735.682 Q141.073 735.963 139.995 735.963 Q138.214 735.963 137.237 735.400 Q136.260 734.838 135.862 733.924 Q135.464 733.010 135.464 730.057 L135.464 718.963 L133.089 718.963 L133.089 715.963 L135.464 715.963 L135.464 711.213 L138.698 709.260 L138.698 715.963 L141.979 715.963 L141.979 718.963 L138.698 718.963 L138.698 730.275 Q138.698 731.682 138.870 732.088 Q139.042 732.494 139.432 732.729 Q139.823 732.963 140.542 732.963 Q141.089 732.963 141.979 732.807 Z"/>
  <path d="M158.198 729.963 L161.557 729.963 Q160.760 732.807 158.612 734.385 Q156.464 735.963 153.120 735.963 Q148.917 735.963 146.448 733.377 Q143.979 730.791 143.979 726.119 Q143.979 721.291 146.471 718.627 Q148.964 715.963 152.948 715.963 Q156.792 715.963 159.229 718.619 Q161.667 721.275 161.667 726.088 Q161.667 726.385 161.651 726.963 L147.339 726.963 Q147.526 729.869 149.128 731.416 Q150.729 732.963 153.135 732.963 Q154.932 732.963 156.198 732.244 Q157.464 731.525 158.198 729.963 Z M147.510 723.963 L158.229 723.963 Q158.010 721.760 156.995 720.666 Q155.448 718.963 152.964 718.963 Q150.729 718.963 149.198 720.322 Q147.667 721.682 147.510 723.963 Z"/>
  <path d="M177.901 735.963 L177.901 732.760 Q176.073 735.963 172.542 735.963 Q170.245 735.963 168.315 734.705 Q166.385 733.447 165.331 731.182 Q164.276 728.916 164.276 725.979 Q164.276 723.119 165.237 720.783 Q166.198 718.447 168.112 717.205 Q170.026 715.963 172.385 715.963 Q174.120 715.963 175.479 716.775 Q176.839 717.588 177.682 718.900 L177.682 708.963 L180.917 708.963 L180.917 735.963 L177.901 735.963 Z M167.620 725.979 Q167.620 729.479 169.174 731.221 Q170.729 732.963 172.839 732.963 Q174.964 732.963 176.456 731.299 Q177.948 729.635 177.948 726.229 Q177.948 722.479 176.432 720.721 Q174.917 718.963 172.698 718.963 Q170.526 718.963 169.073 720.650 Q167.620 722.338 167.620 725.979 Z"/>
  <path d=""/>
  <path d="M195.245 726.963 L198.557 726.963 Q198.792 728.916 199.651 730.166 Q200.510 731.416 202.315 732.190 Q204.120 732.963 206.385 732.963 Q208.385 732.963 209.924 732.377 Q211.464 731.791 212.214 730.768 Q212.964 729.744 212.964 728.525 Q212.964 727.275 212.237 726.346 Q211.510 725.416 209.839 724.791 Q208.776 724.369 205.128 723.502 Q201.479 722.635 200.010 721.869 Q198.120 720.885 197.190 719.432 Q196.260 717.979 196.260 716.166 Q196.260 714.197 197.401 712.471 Q198.542 710.744 200.729 709.854 Q202.917 708.963 205.589 708.963 Q208.526 708.963 210.776 709.924 Q213.026 710.885 214.237 712.744 Q215.448 714.604 215.542 716.963 L212.182 716.963 Q211.917 714.494 210.346 713.229 Q208.776 711.963 205.729 711.963 Q202.542 711.963 201.089 713.119 Q199.635 714.275 199.635 715.900 Q199.635 717.322 200.667 718.229 Q201.682 719.150 205.956 720.111 Q210.229 721.072 211.823 721.791 Q214.135 722.838 215.237 724.447 Q216.339 726.057 216.339 728.150 Q216.339 730.229 215.128 732.072 Q213.917 733.916 211.651 734.940 Q209.385 735.963 206.542 735.963 Q202.948 735.963 200.518 734.908 Q198.089 733.854 196.706 731.744 Q195.323 729.635 195.245 726.963 Z"/>
  <path d="M227.589 732.807 L228.057 735.682 Q226.682 735.963 225.604 735.963 Q223.823 735.963 222.846 735.400 Q221.870 734.838 221.471 733.924 Q221.073 733.010 221.073 730.057 L221.073 718.963 L218.698 718.963 L218.698 715.963 L221.073 715.963 L221.073 711.213 L224.307 709.260 L224.307 715.963 L227.589 715.963 L227.589 718.963 L224.307 718.963 L224.307 730.275 Q224.307 731.682 224.479 732.088 Q224.651 732.494 225.042 732.729 Q225.432 732.963 226.151 732.963 Q226.698 732.963 227.589 732.807 Z"/>
  <path d="M243.182 733.963 Q241.385 735.057 239.714 735.510 Q238.042 735.963 236.135 735.963 Q232.964 735.963 231.268 734.369 Q229.573 732.775 229.573 730.307 Q229.573 728.854 230.214 727.650 Q230.854 726.447 231.893 725.721 Q232.932 724.994 234.229 724.619 Q235.182 724.354 237.120 724.119 Q241.057 723.635 242.917 722.963 Q242.932 722.400 242.932 722.244 Q242.932 720.572 242.010 719.885 Q240.760 718.963 238.307 718.963 Q236.010 718.963 234.924 719.627 Q233.839 720.291 233.307 721.963 L230.120 721.963 Q230.557 719.885 231.549 718.611 Q232.542 717.338 234.417 716.650 Q236.292 715.963 238.776 715.963 Q241.229 715.963 242.768 716.557 Q244.307 717.150 245.026 718.049 Q245.745 718.947 246.042 720.322 Q246.198 721.182 246.198 723.229 L246.198 727.307 Q246.198 731.588 246.409 733.088 Q246.620 734.588 247.229 735.963 L243.839 735.963 Q243.323 735.104 243.182 733.963 Z M242.917 725.963 Q241.151 726.635 237.604 727.104 Q235.604 727.369 234.776 727.713 Q233.948 728.057 233.495 728.697 Q233.042 729.338 233.042 730.135 Q233.042 731.354 234.026 732.158 Q235.010 732.963 236.901 732.963 Q238.792 732.963 240.253 732.150 Q241.714 731.338 242.401 730.025 Q242.917 729.025 242.917 727.057 L242.917 725.963 Z"/>
  <path d="M258.167 732.807 L258.635 735.682 Q257.260 735.963 256.182 735.963 Q254.401 735.963 253.424 735.400 Q252.448 734.838 252.049 733.924 Q251.651 733.010 251.651 730.057 L251.651 718.963 L249.276 718.963 L249.276 715.963 L251.651 715.963 L251.651 711.213 L254.885 709.260 L254.885 715.963 L258.167 715.963 L258.167 718.963 L254.885 718.963 L254.885 730.275 Q254.885 731.682 255.057 732.088 Q255.229 732.494 255.620 732.729 Q256.010 732.963 256.729 732.963 Q257.276 732.963 258.167 732.807 Z"/>
  <path d="M274.385 729.963 L277.745 729.963 Q276.948 732.807 274.799 734.385 Q272.651 735.963 269.307 735.963 Q265.104 735.963 262.635 733.377 Q260.167 730.791 260.167 726.119 Q260.167 721.291 262.659 718.627 Q265.151 715.963 269.135 715.963 Q272.979 715.963 275.417 718.619 Q277.854 721.275 277.854 726.088 Q277.854 726.385 277.839 726.963 L263.526 726.963 Q263.714 729.869 265.315 731.416 Q266.917 732.963 269.323 732.963 Q271.120 732.963 272.385 732.244 Q273.651 731.525 274.385 729.963 Z M263.698 723.963 L274.417 723.963 Q274.198 721.760 273.182 720.666 Q271.635 718.963 269.151 718.963 Q266.917 718.963 265.385 720.322 Q263.854 721.682 263.698 723.963 Z"/>
  <path d="M280.339 728.963 L283.557 728.963 Q283.823 730.900 285.065 731.932 Q286.307 732.963 288.526 732.963 Q290.760 732.963 291.846 732.127 Q292.932 731.291 292.932 730.182 Q292.932 729.166 291.979 728.588 Q291.307 728.197 288.651 727.588 Q285.073 726.682 283.690 726.010 Q282.307 725.338 281.596 724.158 Q280.885 722.979 280.885 721.557 Q280.885 720.260 281.471 719.150 Q282.057 718.041 283.073 717.322 Q283.823 716.744 285.135 716.354 Q286.448 715.963 287.948 715.963 Q290.198 715.963 291.901 716.690 Q293.604 717.416 294.417 718.650 Q295.229 719.885 295.542 721.963 L292.370 721.963 Q292.151 720.557 291.112 719.760 Q290.073 718.963 288.182 718.963 Q285.948 718.963 284.987 719.635 Q284.026 720.307 284.026 721.213 Q284.026 721.775 284.417 722.244 Q284.823 722.713 285.667 723.025 Q286.151 723.182 288.542 723.775 Q291.995 724.713 293.362 725.299 Q294.729 725.885 295.503 727.018 Q296.276 728.150 296.276 729.838 Q296.276 731.479 295.331 732.924 Q294.385 734.369 292.596 735.166 Q290.807 735.963 288.542 735.963 Q284.807 735.963 282.846 734.197 Q280.885 732.432 280.339 728.963 Z"/>
  <path d="M223.495 645.613 L226.995 646.472 Q225.885 650.738 223.026 652.980 Q220.167 655.222 216.026 655.222 Q211.745 655.222 209.065 653.503 Q206.385 651.785 204.987 648.527 Q203.589 645.269 203.589 641.519 Q203.589 637.441 205.167 634.410 Q206.745 631.378 209.667 629.800 Q212.589 628.222 216.089 628.222 Q220.073 628.222 222.784 630.222 Q225.495 632.222 226.557 635.847 L223.104 636.644 Q222.182 633.816 220.432 632.519 Q218.682 631.222 216.026 631.222 Q212.964 631.222 210.909 632.660 Q208.854 634.097 208.026 636.519 Q207.198 638.941 207.198 641.503 Q207.198 644.832 208.182 647.300 Q209.167 649.769 211.245 650.996 Q213.323 652.222 215.745 652.222 Q218.682 652.222 220.729 650.558 Q222.776 648.894 223.495 645.613 Z"/>
  <path d="M230.667 655.222 L230.667 628.222 L233.917 628.222 L233.917 638.050 Q236.198 635.222 239.667 635.222 Q241.792 635.222 243.362 636.082 Q244.932 636.941 245.612 638.449 Q246.292 639.957 246.292 642.832 L246.292 655.222 L243.042 655.222 L243.042 642.941 Q243.042 640.472 241.987 639.347 Q240.932 638.222 238.995 638.222 Q237.557 638.222 236.284 638.980 Q235.010 639.738 234.464 641.035 Q233.917 642.332 233.917 644.613 L233.917 655.222 L230.667 655.222 Z"/>
  <path d="M251.073 631.222 L251.073 628.222 L254.323 628.222 L254.323 631.222 L251.073 631.222 Z M251.073 655.222 L251.073 635.222 L254.323 635.222 L254.323 655.222 L251.073 655.222 Z"/>
  <path d="M259.198 655.222 L259.198 635.222 L262.120 635.222 L262.120 637.957 Q264.229 635.222 268.229 635.222 Q269.964 635.222 271.417 635.855 Q272.870 636.488 273.596 637.519 Q274.323 638.550 274.604 639.972 Q274.792 640.894 274.792 643.191 L274.792 655.222 L271.542 655.222 L271.542 643.410 Q271.542 641.410 271.159 640.410 Q270.776 639.410 269.815 638.816 Q268.854 638.222 267.542 638.222 Q265.464 638.222 263.956 639.558 Q262.448 640.894 262.448 644.628 L262.448 655.222 L259.198 655.222 Z"/>
  <path d="M292.104 653.222 Q290.307 654.316 288.635 654.769 Q286.964 655.222 285.057 655.222 Q281.885 655.222 280.190 653.628 Q278.495 652.035 278.495 649.566 Q278.495 648.113 279.135 646.910 Q279.776 645.707 280.815 644.980 Q281.854 644.253 283.151 643.878 Q284.104 643.613 286.042 643.378 Q289.979 642.894 291.839 642.222 Q291.854 641.660 291.854 641.503 Q291.854 639.832 290.932 639.144 Q289.682 638.222 287.229 638.222 Q284.932 638.222 283.846 638.886 Q282.760 639.550 282.229 641.222 L279.042 641.222 Q279.479 639.144 280.471 637.871 Q281.464 636.597 283.339 635.910 Q285.214 635.222 287.698 635.222 Q290.151 635.222 291.690 635.816 Q293.229 636.410 293.948 637.308 Q294.667 638.207 294.964 639.582 Q295.120 640.441 295.120 642.488 L295.120 646.566 Q295.120 650.847 295.331 652.347 Q295.542 653.847 296.151 655.222 L292.760 655.222 Q292.245 654.363 292.104 653.222 Z M291.839 645.222 Q290.073 645.894 286.526 646.363 Q284.526 646.628 283.698 646.972 Q282.870 647.316 282.417 647.957 Q281.964 648.597 281.964 649.394 Q281.964 650.613 282.948 651.418 Q283.932 652.222 285.823 652.222 Q287.714 652.222 289.174 651.410 Q290.635 650.597 291.323 649.285 Q291.839 648.285 291.839 646.316 L291.839 645.222 Z"/>
  <path d="M198.698 566.888 L201.870 566.481 Q201.995 569.356 203.010 570.419 Q204.026 571.481 205.807 571.481 Q207.120 571.481 208.081 570.872 Q209.042 570.263 209.401 569.216 Q209.760 568.169 209.760 565.872 L209.760 547.481 L213.260 547.481 L213.260 565.575 Q213.260 568.903 212.456 570.731 Q211.651 572.560 209.909 573.521 Q208.167 574.481 205.823 574.481 Q202.323 574.481 200.479 572.575 Q198.635 570.669 198.698 566.888 Z"/>
  <path d="M230.932 572.481 Q229.135 573.575 227.464 574.028 Q225.792 574.481 223.885 574.481 Q220.714 574.481 219.018 572.888 Q217.323 571.294 217.323 568.825 Q217.323 567.372 217.964 566.169 Q218.604 564.966 219.643 564.239 Q220.682 563.513 221.979 563.138 Q222.932 562.872 224.870 562.638 Q228.807 562.153 230.667 561.481 Q230.682 560.919 230.682 560.763 Q230.682 559.091 229.760 558.403 Q228.510 557.481 226.057 557.481 Q223.760 557.481 222.674 558.146 Q221.589 558.810 221.057 560.481 L217.870 560.481 Q218.307 558.403 219.299 557.130 Q220.292 555.856 222.167 555.169 Q224.042 554.481 226.526 554.481 Q228.979 554.481 230.518 555.075 Q232.057 555.669 232.776 556.567 Q233.495 557.466 233.792 558.841 Q233.948 559.700 233.948 561.747 L233.948 565.825 Q233.948 570.106 234.159 571.606 Q234.370 573.106 234.979 574.481 L231.589 574.481 Q231.073 573.622 230.932 572.481 Z M230.667 564.481 Q228.901 565.153 225.354 565.622 Q223.354 565.888 222.526 566.231 Q221.698 566.575 221.245 567.216 Q220.792 567.856 220.792 568.653 Q220.792 569.872 221.776 570.677 Q222.760 571.481 224.651 571.481 Q226.542 571.481 228.003 570.669 Q229.464 569.856 230.151 568.544 Q230.667 567.544 230.667 565.575 L230.667 564.481 Z"/>
  <path d="M238.807 581.481 L238.807 554.481 L241.776 554.481 L241.776 557.841 Q242.823 556.153 244.143 555.317 Q245.464 554.481 247.339 554.481 Q249.792 554.481 251.667 555.739 Q253.542 556.997 254.503 559.294 Q255.464 561.591 255.464 564.341 Q255.464 567.278 254.409 569.630 Q253.354 571.981 251.339 573.231 Q249.323 574.481 247.104 574.481 Q245.479 574.481 244.182 573.708 Q242.885 572.935 242.057 571.763 L242.057 581.481 L238.807 581.481 Z M241.760 564.638 Q241.760 568.138 243.260 569.810 Q244.760 571.481 246.885 571.481 Q249.057 571.481 250.596 569.747 Q252.135 568.013 252.135 564.388 Q252.135 560.919 250.628 559.200 Q249.120 557.481 247.026 557.481 Q244.948 557.481 243.354 559.317 Q241.760 561.153 241.760 564.638 Z"/>
  <path d="M271.714 572.481 Q269.917 573.575 268.245 574.028 Q266.573 574.481 264.667 574.481 Q261.495 574.481 259.799 572.888 Q258.104 571.294 258.104 568.825 Q258.104 567.372 258.745 566.169 Q259.385 564.966 260.424 564.239 Q261.464 563.513 262.760 563.138 Q263.714 562.872 265.651 562.638 Q269.589 562.153 271.448 561.481 Q271.464 560.919 271.464 560.763 Q271.464 559.091 270.542 558.403 Q269.292 557.481 266.839 557.481 Q264.542 557.481 263.456 558.146 Q262.370 558.810 261.839 560.481 L258.651 560.481 Q259.089 558.403 260.081 557.130 Q261.073 555.856 262.948 555.169 Q264.823 554.481 267.307 554.481 Q269.760 554.481 271.299 555.075 Q272.839 555.669 273.557 556.567 Q274.276 557.466 274.573 558.841 Q274.729 559.700 274.729 561.747 L274.729 565.825 Q274.729 570.106 274.940 571.606 Q275.151 573.106 275.760 574.481 L272.370 574.481 Q271.854 573.622 271.714 572.481 Z M271.448 564.481 Q269.682 565.153 266.135 565.622 Q264.135 565.888 263.307 566.231 Q262.479 566.575 262.026 567.216 Q261.573 567.856 261.573 568.653 Q261.573 569.872 262.557 570.677 Q263.542 571.481 265.432 571.481 Q267.323 571.481 268.784 570.669 Q270.245 569.856 270.932 568.544 Q271.448 567.544 271.448 565.575 L271.448 564.481 Z"/>
  <path d="M279.589 574.481 L279.589 554.481 L282.510 554.481 L282.510 557.216 Q284.620 554.481 288.620 554.481 Q290.354 554.481 291.807 555.114 Q293.260 555.747 293.987 556.778 Q294.714 557.810 294.995 559.231 Q295.182 560.153 295.182 562.450 L295.182 574.481 L291.932 574.481 L291.932 562.669 Q291.932 560.669 291.549 559.669 Q291.167 558.669 290.206 558.075 Q289.245 557.481 287.932 557.481 Q285.854 557.481 284.346 558.817 Q282.839 560.153 282.839 563.888 L282.839 574.481 L279.589 574.481 Z"/>
  <path d="M161.979 482.741 L161.979 479.741 L173.198 479.741 L173.198 489.600 Q170.620 491.663 167.870 492.702 Q165.120 493.741 162.229 493.741 Q158.323 493.741 155.135 492.092 Q151.948 490.444 150.323 487.327 Q148.698 484.209 148.698 480.366 Q148.698 476.553 150.315 473.249 Q151.932 469.944 154.964 468.342 Q157.995 466.741 161.948 466.741 Q164.823 466.741 167.143 467.647 Q169.464 468.553 170.784 470.170 Q172.104 471.788 172.792 474.397 L169.635 475.256 Q169.042 473.288 168.159 472.178 Q167.276 471.069 165.628 470.405 Q163.979 469.741 161.979 469.741 Q159.573 469.741 157.823 470.467 Q156.073 471.194 154.995 472.374 Q153.917 473.553 153.323 474.959 Q152.307 477.397 152.307 480.225 Q152.307 483.741 153.526 486.100 Q154.745 488.459 157.073 489.600 Q159.401 490.741 162.026 490.741 Q164.307 490.741 166.471 489.827 Q168.635 488.913 169.760 487.881 L169.760 482.741 L161.979 482.741 Z"/>
  <path d="M190.839 487.741 L194.198 487.741 Q193.401 490.584 191.253 492.163 Q189.104 493.741 185.760 493.741 Q181.557 493.741 179.089 491.155 Q176.620 488.569 176.620 483.897 Q176.620 479.069 179.112 476.405 Q181.604 473.741 185.589 473.741 Q189.432 473.741 191.870 476.397 Q194.307 479.053 194.307 483.866 Q194.307 484.163 194.292 484.741 L179.979 484.741 Q180.167 487.647 181.768 489.194 Q183.370 490.741 185.776 490.741 Q187.573 490.741 188.839 490.022 Q190.104 489.303 190.839 487.741 Z M180.151 481.741 L190.870 481.741 Q190.651 479.538 189.635 478.444 Q188.089 476.741 185.604 476.741 Q183.370 476.741 181.839 478.100 Q180.307 479.459 180.151 481.741 Z"/>
  <path d="M198.057 493.741 L198.057 473.741 L200.979 473.741 L200.979 476.725 Q202.104 474.897 203.049 474.319 Q203.995 473.741 205.135 473.741 Q206.776 473.741 208.479 474.366 L207.354 477.381 Q206.167 476.741 204.979 476.741 Q203.917 476.741 203.065 477.413 Q202.214 478.084 201.854 479.272 Q201.307 481.084 201.307 483.241 L201.307 493.741 L198.057 493.741 Z"/>
  <path d="M210.307 493.741 L210.307 473.741 L213.214 473.741 L213.214 477.053 Q214.120 475.553 215.620 474.647 Q217.120 473.741 219.026 473.741 Q221.167 473.741 222.526 474.678 Q223.885 475.616 224.448 477.288 Q226.729 473.741 230.385 473.741 Q233.229 473.741 234.768 475.350 Q236.307 476.959 236.307 480.319 L236.307 493.741 L233.073 493.741 L233.073 481.506 Q233.073 479.538 232.760 478.670 Q232.448 477.803 231.612 477.272 Q230.776 476.741 229.667 476.741 Q227.635 476.741 226.299 478.100 Q224.964 479.459 224.964 482.459 L224.964 493.741 L221.714 493.741 L221.714 481.131 Q221.714 478.928 220.917 477.834 Q220.120 476.741 218.307 476.741 Q216.932 476.741 215.768 477.475 Q214.604 478.209 214.081 479.616 Q213.557 481.022 213.557 483.678 L213.557 493.741 L210.307 493.741 Z"/>
  <path d="M253.370 491.741 Q251.573 492.834 249.901 493.288 Q248.229 493.741 246.323 493.741 Q243.151 493.741 241.456 492.147 Q239.760 490.553 239.760 488.084 Q239.760 486.631 240.401 485.428 Q241.042 484.225 242.081 483.499 Q243.120 482.772 244.417 482.397 Q245.370 482.131 247.307 481.897 Q251.245 481.413 253.104 480.741 Q253.120 480.178 253.120 480.022 Q253.120 478.350 252.198 477.663 Q250.948 476.741 248.495 476.741 Q246.198 476.741 245.112 477.405 Q244.026 478.069 243.495 479.741 L240.307 479.741 Q240.745 477.663 241.737 476.389 Q242.729 475.116 244.604 474.428 Q246.479 473.741 248.964 473.741 Q251.417 473.741 252.956 474.334 Q254.495 474.928 255.214 475.827 Q255.932 476.725 256.229 478.100 Q256.385 478.959 256.385 481.006 L256.385 485.084 Q256.385 489.366 256.596 490.866 Q256.807 492.366 257.417 493.741 L254.026 493.741 Q253.510 492.881 253.370 491.741 Z M253.104 483.741 Q251.339 484.413 247.792 484.881 Q245.792 485.147 244.964 485.491 Q244.135 485.834 243.682 486.475 Q243.229 487.116 243.229 487.913 Q243.229 489.131 244.214 489.936 Q245.198 490.741 247.089 490.741 Q248.979 490.741 250.440 489.928 Q251.901 489.116 252.589 487.803 Q253.104 486.803 253.104 484.834 L253.104 483.741 Z"/>
  <path d="M261.245 493.741 L261.245 473.741 L264.167 473.741 L264.167 476.475 Q266.276 473.741 270.276 473.741 Q272.010 473.741 273.464 474.374 Q274.917 475.006 275.643 476.038 Q276.370 477.069 276.651 478.491 Q276.839 479.413 276.839 481.709 L276.839 493.741 L273.589 493.741 L273.589 481.928 Q273.589 479.928 273.206 478.928 Q272.823 477.928 271.862 477.334 Q270.901 476.741 269.589 476.741 Q267.510 476.741 266.003 478.077 Q264.495 479.413 264.495 483.147 L264.495 493.741 L261.245 493.741 Z"/>
  <path d="M281.495 500.366 L281.135 497.459 Q282.198 497.741 282.995 497.741 Q284.073 497.741 284.721 497.374 Q285.370 497.006 285.792 496.350 Q286.104 495.866 286.792 493.913 Q286.870 493.647 287.073 493.116 L279.792 473.741 L283.292 473.741 L287.292 484.803 Q288.073 486.913 288.682 489.225 Q289.245 487.834 290.026 485.694 L294.120 473.741 L297.370 473.741 L290.073 494.116 Q288.901 496.928 288.245 497.975 Q287.385 499.413 286.260 500.077 Q285.135 500.741 283.589 500.741 Q282.651 500.741 281.495 500.366 Z"/>
  <path d="M56.901 386 L60.401 386 L60.401 401.344 Q60.401 405.344 59.495 407.695 Q58.589 410.047 56.237 411.523 Q53.885 413 50.057 413 Q46.323 413 43.956 411.711 Q41.589 410.422 40.581 407.992 Q39.573 405.562 39.573 401.344 L39.573 386 L43.073 386 L43.073 401.422 Q43.073 404.906 43.714 406.562 Q44.354 408.219 45.917 409.109 Q47.479 410 49.745 410 Q53.604 410 55.253 408.234 Q56.901 406.469 56.901 401.422 L56.901 386 Z"/>
  <path d="M65.589 413 L65.589 393 L68.510 393 L68.510 395.734 Q70.620 393 74.620 393 Q76.354 393 77.807 393.633 Q79.260 394.266 79.987 395.297 Q80.714 396.328 80.995 397.750 Q81.182 398.672 81.182 400.969 L81.182 413 L77.932 413 L77.932 401.188 Q77.932 399.188 77.549 398.188 Q77.167 397.188 76.206 396.594 Q75.245 396 73.932 396 Q71.854 396 70.346 397.336 Q68.839 398.672 68.839 402.406 L68.839 413 L65.589 413 Z"/>
  <path d="M85.995 389 L85.995 386 L89.245 386 L89.245 389 L85.995 389 Z M85.995 413 L85.995 393 L89.245 393 L89.245 413 L85.995 413 Z"/>
  <path d="M101.229 409.844 L101.698 412.719 Q100.323 413 99.245 413 Q97.464 413 96.487 412.438 Q95.510 411.875 95.112 410.961 Q94.714 410.047 94.714 407.094 L94.714 396 L92.339 396 L92.339 393 L94.714 393 L94.714 388.250 L97.948 386.297 L97.948 393 L101.229 393 L101.229 396 L97.948 396 L97.948 407.312 Q97.948 408.719 98.120 409.125 Q98.292 409.531 98.682 409.766 Q99.073 410 99.792 410 Q100.339 410 101.229 409.844 Z"/>
  <path d="M117.448 407 L120.807 407 Q120.010 409.844 117.862 411.422 Q115.714 413 112.370 413 Q108.167 413 105.698 410.414 Q103.229 407.828 103.229 403.156 Q103.229 398.328 105.721 395.664 Q108.214 393 112.198 393 Q116.042 393 118.479 395.656 Q120.917 398.312 120.917 403.125 Q120.917 403.422 120.901 404 L106.589 404 Q106.776 406.906 108.378 408.453 Q109.979 410 112.385 410 Q114.182 410 115.448 409.281 Q116.714 408.562 117.448 407 Z M106.760 401 L117.479 401 Q117.260 398.797 116.245 397.703 Q114.698 396 112.214 396 Q109.979 396 108.448 397.359 Q106.917 398.719 106.760 401 Z"/>
  <path d="M137.151 413 L137.151 409.797 Q135.323 413 131.792 413 Q129.495 413 127.565 411.742 Q125.635 410.484 124.581 408.219 Q123.526 405.953 123.526 403.016 Q123.526 400.156 124.487 397.820 Q125.448 395.484 127.362 394.242 Q129.276 393 131.635 393 Q133.370 393 134.729 393.812 Q136.089 394.625 136.932 395.938 L136.932 386 L140.167 386 L140.167 413 L137.151 413 Z M126.870 403.016 Q126.870 406.516 128.424 408.258 Q129.979 410 132.089 410 Q134.214 410 135.706 408.336 Q137.198 406.672 137.198 403.266 Q137.198 399.516 135.682 397.758 Q134.167 396 131.948 396 Q129.776 396 128.323 397.688 Q126.870 399.375 126.870 403.016 Z"/>
  <path d=""/>
  <path d="M155.542 413 L155.542 386 L159.057 386 L159.057 399.234 L172.214 386 L176.964 386 L165.854 397.203 L177.448 413 L172.823 413 L163.385 399.703 L159.057 404 L159.057 413 L155.542 413 Z"/>
  <path d="M179.745 389 L179.745 386 L182.995 386 L182.995 389 L179.745 389 Z M179.745 413 L179.745 393 L182.995 393 L182.995 413 L179.745 413 Z"/>
  <path d="M187.870 413 L187.870 393 L190.792 393 L190.792 395.734 Q192.901 393 196.901 393 Q198.635 393 200.089 393.633 Q201.542 394.266 202.268 395.297 Q202.995 396.328 203.276 397.750 Q203.464 398.672 203.464 400.969 L203.464 413 L200.214 413 L200.214 401.188 Q200.214 399.188 199.831 398.188 Q199.448 397.188 198.487 396.594 Q197.526 396 196.214 396 Q194.135 396 192.628 397.336 Q191.120 398.672 191.120 402.406 L191.120 413 L187.870 413 Z"/>
  <path d="M207.667 414 L210.823 414 Q211.026 415.453 211.932 416.109 Q213.135 417 215.229 417 Q217.495 417 218.721 416.289 Q219.948 415.578 220.385 414.297 Q220.635 413.516 220.620 411 Q218.495 413 215.307 413 Q211.354 413 209.182 410.094 Q207.010 407.188 207.010 403.109 Q207.010 400.312 208.003 397.945 Q208.995 395.578 210.885 394.289 Q212.776 393 215.323 393 Q218.729 393 220.932 396 L220.932 393 L223.932 393 L223.932 409.594 Q223.932 414.094 223.018 415.961 Q222.104 417.828 220.128 418.914 Q218.151 420 215.260 420 Q211.823 420 209.706 418.508 Q207.589 417.016 207.667 414 Z M210.354 402.875 Q210.354 406.594 211.854 408.297 Q213.354 410 215.604 410 Q217.854 410 219.370 408.305 Q220.885 406.609 220.885 402.984 Q220.885 399.516 219.323 397.758 Q217.760 396 215.557 396 Q213.385 396 211.870 397.734 Q210.354 399.469 210.354 402.875 Z"/>
  <path d="M241.104 413 L241.104 409.797 Q239.276 413 235.745 413 Q233.448 413 231.518 411.742 Q229.589 410.484 228.534 408.219 Q227.479 405.953 227.479 403.016 Q227.479 400.156 228.440 397.820 Q229.401 395.484 231.315 394.242 Q233.229 393 235.589 393 Q237.323 393 238.682 393.812 Q240.042 394.625 240.885 395.938 L240.885 386 L244.120 386 L244.120 413 L241.104 413 Z M230.823 403.016 Q230.823 406.516 232.378 408.258 Q233.932 410 236.042 410 Q238.167 410 239.659 408.336 Q241.151 406.672 241.151 403.266 Q241.151 399.516 239.635 397.758 Q238.120 396 235.901 396 Q233.729 396 232.276 397.688 Q230.823 399.375 230.823 403.016 Z"/>
  <path d="M247.839 403 Q247.839 397.688 250.807 395.125 Q253.276 393 256.839 393 Q260.792 393 263.299 395.586 Q265.807 398.172 265.807 402.734 Q265.807 406.422 264.698 408.539 Q263.589 410.656 261.464 411.828 Q259.339 413 256.839 413 Q252.807 413 250.323 410.422 Q247.839 407.844 247.839 403 Z M251.182 402.984 Q251.182 406.500 252.792 408.250 Q254.401 410 256.839 410 Q259.245 410 260.854 408.242 Q262.464 406.484 262.464 402.891 Q262.464 399.500 260.846 397.750 Q259.229 396 256.839 396 Q254.401 396 252.792 397.742 Q251.182 399.484 251.182 402.984 Z"/>
  <path d="M269.432 413 L269.432 393 L272.339 393 L272.339 396.312 Q273.245 394.812 274.745 393.906 Q276.245 393 278.151 393 Q280.292 393 281.651 393.938 Q283.010 394.875 283.573 396.547 Q285.854 393 289.510 393 Q292.354 393 293.893 394.609 Q295.432 396.219 295.432 399.578 L295.432 413 L292.198 413 L292.198 400.766 Q292.198 398.797 291.885 397.930 Q291.573 397.062 290.737 396.531 Q289.901 396 288.792 396 Q286.760 396 285.424 397.359 Q284.089 398.719 284.089 401.719 L284.089 413 L280.839 413 L280.839 400.391 Q280.839 398.188 280.042 397.094 Q279.245 396 277.432 396 Q276.057 396 274.893 396.734 Q273.729 397.469 273.206 398.875 Q272.682 400.281 272.682 402.938 L272.682 413 L269.432 413 Z"/>
  <path d="M186.432 332.259 L186.432 305.259 L204.307 305.259 L204.307 308.259 L189.948 308.259 L189.948 317.259 L202.370 317.259 L202.370 320.259 L189.948 320.259 L189.948 332.259 L186.432 332.259 Z"/>
  <path d="M208.214 332.259 L208.214 312.259 L211.135 312.259 L211.135 315.244 Q212.260 313.416 213.206 312.837 Q214.151 312.259 215.292 312.259 Q216.932 312.259 218.635 312.884 L217.510 315.900 Q216.323 315.259 215.135 315.259 Q214.073 315.259 213.221 315.931 Q212.370 316.603 212.010 317.791 Q211.464 319.603 211.464 321.759 L211.464 332.259 L208.214 332.259 Z"/>
  <path d="M232.979 330.259 Q231.182 331.353 229.510 331.806 Q227.839 332.259 225.932 332.259 Q222.760 332.259 221.065 330.666 Q219.370 329.072 219.370 326.603 Q219.370 325.150 220.010 323.947 Q220.651 322.744 221.690 322.017 Q222.729 321.291 224.026 320.916 Q224.979 320.650 226.917 320.416 Q230.854 319.931 232.714 319.259 Q232.729 318.697 232.729 318.541 Q232.729 316.869 231.807 316.181 Q230.557 315.259 228.104 315.259 Q225.807 315.259 224.721 315.923 Q223.635 316.587 223.104 318.259 L219.917 318.259 Q220.354 316.181 221.346 314.908 Q222.339 313.634 224.214 312.947 Q226.089 312.259 228.573 312.259 Q231.026 312.259 232.565 312.853 Q234.104 313.447 234.823 314.345 Q235.542 315.244 235.839 316.619 Q235.995 317.478 235.995 319.525 L235.995 323.603 Q235.995 327.884 236.206 329.384 Q236.417 330.884 237.026 332.259 L233.635 332.259 Q233.120 331.400 232.979 330.259 Z M232.714 322.259 Q230.948 322.931 227.401 323.400 Q225.401 323.666 224.573 324.009 Q223.745 324.353 223.292 324.994 Q222.839 325.634 222.839 326.431 Q222.839 327.650 223.823 328.455 Q224.807 329.259 226.698 329.259 Q228.589 329.259 230.049 328.447 Q231.510 327.634 232.198 326.322 Q232.714 325.322 232.714 323.353 L232.714 322.259 Z"/>
  <path d="M240.854 332.259 L240.854 312.259 L243.776 312.259 L243.776 314.994 Q245.885 312.259 249.885 312.259 Q251.620 312.259 253.073 312.892 Q254.526 313.525 255.253 314.556 Q255.979 315.587 256.260 317.009 Q256.448 317.931 256.448 320.228 L256.448 332.259 L253.198 332.259 L253.198 320.447 Q253.198 318.447 252.815 317.447 Q252.432 316.447 251.471 315.853 Q250.510 315.259 249.198 315.259 Q247.120 315.259 245.612 316.595 Q244.104 317.931 244.104 321.666 L244.104 332.259 L240.854 332.259 Z"/>
  <path d="M273.760 325.259 L276.964 325.259 Q276.432 328.541 274.276 330.400 Q272.120 332.259 268.979 332.259 Q265.042 332.259 262.651 329.689 Q260.260 327.119 260.260 322.337 Q260.260 319.228 261.292 316.908 Q262.323 314.587 264.424 313.423 Q266.526 312.259 268.995 312.259 Q272.120 312.259 274.104 314.080 Q276.089 315.900 276.651 319.259 L273.495 319.259 Q273.042 317.275 271.893 316.267 Q270.745 315.259 269.120 315.259 Q266.667 315.259 265.128 316.939 Q263.589 318.619 263.589 322.244 Q263.589 325.916 265.073 327.587 Q266.557 329.259 268.932 329.259 Q270.854 329.259 272.135 328.275 Q273.417 327.291 273.760 325.259 Z"/>
  <path d="M292.729 326.259 L296.089 326.259 Q295.292 329.103 293.143 330.681 Q290.995 332.259 287.651 332.259 Q283.448 332.259 280.979 329.673 Q278.510 327.087 278.510 322.416 Q278.510 317.587 281.003 314.923 Q283.495 312.259 287.479 312.259 Q291.323 312.259 293.760 314.916 Q296.198 317.572 296.198 322.384 Q296.198 322.681 296.182 323.259 L281.870 323.259 Q282.057 326.166 283.659 327.712 Q285.260 329.259 287.667 329.259 Q289.464 329.259 290.729 328.541 Q291.995 327.822 292.729 326.259 Z M282.042 320.259 L292.760 320.259 Q292.542 318.056 291.526 316.962 Q289.979 315.259 287.495 315.259 Q285.260 315.259 283.729 316.619 Q282.198 317.978 282.042 320.259 Z"/>
  <path d="M221.495 251.519 L221.495 224.519 L224.995 224.519 L224.995 251.519 L221.495 251.519 Z"/>
  <path d="M230.667 251.519 L230.667 231.519 L233.589 231.519 L233.589 234.253 Q235.698 231.519 239.698 231.519 Q241.432 231.519 242.885 232.151 Q244.339 232.784 245.065 233.815 Q245.792 234.847 246.073 236.269 Q246.260 237.190 246.260 239.487 L246.260 251.519 L243.010 251.519 L243.010 239.706 Q243.010 237.706 242.628 236.706 Q242.245 235.706 241.284 235.112 Q240.323 234.519 239.010 234.519 Q236.932 234.519 235.424 235.854 Q233.917 237.190 233.917 240.925 L233.917 251.519 L230.667 251.519 Z"/>
  <path d="M263.510 251.519 L263.510 248.315 Q261.682 251.519 258.151 251.519 Q255.854 251.519 253.924 250.261 Q251.995 249.003 250.940 246.737 Q249.885 244.472 249.885 241.534 Q249.885 238.675 250.846 236.339 Q251.807 234.003 253.721 232.761 Q255.635 231.519 257.995 231.519 Q259.729 231.519 261.089 232.331 Q262.448 233.144 263.292 234.456 L263.292 224.519 L266.526 224.519 L266.526 251.519 L263.510 251.519 Z M253.229 241.534 Q253.229 245.034 254.784 246.776 Q256.339 248.519 258.448 248.519 Q260.573 248.519 262.065 246.854 Q263.557 245.190 263.557 241.784 Q263.557 238.034 262.042 236.276 Q260.526 234.519 258.307 234.519 Q256.135 234.519 254.682 236.206 Q253.229 237.894 253.229 241.534 Z"/>
  <path d="M271.464 227.519 L271.464 224.519 L274.714 224.519 L274.714 227.519 L271.464 227.519 Z M271.464 251.519 L271.464 231.519 L274.714 231.519 L274.714 251.519 L271.464 251.519 Z"/>
  <path d="M292.104 249.519 Q290.307 250.612 288.635 251.065 Q286.964 251.519 285.057 251.519 Q281.885 251.519 280.190 249.925 Q278.495 248.331 278.495 245.862 Q278.495 244.409 279.135 243.206 Q279.776 242.003 280.815 241.276 Q281.854 240.550 283.151 240.175 Q284.104 239.909 286.042 239.675 Q289.979 239.190 291.839 238.519 Q291.854 237.956 291.854 237.800 Q291.854 236.128 290.932 235.440 Q289.682 234.519 287.229 234.519 Q284.932 234.519 283.846 235.183 Q282.760 235.847 282.229 237.519 L279.042 237.519 Q279.479 235.440 280.471 234.167 Q281.464 232.894 283.339 232.206 Q285.214 231.519 287.698 231.519 Q290.151 231.519 291.690 232.112 Q293.229 232.706 293.948 233.604 Q294.667 234.503 294.964 235.878 Q295.120 236.737 295.120 238.784 L295.120 242.862 Q295.120 247.144 295.331 248.644 Q295.542 250.144 296.151 251.519 L292.760 251.519 Q292.245 250.659 292.104 249.519 Z M291.839 241.519 Q290.073 242.190 286.526 242.659 Q284.526 242.925 283.698 243.269 Q282.870 243.612 282.417 244.253 Q281.964 244.894 281.964 245.690 Q281.964 246.909 282.948 247.714 Q283.932 248.519 285.823 248.519 Q287.714 248.519 289.174 247.706 Q290.635 246.894 291.323 245.581 Q291.839 244.581 291.839 242.612 L291.839 241.519 Z"/>
  <path d="M233.745 170.778 L233.745 143.778 L237.245 143.778 L237.245 170.778 L233.745 170.778 Z"/>
  <path d="M250.026 167.622 L250.495 170.497 Q249.120 170.778 248.042 170.778 Q246.260 170.778 245.284 170.215 Q244.307 169.653 243.909 168.739 Q243.510 167.825 243.510 164.872 L243.510 153.778 L241.135 153.778 L241.135 150.778 L243.510 150.778 L243.510 146.028 L246.745 144.075 L246.745 150.778 L250.026 150.778 L250.026 153.778 L246.745 153.778 L246.745 165.090 Q246.745 166.497 246.917 166.903 Q247.089 167.309 247.479 167.543 Q247.870 167.778 248.589 167.778 Q249.135 167.778 250.026 167.622 Z"/>
  <path d="M265.620 168.778 Q263.823 169.872 262.151 170.325 Q260.479 170.778 258.573 170.778 Q255.401 170.778 253.706 169.184 Q252.010 167.590 252.010 165.122 Q252.010 163.668 252.651 162.465 Q253.292 161.262 254.331 160.536 Q255.370 159.809 256.667 159.434 Q257.620 159.168 259.557 158.934 Q263.495 158.450 265.354 157.778 Q265.370 157.215 265.370 157.059 Q265.370 155.387 264.448 154.700 Q263.198 153.778 260.745 153.778 Q258.448 153.778 257.362 154.442 Q256.276 155.106 255.745 156.778 L252.557 156.778 Q252.995 154.700 253.987 153.426 Q254.979 152.153 256.854 151.465 Q258.729 150.778 261.214 150.778 Q263.667 150.778 265.206 151.372 Q266.745 151.965 267.464 152.864 Q268.182 153.762 268.479 155.137 Q268.635 155.997 268.635 158.043 L268.635 162.122 Q268.635 166.403 268.846 167.903 Q269.057 169.403 269.667 170.778 L266.276 170.778 Q265.760 169.918 265.620 168.778 Z M265.354 160.778 Q263.589 161.450 260.042 161.918 Q258.042 162.184 257.214 162.528 Q256.385 162.872 255.932 163.512 Q255.479 164.153 255.479 164.950 Q255.479 166.168 256.464 166.973 Q257.448 167.778 259.339 167.778 Q261.229 167.778 262.690 166.965 Q264.151 166.153 264.839 164.840 Q265.354 163.840 265.354 161.872 L265.354 160.778 Z"/>
  <path d="M273.417 170.778 L273.417 143.778 L276.682 143.778 L276.682 170.778 L273.417 170.778 Z"/>
  <path d="M281.495 177.403 L281.135 174.497 Q282.198 174.778 282.995 174.778 Q284.073 174.778 284.721 174.411 Q285.370 174.043 285.792 173.387 Q286.104 172.903 286.792 170.950 Q286.870 170.684 287.073 170.153 L279.792 150.778 L283.292 150.778 L287.292 161.840 Q288.073 163.950 288.682 166.262 Q289.245 164.872 290.026 162.731 L294.120 150.778 L297.370 150.778 L290.073 171.153 Q288.901 173.965 288.245 175.012 Q287.385 176.450 286.260 177.114 Q285.135 177.778 283.589 177.778 Q282.651 177.778 281.495 177.403 Z"/>
  <path d="M208.557 90.037 L208.557 63.037 L218.495 63.037 Q221.526 63.037 223.362 63.881 Q225.198 64.725 226.237 66.475 Q227.276 68.225 227.276 70.146 Q227.276 71.928 226.354 73.498 Q225.432 75.068 223.573 76.037 Q225.979 76.740 227.268 78.428 Q228.557 80.115 228.557 82.412 Q228.557 84.256 227.768 85.842 Q226.979 87.428 225.823 88.295 Q224.667 89.162 222.924 89.600 Q221.182 90.037 218.651 90.037 L208.557 90.037 Z M212.073 75.037 L217.807 75.037 Q220.135 75.037 221.135 74.693 Q222.479 74.240 223.151 73.201 Q223.823 72.162 223.823 70.600 Q223.823 69.131 223.190 67.998 Q222.557 66.865 221.385 66.451 Q220.214 66.037 217.354 66.037 L212.073 66.037 L212.073 75.037 Z M212.073 87.037 L218.667 87.037 Q220.370 87.037 221.042 86.912 Q222.260 86.693 223.073 86.193 Q223.885 85.693 224.409 84.740 Q224.932 83.787 224.932 82.537 Q224.932 81.068 224.174 79.990 Q223.417 78.912 222.073 78.475 Q220.729 78.037 218.198 78.037 L212.073 78.037 L212.073 87.037 Z"/>
  <path d="M232.714 90.037 L232.714 70.037 L235.635 70.037 L235.635 73.021 Q236.760 71.193 237.706 70.615 Q238.651 70.037 239.792 70.037 Q241.432 70.037 243.135 70.662 L242.010 73.678 Q240.823 73.037 239.635 73.037 Q238.573 73.037 237.721 73.709 Q236.870 74.381 236.510 75.568 Q235.964 77.381 235.964 79.537 L235.964 90.037 L232.714 90.037 Z"/>
  <path d="M257.479 88.037 Q255.682 89.131 254.010 89.584 Q252.339 90.037 250.432 90.037 Q247.260 90.037 245.565 88.443 Q243.870 86.850 243.870 84.381 Q243.870 82.928 244.510 81.725 Q245.151 80.521 246.190 79.795 Q247.229 79.068 248.526 78.693 Q249.479 78.428 251.417 78.193 Q255.354 77.709 257.214 77.037 Q257.229 76.475 257.229 76.318 Q257.229 74.646 256.307 73.959 Q255.057 73.037 252.604 73.037 Q250.307 73.037 249.221 73.701 Q248.135 74.365 247.604 76.037 L244.417 76.037 Q244.854 73.959 245.846 72.685 Q246.839 71.412 248.714 70.725 Q250.589 70.037 253.073 70.037 Q255.526 70.037 257.065 70.631 Q258.604 71.225 259.323 72.123 Q260.042 73.021 260.339 74.396 Q260.495 75.256 260.495 77.303 L260.495 81.381 Q260.495 85.662 260.706 87.162 Q260.917 88.662 261.526 90.037 L258.135 90.037 Q257.620 89.178 257.479 88.037 Z M257.214 80.037 Q255.448 80.709 251.901 81.178 Q249.901 81.443 249.073 81.787 Q248.245 82.131 247.792 82.771 Q247.339 83.412 247.339 84.209 Q247.339 85.428 248.323 86.232 Q249.307 87.037 251.198 87.037 Q253.089 87.037 254.549 86.225 Q256.010 85.412 256.698 84.100 Q257.214 83.100 257.214 81.131 L257.214 80.037 Z"/>
  <path d="M263.635 90.037 L263.635 87.209 L275.854 73.037 Q273.776 73.037 272.182 73.037 L264.370 73.037 L264.370 70.037 L280.042 70.037 L280.042 72.584 L269.651 84.975 L267.651 87.037 Q269.839 87.037 271.745 87.037 L280.620 87.037 L280.620 90.037 L263.635 90.037 Z"/>
  <path d="M283.714 66.037 L283.714 63.037 L286.964 63.037 L286.964 66.037 L283.714 66.037 Z M283.714 90.037 L283.714 70.037 L286.964 70.037 L286.964 90.037 L283.714 90.037 Z"/>
  <path d="M291.760 90.037 L291.760 63.037 L295.026 63.037 L295.026 90.037 L291.760 90.037 Z"/>
  <path d="M326.875 748.630 L1634.015 748.630 L1634.015 697.296 L326.875 697.296 Z" fill="#4c7bb0"/>
  <path d="M326.875 667.889 L1114.219 667.889 L1114.219 616.556 L326.875 616.556 Z" fill="#4c7bb0"/>
  <path d="M326.875 587.148 L673.312 587.148 L673.312 535.815 L326.875 535.815 Z" fill="#4c7bb0"/>
  <path d="M326.875 506.407 L570.911 506.407 L570.911 455.074 L326.875 455.074 Z" fill="#4c7bb0"/>
  <path d="M326.875 425.667 L512.657 425.667 L512.657 374.333 L326.875 374.333 Z" fill="#4c7bb0"/>
  <path d="M326.875 344.926 L499.883 344.926 L499.883 293.593 L326.875 293.593 Z" fill="#4c7bb0"/>
  <path d="M326.875 264.185 L485.425 264.185 L485.425 212.852 L326.875 212.852 Z" fill="#4c7bb0"/>
  <path d="M326.875 183.444 L457.280 183.444 L457.280 132.111 L326.875 132.111 Z" fill="#4c7bb0"/>
  <path d="M326.875 102.704 L452.858 102.704 L452.858 51.370 L326.875 51.370 Z" fill="#4c7bb0"/>
  <path d="M1665.233 738.963 L1665.233 735.963 Q1662.796 735.650 1661.265 734.854 Q1659.733 734.057 1658.624 732.291 Q1657.515 730.525 1657.327 727.963 L1660.608 727.963 Q1660.983 730.229 1661.952 731.291 Q1663.312 732.791 1665.233 732.963 L1665.233 723.197 Q1663.218 722.729 1661.124 721.604 Q1659.577 720.791 1658.733 719.322 Q1657.890 717.854 1657.890 715.994 Q1657.890 712.697 1660.343 710.650 Q1661.999 709.275 1665.233 708.963 L1665.233 707.963 L1667.140 707.963 L1667.140 708.963 Q1669.968 709.260 1671.640 710.744 Q1673.765 712.650 1674.202 715.963 L1670.843 715.963 Q1670.562 714.182 1669.647 713.221 Q1668.733 712.260 1667.140 711.963 L1667.140 720.541 Q1669.593 721.104 1670.390 721.447 Q1671.905 722.088 1672.866 723.033 Q1673.827 723.979 1674.343 725.268 Q1674.858 726.557 1674.858 728.057 Q1674.858 731.369 1672.710 733.588 Q1670.562 735.807 1667.140 735.963 L1667.140 738.963 L1665.233 738.963 Z M1665.233 711.963 Q1663.327 712.229 1662.233 713.354 Q1661.140 714.479 1661.140 716.010 Q1661.140 717.541 1662.069 718.565 Q1662.999 719.588 1665.233 720.104 L1665.233 711.963 Z M1667.140 732.963 Q1669.030 732.729 1670.272 731.369 Q1671.515 730.010 1671.515 728.010 Q1671.515 726.307 1670.640 725.268 Q1669.765 724.229 1667.140 723.635 L1667.140 732.963 Z"/>
  <path d="M1690.187 735.963 L1686.937 735.963 L1686.937 714.932 Q1685.765 716.072 1683.858 717.205 Q1681.952 718.338 1680.437 718.900 L1680.437 715.713 Q1683.171 714.416 1685.210 712.565 Q1687.249 710.713 1688.093 708.963 L1690.187 708.963 L1690.187 735.963 Z"/>
  <path d="M1703.343 721.369 Q1701.312 720.619 1700.335 719.229 Q1699.358 717.838 1699.358 715.885 Q1699.358 712.963 1701.437 710.963 Q1703.515 708.963 1706.968 708.963 Q1710.437 708.963 1712.554 711.010 Q1714.671 713.057 1714.671 715.979 Q1714.671 717.854 1713.702 719.236 Q1712.733 720.619 1710.765 721.369 Q1713.202 722.150 1714.476 723.893 Q1715.749 725.635 1715.749 728.057 Q1715.749 731.400 1713.343 733.682 Q1710.937 735.963 1707.015 735.963 Q1703.108 735.963 1700.702 733.674 Q1698.296 731.385 1698.296 727.979 Q1698.296 725.432 1699.608 723.713 Q1700.921 721.994 1703.343 721.369 Z M1702.687 715.854 Q1702.687 717.666 1703.897 718.815 Q1705.108 719.963 1707.046 719.963 Q1708.921 719.963 1710.124 718.822 Q1711.327 717.682 1711.327 716.025 Q1711.327 714.307 1710.093 713.135 Q1708.858 711.963 1707.015 711.963 Q1705.140 711.963 1703.913 713.111 Q1702.687 714.260 1702.687 715.854 Z M1701.640 727.916 Q1701.640 729.213 1702.296 730.424 Q1702.952 731.635 1704.257 732.299 Q1705.562 732.963 1707.062 732.963 Q1709.390 732.963 1710.905 731.565 Q1712.421 730.166 1712.421 728.010 Q1712.421 725.822 1710.858 724.393 Q1709.296 722.963 1706.952 722.963 Q1704.655 722.963 1703.147 724.377 Q1701.640 725.791 1701.640 727.916 Z"/>
  <path d="M1720.468 735.963 L1720.468 732.963 L1724.171 732.963 L1724.171 735.963 Q1724.171 738.307 1723.452 739.744 Q1722.733 741.182 1721.155 741.963 L1720.265 740.963 Q1721.296 740.369 1721.780 739.236 Q1722.265 738.104 1722.312 735.963 L1720.468 735.963 Z"/>
  <path d="M1745.780 715.963 L1742.546 715.963 Q1742.108 714.135 1741.312 713.291 Q1739.999 711.963 1738.062 711.963 Q1736.515 711.963 1735.343 712.729 Q1733.812 713.729 1732.921 715.643 Q1732.030 717.557 1731.999 721.494 Q1733.171 719.697 1734.866 718.830 Q1736.562 717.963 1738.437 717.963 Q1741.687 717.963 1743.968 720.408 Q1746.249 722.854 1746.249 726.729 Q1746.249 729.275 1745.171 731.455 Q1744.093 733.635 1742.218 734.799 Q1740.343 735.963 1737.952 735.963 Q1733.890 735.963 1731.327 732.979 Q1728.765 729.994 1728.765 723.135 Q1728.765 715.479 1731.608 711.994 Q1734.077 708.963 1738.265 708.963 Q1741.390 708.963 1743.390 710.822 Q1745.390 712.682 1745.780 715.963 Z M1732.499 726.650 Q1732.499 728.322 1733.210 729.846 Q1733.921 731.369 1735.210 732.166 Q1736.499 732.963 1737.905 732.963 Q1739.968 732.963 1741.452 731.315 Q1742.937 729.666 1742.937 726.822 Q1742.937 724.104 1741.468 722.533 Q1739.999 720.963 1737.780 720.963 Q1735.577 720.963 1734.038 722.533 Q1732.499 724.104 1732.499 726.650 Z"/>
  <path d="M1766.390 732.963 L1766.390 735.963 L1748.890 735.963 Q1748.843 734.838 1749.265 733.791 Q1749.937 732.072 1751.405 730.408 Q1752.874 728.744 1755.655 726.369 Q1759.983 722.682 1761.499 720.580 Q1763.015 718.479 1763.015 716.619 Q1763.015 714.650 1761.632 713.307 Q1760.249 711.963 1758.030 711.963 Q1755.687 711.963 1754.272 713.025 Q1752.858 714.088 1752.843 715.963 L1749.499 715.963 Q1749.843 712.541 1752.085 710.752 Q1754.327 708.963 1758.093 708.963 Q1761.921 708.963 1764.140 711.135 Q1766.358 713.307 1766.358 716.525 Q1766.358 718.166 1765.710 719.744 Q1765.062 721.322 1763.546 723.072 Q1762.030 724.822 1758.530 727.807 Q1755.608 730.291 1754.780 731.182 Q1753.952 732.072 1753.405 732.963 L1766.390 732.963 Z"/>
  <path d="M1780.108 735.963 L1780.108 729.963 L1768.624 729.963 L1768.624 726.963 L1780.718 708.963 L1783.374 708.963 L1783.374 726.963 L1786.952 726.963 L1786.952 729.963 L1783.374 729.963 L1783.374 735.963 L1780.108 735.963 Z M1780.108 726.963 L1780.108 714.635 L1771.827 726.963 L1780.108 726.963 Z"/>
  <path d="M1793.983 735.963 L1790.968 735.963 L1790.968 708.963 L1794.218 708.963 L1794.218 718.869 Q1796.280 715.963 1799.483 715.963 Q1801.249 715.963 1802.827 716.674 Q1804.405 717.385 1805.429 718.674 Q1806.452 719.963 1807.030 721.783 Q1807.608 723.604 1807.608 725.682 Q1807.608 730.588 1805.171 733.275 Q1802.733 735.963 1799.312 735.963 Q1795.921 735.963 1793.983 732.775 L1793.983 735.963 Z M1793.952 725.822 Q1793.952 729.104 1794.890 730.572 Q1796.421 732.963 1799.046 732.963 Q1801.171 732.963 1802.726 731.197 Q1804.280 729.432 1804.280 725.947 Q1804.280 722.369 1802.788 720.666 Q1801.296 718.963 1799.187 718.963 Q1797.062 718.963 1795.507 720.729 Q1793.952 722.494 1793.952 725.822 Z"/>
  <path d="M1811.296 735.963 L1811.296 708.963 L1814.562 708.963 L1814.562 735.963 L1811.296 735.963 Z"/>
  <path d="M1819.515 735.963 L1819.515 715.963 L1822.437 715.963 L1822.437 718.697 Q1824.546 715.963 1828.546 715.963 Q1830.280 715.963 1831.733 716.596 Q1833.187 717.229 1833.913 718.260 Q1834.640 719.291 1834.921 720.713 Q1835.108 721.635 1835.108 723.932 L1835.108 735.963 L1831.858 735.963 L1831.858 724.150 Q1831.858 722.150 1831.476 721.150 Q1831.093 720.150 1830.132 719.557 Q1829.171 718.963 1827.858 718.963 Q1825.780 718.963 1824.272 720.299 Q1822.765 721.635 1822.765 725.369 L1822.765 735.963 L1819.515 735.963 Z"/>
  <path d="M1145.438 658.222 L1145.438 655.222 Q1143.000 654.910 1141.469 654.113 Q1139.938 653.316 1138.828 651.550 Q1137.719 649.785 1137.531 647.222 L1140.813 647.222 Q1141.188 649.488 1142.156 650.550 Q1143.516 652.050 1145.438 652.222 L1145.438 642.457 Q1143.422 641.988 1141.328 640.863 Q1139.781 640.050 1138.938 638.582 Q1138.094 637.113 1138.094 635.253 Q1138.094 631.957 1140.547 629.910 Q1142.203 628.535 1145.438 628.222 L1145.438 627.222 L1147.344 627.222 L1147.344 628.222 Q1150.172 628.519 1151.844 630.003 Q1153.969 631.910 1154.406 635.222 L1151.047 635.222 Q1150.766 633.441 1149.852 632.480 Q1148.938 631.519 1147.344 631.222 L1147.344 639.800 Q1149.797 640.363 1150.594 640.707 Q1152.110 641.347 1153.070 642.293 Q1154.031 643.238 1154.547 644.527 Q1155.063 645.816 1155.063 647.316 Q1155.063 650.628 1152.914 652.847 Q1150.766 655.066 1147.344 655.222 L1147.344 658.222 L1145.438 658.222 Z M1145.438 631.222 Q1143.531 631.488 1142.438 632.613 Q1141.344 633.738 1141.344 635.269 Q1141.344 636.800 1142.274 637.824 Q1143.203 638.847 1145.438 639.363 L1145.438 631.222 Z M1147.344 652.222 Q1149.235 651.988 1150.477 650.628 Q1151.719 649.269 1151.719 647.269 Q1151.719 645.566 1150.844 644.527 Q1149.969 643.488 1147.344 642.894 L1147.344 652.222 Z"/>
  <path d="M1170.391 655.222 L1167.141 655.222 L1167.141 634.191 Q1165.969 635.332 1164.063 636.464 Q1162.156 637.597 1160.641 638.160 L1160.641 634.972 Q1163.375 633.675 1165.414 631.824 Q1167.453 629.972 1168.297 628.222 L1170.391 628.222 L1170.391 655.222 Z"/>
  <path d="M1189.422 655.222 L1186.172 655.222 L1186.172 634.191 Q1185.000 635.332 1183.094 636.464 Q1181.188 637.597 1179.672 638.160 L1179.672 634.972 Q1182.406 633.675 1184.445 631.824 Q1186.485 629.972 1187.328 628.222 L1189.422 628.222 L1189.422 655.222 Z"/>
  <path d="M1197.953 655.222 L1197.953 652.222 L1201.656 652.222 L1201.656 655.222 Q1201.656 657.566 1200.938 659.003 Q1200.219 660.441 1198.641 661.222 L1197.750 660.222 Q1198.781 659.628 1199.266 658.496 Q1199.750 657.363 1199.797 655.222 L1197.953 655.222 Z"/>
  <path d="M1223.485 652.222 L1223.485 655.222 L1205.985 655.222 Q1205.938 654.097 1206.360 653.050 Q1207.031 651.332 1208.500 649.668 Q1209.969 648.003 1212.750 645.628 Q1217.078 641.941 1218.594 639.839 Q1220.110 637.738 1220.110 635.878 Q1220.110 633.910 1218.727 632.566 Q1217.344 631.222 1215.125 631.222 Q1212.781 631.222 1211.367 632.285 Q1209.953 633.347 1209.938 635.222 L1206.594 635.222 Q1206.938 631.800 1209.180 630.011 Q1211.422 628.222 1215.188 628.222 Q1219.016 628.222 1221.235 630.394 Q1223.453 632.566 1223.453 635.785 Q1223.453 637.425 1222.805 639.003 Q1222.156 640.582 1220.641 642.332 Q1219.125 644.082 1215.625 647.066 Q1212.703 649.550 1211.875 650.441 Q1211.047 651.332 1210.500 652.222 L1223.485 652.222 Z"/>
  <path d="M1239.031 655.222 L1235.781 655.222 L1235.781 634.191 Q1234.610 635.332 1232.703 636.464 Q1230.797 637.597 1229.281 638.160 L1229.281 634.972 Q1232.016 633.675 1234.055 631.824 Q1236.094 629.972 1236.938 628.222 L1239.031 628.222 L1239.031 655.222 Z"/>
  <path d="M1252.188 640.628 Q1250.156 639.878 1249.180 638.488 Q1248.203 637.097 1248.203 635.144 Q1248.203 632.222 1250.281 630.222 Q1252.360 628.222 1255.813 628.222 Q1259.281 628.222 1261.399 630.269 Q1263.516 632.316 1263.516 635.238 Q1263.516 637.113 1262.547 638.496 Q1261.578 639.878 1259.610 640.628 Q1262.047 641.410 1263.320 643.152 Q1264.594 644.894 1264.594 647.316 Q1264.594 650.660 1262.188 652.941 Q1259.781 655.222 1255.860 655.222 Q1251.953 655.222 1249.547 652.933 Q1247.141 650.644 1247.141 647.238 Q1247.141 644.691 1248.453 642.972 Q1249.766 641.253 1252.188 640.628 Z M1251.531 635.113 Q1251.531 636.925 1252.742 638.074 Q1253.953 639.222 1255.891 639.222 Q1257.766 639.222 1258.969 638.082 Q1260.172 636.941 1260.172 635.285 Q1260.172 633.566 1258.938 632.394 Q1257.703 631.222 1255.860 631.222 Q1253.985 631.222 1252.758 632.371 Q1251.531 633.519 1251.531 635.113 Z M1250.485 647.175 Q1250.485 648.472 1251.141 649.683 Q1251.797 650.894 1253.102 651.558 Q1254.406 652.222 1255.906 652.222 Q1258.235 652.222 1259.750 650.824 Q1261.266 649.425 1261.266 647.269 Q1261.266 645.082 1259.703 643.652 Q1258.141 642.222 1255.797 642.222 Q1253.500 642.222 1251.992 643.636 Q1250.485 645.050 1250.485 647.175 Z"/>
  <path d="M1271.469 655.222 L1268.453 655.222 L1268.453 628.222 L1271.703 628.222 L1271.703 638.128 Q1273.766 635.222 1276.969 635.222 Q1278.735 635.222 1280.313 635.933 Q1281.891 636.644 1282.914 637.933 Q1283.938 639.222 1284.516 641.043 Q1285.094 642.863 1285.094 644.941 Q1285.094 649.847 1282.656 652.535 Q1280.219 655.222 1276.797 655.222 Q1273.406 655.222 1271.469 652.035 L1271.469 655.222 Z M1271.438 645.082 Q1271.438 648.363 1272.375 649.832 Q1273.906 652.222 1276.531 652.222 Q1278.656 652.222 1280.211 650.457 Q1281.766 648.691 1281.766 645.207 Q1281.766 641.628 1280.274 639.925 Q1278.781 638.222 1276.672 638.222 Q1274.547 638.222 1272.992 639.988 Q1271.438 641.753 1271.438 645.082 Z"/>
  <path d="M1288.781 655.222 L1288.781 628.222 L1292.047 628.222 L1292.047 655.222 L1288.781 655.222 Z"/>
  <path d="M1297.000 655.222 L1297.000 635.222 L1299.922 635.222 L1299.922 637.957 Q1302.031 635.222 1306.031 635.222 Q1307.766 635.222 1309.219 635.855 Q1310.672 636.488 1311.399 637.519 Q1312.125 638.550 1312.406 639.972 Q1312.594 640.894 1312.594 643.191 L1312.594 655.222 L1309.344 655.222 L1309.344 643.410 Q1309.344 641.410 1308.961 640.410 Q1308.578 639.410 1307.617 638.816 Q1306.656 638.222 1305.344 638.222 Q1303.266 638.222 1301.758 639.558 Q1300.250 640.894 1300.250 644.628 L1300.250 655.222 L1297.000 655.222 Z"/>
  <path d="M704.531 577.481 L704.531 574.481 Q702.093 574.169 700.562 573.372 Q699.031 572.575 697.921 570.810 Q696.812 569.044 696.624 566.481 L699.906 566.481 Q700.281 568.747 701.249 569.810 Q702.609 571.310 704.531 571.481 L704.531 561.716 Q702.515 561.247 700.421 560.122 Q698.874 559.310 698.031 557.841 Q697.187 556.372 697.187 554.513 Q697.187 551.216 699.640 549.169 Q701.296 547.794 704.531 547.481 L704.531 546.481 L706.437 546.481 L706.437 547.481 Q709.265 547.778 710.937 549.263 Q713.062 551.169 713.499 554.481 L710.140 554.481 Q709.859 552.700 708.945 551.739 Q708.031 550.778 706.437 550.481 L706.437 559.060 Q708.890 559.622 709.687 559.966 Q711.203 560.606 712.163 561.552 Q713.124 562.497 713.640 563.786 Q714.156 565.075 714.156 566.575 Q714.156 569.888 712.007 572.106 Q709.859 574.325 706.437 574.481 L706.437 577.481 L704.531 577.481 Z M704.531 550.481 Q702.624 550.747 701.531 551.872 Q700.437 552.997 700.437 554.528 Q700.437 556.060 701.367 557.083 Q702.296 558.106 704.531 558.622 L704.531 550.481 Z M706.437 571.481 Q708.328 571.247 709.570 569.888 Q710.812 568.528 710.812 566.528 Q710.812 564.825 709.937 563.786 Q709.062 562.747 706.437 562.153 L706.437 571.481 Z"/>
  <path d="M729.484 574.481 L726.234 574.481 L726.234 553.450 Q725.062 554.591 723.156 555.724 Q721.249 556.856 719.734 557.419 L719.734 554.231 Q722.468 552.935 724.507 551.083 Q726.546 549.231 727.390 547.481 L729.484 547.481 L729.484 574.481 Z"/>
  <path d="M748.515 574.481 L745.265 574.481 L745.265 553.450 Q744.093 554.591 742.187 555.724 Q740.281 556.856 738.765 557.419 L738.765 554.231 Q741.499 552.935 743.538 551.083 Q745.578 549.231 746.421 547.481 L748.515 547.481 L748.515 574.481 Z"/>
  <path d="M757.046 574.481 L757.046 571.481 L760.749 571.481 L760.749 574.481 Q760.749 576.825 760.031 578.263 Q759.312 579.700 757.734 580.481 L756.843 579.481 Q757.874 578.888 758.359 577.755 Q758.843 576.622 758.890 574.481 L757.046 574.481 Z"/>
  <path d="M782.578 571.481 L782.578 574.481 L765.078 574.481 Q765.031 573.356 765.453 572.310 Q766.124 570.591 767.593 568.927 Q769.062 567.263 771.843 564.888 Q776.171 561.200 777.687 559.099 Q779.203 556.997 779.203 555.138 Q779.203 553.169 777.820 551.825 Q776.437 550.481 774.218 550.481 Q771.874 550.481 770.460 551.544 Q769.046 552.606 769.031 554.481 L765.687 554.481 Q766.031 551.060 768.273 549.271 Q770.515 547.481 774.281 547.481 Q778.109 547.481 780.328 549.653 Q782.546 551.825 782.546 555.044 Q782.546 556.685 781.898 558.263 Q781.249 559.841 779.734 561.591 Q778.218 563.341 774.718 566.325 Q771.796 568.810 770.968 569.700 Q770.140 570.591 769.593 571.481 L782.578 571.481 Z"/>
  <path d="M798.124 574.481 L794.874 574.481 L794.874 553.450 Q793.703 554.591 791.796 555.724 Q789.890 556.856 788.374 557.419 L788.374 554.231 Q791.109 552.935 793.148 551.083 Q795.187 549.231 796.031 547.481 L798.124 547.481 L798.124 574.481 Z"/>
  <path d="M811.281 559.888 Q809.249 559.138 808.273 557.747 Q807.296 556.356 807.296 554.403 Q807.296 551.481 809.374 549.481 Q811.453 547.481 814.906 547.481 Q818.374 547.481 820.492 549.528 Q822.609 551.575 822.609 554.497 Q822.609 556.372 821.640 557.755 Q820.671 559.138 818.703 559.888 Q821.140 560.669 822.413 562.411 Q823.687 564.153 823.687 566.575 Q823.687 569.919 821.281 572.200 Q818.874 574.481 814.953 574.481 Q811.046 574.481 808.640 572.192 Q806.234 569.903 806.234 566.497 Q806.234 563.950 807.546 562.231 Q808.859 560.513 811.281 559.888 Z M810.624 554.372 Q810.624 556.185 811.835 557.333 Q813.046 558.481 814.984 558.481 Q816.859 558.481 818.062 557.341 Q819.265 556.200 819.265 554.544 Q819.265 552.825 818.031 551.653 Q816.796 550.481 814.953 550.481 Q813.078 550.481 811.851 551.630 Q810.624 552.778 810.624 554.372 Z M809.578 566.435 Q809.578 567.731 810.234 568.942 Q810.890 570.153 812.195 570.817 Q813.499 571.481 814.999 571.481 Q817.328 571.481 818.843 570.083 Q820.359 568.685 820.359 566.528 Q820.359 564.341 818.796 562.911 Q817.234 561.481 814.890 561.481 Q812.593 561.481 811.085 562.896 Q809.578 564.310 809.578 566.435 Z"/>
  <path d="M830.562 574.481 L827.546 574.481 L827.546 547.481 L830.796 547.481 L830.796 557.388 Q832.859 554.481 836.062 554.481 Q837.828 554.481 839.406 555.192 Q840.984 555.903 842.007 557.192 Q843.031 558.481 843.609 560.302 Q844.187 562.122 844.187 564.200 Q844.187 569.106 841.749 571.794 Q839.312 574.481 835.890 574.481 Q832.499 574.481 830.562 571.294 L830.562 574.481 Z M830.531 564.341 Q830.531 567.622 831.468 569.091 Q832.999 571.481 835.624 571.481 Q837.749 571.481 839.304 569.716 Q840.859 567.950 840.859 564.466 Q840.859 560.888 839.367 559.185 Q837.874 557.481 835.765 557.481 Q833.640 557.481 832.085 559.247 Q830.531 561.013 830.531 564.341 Z"/>
  <path d="M847.874 574.481 L847.874 547.481 L851.140 547.481 L851.140 574.481 L847.874 574.481 Z"/>
  <path d="M856.093 574.481 L856.093 554.481 L859.015 554.481 L859.015 557.216 Q861.124 554.481 865.124 554.481 Q866.859 554.481 868.312 555.114 Q869.765 555.747 870.492 556.778 Q871.218 557.810 871.499 559.231 Q871.687 560.153 871.687 562.450 L871.687 574.481 L868.437 574.481 L868.437 562.669 Q868.437 560.669 868.054 559.669 Q867.671 558.669 866.710 558.075 Q865.749 557.481 864.437 557.481 Q862.359 557.481 860.851 558.817 Q859.343 560.153 859.343 563.888 L859.343 574.481 L856.093 574.481 Z"/>
  <path d="M602.130 496.741 L602.130 493.741 Q599.692 493.428 598.161 492.631 Q596.630 491.834 595.520 490.069 Q594.411 488.303 594.223 485.741 L597.505 485.741 Q597.880 488.006 598.848 489.069 Q600.208 490.569 602.130 490.741 L602.130 480.975 Q600.114 480.506 598.020 479.381 Q596.473 478.569 595.630 477.100 Q594.786 475.631 594.786 473.772 Q594.786 470.475 597.239 468.428 Q598.895 467.053 602.130 466.741 L602.130 465.741 L604.036 465.741 L604.036 466.741 Q606.864 467.038 608.536 468.522 Q610.661 470.428 611.098 473.741 L607.739 473.741 Q607.458 471.959 606.544 470.999 Q605.630 470.038 604.036 469.741 L604.036 478.319 Q606.489 478.881 607.286 479.225 Q608.802 479.866 609.762 480.811 Q610.723 481.756 611.239 483.045 Q611.755 484.334 611.755 485.834 Q611.755 489.147 609.606 491.366 Q607.458 493.584 604.036 493.741 L604.036 496.741 L602.130 496.741 Z M602.130 469.741 Q600.223 470.006 599.130 471.131 Q598.036 472.256 598.036 473.788 Q598.036 475.319 598.966 476.342 Q599.895 477.366 602.130 477.881 L602.130 469.741 Z M604.036 490.741 Q605.927 490.506 607.169 489.147 Q608.411 487.788 608.411 485.788 Q608.411 484.084 607.536 483.045 Q606.661 482.006 604.036 481.413 L604.036 490.741 Z"/>
  <path d="M627.083 493.741 L623.833 493.741 L623.833 472.709 Q622.661 473.850 620.755 474.983 Q618.848 476.116 617.333 476.678 L617.333 473.491 Q620.067 472.194 622.106 470.342 Q624.145 468.491 624.989 466.741 L627.083 466.741 L627.083 493.741 Z"/>
  <path d="M646.114 493.741 L642.864 493.741 L642.864 472.709 Q641.692 473.850 639.786 474.983 Q637.880 476.116 636.364 476.678 L636.364 473.491 Q639.098 472.194 641.137 470.342 Q643.177 468.491 644.020 466.741 L646.114 466.741 L646.114 493.741 Z"/>
  <path d="M654.645 493.741 L654.645 490.741 L658.348 490.741 L658.348 493.741 Q658.348 496.084 657.630 497.522 Q656.911 498.959 655.333 499.741 L654.442 498.741 Q655.473 498.147 655.958 497.014 Q656.442 495.881 656.489 493.741 L654.645 493.741 Z"/>
  <path d="M680.177 490.741 L680.177 493.741 L662.677 493.741 Q662.630 492.616 663.052 491.569 Q663.723 489.850 665.192 488.186 Q666.661 486.522 669.442 484.147 Q673.770 480.459 675.286 478.358 Q676.802 476.256 676.802 474.397 Q676.802 472.428 675.419 471.084 Q674.036 469.741 671.817 469.741 Q669.473 469.741 668.059 470.803 Q666.645 471.866 666.630 473.741 L663.286 473.741 Q663.630 470.319 665.872 468.530 Q668.114 466.741 671.880 466.741 Q675.708 466.741 677.927 468.913 Q680.145 471.084 680.145 474.303 Q680.145 475.944 679.497 477.522 Q678.848 479.100 677.333 480.850 Q675.817 482.600 672.317 485.584 Q669.395 488.069 668.567 488.959 Q667.739 489.850 667.192 490.741 L680.177 490.741 Z"/>
  <path d="M695.723 493.741 L692.473 493.741 L692.473 472.709 Q691.302 473.850 689.395 474.983 Q687.489 476.116 685.973 476.678 L685.973 473.491 Q688.708 472.194 690.747 470.342 Q692.786 468.491 693.630 466.741 L695.723 466.741 L695.723 493.741 Z"/>
  <path d="M708.880 479.147 Q706.848 478.397 705.872 477.006 Q704.895 475.616 704.895 473.663 Q704.895 470.741 706.973 468.741 Q709.052 466.741 712.505 466.741 Q715.973 466.741 718.091 468.788 Q720.208 470.834 720.208 473.756 Q720.208 475.631 719.239 477.014 Q718.270 478.397 716.302 479.147 Q718.739 479.928 720.012 481.670 Q721.286 483.413 721.286 485.834 Q721.286 489.178 718.880 491.459 Q716.473 493.741 712.552 493.741 Q708.645 493.741 706.239 491.452 Q703.833 489.163 703.833 485.756 Q703.833 483.209 705.145 481.491 Q706.458 479.772 708.880 479.147 Z M708.223 473.631 Q708.223 475.444 709.434 476.592 Q710.645 477.741 712.583 477.741 Q714.458 477.741 715.661 476.600 Q716.864 475.459 716.864 473.803 Q716.864 472.084 715.630 470.913 Q714.395 469.741 712.552 469.741 Q710.677 469.741 709.450 470.889 Q708.223 472.038 708.223 473.631 Z M707.177 485.694 Q707.177 486.991 707.833 488.202 Q708.489 489.413 709.794 490.077 Q711.098 490.741 712.598 490.741 Q714.927 490.741 716.442 489.342 Q717.958 487.944 717.958 485.788 Q717.958 483.600 716.395 482.170 Q714.833 480.741 712.489 480.741 Q710.192 480.741 708.684 482.155 Q707.177 483.569 707.177 485.694 Z"/>
  <path d="M728.161 493.741 L725.145 493.741 L725.145 466.741 L728.395 466.741 L728.395 476.647 Q730.458 473.741 733.661 473.741 Q735.427 473.741 737.005 474.452 Q738.583 475.163 739.606 476.452 Q740.630 477.741 741.208 479.561 Q741.786 481.381 741.786 483.459 Q741.786 488.366 739.348 491.053 Q736.911 493.741 733.489 493.741 Q730.098 493.741 728.161 490.553 L728.161 493.741 Z M728.130 483.600 Q728.130 486.881 729.067 488.350 Q730.598 490.741 733.223 490.741 Q735.348 490.741 736.903 488.975 Q738.458 487.209 738.458 483.725 Q738.458 480.147 736.966 478.444 Q735.473 476.741 733.364 476.741 Q731.239 476.741 729.684 478.506 Q728.130 480.272 728.130 483.600 Z"/>
  <path d="M745.473 493.741 L745.473 466.741 L748.739 466.741 L748.739 493.741 L745.473 493.741 Z"/>
  <path d="M753.692 493.741 L753.692 473.741 L756.614 473.741 L756.614 476.475 Q758.723 473.741 762.723 473.741 Q764.458 473.741 765.911 474.374 Q767.364 475.006 768.091 476.038 Q768.817 477.069 769.098 478.491 Q769.286 479.413 769.286 481.709 L769.286 493.741 L766.036 493.741 L766.036 481.928 Q766.036 479.928 765.653 478.928 Q765.270 477.928 764.309 477.334 Q763.348 476.741 762.036 476.741 Q759.958 476.741 758.450 478.077 Q756.942 479.413 756.942 483.147 L756.942 493.741 L753.692 493.741 Z"/>
  <path d="M543.875 416 L543.875 413 Q541.438 412.688 539.907 411.891 Q538.375 411.094 537.266 409.328 Q536.157 407.562 535.969 405 L539.250 405 Q539.625 407.266 540.594 408.328 Q541.954 409.828 543.875 410 L543.875 400.234 Q541.860 399.766 539.766 398.641 Q538.219 397.828 537.375 396.359 Q536.532 394.891 536.532 393.031 Q536.532 389.734 538.985 387.688 Q540.641 386.312 543.875 386 L543.875 385 L545.782 385 L545.782 386 Q548.610 386.297 550.282 387.781 Q552.407 389.688 552.844 393 L549.485 393 Q549.204 391.219 548.290 390.258 Q547.375 389.297 545.782 389 L545.782 397.578 Q548.235 398.141 549.032 398.484 Q550.547 399.125 551.508 400.070 Q552.469 401.016 552.985 402.305 Q553.500 403.594 553.500 405.094 Q553.500 408.406 551.352 410.625 Q549.204 412.844 545.782 413 L545.782 416 L543.875 416 Z M543.875 389 Q541.969 389.266 540.875 390.391 Q539.782 391.516 539.782 393.047 Q539.782 394.578 540.711 395.602 Q541.641 396.625 543.875 397.141 L543.875 389 Z M545.782 410 Q547.672 409.766 548.915 408.406 Q550.157 407.047 550.157 405.047 Q550.157 403.344 549.282 402.305 Q548.407 401.266 545.782 400.672 L545.782 410 Z"/>
  <path d="M568.829 413 L565.579 413 L565.579 391.969 Q564.407 393.109 562.500 394.242 Q560.594 395.375 559.079 395.938 L559.079 392.750 Q561.813 391.453 563.852 389.602 Q565.891 387.750 566.735 386 L568.829 386 L568.829 413 Z"/>
  <path d="M587.860 413 L584.610 413 L584.610 391.969 Q583.438 393.109 581.532 394.242 Q579.625 395.375 578.110 395.938 L578.110 392.750 Q580.844 391.453 582.883 389.602 Q584.922 387.750 585.766 386 L587.860 386 L587.860 413 Z"/>
  <path d="M596.391 413 L596.391 410 L600.094 410 L600.094 413 Q600.094 415.344 599.375 416.781 Q598.657 418.219 597.079 419 L596.188 418 Q597.219 417.406 597.704 416.273 Q598.188 415.141 598.235 413 L596.391 413 Z"/>
  <path d="M621.922 410 L621.922 413 L604.422 413 Q604.375 411.875 604.797 410.828 Q605.469 409.109 606.938 407.445 Q608.407 405.781 611.188 403.406 Q615.516 399.719 617.032 397.617 Q618.547 395.516 618.547 393.656 Q618.547 391.688 617.165 390.344 Q615.782 389 613.563 389 Q611.219 389 609.805 390.062 Q608.391 391.125 608.375 393 L605.032 393 Q605.375 389.578 607.618 387.789 Q609.860 386 613.625 386 Q617.454 386 619.672 388.172 Q621.891 390.344 621.891 393.562 Q621.891 395.203 621.243 396.781 Q620.594 398.359 619.079 400.109 Q617.563 401.859 614.063 404.844 Q611.141 407.328 610.313 408.219 Q609.485 409.109 608.938 410 L621.922 410 Z"/>
  <path d="M637.469 413 L634.219 413 L634.219 391.969 Q633.047 393.109 631.141 394.242 Q629.235 395.375 627.719 395.938 L627.719 392.750 Q630.454 391.453 632.493 389.602 Q634.532 387.750 635.375 386 L637.469 386 L637.469 413 Z"/>
  <path d="M650.625 398.406 Q648.594 397.656 647.618 396.266 Q646.641 394.875 646.641 392.922 Q646.641 390 648.719 388 Q650.797 386 654.250 386 Q657.719 386 659.836 388.047 Q661.954 390.094 661.954 393.016 Q661.954 394.891 660.985 396.273 Q660.016 397.656 658.047 398.406 Q660.485 399.188 661.758 400.930 Q663.032 402.672 663.032 405.094 Q663.032 408.438 660.625 410.719 Q658.219 413 654.297 413 Q650.391 413 647.985 410.711 Q645.579 408.422 645.579 405.016 Q645.579 402.469 646.891 400.750 Q648.204 399.031 650.625 398.406 Z M649.969 392.891 Q649.969 394.703 651.180 395.852 Q652.391 397 654.329 397 Q656.204 397 657.407 395.859 Q658.610 394.719 658.610 393.062 Q658.610 391.344 657.375 390.172 Q656.141 389 654.297 389 Q652.422 389 651.196 390.148 Q649.969 391.297 649.969 392.891 Z M648.922 404.953 Q648.922 406.250 649.579 407.461 Q650.235 408.672 651.540 409.336 Q652.844 410 654.344 410 Q656.672 410 658.188 408.602 Q659.704 407.203 659.704 405.047 Q659.704 402.859 658.141 401.430 Q656.579 400 654.235 400 Q651.938 400 650.430 401.414 Q648.922 402.828 648.922 404.953 Z"/>
  <path d="M669.907 413 L666.891 413 L666.891 386 L670.141 386 L670.141 395.906 Q672.204 393 675.407 393 Q677.172 393 678.750 393.711 Q680.329 394.422 681.352 395.711 Q682.375 397 682.954 398.820 Q683.532 400.641 683.532 402.719 Q683.532 407.625 681.094 410.312 Q678.657 413 675.235 413 Q671.844 413 669.907 409.812 L669.907 413 Z M669.875 402.859 Q669.875 406.141 670.813 407.609 Q672.344 410 674.969 410 Q677.094 410 678.649 408.234 Q680.204 406.469 680.204 402.984 Q680.204 399.406 678.711 397.703 Q677.219 396 675.110 396 Q672.985 396 671.430 397.766 Q669.875 399.531 669.875 402.859 Z"/>
  <path d="M687.219 413 L687.219 386 L690.485 386 L690.485 413 L687.219 413 Z"/>
  <path d="M695.438 413 L695.438 393 L698.360 393 L698.360 395.734 Q700.469 393 704.469 393 Q706.204 393 707.657 393.633 Q709.110 394.266 709.836 395.297 Q710.563 396.328 710.844 397.750 Q711.032 398.672 711.032 400.969 L711.032 413 L707.782 413 L707.782 401.188 Q707.782 399.188 707.399 398.188 Q707.016 397.188 706.055 396.594 Q705.094 396 703.782 396 Q701.704 396 700.196 397.336 Q698.688 398.672 698.688 402.406 L698.688 413 L695.438 413 Z"/>
  <path d="M531.102 335.259 L531.102 332.259 Q528.664 331.947 527.133 331.150 Q525.602 330.353 524.492 328.587 Q523.383 326.822 523.195 324.259 L526.477 324.259 Q526.852 326.525 527.820 327.587 Q529.180 329.087 531.102 329.259 L531.102 319.494 Q529.086 319.025 526.992 317.900 Q525.445 317.087 524.602 315.619 Q523.758 314.150 523.758 312.291 Q523.758 308.994 526.211 306.947 Q527.867 305.572 531.102 305.259 L531.102 304.259 L533.008 304.259 L533.008 305.259 Q535.836 305.556 537.508 307.041 Q539.633 308.947 540.070 312.259 L536.711 312.259 Q536.430 310.478 535.516 309.517 Q534.602 308.556 533.008 308.259 L533.008 316.837 Q535.461 317.400 536.258 317.744 Q537.774 318.384 538.734 319.330 Q539.695 320.275 540.211 321.564 Q540.727 322.853 540.727 324.353 Q540.727 327.666 538.578 329.884 Q536.430 332.103 533.008 332.259 L533.008 335.259 L531.102 335.259 Z M531.102 308.259 Q529.195 308.525 528.102 309.650 Q527.008 310.775 527.008 312.306 Q527.008 313.837 527.938 314.861 Q528.867 315.884 531.102 316.400 L531.102 308.259 Z M533.008 329.259 Q534.899 329.025 536.141 327.666 Q537.383 326.306 537.383 324.306 Q537.383 322.603 536.508 321.564 Q535.633 320.525 533.008 319.931 L533.008 329.259 Z"/>
  <path d="M560.899 329.259 L560.899 332.259 L543.399 332.259 Q543.352 331.134 543.774 330.087 Q544.445 328.369 545.914 326.705 Q547.383 325.041 550.164 322.666 Q554.492 318.978 556.008 316.876 Q557.524 314.775 557.524 312.916 Q557.524 310.947 556.141 309.603 Q554.758 308.259 552.539 308.259 Q550.195 308.259 548.781 309.322 Q547.367 310.384 547.352 312.259 L544.008 312.259 Q544.352 308.837 546.594 307.048 Q548.836 305.259 552.602 305.259 Q556.430 305.259 558.649 307.431 Q560.867 309.603 560.867 312.822 Q560.867 314.462 560.219 316.041 Q559.570 317.619 558.055 319.369 Q556.539 321.119 553.039 324.103 Q550.117 326.587 549.289 327.478 Q548.461 328.369 547.914 329.259 L560.899 329.259 Z"/>
  <path d="M565.945 332.259 L565.945 329.259 L569.649 329.259 L569.649 332.259 Q569.649 334.603 568.930 336.041 Q568.211 337.478 566.633 338.259 L565.742 337.259 Q566.774 336.666 567.258 335.533 Q567.742 334.400 567.789 332.259 L565.945 332.259 Z"/>
  <path d="M584.805 332.259 L584.805 326.259 L573.320 326.259 L573.320 323.259 L585.414 305.259 L588.070 305.259 L588.070 323.259 L591.649 323.259 L591.649 326.259 L588.070 326.259 L588.070 332.259 L584.805 332.259 Z M584.805 323.259 L584.805 310.931 L576.524 323.259 L584.805 323.259 Z"/>
  <path d="M611.649 312.259 L608.414 312.259 Q607.977 310.431 607.180 309.587 Q605.867 308.259 603.930 308.259 Q602.383 308.259 601.211 309.025 Q599.680 310.025 598.789 311.939 Q597.899 313.853 597.867 317.791 Q599.039 315.994 600.734 315.126 Q602.430 314.259 604.305 314.259 Q607.555 314.259 609.836 316.705 Q612.117 319.150 612.117 323.025 Q612.117 325.572 611.039 327.751 Q609.961 329.931 608.086 331.095 Q606.211 332.259 603.820 332.259 Q599.758 332.259 597.195 329.275 Q594.633 326.291 594.633 319.431 Q594.633 311.775 597.477 308.291 Q599.945 305.259 604.133 305.259 Q607.258 305.259 609.258 307.119 Q611.258 308.978 611.649 312.259 Z M598.367 322.947 Q598.367 324.619 599.078 326.142 Q599.789 327.666 601.078 328.462 Q602.367 329.259 603.774 329.259 Q605.836 329.259 607.320 327.611 Q608.805 325.962 608.805 323.119 Q608.805 320.400 607.336 318.830 Q605.867 317.259 603.649 317.259 Q601.445 317.259 599.906 318.830 Q598.367 320.400 598.367 322.947 Z"/>
  <path d="M615.164 325.259 L618.586 325.259 Q618.961 327.259 620.344 328.259 Q621.727 329.259 623.680 329.259 Q626.024 329.259 627.649 327.556 Q629.274 325.853 629.274 323.041 Q629.274 320.353 627.711 318.806 Q626.149 317.259 623.617 317.259 Q622.055 317.259 620.789 317.814 Q619.524 318.369 618.805 319.259 L615.742 319.259 L618.305 305.259 L631.477 305.259 L631.477 308.259 L620.914 308.259 L619.492 315.994 Q621.883 314.259 624.492 314.259 Q627.961 314.259 630.344 316.658 Q632.727 319.056 632.727 322.837 Q632.727 326.431 630.633 329.041 Q628.086 332.259 623.680 332.259 Q620.055 332.259 617.774 330.345 Q615.492 328.431 615.164 325.259 Z"/>
  <path d="M639.461 332.259 L636.445 332.259 L636.445 305.259 L639.695 305.259 L639.695 315.166 Q641.758 312.259 644.961 312.259 Q646.727 312.259 648.305 312.970 Q649.883 313.681 650.906 314.970 Q651.930 316.259 652.508 318.080 Q653.086 319.900 653.086 321.978 Q653.086 326.884 650.649 329.572 Q648.211 332.259 644.789 332.259 Q641.399 332.259 639.461 329.072 L639.461 332.259 Z M639.430 322.119 Q639.430 325.400 640.367 326.869 Q641.899 329.259 644.524 329.259 Q646.649 329.259 648.203 327.494 Q649.758 325.728 649.758 322.244 Q649.758 318.666 648.266 316.962 Q646.774 315.259 644.664 315.259 Q642.539 315.259 640.984 317.025 Q639.430 318.791 639.430 322.119 Z"/>
  <path d="M656.774 332.259 L656.774 305.259 L660.039 305.259 L660.039 332.259 L656.774 332.259 Z"/>
  <path d="M664.992 332.259 L664.992 312.259 L667.914 312.259 L667.914 314.994 Q670.024 312.259 674.024 312.259 Q675.758 312.259 677.211 312.892 Q678.664 313.525 679.391 314.556 Q680.117 315.587 680.399 317.009 Q680.586 317.931 680.586 320.228 L680.586 332.259 L677.336 332.259 L677.336 320.447 Q677.336 318.447 676.953 317.447 Q676.570 316.447 675.609 315.853 Q674.649 315.259 673.336 315.259 Q671.258 315.259 669.750 316.595 Q668.242 317.931 668.242 321.666 L668.242 332.259 L664.992 332.259 Z"/>
  <path d="M516.643 254.519 L516.643 251.519 Q514.206 251.206 512.675 250.409 Q511.143 249.612 510.034 247.847 Q508.925 246.081 508.737 243.519 L512.018 243.519 Q512.393 245.784 513.362 246.847 Q514.722 248.347 516.643 248.519 L516.643 238.753 Q514.628 238.284 512.534 237.159 Q510.987 236.347 510.143 234.878 Q509.300 233.409 509.300 231.550 Q509.300 228.253 511.753 226.206 Q513.409 224.831 516.643 224.519 L516.643 223.519 L518.550 223.519 L518.550 224.519 Q521.378 224.815 523.050 226.300 Q525.175 228.206 525.612 231.519 L522.253 231.519 Q521.972 229.737 521.057 228.776 Q520.143 227.815 518.550 227.519 L518.550 236.097 Q521.003 236.659 521.800 237.003 Q523.315 237.644 524.276 238.589 Q525.237 239.534 525.753 240.823 Q526.268 242.112 526.268 243.612 Q526.268 246.925 524.120 249.144 Q521.972 251.362 518.550 251.519 L518.550 254.519 L516.643 254.519 Z M516.643 227.519 Q514.737 227.784 513.643 228.909 Q512.550 230.034 512.550 231.565 Q512.550 233.097 513.479 234.120 Q514.409 235.144 516.643 235.659 L516.643 227.519 Z M518.550 248.519 Q520.440 248.284 521.682 246.925 Q522.925 245.565 522.925 243.565 Q522.925 241.862 522.050 240.823 Q521.175 239.784 518.550 239.190 L518.550 248.519 Z"/>
  <path d="M546.440 248.519 L546.440 251.519 L528.940 251.519 Q528.893 250.394 529.315 249.347 Q529.987 247.628 531.456 245.964 Q532.925 244.300 535.706 241.925 Q540.034 238.237 541.550 236.136 Q543.065 234.034 543.065 232.175 Q543.065 230.206 541.682 228.862 Q540.300 227.519 538.081 227.519 Q535.737 227.519 534.323 228.581 Q532.909 229.644 532.893 231.519 L529.550 231.519 Q529.893 228.097 532.136 226.308 Q534.378 224.519 538.143 224.519 Q541.972 224.519 544.190 226.690 Q546.409 228.862 546.409 232.081 Q546.409 233.722 545.761 235.300 Q545.112 236.878 543.597 238.628 Q542.081 240.378 538.581 243.362 Q535.659 245.847 534.831 246.737 Q534.003 247.628 533.456 248.519 L546.440 248.519 Z"/>
  <path d="M551.565 251.519 L551.565 248.519 L555.268 248.519 L555.268 251.519 L551.565 251.519 Z"/>
  <path d="M577.018 248.519 L577.018 251.519 L559.518 251.519 Q559.472 250.394 559.893 249.347 Q560.565 247.628 562.034 245.964 Q563.503 244.300 566.284 241.925 Q570.612 238.237 572.128 236.136 Q573.643 234.034 573.643 232.175 Q573.643 230.206 572.261 228.862 Q570.878 227.519 568.659 227.519 Q566.315 227.519 564.901 228.581 Q563.487 229.644 563.472 231.519 L560.128 231.519 Q560.472 228.097 562.714 226.308 Q564.956 224.519 568.722 224.519 Q572.550 224.519 574.768 226.690 Q576.987 228.862 576.987 232.081 Q576.987 233.722 576.339 235.300 Q575.690 236.878 574.175 238.628 Q572.659 240.378 569.159 243.362 Q566.237 245.847 565.409 246.737 Q564.581 247.628 564.034 248.519 L577.018 248.519 Z"/>
  <path d="M580.315 244.519 L583.737 244.519 Q584.112 246.519 585.495 247.519 Q586.878 248.519 588.831 248.519 Q591.175 248.519 592.800 246.815 Q594.425 245.112 594.425 242.300 Q594.425 239.612 592.862 238.065 Q591.300 236.519 588.768 236.519 Q587.206 236.519 585.940 237.073 Q584.675 237.628 583.956 238.519 L580.893 238.519 L583.456 224.519 L596.628 224.519 L596.628 227.519 L586.065 227.519 L584.643 235.253 Q587.034 233.519 589.643 233.519 Q593.112 233.519 595.495 235.917 Q597.878 238.315 597.878 242.097 Q597.878 245.690 595.784 248.300 Q593.237 251.519 588.831 251.519 Q585.206 251.519 582.925 249.604 Q580.643 247.690 580.315 244.519 Z"/>
  <path d="M601.206 244.519 L604.331 244.519 Q604.722 246.628 605.847 247.573 Q606.972 248.519 608.722 248.519 Q610.222 248.519 611.347 247.909 Q612.472 247.300 613.198 246.284 Q613.925 245.269 614.409 243.487 Q614.893 241.706 614.893 239.690 Q614.893 239.472 614.878 239.034 Q613.909 240.597 612.214 241.558 Q610.518 242.519 608.550 242.519 Q605.268 242.519 602.987 240.081 Q600.706 237.644 600.706 233.659 Q600.706 229.534 603.081 227.026 Q605.456 224.519 609.034 224.519 Q611.628 224.519 613.768 225.909 Q615.909 227.300 617.018 229.870 Q618.128 232.440 618.128 237.300 Q618.128 242.378 617.026 245.378 Q615.925 248.378 613.745 249.948 Q611.565 251.519 608.643 251.519 Q605.534 251.519 603.565 249.683 Q601.597 247.847 601.206 244.519 Z M614.518 233.581 Q614.518 230.800 613.026 229.159 Q611.534 227.519 609.440 227.519 Q607.268 227.519 605.659 229.284 Q604.050 231.050 604.050 233.847 Q604.050 236.378 605.581 237.948 Q607.112 239.519 609.347 239.519 Q611.612 239.519 613.065 237.948 Q614.518 236.378 614.518 233.581 Z"/>
  <path d="M625.003 251.519 L621.987 251.519 L621.987 224.519 L625.237 224.519 L625.237 234.425 Q627.300 231.519 630.503 231.519 Q632.268 231.519 633.847 232.229 Q635.425 232.940 636.448 234.229 Q637.472 235.519 638.050 237.339 Q638.628 239.159 638.628 241.237 Q638.628 246.144 636.190 248.831 Q633.753 251.519 630.331 251.519 Q626.940 251.519 625.003 248.331 L625.003 251.519 Z M624.972 241.378 Q624.972 244.659 625.909 246.128 Q627.440 248.519 630.065 248.519 Q632.190 248.519 633.745 246.753 Q635.300 244.987 635.300 241.503 Q635.300 237.925 633.807 236.222 Q632.315 234.519 630.206 234.519 Q628.081 234.519 626.526 236.284 Q624.972 238.050 624.972 241.378 Z"/>
  <path d="M642.315 251.519 L642.315 224.519 L645.581 224.519 L645.581 251.519 L642.315 251.519 Z"/>
  <path d="M650.534 251.519 L650.534 231.519 L653.456 231.519 L653.456 234.253 Q655.565 231.519 659.565 231.519 Q661.300 231.519 662.753 232.151 Q664.206 232.784 664.932 233.815 Q665.659 234.847 665.940 236.269 Q666.128 237.190 666.128 239.487 L666.128 251.519 L662.878 251.519 L662.878 239.706 Q662.878 237.706 662.495 236.706 Q662.112 235.706 661.151 235.112 Q660.190 234.519 658.878 234.519 Q656.800 234.519 655.292 235.854 Q653.784 237.190 653.784 240.925 L653.784 251.519 L650.534 251.519 Z"/>
  <path d="M488.499 173.778 L488.499 170.778 Q486.061 170.465 484.530 169.668 Q482.999 168.872 481.890 167.106 Q480.780 165.340 480.593 162.778 L483.874 162.778 Q484.249 165.043 485.218 166.106 Q486.577 167.606 488.499 167.778 L488.499 158.012 Q486.483 157.543 484.390 156.418 Q482.843 155.606 481.999 154.137 Q481.155 152.668 481.155 150.809 Q481.155 147.512 483.608 145.465 Q485.265 144.090 488.499 143.778 L488.499 142.778 L490.405 142.778 L490.405 143.778 Q493.233 144.075 494.905 145.559 Q497.030 147.465 497.468 150.778 L494.108 150.778 Q493.827 148.997 492.913 148.036 Q491.999 147.075 490.405 146.778 L490.405 155.356 Q492.858 155.918 493.655 156.262 Q495.171 156.903 496.132 157.848 Q497.093 158.793 497.608 160.082 Q498.124 161.372 498.124 162.872 Q498.124 166.184 495.975 168.403 Q493.827 170.622 490.405 170.778 L490.405 173.778 L488.499 173.778 Z M488.499 146.778 Q486.593 147.043 485.499 148.168 Q484.405 149.293 484.405 150.825 Q484.405 152.356 485.335 153.379 Q486.265 154.403 488.499 154.918 L488.499 146.778 Z M490.405 167.778 Q492.296 167.543 493.538 166.184 Q494.780 164.825 494.780 162.825 Q494.780 161.122 493.905 160.082 Q493.030 159.043 490.405 158.450 L490.405 167.778 Z"/>
  <path d="M513.452 170.778 L510.202 170.778 L510.202 149.747 Q509.030 150.887 507.124 152.020 Q505.218 153.153 503.702 153.715 L503.702 150.528 Q506.436 149.231 508.475 147.379 Q510.515 145.528 511.358 143.778 L513.452 143.778 L513.452 170.778 Z"/>
  <path d="M523.421 170.778 L523.421 167.778 L527.124 167.778 L527.124 170.778 L523.421 170.778 Z"/>
  <path d="M536.796 156.184 Q534.765 155.434 533.788 154.043 Q532.811 152.653 532.811 150.700 Q532.811 147.778 534.890 145.778 Q536.968 143.778 540.421 143.778 Q543.890 143.778 546.007 145.825 Q548.124 147.872 548.124 150.793 Q548.124 152.668 547.155 154.051 Q546.186 155.434 544.218 156.184 Q546.655 156.965 547.929 158.707 Q549.202 160.450 549.202 162.872 Q549.202 166.215 546.796 168.497 Q544.390 170.778 540.468 170.778 Q536.561 170.778 534.155 168.489 Q531.749 166.200 531.749 162.793 Q531.749 160.247 533.061 158.528 Q534.374 156.809 536.796 156.184 Z M536.140 150.668 Q536.140 152.481 537.350 153.629 Q538.561 154.778 540.499 154.778 Q542.374 154.778 543.577 153.637 Q544.780 152.497 544.780 150.840 Q544.780 149.122 543.546 147.950 Q542.311 146.778 540.468 146.778 Q538.593 146.778 537.366 147.926 Q536.140 149.075 536.140 150.668 Z M535.093 162.731 Q535.093 164.028 535.749 165.239 Q536.405 166.450 537.710 167.114 Q539.015 167.778 540.515 167.778 Q542.843 167.778 544.358 166.379 Q545.874 164.981 545.874 162.825 Q545.874 160.637 544.311 159.207 Q542.749 157.778 540.405 157.778 Q538.108 157.778 536.600 159.192 Q535.093 160.606 535.093 162.731 Z"/>
  <path d="M552.171 163.778 L555.593 163.778 Q555.968 165.778 557.350 166.778 Q558.733 167.778 560.686 167.778 Q563.030 167.778 564.655 166.075 Q566.280 164.372 566.280 161.559 Q566.280 158.872 564.718 157.325 Q563.155 155.778 560.624 155.778 Q559.061 155.778 557.796 156.332 Q556.530 156.887 555.811 157.778 L552.749 157.778 L555.311 143.778 L568.483 143.778 L568.483 146.778 L557.921 146.778 L556.499 154.512 Q558.890 152.778 561.499 152.778 Q564.968 152.778 567.350 155.176 Q569.733 157.575 569.733 161.356 Q569.733 164.950 567.640 167.559 Q565.093 170.778 560.686 170.778 Q557.061 170.778 554.780 168.864 Q552.499 166.950 552.171 163.778 Z"/>
  <path d="M577.577 156.184 Q575.546 155.434 574.569 154.043 Q573.593 152.653 573.593 150.700 Q573.593 147.778 575.671 145.778 Q577.749 143.778 581.202 143.778 Q584.671 143.778 586.788 145.825 Q588.905 147.872 588.905 150.793 Q588.905 152.668 587.936 154.051 Q586.968 155.434 584.999 156.184 Q587.436 156.965 588.710 158.707 Q589.983 160.450 589.983 162.872 Q589.983 166.215 587.577 168.497 Q585.171 170.778 581.249 170.778 Q577.343 170.778 574.936 168.489 Q572.530 166.200 572.530 162.793 Q572.530 160.247 573.843 158.528 Q575.155 156.809 577.577 156.184 Z M576.921 150.668 Q576.921 152.481 578.132 153.629 Q579.343 154.778 581.280 154.778 Q583.155 154.778 584.358 153.637 Q585.561 152.497 585.561 150.840 Q585.561 149.122 584.327 147.950 Q583.093 146.778 581.249 146.778 Q579.374 146.778 578.147 147.926 Q576.921 149.075 576.921 150.668 Z M575.874 162.731 Q575.874 164.028 576.530 165.239 Q577.186 166.450 578.491 167.114 Q579.796 167.778 581.296 167.778 Q583.624 167.778 585.140 166.379 Q586.655 164.981 586.655 162.825 Q586.655 160.637 585.093 159.207 Q583.530 157.778 581.186 157.778 Q578.890 157.778 577.382 159.192 Q575.874 160.606 575.874 162.731 Z"/>
  <path d="M596.858 170.778 L593.843 170.778 L593.843 143.778 L597.093 143.778 L597.093 153.684 Q599.155 150.778 602.358 150.778 Q604.124 150.778 605.702 151.489 Q607.280 152.200 608.304 153.489 Q609.327 154.778 609.905 156.598 Q610.483 158.418 610.483 160.497 Q610.483 165.403 608.046 168.090 Q605.608 170.778 602.186 170.778 Q598.796 170.778 596.858 167.590 L596.858 170.778 Z M596.827 160.637 Q596.827 163.918 597.765 165.387 Q599.296 167.778 601.921 167.778 Q604.046 167.778 605.600 166.012 Q607.155 164.247 607.155 160.762 Q607.155 157.184 605.663 155.481 Q604.171 153.778 602.061 153.778 Q599.936 153.778 598.382 155.543 Q596.827 157.309 596.827 160.637 Z"/>
  <path d="M614.171 170.778 L614.171 143.778 L617.436 143.778 L617.436 170.778 L614.171 170.778 Z"/>
  <path d="M622.390 170.778 L622.390 150.778 L625.311 150.778 L625.311 153.512 Q627.421 150.778 631.421 150.778 Q633.155 150.778 634.608 151.411 Q636.061 152.043 636.788 153.075 Q637.515 154.106 637.796 155.528 Q637.983 156.450 637.983 158.747 L637.983 170.778 L634.733 170.778 L634.733 158.965 Q634.733 156.965 634.350 155.965 Q633.968 154.965 633.007 154.372 Q632.046 153.778 630.733 153.778 Q628.655 153.778 627.147 155.114 Q625.640 156.450 625.640 160.184 L625.640 170.778 L622.390 170.778 Z"/>
  <path d="M484.077 93.037 L484.077 90.037 Q481.640 89.725 480.108 88.928 Q478.577 88.131 477.468 86.365 Q476.358 84.600 476.171 82.037 L479.452 82.037 Q479.827 84.303 480.796 85.365 Q482.155 86.865 484.077 87.037 L484.077 77.271 Q482.062 76.803 479.968 75.678 Q478.421 74.865 477.577 73.396 Q476.733 71.928 476.733 70.068 Q476.733 66.771 479.187 64.725 Q480.843 63.350 484.077 63.037 L484.077 62.037 L485.983 62.037 L485.983 63.037 Q488.812 63.334 490.483 64.818 Q492.608 66.725 493.046 70.037 L489.687 70.037 Q489.405 68.256 488.491 67.295 Q487.577 66.334 485.983 66.037 L485.983 74.615 Q488.437 75.178 489.233 75.521 Q490.749 76.162 491.710 77.107 Q492.671 78.053 493.187 79.342 Q493.702 80.631 493.702 82.131 Q493.702 85.443 491.554 87.662 Q489.405 89.881 485.983 90.037 L485.983 93.037 L484.077 93.037 Z M484.077 66.037 Q482.171 66.303 481.077 67.428 Q479.983 68.553 479.983 70.084 Q479.983 71.615 480.913 72.639 Q481.843 73.662 484.077 74.178 L484.077 66.037 Z M485.983 87.037 Q487.874 86.803 489.116 85.443 Q490.358 84.084 490.358 82.084 Q490.358 80.381 489.483 79.342 Q488.608 78.303 485.983 77.709 L485.983 87.037 Z"/>
  <path d="M509.030 90.037 L505.780 90.037 L505.780 69.006 Q504.608 70.146 502.702 71.279 Q500.796 72.412 499.280 72.975 L499.280 69.787 Q502.015 68.490 504.054 66.639 Q506.093 64.787 506.937 63.037 L509.030 63.037 L509.030 90.037 Z"/>
  <path d="M518.999 90.037 L518.999 87.037 L522.702 87.037 L522.702 90.037 L518.999 90.037 Z"/>
  <path d="M527.577 66.037 L527.577 63.037 L544.718 63.037 L544.718 65.459 Q542.202 68.225 539.718 72.881 Q537.233 77.537 535.874 82.443 Q534.890 85.912 534.624 90.037 L531.280 90.037 Q531.327 86.771 532.507 82.162 Q533.687 77.553 535.882 73.264 Q538.077 68.975 540.546 66.037 L527.577 66.037 Z"/>
  <path d="M548.249 83.037 L551.374 83.037 Q551.765 85.146 552.890 86.092 Q554.015 87.037 555.765 87.037 Q557.265 87.037 558.390 86.428 Q559.515 85.818 560.241 84.803 Q560.968 83.787 561.452 82.006 Q561.937 80.225 561.937 78.209 Q561.937 77.990 561.921 77.553 Q560.952 79.115 559.257 80.076 Q557.562 81.037 555.593 81.037 Q552.312 81.037 550.030 78.600 Q547.749 76.162 547.749 72.178 Q547.749 68.053 550.124 65.545 Q552.499 63.037 556.077 63.037 Q558.671 63.037 560.812 64.428 Q562.952 65.818 564.062 68.389 Q565.171 70.959 565.171 75.818 Q565.171 80.896 564.069 83.896 Q562.968 86.896 560.788 88.467 Q558.608 90.037 555.687 90.037 Q552.577 90.037 550.608 88.201 Q548.640 86.365 548.249 83.037 Z M561.562 72.100 Q561.562 69.318 560.069 67.678 Q558.577 66.037 556.483 66.037 Q554.312 66.037 552.702 67.803 Q551.093 69.568 551.093 72.365 Q551.093 74.896 552.624 76.467 Q554.155 78.037 556.390 78.037 Q558.655 78.037 560.108 76.467 Q561.562 74.896 561.562 72.100 Z"/>
  <path d="M568.140 83.037 L571.562 83.037 Q571.937 85.037 573.319 86.037 Q574.702 87.037 576.655 87.037 Q578.999 87.037 580.624 85.334 Q582.249 83.631 582.249 80.818 Q582.249 78.131 580.687 76.584 Q579.124 75.037 576.593 75.037 Q575.030 75.037 573.765 75.592 Q572.499 76.146 571.780 77.037 L568.718 77.037 L571.280 63.037 L584.452 63.037 L584.452 66.037 L573.890 66.037 L572.468 73.771 Q574.858 72.037 577.468 72.037 Q580.937 72.037 583.319 74.435 Q585.702 76.834 585.702 80.615 Q585.702 84.209 583.608 86.818 Q581.062 90.037 576.655 90.037 Q573.030 90.037 570.749 88.123 Q568.468 86.209 568.140 83.037 Z"/>
  <path d="M592.437 90.037 L589.421 90.037 L589.421 63.037 L592.671 63.037 L592.671 72.943 Q594.733 70.037 597.937 70.037 Q599.702 70.037 601.280 70.748 Q602.858 71.459 603.882 72.748 Q604.905 74.037 605.483 75.857 Q606.062 77.678 606.062 79.756 Q606.062 84.662 603.624 87.350 Q601.187 90.037 597.765 90.037 Q594.374 90.037 592.437 86.850 L592.437 90.037 Z M592.405 79.896 Q592.405 83.178 593.343 84.646 Q594.874 87.037 597.499 87.037 Q599.624 87.037 601.179 85.271 Q602.733 83.506 602.733 80.021 Q602.733 76.443 601.241 74.740 Q599.749 73.037 597.640 73.037 Q595.515 73.037 593.960 74.803 Q592.405 76.568 592.405 79.896 Z"/>
  <path d="M609.749 90.037 L609.749 63.037 L613.015 63.037 L613.015 90.037 L609.749 90.037 Z"/>
  <path d="M617.968 90.037 L617.968 70.037 L620.890 70.037 L620.890 72.771 Q622.999 70.037 626.999 70.037 Q628.733 70.037 630.187 70.670 Q631.640 71.303 632.366 72.334 Q633.093 73.365 633.374 74.787 Q633.562 75.709 633.562 78.006 L633.562 90.037 L630.312 90.037 L630.312 78.225 Q630.312 76.225 629.929 75.225 Q629.546 74.225 628.585 73.631 Q627.624 73.037 626.312 73.037 Q624.233 73.037 622.726 74.373 Q621.218 75.709 621.218 79.443 L621.218 90.037 L617.968 90.037 Z"/>
</svg>
