<?xml version="1.0" encoding="UTF-8" ?>
<!-- Generated by clip v0.7.0 (clip-lang.org) -->
<svg xmlns="http://www.w3.org/2000/svg" width="960.000000" height="280.000000">
  <rect width="960.000000" height="280.000000" fill="#ffffff" fill-opacity="1.000000"/>
  <path d="M14.6667 235.6 L945.333 235.6 " fill="none" stroke-width="1.333333" stroke="#000000ff"/>
  <path d="M86.2564 235.6 L86.2564 230.267 " fill="none" stroke-width="1.333333" stroke="#000000ff"/>
  <path d="M157.846 235.6 L157.846 230.267 " fill="none" stroke-width="1.333333" stroke="#000000ff"/>
  <path d="M229.436 235.6 L229.436 230.267 " fill="none" stroke-width="1.333333" stroke="#000000ff"/>
  <path d="M301.026 235.6 L301.026 230.267 " fill="none" stroke-width="1.333333" stroke="#000000ff"/>
  <path d="M372.615 235.6 L372.615 230.267 " fill="none" stroke-width="1.333333" stroke="#000000ff"/>
  <path d="M444.205 235.6 L444.205 230.267 " fill="none" stroke-width="1.333333" stroke="#000000ff"/>
  <path d="M515.795 235.6 L515.795 230.267 " fill="none" stroke-width="1.333333" stroke="#000000ff"/>
  <path d="M587.385 235.6 L587.385 230.267 " fill="none" stroke-width="1.333333" stroke="#000000ff"/>
  <path d="M658.974 235.6 L658.974 230.267 " fill="none" stroke-width="1.333333" stroke="#000000ff"/>
  <path d="M730.564 235.6 L730.564 230.267 " fill="none" stroke-width="1.333333" stroke="#000000ff"/>
  <path d="M802.154 235.6 L802.154 230.267 " fill="none" stroke-width="1.333333" stroke="#000000ff"/>
  <path d="M873.744 235.6 L873.744 230.267 " fill="none" stroke-width="1.333333" stroke="#000000ff"/>
  <path d="M74.8658 258.49 L76.147 258.333 Q76.1939 259.49 76.608 259.911 Q77.022 260.333 77.7408 260.333 Q78.2877 260.333 78.6705 260.076 Q79.0533 259.818 79.2017 259.388 Q79.3502 258.958 79.3502 257.99 L79.3502 250.333 L80.7564 250.333 L80.7564 257.708 Q80.7564 259.068 80.4283 259.81 Q80.1002 260.552 79.397 260.943 Q78.6939 261.333 77.7408 261.333 Q76.3345 261.333 75.5845 260.615 Q74.8345 259.896 74.8658 258.49 Z" fill="#000000" fill-opacity="1.000000"/>
  <path d="M87.8345 260.333 Q87.1002 260.88 86.4205 261.107 Q85.7408 261.333 84.9752 261.333 Q83.6939 261.333 83.0064 260.724 Q82.3189 260.115 82.3189 259.161 Q82.3189 258.599 82.5767 258.138 Q82.8345 257.677 83.2564 257.396 Q83.6783 257.115 84.2095 256.974 Q84.6002 256.865 85.3814 256.771 Q86.9752 256.599 87.7252 256.333 Q87.7408 256.052 87.7408 255.974 Q87.7408 255.146 87.3658 254.802 Q86.8658 254.333 85.8658 254.333 Q84.9283 254.333 84.4908 254.552 Q84.0533 254.771 83.8345 255.333 L82.5377 255.333 Q82.7095 254.646 83.1158 254.216 Q83.522 253.786 84.2798 253.56 Q85.0377 253.333 86.0377 253.333 Q87.0377 253.333 87.6627 253.529 Q88.2877 253.724 88.5767 254.029 Q88.8658 254.333 88.9908 254.786 Q89.0533 255.068 89.0533 255.974 L89.0533 257.802 Q89.0533 259.708 89.1392 260.263 Q89.2252 260.818 89.4752 261.333 L88.1002 261.333 Q87.897 260.911 87.8345 260.333 ZM87.7252 257.333 Q87.0064 257.615 85.5689 257.818 Q84.7564 257.943 84.4205 258.083 Q84.0845 258.224 83.9048 258.505 Q83.7252 258.786 83.7252 259.115 Q83.7252 259.646 84.1236 259.99 Q84.522 260.333 85.2877 260.333 Q86.0533 260.333 86.647 259.966 Q87.2408 259.599 87.522 259.052 Q87.7252 258.63 87.7252 257.786 L87.7252 257.333 Z" fill="#000000" fill-opacity="1.000000"/>
  <path d="M90.9127 261.333 L90.9127 253.333 L92.1002 253.333 L92.1002 254.443 Q92.9595 253.333 94.5845 253.333 Q95.2877 253.333 95.8736 253.591 Q96.4595 253.849 96.7564 254.255 Q97.0533 254.661 97.1627 255.24 Q97.2408 255.599 97.2408 256.521 L97.2408 261.333 L95.9127 261.333 L95.9127 256.474 Q95.9127 255.646 95.7564 255.232 Q95.6002 254.818 95.2095 254.576 Q94.8189 254.333 94.3033 254.333 Q93.4595 254.333 92.8502 254.88 Q92.2408 255.427 92.2408 256.958 L92.2408 261.333 L90.9127 261.333 Z" fill="#000000" fill-opacity="1.000000"/>
  <path d="M146.44 261.333 L146.44 250.333 L153.674 250.333 L153.674 251.333 L147.862 251.333 L147.862 255.333 L152.893 255.333 L152.893 256.333 L147.862 256.333 L147.862 261.333 L146.44 261.333 Z" fill="#000000" fill-opacity="1.000000"/>
  <path d="M160.487 259.333 L161.846 259.333 Q161.518 260.286 160.651 260.81 Q159.784 261.333 158.424 261.333 Q156.721 261.333 155.721 260.302 Q154.721 259.271 154.721 257.396 Q154.721 255.474 155.729 254.404 Q156.737 253.333 158.362 253.333 Q159.909 253.333 160.901 254.302 Q161.893 255.271 161.893 257.021 Q161.893 257.115 161.893 257.333 L156.081 257.333 Q156.159 258.786 156.807 259.56 Q157.456 260.333 158.44 260.333 Q159.159 260.333 159.674 260.091 Q160.19 259.849 160.487 259.333 ZM156.159 256.333 L160.502 256.333 Q160.409 255.458 160.002 255.021 Q159.377 254.333 158.377 254.333 Q157.456 254.333 156.838 254.88 Q156.221 255.427 156.159 256.333 Z" fill="#000000" fill-opacity="1.000000"/>
  <path d="M164.534 261.333 L163.315 261.333 L163.315 250.333 L164.627 250.333 L164.627 254.302 Q165.471 253.333 166.768 253.333 Q167.487 253.333 168.127 253.615 Q168.768 253.896 169.182 254.411 Q169.596 254.927 169.831 255.661 Q170.065 256.396 170.065 257.224 Q170.065 259.193 169.073 260.263 Q168.081 261.333 166.706 261.333 Q165.315 261.333 164.534 260.271 L164.534 261.333 ZM164.518 257.271 Q164.518 258.677 164.893 259.302 Q165.518 260.333 166.581 260.333 Q167.44 260.333 168.073 259.576 Q168.706 258.818 168.706 257.333 Q168.706 255.786 168.104 255.06 Q167.502 254.333 166.643 254.333 Q165.784 254.333 165.151 255.091 Q164.518 255.849 164.518 257.271 Z" fill="#000000" fill-opacity="1.000000"/>
  <path d="M217.912 261.333 L217.912 250.333 L220.053 250.333 L222.6 257.927 Q222.959 258.99 223.116 259.521 Q223.303 258.943 223.694 257.802 L226.256 250.333 L228.162 250.333 L228.162 261.333 L226.787 261.333 L226.787 251.333 L223.678 261.333 L222.397 261.333 L219.287 251.333 L219.287 261.333 L217.912 261.333 Z" fill="#000000" fill-opacity="1.000000"/>
  <path d="M235.084 260.333 Q234.35 260.88 233.67 261.107 Q232.991 261.333 232.225 261.333 Q230.944 261.333 230.256 260.724 Q229.569 260.115 229.569 259.161 Q229.569 258.599 229.827 258.138 Q230.084 257.677 230.506 257.396 Q230.928 257.115 231.459 256.974 Q231.85 256.865 232.631 256.771 Q234.225 256.599 234.975 256.333 Q234.991 256.052 234.991 255.974 Q234.991 255.146 234.616 254.802 Q234.116 254.333 233.116 254.333 Q232.178 254.333 231.741 254.552 Q231.303 254.771 231.084 255.333 L229.787 255.333 Q229.959 254.646 230.366 254.216 Q230.772 253.786 231.53 253.56 Q232.287 253.333 233.287 253.333 Q234.287 253.333 234.912 253.529 Q235.537 253.724 235.827 254.029 Q236.116 254.333 236.241 254.786 Q236.303 255.068 236.303 255.974 L236.303 257.802 Q236.303 259.708 236.389 260.263 Q236.475 260.818 236.725 261.333 L235.35 261.333 Q235.147 260.911 235.084 260.333 ZM234.975 257.333 Q234.256 257.615 232.819 257.818 Q232.006 257.943 231.67 258.083 Q231.334 258.224 231.155 258.505 Q230.975 258.786 230.975 259.115 Q230.975 259.646 231.373 259.99 Q231.772 260.333 232.537 260.333 Q233.303 260.333 233.897 259.966 Q234.491 259.599 234.772 259.052 Q234.975 258.63 234.975 257.786 L234.975 257.333 Z" fill="#000000" fill-opacity="1.000000"/>
  <path d="M238.147 261.333 L238.147 253.333 L239.334 253.333 L239.334 254.333 Q239.787 253.724 240.17 253.529 Q240.553 253.333 241.022 253.333 Q241.694 253.333 242.381 253.536 L241.928 254.755 Q241.444 254.333 240.959 254.333 Q240.522 254.333 240.178 254.607 Q239.834 254.88 239.694 255.365 Q239.475 256.115 239.475 257.005 L239.475 261.333 L238.147 261.333 Z" fill="#000000" fill-opacity="1.000000"/>
  <path d="M289.596 261.333 L293.721 250.333 L295.237 250.333 L299.643 261.333 L298.018 261.333 L296.768 258.333 L292.283 258.333 L291.096 261.333 L289.596 261.333 ZM292.69 257.333 L296.33 257.333 L295.205 253.896 Q294.69 252.536 294.44 251.333 Q294.237 252.677 293.862 253.708 L292.69 257.333 Z" fill="#000000" fill-opacity="1.000000"/>
  <path d="M300.377 264.333 L300.377 253.333 L301.58 253.333 L301.58 254.49 Q302.002 253.911 302.541 253.622 Q303.08 253.333 303.83 253.333 Q304.83 253.333 305.588 253.841 Q306.346 254.349 306.737 255.263 Q307.127 256.177 307.127 257.271 Q307.127 258.443 306.698 259.388 Q306.268 260.333 305.455 260.833 Q304.643 261.333 303.737 261.333 Q303.08 261.333 302.565 261.076 Q302.049 260.818 301.705 260.427 L301.705 264.333 L300.377 264.333 ZM301.58 257.396 Q301.58 258.896 302.19 259.615 Q302.799 260.333 303.658 260.333 Q304.533 260.333 305.158 259.591 Q305.783 258.849 305.783 257.286 Q305.783 255.802 305.174 255.068 Q304.565 254.333 303.721 254.333 Q302.877 254.333 302.229 255.122 Q301.58 255.911 301.58 257.396 Z" fill="#000000" fill-opacity="1.000000"/>
  <path d="M308.518 261.333 L308.518 253.333 L309.705 253.333 L309.705 254.333 Q310.158 253.724 310.541 253.529 Q310.924 253.333 311.393 253.333 Q312.065 253.333 312.752 253.536 L312.299 254.755 Q311.815 254.333 311.33 254.333 Q310.893 254.333 310.549 254.607 Q310.205 254.88 310.065 255.365 Q309.846 256.115 309.846 257.005 L309.846 261.333 L308.518 261.333 Z" fill="#000000" fill-opacity="1.000000"/>
  <path d="M359.865 261.333 L359.865 250.333 L362.006 250.333 L364.553 257.927 Q364.912 258.99 365.069 259.521 Q365.256 258.943 365.647 257.802 L368.209 250.333 L370.115 250.333 L370.115 261.333 L368.74 261.333 L368.74 251.333 L365.631 261.333 L364.35 261.333 L361.24 251.333 L361.24 261.333 L359.865 261.333 Z" fill="#000000" fill-opacity="1.000000"/>
  <path d="M377.037 260.333 Q376.303 260.88 375.623 261.107 Q374.944 261.333 374.178 261.333 Q372.897 261.333 372.209 260.724 Q371.522 260.115 371.522 259.161 Q371.522 258.599 371.779 258.138 Q372.037 257.677 372.459 257.396 Q372.881 257.115 373.412 256.974 Q373.803 256.865 374.584 256.771 Q376.178 256.599 376.928 256.333 Q376.944 256.052 376.944 255.974 Q376.944 255.146 376.569 254.802 Q376.069 254.333 375.069 254.333 Q374.131 254.333 373.694 254.552 Q373.256 254.771 373.037 255.333 L371.74 255.333 Q371.912 254.646 372.319 254.216 Q372.725 253.786 373.483 253.56 Q374.24 253.333 375.24 253.333 Q376.24 253.333 376.865 253.529 Q377.49 253.724 377.779 254.029 Q378.069 254.333 378.194 254.786 Q378.256 255.068 378.256 255.974 L378.256 257.802 Q378.256 259.708 378.342 260.263 Q378.428 260.818 378.678 261.333 L377.303 261.333 Q377.1 260.911 377.037 260.333 ZM376.928 257.333 Q376.209 257.615 374.772 257.818 Q373.959 257.943 373.623 258.083 Q373.287 258.224 373.108 258.505 Q372.928 258.786 372.928 259.115 Q372.928 259.646 373.326 259.99 Q373.725 260.333 374.49 260.333 Q375.256 260.333 375.85 259.966 Q376.444 259.599 376.725 259.052 Q376.928 258.63 376.928 257.786 L376.928 257.333 Z" fill="#000000" fill-opacity="1.000000"/>
  <path d="M380.069 264.208 L379.912 263.224 Q380.35 263.333 380.662 263.333 Q381.1 263.333 381.365 263.185 Q381.631 263.036 381.803 262.755 Q381.928 262.552 382.209 261.74 Q382.24 261.63 382.319 261.411 L379.365 253.333 L380.787 253.333 L382.412 257.755 Q382.725 258.599 382.975 259.521 Q383.209 258.943 383.522 258.068 L385.178 253.333 L386.506 253.333 L383.537 261.474 Q383.069 262.693 382.803 263.146 Q382.444 263.755 381.99 264.044 Q381.537 264.333 380.912 264.333 Q380.537 264.333 380.069 264.208 Z" fill="#000000" fill-opacity="1.000000"/>
  <path d="M432.815 258.49 L434.096 258.333 Q434.143 259.49 434.557 259.911 Q434.971 260.333 435.69 260.333 Q436.236 260.333 436.619 260.076 Q437.002 259.818 437.15 259.388 Q437.299 258.958 437.299 257.99 L437.299 250.333 L438.705 250.333 L438.705 257.708 Q438.705 259.068 438.377 259.81 Q438.049 260.552 437.346 260.943 Q436.643 261.333 435.69 261.333 Q434.283 261.333 433.533 260.615 Q432.783 259.896 432.815 258.49 Z" fill="#000000" fill-opacity="1.000000"/>
  <path d="M445.815 261.333 L445.815 260.146 Q444.908 261.333 443.346 261.333 Q442.643 261.333 442.049 261.068 Q441.455 260.802 441.166 260.404 Q440.877 260.005 440.752 259.411 Q440.674 259.021 440.674 258.177 L440.674 253.333 L442.002 253.333 L442.002 257.755 Q442.002 258.818 442.08 259.193 Q442.205 259.724 442.611 260.029 Q443.018 260.333 443.611 260.333 Q444.19 260.333 444.713 260.021 Q445.236 259.708 445.455 259.169 Q445.674 258.63 445.674 257.615 L445.674 253.333 L446.986 253.333 L446.986 261.333 L445.815 261.333 Z" fill="#000000" fill-opacity="1.000000"/>
  <path d="M448.861 261.333 L448.861 253.333 L450.049 253.333 L450.049 254.443 Q450.908 253.333 452.533 253.333 Q453.236 253.333 453.822 253.591 Q454.408 253.849 454.705 254.255 Q455.002 254.661 455.111 255.24 Q455.19 255.599 455.19 256.521 L455.19 261.333 L453.861 261.333 L453.861 256.474 Q453.861 255.646 453.705 255.232 Q453.549 254.818 453.158 254.576 Q452.768 254.333 452.252 254.333 Q451.408 254.333 450.799 254.88 Q450.19 255.427 450.19 256.958 L450.19 261.333 L448.861 261.333 Z" fill="#000000" fill-opacity="1.000000"/>
  <path d="M506.85 258.49 L508.131 258.333 Q508.178 259.49 508.592 259.911 Q509.006 260.333 509.725 260.333 Q510.271 260.333 510.654 260.076 Q511.037 259.818 511.185 259.388 Q511.334 258.958 511.334 257.99 L511.334 250.333 L512.74 250.333 L512.74 257.708 Q512.74 259.068 512.412 259.81 Q512.084 260.552 511.381 260.943 Q510.678 261.333 509.725 261.333 Q508.318 261.333 507.568 260.615 Q506.818 259.896 506.85 258.49 Z" fill="#000000" fill-opacity="1.000000"/>
  <path d="M519.85 261.333 L519.85 260.146 Q518.943 261.333 517.381 261.333 Q516.678 261.333 516.084 261.068 Q515.49 260.802 515.201 260.404 Q514.912 260.005 514.787 259.411 Q514.709 259.021 514.709 258.177 L514.709 253.333 L516.037 253.333 L516.037 257.755 Q516.037 258.818 516.115 259.193 Q516.24 259.724 516.646 260.029 Q517.053 260.333 517.646 260.333 Q518.225 260.333 518.748 260.021 Q519.271 259.708 519.49 259.169 Q519.709 258.63 519.709 257.615 L519.709 253.333 L521.021 253.333 L521.021 261.333 L519.85 261.333 Z" fill="#000000" fill-opacity="1.000000"/>
  <path d="M522.865 261.333 L522.865 250.333 L524.193 250.333 L524.193 261.333 L522.865 261.333 Z" fill="#000000" fill-opacity="1.000000"/>
  <path d="M574.322 261.333 L578.447 250.333 L579.963 250.333 L584.369 261.333 L582.744 261.333 L581.494 258.333 L577.01 258.333 L575.822 261.333 L574.322 261.333 ZM577.416 257.333 L581.056 257.333 L579.931 253.896 Q579.416 252.536 579.166 251.333 Q578.963 252.677 578.588 253.708 L577.416 257.333 Z" fill="#000000" fill-opacity="1.000000"/>
  <path d="M590.213 261.333 L590.213 260.146 Q589.306 261.333 587.744 261.333 Q587.041 261.333 586.447 261.068 Q585.853 260.802 585.564 260.404 Q585.275 260.005 585.15 259.411 Q585.072 259.021 585.072 258.177 L585.072 253.333 L586.4 253.333 L586.4 257.755 Q586.4 258.818 586.478 259.193 Q586.603 259.724 587.01 260.029 Q587.416 260.333 588.01 260.333 Q588.588 260.333 589.111 260.021 Q589.635 259.708 589.853 259.169 Q590.072 258.63 590.072 257.615 L590.072 253.333 L591.385 253.333 L591.385 261.333 L590.213 261.333 Z" fill="#000000" fill-opacity="1.000000"/>
  <path d="M593.025 262.333 L594.306 262.333 Q594.385 262.818 594.76 263.036 Q595.244 263.333 596.088 263.333 Q597.01 263.333 597.51 262.974 Q598.01 262.615 598.181 261.974 Q598.275 261.583 598.275 260.333 Q597.416 261.333 596.119 261.333 Q594.525 261.333 593.642 260.169 Q592.76 259.005 592.76 257.38 Q592.76 256.255 593.166 255.31 Q593.572 254.365 594.338 253.849 Q595.103 253.333 596.135 253.333 Q597.51 253.333 598.4 254.333 L598.4 253.333 L599.619 253.333 L599.619 260.099 Q599.619 261.927 599.252 262.685 Q598.885 263.443 598.08 263.888 Q597.275 264.333 596.103 264.333 Q594.713 264.333 593.853 263.833 Q592.994 263.333 593.025 262.333 ZM594.119 257.286 Q594.119 258.865 594.728 259.599 Q595.338 260.333 596.244 260.333 Q597.15 260.333 597.767 259.607 Q598.385 258.88 598.385 257.333 Q598.385 255.833 597.752 255.083 Q597.119 254.333 596.228 254.333 Q595.353 254.333 594.736 255.076 Q594.119 255.818 594.119 257.286 Z" fill="#000000" fill-opacity="1.000000"/>
  <path d="M646.599 258.333 L647.943 258.333 Q648.037 258.99 648.388 259.404 Q648.74 259.818 649.474 260.076 Q650.209 260.333 651.115 260.333 Q651.927 260.333 652.552 260.138 Q653.177 259.943 653.482 259.599 Q653.787 259.255 653.787 258.646 Q653.787 258.021 653.49 257.56 Q653.193 257.099 652.521 256.818 Q652.084 256.646 650.607 256.279 Q649.131 255.911 648.537 255.599 Q647.756 255.193 647.381 254.599 Q647.006 254.005 647.006 253.271 Q647.006 252.474 647.467 251.771 Q647.927 251.068 648.818 250.701 Q649.709 250.333 650.787 250.333 Q651.99 250.333 652.904 250.693 Q653.818 251.052 654.31 251.747 Q654.802 252.443 654.834 253.333 L653.459 253.333 Q653.349 252.349 652.717 251.841 Q652.084 251.333 650.849 251.333 Q649.552 251.333 648.967 251.826 Q648.381 252.318 648.381 253.021 Q648.381 253.63 648.802 254.021 Q649.209 254.411 650.943 254.826 Q652.677 255.24 653.318 255.536 Q654.256 255.958 654.701 256.615 Q655.146 257.271 655.146 258.13 Q655.146 258.99 654.654 259.74 Q654.162 260.49 653.248 260.911 Q652.334 261.333 651.177 261.333 Q649.724 261.333 648.74 260.982 Q647.756 260.63 647.193 259.927 Q646.631 259.224 646.599 258.333 Z" fill="#000000" fill-opacity="1.000000"/>
  <path d="M662.021 259.333 L663.381 259.333 Q663.052 260.286 662.185 260.81 Q661.318 261.333 659.959 261.333 Q658.256 261.333 657.256 260.302 Q656.256 259.271 656.256 257.396 Q656.256 255.474 657.263 254.404 Q658.271 253.333 659.896 253.333 Q661.443 253.333 662.435 254.302 Q663.427 255.271 663.427 257.021 Q663.427 257.115 663.427 257.333 L657.615 257.333 Q657.693 258.786 658.342 259.56 Q658.99 260.333 659.974 260.333 Q660.693 260.333 661.209 260.091 Q661.724 259.849 662.021 259.333 ZM657.693 256.333 L662.037 256.333 Q661.943 255.458 661.537 255.021 Q660.912 254.333 659.912 254.333 Q658.99 254.333 658.373 254.88 Q657.756 255.427 657.693 256.333 Z" fill="#000000" fill-opacity="1.000000"/>
  <path d="M664.849 264.333 L664.849 253.333 L666.052 253.333 L666.052 254.49 Q666.474 253.911 667.013 253.622 Q667.552 253.333 668.302 253.333 Q669.302 253.333 670.06 253.841 Q670.818 254.349 671.209 255.263 Q671.599 256.177 671.599 257.271 Q671.599 258.443 671.17 259.388 Q670.74 260.333 669.927 260.833 Q669.115 261.333 668.209 261.333 Q667.552 261.333 667.037 261.076 Q666.521 260.818 666.177 260.427 L666.177 264.333 L664.849 264.333 ZM666.052 257.396 Q666.052 258.896 666.662 259.615 Q667.271 260.333 668.131 260.333 Q669.006 260.333 669.631 259.591 Q670.256 258.849 670.256 257.286 Q670.256 255.802 669.646 255.068 Q669.037 254.333 668.193 254.333 Q667.349 254.333 666.701 255.122 Q666.052 255.911 666.052 257.396 Z" fill="#000000" fill-opacity="1.000000"/>
  <path d="M719.869 255.974 Q719.869 253.333 721.306 251.833 Q722.744 250.333 725.009 250.333 Q726.509 250.333 727.705 251.036 Q728.9 251.74 729.525 252.997 Q730.15 254.255 730.15 255.849 Q730.15 257.474 729.494 258.747 Q728.838 260.021 727.627 260.677 Q726.416 261.333 725.009 261.333 Q723.494 261.333 722.298 260.607 Q721.103 259.88 720.486 258.63 Q719.869 257.38 719.869 255.974 ZM721.338 256.005 Q721.338 258.021 722.384 259.177 Q723.431 260.333 725.009 260.333 Q726.603 260.333 727.642 259.161 Q728.681 257.99 728.681 255.833 Q728.681 254.474 728.236 253.466 Q727.791 252.458 726.939 251.896 Q726.088 251.333 725.025 251.333 Q723.509 251.333 722.423 252.411 Q721.338 253.49 721.338 256.005 Z" fill="#000000" fill-opacity="1.000000"/>
  <path d="M736.619 259.333 L737.916 259.333 Q737.697 260.271 736.83 260.802 Q735.963 261.333 734.681 261.333 Q733.088 261.333 732.119 260.31 Q731.15 259.286 731.15 257.365 Q731.15 256.13 731.564 255.201 Q731.978 254.271 732.83 253.802 Q733.681 253.333 734.697 253.333 Q735.963 253.333 736.759 253.857 Q737.556 254.38 737.791 255.333 L736.509 255.333 Q736.322 254.833 735.861 254.583 Q735.4 254.333 734.744 254.333 Q733.744 254.333 733.119 255.052 Q732.494 255.771 732.494 257.333 Q732.494 258.896 733.095 259.615 Q733.697 260.333 734.666 260.333 Q735.447 260.333 735.963 260.091 Q736.478 259.849 736.619 259.333 Z" fill="#000000" fill-opacity="1.000000"/>
  <path d="M741.775 260.068 L741.963 261.24 Q741.4 261.333 740.963 261.333 Q740.244 261.333 739.853 261.099 Q739.463 260.865 739.298 260.49 Q739.134 260.115 739.134 258.896 L739.134 254.333 L738.166 254.333 L738.166 253.333 L739.134 253.333 L739.134 251.411 L740.447 250.615 L740.447 253.333 L741.775 253.333 L741.775 254.333 L740.447 254.333 L740.447 259.177 Q740.447 259.786 740.517 259.958 Q740.588 260.13 740.744 260.232 Q740.9 260.333 741.197 260.333 Q741.416 260.333 741.775 260.068 Z" fill="#000000" fill-opacity="1.000000"/>
  <path d="M790.248 261.333 L790.248 250.333 L791.701 250.333 L797.341 259.974 L797.341 250.333 L798.716 250.333 L798.716 261.333 L797.248 261.333 L791.607 251.708 L791.607 261.333 L790.248 261.333 Z" fill="#000000" fill-opacity="1.000000"/>
  <path d="M800.201 257.333 Q800.201 255.208 801.404 254.177 Q802.404 253.333 803.841 253.333 Q805.451 253.333 806.466 254.365 Q807.482 255.396 807.482 257.224 Q807.482 258.708 807.029 259.552 Q806.576 260.396 805.716 260.865 Q804.857 261.333 803.841 261.333 Q802.216 261.333 801.209 260.302 Q800.201 259.271 800.201 257.333 ZM801.56 257.333 Q801.56 258.833 802.209 259.583 Q802.857 260.333 803.857 260.333 Q804.841 260.333 805.49 259.583 Q806.138 258.833 806.138 257.286 Q806.138 255.833 805.482 255.083 Q804.826 254.333 803.857 254.333 Q802.857 254.333 802.209 255.076 Q801.56 255.818 801.56 257.333 Z" fill="#000000" fill-opacity="1.000000"/>
  <path d="M811.013 261.333 L808.044 253.333 L809.435 253.333 L811.107 258.13 Q811.373 258.896 811.607 259.74 Q811.779 259.099 812.091 258.224 L813.826 253.333 L815.185 253.333 L812.232 261.333 L811.013 261.333 Z" fill="#000000" fill-opacity="1.000000"/>
  <path d="M861.853 261.333 L861.853 250.333 L865.556 250.333 Q866.806 250.333 867.462 250.49 Q868.384 250.708 869.04 251.271 Q869.884 252.021 870.306 253.161 Q870.728 254.302 870.728 255.771 Q870.728 257.021 870.439 257.99 Q870.15 258.958 869.705 259.591 Q869.259 260.224 868.728 260.591 Q868.197 260.958 867.447 261.146 Q866.697 261.333 865.728 261.333 L861.853 261.333 ZM863.275 260.333 L865.572 260.333 Q866.619 260.333 867.228 260.115 Q867.837 259.896 868.197 259.505 Q868.697 258.958 868.978 258.021 Q869.259 257.083 869.259 255.74 Q869.259 253.896 868.705 252.904 Q868.15 251.911 867.369 251.568 Q866.79 251.333 865.525 251.333 L863.275 251.333 L863.275 260.333 Z" fill="#000000" fill-opacity="1.000000"/>
  <path d="M877.603 259.333 L878.962 259.333 Q878.634 260.286 877.767 260.81 Q876.9 261.333 875.54 261.333 Q873.837 261.333 872.837 260.302 Q871.837 259.271 871.837 257.396 Q871.837 255.474 872.845 254.404 Q873.853 253.333 875.478 253.333 Q877.025 253.333 878.017 254.302 Q879.009 255.271 879.009 257.021 Q879.009 257.115 879.009 257.333 L873.197 257.333 Q873.275 258.786 873.923 259.56 Q874.572 260.333 875.556 260.333 Q876.275 260.333 876.79 260.091 Q877.306 259.849 877.603 259.333 ZM873.275 256.333 L877.619 256.333 Q877.525 255.458 877.119 255.021 Q876.494 254.333 875.494 254.333 Q874.572 254.333 873.955 254.88 Q873.337 255.427 873.275 256.333 Z" fill="#000000" fill-opacity="1.000000"/>
  <path d="M885.509 259.333 L886.806 259.333 Q886.587 260.271 885.72 260.802 Q884.853 261.333 883.572 261.333 Q881.978 261.333 881.009 260.31 Q880.04 259.286 880.04 257.365 Q880.04 256.13 880.455 255.201 Q880.869 254.271 881.72 253.802 Q882.572 253.333 883.587 253.333 Q884.853 253.333 885.65 253.857 Q886.447 254.38 886.681 255.333 L885.4 255.333 Q885.212 254.833 884.751 254.583 Q884.29 254.333 883.634 254.333 Q882.634 254.333 882.009 255.052 Q881.384 255.771 881.384 257.333 Q881.384 258.896 881.986 259.615 Q882.587 260.333 883.556 260.333 Q884.337 260.333 884.853 260.091 Q885.369 259.849 885.509 259.333 Z" fill="#000000" fill-opacity="1.000000"/>
  <path d="M71.5897 235.6 L71.5897 198.137 L100.923 198.137 L100.923 235.6 Z" fill="#aa4643" fill-opacity="1.000000"/>
  <path d="M143.179 235.6 L143.179 195.256 L172.513 195.256 L172.513 235.6 Z" fill="#aa4643" fill-opacity="1.000000"/>
  <path d="M214.769 235.6 L214.769 180.847 L244.103 180.847 L244.103 235.6 Z" fill="#aa4643" fill-opacity="1.000000"/>
  <path d="M286.359 235.6 L286.359 153.951 L315.692 153.951 L315.692 235.6 Z" fill="#aa4643" fill-opacity="1.000000"/>
  <path d="M357.949 235.6 L357.949 121.291 L387.282 121.291 L387.282 235.6 Z" fill="#aa4643" fill-opacity="1.000000"/>
  <path d="M429.538 235.6 L429.538 89.5919 L458.872 89.5919 L458.872 235.6 Z" fill="#aa4643" fill-opacity="1.000000"/>
  <path d="M501.128 235.6 L501.128 72.3014 L530.462 72.3014 L530.462 235.6 Z" fill="#aa4643" fill-opacity="1.000000"/>
  <path d="M572.718 235.6 L572.718 76.1438 L602.051 76.1438 L602.051 235.6 Z" fill="#aa4643" fill-opacity="1.000000"/>
  <path d="M644.308 235.6 L644.308 99.1977 L673.641 99.1977 L673.641 235.6 Z" fill="#aa4643" fill-opacity="1.000000"/>
  <path d="M715.897 235.6 L715.897 136.66 L745.231 136.66 L745.231 235.6 Z" fill="#aa4643" fill-opacity="1.000000"/>
  <path d="M787.487 235.6 L787.487 172.202 L816.821 172.202 L816.821 235.6 Z" fill="#aa4643" fill-opacity="1.000000"/>
  <path d="M859.077 235.6 L859.077 189.492 L888.41 189.492 L888.41 235.6 Z" fill="#aa4643" fill-opacity="1.000000"/>
  <path d="M68.4517 184.537 L69.7798 184.537 Q70.0142 185.6 70.5533 186.069 Q71.0923 186.537 71.8736 186.537 Q72.8111 186.537 73.4517 185.92 Q74.0923 185.303 74.0923 184.397 Q74.0923 183.522 73.4986 182.951 Q72.9048 182.381 71.983 182.381 Q71.608 182.381 71.0611 182.537 L71.2017 181.537 Q71.3423 181.553 71.4205 181.553 Q72.2642 181.553 72.9361 181.045 Q73.608 180.537 73.608 179.475 Q73.608 178.647 73.1158 178.092 Q72.6236 177.537 71.8423 177.537 Q71.0767 177.537 70.5611 178.037 Q70.0455 178.537 69.9048 179.537 L68.5923 179.537 Q68.8267 178.116 69.6861 177.326 Q70.5455 176.537 71.8267 176.537 Q72.7017 176.537 73.4439 176.944 Q74.1861 177.35 74.5767 178.053 Q74.9673 178.756 74.9673 179.553 Q74.9673 180.303 74.5923 180.92 Q74.2173 181.537 73.483 181.897 Q74.4361 182.1 74.9595 182.748 Q75.483 183.397 75.483 184.381 Q75.483 185.694 74.4595 186.616 Q73.4361 187.537 71.858 187.537 Q70.4517 187.537 69.5142 186.701 Q68.5767 185.866 68.4517 184.537 Z" fill="#000000" fill-opacity="1.000000"/>
  <path d="M77.3423 187.537 L77.3423 186.537 L78.8423 186.537 L78.8423 187.537 L77.3423 187.537 Z" fill="#000000" fill-opacity="1.000000"/>
  <path d="M80.8892 184.537 L82.1548 184.537 Q82.3111 185.584 82.7642 186.061 Q83.2173 186.537 83.9361 186.537 Q84.5298 186.537 84.9908 186.233 Q85.4517 185.928 85.7408 185.42 Q86.0298 184.912 86.233 184.061 Q86.4361 183.209 86.4361 182.381 Q86.4361 182.303 86.4205 182.131 Q86.0298 182.756 85.3423 183.147 Q84.6548 183.537 83.858 183.537 Q82.5298 183.537 81.608 182.592 Q80.6861 181.647 80.6861 180.084 Q80.6861 178.491 81.647 177.514 Q82.608 176.537 84.0611 176.537 Q85.108 176.537 85.9752 177.1 Q86.8423 177.662 87.2955 178.709 Q87.7486 179.756 87.7486 181.741 Q87.7486 183.819 87.3033 185.037 Q86.858 186.256 85.9752 186.897 Q85.0923 187.537 83.9048 187.537 Q82.6392 187.537 81.8423 186.748 Q81.0455 185.959 80.8892 184.537 ZM86.2798 180.069 Q86.2798 178.897 85.6783 178.217 Q85.0767 177.537 84.2173 177.537 Q83.3423 177.537 82.6939 178.272 Q82.0455 179.006 82.0455 180.178 Q82.0455 181.225 82.6627 181.881 Q83.2798 182.537 84.1861 182.537 Q85.108 182.537 85.6939 181.881 Q86.2798 181.225 86.2798 180.069 Z" fill="#000000" fill-opacity="1.000000"/>
  <path d="M89.1548 178.537 Q89.1548 177.709 89.7486 177.123 Q90.3423 176.537 91.1861 176.537 Q92.0298 176.537 92.6236 177.123 Q93.2173 177.709 93.2173 178.537 Q93.2173 179.366 92.6236 179.951 Q92.0298 180.537 91.1861 180.537 Q90.3423 180.537 89.7486 179.951 Q89.1548 179.366 89.1548 178.537 ZM89.9517 178.537 Q89.9517 178.959 90.3111 179.248 Q90.6705 179.537 91.1861 179.537 Q91.7017 179.537 92.0611 179.248 Q92.4205 178.959 92.4205 178.537 Q92.4205 178.116 92.0611 177.826 Q91.7017 177.537 91.1861 177.537 Q90.6705 177.537 90.3111 177.826 Q89.9517 178.116 89.9517 178.537 Z" fill="#000000" fill-opacity="1.000000"/>
  <path d="M102.905 183.709 L104.327 184.069 Q103.874 185.756 102.717 186.647 Q101.561 187.537 99.8892 187.537 Q98.1548 187.537 97.0689 186.834 Q95.983 186.131 95.4127 184.803 Q94.8423 183.475 94.8423 181.959 Q94.8423 180.303 95.483 179.061 Q96.1236 177.819 97.3111 177.178 Q98.4986 176.537 99.9048 176.537 Q101.53 176.537 102.624 177.319 Q103.717 178.1 104.155 179.522 L102.749 179.866 Q102.374 178.647 101.663 178.092 Q100.952 177.537 99.8736 177.537 Q98.6392 177.537 97.8111 178.155 Q96.983 178.772 96.647 179.811 Q96.3111 180.85 96.3111 181.944 Q96.3111 183.366 96.7095 184.428 Q97.108 185.491 97.9517 186.014 Q98.7955 186.537 99.7642 186.537 Q100.967 186.537 101.788 185.826 Q102.608 185.116 102.905 183.709 Z" fill="#000000" fill-opacity="1.000000"/>
  <path d="M144.26 184.656 L144.26 181.656 L139.604 181.656 L139.604 180.656 L144.51 173.656 L145.588 173.656 L145.588 180.656 L147.041 180.656 L147.041 181.656 L145.588 181.656 L145.588 184.656 L144.26 184.656 ZM144.26 180.656 L144.26 175.859 L140.901 180.656 L144.26 180.656 Z" fill="#000000" fill-opacity="1.000000"/>
  <path d="M148.932 184.656 L148.932 183.656 L150.432 183.656 L150.432 184.656 L148.932 184.656 Z" fill="#000000" fill-opacity="1.000000"/>
  <path d="M159.198 183.656 L159.198 184.656 L152.104 184.656 Q152.088 184.265 152.26 183.89 Q152.526 183.281 153.127 182.695 Q153.729 182.109 154.854 181.046 Q156.604 179.39 157.221 178.46 Q157.838 177.531 157.838 176.718 Q157.838 175.843 157.276 175.249 Q156.713 174.656 155.823 174.656 Q154.87 174.656 154.291 175.187 Q153.713 175.718 153.713 176.656 L152.354 176.656 Q152.495 175.187 153.401 174.421 Q154.307 173.656 155.838 173.656 Q157.385 173.656 158.284 174.546 Q159.182 175.437 159.182 176.765 Q159.182 177.437 158.916 178.085 Q158.651 178.734 158.041 179.453 Q157.432 180.171 156.01 181.453 Q154.823 182.515 154.487 182.89 Q154.151 183.265 153.932 183.656 L159.198 183.656 Z" fill="#000000" fill-opacity="1.000000"/>
  <path d="M160.745 175.656 Q160.745 174.828 161.338 174.242 Q161.932 173.656 162.776 173.656 Q163.62 173.656 164.213 174.242 Q164.807 174.828 164.807 175.656 Q164.807 176.484 164.213 177.07 Q163.62 177.656 162.776 177.656 Q161.932 177.656 161.338 177.07 Q160.745 176.484 160.745 175.656 ZM161.541 175.656 Q161.541 176.078 161.901 176.367 Q162.26 176.656 162.776 176.656 Q163.291 176.656 163.651 176.367 Q164.01 176.078 164.01 175.656 Q164.01 175.234 163.651 174.945 Q163.291 174.656 162.776 174.656 Q162.26 174.656 161.901 174.945 Q161.541 175.234 161.541 175.656 Z" fill="#000000" fill-opacity="1.000000"/>
  <path d="M174.495 180.828 L175.916 181.187 Q175.463 182.874 174.307 183.765 Q173.151 184.656 171.479 184.656 Q169.745 184.656 168.659 183.953 Q167.573 183.249 167.002 181.921 Q166.432 180.593 166.432 179.078 Q166.432 177.421 167.073 176.179 Q167.713 174.937 168.901 174.296 Q170.088 173.656 171.495 173.656 Q173.12 173.656 174.213 174.437 Q175.307 175.218 175.745 176.64 L174.338 176.984 Q173.963 175.765 173.252 175.21 Q172.541 174.656 171.463 174.656 Q170.229 174.656 169.401 175.273 Q168.573 175.89 168.237 176.929 Q167.901 177.968 167.901 179.062 Q167.901 180.484 168.299 181.546 Q168.698 182.609 169.541 183.132 Q170.385 183.656 171.354 183.656 Q172.557 183.656 173.377 182.945 Q174.198 182.234 174.495 180.828 Z" fill="#000000" fill-opacity="1.000000"/>
  <path d="M211.631 167.247 L213.006 167.247 Q213.162 168.247 213.725 168.747 Q214.287 169.247 215.069 169.247 Q216.022 169.247 216.686 168.536 Q217.35 167.825 217.35 166.653 Q217.35 165.544 216.717 164.895 Q216.084 164.247 215.053 164.247 Q214.412 164.247 213.905 164.528 Q213.397 164.809 213.1 165.247 L211.866 165.247 L212.897 159.247 L218.241 159.247 L218.241 160.247 L213.959 160.247 L213.381 163.825 Q214.35 163.247 215.412 163.247 Q216.803 163.247 217.772 164.184 Q218.741 165.122 218.741 166.575 Q218.741 167.981 217.897 168.997 Q216.866 170.247 215.069 170.247 Q213.616 170.247 212.686 169.427 Q211.756 168.606 211.631 167.247 Z" fill="#000000" fill-opacity="1.000000"/>
  <path d="M220.522 170.247 L220.522 169.247 L222.022 169.247 L222.022 170.247 L220.522 170.247 Z" fill="#000000" fill-opacity="1.000000"/>
  <path d="M223.944 160.247 L223.944 159.247 L230.897 159.247 L230.897 160.059 Q229.881 161.153 228.873 163.091 Q227.866 165.028 227.303 167.075 Q226.912 168.528 226.803 170.247 L225.459 170.247 Q225.475 168.888 225.952 166.966 Q226.428 165.044 227.319 163.255 Q228.209 161.466 229.209 160.247 L223.944 160.247 Z" fill="#000000" fill-opacity="1.000000"/>
  <path d="M232.334 161.247 Q232.334 160.419 232.928 159.833 Q233.522 159.247 234.366 159.247 Q235.209 159.247 235.803 159.833 Q236.397 160.419 236.397 161.247 Q236.397 162.075 235.803 162.661 Q235.209 163.247 234.366 163.247 Q233.522 163.247 232.928 162.661 Q232.334 162.075 232.334 161.247 ZM233.131 161.247 Q233.131 161.669 233.491 161.958 Q233.85 162.247 234.366 162.247 Q234.881 162.247 235.241 161.958 Q235.6 161.669 235.6 161.247 Q235.6 160.825 235.241 160.536 Q234.881 160.247 234.366 160.247 Q233.85 160.247 233.491 160.536 Q233.131 160.825 233.131 161.247 Z" fill="#000000" fill-opacity="1.000000"/>
  <path d="M246.084 166.419 L247.506 166.778 Q247.053 168.466 245.897 169.356 Q244.741 170.247 243.069 170.247 Q241.334 170.247 240.248 169.544 Q239.162 168.841 238.592 167.513 Q238.022 166.184 238.022 164.669 Q238.022 163.013 238.662 161.77 Q239.303 160.528 240.491 159.888 Q241.678 159.247 243.084 159.247 Q244.709 159.247 245.803 160.028 Q246.897 160.809 247.334 162.231 L245.928 162.575 Q245.553 161.356 244.842 160.802 Q244.131 160.247 243.053 160.247 Q241.819 160.247 240.991 160.864 Q240.162 161.481 239.827 162.52 Q239.491 163.559 239.491 164.653 Q239.491 166.075 239.889 167.138 Q240.287 168.2 241.131 168.724 Q241.975 169.247 242.944 169.247 Q244.147 169.247 244.967 168.536 Q245.787 167.825 246.084 166.419 Z" fill="#000000" fill-opacity="1.000000"/>
  <path d="M285.252 137.819 Q284.44 137.491 284.041 136.874 Q283.643 136.257 283.643 135.398 Q283.643 134.116 284.487 133.234 Q285.33 132.351 286.721 132.351 Q288.127 132.351 288.987 133.249 Q289.846 134.148 289.846 135.444 Q289.846 136.273 289.448 136.882 Q289.049 137.491 288.252 137.819 Q289.252 138.116 289.768 138.78 Q290.283 139.444 290.283 140.351 Q290.283 141.616 289.307 142.484 Q288.33 143.351 286.752 143.351 Q285.158 143.351 284.182 142.484 Q283.205 141.616 283.205 140.319 Q283.205 139.351 283.737 138.702 Q284.268 138.054 285.252 137.819 ZM284.987 135.304 Q284.987 136.21 285.479 136.78 Q285.971 137.351 286.752 137.351 Q287.518 137.351 288.002 136.78 Q288.487 136.21 288.487 135.382 Q288.487 134.523 287.987 133.937 Q287.487 133.351 286.737 133.351 Q285.987 133.351 285.487 133.921 Q284.987 134.491 284.987 135.304 ZM284.565 140.335 Q284.565 140.851 284.83 141.335 Q285.096 141.819 285.619 142.085 Q286.143 142.351 286.752 142.351 Q287.69 142.351 288.307 141.788 Q288.924 141.226 288.924 140.366 Q288.924 139.491 288.291 138.921 Q287.658 138.351 286.705 138.351 Q285.783 138.351 285.174 138.913 Q284.565 139.476 284.565 140.335 Z" fill="#000000" fill-opacity="1.000000"/>
  <path d="M292.112 143.351 L292.112 142.351 L293.612 142.351 L293.612 143.351 L292.112 143.351 Z" fill="#000000" fill-opacity="1.000000"/>
  <path d="M295.455 140.351 L296.83 140.351 Q296.987 141.351 297.549 141.851 Q298.112 142.351 298.893 142.351 Q299.846 142.351 300.51 141.64 Q301.174 140.929 301.174 139.757 Q301.174 138.648 300.541 137.999 Q299.908 137.351 298.877 137.351 Q298.237 137.351 297.729 137.632 Q297.221 137.913 296.924 138.351 L295.69 138.351 L296.721 132.351 L302.065 132.351 L302.065 133.351 L297.783 133.351 L297.205 136.929 Q298.174 136.351 299.237 136.351 Q300.627 136.351 301.596 137.288 Q302.565 138.226 302.565 139.679 Q302.565 141.085 301.721 142.101 Q300.69 143.351 298.893 143.351 Q297.44 143.351 296.51 142.53 Q295.58 141.71 295.455 140.351 Z" fill="#000000" fill-opacity="1.000000"/>
  <path d="M303.924 134.351 Q303.924 133.523 304.518 132.937 Q305.112 132.351 305.955 132.351 Q306.799 132.351 307.393 132.937 Q307.987 133.523 307.987 134.351 Q307.987 135.179 307.393 135.765 Q306.799 136.351 305.955 136.351 Q305.112 136.351 304.518 135.765 Q303.924 135.179 303.924 134.351 ZM304.721 134.351 Q304.721 134.773 305.08 135.062 Q305.44 135.351 305.955 135.351 Q306.471 135.351 306.83 135.062 Q307.19 134.773 307.19 134.351 Q307.19 133.929 306.83 133.64 Q306.471 133.351 305.955 133.351 Q305.44 133.351 305.08 133.64 Q304.721 133.929 304.721 134.351 Z" fill="#000000" fill-opacity="1.000000"/>
  <path d="M317.674 139.523 L319.096 139.882 Q318.643 141.569 317.487 142.46 Q316.33 143.351 314.658 143.351 Q312.924 143.351 311.838 142.648 Q310.752 141.944 310.182 140.616 Q309.612 139.288 309.612 137.773 Q309.612 136.116 310.252 134.874 Q310.893 133.632 312.08 132.991 Q313.268 132.351 314.674 132.351 Q316.299 132.351 317.393 133.132 Q318.487 133.913 318.924 135.335 L317.518 135.679 Q317.143 134.46 316.432 133.905 Q315.721 133.351 314.643 133.351 Q313.408 133.351 312.58 133.968 Q311.752 134.585 311.416 135.624 Q311.08 136.663 311.08 137.757 Q311.08 139.179 311.479 140.241 Q311.877 141.304 312.721 141.827 Q313.565 142.351 314.533 142.351 Q315.737 142.351 316.557 141.64 Q317.377 140.929 317.674 139.523 Z" fill="#000000" fill-opacity="1.000000"/>
  <path d="M356.248 110.691 L354.92 110.691 L354.92 102.113 Q354.451 102.582 353.678 103.043 Q352.904 103.504 352.295 103.738 L352.295 102.441 Q353.404 101.91 354.225 101.152 Q355.045 100.394 355.389 99.691 L356.248 99.691 L356.248 110.691 Z" fill="#000000" fill-opacity="1.000000"/>
  <path d="M363.858 110.691 L362.529 110.691 L362.529 102.113 Q362.061 102.582 361.287 103.043 Q360.514 103.504 359.904 103.738 L359.904 102.441 Q361.014 101.91 361.834 101.152 Q362.654 100.394 362.998 99.691 L363.858 99.691 L363.858 110.691 Z" fill="#000000" fill-opacity="1.000000"/>
  <path d="M367.233 110.691 L367.233 109.691 L368.733 109.691 L368.733 110.691 L367.233 110.691 Z" fill="#000000" fill-opacity="1.000000"/>
  <path d="M370.779 107.691 L372.045 107.691 Q372.201 108.738 372.654 109.214 Q373.108 109.691 373.826 109.691 Q374.42 109.691 374.881 109.386 Q375.342 109.082 375.631 108.574 Q375.92 108.066 376.123 107.214 Q376.326 106.363 376.326 105.535 Q376.326 105.457 376.311 105.285 Q375.92 105.91 375.233 106.3 Q374.545 106.691 373.748 106.691 Q372.42 106.691 371.498 105.746 Q370.576 104.8 370.576 103.238 Q370.576 101.644 371.537 100.668 Q372.498 99.691 373.951 99.691 Q374.998 99.691 375.865 100.254 Q376.733 100.816 377.186 101.863 Q377.639 102.91 377.639 104.894 Q377.639 106.972 377.194 108.191 Q376.748 109.41 375.865 110.05 Q374.983 110.691 373.795 110.691 Q372.529 110.691 371.733 109.902 Q370.936 109.113 370.779 107.691 ZM376.17 103.222 Q376.17 102.05 375.569 101.371 Q374.967 100.691 374.108 100.691 Q373.233 100.691 372.584 101.425 Q371.936 102.16 371.936 103.332 Q371.936 104.379 372.553 105.035 Q373.17 105.691 374.076 105.691 Q374.998 105.691 375.584 105.035 Q376.17 104.379 376.17 103.222 Z" fill="#000000" fill-opacity="1.000000"/>
  <path d="M379.045 101.691 Q379.045 100.863 379.639 100.277 Q380.233 99.691 381.076 99.691 Q381.92 99.691 382.514 100.277 Q383.108 100.863 383.108 101.691 Q383.108 102.519 382.514 103.105 Q381.92 103.691 381.076 103.691 Q380.233 103.691 379.639 103.105 Q379.045 102.519 379.045 101.691 ZM379.842 101.691 Q379.842 102.113 380.201 102.402 Q380.561 102.691 381.076 102.691 Q381.592 102.691 381.951 102.402 Q382.311 102.113 382.311 101.691 Q382.311 101.269 381.951 100.98 Q381.592 100.691 381.076 100.691 Q380.561 100.691 380.201 100.98 Q379.842 101.269 379.842 101.691 Z" fill="#000000" fill-opacity="1.000000"/>
  <path d="M392.795 106.863 L394.217 107.222 Q393.764 108.91 392.608 109.8 Q391.451 110.691 389.779 110.691 Q388.045 110.691 386.959 109.988 Q385.873 109.285 385.303 107.957 Q384.733 106.629 384.733 105.113 Q384.733 103.457 385.373 102.214 Q386.014 100.972 387.201 100.332 Q388.389 99.691 389.795 99.691 Q391.42 99.691 392.514 100.472 Q393.608 101.254 394.045 102.675 L392.639 103.019 Q392.264 101.8 391.553 101.246 Q390.842 100.691 389.764 100.691 Q388.529 100.691 387.701 101.308 Q386.873 101.925 386.537 102.964 Q386.201 104.004 386.201 105.097 Q386.201 106.519 386.6 107.582 Q386.998 108.644 387.842 109.168 Q388.686 109.691 389.654 109.691 Q390.858 109.691 391.678 108.98 Q392.498 108.269 392.795 106.863 Z" fill="#000000" fill-opacity="1.000000"/>
  <path d="M427.291 78.9919 L425.963 78.9919 L425.963 70.4138 Q425.494 70.8825 424.721 71.3434 Q423.947 71.8044 423.338 72.0388 L423.338 70.7419 Q424.447 70.2106 425.268 69.4528 Q426.088 68.695 426.432 67.9919 L427.291 67.9919 L427.291 78.9919 Z" fill="#000000" fill-opacity="1.000000"/>
  <path d="M430.479 75.9919 L431.854 75.9919 Q432.01 76.9919 432.572 77.4919 Q433.135 77.9919 433.916 77.9919 Q434.869 77.9919 435.533 77.2809 Q436.197 76.57 436.197 75.3981 Q436.197 74.2888 435.565 73.6403 Q434.932 72.9919 433.9 72.9919 Q433.26 72.9919 432.752 73.2731 Q432.244 73.5544 431.947 73.9919 L430.713 73.9919 L431.744 67.9919 L437.088 67.9919 L437.088 68.9919 L432.807 68.9919 L432.229 72.57 Q433.197 71.9919 434.26 71.9919 Q435.65 71.9919 436.619 72.9294 Q437.588 73.8669 437.588 75.32 Q437.588 76.7263 436.744 77.7419 Q435.713 78.9919 433.916 78.9919 Q432.463 78.9919 431.533 78.1716 Q430.604 77.3513 430.479 75.9919 Z" fill="#000000" fill-opacity="1.000000"/>
  <path d="M439.369 78.9919 L439.369 77.9919 L440.869 77.9919 L440.869 78.9919 L439.369 78.9919 Z" fill="#000000" fill-opacity="1.000000"/>
  <path d="M449.635 77.9919 L449.635 78.9919 L442.541 78.9919 Q442.525 78.6013 442.697 78.2263 Q442.963 77.6169 443.565 77.0309 Q444.166 76.445 445.291 75.3825 Q447.041 73.7263 447.658 72.7966 Q448.275 71.8669 448.275 71.0544 Q448.275 70.1794 447.713 69.5856 Q447.15 68.9919 446.26 68.9919 Q445.307 68.9919 444.729 69.5231 Q444.15 70.0544 444.15 70.9919 L442.791 70.9919 Q442.932 69.5231 443.838 68.7575 Q444.744 67.9919 446.275 67.9919 Q447.822 67.9919 448.721 68.8825 Q449.619 69.7731 449.619 71.1013 Q449.619 71.7731 449.354 72.4216 Q449.088 73.07 448.479 73.7888 Q447.869 74.5075 446.447 75.7888 Q445.26 76.8513 444.924 77.2263 Q444.588 77.6013 444.369 77.9919 L449.635 77.9919 Z" fill="#000000" fill-opacity="1.000000"/>
  <path d="M451.182 69.9919 Q451.182 69.1638 451.775 68.5778 Q452.369 67.9919 453.213 67.9919 Q454.057 67.9919 454.65 68.5778 Q455.244 69.1638 455.244 69.9919 Q455.244 70.82 454.65 71.4059 Q454.057 71.9919 453.213 71.9919 Q452.369 71.9919 451.775 71.4059 Q451.182 70.82 451.182 69.9919 ZM451.979 69.9919 Q451.979 70.4138 452.338 70.7028 Q452.697 70.9919 453.213 70.9919 Q453.729 70.9919 454.088 70.7028 Q454.447 70.4138 454.447 69.9919 Q454.447 69.57 454.088 69.2809 Q453.729 68.9919 453.213 68.9919 Q452.697 68.9919 452.338 69.2809 Q451.979 69.57 451.979 69.9919 Z" fill="#000000" fill-opacity="1.000000"/>
  <path d="M464.932 75.1638 L466.354 75.5231 Q465.9 77.2106 464.744 78.1013 Q463.588 78.9919 461.916 78.9919 Q460.182 78.9919 459.096 78.2888 Q458.01 77.5856 457.44 76.2575 Q456.869 74.9294 456.869 73.4138 Q456.869 71.7575 457.51 70.5153 Q458.15 69.2731 459.338 68.6325 Q460.525 67.9919 461.932 67.9919 Q463.557 67.9919 464.65 68.7731 Q465.744 69.5544 466.182 70.9763 L464.775 71.32 Q464.4 70.1013 463.69 69.5466 Q462.979 68.9919 461.9 68.9919 Q460.666 68.9919 459.838 69.6091 Q459.01 70.2263 458.674 71.2653 Q458.338 72.3044 458.338 73.3981 Q458.338 74.82 458.736 75.8825 Q459.135 76.945 459.979 77.4684 Q460.822 77.9919 461.791 77.9919 Q462.994 77.9919 463.815 77.2809 Q464.635 76.57 464.932 75.1638 Z" fill="#000000" fill-opacity="1.000000"/>
  <path d="M498.881 61.7014 L497.553 61.7014 L497.553 53.1233 Q497.084 53.5921 496.31 54.053 Q495.537 54.5139 494.928 54.7483 L494.928 53.4514 Q496.037 52.9202 496.857 52.1624 Q497.678 51.4046 498.021 50.7014 L498.881 50.7014 L498.881 61.7014 Z" fill="#000000" fill-opacity="1.000000"/>
  <path d="M502.146 51.7014 L502.146 50.7014 L509.1 50.7014 L509.1 51.5139 Q508.084 52.6077 507.076 54.5452 Q506.068 56.4827 505.506 58.5296 Q505.115 59.9827 505.006 61.7014 L503.662 61.7014 Q503.678 60.3421 504.154 58.4202 Q504.631 56.4983 505.521 54.7093 Q506.412 52.9202 507.412 51.7014 L502.146 51.7014 Z" fill="#000000" fill-opacity="1.000000"/>
  <path d="M510.959 61.7014 L510.959 60.7014 L512.459 60.7014 L512.459 61.7014 L510.959 61.7014 Z" fill="#000000" fill-opacity="1.000000"/>
  <path d="M514.303 56.2014 Q514.303 54.2952 514.693 53.1311 Q515.084 51.9671 515.857 51.3343 Q516.631 50.7014 517.803 50.7014 Q518.662 50.7014 519.318 51.053 Q519.975 51.4046 520.396 52.0608 Q520.818 52.7171 521.06 53.6624 Q521.303 54.6077 521.303 56.2014 Q521.303 58.1077 520.912 59.2718 Q520.521 60.4358 519.748 61.0686 Q518.975 61.7014 517.803 61.7014 Q516.256 61.7014 515.365 60.5921 Q514.303 59.2327 514.303 56.2014 ZM515.662 56.2014 Q515.662 58.9046 516.279 59.803 Q516.896 60.7014 517.803 60.7014 Q518.709 60.7014 519.326 59.803 Q519.943 58.9046 519.943 56.2014 Q519.943 53.4827 519.326 52.5921 Q518.709 51.7014 517.787 51.7014 Q516.881 51.7014 516.334 52.4827 Q515.662 53.4983 515.662 56.2014 Z" fill="#000000" fill-opacity="1.000000"/>
  <path d="M522.771 52.7014 Q522.771 51.8733 523.365 51.2874 Q523.959 50.7014 524.803 50.7014 Q525.646 50.7014 526.24 51.2874 Q526.834 51.8733 526.834 52.7014 Q526.834 53.5296 526.24 54.1155 Q525.646 54.7014 524.803 54.7014 Q523.959 54.7014 523.365 54.1155 Q522.771 53.5296 522.771 52.7014 ZM523.568 52.7014 Q523.568 53.1233 523.928 53.4124 Q524.287 53.7014 524.803 53.7014 Q525.318 53.7014 525.678 53.4124 Q526.037 53.1233 526.037 52.7014 Q526.037 52.2796 525.678 51.9905 Q525.318 51.7014 524.803 51.7014 Q524.287 51.7014 523.928 51.9905 Q523.568 52.2796 523.568 52.7014 Z" fill="#000000" fill-opacity="1.000000"/>
  <path d="M536.521 57.8733 L537.943 58.2327 Q537.49 59.9202 536.334 60.8108 Q535.178 61.7014 533.506 61.7014 Q531.771 61.7014 530.685 60.9983 Q529.6 60.2952 529.029 58.9671 Q528.459 57.6389 528.459 56.1233 Q528.459 54.4671 529.1 53.2249 Q529.74 51.9827 530.928 51.3421 Q532.115 50.7014 533.521 50.7014 Q535.146 50.7014 536.24 51.4827 Q537.334 52.2639 537.771 53.6858 L536.365 54.0296 Q535.99 52.8108 535.279 52.2561 Q534.568 51.7014 533.49 51.7014 Q532.256 51.7014 531.428 52.3186 Q530.6 52.9358 530.264 53.9749 Q529.928 55.0139 529.928 56.1077 Q529.928 57.5296 530.326 58.5921 Q530.725 59.6546 531.568 60.178 Q532.412 60.7014 533.381 60.7014 Q534.584 60.7014 535.404 59.9905 Q536.225 59.2796 536.521 57.8733 Z" fill="#000000" fill-opacity="1.000000"/>
  <path d="M570.471 65.5438 L569.142 65.5438 L569.142 56.9656 Q568.674 57.4344 567.9 57.8953 Q567.127 58.3563 566.517 58.5906 L566.517 57.2938 Q567.627 56.7625 568.447 56.0047 Q569.267 55.2469 569.611 54.5438 L570.471 54.5438 L570.471 65.5438 Z" fill="#000000" fill-opacity="1.000000"/>
  <path d="M580.502 57.5438 L579.189 57.5438 Q579.017 56.6219 578.689 56.2156 Q578.158 55.5438 577.377 55.5438 Q576.736 55.5438 576.267 55.9344 Q575.642 56.4344 575.283 57.3875 Q574.924 58.3406 574.908 59.9813 Q575.377 59.2469 576.072 58.8953 Q576.767 58.5438 577.517 58.5438 Q578.83 58.5438 579.76 59.4969 Q580.689 60.45 580.689 61.95 Q580.689 62.9344 580.252 63.786 Q579.814 64.6375 579.056 65.0906 Q578.299 65.5438 577.33 65.5438 Q575.674 65.5438 574.635 64.325 Q573.596 63.1063 573.596 60.325 Q573.596 57.2 574.752 55.7781 Q575.752 54.5438 577.455 54.5438 Q578.721 54.5438 579.533 55.3406 Q580.346 56.1375 580.502 57.5438 ZM575.111 61.9188 Q575.111 62.6063 575.4 63.2391 Q575.689 63.8719 576.213 64.2078 Q576.736 64.5438 577.299 64.5438 Q578.142 64.5438 578.744 63.8563 Q579.346 63.1688 579.346 61.9813 Q579.346 60.8563 578.752 60.2 Q578.158 59.5438 577.252 59.5438 Q576.361 59.5438 575.736 60.2 Q575.111 60.8563 575.111 61.9188 Z" fill="#000000" fill-opacity="1.000000"/>
  <path d="M582.549 65.5438 L582.549 64.5438 L584.049 64.5438 L584.049 65.5438 L582.549 65.5438 Z" fill="#000000" fill-opacity="1.000000"/>
  <path d="M592.736 57.5438 L591.424 57.5438 Q591.252 56.6219 590.924 56.2156 Q590.392 55.5438 589.611 55.5438 Q588.971 55.5438 588.502 55.9344 Q587.877 56.4344 587.517 57.3875 Q587.158 58.3406 587.142 59.9813 Q587.611 59.2469 588.306 58.8953 Q589.002 58.5438 589.752 58.5438 Q591.064 58.5438 591.994 59.4969 Q592.924 60.45 592.924 61.95 Q592.924 62.9344 592.486 63.786 Q592.049 64.6375 591.291 65.0906 Q590.533 65.5438 589.564 65.5438 Q587.908 65.5438 586.869 64.325 Q585.83 63.1063 585.83 60.325 Q585.83 57.2 586.986 55.7781 Q587.986 54.5438 589.689 54.5438 Q590.955 54.5438 591.767 55.3406 Q592.58 56.1375 592.736 57.5438 ZM587.346 61.9188 Q587.346 62.6063 587.635 63.2391 Q587.924 63.8719 588.447 64.2078 Q588.971 64.5438 589.533 64.5438 Q590.377 64.5438 590.978 63.8563 Q591.58 63.1688 591.58 61.9813 Q591.58 60.8563 590.986 60.2 Q590.392 59.5438 589.486 59.5438 Q588.596 59.5438 587.971 60.2 Q587.346 60.8563 587.346 61.9188 Z" fill="#000000" fill-opacity="1.000000"/>
  <path d="M594.361 56.5438 Q594.361 55.7156 594.955 55.1297 Q595.549 54.5438 596.392 54.5438 Q597.236 54.5438 597.83 55.1297 Q598.424 55.7156 598.424 56.5438 Q598.424 57.3719 597.83 57.9578 Q597.236 58.5438 596.392 58.5438 Q595.549 58.5438 594.955 57.9578 Q594.361 57.3719 594.361 56.5438 ZM595.158 56.5438 Q595.158 56.9656 595.517 57.2547 Q595.877 57.5438 596.392 57.5438 Q596.908 57.5438 597.267 57.2547 Q597.627 56.9656 597.627 56.5438 Q597.627 56.1219 597.267 55.8328 Q596.908 55.5438 596.392 55.5438 Q595.877 55.5438 595.517 55.8328 Q595.158 56.1219 595.158 56.5438 Z" fill="#000000" fill-opacity="1.000000"/>
  <path d="M608.111 61.7156 L609.533 62.075 Q609.08 63.7625 607.924 64.6531 Q606.767 65.5438 605.096 65.5438 Q603.361 65.5438 602.275 64.8406 Q601.189 64.1375 600.619 62.8094 Q600.049 61.4813 600.049 59.9656 Q600.049 58.3094 600.689 57.0672 Q601.33 55.825 602.517 55.1844 Q603.705 54.5438 605.111 54.5438 Q606.736 54.5438 607.83 55.325 Q608.924 56.1063 609.361 57.5281 L607.955 57.8719 Q607.58 56.6531 606.869 56.0985 Q606.158 55.5438 605.08 55.5438 Q603.846 55.5438 603.017 56.161 Q602.189 56.7781 601.853 57.8172 Q601.517 58.8563 601.517 59.95 Q601.517 61.3719 601.916 62.4344 Q602.314 63.4969 603.158 64.0203 Q604.002 64.5438 604.971 64.5438 Q606.174 64.5438 606.994 63.8328 Q607.814 63.1219 608.111 61.7156 Z" fill="#000000" fill-opacity="1.000000"/>
  <path d="M642.06 88.5977 L640.732 88.5977 L640.732 80.0196 Q640.263 80.4883 639.49 80.9492 Q638.717 81.4102 638.107 81.6446 L638.107 80.3477 Q639.217 79.8164 640.037 79.0586 Q640.857 78.3008 641.201 77.5977 L642.06 77.5977 L642.06 88.5977 Z" fill="#000000" fill-opacity="1.000000"/>
  <path d="M649.467 88.5977 L649.467 85.5977 L644.81 85.5977 L644.81 84.5977 L649.717 77.5977 L650.795 77.5977 L650.795 84.5977 L652.248 84.5977 L652.248 85.5977 L650.795 85.5977 L650.795 88.5977 L649.467 88.5977 ZM649.467 84.5977 L649.467 79.8008 L646.107 84.5977 L649.467 84.5977 Z" fill="#000000" fill-opacity="1.000000"/>
  <path d="M654.138 88.5977 L654.138 87.5977 L655.638 87.5977 L655.638 88.5977 L654.138 88.5977 Z" fill="#000000" fill-opacity="1.000000"/>
  <path d="M664.404 87.5977 L664.404 88.5977 L657.31 88.5977 Q657.295 88.2071 657.467 87.8321 Q657.732 87.2227 658.334 86.6367 Q658.935 86.0508 660.06 84.9883 Q661.81 83.3321 662.427 82.4024 Q663.045 81.4727 663.045 80.6602 Q663.045 79.7852 662.482 79.1914 Q661.92 78.5977 661.029 78.5977 Q660.076 78.5977 659.498 79.1289 Q658.92 79.6602 658.92 80.5977 L657.56 80.5977 Q657.701 79.1289 658.607 78.3633 Q659.513 77.5977 661.045 77.5977 Q662.592 77.5977 663.49 78.4883 Q664.388 79.3789 664.388 80.7071 Q664.388 81.3789 664.123 82.0274 Q663.857 82.6758 663.248 83.3946 Q662.638 84.1133 661.217 85.3946 Q660.029 86.4571 659.693 86.8321 Q659.357 87.2071 659.138 87.5977 L664.404 87.5977 Z" fill="#000000" fill-opacity="1.000000"/>
  <path d="M665.951 79.5977 Q665.951 78.7696 666.545 78.1836 Q667.138 77.5977 667.982 77.5977 Q668.826 77.5977 669.42 78.1836 Q670.013 78.7696 670.013 79.5977 Q670.013 80.4258 669.42 81.0117 Q668.826 81.5977 667.982 81.5977 Q667.138 81.5977 666.545 81.0117 Q665.951 80.4258 665.951 79.5977 ZM666.748 79.5977 Q666.748 80.0196 667.107 80.3086 Q667.467 80.5977 667.982 80.5977 Q668.498 80.5977 668.857 80.3086 Q669.217 80.0196 669.217 79.5977 Q669.217 79.1758 668.857 78.8867 Q668.498 78.5977 667.982 78.5977 Q667.467 78.5977 667.107 78.8867 Q666.748 79.1758 666.748 79.5977 Z" fill="#000000" fill-opacity="1.000000"/>
  <path d="M679.701 84.7696 L681.123 85.1289 Q680.67 86.8164 679.513 87.7071 Q678.357 88.5977 676.685 88.5977 Q674.951 88.5977 673.865 87.8946 Q672.779 87.1914 672.209 85.8633 Q671.638 84.5352 671.638 83.0196 Q671.638 81.3633 672.279 80.1211 Q672.92 78.8789 674.107 78.2383 Q675.295 77.5977 676.701 77.5977 Q678.326 77.5977 679.42 78.3789 Q680.513 79.1602 680.951 80.5821 L679.545 80.9258 Q679.17 79.7071 678.459 79.1524 Q677.748 78.5977 676.67 78.5977 Q675.435 78.5977 674.607 79.2149 Q673.779 79.8321 673.443 80.8711 Q673.107 81.9102 673.107 83.0039 Q673.107 84.4258 673.506 85.4883 Q673.904 86.5508 674.748 87.0742 Q675.592 87.5977 676.56 87.5977 Q677.763 87.5977 678.584 86.8867 Q679.404 86.1758 679.701 84.7696 Z" fill="#000000" fill-opacity="1.000000"/>
  <path d="M713.65 126.06 L712.322 126.06 L712.322 117.482 Q711.853 117.951 711.08 118.412 Q710.306 118.873 709.697 119.107 L709.697 117.81 Q710.806 117.279 711.627 116.521 Q712.447 115.763 712.791 115.06 L713.65 115.06 L713.65 126.06 Z" fill="#000000" fill-opacity="1.000000"/>
  <path d="M716.838 120.56 Q716.838 118.654 717.228 117.49 Q717.619 116.326 718.392 115.693 Q719.166 115.06 720.338 115.06 Q721.197 115.06 721.853 115.412 Q722.509 115.763 722.931 116.42 Q723.353 117.076 723.595 118.021 Q723.838 118.967 723.838 120.56 Q723.838 122.467 723.447 123.631 Q723.056 124.795 722.283 125.427 Q721.509 126.06 720.338 126.06 Q718.791 126.06 717.9 124.951 Q716.838 123.592 716.838 120.56 ZM718.197 120.56 Q718.197 123.263 718.814 124.162 Q719.431 125.06 720.338 125.06 Q721.244 125.06 721.861 124.162 Q722.478 123.263 722.478 120.56 Q722.478 117.842 721.861 116.951 Q721.244 116.06 720.322 116.06 Q719.416 116.06 718.869 116.842 Q718.197 117.857 718.197 120.56 Z" fill="#000000" fill-opacity="1.000000"/>
  <path d="M725.728 126.06 L725.728 125.06 L727.228 125.06 L727.228 126.06 L725.728 126.06 Z" fill="#000000" fill-opacity="1.000000"/>
  <path d="M729.072 123.06 L730.4 123.06 Q730.634 124.123 731.173 124.592 Q731.713 125.06 732.494 125.06 Q733.431 125.06 734.072 124.443 Q734.713 123.826 734.713 122.92 Q734.713 122.045 734.119 121.474 Q733.525 120.904 732.603 120.904 Q732.228 120.904 731.681 121.06 L731.822 120.06 Q731.963 120.076 732.041 120.076 Q732.884 120.076 733.556 119.568 Q734.228 119.06 734.228 117.998 Q734.228 117.17 733.736 116.615 Q733.244 116.06 732.463 116.06 Q731.697 116.06 731.181 116.56 Q730.666 117.06 730.525 118.06 L729.213 118.06 Q729.447 116.638 730.306 115.849 Q731.166 115.06 732.447 115.06 Q733.322 115.06 734.064 115.467 Q734.806 115.873 735.197 116.576 Q735.588 117.279 735.588 118.076 Q735.588 118.826 735.213 119.443 Q734.838 120.06 734.103 120.42 Q735.056 120.623 735.58 121.271 Q736.103 121.92 736.103 122.904 Q736.103 124.217 735.08 125.138 Q734.056 126.06 732.478 126.06 Q731.072 126.06 730.134 125.224 Q729.197 124.388 729.072 123.06 Z" fill="#000000" fill-opacity="1.000000"/>
  <path d="M737.541 117.06 Q737.541 116.232 738.134 115.646 Q738.728 115.06 739.572 115.06 Q740.416 115.06 741.009 115.646 Q741.603 116.232 741.603 117.06 Q741.603 117.888 741.009 118.474 Q740.416 119.06 739.572 119.06 Q738.728 119.06 738.134 118.474 Q737.541 117.888 737.541 117.06 ZM738.338 117.06 Q738.338 117.482 738.697 117.771 Q739.056 118.06 739.572 118.06 Q740.088 118.06 740.447 117.771 Q740.806 117.482 740.806 117.06 Q740.806 116.638 740.447 116.349 Q740.088 116.06 739.572 116.06 Q739.056 116.06 738.697 116.349 Q738.338 116.638 738.338 117.06 Z" fill="#000000" fill-opacity="1.000000"/>
  <path d="M751.291 122.232 L752.713 122.592 Q752.259 124.279 751.103 125.17 Q749.947 126.06 748.275 126.06 Q746.541 126.06 745.455 125.357 Q744.369 124.654 743.798 123.326 Q743.228 121.998 743.228 120.482 Q743.228 118.826 743.869 117.584 Q744.509 116.342 745.697 115.701 Q746.884 115.06 748.291 115.06 Q749.916 115.06 751.009 115.842 Q752.103 116.623 752.541 118.045 L751.134 118.388 Q750.759 117.17 750.048 116.615 Q749.338 116.06 748.259 116.06 Q747.025 116.06 746.197 116.677 Q745.369 117.295 745.033 118.334 Q744.697 119.373 744.697 120.467 Q744.697 121.888 745.095 122.951 Q745.494 124.013 746.338 124.537 Q747.181 125.06 748.15 125.06 Q749.353 125.06 750.173 124.349 Q750.994 123.638 751.291 122.232 Z" fill="#000000" fill-opacity="1.000000"/>
  <path d="M791.193 153.602 L789.88 153.602 Q789.709 152.68 789.38 152.274 Q788.849 151.602 788.068 151.602 Q787.427 151.602 786.959 151.992 Q786.334 152.492 785.974 153.445 Q785.615 154.399 785.599 156.039 Q786.068 155.305 786.763 154.953 Q787.459 154.602 788.209 154.602 Q789.521 154.602 790.451 155.555 Q791.38 156.508 791.38 158.008 Q791.38 158.992 790.943 159.844 Q790.505 160.695 789.748 161.149 Q788.99 161.602 788.021 161.602 Q786.365 161.602 785.326 160.383 Q784.287 159.164 784.287 156.383 Q784.287 153.258 785.443 151.836 Q786.443 150.602 788.146 150.602 Q789.412 150.602 790.224 151.399 Q791.037 152.195 791.193 153.602 ZM785.802 157.977 Q785.802 158.664 786.091 159.297 Q786.38 159.93 786.904 160.266 Q787.427 160.602 787.99 160.602 Q788.834 160.602 789.435 159.914 Q790.037 159.227 790.037 158.039 Q790.037 156.914 789.443 156.258 Q788.849 155.602 787.943 155.602 Q787.052 155.602 786.427 156.258 Q785.802 156.914 785.802 157.977 Z" fill="#000000" fill-opacity="1.000000"/>
  <path d="M793.24 161.602 L793.24 160.602 L794.74 160.602 L794.74 161.602 L793.24 161.602 Z" fill="#000000" fill-opacity="1.000000"/>
  <path d="M803.427 153.602 L802.115 153.602 Q801.943 152.68 801.615 152.274 Q801.084 151.602 800.302 151.602 Q799.662 151.602 799.193 151.992 Q798.568 152.492 798.209 153.445 Q797.849 154.399 797.834 156.039 Q798.302 155.305 798.998 154.953 Q799.693 154.602 800.443 154.602 Q801.755 154.602 802.685 155.555 Q803.615 156.508 803.615 158.008 Q803.615 158.992 803.177 159.844 Q802.74 160.695 801.982 161.149 Q801.224 161.602 800.255 161.602 Q798.599 161.602 797.56 160.383 Q796.521 159.164 796.521 156.383 Q796.521 153.258 797.677 151.836 Q798.677 150.602 800.38 150.602 Q801.646 150.602 802.459 151.399 Q803.271 152.195 803.427 153.602 ZM798.037 157.977 Q798.037 158.664 798.326 159.297 Q798.615 159.93 799.138 160.266 Q799.662 160.602 800.224 160.602 Q801.068 160.602 801.669 159.914 Q802.271 159.227 802.271 158.039 Q802.271 156.914 801.677 156.258 Q801.084 155.602 800.177 155.602 Q799.287 155.602 798.662 156.258 Q798.037 156.914 798.037 157.977 Z" fill="#000000" fill-opacity="1.000000"/>
  <path d="M805.052 152.602 Q805.052 151.774 805.646 151.188 Q806.24 150.602 807.084 150.602 Q807.927 150.602 808.521 151.188 Q809.115 151.774 809.115 152.602 Q809.115 153.43 808.521 154.016 Q807.927 154.602 807.084 154.602 Q806.24 154.602 805.646 154.016 Q805.052 153.43 805.052 152.602 ZM805.849 152.602 Q805.849 153.024 806.209 153.313 Q806.568 153.602 807.084 153.602 Q807.599 153.602 807.959 153.313 Q808.318 153.024 808.318 152.602 Q808.318 152.18 807.959 151.891 Q807.599 151.602 807.084 151.602 Q806.568 151.602 806.209 151.891 Q805.849 152.18 805.849 152.602 Z" fill="#000000" fill-opacity="1.000000"/>
  <path d="M818.802 157.774 L820.224 158.133 Q819.771 159.82 818.615 160.711 Q817.459 161.602 815.787 161.602 Q814.052 161.602 812.966 160.899 Q811.88 160.195 811.31 158.867 Q810.74 157.539 810.74 156.024 Q810.74 154.367 811.38 153.125 Q812.021 151.883 813.209 151.242 Q814.396 150.602 815.802 150.602 Q817.427 150.602 818.521 151.383 Q819.615 152.164 820.052 153.586 L818.646 153.93 Q818.271 152.711 817.56 152.156 Q816.849 151.602 815.771 151.602 Q814.537 151.602 813.709 152.219 Q812.88 152.836 812.544 153.875 Q812.209 154.914 812.209 156.008 Q812.209 157.43 812.607 158.492 Q813.005 159.555 813.849 160.078 Q814.693 160.602 815.662 160.602 Q816.865 160.602 817.685 159.891 Q818.505 159.18 818.802 157.774 Z" fill="#000000" fill-opacity="1.000000"/>
  <path d="M860.158 178.892 L860.158 175.892 L855.501 175.892 L855.501 174.892 L860.408 167.892 L861.486 167.892 L861.486 174.892 L862.939 174.892 L862.939 175.892 L861.486 175.892 L861.486 178.892 L860.158 178.892 ZM860.158 174.892 L860.158 170.095 L856.798 174.892 L860.158 174.892 Z" fill="#000000" fill-opacity="1.000000"/>
  <path d="M864.83 178.892 L864.83 177.892 L866.33 177.892 L866.33 178.892 L864.83 178.892 Z" fill="#000000" fill-opacity="1.000000"/>
  <path d="M870.205 173.361 Q869.392 173.033 868.994 172.416 Q868.595 171.798 868.595 170.939 Q868.595 169.658 869.439 168.775 Q870.283 167.892 871.673 167.892 Q873.08 167.892 873.939 168.791 Q874.798 169.689 874.798 170.986 Q874.798 171.814 874.4 172.423 Q874.001 173.033 873.205 173.361 Q874.205 173.658 874.72 174.322 Q875.236 174.986 875.236 175.892 Q875.236 177.158 874.259 178.025 Q873.283 178.892 871.705 178.892 Q870.111 178.892 869.134 178.025 Q868.158 177.158 868.158 175.861 Q868.158 174.892 868.689 174.244 Q869.22 173.595 870.205 173.361 ZM869.939 170.845 Q869.939 171.752 870.431 172.322 Q870.923 172.892 871.705 172.892 Q872.47 172.892 872.955 172.322 Q873.439 171.752 873.439 170.923 Q873.439 170.064 872.939 169.478 Q872.439 168.892 871.689 168.892 Q870.939 168.892 870.439 169.462 Q869.939 170.033 869.939 170.845 ZM869.517 175.877 Q869.517 176.392 869.783 176.877 Q870.048 177.361 870.572 177.627 Q871.095 177.892 871.705 177.892 Q872.642 177.892 873.259 177.33 Q873.876 176.767 873.876 175.908 Q873.876 175.033 873.244 174.462 Q872.611 173.892 871.658 173.892 Q870.736 173.892 870.126 174.455 Q869.517 175.017 869.517 175.877 Z" fill="#000000" fill-opacity="1.000000"/>
  <path d="M876.642 169.892 Q876.642 169.064 877.236 168.478 Q877.83 167.892 878.673 167.892 Q879.517 167.892 880.111 168.478 Q880.705 169.064 880.705 169.892 Q880.705 170.72 880.111 171.306 Q879.517 171.892 878.673 171.892 Q877.83 171.892 877.236 171.306 Q876.642 170.72 876.642 169.892 ZM877.439 169.892 Q877.439 170.314 877.798 170.603 Q878.158 170.892 878.673 170.892 Q879.189 170.892 879.548 170.603 Q879.908 170.314 879.908 169.892 Q879.908 169.47 879.548 169.181 Q879.189 168.892 878.673 168.892 Q878.158 168.892 877.798 169.181 Q877.439 169.47 877.439 169.892 Z" fill="#000000" fill-opacity="1.000000"/>
  <path d="M890.392 175.064 L891.814 175.423 Q891.361 177.111 890.205 178.002 Q889.048 178.892 887.376 178.892 Q885.642 178.892 884.556 178.189 Q883.47 177.486 882.9 176.158 Q882.33 174.83 882.33 173.314 Q882.33 171.658 882.97 170.416 Q883.611 169.173 884.798 168.533 Q885.986 167.892 887.392 167.892 Q889.017 167.892 890.111 168.673 Q891.205 169.455 891.642 170.877 L890.236 171.22 Q889.861 170.002 889.15 169.447 Q888.439 168.892 887.361 168.892 Q886.126 168.892 885.298 169.509 Q884.47 170.127 884.134 171.166 Q883.798 172.205 883.798 173.298 Q883.798 174.72 884.197 175.783 Q884.595 176.845 885.439 177.369 Q886.283 177.892 887.251 177.892 Q888.455 177.892 889.275 177.181 Q890.095 176.47 890.392 175.064 Z" fill="#000000" fill-opacity="1.000000"/>
  <path d="M55.3604 46.2667 L55.3604 35.2667 L56.7823 35.2667 L56.7823 45.2667 L62.0792 45.2667 L62.0792 46.2667 L55.3604 46.2667 Z" fill="#000000" fill-opacity="1.000000"/>
  <path d="M62.9229 42.2667 Q62.9229 40.1417 64.126 39.1104 Q65.126 38.2667 66.5635 38.2667 Q68.1729 38.2667 69.1885 39.2979 Q70.2042 40.3292 70.2042 42.1573 Q70.2042 43.6417 69.751 44.4854 Q69.2979 45.3292 68.4385 45.7979 Q67.5792 46.2667 66.5635 46.2667 Q64.9385 46.2667 63.9307 45.2354 Q62.9229 44.2042 62.9229 42.2667 ZM64.2823 42.2667 Q64.2823 43.7667 64.9307 44.5167 Q65.5792 45.2667 66.5792 45.2667 Q67.5635 45.2667 68.212 44.5167 Q68.8604 43.7667 68.8604 42.2198 Q68.8604 40.7667 68.2042 40.0167 Q67.5479 39.2667 66.5792 39.2667 Q65.5792 39.2667 64.9307 40.0089 Q64.2823 40.751 64.2823 42.2667 Z" fill="#000000" fill-opacity="1.000000"/>
  <path d="M71.5635 46.2667 L71.5635 38.2667 L72.751 38.2667 L72.751 39.376 Q73.6104 38.2667 75.2354 38.2667 Q75.9385 38.2667 76.5245 38.5245 Q77.1104 38.7823 77.4073 39.1885 Q77.7042 39.5948 77.8135 40.1729 Q77.8917 40.5323 77.8917 41.4542 L77.8917 46.2667 L76.5635 46.2667 L76.5635 41.4073 Q76.5635 40.5792 76.4073 40.1651 Q76.251 39.751 75.8604 39.5089 Q75.4698 39.2667 74.9542 39.2667 Q74.1104 39.2667 73.501 39.8135 Q72.8917 40.3604 72.8917 41.8917 L72.8917 46.2667 L71.5635 46.2667 Z" fill="#000000" fill-opacity="1.000000"/>
  <path d="M84.7667 46.2667 L84.7667 45.2042 Q84.0323 46.2667 82.5948 46.2667 Q81.6573 46.2667 80.8839 45.7589 Q80.1104 45.251 79.6807 44.3526 Q79.251 43.4542 79.251 42.2667 Q79.251 41.126 79.6417 40.1964 Q80.0323 39.2667 80.8057 38.7667 Q81.5792 38.2667 82.5479 38.2667 Q83.251 38.2667 83.7979 38.5401 Q84.3448 38.8135 84.6885 39.251 L84.6885 35.2667 L86.001 35.2667 L86.001 46.2667 L84.7667 46.2667 ZM80.6104 42.2667 Q80.6104 43.7823 81.2432 44.5245 Q81.876 45.2667 82.7198 45.2667 Q83.5948 45.2667 84.1964 44.5557 Q84.7979 43.8448 84.7979 42.376 Q84.7979 40.7667 84.1807 40.0167 Q83.5635 39.2667 82.6729 39.2667 Q81.7823 39.2667 81.1964 39.9932 Q80.6104 40.7198 80.6104 42.2667 Z" fill="#000000" fill-opacity="1.000000"/>
  <path d="M87.3917 42.2667 Q87.3917 40.1417 88.5948 39.1104 Q89.5948 38.2667 91.0323 38.2667 Q92.6417 38.2667 93.6573 39.2979 Q94.6729 40.3292 94.6729 42.1573 Q94.6729 43.6417 94.2198 44.4854 Q93.7667 45.3292 92.9073 45.7979 Q92.0479 46.2667 91.0323 46.2667 Q89.4073 46.2667 88.3995 45.2354 Q87.3917 44.2042 87.3917 42.2667 ZM88.751 42.2667 Q88.751 43.7667 89.3995 44.5167 Q90.0479 45.2667 91.0479 45.2667 Q92.0323 45.2667 92.6807 44.5167 Q93.3292 43.7667 93.3292 42.2198 Q93.3292 40.7667 92.6729 40.0167 Q92.0167 39.2667 91.0479 39.2667 Q90.0479 39.2667 89.3995 40.0089 Q88.751 40.751 88.751 42.2667 Z" fill="#000000" fill-opacity="1.000000"/>
  <path d="M96.0323 46.2667 L96.0323 38.2667 L97.2198 38.2667 L97.2198 39.376 Q98.0792 38.2667 99.7042 38.2667 Q100.407 38.2667 100.993 38.5245 Q101.579 38.7823 101.876 39.1885 Q102.173 39.5948 102.282 40.1729 Q102.36 40.5323 102.36 41.4542 L102.36 46.2667 L101.032 46.2667 L101.032 41.4073 Q101.032 40.5792 100.876 40.1651 Q100.72 39.751 100.329 39.5089 Q99.9385 39.2667 99.4229 39.2667 Q98.5792 39.2667 97.9698 39.8135 Q97.3604 40.3604 97.3604 41.8917 L97.3604 46.2667 L96.0323 46.2667 Z" fill="#000000" fill-opacity="1.000000"/>
  <path d="" fill="#000000" fill-opacity="1.000000"/>
  <path d="M107.751 43.2667 L107.751 42.2667 L111.814 42.2667 L111.814 43.2667 L107.751 43.2667 Z" fill="#000000" fill-opacity="1.000000"/>
  <path d="" fill="#000000" fill-opacity="1.000000"/>
  <path d="M115.829 46.2667 L119.954 35.2667 L121.47 35.2667 L125.876 46.2667 L124.251 46.2667 L123.001 43.2667 L118.517 43.2667 L117.329 46.2667 L115.829 46.2667 ZM118.923 42.2667 L122.564 42.2667 L121.439 38.8292 Q120.923 37.4698 120.673 36.2667 Q120.47 37.6104 120.095 38.6417 L118.923 42.2667 Z" fill="#000000" fill-opacity="1.000000"/>
  <path d="M128.235 46.2667 L125.267 38.2667 L126.657 38.2667 L128.329 43.0635 Q128.595 43.8292 128.829 44.6729 Q129.001 44.0323 129.314 43.1573 L131.048 38.2667 L132.407 38.2667 L129.454 46.2667 L128.235 46.2667 Z" fill="#000000" fill-opacity="1.000000"/>
  <path d="M138.61 44.2667 L139.97 44.2667 Q139.642 45.2198 138.774 45.7432 Q137.907 46.2667 136.548 46.2667 Q134.845 46.2667 133.845 45.2354 Q132.845 44.2042 132.845 42.3292 Q132.845 40.4073 133.853 39.337 Q134.86 38.2667 136.485 38.2667 Q138.032 38.2667 139.024 39.2354 Q140.017 40.2042 140.017 41.9542 Q140.017 42.0479 140.017 42.2667 L134.204 42.2667 Q134.282 43.7198 134.931 44.4932 Q135.579 45.2667 136.564 45.2667 Q137.282 45.2667 137.798 45.0245 Q138.314 44.7823 138.61 44.2667 ZM134.282 41.2667 L138.626 41.2667 Q138.532 40.3917 138.126 39.9542 Q137.501 39.2667 136.501 39.2667 Q135.579 39.2667 134.962 39.8135 Q134.345 40.3604 134.282 41.2667 Z" fill="#000000" fill-opacity="1.000000"/>
  <path d="M141.423 46.2667 L141.423 38.2667 L142.61 38.2667 L142.61 39.2667 Q143.064 38.6573 143.446 38.462 Q143.829 38.2667 144.298 38.2667 Q144.97 38.2667 145.657 38.4698 L145.204 39.6885 Q144.72 39.2667 144.235 39.2667 Q143.798 39.2667 143.454 39.5401 Q143.11 39.8135 142.97 40.2979 Q142.751 41.0479 142.751 41.9385 L142.751 46.2667 L141.423 46.2667 Z" fill="#000000" fill-opacity="1.000000"/>
  <path d="M151.407 45.2667 Q150.673 45.8135 149.993 46.0401 Q149.314 46.2667 148.548 46.2667 Q147.267 46.2667 146.579 45.6573 Q145.892 45.0479 145.892 44.0948 Q145.892 43.5323 146.149 43.0714 Q146.407 42.6104 146.829 42.3292 Q147.251 42.0479 147.782 41.9073 Q148.173 41.7979 148.954 41.7042 Q150.548 41.5323 151.298 41.2667 Q151.314 40.9854 151.314 40.9073 Q151.314 40.0792 150.939 39.7354 Q150.439 39.2667 149.439 39.2667 Q148.501 39.2667 148.064 39.4854 Q147.626 39.7042 147.407 40.2667 L146.11 40.2667 Q146.282 39.5792 146.689 39.1495 Q147.095 38.7198 147.853 38.4932 Q148.61 38.2667 149.61 38.2667 Q150.61 38.2667 151.235 38.462 Q151.86 38.6573 152.149 38.962 Q152.439 39.2667 152.564 39.7198 Q152.626 40.001 152.626 40.9073 L152.626 42.7354 Q152.626 44.6417 152.712 45.1964 Q152.798 45.751 153.048 46.2667 L151.673 46.2667 Q151.47 45.8448 151.407 45.2667 ZM151.298 42.2667 Q150.579 42.5479 149.142 42.751 Q148.329 42.876 147.993 43.0167 Q147.657 43.1573 147.478 43.4385 Q147.298 43.7198 147.298 44.0479 Q147.298 44.5792 147.696 44.9229 Q148.095 45.2667 148.86 45.2667 Q149.626 45.2667 150.22 44.8995 Q150.814 44.5323 151.095 43.9854 Q151.298 43.5635 151.298 42.7198 L151.298 42.2667 Z" fill="#000000" fill-opacity="1.000000"/>
  <path d="M154.251 47.2667 L155.532 47.2667 Q155.61 47.751 155.985 47.9698 Q156.47 48.2667 157.314 48.2667 Q158.235 48.2667 158.735 47.9073 Q159.235 47.5479 159.407 46.9073 Q159.501 46.5167 159.501 45.2667 Q158.642 46.2667 157.345 46.2667 Q155.751 46.2667 154.868 45.1026 Q153.985 43.9385 153.985 42.3135 Q153.985 41.1885 154.392 40.2432 Q154.798 39.2979 155.564 38.7823 Q156.329 38.2667 157.36 38.2667 Q158.735 38.2667 159.626 39.2667 L159.626 38.2667 L160.845 38.2667 L160.845 45.0323 Q160.845 46.8604 160.478 47.6182 Q160.11 48.376 159.306 48.8214 Q158.501 49.2667 157.329 49.2667 Q155.939 49.2667 155.079 48.7667 Q154.22 48.2667 154.251 47.2667 ZM155.345 42.2198 Q155.345 43.7979 155.954 44.5323 Q156.564 45.2667 157.47 45.2667 Q158.376 45.2667 158.993 44.5401 Q159.61 43.8135 159.61 42.2667 Q159.61 40.7667 158.978 40.0167 Q158.345 39.2667 157.454 39.2667 Q156.579 39.2667 155.962 40.0089 Q155.345 40.751 155.345 42.2198 Z" fill="#000000" fill-opacity="1.000000"/>
  <path d="M167.97 44.2667 L169.329 44.2667 Q169.001 45.2198 168.134 45.7432 Q167.267 46.2667 165.907 46.2667 Q164.204 46.2667 163.204 45.2354 Q162.204 44.2042 162.204 42.3292 Q162.204 40.4073 163.212 39.337 Q164.22 38.2667 165.845 38.2667 Q167.392 38.2667 168.384 39.2354 Q169.376 40.2042 169.376 41.9542 Q169.376 42.0479 169.376 42.2667 L163.564 42.2667 Q163.642 43.7198 164.29 44.4932 Q164.939 45.2667 165.923 45.2667 Q166.642 45.2667 167.157 45.0245 Q167.673 44.7823 167.97 44.2667 ZM163.642 41.2667 L167.985 41.2667 Q167.892 40.3917 167.485 39.9542 Q166.86 39.2667 165.86 39.2667 Q164.939 39.2667 164.321 39.8135 Q163.704 40.3604 163.642 41.2667 Z" fill="#000000" fill-opacity="1.000000"/>
  <path d="" fill="#000000" fill-opacity="1.000000"/>
  <path d="M175.001 46.2667 L175.001 35.2667 L177.142 35.2667 L179.689 42.8604 Q180.048 43.9229 180.204 44.4542 Q180.392 43.876 180.782 42.7354 L183.345 35.2667 L185.251 35.2667 L185.251 46.2667 L183.876 46.2667 L183.876 36.2667 L180.767 46.2667 L179.485 46.2667 L176.376 36.2667 L176.376 46.2667 L175.001 46.2667 Z" fill="#000000" fill-opacity="1.000000"/>
  <path d="M186.61 42.2667 Q186.61 40.1417 187.814 39.1104 Q188.814 38.2667 190.251 38.2667 Q191.86 38.2667 192.876 39.2979 Q193.892 40.3292 193.892 42.1573 Q193.892 43.6417 193.439 44.4854 Q192.985 45.3292 192.126 45.7979 Q191.267 46.2667 190.251 46.2667 Q188.626 46.2667 187.618 45.2354 Q186.61 44.2042 186.61 42.2667 ZM187.97 42.2667 Q187.97 43.7667 188.618 44.5167 Q189.267 45.2667 190.267 45.2667 Q191.251 45.2667 191.899 44.5167 Q192.548 43.7667 192.548 42.2198 Q192.548 40.7667 191.892 40.0167 Q191.235 39.2667 190.267 39.2667 Q189.267 39.2667 188.618 40.0089 Q187.97 40.751 187.97 42.2667 Z" fill="#000000" fill-opacity="1.000000"/>
  <path d="M195.251 46.2667 L195.251 38.2667 L196.439 38.2667 L196.439 39.376 Q197.298 38.2667 198.923 38.2667 Q199.626 38.2667 200.212 38.5245 Q200.798 38.7823 201.095 39.1885 Q201.392 39.5948 201.501 40.1729 Q201.579 40.5323 201.579 41.4542 L201.579 46.2667 L200.251 46.2667 L200.251 41.4073 Q200.251 40.5792 200.095 40.1651 Q199.939 39.751 199.548 39.5089 Q199.157 39.2667 198.642 39.2667 Q197.798 39.2667 197.189 39.8135 Q196.579 40.3604 196.579 41.8917 L196.579 46.2667 L195.251 46.2667 Z" fill="#000000" fill-opacity="1.000000"/>
  <path d="M206.298 45.001 L206.485 46.1729 Q205.923 46.2667 205.485 46.2667 Q204.767 46.2667 204.376 46.0323 Q203.985 45.7979 203.821 45.4229 Q203.657 45.0479 203.657 43.8292 L203.657 39.2667 L202.689 39.2667 L202.689 38.2667 L203.657 38.2667 L203.657 36.3448 L204.97 35.5479 L204.97 38.2667 L206.298 38.2667 L206.298 39.2667 L204.97 39.2667 L204.97 44.1104 Q204.97 44.7198 205.04 44.8917 Q205.11 45.0635 205.267 45.1651 Q205.423 45.2667 205.72 45.2667 Q205.939 45.2667 206.298 45.001 Z" fill="#000000" fill-opacity="1.000000"/>
  <path d="M207.485 46.2667 L207.485 35.2667 L208.814 35.2667 L208.814 39.2042 Q209.735 38.2667 211.142 38.2667 Q212.001 38.2667 212.642 38.6104 Q213.282 38.9542 213.556 39.5557 Q213.829 40.1573 213.829 41.3135 L213.829 46.2667 L212.501 46.2667 L212.501 41.2042 Q212.501 40.1885 212.071 39.7276 Q211.642 39.2667 210.86 39.2667 Q210.282 39.2667 209.767 39.5792 Q209.251 39.8917 209.032 40.4229 Q208.814 40.9542 208.814 41.8917 L208.814 46.2667 L207.485 46.2667 Z" fill="#000000" fill-opacity="1.000000"/>
  <path d="M215.61 46.2667 L215.61 35.2667 L216.939 35.2667 L216.939 46.2667 L215.61 46.2667 Z" fill="#000000" fill-opacity="1.000000"/>
  <path d="M218.86 49.1417 L218.704 48.1573 Q219.142 48.2667 219.454 48.2667 Q219.892 48.2667 220.157 48.1182 Q220.423 47.9698 220.595 47.6885 Q220.72 47.4854 221.001 46.6729 Q221.032 46.5635 221.11 46.3448 L218.157 38.2667 L219.579 38.2667 L221.204 42.6885 Q221.517 43.5323 221.767 44.4542 Q222.001 43.876 222.314 43.001 L223.97 38.2667 L225.298 38.2667 L222.329 46.4073 Q221.86 47.626 221.595 48.0792 Q221.235 48.6885 220.782 48.9776 Q220.329 49.2667 219.704 49.2667 Q219.329 49.2667 218.86 49.1417 Z" fill="#000000" fill-opacity="1.000000"/>
  <path d="" fill="#000000" fill-opacity="1.000000"/>
  <path d="M233.095 46.2667 L233.095 36.2667 L229.564 36.2667 L229.564 35.2667 L238.064 35.2667 L238.064 36.2667 L234.517 36.2667 L234.517 46.2667 L233.095 46.2667 Z" fill="#000000" fill-opacity="1.000000"/>
  <path d="M243.548 44.2667 L244.907 44.2667 Q244.579 45.2198 243.712 45.7432 Q242.845 46.2667 241.485 46.2667 Q239.782 46.2667 238.782 45.2354 Q237.782 44.2042 237.782 42.3292 Q237.782 40.4073 238.79 39.337 Q239.798 38.2667 241.423 38.2667 Q242.97 38.2667 243.962 39.2354 Q244.954 40.2042 244.954 41.9542 Q244.954 42.0479 244.954 42.2667 L239.142 42.2667 Q239.22 43.7198 239.868 44.4932 Q240.517 45.2667 241.501 45.2667 Q242.22 45.2667 242.735 45.0245 Q243.251 44.7823 243.548 44.2667 ZM239.22 41.2667 L243.564 41.2667 Q243.47 40.3917 243.064 39.9542 Q242.439 39.2667 241.439 39.2667 Q240.517 39.2667 239.899 39.8135 Q239.282 40.3604 239.22 41.2667 Z" fill="#000000" fill-opacity="1.000000"/>
  <path d="M245.564 46.2667 L245.564 38.2667 L246.751 38.2667 L246.751 39.3917 Q247.11 38.8917 247.72 38.5792 Q248.329 38.2667 249.11 38.2667 Q249.97 38.2667 250.517 38.587 Q251.064 38.9073 251.298 39.4854 Q252.22 38.2667 253.704 38.2667 Q254.86 38.2667 255.485 38.9151 Q256.11 39.5635 256.11 40.8917 L256.11 46.2667 L254.798 46.2667 L254.798 41.2354 Q254.798 40.4229 254.673 40.0635 Q254.548 39.7042 254.204 39.4854 Q253.86 39.2667 253.407 39.2667 Q252.595 39.2667 252.048 39.8292 Q251.501 40.3917 251.501 41.626 L251.501 46.2667 L250.189 46.2667 L250.189 41.0792 Q250.189 40.1729 249.868 39.7198 Q249.548 39.2667 248.814 39.2667 Q248.251 39.2667 247.782 39.5714 Q247.314 39.876 247.103 40.4542 Q246.892 41.0323 246.892 42.126 L246.892 46.2667 L245.564 46.2667 Z" fill="#000000" fill-opacity="1.000000"/>
  <path d="M257.782 49.2667 L257.782 38.2667 L258.985 38.2667 L258.985 39.4229 Q259.407 38.8448 259.946 38.5557 Q260.485 38.2667 261.235 38.2667 Q262.235 38.2667 262.993 38.7745 Q263.751 39.2823 264.142 40.1964 Q264.532 41.1104 264.532 42.2042 Q264.532 43.376 264.103 44.3214 Q263.673 45.2667 262.86 45.7667 Q262.048 46.2667 261.142 46.2667 Q260.485 46.2667 259.97 46.0089 Q259.454 45.751 259.11 45.3604 L259.11 49.2667 L257.782 49.2667 ZM258.985 42.3292 Q258.985 43.8292 259.595 44.5479 Q260.204 45.2667 261.064 45.2667 Q261.939 45.2667 262.564 44.5245 Q263.189 43.7823 263.189 42.2198 Q263.189 40.7354 262.579 40.001 Q261.97 39.2667 261.126 39.2667 Q260.282 39.2667 259.634 40.0557 Q258.985 40.8448 258.985 42.3292 Z" fill="#000000" fill-opacity="1.000000"/>
  <path d="M271.267 44.2667 L272.626 44.2667 Q272.298 45.2198 271.431 45.7432 Q270.564 46.2667 269.204 46.2667 Q267.501 46.2667 266.501 45.2354 Q265.501 44.2042 265.501 42.3292 Q265.501 40.4073 266.509 39.337 Q267.517 38.2667 269.142 38.2667 Q270.689 38.2667 271.681 39.2354 Q272.673 40.2042 272.673 41.9542 Q272.673 42.0479 272.673 42.2667 L266.86 42.2667 Q266.939 43.7198 267.587 44.4932 Q268.235 45.2667 269.22 45.2667 Q269.939 45.2667 270.454 45.0245 Q270.97 44.7823 271.267 44.2667 ZM266.939 41.2667 L271.282 41.2667 Q271.189 40.3917 270.782 39.9542 Q270.157 39.2667 269.157 39.2667 Q268.235 39.2667 267.618 39.8135 Q267.001 40.3604 266.939 41.2667 Z" fill="#000000" fill-opacity="1.000000"/>
  <path d="M274.079 46.2667 L274.079 38.2667 L275.267 38.2667 L275.267 39.2667 Q275.72 38.6573 276.103 38.462 Q276.485 38.2667 276.954 38.2667 Q277.626 38.2667 278.314 38.4698 L277.86 39.6885 Q277.376 39.2667 276.892 39.2667 Q276.454 39.2667 276.11 39.5401 Q275.767 39.8135 275.626 40.2979 Q275.407 41.0479 275.407 41.9385 L275.407 46.2667 L274.079 46.2667 Z" fill="#000000" fill-opacity="1.000000"/>
  <path d="M284.064 45.2667 Q283.329 45.8135 282.649 46.0401 Q281.97 46.2667 281.204 46.2667 Q279.923 46.2667 279.235 45.6573 Q278.548 45.0479 278.548 44.0948 Q278.548 43.5323 278.806 43.0714 Q279.064 42.6104 279.485 42.3292 Q279.907 42.0479 280.439 41.9073 Q280.829 41.7979 281.61 41.7042 Q283.204 41.5323 283.954 41.2667 Q283.97 40.9854 283.97 40.9073 Q283.97 40.0792 283.595 39.7354 Q283.095 39.2667 282.095 39.2667 Q281.157 39.2667 280.72 39.4854 Q280.282 39.7042 280.064 40.2667 L278.767 40.2667 Q278.939 39.5792 279.345 39.1495 Q279.751 38.7198 280.509 38.4932 Q281.267 38.2667 282.267 38.2667 Q283.267 38.2667 283.892 38.462 Q284.517 38.6573 284.806 38.962 Q285.095 39.2667 285.22 39.7198 Q285.282 40.001 285.282 40.9073 L285.282 42.7354 Q285.282 44.6417 285.368 45.1964 Q285.454 45.751 285.704 46.2667 L284.329 46.2667 Q284.126 45.8448 284.064 45.2667 ZM283.954 42.2667 Q283.235 42.5479 281.798 42.751 Q280.985 42.876 280.649 43.0167 Q280.314 43.1573 280.134 43.4385 Q279.954 43.7198 279.954 44.0479 Q279.954 44.5792 280.353 44.9229 Q280.751 45.2667 281.517 45.2667 Q282.282 45.2667 282.876 44.8995 Q283.47 44.5323 283.751 43.9854 Q283.954 43.5635 283.954 42.7198 L283.954 42.2667 Z" fill="#000000" fill-opacity="1.000000"/>
  <path d="M290.032 45.001 L290.22 46.1729 Q289.657 46.2667 289.22 46.2667 Q288.501 46.2667 288.11 46.0323 Q287.72 45.7979 287.556 45.4229 Q287.392 45.0479 287.392 43.8292 L287.392 39.2667 L286.423 39.2667 L286.423 38.2667 L287.392 38.2667 L287.392 36.3448 L288.704 35.5479 L288.704 38.2667 L290.032 38.2667 L290.032 39.2667 L288.704 39.2667 L288.704 44.1104 Q288.704 44.7198 288.774 44.8917 Q288.845 45.0635 289.001 45.1651 Q289.157 45.2667 289.454 45.2667 Q289.673 45.2667 290.032 45.001 Z" fill="#000000" fill-opacity="1.000000"/>
  <path d="M296.329 46.2667 L296.329 45.0792 Q295.423 46.2667 293.86 46.2667 Q293.157 46.2667 292.564 46.001 Q291.97 45.7354 291.681 45.337 Q291.392 44.9385 291.267 44.3448 Q291.189 43.9542 291.189 43.1104 L291.189 38.2667 L292.517 38.2667 L292.517 42.6885 Q292.517 43.751 292.595 44.126 Q292.72 44.6573 293.126 44.962 Q293.532 45.2667 294.126 45.2667 Q294.704 45.2667 295.228 44.9542 Q295.751 44.6417 295.97 44.1026 Q296.189 43.5635 296.189 42.5479 L296.189 38.2667 L297.501 38.2667 L297.501 46.2667 L296.329 46.2667 Z" fill="#000000" fill-opacity="1.000000"/>
  <path d="M299.36 46.2667 L299.36 38.2667 L300.548 38.2667 L300.548 39.2667 Q301.001 38.6573 301.384 38.462 Q301.767 38.2667 302.235 38.2667 Q302.907 38.2667 303.595 38.4698 L303.142 39.6885 Q302.657 39.2667 302.173 39.2667 Q301.735 39.2667 301.392 39.5401 Q301.048 39.8135 300.907 40.2979 Q300.689 41.0479 300.689 41.9385 L300.689 46.2667 L299.36 46.2667 Z" fill="#000000" fill-opacity="1.000000"/>
  <path d="M309.595 44.2667 L310.954 44.2667 Q310.626 45.2198 309.759 45.7432 Q308.892 46.2667 307.532 46.2667 Q305.829 46.2667 304.829 45.2354 Q303.829 44.2042 303.829 42.3292 Q303.829 40.4073 304.837 39.337 Q305.845 38.2667 307.47 38.2667 Q309.017 38.2667 310.009 39.2354 Q311.001 40.2042 311.001 41.9542 Q311.001 42.0479 311.001 42.2667 L305.189 42.2667 Q305.267 43.7198 305.915 44.4932 Q306.564 45.2667 307.548 45.2667 Q308.267 45.2667 308.782 45.0245 Q309.298 44.7823 309.595 44.2667 ZM305.267 41.2667 L309.61 41.2667 Q309.517 40.3917 309.11 39.9542 Q308.485 39.2667 307.485 39.2667 Q306.564 39.2667 305.946 39.8135 Q305.329 40.3604 305.267 41.2667 Z" fill="#000000" fill-opacity="1.000000"/>
  <path d="M40.3333 46.7667 C37.2958 46.7667 34.8333 44.3042 34.8333 41.2667 C34.8333 38.2291 37.2958 35.7667 40.3333 35.7667 C43.3709 35.7667 45.8333 38.2291 45.8333 41.2667 C45.8333 44.3042 43.3709 46.7667 40.3333 46.7667 Z" fill="#aa4643" fill-opacity="1.000000"/>
</svg>