<?xml version="1.0" encoding="UTF-8" ?>
<!-- Generated by clip v0.7.0 (clip-lang.org) -->
<svg xmlns="http://www.w3.org/2000/svg" width="1600.000000" height="800.000000">
  <rect width="1600.000000" height="800.000000" fill="#ffffff" fill-opacity="1.000000"/>
  <path d="M213.578 692 L1563.33 692 " fill="none" stroke-width="3.333333" stroke="#000000ff"/>
  <path d="M269.818 692 L269.818 678.667 " fill="none" stroke-width="3.333333" stroke="#000000ff"/>
  <path d="M382.298 692 L382.298 678.667 " fill="none" stroke-width="3.333333" stroke="#000000ff"/>
  <path d="M494.777 692 L494.777 678.667 " fill="none" stroke-width="3.333333" stroke="#000000ff"/>
  <path d="M607.257 692 L607.257 678.667 " fill="none" stroke-width="3.333333" stroke="#000000ff"/>
  <path d="M719.736 692 L719.736 678.667 " fill="none" stroke-width="3.333333" stroke="#000000ff"/>
  <path d="M832.216 692 L832.216 678.667 " fill="none" stroke-width="3.333333" stroke="#000000ff"/>
  <path d="M944.696 692 L944.696 678.667 " fill="none" stroke-width="3.333333" stroke="#000000ff"/>
  <path d="M1057.18 692 L1057.18 678.667 " fill="none" stroke-width="3.333333" stroke="#000000ff"/>
  <path d="M1169.65 692 L1169.65 678.667 " fill="none" stroke-width="3.333333" stroke="#000000ff"/>
  <path d="M1282.13 692 L1282.13 678.667 " fill="none" stroke-width="3.333333" stroke="#000000ff"/>
  <path d="M1394.61 692 L1394.61 678.667 " fill="none" stroke-width="3.333333" stroke="#000000ff"/>
  <path d="M1507.09 692 L1507.09 678.667 " fill="none" stroke-width="3.333333" stroke="#000000ff"/>
  <path d="M241.318 747.74 L244.49 747.333 Q244.615 750.208 245.63 751.271 Q246.646 752.333 248.427 752.333 Q249.74 752.333 250.701 751.724 Q251.662 751.115 252.021 750.068 Q252.38 749.021 252.38 746.724 L252.38 728.333 L255.88 728.333 L255.88 746.427 Q255.88 749.755 255.076 751.583 Q254.271 753.411 252.529 754.372 Q250.787 755.333 248.443 755.333 Q244.943 755.333 243.099 753.427 Q241.255 751.521 241.318 747.74 Z" fill="#000000" fill-opacity="1.000000"/>
  <path d="M273.552 753.333 Q271.755 754.427 270.084 754.88 Q268.412 755.333 266.505 755.333 Q263.334 755.333 261.638 753.74 Q259.943 752.146 259.943 749.677 Q259.943 748.224 260.584 747.021 Q261.224 745.818 262.263 745.091 Q263.302 744.365 264.599 743.99 Q265.552 743.724 267.49 743.49 Q271.427 743.005 273.287 742.333 Q273.302 741.771 273.302 741.615 Q273.302 739.943 272.38 739.255 Q271.13 738.333 268.677 738.333 Q266.38 738.333 265.294 738.997 Q264.209 739.661 263.677 741.333 L260.49 741.333 Q260.927 739.255 261.919 737.982 Q262.912 736.708 264.787 736.021 Q266.662 735.333 269.146 735.333 Q271.599 735.333 273.138 735.927 Q274.677 736.521 275.396 737.419 Q276.115 738.318 276.412 739.693 Q276.568 740.552 276.568 742.599 L276.568 746.677 Q276.568 750.958 276.779 752.458 Q276.99 753.958 277.599 755.333 L274.209 755.333 Q273.693 754.474 273.552 753.333 ZM273.287 745.333 Q271.521 746.005 267.974 746.474 Q265.974 746.74 265.146 747.083 Q264.318 747.427 263.865 748.068 Q263.412 748.708 263.412 749.505 Q263.412 750.724 264.396 751.529 Q265.38 752.333 267.271 752.333 Q269.162 752.333 270.623 751.521 Q272.084 750.708 272.771 749.396 Q273.287 748.396 273.287 746.427 L273.287 745.333 Z" fill="#000000" fill-opacity="1.000000"/>
  <path d="M281.427 755.333 L281.427 735.333 L284.349 735.333 L284.349 738.068 Q286.459 735.333 290.459 735.333 Q292.193 735.333 293.646 735.966 Q295.099 736.599 295.826 737.63 Q296.552 738.661 296.834 740.083 Q297.021 741.005 297.021 743.302 L297.021 755.333 L293.771 755.333 L293.771 743.521 Q293.771 741.521 293.388 740.521 Q293.005 739.521 292.044 738.927 Q291.084 738.333 289.771 738.333 Q287.693 738.333 286.185 739.669 Q284.677 741.005 284.677 744.74 L284.677 755.333 L281.427 755.333 Z" fill="#000000" fill-opacity="1.000000"/>
  <path d="M353.735 755.333 L353.735 728.333 L371.61 728.333 L371.61 731.333 L357.251 731.333 L357.251 740.333 L369.673 740.333 L369.673 743.333 L357.251 743.333 L357.251 755.333 L353.735 755.333 Z" fill="#000000" fill-opacity="1.000000"/>
  <path d="M388.688 749.333 L392.048 749.333 Q391.251 752.177 389.102 753.755 Q386.954 755.333 383.61 755.333 Q379.407 755.333 376.938 752.747 Q374.469 750.161 374.469 745.49 Q374.469 740.661 376.962 737.997 Q379.454 735.333 383.438 735.333 Q387.282 735.333 389.719 737.99 Q392.157 740.646 392.157 745.458 Q392.157 745.755 392.141 746.333 L377.829 746.333 Q378.016 749.24 379.618 750.786 Q381.219 752.333 383.626 752.333 Q385.423 752.333 386.688 751.615 Q387.954 750.896 388.688 749.333 ZM378.001 743.333 L388.719 743.333 Q388.501 741.13 387.485 740.036 Q385.938 738.333 383.454 738.333 Q381.219 738.333 379.688 739.693 Q378.157 741.052 378.001 743.333 Z" fill="#000000" fill-opacity="1.000000"/>
  <path d="M398.938 755.333 L395.923 755.333 L395.923 728.333 L399.173 728.333 L399.173 738.24 Q401.235 735.333 404.438 735.333 Q406.204 735.333 407.782 736.044 Q409.36 736.755 410.383 738.044 Q411.407 739.333 411.985 741.154 Q412.563 742.974 412.563 745.052 Q412.563 749.958 410.126 752.646 Q407.688 755.333 404.266 755.333 Q400.876 755.333 398.938 752.146 L398.938 755.333 ZM398.907 745.193 Q398.907 748.474 399.844 749.943 Q401.376 752.333 404.001 752.333 Q406.126 752.333 407.68 750.568 Q409.235 748.802 409.235 745.318 Q409.235 741.74 407.743 740.036 Q406.251 738.333 404.141 738.333 Q402.016 738.333 400.462 740.099 Q398.907 741.865 398.907 745.193 Z" fill="#000000" fill-opacity="1.000000"/>
  <path d="M465.949 755.333 L465.949 728.333 L471.215 728.333 L477.496 747.083 Q478.371 749.708 478.762 751.005 Q479.215 749.568 480.168 746.755 L486.512 728.333 L491.215 728.333 L491.215 755.333 L487.84 755.333 L487.84 731.333 L480.152 755.333 L476.98 755.333 L469.324 731.333 L469.324 755.333 L465.949 755.333 Z" fill="#000000" fill-opacity="1.000000"/>
  <path d="M508.699 753.333 Q506.902 754.427 505.23 754.88 Q503.558 755.333 501.652 755.333 Q498.48 755.333 496.785 753.74 Q495.09 752.146 495.09 749.677 Q495.09 748.224 495.73 747.021 Q496.371 745.818 497.41 745.091 Q498.449 744.365 499.746 743.99 Q500.699 743.724 502.637 743.49 Q506.574 743.005 508.433 742.333 Q508.449 741.771 508.449 741.615 Q508.449 739.943 507.527 739.255 Q506.277 738.333 503.824 738.333 Q501.527 738.333 500.441 738.997 Q499.355 739.661 498.824 741.333 L495.637 741.333 Q496.074 739.255 497.066 737.982 Q498.058 736.708 499.933 736.021 Q501.808 735.333 504.293 735.333 Q506.746 735.333 508.285 735.927 Q509.824 736.521 510.543 737.419 Q511.262 738.318 511.558 739.693 Q511.715 740.552 511.715 742.599 L511.715 746.677 Q511.715 750.958 511.926 752.458 Q512.137 753.958 512.746 755.333 L509.355 755.333 Q508.84 754.474 508.699 753.333 ZM508.433 745.333 Q506.668 746.005 503.121 746.474 Q501.121 746.74 500.293 747.083 Q499.465 747.427 499.012 748.068 Q498.558 748.708 498.558 749.505 Q498.558 750.724 499.543 751.529 Q500.527 752.333 502.418 752.333 Q504.308 752.333 505.769 751.521 Q507.23 750.708 507.918 749.396 Q508.433 748.396 508.433 746.427 L508.433 745.333 Z" fill="#000000" fill-opacity="1.000000"/>
  <path d="M516.543 755.333 L516.543 735.333 L519.465 735.333 L519.465 738.318 Q520.59 736.49 521.535 735.911 Q522.48 735.333 523.621 735.333 Q525.262 735.333 526.965 735.958 L525.84 738.974 Q524.652 738.333 523.465 738.333 Q522.402 738.333 521.551 739.005 Q520.699 739.677 520.34 740.865 Q519.793 742.677 519.793 744.833 L519.793 755.333 L516.543 755.333 Z" fill="#000000" fill-opacity="1.000000"/>
  <path d="M578.679 755.333 L588.85 728.333 L592.616 728.333 L603.46 755.333 L599.46 755.333 L596.382 747.333 L585.304 747.333 L582.397 755.333 L578.679 755.333 ZM586.319 744.333 L595.288 744.333 L592.522 737.036 Q591.257 733.693 590.647 731.333 Q590.147 734.036 589.225 736.568 L586.319 744.333 Z" fill="#000000" fill-opacity="1.000000"/>
  <path d="M605.616 762.333 L605.616 735.333 L608.585 735.333 L608.585 738.693 Q609.632 737.005 610.952 736.169 Q612.272 735.333 614.147 735.333 Q616.6 735.333 618.475 736.591 Q620.35 737.849 621.311 740.146 Q622.272 742.443 622.272 745.193 Q622.272 748.13 621.218 750.482 Q620.163 752.833 618.147 754.083 Q616.132 755.333 613.913 755.333 Q612.288 755.333 610.991 754.56 Q609.694 753.786 608.866 752.615 L608.866 762.333 L605.616 762.333 ZM608.569 745.49 Q608.569 748.99 610.069 750.661 Q611.569 752.333 613.694 752.333 Q615.866 752.333 617.405 750.599 Q618.944 748.865 618.944 745.24 Q618.944 741.771 617.436 740.052 Q615.929 738.333 613.835 738.333 Q611.757 738.333 610.163 740.169 Q608.569 742.005 608.569 745.49 Z" fill="#000000" fill-opacity="1.000000"/>
  <path d="M625.975 755.333 L625.975 735.333 L628.897 735.333 L628.897 738.318 Q630.022 736.49 630.968 735.911 Q631.913 735.333 633.054 735.333 Q634.694 735.333 636.397 735.958 L635.272 738.974 Q634.085 738.333 632.897 738.333 Q631.835 738.333 630.983 739.005 Q630.132 739.677 629.772 740.865 Q629.225 742.677 629.225 744.833 L629.225 755.333 L625.975 755.333 Z" fill="#000000" fill-opacity="1.000000"/>
  <path d="M687.846 755.333 L687.846 728.333 L693.111 728.333 L699.393 747.083 Q700.268 749.708 700.658 751.005 Q701.111 749.568 702.064 746.755 L708.408 728.333 L713.111 728.333 L713.111 755.333 L709.736 755.333 L709.736 731.333 L702.049 755.333 L698.877 755.333 L691.221 731.333 L691.221 755.333 L687.846 755.333 Z" fill="#000000" fill-opacity="1.000000"/>
  <path d="M730.596 753.333 Q728.799 754.427 727.127 754.88 Q725.455 755.333 723.549 755.333 Q720.377 755.333 718.682 753.74 Q716.986 752.146 716.986 749.677 Q716.986 748.224 717.627 747.021 Q718.268 745.818 719.307 745.091 Q720.346 744.365 721.643 743.99 Q722.596 743.724 724.533 743.49 Q728.471 743.005 730.33 742.333 Q730.346 741.771 730.346 741.615 Q730.346 739.943 729.424 739.255 Q728.174 738.333 725.721 738.333 Q723.424 738.333 722.338 738.997 Q721.252 739.661 720.721 741.333 L717.533 741.333 Q717.971 739.255 718.963 737.982 Q719.955 736.708 721.83 736.021 Q723.705 735.333 726.189 735.333 Q728.643 735.333 730.182 735.927 Q731.721 736.521 732.439 737.419 Q733.158 738.318 733.455 739.693 Q733.611 740.552 733.611 742.599 L733.611 746.677 Q733.611 750.958 733.822 752.458 Q734.033 753.958 734.643 755.333 L731.252 755.333 Q730.736 754.474 730.596 753.333 ZM730.33 745.333 Q728.564 746.005 725.018 746.474 Q723.018 746.74 722.189 747.083 Q721.361 747.427 720.908 748.068 Q720.455 748.708 720.455 749.505 Q720.455 750.724 721.439 751.529 Q722.424 752.333 724.314 752.333 Q726.205 752.333 727.666 751.521 Q729.127 750.708 729.814 749.396 Q730.33 748.396 730.33 746.427 L730.33 745.333 Z" fill="#000000" fill-opacity="1.000000"/>
  <path d="M738.33 761.958 L737.971 759.052 Q739.033 759.333 739.83 759.333 Q740.908 759.333 741.557 758.966 Q742.205 758.599 742.627 757.943 Q742.939 757.458 743.627 755.505 Q743.705 755.24 743.908 754.708 L736.627 735.333 L740.127 735.333 L744.127 746.396 Q744.908 748.505 745.518 750.818 Q746.08 749.427 746.861 747.286 L750.955 735.333 L754.205 735.333 L746.908 755.708 Q745.736 758.521 745.08 759.568 Q744.221 761.005 743.096 761.669 Q741.971 762.333 740.424 762.333 Q739.486 762.333 738.33 761.958 Z" fill="#000000" fill-opacity="1.000000"/>
  <path d="M803.716 747.74 L806.888 747.333 Q807.013 750.208 808.028 751.271 Q809.044 752.333 810.825 752.333 Q812.138 752.333 813.099 751.724 Q814.06 751.115 814.419 750.068 Q814.778 749.021 814.778 746.724 L814.778 728.333 L818.278 728.333 L818.278 746.427 Q818.278 749.755 817.474 751.583 Q816.669 753.411 814.927 754.372 Q813.185 755.333 810.841 755.333 Q807.341 755.333 805.497 753.427 Q803.653 751.521 803.716 747.74 Z" fill="#000000" fill-opacity="1.000000"/>
  <path d="M836.013 755.333 L836.013 751.88 Q833.778 755.333 829.919 755.333 Q828.216 755.333 826.747 754.669 Q825.278 754.005 824.56 753.005 Q823.841 752.005 823.56 750.552 Q823.357 749.568 823.357 747.458 L823.357 735.333 L826.622 735.333 L826.622 746.083 Q826.622 748.661 826.825 749.552 Q827.122 750.849 828.122 751.591 Q829.122 752.333 830.575 752.333 Q832.044 752.333 833.325 751.576 Q834.607 750.818 835.138 749.513 Q835.669 748.208 835.669 745.724 L835.669 735.333 L838.919 735.333 L838.919 755.333 L836.013 755.333 Z" fill="#000000" fill-opacity="1.000000"/>
  <path d="M843.825 755.333 L843.825 735.333 L846.747 735.333 L846.747 738.068 Q848.857 735.333 852.857 735.333 Q854.591 735.333 856.044 735.966 Q857.497 736.599 858.224 737.63 Q858.95 738.661 859.232 740.083 Q859.419 741.005 859.419 743.302 L859.419 755.333 L856.169 755.333 L856.169 743.521 Q856.169 741.521 855.786 740.521 Q855.403 739.521 854.442 738.927 Q853.482 738.333 852.169 738.333 Q850.091 738.333 848.583 739.669 Q847.075 741.005 847.075 744.74 L847.075 755.333 L843.825 755.333 Z" fill="#000000" fill-opacity="1.000000"/>
  <path d="M922.321 747.74 L925.492 747.333 Q925.617 750.208 926.633 751.271 Q927.649 752.333 929.43 752.333 Q930.742 752.333 931.703 751.724 Q932.664 751.115 933.024 750.068 Q933.383 749.021 933.383 746.724 L933.383 728.333 L936.883 728.333 L936.883 746.427 Q936.883 749.755 936.078 751.583 Q935.274 753.411 933.531 754.372 Q931.789 755.333 929.446 755.333 Q925.946 755.333 924.102 753.427 Q922.258 751.521 922.321 747.74 Z" fill="#000000" fill-opacity="1.000000"/>
  <path d="M954.617 755.333 L954.617 751.88 Q952.383 755.333 948.524 755.333 Q946.821 755.333 945.352 754.669 Q943.883 754.005 943.164 753.005 Q942.446 752.005 942.164 750.552 Q941.961 749.568 941.961 747.458 L941.961 735.333 L945.227 735.333 L945.227 746.083 Q945.227 748.661 945.43 749.552 Q945.727 750.849 946.727 751.591 Q947.727 752.333 949.18 752.333 Q950.649 752.333 951.93 751.576 Q953.211 750.818 953.742 749.513 Q954.274 748.208 954.274 745.724 L954.274 735.333 L957.524 735.333 L957.524 755.333 L954.617 755.333 Z" fill="#000000" fill-opacity="1.000000"/>
  <path d="M962.352 755.333 L962.352 728.333 L965.617 728.333 L965.617 755.333 L962.352 755.333 Z" fill="#000000" fill-opacity="1.000000"/>
  <path d="M1024.51 755.333 L1034.68 728.333 L1038.45 728.333 L1049.29 755.333 L1045.29 755.333 L1042.21 747.333 L1031.14 747.333 L1028.23 755.333 L1024.51 755.333 ZM1032.15 744.333 L1041.12 744.333 L1038.35 737.036 Q1037.09 733.693 1036.48 731.333 Q1035.98 734.036 1035.06 736.568 L1032.15 744.333 Z" fill="#000000" fill-opacity="1.000000"/>
  <path d="M1064.03 755.333 L1064.03 751.88 Q1061.79 755.333 1057.93 755.333 Q1056.23 755.333 1054.76 754.669 Q1053.29 754.005 1052.57 753.005 Q1051.85 752.005 1051.57 750.552 Q1051.37 749.568 1051.37 747.458 L1051.37 735.333 L1054.64 735.333 L1054.64 746.083 Q1054.64 748.661 1054.84 749.552 Q1055.14 750.849 1056.14 751.591 Q1057.14 752.333 1058.59 752.333 Q1060.06 752.333 1061.34 751.576 Q1062.62 750.818 1063.15 749.513 Q1063.68 748.208 1063.68 745.724 L1063.68 735.333 L1066.93 735.333 L1066.93 755.333 L1064.03 755.333 Z" fill="#000000" fill-opacity="1.000000"/>
  <path d="M1071.25 756.333 L1074.4 756.333 Q1074.6 757.786 1075.51 758.443 Q1076.71 759.333 1078.81 759.333 Q1081.07 759.333 1082.3 758.622 Q1083.53 757.911 1083.96 756.63 Q1084.21 755.849 1084.2 753.333 Q1082.07 755.333 1078.89 755.333 Q1074.93 755.333 1072.76 752.427 Q1070.59 749.521 1070.59 745.443 Q1070.59 742.646 1071.58 740.279 Q1072.57 737.911 1074.46 736.622 Q1076.35 735.333 1078.9 735.333 Q1082.31 735.333 1084.51 738.333 L1084.51 735.333 L1087.51 735.333 L1087.51 751.927 Q1087.51 756.427 1086.6 758.294 Q1085.68 760.161 1083.71 761.247 Q1081.73 762.333 1078.84 762.333 Q1075.4 762.333 1073.28 760.841 Q1071.17 759.349 1071.25 756.333 ZM1073.93 745.208 Q1073.93 748.927 1075.43 750.63 Q1076.93 752.333 1079.18 752.333 Q1081.43 752.333 1082.95 750.638 Q1084.46 748.943 1084.46 745.318 Q1084.46 741.849 1082.9 740.091 Q1081.34 738.333 1079.14 738.333 Q1076.96 738.333 1075.45 740.068 Q1073.93 741.802 1073.93 745.208 Z" fill="#000000" fill-opacity="1.000000"/>
  <path d="M1138.69 746.333 L1142.01 746.333 Q1142.24 748.286 1143.1 749.536 Q1143.96 750.786 1145.76 751.56 Q1147.57 752.333 1149.83 752.333 Q1151.83 752.333 1153.37 751.747 Q1154.91 751.161 1155.66 750.138 Q1156.41 749.115 1156.41 747.896 Q1156.41 746.646 1155.69 745.716 Q1154.96 744.786 1153.29 744.161 Q1152.23 743.74 1148.58 742.872 Q1144.93 742.005 1143.46 741.24 Q1141.57 740.255 1140.64 738.802 Q1139.71 737.349 1139.71 735.536 Q1139.71 733.568 1140.85 731.841 Q1141.99 730.115 1144.18 729.224 Q1146.37 728.333 1149.04 728.333 Q1151.98 728.333 1154.23 729.294 Q1156.48 730.255 1157.69 732.115 Q1158.9 733.974 1158.99 736.333 L1155.63 736.333 Q1155.37 733.865 1153.8 732.599 Q1152.23 731.333 1149.18 731.333 Q1145.99 731.333 1144.54 732.49 Q1143.08 733.646 1143.08 735.271 Q1143.08 736.693 1144.12 737.599 Q1145.13 738.521 1149.4 739.482 Q1153.68 740.443 1155.27 741.161 Q1157.58 742.208 1158.69 743.818 Q1159.79 745.427 1159.79 747.521 Q1159.79 749.599 1158.58 751.443 Q1157.37 753.286 1155.1 754.31 Q1152.83 755.333 1149.99 755.333 Q1146.4 755.333 1143.97 754.279 Q1141.54 753.224 1140.15 751.115 Q1138.77 749.005 1138.69 746.333 Z" fill="#000000" fill-opacity="1.000000"/>
  <path d="M1177.07 749.333 L1180.43 749.333 Q1179.63 752.177 1177.48 753.755 Q1175.33 755.333 1171.99 755.333 Q1167.79 755.333 1165.32 752.747 Q1162.85 750.161 1162.85 745.49 Q1162.85 740.661 1165.34 737.997 Q1167.83 735.333 1171.82 735.333 Q1175.66 735.333 1178.1 737.99 Q1180.54 740.646 1180.54 745.458 Q1180.54 745.755 1180.52 746.333 L1166.21 746.333 Q1166.4 749.24 1168 750.786 Q1169.6 752.333 1172.01 752.333 Q1173.8 752.333 1175.07 751.615 Q1176.33 750.896 1177.07 749.333 ZM1166.38 743.333 L1177.1 743.333 Q1176.88 741.13 1175.87 740.036 Q1174.32 738.333 1171.83 738.333 Q1169.6 738.333 1168.07 739.693 Q1166.54 741.052 1166.38 743.333 Z" fill="#000000" fill-opacity="1.000000"/>
  <path d="M1184.32 762.333 L1184.32 735.333 L1187.29 735.333 L1187.29 738.693 Q1188.33 737.005 1189.65 736.169 Q1190.98 735.333 1192.85 735.333 Q1195.3 735.333 1197.18 736.591 Q1199.05 737.849 1200.01 740.146 Q1200.98 742.443 1200.98 745.193 Q1200.98 748.13 1199.92 750.482 Q1198.87 752.833 1196.85 754.083 Q1194.83 755.333 1192.62 755.333 Q1190.99 755.333 1189.69 754.56 Q1188.4 753.786 1187.57 752.615 L1187.57 762.333 L1184.32 762.333 ZM1187.27 745.49 Q1187.27 748.99 1188.77 750.661 Q1190.27 752.333 1192.4 752.333 Q1194.57 752.333 1196.11 750.599 Q1197.65 748.865 1197.65 745.24 Q1197.65 741.771 1196.14 740.052 Q1194.63 738.333 1192.54 738.333 Q1190.46 738.333 1188.87 740.169 Q1187.27 742.005 1187.27 745.49 Z" fill="#000000" fill-opacity="1.000000"/>
  <path d="M1255.38 742.177 Q1255.38 735.677 1258.93 732.005 Q1262.48 728.333 1268.07 728.333 Q1271.74 728.333 1274.69 730.06 Q1277.63 731.786 1279.18 734.872 Q1280.73 737.958 1280.73 741.88 Q1280.73 745.849 1279.1 748.982 Q1277.48 752.115 1274.49 753.724 Q1271.51 755.333 1268.06 755.333 Q1264.32 755.333 1261.37 753.552 Q1258.42 751.771 1256.9 748.693 Q1255.38 745.615 1255.38 742.177 ZM1259.01 742.224 Q1259.01 746.927 1261.58 749.63 Q1264.15 752.333 1268.04 752.333 Q1271.99 752.333 1274.55 749.599 Q1277.1 746.865 1277.1 741.849 Q1277.1 738.677 1276.01 736.31 Q1274.92 733.943 1272.81 732.638 Q1270.71 731.333 1268.09 731.333 Q1264.37 731.333 1261.69 733.841 Q1259.01 736.349 1259.01 742.224 Z" fill="#000000" fill-opacity="1.000000"/>
  <path d="M1297.09 748.333 L1300.29 748.333 Q1299.76 751.615 1297.6 753.474 Q1295.45 755.333 1292.31 755.333 Q1288.37 755.333 1285.98 752.763 Q1283.59 750.193 1283.59 745.411 Q1283.59 742.302 1284.62 739.982 Q1285.65 737.661 1287.75 736.497 Q1289.85 735.333 1292.32 735.333 Q1295.45 735.333 1297.43 737.154 Q1299.42 738.974 1299.98 742.333 L1296.82 742.333 Q1296.37 740.349 1295.22 739.341 Q1294.07 738.333 1292.45 738.333 Q1289.99 738.333 1288.45 740.013 Q1286.92 741.693 1286.92 745.318 Q1286.92 748.99 1288.4 750.661 Q1289.88 752.333 1292.26 752.333 Q1294.18 752.333 1295.46 751.349 Q1296.74 750.365 1297.09 748.333 Z" fill="#000000" fill-opacity="1.000000"/>
  <path d="M1310.02 752.177 L1310.49 755.052 Q1309.12 755.333 1308.04 755.333 Q1306.26 755.333 1305.28 754.771 Q1304.31 754.208 1303.91 753.294 Q1303.51 752.38 1303.51 749.427 L1303.51 738.333 L1301.13 738.333 L1301.13 735.333 L1303.51 735.333 L1303.51 730.583 L1306.74 728.63 L1306.74 735.333 L1310.02 735.333 L1310.02 738.333 L1306.74 738.333 L1306.74 749.646 Q1306.74 751.052 1306.92 751.458 Q1307.09 751.865 1307.48 752.099 Q1307.87 752.333 1308.59 752.333 Q1309.13 752.333 1310.02 752.177 Z" fill="#000000" fill-opacity="1.000000"/>
  <path d="M1364.82 755.333 L1364.82 728.333 L1368.41 728.333 L1382.33 750.474 L1382.33 728.333 L1385.69 728.333 L1385.69 755.333 L1382.1 755.333 L1368.18 733.208 L1368.18 755.333 L1364.82 755.333 Z" fill="#000000" fill-opacity="1.000000"/>
  <path d="M1389.72 745.333 Q1389.72 740.021 1392.69 737.458 Q1395.16 735.333 1398.72 735.333 Q1402.68 735.333 1405.18 737.919 Q1407.69 740.505 1407.69 745.068 Q1407.69 748.755 1406.58 750.872 Q1405.47 752.99 1403.35 754.161 Q1401.22 755.333 1398.72 755.333 Q1394.69 755.333 1392.21 752.755 Q1389.72 750.177 1389.72 745.333 ZM1393.07 745.318 Q1393.07 748.833 1394.68 750.583 Q1396.29 752.333 1398.72 752.333 Q1401.13 752.333 1402.74 750.576 Q1404.35 748.818 1404.35 745.224 Q1404.35 741.833 1402.73 740.083 Q1401.11 738.333 1398.72 738.333 Q1396.29 738.333 1394.68 740.076 Q1393.07 741.818 1393.07 745.318 Z" fill="#000000" fill-opacity="1.000000"/>
  <path d="M1416.65 755.333 L1409.35 735.333 L1412.79 735.333 L1416.9 747.302 Q1417.57 749.24 1418.13 751.333 Q1418.57 749.755 1419.33 747.536 L1423.6 735.333 L1426.94 735.333 L1419.68 755.333 L1416.65 755.333 Z" fill="#000000" fill-opacity="1.000000"/>
  <path d="M1477.34 755.333 L1477.34 728.333 L1486.47 728.333 Q1489.55 728.333 1491.17 728.724 Q1493.45 729.255 1495.06 730.661 Q1497.16 732.458 1498.2 735.271 Q1499.23 738.083 1499.23 741.693 Q1499.23 744.755 1498.53 747.138 Q1497.83 749.521 1496.73 751.076 Q1495.62 752.63 1494.31 753.521 Q1493 754.411 1491.15 754.872 Q1489.3 755.333 1486.89 755.333 L1477.34 755.333 ZM1480.84 752.333 L1486.5 752.333 Q1489.12 752.333 1490.61 751.826 Q1492.09 751.318 1492.98 750.396 Q1494.23 749.115 1494.93 746.927 Q1495.62 744.74 1495.62 741.63 Q1495.62 737.318 1494.26 734.997 Q1492.89 732.677 1490.94 731.896 Q1489.53 731.333 1486.41 731.333 L1480.84 731.333 L1480.84 752.333 Z" fill="#000000" fill-opacity="1.000000"/>
  <path d="M1516.55 749.333 L1519.91 749.333 Q1519.11 752.177 1516.96 753.755 Q1514.81 755.333 1511.47 755.333 Q1507.27 755.333 1504.8 752.747 Q1502.33 750.161 1502.33 745.49 Q1502.33 740.661 1504.82 737.997 Q1507.31 735.333 1511.3 735.333 Q1515.14 735.333 1517.58 737.99 Q1520.02 740.646 1520.02 745.458 Q1520.02 745.755 1520 746.333 L1505.69 746.333 Q1505.87 749.24 1507.48 750.786 Q1509.08 752.333 1511.48 752.333 Q1513.28 752.333 1514.55 751.615 Q1515.81 750.896 1516.55 749.333 ZM1505.86 743.333 L1516.58 743.333 Q1516.36 741.13 1515.34 740.036 Q1513.8 738.333 1511.31 738.333 Q1509.08 738.333 1507.55 739.693 Q1506.02 741.052 1505.86 743.333 Z" fill="#000000" fill-opacity="1.000000"/>
  <path d="M1536.31 748.333 L1539.52 748.333 Q1538.98 751.615 1536.83 753.474 Q1534.67 755.333 1531.53 755.333 Q1527.59 755.333 1525.2 752.763 Q1522.81 750.193 1522.81 745.411 Q1522.81 742.302 1523.84 739.982 Q1524.87 737.661 1526.98 736.497 Q1529.08 735.333 1531.55 735.333 Q1534.67 735.333 1536.66 737.154 Q1538.64 738.974 1539.2 742.333 L1536.05 742.333 Q1535.59 740.349 1534.45 739.341 Q1533.3 738.333 1531.67 738.333 Q1529.22 738.333 1527.68 740.013 Q1526.14 741.693 1526.14 745.318 Q1526.14 748.99 1527.62 750.661 Q1529.11 752.333 1531.48 752.333 Q1533.41 752.333 1534.69 751.349 Q1535.97 750.365 1536.31 748.333 Z" fill="#000000" fill-opacity="1.000000"/>
  <path d="M213.578 692 L213.578 36.6667 " fill="none" stroke-width="3.333333" stroke="#000000ff"/>
  <path d="M213.578 626.467 L226.911 626.467 " fill="none" stroke-width="3.333333" stroke="#000000ff"/>
  <path d="M213.578 560.933 L226.911 560.933 " fill="none" stroke-width="3.333333" stroke="#000000ff"/>
  <path d="M213.578 495.4 L226.911 495.4 " fill="none" stroke-width="3.333333" stroke="#000000ff"/>
  <path d="M213.578 429.867 L226.911 429.867 " fill="none" stroke-width="3.333333" stroke="#000000ff"/>
  <path d="M213.578 364.333 L226.911 364.333 " fill="none" stroke-width="3.333333" stroke="#000000ff"/>
  <path d="M213.578 298.8 L226.911 298.8 " fill="none" stroke-width="3.333333" stroke="#000000ff"/>
  <path d="M213.578 233.267 L226.911 233.267 " fill="none" stroke-width="3.333333" stroke="#000000ff"/>
  <path d="M213.578 167.733 L226.911 167.733 " fill="none" stroke-width="3.333333" stroke="#000000ff"/>
  <path d="M213.578 102.2 L226.911 102.2 " fill="none" stroke-width="3.333333" stroke="#000000ff"/>
  <path d="M213.578 36.6667 L226.911 36.6667 " fill="none" stroke-width="3.333333" stroke="#000000ff"/>
  <path d="M101.839 631.467 L101.839 628.467 L111.839 628.467 L111.839 631.467 L101.839 631.467 Z" fill="#000000" fill-opacity="1.000000"/>
  <path d="M126.667 639.467 L123.417 639.467 L123.417 618.435 Q122.245 619.576 120.339 620.709 Q118.432 621.842 116.917 622.404 L116.917 619.217 Q119.651 617.92 121.69 616.068 Q123.729 614.217 124.573 612.467 L126.667 612.467 L126.667 639.467 Z" fill="#000000" fill-opacity="1.000000"/>
  <path d="M134.807 625.982 Q134.807 621.279 135.776 618.428 Q136.745 615.576 138.651 614.021 Q140.557 612.467 143.448 612.467 Q145.589 612.467 147.19 613.326 Q148.792 614.185 149.846 615.795 Q150.901 617.404 151.495 619.724 Q152.089 622.045 152.089 625.982 Q152.089 630.623 151.128 633.482 Q150.167 636.342 148.26 637.904 Q146.354 639.467 143.448 639.467 Q139.62 639.467 137.432 636.732 Q134.807 633.42 134.807 625.982 ZM138.151 625.967 Q138.151 632.279 139.682 634.373 Q141.214 636.467 143.448 636.467 Q145.682 636.467 147.214 634.365 Q148.745 632.264 148.745 625.967 Q148.745 619.639 147.214 617.553 Q145.682 615.467 143.417 615.467 Q141.167 615.467 139.839 617.31 Q138.151 619.654 138.151 625.967 Z" fill="#000000" fill-opacity="1.000000"/>
  <path d="M157.026 639.467 L157.026 636.467 L160.729 636.467 L160.729 639.467 L157.026 639.467 Z" fill="#000000" fill-opacity="1.000000"/>
  <path d="M165.385 625.982 Q165.385 621.279 166.354 618.428 Q167.323 615.576 169.229 614.021 Q171.135 612.467 174.026 612.467 Q176.167 612.467 177.768 613.326 Q179.37 614.185 180.424 615.795 Q181.479 617.404 182.073 619.724 Q182.667 622.045 182.667 625.982 Q182.667 630.623 181.706 633.482 Q180.745 636.342 178.839 637.904 Q176.932 639.467 174.026 639.467 Q170.198 639.467 168.01 636.732 Q165.385 633.42 165.385 625.982 ZM168.729 625.967 Q168.729 632.279 170.26 634.373 Q171.792 636.467 174.026 636.467 Q176.26 636.467 177.792 634.365 Q179.323 632.264 179.323 625.967 Q179.323 619.639 177.792 617.553 Q176.26 615.467 173.995 615.467 Q171.745 615.467 170.417 617.31 Q168.729 619.654 168.729 625.967 Z" fill="#000000" fill-opacity="1.000000"/>
  <path d="M122.229 565.933 L122.229 562.933 L132.229 562.933 L132.229 565.933 L122.229 565.933 Z" fill="#000000" fill-opacity="1.000000"/>
  <path d="M134.807 566.933 L138.229 566.933 Q138.604 568.933 139.987 569.933 Q141.37 570.933 143.323 570.933 Q145.667 570.933 147.292 569.23 Q148.917 567.527 148.917 564.715 Q148.917 562.027 147.354 560.48 Q145.792 558.933 143.26 558.933 Q141.698 558.933 140.432 559.488 Q139.167 560.043 138.448 560.933 L135.385 560.933 L137.948 546.933 L151.12 546.933 L151.12 549.933 L140.557 549.933 L139.135 557.668 Q141.526 555.933 144.135 555.933 Q147.604 555.933 149.987 558.332 Q152.37 560.73 152.37 564.511 Q152.37 568.105 150.276 570.715 Q147.729 573.933 143.323 573.933 Q139.698 573.933 137.417 572.019 Q135.135 570.105 134.807 566.933 Z" fill="#000000" fill-opacity="1.000000"/>
  <path d="M157.026 573.933 L157.026 570.933 L160.729 570.933 L160.729 573.933 L157.026 573.933 Z" fill="#000000" fill-opacity="1.000000"/>
  <path d="M165.385 560.449 Q165.385 555.746 166.354 552.894 Q167.323 550.043 169.229 548.488 Q171.135 546.933 174.026 546.933 Q176.167 546.933 177.768 547.793 Q179.37 548.652 180.424 550.261 Q181.479 551.871 182.073 554.191 Q182.667 556.511 182.667 560.449 Q182.667 565.09 181.706 567.949 Q180.745 570.808 178.839 572.371 Q176.932 573.933 174.026 573.933 Q170.198 573.933 168.01 571.199 Q165.385 567.886 165.385 560.449 ZM168.729 560.433 Q168.729 566.746 170.26 568.84 Q171.792 570.933 174.026 570.933 Q176.26 570.933 177.792 568.832 Q179.323 566.73 179.323 560.433 Q179.323 554.105 177.792 552.019 Q176.26 549.933 173.995 549.933 Q171.745 549.933 170.417 551.777 Q168.729 554.121 168.729 560.433 Z" fill="#000000" fill-opacity="1.000000"/>
  <path d="M134.807 494.916 Q134.807 490.213 135.776 487.361 Q136.745 484.509 138.651 482.955 Q140.557 481.4 143.448 481.4 Q145.589 481.4 147.19 482.259 Q148.792 483.119 149.846 484.728 Q150.901 486.338 151.495 488.658 Q152.089 490.978 152.089 494.916 Q152.089 499.556 151.128 502.416 Q150.167 505.275 148.26 506.838 Q146.354 508.4 143.448 508.4 Q139.62 508.4 137.432 505.666 Q134.807 502.353 134.807 494.916 ZM138.151 494.9 Q138.151 501.213 139.682 503.306 Q141.214 505.4 143.448 505.4 Q145.682 505.4 147.214 503.298 Q148.745 501.197 148.745 494.9 Q148.745 488.572 147.214 486.486 Q145.682 484.4 143.417 484.4 Q141.167 484.4 139.839 486.244 Q138.151 488.588 138.151 494.9 Z" fill="#000000" fill-opacity="1.000000"/>
  <path d="M157.026 508.4 L157.026 505.4 L160.729 505.4 L160.729 508.4 L157.026 508.4 Z" fill="#000000" fill-opacity="1.000000"/>
  <path d="M165.385 494.916 Q165.385 490.213 166.354 487.361 Q167.323 484.509 169.229 482.955 Q171.135 481.4 174.026 481.4 Q176.167 481.4 177.768 482.259 Q179.37 483.119 180.424 484.728 Q181.479 486.338 182.073 488.658 Q182.667 490.978 182.667 494.916 Q182.667 499.556 181.706 502.416 Q180.745 505.275 178.839 506.838 Q176.932 508.4 174.026 508.4 Q170.198 508.4 168.01 505.666 Q165.385 502.353 165.385 494.916 ZM168.729 494.9 Q168.729 501.213 170.26 503.306 Q171.792 505.4 174.026 505.4 Q176.26 505.4 177.792 503.298 Q179.323 501.197 179.323 494.9 Q179.323 488.572 177.792 486.486 Q176.26 484.4 173.995 484.4 Q171.745 484.4 170.417 486.244 Q168.729 488.588 168.729 494.9 Z" fill="#000000" fill-opacity="1.000000"/>
  <path d="M134.807 435.867 L138.229 435.867 Q138.604 437.867 139.987 438.867 Q141.37 439.867 143.323 439.867 Q145.667 439.867 147.292 438.164 Q148.917 436.46 148.917 433.648 Q148.917 430.96 147.354 429.414 Q145.792 427.867 143.26 427.867 Q141.698 427.867 140.432 428.421 Q139.167 428.976 138.448 429.867 L135.385 429.867 L137.948 415.867 L151.12 415.867 L151.12 418.867 L140.557 418.867 L139.135 426.601 Q141.526 424.867 144.135 424.867 Q147.604 424.867 149.987 427.265 Q152.37 429.664 152.37 433.445 Q152.37 437.039 150.276 439.648 Q147.729 442.867 143.323 442.867 Q139.698 442.867 137.417 440.953 Q135.135 439.039 134.807 435.867 Z" fill="#000000" fill-opacity="1.000000"/>
  <path d="M157.026 442.867 L157.026 439.867 L160.729 439.867 L160.729 442.867 L157.026 442.867 Z" fill="#000000" fill-opacity="1.000000"/>
  <path d="M165.385 429.382 Q165.385 424.679 166.354 421.828 Q167.323 418.976 169.229 417.421 Q171.135 415.867 174.026 415.867 Q176.167 415.867 177.768 416.726 Q179.37 417.585 180.424 419.195 Q181.479 420.804 182.073 423.124 Q182.667 425.445 182.667 429.382 Q182.667 434.023 181.706 436.882 Q180.745 439.742 178.839 441.304 Q176.932 442.867 174.026 442.867 Q170.198 442.867 168.01 440.132 Q165.385 436.82 165.385 429.382 ZM168.729 429.367 Q168.729 435.679 170.26 437.773 Q171.792 439.867 174.026 439.867 Q176.26 439.867 177.792 437.765 Q179.323 435.664 179.323 429.367 Q179.323 423.039 177.792 420.953 Q176.26 418.867 173.995 418.867 Q171.745 418.867 170.417 420.71 Q168.729 423.054 168.729 429.367 Z" fill="#000000" fill-opacity="1.000000"/>
  <path d="M126.667 377.333 L123.417 377.333 L123.417 356.302 Q122.245 357.443 120.339 358.576 Q118.432 359.708 116.917 360.271 L116.917 357.083 Q119.651 355.786 121.69 353.935 Q123.729 352.083 124.573 350.333 L126.667 350.333 L126.667 377.333 Z" fill="#000000" fill-opacity="1.000000"/>
  <path d="M134.807 363.849 Q134.807 359.146 135.776 356.294 Q136.745 353.443 138.651 351.888 Q140.557 350.333 143.448 350.333 Q145.589 350.333 147.19 351.193 Q148.792 352.052 149.846 353.661 Q150.901 355.271 151.495 357.591 Q152.089 359.911 152.089 363.849 Q152.089 368.49 151.128 371.349 Q150.167 374.208 148.26 375.771 Q146.354 377.333 143.448 377.333 Q139.62 377.333 137.432 374.599 Q134.807 371.286 134.807 363.849 ZM138.151 363.833 Q138.151 370.146 139.682 372.24 Q141.214 374.333 143.448 374.333 Q145.682 374.333 147.214 372.232 Q148.745 370.13 148.745 363.833 Q148.745 357.505 147.214 355.419 Q145.682 353.333 143.417 353.333 Q141.167 353.333 139.839 355.177 Q138.151 357.521 138.151 363.833 Z" fill="#000000" fill-opacity="1.000000"/>
  <path d="M157.026 377.333 L157.026 374.333 L160.729 374.333 L160.729 377.333 L157.026 377.333 Z" fill="#000000" fill-opacity="1.000000"/>
  <path d="M165.385 363.849 Q165.385 359.146 166.354 356.294 Q167.323 353.443 169.229 351.888 Q171.135 350.333 174.026 350.333 Q176.167 350.333 177.768 351.193 Q179.37 352.052 180.424 353.661 Q181.479 355.271 182.073 357.591 Q182.667 359.911 182.667 363.849 Q182.667 368.49 181.706 371.349 Q180.745 374.208 178.839 375.771 Q176.932 377.333 174.026 377.333 Q170.198 377.333 168.01 374.599 Q165.385 371.286 165.385 363.849 ZM168.729 363.833 Q168.729 370.146 170.26 372.24 Q171.792 374.333 174.026 374.333 Q176.26 374.333 177.792 372.232 Q179.323 370.13 179.323 363.833 Q179.323 357.505 177.792 355.419 Q176.26 353.333 173.995 353.333 Q171.745 353.333 170.417 355.177 Q168.729 357.521 168.729 363.833 Z" fill="#000000" fill-opacity="1.000000"/>
  <path d="M126.667 311.8 L123.417 311.8 L123.417 290.769 Q122.245 291.909 120.339 293.042 Q118.432 294.175 116.917 294.738 L116.917 291.55 Q119.651 290.253 121.69 288.402 Q123.729 286.55 124.573 284.8 L126.667 284.8 L126.667 311.8 Z" fill="#000000" fill-opacity="1.000000"/>
  <path d="M134.807 304.8 L138.229 304.8 Q138.604 306.8 139.987 307.8 Q141.37 308.8 143.323 308.8 Q145.667 308.8 147.292 307.097 Q148.917 305.394 148.917 302.581 Q148.917 299.894 147.354 298.347 Q145.792 296.8 143.26 296.8 Q141.698 296.8 140.432 297.355 Q139.167 297.909 138.448 298.8 L135.385 298.8 L137.948 284.8 L151.12 284.8 L151.12 287.8 L140.557 287.8 L139.135 295.534 Q141.526 293.8 144.135 293.8 Q147.604 293.8 149.987 296.198 Q152.37 298.597 152.37 302.378 Q152.37 305.972 150.276 308.581 Q147.729 311.8 143.323 311.8 Q139.698 311.8 137.417 309.886 Q135.135 307.972 134.807 304.8 Z" fill="#000000" fill-opacity="1.000000"/>
  <path d="M157.026 311.8 L157.026 308.8 L160.729 308.8 L160.729 311.8 L157.026 311.8 Z" fill="#000000" fill-opacity="1.000000"/>
  <path d="M165.385 298.316 Q165.385 293.613 166.354 290.761 Q167.323 287.909 169.229 286.355 Q171.135 284.8 174.026 284.8 Q176.167 284.8 177.768 285.659 Q179.37 286.519 180.424 288.128 Q181.479 289.738 182.073 292.058 Q182.667 294.378 182.667 298.316 Q182.667 302.956 181.706 305.816 Q180.745 308.675 178.839 310.238 Q176.932 311.8 174.026 311.8 Q170.198 311.8 168.01 309.066 Q165.385 305.753 165.385 298.316 ZM168.729 298.3 Q168.729 304.613 170.26 306.706 Q171.792 308.8 174.026 308.8 Q176.26 308.8 177.792 306.698 Q179.323 304.597 179.323 298.3 Q179.323 291.972 177.792 289.886 Q176.26 287.8 173.995 287.8 Q171.745 287.8 170.417 289.644 Q168.729 291.988 168.729 298.3 Z" fill="#000000" fill-opacity="1.000000"/>
  <path d="M131.51 243.267 L131.51 246.267 L114.01 246.267 Q113.964 245.142 114.385 244.095 Q115.057 242.376 116.526 240.712 Q117.995 239.048 120.776 236.673 Q125.104 232.985 126.62 230.884 Q128.135 228.782 128.135 226.923 Q128.135 224.954 126.753 223.61 Q125.37 222.267 123.151 222.267 Q120.807 222.267 119.393 223.329 Q117.979 224.392 117.964 226.267 L114.62 226.267 Q114.964 222.845 117.206 221.056 Q119.448 219.267 123.214 219.267 Q127.042 219.267 129.26 221.439 Q131.479 223.61 131.479 226.829 Q131.479 228.47 130.831 230.048 Q130.182 231.626 128.667 233.376 Q127.151 235.126 123.651 238.11 Q120.729 240.595 119.901 241.485 Q119.073 242.376 118.526 243.267 L131.51 243.267 Z" fill="#000000" fill-opacity="1.000000"/>
  <path d="M134.807 232.782 Q134.807 228.079 135.776 225.228 Q136.745 222.376 138.651 220.821 Q140.557 219.267 143.448 219.267 Q145.589 219.267 147.19 220.126 Q148.792 220.985 149.846 222.595 Q150.901 224.204 151.495 226.524 Q152.089 228.845 152.089 232.782 Q152.089 237.423 151.128 240.282 Q150.167 243.142 148.26 244.704 Q146.354 246.267 143.448 246.267 Q139.62 246.267 137.432 243.532 Q134.807 240.22 134.807 232.782 ZM138.151 232.767 Q138.151 239.079 139.682 241.173 Q141.214 243.267 143.448 243.267 Q145.682 243.267 147.214 241.165 Q148.745 239.064 148.745 232.767 Q148.745 226.439 147.214 224.353 Q145.682 222.267 143.417 222.267 Q141.167 222.267 139.839 224.11 Q138.151 226.454 138.151 232.767 Z" fill="#000000" fill-opacity="1.000000"/>
  <path d="M157.026 246.267 L157.026 243.267 L160.729 243.267 L160.729 246.267 L157.026 246.267 Z" fill="#000000" fill-opacity="1.000000"/>
  <path d="M165.385 232.782 Q165.385 228.079 166.354 225.228 Q167.323 222.376 169.229 220.821 Q171.135 219.267 174.026 219.267 Q176.167 219.267 177.768 220.126 Q179.37 220.985 180.424 222.595 Q181.479 224.204 182.073 226.524 Q182.667 228.845 182.667 232.782 Q182.667 237.423 181.706 240.282 Q180.745 243.142 178.839 244.704 Q176.932 246.267 174.026 246.267 Q170.198 246.267 168.01 243.532 Q165.385 240.22 165.385 232.782 ZM168.729 232.767 Q168.729 239.079 170.26 241.173 Q171.792 243.267 174.026 243.267 Q176.26 243.267 177.792 241.165 Q179.323 239.064 179.323 232.767 Q179.323 226.439 177.792 224.353 Q176.26 222.267 173.995 222.267 Q171.745 222.267 170.417 224.11 Q168.729 226.454 168.729 232.767 Z" fill="#000000" fill-opacity="1.000000"/>
  <path d="M131.51 177.733 L131.51 180.733 L114.01 180.733 Q113.964 179.608 114.385 178.561 Q115.057 176.843 116.526 175.179 Q117.995 173.515 120.776 171.14 Q125.104 167.452 126.62 165.351 Q128.135 163.249 128.135 161.39 Q128.135 159.421 126.753 158.077 Q125.37 156.733 123.151 156.733 Q120.807 156.733 119.393 157.796 Q117.979 158.858 117.964 160.733 L114.62 160.733 Q114.964 157.311 117.206 155.522 Q119.448 153.733 123.214 153.733 Q127.042 153.733 129.26 155.905 Q131.479 158.077 131.479 161.296 Q131.479 162.936 130.831 164.515 Q130.182 166.093 128.667 167.843 Q127.151 169.593 123.651 172.577 Q120.729 175.061 119.901 175.952 Q119.073 176.843 118.526 177.733 L131.51 177.733 Z" fill="#000000" fill-opacity="1.000000"/>
  <path d="M134.807 173.733 L138.229 173.733 Q138.604 175.733 139.987 176.733 Q141.37 177.733 143.323 177.733 Q145.667 177.733 147.292 176.03 Q148.917 174.327 148.917 171.515 Q148.917 168.827 147.354 167.28 Q145.792 165.733 143.26 165.733 Q141.698 165.733 140.432 166.288 Q139.167 166.843 138.448 167.733 L135.385 167.733 L137.948 153.733 L151.12 153.733 L151.12 156.733 L140.557 156.733 L139.135 164.468 Q141.526 162.733 144.135 162.733 Q147.604 162.733 149.987 165.132 Q152.37 167.53 152.37 171.311 Q152.37 174.905 150.276 177.515 Q147.729 180.733 143.323 180.733 Q139.698 180.733 137.417 178.819 Q135.135 176.905 134.807 173.733 Z" fill="#000000" fill-opacity="1.000000"/>
  <path d="M157.026 180.733 L157.026 177.733 L160.729 177.733 L160.729 180.733 L157.026 180.733 Z" fill="#000000" fill-opacity="1.000000"/>
  <path d="M165.385 167.249 Q165.385 162.546 166.354 159.694 Q167.323 156.843 169.229 155.288 Q171.135 153.733 174.026 153.733 Q176.167 153.733 177.768 154.593 Q179.37 155.452 180.424 157.061 Q181.479 158.671 182.073 160.991 Q182.667 163.311 182.667 167.249 Q182.667 171.89 181.706 174.749 Q180.745 177.608 178.839 179.171 Q176.932 180.733 174.026 180.733 Q170.198 180.733 168.01 177.999 Q165.385 174.686 165.385 167.249 ZM168.729 167.233 Q168.729 173.546 170.26 175.64 Q171.792 177.733 174.026 177.733 Q176.26 177.733 177.792 175.632 Q179.323 173.53 179.323 167.233 Q179.323 160.905 177.792 158.819 Q176.26 156.733 173.995 156.733 Q171.745 156.733 170.417 158.577 Q168.729 160.921 168.729 167.233 Z" fill="#000000" fill-opacity="1.000000"/>
  <path d="M114.432 108.2 L117.698 108.2 Q118.26 110.325 119.604 111.263 Q120.948 112.2 122.885 112.2 Q125.182 112.2 126.76 110.661 Q128.339 109.122 128.339 106.841 Q128.339 104.669 126.878 103.247 Q125.417 101.825 123.151 101.825 Q122.229 101.825 120.854 102.2 L121.214 99.2 Q121.542 99.2313 121.745 99.2313 Q123.823 99.2313 125.479 98.2156 Q127.135 97.2 127.135 95.075 Q127.135 93.4031 125.924 92.3016 Q124.714 91.2 122.792 91.2 Q120.901 91.2 119.635 92.2 Q118.37 93.2 118.01 95.2 L114.76 95.2 Q115.354 91.8719 117.471 90.0359 Q119.589 88.2 122.729 88.2 Q124.901 88.2 126.721 89.1219 Q128.542 90.0438 129.51 91.6297 Q130.479 93.2156 130.479 94.9969 Q130.479 96.6844 129.557 98.075 Q128.635 99.4656 126.839 100.294 Q129.182 100.841 130.479 102.559 Q131.776 104.278 131.776 106.856 Q131.776 110.341 129.245 112.77 Q126.714 115.2 122.854 115.2 Q119.37 115.2 117.065 113.255 Q114.76 111.309 114.432 108.2 Z" fill="#000000" fill-opacity="1.000000"/>
  <path d="M134.807 101.716 Q134.807 97.0125 135.776 94.1609 Q136.745 91.3094 138.651 89.7547 Q140.557 88.2 143.448 88.2 Q145.589 88.2 147.19 89.0594 Q148.792 89.9188 149.846 91.5281 Q150.901 93.1375 151.495 95.4578 Q152.089 97.7781 152.089 101.716 Q152.089 106.356 151.128 109.216 Q150.167 112.075 148.26 113.638 Q146.354 115.2 143.448 115.2 Q139.62 115.2 137.432 112.466 Q134.807 109.153 134.807 101.716 ZM138.151 101.7 Q138.151 108.013 139.682 110.106 Q141.214 112.2 143.448 112.2 Q145.682 112.2 147.214 110.098 Q148.745 107.997 148.745 101.7 Q148.745 95.3719 147.214 93.2859 Q145.682 91.2 143.417 91.2 Q141.167 91.2 139.839 93.0438 Q138.151 95.3875 138.151 101.7 Z" fill="#000000" fill-opacity="1.000000"/>
  <path d="M157.026 115.2 L157.026 112.2 L160.729 112.2 L160.729 115.2 L157.026 115.2 Z" fill="#000000" fill-opacity="1.000000"/>
  <path d="M165.385 101.716 Q165.385 97.0125 166.354 94.1609 Q167.323 91.3094 169.229 89.7547 Q171.135 88.2 174.026 88.2 Q176.167 88.2 177.768 89.0594 Q179.37 89.9188 180.424 91.5281 Q181.479 93.1375 182.073 95.4578 Q182.667 97.7781 182.667 101.716 Q182.667 106.356 181.706 109.216 Q180.745 112.075 178.839 113.638 Q176.932 115.2 174.026 115.2 Q170.198 115.2 168.01 112.466 Q165.385 109.153 165.385 101.716 ZM168.729 101.7 Q168.729 108.013 170.26 110.106 Q171.792 112.2 174.026 112.2 Q176.26 112.2 177.792 110.098 Q179.323 107.997 179.323 101.7 Q179.323 95.3719 177.792 93.2859 Q176.26 91.2 173.995 91.2 Q171.745 91.2 170.417 93.0438 Q168.729 95.3875 168.729 101.7 Z" fill="#000000" fill-opacity="1.000000"/>
  <path d="M114.432 42.6667 L117.698 42.6667 Q118.26 44.7917 119.604 45.7292 Q120.948 46.6667 122.885 46.6667 Q125.182 46.6667 126.76 45.1276 Q128.339 43.5885 128.339 41.3073 Q128.339 39.1354 126.878 37.7135 Q125.417 36.2917 123.151 36.2917 Q122.229 36.2917 120.854 36.6667 L121.214 33.6667 Q121.542 33.6979 121.745 33.6979 Q123.823 33.6979 125.479 32.6823 Q127.135 31.6667 127.135 29.5417 Q127.135 27.8698 125.924 26.7682 Q124.714 25.6667 122.792 25.6667 Q120.901 25.6667 119.635 26.6667 Q118.37 27.6667 118.01 29.6667 L114.76 29.6667 Q115.354 26.3385 117.471 24.5026 Q119.589 22.6667 122.729 22.6667 Q124.901 22.6667 126.721 23.5885 Q128.542 24.5104 129.51 26.0964 Q130.479 27.6823 130.479 29.4635 Q130.479 31.151 129.557 32.5417 Q128.635 33.9323 126.839 34.7604 Q129.182 35.3073 130.479 37.026 Q131.776 38.7448 131.776 41.3229 Q131.776 44.8073 129.245 47.237 Q126.714 49.6667 122.854 49.6667 Q119.37 49.6667 117.065 47.7214 Q114.76 45.776 114.432 42.6667 Z" fill="#000000" fill-opacity="1.000000"/>
  <path d="M134.807 42.6667 L138.229 42.6667 Q138.604 44.6667 139.987 45.6667 Q141.37 46.6667 143.323 46.6667 Q145.667 46.6667 147.292 44.9635 Q148.917 43.2604 148.917 40.4479 Q148.917 37.7604 147.354 36.2135 Q145.792 34.6667 143.26 34.6667 Q141.698 34.6667 140.432 35.2214 Q139.167 35.776 138.448 36.6667 L135.385 36.6667 L137.948 22.6667 L151.12 22.6667 L151.12 25.6667 L140.557 25.6667 L139.135 33.401 Q141.526 31.6667 144.135 31.6667 Q147.604 31.6667 149.987 34.0651 Q152.37 36.4635 152.37 40.2448 Q152.37 43.8385 150.276 46.4479 Q147.729 49.6667 143.323 49.6667 Q139.698 49.6667 137.417 47.7526 Q135.135 45.8385 134.807 42.6667 Z" fill="#000000" fill-opacity="1.000000"/>
  <path d="M157.026 49.6667 L157.026 46.6667 L160.729 46.6667 L160.729 49.6667 L157.026 49.6667 Z" fill="#000000" fill-opacity="1.000000"/>
  <path d="M165.385 36.1823 Q165.385 31.4792 166.354 28.6276 Q167.323 25.776 169.229 24.2214 Q171.135 22.6667 174.026 22.6667 Q176.167 22.6667 177.768 23.526 Q179.37 24.3854 180.424 25.9948 Q181.479 27.6042 182.073 29.9245 Q182.667 32.2448 182.667 36.1823 Q182.667 40.8229 181.706 43.6823 Q180.745 46.5417 178.839 48.1042 Q176.932 49.6667 174.026 49.6667 Q170.198 49.6667 168.01 46.9323 Q165.385 43.6198 165.385 36.1823 ZM168.729 36.1667 Q168.729 42.4792 170.26 44.5729 Q171.792 46.6667 174.026 46.6667 Q176.26 46.6667 177.792 44.5651 Q179.323 42.4635 179.323 36.1667 Q179.323 29.8385 177.792 27.7526 Q176.26 25.6667 173.995 25.6667 Q171.745 25.6667 170.417 27.5104 Q168.729 29.8542 168.729 36.1667 Z" fill="#000000" fill-opacity="1.000000"/>
  <path d="M70.6667 495.56 L46.6667 495.56 L46.6667 504.279 L43.6667 504.279 L43.6667 483.294 L46.6667 483.294 L46.6667 492.06 L70.6667 492.06 L70.6667 495.56 Z" fill="#000000" fill-opacity="1.000000"/>
  <path d="M64.6667 469.201 L64.6667 465.841 Q67.5104 466.638 69.0885 468.786 Q70.6667 470.935 70.6667 474.279 Q70.6667 478.482 68.0807 480.951 Q65.4948 483.419 60.8229 483.419 Q55.9948 483.419 53.3307 480.927 Q50.6667 478.435 50.6667 474.451 Q50.6667 470.607 53.3229 468.169 Q55.9792 465.732 60.7917 465.732 Q61.0885 465.732 61.6667 465.747 L61.6667 480.06 Q64.5729 479.872 66.1198 478.271 Q67.6667 476.669 67.6667 474.263 Q67.6667 472.466 66.9479 471.201 Q66.2292 469.935 64.6667 469.201 ZM58.6667 479.888 L58.6667 469.169 Q56.4635 469.388 55.3698 470.404 Q53.6667 471.951 53.6667 474.435 Q53.6667 476.669 55.026 478.201 Q56.3854 479.732 58.6667 479.888 Z" fill="#000000" fill-opacity="1.000000"/>
  <path d="M70.6667 463.982 L50.6667 463.982 L50.6667 461.076 L53.9792 461.076 Q52.4792 460.169 51.5729 458.669 Q50.6667 457.169 50.6667 455.263 Q50.6667 453.122 51.6042 451.763 Q52.5417 450.404 54.2135 449.841 Q50.6667 447.56 50.6667 443.904 Q50.6667 441.06 52.276 439.521 Q53.8854 437.982 57.2448 437.982 L70.6667 437.982 L70.6667 441.216 L58.4323 441.216 Q56.4635 441.216 55.5964 441.529 Q54.7292 441.841 54.1979 442.677 Q53.6667 443.513 53.6667 444.622 Q53.6667 446.654 55.026 447.99 Q56.3854 449.326 59.3854 449.326 L70.6667 449.326 L70.6667 452.576 L58.0573 452.576 Q55.8542 452.576 54.7604 453.372 Q53.6667 454.169 53.6667 455.982 Q53.6667 457.357 54.401 458.521 Q55.1354 459.685 56.5417 460.208 Q57.9479 460.732 60.6042 460.732 L70.6667 460.732 L70.6667 463.982 Z" fill="#000000" fill-opacity="1.000000"/>
  <path d="M77.6667 433.435 L50.6667 433.435 L50.6667 430.466 L54.026 430.466 Q52.3385 429.419 51.5026 428.099 Q50.6667 426.779 50.6667 424.904 Q50.6667 422.451 51.9245 420.576 Q53.1823 418.701 55.4792 417.74 Q57.776 416.779 60.526 416.779 Q63.4635 416.779 65.8151 417.833 Q68.1667 418.888 69.4167 420.904 Q70.6667 422.919 70.6667 425.138 Q70.6667 426.763 69.8932 428.06 Q69.1198 429.357 67.9479 430.185 L77.6667 430.185 L77.6667 433.435 ZM60.8229 430.482 Q64.3229 430.482 65.9948 428.982 Q67.6667 427.482 67.6667 425.357 Q67.6667 423.185 65.9323 421.646 Q64.1979 420.107 60.5729 420.107 Q57.1042 420.107 55.3854 421.615 Q53.6667 423.122 53.6667 425.216 Q53.6667 427.294 55.5026 428.888 Q57.3385 430.482 60.8229 430.482 Z" fill="#000000" fill-opacity="1.000000"/>
  <path d="M64.6667 399.904 L64.6667 396.544 Q67.5104 397.341 69.0885 399.49 Q70.6667 401.638 70.6667 404.982 Q70.6667 409.185 68.0807 411.654 Q65.4948 414.122 60.8229 414.122 Q55.9948 414.122 53.3307 411.63 Q50.6667 409.138 50.6667 405.154 Q50.6667 401.31 53.3229 398.872 Q55.9792 396.435 60.7917 396.435 Q61.0885 396.435 61.6667 396.451 L61.6667 410.763 Q64.5729 410.576 66.1198 408.974 Q67.6667 407.372 67.6667 404.966 Q67.6667 403.169 66.9479 401.904 Q66.2292 400.638 64.6667 399.904 ZM58.6667 410.591 L58.6667 399.872 Q56.4635 400.091 55.3698 401.107 Q53.6667 402.654 53.6667 405.138 Q53.6667 407.372 55.026 408.904 Q56.3854 410.435 58.6667 410.591 Z" fill="#000000" fill-opacity="1.000000"/>
  <path d="M70.6667 392.685 L50.6667 392.685 L50.6667 389.763 L53.651 389.763 Q51.8229 388.638 51.2448 387.693 Q50.6667 386.747 50.6667 385.607 Q50.6667 383.966 51.2917 382.263 L54.3073 383.388 Q53.6667 384.576 53.6667 385.763 Q53.6667 386.826 54.3385 387.677 Q55.0104 388.529 56.1979 388.888 Q58.0104 389.435 60.1667 389.435 L70.6667 389.435 L70.6667 392.685 Z" fill="#000000" fill-opacity="1.000000"/>
  <path d="M68.6667 367.919 Q69.7604 369.716 70.2135 371.388 Q70.6667 373.06 70.6667 374.966 Q70.6667 378.138 69.0729 379.833 Q67.4792 381.529 65.0104 381.529 Q63.5573 381.529 62.3542 380.888 Q61.151 380.247 60.4245 379.208 Q59.6979 378.169 59.3229 376.872 Q59.0573 375.919 58.8229 373.982 Q58.3385 370.044 57.6667 368.185 Q57.1042 368.169 56.9479 368.169 Q55.276 368.169 54.5885 369.091 Q53.6667 370.341 53.6667 372.794 Q53.6667 375.091 54.3307 376.177 Q54.9948 377.263 56.6667 377.794 L56.6667 380.982 Q54.5885 380.544 53.3151 379.552 Q52.0417 378.56 51.3542 376.685 Q50.6667 374.81 50.6667 372.326 Q50.6667 369.872 51.2604 368.333 Q51.8542 366.794 52.7526 366.076 Q53.651 365.357 55.026 365.06 Q55.8854 364.904 57.9323 364.904 L62.0104 364.904 Q66.2917 364.904 67.7917 364.693 Q69.2917 364.482 70.6667 363.872 L70.6667 367.263 Q69.8073 367.779 68.6667 367.919 ZM60.6667 368.185 Q61.3385 369.951 61.8073 373.497 Q62.0729 375.497 62.4167 376.326 Q62.7604 377.154 63.401 377.607 Q64.0417 378.06 64.8385 378.06 Q66.0573 378.06 66.862 377.076 Q67.6667 376.091 67.6667 374.201 Q67.6667 372.31 66.8542 370.849 Q66.0417 369.388 64.7292 368.701 Q63.7292 368.185 61.7604 368.185 L60.6667 368.185 Z" fill="#000000" fill-opacity="1.000000"/>
  <path d="M67.5104 352.935 L70.3854 352.466 Q70.6667 353.841 70.6667 354.919 Q70.6667 356.701 70.1042 357.677 Q69.5417 358.654 68.6276 359.052 Q67.7135 359.451 64.7604 359.451 L53.6667 359.451 L53.6667 361.826 L50.6667 361.826 L50.6667 359.451 L45.9167 359.451 L43.9635 356.216 L50.6667 356.216 L50.6667 352.935 L53.6667 352.935 L53.6667 356.216 L64.9792 356.216 Q66.3854 356.216 66.7917 356.044 Q67.1979 355.872 67.4323 355.482 Q67.6667 355.091 67.6667 354.372 Q67.6667 353.826 67.5104 352.935 Z" fill="#000000" fill-opacity="1.000000"/>
  <path d="M70.6667 337.279 L67.2135 337.279 Q70.6667 339.513 70.6667 343.372 Q70.6667 345.076 70.0026 346.544 Q69.3385 348.013 68.3385 348.732 Q67.3385 349.451 65.8854 349.732 Q64.901 349.935 62.7917 349.935 L50.6667 349.935 L50.6667 346.669 L61.4167 346.669 Q63.9948 346.669 64.8854 346.466 Q66.1823 346.169 66.9245 345.169 Q67.6667 344.169 67.6667 342.716 Q67.6667 341.247 66.9089 339.966 Q66.151 338.685 64.8464 338.154 Q63.5417 337.622 61.0573 337.622 L50.6667 337.622 L50.6667 334.372 L70.6667 334.372 L70.6667 337.279 Z" fill="#000000" fill-opacity="1.000000"/>
  <path d="M70.6667 329.497 L50.6667 329.497 L50.6667 326.576 L53.651 326.576 Q51.8229 325.451 51.2448 324.505 Q50.6667 323.56 50.6667 322.419 Q50.6667 320.779 51.2917 319.076 L54.3073 320.201 Q53.6667 321.388 53.6667 322.576 Q53.6667 323.638 54.3385 324.49 Q55.0104 325.341 56.1979 325.701 Q58.0104 326.247 60.1667 326.247 L70.6667 326.247 L70.6667 329.497 Z" fill="#000000" fill-opacity="1.000000"/>
  <path d="M64.6667 304.107 L64.6667 300.747 Q67.5104 301.544 69.0885 303.693 Q70.6667 305.841 70.6667 309.185 Q70.6667 313.388 68.0807 315.857 Q65.4948 318.326 60.8229 318.326 Q55.9948 318.326 53.3307 315.833 Q50.6667 313.341 50.6667 309.357 Q50.6667 305.513 53.3229 303.076 Q55.9792 300.638 60.7917 300.638 Q61.0885 300.638 61.6667 300.654 L61.6667 314.966 Q64.5729 314.779 66.1198 313.177 Q67.6667 311.576 67.6667 309.169 Q67.6667 307.372 66.9479 306.107 Q66.2292 304.841 64.6667 304.107 ZM58.6667 314.794 L58.6667 304.076 Q56.4635 304.294 55.3698 305.31 Q53.6667 306.857 53.6667 309.341 Q53.6667 311.576 55.026 313.107 Q56.3854 314.638 58.6667 314.794 Z" fill="#000000" fill-opacity="1.000000"/>
  <path d="" fill="#000000" fill-opacity="1.000000"/>
  <path d="M77.6667 280.451 Q74.3385 283.154 69.8854 285.013 Q65.4323 286.872 60.651 286.872 Q56.4323 286.872 52.5885 285.482 Q48.1042 283.857 43.6667 280.451 L43.6667 278.122 Q47.3385 280.31 48.9167 281.013 Q51.3542 282.122 54.0104 282.747 Q57.3229 283.529 60.6667 283.529 Q69.1823 283.529 77.6667 278.122 L77.6667 280.451 Z" fill="#000000" fill-opacity="1.000000"/>
  <path d="M48.651 274.576 Q46.5885 274.576 45.1276 273.099 Q43.6667 271.622 43.6667 269.576 Q43.6667 267.466 45.1276 266.005 Q46.5885 264.544 48.651 264.544 Q50.7292 264.544 52.1979 266.021 Q53.6667 267.497 53.6667 269.576 Q53.6667 271.622 52.2057 273.099 Q50.7448 274.576 48.651 274.576 ZM48.6667 272.607 Q49.9167 272.607 50.7917 271.708 Q51.6667 270.81 51.6667 269.544 Q51.6667 268.31 50.7917 267.411 Q49.9167 266.513 48.6667 266.513 Q47.4167 266.513 46.5417 267.411 Q45.6667 268.31 45.6667 269.544 Q45.6667 270.81 46.5417 271.708 Q47.4167 272.607 48.6667 272.607 Z" fill="#000000" fill-opacity="1.000000"/>
  <path d="M61.0573 240.466 L61.9167 236.966 Q66.1823 238.076 68.4245 240.935 Q70.6667 243.794 70.6667 247.935 Q70.6667 252.216 68.9479 254.896 Q67.2292 257.576 63.9714 258.974 Q60.7135 260.372 56.9635 260.372 Q52.8854 260.372 49.8542 258.794 Q46.8229 257.216 45.2448 254.294 Q43.6667 251.372 43.6667 247.872 Q43.6667 243.888 45.6667 241.177 Q47.6667 238.466 51.2917 237.404 L52.0885 240.857 Q49.2604 241.779 47.9635 243.529 Q46.6667 245.279 46.6667 247.935 Q46.6667 250.997 48.1042 253.052 Q49.5417 255.107 51.9635 255.935 Q54.3854 256.763 56.9479 256.763 Q60.276 256.763 62.7448 255.779 Q65.2135 254.794 66.4401 252.716 Q67.6667 250.638 67.6667 248.216 Q67.6667 245.279 66.0026 243.232 Q64.3385 241.185 61.0573 240.466 Z" fill="#000000" fill-opacity="1.000000"/>
  <path d="M77.6667 231.154 L77.6667 233.497 Q69.1823 228.091 60.6667 228.091 Q57.3385 228.091 54.0729 228.872 Q51.4167 229.482 48.9792 230.591 Q47.3854 231.294 43.6667 233.497 L43.6667 231.154 Q48.1042 227.763 52.5885 226.138 Q56.4323 224.747 60.651 224.747 Q65.4323 224.747 69.8854 226.615 Q74.3385 228.482 77.6667 231.154 Z" fill="#000000" fill-opacity="1.000000"/>
  <path d="M269.818 547.827 L382.298 513.749 L494.777 424.624 L607.257 318.46 L719.736 234.577 L832.216 190.015 L944.696 176.908 L1057.18 182.151 L1169.65 234.577 L1282.13 323.703 L1394.61 433.799 L1507.09 518.992 " fill="none" stroke-width="5.000000" stroke="#aa4643ff"/>
  <path d="M269.818 554.493 C266.136 554.493 263.151 551.509 263.151 547.827 C263.151 544.145 266.136 541.16 269.818 541.16 C273.5 541.16 276.485 544.145 276.485 547.827 C276.485 551.509 273.5 554.493 269.818 554.493 Z" fill="#aa4643" fill-opacity="1.000000"/>
  <path d="M382.298 520.416 C378.616 520.416 375.631 517.431 375.631 513.749 C375.631 510.067 378.616 507.083 382.298 507.083 C385.979 507.083 388.964 510.067 388.964 513.749 C388.964 517.431 385.979 520.416 382.298 520.416 Z" fill="#aa4643" fill-opacity="1.000000"/>
  <path d="M494.777 431.291 C491.095 431.291 488.11 428.306 488.11 424.624 C488.11 420.942 491.095 417.957 494.777 417.957 C498.459 417.957 501.444 420.942 501.444 424.624 C501.444 428.306 498.459 431.291 494.777 431.291 Z" fill="#aa4643" fill-opacity="1.000000"/>
  <path d="M607.257 325.127 C603.575 325.127 600.59 322.142 600.59 318.46 C600.59 314.778 603.575 311.793 607.257 311.793 C610.939 311.793 613.923 314.778 613.923 318.46 C613.923 322.142 610.939 325.127 607.257 325.127 Z" fill="#aa4643" fill-opacity="1.000000"/>
  <path d="M719.736 241.244 C716.054 241.244 713.07 238.259 713.07 234.577 C713.07 230.895 716.054 227.911 719.736 227.911 C723.418 227.911 726.403 230.895 726.403 234.577 C726.403 238.259 723.418 241.244 719.736 241.244 Z" fill="#aa4643" fill-opacity="1.000000"/>
  <path d="M832.216 196.681 C828.534 196.681 825.549 193.697 825.549 190.015 C825.549 186.333 828.534 183.348 832.216 183.348 C835.898 183.348 838.883 186.333 838.883 190.015 C838.883 193.697 835.898 196.681 832.216 196.681 Z" fill="#aa4643" fill-opacity="1.000000"/>
  <path d="M944.696 183.575 C941.014 183.575 938.029 180.59 938.029 176.908 C938.029 173.226 941.014 170.241 944.696 170.241 C948.377 170.241 951.362 173.226 951.362 176.908 C951.362 180.59 948.377 183.575 944.696 183.575 Z" fill="#aa4643" fill-opacity="1.000000"/>
  <path d="M1057.18 188.817 C1053.49 188.817 1050.51 185.833 1050.51 182.151 C1050.51 178.469 1053.49 175.484 1057.18 175.484 C1060.86 175.484 1063.84 178.469 1063.84 182.151 C1063.84 185.833 1060.86 188.817 1057.18 188.817 Z" fill="#aa4643" fill-opacity="1.000000"/>
  <path d="M1169.65 241.244 C1165.97 241.244 1162.99 238.259 1162.99 234.577 C1162.99 230.895 1165.97 227.911 1169.65 227.911 C1173.34 227.911 1176.32 230.895 1176.32 234.577 C1176.32 238.259 1173.34 241.244 1169.65 241.244 Z" fill="#aa4643" fill-opacity="1.000000"/>
  <path d="M1282.13 330.369 C1278.45 330.369 1275.47 327.385 1275.47 323.703 C1275.47 320.021 1278.45 317.036 1282.13 317.036 C1285.82 317.036 1288.8 320.021 1288.8 323.703 C1288.8 327.385 1285.82 330.369 1282.13 330.369 Z" fill="#aa4643" fill-opacity="1.000000"/>
  <path d="M1394.61 440.465 C1390.93 440.465 1387.95 437.481 1387.95 433.799 C1387.95 430.117 1390.93 427.132 1394.61 427.132 C1398.3 427.132 1401.28 430.117 1401.28 433.799 C1401.28 437.481 1398.3 440.465 1394.61 440.465 Z" fill="#aa4643" fill-opacity="1.000000"/>
  <path d="M1507.09 525.659 C1503.41 525.659 1500.43 522.674 1500.43 518.992 C1500.43 515.31 1503.41 512.325 1507.09 512.325 C1510.78 512.325 1513.76 515.31 1513.76 518.992 C1513.76 522.674 1510.78 525.659 1507.09 525.659 Z" fill="#aa4643" fill-opacity="1.000000"/>
  <path d="M269.818 592.389 L382.298 571.419 L494.777 496.711 L607.257 402.343 L719.736 302.732 L832.216 263.412 L944.696 225.403 L1057.18 248.995 L1169.65 330.256 L1282.13 415.449 L1394.61 480.983 L1507.09 542.584 " fill="none" stroke-width="5.000000" stroke="#89a54eff"/>
  <path d="M269.818 599.056 C266.136 599.056 263.151 596.071 263.151 592.389 C263.151 588.707 266.136 585.723 269.818 585.723 C273.5 585.723 276.485 588.707 276.485 592.389 C276.485 596.071 273.5 599.056 269.818 599.056 Z" fill="#89a54e" fill-opacity="1.000000"/>
  <path d="M382.298 578.085 C378.616 578.085 375.631 575.101 375.631 571.419 C375.631 567.737 378.616 564.752 382.298 564.752 C385.979 564.752 388.964 567.737 388.964 571.419 C388.964 575.101 385.979 578.085 382.298 578.085 Z" fill="#89a54e" fill-opacity="1.000000"/>
  <path d="M494.777 503.377 C491.095 503.377 488.11 500.393 488.11 496.711 C488.11 493.029 491.095 490.044 494.777 490.044 C498.459 490.044 501.444 493.029 501.444 496.711 C501.444 500.393 498.459 503.377 494.777 503.377 Z" fill="#89a54e" fill-opacity="1.000000"/>
  <path d="M607.257 409.009 C603.575 409.009 600.59 406.025 600.59 402.343 C600.59 398.661 603.575 395.676 607.257 395.676 C610.939 395.676 613.923 398.661 613.923 402.343 C613.923 406.025 610.939 409.009 607.257 409.009 Z" fill="#89a54e" fill-opacity="1.000000"/>
  <path d="M719.736 309.399 C716.054 309.399 713.07 306.414 713.07 302.732 C713.07 299.05 716.054 296.065 719.736 296.065 C723.418 296.065 726.403 299.05 726.403 302.732 C726.403 306.414 723.418 309.399 719.736 309.399 Z" fill="#89a54e" fill-opacity="1.000000"/>
  <path d="M832.216 270.079 C828.534 270.079 825.549 267.094 825.549 263.412 C825.549 259.73 828.534 256.745 832.216 256.745 C835.898 256.745 838.883 259.73 838.883 263.412 C838.883 267.094 835.898 270.079 832.216 270.079 Z" fill="#89a54e" fill-opacity="1.000000"/>
  <path d="M944.696 232.069 C941.014 232.069 938.029 229.085 938.029 225.403 C938.029 221.721 941.014 218.736 944.696 218.736 C948.377 218.736 951.362 221.721 951.362 225.403 C951.362 229.085 948.377 232.069 944.696 232.069 Z" fill="#89a54e" fill-opacity="1.000000"/>
  <path d="M1057.18 255.661 C1053.49 255.661 1050.51 252.677 1050.51 248.995 C1050.51 245.313 1053.49 242.328 1057.18 242.328 C1060.86 242.328 1063.84 245.313 1063.84 248.995 C1063.84 252.677 1060.86 255.661 1057.18 255.661 Z" fill="#89a54e" fill-opacity="1.000000"/>
  <path d="M1169.65 336.923 C1165.97 336.923 1162.99 333.938 1162.99 330.256 C1162.99 326.574 1165.97 323.589 1169.65 323.589 C1173.34 323.589 1176.32 326.574 1176.32 330.256 C1176.32 333.938 1173.34 336.923 1169.65 336.923 Z" fill="#89a54e" fill-opacity="1.000000"/>
  <path d="M1282.13 422.116 C1278.45 422.116 1275.47 419.131 1275.47 415.449 C1275.47 411.767 1278.45 408.783 1282.13 408.783 C1285.82 408.783 1288.8 411.767 1288.8 415.449 C1288.8 419.131 1285.82 422.116 1282.13 422.116 Z" fill="#89a54e" fill-opacity="1.000000"/>
  <path d="M1394.61 487.649 C1390.93 487.649 1387.95 484.665 1387.95 480.983 C1387.95 477.301 1390.93 474.316 1394.61 474.316 C1398.3 474.316 1401.28 477.301 1401.28 480.983 C1401.28 484.665 1398.3 487.649 1394.61 487.649 Z" fill="#89a54e" fill-opacity="1.000000"/>
  <path d="M1507.09 549.251 C1503.41 549.251 1500.43 546.266 1500.43 542.584 C1500.43 538.902 1503.41 535.917 1507.09 535.917 C1510.78 535.917 1513.76 538.902 1513.76 542.584 C1513.76 546.266 1510.78 549.251 1507.09 549.251 Z" fill="#89a54e" fill-opacity="1.000000"/>
  <path d="M269.818 325.013 L382.298 325.013 L494.777 298.8 L607.257 246.373 L719.736 180.84 L832.216 154.627 L944.696 128.413 L1057.18 128.413 L1169.65 167.733 L1282.13 193.947 L1394.61 259.48 L1507.09 311.907 " fill="none" stroke-width="5.000000" stroke="#4572a7ff"/>
  <path d="M269.818 331.68 C266.136 331.68 263.151 328.695 263.151 325.013 C263.151 321.331 266.136 318.347 269.818 318.347 C273.5 318.347 276.485 321.331 276.485 325.013 C276.485 328.695 273.5 331.68 269.818 331.68 Z" fill="#4572a7" fill-opacity="1.000000"/>
  <path d="M382.298 331.68 C378.616 331.68 375.631 328.695 375.631 325.013 C375.631 321.331 378.616 318.347 382.298 318.347 C385.979 318.347 388.964 321.331 388.964 325.013 C388.964 328.695 385.979 331.68 382.298 331.68 Z" fill="#4572a7" fill-opacity="1.000000"/>
  <path d="M494.777 305.467 C491.095 305.467 488.11 302.482 488.11 298.8 C488.11 295.118 491.095 292.133 494.777 292.133 C498.459 292.133 501.444 295.118 501.444 298.8 C501.444 302.482 498.459 305.467 494.777 305.467 Z" fill="#4572a7" fill-opacity="1.000000"/>
  <path d="M607.257 253.04 C603.575 253.04 600.59 250.055 600.59 246.373 C600.59 242.691 603.575 239.707 607.257 239.707 C610.939 239.707 613.923 242.691 613.923 246.373 C613.923 250.055 610.939 253.04 607.257 253.04 Z" fill="#4572a7" fill-opacity="1.000000"/>
  <path d="M719.736 187.507 C716.054 187.507 713.07 184.522 713.07 180.84 C713.07 177.158 716.054 174.173 719.736 174.173 C723.418 174.173 726.403 177.158 726.403 180.84 C726.403 184.522 723.418 187.507 719.736 187.507 Z" fill="#4572a7" fill-opacity="1.000000"/>
  <path d="M832.216 161.293 C828.534 161.293 825.549 158.309 825.549 154.627 C825.549 150.945 828.534 147.96 832.216 147.96 C835.898 147.96 838.883 150.945 838.883 154.627 C838.883 158.309 835.898 161.293 832.216 161.293 Z" fill="#4572a7" fill-opacity="1.000000"/>
  <path d="M944.696 135.08 C941.014 135.08 938.029 132.095 938.029 128.413 C938.029 124.731 941.014 121.747 944.696 121.747 C948.377 121.747 951.362 124.731 951.362 128.413 C951.362 132.095 948.377 135.08 944.696 135.08 Z" fill="#4572a7" fill-opacity="1.000000"/>
  <path d="M1057.18 135.08 C1053.49 135.08 1050.51 132.095 1050.51 128.413 C1050.51 124.731 1053.49 121.747 1057.18 121.747 C1060.86 121.747 1063.84 124.731 1063.84 128.413 C1063.84 132.095 1060.86 135.08 1057.18 135.08 Z" fill="#4572a7" fill-opacity="1.000000"/>
  <path d="M1169.65 174.4 C1165.97 174.4 1162.99 171.415 1162.99 167.733 C1162.99 164.051 1165.97 161.067 1169.65 161.067 C1173.34 161.067 1176.32 164.051 1176.32 167.733 C1176.32 171.415 1173.34 174.4 1169.65 174.4 Z" fill="#4572a7" fill-opacity="1.000000"/>
  <path d="M1282.13 200.613 C1278.45 200.613 1275.47 197.629 1275.47 193.947 C1275.47 190.265 1278.45 187.28 1282.13 187.28 C1285.82 187.28 1288.8 190.265 1288.8 193.947 C1288.8 197.629 1285.82 200.613 1282.13 200.613 Z" fill="#4572a7" fill-opacity="1.000000"/>
  <path d="M1394.61 266.147 C1390.93 266.147 1387.95 263.162 1387.95 259.48 C1387.95 255.798 1390.93 252.813 1394.61 252.813 C1398.3 252.813 1401.28 255.798 1401.28 259.48 C1401.28 263.162 1398.3 266.147 1394.61 266.147 Z" fill="#4572a7" fill-opacity="1.000000"/>
  <path d="M1507.09 318.573 C1503.41 318.573 1500.43 315.589 1500.43 311.907 C1500.43 308.225 1503.41 305.24 1507.09 305.24 C1510.78 305.24 1513.76 308.225 1513.76 311.907 C1513.76 315.589 1510.78 318.573 1507.09 318.573 Z" fill="#4572a7" fill-opacity="1.000000"/>
  <path d="M642.018 640.167 L642.018 613.167 L647.284 613.167 L653.565 631.917 Q654.44 634.542 654.831 635.839 Q655.284 634.401 656.237 631.589 L662.581 613.167 L667.284 613.167 L667.284 640.167 L663.909 640.167 L663.909 616.167 L656.221 640.167 L653.049 640.167 L645.393 616.167 L645.393 640.167 L642.018 640.167 Z" fill="#000000" fill-opacity="1.000000"/>
  <path d="M671.253 630.167 Q671.253 624.854 674.221 622.292 Q676.69 620.167 680.253 620.167 Q684.206 620.167 686.714 622.753 Q689.221 625.339 689.221 629.901 Q689.221 633.589 688.112 635.706 Q687.003 637.823 684.878 638.995 Q682.753 640.167 680.253 640.167 Q676.221 640.167 673.737 637.589 Q671.253 635.01 671.253 630.167 ZM674.596 630.151 Q674.596 633.667 676.206 635.417 Q677.815 637.167 680.253 637.167 Q682.659 637.167 684.268 635.409 Q685.878 633.651 685.878 630.057 Q685.878 626.667 684.26 624.917 Q682.643 623.167 680.253 623.167 Q677.815 623.167 676.206 624.909 Q674.596 626.651 674.596 630.151 Z" fill="#000000" fill-opacity="1.000000"/>
  <path d="M705.565 633.167 L708.768 633.167 Q708.237 636.448 706.081 638.307 Q703.924 640.167 700.784 640.167 Q696.846 640.167 694.456 637.596 Q692.065 635.026 692.065 630.245 Q692.065 627.135 693.096 624.815 Q694.128 622.495 696.229 621.331 Q698.331 620.167 700.799 620.167 Q703.924 620.167 705.909 621.987 Q707.893 623.807 708.456 627.167 L705.299 627.167 Q704.846 625.182 703.698 624.174 Q702.549 623.167 700.924 623.167 Q698.471 623.167 696.932 624.846 Q695.393 626.526 695.393 630.151 Q695.393 633.823 696.878 635.495 Q698.362 637.167 700.737 637.167 Q702.659 637.167 703.94 636.182 Q705.221 635.198 705.565 633.167 Z" fill="#000000" fill-opacity="1.000000"/>
  <path d="M711.378 620.167 L714.628 620.167 L714.628 629.167 Q716.174 629.167 716.799 628.518 Q717.424 627.87 718.643 624.76 Q719.596 622.292 720.19 621.503 Q720.784 620.714 721.565 620.44 Q722.346 620.167 724.049 620.167 L724.706 620.167 L724.706 623.182 L723.799 623.167 Q722.518 623.167 722.159 623.557 Q721.784 623.979 721.003 626.042 Q720.268 628.01 719.651 628.784 Q719.034 629.557 717.753 630.198 Q719.846 630.76 721.878 634.135 L725.44 640.167 L721.862 640.167 L718.393 634.182 Q717.331 632.339 716.534 631.753 Q715.737 631.167 714.628 631.167 L714.628 640.167 L711.378 640.167 L711.378 620.167 Z" fill="#000000" fill-opacity="1.000000"/>
  <path d="M727.456 620.167 L734.956 620.167 Q737.721 620.167 739.065 620.628 Q740.409 621.089 741.378 622.323 Q742.346 623.557 742.346 625.292 Q742.346 626.667 741.776 627.698 Q741.206 628.729 740.065 629.417 Q741.424 629.901 742.323 631.237 Q743.221 632.573 743.221 634.385 Q743.034 637.323 741.268 638.745 Q739.503 640.167 736.112 640.167 L727.456 640.167 L727.456 620.167 ZM730.706 628.167 L734.174 628.167 Q736.253 628.167 737.026 627.964 Q737.799 627.76 738.417 627.151 Q739.034 626.542 739.034 625.682 Q739.034 624.276 737.956 623.721 Q736.878 623.167 734.284 623.167 L730.706 623.167 L730.706 628.167 ZM730.706 637.167 L734.987 637.167 Q737.768 637.167 738.799 636.503 Q739.831 635.839 739.878 634.198 Q739.878 633.229 739.284 632.417 Q738.69 631.604 737.729 631.385 Q736.768 631.167 734.643 631.167 L730.706 631.167 L730.706 637.167 Z" fill="#000000" fill-opacity="1.000000"/>
  <path d="M759.237 638.167 Q757.44 639.26 755.768 639.714 Q754.096 640.167 752.19 640.167 Q749.018 640.167 747.323 638.573 Q745.628 636.979 745.628 634.51 Q745.628 633.057 746.268 631.854 Q746.909 630.651 747.948 629.924 Q748.987 629.198 750.284 628.823 Q751.237 628.557 753.174 628.323 Q757.112 627.839 758.971 627.167 Q758.987 626.604 758.987 626.448 Q758.987 624.776 758.065 624.089 Q756.815 623.167 754.362 623.167 Q752.065 623.167 750.979 623.831 Q749.893 624.495 749.362 626.167 L746.174 626.167 Q746.612 624.089 747.604 622.815 Q748.596 621.542 750.471 620.854 Q752.346 620.167 754.831 620.167 Q757.284 620.167 758.823 620.76 Q760.362 621.354 761.081 622.253 Q761.799 623.151 762.096 624.526 Q762.253 625.385 762.253 627.432 L762.253 631.51 Q762.253 635.792 762.464 637.292 Q762.674 638.792 763.284 640.167 L759.893 640.167 Q759.378 639.307 759.237 638.167 ZM758.971 630.167 Q757.206 630.839 753.659 631.307 Q751.659 631.573 750.831 631.917 Q750.003 632.26 749.549 632.901 Q749.096 633.542 749.096 634.339 Q749.096 635.557 750.081 636.362 Q751.065 637.167 752.956 637.167 Q754.846 637.167 756.307 636.354 Q757.768 635.542 758.456 634.229 Q758.971 633.229 758.971 631.26 L758.971 630.167 Z" fill="#000000" fill-opacity="1.000000"/>
  <path d="M604.435 640.917 C596.841 640.917 590.685 634.761 590.685 627.167 C590.685 619.573 596.841 613.417 604.435 613.417 C612.029 613.417 618.185 619.573 618.185 627.167 C618.185 634.761 612.029 640.917 604.435 640.917 Z" fill="#89a54e" fill-opacity="1.000000"/>
  <path d="M872.326 637.167 L875.372 637.167 L875.372 640.167 L857.044 640.167 L857.044 637.167 L868.872 637.167 L868.872 630.385 Q868.872 627.604 868.279 626.214 Q867.685 624.823 866.122 623.995 Q864.56 623.167 861.247 623.167 Q860.076 623.167 857.622 623.167 L857.326 620.167 Q859.763 620.167 862.513 620.167 Q867.685 620.167 870.005 622.479 Q872.326 624.792 872.326 629.479 L872.326 637.167 Z" fill="#000000" fill-opacity="1.000000"/>
  <path d="M882.341 620.167 L882.341 630.167 L878.81 630.167 L878.81 620.167 L882.341 620.167 Z" fill="#000000" fill-opacity="1.000000"/>
  <path d="M901.247 637.167 L904.294 637.167 L904.294 640.167 L885.966 640.167 L885.966 637.167 L897.794 637.167 L897.794 630.385 Q897.794 627.604 897.201 626.214 Q896.607 624.823 895.044 623.995 Q893.482 623.167 890.169 623.167 Q888.997 623.167 886.544 623.167 L886.247 620.167 Q888.685 620.167 891.435 620.167 Q896.607 620.167 898.927 622.479 Q901.247 624.792 901.247 629.479 L901.247 637.167 Z" fill="#000000" fill-opacity="1.000000"/>
  <path d="M924.779 640.167 L920.513 640.167 L913.185 629.682 Q911.497 630.62 911.185 633.448 L910.404 640.167 L906.826 640.167 L907.607 633.245 Q908.154 628.432 911.372 626.729 L906.904 620.167 L911.154 620.167 L917.294 629.135 Q918.404 628.354 918.849 627.385 Q919.294 626.417 919.544 624.182 L919.997 620.167 L923.576 620.167 L923.154 624.292 Q922.857 626.964 921.997 628.667 Q921.138 630.37 919.029 631.714 L924.779 640.167 Z" fill="#000000" fill-opacity="1.000000"/>
  <path d="" fill="#000000" fill-opacity="1.000000"/>
  <path d="M940.279 620.167 L950.904 620.167 L950.904 625.135 Q950.904 627.26 950.521 628.565 Q950.138 629.87 949.201 631.214 L948.232 632.573 Q946.763 634.62 946.763 636.964 L946.763 640.167 L943.31 640.167 L943.31 637.464 Q943.31 635.042 943.771 633.815 Q944.232 632.589 945.122 631.385 L946.201 629.964 Q946.997 628.901 947.224 628.049 Q947.451 627.198 947.451 625.87 L947.451 623.167 L936.841 623.167 L936.841 613.167 L940.279 613.167 L940.279 620.167 Z" fill="#000000" fill-opacity="1.000000"/>
  <path d="M953.451 639.667 L954.044 636.667 Q954.982 637.167 956.091 637.167 Q957.341 637.167 957.81 636.604 Q958.279 636.042 958.279 634.573 L958.279 623.276 Q956.732 623.276 954.466 623.604 L954.154 620.698 Q958.279 620.167 962.529 620.167 Q966.826 620.167 969.138 620.909 Q971.451 621.651 972.669 623.643 Q973.888 625.635 973.888 629.479 L973.888 640.167 L970.435 640.167 L970.435 630.401 Q970.435 627.51 970.013 626.159 Q969.591 624.807 968.161 623.971 Q966.732 623.135 963.451 623.135 L961.716 623.167 L961.716 635.089 Q961.716 636.948 961.38 637.924 Q961.044 638.901 959.99 639.534 Q958.935 640.167 956.826 640.167 Q955.138 640.167 953.451 639.667 Z" fill="#000000" fill-opacity="1.000000"/>
  <path d="M821.305 640.917 C813.711 640.917 807.555 634.761 807.555 627.167 C807.555 619.573 813.711 613.417 821.305 613.417 C828.899 613.417 835.055 619.573 835.055 627.167 C835.055 634.761 828.899 640.917 821.305 640.917 Z" fill="#4572a7" fill-opacity="1.000000"/>
  <path d="M1083.29 611.745 L1083.29 645.135 L1080.24 645.135 L1080.24 639.214 L1070.41 642.104 L1069.55 639.354 L1080.24 636.323 L1080.24 624.323 L1070.71 624.323 L1070.71 621.573 L1080.24 621.573 L1080.24 611.745 L1083.29 611.745 ZM1089.35 641.37 L1089.35 611.745 L1092.38 611.745 L1092.38 622.729 Q1097.45 621.292 1100.77 619.557 L1102.65 621.714 Q1097.74 624.182 1092.38 625.76 L1092.38 640.948 Q1092.38 641.964 1093.4 641.964 L1099.48 641.964 Q1100.63 641.964 1100.77 640.651 L1100.77 637.901 L1103.52 638.776 L1103.52 641.37 Q1103.52 644.698 1100.48 644.698 L1092.38 644.698 Q1089.35 644.698 1089.35 641.37 Z" fill="#000000" fill-opacity="1.000000"/>
  <path d="M1124.59 611.745 L1124.59 615.214 L1138.88 615.214 L1138.88 617.964 L1107.38 617.964 L1107.38 615.214 L1121.54 615.214 L1121.54 611.745 L1124.59 611.745 ZM1133.98 620.995 L1133.98 632.417 L1125.16 632.417 L1125.16 641.667 Q1125.16 643.401 1124.01 644.339 Q1122.85 645.276 1118.51 645.276 L1117.21 642.245 L1119.8 642.245 Q1121.4 642.245 1121.76 642.026 Q1122.12 641.807 1122.12 640.51 L1122.12 632.417 L1112.73 632.417 L1112.73 620.995 L1133.98 620.995 ZM1130.95 623.745 L1115.76 623.745 L1115.76 629.667 L1130.95 629.667 L1130.95 623.745 ZM1114.76 634.01 L1117.21 636.026 Q1113.16 640.792 1108.82 643.698 L1106.66 641.37 Q1111.13 638.479 1114.76 634.01 ZM1129.49 636.323 L1131.52 634.292 Q1135.71 636.901 1139.62 641.37 L1137.45 643.26 Q1133.4 639.057 1129.49 636.323 Z" fill="#000000" fill-opacity="1.000000"/>
  <path d="M1161.4 611.745 L1161.4 615.214 L1175.99 615.214 L1175.99 617.964 L1143.48 617.964 L1143.48 615.214 L1158.37 615.214 L1158.37 611.745 L1161.4 611.745 ZM1158.37 644.995 L1158.37 626.495 L1149.54 626.495 L1149.54 641.37 L1146.51 641.37 L1146.51 623.745 L1158.37 623.745 L1158.37 619.401 L1161.4 619.401 L1161.4 623.745 L1173.24 623.745 L1173.24 637.901 Q1173.24 639.354 1172.23 640.51 Q1171.23 641.667 1166.74 641.526 L1165.59 638.057 L1167.62 638.057 Q1169.35 638.057 1169.71 637.768 Q1170.07 637.479 1170.21 636.745 L1170.21 626.495 L1161.4 626.495 L1161.4 644.995 L1158.37 644.995 Z" fill="#000000" fill-opacity="1.000000"/>
  <path d="M1033.13 640.917 C1025.53 640.917 1019.38 634.761 1019.38 627.167 C1019.38 619.573 1025.53 613.417 1033.13 613.417 C1040.72 613.417 1046.88 619.573 1046.88 627.167 C1046.88 634.761 1040.72 640.917 1033.13 640.917 Z" fill="#aa4643" fill-opacity="1.000000"/>
</svg>