<?xml version="1.0" encoding="UTF-8" ?>
<!-- Generated by clip v0.8.0 (clip-lang.org) -->
<svg xmlns="http://www.w3.org/2000/svg" width="1600" height="800">
  <rect width="1600" height="800" fill="#ffffff" fill-opacity="1"/>
  <path d="M213.578 692 L1563.333 692" fill="none" stroke="#000000" stroke-width="3.333"/>
  <path d="M269.818 692 L269.818 678.667" fill="none" stroke="#000000" stroke-width="3.333"/>
  <path d="M382.298 692 L382.298 678.667" fill="none" stroke="#000000" stroke-width="3.333"/>
  <path d="M494.777 692 L494.777 678.667" fill="none" stroke="#000000" stroke-width="3.333"/>
  <path d="M607.257 692 L607.257 678.667" fill="none" stroke="#000000" stroke-width="3.333"/>
  <path d="M719.736 692 L719.736 678.667" fill="none" stroke="#000000" stroke-width="3.333"/>
  <path d="M832.216 692 L832.216 678.667" fill="none" stroke="#000000" stroke-width="3.333"/>
  <path d="M944.696 692 L944.696 678.667" fill="none" stroke="#000000" stroke-width="3.333"/>
  <path d="M1057.175 692 L1057.175 678.667" fill="none" stroke="#000000" stroke-width="3.333"/>
  <path d="M1169.655 692 L1169.655 678.667" fill="none" stroke="#000000" stroke-width="3.333"/>
  <path d="M1282.134 692 L1282.134 678.667" fill="none" stroke="#000000" stroke-width="3.333"/>
  <path d="M1394.614 692 L1394.614 678.667" fill="none" stroke="#000000" stroke-width="3.333"/>
  <path d="M1507.094 692 L1507.094 678.667" fill="none" stroke="#000000" stroke-width="3.333"/>
  <path d="M241.318 747.740 L244.490 747.333 Q244.615 750.208 245.630 751.271 Q246.646 752.333 248.427 752.333 Q249.740 752.333 250.701 751.724 Q251.662 751.115 252.021 750.068 Q252.380 749.021 252.380 746.724 L252.380 728.333 L255.880 728.333 L255.880 746.427 Q255.880 749.755 255.076 751.583 Q254.271 753.411 252.529 754.372 Q250.787 755.333 248.443 755.333 Q244.943 755.333 243.099 753.427 Q241.255 751.521 241.318 747.740 Z"/>
  <path d="M273.552 753.333 Q271.755 754.427 270.084 754.880 Q268.412 755.333 266.505 755.333 Q263.334 755.333 261.638 753.740 Q259.943 752.146 259.943 749.677 Q259.943 748.224 260.584 747.021 Q261.224 745.818 262.263 745.091 Q263.302 744.365 264.599 743.990 Q265.552 743.724 267.490 743.490 Q271.427 743.005 273.287 742.333 Q273.302 741.771 273.302 741.615 Q273.302 739.943 272.380 739.255 Q271.130 738.333 268.677 738.333 Q266.380 738.333 265.294 738.997 Q264.209 739.661 263.677 741.333 L260.490 741.333 Q260.927 739.255 261.919 737.982 Q262.912 736.708 264.787 736.021 Q266.662 735.333 269.146 735.333 Q271.599 735.333 273.138 735.927 Q274.677 736.521 275.396 737.419 Q276.115 738.318 276.412 739.693 Q276.568 740.552 276.568 742.599 L276.568 746.677 Q276.568 750.958 276.779 752.458 Q276.990 753.958 277.599 755.333 L274.209 755.333 Q273.693 754.474 273.552 753.333 Z M273.287 745.333 Q271.521 746.005 267.974 746.474 Q265.974 746.740 265.146 747.083 Q264.318 747.427 263.865 748.068 Q263.412 748.708 263.412 749.505 Q263.412 750.724 264.396 751.529 Q265.380 752.333 267.271 752.333 Q269.162 752.333 270.623 751.521 Q272.084 750.708 272.771 749.396 Q273.287 748.396 273.287 746.427 L273.287 745.333 Z"/>
  <path d="M281.427 755.333 L281.427 735.333 L284.349 735.333 L284.349 738.068 Q286.459 735.333 290.459 735.333 Q292.193 735.333 293.646 735.966 Q295.099 736.599 295.826 737.630 Q296.552 738.661 296.834 740.083 Q297.021 741.005 297.021 743.302 L297.021 755.333 L293.771 755.333 L293.771 743.521 Q293.771 741.521 293.388 740.521 Q293.005 739.521 292.044 738.927 Q291.084 738.333 289.771 738.333 Q287.693 738.333 286.185 739.669 Q284.677 741.005 284.677 744.740 L284.677 755.333 L281.427 755.333 Z"/>
  <path d="M353.735 755.333 L353.735 728.333 L371.610 728.333 L371.610 731.333 L357.251 731.333 L357.251 740.333 L369.673 740.333 L369.673 743.333 L357.251 743.333 L357.251 755.333 L353.735 755.333 Z"/>
  <path d="M388.688 749.333 L392.048 749.333 Q391.251 752.177 389.102 753.755 Q386.954 755.333 383.610 755.333 Q379.407 755.333 376.938 752.747 Q374.469 750.161 374.469 745.490 Q374.469 740.661 376.962 737.997 Q379.454 735.333 383.438 735.333 Q387.282 735.333 389.719 737.990 Q392.157 740.646 392.157 745.458 Q392.157 745.755 392.141 746.333 L377.829 746.333 Q378.016 749.240 379.618 750.786 Q381.219 752.333 383.626 752.333 Q385.423 752.333 386.688 751.615 Q387.954 750.896 388.688 749.333 Z M378.001 743.333 L388.719 743.333 Q388.501 741.130 387.485 740.036 Q385.938 738.333 383.454 738.333 Q381.219 738.333 379.688 739.693 Q378.157 741.052 378.001 743.333 Z"/>
  <path d="M398.938 755.333 L395.923 755.333 L395.923 728.333 L399.173 728.333 L399.173 738.240 Q401.235 735.333 404.438 735.333 Q406.204 735.333 407.782 736.044 Q409.360 736.755 410.383 738.044 Q411.407 739.333 411.985 741.154 Q412.563 742.974 412.563 745.052 Q412.563 749.958 410.126 752.646 Q407.688 755.333 404.266 755.333 Q400.876 755.333 398.938 752.146 L398.938 755.333 Z M398.907 745.193 Q398.907 748.474 399.844 749.943 Q401.376 752.333 404.001 752.333 Q406.126 752.333 407.680 750.568 Q409.235 748.802 409.235 745.318 Q409.235 741.740 407.743 740.036 Q406.251 738.333 404.141 738.333 Q402.016 738.333 400.462 740.099 Q398.907 741.865 398.907 745.193 Z"/>
  <path d="M465.949 755.333 L465.949 728.333 L471.215 728.333 L477.496 747.083 Q478.371 749.708 478.762 751.005 Q479.215 749.568 480.168 746.755 L486.512 728.333 L491.215 728.333 L491.215 755.333 L487.840 755.333 L487.840 731.333 L480.152 755.333 L476.980 755.333 L469.324 731.333 L469.324 755.333 L465.949 755.333 Z"/>
  <path d="M508.699 753.333 Q506.902 754.427 505.230 754.880 Q503.558 755.333 501.652 755.333 Q498.480 755.333 496.785 753.740 Q495.090 752.146 495.090 749.677 Q495.090 748.224 495.730 747.021 Q496.371 745.818 497.410 745.091 Q498.449 744.365 499.746 743.990 Q500.699 743.724 502.637 743.490 Q506.574 743.005 508.433 742.333 Q508.449 741.771 508.449 741.615 Q508.449 739.943 507.527 739.255 Q506.277 738.333 503.824 738.333 Q501.527 738.333 500.441 738.997 Q499.355 739.661 498.824 741.333 L495.637 741.333 Q496.074 739.255 497.066 737.982 Q498.058 736.708 499.933 736.021 Q501.808 735.333 504.293 735.333 Q506.746 735.333 508.285 735.927 Q509.824 736.521 510.543 737.419 Q511.262 738.318 511.558 739.693 Q511.715 740.552 511.715 742.599 L511.715 746.677 Q511.715 750.958 511.926 752.458 Q512.137 753.958 512.746 755.333 L509.355 755.333 Q508.840 754.474 508.699 753.333 Z M508.433 745.333 Q506.668 746.005 503.121 746.474 Q501.121 746.740 500.293 747.083 Q499.465 747.427 499.012 748.068 Q498.558 748.708 498.558 749.505 Q498.558 750.724 499.543 751.529 Q500.527 752.333 502.418 752.333 Q504.308 752.333 505.769 751.521 Q507.230 750.708 507.918 749.396 Q508.433 748.396 508.433 746.427 L508.433 745.333 Z"/>
  <path d="M516.543 755.333 L516.543 735.333 L519.465 735.333 L519.465 738.318 Q520.590 736.490 521.535 735.911 Q522.480 735.333 523.621 735.333 Q525.262 735.333 526.965 735.958 L525.840 738.974 Q524.652 738.333 523.465 738.333 Q522.402 738.333 521.551 739.005 Q520.699 739.677 520.340 740.865 Q519.793 742.677 519.793 744.833 L519.793 755.333 L516.543 755.333 Z"/>
  <path d="M578.679 755.333 L588.850 728.333 L592.616 728.333 L603.460 755.333 L599.460 755.333 L596.382 747.333 L585.304 747.333 L582.397 755.333 L578.679 755.333 Z M586.319 744.333 L595.288 744.333 L592.522 737.036 Q591.257 733.693 590.647 731.333 Q590.147 734.036 589.225 736.568 L586.319 744.333 Z"/>
  <path d="M605.616 762.333 L605.616 735.333 L608.585 735.333 L608.585 738.693 Q609.632 737.005 610.952 736.169 Q612.272 735.333 614.147 735.333 Q616.600 735.333 618.475 736.591 Q620.350 737.849 621.311 740.146 Q622.272 742.443 622.272 745.193 Q622.272 748.130 621.218 750.482 Q620.163 752.833 618.147 754.083 Q616.132 755.333 613.913 755.333 Q612.288 755.333 610.991 754.560 Q609.694 753.786 608.866 752.615 L608.866 762.333 L605.616 762.333 Z M608.569 745.490 Q608.569 748.990 610.069 750.661 Q611.569 752.333 613.694 752.333 Q615.866 752.333 617.405 750.599 Q618.944 748.865 618.944 745.240 Q618.944 741.771 617.436 740.052 Q615.929 738.333 613.835 738.333 Q611.757 738.333 610.163 740.169 Q608.569 742.005 608.569 745.490 Z"/>
  <path d="M625.975 755.333 L625.975 735.333 L628.897 735.333 L628.897 738.318 Q630.022 736.490 630.968 735.911 Q631.913 735.333 633.054 735.333 Q634.694 735.333 636.397 735.958 L635.272 738.974 Q634.085 738.333 632.897 738.333 Q631.835 738.333 630.983 739.005 Q630.132 739.677 629.772 740.865 Q629.225 742.677 629.225 744.833 L629.225 755.333 L625.975 755.333 Z"/>
  <path d="M687.846 755.333 L687.846 728.333 L693.111 728.333 L699.393 747.083 Q700.268 749.708 700.658 751.005 Q701.111 749.568 702.064 746.755 L708.408 728.333 L713.111 728.333 L713.111 755.333 L709.736 755.333 L709.736 731.333 L702.049 755.333 L698.877 755.333 L691.221 731.333 L691.221 755.333 L687.846 755.333 Z"/>
  <path d="M730.596 753.333 Q728.799 754.427 727.127 754.880 Q725.455 755.333 723.549 755.333 Q720.377 755.333 718.682 753.740 Q716.986 752.146 716.986 749.677 Q716.986 748.224 717.627 747.021 Q718.268 745.818 719.307 745.091 Q720.346 744.365 721.643 743.990 Q722.596 743.724 724.533 743.490 Q728.471 743.005 730.330 742.333 Q730.346 741.771 730.346 741.615 Q730.346 739.943 729.424 739.255 Q728.174 738.333 725.721 738.333 Q723.424 738.333 722.338 738.997 Q721.252 739.661 720.721 741.333 L717.533 741.333 Q717.971 739.255 718.963 737.982 Q719.955 736.708 721.830 736.021 Q723.705 735.333 726.189 735.333 Q728.643 735.333 730.182 735.927 Q731.721 736.521 732.439 737.419 Q733.158 738.318 733.455 739.693 Q733.611 740.552 733.611 742.599 L733.611 746.677 Q733.611 750.958 733.822 752.458 Q734.033 753.958 734.643 755.333 L731.252 755.333 Q730.736 754.474 730.596 753.333 Z M730.330 745.333 Q728.564 746.005 725.018 746.474 Q723.018 746.740 722.189 747.083 Q721.361 747.427 720.908 748.068 Q720.455 748.708 720.455 749.505 Q720.455 750.724 721.439 751.529 Q722.424 752.333 724.314 752.333 Q726.205 752.333 727.666 751.521 Q729.127 750.708 729.814 749.396 Q730.330 748.396 730.330 746.427 L730.330 745.333 Z"/>
  <path d="M738.330 761.958 L737.971 759.052 Q739.033 759.333 739.830 759.333 Q740.908 759.333 741.557 758.966 Q742.205 758.599 742.627 757.943 Q742.939 757.458 743.627 755.505 Q743.705 755.240 743.908 754.708 L736.627 735.333 L740.127 735.333 L744.127 746.396 Q744.908 748.505 745.518 750.818 Q746.080 749.427 746.861 747.286 L750.955 735.333 L754.205 735.333 L746.908 755.708 Q745.736 758.521 745.080 759.568 Q744.221 761.005 743.096 761.669 Q741.971 762.333 740.424 762.333 Q739.486 762.333 738.330 761.958 Z"/>
  <path d="M803.716 747.740 L806.888 747.333 Q807.013 750.208 808.028 751.271 Q809.044 752.333 810.825 752.333 Q812.138 752.333 813.099 751.724 Q814.060 751.115 814.419 750.068 Q814.778 749.021 814.778 746.724 L814.778 728.333 L818.278 728.333 L818.278 746.427 Q818.278 749.755 817.474 751.583 Q816.669 753.411 814.927 754.372 Q813.185 755.333 810.841 755.333 Q807.341 755.333 805.497 753.427 Q803.653 751.521 803.716 747.740 Z"/>
  <path d="M836.013 755.333 L836.013 751.880 Q833.778 755.333 829.919 755.333 Q828.216 755.333 826.747 754.669 Q825.278 754.005 824.560 753.005 Q823.841 752.005 823.560 750.552 Q823.357 749.568 823.357 747.458 L823.357 735.333 L826.622 735.333 L826.622 746.083 Q826.622 748.661 826.825 749.552 Q827.122 750.849 828.122 751.591 Q829.122 752.333 830.575 752.333 Q832.044 752.333 833.325 751.576 Q834.607 750.818 835.138 749.513 Q835.669 748.208 835.669 745.724 L835.669 735.333 L838.919 735.333 L838.919 755.333 L836.013 755.333 Z"/>
  <path d="M843.825 755.333 L843.825 735.333 L846.747 735.333 L846.747 738.068 Q848.857 735.333 852.857 735.333 Q854.591 735.333 856.044 735.966 Q857.497 736.599 858.224 737.630 Q858.950 738.661 859.232 740.083 Q859.419 741.005 859.419 743.302 L859.419 755.333 L856.169 755.333 L856.169 743.521 Q856.169 741.521 855.786 740.521 Q855.403 739.521 854.442 738.927 Q853.482 738.333 852.169 738.333 Q850.091 738.333 848.583 739.669 Q847.075 741.005 847.075 744.740 L847.075 755.333 L843.825 755.333 Z"/>
  <path d="M922.321 747.740 L925.492 747.333 Q925.617 750.208 926.633 751.271 Q927.649 752.333 929.430 752.333 Q930.742 752.333 931.703 751.724 Q932.664 751.115 933.024 750.068 Q933.383 749.021 933.383 746.724 L933.383 728.333 L936.883 728.333 L936.883 746.427 Q936.883 749.755 936.078 751.583 Q935.274 753.411 933.531 754.372 Q931.789 755.333 929.446 755.333 Q925.946 755.333 924.102 753.427 Q922.258 751.521 922.321 747.740 Z"/>
  <path d="M954.617 755.333 L954.617 751.880 Q952.383 755.333 948.524 755.333 Q946.821 755.333 945.352 754.669 Q943.883 754.005 943.164 753.005 Q942.446 752.005 942.164 750.552 Q941.961 749.568 941.961 747.458 L941.961 735.333 L945.227 735.333 L945.227 746.083 Q945.227 748.661 945.430 749.552 Q945.727 750.849 946.727 751.591 Q947.727 752.333 949.180 752.333 Q950.649 752.333 951.930 751.576 Q953.211 750.818 953.742 749.513 Q954.274 748.208 954.274 745.724 L954.274 735.333 L957.524 735.333 L957.524 755.333 L954.617 755.333 Z"/>
  <path d="M962.352 755.333 L962.352 728.333 L965.617 728.333 L965.617 755.333 L962.352 755.333 Z"/>
  <path d="M1024.511 755.333 L1034.683 728.333 L1038.449 728.333 L1049.292 755.333 L1045.292 755.333 L1042.214 747.333 L1031.136 747.333 L1028.230 755.333 L1024.511 755.333 Z M1032.152 744.333 L1041.120 744.333 L1038.355 737.036 Q1037.089 733.693 1036.480 731.333 Q1035.980 734.036 1035.058 736.568 L1032.152 744.333 Z"/>
  <path d="M1064.027 755.333 L1064.027 751.880 Q1061.792 755.333 1057.933 755.333 Q1056.230 755.333 1054.761 754.669 Q1053.292 754.005 1052.574 753.005 Q1051.855 752.005 1051.574 750.552 Q1051.370 749.568 1051.370 747.458 L1051.370 735.333 L1054.636 735.333 L1054.636 746.083 Q1054.636 748.661 1054.839 749.552 Q1055.136 750.849 1056.136 751.591 Q1057.136 752.333 1058.589 752.333 Q1060.058 752.333 1061.339 751.576 Q1062.620 750.818 1063.152 749.513 Q1063.683 748.208 1063.683 745.724 L1063.683 735.333 L1066.933 735.333 L1066.933 755.333 L1064.027 755.333 Z"/>
  <path d="M1071.245 756.333 L1074.402 756.333 Q1074.605 757.786 1075.511 758.443 Q1076.714 759.333 1078.808 759.333 Q1081.074 759.333 1082.300 758.622 Q1083.527 757.911 1083.964 756.630 Q1084.214 755.849 1084.199 753.333 Q1082.074 755.333 1078.886 755.333 Q1074.933 755.333 1072.761 752.427 Q1070.589 749.521 1070.589 745.443 Q1070.589 742.646 1071.581 740.279 Q1072.574 737.911 1074.464 736.622 Q1076.355 735.333 1078.902 735.333 Q1082.308 735.333 1084.511 738.333 L1084.511 735.333 L1087.511 735.333 L1087.511 751.927 Q1087.511 756.427 1086.597 758.294 Q1085.683 760.161 1083.706 761.247 Q1081.730 762.333 1078.839 762.333 Q1075.402 762.333 1073.285 760.841 Q1071.167 759.349 1071.245 756.333 Z M1073.933 745.208 Q1073.933 748.927 1075.433 750.630 Q1076.933 752.333 1079.183 752.333 Q1081.433 752.333 1082.949 750.638 Q1084.464 748.943 1084.464 745.318 Q1084.464 741.849 1082.902 740.091 Q1081.339 738.333 1079.136 738.333 Q1076.964 738.333 1075.449 740.068 Q1073.933 741.802 1073.933 745.208 Z"/>
  <path d="M1138.694 746.333 L1142.006 746.333 Q1142.241 748.286 1143.100 749.536 Q1143.959 750.786 1145.764 751.560 Q1147.569 752.333 1149.834 752.333 Q1151.834 752.333 1153.373 751.747 Q1154.913 751.161 1155.663 750.138 Q1156.413 749.115 1156.413 747.896 Q1156.413 746.646 1155.686 745.716 Q1154.959 744.786 1153.288 744.161 Q1152.225 743.740 1148.577 742.872 Q1144.928 742.005 1143.459 741.240 Q1141.569 740.255 1140.639 738.802 Q1139.709 737.349 1139.709 735.536 Q1139.709 733.568 1140.850 731.841 Q1141.991 730.115 1144.178 729.224 Q1146.366 728.333 1149.038 728.333 Q1151.975 728.333 1154.225 729.294 Q1156.475 730.255 1157.686 732.115 Q1158.897 733.974 1158.991 736.333 L1155.631 736.333 Q1155.366 733.865 1153.795 732.599 Q1152.225 731.333 1149.178 731.333 Q1145.991 731.333 1144.538 732.490 Q1143.084 733.646 1143.084 735.271 Q1143.084 736.693 1144.116 737.599 Q1145.131 738.521 1149.405 739.482 Q1153.678 740.443 1155.272 741.161 Q1157.584 742.208 1158.686 743.818 Q1159.788 745.427 1159.788 747.521 Q1159.788 749.599 1158.577 751.443 Q1157.366 753.286 1155.100 754.310 Q1152.834 755.333 1149.991 755.333 Q1146.397 755.333 1143.967 754.279 Q1141.538 753.224 1140.155 751.115 Q1138.772 749.005 1138.694 746.333 Z"/>
  <path d="M1177.069 749.333 L1180.428 749.333 Q1179.631 752.177 1177.483 753.755 Q1175.334 755.333 1171.991 755.333 Q1167.788 755.333 1165.319 752.747 Q1162.850 750.161 1162.850 745.490 Q1162.850 740.661 1165.342 737.997 Q1167.834 735.333 1171.819 735.333 Q1175.663 735.333 1178.100 737.990 Q1180.538 740.646 1180.538 745.458 Q1180.538 745.755 1180.522 746.333 L1166.209 746.333 Q1166.397 749.240 1167.998 750.786 Q1169.600 752.333 1172.006 752.333 Q1173.803 752.333 1175.069 751.615 Q1176.334 750.896 1177.069 749.333 Z M1166.381 743.333 L1177.100 743.333 Q1176.881 741.130 1175.866 740.036 Q1174.319 738.333 1171.834 738.333 Q1169.600 738.333 1168.069 739.693 Q1166.538 741.052 1166.381 743.333 Z"/>
  <path d="M1184.319 762.333 L1184.319 735.333 L1187.288 735.333 L1187.288 738.693 Q1188.334 737.005 1189.655 736.169 Q1190.975 735.333 1192.850 735.333 Q1195.303 735.333 1197.178 736.591 Q1199.053 737.849 1200.014 740.146 Q1200.975 742.443 1200.975 745.193 Q1200.975 748.130 1199.920 750.482 Q1198.866 752.833 1196.850 754.083 Q1194.834 755.333 1192.616 755.333 Q1190.991 755.333 1189.694 754.560 Q1188.397 753.786 1187.569 752.615 L1187.569 762.333 L1184.319 762.333 Z M1187.272 745.490 Q1187.272 748.990 1188.772 750.661 Q1190.272 752.333 1192.397 752.333 Q1194.569 752.333 1196.108 750.599 Q1197.647 748.865 1197.647 745.240 Q1197.647 741.771 1196.139 740.052 Q1194.631 738.333 1192.538 738.333 Q1190.459 738.333 1188.866 740.169 Q1187.272 742.005 1187.272 745.490 Z"/>
  <path d="M1255.384 742.177 Q1255.384 735.677 1258.931 732.005 Q1262.478 728.333 1268.072 728.333 Q1271.744 728.333 1274.689 730.060 Q1277.634 731.786 1279.181 734.872 Q1280.728 737.958 1280.728 741.880 Q1280.728 745.849 1279.103 748.982 Q1277.478 752.115 1274.494 753.724 Q1271.509 755.333 1268.056 755.333 Q1264.322 755.333 1261.369 753.552 Q1258.416 751.771 1256.900 748.693 Q1255.384 745.615 1255.384 742.177 Z M1259.009 742.224 Q1259.009 746.927 1261.580 749.630 Q1264.150 752.333 1268.041 752.333 Q1271.994 752.333 1274.548 749.599 Q1277.103 746.865 1277.103 741.849 Q1277.103 738.677 1276.009 736.310 Q1274.916 733.943 1272.814 732.638 Q1270.712 731.333 1268.087 731.333 Q1264.369 731.333 1261.689 733.841 Q1259.009 736.349 1259.009 742.224 Z"/>
  <path d="M1297.087 748.333 L1300.291 748.333 Q1299.759 751.615 1297.603 753.474 Q1295.447 755.333 1292.306 755.333 Q1288.369 755.333 1285.978 752.763 Q1283.587 750.193 1283.587 745.411 Q1283.587 742.302 1284.619 739.982 Q1285.650 737.661 1287.752 736.497 Q1289.853 735.333 1292.322 735.333 Q1295.447 735.333 1297.431 737.154 Q1299.416 738.974 1299.978 742.333 L1296.822 742.333 Q1296.369 740.349 1295.220 739.341 Q1294.072 738.333 1292.447 738.333 Q1289.994 738.333 1288.455 740.013 Q1286.916 741.693 1286.916 745.318 Q1286.916 748.990 1288.400 750.661 Q1289.884 752.333 1292.259 752.333 Q1294.181 752.333 1295.462 751.349 Q1296.744 750.365 1297.087 748.333 Z"/>
  <path d="M1310.025 752.177 L1310.494 755.052 Q1309.119 755.333 1308.041 755.333 Q1306.259 755.333 1305.283 754.771 Q1304.306 754.208 1303.908 753.294 Q1303.509 752.380 1303.509 749.427 L1303.509 738.333 L1301.134 738.333 L1301.134 735.333 L1303.509 735.333 L1303.509 730.583 L1306.744 728.630 L1306.744 735.333 L1310.025 735.333 L1310.025 738.333 L1306.744 738.333 L1306.744 749.646 Q1306.744 751.052 1306.916 751.458 Q1307.087 751.865 1307.478 752.099 Q1307.869 752.333 1308.587 752.333 Q1309.134 752.333 1310.025 752.177 Z"/>
  <path d="M1364.817 755.333 L1364.817 728.333 L1368.411 728.333 L1382.333 750.474 L1382.333 728.333 L1385.692 728.333 L1385.692 755.333 L1382.098 755.333 L1368.176 733.208 L1368.176 755.333 L1364.817 755.333 Z"/>
  <path d="M1389.723 745.333 Q1389.723 740.021 1392.692 737.458 Q1395.161 735.333 1398.723 735.333 Q1402.676 735.333 1405.184 737.919 Q1407.692 740.505 1407.692 745.068 Q1407.692 748.755 1406.583 750.872 Q1405.473 752.990 1403.348 754.161 Q1401.223 755.333 1398.723 755.333 Q1394.692 755.333 1392.208 752.755 Q1389.723 750.177 1389.723 745.333 Z M1393.067 745.318 Q1393.067 748.833 1394.676 750.583 Q1396.286 752.333 1398.723 752.333 Q1401.130 752.333 1402.739 750.576 Q1404.348 748.818 1404.348 745.224 Q1404.348 741.833 1402.731 740.083 Q1401.114 738.333 1398.723 738.333 Q1396.286 738.333 1394.676 740.076 Q1393.067 741.818 1393.067 745.318 Z"/>
  <path d="M1416.645 755.333 L1409.348 735.333 L1412.786 735.333 L1416.895 747.302 Q1417.567 749.240 1418.130 751.333 Q1418.567 749.755 1419.333 747.536 L1423.598 735.333 L1426.942 735.333 L1419.676 755.333 L1416.645 755.333 Z"/>
  <path d="M1477.344 755.333 L1477.344 728.333 L1486.469 728.333 Q1489.547 728.333 1491.172 728.724 Q1493.453 729.255 1495.062 730.661 Q1497.156 732.458 1498.195 735.271 Q1499.234 738.083 1499.234 741.693 Q1499.234 744.755 1498.531 747.138 Q1497.828 749.521 1496.726 751.076 Q1495.625 752.630 1494.312 753.521 Q1493.000 754.411 1491.148 754.872 Q1489.297 755.333 1486.890 755.333 L1477.344 755.333 Z M1480.844 752.333 L1486.500 752.333 Q1489.125 752.333 1490.609 751.826 Q1492.094 751.318 1492.984 750.396 Q1494.234 749.115 1494.929 746.927 Q1495.625 744.740 1495.625 741.630 Q1495.625 737.318 1494.258 734.997 Q1492.890 732.677 1490.937 731.896 Q1489.531 731.333 1486.406 731.333 L1480.844 731.333 L1480.844 752.333 Z"/>
  <path d="M1516.547 749.333 L1519.906 749.333 Q1519.109 752.177 1516.961 753.755 Q1514.812 755.333 1511.469 755.333 Q1507.265 755.333 1504.797 752.747 Q1502.328 750.161 1502.328 745.490 Q1502.328 740.661 1504.820 737.997 Q1507.312 735.333 1511.297 735.333 Q1515.140 735.333 1517.578 737.990 Q1520.015 740.646 1520.015 745.458 Q1520.015 745.755 1520.000 746.333 L1505.687 746.333 Q1505.875 749.240 1507.476 750.786 Q1509.078 752.333 1511.484 752.333 Q1513.281 752.333 1514.547 751.615 Q1515.812 750.896 1516.547 749.333 Z M1505.859 743.333 L1516.578 743.333 Q1516.359 741.130 1515.344 740.036 Q1513.797 738.333 1511.312 738.333 Q1509.078 738.333 1507.547 739.693 Q1506.015 741.052 1505.859 743.333 Z"/>
  <path d="M1536.312 748.333 L1539.515 748.333 Q1538.984 751.615 1536.828 753.474 Q1534.672 755.333 1531.531 755.333 Q1527.594 755.333 1525.203 752.763 Q1522.812 750.193 1522.812 745.411 Q1522.812 742.302 1523.844 739.982 Q1524.875 737.661 1526.976 736.497 Q1529.078 735.333 1531.547 735.333 Q1534.672 735.333 1536.656 737.154 Q1538.640 738.974 1539.203 742.333 L1536.047 742.333 Q1535.594 740.349 1534.445 739.341 Q1533.297 738.333 1531.672 738.333 Q1529.219 738.333 1527.679 740.013 Q1526.140 741.693 1526.140 745.318 Q1526.140 748.990 1527.625 750.661 Q1529.109 752.333 1531.484 752.333 Q1533.406 752.333 1534.687 751.349 Q1535.969 750.365 1536.312 748.333 Z"/>
  <path d="M213.578 692 L213.578 36.667" fill="none" stroke="#000000" stroke-width="3.333"/>
  <path d="M213.578 626.467 L226.911 626.467" fill="none" stroke="#000000" stroke-width="3.333"/>
  <path d="M213.578 560.933 L226.911 560.933" fill="none" stroke="#000000" stroke-width="3.333"/>
  <path d="M213.578 495.400 L226.911 495.400" fill="none" stroke="#000000" stroke-width="3.333"/>
  <path d="M213.578 429.867 L226.911 429.867" fill="none" stroke="#000000" stroke-width="3.333"/>
  <path d="M213.578 364.333 L226.911 364.333" fill="none" stroke="#000000" stroke-width="3.333"/>
  <path d="M213.578 298.800 L226.911 298.800" fill="none" stroke="#000000" stroke-width="3.333"/>
  <path d="M213.578 233.267 L226.911 233.267" fill="none" stroke="#000000" stroke-width="3.333"/>
  <path d="M213.578 167.733 L226.911 167.733" fill="none" stroke="#000000" stroke-width="3.333"/>
  <path d="M213.578 102.200 L226.911 102.200" fill="none" stroke="#000000" stroke-width="3.333"/>
  <path d="M213.578 36.667 L226.911 36.667" fill="none" stroke="#000000" stroke-width="3.333"/>
  <path d="M101.839 631.467 L101.839 628.467 L111.839 628.467 L111.839 631.467 L101.839 631.467 Z"/>
  <path d="M126.667 639.467 L123.417 639.467 L123.417 618.435 Q122.245 619.576 120.339 620.709 Q118.432 621.842 116.917 622.404 L116.917 619.217 Q119.651 617.920 121.690 616.068 Q123.729 614.217 124.573 612.467 L126.667 612.467 L126.667 639.467 Z"/>
  <path d="M134.807 625.982 Q134.807 621.279 135.776 618.428 Q136.745 615.576 138.651 614.021 Q140.557 612.467 143.448 612.467 Q145.589 612.467 147.190 613.326 Q148.792 614.185 149.846 615.795 Q150.901 617.404 151.495 619.724 Q152.089 622.045 152.089 625.982 Q152.089 630.623 151.128 633.482 Q150.167 636.342 148.260 637.904 Q146.354 639.467 143.448 639.467 Q139.620 639.467 137.432 636.732 Q134.807 633.420 134.807 625.982 Z M138.151 625.967 Q138.151 632.279 139.682 634.373 Q141.214 636.467 143.448 636.467 Q145.682 636.467 147.214 634.365 Q148.745 632.264 148.745 625.967 Q148.745 619.639 147.214 617.553 Q145.682 615.467 143.417 615.467 Q141.167 615.467 139.839 617.310 Q138.151 619.654 138.151 625.967 Z"/>
  <path d="M157.026 639.467 L157.026 636.467 L160.729 636.467 L160.729 639.467 L157.026 639.467 Z"/>
  <path d="M165.385 625.982 Q165.385 621.279 166.354 618.428 Q167.323 615.576 169.229 614.021 Q171.135 612.467 174.026 612.467 Q176.167 612.467 177.768 613.326 Q179.370 614.185 180.424 615.795 Q181.479 617.404 182.073 619.724 Q182.667 622.045 182.667 625.982 Q182.667 630.623 181.706 633.482 Q180.745 636.342 178.839 637.904 Q176.932 639.467 174.026 639.467 Q170.198 639.467 168.010 636.732 Q165.385 633.420 165.385 625.982 Z M168.729 625.967 Q168.729 632.279 170.260 634.373 Q171.792 636.467 174.026 636.467 Q176.260 636.467 177.792 634.365 Q179.323 632.264 179.323 625.967 Q179.323 619.639 177.792 617.553 Q176.260 615.467 173.995 615.467 Q171.745 615.467 170.417 617.310 Q168.729 619.654 168.729 625.967 Z"/>
  <path d="M122.229 565.933 L122.229 562.933 L132.229 562.933 L132.229 565.933 L122.229 565.933 Z"/>
  <path d="M134.807 566.933 L138.229 566.933 Q138.604 568.933 139.987 569.933 Q141.370 570.933 143.323 570.933 Q145.667 570.933 147.292 569.230 Q148.917 567.527 148.917 564.715 Q148.917 562.027 147.354 560.480 Q145.792 558.933 143.260 558.933 Q141.698 558.933 140.432 559.488 Q139.167 560.043 138.448 560.933 L135.385 560.933 L137.948 546.933 L151.120 546.933 L151.120 549.933 L140.557 549.933 L139.135 557.668 Q141.526 555.933 144.135 555.933 Q147.604 555.933 149.987 558.332 Q152.370 560.730 152.370 564.511 Q152.370 568.105 150.276 570.715 Q147.729 573.933 143.323 573.933 Q139.698 573.933 137.417 572.019 Q135.135 570.105 134.807 566.933 Z"/>
  <path d="M157.026 573.933 L157.026 570.933 L160.729 570.933 L160.729 573.933 L157.026 573.933 Z"/>
  <path d="M165.385 560.449 Q165.385 555.746 166.354 552.894 Q167.323 550.043 169.229 548.488 Q171.135 546.933 174.026 546.933 Q176.167 546.933 177.768 547.793 Q179.370 548.652 180.424 550.261 Q181.479 551.871 182.073 554.191 Q182.667 556.511 182.667 560.449 Q182.667 565.090 181.706 567.949 Q180.745 570.808 178.839 572.371 Q176.932 573.933 174.026 573.933 Q170.198 573.933 168.010 571.199 Q165.385 567.886 165.385 560.449 Z M168.729 560.433 Q168.729 566.746 170.260 568.840 Q171.792 570.933 174.026 570.933 Q176.260 570.933 177.792 568.832 Q179.323 566.730 179.323 560.433 Q179.323 554.105 177.792 552.019 Q176.260 549.933 173.995 549.933 Q171.745 549.933 170.417 551.777 Q168.729 554.121 168.729 560.433 Z"/>
  <path d="M134.807 494.916 Q134.807 490.213 135.776 487.361 Q136.745 484.509 138.651 482.955 Q140.557 481.400 143.448 481.400 Q145.589 481.400 147.190 482.259 Q148.792 483.119 149.846 484.728 Q150.901 486.338 151.495 488.658 Q152.089 490.978 152.089 494.916 Q152.089 499.556 151.128 502.416 Q150.167 505.275 148.260 506.838 Q146.354 508.400 143.448 508.400 Q139.620 508.400 137.432 505.666 Q134.807 502.353 134.807 494.916 Z M138.151 494.900 Q138.151 501.213 139.682 503.306 Q141.214 505.400 143.448 505.400 Q145.682 505.400 147.214 503.298 Q148.745 501.197 148.745 494.900 Q148.745 488.572 147.214 486.486 Q145.682 484.400 143.417 484.400 Q141.167 484.400 139.839 486.244 Q138.151 488.588 138.151 494.900 Z"/>
  <path d="M157.026 508.400 L157.026 505.400 L160.729 505.400 L160.729 508.400 L157.026 508.400 Z"/>
  <path d="M165.385 494.916 Q165.385 490.213 166.354 487.361 Q167.323 484.509 169.229 482.955 Q171.135 481.400 174.026 481.400 Q176.167 481.400 177.768 482.259 Q179.370 483.119 180.424 484.728 Q181.479 486.338 182.073 488.658 Q182.667 490.978 182.667 494.916 Q182.667 499.556 181.706 502.416 Q180.745 505.275 178.839 506.838 Q176.932 508.400 174.026 508.400 Q170.198 508.400 168.010 505.666 Q165.385 502.353 165.385 494.916 Z M168.729 494.900 Q168.729 501.213 170.260 503.306 Q171.792 505.400 174.026 505.400 Q176.260 505.400 177.792 503.298 Q179.323 501.197 179.323 494.900 Q179.323 488.572 177.792 486.486 Q176.260 484.400 173.995 484.400 Q171.745 484.400 170.417 486.244 Q168.729 488.588 168.729 494.900 Z"/>
  <path d="M134.807 435.867 L138.229 435.867 Q138.604 437.867 139.987 438.867 Q141.370 439.867 143.323 439.867 Q145.667 439.867 147.292 438.164 Q148.917 436.460 148.917 433.648 Q148.917 430.960 147.354 429.414 Q145.792 427.867 143.260 427.867 Q141.698 427.867 140.432 428.421 Q139.167 428.976 138.448 429.867 L135.385 429.867 L137.948 415.867 L151.120 415.867 L151.120 418.867 L140.557 418.867 L139.135 426.601 Q141.526 424.867 144.135 424.867 Q147.604 424.867 149.987 427.265 Q152.370 429.664 152.370 433.445 Q152.370 437.039 150.276 439.648 Q147.729 442.867 143.323 442.867 Q139.698 442.867 137.417 440.953 Q135.135 439.039 134.807 435.867 Z"/>
  <path d="M157.026 442.867 L157.026 439.867 L160.729 439.867 L160.729 442.867 L157.026 442.867 Z"/>
  <path d="M165.385 429.382 Q165.385 424.679 166.354 421.828 Q167.323 418.976 169.229 417.421 Q171.135 415.867 174.026 415.867 Q176.167 415.867 177.768 416.726 Q179.370 417.585 180.424 419.195 Q181.479 420.804 182.073 423.124 Q182.667 425.445 182.667 429.382 Q182.667 434.023 181.706 436.882 Q180.745 439.742 178.839 441.304 Q176.932 442.867 174.026 442.867 Q170.198 442.867 168.010 440.132 Q165.385 436.820 165.385 429.382 Z M168.729 429.367 Q168.729 435.679 170.260 437.773 Q171.792 439.867 174.026 439.867 Q176.260 439.867 177.792 437.765 Q179.323 435.664 179.323 429.367 Q179.323 423.039 177.792 420.953 Q176.260 418.867 173.995 418.867 Q171.745 418.867 170.417 420.710 Q168.729 423.054 168.729 429.367 Z"/>
  <path d="M126.667 377.333 L123.417 377.333 L123.417 356.302 Q122.245 357.443 120.339 358.576 Q118.432 359.708 116.917 360.271 L116.917 357.083 Q119.651 355.786 121.690 353.935 Q123.729 352.083 124.573 350.333 L126.667 350.333 L126.667 377.333 Z"/>
  <path d="M134.807 363.849 Q134.807 359.146 135.776 356.294 Q136.745 353.443 138.651 351.888 Q140.557 350.333 143.448 350.333 Q145.589 350.333 147.190 351.193 Q148.792 352.052 149.846 353.661 Q150.901 355.271 151.495 357.591 Q152.089 359.911 152.089 363.849 Q152.089 368.490 151.128 371.349 Q150.167 374.208 148.260 375.771 Q146.354 377.333 143.448 377.333 Q139.620 377.333 137.432 374.599 Q134.807 371.286 134.807 363.849 Z M138.151 363.833 Q138.151 370.146 139.682 372.240 Q141.214 374.333 143.448 374.333 Q145.682 374.333 147.214 372.232 Q148.745 370.130 148.745 363.833 Q148.745 357.505 147.214 355.419 Q145.682 353.333 143.417 353.333 Q141.167 353.333 139.839 355.177 Q138.151 357.521 138.151 363.833 Z"/>
  <path d="M157.026 377.333 L157.026 374.333 L160.729 374.333 L160.729 377.333 L157.026 377.333 Z"/>
  <path d="M165.385 363.849 Q165.385 359.146 166.354 356.294 Q167.323 353.443 169.229 351.888 Q171.135 350.333 174.026 350.333 Q176.167 350.333 177.768 351.193 Q179.370 352.052 180.424 353.661 Q181.479 355.271 182.073 357.591 Q182.667 359.911 182.667 363.849 Q182.667 368.490 181.706 371.349 Q180.745 374.208 178.839 375.771 Q176.932 377.333 174.026 377.333 Q170.198 377.333 168.010 374.599 Q165.385 371.286 165.385 363.849 Z M168.729 363.833 Q168.729 370.146 170.260 372.240 Q171.792 374.333 174.026 374.333 Q176.260 374.333 177.792 372.232 Q179.323 370.130 179.323 363.833 Q179.323 357.505 177.792 355.419 Q176.260 353.333 173.995 353.333 Q171.745 353.333 170.417 355.177 Q168.729 357.521 168.729 363.833 Z"/>
  <path d="M126.667 311.800 L123.417 311.800 L123.417 290.769 Q122.245 291.909 120.339 293.042 Q118.432 294.175 116.917 294.738 L116.917 291.550 Q119.651 290.253 121.690 288.402 Q123.729 286.550 124.573 284.800 L126.667 284.800 L126.667 311.800 Z"/>
  <path d="M134.807 304.800 L138.229 304.800 Q138.604 306.800 139.987 307.800 Q141.370 308.800 143.323 308.800 Q145.667 308.800 147.292 307.097 Q148.917 305.394 148.917 302.581 Q148.917 299.894 147.354 298.347 Q145.792 296.800 143.260 296.800 Q141.698 296.800 140.432 297.355 Q139.167 297.909 138.448 298.800 L135.385 298.800 L137.948 284.800 L151.120 284.800 L151.120 287.800 L140.557 287.800 L139.135 295.534 Q141.526 293.800 144.135 293.800 Q147.604 293.800 149.987 296.198 Q152.370 298.597 152.370 302.378 Q152.370 305.972 150.276 308.581 Q147.729 311.800 143.323 311.800 Q139.698 311.800 137.417 309.886 Q135.135 307.972 134.807 304.800 Z"/>
  <path d="M157.026 311.800 L157.026 308.800 L160.729 308.800 L160.729 311.800 L157.026 311.800 Z"/>
  <path d="M165.385 298.316 Q165.385 293.613 166.354 290.761 Q167.323 287.909 169.229 286.355 Q171.135 284.800 174.026 284.800 Q176.167 284.800 177.768 285.659 Q179.370 286.519 180.424 288.128 Q181.479 289.738 182.073 292.058 Q182.667 294.378 182.667 298.316 Q182.667 302.956 181.706 305.816 Q180.745 308.675 178.839 310.238 Q176.932 311.800 174.026 311.800 Q170.198 311.800 168.010 309.066 Q165.385 305.753 165.385 298.316 Z M168.729 298.300 Q168.729 304.613 170.260 306.706 Q171.792 308.800 174.026 308.800 Q176.260 308.800 177.792 306.698 Q179.323 304.597 179.323 298.300 Q179.323 291.972 177.792 289.886 Q176.260 287.800 173.995 287.800 Q171.745 287.800 170.417 289.644 Q168.729 291.988 168.729 298.300 Z"/>
  <path d="M131.510 243.267 L131.510 246.267 L114.010 246.267 Q113.964 245.142 114.385 244.095 Q115.057 242.376 116.526 240.712 Q117.995 239.048 120.776 236.673 Q125.104 232.985 126.620 230.884 Q128.135 228.782 128.135 226.923 Q128.135 224.954 126.753 223.610 Q125.370 222.267 123.151 222.267 Q120.807 222.267 119.393 223.329 Q117.979 224.392 117.964 226.267 L114.620 226.267 Q114.964 222.845 117.206 221.056 Q119.448 219.267 123.214 219.267 Q127.042 219.267 129.260 221.439 Q131.479 223.610 131.479 226.829 Q131.479 228.470 130.831 230.048 Q130.182 231.626 128.667 233.376 Q127.151 235.126 123.651 238.110 Q120.729 240.595 119.901 241.485 Q119.073 242.376 118.526 243.267 L131.510 243.267 Z"/>
  <path d="M134.807 232.782 Q134.807 228.079 135.776 225.228 Q136.745 222.376 138.651 220.821 Q140.557 219.267 143.448 219.267 Q145.589 219.267 147.190 220.126 Q148.792 220.985 149.846 222.595 Q150.901 224.204 151.495 226.524 Q152.089 228.845 152.089 232.782 Q152.089 237.423 151.128 240.282 Q150.167 243.142 148.260 244.704 Q146.354 246.267 143.448 246.267 Q139.620 246.267 137.432 243.532 Q134.807 240.220 134.807 232.782 Z M138.151 232.767 Q138.151 239.079 139.682 241.173 Q141.214 243.267 143.448 243.267 Q145.682 243.267 147.214 241.165 Q148.745 239.064 148.745 232.767 Q148.745 226.439 147.214 224.353 Q145.682 222.267 143.417 222.267 Q141.167 222.267 139.839 224.110 Q138.151 226.454 138.151 232.767 Z"/>
  <path d="M157.026 246.267 L157.026 243.267 L160.729 243.267 L160.729 246.267 L157.026 246.267 Z"/>
  <path d="M165.385 232.782 Q165.385 228.079 166.354 225.228 Q167.323 222.376 169.229 220.821 Q171.135 219.267 174.026 219.267 Q176.167 219.267 177.768 220.126 Q179.370 220.985 180.424 222.595 Q181.479 224.204 182.073 226.524 Q182.667 228.845 182.667 232.782 Q182.667 237.423 181.706 240.282 Q180.745 243.142 178.839 244.704 Q176.932 246.267 174.026 246.267 Q170.198 246.267 168.010 243.532 Q165.385 240.220 165.385 232.782 Z M168.729 232.767 Q168.729 239.079 170.260 241.173 Q171.792 243.267 174.026 243.267 Q176.260 243.267 177.792 241.165 Q179.323 239.064 179.323 232.767 Q179.323 226.439 177.792 224.353 Q176.260 222.267 173.995 222.267 Q171.745 222.267 170.417 224.110 Q168.729 226.454 168.729 232.767 Z"/>
  <path d="M131.510 177.733 L131.510 180.733 L114.010 180.733 Q113.964 179.608 114.385 178.561 Q115.057 176.843 116.526 175.179 Q117.995 173.515 120.776 171.140 Q125.104 167.452 126.620 165.351 Q128.135 163.249 128.135 161.390 Q128.135 159.421 126.753 158.077 Q125.370 156.733 123.151 156.733 Q120.807 156.733 119.393 157.796 Q117.979 158.858 117.964 160.733 L114.620 160.733 Q114.964 157.311 117.206 155.522 Q119.448 153.733 123.214 153.733 Q127.042 153.733 129.260 155.905 Q131.479 158.077 131.479 161.296 Q131.479 162.936 130.831 164.515 Q130.182 166.093 128.667 167.843 Q127.151 169.593 123.651 172.577 Q120.729 175.061 119.901 175.952 Q119.073 176.843 118.526 177.733 L131.510 177.733 Z"/>
  <path d="M134.807 173.733 L138.229 173.733 Q138.604 175.733 139.987 176.733 Q141.370 177.733 143.323 177.733 Q145.667 177.733 147.292 176.030 Q148.917 174.327 148.917 171.515 Q148.917 168.827 147.354 167.280 Q145.792 165.733 143.260 165.733 Q141.698 165.733 140.432 166.288 Q139.167 166.843 138.448 167.733 L135.385 167.733 L137.948 153.733 L151.120 153.733 L151.120 156.733 L140.557 156.733 L139.135 164.468 Q141.526 162.733 144.135 162.733 Q147.604 162.733 149.987 165.132 Q152.370 167.530 152.370 171.311 Q152.370 174.905 150.276 177.515 Q147.729 180.733 143.323 180.733 Q139.698 180.733 137.417 178.819 Q135.135 176.905 134.807 173.733 Z"/>
  <path d="M157.026 180.733 L157.026 177.733 L160.729 177.733 L160.729 180.733 L157.026 180.733 Z"/>
  <path d="M165.385 167.249 Q165.385 162.546 166.354 159.694 Q167.323 156.843 169.229 155.288 Q171.135 153.733 174.026 153.733 Q176.167 153.733 177.768 154.593 Q179.370 155.452 180.424 157.061 Q181.479 158.671 182.073 160.991 Q182.667 163.311 182.667 167.249 Q182.667 171.890 181.706 174.749 Q180.745 177.608 178.839 179.171 Q176.932 180.733 174.026 180.733 Q170.198 180.733 168.010 177.999 Q165.385 174.686 165.385 167.249 Z M168.729 167.233 Q168.729 173.546 170.260 175.640 Q171.792 177.733 174.026 177.733 Q176.260 177.733 177.792 175.632 Q179.323 173.530 179.323 167.233 Q179.323 160.905 177.792 158.819 Q176.260 156.733 173.995 156.733 Q171.745 156.733 170.417 158.577 Q168.729 160.921 168.729 167.233 Z"/>
  <path d="M114.432 108.200 L117.698 108.200 Q118.260 110.325 119.604 111.263 Q120.948 112.200 122.885 112.200 Q125.182 112.200 126.760 110.661 Q128.339 109.122 128.339 106.841 Q128.339 104.669 126.878 103.247 Q125.417 101.825 123.151 101.825 Q122.229 101.825 120.854 102.200 L121.214 99.200 Q121.542 99.231 121.745 99.231 Q123.823 99.231 125.479 98.216 Q127.135 97.200 127.135 95.075 Q127.135 93.403 125.924 92.302 Q124.714 91.200 122.792 91.200 Q120.901 91.200 119.635 92.200 Q118.370 93.200 118.010 95.200 L114.760 95.200 Q115.354 91.872 117.471 90.036 Q119.589 88.200 122.729 88.200 Q124.901 88.200 126.721 89.122 Q128.542 90.044 129.510 91.630 Q130.479 93.216 130.479 94.997 Q130.479 96.684 129.557 98.075 Q128.635 99.466 126.839 100.294 Q129.182 100.841 130.479 102.559 Q131.776 104.278 131.776 106.856 Q131.776 110.341 129.245 112.770 Q126.714 115.200 122.854 115.200 Q119.370 115.200 117.065 113.255 Q114.760 111.309 114.432 108.200 Z"/>
  <path d="M134.807 101.716 Q134.807 97.013 135.776 94.161 Q136.745 91.309 138.651 89.755 Q140.557 88.200 143.448 88.200 Q145.589 88.200 147.190 89.059 Q148.792 89.919 149.846 91.528 Q150.901 93.138 151.495 95.458 Q152.089 97.778 152.089 101.716 Q152.089 106.356 151.128 109.216 Q150.167 112.075 148.260 113.638 Q146.354 115.200 143.448 115.200 Q139.620 115.200 137.432 112.466 Q134.807 109.153 134.807 101.716 Z M138.151 101.700 Q138.151 108.013 139.682 110.106 Q141.214 112.200 143.448 112.200 Q145.682 112.200 147.214 110.098 Q148.745 107.997 148.745 101.700 Q148.745 95.372 147.214 93.286 Q145.682 91.200 143.417 91.200 Q141.167 91.200 139.839 93.044 Q138.151 95.388 138.151 101.700 Z"/>
  <path d="M157.026 115.200 L157.026 112.200 L160.729 112.200 L160.729 115.200 L157.026 115.200 Z"/>
  <path d="M165.385 101.716 Q165.385 97.013 166.354 94.161 Q167.323 91.309 169.229 89.755 Q171.135 88.200 174.026 88.200 Q176.167 88.200 177.768 89.059 Q179.370 89.919 180.424 91.528 Q181.479 93.138 182.073 95.458 Q182.667 97.778 182.667 101.716 Q182.667 106.356 181.706 109.216 Q180.745 112.075 178.839 113.638 Q176.932 115.200 174.026 115.200 Q170.198 115.200 168.010 112.466 Q165.385 109.153 165.385 101.716 Z M168.729 101.700 Q168.729 108.013 170.260 110.106 Q171.792 112.200 174.026 112.200 Q176.260 112.200 177.792 110.098 Q179.323 107.997 179.323 101.700 Q179.323 95.372 177.792 93.286 Q176.260 91.200 173.995 91.200 Q171.745 91.200 170.417 93.044 Q168.729 95.388 168.729 101.700 Z"/>
  <path d="M114.432 42.667 L117.698 42.667 Q118.260 44.792 119.604 45.729 Q120.948 46.667 122.885 46.667 Q125.182 46.667 126.760 45.128 Q128.339 43.589 128.339 41.307 Q128.339 39.135 126.878 37.714 Q125.417 36.292 123.151 36.292 Q122.229 36.292 120.854 36.667 L121.214 33.667 Q121.542 33.698 121.745 33.698 Q123.823 33.698 125.479 32.682 Q127.135 31.667 127.135 29.542 Q127.135 27.870 125.924 26.768 Q124.714 25.667 122.792 25.667 Q120.901 25.667 119.635 26.667 Q118.370 27.667 118.010 29.667 L114.760 29.667 Q115.354 26.339 117.471 24.503 Q119.589 22.667 122.729 22.667 Q124.901 22.667 126.721 23.589 Q128.542 24.510 129.510 26.096 Q130.479 27.682 130.479 29.464 Q130.479 31.151 129.557 32.542 Q128.635 33.932 126.839 34.760 Q129.182 35.307 130.479 37.026 Q131.776 38.745 131.776 41.323 Q131.776 44.807 129.245 47.237 Q126.714 49.667 122.854 49.667 Q119.370 49.667 117.065 47.721 Q114.760 45.776 114.432 42.667 Z"/>
  <path d="M134.807 42.667 L138.229 42.667 Q138.604 44.667 139.987 45.667 Q141.370 46.667 143.323 46.667 Q145.667 46.667 147.292 44.964 Q148.917 43.260 148.917 40.448 Q148.917 37.760 147.354 36.214 Q145.792 34.667 143.260 34.667 Q141.698 34.667 140.432 35.221 Q139.167 35.776 138.448 36.667 L135.385 36.667 L137.948 22.667 L151.120 22.667 L151.120 25.667 L140.557 25.667 L139.135 33.401 Q141.526 31.667 144.135 31.667 Q147.604 31.667 149.987 34.065 Q152.370 36.464 152.370 40.245 Q152.370 43.839 150.276 46.448 Q147.729 49.667 143.323 49.667 Q139.698 49.667 137.417 47.753 Q135.135 45.839 134.807 42.667 Z"/>
  <path d="M157.026 49.667 L157.026 46.667 L160.729 46.667 L160.729 49.667 L157.026 49.667 Z"/>
  <path d="M165.385 36.182 Q165.385 31.479 166.354 28.628 Q167.323 25.776 169.229 24.221 Q171.135 22.667 174.026 22.667 Q176.167 22.667 177.768 23.526 Q179.370 24.385 180.424 25.995 Q181.479 27.604 182.073 29.924 Q182.667 32.245 182.667 36.182 Q182.667 40.823 181.706 43.682 Q180.745 46.542 178.839 48.104 Q176.932 49.667 174.026 49.667 Q170.198 49.667 168.010 46.932 Q165.385 43.620 165.385 36.182 Z M168.729 36.167 Q168.729 42.479 170.260 44.573 Q171.792 46.667 174.026 46.667 Q176.260 46.667 177.792 44.565 Q179.323 42.464 179.323 36.167 Q179.323 29.839 177.792 27.753 Q176.260 25.667 173.995 25.667 Q171.745 25.667 170.417 27.510 Q168.729 29.854 168.729 36.167 Z"/>
  <path d="M70.667 495.560 L46.667 495.560 L46.667 504.279 L43.667 504.279 L43.667 483.294 L46.667 483.294 L46.667 492.060 L70.667 492.060 L70.667 495.560 Z"/>
  <path d="M64.667 469.201 L64.667 465.841 Q67.510 466.638 69.089 468.786 Q70.667 470.935 70.667 474.279 Q70.667 478.482 68.081 480.951 Q65.495 483.419 60.823 483.419 Q55.995 483.419 53.331 480.927 Q50.667 478.435 50.667 474.451 Q50.667 470.607 53.323 468.169 Q55.979 465.732 60.792 465.732 Q61.089 465.732 61.667 465.747 L61.667 480.060 Q64.573 479.872 66.120 478.271 Q67.667 476.669 67.667 474.263 Q67.667 472.466 66.948 471.201 Q66.229 469.935 64.667 469.201 Z M58.667 479.888 L58.667 469.169 Q56.464 469.388 55.370 470.404 Q53.667 471.951 53.667 474.435 Q53.667 476.669 55.026 478.201 Q56.385 479.732 58.667 479.888 Z"/>
  <path d="M70.667 463.982 L50.667 463.982 L50.667 461.076 L53.979 461.076 Q52.479 460.169 51.573 458.669 Q50.667 457.169 50.667 455.263 Q50.667 453.122 51.604 451.763 Q52.542 450.404 54.214 449.841 Q50.667 447.560 50.667 443.904 Q50.667 441.060 52.276 439.521 Q53.885 437.982 57.245 437.982 L70.667 437.982 L70.667 441.216 L58.432 441.216 Q56.464 441.216 55.596 441.529 Q54.729 441.841 54.198 442.677 Q53.667 443.513 53.667 444.622 Q53.667 446.654 55.026 447.990 Q56.385 449.326 59.385 449.326 L70.667 449.326 L70.667 452.576 L58.057 452.576 Q55.854 452.576 54.760 453.372 Q53.667 454.169 53.667 455.982 Q53.667 457.357 54.401 458.521 Q55.135 459.685 56.542 460.208 Q57.948 460.732 60.604 460.732 L70.667 460.732 L70.667 463.982 Z"/>
  <path d="M77.667 433.435 L50.667 433.435 L50.667 430.466 L54.026 430.466 Q52.339 429.419 51.503 428.099 Q50.667 426.779 50.667 424.904 Q50.667 422.451 51.924 420.576 Q53.182 418.701 55.479 417.740 Q57.776 416.779 60.526 416.779 Q63.464 416.779 65.815 417.833 Q68.167 418.888 69.417 420.904 Q70.667 422.919 70.667 425.138 Q70.667 426.763 69.893 428.060 Q69.120 429.357 67.948 430.185 L77.667 430.185 L77.667 433.435 Z M60.823 430.482 Q64.323 430.482 65.995 428.982 Q67.667 427.482 67.667 425.357 Q67.667 423.185 65.932 421.646 Q64.198 420.107 60.573 420.107 Q57.104 420.107 55.385 421.615 Q53.667 423.122 53.667 425.216 Q53.667 427.294 55.503 428.888 Q57.339 430.482 60.823 430.482 Z"/>
  <path d="M64.667 399.904 L64.667 396.544 Q67.510 397.341 69.089 399.490 Q70.667 401.638 70.667 404.982 Q70.667 409.185 68.081 411.654 Q65.495 414.122 60.823 414.122 Q55.995 414.122 53.331 411.630 Q50.667 409.138 50.667 405.154 Q50.667 401.310 53.323 398.872 Q55.979 396.435 60.792 396.435 Q61.089 396.435 61.667 396.451 L61.667 410.763 Q64.573 410.576 66.120 408.974 Q67.667 407.372 67.667 404.966 Q67.667 403.169 66.948 401.904 Q66.229 400.638 64.667 399.904 Z M58.667 410.591 L58.667 399.872 Q56.464 400.091 55.370 401.107 Q53.667 402.654 53.667 405.138 Q53.667 407.372 55.026 408.904 Q56.385 410.435 58.667 410.591 Z"/>
  <path d="M70.667 392.685 L50.667 392.685 L50.667 389.763 L53.651 389.763 Q51.823 388.638 51.245 387.693 Q50.667 386.747 50.667 385.607 Q50.667 383.966 51.292 382.263 L54.307 383.388 Q53.667 384.576 53.667 385.763 Q53.667 386.826 54.339 387.677 Q55.010 388.529 56.198 388.888 Q58.010 389.435 60.167 389.435 L70.667 389.435 L70.667 392.685 Z"/>
  <path d="M68.667 367.919 Q69.760 369.716 70.214 371.388 Q70.667 373.060 70.667 374.966 Q70.667 378.138 69.073 379.833 Q67.479 381.529 65.010 381.529 Q63.557 381.529 62.354 380.888 Q61.151 380.247 60.424 379.208 Q59.698 378.169 59.323 376.872 Q59.057 375.919 58.823 373.982 Q58.339 370.044 57.667 368.185 Q57.104 368.169 56.948 368.169 Q55.276 368.169 54.589 369.091 Q53.667 370.341 53.667 372.794 Q53.667 375.091 54.331 376.177 Q54.995 377.263 56.667 377.794 L56.667 380.982 Q54.589 380.544 53.315 379.552 Q52.042 378.560 51.354 376.685 Q50.667 374.810 50.667 372.326 Q50.667 369.872 51.260 368.333 Q51.854 366.794 52.753 366.076 Q53.651 365.357 55.026 365.060 Q55.885 364.904 57.932 364.904 L62.010 364.904 Q66.292 364.904 67.792 364.693 Q69.292 364.482 70.667 363.872 L70.667 367.263 Q69.807 367.779 68.667 367.919 Z M60.667 368.185 Q61.339 369.951 61.807 373.497 Q62.073 375.497 62.417 376.326 Q62.760 377.154 63.401 377.607 Q64.042 378.060 64.839 378.060 Q66.057 378.060 66.862 377.076 Q67.667 376.091 67.667 374.201 Q67.667 372.310 66.854 370.849 Q66.042 369.388 64.729 368.701 Q63.729 368.185 61.760 368.185 L60.667 368.185 Z"/>
  <path d="M67.510 352.935 L70.385 352.466 Q70.667 353.841 70.667 354.919 Q70.667 356.701 70.104 357.677 Q69.542 358.654 68.628 359.052 Q67.714 359.451 64.760 359.451 L53.667 359.451 L53.667 361.826 L50.667 361.826 L50.667 359.451 L45.917 359.451 L43.964 356.216 L50.667 356.216 L50.667 352.935 L53.667 352.935 L53.667 356.216 L64.979 356.216 Q66.385 356.216 66.792 356.044 Q67.198 355.872 67.432 355.482 Q67.667 355.091 67.667 354.372 Q67.667 353.826 67.510 352.935 Z"/>
  <path d="M70.667 337.279 L67.214 337.279 Q70.667 339.513 70.667 343.372 Q70.667 345.076 70.003 346.544 Q69.339 348.013 68.339 348.732 Q67.339 349.451 65.885 349.732 Q64.901 349.935 62.792 349.935 L50.667 349.935 L50.667 346.669 L61.417 346.669 Q63.995 346.669 64.885 346.466 Q66.182 346.169 66.924 345.169 Q67.667 344.169 67.667 342.716 Q67.667 341.247 66.909 339.966 Q66.151 338.685 64.846 338.154 Q63.542 337.622 61.057 337.622 L50.667 337.622 L50.667 334.372 L70.667 334.372 L70.667 337.279 Z"/>
  <path d="M70.667 329.497 L50.667 329.497 L50.667 326.576 L53.651 326.576 Q51.823 325.451 51.245 324.505 Q50.667 323.560 50.667 322.419 Q50.667 320.779 51.292 319.076 L54.307 320.201 Q53.667 321.388 53.667 322.576 Q53.667 323.638 54.339 324.490 Q55.010 325.341 56.198 325.701 Q58.010 326.247 60.167 326.247 L70.667 326.247 L70.667 329.497 Z"/>
  <path d="M64.667 304.107 L64.667 300.747 Q67.510 301.544 69.089 303.693 Q70.667 305.841 70.667 309.185 Q70.667 313.388 68.081 315.857 Q65.495 318.326 60.823 318.326 Q55.995 318.326 53.331 315.833 Q50.667 313.341 50.667 309.357 Q50.667 305.513 53.323 303.076 Q55.979 300.638 60.792 300.638 Q61.089 300.638 61.667 300.654 L61.667 314.966 Q64.573 314.779 66.120 313.177 Q67.667 311.576 67.667 309.169 Q67.667 307.372 66.948 306.107 Q66.229 304.841 64.667 304.107 Z M58.667 314.794 L58.667 304.076 Q56.464 304.294 55.370 305.310 Q53.667 306.857 53.667 309.341 Q53.667 311.576 55.026 313.107 Q56.385 314.638 58.667 314.794 Z"/>
  <path d=""/>
  <path d="M77.667 280.451 Q74.339 283.154 69.885 285.013 Q65.432 286.872 60.651 286.872 Q56.432 286.872 52.589 285.482 Q48.104 283.857 43.667 280.451 L43.667 278.122 Q47.339 280.310 48.917 281.013 Q51.354 282.122 54.010 282.747 Q57.323 283.529 60.667 283.529 Q69.182 283.529 77.667 278.122 L77.667 280.451 Z"/>
  <path d="M48.651 274.576 Q46.589 274.576 45.128 273.099 Q43.667 271.622 43.667 269.576 Q43.667 267.466 45.128 266.005 Q46.589 264.544 48.651 264.544 Q50.729 264.544 52.198 266.021 Q53.667 267.497 53.667 269.576 Q53.667 271.622 52.206 273.099 Q50.745 274.576 48.651 274.576 Z M48.667 272.607 Q49.917 272.607 50.792 271.708 Q51.667 270.810 51.667 269.544 Q51.667 268.310 50.792 267.411 Q49.917 266.513 48.667 266.513 Q47.417 266.513 46.542 267.411 Q45.667 268.310 45.667 269.544 Q45.667 270.810 46.542 271.708 Q47.417 272.607 48.667 272.607 Z"/>
  <path d="M61.057 240.466 L61.917 236.966 Q66.182 238.076 68.424 240.935 Q70.667 243.794 70.667 247.935 Q70.667 252.216 68.948 254.896 Q67.229 257.576 63.971 258.974 Q60.714 260.372 56.964 260.372 Q52.885 260.372 49.854 258.794 Q46.823 257.216 45.245 254.294 Q43.667 251.372 43.667 247.872 Q43.667 243.888 45.667 241.177 Q47.667 238.466 51.292 237.404 L52.089 240.857 Q49.260 241.779 47.964 243.529 Q46.667 245.279 46.667 247.935 Q46.667 250.997 48.104 253.052 Q49.542 255.107 51.964 255.935 Q54.385 256.763 56.948 256.763 Q60.276 256.763 62.745 255.779 Q65.214 254.794 66.440 252.716 Q67.667 250.638 67.667 248.216 Q67.667 245.279 66.003 243.232 Q64.339 241.185 61.057 240.466 Z"/>
  <path d="M77.667 231.154 L77.667 233.497 Q69.182 228.091 60.667 228.091 Q57.339 228.091 54.073 228.872 Q51.417 229.482 48.979 230.591 Q47.385 231.294 43.667 233.497 L43.667 231.154 Q48.104 227.763 52.589 226.138 Q56.432 224.747 60.651 224.747 Q65.432 224.747 69.885 226.615 Q74.339 228.482 77.667 231.154 Z"/>
  <path d="M269.818 547.827 L382.298 513.749 L494.777 424.624 L607.257 318.460 L719.736 234.577 L832.216 190.015 L944.696 176.908 L1057.175 182.151 L1169.655 234.577 L1282.134 323.703 L1394.614 433.799 L1507.094 518.992" fill="none" stroke="#aa4643" stroke-width="5"/>
  <path d="M269.818 554.493 C266.136 554.493 263.151 551.509 263.151 547.827 C263.151 544.145 266.136 541.160 269.818 541.160 C273.500 541.160 276.485 544.145 276.485 547.827 C276.485 551.509 273.500 554.493 269.818 554.493 Z" fill="#aa4643"/>
  <path d="M382.298 520.416 C378.616 520.416 375.631 517.431 375.631 513.749 C375.631 510.067 378.616 507.083 382.298 507.083 C385.979 507.083 388.964 510.067 388.964 513.749 C388.964 517.431 385.979 520.416 382.298 520.416 Z" fill="#aa4643"/>
  <path d="M494.777 431.291 C491.095 431.291 488.110 428.306 488.110 424.624 C488.110 420.942 491.095 417.957 494.777 417.957 C498.459 417.957 501.444 420.942 501.444 424.624 C501.444 428.306 498.459 431.291 494.777 431.291 Z" fill="#aa4643"/>
  <path d="M607.257 325.127 C603.575 325.127 600.590 322.142 600.590 318.460 C600.590 314.778 603.575 311.793 607.257 311.793 C610.939 311.793 613.923 314.778 613.923 318.460 C613.923 322.142 610.939 325.127 607.257 325.127 Z" fill="#aa4643"/>
  <path d="M719.736 241.244 C716.054 241.244 713.070 238.259 713.070 234.577 C713.070 230.895 716.054 227.911 719.736 227.911 C723.418 227.911 726.403 230.895 726.403 234.577 C726.403 238.259 723.418 241.244 719.736 241.244 Z" fill="#aa4643"/>
  <path d="M832.216 196.681 C828.534 196.681 825.549 193.697 825.549 190.015 C825.549 186.333 828.534 183.348 832.216 183.348 C835.898 183.348 838.883 186.333 838.883 190.015 C838.883 193.697 835.898 196.681 832.216 196.681 Z" fill="#aa4643"/>
  <path d="M944.696 183.575 C941.014 183.575 938.029 180.590 938.029 176.908 C938.029 173.226 941.014 170.241 944.696 170.241 C948.377 170.241 951.362 173.226 951.362 176.908 C951.362 180.590 948.377 183.575 944.696 183.575 Z" fill="#aa4643"/>
  <path d="M1057.175 188.817 C1053.493 188.817 1050.508 185.833 1050.508 182.151 C1050.508 178.469 1053.493 175.484 1057.175 175.484 C1060.857 175.484 1063.842 178.469 1063.842 182.151 C1063.842 185.833 1060.857 188.817 1057.175 188.817 Z" fill="#aa4643"/>
  <path d="M1169.655 241.244 C1165.973 241.244 1162.988 238.259 1162.988 234.577 C1162.988 230.895 1165.973 227.911 1169.655 227.911 C1173.337 227.911 1176.321 230.895 1176.321 234.577 C1176.321 238.259 1173.337 241.244 1169.655 241.244 Z" fill="#aa4643"/>
  <path d="M1282.134 330.369 C1278.452 330.369 1275.468 327.385 1275.468 323.703 C1275.468 320.021 1278.452 317.036 1282.134 317.036 C1285.816 317.036 1288.801 320.021 1288.801 323.703 C1288.801 327.385 1285.816 330.369 1282.134 330.369 Z" fill="#aa4643"/>
  <path d="M1394.614 440.465 C1390.932 440.465 1387.947 437.481 1387.947 433.799 C1387.947 430.117 1390.932 427.132 1394.614 427.132 C1398.296 427.132 1401.281 430.117 1401.281 433.799 C1401.281 437.481 1398.296 440.465 1394.614 440.465 Z" fill="#aa4643"/>
  <path d="M1507.094 525.659 C1503.412 525.659 1500.427 522.674 1500.427 518.992 C1500.427 515.310 1503.412 512.325 1507.094 512.325 C1510.775 512.325 1513.760 515.310 1513.760 518.992 C1513.760 522.674 1510.775 525.659 1507.094 525.659 Z" fill="#aa4643"/>
  <path d="M269.818 592.389 L382.298 571.419 L494.777 496.711 L607.257 402.343 L719.736 302.732 L832.216 263.412 L944.696 225.403 L1057.175 248.995 L1169.655 330.256 L1282.134 415.449 L1394.614 480.983 L1507.094 542.584" fill="none" stroke="#89a54e" stroke-width="5"/>
  <path d="M269.818 599.056 C266.136 599.056 263.151 596.071 263.151 592.389 C263.151 588.707 266.136 585.723 269.818 585.723 C273.500 585.723 276.485 588.707 276.485 592.389 C276.485 596.071 273.500 599.056 269.818 599.056 Z" fill="#89a54e"/>
  <path d="M382.298 578.085 C378.616 578.085 375.631 575.101 375.631 571.419 C375.631 567.737 378.616 564.752 382.298 564.752 C385.979 564.752 388.964 567.737 388.964 571.419 C388.964 575.101 385.979 578.085 382.298 578.085 Z" fill="#89a54e"/>
  <path d="M494.777 503.377 C491.095 503.377 488.110 500.393 488.110 496.711 C488.110 493.029 491.095 490.044 494.777 490.044 C498.459 490.044 501.444 493.029 501.444 496.711 C501.444 500.393 498.459 503.377 494.777 503.377 Z" fill="#89a54e"/>
  <path d="M607.257 409.009 C603.575 409.009 600.590 406.025 600.590 402.343 C600.590 398.661 603.575 395.676 607.257 395.676 C610.939 395.676 613.923 398.661 613.923 402.343 C613.923 406.025 610.939 409.009 607.257 409.009 Z" fill="#89a54e"/>
  <path d="M719.736 309.399 C716.054 309.399 713.070 306.414 713.070 302.732 C713.070 299.050 716.054 296.065 719.736 296.065 C723.418 296.065 726.403 299.050 726.403 302.732 C726.403 306.414 723.418 309.399 719.736 309.399 Z" fill="#89a54e"/>
  <path d="M832.216 270.079 C828.534 270.079 825.549 267.094 825.549 263.412 C825.549 259.730 828.534 256.745 832.216 256.745 C835.898 256.745 838.883 259.730 838.883 263.412 C838.883 267.094 835.898 270.079 832.216 270.079 Z" fill="#89a54e"/>
  <path d="M944.696 232.069 C941.014 232.069 938.029 229.085 938.029 225.403 C938.029 221.721 941.014 218.736 944.696 218.736 C948.377 218.736 951.362 221.721 951.362 225.403 C951.362 229.085 948.377 232.069 944.696 232.069 Z" fill="#89a54e"/>
  <path d="M1057.175 255.661 C1053.493 255.661 1050.508 252.677 1050.508 248.995 C1050.508 245.313 1053.493 242.328 1057.175 242.328 C1060.857 242.328 1063.842 245.313 1063.842 248.995 C1063.842 252.677 1060.857 255.661 1057.175 255.661 Z" fill="#89a54e"/>
  <path d="M1169.655 336.923 C1165.973 336.923 1162.988 333.938 1162.988 330.256 C1162.988 326.574 1165.973 323.589 1169.655 323.589 C1173.337 323.589 1176.321 326.574 1176.321 330.256 C1176.321 333.938 1173.337 336.923 1169.655 336.923 Z" fill="#89a54e"/>
  <path d="M1282.134 422.116 C1278.452 422.116 1275.468 419.131 1275.468 415.449 C1275.468 411.767 1278.452 408.783 1282.134 408.783 C1285.816 408.783 1288.801 411.767 1288.801 415.449 C1288.801 419.131 1285.816 422.116 1282.134 422.116 Z" fill="#89a54e"/>
  <path d="M1394.614 487.649 C1390.932 487.649 1387.947 484.665 1387.947 480.983 C1387.947 477.301 1390.932 474.316 1394.614 474.316 C1398.296 474.316 1401.281 477.301 1401.281 480.983 C1401.281 484.665 1398.296 487.649 1394.614 487.649 Z" fill="#89a54e"/>
  <path d="M1507.094 549.251 C1503.412 549.251 1500.427 546.266 1500.427 542.584 C1500.427 538.902 1503.412 535.917 1507.094 535.917 C1510.775 535.917 1513.760 538.902 1513.760 542.584 C1513.760 546.266 1510.775 549.251 1507.094 549.251 Z" fill="#89a54e"/>
  <path d="M269.818 325.013 L382.298 325.013 L494.777 298.800 L607.257 246.373 L719.736 180.840 L832.216 154.627 L944.696 128.413 L1057.175 128.413 L1169.655 167.733 L1282.134 193.947 L1394.614 259.480 L1507.094 311.907" fill="none" stroke="#4572a7" stroke-width="5"/>
  <path d="M269.818 331.680 C266.136 331.680 263.151 328.695 263.151 325.013 C263.151 321.331 266.136 318.347 269.818 318.347 C273.500 318.347 276.485 321.331 276.485 325.013 C276.485 328.695 273.500 331.680 269.818 331.680 Z" fill="#4572a7"/>
  <path d="M382.298 331.680 C378.616 331.680 375.631 328.695 375.631 325.013 C375.631 321.331 378.616 318.347 382.298 318.347 C385.979 318.347 388.964 321.331 388.964 325.013 C388.964 328.695 385.979 331.680 382.298 331.680 Z" fill="#4572a7"/>
  <path d="M494.777 305.467 C491.095 305.467 488.110 302.482 488.110 298.800 C488.110 295.118 491.095 292.133 494.777 292.133 C498.459 292.133 501.444 295.118 501.444 298.800 C501.444 302.482 498.459 305.467 494.777 305.467 Z" fill="#4572a7"/>
  <path d="M607.257 253.040 C603.575 253.040 600.590 250.055 600.590 246.373 C600.590 242.691 603.575 239.707 607.257 239.707 C610.939 239.707 613.923 242.691 613.923 246.373 C613.923 250.055 610.939 253.040 607.257 253.040 Z" fill="#4572a7"/>
  <path d="M719.736 187.507 C716.054 187.507 713.070 184.522 713.070 180.840 C713.070 177.158 716.054 174.173 719.736 174.173 C723.418 174.173 726.403 177.158 726.403 180.840 C726.403 184.522 723.418 187.507 719.736 187.507 Z" fill="#4572a7"/>
  <path d="M832.216 161.293 C828.534 161.293 825.549 158.309 825.549 154.627 C825.549 150.945 828.534 147.960 832.216 147.960 C835.898 147.960 838.883 150.945 838.883 154.627 C838.883 158.309 835.898 161.293 832.216 161.293 Z" fill="#4572a7"/>
  <path d="M944.696 135.080 C941.014 135.080 938.029 132.095 938.029 128.413 C938.029 124.731 941.014 121.747 944.696 121.747 C948.377 121.747 951.362 124.731 951.362 128.413 C951.362 132.095 948.377 135.080 944.696 135.080 Z" fill="#4572a7"/>
  <path d="M1057.175 135.080 C1053.493 135.080 1050.508 132.095 1050.508 128.413 C1050.508 124.731 1053.493 121.747 1057.175 121.747 C1060.857 121.747 1063.842 124.731 1063.842 128.413 C1063.842 132.095 1060.857 135.080 1057.175 135.080 Z" fill="#4572a7"/>
  <path d="M1169.655 174.400 C1165.973 174.400 1162.988 171.415 1162.988 167.733 C1162.988 164.051 1165.973 161.067 1169.655 161.067 C1173.337 161.067 1176.321 164.051 1176.321 167.733 C1176.321 171.415 1173.337 174.400 1169.655 174.400 Z" fill="#4572a7"/>
  <path d="M1282.134 200.613 C1278.452 200.613 1275.468 197.629 1275.468 193.947 C1275.468 190.265 1278.452 187.280 1282.134 187.280 C1285.816 187.280 1288.801 190.265 1288.801 193.947 C1288.801 197.629 1285.816 200.613 1282.134 200.613 Z" fill="#4572a7"/>
  <path d="M1394.614 266.147 C1390.932 266.147 1387.947 263.162 1387.947 259.480 C1387.947 255.798 1390.932 252.813 1394.614 252.813 C1398.296 252.813 1401.281 255.798 1401.281 259.480 C1401.281 263.162 1398.296 266.147 1394.614 266.147 Z" fill="#4572a7"/>
  <path d="M1507.094 318.573 C1503.412 318.573 1500.427 315.589 1500.427 311.907 C1500.427 308.225 1503.412 305.240 1507.094 305.240 C1510.775 305.240 1513.760 308.225 1513.760 311.907 C1513.760 315.589 1510.775 318.573 1507.094 318.573 Z" fill="#4572a7"/>
  <path d="M642.018 640.167 L642.018 613.167 L647.284 613.167 L653.565 631.917 Q654.440 634.542 654.831 635.839 Q655.284 634.401 656.237 631.589 L662.581 613.167 L667.284 613.167 L667.284 640.167 L663.909 640.167 L663.909 616.167 L656.221 640.167 L653.049 640.167 L645.393 616.167 L645.393 640.167 L642.018 640.167 Z"/>
  <path d="M671.253 630.167 Q671.253 624.854 674.221 622.292 Q676.690 620.167 680.253 620.167 Q684.206 620.167 686.714 622.753 Q689.221 625.339 689.221 629.901 Q689.221 633.589 688.112 635.706 Q687.003 637.823 684.878 638.995 Q682.753 640.167 680.253 640.167 Q676.221 640.167 673.737 637.589 Q671.253 635.010 671.253 630.167 Z M674.596 630.151 Q674.596 633.667 676.206 635.417 Q677.815 637.167 680.253 637.167 Q682.659 637.167 684.268 635.409 Q685.878 633.651 685.878 630.057 Q685.878 626.667 684.260 624.917 Q682.643 623.167 680.253 623.167 Q677.815 623.167 676.206 624.909 Q674.596 626.651 674.596 630.151 Z"/>
  <path d="M705.565 633.167 L708.768 633.167 Q708.237 636.448 706.081 638.307 Q703.924 640.167 700.784 640.167 Q696.846 640.167 694.456 637.596 Q692.065 635.026 692.065 630.245 Q692.065 627.135 693.096 624.815 Q694.128 622.495 696.229 621.331 Q698.331 620.167 700.799 620.167 Q703.924 620.167 705.909 621.987 Q707.893 623.807 708.456 627.167 L705.299 627.167 Q704.846 625.182 703.698 624.174 Q702.549 623.167 700.924 623.167 Q698.471 623.167 696.932 624.846 Q695.393 626.526 695.393 630.151 Q695.393 633.823 696.878 635.495 Q698.362 637.167 700.737 637.167 Q702.659 637.167 703.940 636.182 Q705.221 635.198 705.565 633.167 Z"/>
  <path d="M711.378 620.167 L714.628 620.167 L714.628 629.167 Q716.174 629.167 716.799 628.518 Q717.424 627.870 718.643 624.760 Q719.596 622.292 720.190 621.503 Q720.784 620.714 721.565 620.440 Q722.346 620.167 724.049 620.167 L724.706 620.167 L724.706 623.182 L723.799 623.167 Q722.518 623.167 722.159 623.557 Q721.784 623.979 721.003 626.042 Q720.268 628.010 719.651 628.784 Q719.034 629.557 717.753 630.198 Q719.846 630.760 721.878 634.135 L725.440 640.167 L721.862 640.167 L718.393 634.182 Q717.331 632.339 716.534 631.753 Q715.737 631.167 714.628 631.167 L714.628 640.167 L711.378 640.167 L711.378 620.167 Z"/>
  <path d="M727.456 620.167 L734.956 620.167 Q737.721 620.167 739.065 620.628 Q740.409 621.089 741.378 622.323 Q742.346 623.557 742.346 625.292 Q742.346 626.667 741.776 627.698 Q741.206 628.729 740.065 629.417 Q741.424 629.901 742.323 631.237 Q743.221 632.573 743.221 634.385 Q743.034 637.323 741.268 638.745 Q739.503 640.167 736.112 640.167 L727.456 640.167 L727.456 620.167 Z M730.706 628.167 L734.174 628.167 Q736.253 628.167 737.026 627.964 Q737.799 627.760 738.417 627.151 Q739.034 626.542 739.034 625.682 Q739.034 624.276 737.956 623.721 Q736.878 623.167 734.284 623.167 L730.706 623.167 L730.706 628.167 Z M730.706 637.167 L734.987 637.167 Q737.768 637.167 738.799 636.503 Q739.831 635.839 739.878 634.198 Q739.878 633.229 739.284 632.417 Q738.690 631.604 737.729 631.385 Q736.768 631.167 734.643 631.167 L730.706 631.167 L730.706 637.167 Z"/>
  <path d="M759.237 638.167 Q757.440 639.260 755.768 639.714 Q754.096 640.167 752.190 640.167 Q749.018 640.167 747.323 638.573 Q745.628 636.979 745.628 634.510 Q745.628 633.057 746.268 631.854 Q746.909 630.651 747.948 629.924 Q748.987 629.198 750.284 628.823 Q751.237 628.557 753.174 628.323 Q757.112 627.839 758.971 627.167 Q758.987 626.604 758.987 626.448 Q758.987 624.776 758.065 624.089 Q756.815 623.167 754.362 623.167 Q752.065 623.167 750.979 623.831 Q749.893 624.495 749.362 626.167 L746.174 626.167 Q746.612 624.089 747.604 622.815 Q748.596 621.542 750.471 620.854 Q752.346 620.167 754.831 620.167 Q757.284 620.167 758.823 620.760 Q760.362 621.354 761.081 622.253 Q761.799 623.151 762.096 624.526 Q762.253 625.385 762.253 627.432 L762.253 631.510 Q762.253 635.792 762.464 637.292 Q762.674 638.792 763.284 640.167 L759.893 640.167 Q759.378 639.307 759.237 638.167 Z M758.971 630.167 Q757.206 630.839 753.659 631.307 Q751.659 631.573 750.831 631.917 Q750.003 632.260 749.549 632.901 Q749.096 633.542 749.096 634.339 Q749.096 635.557 750.081 636.362 Q751.065 637.167 752.956 637.167 Q754.846 637.167 756.307 636.354 Q757.768 635.542 758.456 634.229 Q758.971 633.229 758.971 631.260 L758.971 630.167 Z"/>
  <path d="M604.435 640.917 C596.841 640.917 590.685 634.761 590.685 627.167 C590.685 619.573 596.841 613.417 604.435 613.417 C612.029 613.417 618.185 619.573 618.185 627.167 C618.185 634.761 612.029 640.917 604.435 640.917 Z" fill="#89a54e"/>
  <path d="M872.326 637.167 L875.372 637.167 L875.372 640.167 L857.044 640.167 L857.044 637.167 L868.872 637.167 L868.872 630.385 Q868.872 627.604 868.279 626.214 Q867.685 624.823 866.122 623.995 Q864.560 623.167 861.247 623.167 Q860.076 623.167 857.622 623.167 L857.326 620.167 Q859.763 620.167 862.513 620.167 Q867.685 620.167 870.005 622.479 Q872.326 624.792 872.326 629.479 L872.326 637.167 Z"/>
  <path d="M882.341 620.167 L882.341 630.167 L878.810 630.167 L878.810 620.167 L882.341 620.167 Z"/>
  <path d="M901.247 637.167 L904.294 637.167 L904.294 640.167 L885.966 640.167 L885.966 637.167 L897.794 637.167 L897.794 630.385 Q897.794 627.604 897.201 626.214 Q896.607 624.823 895.044 623.995 Q893.482 623.167 890.169 623.167 Q888.997 623.167 886.544 623.167 L886.247 620.167 Q888.685 620.167 891.435 620.167 Q896.607 620.167 898.927 622.479 Q901.247 624.792 901.247 629.479 L901.247 637.167 Z"/>
  <path d="M924.779 640.167 L920.513 640.167 L913.185 629.682 Q911.497 630.620 911.185 633.448 L910.404 640.167 L906.826 640.167 L907.607 633.245 Q908.154 628.432 911.372 626.729 L906.904 620.167 L911.154 620.167 L917.294 629.135 Q918.404 628.354 918.849 627.385 Q919.294 626.417 919.544 624.182 L919.997 620.167 L923.576 620.167 L923.154 624.292 Q922.857 626.964 921.997 628.667 Q921.138 630.370 919.029 631.714 L924.779 640.167 Z"/>
  <path d=""/>
  <path d="M940.279 620.167 L950.904 620.167 L950.904 625.135 Q950.904 627.260 950.521 628.565 Q950.138 629.870 949.201 631.214 L948.232 632.573 Q946.763 634.620 946.763 636.964 L946.763 640.167 L943.310 640.167 L943.310 637.464 Q943.310 635.042 943.771 633.815 Q944.232 632.589 945.122 631.385 L946.201 629.964 Q946.997 628.901 947.224 628.049 Q947.451 627.198 947.451 625.870 L947.451 623.167 L936.841 623.167 L936.841 613.167 L940.279 613.167 L940.279 620.167 Z"/>
  <path d="M953.451 639.667 L954.044 636.667 Q954.982 637.167 956.091 637.167 Q957.341 637.167 957.810 636.604 Q958.279 636.042 958.279 634.573 L958.279 623.276 Q956.732 623.276 954.466 623.604 L954.154 620.698 Q958.279 620.167 962.529 620.167 Q966.826 620.167 969.138 620.909 Q971.451 621.651 972.669 623.643 Q973.888 625.635 973.888 629.479 L973.888 640.167 L970.435 640.167 L970.435 630.401 Q970.435 627.510 970.013 626.159 Q969.591 624.807 968.161 623.971 Q966.732 623.135 963.451 623.135 L961.716 623.167 L961.716 635.089 Q961.716 636.948 961.380 637.924 Q961.044 638.901 959.990 639.534 Q958.935 640.167 956.826 640.167 Q955.138 640.167 953.451 639.667 Z"/>
  <path d="M821.305 640.917 C813.711 640.917 807.555 634.761 807.555 627.167 C807.555 619.573 813.711 613.417 821.305 613.417 C828.899 613.417 835.055 619.573 835.055 627.167 C835.055 634.761 828.899 640.917 821.305 640.917 Z" fill="#4572a7"/>
  <path d="M1083.289 611.745 L1083.289 645.135 L1080.242 645.135 L1080.242 639.214 L1070.414 642.104 L1069.555 639.354 L1080.242 636.323 L1080.242 624.323 L1070.711 624.323 L1070.711 621.573 L1080.242 621.573 L1080.242 611.745 L1083.289 611.745 Z M1089.352 641.370 L1089.352 611.745 L1092.383 611.745 L1092.383 622.729 Q1097.445 621.292 1100.773 619.557 L1102.648 621.714 Q1097.742 624.182 1092.383 625.760 L1092.383 640.948 Q1092.383 641.964 1093.398 641.964 L1099.477 641.964 Q1100.633 641.964 1100.773 640.651 L1100.773 637.901 L1103.523 638.776 L1103.523 641.370 Q1103.523 644.698 1100.477 644.698 L1092.383 644.698 Q1089.352 644.698 1089.352 641.370 Z"/>
  <path d="M1124.586 611.745 L1124.586 615.214 L1138.883 615.214 L1138.883 617.964 L1107.383 617.964 L1107.383 615.214 L1121.539 615.214 L1121.539 611.745 L1124.586 611.745 Z M1133.977 620.995 L1133.977 632.417 L1125.164 632.417 L1125.164 641.667 Q1125.164 643.401 1124.008 644.339 Q1122.852 645.276 1118.508 645.276 L1117.211 642.245 L1119.805 642.245 Q1121.398 642.245 1121.758 642.026 Q1122.117 641.807 1122.117 640.510 L1122.117 632.417 L1112.727 632.417 L1112.727 620.995 L1133.977 620.995 Z M1130.945 623.745 L1115.758 623.745 L1115.758 629.667 L1130.945 629.667 L1130.945 623.745 Z M1114.758 634.010 L1117.211 636.026 Q1113.164 640.792 1108.820 643.698 L1106.664 641.370 Q1111.133 638.479 1114.758 634.010 Z M1129.492 636.323 L1131.523 634.292 Q1135.711 636.901 1139.617 641.370 L1137.445 643.260 Q1133.398 639.057 1129.492 636.323 Z"/>
  <path d="M1161.398 611.745 L1161.398 615.214 L1175.992 615.214 L1175.992 617.964 L1143.477 617.964 L1143.477 615.214 L1158.367 615.214 L1158.367 611.745 L1161.398 611.745 Z M1158.367 644.995 L1158.367 626.495 L1149.539 626.495 L1149.539 641.370 L1146.508 641.370 L1146.508 623.745 L1158.367 623.745 L1158.367 619.401 L1161.398 619.401 L1161.398 623.745 L1173.242 623.745 L1173.242 637.901 Q1173.242 639.354 1172.234 640.510 Q1171.227 641.667 1166.742 641.526 L1165.586 638.057 L1167.617 638.057 Q1169.352 638.057 1169.711 637.768 Q1170.070 637.479 1170.211 636.745 L1170.211 626.495 L1161.398 626.495 L1161.398 644.995 L1158.367 644.995 Z"/>
  <path d="M1033.128 640.917 C1025.534 640.917 1019.378 634.761 1019.378 627.167 C1019.378 619.573 1025.534 613.417 1033.128 613.417 C1040.722 613.417 1046.878 619.573 1046.878 627.167 C1046.878 634.761 1040.722 640.917 1033.128 640.917 Z" fill="#aa4643"/>
</svg>
