<?xml version="1.0" encoding="UTF-8" ?>
<!-- Generated by clip v0.7.0 (clip-lang.org) -->
<svg xmlns="http://www.w3.org/2000/svg" width="1600.000000" height="800.000000">
  <rect width="1600.000000" height="800.000000" fill="#ffffff" fill-opacity="1.000000"/>
  <path d="M36.6667 692 L1563.33 692 " fill="none" stroke-width="3.333333" stroke="#000000ff"/>
  <path d="M100.278 692 L100.278 678.667 " fill="none" stroke-width="3.333333" stroke="#000000ff"/>
  <path d="M227.5 692 L227.5 678.667 " fill="none" stroke-width="3.333333" stroke="#000000ff"/>
  <path d="M354.722 692 L354.722 678.667 " fill="none" stroke-width="3.333333" stroke="#000000ff"/>
  <path d="M481.944 692 L481.944 678.667 " fill="none" stroke-width="3.333333" stroke="#000000ff"/>
  <path d="M609.167 692 L609.167 678.667 " fill="none" stroke-width="3.333333" stroke="#000000ff"/>
  <path d="M736.389 692 L736.389 678.667 " fill="none" stroke-width="3.333333" stroke="#000000ff"/>
  <path d="M863.611 692 L863.611 678.667 " fill="none" stroke-width="3.333333" stroke="#000000ff"/>
  <path d="M990.833 692 L990.833 678.667 " fill="none" stroke-width="3.333333" stroke="#000000ff"/>
  <path d="M1118.06 692 L1118.06 678.667 " fill="none" stroke-width="3.333333" stroke="#000000ff"/>
  <path d="M1245.28 692 L1245.28 678.667 " fill="none" stroke-width="3.333333" stroke="#000000ff"/>
  <path d="M1372.5 692 L1372.5 678.667 " fill="none" stroke-width="3.333333" stroke="#000000ff"/>
  <path d="M1499.72 692 L1499.72 678.667 " fill="none" stroke-width="3.333333" stroke="#000000ff"/>
  <path d="M71.7778 747.74 L74.9497 747.333 Q75.0747 750.208 76.0903 751.271 Q77.1059 752.333 78.8872 752.333 Q80.1997 752.333 81.1606 751.724 Q82.1215 751.115 82.4809 750.068 Q82.8403 749.021 82.8403 746.724 L82.8403 728.333 L86.3403 728.333 L86.3403 746.427 Q86.3403 749.755 85.5356 751.583 Q84.7309 753.411 82.9887 754.372 Q81.2465 755.333 78.9028 755.333 Q75.4028 755.333 73.559 753.427 Q71.7153 751.521 71.7778 747.74 Z" fill="#000000" fill-opacity="1.000000"/>
  <path d="M104.012 753.333 Q102.215 754.427 100.543 754.88 Q98.8715 755.333 96.9653 755.333 Q93.7934 755.333 92.0981 753.74 Q90.4028 752.146 90.4028 749.677 Q90.4028 748.224 91.0434 747.021 Q91.684 745.818 92.7231 745.091 Q93.7622 744.365 95.059 743.99 Q96.0122 743.724 97.9497 743.49 Q101.887 743.005 103.747 742.333 Q103.762 741.771 103.762 741.615 Q103.762 739.943 102.84 739.255 Q101.59 738.333 99.1372 738.333 Q96.8403 738.333 95.7543 738.997 Q94.6684 739.661 94.1372 741.333 L90.9497 741.333 Q91.3872 739.255 92.3793 737.982 Q93.3715 736.708 95.2465 736.021 Q97.1215 735.333 99.6059 735.333 Q102.059 735.333 103.598 735.927 Q105.137 736.521 105.856 737.419 Q106.575 738.318 106.872 739.693 Q107.028 740.552 107.028 742.599 L107.028 746.677 Q107.028 750.958 107.239 752.458 Q107.45 753.958 108.059 755.333 L104.668 755.333 Q104.153 754.474 104.012 753.333 ZM103.747 745.333 Q101.981 746.005 98.434 746.474 Q96.434 746.74 95.6059 747.083 Q94.7778 747.427 94.3247 748.068 Q93.8715 748.708 93.8715 749.505 Q93.8715 750.724 94.8559 751.529 Q95.8403 752.333 97.7309 752.333 Q99.6215 752.333 101.082 751.521 Q102.543 750.708 103.231 749.396 Q103.747 748.396 103.747 746.427 L103.747 745.333 Z" fill="#000000" fill-opacity="1.000000"/>
  <path d="M111.887 755.333 L111.887 735.333 L114.809 735.333 L114.809 738.068 Q116.918 735.333 120.918 735.333 Q122.653 735.333 124.106 735.966 Q125.559 736.599 126.286 737.63 Q127.012 738.661 127.293 740.083 Q127.481 741.005 127.481 743.302 L127.481 755.333 L124.231 755.333 L124.231 743.521 Q124.231 741.521 123.848 740.521 Q123.465 739.521 122.504 738.927 Q121.543 738.333 120.231 738.333 Q118.153 738.333 116.645 739.669 Q115.137 741.005 115.137 744.74 L115.137 755.333 L111.887 755.333 Z" fill="#000000" fill-opacity="1.000000"/>
  <path d="M198.938 755.333 L198.938 728.333 L216.812 728.333 L216.812 731.333 L202.453 731.333 L202.453 740.333 L214.875 740.333 L214.875 743.333 L202.453 743.333 L202.453 755.333 L198.938 755.333 Z" fill="#000000" fill-opacity="1.000000"/>
  <path d="M233.891 749.333 L237.25 749.333 Q236.453 752.177 234.305 753.755 Q232.156 755.333 228.812 755.333 Q224.609 755.333 222.141 752.747 Q219.672 750.161 219.672 745.49 Q219.672 740.661 222.164 737.997 Q224.656 735.333 228.641 735.333 Q232.484 735.333 234.922 737.99 Q237.359 740.646 237.359 745.458 Q237.359 745.755 237.344 746.333 L223.031 746.333 Q223.219 749.24 224.82 750.786 Q226.422 752.333 228.828 752.333 Q230.625 752.333 231.891 751.615 Q233.156 750.896 233.891 749.333 ZM223.203 743.333 L233.922 743.333 Q233.703 741.13 232.688 740.036 Q231.141 738.333 228.656 738.333 Q226.422 738.333 224.891 739.693 Q223.359 741.052 223.203 743.333 Z" fill="#000000" fill-opacity="1.000000"/>
  <path d="M244.141 755.333 L241.125 755.333 L241.125 728.333 L244.375 728.333 L244.375 738.24 Q246.438 735.333 249.641 735.333 Q251.406 735.333 252.984 736.044 Q254.562 736.755 255.586 738.044 Q256.609 739.333 257.188 741.154 Q257.766 742.974 257.766 745.052 Q257.766 749.958 255.328 752.646 Q252.891 755.333 249.469 755.333 Q246.078 755.333 244.141 752.146 L244.141 755.333 ZM244.109 745.193 Q244.109 748.474 245.047 749.943 Q246.578 752.333 249.203 752.333 Q251.328 752.333 252.883 750.568 Q254.438 748.802 254.438 745.318 Q254.438 741.74 252.945 740.036 Q251.453 738.333 249.344 738.333 Q247.219 738.333 245.664 740.099 Q244.109 741.865 244.109 745.193 Z" fill="#000000" fill-opacity="1.000000"/>
  <path d="M325.894 755.333 L325.894 728.333 L331.16 728.333 L337.441 747.083 Q338.316 749.708 338.707 751.005 Q339.16 749.568 340.113 746.755 L346.457 728.333 L351.16 728.333 L351.16 755.333 L347.785 755.333 L347.785 731.333 L340.097 755.333 L336.925 755.333 L329.269 731.333 L329.269 755.333 L325.894 755.333 Z" fill="#000000" fill-opacity="1.000000"/>
  <path d="M368.644 753.333 Q366.847 754.427 365.175 754.88 Q363.503 755.333 361.597 755.333 Q358.425 755.333 356.73 753.74 Q355.035 752.146 355.035 749.677 Q355.035 748.224 355.675 747.021 Q356.316 745.818 357.355 745.091 Q358.394 744.365 359.691 743.99 Q360.644 743.724 362.582 743.49 Q366.519 743.005 368.378 742.333 Q368.394 741.771 368.394 741.615 Q368.394 739.943 367.472 739.255 Q366.222 738.333 363.769 738.333 Q361.472 738.333 360.386 738.997 Q359.3 739.661 358.769 741.333 L355.582 741.333 Q356.019 739.255 357.011 737.982 Q358.003 736.708 359.878 736.021 Q361.753 735.333 364.238 735.333 Q366.691 735.333 368.23 735.927 Q369.769 736.521 370.488 737.419 Q371.207 738.318 371.503 739.693 Q371.66 740.552 371.66 742.599 L371.66 746.677 Q371.66 750.958 371.871 752.458 Q372.082 753.958 372.691 755.333 L369.3 755.333 Q368.785 754.474 368.644 753.333 ZM368.378 745.333 Q366.613 746.005 363.066 746.474 Q361.066 746.74 360.238 747.083 Q359.41 747.427 358.957 748.068 Q358.503 748.708 358.503 749.505 Q358.503 750.724 359.488 751.529 Q360.472 752.333 362.363 752.333 Q364.253 752.333 365.714 751.521 Q367.175 750.708 367.863 749.396 Q368.378 748.396 368.378 746.427 L368.378 745.333 Z" fill="#000000" fill-opacity="1.000000"/>
  <path d="M376.488 755.333 L376.488 735.333 L379.41 735.333 L379.41 738.318 Q380.535 736.49 381.48 735.911 Q382.425 735.333 383.566 735.333 Q385.207 735.333 386.91 735.958 L385.785 738.974 Q384.597 738.333 383.41 738.333 Q382.347 738.333 381.496 739.005 Q380.644 739.677 380.285 740.865 Q379.738 742.677 379.738 744.833 L379.738 755.333 L376.488 755.333 Z" fill="#000000" fill-opacity="1.000000"/>
  <path d="M453.366 755.333 L463.538 728.333 L467.304 728.333 L478.148 755.333 L474.148 755.333 L471.069 747.333 L459.991 747.333 L457.085 755.333 L453.366 755.333 ZM461.007 744.333 L469.976 744.333 L467.21 737.036 Q465.944 733.693 465.335 731.333 Q464.835 734.036 463.913 736.568 L461.007 744.333 Z" fill="#000000" fill-opacity="1.000000"/>
  <path d="M480.304 762.333 L480.304 735.333 L483.273 735.333 L483.273 738.693 Q484.319 737.005 485.64 736.169 Q486.96 735.333 488.835 735.333 Q491.288 735.333 493.163 736.591 Q495.038 737.849 495.999 740.146 Q496.96 742.443 496.96 745.193 Q496.96 748.13 495.905 750.482 Q494.851 752.833 492.835 754.083 Q490.819 755.333 488.601 755.333 Q486.976 755.333 485.679 754.56 Q484.382 753.786 483.554 752.615 L483.554 762.333 L480.304 762.333 ZM483.257 745.49 Q483.257 748.99 484.757 750.661 Q486.257 752.333 488.382 752.333 Q490.554 752.333 492.093 750.599 Q493.632 748.865 493.632 745.24 Q493.632 741.771 492.124 740.052 Q490.616 738.333 488.523 738.333 Q486.444 738.333 484.851 740.169 Q483.257 742.005 483.257 745.49 Z" fill="#000000" fill-opacity="1.000000"/>
  <path d="M500.663 755.333 L500.663 735.333 L503.585 735.333 L503.585 738.318 Q504.71 736.49 505.655 735.911 Q506.601 735.333 507.741 735.333 Q509.382 735.333 511.085 735.958 L509.96 738.974 Q508.773 738.333 507.585 738.333 Q506.523 738.333 505.671 739.005 Q504.819 739.677 504.46 740.865 Q503.913 742.677 503.913 744.833 L503.913 755.333 L500.663 755.333 Z" fill="#000000" fill-opacity="1.000000"/>
  <path d="M577.276 755.333 L577.276 728.333 L582.542 728.333 L588.823 747.083 Q589.698 749.708 590.089 751.005 Q590.542 749.568 591.495 746.755 L597.839 728.333 L602.542 728.333 L602.542 755.333 L599.167 755.333 L599.167 731.333 L591.479 755.333 L588.307 755.333 L580.651 731.333 L580.651 755.333 L577.276 755.333 Z" fill="#000000" fill-opacity="1.000000"/>
  <path d="M620.026 753.333 Q618.229 754.427 616.557 754.88 Q614.885 755.333 612.979 755.333 Q609.807 755.333 608.112 753.74 Q606.417 752.146 606.417 749.677 Q606.417 748.224 607.057 747.021 Q607.698 745.818 608.737 745.091 Q609.776 744.365 611.073 743.99 Q612.026 743.724 613.964 743.49 Q617.901 743.005 619.76 742.333 Q619.776 741.771 619.776 741.615 Q619.776 739.943 618.854 739.255 Q617.604 738.333 615.151 738.333 Q612.854 738.333 611.768 738.997 Q610.682 739.661 610.151 741.333 L606.964 741.333 Q607.401 739.255 608.393 737.982 Q609.385 736.708 611.26 736.021 Q613.135 735.333 615.62 735.333 Q618.073 735.333 619.612 735.927 Q621.151 736.521 621.87 737.419 Q622.589 738.318 622.885 739.693 Q623.042 740.552 623.042 742.599 L623.042 746.677 Q623.042 750.958 623.253 752.458 Q623.464 753.958 624.073 755.333 L620.682 755.333 Q620.167 754.474 620.026 753.333 ZM619.76 745.333 Q617.995 746.005 614.448 746.474 Q612.448 746.74 611.62 747.083 Q610.792 747.427 610.339 748.068 Q609.885 748.708 609.885 749.505 Q609.885 750.724 610.87 751.529 Q611.854 752.333 613.745 752.333 Q615.635 752.333 617.096 751.521 Q618.557 750.708 619.245 749.396 Q619.76 748.396 619.76 746.427 L619.76 745.333 Z" fill="#000000" fill-opacity="1.000000"/>
  <path d="M627.76 761.958 L627.401 759.052 Q628.464 759.333 629.26 759.333 Q630.339 759.333 630.987 758.966 Q631.635 758.599 632.057 757.943 Q632.37 757.458 633.057 755.505 Q633.135 755.24 633.339 754.708 L626.057 735.333 L629.557 735.333 L633.557 746.396 Q634.339 748.505 634.948 750.818 Q635.51 749.427 636.292 747.286 L640.385 735.333 L643.635 735.333 L636.339 755.708 Q635.167 758.521 634.51 759.568 Q633.651 761.005 632.526 761.669 Q631.401 762.333 629.854 762.333 Q628.917 762.333 627.76 761.958 Z" fill="#000000" fill-opacity="1.000000"/>
  <path d="M707.889 747.74 L711.061 747.333 Q711.186 750.208 712.201 751.271 Q713.217 752.333 714.998 752.333 Q716.311 752.333 717.272 751.724 Q718.233 751.115 718.592 750.068 Q718.951 749.021 718.951 746.724 L718.951 728.333 L722.451 728.333 L722.451 746.427 Q722.451 749.755 721.647 751.583 Q720.842 753.411 719.1 754.372 Q717.358 755.333 715.014 755.333 Q711.514 755.333 709.67 753.427 Q707.826 751.521 707.889 747.74 Z" fill="#000000" fill-opacity="1.000000"/>
  <path d="M740.186 755.333 L740.186 751.88 Q737.951 755.333 734.092 755.333 Q732.389 755.333 730.92 754.669 Q729.451 754.005 728.733 753.005 Q728.014 752.005 727.733 750.552 Q727.53 749.568 727.53 747.458 L727.53 735.333 L730.795 735.333 L730.795 746.083 Q730.795 748.661 730.998 749.552 Q731.295 750.849 732.295 751.591 Q733.295 752.333 734.748 752.333 Q736.217 752.333 737.498 751.576 Q738.78 750.818 739.311 749.513 Q739.842 748.208 739.842 745.724 L739.842 735.333 L743.092 735.333 L743.092 755.333 L740.186 755.333 Z" fill="#000000" fill-opacity="1.000000"/>
  <path d="M747.998 755.333 L747.998 735.333 L750.92 735.333 L750.92 738.068 Q753.03 735.333 757.03 735.333 Q758.764 735.333 760.217 735.966 Q761.67 736.599 762.397 737.63 Q763.123 738.661 763.405 740.083 Q763.592 741.005 763.592 743.302 L763.592 755.333 L760.342 755.333 L760.342 743.521 Q760.342 741.521 759.959 740.521 Q759.576 739.521 758.615 738.927 Q757.655 738.333 756.342 738.333 Q754.264 738.333 752.756 739.669 Q751.248 741.005 751.248 744.74 L751.248 755.333 L747.998 755.333 Z" fill="#000000" fill-opacity="1.000000"/>
  <path d="M841.236 747.74 L844.408 747.333 Q844.533 750.208 845.549 751.271 Q846.564 752.333 848.345 752.333 Q849.658 752.333 850.619 751.724 Q851.58 751.115 851.939 750.068 Q852.299 749.021 852.299 746.724 L852.299 728.333 L855.799 728.333 L855.799 746.427 Q855.799 749.755 854.994 751.583 Q854.189 753.411 852.447 754.372 Q850.705 755.333 848.361 755.333 Q844.861 755.333 843.017 753.427 Q841.174 751.521 841.236 747.74 Z" fill="#000000" fill-opacity="1.000000"/>
  <path d="M873.533 755.333 L873.533 751.88 Q871.299 755.333 867.439 755.333 Q865.736 755.333 864.267 754.669 Q862.799 754.005 862.08 753.005 Q861.361 752.005 861.08 750.552 Q860.877 749.568 860.877 747.458 L860.877 735.333 L864.142 735.333 L864.142 746.083 Q864.142 748.661 864.345 749.552 Q864.642 750.849 865.642 751.591 Q866.642 752.333 868.095 752.333 Q869.564 752.333 870.845 751.576 Q872.127 750.818 872.658 749.513 Q873.189 748.208 873.189 745.724 L873.189 735.333 L876.439 735.333 L876.439 755.333 L873.533 755.333 Z" fill="#000000" fill-opacity="1.000000"/>
  <path d="M881.267 755.333 L881.267 728.333 L884.533 728.333 L884.533 755.333 L881.267 755.333 Z" fill="#000000" fill-opacity="1.000000"/>
  <path d="M958.169 755.333 L968.341 728.333 L972.107 728.333 L982.951 755.333 L978.951 755.333 L975.872 747.333 L964.794 747.333 L961.888 755.333 L958.169 755.333 ZM965.81 744.333 L974.779 744.333 L972.013 737.036 Q970.747 733.693 970.138 731.333 Q969.638 734.036 968.716 736.568 L965.81 744.333 Z" fill="#000000" fill-opacity="1.000000"/>
  <path d="M997.685 755.333 L997.685 751.88 Q995.451 755.333 991.591 755.333 Q989.888 755.333 988.419 754.669 Q986.951 754.005 986.232 753.005 Q985.513 752.005 985.232 750.552 Q985.029 749.568 985.029 747.458 L985.029 735.333 L988.294 735.333 L988.294 746.083 Q988.294 748.661 988.497 749.552 Q988.794 750.849 989.794 751.591 Q990.794 752.333 992.247 752.333 Q993.716 752.333 994.997 751.576 Q996.279 750.818 996.81 749.513 Q997.341 748.208 997.341 745.724 L997.341 735.333 L1000.59 735.333 L1000.59 755.333 L997.685 755.333 Z" fill="#000000" fill-opacity="1.000000"/>
  <path d="M1004.9 756.333 L1008.06 756.333 Q1008.26 757.786 1009.17 758.443 Q1010.37 759.333 1012.47 759.333 Q1014.73 759.333 1015.96 758.622 Q1017.18 757.911 1017.62 756.63 Q1017.87 755.849 1017.86 753.333 Q1015.73 755.333 1012.54 755.333 Q1008.59 755.333 1006.42 752.427 Q1004.25 749.521 1004.25 745.443 Q1004.25 742.646 1005.24 740.279 Q1006.23 737.911 1008.12 736.622 Q1010.01 735.333 1012.56 735.333 Q1015.97 735.333 1018.17 738.333 L1018.17 735.333 L1021.17 735.333 L1021.17 751.927 Q1021.17 756.427 1020.26 758.294 Q1019.34 760.161 1017.36 761.247 Q1015.39 762.333 1012.5 762.333 Q1009.06 762.333 1006.94 760.841 Q1004.83 759.349 1004.9 756.333 ZM1007.59 745.208 Q1007.59 748.927 1009.09 750.63 Q1010.59 752.333 1012.84 752.333 Q1015.09 752.333 1016.61 750.638 Q1018.12 748.943 1018.12 745.318 Q1018.12 741.849 1016.56 740.091 Q1015 738.333 1012.79 738.333 Q1010.62 738.333 1009.11 740.068 Q1007.59 741.802 1007.59 745.208 Z" fill="#000000" fill-opacity="1.000000"/>
  <path d="M1087.09 746.333 L1090.41 746.333 Q1090.64 748.286 1091.5 749.536 Q1092.36 750.786 1094.16 751.56 Q1095.97 752.333 1098.24 752.333 Q1100.24 752.333 1101.77 751.747 Q1103.31 751.161 1104.06 750.138 Q1104.81 749.115 1104.81 747.896 Q1104.81 746.646 1104.09 745.716 Q1103.36 744.786 1101.69 744.161 Q1100.63 743.74 1096.98 742.872 Q1093.33 742.005 1091.86 741.24 Q1089.97 740.255 1089.04 738.802 Q1088.11 737.349 1088.11 735.536 Q1088.11 733.568 1089.25 731.841 Q1090.39 730.115 1092.58 729.224 Q1094.77 728.333 1097.44 728.333 Q1100.38 728.333 1102.63 729.294 Q1104.88 730.255 1106.09 732.115 Q1107.3 733.974 1107.39 736.333 L1104.03 736.333 Q1103.77 733.865 1102.2 732.599 Q1100.63 731.333 1097.58 731.333 Q1094.39 731.333 1092.94 732.49 Q1091.49 733.646 1091.49 735.271 Q1091.49 736.693 1092.52 737.599 Q1093.53 738.521 1097.81 739.482 Q1102.08 740.443 1103.67 741.161 Q1105.99 742.208 1107.09 743.818 Q1108.19 745.427 1108.19 747.521 Q1108.19 749.599 1106.98 751.443 Q1105.77 753.286 1103.5 754.31 Q1101.24 755.333 1098.39 755.333 Q1094.8 755.333 1092.37 754.279 Q1089.94 753.224 1088.56 751.115 Q1087.17 749.005 1087.09 746.333 Z" fill="#000000" fill-opacity="1.000000"/>
  <path d="M1125.47 749.333 L1128.83 749.333 Q1128.03 752.177 1125.88 753.755 Q1123.74 755.333 1120.39 755.333 Q1116.19 755.333 1113.72 752.747 Q1111.25 750.161 1111.25 745.49 Q1111.25 740.661 1113.74 737.997 Q1116.24 735.333 1120.22 735.333 Q1124.06 735.333 1126.5 737.99 Q1128.94 740.646 1128.94 745.458 Q1128.94 745.755 1128.92 746.333 L1114.61 746.333 Q1114.8 749.24 1116.4 750.786 Q1118 752.333 1120.41 752.333 Q1122.2 752.333 1123.47 751.615 Q1124.74 750.896 1125.47 749.333 ZM1114.78 743.333 L1125.5 743.333 Q1125.28 741.13 1124.27 740.036 Q1122.72 738.333 1120.24 738.333 Q1118 738.333 1116.47 739.693 Q1114.94 741.052 1114.78 743.333 Z" fill="#000000" fill-opacity="1.000000"/>
  <path d="M1132.72 762.333 L1132.72 735.333 L1135.69 735.333 L1135.69 738.693 Q1136.74 737.005 1138.06 736.169 Q1139.38 735.333 1141.25 735.333 Q1143.7 735.333 1145.58 736.591 Q1147.45 737.849 1148.41 740.146 Q1149.38 742.443 1149.38 745.193 Q1149.38 748.13 1148.32 750.482 Q1147.27 752.833 1145.25 754.083 Q1143.24 755.333 1141.02 755.333 Q1139.39 755.333 1138.09 754.56 Q1136.8 753.786 1135.97 752.615 L1135.97 762.333 L1132.72 762.333 ZM1135.67 745.49 Q1135.67 748.99 1137.17 750.661 Q1138.67 752.333 1140.8 752.333 Q1142.97 752.333 1144.51 750.599 Q1146.05 748.865 1146.05 745.24 Q1146.05 741.771 1144.54 740.052 Q1143.03 738.333 1140.94 738.333 Q1138.86 738.333 1137.27 740.169 Q1135.67 742.005 1135.67 745.49 Z" fill="#000000" fill-opacity="1.000000"/>
  <path d="M1218.53 742.177 Q1218.53 735.677 1222.07 732.005 Q1225.62 728.333 1231.22 728.333 Q1234.89 728.333 1237.83 730.06 Q1240.78 731.786 1242.32 734.872 Q1243.87 737.958 1243.87 741.88 Q1243.87 745.849 1242.25 748.982 Q1240.62 752.115 1237.64 753.724 Q1234.65 755.333 1231.2 755.333 Q1227.47 755.333 1224.51 753.552 Q1221.56 751.771 1220.04 748.693 Q1218.53 745.615 1218.53 742.177 ZM1222.15 742.224 Q1222.15 746.927 1224.72 749.63 Q1227.29 752.333 1231.18 752.333 Q1235.14 752.333 1237.69 749.599 Q1240.25 746.865 1240.25 741.849 Q1240.25 738.677 1239.15 736.31 Q1238.06 733.943 1235.96 732.638 Q1233.86 731.333 1231.23 731.333 Q1227.51 731.333 1224.83 733.841 Q1222.15 736.349 1222.15 742.224 Z" fill="#000000" fill-opacity="1.000000"/>
  <path d="M1260.23 748.333 L1263.43 748.333 Q1262.9 751.615 1260.75 753.474 Q1258.59 755.333 1255.45 755.333 Q1251.51 755.333 1249.12 752.763 Q1246.73 750.193 1246.73 745.411 Q1246.73 742.302 1247.76 739.982 Q1248.79 737.661 1250.89 736.497 Q1253 735.333 1255.47 735.333 Q1258.59 735.333 1260.57 737.154 Q1262.56 738.974 1263.12 742.333 L1259.97 742.333 Q1259.51 740.349 1258.36 739.341 Q1257.22 738.333 1255.59 738.333 Q1253.14 738.333 1251.6 740.013 Q1250.06 741.693 1250.06 745.318 Q1250.06 748.99 1251.54 750.661 Q1253.03 752.333 1255.4 752.333 Q1257.32 752.333 1258.61 751.349 Q1259.89 750.365 1260.23 748.333 Z" fill="#000000" fill-opacity="1.000000"/>
  <path d="M1273.17 752.177 L1273.64 755.052 Q1272.26 755.333 1271.18 755.333 Q1269.4 755.333 1268.43 754.771 Q1267.45 754.208 1267.05 753.294 Q1266.65 752.38 1266.65 749.427 L1266.65 738.333 L1264.28 738.333 L1264.28 735.333 L1266.65 735.333 L1266.65 730.583 L1269.89 728.63 L1269.89 735.333 L1273.17 735.333 L1273.17 738.333 L1269.89 738.333 L1269.89 749.646 Q1269.89 751.052 1270.06 751.458 Q1270.23 751.865 1270.62 752.099 Q1271.01 752.333 1271.73 752.333 Q1272.28 752.333 1273.17 752.177 Z" fill="#000000" fill-opacity="1.000000"/>
  <path d="M1342.7 755.333 L1342.7 728.333 L1346.3 728.333 L1360.22 750.474 L1360.22 728.333 L1363.58 728.333 L1363.58 755.333 L1359.98 755.333 L1346.06 733.208 L1346.06 755.333 L1342.7 755.333 Z" fill="#000000" fill-opacity="1.000000"/>
  <path d="M1367.61 745.333 Q1367.61 740.021 1370.58 737.458 Q1373.05 735.333 1376.61 735.333 Q1380.56 735.333 1383.07 737.919 Q1385.58 740.505 1385.58 745.068 Q1385.58 748.755 1384.47 750.872 Q1383.36 752.99 1381.23 754.161 Q1379.11 755.333 1376.61 755.333 Q1372.58 755.333 1370.09 752.755 Q1367.61 750.177 1367.61 745.333 ZM1370.95 745.318 Q1370.95 748.833 1372.56 750.583 Q1374.17 752.333 1376.61 752.333 Q1379.02 752.333 1380.63 750.576 Q1382.23 748.818 1382.23 745.224 Q1382.23 741.833 1380.62 740.083 Q1379 738.333 1376.61 738.333 Q1374.17 738.333 1372.56 740.076 Q1370.95 741.818 1370.95 745.318 Z" fill="#000000" fill-opacity="1.000000"/>
  <path d="M1394.53 755.333 L1387.23 735.333 L1390.67 735.333 L1394.78 747.302 Q1395.45 749.24 1396.02 751.333 Q1396.45 749.755 1397.22 747.536 L1401.48 735.333 L1404.83 735.333 L1397.56 755.333 L1394.53 755.333 Z" fill="#000000" fill-opacity="1.000000"/>
  <path d="M1469.97 755.333 L1469.97 728.333 L1479.1 728.333 Q1482.18 728.333 1483.8 728.724 Q1486.08 729.255 1487.69 730.661 Q1489.78 732.458 1490.82 735.271 Q1491.86 738.083 1491.86 741.693 Q1491.86 744.755 1491.16 747.138 Q1490.46 749.521 1489.36 751.076 Q1488.25 752.63 1486.94 753.521 Q1485.63 754.411 1483.78 754.872 Q1481.93 755.333 1479.52 755.333 L1469.97 755.333 ZM1473.47 752.333 L1479.13 752.333 Q1481.75 752.333 1483.24 751.826 Q1484.72 751.318 1485.61 750.396 Q1486.86 749.115 1487.56 746.927 Q1488.25 744.74 1488.25 741.63 Q1488.25 737.318 1486.89 734.997 Q1485.52 732.677 1483.57 731.896 Q1482.16 731.333 1479.03 731.333 L1473.47 731.333 L1473.47 752.333 Z" fill="#000000" fill-opacity="1.000000"/>
  <path d="M1509.18 749.333 L1512.53 749.333 Q1511.74 752.177 1509.59 753.755 Q1507.44 755.333 1504.1 755.333 Q1499.89 755.333 1497.43 752.747 Q1494.96 750.161 1494.96 745.49 Q1494.96 740.661 1497.45 737.997 Q1499.94 735.333 1503.93 735.333 Q1507.77 735.333 1510.21 737.99 Q1512.64 740.646 1512.64 745.458 Q1512.64 745.755 1512.63 746.333 L1498.32 746.333 Q1498.5 749.24 1500.11 750.786 Q1501.71 752.333 1504.11 752.333 Q1505.91 752.333 1507.18 751.615 Q1508.44 750.896 1509.18 749.333 ZM1498.49 743.333 L1509.21 743.333 Q1508.99 741.13 1507.97 740.036 Q1506.43 738.333 1503.94 738.333 Q1501.71 738.333 1500.18 739.693 Q1498.64 741.052 1498.49 743.333 Z" fill="#000000" fill-opacity="1.000000"/>
  <path d="M1528.94 748.333 L1532.14 748.333 Q1531.61 751.615 1529.46 753.474 Q1527.3 755.333 1524.16 755.333 Q1520.22 755.333 1517.83 752.763 Q1515.44 750.193 1515.44 745.411 Q1515.44 742.302 1516.47 739.982 Q1517.5 737.661 1519.61 736.497 Q1521.71 735.333 1524.18 735.333 Q1527.3 735.333 1529.28 737.154 Q1531.27 738.974 1531.83 742.333 L1528.68 742.333 Q1528.22 740.349 1527.07 739.341 Q1525.93 738.333 1524.3 738.333 Q1521.85 738.333 1520.31 740.013 Q1518.77 741.693 1518.77 745.318 Q1518.77 748.99 1520.25 750.661 Q1521.74 752.333 1524.11 752.333 Q1526.03 752.333 1527.32 751.349 Q1528.6 750.365 1528.94 748.333 Z" fill="#000000" fill-opacity="1.000000"/>
  <path d="M100.278 589.768 L227.5 581.904 L354.722 542.584 L481.944 469.187 L609.167 380.061 L736.389 293.557 L863.611 246.373 L990.833 256.859 L1118.06 319.771 L1245.28 422.003 L1372.5 518.992 L1499.72 566.176 " fill="none" stroke-width="5.000000" stroke="#4572a7ff"/>
  <path d="M100.278 598.101 C95.6754 598.101 91.9444 594.37 91.9444 589.768 C91.9444 585.166 95.6754 581.435 100.278 581.435 C104.88 581.435 108.611 585.166 108.611 589.768 C108.611 594.37 104.88 598.101 100.278 598.101 Z" fill="#4572a7" fill-opacity="1.000000"/>
  <path d="M227.5 590.237 C222.898 590.237 219.167 586.506 219.167 581.904 C219.167 577.302 222.898 573.571 227.5 573.571 C232.102 573.571 235.833 577.302 235.833 581.904 C235.833 586.506 232.102 590.237 227.5 590.237 Z" fill="#4572a7" fill-opacity="1.000000"/>
  <path d="M354.722 550.917 C350.12 550.917 346.389 547.186 346.389 542.584 C346.389 537.982 350.12 534.251 354.722 534.251 C359.325 534.251 363.056 537.982 363.056 542.584 C363.056 547.186 359.325 550.917 354.722 550.917 Z" fill="#4572a7" fill-opacity="1.000000"/>
  <path d="M481.944 477.52 C477.342 477.52 473.611 473.789 473.611 469.187 C473.611 464.584 477.342 460.853 481.944 460.853 C486.547 460.853 490.278 464.584 490.278 469.187 C490.278 473.789 486.547 477.52 481.944 477.52 Z" fill="#4572a7" fill-opacity="1.000000"/>
  <path d="M609.167 388.395 C604.564 388.395 600.833 384.664 600.833 380.061 C600.833 375.459 604.564 371.728 609.167 371.728 C613.769 371.728 617.5 375.459 617.5 380.061 C617.5 384.664 613.769 388.395 609.167 388.395 Z" fill="#4572a7" fill-opacity="1.000000"/>
  <path d="M736.389 301.891 C731.787 301.891 728.056 298.16 728.056 293.557 C728.056 288.955 731.787 285.224 736.389 285.224 C740.991 285.224 744.722 288.955 744.722 293.557 C744.722 298.16 740.991 301.891 736.389 301.891 Z" fill="#4572a7" fill-opacity="1.000000"/>
  <path d="M863.611 254.707 C859.009 254.707 855.278 250.976 855.278 246.373 C855.278 241.771 859.009 238.04 863.611 238.04 C868.213 238.04 871.944 241.771 871.944 246.373 C871.944 250.976 868.213 254.707 863.611 254.707 Z" fill="#4572a7" fill-opacity="1.000000"/>
  <path d="M990.833 265.192 C986.231 265.192 982.5 261.461 982.5 256.859 C982.5 252.256 986.231 248.525 990.833 248.525 C995.436 248.525 999.167 252.256 999.167 256.859 C999.167 261.461 995.436 265.192 990.833 265.192 Z" fill="#4572a7" fill-opacity="1.000000"/>
  <path d="M1118.06 328.104 C1113.45 328.104 1109.72 324.373 1109.72 319.771 C1109.72 315.168 1113.45 311.437 1118.06 311.437 C1122.66 311.437 1126.39 315.168 1126.39 319.771 C1126.39 324.373 1122.66 328.104 1118.06 328.104 Z" fill="#4572a7" fill-opacity="1.000000"/>
  <path d="M1245.28 430.336 C1240.68 430.336 1236.94 426.605 1236.94 422.003 C1236.94 417.4 1240.68 413.669 1245.28 413.669 C1249.88 413.669 1253.61 417.4 1253.61 422.003 C1253.61 426.605 1249.88 430.336 1245.28 430.336 Z" fill="#4572a7" fill-opacity="1.000000"/>
  <path d="M1372.5 527.325 C1367.9 527.325 1364.17 523.594 1364.17 518.992 C1364.17 514.39 1367.9 510.659 1372.5 510.659 C1377.1 510.659 1380.83 514.39 1380.83 518.992 C1380.83 523.594 1377.1 527.325 1372.5 527.325 Z" fill="#4572a7" fill-opacity="1.000000"/>
  <path d="M1499.72 574.509 C1495.12 574.509 1491.39 570.778 1491.39 566.176 C1491.39 561.574 1495.12 557.843 1499.72 557.843 C1504.32 557.843 1508.06 561.574 1508.06 566.176 C1508.06 570.778 1504.32 574.509 1499.72 574.509 Z" fill="#4572a7" fill-opacity="1.000000"/>
  <path d="M59.809 544.768 L62.6997 544.768 Q63.1997 546.893 64.4028 547.831 Q65.6059 548.768 67.3247 548.768 Q69.3715 548.768 70.7856 547.377 Q72.1997 545.987 72.1997 543.94 Q72.1997 541.987 70.895 540.721 Q69.5903 539.456 67.5747 539.456 Q66.7465 539.456 65.5278 539.768 L65.8403 536.768 Q66.1372 536.799 66.309 536.799 Q68.1684 536.799 69.6528 536.034 Q71.1372 535.268 71.1372 533.674 Q71.1372 532.424 70.059 531.596 Q68.9809 530.768 67.2622 530.768 Q65.5747 530.768 64.4497 531.518 Q63.3247 532.268 62.9965 533.768 L60.0903 533.768 Q60.6215 530.909 62.5043 529.338 Q64.3872 527.768 67.1997 527.768 Q69.1215 527.768 70.7543 528.534 Q72.3872 529.299 73.2465 530.627 Q74.1059 531.956 74.1059 533.44 Q74.1059 534.862 73.2856 536.018 Q72.4653 537.174 70.8559 537.862 Q72.9497 538.377 74.1137 539.979 Q75.2778 541.581 75.2778 543.987 Q75.2778 547.237 73.02 549.502 Q70.7622 551.768 67.3247 551.768 Q64.2153 551.768 62.1606 549.823 Q60.1059 547.877 59.809 544.768 Z" fill="#000000" fill-opacity="1.000000"/>
  <path d="M79.9497 551.768 L79.9497 548.768 L83.2465 548.768 L83.2465 551.768 L79.9497 551.768 Z" fill="#000000" fill-opacity="1.000000"/>
  <path d="M88.0278 545.768 L90.809 545.768 Q91.1684 547.346 92.1684 548.057 Q93.1684 548.768 94.7153 548.768 Q96.059 548.768 97.0668 548.26 Q98.0747 547.752 98.7153 546.901 Q99.3559 546.049 99.7934 544.549 Q100.231 543.049 100.231 541.252 Q100.231 541.049 100.215 540.659 Q99.3403 542.049 97.8403 542.909 Q96.3403 543.768 94.5747 543.768 Q91.6528 543.768 89.6215 541.604 Q87.5903 539.44 87.5903 535.893 Q87.5903 532.237 89.7075 530.002 Q91.8247 527.768 95.0122 527.768 Q97.3247 527.768 99.2309 529.002 Q101.137 530.237 102.129 532.518 Q103.122 534.799 103.122 539.127 Q103.122 543.643 102.137 546.307 Q101.153 548.971 99.2153 550.37 Q97.2778 551.768 94.6684 551.768 Q91.8872 551.768 90.1372 550.198 Q88.3872 548.627 88.0278 545.768 ZM99.9028 535.815 Q99.9028 533.502 98.5747 532.135 Q97.2465 530.768 95.3715 530.768 Q93.434 530.768 91.9965 532.237 Q90.559 533.706 90.559 536.049 Q90.559 538.143 91.9262 539.456 Q93.2934 540.768 95.2934 540.768 Q97.309 540.768 98.6059 539.456 Q99.9028 538.143 99.9028 535.815 Z" fill="#000000" fill-opacity="1.000000"/>
  <path d="M106.809 532.252 Q106.809 530.393 108.122 529.081 Q109.434 527.768 111.262 527.768 Q113.137 527.768 114.442 529.081 Q115.747 530.393 115.747 532.252 Q115.747 534.127 114.434 535.448 Q113.122 536.768 111.262 536.768 Q109.434 536.768 108.122 535.456 Q106.809 534.143 106.809 532.252 ZM108.559 532.268 Q108.559 533.299 109.356 534.034 Q110.153 534.768 111.293 534.768 Q112.403 534.768 113.2 534.034 Q113.997 533.299 113.997 532.268 Q113.997 531.237 113.2 530.502 Q112.403 529.768 111.293 529.768 Q110.153 529.768 109.356 530.502 Q108.559 531.237 108.559 532.268 Z" fill="#000000" fill-opacity="1.000000"/>
  <path d="M137.481 543.096 L140.606 543.846 Q139.622 547.706 137.067 549.737 Q134.512 551.768 130.825 551.768 Q126.997 551.768 124.606 550.237 Q122.215 548.706 120.965 545.815 Q119.715 542.924 119.715 539.596 Q119.715 535.971 121.129 533.268 Q122.543 530.565 125.145 529.166 Q127.747 527.768 130.872 527.768 Q134.418 527.768 136.832 529.596 Q139.247 531.424 140.2 534.737 L137.122 535.424 Q136.293 532.987 134.731 531.877 Q133.168 530.768 130.809 530.768 Q128.075 530.768 126.247 532.002 Q124.418 533.237 123.676 535.307 Q122.934 537.377 122.934 539.581 Q122.934 542.424 123.817 544.549 Q124.7 546.674 126.551 547.721 Q128.403 548.768 130.559 548.768 Q133.184 548.768 135.012 547.338 Q136.84 545.909 137.481 543.096 Z" fill="#000000" fill-opacity="1.000000"/>
  <path d="M196.312 543.904 L196.312 537.904 L186.062 537.904 L186.062 534.904 L196.844 519.904 L199.203 519.904 L199.203 534.904 L202.406 534.904 L202.406 537.904 L199.203 537.904 L199.203 543.904 L196.312 543.904 ZM196.312 534.904 L196.312 524.607 L188.906 534.904 L196.312 534.904 Z" fill="#000000" fill-opacity="1.000000"/>
  <path d="M207.172 543.904 L207.172 540.904 L210.469 540.904 L210.469 543.904 L207.172 543.904 Z" fill="#000000" fill-opacity="1.000000"/>
  <path d="M230.047 540.904 L230.047 543.904 L214.438 543.904 Q214.406 542.888 214.781 541.966 Q215.375 540.42 216.688 538.927 Q218 537.435 220.484 535.373 Q224.328 532.17 225.68 530.357 Q227.031 528.545 227.031 526.92 Q227.031 525.232 225.797 524.068 Q224.562 522.904 222.594 522.904 Q220.5 522.904 219.242 523.966 Q217.984 525.029 217.969 526.904 L214.984 526.904 Q215.297 523.482 217.289 521.693 Q219.281 519.904 222.656 519.904 Q226.047 519.904 228.031 521.826 Q230.016 523.748 230.016 526.591 Q230.016 528.045 229.438 529.435 Q228.859 530.826 227.516 532.373 Q226.172 533.92 223.047 536.498 Q220.438 538.623 219.695 539.381 Q218.953 540.138 218.469 540.904 L230.047 540.904 Z" fill="#000000" fill-opacity="1.000000"/>
  <path d="M234.031 524.388 Q234.031 522.529 235.344 521.216 Q236.656 519.904 238.484 519.904 Q240.359 519.904 241.664 521.216 Q242.969 522.529 242.969 524.388 Q242.969 526.263 241.656 527.584 Q240.344 528.904 238.484 528.904 Q236.656 528.904 235.344 527.591 Q234.031 526.279 234.031 524.388 ZM235.781 524.404 Q235.781 525.435 236.578 526.17 Q237.375 526.904 238.516 526.904 Q239.625 526.904 240.422 526.17 Q241.219 525.435 241.219 524.404 Q241.219 523.373 240.422 522.638 Q239.625 521.904 238.516 521.904 Q237.375 521.904 236.578 522.638 Q235.781 523.373 235.781 524.404 Z" fill="#000000" fill-opacity="1.000000"/>
  <path d="M264.703 535.232 L267.828 535.982 Q266.844 539.841 264.289 541.873 Q261.734 543.904 258.047 543.904 Q254.219 543.904 251.828 542.373 Q249.438 540.841 248.188 537.951 Q246.938 535.06 246.938 531.732 Q246.938 528.107 248.352 525.404 Q249.766 522.701 252.367 521.302 Q254.969 519.904 258.094 519.904 Q261.641 519.904 264.055 521.732 Q266.469 523.56 267.422 526.873 L264.344 527.56 Q263.516 525.123 261.953 524.013 Q260.391 522.904 258.031 522.904 Q255.297 522.904 253.469 524.138 Q251.641 525.373 250.898 527.443 Q250.156 529.513 250.156 531.716 Q250.156 534.56 251.039 536.685 Q251.922 538.81 253.773 539.857 Q255.625 540.904 257.781 540.904 Q260.406 540.904 262.234 539.474 Q264.062 538.045 264.703 535.232 Z" fill="#000000" fill-opacity="1.000000"/>
  <path d="M314.238 497.584 L317.285 497.584 Q317.628 499.584 318.855 500.584 Q320.082 501.584 321.832 501.584 Q323.925 501.584 325.371 500.162 Q326.816 498.74 326.816 496.397 Q326.816 494.162 325.425 492.873 Q324.035 491.584 321.769 491.584 Q320.378 491.584 319.246 491.865 Q318.113 492.147 317.472 492.584 L314.753 492.584 L317.035 480.584 L328.785 480.584 L328.785 483.584 L319.363 483.584 L318.082 490.318 Q320.207 488.584 322.55 488.584 Q325.644 488.584 327.769 490.717 Q329.894 492.85 329.894 496.209 Q329.894 499.397 328.019 501.725 Q325.753 504.584 321.832 504.584 Q318.597 504.584 316.566 502.67 Q314.535 500.756 314.238 497.584 Z" fill="#000000" fill-opacity="1.000000"/>
  <path d="M334.394 504.584 L334.394 501.584 L337.691 501.584 L337.691 504.584 L334.394 504.584 Z" fill="#000000" fill-opacity="1.000000"/>
  <path d="M342.222 483.584 L342.222 480.584 L357.519 480.584 L357.519 483.006 Q355.253 485.49 353.035 489.561 Q350.816 493.631 349.613 497.943 Q348.738 500.975 348.503 504.584 L345.519 504.584 Q345.566 501.725 346.613 497.693 Q347.66 493.662 349.621 489.912 Q351.582 486.162 353.785 483.584 L342.222 483.584 Z" fill="#000000" fill-opacity="1.000000"/>
  <path d="M361.253 485.068 Q361.253 483.209 362.566 481.897 Q363.878 480.584 365.707 480.584 Q367.582 480.584 368.886 481.897 Q370.191 483.209 370.191 485.068 Q370.191 486.943 368.878 488.264 Q367.566 489.584 365.707 489.584 Q363.878 489.584 362.566 488.272 Q361.253 486.959 361.253 485.068 ZM363.003 485.084 Q363.003 486.115 363.8 486.85 Q364.597 487.584 365.738 487.584 Q366.847 487.584 367.644 486.85 Q368.441 486.115 368.441 485.084 Q368.441 484.053 367.644 483.318 Q366.847 482.584 365.738 482.584 Q364.597 482.584 363.8 483.318 Q363.003 484.053 363.003 485.084 Z" fill="#000000" fill-opacity="1.000000"/>
  <path d="M391.925 495.912 L395.05 496.662 Q394.066 500.522 391.511 502.553 Q388.957 504.584 385.269 504.584 Q381.441 504.584 379.05 503.053 Q376.66 501.522 375.41 498.631 Q374.16 495.74 374.16 492.412 Q374.16 488.787 375.574 486.084 Q376.988 483.381 379.589 481.982 Q382.191 480.584 385.316 480.584 Q388.863 480.584 391.277 482.412 Q393.691 484.24 394.644 487.553 L391.566 488.24 Q390.738 485.803 389.175 484.693 Q387.613 483.584 385.253 483.584 Q382.519 483.584 380.691 484.818 Q378.863 486.053 378.121 488.123 Q377.378 490.193 377.378 492.397 Q377.378 495.24 378.261 497.365 Q379.144 499.49 380.996 500.537 Q382.847 501.584 385.003 501.584 Q387.628 501.584 389.457 500.154 Q391.285 498.725 391.925 495.912 Z" fill="#000000" fill-opacity="1.000000"/>
  <path d="M445.913 417.593 Q444.101 416.968 443.234 415.796 Q442.366 414.624 442.366 412.999 Q442.366 410.53 444.218 408.859 Q446.069 407.187 449.148 407.187 Q452.257 407.187 454.14 408.898 Q456.023 410.609 456.023 413.077 Q456.023 414.64 455.163 415.804 Q454.304 416.968 452.538 417.593 Q454.71 418.327 455.851 419.952 Q456.991 421.577 456.991 423.827 Q456.991 426.937 454.851 429.062 Q452.71 431.187 449.21 431.187 Q445.71 431.187 443.569 429.054 Q441.429 426.921 441.429 423.749 Q441.429 421.374 442.593 419.773 Q443.757 418.171 445.913 417.593 ZM445.335 413.109 Q445.335 414.468 446.413 415.327 Q447.491 416.187 449.226 416.187 Q450.898 416.187 451.968 415.335 Q453.038 414.484 453.038 413.234 Q453.038 411.952 451.937 411.069 Q450.835 410.187 449.194 410.187 Q447.523 410.187 446.429 411.046 Q445.335 411.905 445.335 413.109 ZM444.398 423.64 Q444.398 424.812 444.984 425.898 Q445.569 426.984 446.734 427.585 Q447.898 428.187 449.241 428.187 Q451.319 428.187 452.671 426.929 Q454.023 425.671 454.023 423.734 Q454.023 421.765 452.624 420.476 Q451.226 419.187 449.132 419.187 Q447.085 419.187 445.741 420.46 Q444.398 421.734 444.398 423.64 Z" fill="#000000" fill-opacity="1.000000"/>
  <path d="M461.616 431.187 L461.616 428.187 L464.913 428.187 L464.913 431.187 L461.616 431.187 Z" fill="#000000" fill-opacity="1.000000"/>
  <path d="M469.257 424.187 L472.304 424.187 Q472.648 426.187 473.874 427.187 Q475.101 428.187 476.851 428.187 Q478.944 428.187 480.39 426.765 Q481.835 425.343 481.835 422.999 Q481.835 420.765 480.444 419.476 Q479.054 418.187 476.788 418.187 Q475.398 418.187 474.265 418.468 Q473.132 418.749 472.491 419.187 L469.773 419.187 L472.054 407.187 L483.804 407.187 L483.804 410.187 L474.382 410.187 L473.101 416.921 Q475.226 415.187 477.569 415.187 Q480.663 415.187 482.788 417.319 Q484.913 419.452 484.913 422.812 Q484.913 425.999 483.038 428.327 Q480.773 431.187 476.851 431.187 Q473.616 431.187 471.585 429.273 Q469.554 427.359 469.257 424.187 Z" fill="#000000" fill-opacity="1.000000"/>
  <path d="M488.476 411.671 Q488.476 409.812 489.788 408.499 Q491.101 407.187 492.929 407.187 Q494.804 407.187 496.109 408.499 Q497.413 409.812 497.413 411.671 Q497.413 413.546 496.101 414.866 Q494.788 416.187 492.929 416.187 Q491.101 416.187 489.788 414.874 Q488.476 413.562 488.476 411.671 ZM490.226 411.687 Q490.226 412.718 491.023 413.452 Q491.819 414.187 492.96 414.187 Q494.069 414.187 494.866 413.452 Q495.663 412.718 495.663 411.687 Q495.663 410.655 494.866 409.921 Q494.069 409.187 492.96 409.187 Q491.819 409.187 491.023 409.921 Q490.226 410.655 490.226 411.687 Z" fill="#000000" fill-opacity="1.000000"/>
  <path d="M519.148 422.515 L522.273 423.265 Q521.288 427.124 518.734 429.155 Q516.179 431.187 512.491 431.187 Q508.663 431.187 506.273 429.655 Q503.882 428.124 502.632 425.234 Q501.382 422.343 501.382 419.015 Q501.382 415.39 502.796 412.687 Q504.21 409.984 506.812 408.585 Q509.413 407.187 512.538 407.187 Q516.085 407.187 518.499 409.015 Q520.913 410.843 521.866 414.155 L518.788 414.843 Q517.96 412.405 516.398 411.296 Q514.835 410.187 512.476 410.187 Q509.741 410.187 507.913 411.421 Q506.085 412.655 505.343 414.726 Q504.601 416.796 504.601 418.999 Q504.601 421.843 505.484 423.968 Q506.366 426.093 508.218 427.14 Q510.069 428.187 512.226 428.187 Q514.851 428.187 516.679 426.757 Q518.507 425.327 519.148 422.515 Z" fill="#000000" fill-opacity="1.000000"/>
  <path d="M571.573 342.061 L568.667 342.061 L568.667 323.358 Q567.62 324.374 565.924 325.389 Q564.229 326.405 562.87 326.905 L562.87 324.061 Q565.307 322.905 567.128 321.257 Q568.948 319.608 569.698 318.061 L571.573 318.061 L571.573 342.061 Z" fill="#000000" fill-opacity="1.000000"/>
  <path d="M588.87 342.061 L585.964 342.061 L585.964 323.358 Q584.917 324.374 583.221 325.389 Q581.526 326.405 580.167 326.905 L580.167 324.061 Q582.604 322.905 584.424 321.257 Q586.245 319.608 586.995 318.061 L588.87 318.061 L588.87 342.061 Z" fill="#000000" fill-opacity="1.000000"/>
  <path d="M596.87 342.061 L596.87 339.061 L600.167 339.061 L600.167 342.061 L596.87 342.061 Z" fill="#000000" fill-opacity="1.000000"/>
  <path d="M604.948 336.061 L607.729 336.061 Q608.089 337.639 609.089 338.35 Q610.089 339.061 611.635 339.061 Q612.979 339.061 613.987 338.554 Q614.995 338.046 615.635 337.194 Q616.276 336.343 616.714 334.843 Q617.151 333.343 617.151 331.546 Q617.151 331.343 617.135 330.952 Q616.26 332.343 614.76 333.202 Q613.26 334.061 611.495 334.061 Q608.573 334.061 606.542 331.897 Q604.51 329.733 604.51 326.186 Q604.51 322.53 606.628 320.296 Q608.745 318.061 611.932 318.061 Q614.245 318.061 616.151 319.296 Q618.057 320.53 619.049 322.811 Q620.042 325.093 620.042 329.421 Q620.042 333.936 619.057 336.6 Q618.073 339.264 616.135 340.663 Q614.198 342.061 611.589 342.061 Q608.807 342.061 607.057 340.491 Q605.307 338.921 604.948 336.061 ZM616.823 326.108 Q616.823 323.796 615.495 322.429 Q614.167 321.061 612.292 321.061 Q610.354 321.061 608.917 322.53 Q607.479 323.999 607.479 326.343 Q607.479 328.436 608.846 329.749 Q610.214 331.061 612.214 331.061 Q614.229 331.061 615.526 329.749 Q616.823 328.436 616.823 326.108 Z" fill="#000000" fill-opacity="1.000000"/>
  <path d="M623.729 322.546 Q623.729 320.686 625.042 319.374 Q626.354 318.061 628.182 318.061 Q630.057 318.061 631.362 319.374 Q632.667 320.686 632.667 322.546 Q632.667 324.421 631.354 325.741 Q630.042 327.061 628.182 327.061 Q626.354 327.061 625.042 325.749 Q623.729 324.436 623.729 322.546 ZM625.479 322.561 Q625.479 323.593 626.276 324.327 Q627.073 325.061 628.214 325.061 Q629.323 325.061 630.12 324.327 Q630.917 323.593 630.917 322.561 Q630.917 321.53 630.12 320.796 Q629.323 320.061 628.214 320.061 Q627.073 320.061 626.276 320.796 Q625.479 321.53 625.479 322.561 Z" fill="#000000" fill-opacity="1.000000"/>
  <path d="M654.401 333.389 L657.526 334.139 Q656.542 337.999 653.987 340.03 Q651.432 342.061 647.745 342.061 Q643.917 342.061 641.526 340.53 Q639.135 338.999 637.885 336.108 Q636.635 333.218 636.635 329.889 Q636.635 326.264 638.049 323.561 Q639.464 320.858 642.065 319.46 Q644.667 318.061 647.792 318.061 Q651.339 318.061 653.753 319.889 Q656.167 321.718 657.12 325.03 L654.042 325.718 Q653.214 323.28 651.651 322.171 Q650.089 321.061 647.729 321.061 Q644.995 321.061 643.167 322.296 Q641.339 323.53 640.596 325.6 Q639.854 327.671 639.854 329.874 Q639.854 332.718 640.737 334.843 Q641.62 336.968 643.471 338.014 Q645.323 339.061 647.479 339.061 Q650.104 339.061 651.932 337.632 Q653.76 336.202 654.401 333.389 Z" fill="#000000" fill-opacity="1.000000"/>
  <path d="M697.561 255.557 L694.655 255.557 L694.655 236.854 Q693.608 237.87 691.912 238.885 Q690.217 239.901 688.858 240.401 L688.858 237.557 Q691.295 236.401 693.115 234.753 Q694.936 233.104 695.686 231.557 L697.561 231.557 L697.561 255.557 Z" fill="#000000" fill-opacity="1.000000"/>
  <path d="M705.17 248.557 L708.217 248.557 Q708.561 250.557 709.787 251.557 Q711.014 252.557 712.764 252.557 Q714.858 252.557 716.303 251.135 Q717.748 249.714 717.748 247.37 Q717.748 245.135 716.358 243.846 Q714.967 242.557 712.701 242.557 Q711.311 242.557 710.178 242.839 Q709.045 243.12 708.405 243.557 L705.686 243.557 L707.967 231.557 L719.717 231.557 L719.717 234.557 L710.295 234.557 L709.014 241.292 Q711.139 239.557 713.483 239.557 Q716.576 239.557 718.701 241.69 Q720.826 243.823 720.826 247.182 Q720.826 250.37 718.951 252.698 Q716.686 255.557 712.764 255.557 Q709.53 255.557 707.498 253.643 Q705.467 251.729 705.17 248.557 Z" fill="#000000" fill-opacity="1.000000"/>
  <path d="M725.326 255.557 L725.326 252.557 L728.623 252.557 L728.623 255.557 L725.326 255.557 Z" fill="#000000" fill-opacity="1.000000"/>
  <path d="M748.201 252.557 L748.201 255.557 L732.592 255.557 Q732.561 254.542 732.936 253.62 Q733.53 252.073 734.842 250.581 Q736.155 249.089 738.639 247.026 Q742.483 243.823 743.834 242.01 Q745.186 240.198 745.186 238.573 Q745.186 236.885 743.951 235.721 Q742.717 234.557 740.748 234.557 Q738.655 234.557 737.397 235.62 Q736.139 236.682 736.123 238.557 L733.139 238.557 Q733.451 235.135 735.444 233.346 Q737.436 231.557 740.811 231.557 Q744.201 231.557 746.186 233.479 Q748.17 235.401 748.17 238.245 Q748.17 239.698 747.592 241.089 Q747.014 242.479 745.67 244.026 Q744.326 245.573 741.201 248.151 Q738.592 250.276 737.85 251.034 Q737.108 251.792 736.623 252.557 L748.201 252.557 Z" fill="#000000" fill-opacity="1.000000"/>
  <path d="M752.186 236.042 Q752.186 234.182 753.498 232.87 Q754.811 231.557 756.639 231.557 Q758.514 231.557 759.819 232.87 Q761.123 234.182 761.123 236.042 Q761.123 237.917 759.811 239.237 Q758.498 240.557 756.639 240.557 Q754.811 240.557 753.498 239.245 Q752.186 237.932 752.186 236.042 ZM753.936 236.057 Q753.936 237.089 754.733 237.823 Q755.53 238.557 756.67 238.557 Q757.78 238.557 758.576 237.823 Q759.373 237.089 759.373 236.057 Q759.373 235.026 758.576 234.292 Q757.78 233.557 756.67 233.557 Q755.53 233.557 754.733 234.292 Q753.936 235.026 753.936 236.057 Z" fill="#000000" fill-opacity="1.000000"/>
  <path d="M782.858 246.885 L785.983 247.635 Q784.998 251.495 782.444 253.526 Q779.889 255.557 776.201 255.557 Q772.373 255.557 769.983 254.026 Q767.592 252.495 766.342 249.604 Q765.092 246.714 765.092 243.385 Q765.092 239.76 766.506 237.057 Q767.92 234.354 770.522 232.956 Q773.123 231.557 776.248 231.557 Q779.795 231.557 782.209 233.385 Q784.623 235.214 785.576 238.526 L782.498 239.214 Q781.67 236.776 780.108 235.667 Q778.545 234.557 776.186 234.557 Q773.451 234.557 771.623 235.792 Q769.795 237.026 769.053 239.096 Q768.311 241.167 768.311 243.37 Q768.311 246.214 769.194 248.339 Q770.076 250.464 771.928 251.51 Q773.78 252.557 775.936 252.557 Q778.561 252.557 780.389 251.128 Q782.217 249.698 782.858 246.885 Z" fill="#000000" fill-opacity="1.000000"/>
  <path d="M824.783 208.373 L821.877 208.373 L821.877 189.67 Q820.83 190.686 819.135 191.701 Q817.439 192.717 816.08 193.217 L816.08 190.373 Q818.517 189.217 820.338 187.569 Q822.158 185.92 822.908 184.373 L824.783 184.373 L824.783 208.373 Z" fill="#000000" fill-opacity="1.000000"/>
  <path d="M832.58 187.373 L832.58 184.373 L847.877 184.373 L847.877 186.795 Q845.611 189.28 843.392 193.35 Q841.174 197.42 839.97 201.733 Q839.095 204.764 838.861 208.373 L835.877 208.373 Q835.924 205.514 836.97 201.483 Q838.017 197.451 839.978 193.701 Q841.939 189.951 844.142 187.373 L832.58 187.373 Z" fill="#000000" fill-opacity="1.000000"/>
  <path d="M852.549 208.373 L852.549 205.373 L855.845 205.373 L855.845 208.373 L852.549 208.373 Z" fill="#000000" fill-opacity="1.000000"/>
  <path d="M860.189 196.389 Q860.189 192.217 861.049 189.67 Q861.908 187.123 863.611 185.748 Q865.314 184.373 867.892 184.373 Q869.799 184.373 871.228 185.131 Q872.658 185.889 873.595 187.326 Q874.533 188.764 875.064 190.826 Q875.595 192.889 875.595 196.389 Q875.595 200.514 874.744 203.053 Q873.892 205.592 872.189 206.983 Q870.486 208.373 867.892 208.373 Q864.47 208.373 862.533 205.936 Q860.189 202.998 860.189 196.389 ZM863.158 196.373 Q863.158 201.795 864.517 203.584 Q865.877 205.373 867.892 205.373 Q869.892 205.373 871.252 203.576 Q872.611 201.78 872.611 196.373 Q872.611 190.936 871.252 189.155 Q869.892 187.373 867.845 187.373 Q865.845 187.373 864.658 188.951 Q863.158 190.951 863.158 196.373 Z" fill="#000000" fill-opacity="1.000000"/>
  <path d="M879.408 188.858 Q879.408 186.998 880.72 185.686 Q882.033 184.373 883.861 184.373 Q885.736 184.373 887.041 185.686 Q888.345 186.998 888.345 188.858 Q888.345 190.733 887.033 192.053 Q885.72 193.373 883.861 193.373 Q882.033 193.373 880.72 192.061 Q879.408 190.748 879.408 188.858 ZM881.158 188.873 Q881.158 189.905 881.955 190.639 Q882.752 191.373 883.892 191.373 Q885.002 191.373 885.799 190.639 Q886.595 189.905 886.595 188.873 Q886.595 187.842 885.799 187.108 Q885.002 186.373 883.892 186.373 Q882.752 186.373 881.955 187.108 Q881.158 187.842 881.158 188.873 Z" fill="#000000" fill-opacity="1.000000"/>
  <path d="M910.08 199.701 L913.205 200.451 Q912.22 204.311 909.666 206.342 Q907.111 208.373 903.424 208.373 Q899.595 208.373 897.205 206.842 Q894.814 205.311 893.564 202.42 Q892.314 199.53 892.314 196.201 Q892.314 192.576 893.728 189.873 Q895.142 187.17 897.744 185.772 Q900.345 184.373 903.47 184.373 Q907.017 184.373 909.431 186.201 Q911.845 188.03 912.799 191.342 L909.72 192.03 Q908.892 189.592 907.33 188.483 Q905.767 187.373 903.408 187.373 Q900.674 187.373 898.845 188.608 Q897.017 189.842 896.275 191.912 Q895.533 193.983 895.533 196.186 Q895.533 199.03 896.416 201.155 Q897.299 203.28 899.15 204.326 Q901.002 205.373 903.158 205.373 Q905.783 205.373 907.611 203.944 Q909.439 202.514 910.08 199.701 Z" fill="#000000" fill-opacity="1.000000"/>
  <path d="M952.005 218.859 L949.099 218.859 L949.099 200.156 Q948.052 201.171 946.357 202.187 Q944.661 203.202 943.302 203.702 L943.302 200.859 Q945.74 199.702 947.56 198.054 Q949.38 196.406 950.13 194.859 L952.005 194.859 L952.005 218.859 Z" fill="#000000" fill-opacity="1.000000"/>
  <path d="M974.661 200.859 L971.771 200.859 Q971.38 199.484 970.677 198.859 Q969.505 197.859 967.771 197.859 Q966.396 197.859 965.349 198.499 Q963.974 199.327 963.185 200.929 Q962.396 202.531 962.365 205.999 Q963.411 204.406 964.927 203.632 Q966.443 202.859 968.099 202.859 Q971.005 202.859 973.044 205.031 Q975.083 207.202 975.083 210.64 Q975.083 212.906 974.122 214.851 Q973.161 216.796 971.49 217.827 Q969.818 218.859 967.677 218.859 Q964.052 218.859 961.763 216.202 Q959.474 213.546 959.474 207.452 Q959.474 200.64 962.005 197.546 Q964.208 194.859 967.958 194.859 Q970.74 194.859 972.521 196.452 Q974.302 198.046 974.661 200.859 ZM962.818 210.593 Q962.818 211.984 963.451 213.257 Q964.083 214.531 965.232 215.195 Q966.38 215.859 967.63 215.859 Q969.474 215.859 970.794 214.484 Q972.115 213.109 972.115 210.749 Q972.115 208.468 970.81 207.163 Q969.505 205.859 967.521 205.859 Q965.552 205.859 964.185 207.163 Q962.818 208.468 962.818 210.593 Z" fill="#000000" fill-opacity="1.000000"/>
  <path d="M979.771 218.859 L979.771 215.859 L983.068 215.859 L983.068 218.859 L979.771 218.859 Z" fill="#000000" fill-opacity="1.000000"/>
  <path d="M1002.46 200.859 L999.568 200.859 Q999.177 199.484 998.474 198.859 Q997.302 197.859 995.568 197.859 Q994.193 197.859 993.146 198.499 Q991.771 199.327 990.982 200.929 Q990.193 202.531 990.161 205.999 Q991.208 204.406 992.724 203.632 Q994.24 202.859 995.896 202.859 Q998.802 202.859 1000.84 205.031 Q1002.88 207.202 1002.88 210.64 Q1002.88 212.906 1001.92 214.851 Q1000.96 216.796 999.286 217.827 Q997.615 218.859 995.474 218.859 Q991.849 218.859 989.56 216.202 Q987.271 213.546 987.271 207.452 Q987.271 200.64 989.802 197.546 Q992.005 194.859 995.755 194.859 Q998.536 194.859 1000.32 196.452 Q1002.1 198.046 1002.46 200.859 ZM990.615 210.593 Q990.615 211.984 991.247 213.257 Q991.88 214.531 993.029 215.195 Q994.177 215.859 995.427 215.859 Q997.271 215.859 998.591 214.484 Q999.911 213.109 999.911 210.749 Q999.911 208.468 998.607 207.163 Q997.302 205.859 995.318 205.859 Q993.349 205.859 991.982 207.163 Q990.615 208.468 990.615 210.593 Z" fill="#000000" fill-opacity="1.000000"/>
  <path d="M1006.63 199.343 Q1006.63 197.484 1007.94 196.171 Q1009.26 194.859 1011.08 194.859 Q1012.96 194.859 1014.26 196.171 Q1015.57 197.484 1015.57 199.343 Q1015.57 201.218 1014.26 202.538 Q1012.94 203.859 1011.08 203.859 Q1009.26 203.859 1007.94 202.546 Q1006.63 201.234 1006.63 199.343 ZM1008.38 199.359 Q1008.38 200.39 1009.18 201.124 Q1009.97 201.859 1011.11 201.859 Q1012.22 201.859 1013.02 201.124 Q1013.82 200.39 1013.82 199.359 Q1013.82 198.327 1013.02 197.593 Q1012.22 196.859 1011.11 196.859 Q1009.97 196.859 1009.18 197.593 Q1008.38 198.327 1008.38 199.359 Z" fill="#000000" fill-opacity="1.000000"/>
  <path d="M1037.3 210.187 L1040.43 210.937 Q1039.44 214.796 1036.89 216.827 Q1034.33 218.859 1030.65 218.859 Q1026.82 218.859 1024.43 217.327 Q1022.04 215.796 1020.79 212.906 Q1019.54 210.015 1019.54 206.687 Q1019.54 203.062 1020.95 200.359 Q1022.36 197.656 1024.97 196.257 Q1027.57 194.859 1030.69 194.859 Q1034.24 194.859 1036.65 196.687 Q1039.07 198.515 1040.02 201.827 L1036.94 202.515 Q1036.11 200.077 1034.55 198.968 Q1032.99 197.859 1030.63 197.859 Q1027.9 197.859 1026.07 199.093 Q1024.24 200.327 1023.5 202.398 Q1022.76 204.468 1022.76 206.671 Q1022.76 209.515 1023.64 211.64 Q1024.52 213.765 1026.37 214.812 Q1028.22 215.859 1030.38 215.859 Q1033.01 215.859 1034.83 214.429 Q1036.66 212.999 1037.3 210.187 Z" fill="#000000" fill-opacity="1.000000"/>
  <path d="M1079.23 281.771 L1076.32 281.771 L1076.32 263.068 Q1075.27 264.083 1073.58 265.099 Q1071.88 266.114 1070.52 266.614 L1070.52 263.771 Q1072.96 262.614 1074.78 260.966 Q1076.6 259.318 1077.35 257.771 L1079.23 257.771 L1079.23 281.771 Z" fill="#000000" fill-opacity="1.000000"/>
  <path d="M1096.13 281.771 L1096.13 275.771 L1085.88 275.771 L1085.88 272.771 L1096.66 257.771 L1099.02 257.771 L1099.02 272.771 L1102.23 272.771 L1102.23 275.771 L1099.02 275.771 L1099.02 281.771 L1096.13 281.771 ZM1096.13 272.771 L1096.13 262.474 L1088.73 272.771 L1096.13 272.771 Z" fill="#000000" fill-opacity="1.000000"/>
  <path d="M1106.99 281.771 L1106.99 278.771 L1110.29 278.771 L1110.29 281.771 L1106.99 281.771 Z" fill="#000000" fill-opacity="1.000000"/>
  <path d="M1129.87 278.771 L1129.87 281.771 L1114.26 281.771 Q1114.23 280.755 1114.6 279.833 Q1115.2 278.286 1116.51 276.794 Q1117.82 275.302 1120.31 273.239 Q1124.15 270.036 1125.5 268.224 Q1126.85 266.411 1126.85 264.786 Q1126.85 263.099 1125.62 261.935 Q1124.38 260.771 1122.41 260.771 Q1120.32 260.771 1119.06 261.833 Q1117.81 262.896 1117.79 264.771 L1114.81 264.771 Q1115.12 261.349 1117.11 259.56 Q1119.1 257.771 1122.48 257.771 Q1125.87 257.771 1127.85 259.693 Q1129.84 261.614 1129.84 264.458 Q1129.84 265.911 1129.26 267.302 Q1128.68 268.693 1127.34 270.239 Q1125.99 271.786 1122.87 274.364 Q1120.26 276.489 1119.52 277.247 Q1118.77 278.005 1118.29 278.771 L1129.87 278.771 Z" fill="#000000" fill-opacity="1.000000"/>
  <path d="M1133.85 262.255 Q1133.85 260.396 1135.16 259.083 Q1136.48 257.771 1138.31 257.771 Q1140.18 257.771 1141.49 259.083 Q1142.79 260.396 1142.79 262.255 Q1142.79 264.13 1141.48 265.45 Q1140.16 266.771 1138.31 266.771 Q1136.48 266.771 1135.16 265.458 Q1133.85 264.146 1133.85 262.255 ZM1135.6 262.271 Q1135.6 263.302 1136.4 264.036 Q1137.2 264.771 1138.34 264.771 Q1139.45 264.771 1140.24 264.036 Q1141.04 263.302 1141.04 262.271 Q1141.04 261.239 1140.24 260.505 Q1139.45 259.771 1138.34 259.771 Q1137.2 259.771 1136.4 260.505 Q1135.6 261.239 1135.6 262.271 Z" fill="#000000" fill-opacity="1.000000"/>
  <path d="M1164.52 273.099 L1167.65 273.849 Q1166.66 277.708 1164.11 279.739 Q1161.56 281.771 1157.87 281.771 Q1154.04 281.771 1151.65 280.239 Q1149.26 278.708 1148.01 275.818 Q1146.76 272.927 1146.76 269.599 Q1146.76 265.974 1148.17 263.271 Q1149.59 260.568 1152.19 259.169 Q1154.79 257.771 1157.91 257.771 Q1161.46 257.771 1163.88 259.599 Q1166.29 261.427 1167.24 264.739 L1164.16 265.427 Q1163.34 262.989 1161.77 261.88 Q1160.21 260.771 1157.85 260.771 Q1155.12 260.771 1153.29 262.005 Q1151.46 263.239 1150.72 265.31 Q1149.98 267.38 1149.98 269.583 Q1149.98 272.427 1150.86 274.552 Q1151.74 276.677 1153.59 277.724 Q1155.45 278.771 1157.6 278.771 Q1160.23 278.771 1162.06 277.341 Q1163.88 275.911 1164.52 273.099 Z" fill="#000000" fill-opacity="1.000000"/>
  <path d="M1206.45 384.003 L1203.54 384.003 L1203.54 365.3 Q1202.5 366.315 1200.8 367.331 Q1199.11 368.346 1197.75 368.846 L1197.75 366.003 Q1200.18 364.846 1202 363.198 Q1203.82 361.55 1204.57 360.003 L1206.45 360.003 L1206.45 384.003 Z" fill="#000000" fill-opacity="1.000000"/>
  <path d="M1214.06 372.018 Q1214.06 367.846 1214.92 365.3 Q1215.78 362.753 1217.48 361.378 Q1219.18 360.003 1221.76 360.003 Q1223.67 360.003 1225.1 360.76 Q1226.53 361.518 1227.47 362.956 Q1228.4 364.393 1228.93 366.456 Q1229.47 368.518 1229.47 372.018 Q1229.47 376.143 1228.61 378.682 Q1227.76 381.221 1226.06 382.612 Q1224.36 384.003 1221.76 384.003 Q1218.34 384.003 1216.4 381.565 Q1214.06 378.628 1214.06 372.018 ZM1217.03 372.003 Q1217.03 377.425 1218.39 379.214 Q1219.75 381.003 1221.76 381.003 Q1223.76 381.003 1225.12 379.206 Q1226.48 377.409 1226.48 372.003 Q1226.48 366.565 1225.12 364.784 Q1223.76 363.003 1221.72 363.003 Q1219.72 363.003 1218.53 364.581 Q1217.03 366.581 1217.03 372.003 Z" fill="#000000" fill-opacity="1.000000"/>
  <path d="M1234.22 384.003 L1234.22 381.003 L1237.51 381.003 L1237.51 384.003 L1234.22 384.003 Z" fill="#000000" fill-opacity="1.000000"/>
  <path d="M1241.87 377.003 L1244.76 377.003 Q1245.26 379.128 1246.47 380.065 Q1247.67 381.003 1249.39 381.003 Q1251.43 381.003 1252.85 379.612 Q1254.26 378.221 1254.26 376.175 Q1254.26 374.221 1252.96 372.956 Q1251.65 371.69 1249.64 371.69 Q1248.81 371.69 1247.59 372.003 L1247.9 369.003 Q1248.2 369.034 1248.37 369.034 Q1250.23 369.034 1251.72 368.268 Q1253.2 367.503 1253.2 365.909 Q1253.2 364.659 1252.12 363.831 Q1251.04 363.003 1249.32 363.003 Q1247.64 363.003 1246.51 363.753 Q1245.39 364.503 1245.06 366.003 L1242.15 366.003 Q1242.68 363.143 1244.57 361.573 Q1246.45 360.003 1249.26 360.003 Q1251.18 360.003 1252.82 360.768 Q1254.45 361.534 1255.31 362.862 Q1256.17 364.19 1256.17 365.675 Q1256.17 367.096 1255.35 368.253 Q1254.53 369.409 1252.92 370.096 Q1255.01 370.612 1256.18 372.214 Q1257.34 373.815 1257.34 376.221 Q1257.34 379.471 1255.08 381.737 Q1252.82 384.003 1249.39 384.003 Q1246.28 384.003 1244.22 382.057 Q1242.17 380.112 1241.87 377.003 Z" fill="#000000" fill-opacity="1.000000"/>
  <path d="M1261.07 364.487 Q1261.07 362.628 1262.39 361.315 Q1263.7 360.003 1265.53 360.003 Q1267.4 360.003 1268.71 361.315 Q1270.01 362.628 1270.01 364.487 Q1270.01 366.362 1268.7 367.682 Q1267.39 369.003 1265.53 369.003 Q1263.7 369.003 1262.39 367.69 Q1261.07 366.378 1261.07 364.487 ZM1262.82 364.503 Q1262.82 365.534 1263.62 366.268 Q1264.42 367.003 1265.56 367.003 Q1266.67 367.003 1267.47 366.268 Q1268.26 365.534 1268.26 364.503 Q1268.26 363.471 1267.47 362.737 Q1266.67 362.003 1265.56 362.003 Q1264.42 362.003 1263.62 362.737 Q1262.82 363.471 1262.82 364.503 Z" fill="#000000" fill-opacity="1.000000"/>
  <path d="M1291.75 375.331 L1294.87 376.081 Q1293.89 379.94 1291.33 381.971 Q1288.78 384.003 1285.09 384.003 Q1281.26 384.003 1278.87 382.471 Q1276.48 380.94 1275.23 378.05 Q1273.98 375.159 1273.98 371.831 Q1273.98 368.206 1275.39 365.503 Q1276.81 362.8 1279.41 361.401 Q1282.01 360.003 1285.14 360.003 Q1288.68 360.003 1291.1 361.831 Q1293.51 363.659 1294.47 366.971 L1291.39 367.659 Q1290.56 365.221 1289 364.112 Q1287.43 363.003 1285.07 363.003 Q1282.34 363.003 1280.51 364.237 Q1278.68 365.471 1277.94 367.542 Q1277.2 369.612 1277.2 371.815 Q1277.2 374.659 1278.08 376.784 Q1278.97 378.909 1280.82 379.956 Q1282.67 381.003 1284.82 381.003 Q1287.45 381.003 1289.28 379.573 Q1291.11 378.143 1291.75 375.331 Z" fill="#000000" fill-opacity="1.000000"/>
  <path d="M1347.06 462.992 L1344.17 462.992 Q1343.78 461.617 1343.08 460.992 Q1341.91 459.992 1340.17 459.992 Q1338.8 459.992 1337.75 460.633 Q1336.38 461.461 1335.59 463.062 Q1334.8 464.664 1334.77 468.133 Q1335.81 466.539 1337.33 465.765 Q1338.84 464.992 1340.5 464.992 Q1343.41 464.992 1345.45 467.164 Q1347.48 469.336 1347.48 472.773 Q1347.48 475.039 1346.52 476.984 Q1345.56 478.93 1343.89 479.961 Q1342.22 480.992 1340.08 480.992 Q1336.45 480.992 1334.16 478.336 Q1331.88 475.68 1331.88 469.586 Q1331.88 462.773 1334.41 459.68 Q1336.61 456.992 1340.36 456.992 Q1343.14 456.992 1344.92 458.586 Q1346.7 460.18 1347.06 462.992 ZM1335.22 472.726 Q1335.22 474.117 1335.85 475.39 Q1336.48 476.664 1337.63 477.328 Q1338.78 477.992 1340.03 477.992 Q1341.88 477.992 1343.2 476.617 Q1344.52 475.242 1344.52 472.883 Q1344.52 470.601 1343.21 469.297 Q1341.91 467.992 1339.92 467.992 Q1337.95 467.992 1336.59 469.297 Q1335.22 470.601 1335.22 472.726 Z" fill="#000000" fill-opacity="1.000000"/>
  <path d="M1352.17 480.992 L1352.17 477.992 L1355.47 477.992 L1355.47 480.992 L1352.17 480.992 Z" fill="#000000" fill-opacity="1.000000"/>
  <path d="M1374.86 462.992 L1371.97 462.992 Q1371.58 461.617 1370.88 460.992 Q1369.7 459.992 1367.97 459.992 Q1366.59 459.992 1365.55 460.633 Q1364.17 461.461 1363.38 463.062 Q1362.59 464.664 1362.56 468.133 Q1363.61 466.539 1365.13 465.765 Q1366.64 464.992 1368.3 464.992 Q1371.2 464.992 1373.24 467.164 Q1375.28 469.336 1375.28 472.773 Q1375.28 475.039 1374.32 476.984 Q1373.36 478.93 1371.69 479.961 Q1370.02 480.992 1367.88 480.992 Q1364.25 480.992 1361.96 478.336 Q1359.67 475.68 1359.67 469.586 Q1359.67 462.773 1362.2 459.68 Q1364.41 456.992 1368.16 456.992 Q1370.94 456.992 1372.72 458.586 Q1374.5 460.18 1374.86 462.992 ZM1363.02 472.726 Q1363.02 474.117 1363.65 475.39 Q1364.28 476.664 1365.43 477.328 Q1366.58 477.992 1367.83 477.992 Q1369.67 477.992 1370.99 476.617 Q1372.31 475.242 1372.31 472.883 Q1372.31 470.601 1371.01 469.297 Q1369.7 467.992 1367.72 467.992 Q1365.75 467.992 1364.38 469.297 Q1363.02 470.601 1363.02 472.726 Z" fill="#000000" fill-opacity="1.000000"/>
  <path d="M1379.03 461.476 Q1379.03 459.617 1380.34 458.305 Q1381.66 456.992 1383.48 456.992 Q1385.36 456.992 1386.66 458.305 Q1387.97 459.617 1387.97 461.476 Q1387.97 463.351 1386.66 464.672 Q1385.34 465.992 1383.48 465.992 Q1381.66 465.992 1380.34 464.68 Q1379.03 463.367 1379.03 461.476 ZM1380.78 461.492 Q1380.78 462.523 1381.58 463.258 Q1382.38 463.992 1383.52 463.992 Q1384.63 463.992 1385.42 463.258 Q1386.22 462.523 1386.22 461.492 Q1386.22 460.461 1385.42 459.726 Q1384.63 458.992 1383.52 458.992 Q1382.38 458.992 1381.58 459.726 Q1380.78 460.461 1380.78 461.492 Z" fill="#000000" fill-opacity="1.000000"/>
  <path d="M1409.7 472.32 L1412.83 473.07 Q1411.84 476.93 1409.29 478.961 Q1406.73 480.992 1403.05 480.992 Q1399.22 480.992 1396.83 479.461 Q1394.44 477.93 1393.19 475.039 Q1391.94 472.148 1391.94 468.82 Q1391.94 465.195 1393.35 462.492 Q1394.77 459.789 1397.37 458.39 Q1399.97 456.992 1403.09 456.992 Q1406.64 456.992 1409.05 458.82 Q1411.47 460.648 1412.42 463.961 L1409.34 464.648 Q1408.52 462.211 1406.95 461.101 Q1405.39 459.992 1403.03 459.992 Q1400.3 459.992 1398.47 461.226 Q1396.64 462.461 1395.9 464.531 Q1395.16 466.601 1395.16 468.805 Q1395.16 471.648 1396.04 473.773 Q1396.92 475.898 1398.77 476.945 Q1400.63 477.992 1402.78 477.992 Q1405.41 477.992 1407.23 476.562 Q1409.06 475.133 1409.7 472.32 Z" fill="#000000" fill-opacity="1.000000"/>
  <path d="M1468.53 528.176 L1468.53 522.176 L1458.28 522.176 L1458.28 519.176 L1469.07 504.176 L1471.43 504.176 L1471.43 519.176 L1474.63 519.176 L1474.63 522.176 L1471.43 522.176 L1471.43 528.176 L1468.53 528.176 ZM1468.53 519.176 L1468.53 508.879 L1461.13 519.176 L1468.53 519.176 Z" fill="#000000" fill-opacity="1.000000"/>
  <path d="M1479.39 528.176 L1479.39 525.176 L1482.69 525.176 L1482.69 528.176 L1479.39 528.176 Z" fill="#000000" fill-opacity="1.000000"/>
  <path d="M1491.49 514.582 Q1489.68 513.957 1488.81 512.785 Q1487.94 511.613 1487.94 509.988 Q1487.94 507.52 1489.79 505.848 Q1491.64 504.176 1494.72 504.176 Q1497.83 504.176 1499.71 505.887 Q1501.6 507.598 1501.6 510.067 Q1501.6 511.629 1500.74 512.793 Q1499.88 513.957 1498.11 514.582 Q1500.28 515.317 1501.43 516.942 Q1502.57 518.567 1502.57 520.817 Q1502.57 523.926 1500.43 526.051 Q1498.28 528.176 1494.78 528.176 Q1491.28 528.176 1489.14 526.043 Q1487 523.91 1487 520.738 Q1487 518.363 1488.17 516.762 Q1489.33 515.16 1491.49 514.582 ZM1490.91 510.098 Q1490.91 511.457 1491.99 512.317 Q1493.07 513.176 1494.8 513.176 Q1496.47 513.176 1497.54 512.324 Q1498.61 511.473 1498.61 510.223 Q1498.61 508.942 1497.51 508.059 Q1496.41 507.176 1494.77 507.176 Q1493.1 507.176 1492 508.035 Q1490.91 508.895 1490.91 510.098 ZM1489.97 520.629 Q1489.97 521.801 1490.56 522.887 Q1491.14 523.973 1492.31 524.574 Q1493.47 525.176 1494.82 525.176 Q1496.89 525.176 1498.25 523.918 Q1499.6 522.66 1499.6 520.723 Q1499.6 518.754 1498.2 517.465 Q1496.8 516.176 1494.71 516.176 Q1492.66 516.176 1491.32 517.449 Q1489.97 518.723 1489.97 520.629 Z" fill="#000000" fill-opacity="1.000000"/>
  <path d="M1506.25 508.66 Q1506.25 506.801 1507.57 505.488 Q1508.88 504.176 1510.71 504.176 Q1512.58 504.176 1513.89 505.488 Q1515.19 506.801 1515.19 508.66 Q1515.19 510.535 1513.88 511.856 Q1512.57 513.176 1510.71 513.176 Q1508.88 513.176 1507.57 511.863 Q1506.25 510.551 1506.25 508.66 ZM1508 508.676 Q1508 509.707 1508.8 510.442 Q1509.6 511.176 1510.74 511.176 Q1511.85 511.176 1512.64 510.442 Q1513.44 509.707 1513.44 508.676 Q1513.44 507.645 1512.64 506.91 Q1511.85 506.176 1510.74 506.176 Q1509.6 506.176 1508.8 506.91 Q1508 507.645 1508 508.676 Z" fill="#000000" fill-opacity="1.000000"/>
  <path d="M1536.93 519.504 L1540.05 520.254 Q1539.07 524.113 1536.51 526.145 Q1533.96 528.176 1530.27 528.176 Q1526.44 528.176 1524.05 526.645 Q1521.66 525.113 1520.41 522.223 Q1519.16 519.332 1519.16 516.004 Q1519.16 512.379 1520.57 509.676 Q1521.99 506.973 1524.59 505.574 Q1527.19 504.176 1530.32 504.176 Q1533.86 504.176 1536.28 506.004 Q1538.69 507.832 1539.64 511.145 L1536.57 511.832 Q1535.74 509.395 1534.18 508.285 Q1532.61 507.176 1530.25 507.176 Q1527.52 507.176 1525.69 508.41 Q1523.86 509.645 1523.12 511.715 Q1522.38 513.785 1522.38 515.988 Q1522.38 518.832 1523.26 520.957 Q1524.14 523.082 1526 524.129 Q1527.85 525.176 1530 525.176 Q1532.63 525.176 1534.46 523.746 Q1536.28 522.317 1536.93 519.504 Z" fill="#000000" fill-opacity="1.000000"/>
  <path d="M138.37 114.667 L138.37 87.6667 L141.885 87.6667 L141.885 111.667 L154.932 111.667 L154.932 114.667 L138.37 114.667 Z" fill="#000000" fill-opacity="1.000000"/>
  <path d="M157.292 104.667 Q157.292 99.3542 160.26 96.7917 Q162.729 94.6667 166.292 94.6667 Q170.245 94.6667 172.753 97.2526 Q175.26 99.8385 175.26 104.401 Q175.26 108.089 174.151 110.206 Q173.042 112.323 170.917 113.495 Q168.792 114.667 166.292 114.667 Q162.26 114.667 159.776 112.089 Q157.292 109.51 157.292 104.667 ZM160.635 104.651 Q160.635 108.167 162.245 109.917 Q163.854 111.667 166.292 111.667 Q168.698 111.667 170.307 109.909 Q171.917 108.151 171.917 104.557 Q171.917 101.167 170.299 99.4167 Q168.682 97.6667 166.292 97.6667 Q163.854 97.6667 162.245 99.4089 Q160.635 101.151 160.635 104.651 Z" fill="#000000" fill-opacity="1.000000"/>
  <path d="M178.885 114.667 L178.885 94.6667 L181.807 94.6667 L181.807 97.401 Q183.917 94.6667 187.917 94.6667 Q189.651 94.6667 191.104 95.2995 Q192.557 95.9323 193.284 96.9635 Q194.01 97.9948 194.292 99.4167 Q194.479 100.339 194.479 102.635 L194.479 114.667 L191.229 114.667 L191.229 102.854 Q191.229 100.854 190.846 99.8542 Q190.464 98.8542 189.503 98.2604 Q188.542 97.6667 187.229 97.6667 Q185.151 97.6667 183.643 99.0026 Q182.135 100.339 182.135 104.073 L182.135 114.667 L178.885 114.667 Z" fill="#000000" fill-opacity="1.000000"/>
  <path d="M211.729 114.667 L211.729 111.464 Q209.901 114.667 206.37 114.667 Q204.073 114.667 202.143 113.409 Q200.214 112.151 199.159 109.885 Q198.104 107.62 198.104 104.682 Q198.104 101.823 199.065 99.487 Q200.026 97.151 201.94 95.9089 Q203.854 94.6667 206.214 94.6667 Q207.948 94.6667 209.307 95.4792 Q210.667 96.2917 211.51 97.6042 L211.51 87.6667 L214.745 87.6667 L214.745 114.667 L211.729 114.667 ZM201.448 104.682 Q201.448 108.182 203.003 109.924 Q204.557 111.667 206.667 111.667 Q208.792 111.667 210.284 110.003 Q211.776 108.339 211.776 104.932 Q211.776 101.182 210.26 99.4245 Q208.745 97.6667 206.526 97.6667 Q204.354 97.6667 202.901 99.3542 Q201.448 101.042 201.448 104.682 Z" fill="#000000" fill-opacity="1.000000"/>
  <path d="M218.464 104.667 Q218.464 99.3542 221.432 96.7917 Q223.901 94.6667 227.464 94.6667 Q231.417 94.6667 233.924 97.2526 Q236.432 99.8385 236.432 104.401 Q236.432 108.089 235.323 110.206 Q234.214 112.323 232.089 113.495 Q229.964 114.667 227.464 114.667 Q223.432 114.667 220.948 112.089 Q218.464 109.51 218.464 104.667 ZM221.807 104.651 Q221.807 108.167 223.417 109.917 Q225.026 111.667 227.464 111.667 Q229.87 111.667 231.479 109.909 Q233.089 108.151 233.089 104.557 Q233.089 101.167 231.471 99.4167 Q229.854 97.6667 227.464 97.6667 Q225.026 97.6667 223.417 99.4089 Q221.807 101.151 221.807 104.651 Z" fill="#000000" fill-opacity="1.000000"/>
  <path d="M240.057 114.667 L240.057 94.6667 L242.979 94.6667 L242.979 97.401 Q245.089 94.6667 249.089 94.6667 Q250.823 94.6667 252.276 95.2995 Q253.729 95.9323 254.456 96.9635 Q255.182 97.9948 255.464 99.4167 Q255.651 100.339 255.651 102.635 L255.651 114.667 L252.401 114.667 L252.401 102.854 Q252.401 100.854 252.018 99.8542 Q251.635 98.8542 250.674 98.2604 Q249.714 97.6667 248.401 97.6667 Q246.323 97.6667 244.815 99.0026 Q243.307 100.339 243.307 104.073 L243.307 114.667 L240.057 114.667 Z" fill="#000000" fill-opacity="1.000000"/>
  <path d="" fill="#000000" fill-opacity="1.000000"/>
  <path d="M269.37 106.667 L269.37 103.667 L279.37 103.667 L279.37 106.667 L269.37 106.667 Z" fill="#000000" fill-opacity="1.000000"/>
  <path d="" fill="#000000" fill-opacity="1.000000"/>
  <path d="M289.542 114.667 L299.714 87.6667 L303.479 87.6667 L314.323 114.667 L310.323 114.667 L307.245 106.667 L296.167 106.667 L293.26 114.667 L289.542 114.667 ZM297.182 103.667 L306.151 103.667 L303.385 96.3698 Q302.12 93.026 301.51 90.6667 Q301.01 93.3698 300.089 95.901 L297.182 103.667 Z" fill="#000000" fill-opacity="1.000000"/>
  <path d="M320.479 114.667 L313.182 94.6667 L316.62 94.6667 L320.729 106.635 Q321.401 108.573 321.964 110.667 Q322.401 109.089 323.167 106.87 L327.432 94.6667 L330.776 94.6667 L323.51 114.667 L320.479 114.667 Z" fill="#000000" fill-opacity="1.000000"/>
  <path d="M346.307 108.667 L349.667 108.667 Q348.87 111.51 346.721 113.089 Q344.573 114.667 341.229 114.667 Q337.026 114.667 334.557 112.081 Q332.089 109.495 332.089 104.823 Q332.089 99.9948 334.581 97.3307 Q337.073 94.6667 341.057 94.6667 Q344.901 94.6667 347.339 97.3229 Q349.776 99.9792 349.776 104.792 Q349.776 105.089 349.76 105.667 L335.448 105.667 Q335.635 108.573 337.237 110.12 Q338.839 111.667 341.245 111.667 Q343.042 111.667 344.307 110.948 Q345.573 110.229 346.307 108.667 ZM335.62 102.667 L346.339 102.667 Q346.12 100.464 345.104 99.3698 Q343.557 97.6667 341.073 97.6667 Q338.839 97.6667 337.307 99.026 Q335.776 100.385 335.62 102.667 Z" fill="#000000" fill-opacity="1.000000"/>
  <path d="M353.526 114.667 L353.526 94.6667 L356.448 94.6667 L356.448 97.651 Q357.573 95.8229 358.518 95.2448 Q359.464 94.6667 360.604 94.6667 Q362.245 94.6667 363.948 95.2917 L362.823 98.3073 Q361.635 97.6667 360.448 97.6667 Q359.385 97.6667 358.534 98.3385 Q357.682 99.0104 357.323 100.198 Q356.776 102.01 356.776 104.167 L356.776 114.667 L353.526 114.667 Z" fill="#000000" fill-opacity="1.000000"/>
  <path d="M378.292 112.667 Q376.495 113.76 374.823 114.214 Q373.151 114.667 371.245 114.667 Q368.073 114.667 366.378 113.073 Q364.682 111.479 364.682 109.01 Q364.682 107.557 365.323 106.354 Q365.964 105.151 367.003 104.424 Q368.042 103.698 369.339 103.323 Q370.292 103.057 372.229 102.823 Q376.167 102.339 378.026 101.667 Q378.042 101.104 378.042 100.948 Q378.042 99.276 377.12 98.5885 Q375.87 97.6667 373.417 97.6667 Q371.12 97.6667 370.034 98.3307 Q368.948 98.9948 368.417 100.667 L365.229 100.667 Q365.667 98.5885 366.659 97.3151 Q367.651 96.0417 369.526 95.3542 Q371.401 94.6667 373.885 94.6667 Q376.339 94.6667 377.878 95.2604 Q379.417 95.8542 380.135 96.7526 Q380.854 97.651 381.151 99.026 Q381.307 99.8854 381.307 101.932 L381.307 106.01 Q381.307 110.292 381.518 111.792 Q381.729 113.292 382.339 114.667 L378.948 114.667 Q378.432 113.807 378.292 112.667 ZM378.026 104.667 Q376.26 105.339 372.714 105.807 Q370.714 106.073 369.885 106.417 Q369.057 106.76 368.604 107.401 Q368.151 108.042 368.151 108.839 Q368.151 110.057 369.135 110.862 Q370.12 111.667 372.01 111.667 Q373.901 111.667 375.362 110.854 Q376.823 110.042 377.51 108.729 Q378.026 107.729 378.026 105.76 L378.026 104.667 Z" fill="#000000" fill-opacity="1.000000"/>
  <path d="M385.573 115.667 L388.729 115.667 Q388.932 117.12 389.839 117.776 Q391.042 118.667 393.135 118.667 Q395.401 118.667 396.628 117.956 Q397.854 117.245 398.292 115.964 Q398.542 115.182 398.526 112.667 Q396.401 114.667 393.214 114.667 Q389.26 114.667 387.089 111.76 Q384.917 108.854 384.917 104.776 Q384.917 101.979 385.909 99.612 Q386.901 97.2448 388.792 95.9557 Q390.682 94.6667 393.229 94.6667 Q396.635 94.6667 398.839 97.6667 L398.839 94.6667 L401.839 94.6667 L401.839 111.26 Q401.839 115.76 400.924 117.628 Q400.01 119.495 398.034 120.581 Q396.057 121.667 393.167 121.667 Q389.729 121.667 387.612 120.174 Q385.495 118.682 385.573 115.667 ZM388.26 104.542 Q388.26 108.26 389.76 109.964 Q391.26 111.667 393.51 111.667 Q395.76 111.667 397.276 109.971 Q398.792 108.276 398.792 104.651 Q398.792 101.182 397.229 99.4245 Q395.667 97.6667 393.464 97.6667 Q391.292 97.6667 389.776 99.401 Q388.26 101.135 388.26 104.542 Z" fill="#000000" fill-opacity="1.000000"/>
  <path d="M419.698 108.667 L423.057 108.667 Q422.26 111.51 420.112 113.089 Q417.964 114.667 414.62 114.667 Q410.417 114.667 407.948 112.081 Q405.479 109.495 405.479 104.823 Q405.479 99.9948 407.971 97.3307 Q410.464 94.6667 414.448 94.6667 Q418.292 94.6667 420.729 97.3229 Q423.167 99.9792 423.167 104.792 Q423.167 105.089 423.151 105.667 L408.839 105.667 Q409.026 108.573 410.628 110.12 Q412.229 111.667 414.635 111.667 Q416.432 111.667 417.698 110.948 Q418.964 110.229 419.698 108.667 ZM409.01 102.667 L419.729 102.667 Q419.51 100.464 418.495 99.3698 Q416.948 97.6667 414.464 97.6667 Q412.229 97.6667 410.698 99.026 Q409.167 100.385 409.01 102.667 Z" fill="#000000" fill-opacity="1.000000"/>
  <path d="" fill="#000000" fill-opacity="1.000000"/>
  <path d="M443.964 114.667 L443.964 90.6667 L435.245 90.6667 L435.245 87.6667 L456.229 87.6667 L456.229 90.6667 L447.464 90.6667 L447.464 114.667 L443.964 114.667 Z" fill="#000000" fill-opacity="1.000000"/>
  <path d="M469.995 108.667 L473.354 108.667 Q472.557 111.51 470.409 113.089 Q468.26 114.667 464.917 114.667 Q460.714 114.667 458.245 112.081 Q455.776 109.495 455.776 104.823 Q455.776 99.9948 458.268 97.3307 Q460.76 94.6667 464.745 94.6667 Q468.589 94.6667 471.026 97.3229 Q473.464 99.9792 473.464 104.792 Q473.464 105.089 473.448 105.667 L459.135 105.667 Q459.323 108.573 460.924 110.12 Q462.526 111.667 464.932 111.667 Q466.729 111.667 467.995 110.948 Q469.26 110.229 469.995 108.667 ZM459.307 102.667 L470.026 102.667 Q469.807 100.464 468.792 99.3698 Q467.245 97.6667 464.76 97.6667 Q462.526 97.6667 460.995 99.026 Q459.464 100.385 459.307 102.667 Z" fill="#000000" fill-opacity="1.000000"/>
  <path d="M475.214 114.667 L475.214 94.6667 L478.12 94.6667 L478.12 97.9792 Q479.026 96.4792 480.526 95.5729 Q482.026 94.6667 483.932 94.6667 Q486.073 94.6667 487.432 95.6042 Q488.792 96.5417 489.354 98.2135 Q491.635 94.6667 495.292 94.6667 Q498.135 94.6667 499.674 96.276 Q501.214 97.8854 501.214 101.245 L501.214 114.667 L497.979 114.667 L497.979 102.432 Q497.979 100.464 497.667 99.5964 Q497.354 98.7292 496.518 98.1979 Q495.682 97.6667 494.573 97.6667 Q492.542 97.6667 491.206 99.026 Q489.87 100.385 489.87 103.385 L489.87 114.667 L486.62 114.667 L486.62 102.057 Q486.62 99.8542 485.823 98.7604 Q485.026 97.6667 483.214 97.6667 Q481.839 97.6667 480.674 98.401 Q479.51 99.1354 478.987 100.542 Q478.464 101.948 478.464 104.604 L478.464 114.667 L475.214 114.667 Z" fill="#000000" fill-opacity="1.000000"/>
  <path d="M505.76 121.667 L505.76 94.6667 L508.729 94.6667 L508.729 98.026 Q509.776 96.3385 511.096 95.5026 Q512.417 94.6667 514.292 94.6667 Q516.745 94.6667 518.62 95.9245 Q520.495 97.1823 521.456 99.4792 Q522.417 101.776 522.417 104.526 Q522.417 107.464 521.362 109.815 Q520.307 112.167 518.292 113.417 Q516.276 114.667 514.057 114.667 Q512.432 114.667 511.135 113.893 Q509.839 113.12 509.01 111.948 L509.01 121.667 L505.76 121.667 ZM508.714 104.823 Q508.714 108.323 510.214 109.995 Q511.714 111.667 513.839 111.667 Q516.01 111.667 517.549 109.932 Q519.089 108.198 519.089 104.573 Q519.089 101.104 517.581 99.3854 Q516.073 97.6667 513.979 97.6667 Q511.901 97.6667 510.307 99.5026 Q508.714 101.339 508.714 104.823 Z" fill="#000000" fill-opacity="1.000000"/>
  <path d="M539.292 108.667 L542.651 108.667 Q541.854 111.51 539.706 113.089 Q537.557 114.667 534.214 114.667 Q530.01 114.667 527.542 112.081 Q525.073 109.495 525.073 104.823 Q525.073 99.9948 527.565 97.3307 Q530.057 94.6667 534.042 94.6667 Q537.885 94.6667 540.323 97.3229 Q542.76 99.9792 542.76 104.792 Q542.76 105.089 542.745 105.667 L528.432 105.667 Q528.62 108.573 530.221 110.12 Q531.823 111.667 534.229 111.667 Q536.026 111.667 537.292 110.948 Q538.557 110.229 539.292 108.667 ZM528.604 102.667 L539.323 102.667 Q539.104 100.464 538.089 99.3698 Q536.542 97.6667 534.057 97.6667 Q531.823 97.6667 530.292 99.026 Q528.76 100.385 528.604 102.667 Z" fill="#000000" fill-opacity="1.000000"/>
  <path d="M546.51 114.667 L546.51 94.6667 L549.432 94.6667 L549.432 97.651 Q550.557 95.8229 551.503 95.2448 Q552.448 94.6667 553.589 94.6667 Q555.229 94.6667 556.932 95.2917 L555.807 98.3073 Q554.62 97.6667 553.432 97.6667 Q552.37 97.6667 551.518 98.3385 Q550.667 99.0104 550.307 100.198 Q549.76 102.01 549.76 104.167 L549.76 114.667 L546.51 114.667 Z" fill="#000000" fill-opacity="1.000000"/>
  <path d="M571.276 112.667 Q569.479 113.76 567.807 114.214 Q566.135 114.667 564.229 114.667 Q561.057 114.667 559.362 113.073 Q557.667 111.479 557.667 109.01 Q557.667 107.557 558.307 106.354 Q558.948 105.151 559.987 104.424 Q561.026 103.698 562.323 103.323 Q563.276 103.057 565.214 102.823 Q569.151 102.339 571.01 101.667 Q571.026 101.104 571.026 100.948 Q571.026 99.276 570.104 98.5885 Q568.854 97.6667 566.401 97.6667 Q564.104 97.6667 563.018 98.3307 Q561.932 98.9948 561.401 100.667 L558.214 100.667 Q558.651 98.5885 559.643 97.3151 Q560.635 96.0417 562.51 95.3542 Q564.385 94.6667 566.87 94.6667 Q569.323 94.6667 570.862 95.2604 Q572.401 95.8542 573.12 96.7526 Q573.839 97.651 574.135 99.026 Q574.292 99.8854 574.292 101.932 L574.292 106.01 Q574.292 110.292 574.503 111.792 Q574.714 113.292 575.323 114.667 L571.932 114.667 Q571.417 113.807 571.276 112.667 ZM571.01 104.667 Q569.245 105.339 565.698 105.807 Q563.698 106.073 562.87 106.417 Q562.042 106.76 561.589 107.401 Q561.135 108.042 561.135 108.839 Q561.135 110.057 562.12 110.862 Q563.104 111.667 564.995 111.667 Q566.885 111.667 568.346 110.854 Q569.807 110.042 570.495 108.729 Q571.01 107.729 571.01 105.76 L571.01 104.667 Z" fill="#000000" fill-opacity="1.000000"/>
  <path d="M586.26 111.51 L586.729 114.385 Q585.354 114.667 584.276 114.667 Q582.495 114.667 581.518 114.104 Q580.542 113.542 580.143 112.628 Q579.745 111.714 579.745 108.76 L579.745 97.6667 L577.37 97.6667 L577.37 94.6667 L579.745 94.6667 L579.745 89.9167 L582.979 87.9635 L582.979 94.6667 L586.26 94.6667 L586.26 97.6667 L582.979 97.6667 L582.979 108.979 Q582.979 110.385 583.151 110.792 Q583.323 111.198 583.714 111.432 Q584.104 111.667 584.823 111.667 Q585.37 111.667 586.26 111.51 Z" fill="#000000" fill-opacity="1.000000"/>
  <path d="M601.917 114.667 L601.917 111.214 Q599.682 114.667 595.823 114.667 Q594.12 114.667 592.651 114.003 Q591.182 113.339 590.464 112.339 Q589.745 111.339 589.464 109.885 Q589.26 108.901 589.26 106.792 L589.26 94.6667 L592.526 94.6667 L592.526 105.417 Q592.526 107.995 592.729 108.885 Q593.026 110.182 594.026 110.924 Q595.026 111.667 596.479 111.667 Q597.948 111.667 599.229 110.909 Q600.51 110.151 601.042 108.846 Q601.573 107.542 601.573 105.057 L601.573 94.6667 L604.823 94.6667 L604.823 114.667 L601.917 114.667 Z" fill="#000000" fill-opacity="1.000000"/>
  <path d="M609.698 114.667 L609.698 94.6667 L612.62 94.6667 L612.62 97.651 Q613.745 95.8229 614.69 95.2448 Q615.635 94.6667 616.776 94.6667 Q618.417 94.6667 620.12 95.2917 L618.995 98.3073 Q617.807 97.6667 616.62 97.6667 Q615.557 97.6667 614.706 98.3385 Q613.854 99.0104 613.495 100.198 Q612.948 102.01 612.948 104.167 L612.948 114.667 L609.698 114.667 Z" fill="#000000" fill-opacity="1.000000"/>
  <path d="M635.089 108.667 L638.448 108.667 Q637.651 111.51 635.503 113.089 Q633.354 114.667 630.01 114.667 Q625.807 114.667 623.339 112.081 Q620.87 109.495 620.87 104.823 Q620.87 99.9948 623.362 97.3307 Q625.854 94.6667 629.839 94.6667 Q633.682 94.6667 636.12 97.3229 Q638.557 99.9792 638.557 104.792 Q638.557 105.089 638.542 105.667 L624.229 105.667 Q624.417 108.573 626.018 110.12 Q627.62 111.667 630.026 111.667 Q631.823 111.667 633.089 110.948 Q634.354 110.229 635.089 108.667 ZM624.401 102.667 L635.12 102.667 Q634.901 100.464 633.885 99.3698 Q632.339 97.6667 629.854 97.6667 Q627.62 97.6667 626.089 99.026 Q624.557 100.385 624.401 102.667 Z" fill="#000000" fill-opacity="1.000000"/>
  <path d="M100.833 115.417 C93.2394 115.417 87.0833 109.261 87.0833 101.667 C87.0833 94.0728 93.2394 87.9167 100.833 87.9167 C108.427 87.9167 114.583 94.0728 114.583 101.667 C114.583 109.261 108.427 115.417 100.833 115.417 Z" fill="#4572a7" fill-opacity="1.000000"/>
</svg>