<?xml version="1.0" encoding="UTF-8" ?>
<!-- Generated by clip v0.7.0 (clip-lang.org) -->
<svg xmlns="http://www.w3.org/2000/svg" width="1600.000000" height="800.000000">
  <rect width="1600.000000" height="800.000000" fill="#ffffff" fill-opacity="1.000000"/>
  <path d="M137.359 692 L1563.33 692 " fill="none" stroke-width="3.333333" stroke="#000000ff"/>
  <path d="M137.359 692 L137.359 678.667 " fill="none" stroke-width="3.333333" stroke="#000000ff"/>
  <path d="M279.957 692 L279.957 678.667 " fill="none" stroke-width="3.333333" stroke="#000000ff"/>
  <path d="M422.554 692 L422.554 678.667 " fill="none" stroke-width="3.333333" stroke="#000000ff"/>
  <path d="M565.152 692 L565.152 678.667 " fill="none" stroke-width="3.333333" stroke="#000000ff"/>
  <path d="M707.749 692 L707.749 678.667 " fill="none" stroke-width="3.333333" stroke="#000000ff"/>
  <path d="M850.346 692 L850.346 678.667 " fill="none" stroke-width="3.333333" stroke="#000000ff"/>
  <path d="M992.944 692 L992.944 678.667 " fill="none" stroke-width="3.333333" stroke="#000000ff"/>
  <path d="M1135.54 692 L1135.54 678.667 " fill="none" stroke-width="3.333333" stroke="#000000ff"/>
  <path d="M1278.14 692 L1278.14 678.667 " fill="none" stroke-width="3.333333" stroke="#000000ff"/>
  <path d="M1420.74 692 L1420.74 678.667 " fill="none" stroke-width="3.333333" stroke="#000000ff"/>
  <path d="M1563.33 692 L1563.33 678.667 " fill="none" stroke-width="3.333333" stroke="#000000ff"/>
  <path d="M113.406 741.849 Q113.406 737.146 114.375 734.294 Q115.344 731.443 117.25 729.888 Q119.156 728.333 122.047 728.333 Q124.188 728.333 125.789 729.193 Q127.391 730.052 128.445 731.661 Q129.5 733.271 130.094 735.591 Q130.688 737.911 130.688 741.849 Q130.688 746.49 129.727 749.349 Q128.766 752.208 126.859 753.771 Q124.953 755.333 122.047 755.333 Q118.219 755.333 116.031 752.599 Q113.406 749.286 113.406 741.849 ZM116.75 741.833 Q116.75 748.146 118.281 750.24 Q119.812 752.333 122.047 752.333 Q124.281 752.333 125.812 750.232 Q127.344 748.13 127.344 741.833 Q127.344 735.505 125.812 733.419 Q124.281 731.333 122.016 731.333 Q119.766 731.333 118.438 733.177 Q116.75 735.521 116.75 741.833 Z" fill="#000000" fill-opacity="1.000000"/>
  <path d="M135.625 755.333 L135.625 752.333 L139.328 752.333 L139.328 755.333 L135.625 755.333 Z" fill="#000000" fill-opacity="1.000000"/>
  <path d="M143.984 741.849 Q143.984 737.146 144.953 734.294 Q145.922 731.443 147.828 729.888 Q149.734 728.333 152.625 728.333 Q154.766 728.333 156.367 729.193 Q157.969 730.052 159.023 731.661 Q160.078 733.271 160.672 735.591 Q161.266 737.911 161.266 741.849 Q161.266 746.49 160.305 749.349 Q159.344 752.208 157.438 753.771 Q155.531 755.333 152.625 755.333 Q148.797 755.333 146.609 752.599 Q143.984 749.286 143.984 741.849 ZM147.328 741.833 Q147.328 748.146 148.859 750.24 Q150.391 752.333 152.625 752.333 Q154.859 752.333 156.391 750.232 Q157.922 748.13 157.922 741.833 Q157.922 735.505 156.391 733.419 Q154.859 731.333 152.594 731.333 Q150.344 731.333 149.016 733.177 Q147.328 735.521 147.328 741.833 Z" fill="#000000" fill-opacity="1.000000"/>
  <path d="M258.058 755.333 L254.808 755.333 L254.808 734.302 Q253.636 735.443 251.73 736.576 Q249.824 737.708 248.308 738.271 L248.308 735.083 Q251.043 733.786 253.082 731.935 Q255.121 730.083 255.965 728.333 L258.058 728.333 L258.058 755.333 Z" fill="#000000" fill-opacity="1.000000"/>
  <path d="M266.199 741.849 Q266.199 737.146 267.168 734.294 Q268.136 731.443 270.043 729.888 Q271.949 728.333 274.84 728.333 Q276.98 728.333 278.582 729.193 Q280.183 730.052 281.238 731.661 Q282.293 733.271 282.886 735.591 Q283.48 737.911 283.48 741.849 Q283.48 746.49 282.519 749.349 Q281.558 752.208 279.652 753.771 Q277.746 755.333 274.84 755.333 Q271.011 755.333 268.824 752.599 Q266.199 749.286 266.199 741.849 ZM269.543 741.833 Q269.543 748.146 271.074 750.24 Q272.605 752.333 274.84 752.333 Q277.074 752.333 278.605 750.232 Q280.136 748.13 280.136 741.833 Q280.136 735.505 278.605 733.419 Q277.074 731.333 274.808 731.333 Q272.558 731.333 271.23 733.177 Q269.543 735.521 269.543 741.833 Z" fill="#000000" fill-opacity="1.000000"/>
  <path d="M288.418 755.333 L288.418 752.333 L292.121 752.333 L292.121 755.333 L288.418 755.333 Z" fill="#000000" fill-opacity="1.000000"/>
  <path d="M296.777 741.849 Q296.777 737.146 297.746 734.294 Q298.715 731.443 300.621 729.888 Q302.527 728.333 305.418 728.333 Q307.558 728.333 309.16 729.193 Q310.761 730.052 311.816 731.661 Q312.871 733.271 313.465 735.591 Q314.058 737.911 314.058 741.849 Q314.058 746.49 313.097 749.349 Q312.136 752.208 310.23 753.771 Q308.324 755.333 305.418 755.333 Q301.59 755.333 299.402 752.599 Q296.777 749.286 296.777 741.849 ZM300.121 741.833 Q300.121 748.146 301.652 750.24 Q303.183 752.333 305.418 752.333 Q307.652 752.333 309.183 750.232 Q310.715 748.13 310.715 741.833 Q310.715 735.505 309.183 733.419 Q307.652 731.333 305.386 731.333 Q303.136 731.333 301.808 733.177 Q300.121 735.521 300.121 741.833 Z" fill="#000000" fill-opacity="1.000000"/>
  <path d="M405.499 752.333 L405.499 755.333 L387.999 755.333 Q387.953 754.208 388.374 753.161 Q389.046 751.443 390.515 749.779 Q391.984 748.115 394.765 745.74 Q399.093 742.052 400.609 739.951 Q402.124 737.849 402.124 735.99 Q402.124 734.021 400.742 732.677 Q399.359 731.333 397.14 731.333 Q394.796 731.333 393.382 732.396 Q391.968 733.458 391.953 735.333 L388.609 735.333 Q388.953 731.911 391.195 730.122 Q393.437 728.333 397.203 728.333 Q401.031 728.333 403.249 730.505 Q405.468 732.677 405.468 735.896 Q405.468 737.536 404.82 739.115 Q404.171 740.693 402.656 742.443 Q401.14 744.193 397.64 747.177 Q394.718 749.661 393.89 750.552 Q393.062 751.443 392.515 752.333 L405.499 752.333 Z" fill="#000000" fill-opacity="1.000000"/>
  <path d="M408.796 741.849 Q408.796 737.146 409.765 734.294 Q410.734 731.443 412.64 729.888 Q414.546 728.333 417.437 728.333 Q419.578 728.333 421.179 729.193 Q422.781 730.052 423.835 731.661 Q424.89 733.271 425.484 735.591 Q426.078 737.911 426.078 741.849 Q426.078 746.49 425.117 749.349 Q424.156 752.208 422.249 753.771 Q420.343 755.333 417.437 755.333 Q413.609 755.333 411.421 752.599 Q408.796 749.286 408.796 741.849 ZM412.14 741.833 Q412.14 748.146 413.671 750.24 Q415.203 752.333 417.437 752.333 Q419.671 752.333 421.203 750.232 Q422.734 748.13 422.734 741.833 Q422.734 735.505 421.203 733.419 Q419.671 731.333 417.406 731.333 Q415.156 731.333 413.828 733.177 Q412.14 735.521 412.14 741.833 Z" fill="#000000" fill-opacity="1.000000"/>
  <path d="M431.015 755.333 L431.015 752.333 L434.718 752.333 L434.718 755.333 L431.015 755.333 Z" fill="#000000" fill-opacity="1.000000"/>
  <path d="M439.374 741.849 Q439.374 737.146 440.343 734.294 Q441.312 731.443 443.218 729.888 Q445.124 728.333 448.015 728.333 Q450.156 728.333 451.757 729.193 Q453.359 730.052 454.414 731.661 Q455.468 733.271 456.062 735.591 Q456.656 737.911 456.656 741.849 Q456.656 746.49 455.695 749.349 Q454.734 752.208 452.828 753.771 Q450.921 755.333 448.015 755.333 Q444.187 755.333 441.999 752.599 Q439.374 749.286 439.374 741.849 ZM442.718 741.833 Q442.718 748.146 444.249 750.24 Q445.781 752.333 448.015 752.333 Q450.249 752.333 451.781 750.232 Q453.312 748.13 453.312 741.833 Q453.312 735.505 451.781 733.419 Q450.249 731.333 447.984 731.333 Q445.734 731.333 444.406 733.177 Q442.718 735.521 442.718 741.833 Z" fill="#000000" fill-opacity="1.000000"/>
  <path d="M531.019 748.333 L534.284 748.333 Q534.847 750.458 536.191 751.396 Q537.534 752.333 539.472 752.333 Q541.769 752.333 543.347 750.794 Q544.925 749.255 544.925 746.974 Q544.925 744.802 543.464 743.38 Q542.003 741.958 539.738 741.958 Q538.816 741.958 537.441 742.333 L537.8 739.333 Q538.128 739.365 538.331 739.365 Q540.409 739.365 542.066 738.349 Q543.722 737.333 543.722 735.208 Q543.722 733.536 542.511 732.435 Q541.3 731.333 539.378 731.333 Q537.488 731.333 536.222 732.333 Q534.956 733.333 534.597 735.333 L531.347 735.333 Q531.941 732.005 534.058 730.169 Q536.175 728.333 539.316 728.333 Q541.488 728.333 543.308 729.255 Q545.128 730.177 546.097 731.763 Q547.066 733.349 547.066 735.13 Q547.066 736.818 546.144 738.208 Q545.222 739.599 543.425 740.427 Q545.769 740.974 547.066 742.693 Q548.363 744.411 548.363 746.99 Q548.363 750.474 545.831 752.904 Q543.3 755.333 539.441 755.333 Q535.956 755.333 533.652 753.388 Q531.347 751.443 531.019 748.333 Z" fill="#000000" fill-opacity="1.000000"/>
  <path d="M551.394 741.849 Q551.394 737.146 552.363 734.294 Q553.331 731.443 555.238 729.888 Q557.144 728.333 560.034 728.333 Q562.175 728.333 563.777 729.193 Q565.378 730.052 566.433 731.661 Q567.488 733.271 568.081 735.591 Q568.675 737.911 568.675 741.849 Q568.675 746.49 567.714 749.349 Q566.753 752.208 564.847 753.771 Q562.941 755.333 560.034 755.333 Q556.206 755.333 554.019 752.599 Q551.394 749.286 551.394 741.849 ZM554.738 741.833 Q554.738 748.146 556.269 750.24 Q557.8 752.333 560.034 752.333 Q562.269 752.333 563.8 750.232 Q565.331 748.13 565.331 741.833 Q565.331 735.505 563.8 733.419 Q562.269 731.333 560.003 731.333 Q557.753 731.333 556.425 733.177 Q554.738 735.521 554.738 741.833 Z" fill="#000000" fill-opacity="1.000000"/>
  <path d="M573.613 755.333 L573.613 752.333 L577.316 752.333 L577.316 755.333 L573.613 755.333 Z" fill="#000000" fill-opacity="1.000000"/>
  <path d="M581.972 741.849 Q581.972 737.146 582.941 734.294 Q583.909 731.443 585.816 729.888 Q587.722 728.333 590.613 728.333 Q592.753 728.333 594.355 729.193 Q595.956 730.052 597.011 731.661 Q598.066 733.271 598.659 735.591 Q599.253 737.911 599.253 741.849 Q599.253 746.49 598.292 749.349 Q597.331 752.208 595.425 753.771 Q593.519 755.333 590.613 755.333 Q586.784 755.333 584.597 752.599 Q581.972 749.286 581.972 741.849 ZM585.316 741.833 Q585.316 748.146 586.847 750.24 Q588.378 752.333 590.613 752.333 Q592.847 752.333 594.378 750.232 Q595.909 748.13 595.909 741.833 Q595.909 735.505 594.378 733.419 Q592.847 731.333 590.581 731.333 Q588.331 731.333 587.003 733.177 Q585.316 735.521 585.316 741.833 Z" fill="#000000" fill-opacity="1.000000"/>
  <path d="M684.022 755.333 L684.022 749.333 L672.538 749.333 L672.538 746.333 L684.632 728.333 L687.288 728.333 L687.288 746.333 L690.866 746.333 L690.866 749.333 L687.288 749.333 L687.288 755.333 L684.022 755.333 ZM684.022 746.333 L684.022 734.005 L675.741 746.333 L684.022 746.333 Z" fill="#000000" fill-opacity="1.000000"/>
  <path d="M693.991 741.849 Q693.991 737.146 694.96 734.294 Q695.929 731.443 697.835 729.888 Q699.741 728.333 702.632 728.333 Q704.772 728.333 706.374 729.193 Q707.976 730.052 709.03 731.661 Q710.085 733.271 710.679 735.591 Q711.272 737.911 711.272 741.849 Q711.272 746.49 710.311 749.349 Q709.351 752.208 707.444 753.771 Q705.538 755.333 702.632 755.333 Q698.804 755.333 696.616 752.599 Q693.991 749.286 693.991 741.849 ZM697.335 741.833 Q697.335 748.146 698.866 750.24 Q700.397 752.333 702.632 752.333 Q704.866 752.333 706.397 750.232 Q707.929 748.13 707.929 741.833 Q707.929 735.505 706.397 733.419 Q704.866 731.333 702.601 731.333 Q700.351 731.333 699.022 733.177 Q697.335 735.521 697.335 741.833 Z" fill="#000000" fill-opacity="1.000000"/>
  <path d="M716.21 755.333 L716.21 752.333 L719.913 752.333 L719.913 755.333 L716.21 755.333 Z" fill="#000000" fill-opacity="1.000000"/>
  <path d="M724.569 741.849 Q724.569 737.146 725.538 734.294 Q726.507 731.443 728.413 729.888 Q730.319 728.333 733.21 728.333 Q735.351 728.333 736.952 729.193 Q738.554 730.052 739.608 731.661 Q740.663 733.271 741.257 735.591 Q741.851 737.911 741.851 741.849 Q741.851 746.49 740.89 749.349 Q739.929 752.208 738.022 753.771 Q736.116 755.333 733.21 755.333 Q729.382 755.333 727.194 752.599 Q724.569 749.286 724.569 741.849 ZM727.913 741.833 Q727.913 748.146 729.444 750.24 Q730.976 752.333 733.21 752.333 Q735.444 752.333 736.976 750.232 Q738.507 748.13 738.507 741.833 Q738.507 735.505 736.976 733.419 Q735.444 731.333 733.179 731.333 Q730.929 731.333 729.601 733.177 Q727.913 735.521 727.913 741.833 Z" fill="#000000" fill-opacity="1.000000"/>
  <path d="M816.198 748.333 L819.62 748.333 Q819.995 750.333 821.378 751.333 Q822.76 752.333 824.714 752.333 Q827.057 752.333 828.682 750.63 Q830.307 748.927 830.307 746.115 Q830.307 743.427 828.745 741.88 Q827.182 740.333 824.651 740.333 Q823.089 740.333 821.823 740.888 Q820.557 741.443 819.839 742.333 L816.776 742.333 L819.339 728.333 L832.51 728.333 L832.51 731.333 L821.948 731.333 L820.526 739.068 Q822.917 737.333 825.526 737.333 Q828.995 737.333 831.378 739.732 Q833.76 742.13 833.76 745.911 Q833.76 749.505 831.667 752.115 Q829.12 755.333 824.714 755.333 Q821.089 755.333 818.807 753.419 Q816.526 751.505 816.198 748.333 Z" fill="#000000" fill-opacity="1.000000"/>
  <path d="M836.589 741.849 Q836.589 737.146 837.557 734.294 Q838.526 731.443 840.432 729.888 Q842.339 728.333 845.229 728.333 Q847.37 728.333 848.971 729.193 Q850.573 730.052 851.628 731.661 Q852.682 733.271 853.276 735.591 Q853.87 737.911 853.87 741.849 Q853.87 746.49 852.909 749.349 Q851.948 752.208 850.042 753.771 Q848.135 755.333 845.229 755.333 Q841.401 755.333 839.214 752.599 Q836.589 749.286 836.589 741.849 ZM839.932 741.833 Q839.932 748.146 841.464 750.24 Q842.995 752.333 845.229 752.333 Q847.464 752.333 848.995 750.232 Q850.526 748.13 850.526 741.833 Q850.526 735.505 848.995 733.419 Q847.464 731.333 845.198 731.333 Q842.948 731.333 841.62 733.177 Q839.932 735.521 839.932 741.833 Z" fill="#000000" fill-opacity="1.000000"/>
  <path d="M858.807 755.333 L858.807 752.333 L862.51 752.333 L862.51 755.333 L858.807 755.333 Z" fill="#000000" fill-opacity="1.000000"/>
  <path d="M867.167 741.849 Q867.167 737.146 868.135 734.294 Q869.104 731.443 871.01 729.888 Q872.917 728.333 875.807 728.333 Q877.948 728.333 879.549 729.193 Q881.151 730.052 882.206 731.661 Q883.26 733.271 883.854 735.591 Q884.448 737.911 884.448 741.849 Q884.448 746.49 883.487 749.349 Q882.526 752.208 880.62 753.771 Q878.714 755.333 875.807 755.333 Q871.979 755.333 869.792 752.599 Q867.167 749.286 867.167 741.849 ZM870.51 741.833 Q870.51 748.146 872.042 750.24 Q873.573 752.333 875.807 752.333 Q878.042 752.333 879.573 750.232 Q881.104 748.13 881.104 741.833 Q881.104 735.505 879.573 733.419 Q878.042 731.333 875.776 731.333 Q873.526 731.333 872.198 733.177 Q870.51 735.521 870.51 741.833 Z" fill="#000000" fill-opacity="1.000000"/>
  <path d="M975.67 735.333 L972.436 735.333 Q971.998 733.505 971.202 732.661 Q969.889 731.333 967.952 731.333 Q966.405 731.333 965.233 732.099 Q963.702 733.099 962.811 735.013 Q961.92 736.927 961.889 740.865 Q963.061 739.068 964.756 738.201 Q966.452 737.333 968.327 737.333 Q971.577 737.333 973.858 739.779 Q976.139 742.224 976.139 746.099 Q976.139 748.646 975.061 750.826 Q973.983 753.005 972.108 754.169 Q970.233 755.333 967.842 755.333 Q963.78 755.333 961.217 752.349 Q958.655 749.365 958.655 742.505 Q958.655 734.849 961.498 731.365 Q963.967 728.333 968.155 728.333 Q971.28 728.333 973.28 730.193 Q975.28 732.052 975.67 735.333 ZM962.389 746.021 Q962.389 747.693 963.1 749.216 Q963.811 750.74 965.1 751.536 Q966.389 752.333 967.795 752.333 Q969.858 752.333 971.342 750.685 Q972.827 749.036 972.827 746.193 Q972.827 743.474 971.358 741.904 Q969.889 740.333 967.67 740.333 Q965.467 740.333 963.928 741.904 Q962.389 743.474 962.389 746.021 Z" fill="#000000" fill-opacity="1.000000"/>
  <path d="M979.186 741.849 Q979.186 737.146 980.155 734.294 Q981.123 731.443 983.03 729.888 Q984.936 728.333 987.827 728.333 Q989.967 728.333 991.569 729.193 Q993.17 730.052 994.225 731.661 Q995.28 733.271 995.873 735.591 Q996.467 737.911 996.467 741.849 Q996.467 746.49 995.506 749.349 Q994.545 752.208 992.639 753.771 Q990.733 755.333 987.827 755.333 Q983.998 755.333 981.811 752.599 Q979.186 749.286 979.186 741.849 ZM982.53 741.833 Q982.53 748.146 984.061 750.24 Q985.592 752.333 987.827 752.333 Q990.061 752.333 991.592 750.232 Q993.123 748.13 993.123 741.833 Q993.123 735.505 991.592 733.419 Q990.061 731.333 987.795 731.333 Q985.545 731.333 984.217 733.177 Q982.53 735.521 982.53 741.833 Z" fill="#000000" fill-opacity="1.000000"/>
  <path d="M1001.4 755.333 L1001.4 752.333 L1005.11 752.333 L1005.11 755.333 L1001.4 755.333 Z" fill="#000000" fill-opacity="1.000000"/>
  <path d="M1009.76 741.849 Q1009.76 737.146 1010.73 734.294 Q1011.7 731.443 1013.61 729.888 Q1015.51 728.333 1018.4 728.333 Q1020.55 728.333 1022.15 729.193 Q1023.75 730.052 1024.8 731.661 Q1025.86 733.271 1026.45 735.591 Q1027.05 737.911 1027.05 741.849 Q1027.05 746.49 1026.08 749.349 Q1025.12 752.208 1023.22 753.771 Q1021.31 755.333 1018.4 755.333 Q1014.58 755.333 1012.39 752.599 Q1009.76 749.286 1009.76 741.849 ZM1013.11 741.833 Q1013.11 748.146 1014.64 750.24 Q1016.17 752.333 1018.4 752.333 Q1020.64 752.333 1022.17 750.232 Q1023.7 748.13 1023.7 741.833 Q1023.7 735.505 1022.17 733.419 Q1020.64 731.333 1018.37 731.333 Q1016.12 731.333 1014.8 733.177 Q1013.11 735.521 1013.11 741.833 Z" fill="#000000" fill-opacity="1.000000"/>
  <path d="M1101.61 731.333 L1101.61 728.333 L1118.75 728.333 L1118.75 730.755 Q1116.24 733.521 1113.75 738.177 Q1111.27 742.833 1109.91 747.74 Q1108.92 751.208 1108.66 755.333 L1105.31 755.333 Q1105.36 752.068 1106.54 747.458 Q1107.72 742.849 1109.92 738.56 Q1112.11 734.271 1114.58 731.333 L1101.61 731.333 Z" fill="#000000" fill-opacity="1.000000"/>
  <path d="M1121.78 741.849 Q1121.78 737.146 1122.75 734.294 Q1123.72 731.443 1125.63 729.888 Q1127.53 728.333 1130.42 728.333 Q1132.56 728.333 1134.17 729.193 Q1135.77 730.052 1136.82 731.661 Q1137.88 733.271 1138.47 735.591 Q1139.06 737.911 1139.06 741.849 Q1139.06 746.49 1138.1 749.349 Q1137.14 752.208 1135.24 753.771 Q1133.33 755.333 1130.42 755.333 Q1126.6 755.333 1124.41 752.599 Q1121.78 749.286 1121.78 741.849 ZM1125.13 741.833 Q1125.13 748.146 1126.66 750.24 Q1128.19 752.333 1130.42 752.333 Q1132.66 752.333 1134.19 750.232 Q1135.72 748.13 1135.72 741.833 Q1135.72 735.505 1134.19 733.419 Q1132.66 731.333 1130.39 731.333 Q1128.14 731.333 1126.81 733.177 Q1125.13 735.521 1125.13 741.833 Z" fill="#000000" fill-opacity="1.000000"/>
  <path d="M1144 755.333 L1144 752.333 L1147.71 752.333 L1147.71 755.333 L1144 755.333 Z" fill="#000000" fill-opacity="1.000000"/>
  <path d="M1152.36 741.849 Q1152.36 737.146 1153.33 734.294 Q1154.3 731.443 1156.21 729.888 Q1158.11 728.333 1161 728.333 Q1163.14 728.333 1164.74 729.193 Q1166.35 730.052 1167.4 731.661 Q1168.46 733.271 1169.05 735.591 Q1169.64 737.911 1169.64 741.849 Q1169.64 746.49 1168.68 749.349 Q1167.72 752.208 1165.81 753.771 Q1163.91 755.333 1161 755.333 Q1157.17 755.333 1154.99 752.599 Q1152.36 749.286 1152.36 741.849 ZM1155.71 741.833 Q1155.71 748.146 1157.24 750.24 Q1158.77 752.333 1161 752.333 Q1163.24 752.333 1164.77 750.232 Q1166.3 748.13 1166.3 741.833 Q1166.3 735.505 1164.77 733.419 Q1163.24 731.333 1160.97 731.333 Q1158.72 731.333 1157.39 733.177 Q1155.71 735.521 1155.71 741.833 Z" fill="#000000" fill-opacity="1.000000"/>
  <path d="M1249.01 740.74 Q1246.97 739.99 1246 738.599 Q1245.02 737.208 1245.02 735.255 Q1245.02 732.333 1247.1 730.333 Q1249.18 728.333 1252.63 728.333 Q1256.1 728.333 1258.22 730.38 Q1260.33 732.427 1260.33 735.349 Q1260.33 737.224 1259.37 738.607 Q1258.4 739.99 1256.43 740.74 Q1258.87 741.521 1260.14 743.263 Q1261.41 745.005 1261.41 747.427 Q1261.41 750.771 1259.01 753.052 Q1256.6 755.333 1252.68 755.333 Q1248.77 755.333 1246.37 753.044 Q1243.96 750.755 1243.96 747.349 Q1243.96 744.802 1245.27 743.083 Q1246.58 741.365 1249.01 740.74 ZM1248.35 735.224 Q1248.35 737.036 1249.56 738.185 Q1250.77 739.333 1252.71 739.333 Q1254.58 739.333 1255.79 738.193 Q1256.99 737.052 1256.99 735.396 Q1256.99 733.677 1255.76 732.505 Q1254.52 731.333 1252.68 731.333 Q1250.8 731.333 1249.58 732.482 Q1248.35 733.63 1248.35 735.224 ZM1247.3 747.286 Q1247.3 748.583 1247.96 749.794 Q1248.62 751.005 1249.92 751.669 Q1251.22 752.333 1252.72 752.333 Q1255.05 752.333 1256.57 750.935 Q1258.08 749.536 1258.08 747.38 Q1258.08 745.193 1256.52 743.763 Q1254.96 742.333 1252.62 742.333 Q1250.32 742.333 1248.81 743.747 Q1247.3 745.161 1247.3 747.286 Z" fill="#000000" fill-opacity="1.000000"/>
  <path d="M1264.38 741.849 Q1264.38 737.146 1265.35 734.294 Q1266.32 731.443 1268.22 729.888 Q1270.13 728.333 1273.02 728.333 Q1275.16 728.333 1276.76 729.193 Q1278.37 730.052 1279.42 731.661 Q1280.47 733.271 1281.07 735.591 Q1281.66 737.911 1281.66 741.849 Q1281.66 746.49 1280.7 749.349 Q1279.74 752.208 1277.83 753.771 Q1275.93 755.333 1273.02 755.333 Q1269.19 755.333 1267.01 752.599 Q1264.38 749.286 1264.38 741.849 ZM1267.72 741.833 Q1267.72 748.146 1269.26 750.24 Q1270.79 752.333 1273.02 752.333 Q1275.26 752.333 1276.79 750.232 Q1278.32 748.13 1278.32 741.833 Q1278.32 735.505 1276.79 733.419 Q1275.26 731.333 1272.99 731.333 Q1270.74 731.333 1269.41 733.177 Q1267.72 735.521 1267.72 741.833 Z" fill="#000000" fill-opacity="1.000000"/>
  <path d="M1286.6 755.333 L1286.6 752.333 L1290.3 752.333 L1290.3 755.333 L1286.6 755.333 Z" fill="#000000" fill-opacity="1.000000"/>
  <path d="M1294.96 741.849 Q1294.96 737.146 1295.93 734.294 Q1296.9 731.443 1298.8 729.888 Q1300.71 728.333 1303.6 728.333 Q1305.74 728.333 1307.34 729.193 Q1308.94 730.052 1310 731.661 Q1311.05 733.271 1311.65 735.591 Q1312.24 737.911 1312.24 741.849 Q1312.24 746.49 1311.28 749.349 Q1310.32 752.208 1308.41 753.771 Q1306.51 755.333 1303.6 755.333 Q1299.77 755.333 1297.58 752.599 Q1294.96 749.286 1294.96 741.849 ZM1298.3 741.833 Q1298.3 748.146 1299.83 750.24 Q1301.37 752.333 1303.6 752.333 Q1305.83 752.333 1307.37 750.232 Q1308.9 748.13 1308.9 741.833 Q1308.9 735.505 1307.37 733.419 Q1305.83 731.333 1303.57 731.333 Q1301.32 731.333 1299.99 733.177 Q1298.3 735.521 1298.3 741.833 Z" fill="#000000" fill-opacity="1.000000"/>
  <path d="M1387.09 748.333 L1390.21 748.333 Q1390.6 750.443 1391.73 751.388 Q1392.85 752.333 1394.6 752.333 Q1396.1 752.333 1397.23 751.724 Q1398.35 751.115 1399.08 750.099 Q1399.81 749.083 1400.29 747.302 Q1400.78 745.521 1400.78 743.505 Q1400.78 743.286 1400.76 742.849 Q1399.79 744.411 1398.1 745.372 Q1396.4 746.333 1394.43 746.333 Q1391.15 746.333 1388.87 743.896 Q1386.59 741.458 1386.59 737.474 Q1386.59 733.349 1388.96 730.841 Q1391.34 728.333 1394.92 728.333 Q1397.51 728.333 1399.65 729.724 Q1401.79 731.115 1402.9 733.685 Q1404.01 736.255 1404.01 741.115 Q1404.01 746.193 1402.91 749.193 Q1401.81 752.193 1399.63 753.763 Q1397.45 755.333 1394.53 755.333 Q1391.42 755.333 1389.45 753.497 Q1387.48 751.661 1387.09 748.333 ZM1400.4 737.396 Q1400.4 734.615 1398.91 732.974 Q1397.42 731.333 1395.32 731.333 Q1393.15 731.333 1391.54 733.099 Q1389.93 734.865 1389.93 737.661 Q1389.93 740.193 1391.46 741.763 Q1392.99 743.333 1395.23 743.333 Q1397.49 743.333 1398.95 741.763 Q1400.4 740.193 1400.4 737.396 Z" fill="#000000" fill-opacity="1.000000"/>
  <path d="M1406.98 741.849 Q1406.98 737.146 1407.95 734.294 Q1408.92 731.443 1410.82 729.888 Q1412.73 728.333 1415.62 728.333 Q1417.76 728.333 1419.36 729.193 Q1420.96 730.052 1422.02 731.661 Q1423.07 733.271 1423.67 735.591 Q1424.26 737.911 1424.26 741.849 Q1424.26 746.49 1423.3 749.349 Q1422.34 752.208 1420.43 753.771 Q1418.53 755.333 1415.62 755.333 Q1411.79 755.333 1409.6 752.599 Q1406.98 749.286 1406.98 741.849 ZM1410.32 741.833 Q1410.32 748.146 1411.85 750.24 Q1413.38 752.333 1415.62 752.333 Q1417.85 752.333 1419.38 750.232 Q1420.92 748.13 1420.92 741.833 Q1420.92 735.505 1419.38 733.419 Q1417.85 731.333 1415.59 731.333 Q1413.34 731.333 1412.01 733.177 Q1410.32 735.521 1410.32 741.833 Z" fill="#000000" fill-opacity="1.000000"/>
  <path d="M1429.2 755.333 L1429.2 752.333 L1432.9 752.333 L1432.9 755.333 L1429.2 755.333 Z" fill="#000000" fill-opacity="1.000000"/>
  <path d="M1437.56 741.849 Q1437.56 737.146 1438.53 734.294 Q1439.49 731.443 1441.4 729.888 Q1443.31 728.333 1446.2 728.333 Q1448.34 728.333 1449.94 729.193 Q1451.54 730.052 1452.6 731.661 Q1453.65 733.271 1454.24 735.591 Q1454.84 737.911 1454.84 741.849 Q1454.84 746.49 1453.88 749.349 Q1452.92 752.208 1451.01 753.771 Q1449.1 755.333 1446.2 755.333 Q1442.37 755.333 1440.18 752.599 Q1437.56 749.286 1437.56 741.849 ZM1440.9 741.833 Q1440.9 748.146 1442.43 750.24 Q1443.96 752.333 1446.2 752.333 Q1448.43 752.333 1449.96 750.232 Q1451.49 748.13 1451.49 741.833 Q1451.49 735.505 1449.96 733.419 Q1448.43 731.333 1446.17 731.333 Q1443.92 731.333 1442.59 733.177 Q1440.9 735.521 1440.9 741.833 Z" fill="#000000" fill-opacity="1.000000"/>
  <path d="M1531.24 755.333 L1527.99 755.333 L1527.99 734.302 Q1526.82 735.443 1524.91 736.576 Q1523.01 737.708 1521.49 738.271 L1521.49 735.083 Q1524.22 733.786 1526.26 731.935 Q1528.3 730.083 1529.15 728.333 L1531.24 728.333 L1531.24 755.333 Z" fill="#000000" fill-opacity="1.000000"/>
  <path d="M1539.38 741.849 Q1539.38 737.146 1540.35 734.294 Q1541.32 731.443 1543.22 729.888 Q1545.13 728.333 1548.02 728.333 Q1550.16 728.333 1551.76 729.193 Q1553.36 730.052 1554.42 731.661 Q1555.47 733.271 1556.07 735.591 Q1556.66 737.911 1556.66 741.849 Q1556.66 746.49 1555.7 749.349 Q1554.74 752.208 1552.83 753.771 Q1550.93 755.333 1548.02 755.333 Q1544.19 755.333 1542.01 752.599 Q1539.38 749.286 1539.38 741.849 ZM1542.72 741.833 Q1542.72 748.146 1544.26 750.24 Q1545.79 752.333 1548.02 752.333 Q1550.26 752.333 1551.79 750.232 Q1553.32 748.13 1553.32 741.833 Q1553.32 735.505 1551.79 733.419 Q1550.26 731.333 1547.99 731.333 Q1545.74 731.333 1544.41 733.177 Q1542.72 735.521 1542.72 741.833 Z" fill="#000000" fill-opacity="1.000000"/>
  <path d="M1559.77 741.849 Q1559.77 737.146 1560.74 734.294 Q1561.71 731.443 1563.61 729.888 Q1565.52 728.333 1568.41 728.333 Q1570.55 728.333 1572.15 729.193 Q1573.76 730.052 1574.81 731.661 Q1575.86 733.271 1576.46 735.591 Q1577.05 737.911 1577.05 741.849 Q1577.05 746.49 1576.09 749.349 Q1575.13 752.208 1573.22 753.771 Q1571.32 755.333 1568.41 755.333 Q1564.58 755.333 1562.4 752.599 Q1559.77 749.286 1559.77 741.849 ZM1563.11 741.833 Q1563.11 748.146 1564.65 750.24 Q1566.18 752.333 1568.41 752.333 Q1570.65 752.333 1572.18 750.232 Q1573.71 748.13 1573.71 741.833 Q1573.71 735.505 1572.18 733.419 Q1570.65 731.333 1568.38 731.333 Q1566.13 731.333 1564.8 733.177 Q1563.11 735.521 1563.11 741.833 Z" fill="#000000" fill-opacity="1.000000"/>
  <path d="M1581.99 755.333 L1581.99 752.333 L1585.69 752.333 L1585.69 755.333 L1581.99 755.333 Z" fill="#000000" fill-opacity="1.000000"/>
  <path d="M1590.35 741.849 Q1590.35 737.146 1591.32 734.294 Q1592.29 731.443 1594.19 729.888 Q1596.1 728.333 1598.99 728.333 Q1601.13 728.333 1602.73 729.193 Q1604.33 730.052 1605.39 731.661 Q1606.44 733.271 1607.04 735.591 Q1607.63 737.911 1607.63 741.849 Q1607.63 746.49 1606.67 749.349 Q1605.71 752.208 1603.8 753.771 Q1601.9 755.333 1598.99 755.333 Q1595.16 755.333 1592.97 752.599 Q1590.35 749.286 1590.35 741.849 ZM1593.69 741.833 Q1593.69 748.146 1595.22 750.24 Q1596.76 752.333 1598.99 752.333 Q1601.22 752.333 1602.76 750.232 Q1604.29 748.13 1604.29 741.833 Q1604.29 735.505 1602.76 733.419 Q1601.22 731.333 1598.96 731.333 Q1596.71 731.333 1595.38 733.177 Q1593.69 735.521 1593.69 741.833 Z" fill="#000000" fill-opacity="1.000000"/>
  <path d="M151.141 632.185 L147.891 632.185 L147.891 611.154 Q146.719 612.295 144.812 613.427 Q142.906 614.56 141.391 615.123 L141.391 611.935 Q144.125 610.638 146.164 608.787 Q148.203 606.935 149.047 605.185 L151.141 605.185 L151.141 632.185 Z" fill="#666666" fill-opacity="1.000000"/>
  <path d="M159.281 618.701 Q159.281 613.998 160.25 611.146 Q161.219 608.295 163.125 606.74 Q165.031 605.185 167.922 605.185 Q170.062 605.185 171.664 606.045 Q173.266 606.904 174.32 608.513 Q175.375 610.123 175.969 612.443 Q176.562 614.763 176.562 618.701 Q176.562 623.341 175.602 626.201 Q174.641 629.06 172.734 630.623 Q170.828 632.185 167.922 632.185 Q164.094 632.185 161.906 629.451 Q159.281 626.138 159.281 618.701 ZM162.625 618.685 Q162.625 624.998 164.156 627.091 Q165.688 629.185 167.922 629.185 Q170.156 629.185 171.688 627.084 Q173.219 624.982 173.219 618.685 Q173.219 612.357 171.688 610.271 Q170.156 608.185 167.891 608.185 Q165.641 608.185 164.312 610.029 Q162.625 612.373 162.625 618.685 Z" fill="#666666" fill-opacity="1.000000"/>
  <path d="M181.5 632.185 L181.5 629.185 L185.203 629.185 L185.203 632.185 L181.5 632.185 Z" fill="#666666" fill-opacity="1.000000"/>
  <path d="M189.859 618.701 Q189.859 613.998 190.828 611.146 Q191.797 608.295 193.703 606.74 Q195.609 605.185 198.5 605.185 Q200.641 605.185 202.242 606.045 Q203.844 606.904 204.898 608.513 Q205.953 610.123 206.547 612.443 Q207.141 614.763 207.141 618.701 Q207.141 623.341 206.18 626.201 Q205.219 629.06 203.312 630.623 Q201.406 632.185 198.5 632.185 Q194.672 632.185 192.484 629.451 Q189.859 626.138 189.859 618.701 ZM193.203 618.685 Q193.203 624.998 194.734 627.091 Q196.266 629.185 198.5 629.185 Q200.734 629.185 202.266 627.084 Q203.797 624.982 203.797 618.685 Q203.797 612.357 202.266 610.271 Q200.734 608.185 198.469 608.185 Q196.219 608.185 194.891 610.029 Q193.203 612.373 193.203 618.685 Z" fill="#666666" fill-opacity="1.000000"/>
  <path d="M155.984 556.37 L155.984 559.37 L138.484 559.37 Q138.438 558.245 138.859 557.198 Q139.531 555.48 141 553.816 Q142.469 552.152 145.25 549.777 Q149.578 546.089 151.094 543.988 Q152.609 541.886 152.609 540.027 Q152.609 538.058 151.227 536.714 Q149.844 535.37 147.625 535.37 Q145.281 535.37 143.867 536.433 Q142.453 537.495 142.438 539.37 L139.094 539.37 Q139.438 535.948 141.68 534.159 Q143.922 532.37 147.688 532.37 Q151.516 532.37 153.734 534.542 Q155.953 536.714 155.953 539.933 Q155.953 541.573 155.305 543.152 Q154.656 544.73 153.141 546.48 Q151.625 548.23 148.125 551.214 Q145.203 553.698 144.375 554.589 Q143.547 555.48 143 556.37 L155.984 556.37 Z" fill="#666666" fill-opacity="1.000000"/>
  <path d="M159.281 545.886 Q159.281 541.183 160.25 538.331 Q161.219 535.48 163.125 533.925 Q165.031 532.37 167.922 532.37 Q170.062 532.37 171.664 533.23 Q173.266 534.089 174.32 535.698 Q175.375 537.308 175.969 539.628 Q176.562 541.948 176.562 545.886 Q176.562 550.527 175.602 553.386 Q174.641 556.245 172.734 557.808 Q170.828 559.37 167.922 559.37 Q164.094 559.37 161.906 556.636 Q159.281 553.323 159.281 545.886 ZM162.625 545.87 Q162.625 552.183 164.156 554.277 Q165.688 556.37 167.922 556.37 Q170.156 556.37 171.688 554.269 Q173.219 552.167 173.219 545.87 Q173.219 539.542 171.688 537.456 Q170.156 535.37 167.891 535.37 Q165.641 535.37 164.312 537.214 Q162.625 539.558 162.625 545.87 Z" fill="#666666" fill-opacity="1.000000"/>
  <path d="M181.5 559.37 L181.5 556.37 L185.203 556.37 L185.203 559.37 L181.5 559.37 Z" fill="#666666" fill-opacity="1.000000"/>
  <path d="M189.859 545.886 Q189.859 541.183 190.828 538.331 Q191.797 535.48 193.703 533.925 Q195.609 532.37 198.5 532.37 Q200.641 532.37 202.242 533.23 Q203.844 534.089 204.898 535.698 Q205.953 537.308 206.547 539.628 Q207.141 541.948 207.141 545.886 Q207.141 550.527 206.18 553.386 Q205.219 556.245 203.312 557.808 Q201.406 559.37 198.5 559.37 Q194.672 559.37 192.484 556.636 Q189.859 553.323 189.859 545.886 ZM193.203 545.87 Q193.203 552.183 194.734 554.277 Q196.266 556.37 198.5 556.37 Q200.734 556.37 202.266 554.269 Q203.797 552.167 203.797 545.87 Q203.797 539.542 202.266 537.456 Q200.734 535.37 198.469 535.37 Q196.219 535.37 194.891 537.214 Q193.203 539.558 193.203 545.87 Z" fill="#666666" fill-opacity="1.000000"/>
  <path d="M138.906 479.556 L142.172 479.556 Q142.734 481.681 144.078 482.618 Q145.422 483.556 147.359 483.556 Q149.656 483.556 151.234 482.016 Q152.812 480.477 152.812 478.196 Q152.812 476.024 151.352 474.602 Q149.891 473.181 147.625 473.181 Q146.703 473.181 145.328 473.556 L145.688 470.556 Q146.016 470.587 146.219 470.587 Q148.297 470.587 149.953 469.571 Q151.609 468.556 151.609 466.431 Q151.609 464.759 150.398 463.657 Q149.188 462.556 147.266 462.556 Q145.375 462.556 144.109 463.556 Q142.844 464.556 142.484 466.556 L139.234 466.556 Q139.828 463.227 141.945 461.391 Q144.062 459.556 147.203 459.556 Q149.375 459.556 151.195 460.477 Q153.016 461.399 153.984 462.985 Q154.953 464.571 154.953 466.352 Q154.953 468.04 154.031 469.431 Q153.109 470.821 151.312 471.649 Q153.656 472.196 154.953 473.915 Q156.25 475.634 156.25 478.212 Q156.25 481.696 153.719 484.126 Q151.188 486.556 147.328 486.556 Q143.844 486.556 141.539 484.61 Q139.234 482.665 138.906 479.556 Z" fill="#666666" fill-opacity="1.000000"/>
  <path d="M159.281 473.071 Q159.281 468.368 160.25 465.516 Q161.219 462.665 163.125 461.11 Q165.031 459.556 167.922 459.556 Q170.062 459.556 171.664 460.415 Q173.266 461.274 174.32 462.884 Q175.375 464.493 175.969 466.813 Q176.562 469.134 176.562 473.071 Q176.562 477.712 175.602 480.571 Q174.641 483.431 172.734 484.993 Q170.828 486.556 167.922 486.556 Q164.094 486.556 161.906 483.821 Q159.281 480.509 159.281 473.071 ZM162.625 473.056 Q162.625 479.368 164.156 481.462 Q165.688 483.556 167.922 483.556 Q170.156 483.556 171.688 481.454 Q173.219 479.352 173.219 473.056 Q173.219 466.727 171.688 464.641 Q170.156 462.556 167.891 462.556 Q165.641 462.556 164.312 464.399 Q162.625 466.743 162.625 473.056 Z" fill="#666666" fill-opacity="1.000000"/>
  <path d="M181.5 486.556 L181.5 483.556 L185.203 483.556 L185.203 486.556 L181.5 486.556 Z" fill="#666666" fill-opacity="1.000000"/>
  <path d="M189.859 473.071 Q189.859 468.368 190.828 465.516 Q191.797 462.665 193.703 461.11 Q195.609 459.556 198.5 459.556 Q200.641 459.556 202.242 460.415 Q203.844 461.274 204.898 462.884 Q205.953 464.493 206.547 466.813 Q207.141 469.134 207.141 473.071 Q207.141 477.712 206.18 480.571 Q205.219 483.431 203.312 484.993 Q201.406 486.556 198.5 486.556 Q194.672 486.556 192.484 483.821 Q189.859 480.509 189.859 473.071 ZM193.203 473.056 Q193.203 479.368 194.734 481.462 Q196.266 483.556 198.5 483.556 Q200.734 483.556 202.266 481.454 Q203.797 479.352 203.797 473.056 Q203.797 466.727 202.266 464.641 Q200.734 462.556 198.469 462.556 Q196.219 462.556 194.891 464.399 Q193.203 466.743 193.203 473.056 Z" fill="#666666" fill-opacity="1.000000"/>
  <path d="M149.312 413.741 L149.312 407.741 L137.828 407.741 L137.828 404.741 L149.922 386.741 L152.578 386.741 L152.578 404.741 L156.156 404.741 L156.156 407.741 L152.578 407.741 L152.578 413.741 L149.312 413.741 ZM149.312 404.741 L149.312 392.413 L141.031 404.741 L149.312 404.741 Z" fill="#666666" fill-opacity="1.000000"/>
  <path d="M159.281 400.256 Q159.281 395.553 160.25 392.702 Q161.219 389.85 163.125 388.295 Q165.031 386.741 167.922 386.741 Q170.062 386.741 171.664 387.6 Q173.266 388.459 174.32 390.069 Q175.375 391.678 175.969 393.999 Q176.562 396.319 176.562 400.256 Q176.562 404.897 175.602 407.756 Q174.641 410.616 172.734 412.178 Q170.828 413.741 167.922 413.741 Q164.094 413.741 161.906 411.006 Q159.281 407.694 159.281 400.256 ZM162.625 400.241 Q162.625 406.553 164.156 408.647 Q165.688 410.741 167.922 410.741 Q170.156 410.741 171.688 408.639 Q173.219 406.538 173.219 400.241 Q173.219 393.913 171.688 391.827 Q170.156 389.741 167.891 389.741 Q165.641 389.741 164.312 391.584 Q162.625 393.928 162.625 400.241 Z" fill="#666666" fill-opacity="1.000000"/>
  <path d="M181.5 413.741 L181.5 410.741 L185.203 410.741 L185.203 413.741 L181.5 413.741 Z" fill="#666666" fill-opacity="1.000000"/>
  <path d="M189.859 400.256 Q189.859 395.553 190.828 392.702 Q191.797 389.85 193.703 388.295 Q195.609 386.741 198.5 386.741 Q200.641 386.741 202.242 387.6 Q203.844 388.459 204.898 390.069 Q205.953 391.678 206.547 393.999 Q207.141 396.319 207.141 400.256 Q207.141 404.897 206.18 407.756 Q205.219 410.616 203.312 412.178 Q201.406 413.741 198.5 413.741 Q194.672 413.741 192.484 411.006 Q189.859 407.694 189.859 400.256 ZM193.203 400.241 Q193.203 406.553 194.734 408.647 Q196.266 410.741 198.5 410.741 Q200.734 410.741 202.266 408.639 Q203.797 406.538 203.797 400.241 Q203.797 393.913 202.266 391.827 Q200.734 389.741 198.469 389.741 Q196.219 389.741 194.891 391.584 Q193.203 393.928 193.203 400.241 Z" fill="#666666" fill-opacity="1.000000"/>
  <path d="M138.891 333.926 L142.312 333.926 Q142.688 335.926 144.07 336.926 Q145.453 337.926 147.406 337.926 Q149.75 337.926 151.375 336.223 Q153 334.52 153 331.707 Q153 329.02 151.438 327.473 Q149.875 325.926 147.344 325.926 Q145.781 325.926 144.516 326.481 Q143.25 327.035 142.531 327.926 L139.469 327.926 L142.031 313.926 L155.203 313.926 L155.203 316.926 L144.641 316.926 L143.219 324.66 Q145.609 322.926 148.219 322.926 Q151.688 322.926 154.07 325.324 Q156.453 327.723 156.453 331.504 Q156.453 335.098 154.359 337.707 Q151.812 340.926 147.406 340.926 Q143.781 340.926 141.5 339.012 Q139.219 337.098 138.891 333.926 Z" fill="#666666" fill-opacity="1.000000"/>
  <path d="M159.281 327.442 Q159.281 322.738 160.25 319.887 Q161.219 317.035 163.125 315.481 Q165.031 313.926 167.922 313.926 Q170.062 313.926 171.664 314.785 Q173.266 315.645 174.32 317.254 Q175.375 318.863 175.969 321.184 Q176.562 323.504 176.562 327.442 Q176.562 332.082 175.602 334.942 Q174.641 337.801 172.734 339.363 Q170.828 340.926 167.922 340.926 Q164.094 340.926 161.906 338.192 Q159.281 334.879 159.281 327.442 ZM162.625 327.426 Q162.625 333.738 164.156 335.832 Q165.688 337.926 167.922 337.926 Q170.156 337.926 171.688 335.824 Q173.219 333.723 173.219 327.426 Q173.219 321.098 171.688 319.012 Q170.156 316.926 167.891 316.926 Q165.641 316.926 164.312 318.77 Q162.625 321.113 162.625 327.426 Z" fill="#666666" fill-opacity="1.000000"/>
  <path d="M181.5 340.926 L181.5 337.926 L185.203 337.926 L185.203 340.926 L181.5 340.926 Z" fill="#666666" fill-opacity="1.000000"/>
  <path d="M189.859 327.442 Q189.859 322.738 190.828 319.887 Q191.797 317.035 193.703 315.481 Q195.609 313.926 198.5 313.926 Q200.641 313.926 202.242 314.785 Q203.844 315.645 204.898 317.254 Q205.953 318.863 206.547 321.184 Q207.141 323.504 207.141 327.442 Q207.141 332.082 206.18 334.942 Q205.219 337.801 203.312 339.363 Q201.406 340.926 198.5 340.926 Q194.672 340.926 192.484 338.192 Q189.859 334.879 189.859 327.442 ZM193.203 327.426 Q193.203 333.738 194.734 335.832 Q196.266 337.926 198.5 337.926 Q200.734 337.926 202.266 335.824 Q203.797 333.723 203.797 327.426 Q203.797 321.098 202.266 319.012 Q200.734 316.926 198.469 316.926 Q196.219 316.926 194.891 318.77 Q193.203 321.113 193.203 327.426 Z" fill="#666666" fill-opacity="1.000000"/>
  <path d="M155.766 248.111 L152.531 248.111 Q152.094 246.283 151.297 245.439 Q149.984 244.111 148.047 244.111 Q146.5 244.111 145.328 244.877 Q143.797 245.877 142.906 247.791 Q142.016 249.705 141.984 253.642 Q143.156 251.845 144.852 250.978 Q146.547 250.111 148.422 250.111 Q151.672 250.111 153.953 252.556 Q156.234 255.002 156.234 258.877 Q156.234 261.424 155.156 263.603 Q154.078 265.783 152.203 266.947 Q150.328 268.111 147.938 268.111 Q143.875 268.111 141.312 265.127 Q138.75 262.142 138.75 255.283 Q138.75 247.627 141.594 244.142 Q144.062 241.111 148.25 241.111 Q151.375 241.111 153.375 242.97 Q155.375 244.83 155.766 248.111 ZM142.484 258.799 Q142.484 260.47 143.195 261.994 Q143.906 263.517 145.195 264.314 Q146.484 265.111 147.891 265.111 Q149.953 265.111 151.438 263.463 Q152.922 261.814 152.922 258.97 Q152.922 256.252 151.453 254.681 Q149.984 253.111 147.766 253.111 Q145.562 253.111 144.023 254.681 Q142.484 256.252 142.484 258.799 Z" fill="#666666" fill-opacity="1.000000"/>
  <path d="M159.281 254.627 Q159.281 249.924 160.25 247.072 Q161.219 244.22 163.125 242.666 Q165.031 241.111 167.922 241.111 Q170.062 241.111 171.664 241.97 Q173.266 242.83 174.32 244.439 Q175.375 246.049 175.969 248.369 Q176.562 250.689 176.562 254.627 Q176.562 259.267 175.602 262.127 Q174.641 264.986 172.734 266.549 Q170.828 268.111 167.922 268.111 Q164.094 268.111 161.906 265.377 Q159.281 262.064 159.281 254.627 ZM162.625 254.611 Q162.625 260.924 164.156 263.017 Q165.688 265.111 167.922 265.111 Q170.156 265.111 171.688 263.01 Q173.219 260.908 173.219 254.611 Q173.219 248.283 171.688 246.197 Q170.156 244.111 167.891 244.111 Q165.641 244.111 164.312 245.955 Q162.625 248.299 162.625 254.611 Z" fill="#666666" fill-opacity="1.000000"/>
  <path d="M181.5 268.111 L181.5 265.111 L185.203 265.111 L185.203 268.111 L181.5 268.111 Z" fill="#666666" fill-opacity="1.000000"/>
  <path d="M189.859 254.627 Q189.859 249.924 190.828 247.072 Q191.797 244.22 193.703 242.666 Q195.609 241.111 198.5 241.111 Q200.641 241.111 202.242 241.97 Q203.844 242.83 204.898 244.439 Q205.953 246.049 206.547 248.369 Q207.141 250.689 207.141 254.627 Q207.141 259.267 206.18 262.127 Q205.219 264.986 203.312 266.549 Q201.406 268.111 198.5 268.111 Q194.672 268.111 192.484 265.377 Q189.859 262.064 189.859 254.627 ZM193.203 254.611 Q193.203 260.924 194.734 263.017 Q196.266 265.111 198.5 265.111 Q200.734 265.111 202.266 263.01 Q203.797 260.908 203.797 254.611 Q203.797 248.283 202.266 246.197 Q200.734 244.111 198.469 244.111 Q196.219 244.111 194.891 245.955 Q193.203 248.299 193.203 254.611 Z" fill="#666666" fill-opacity="1.000000"/>
  <path d="M139.109 171.296 L139.109 168.296 L156.25 168.296 L156.25 170.718 Q153.734 173.484 151.25 178.14 Q148.766 182.796 147.406 187.703 Q146.422 191.171 146.156 195.296 L142.812 195.296 Q142.859 192.031 144.039 187.421 Q145.219 182.812 147.414 178.523 Q149.609 174.234 152.078 171.296 L139.109 171.296 Z" fill="#666666" fill-opacity="1.000000"/>
  <path d="M159.281 181.812 Q159.281 177.109 160.25 174.257 Q161.219 171.406 163.125 169.851 Q165.031 168.296 167.922 168.296 Q170.062 168.296 171.664 169.156 Q173.266 170.015 174.32 171.624 Q175.375 173.234 175.969 175.554 Q176.562 177.874 176.562 181.812 Q176.562 186.453 175.602 189.312 Q174.641 192.171 172.734 193.734 Q170.828 195.296 167.922 195.296 Q164.094 195.296 161.906 192.562 Q159.281 189.249 159.281 181.812 ZM162.625 181.796 Q162.625 188.109 164.156 190.203 Q165.688 192.296 167.922 192.296 Q170.156 192.296 171.688 190.195 Q173.219 188.093 173.219 181.796 Q173.219 175.468 171.688 173.382 Q170.156 171.296 167.891 171.296 Q165.641 171.296 164.312 173.14 Q162.625 175.484 162.625 181.796 Z" fill="#666666" fill-opacity="1.000000"/>
  <path d="M181.5 195.296 L181.5 192.296 L185.203 192.296 L185.203 195.296 L181.5 195.296 Z" fill="#666666" fill-opacity="1.000000"/>
  <path d="M189.859 181.812 Q189.859 177.109 190.828 174.257 Q191.797 171.406 193.703 169.851 Q195.609 168.296 198.5 168.296 Q200.641 168.296 202.242 169.156 Q203.844 170.015 204.898 171.624 Q205.953 173.234 206.547 175.554 Q207.141 177.874 207.141 181.812 Q207.141 186.453 206.18 189.312 Q205.219 192.171 203.312 193.734 Q201.406 195.296 198.5 195.296 Q194.672 195.296 192.484 192.562 Q189.859 189.249 189.859 181.812 ZM193.203 181.796 Q193.203 188.109 194.734 190.203 Q196.266 192.296 198.5 192.296 Q200.734 192.296 202.266 190.195 Q203.797 188.093 203.797 181.796 Q203.797 175.468 202.266 173.382 Q200.734 171.296 198.469 171.296 Q196.219 171.296 194.891 173.14 Q193.203 175.484 193.203 181.796 Z" fill="#666666" fill-opacity="1.000000"/>
  <path d="M143.906 107.888 Q141.875 107.138 140.898 105.747 Q139.922 104.356 139.922 102.403 Q139.922 99.4815 142 97.4815 Q144.078 95.4815 147.531 95.4815 Q151 95.4815 153.117 97.5284 Q155.234 99.5752 155.234 102.497 Q155.234 104.372 154.266 105.755 Q153.297 107.138 151.328 107.888 Q153.766 108.669 155.039 110.411 Q156.312 112.153 156.312 114.575 Q156.312 117.919 153.906 120.2 Q151.5 122.481 147.578 122.481 Q143.672 122.481 141.266 120.192 Q138.859 117.903 138.859 114.497 Q138.859 111.95 140.172 110.231 Q141.484 108.513 143.906 107.888 ZM143.25 102.372 Q143.25 104.185 144.461 105.333 Q145.672 106.481 147.609 106.481 Q149.484 106.481 150.688 105.341 Q151.891 104.2 151.891 102.544 Q151.891 100.825 150.656 99.6534 Q149.422 98.4815 147.578 98.4815 Q145.703 98.4815 144.477 99.6299 Q143.25 100.778 143.25 102.372 ZM142.203 114.435 Q142.203 115.731 142.859 116.942 Q143.516 118.153 144.82 118.817 Q146.125 119.481 147.625 119.481 Q149.953 119.481 151.469 118.083 Q152.984 116.685 152.984 114.528 Q152.984 112.341 151.422 110.911 Q149.859 109.481 147.516 109.481 Q145.219 109.481 143.711 110.896 Q142.203 112.31 142.203 114.435 Z" fill="#666666" fill-opacity="1.000000"/>
  <path d="M159.281 108.997 Q159.281 104.294 160.25 101.442 Q161.219 98.5909 163.125 97.0362 Q165.031 95.4815 167.922 95.4815 Q170.062 95.4815 171.664 96.3409 Q173.266 97.2002 174.32 98.8096 Q175.375 100.419 175.969 102.739 Q176.562 105.06 176.562 108.997 Q176.562 113.638 175.602 116.497 Q174.641 119.356 172.734 120.919 Q170.828 122.481 167.922 122.481 Q164.094 122.481 161.906 119.747 Q159.281 116.435 159.281 108.997 ZM162.625 108.981 Q162.625 115.294 164.156 117.388 Q165.688 119.481 167.922 119.481 Q170.156 119.481 171.688 117.38 Q173.219 115.278 173.219 108.981 Q173.219 102.653 171.688 100.567 Q170.156 98.4815 167.891 98.4815 Q165.641 98.4815 164.312 100.325 Q162.625 102.669 162.625 108.981 Z" fill="#666666" fill-opacity="1.000000"/>
  <path d="M181.5 122.481 L181.5 119.481 L185.203 119.481 L185.203 122.481 L181.5 122.481 Z" fill="#666666" fill-opacity="1.000000"/>
  <path d="M189.859 108.997 Q189.859 104.294 190.828 101.442 Q191.797 98.5909 193.703 97.0362 Q195.609 95.4815 198.5 95.4815 Q200.641 95.4815 202.242 96.3409 Q203.844 97.2002 204.898 98.8096 Q205.953 100.419 206.547 102.739 Q207.141 105.06 207.141 108.997 Q207.141 113.638 206.18 116.497 Q205.219 119.356 203.312 120.919 Q201.406 122.481 198.5 122.481 Q194.672 122.481 192.484 119.747 Q189.859 116.435 189.859 108.997 ZM193.203 108.981 Q193.203 115.294 194.734 117.388 Q196.266 119.481 198.5 119.481 Q200.734 119.481 202.266 117.38 Q203.797 115.278 203.797 108.981 Q203.797 102.653 202.266 100.567 Q200.734 98.4815 198.469 98.4815 Q196.219 98.4815 194.891 100.325 Q193.203 102.669 193.203 108.981 Z" fill="#666666" fill-opacity="1.000000"/>
  <path d="M137.359 109.481 L1563.33 109.481 " fill="none" stroke-width="3.333333" stroke="#00000019"/>
  <path d="M137.359 182.296 L1563.33 182.296 " fill="none" stroke-width="3.333333" stroke="#00000019"/>
  <path d="M137.359 255.111 L1563.33 255.111 " fill="none" stroke-width="3.333333" stroke="#00000019"/>
  <path d="M137.359 327.926 L1563.33 327.926 " fill="none" stroke-width="3.333333" stroke="#00000019"/>
  <path d="M137.359 400.741 L1563.33 400.741 " fill="none" stroke-width="3.333333" stroke="#00000019"/>
  <path d="M137.359 473.556 L1563.33 473.556 " fill="none" stroke-width="3.333333" stroke="#00000019"/>
  <path d="M137.359 546.37 L1563.33 546.37 " fill="none" stroke-width="3.333333" stroke="#00000019"/>
  <path d="M137.359 619.185 L1563.33 619.185 " fill="none" stroke-width="3.333333" stroke="#00000019"/>
  <path d="M208.658 641.03 L279.957 597.341 L422.554 568.215 L565.152 495.4 L707.749 415.304 L850.346 408.022 L992.944 313.363 L1135.54 262.393 L1278.14 342.489 L1420.74 255.111 L1563.33 218.704 L1563.33 692 L1420.74 692 L1278.14 692 L1135.54 692 L992.944 692 L850.346 692 L707.749 692 L565.152 692 L422.554 692 L279.957 692 L208.658 692 Z" fill="#80699b" fill-opacity="1.000000"/>
  <path d="M208.658 641.03 L279.957 597.341 L422.554 568.215 L565.152 495.4 L707.749 415.304 L850.346 408.022 L992.944 313.363 L1135.54 262.393 L1278.14 342.489 L1420.74 255.111 L1563.33 218.704 " fill="none" stroke-width="2.000000" stroke="#0000007f"/>
  <path d="M1563.33 692 L1420.74 692 L1278.14 692 L1135.54 692 L992.944 692 L850.346 692 L707.749 692 L565.152 692 L422.554 692 L279.957 692 L208.658 692 " fill="none" stroke-width="2.000000" stroke="#0000007f"/>
  <path d="M208.658 662.874 L279.957 604.622 L422.554 582.778 L565.152 531.807 L707.749 437.148 L850.346 415.304 L992.944 349.77 L1135.54 349.77 L1278.14 386.178 L1420.74 306.081 L1563.33 255.111 L1563.33 692 L1420.74 692 L1278.14 692 L1135.54 692 L992.944 692 L850.346 692 L707.749 692 L565.152 692 L422.554 692 L279.957 692 L208.658 692 Z" fill="#89a54e" fill-opacity="1.000000"/>
  <path d="M208.658 662.874 L279.957 604.622 L422.554 582.778 L565.152 531.807 L707.749 437.148 L850.346 415.304 L992.944 349.77 L1135.54 349.77 L1278.14 386.178 L1420.74 306.081 L1563.33 255.111 " fill="none" stroke-width="2.000000" stroke="#00000066"/>
  <path d="M1563.33 692 L1420.74 692 L1278.14 692 L1135.54 692 L992.944 692 L850.346 692 L707.749 692 L565.152 692 L422.554 692 L279.957 692 L208.658 692 " fill="none" stroke-width="2.000000" stroke="#00000066"/>
  <path d="M208.658 670.156 L279.957 619.185 L422.554 619.185 L565.152 560.933 L707.749 458.993 L850.346 444.43 L992.944 386.178 L1135.54 400.741 L1278.14 429.867 L1420.74 357.052 L1563.33 298.8 L1563.33 692 L1420.74 692 L1278.14 692 L1135.54 692 L992.944 692 L850.346 692 L707.749 692 L565.152 692 L422.554 692 L279.957 692 L208.658 692 Z" fill="#db843d" fill-opacity="1.000000"/>
  <path d="M208.658 670.156 L279.957 619.185 L422.554 619.185 L565.152 560.933 L707.749 458.993 L850.346 444.43 L992.944 386.178 L1135.54 400.741 L1278.14 429.867 L1420.74 357.052 L1563.33 298.8 " fill="none" stroke-width="2.000000" stroke="#0000007f"/>
  <path d="M1563.33 692 L1420.74 692 L1278.14 692 L1135.54 692 L992.944 692 L850.346 692 L707.749 692 L565.152 692 L422.554 692 L279.957 692 L208.658 692 " fill="none" stroke-width="2.000000" stroke="#0000007f"/>
  <path d="M208.658 677.437 L279.957 648.311 L422.554 648.311 L565.152 633.748 L707.749 560.933 L850.346 546.37 L992.944 473.556 L1135.54 473.556 L1278.14 473.556 L1420.74 429.867 L1563.33 437.148 L1563.33 692 L1420.74 692 L1278.14 692 L1135.54 692 L992.944 692 L850.346 692 L707.749 692 L565.152 692 L422.554 692 L279.957 692 L208.658 692 Z" fill="#aa4643" fill-opacity="1.000000"/>
  <path d="M208.658 677.437 L279.957 648.311 L422.554 648.311 L565.152 633.748 L707.749 560.933 L850.346 546.37 L992.944 473.556 L1135.54 473.556 L1278.14 473.556 L1420.74 429.867 L1563.33 437.148 " fill="none" stroke-width="2.000000" stroke="#0000007f"/>
  <path d="M1563.33 692 L1420.74 692 L1278.14 692 L1135.54 692 L992.944 692 L850.346 692 L707.749 692 L565.152 692 L422.554 692 L279.957 692 L208.658 692 " fill="none" stroke-width="2.000000" stroke="#0000007f"/>
  <path d="M208.658 684.719 L279.957 677.437 L422.554 662.874 L565.152 641.03 L707.749 597.341 L850.346 582.778 L992.944 546.37 L1135.54 575.496 L1278.14 560.933 L1420.74 524.526 L1563.33 560.933 L1563.33 692 L1420.74 692 L1278.14 692 L1135.54 692 L992.944 692 L850.346 692 L707.749 692 L565.152 692 L422.554 692 L279.957 692 L208.658 692 Z" fill="#4572a7" fill-opacity="1.000000"/>
  <path d="M208.658 684.719 L279.957 677.437 L422.554 662.874 L565.152 641.03 L707.749 597.341 L850.346 582.778 L992.944 546.37 L1135.54 575.496 L1278.14 560.933 L1420.74 524.526 L1563.33 560.933 " fill="none" stroke-width="2.000000" stroke="#0000007f"/>
  <path d="M1563.33 692 L1420.74 692 L1278.14 692 L1135.54 692 L992.944 692 L850.346 692 L707.749 692 L565.152 692 L422.554 692 L279.957 692 L208.658 692 " fill="none" stroke-width="2.000000" stroke="#0000007f"/>
  <path d="M503.385 61.6667 L506.698 61.6667 Q506.932 63.6198 507.792 64.8698 Q508.651 66.1198 510.456 66.8932 Q512.26 67.6667 514.526 67.6667 Q516.526 67.6667 518.065 67.0807 Q519.604 66.4948 520.354 65.4714 Q521.104 64.4479 521.104 63.2292 Q521.104 61.9792 520.378 61.0495 Q519.651 60.1198 517.979 59.4948 Q516.917 59.0729 513.268 58.2057 Q509.62 57.3385 508.151 56.5729 Q506.26 55.5885 505.331 54.1354 Q504.401 52.6823 504.401 50.8698 Q504.401 48.901 505.542 47.1745 Q506.682 45.4479 508.87 44.5573 Q511.057 43.6667 513.729 43.6667 Q516.667 43.6667 518.917 44.6276 Q521.167 45.5885 522.378 47.4479 Q523.589 49.3073 523.682 51.6667 L520.323 51.6667 Q520.057 49.1979 518.487 47.9323 Q516.917 46.6667 513.87 46.6667 Q510.682 46.6667 509.229 47.8229 Q507.776 48.9792 507.776 50.6042 Q507.776 52.026 508.807 52.9323 Q509.823 53.8542 514.096 54.8151 Q518.37 55.776 519.964 56.4948 Q522.276 57.5417 523.378 59.151 Q524.479 60.7604 524.479 62.8542 Q524.479 64.9323 523.268 66.776 Q522.057 68.6198 519.792 69.6432 Q517.526 70.6667 514.682 70.6667 Q511.089 70.6667 508.659 69.612 Q506.229 68.5573 504.846 66.4479 Q503.464 64.3385 503.385 61.6667 Z" fill="#000000" fill-opacity="1.000000"/>
  <path d="M541.76 64.6667 L545.12 64.6667 Q544.323 67.5104 542.174 69.0885 Q540.026 70.6667 536.682 70.6667 Q532.479 70.6667 530.01 68.0807 Q527.542 65.4948 527.542 60.8229 Q527.542 55.9948 530.034 53.3307 Q532.526 50.6667 536.51 50.6667 Q540.354 50.6667 542.792 53.3229 Q545.229 55.9792 545.229 60.7917 Q545.229 61.0885 545.214 61.6667 L530.901 61.6667 Q531.089 64.5729 532.69 66.1198 Q534.292 67.6667 536.698 67.6667 Q538.495 67.6667 539.76 66.9479 Q541.026 66.2292 541.76 64.6667 ZM531.073 58.6667 L541.792 58.6667 Q541.573 56.4635 540.557 55.3698 Q539.01 53.6667 536.526 53.6667 Q534.292 53.6667 532.76 55.026 Q531.229 56.3854 531.073 58.6667 Z" fill="#000000" fill-opacity="1.000000"/>
  <path d="M548.979 70.6667 L548.979 50.6667 L551.901 50.6667 L551.901 53.651 Q553.026 51.8229 553.971 51.2448 Q554.917 50.6667 556.057 50.6667 Q557.698 50.6667 559.401 51.2917 L558.276 54.3073 Q557.089 53.6667 555.901 53.6667 Q554.839 53.6667 553.987 54.3385 Q553.135 55.0104 552.776 56.1979 Q552.229 58.0104 552.229 60.1667 L552.229 70.6667 L548.979 70.6667 Z" fill="#000000" fill-opacity="1.000000"/>
  <path d="M561.245 46.6667 L561.245 43.6667 L564.495 43.6667 L564.495 46.6667 L561.245 46.6667 ZM561.245 70.6667 L561.245 50.6667 L564.495 50.6667 L564.495 70.6667 L561.245 70.6667 Z" fill="#000000" fill-opacity="1.000000"/>
  <path d="M582.51 64.6667 L585.87 64.6667 Q585.073 67.5104 582.924 69.0885 Q580.776 70.6667 577.432 70.6667 Q573.229 70.6667 570.76 68.0807 Q568.292 65.4948 568.292 60.8229 Q568.292 55.9948 570.784 53.3307 Q573.276 50.6667 577.26 50.6667 Q581.104 50.6667 583.542 53.3229 Q585.979 55.9792 585.979 60.7917 Q585.979 61.0885 585.964 61.6667 L571.651 61.6667 Q571.839 64.5729 573.44 66.1198 Q575.042 67.6667 577.448 67.6667 Q579.245 67.6667 580.51 66.9479 Q581.776 66.2292 582.51 64.6667 ZM571.823 58.6667 L582.542 58.6667 Q582.323 56.4635 581.307 55.3698 Q579.76 53.6667 577.276 53.6667 Q575.042 53.6667 573.51 55.026 Q571.979 56.3854 571.823 58.6667 Z" fill="#000000" fill-opacity="1.000000"/>
  <path d="M588.464 63.6667 L591.682 63.6667 Q591.948 65.6042 593.19 66.6354 Q594.432 67.6667 596.651 67.6667 Q598.885 67.6667 599.971 66.8307 Q601.057 65.9948 601.057 64.8854 Q601.057 63.8698 600.104 63.2917 Q599.432 62.901 596.776 62.2917 Q593.198 61.3854 591.815 60.7135 Q590.432 60.0417 589.721 58.862 Q589.01 57.6823 589.01 56.2604 Q589.01 54.9635 589.596 53.8542 Q590.182 52.7448 591.198 52.026 Q591.948 51.4479 593.26 51.0573 Q594.573 50.6667 596.073 50.6667 Q598.323 50.6667 600.026 51.3932 Q601.729 52.1198 602.542 53.3542 Q603.354 54.5885 603.667 56.6667 L600.495 56.6667 Q600.276 55.2604 599.237 54.4635 Q598.198 53.6667 596.307 53.6667 Q594.073 53.6667 593.112 54.3385 Q592.151 55.0104 592.151 55.9167 Q592.151 56.4792 592.542 56.9479 Q592.948 57.4167 593.792 57.7292 Q594.276 57.8854 596.667 58.4792 Q600.12 59.4167 601.487 60.0026 Q602.854 60.5885 603.628 61.7214 Q604.401 62.8542 604.401 64.5417 Q604.401 66.1823 603.456 67.6276 Q602.51 69.0729 600.721 69.8698 Q598.932 70.6667 596.667 70.6667 Q592.932 70.6667 590.971 68.901 Q589.01 67.1354 588.464 63.6667 Z" fill="#000000" fill-opacity="1.000000"/>
  <path d="" fill="#000000" fill-opacity="1.000000"/>
  <path d="M614.792 70.6667 L624.964 43.6667 L628.729 43.6667 L639.573 70.6667 L635.573 70.6667 L632.495 62.6667 L621.417 62.6667 L618.51 70.6667 L614.792 70.6667 ZM622.432 59.6667 L631.401 59.6667 L628.635 52.3698 Q627.37 49.026 626.76 46.6667 Q626.26 49.3698 625.339 51.901 L622.432 59.6667 Z" fill="#000000" fill-opacity="1.000000"/>
  <path d="M466.896 71.4167 C459.302 71.4167 453.146 65.2606 453.146 57.6667 C453.146 50.0728 459.302 43.9167 466.896 43.9167 C474.49 43.9167 480.646 50.0728 480.646 57.6667 C480.646 65.2606 474.49 71.4167 466.896 71.4167 Z" fill="#4572a7" fill-opacity="1.000000"/>
  <path d="M731.615 61.6667 L734.927 61.6667 Q735.161 63.6198 736.021 64.8698 Q736.88 66.1198 738.685 66.8932 Q740.49 67.6667 742.755 67.6667 Q744.755 67.6667 746.294 67.0807 Q747.833 66.4948 748.583 65.4714 Q749.333 64.4479 749.333 63.2292 Q749.333 61.9792 748.607 61.0495 Q747.88 60.1198 746.208 59.4948 Q745.146 59.0729 741.497 58.2057 Q737.849 57.3385 736.38 56.5729 Q734.49 55.5885 733.56 54.1354 Q732.63 52.6823 732.63 50.8698 Q732.63 48.901 733.771 47.1745 Q734.911 45.4479 737.099 44.5573 Q739.286 43.6667 741.958 43.6667 Q744.896 43.6667 747.146 44.6276 Q749.396 45.5885 750.607 47.4479 Q751.818 49.3073 751.911 51.6667 L748.552 51.6667 Q748.286 49.1979 746.716 47.9323 Q745.146 46.6667 742.099 46.6667 Q738.911 46.6667 737.458 47.8229 Q736.005 48.9792 736.005 50.6042 Q736.005 52.026 737.036 52.9323 Q738.052 53.8542 742.326 54.8151 Q746.599 55.776 748.193 56.4948 Q750.505 57.5417 751.607 59.151 Q752.708 60.7604 752.708 62.8542 Q752.708 64.9323 751.497 66.776 Q750.286 68.6198 748.021 69.6432 Q745.755 70.6667 742.911 70.6667 Q739.318 70.6667 736.888 69.612 Q734.458 68.5573 733.076 66.4479 Q731.693 64.3385 731.615 61.6667 Z" fill="#000000" fill-opacity="1.000000"/>
  <path d="M769.99 64.6667 L773.349 64.6667 Q772.552 67.5104 770.404 69.0885 Q768.255 70.6667 764.911 70.6667 Q760.708 70.6667 758.24 68.0807 Q755.771 65.4948 755.771 60.8229 Q755.771 55.9948 758.263 53.3307 Q760.755 50.6667 764.74 50.6667 Q768.583 50.6667 771.021 53.3229 Q773.458 55.9792 773.458 60.7917 Q773.458 61.0885 773.443 61.6667 L759.13 61.6667 Q759.318 64.5729 760.919 66.1198 Q762.521 67.6667 764.927 67.6667 Q766.724 67.6667 767.99 66.9479 Q769.255 66.2292 769.99 64.6667 ZM759.302 58.6667 L770.021 58.6667 Q769.802 56.4635 768.786 55.3698 Q767.24 53.6667 764.755 53.6667 Q762.521 53.6667 760.99 55.026 Q759.458 56.3854 759.302 58.6667 Z" fill="#000000" fill-opacity="1.000000"/>
  <path d="M777.208 70.6667 L777.208 50.6667 L780.13 50.6667 L780.13 53.651 Q781.255 51.8229 782.201 51.2448 Q783.146 50.6667 784.286 50.6667 Q785.927 50.6667 787.63 51.2917 L786.505 54.3073 Q785.318 53.6667 784.13 53.6667 Q783.068 53.6667 782.216 54.3385 Q781.365 55.0104 781.005 56.1979 Q780.458 58.0104 780.458 60.1667 L780.458 70.6667 L777.208 70.6667 Z" fill="#000000" fill-opacity="1.000000"/>
  <path d="M789.474 46.6667 L789.474 43.6667 L792.724 43.6667 L792.724 46.6667 L789.474 46.6667 ZM789.474 70.6667 L789.474 50.6667 L792.724 50.6667 L792.724 70.6667 L789.474 70.6667 Z" fill="#000000" fill-opacity="1.000000"/>
  <path d="M810.74 64.6667 L814.099 64.6667 Q813.302 67.5104 811.154 69.0885 Q809.005 70.6667 805.661 70.6667 Q801.458 70.6667 798.99 68.0807 Q796.521 65.4948 796.521 60.8229 Q796.521 55.9948 799.013 53.3307 Q801.505 50.6667 805.49 50.6667 Q809.333 50.6667 811.771 53.3229 Q814.208 55.9792 814.208 60.7917 Q814.208 61.0885 814.193 61.6667 L799.88 61.6667 Q800.068 64.5729 801.669 66.1198 Q803.271 67.6667 805.677 67.6667 Q807.474 67.6667 808.74 66.9479 Q810.005 66.2292 810.74 64.6667 ZM800.052 58.6667 L810.771 58.6667 Q810.552 56.4635 809.536 55.3698 Q807.99 53.6667 805.505 53.6667 Q803.271 53.6667 801.74 55.026 Q800.208 56.3854 800.052 58.6667 Z" fill="#000000" fill-opacity="1.000000"/>
  <path d="M816.693 63.6667 L819.911 63.6667 Q820.177 65.6042 821.419 66.6354 Q822.661 67.6667 824.88 67.6667 Q827.115 67.6667 828.201 66.8307 Q829.286 65.9948 829.286 64.8854 Q829.286 63.8698 828.333 63.2917 Q827.661 62.901 825.005 62.2917 Q821.427 61.3854 820.044 60.7135 Q818.661 60.0417 817.951 58.862 Q817.24 57.6823 817.24 56.2604 Q817.24 54.9635 817.826 53.8542 Q818.411 52.7448 819.427 52.026 Q820.177 51.4479 821.49 51.0573 Q822.802 50.6667 824.302 50.6667 Q826.552 50.6667 828.255 51.3932 Q829.958 52.1198 830.771 53.3542 Q831.583 54.5885 831.896 56.6667 L828.724 56.6667 Q828.505 55.2604 827.466 54.4635 Q826.427 53.6667 824.536 53.6667 Q822.302 53.6667 821.341 54.3385 Q820.38 55.0104 820.38 55.9167 Q820.38 56.4792 820.771 56.9479 Q821.177 57.4167 822.021 57.7292 Q822.505 57.8854 824.896 58.4792 Q828.349 59.4167 829.716 60.0026 Q831.083 60.5885 831.857 61.7214 Q832.63 62.8542 832.63 64.5417 Q832.63 66.1823 831.685 67.6276 Q830.74 69.0729 828.951 69.8698 Q827.161 70.6667 824.896 70.6667 Q821.161 70.6667 819.201 68.901 Q817.24 67.1354 816.693 63.6667 Z" fill="#000000" fill-opacity="1.000000"/>
  <path d="" fill="#000000" fill-opacity="1.000000"/>
  <path d="M846.786 70.6667 L846.786 43.6667 L856.724 43.6667 Q859.755 43.6667 861.591 44.5104 Q863.427 45.3542 864.466 47.1042 Q865.505 48.8542 865.505 50.776 Q865.505 52.5573 864.583 54.1276 Q863.661 55.6979 861.802 56.6667 Q864.208 57.3698 865.497 59.0573 Q866.786 60.7448 866.786 63.0417 Q866.786 64.8854 865.997 66.4714 Q865.208 68.0573 864.052 68.9245 Q862.896 69.7917 861.154 70.2292 Q859.411 70.6667 856.88 70.6667 L846.786 70.6667 ZM850.302 55.6667 L856.036 55.6667 Q858.365 55.6667 859.365 55.3229 Q860.708 54.8698 861.38 53.8307 Q862.052 52.7917 862.052 51.2292 Q862.052 49.7604 861.419 48.6276 Q860.786 47.4948 859.615 47.0807 Q858.443 46.6667 855.583 46.6667 L850.302 46.6667 L850.302 55.6667 ZM850.302 67.6667 L856.896 67.6667 Q858.599 67.6667 859.271 67.5417 Q860.49 67.3229 861.302 66.8229 Q862.115 66.3229 862.638 65.3698 Q863.161 64.4167 863.161 63.1667 Q863.161 61.6979 862.404 60.6198 Q861.646 59.5417 860.302 59.1042 Q858.958 58.6667 856.427 58.6667 L850.302 58.6667 L850.302 67.6667 Z" fill="#000000" fill-opacity="1.000000"/>
  <path d="M695.125 71.4167 C687.531 71.4167 681.375 65.2606 681.375 57.6667 C681.375 50.0728 687.531 43.9167 695.125 43.9167 C702.719 43.9167 708.875 50.0728 708.875 57.6667 C708.875 65.2606 702.719 71.4167 695.125 71.4167 Z" fill="#aa4643" fill-opacity="1.000000"/>
  <path d="M961.859 61.6667 L965.172 61.6667 Q965.406 63.6198 966.266 64.8698 Q967.125 66.1198 968.93 66.8932 Q970.734 67.6667 973 67.6667 Q975 67.6667 976.539 67.0807 Q978.078 66.4948 978.828 65.4714 Q979.578 64.4479 979.578 63.2292 Q979.578 61.9792 978.852 61.0495 Q978.125 60.1198 976.453 59.4948 Q975.391 59.0729 971.742 58.2057 Q968.094 57.3385 966.625 56.5729 Q964.734 55.5885 963.805 54.1354 Q962.875 52.6823 962.875 50.8698 Q962.875 48.901 964.016 47.1745 Q965.156 45.4479 967.344 44.5573 Q969.531 43.6667 972.203 43.6667 Q975.141 43.6667 977.391 44.6276 Q979.641 45.5885 980.852 47.4479 Q982.062 49.3073 982.156 51.6667 L978.797 51.6667 Q978.531 49.1979 976.961 47.9323 Q975.391 46.6667 972.344 46.6667 Q969.156 46.6667 967.703 47.8229 Q966.25 48.9792 966.25 50.6042 Q966.25 52.026 967.281 52.9323 Q968.297 53.8542 972.57 54.8151 Q976.844 55.776 978.438 56.4948 Q980.75 57.5417 981.852 59.151 Q982.953 60.7604 982.953 62.8542 Q982.953 64.9323 981.742 66.776 Q980.531 68.6198 978.266 69.6432 Q976 70.6667 973.156 70.6667 Q969.562 70.6667 967.133 69.612 Q964.703 68.5573 963.32 66.4479 Q961.938 64.3385 961.859 61.6667 Z" fill="#000000" fill-opacity="1.000000"/>
  <path d="M1000.23 64.6667 L1003.59 64.6667 Q1002.8 67.5104 1000.65 69.0885 Q998.5 70.6667 995.156 70.6667 Q990.953 70.6667 988.484 68.0807 Q986.016 65.4948 986.016 60.8229 Q986.016 55.9948 988.508 53.3307 Q991 50.6667 994.984 50.6667 Q998.828 50.6667 1001.27 53.3229 Q1003.7 55.9792 1003.7 60.7917 Q1003.7 61.0885 1003.69 61.6667 L989.375 61.6667 Q989.562 64.5729 991.164 66.1198 Q992.766 67.6667 995.172 67.6667 Q996.969 67.6667 998.234 66.9479 Q999.5 66.2292 1000.23 64.6667 ZM989.547 58.6667 L1000.27 58.6667 Q1000.05 56.4635 999.031 55.3698 Q997.484 53.6667 995 53.6667 Q992.766 53.6667 991.234 55.026 Q989.703 56.3854 989.547 58.6667 Z" fill="#000000" fill-opacity="1.000000"/>
  <path d="M1007.45 70.6667 L1007.45 50.6667 L1010.38 50.6667 L1010.38 53.651 Q1011.5 51.8229 1012.45 51.2448 Q1013.39 50.6667 1014.53 50.6667 Q1016.17 50.6667 1017.88 51.2917 L1016.75 54.3073 Q1015.56 53.6667 1014.38 53.6667 Q1013.31 53.6667 1012.46 54.3385 Q1011.61 55.0104 1011.25 56.1979 Q1010.7 58.0104 1010.7 60.1667 L1010.7 70.6667 L1007.45 70.6667 Z" fill="#000000" fill-opacity="1.000000"/>
  <path d="M1019.72 46.6667 L1019.72 43.6667 L1022.97 43.6667 L1022.97 46.6667 L1019.72 46.6667 ZM1019.72 70.6667 L1019.72 50.6667 L1022.97 50.6667 L1022.97 70.6667 L1019.72 70.6667 Z" fill="#000000" fill-opacity="1.000000"/>
  <path d="M1040.98 64.6667 L1044.34 64.6667 Q1043.55 67.5104 1041.4 69.0885 Q1039.25 70.6667 1035.91 70.6667 Q1031.7 70.6667 1029.23 68.0807 Q1026.77 65.4948 1026.77 60.8229 Q1026.77 55.9948 1029.26 53.3307 Q1031.75 50.6667 1035.73 50.6667 Q1039.58 50.6667 1042.02 53.3229 Q1044.45 55.9792 1044.45 60.7917 Q1044.45 61.0885 1044.44 61.6667 L1030.12 61.6667 Q1030.31 64.5729 1031.91 66.1198 Q1033.52 67.6667 1035.92 67.6667 Q1037.72 67.6667 1038.98 66.9479 Q1040.25 66.2292 1040.98 64.6667 ZM1030.3 58.6667 L1041.02 58.6667 Q1040.8 56.4635 1039.78 55.3698 Q1038.23 53.6667 1035.75 53.6667 Q1033.52 53.6667 1031.98 55.026 Q1030.45 56.3854 1030.3 58.6667 Z" fill="#000000" fill-opacity="1.000000"/>
  <path d="M1046.94 63.6667 L1050.16 63.6667 Q1050.42 65.6042 1051.66 66.6354 Q1052.91 67.6667 1055.12 67.6667 Q1057.36 67.6667 1058.45 66.8307 Q1059.53 65.9948 1059.53 64.8854 Q1059.53 63.8698 1058.58 63.2917 Q1057.91 62.901 1055.25 62.2917 Q1051.67 61.3854 1050.29 60.7135 Q1048.91 60.0417 1048.2 58.862 Q1047.48 57.6823 1047.48 56.2604 Q1047.48 54.9635 1048.07 53.8542 Q1048.66 52.7448 1049.67 52.026 Q1050.42 51.4479 1051.73 51.0573 Q1053.05 50.6667 1054.55 50.6667 Q1056.8 50.6667 1058.5 51.3932 Q1060.2 52.1198 1061.02 53.3542 Q1061.83 54.5885 1062.14 56.6667 L1058.97 56.6667 Q1058.75 55.2604 1057.71 54.4635 Q1056.67 53.6667 1054.78 53.6667 Q1052.55 53.6667 1051.59 54.3385 Q1050.62 55.0104 1050.62 55.9167 Q1050.62 56.4792 1051.02 56.9479 Q1051.42 57.4167 1052.27 57.7292 Q1052.75 57.8854 1055.14 58.4792 Q1058.59 59.4167 1059.96 60.0026 Q1061.33 60.5885 1062.1 61.7214 Q1062.88 62.8542 1062.88 64.5417 Q1062.88 66.1823 1061.93 67.6276 Q1060.98 69.0729 1059.2 69.8698 Q1057.41 70.6667 1055.14 70.6667 Q1051.41 70.6667 1049.45 68.901 Q1047.48 67.1354 1046.94 63.6667 Z" fill="#000000" fill-opacity="1.000000"/>
  <path d="" fill="#000000" fill-opacity="1.000000"/>
  <path d="M1096.08 61.0573 L1099.58 61.9167 Q1098.47 66.1823 1095.61 68.4245 Q1092.75 70.6667 1088.61 70.6667 Q1084.33 70.6667 1081.65 68.9479 Q1078.97 67.2292 1077.57 63.9714 Q1076.17 60.7135 1076.17 56.9635 Q1076.17 52.8854 1077.75 49.8542 Q1079.33 46.8229 1082.25 45.2448 Q1085.17 43.6667 1088.67 43.6667 Q1092.66 43.6667 1095.37 45.6667 Q1098.08 47.6667 1099.14 51.2917 L1095.69 52.0885 Q1094.77 49.2604 1093.02 47.9635 Q1091.27 46.6667 1088.61 46.6667 Q1085.55 46.6667 1083.49 48.1042 Q1081.44 49.5417 1080.61 51.9635 Q1079.78 54.3854 1079.78 56.9479 Q1079.78 60.276 1080.77 62.7448 Q1081.75 65.2135 1083.83 66.4401 Q1085.91 67.6667 1088.33 67.6667 Q1091.27 67.6667 1093.31 66.0026 Q1095.36 64.3385 1096.08 61.0573 Z" fill="#000000" fill-opacity="1.000000"/>
  <path d="M925.37 71.4167 C917.776 71.4167 911.62 65.2606 911.62 57.6667 C911.62 50.0728 917.776 43.9167 925.37 43.9167 C932.964 43.9167 939.12 50.0728 939.12 57.6667 C939.12 65.2606 932.964 71.4167 925.37 71.4167 Z" fill="#db843d" fill-opacity="1.000000"/>
  <path d="M1194.14 61.6667 L1197.45 61.6667 Q1197.68 63.6198 1198.54 64.8698 Q1199.4 66.1198 1201.21 66.8932 Q1203.01 67.6667 1205.28 67.6667 Q1207.28 67.6667 1208.82 67.0807 Q1210.35 66.4948 1211.1 65.4714 Q1211.85 64.4479 1211.85 63.2292 Q1211.85 61.9792 1211.13 61.0495 Q1210.4 60.1198 1208.73 59.4948 Q1207.67 59.0729 1204.02 58.2057 Q1200.37 57.3385 1198.9 56.5729 Q1197.01 55.5885 1196.08 54.1354 Q1195.15 52.6823 1195.15 50.8698 Q1195.15 48.901 1196.29 47.1745 Q1197.43 45.4479 1199.62 44.5573 Q1201.81 43.6667 1204.48 43.6667 Q1207.42 43.6667 1209.67 44.6276 Q1211.92 45.5885 1213.13 47.4479 Q1214.34 49.3073 1214.43 51.6667 L1211.07 51.6667 Q1210.81 49.1979 1209.24 47.9323 Q1207.67 46.6667 1204.62 46.6667 Q1201.43 46.6667 1199.98 47.8229 Q1198.53 48.9792 1198.53 50.6042 Q1198.53 52.026 1199.56 52.9323 Q1200.57 53.8542 1204.85 54.8151 Q1209.12 55.776 1210.71 56.4948 Q1213.03 57.5417 1214.13 59.151 Q1215.23 60.7604 1215.23 62.8542 Q1215.23 64.9323 1214.02 66.776 Q1212.81 68.6198 1210.54 69.6432 Q1208.28 70.6667 1205.43 70.6667 Q1201.84 70.6667 1199.41 69.612 Q1196.98 68.5573 1195.6 66.4479 Q1194.21 64.3385 1194.14 61.6667 Z" fill="#000000" fill-opacity="1.000000"/>
  <path d="M1232.51 64.6667 L1235.87 64.6667 Q1235.07 67.5104 1232.92 69.0885 Q1230.78 70.6667 1227.43 70.6667 Q1223.23 70.6667 1220.76 68.0807 Q1218.29 65.4948 1218.29 60.8229 Q1218.29 55.9948 1220.78 53.3307 Q1223.28 50.6667 1227.26 50.6667 Q1231.1 50.6667 1233.54 53.3229 Q1235.98 55.9792 1235.98 60.7917 Q1235.98 61.0885 1235.96 61.6667 L1221.65 61.6667 Q1221.84 64.5729 1223.44 66.1198 Q1225.04 67.6667 1227.45 67.6667 Q1229.24 67.6667 1230.51 66.9479 Q1231.78 66.2292 1232.51 64.6667 ZM1221.82 58.6667 L1232.54 58.6667 Q1232.32 56.4635 1231.31 55.3698 Q1229.76 53.6667 1227.28 53.6667 Q1225.04 53.6667 1223.51 55.026 Q1221.98 56.3854 1221.82 58.6667 Z" fill="#000000" fill-opacity="1.000000"/>
  <path d="M1239.73 70.6667 L1239.73 50.6667 L1242.65 50.6667 L1242.65 53.651 Q1243.78 51.8229 1244.72 51.2448 Q1245.67 50.6667 1246.81 50.6667 Q1248.45 50.6667 1250.15 51.2917 L1249.03 54.3073 Q1247.84 53.6667 1246.65 53.6667 Q1245.59 53.6667 1244.74 54.3385 Q1243.89 55.0104 1243.53 56.1979 Q1242.98 58.0104 1242.98 60.1667 L1242.98 70.6667 L1239.73 70.6667 Z" fill="#000000" fill-opacity="1.000000"/>
  <path d="M1251.99 46.6667 L1251.99 43.6667 L1255.24 43.6667 L1255.24 46.6667 L1251.99 46.6667 ZM1251.99 70.6667 L1251.99 50.6667 L1255.24 50.6667 L1255.24 70.6667 L1251.99 70.6667 Z" fill="#000000" fill-opacity="1.000000"/>
  <path d="M1273.26 64.6667 L1276.62 64.6667 Q1275.82 67.5104 1273.67 69.0885 Q1271.53 70.6667 1268.18 70.6667 Q1263.98 70.6667 1261.51 68.0807 Q1259.04 65.4948 1259.04 60.8229 Q1259.04 55.9948 1261.53 53.3307 Q1264.03 50.6667 1268.01 50.6667 Q1271.85 50.6667 1274.29 53.3229 Q1276.73 55.9792 1276.73 60.7917 Q1276.73 61.0885 1276.71 61.6667 L1262.4 61.6667 Q1262.59 64.5729 1264.19 66.1198 Q1265.79 67.6667 1268.2 67.6667 Q1269.99 67.6667 1271.26 66.9479 Q1272.53 66.2292 1273.26 64.6667 ZM1262.57 58.6667 L1273.29 58.6667 Q1273.07 56.4635 1272.06 55.3698 Q1270.51 53.6667 1268.03 53.6667 Q1265.79 53.6667 1264.26 55.026 Q1262.73 56.3854 1262.57 58.6667 Z" fill="#000000" fill-opacity="1.000000"/>
  <path d="M1279.21 63.6667 L1282.43 63.6667 Q1282.7 65.6042 1283.94 66.6354 Q1285.18 67.6667 1287.4 67.6667 Q1289.64 67.6667 1290.72 66.8307 Q1291.81 65.9948 1291.81 64.8854 Q1291.81 63.8698 1290.85 63.2917 Q1290.18 62.901 1287.53 62.2917 Q1283.95 61.3854 1282.57 60.7135 Q1281.18 60.0417 1280.47 58.862 Q1279.76 57.6823 1279.76 56.2604 Q1279.76 54.9635 1280.35 53.8542 Q1280.93 52.7448 1281.95 52.026 Q1282.7 51.4479 1284.01 51.0573 Q1285.32 50.6667 1286.82 50.6667 Q1289.07 50.6667 1290.78 51.3932 Q1292.48 52.1198 1293.29 53.3542 Q1294.1 54.5885 1294.42 56.6667 L1291.24 56.6667 Q1291.03 55.2604 1289.99 54.4635 Q1288.95 53.6667 1287.06 53.6667 Q1284.82 53.6667 1283.86 54.3385 Q1282.9 55.0104 1282.9 55.9167 Q1282.9 56.4792 1283.29 56.9479 Q1283.7 57.4167 1284.54 57.7292 Q1285.03 57.8854 1287.42 58.4792 Q1290.87 59.4167 1292.24 60.0026 Q1293.6 60.5885 1294.38 61.7214 Q1295.15 62.8542 1295.15 64.5417 Q1295.15 66.1823 1294.21 67.6276 Q1293.26 69.0729 1291.47 69.8698 Q1289.68 70.6667 1287.42 70.6667 Q1283.68 70.6667 1281.72 68.901 Q1279.76 67.1354 1279.21 63.6667 Z" fill="#000000" fill-opacity="1.000000"/>
  <path d="" fill="#000000" fill-opacity="1.000000"/>
  <path d="M1309.46 70.6667 L1309.46 43.6667 L1318.59 43.6667 Q1321.67 43.6667 1323.29 44.0573 Q1325.57 44.5885 1327.18 45.9948 Q1329.28 47.7917 1330.32 50.6042 Q1331.35 53.4167 1331.35 57.026 Q1331.35 60.0885 1330.65 62.4714 Q1329.95 64.8542 1328.85 66.4089 Q1327.74 67.9635 1326.43 68.8542 Q1325.12 69.7448 1323.27 70.2057 Q1321.42 70.6667 1319.01 70.6667 L1309.46 70.6667 ZM1312.96 67.6667 L1318.62 67.6667 Q1321.24 67.6667 1322.73 67.1589 Q1324.21 66.651 1325.1 65.7292 Q1326.35 64.4479 1327.05 62.2604 Q1327.74 60.0729 1327.74 56.9635 Q1327.74 52.651 1326.38 50.3307 Q1325.01 48.0104 1323.06 47.2292 Q1321.65 46.6667 1318.53 46.6667 L1312.96 46.6667 L1312.96 67.6667 Z" fill="#000000" fill-opacity="1.000000"/>
  <path d="M1157.65 71.4167 C1150.05 71.4167 1143.9 65.2606 1143.9 57.6667 C1143.9 50.0728 1150.05 43.9167 1157.65 43.9167 C1165.24 43.9167 1171.4 50.0728 1171.4 57.6667 C1171.4 65.2606 1165.24 71.4167 1157.65 71.4167 Z" fill="#89a54e" fill-opacity="1.000000"/>
  <path d="M1426.41 61.6667 L1429.72 61.6667 Q1429.96 63.6198 1430.82 64.8698 Q1431.68 66.1198 1433.48 66.8932 Q1435.29 67.6667 1437.55 67.6667 Q1439.55 67.6667 1441.09 67.0807 Q1442.63 66.4948 1443.38 65.4714 Q1444.13 64.4479 1444.13 63.2292 Q1444.13 61.9792 1443.4 61.0495 Q1442.68 60.1198 1441.01 59.4948 Q1439.94 59.0729 1436.29 58.2057 Q1432.65 57.3385 1431.18 56.5729 Q1429.29 55.5885 1428.36 54.1354 Q1427.43 52.6823 1427.43 50.8698 Q1427.43 48.901 1428.57 47.1745 Q1429.71 45.4479 1431.9 44.5573 Q1434.08 43.6667 1436.76 43.6667 Q1439.69 43.6667 1441.94 44.6276 Q1444.19 45.5885 1445.4 47.4479 Q1446.61 49.3073 1446.71 51.6667 L1443.35 51.6667 Q1443.08 49.1979 1441.51 47.9323 Q1439.94 46.6667 1436.9 46.6667 Q1433.71 46.6667 1432.26 47.8229 Q1430.8 48.9792 1430.8 50.6042 Q1430.8 52.026 1431.83 52.9323 Q1432.85 53.8542 1437.12 54.8151 Q1441.4 55.776 1442.99 56.4948 Q1445.3 57.5417 1446.4 59.151 Q1447.51 60.7604 1447.51 62.8542 Q1447.51 64.9323 1446.29 66.776 Q1445.08 68.6198 1442.82 69.6432 Q1440.55 70.6667 1437.71 70.6667 Q1434.11 70.6667 1431.68 69.612 Q1429.26 68.5573 1427.87 66.4479 Q1426.49 64.3385 1426.41 61.6667 Z" fill="#000000" fill-opacity="1.000000"/>
  <path d="M1464.79 64.6667 L1468.15 64.6667 Q1467.35 67.5104 1465.2 69.0885 Q1463.05 70.6667 1459.71 70.6667 Q1455.51 70.6667 1453.04 68.0807 Q1450.57 65.4948 1450.57 60.8229 Q1450.57 55.9948 1453.06 53.3307 Q1455.55 50.6667 1459.54 50.6667 Q1463.38 50.6667 1465.82 53.3229 Q1468.26 55.9792 1468.26 60.7917 Q1468.26 61.0885 1468.24 61.6667 L1453.93 61.6667 Q1454.11 64.5729 1455.72 66.1198 Q1457.32 67.6667 1459.72 67.6667 Q1461.52 67.6667 1462.79 66.9479 Q1464.05 66.2292 1464.79 64.6667 ZM1454.1 58.6667 L1464.82 58.6667 Q1464.6 56.4635 1463.58 55.3698 Q1462.04 53.6667 1459.55 53.6667 Q1457.32 53.6667 1455.79 55.026 Q1454.26 56.3854 1454.1 58.6667 Z" fill="#000000" fill-opacity="1.000000"/>
  <path d="M1472.01 70.6667 L1472.01 50.6667 L1474.93 50.6667 L1474.93 53.651 Q1476.05 51.8229 1477 51.2448 Q1477.94 50.6667 1479.08 50.6667 Q1480.72 50.6667 1482.43 51.2917 L1481.3 54.3073 Q1480.11 53.6667 1478.93 53.6667 Q1477.86 53.6667 1477.01 54.3385 Q1476.16 55.0104 1475.8 56.1979 Q1475.26 58.0104 1475.26 60.1667 L1475.26 70.6667 L1472.01 70.6667 Z" fill="#000000" fill-opacity="1.000000"/>
  <path d="M1484.27 46.6667 L1484.27 43.6667 L1487.52 43.6667 L1487.52 46.6667 L1484.27 46.6667 ZM1484.27 70.6667 L1484.27 50.6667 L1487.52 50.6667 L1487.52 70.6667 L1484.27 70.6667 Z" fill="#000000" fill-opacity="1.000000"/>
  <path d="M1505.54 64.6667 L1508.9 64.6667 Q1508.1 67.5104 1505.95 69.0885 Q1503.8 70.6667 1500.46 70.6667 Q1496.26 70.6667 1493.79 68.0807 Q1491.32 65.4948 1491.32 60.8229 Q1491.32 55.9948 1493.81 53.3307 Q1496.3 50.6667 1500.29 50.6667 Q1504.13 50.6667 1506.57 53.3229 Q1509.01 55.9792 1509.01 60.7917 Q1509.01 61.0885 1508.99 61.6667 L1494.68 61.6667 Q1494.86 64.5729 1496.47 66.1198 Q1498.07 67.6667 1500.47 67.6667 Q1502.27 67.6667 1503.54 66.9479 Q1504.8 66.2292 1505.54 64.6667 ZM1494.85 58.6667 L1505.57 58.6667 Q1505.35 56.4635 1504.33 55.3698 Q1502.79 53.6667 1500.3 53.6667 Q1498.07 53.6667 1496.54 55.026 Q1495.01 56.3854 1494.85 58.6667 Z" fill="#000000" fill-opacity="1.000000"/>
  <path d="M1511.49 63.6667 L1514.71 63.6667 Q1514.97 65.6042 1516.22 66.6354 Q1517.46 67.6667 1519.68 67.6667 Q1521.91 67.6667 1523 66.8307 Q1524.08 65.9948 1524.08 64.8854 Q1524.08 63.8698 1523.13 63.2917 Q1522.46 62.901 1519.8 62.2917 Q1516.22 61.3854 1514.84 60.7135 Q1513.46 60.0417 1512.75 58.862 Q1512.04 57.6823 1512.04 56.2604 Q1512.04 54.9635 1512.62 53.8542 Q1513.21 52.7448 1514.22 52.026 Q1514.97 51.4479 1516.29 51.0573 Q1517.6 50.6667 1519.1 50.6667 Q1521.35 50.6667 1523.05 51.3932 Q1524.76 52.1198 1525.57 53.3542 Q1526.38 54.5885 1526.69 56.6667 L1523.52 56.6667 Q1523.3 55.2604 1522.26 54.4635 Q1521.22 53.6667 1519.33 53.6667 Q1517.1 53.6667 1516.14 54.3385 Q1515.18 55.0104 1515.18 55.9167 Q1515.18 56.4792 1515.57 56.9479 Q1515.97 57.4167 1516.82 57.7292 Q1517.3 57.8854 1519.69 58.4792 Q1523.15 59.4167 1524.51 60.0026 Q1525.88 60.5885 1526.65 61.7214 Q1527.43 62.8542 1527.43 64.5417 Q1527.43 66.1823 1526.48 67.6276 Q1525.54 69.0729 1523.75 69.8698 Q1521.96 70.6667 1519.69 70.6667 Q1515.96 70.6667 1514 68.901 Q1512.04 67.1354 1511.49 63.6667 Z" fill="#000000" fill-opacity="1.000000"/>
  <path d="" fill="#000000" fill-opacity="1.000000"/>
  <path d="M1541.8 70.6667 L1541.8 43.6667 L1560.96 43.6667 L1560.96 46.6667 L1545.32 46.6667 L1545.32 55.6667 L1559.96 55.6667 L1559.96 58.6667 L1545.32 58.6667 L1545.32 67.6667 L1561.57 67.6667 L1561.57 70.6667 L1541.8 70.6667 Z" fill="#000000" fill-opacity="1.000000"/>
  <path d="M1389.92 71.4167 C1382.33 71.4167 1376.17 65.2606 1376.17 57.6667 C1376.17 50.0728 1382.33 43.9167 1389.92 43.9167 C1397.52 43.9167 1403.67 50.0728 1403.67 57.6667 C1403.67 65.2606 1397.52 71.4167 1389.92 71.4167 Z" fill="#80699b" fill-opacity="1.000000"/>
</svg>