<?xml version="1.0" encoding="UTF-8" ?>
<!-- Generated by clip v0.8.0 (clip-lang.org) -->
<svg xmlns="http://www.w3.org/2000/svg" width="1600" height="800">
  <rect width="1600" height="800" fill="#ffffff" fill-opacity="1"/>
  <path d="M137.359 692 L1563.333 692" fill="none" stroke="#000000" stroke-width="3.333"/>
  <path d="M137.359 692 L137.359 678.667" fill="none" stroke="#000000" stroke-width="3.333"/>
  <path d="M279.957 692 L279.957 678.667" fill="none" stroke="#000000" stroke-width="3.333"/>
  <path d="M422.554 692 L422.554 678.667" fill="none" stroke="#000000" stroke-width="3.333"/>
  <path d="M565.152 692 L565.152 678.667" fill="none" stroke="#000000" stroke-width="3.333"/>
  <path d="M707.749 692 L707.749 678.667" fill="none" stroke="#000000" stroke-width="3.333"/>
  <path d="M850.346 692 L850.346 678.667" fill="none" stroke="#000000" stroke-width="3.333"/>
  <path d="M992.944 692 L992.944 678.667" fill="none" stroke="#000000" stroke-width="3.333"/>
  <path d="M1135.541 692 L1135.541 678.667" fill="none" stroke="#000000" stroke-width="3.333"/>
  <path d="M1278.139 692 L1278.139 678.667" fill="none" stroke="#000000" stroke-width="3.333"/>
  <path d="M1420.736 692 L1420.736 678.667" fill="none" stroke="#000000" stroke-width="3.333"/>
  <path d="M1563.333 692 L1563.333 678.667" fill="none" stroke="#000000" stroke-width="3.333"/>
  <path d="M113.406 741.849 Q113.406 737.146 114.375 734.294 Q115.344 731.443 117.250 729.888 Q119.156 728.333 122.047 728.333 Q124.188 728.333 125.789 729.193 Q127.391 730.052 128.445 731.661 Q129.500 733.271 130.094 735.591 Q130.688 737.911 130.688 741.849 Q130.688 746.490 129.727 749.349 Q128.766 752.208 126.859 753.771 Q124.953 755.333 122.047 755.333 Q118.219 755.333 116.031 752.599 Q113.406 749.286 113.406 741.849 Z M116.750 741.833 Q116.750 748.146 118.281 750.240 Q119.812 752.333 122.047 752.333 Q124.281 752.333 125.812 750.232 Q127.344 748.130 127.344 741.833 Q127.344 735.505 125.812 733.419 Q124.281 731.333 122.016 731.333 Q119.766 731.333 118.438 733.177 Q116.750 735.521 116.750 741.833 Z"/>
  <path d="M135.625 755.333 L135.625 752.333 L139.328 752.333 L139.328 755.333 L135.625 755.333 Z"/>
  <path d="M143.984 741.849 Q143.984 737.146 144.953 734.294 Q145.922 731.443 147.828 729.888 Q149.734 728.333 152.625 728.333 Q154.766 728.333 156.367 729.193 Q157.969 730.052 159.023 731.661 Q160.078 733.271 160.672 735.591 Q161.266 737.911 161.266 741.849 Q161.266 746.490 160.305 749.349 Q159.344 752.208 157.438 753.771 Q155.531 755.333 152.625 755.333 Q148.797 755.333 146.609 752.599 Q143.984 749.286 143.984 741.849 Z M147.328 741.833 Q147.328 748.146 148.859 750.240 Q150.391 752.333 152.625 752.333 Q154.859 752.333 156.391 750.232 Q157.922 748.130 157.922 741.833 Q157.922 735.505 156.391 733.419 Q154.859 731.333 152.594 731.333 Q150.344 731.333 149.016 733.177 Q147.328 735.521 147.328 741.833 Z"/>
  <path d="M258.058 755.333 L254.808 755.333 L254.808 734.302 Q253.636 735.443 251.730 736.576 Q249.824 737.708 248.308 738.271 L248.308 735.083 Q251.043 733.786 253.082 731.935 Q255.121 730.083 255.965 728.333 L258.058 728.333 L258.058 755.333 Z"/>
  <path d="M266.199 741.849 Q266.199 737.146 267.168 734.294 Q268.136 731.443 270.043 729.888 Q271.949 728.333 274.840 728.333 Q276.980 728.333 278.582 729.193 Q280.183 730.052 281.238 731.661 Q282.293 733.271 282.886 735.591 Q283.480 737.911 283.480 741.849 Q283.480 746.490 282.519 749.349 Q281.558 752.208 279.652 753.771 Q277.746 755.333 274.840 755.333 Q271.011 755.333 268.824 752.599 Q266.199 749.286 266.199 741.849 Z M269.543 741.833 Q269.543 748.146 271.074 750.240 Q272.605 752.333 274.840 752.333 Q277.074 752.333 278.605 750.232 Q280.136 748.130 280.136 741.833 Q280.136 735.505 278.605 733.419 Q277.074 731.333 274.808 731.333 Q272.558 731.333 271.230 733.177 Q269.543 735.521 269.543 741.833 Z"/>
  <path d="M288.418 755.333 L288.418 752.333 L292.121 752.333 L292.121 755.333 L288.418 755.333 Z"/>
  <path d="M296.777 741.849 Q296.777 737.146 297.746 734.294 Q298.715 731.443 300.621 729.888 Q302.527 728.333 305.418 728.333 Q307.558 728.333 309.160 729.193 Q310.761 730.052 311.816 731.661 Q312.871 733.271 313.465 735.591 Q314.058 737.911 314.058 741.849 Q314.058 746.490 313.097 749.349 Q312.136 752.208 310.230 753.771 Q308.324 755.333 305.418 755.333 Q301.590 755.333 299.402 752.599 Q296.777 749.286 296.777 741.849 Z M300.121 741.833 Q300.121 748.146 301.652 750.240 Q303.183 752.333 305.418 752.333 Q307.652 752.333 309.183 750.232 Q310.715 748.130 310.715 741.833 Q310.715 735.505 309.183 733.419 Q307.652 731.333 305.386 731.333 Q303.136 731.333 301.808 733.177 Q300.121 735.521 300.121 741.833 Z"/>
  <path d="M405.499 752.333 L405.499 755.333 L387.999 755.333 Q387.953 754.208 388.374 753.161 Q389.046 751.443 390.515 749.779 Q391.984 748.115 394.765 745.740 Q399.093 742.052 400.609 739.951 Q402.124 737.849 402.124 735.990 Q402.124 734.021 400.742 732.677 Q399.359 731.333 397.140 731.333 Q394.796 731.333 393.382 732.396 Q391.968 733.458 391.953 735.333 L388.609 735.333 Q388.953 731.911 391.195 730.122 Q393.437 728.333 397.203 728.333 Q401.031 728.333 403.249 730.505 Q405.468 732.677 405.468 735.896 Q405.468 737.536 404.820 739.115 Q404.171 740.693 402.656 742.443 Q401.140 744.193 397.640 747.177 Q394.718 749.661 393.890 750.552 Q393.062 751.443 392.515 752.333 L405.499 752.333 Z"/>
  <path d="M408.796 741.849 Q408.796 737.146 409.765 734.294 Q410.734 731.443 412.640 729.888 Q414.546 728.333 417.437 728.333 Q419.578 728.333 421.179 729.193 Q422.781 730.052 423.835 731.661 Q424.890 733.271 425.484 735.591 Q426.078 737.911 426.078 741.849 Q426.078 746.490 425.117 749.349 Q424.156 752.208 422.249 753.771 Q420.343 755.333 417.437 755.333 Q413.609 755.333 411.421 752.599 Q408.796 749.286 408.796 741.849 Z M412.140 741.833 Q412.140 748.146 413.671 750.240 Q415.203 752.333 417.437 752.333 Q419.671 752.333 421.203 750.232 Q422.734 748.130 422.734 741.833 Q422.734 735.505 421.203 733.419 Q419.671 731.333 417.406 731.333 Q415.156 731.333 413.828 733.177 Q412.140 735.521 412.140 741.833 Z"/>
  <path d="M431.015 755.333 L431.015 752.333 L434.718 752.333 L434.718 755.333 L431.015 755.333 Z"/>
  <path d="M439.374 741.849 Q439.374 737.146 440.343 734.294 Q441.312 731.443 443.218 729.888 Q445.124 728.333 448.015 728.333 Q450.156 728.333 451.757 729.193 Q453.359 730.052 454.414 731.661 Q455.468 733.271 456.062 735.591 Q456.656 737.911 456.656 741.849 Q456.656 746.490 455.695 749.349 Q454.734 752.208 452.828 753.771 Q450.921 755.333 448.015 755.333 Q444.187 755.333 441.999 752.599 Q439.374 749.286 439.374 741.849 Z M442.718 741.833 Q442.718 748.146 444.249 750.240 Q445.781 752.333 448.015 752.333 Q450.249 752.333 451.781 750.232 Q453.312 748.130 453.312 741.833 Q453.312 735.505 451.781 733.419 Q450.249 731.333 447.984 731.333 Q445.734 731.333 444.406 733.177 Q442.718 735.521 442.718 741.833 Z"/>
  <path d="M531.019 748.333 L534.284 748.333 Q534.847 750.458 536.191 751.396 Q537.534 752.333 539.472 752.333 Q541.769 752.333 543.347 750.794 Q544.925 749.255 544.925 746.974 Q544.925 744.802 543.464 743.380 Q542.003 741.958 539.738 741.958 Q538.816 741.958 537.441 742.333 L537.800 739.333 Q538.128 739.365 538.331 739.365 Q540.409 739.365 542.066 738.349 Q543.722 737.333 543.722 735.208 Q543.722 733.536 542.511 732.435 Q541.300 731.333 539.378 731.333 Q537.488 731.333 536.222 732.333 Q534.956 733.333 534.597 735.333 L531.347 735.333 Q531.941 732.005 534.058 730.169 Q536.175 728.333 539.316 728.333 Q541.488 728.333 543.308 729.255 Q545.128 730.177 546.097 731.763 Q547.066 733.349 547.066 735.130 Q547.066 736.818 546.144 738.208 Q545.222 739.599 543.425 740.427 Q545.769 740.974 547.066 742.693 Q548.363 744.411 548.363 746.990 Q548.363 750.474 545.831 752.904 Q543.300 755.333 539.441 755.333 Q535.956 755.333 533.652 753.388 Q531.347 751.443 531.019 748.333 Z"/>
  <path d="M551.394 741.849 Q551.394 737.146 552.363 734.294 Q553.331 731.443 555.238 729.888 Q557.144 728.333 560.034 728.333 Q562.175 728.333 563.777 729.193 Q565.378 730.052 566.433 731.661 Q567.488 733.271 568.081 735.591 Q568.675 737.911 568.675 741.849 Q568.675 746.490 567.714 749.349 Q566.753 752.208 564.847 753.771 Q562.941 755.333 560.034 755.333 Q556.206 755.333 554.019 752.599 Q551.394 749.286 551.394 741.849 Z M554.738 741.833 Q554.738 748.146 556.269 750.240 Q557.800 752.333 560.034 752.333 Q562.269 752.333 563.800 750.232 Q565.331 748.130 565.331 741.833 Q565.331 735.505 563.800 733.419 Q562.269 731.333 560.003 731.333 Q557.753 731.333 556.425 733.177 Q554.738 735.521 554.738 741.833 Z"/>
  <path d="M573.613 755.333 L573.613 752.333 L577.316 752.333 L577.316 755.333 L573.613 755.333 Z"/>
  <path d="M581.972 741.849 Q581.972 737.146 582.941 734.294 Q583.909 731.443 585.816 729.888 Q587.722 728.333 590.613 728.333 Q592.753 728.333 594.355 729.193 Q595.956 730.052 597.011 731.661 Q598.066 733.271 598.659 735.591 Q599.253 737.911 599.253 741.849 Q599.253 746.490 598.292 749.349 Q597.331 752.208 595.425 753.771 Q593.519 755.333 590.613 755.333 Q586.784 755.333 584.597 752.599 Q581.972 749.286 581.972 741.849 Z M585.316 741.833 Q585.316 748.146 586.847 750.240 Q588.378 752.333 590.613 752.333 Q592.847 752.333 594.378 750.232 Q595.909 748.130 595.909 741.833 Q595.909 735.505 594.378 733.419 Q592.847 731.333 590.581 731.333 Q588.331 731.333 587.003 733.177 Q585.316 735.521 585.316 741.833 Z"/>
  <path d="M684.022 755.333 L684.022 749.333 L672.538 749.333 L672.538 746.333 L684.632 728.333 L687.288 728.333 L687.288 746.333 L690.866 746.333 L690.866 749.333 L687.288 749.333 L687.288 755.333 L684.022 755.333 Z M684.022 746.333 L684.022 734.005 L675.741 746.333 L684.022 746.333 Z"/>
  <path d="M693.991 741.849 Q693.991 737.146 694.960 734.294 Q695.929 731.443 697.835 729.888 Q699.741 728.333 702.632 728.333 Q704.772 728.333 706.374 729.193 Q707.976 730.052 709.030 731.661 Q710.085 733.271 710.679 735.591 Q711.272 737.911 711.272 741.849 Q711.272 746.490 710.311 749.349 Q709.351 752.208 707.444 753.771 Q705.538 755.333 702.632 755.333 Q698.804 755.333 696.616 752.599 Q693.991 749.286 693.991 741.849 Z M697.335 741.833 Q697.335 748.146 698.866 750.240 Q700.397 752.333 702.632 752.333 Q704.866 752.333 706.397 750.232 Q707.929 748.130 707.929 741.833 Q707.929 735.505 706.397 733.419 Q704.866 731.333 702.601 731.333 Q700.351 731.333 699.022 733.177 Q697.335 735.521 697.335 741.833 Z"/>
  <path d="M716.210 755.333 L716.210 752.333 L719.913 752.333 L719.913 755.333 L716.210 755.333 Z"/>
  <path d="M724.569 741.849 Q724.569 737.146 725.538 734.294 Q726.507 731.443 728.413 729.888 Q730.319 728.333 733.210 728.333 Q735.351 728.333 736.952 729.193 Q738.554 730.052 739.608 731.661 Q740.663 733.271 741.257 735.591 Q741.851 737.911 741.851 741.849 Q741.851 746.490 740.890 749.349 Q739.929 752.208 738.022 753.771 Q736.116 755.333 733.210 755.333 Q729.382 755.333 727.194 752.599 Q724.569 749.286 724.569 741.849 Z M727.913 741.833 Q727.913 748.146 729.444 750.240 Q730.976 752.333 733.210 752.333 Q735.444 752.333 736.976 750.232 Q738.507 748.130 738.507 741.833 Q738.507 735.505 736.976 733.419 Q735.444 731.333 733.179 731.333 Q730.929 731.333 729.601 733.177 Q727.913 735.521 727.913 741.833 Z"/>
  <path d="M816.198 748.333 L819.620 748.333 Q819.995 750.333 821.378 751.333 Q822.760 752.333 824.714 752.333 Q827.057 752.333 828.682 750.630 Q830.307 748.927 830.307 746.115 Q830.307 743.427 828.745 741.880 Q827.182 740.333 824.651 740.333 Q823.089 740.333 821.823 740.888 Q820.557 741.443 819.839 742.333 L816.776 742.333 L819.339 728.333 L832.510 728.333 L832.510 731.333 L821.948 731.333 L820.526 739.068 Q822.917 737.333 825.526 737.333 Q828.995 737.333 831.378 739.732 Q833.760 742.130 833.760 745.911 Q833.760 749.505 831.667 752.115 Q829.120 755.333 824.714 755.333 Q821.089 755.333 818.807 753.419 Q816.526 751.505 816.198 748.333 Z"/>
  <path d="M836.589 741.849 Q836.589 737.146 837.557 734.294 Q838.526 731.443 840.432 729.888 Q842.339 728.333 845.229 728.333 Q847.370 728.333 848.971 729.193 Q850.573 730.052 851.628 731.661 Q852.682 733.271 853.276 735.591 Q853.870 737.911 853.870 741.849 Q853.870 746.490 852.909 749.349 Q851.948 752.208 850.042 753.771 Q848.135 755.333 845.229 755.333 Q841.401 755.333 839.214 752.599 Q836.589 749.286 836.589 741.849 Z M839.932 741.833 Q839.932 748.146 841.464 750.240 Q842.995 752.333 845.229 752.333 Q847.464 752.333 848.995 750.232 Q850.526 748.130 850.526 741.833 Q850.526 735.505 848.995 733.419 Q847.464 731.333 845.198 731.333 Q842.948 731.333 841.620 733.177 Q839.932 735.521 839.932 741.833 Z"/>
  <path d="M858.807 755.333 L858.807 752.333 L862.510 752.333 L862.510 755.333 L858.807 755.333 Z"/>
  <path d="M867.167 741.849 Q867.167 737.146 868.135 734.294 Q869.104 731.443 871.010 729.888 Q872.917 728.333 875.807 728.333 Q877.948 728.333 879.549 729.193 Q881.151 730.052 882.206 731.661 Q883.260 733.271 883.854 735.591 Q884.448 737.911 884.448 741.849 Q884.448 746.490 883.487 749.349 Q882.526 752.208 880.620 753.771 Q878.714 755.333 875.807 755.333 Q871.979 755.333 869.792 752.599 Q867.167 749.286 867.167 741.849 Z M870.510 741.833 Q870.510 748.146 872.042 750.240 Q873.573 752.333 875.807 752.333 Q878.042 752.333 879.573 750.232 Q881.104 748.130 881.104 741.833 Q881.104 735.505 879.573 733.419 Q878.042 731.333 875.776 731.333 Q873.526 731.333 872.198 733.177 Q870.510 735.521 870.510 741.833 Z"/>
  <path d="M975.670 735.333 L972.436 735.333 Q971.998 733.505 971.202 732.661 Q969.889 731.333 967.952 731.333 Q966.405 731.333 965.233 732.099 Q963.702 733.099 962.811 735.013 Q961.920 736.927 961.889 740.865 Q963.061 739.068 964.756 738.201 Q966.452 737.333 968.327 737.333 Q971.577 737.333 973.858 739.779 Q976.139 742.224 976.139 746.099 Q976.139 748.646 975.061 750.826 Q973.983 753.005 972.108 754.169 Q970.233 755.333 967.842 755.333 Q963.780 755.333 961.217 752.349 Q958.655 749.365 958.655 742.505 Q958.655 734.849 961.498 731.365 Q963.967 728.333 968.155 728.333 Q971.280 728.333 973.280 730.193 Q975.280 732.052 975.670 735.333 Z M962.389 746.021 Q962.389 747.693 963.100 749.216 Q963.811 750.740 965.100 751.536 Q966.389 752.333 967.795 752.333 Q969.858 752.333 971.342 750.685 Q972.827 749.036 972.827 746.193 Q972.827 743.474 971.358 741.904 Q969.889 740.333 967.670 740.333 Q965.467 740.333 963.928 741.904 Q962.389 743.474 962.389 746.021 Z"/>
  <path d="M979.186 741.849 Q979.186 737.146 980.155 734.294 Q981.123 731.443 983.030 729.888 Q984.936 728.333 987.827 728.333 Q989.967 728.333 991.569 729.193 Q993.170 730.052 994.225 731.661 Q995.280 733.271 995.873 735.591 Q996.467 737.911 996.467 741.849 Q996.467 746.490 995.506 749.349 Q994.545 752.208 992.639 753.771 Q990.733 755.333 987.827 755.333 Q983.998 755.333 981.811 752.599 Q979.186 749.286 979.186 741.849 Z M982.530 741.833 Q982.530 748.146 984.061 750.240 Q985.592 752.333 987.827 752.333 Q990.061 752.333 991.592 750.232 Q993.123 748.130 993.123 741.833 Q993.123 735.505 991.592 733.419 Q990.061 731.333 987.795 731.333 Q985.545 731.333 984.217 733.177 Q982.530 735.521 982.530 741.833 Z"/>
  <path d="M1001.405 755.333 L1001.405 752.333 L1005.108 752.333 L1005.108 755.333 L1001.405 755.333 Z"/>
  <path d="M1009.764 741.849 Q1009.764 737.146 1010.733 734.294 Q1011.702 731.443 1013.608 729.888 Q1015.514 728.333 1018.405 728.333 Q1020.545 728.333 1022.147 729.193 Q1023.748 730.052 1024.803 731.661 Q1025.858 733.271 1026.452 735.591 Q1027.045 737.911 1027.045 741.849 Q1027.045 746.490 1026.084 749.349 Q1025.123 752.208 1023.217 753.771 Q1021.311 755.333 1018.405 755.333 Q1014.577 755.333 1012.389 752.599 Q1009.764 749.286 1009.764 741.849 Z M1013.108 741.833 Q1013.108 748.146 1014.639 750.240 Q1016.170 752.333 1018.405 752.333 Q1020.639 752.333 1022.170 750.232 Q1023.702 748.130 1023.702 741.833 Q1023.702 735.505 1022.170 733.419 Q1020.639 731.333 1018.373 731.333 Q1016.123 731.333 1014.795 733.177 Q1013.108 735.521 1013.108 741.833 Z"/>
  <path d="M1101.611 731.333 L1101.611 728.333 L1118.752 728.333 L1118.752 730.755 Q1116.236 733.521 1113.752 738.177 Q1111.268 742.833 1109.908 747.740 Q1108.924 751.208 1108.658 755.333 L1105.315 755.333 Q1105.361 752.068 1106.541 747.458 Q1107.721 742.849 1109.916 738.560 Q1112.111 734.271 1114.580 731.333 L1101.611 731.333 Z"/>
  <path d="M1121.783 741.849 Q1121.783 737.146 1122.752 734.294 Q1123.721 731.443 1125.627 729.888 Q1127.533 728.333 1130.424 728.333 Q1132.565 728.333 1134.166 729.193 Q1135.768 730.052 1136.822 731.661 Q1137.877 733.271 1138.471 735.591 Q1139.065 737.911 1139.065 741.849 Q1139.065 746.490 1138.104 749.349 Q1137.143 752.208 1135.236 753.771 Q1133.330 755.333 1130.424 755.333 Q1126.596 755.333 1124.408 752.599 Q1121.783 749.286 1121.783 741.849 Z M1125.127 741.833 Q1125.127 748.146 1126.658 750.240 Q1128.190 752.333 1130.424 752.333 Q1132.658 752.333 1134.190 750.232 Q1135.721 748.130 1135.721 741.833 Q1135.721 735.505 1134.190 733.419 Q1132.658 731.333 1130.393 731.333 Q1128.143 731.333 1126.815 733.177 Q1125.127 735.521 1125.127 741.833 Z"/>
  <path d="M1144.002 755.333 L1144.002 752.333 L1147.705 752.333 L1147.705 755.333 L1144.002 755.333 Z"/>
  <path d="M1152.361 741.849 Q1152.361 737.146 1153.330 734.294 Q1154.299 731.443 1156.205 729.888 Q1158.111 728.333 1161.002 728.333 Q1163.143 728.333 1164.744 729.193 Q1166.346 730.052 1167.401 731.661 Q1168.455 733.271 1169.049 735.591 Q1169.643 737.911 1169.643 741.849 Q1169.643 746.490 1168.682 749.349 Q1167.721 752.208 1165.815 753.771 Q1163.908 755.333 1161.002 755.333 Q1157.174 755.333 1154.986 752.599 Q1152.361 749.286 1152.361 741.849 Z M1155.705 741.833 Q1155.705 748.146 1157.236 750.240 Q1158.768 752.333 1161.002 752.333 Q1163.236 752.333 1164.768 750.232 Q1166.299 748.130 1166.299 741.833 Q1166.299 735.505 1164.768 733.419 Q1163.236 731.333 1160.971 731.333 Q1158.721 731.333 1157.393 733.177 Q1155.705 735.521 1155.705 741.833 Z"/>
  <path d="M1249.006 740.740 Q1246.974 739.990 1245.998 738.599 Q1245.021 737.208 1245.021 735.255 Q1245.021 732.333 1247.099 730.333 Q1249.178 728.333 1252.631 728.333 Q1256.099 728.333 1258.217 730.380 Q1260.334 732.427 1260.334 735.349 Q1260.334 737.224 1259.365 738.607 Q1258.396 739.990 1256.428 740.740 Q1258.865 741.521 1260.139 743.263 Q1261.412 745.005 1261.412 747.427 Q1261.412 750.771 1259.006 753.052 Q1256.599 755.333 1252.678 755.333 Q1248.771 755.333 1246.365 753.044 Q1243.959 750.755 1243.959 747.349 Q1243.959 744.802 1245.271 743.083 Q1246.584 741.365 1249.006 740.740 Z M1248.349 735.224 Q1248.349 737.036 1249.560 738.185 Q1250.771 739.333 1252.709 739.333 Q1254.584 739.333 1255.787 738.193 Q1256.990 737.052 1256.990 735.396 Q1256.990 733.677 1255.756 732.505 Q1254.521 731.333 1252.678 731.333 Q1250.803 731.333 1249.576 732.482 Q1248.349 733.630 1248.349 735.224 Z M1247.303 747.286 Q1247.303 748.583 1247.959 749.794 Q1248.615 751.005 1249.920 751.669 Q1251.224 752.333 1252.724 752.333 Q1255.053 752.333 1256.568 750.935 Q1258.084 749.536 1258.084 747.380 Q1258.084 745.193 1256.521 743.763 Q1254.959 742.333 1252.615 742.333 Q1250.318 742.333 1248.810 743.747 Q1247.303 745.161 1247.303 747.286 Z"/>
  <path d="M1264.381 741.849 Q1264.381 737.146 1265.349 734.294 Q1266.318 731.443 1268.224 729.888 Q1270.131 728.333 1273.021 728.333 Q1275.162 728.333 1276.764 729.193 Q1278.365 730.052 1279.420 731.661 Q1280.474 733.271 1281.068 735.591 Q1281.662 737.911 1281.662 741.849 Q1281.662 746.490 1280.701 749.349 Q1279.740 752.208 1277.834 753.771 Q1275.928 755.333 1273.021 755.333 Q1269.193 755.333 1267.006 752.599 Q1264.381 749.286 1264.381 741.849 Z M1267.724 741.833 Q1267.724 748.146 1269.256 750.240 Q1270.787 752.333 1273.021 752.333 Q1275.256 752.333 1276.787 750.232 Q1278.318 748.130 1278.318 741.833 Q1278.318 735.505 1276.787 733.419 Q1275.256 731.333 1272.990 731.333 Q1270.740 731.333 1269.412 733.177 Q1267.724 735.521 1267.724 741.833 Z"/>
  <path d="M1286.599 755.333 L1286.599 752.333 L1290.303 752.333 L1290.303 755.333 L1286.599 755.333 Z"/>
  <path d="M1294.959 741.849 Q1294.959 737.146 1295.928 734.294 Q1296.896 731.443 1298.803 729.888 Q1300.709 728.333 1303.599 728.333 Q1305.740 728.333 1307.342 729.193 Q1308.943 730.052 1309.998 731.661 Q1311.053 733.271 1311.646 735.591 Q1312.240 737.911 1312.240 741.849 Q1312.240 746.490 1311.279 749.349 Q1310.318 752.208 1308.412 753.771 Q1306.506 755.333 1303.599 755.333 Q1299.771 755.333 1297.584 752.599 Q1294.959 749.286 1294.959 741.849 Z M1298.303 741.833 Q1298.303 748.146 1299.834 750.240 Q1301.365 752.333 1303.599 752.333 Q1305.834 752.333 1307.365 750.232 Q1308.896 748.130 1308.896 741.833 Q1308.896 735.505 1307.365 733.419 Q1305.834 731.333 1303.568 731.333 Q1301.318 731.333 1299.990 733.177 Q1298.303 735.521 1298.303 741.833 Z"/>
  <path d="M1387.088 748.333 L1390.213 748.333 Q1390.603 750.443 1391.728 751.388 Q1392.853 752.333 1394.603 752.333 Q1396.103 752.333 1397.228 751.724 Q1398.353 751.115 1399.080 750.099 Q1399.806 749.083 1400.291 747.302 Q1400.775 745.521 1400.775 743.505 Q1400.775 743.286 1400.759 742.849 Q1399.791 744.411 1398.095 745.372 Q1396.400 746.333 1394.431 746.333 Q1391.150 746.333 1388.869 743.896 Q1386.588 741.458 1386.588 737.474 Q1386.588 733.349 1388.963 730.841 Q1391.338 728.333 1394.916 728.333 Q1397.509 728.333 1399.650 729.724 Q1401.791 731.115 1402.900 733.685 Q1404.009 736.255 1404.009 741.115 Q1404.009 746.193 1402.908 749.193 Q1401.806 752.193 1399.627 753.763 Q1397.447 755.333 1394.525 755.333 Q1391.416 755.333 1389.447 753.497 Q1387.478 751.661 1387.088 748.333 Z M1400.400 737.396 Q1400.400 734.615 1398.908 732.974 Q1397.416 731.333 1395.322 731.333 Q1393.150 731.333 1391.541 733.099 Q1389.931 734.865 1389.931 737.661 Q1389.931 740.193 1391.463 741.763 Q1392.994 743.333 1395.228 743.333 Q1397.494 743.333 1398.947 741.763 Q1400.400 740.193 1400.400 737.396 Z"/>
  <path d="M1406.978 741.849 Q1406.978 737.146 1407.947 734.294 Q1408.916 731.443 1410.822 729.888 Q1412.728 728.333 1415.619 728.333 Q1417.759 728.333 1419.361 729.193 Q1420.963 730.052 1422.017 731.661 Q1423.072 733.271 1423.666 735.591 Q1424.259 737.911 1424.259 741.849 Q1424.259 746.490 1423.298 749.349 Q1422.338 752.208 1420.431 753.771 Q1418.525 755.333 1415.619 755.333 Q1411.791 755.333 1409.603 752.599 Q1406.978 749.286 1406.978 741.849 Z M1410.322 741.833 Q1410.322 748.146 1411.853 750.240 Q1413.384 752.333 1415.619 752.333 Q1417.853 752.333 1419.384 750.232 Q1420.916 748.130 1420.916 741.833 Q1420.916 735.505 1419.384 733.419 Q1417.853 731.333 1415.588 731.333 Q1413.338 731.333 1412.009 733.177 Q1410.322 735.521 1410.322 741.833 Z"/>
  <path d="M1429.197 755.333 L1429.197 752.333 L1432.900 752.333 L1432.900 755.333 L1429.197 755.333 Z"/>
  <path d="M1437.556 741.849 Q1437.556 737.146 1438.525 734.294 Q1439.494 731.443 1441.400 729.888 Q1443.306 728.333 1446.197 728.333 Q1448.338 728.333 1449.939 729.193 Q1451.541 730.052 1452.595 731.661 Q1453.650 733.271 1454.244 735.591 Q1454.838 737.911 1454.838 741.849 Q1454.838 746.490 1453.877 749.349 Q1452.916 752.208 1451.009 753.771 Q1449.103 755.333 1446.197 755.333 Q1442.369 755.333 1440.181 752.599 Q1437.556 749.286 1437.556 741.849 Z M1440.900 741.833 Q1440.900 748.146 1442.431 750.240 Q1443.963 752.333 1446.197 752.333 Q1448.431 752.333 1449.963 750.232 Q1451.494 748.130 1451.494 741.833 Q1451.494 735.505 1449.963 733.419 Q1448.431 731.333 1446.166 731.333 Q1443.916 731.333 1442.588 733.177 Q1440.900 735.521 1440.900 741.833 Z"/>
  <path d="M1531.240 755.333 L1527.990 755.333 L1527.990 734.302 Q1526.818 735.443 1524.911 736.576 Q1523.005 737.708 1521.490 738.271 L1521.490 735.083 Q1524.224 733.786 1526.263 731.935 Q1528.302 730.083 1529.146 728.333 L1531.240 728.333 L1531.240 755.333 Z"/>
  <path d="M1539.380 741.849 Q1539.380 737.146 1540.349 734.294 Q1541.318 731.443 1543.224 729.888 Q1545.130 728.333 1548.021 728.333 Q1550.161 728.333 1551.763 729.193 Q1553.365 730.052 1554.419 731.661 Q1555.474 733.271 1556.068 735.591 Q1556.661 737.911 1556.661 741.849 Q1556.661 746.490 1555.701 749.349 Q1554.740 752.208 1552.833 753.771 Q1550.927 755.333 1548.021 755.333 Q1544.193 755.333 1542.005 752.599 Q1539.380 749.286 1539.380 741.849 Z M1542.724 741.833 Q1542.724 748.146 1544.255 750.240 Q1545.786 752.333 1548.021 752.333 Q1550.255 752.333 1551.786 750.232 Q1553.318 748.130 1553.318 741.833 Q1553.318 735.505 1551.786 733.419 Q1550.255 731.333 1547.990 731.333 Q1545.740 731.333 1544.411 733.177 Q1542.724 735.521 1542.724 741.833 Z"/>
  <path d="M1559.771 741.849 Q1559.771 737.146 1560.740 734.294 Q1561.708 731.443 1563.615 729.888 Q1565.521 728.333 1568.411 728.333 Q1570.552 728.333 1572.154 729.193 Q1573.755 730.052 1574.810 731.661 Q1575.865 733.271 1576.458 735.591 Q1577.052 737.911 1577.052 741.849 Q1577.052 746.490 1576.091 749.349 Q1575.130 752.208 1573.224 753.771 Q1571.318 755.333 1568.411 755.333 Q1564.583 755.333 1562.396 752.599 Q1559.771 749.286 1559.771 741.849 Z M1563.115 741.833 Q1563.115 748.146 1564.646 750.240 Q1566.177 752.333 1568.411 752.333 Q1570.646 752.333 1572.177 750.232 Q1573.708 748.130 1573.708 741.833 Q1573.708 735.505 1572.177 733.419 Q1570.646 731.333 1568.380 731.333 Q1566.130 731.333 1564.802 733.177 Q1563.115 735.521 1563.115 741.833 Z"/>
  <path d="M1581.990 755.333 L1581.990 752.333 L1585.693 752.333 L1585.693 755.333 L1581.990 755.333 Z"/>
  <path d="M1590.349 741.849 Q1590.349 737.146 1591.318 734.294 Q1592.286 731.443 1594.193 729.888 Q1596.099 728.333 1598.990 728.333 Q1601.130 728.333 1602.732 729.193 Q1604.333 730.052 1605.388 731.661 Q1606.443 733.271 1607.036 735.591 Q1607.630 737.911 1607.630 741.849 Q1607.630 746.490 1606.669 749.349 Q1605.708 752.208 1603.802 753.771 Q1601.896 755.333 1598.990 755.333 Q1595.161 755.333 1592.974 752.599 Q1590.349 749.286 1590.349 741.849 Z M1593.693 741.833 Q1593.693 748.146 1595.224 750.240 Q1596.755 752.333 1598.990 752.333 Q1601.224 752.333 1602.755 750.232 Q1604.286 748.130 1604.286 741.833 Q1604.286 735.505 1602.755 733.419 Q1601.224 731.333 1598.958 731.333 Q1596.708 731.333 1595.380 733.177 Q1593.693 735.521 1593.693 741.833 Z"/>
  <path d="M151.141 632.185 L147.891 632.185 L147.891 611.154 Q146.719 612.295 144.812 613.427 Q142.906 614.560 141.391 615.123 L141.391 611.935 Q144.125 610.638 146.164 608.787 Q148.203 606.935 149.047 605.185 L151.141 605.185 L151.141 632.185 Z" fill="#666666"/>
  <path d="M159.281 618.701 Q159.281 613.998 160.250 611.146 Q161.219 608.295 163.125 606.740 Q165.031 605.185 167.922 605.185 Q170.062 605.185 171.664 606.045 Q173.266 606.904 174.320 608.513 Q175.375 610.123 175.969 612.443 Q176.562 614.763 176.562 618.701 Q176.562 623.341 175.602 626.201 Q174.641 629.060 172.734 630.623 Q170.828 632.185 167.922 632.185 Q164.094 632.185 161.906 629.451 Q159.281 626.138 159.281 618.701 Z M162.625 618.685 Q162.625 624.998 164.156 627.091 Q165.688 629.185 167.922 629.185 Q170.156 629.185 171.688 627.084 Q173.219 624.982 173.219 618.685 Q173.219 612.357 171.688 610.271 Q170.156 608.185 167.891 608.185 Q165.641 608.185 164.312 610.029 Q162.625 612.373 162.625 618.685 Z" fill="#666666"/>
  <path d="M181.500 632.185 L181.500 629.185 L185.203 629.185 L185.203 632.185 L181.500 632.185 Z" fill="#666666"/>
  <path d="M189.859 618.701 Q189.859 613.998 190.828 611.146 Q191.797 608.295 193.703 606.740 Q195.609 605.185 198.500 605.185 Q200.641 605.185 202.242 606.045 Q203.844 606.904 204.898 608.513 Q205.953 610.123 206.547 612.443 Q207.141 614.763 207.141 618.701 Q207.141 623.341 206.180 626.201 Q205.219 629.060 203.312 630.623 Q201.406 632.185 198.500 632.185 Q194.672 632.185 192.484 629.451 Q189.859 626.138 189.859 618.701 Z M193.203 618.685 Q193.203 624.998 194.734 627.091 Q196.266 629.185 198.500 629.185 Q200.734 629.185 202.266 627.084 Q203.797 624.982 203.797 618.685 Q203.797 612.357 202.266 610.271 Q200.734 608.185 198.469 608.185 Q196.219 608.185 194.891 610.029 Q193.203 612.373 193.203 618.685 Z" fill="#666666"/>
  <path d="M155.984 556.370 L155.984 559.370 L138.484 559.370 Q138.438 558.245 138.859 557.198 Q139.531 555.480 141 553.816 Q142.469 552.152 145.250 549.777 Q149.578 546.089 151.094 543.988 Q152.609 541.886 152.609 540.027 Q152.609 538.058 151.227 536.714 Q149.844 535.370 147.625 535.370 Q145.281 535.370 143.867 536.433 Q142.453 537.495 142.438 539.370 L139.094 539.370 Q139.438 535.948 141.680 534.159 Q143.922 532.370 147.688 532.370 Q151.516 532.370 153.734 534.542 Q155.953 536.714 155.953 539.933 Q155.953 541.573 155.305 543.152 Q154.656 544.730 153.141 546.480 Q151.625 548.230 148.125 551.214 Q145.203 553.698 144.375 554.589 Q143.547 555.480 143 556.370 L155.984 556.370 Z" fill="#666666"/>
  <path d="M159.281 545.886 Q159.281 541.183 160.250 538.331 Q161.219 535.480 163.125 533.925 Q165.031 532.370 167.922 532.370 Q170.062 532.370 171.664 533.230 Q173.266 534.089 174.320 535.698 Q175.375 537.308 175.969 539.628 Q176.562 541.948 176.562 545.886 Q176.562 550.527 175.602 553.386 Q174.641 556.245 172.734 557.808 Q170.828 559.370 167.922 559.370 Q164.094 559.370 161.906 556.636 Q159.281 553.323 159.281 545.886 Z M162.625 545.870 Q162.625 552.183 164.156 554.277 Q165.688 556.370 167.922 556.370 Q170.156 556.370 171.688 554.269 Q173.219 552.167 173.219 545.870 Q173.219 539.542 171.688 537.456 Q170.156 535.370 167.891 535.370 Q165.641 535.370 164.312 537.214 Q162.625 539.558 162.625 545.870 Z" fill="#666666"/>
  <path d="M181.500 559.370 L181.500 556.370 L185.203 556.370 L185.203 559.370 L181.500 559.370 Z" fill="#666666"/>
  <path d="M189.859 545.886 Q189.859 541.183 190.828 538.331 Q191.797 535.480 193.703 533.925 Q195.609 532.370 198.500 532.370 Q200.641 532.370 202.242 533.230 Q203.844 534.089 204.898 535.698 Q205.953 537.308 206.547 539.628 Q207.141 541.948 207.141 545.886 Q207.141 550.527 206.180 553.386 Q205.219 556.245 203.312 557.808 Q201.406 559.370 198.500 559.370 Q194.672 559.370 192.484 556.636 Q189.859 553.323 189.859 545.886 Z M193.203 545.870 Q193.203 552.183 194.734 554.277 Q196.266 556.370 198.500 556.370 Q200.734 556.370 202.266 554.269 Q203.797 552.167 203.797 545.870 Q203.797 539.542 202.266 537.456 Q200.734 535.370 198.469 535.370 Q196.219 535.370 194.891 537.214 Q193.203 539.558 193.203 545.870 Z" fill="#666666"/>
  <path d="M138.906 479.556 L142.172 479.556 Q142.734 481.681 144.078 482.618 Q145.422 483.556 147.359 483.556 Q149.656 483.556 151.234 482.016 Q152.812 480.477 152.812 478.196 Q152.812 476.024 151.352 474.602 Q149.891 473.181 147.625 473.181 Q146.703 473.181 145.328 473.556 L145.688 470.556 Q146.016 470.587 146.219 470.587 Q148.297 470.587 149.953 469.571 Q151.609 468.556 151.609 466.431 Q151.609 464.759 150.398 463.657 Q149.188 462.556 147.266 462.556 Q145.375 462.556 144.109 463.556 Q142.844 464.556 142.484 466.556 L139.234 466.556 Q139.828 463.227 141.945 461.391 Q144.062 459.556 147.203 459.556 Q149.375 459.556 151.195 460.477 Q153.016 461.399 153.984 462.985 Q154.953 464.571 154.953 466.352 Q154.953 468.040 154.031 469.431 Q153.109 470.821 151.312 471.649 Q153.656 472.196 154.953 473.915 Q156.250 475.634 156.250 478.212 Q156.250 481.696 153.719 484.126 Q151.188 486.556 147.328 486.556 Q143.844 486.556 141.539 484.610 Q139.234 482.665 138.906 479.556 Z" fill="#666666"/>
  <path d="M159.281 473.071 Q159.281 468.368 160.250 465.516 Q161.219 462.665 163.125 461.110 Q165.031 459.556 167.922 459.556 Q170.062 459.556 171.664 460.415 Q173.266 461.274 174.320 462.884 Q175.375 464.493 175.969 466.813 Q176.562 469.134 176.562 473.071 Q176.562 477.712 175.602 480.571 Q174.641 483.431 172.734 484.993 Q170.828 486.556 167.922 486.556 Q164.094 486.556 161.906 483.821 Q159.281 480.509 159.281 473.071 Z M162.625 473.056 Q162.625 479.368 164.156 481.462 Q165.688 483.556 167.922 483.556 Q170.156 483.556 171.688 481.454 Q173.219 479.352 173.219 473.056 Q173.219 466.727 171.688 464.641 Q170.156 462.556 167.891 462.556 Q165.641 462.556 164.312 464.399 Q162.625 466.743 162.625 473.056 Z" fill="#666666"/>
  <path d="M181.500 486.556 L181.500 483.556 L185.203 483.556 L185.203 486.556 L181.500 486.556 Z" fill="#666666"/>
  <path d="M189.859 473.071 Q189.859 468.368 190.828 465.516 Q191.797 462.665 193.703 461.110 Q195.609 459.556 198.500 459.556 Q200.641 459.556 202.242 460.415 Q203.844 461.274 204.898 462.884 Q205.953 464.493 206.547 466.813 Q207.141 469.134 207.141 473.071 Q207.141 477.712 206.180 480.571 Q205.219 483.431 203.312 484.993 Q201.406 486.556 198.500 486.556 Q194.672 486.556 192.484 483.821 Q189.859 480.509 189.859 473.071 Z M193.203 473.056 Q193.203 479.368 194.734 481.462 Q196.266 483.556 198.500 483.556 Q200.734 483.556 202.266 481.454 Q203.797 479.352 203.797 473.056 Q203.797 466.727 202.266 464.641 Q200.734 462.556 198.469 462.556 Q196.219 462.556 194.891 464.399 Q193.203 466.743 193.203 473.056 Z" fill="#666666"/>
  <path d="M149.312 413.741 L149.312 407.741 L137.828 407.741 L137.828 404.741 L149.922 386.741 L152.578 386.741 L152.578 404.741 L156.156 404.741 L156.156 407.741 L152.578 407.741 L152.578 413.741 L149.312 413.741 Z M149.312 404.741 L149.312 392.413 L141.031 404.741 L149.312 404.741 Z" fill="#666666"/>
  <path d="M159.281 400.256 Q159.281 395.553 160.250 392.702 Q161.219 389.850 163.125 388.295 Q165.031 386.741 167.922 386.741 Q170.062 386.741 171.664 387.600 Q173.266 388.459 174.320 390.069 Q175.375 391.678 175.969 393.999 Q176.562 396.319 176.562 400.256 Q176.562 404.897 175.602 407.756 Q174.641 410.616 172.734 412.178 Q170.828 413.741 167.922 413.741 Q164.094 413.741 161.906 411.006 Q159.281 407.694 159.281 400.256 Z M162.625 400.241 Q162.625 406.553 164.156 408.647 Q165.688 410.741 167.922 410.741 Q170.156 410.741 171.688 408.639 Q173.219 406.538 173.219 400.241 Q173.219 393.913 171.688 391.827 Q170.156 389.741 167.891 389.741 Q165.641 389.741 164.312 391.584 Q162.625 393.928 162.625 400.241 Z" fill="#666666"/>
  <path d="M181.500 413.741 L181.500 410.741 L185.203 410.741 L185.203 413.741 L181.500 413.741 Z" fill="#666666"/>
  <path d="M189.859 400.256 Q189.859 395.553 190.828 392.702 Q191.797 389.850 193.703 388.295 Q195.609 386.741 198.500 386.741 Q200.641 386.741 202.242 387.600 Q203.844 388.459 204.898 390.069 Q205.953 391.678 206.547 393.999 Q207.141 396.319 207.141 400.256 Q207.141 404.897 206.180 407.756 Q205.219 410.616 203.312 412.178 Q201.406 413.741 198.500 413.741 Q194.672 413.741 192.484 411.006 Q189.859 407.694 189.859 400.256 Z M193.203 400.241 Q193.203 406.553 194.734 408.647 Q196.266 410.741 198.500 410.741 Q200.734 410.741 202.266 408.639 Q203.797 406.538 203.797 400.241 Q203.797 393.913 202.266 391.827 Q200.734 389.741 198.469 389.741 Q196.219 389.741 194.891 391.584 Q193.203 393.928 193.203 400.241 Z" fill="#666666"/>
  <path d="M138.891 333.926 L142.312 333.926 Q142.688 335.926 144.070 336.926 Q145.453 337.926 147.406 337.926 Q149.750 337.926 151.375 336.223 Q153 334.520 153 331.707 Q153 329.020 151.438 327.473 Q149.875 325.926 147.344 325.926 Q145.781 325.926 144.516 326.481 Q143.250 327.035 142.531 327.926 L139.469 327.926 L142.031 313.926 L155.203 313.926 L155.203 316.926 L144.641 316.926 L143.219 324.660 Q145.609 322.926 148.219 322.926 Q151.688 322.926 154.070 325.324 Q156.453 327.723 156.453 331.504 Q156.453 335.098 154.359 337.707 Q151.812 340.926 147.406 340.926 Q143.781 340.926 141.500 339.012 Q139.219 337.098 138.891 333.926 Z" fill="#666666"/>
  <path d="M159.281 327.442 Q159.281 322.738 160.250 319.887 Q161.219 317.035 163.125 315.481 Q165.031 313.926 167.922 313.926 Q170.062 313.926 171.664 314.785 Q173.266 315.645 174.320 317.254 Q175.375 318.863 175.969 321.184 Q176.562 323.504 176.562 327.442 Q176.562 332.082 175.602 334.942 Q174.641 337.801 172.734 339.363 Q170.828 340.926 167.922 340.926 Q164.094 340.926 161.906 338.192 Q159.281 334.879 159.281 327.442 Z M162.625 327.426 Q162.625 333.738 164.156 335.832 Q165.688 337.926 167.922 337.926 Q170.156 337.926 171.688 335.824 Q173.219 333.723 173.219 327.426 Q173.219 321.098 171.688 319.012 Q170.156 316.926 167.891 316.926 Q165.641 316.926 164.312 318.770 Q162.625 321.113 162.625 327.426 Z" fill="#666666"/>
  <path d="M181.500 340.926 L181.500 337.926 L185.203 337.926 L185.203 340.926 L181.500 340.926 Z" fill="#666666"/>
  <path d="M189.859 327.442 Q189.859 322.738 190.828 319.887 Q191.797 317.035 193.703 315.481 Q195.609 313.926 198.500 313.926 Q200.641 313.926 202.242 314.785 Q203.844 315.645 204.898 317.254 Q205.953 318.863 206.547 321.184 Q207.141 323.504 207.141 327.442 Q207.141 332.082 206.180 334.942 Q205.219 337.801 203.312 339.363 Q201.406 340.926 198.500 340.926 Q194.672 340.926 192.484 338.192 Q189.859 334.879 189.859 327.442 Z M193.203 327.426 Q193.203 333.738 194.734 335.832 Q196.266 337.926 198.500 337.926 Q200.734 337.926 202.266 335.824 Q203.797 333.723 203.797 327.426 Q203.797 321.098 202.266 319.012 Q200.734 316.926 198.469 316.926 Q196.219 316.926 194.891 318.770 Q193.203 321.113 193.203 327.426 Z" fill="#666666"/>
  <path d="M155.766 248.111 L152.531 248.111 Q152.094 246.283 151.297 245.439 Q149.984 244.111 148.047 244.111 Q146.500 244.111 145.328 244.877 Q143.797 245.877 142.906 247.791 Q142.016 249.705 141.984 253.642 Q143.156 251.845 144.852 250.978 Q146.547 250.111 148.422 250.111 Q151.672 250.111 153.953 252.556 Q156.234 255.002 156.234 258.877 Q156.234 261.424 155.156 263.603 Q154.078 265.783 152.203 266.947 Q150.328 268.111 147.938 268.111 Q143.875 268.111 141.312 265.127 Q138.750 262.142 138.750 255.283 Q138.750 247.627 141.594 244.142 Q144.062 241.111 148.250 241.111 Q151.375 241.111 153.375 242.970 Q155.375 244.830 155.766 248.111 Z M142.484 258.799 Q142.484 260.470 143.195 261.994 Q143.906 263.517 145.195 264.314 Q146.484 265.111 147.891 265.111 Q149.953 265.111 151.438 263.463 Q152.922 261.814 152.922 258.970 Q152.922 256.252 151.453 254.681 Q149.984 253.111 147.766 253.111 Q145.562 253.111 144.023 254.681 Q142.484 256.252 142.484 258.799 Z" fill="#666666"/>
  <path d="M159.281 254.627 Q159.281 249.924 160.250 247.072 Q161.219 244.220 163.125 242.666 Q165.031 241.111 167.922 241.111 Q170.062 241.111 171.664 241.970 Q173.266 242.830 174.320 244.439 Q175.375 246.049 175.969 248.369 Q176.562 250.689 176.562 254.627 Q176.562 259.267 175.602 262.127 Q174.641 264.986 172.734 266.549 Q170.828 268.111 167.922 268.111 Q164.094 268.111 161.906 265.377 Q159.281 262.064 159.281 254.627 Z M162.625 254.611 Q162.625 260.924 164.156 263.017 Q165.688 265.111 167.922 265.111 Q170.156 265.111 171.688 263.010 Q173.219 260.908 173.219 254.611 Q173.219 248.283 171.688 246.197 Q170.156 244.111 167.891 244.111 Q165.641 244.111 164.312 245.955 Q162.625 248.299 162.625 254.611 Z" fill="#666666"/>
  <path d="M181.500 268.111 L181.500 265.111 L185.203 265.111 L185.203 268.111 L181.500 268.111 Z" fill="#666666"/>
  <path d="M189.859 254.627 Q189.859 249.924 190.828 247.072 Q191.797 244.220 193.703 242.666 Q195.609 241.111 198.500 241.111 Q200.641 241.111 202.242 241.970 Q203.844 242.830 204.898 244.439 Q205.953 246.049 206.547 248.369 Q207.141 250.689 207.141 254.627 Q207.141 259.267 206.180 262.127 Q205.219 264.986 203.312 266.549 Q201.406 268.111 198.500 268.111 Q194.672 268.111 192.484 265.377 Q189.859 262.064 189.859 254.627 Z M193.203 254.611 Q193.203 260.924 194.734 263.017 Q196.266 265.111 198.500 265.111 Q200.734 265.111 202.266 263.010 Q203.797 260.908 203.797 254.611 Q203.797 248.283 202.266 246.197 Q200.734 244.111 198.469 244.111 Q196.219 244.111 194.891 245.955 Q193.203 248.299 193.203 254.611 Z" fill="#666666"/>
  <path d="M139.109 171.296 L139.109 168.296 L156.250 168.296 L156.250 170.718 Q153.734 173.484 151.250 178.140 Q148.766 182.796 147.406 187.703 Q146.422 191.171 146.156 195.296 L142.812 195.296 Q142.859 192.031 144.039 187.421 Q145.219 182.812 147.414 178.523 Q149.609 174.234 152.078 171.296 L139.109 171.296 Z" fill="#666666"/>
  <path d="M159.281 181.812 Q159.281 177.109 160.250 174.257 Q161.219 171.406 163.125 169.851 Q165.031 168.296 167.922 168.296 Q170.062 168.296 171.664 169.156 Q173.266 170.015 174.320 171.624 Q175.375 173.234 175.969 175.554 Q176.562 177.874 176.562 181.812 Q176.562 186.453 175.602 189.312 Q174.641 192.171 172.734 193.734 Q170.828 195.296 167.922 195.296 Q164.094 195.296 161.906 192.562 Q159.281 189.249 159.281 181.812 Z M162.625 181.796 Q162.625 188.109 164.156 190.203 Q165.688 192.296 167.922 192.296 Q170.156 192.296 171.688 190.195 Q173.219 188.093 173.219 181.796 Q173.219 175.468 171.688 173.382 Q170.156 171.296 167.891 171.296 Q165.641 171.296 164.312 173.140 Q162.625 175.484 162.625 181.796 Z" fill="#666666"/>
  <path d="M181.500 195.296 L181.500 192.296 L185.203 192.296 L185.203 195.296 L181.500 195.296 Z" fill="#666666"/>
  <path d="M189.859 181.812 Q189.859 177.109 190.828 174.257 Q191.797 171.406 193.703 169.851 Q195.609 168.296 198.500 168.296 Q200.641 168.296 202.242 169.156 Q203.844 170.015 204.898 171.624 Q205.953 173.234 206.547 175.554 Q207.141 177.874 207.141 181.812 Q207.141 186.453 206.180 189.312 Q205.219 192.171 203.312 193.734 Q201.406 195.296 198.500 195.296 Q194.672 195.296 192.484 192.562 Q189.859 189.249 189.859 181.812 Z M193.203 181.796 Q193.203 188.109 194.734 190.203 Q196.266 192.296 198.500 192.296 Q200.734 192.296 202.266 190.195 Q203.797 188.093 203.797 181.796 Q203.797 175.468 202.266 173.382 Q200.734 171.296 198.469 171.296 Q196.219 171.296 194.891 173.140 Q193.203 175.484 193.203 181.796 Z" fill="#666666"/>
  <path d="M143.906 107.888 Q141.875 107.138 140.898 105.747 Q139.922 104.356 139.922 102.403 Q139.922 99.481 142 97.481 Q144.078 95.481 147.531 95.481 Q151 95.481 153.117 97.528 Q155.234 99.575 155.234 102.497 Q155.234 104.372 154.266 105.755 Q153.297 107.138 151.328 107.888 Q153.766 108.669 155.039 110.411 Q156.312 112.153 156.312 114.575 Q156.312 117.919 153.906 120.200 Q151.500 122.481 147.578 122.481 Q143.672 122.481 141.266 120.192 Q138.859 117.903 138.859 114.497 Q138.859 111.950 140.172 110.231 Q141.484 108.513 143.906 107.888 Z M143.250 102.372 Q143.250 104.185 144.461 105.333 Q145.672 106.481 147.609 106.481 Q149.484 106.481 150.688 105.341 Q151.891 104.200 151.891 102.544 Q151.891 100.825 150.656 99.653 Q149.422 98.481 147.578 98.481 Q145.703 98.481 144.477 99.630 Q143.250 100.778 143.250 102.372 Z M142.203 114.435 Q142.203 115.731 142.859 116.942 Q143.516 118.153 144.820 118.817 Q146.125 119.481 147.625 119.481 Q149.953 119.481 151.469 118.083 Q152.984 116.685 152.984 114.528 Q152.984 112.341 151.422 110.911 Q149.859 109.481 147.516 109.481 Q145.219 109.481 143.711 110.896 Q142.203 112.310 142.203 114.435 Z" fill="#666666"/>
  <path d="M159.281 108.997 Q159.281 104.294 160.250 101.442 Q161.219 98.591 163.125 97.036 Q165.031 95.481 167.922 95.481 Q170.062 95.481 171.664 96.341 Q173.266 97.200 174.320 98.810 Q175.375 100.419 175.969 102.739 Q176.562 105.060 176.562 108.997 Q176.562 113.638 175.602 116.497 Q174.641 119.356 172.734 120.919 Q170.828 122.481 167.922 122.481 Q164.094 122.481 161.906 119.747 Q159.281 116.435 159.281 108.997 Z M162.625 108.981 Q162.625 115.294 164.156 117.388 Q165.688 119.481 167.922 119.481 Q170.156 119.481 171.688 117.380 Q173.219 115.278 173.219 108.981 Q173.219 102.653 171.688 100.567 Q170.156 98.481 167.891 98.481 Q165.641 98.481 164.312 100.325 Q162.625 102.669 162.625 108.981 Z" fill="#666666"/>
  <path d="M181.500 122.481 L181.500 119.481 L185.203 119.481 L185.203 122.481 L181.500 122.481 Z" fill="#666666"/>
  <path d="M189.859 108.997 Q189.859 104.294 190.828 101.442 Q191.797 98.591 193.703 97.036 Q195.609 95.481 198.500 95.481 Q200.641 95.481 202.242 96.341 Q203.844 97.200 204.898 98.810 Q205.953 100.419 206.547 102.739 Q207.141 105.060 207.141 108.997 Q207.141 113.638 206.180 116.497 Q205.219 119.356 203.312 120.919 Q201.406 122.481 198.500 122.481 Q194.672 122.481 192.484 119.747 Q189.859 116.435 189.859 108.997 Z M193.203 108.981 Q193.203 115.294 194.734 117.388 Q196.266 119.481 198.500 119.481 Q200.734 119.481 202.266 117.380 Q203.797 115.278 203.797 108.981 Q203.797 102.653 202.266 100.567 Q200.734 98.481 198.469 98.481 Q196.219 98.481 194.891 100.325 Q193.203 102.669 193.203 108.981 Z" fill="#666666"/>
  <path d="M137.359 109.481 L1563.333 109.481" fill="none" stroke="#000000" stroke-opacity="0.100" stroke-width="3.333"/>
  <path d="M137.359 182.296 L1563.333 182.296" fill="none" stroke="#000000" stroke-opacity="0.100" stroke-width="3.333"/>
  <path d="M137.359 255.111 L1563.333 255.111" fill="none" stroke="#000000" stroke-opacity="0.100" stroke-width="3.333"/>
  <path d="M137.359 327.926 L1563.333 327.926" fill="none" stroke="#000000" stroke-opacity="0.100" stroke-width="3.333"/>
  <path d="M137.359 400.741 L1563.333 400.741" fill="none" stroke="#000000" stroke-opacity="0.100" stroke-width="3.333"/>
  <path d="M137.359 473.556 L1563.333 473.556" fill="none" stroke="#000000" stroke-opacity="0.100" stroke-width="3.333"/>
  <path d="M137.359 546.370 L1563.333 546.370" fill="none" stroke="#000000" stroke-opacity="0.100" stroke-width="3.333"/>
  <path d="M137.359 619.185 L1563.333 619.185" fill="none" stroke="#000000" stroke-opacity="0.100" stroke-width="3.333"/>
  <path d="M208.658 641.030 L279.957 597.341 L422.554 568.215 L565.152 495.400 L707.749 415.304 L850.346 408.022 L992.944 313.363 L1135.541 262.393 L1278.139 342.489 L1420.736 255.111 L1563.333 218.704 L1563.333 692 L1420.736 692 L1278.139 692 L1135.541 692 L992.944 692 L850.346 692 L707.749 692 L565.152 692 L422.554 692 L279.957 692 L208.658 692 Z" fill="#80699b"/>
  <path d="M208.658 641.030 L279.957 597.341 L422.554 568.215 L565.152 495.400 L707.749 415.304 L850.346 408.022 L992.944 313.363 L1135.541 262.393 L1278.139 342.489 L1420.736 255.111 L1563.333 218.704" fill="none" stroke="#000000" stroke-opacity="0.500" stroke-width="2"/>
  <path d="M1563.333 692 L1420.736 692 L1278.139 692 L1135.541 692 L992.944 692 L850.346 692 L707.749 692 L565.152 692 L422.554 692 L279.957 692 L208.658 692" fill="none" stroke="#000000" stroke-opacity="0.500" stroke-width="2"/>
  <path d="M208.658 662.874 L279.957 604.622 L422.554 582.778 L565.152 531.807 L707.749 437.148 L850.346 415.304 L992.944 349.770 L1135.541 349.770 L1278.139 386.178 L1420.736 306.081 L1563.333 255.111 L1563.333 692 L1420.736 692 L1278.139 692 L1135.541 692 L992.944 692 L850.346 692 L707.749 692 L565.152 692 L422.554 692 L279.957 692 L208.658 692 Z" fill="#89a54e"/>
  <path d="M208.658 662.874 L279.957 604.622 L422.554 582.778 L565.152 531.807 L707.749 437.148 L850.346 415.304 L992.944 349.770 L1135.541 349.770 L1278.139 386.178 L1420.736 306.081 L1563.333 255.111" fill="none" stroke="#000000" stroke-opacity="0.400" stroke-width="2"/>
  <path d="M1563.333 692 L1420.736 692 L1278.139 692 L1135.541 692 L992.944 692 L850.346 692 L707.749 692 L565.152 692 L422.554 692 L279.957 692 L208.658 692" fill="none" stroke="#000000" stroke-opacity="0.400" stroke-width="2"/>
  <path d="M208.658 670.156 L279.957 619.185 L422.554 619.185 L565.152 560.933 L707.749 458.993 L850.346 444.430 L992.944 386.178 L1135.541 400.741 L1278.139 429.867 L1420.736 357.052 L1563.333 298.800 L1563.333 692 L1420.736 692 L1278.139 692 L1135.541 692 L992.944 692 L850.346 692 L707.749 692 L565.152 692 L422.554 692 L279.957 692 L208.658 692 Z" fill="#db843d"/>
  <path d="M208.658 670.156 L279.957 619.185 L422.554 619.185 L565.152 560.933 L707.749 458.993 L850.346 444.430 L992.944 386.178 L1135.541 400.741 L1278.139 429.867 L1420.736 357.052 L1563.333 298.800" fill="none" stroke="#000000" stroke-opacity="0.500" stroke-width="2"/>
  <path d="M1563.333 692 L1420.736 692 L1278.139 692 L1135.541 692 L992.944 692 L850.346 692 L707.749 692 L565.152 692 L422.554 692 L279.957 692 L208.658 692" fill="none" stroke="#000000" stroke-opacity="0.500" stroke-width="2"/>
  <path d="M208.658 677.437 L279.957 648.311 L422.554 648.311 L565.152 633.748 L707.749 560.933 L850.346 546.370 L992.944 473.556 L1135.541 473.556 L1278.139 473.556 L1420.736 429.867 L1563.333 437.148 L1563.333 692 L1420.736 692 L1278.139 692 L1135.541 692 L992.944 692 L850.346 692 L707.749 692 L565.152 692 L422.554 692 L279.957 692 L208.658 692 Z" fill="#aa4643"/>
  <path d="M208.658 677.437 L279.957 648.311 L422.554 648.311 L565.152 633.748 L707.749 560.933 L850.346 546.370 L992.944 473.556 L1135.541 473.556 L1278.139 473.556 L1420.736 429.867 L1563.333 437.148" fill="none" stroke="#000000" stroke-opacity="0.500" stroke-width="2"/>
  <path d="M1563.333 692 L1420.736 692 L1278.139 692 L1135.541 692 L992.944 692 L850.346 692 L707.749 692 L565.152 692 L422.554 692 L279.957 692 L208.658 692" fill="none" stroke="#000000" stroke-opacity="0.500" stroke-width="2"/>
  <path d="M208.658 684.719 L279.957 677.437 L422.554 662.874 L565.152 641.030 L707.749 597.341 L850.346 582.778 L992.944 546.370 L1135.541 575.496 L1278.139 560.933 L1420.736 524.526 L1563.333 560.933 L1563.333 692 L1420.736 692 L1278.139 692 L1135.541 692 L992.944 692 L850.346 692 L707.749 692 L565.152 692 L422.554 692 L279.957 692 L208.658 692 Z" fill="#4572a7"/>
  <path d="M208.658 684.719 L279.957 677.437 L422.554 662.874 L565.152 641.030 L707.749 597.341 L850.346 582.778 L992.944 546.370 L1135.541 575.496 L1278.139 560.933 L1420.736 524.526 L1563.333 560.933" fill="none" stroke="#000000" stroke-opacity="0.500" stroke-width="2"/>
  <path d="M1563.333 692 L1420.736 692 L1278.139 692 L1135.541 692 L992.944 692 L850.346 692 L707.749 692 L565.152 692 L422.554 692 L279.957 692 L208.658 692" fill="none" stroke="#000000" stroke-opacity="0.500" stroke-width="2"/>
  <path d="M503.385 61.667 L506.698 61.667 Q506.932 63.620 507.792 64.870 Q508.651 66.120 510.456 66.893 Q512.260 67.667 514.526 67.667 Q516.526 67.667 518.065 67.081 Q519.604 66.495 520.354 65.471 Q521.104 64.448 521.104 63.229 Q521.104 61.979 520.378 61.049 Q519.651 60.120 517.979 59.495 Q516.917 59.073 513.268 58.206 Q509.620 57.339 508.151 56.573 Q506.260 55.589 505.331 54.135 Q504.401 52.682 504.401 50.870 Q504.401 48.901 505.542 47.174 Q506.682 45.448 508.870 44.557 Q511.057 43.667 513.729 43.667 Q516.667 43.667 518.917 44.628 Q521.167 45.589 522.378 47.448 Q523.589 49.307 523.682 51.667 L520.323 51.667 Q520.057 49.198 518.487 47.932 Q516.917 46.667 513.870 46.667 Q510.682 46.667 509.229 47.823 Q507.776 48.979 507.776 50.604 Q507.776 52.026 508.807 52.932 Q509.823 53.854 514.096 54.815 Q518.370 55.776 519.964 56.495 Q522.276 57.542 523.378 59.151 Q524.479 60.760 524.479 62.854 Q524.479 64.932 523.268 66.776 Q522.057 68.620 519.792 69.643 Q517.526 70.667 514.682 70.667 Q511.089 70.667 508.659 69.612 Q506.229 68.557 504.846 66.448 Q503.464 64.339 503.385 61.667 Z"/>
  <path d="M541.760 64.667 L545.120 64.667 Q544.323 67.510 542.174 69.089 Q540.026 70.667 536.682 70.667 Q532.479 70.667 530.010 68.081 Q527.542 65.495 527.542 60.823 Q527.542 55.995 530.034 53.331 Q532.526 50.667 536.510 50.667 Q540.354 50.667 542.792 53.323 Q545.229 55.979 545.229 60.792 Q545.229 61.089 545.214 61.667 L530.901 61.667 Q531.089 64.573 532.690 66.120 Q534.292 67.667 536.698 67.667 Q538.495 67.667 539.760 66.948 Q541.026 66.229 541.760 64.667 Z M531.073 58.667 L541.792 58.667 Q541.573 56.464 540.557 55.370 Q539.010 53.667 536.526 53.667 Q534.292 53.667 532.760 55.026 Q531.229 56.385 531.073 58.667 Z"/>
  <path d="M548.979 70.667 L548.979 50.667 L551.901 50.667 L551.901 53.651 Q553.026 51.823 553.971 51.245 Q554.917 50.667 556.057 50.667 Q557.698 50.667 559.401 51.292 L558.276 54.307 Q557.089 53.667 555.901 53.667 Q554.839 53.667 553.987 54.339 Q553.135 55.010 552.776 56.198 Q552.229 58.010 552.229 60.167 L552.229 70.667 L548.979 70.667 Z"/>
  <path d="M561.245 46.667 L561.245 43.667 L564.495 43.667 L564.495 46.667 L561.245 46.667 Z M561.245 70.667 L561.245 50.667 L564.495 50.667 L564.495 70.667 L561.245 70.667 Z"/>
  <path d="M582.510 64.667 L585.870 64.667 Q585.073 67.510 582.924 69.089 Q580.776 70.667 577.432 70.667 Q573.229 70.667 570.760 68.081 Q568.292 65.495 568.292 60.823 Q568.292 55.995 570.784 53.331 Q573.276 50.667 577.260 50.667 Q581.104 50.667 583.542 53.323 Q585.979 55.979 585.979 60.792 Q585.979 61.089 585.964 61.667 L571.651 61.667 Q571.839 64.573 573.440 66.120 Q575.042 67.667 577.448 67.667 Q579.245 67.667 580.510 66.948 Q581.776 66.229 582.510 64.667 Z M571.823 58.667 L582.542 58.667 Q582.323 56.464 581.307 55.370 Q579.760 53.667 577.276 53.667 Q575.042 53.667 573.510 55.026 Q571.979 56.385 571.823 58.667 Z"/>
  <path d="M588.464 63.667 L591.682 63.667 Q591.948 65.604 593.190 66.635 Q594.432 67.667 596.651 67.667 Q598.885 67.667 599.971 66.831 Q601.057 65.995 601.057 64.885 Q601.057 63.870 600.104 63.292 Q599.432 62.901 596.776 62.292 Q593.198 61.385 591.815 60.714 Q590.432 60.042 589.721 58.862 Q589.010 57.682 589.010 56.260 Q589.010 54.964 589.596 53.854 Q590.182 52.745 591.198 52.026 Q591.948 51.448 593.260 51.057 Q594.573 50.667 596.073 50.667 Q598.323 50.667 600.026 51.393 Q601.729 52.120 602.542 53.354 Q603.354 54.589 603.667 56.667 L600.495 56.667 Q600.276 55.260 599.237 54.464 Q598.198 53.667 596.307 53.667 Q594.073 53.667 593.112 54.339 Q592.151 55.010 592.151 55.917 Q592.151 56.479 592.542 56.948 Q592.948 57.417 593.792 57.729 Q594.276 57.885 596.667 58.479 Q600.120 59.417 601.487 60.003 Q602.854 60.589 603.628 61.721 Q604.401 62.854 604.401 64.542 Q604.401 66.182 603.456 67.628 Q602.510 69.073 600.721 69.870 Q598.932 70.667 596.667 70.667 Q592.932 70.667 590.971 68.901 Q589.010 67.135 588.464 63.667 Z"/>
  <path d=""/>
  <path d="M614.792 70.667 L624.964 43.667 L628.729 43.667 L639.573 70.667 L635.573 70.667 L632.495 62.667 L621.417 62.667 L618.510 70.667 L614.792 70.667 Z M622.432 59.667 L631.401 59.667 L628.635 52.370 Q627.370 49.026 626.760 46.667 Q626.260 49.370 625.339 51.901 L622.432 59.667 Z"/>
  <path d="M466.896 71.417 C459.302 71.417 453.146 65.261 453.146 57.667 C453.146 50.073 459.302 43.917 466.896 43.917 C474.490 43.917 480.646 50.073 480.646 57.667 C480.646 65.261 474.490 71.417 466.896 71.417 Z" fill="#4572a7"/>
  <path d="M731.615 61.667 L734.927 61.667 Q735.161 63.620 736.021 64.870 Q736.880 66.120 738.685 66.893 Q740.490 67.667 742.755 67.667 Q744.755 67.667 746.294 67.081 Q747.833 66.495 748.583 65.471 Q749.333 64.448 749.333 63.229 Q749.333 61.979 748.607 61.049 Q747.880 60.120 746.208 59.495 Q745.146 59.073 741.497 58.206 Q737.849 57.339 736.380 56.573 Q734.490 55.589 733.560 54.135 Q732.630 52.682 732.630 50.870 Q732.630 48.901 733.771 47.174 Q734.911 45.448 737.099 44.557 Q739.286 43.667 741.958 43.667 Q744.896 43.667 747.146 44.628 Q749.396 45.589 750.607 47.448 Q751.818 49.307 751.911 51.667 L748.552 51.667 Q748.286 49.198 746.716 47.932 Q745.146 46.667 742.099 46.667 Q738.911 46.667 737.458 47.823 Q736.005 48.979 736.005 50.604 Q736.005 52.026 737.036 52.932 Q738.052 53.854 742.326 54.815 Q746.599 55.776 748.193 56.495 Q750.505 57.542 751.607 59.151 Q752.708 60.760 752.708 62.854 Q752.708 64.932 751.497 66.776 Q750.286 68.620 748.021 69.643 Q745.755 70.667 742.911 70.667 Q739.318 70.667 736.888 69.612 Q734.458 68.557 733.076 66.448 Q731.693 64.339 731.615 61.667 Z"/>
  <path d="M769.990 64.667 L773.349 64.667 Q772.552 67.510 770.404 69.089 Q768.255 70.667 764.911 70.667 Q760.708 70.667 758.240 68.081 Q755.771 65.495 755.771 60.823 Q755.771 55.995 758.263 53.331 Q760.755 50.667 764.740 50.667 Q768.583 50.667 771.021 53.323 Q773.458 55.979 773.458 60.792 Q773.458 61.089 773.443 61.667 L759.130 61.667 Q759.318 64.573 760.919 66.120 Q762.521 67.667 764.927 67.667 Q766.724 67.667 767.990 66.948 Q769.255 66.229 769.990 64.667 Z M759.302 58.667 L770.021 58.667 Q769.802 56.464 768.786 55.370 Q767.240 53.667 764.755 53.667 Q762.521 53.667 760.990 55.026 Q759.458 56.385 759.302 58.667 Z"/>
  <path d="M777.208 70.667 L777.208 50.667 L780.130 50.667 L780.130 53.651 Q781.255 51.823 782.201 51.245 Q783.146 50.667 784.286 50.667 Q785.927 50.667 787.630 51.292 L786.505 54.307 Q785.318 53.667 784.130 53.667 Q783.068 53.667 782.216 54.339 Q781.365 55.010 781.005 56.198 Q780.458 58.010 780.458 60.167 L780.458 70.667 L777.208 70.667 Z"/>
  <path d="M789.474 46.667 L789.474 43.667 L792.724 43.667 L792.724 46.667 L789.474 46.667 Z M789.474 70.667 L789.474 50.667 L792.724 50.667 L792.724 70.667 L789.474 70.667 Z"/>
  <path d="M810.740 64.667 L814.099 64.667 Q813.302 67.510 811.154 69.089 Q809.005 70.667 805.661 70.667 Q801.458 70.667 798.990 68.081 Q796.521 65.495 796.521 60.823 Q796.521 55.995 799.013 53.331 Q801.505 50.667 805.490 50.667 Q809.333 50.667 811.771 53.323 Q814.208 55.979 814.208 60.792 Q814.208 61.089 814.193 61.667 L799.880 61.667 Q800.068 64.573 801.669 66.120 Q803.271 67.667 805.677 67.667 Q807.474 67.667 808.740 66.948 Q810.005 66.229 810.740 64.667 Z M800.052 58.667 L810.771 58.667 Q810.552 56.464 809.536 55.370 Q807.990 53.667 805.505 53.667 Q803.271 53.667 801.740 55.026 Q800.208 56.385 800.052 58.667 Z"/>
  <path d="M816.693 63.667 L819.911 63.667 Q820.177 65.604 821.419 66.635 Q822.661 67.667 824.880 67.667 Q827.115 67.667 828.201 66.831 Q829.286 65.995 829.286 64.885 Q829.286 63.870 828.333 63.292 Q827.661 62.901 825.005 62.292 Q821.427 61.385 820.044 60.714 Q818.661 60.042 817.951 58.862 Q817.240 57.682 817.240 56.260 Q817.240 54.964 817.826 53.854 Q818.411 52.745 819.427 52.026 Q820.177 51.448 821.490 51.057 Q822.802 50.667 824.302 50.667 Q826.552 50.667 828.255 51.393 Q829.958 52.120 830.771 53.354 Q831.583 54.589 831.896 56.667 L828.724 56.667 Q828.505 55.260 827.466 54.464 Q826.427 53.667 824.536 53.667 Q822.302 53.667 821.341 54.339 Q820.380 55.010 820.380 55.917 Q820.380 56.479 820.771 56.948 Q821.177 57.417 822.021 57.729 Q822.505 57.885 824.896 58.479 Q828.349 59.417 829.716 60.003 Q831.083 60.589 831.857 61.721 Q832.630 62.854 832.630 64.542 Q832.630 66.182 831.685 67.628 Q830.740 69.073 828.951 69.870 Q827.161 70.667 824.896 70.667 Q821.161 70.667 819.201 68.901 Q817.240 67.135 816.693 63.667 Z"/>
  <path d=""/>
  <path d="M846.786 70.667 L846.786 43.667 L856.724 43.667 Q859.755 43.667 861.591 44.510 Q863.427 45.354 864.466 47.104 Q865.505 48.854 865.505 50.776 Q865.505 52.557 864.583 54.128 Q863.661 55.698 861.802 56.667 Q864.208 57.370 865.497 59.057 Q866.786 60.745 866.786 63.042 Q866.786 64.885 865.997 66.471 Q865.208 68.057 864.052 68.924 Q862.896 69.792 861.154 70.229 Q859.411 70.667 856.880 70.667 L846.786 70.667 Z M850.302 55.667 L856.036 55.667 Q858.365 55.667 859.365 55.323 Q860.708 54.870 861.380 53.831 Q862.052 52.792 862.052 51.229 Q862.052 49.760 861.419 48.628 Q860.786 47.495 859.615 47.081 Q858.443 46.667 855.583 46.667 L850.302 46.667 L850.302 55.667 Z M850.302 67.667 L856.896 67.667 Q858.599 67.667 859.271 67.542 Q860.490 67.323 861.302 66.823 Q862.115 66.323 862.638 65.370 Q863.161 64.417 863.161 63.167 Q863.161 61.698 862.404 60.620 Q861.646 59.542 860.302 59.104 Q858.958 58.667 856.427 58.667 L850.302 58.667 L850.302 67.667 Z"/>
  <path d="M695.125 71.417 C687.531 71.417 681.375 65.261 681.375 57.667 C681.375 50.073 687.531 43.917 695.125 43.917 C702.719 43.917 708.875 50.073 708.875 57.667 C708.875 65.261 702.719 71.417 695.125 71.417 Z" fill="#aa4643"/>
  <path d="M961.859 61.667 L965.172 61.667 Q965.406 63.620 966.266 64.870 Q967.125 66.120 968.930 66.893 Q970.734 67.667 973 67.667 Q975 67.667 976.539 67.081 Q978.078 66.495 978.828 65.471 Q979.578 64.448 979.578 63.229 Q979.578 61.979 978.852 61.049 Q978.125 60.120 976.453 59.495 Q975.391 59.073 971.742 58.206 Q968.094 57.339 966.625 56.573 Q964.734 55.589 963.805 54.135 Q962.875 52.682 962.875 50.870 Q962.875 48.901 964.016 47.174 Q965.156 45.448 967.344 44.557 Q969.531 43.667 972.203 43.667 Q975.141 43.667 977.391 44.628 Q979.641 45.589 980.852 47.448 Q982.062 49.307 982.156 51.667 L978.797 51.667 Q978.531 49.198 976.961 47.932 Q975.391 46.667 972.344 46.667 Q969.156 46.667 967.703 47.823 Q966.250 48.979 966.250 50.604 Q966.250 52.026 967.281 52.932 Q968.297 53.854 972.570 54.815 Q976.844 55.776 978.438 56.495 Q980.750 57.542 981.852 59.151 Q982.953 60.760 982.953 62.854 Q982.953 64.932 981.742 66.776 Q980.531 68.620 978.266 69.643 Q976 70.667 973.156 70.667 Q969.562 70.667 967.133 69.612 Q964.703 68.557 963.320 66.448 Q961.938 64.339 961.859 61.667 Z"/>
  <path d="M1000.234 64.667 L1003.594 64.667 Q1002.797 67.510 1000.648 69.089 Q998.500 70.667 995.156 70.667 Q990.953 70.667 988.484 68.081 Q986.016 65.495 986.016 60.823 Q986.016 55.995 988.508 53.331 Q991 50.667 994.984 50.667 Q998.828 50.667 1001.266 53.323 Q1003.703 55.979 1003.703 60.792 Q1003.703 61.089 1003.688 61.667 L989.375 61.667 Q989.562 64.573 991.164 66.120 Q992.766 67.667 995.172 67.667 Q996.969 67.667 998.234 66.948 Q999.500 66.229 1000.234 64.667 Z M989.547 58.667 L1000.266 58.667 Q1000.047 56.464 999.031 55.370 Q997.484 53.667 995 53.667 Q992.766 53.667 991.234 55.026 Q989.703 56.385 989.547 58.667 Z"/>
  <path d="M1007.453 70.667 L1007.453 50.667 L1010.375 50.667 L1010.375 53.651 Q1011.500 51.823 1012.445 51.245 Q1013.391 50.667 1014.531 50.667 Q1016.172 50.667 1017.875 51.292 L1016.750 54.307 Q1015.562 53.667 1014.375 53.667 Q1013.312 53.667 1012.461 54.339 Q1011.609 55.010 1011.250 56.198 Q1010.703 58.010 1010.703 60.167 L1010.703 70.667 L1007.453 70.667 Z"/>
  <path d="M1019.719 46.667 L1019.719 43.667 L1022.969 43.667 L1022.969 46.667 L1019.719 46.667 Z M1019.719 70.667 L1019.719 50.667 L1022.969 50.667 L1022.969 70.667 L1019.719 70.667 Z"/>
  <path d="M1040.984 64.667 L1044.344 64.667 Q1043.547 67.510 1041.398 69.089 Q1039.250 70.667 1035.906 70.667 Q1031.703 70.667 1029.234 68.081 Q1026.766 65.495 1026.766 60.823 Q1026.766 55.995 1029.258 53.331 Q1031.750 50.667 1035.734 50.667 Q1039.578 50.667 1042.016 53.323 Q1044.453 55.979 1044.453 60.792 Q1044.453 61.089 1044.438 61.667 L1030.125 61.667 Q1030.312 64.573 1031.914 66.120 Q1033.516 67.667 1035.922 67.667 Q1037.719 67.667 1038.984 66.948 Q1040.250 66.229 1040.984 64.667 Z M1030.297 58.667 L1041.016 58.667 Q1040.797 56.464 1039.781 55.370 Q1038.234 53.667 1035.750 53.667 Q1033.516 53.667 1031.984 55.026 Q1030.453 56.385 1030.297 58.667 Z"/>
  <path d="M1046.938 63.667 L1050.156 63.667 Q1050.422 65.604 1051.664 66.635 Q1052.906 67.667 1055.125 67.667 Q1057.359 67.667 1058.445 66.831 Q1059.531 65.995 1059.531 64.885 Q1059.531 63.870 1058.578 63.292 Q1057.906 62.901 1055.250 62.292 Q1051.672 61.385 1050.289 60.714 Q1048.906 60.042 1048.195 58.862 Q1047.484 57.682 1047.484 56.260 Q1047.484 54.964 1048.070 53.854 Q1048.656 52.745 1049.672 52.026 Q1050.422 51.448 1051.734 51.057 Q1053.047 50.667 1054.547 50.667 Q1056.797 50.667 1058.500 51.393 Q1060.203 52.120 1061.016 53.354 Q1061.828 54.589 1062.141 56.667 L1058.969 56.667 Q1058.750 55.260 1057.711 54.464 Q1056.672 53.667 1054.781 53.667 Q1052.547 53.667 1051.586 54.339 Q1050.625 55.010 1050.625 55.917 Q1050.625 56.479 1051.016 56.948 Q1051.422 57.417 1052.266 57.729 Q1052.750 57.885 1055.141 58.479 Q1058.594 59.417 1059.961 60.003 Q1061.328 60.589 1062.102 61.721 Q1062.875 62.854 1062.875 64.542 Q1062.875 66.182 1061.930 67.628 Q1060.984 69.073 1059.195 69.870 Q1057.406 70.667 1055.141 70.667 Q1051.406 70.667 1049.445 68.901 Q1047.484 67.135 1046.938 63.667 Z"/>
  <path d=""/>
  <path d="M1096.078 61.057 L1099.578 61.917 Q1098.469 66.182 1095.609 68.424 Q1092.750 70.667 1088.609 70.667 Q1084.328 70.667 1081.648 68.948 Q1078.969 67.229 1077.570 63.971 Q1076.172 60.714 1076.172 56.964 Q1076.172 52.885 1077.750 49.854 Q1079.328 46.823 1082.250 45.245 Q1085.172 43.667 1088.672 43.667 Q1092.656 43.667 1095.367 45.667 Q1098.078 47.667 1099.141 51.292 L1095.688 52.089 Q1094.766 49.260 1093.016 47.964 Q1091.266 46.667 1088.609 46.667 Q1085.547 46.667 1083.492 48.104 Q1081.438 49.542 1080.609 51.964 Q1079.781 54.385 1079.781 56.948 Q1079.781 60.276 1080.766 62.745 Q1081.750 65.214 1083.828 66.440 Q1085.906 67.667 1088.328 67.667 Q1091.266 67.667 1093.312 66.003 Q1095.359 64.339 1096.078 61.057 Z"/>
  <path d="M925.370 71.417 C917.776 71.417 911.620 65.261 911.620 57.667 C911.620 50.073 917.776 43.917 925.370 43.917 C932.964 43.917 939.120 50.073 939.120 57.667 C939.120 65.261 932.964 71.417 925.370 71.417 Z" fill="#db843d"/>
  <path d="M1194.135 61.667 L1197.448 61.667 Q1197.682 63.620 1198.542 64.870 Q1199.401 66.120 1201.206 66.893 Q1203.010 67.667 1205.276 67.667 Q1207.276 67.667 1208.815 67.081 Q1210.354 66.495 1211.104 65.471 Q1211.854 64.448 1211.854 63.229 Q1211.854 61.979 1211.128 61.049 Q1210.401 60.120 1208.729 59.495 Q1207.667 59.073 1204.018 58.206 Q1200.370 57.339 1198.901 56.573 Q1197.010 55.589 1196.081 54.135 Q1195.151 52.682 1195.151 50.870 Q1195.151 48.901 1196.292 47.174 Q1197.432 45.448 1199.620 44.557 Q1201.807 43.667 1204.479 43.667 Q1207.417 43.667 1209.667 44.628 Q1211.917 45.589 1213.128 47.448 Q1214.339 49.307 1214.432 51.667 L1211.073 51.667 Q1210.807 49.198 1209.237 47.932 Q1207.667 46.667 1204.620 46.667 Q1201.432 46.667 1199.979 47.823 Q1198.526 48.979 1198.526 50.604 Q1198.526 52.026 1199.557 52.932 Q1200.573 53.854 1204.846 54.815 Q1209.120 55.776 1210.714 56.495 Q1213.026 57.542 1214.128 59.151 Q1215.229 60.760 1215.229 62.854 Q1215.229 64.932 1214.018 66.776 Q1212.807 68.620 1210.542 69.643 Q1208.276 70.667 1205.432 70.667 Q1201.839 70.667 1199.409 69.612 Q1196.979 68.557 1195.596 66.448 Q1194.214 64.339 1194.135 61.667 Z"/>
  <path d="M1232.510 64.667 L1235.870 64.667 Q1235.073 67.510 1232.924 69.089 Q1230.776 70.667 1227.432 70.667 Q1223.229 70.667 1220.760 68.081 Q1218.292 65.495 1218.292 60.823 Q1218.292 55.995 1220.784 53.331 Q1223.276 50.667 1227.260 50.667 Q1231.104 50.667 1233.542 53.323 Q1235.979 55.979 1235.979 60.792 Q1235.979 61.089 1235.964 61.667 L1221.651 61.667 Q1221.839 64.573 1223.440 66.120 Q1225.042 67.667 1227.448 67.667 Q1229.245 67.667 1230.510 66.948 Q1231.776 66.229 1232.510 64.667 Z M1221.823 58.667 L1232.542 58.667 Q1232.323 56.464 1231.307 55.370 Q1229.760 53.667 1227.276 53.667 Q1225.042 53.667 1223.510 55.026 Q1221.979 56.385 1221.823 58.667 Z"/>
  <path d="M1239.729 70.667 L1239.729 50.667 L1242.651 50.667 L1242.651 53.651 Q1243.776 51.823 1244.721 51.245 Q1245.667 50.667 1246.807 50.667 Q1248.448 50.667 1250.151 51.292 L1249.026 54.307 Q1247.839 53.667 1246.651 53.667 Q1245.589 53.667 1244.737 54.339 Q1243.885 55.010 1243.526 56.198 Q1242.979 58.010 1242.979 60.167 L1242.979 70.667 L1239.729 70.667 Z"/>
  <path d="M1251.995 46.667 L1251.995 43.667 L1255.245 43.667 L1255.245 46.667 L1251.995 46.667 Z M1251.995 70.667 L1251.995 50.667 L1255.245 50.667 L1255.245 70.667 L1251.995 70.667 Z"/>
  <path d="M1273.260 64.667 L1276.620 64.667 Q1275.823 67.510 1273.674 69.089 Q1271.526 70.667 1268.182 70.667 Q1263.979 70.667 1261.510 68.081 Q1259.042 65.495 1259.042 60.823 Q1259.042 55.995 1261.534 53.331 Q1264.026 50.667 1268.010 50.667 Q1271.854 50.667 1274.292 53.323 Q1276.729 55.979 1276.729 60.792 Q1276.729 61.089 1276.714 61.667 L1262.401 61.667 Q1262.589 64.573 1264.190 66.120 Q1265.792 67.667 1268.198 67.667 Q1269.995 67.667 1271.260 66.948 Q1272.526 66.229 1273.260 64.667 Z M1262.573 58.667 L1273.292 58.667 Q1273.073 56.464 1272.057 55.370 Q1270.510 53.667 1268.026 53.667 Q1265.792 53.667 1264.260 55.026 Q1262.729 56.385 1262.573 58.667 Z"/>
  <path d="M1279.214 63.667 L1282.432 63.667 Q1282.698 65.604 1283.940 66.635 Q1285.182 67.667 1287.401 67.667 Q1289.635 67.667 1290.721 66.831 Q1291.807 65.995 1291.807 64.885 Q1291.807 63.870 1290.854 63.292 Q1290.182 62.901 1287.526 62.292 Q1283.948 61.385 1282.565 60.714 Q1281.182 60.042 1280.471 58.862 Q1279.760 57.682 1279.760 56.260 Q1279.760 54.964 1280.346 53.854 Q1280.932 52.745 1281.948 52.026 Q1282.698 51.448 1284.010 51.057 Q1285.323 50.667 1286.823 50.667 Q1289.073 50.667 1290.776 51.393 Q1292.479 52.120 1293.292 53.354 Q1294.104 54.589 1294.417 56.667 L1291.245 56.667 Q1291.026 55.260 1289.987 54.464 Q1288.948 53.667 1287.057 53.667 Q1284.823 53.667 1283.862 54.339 Q1282.901 55.010 1282.901 55.917 Q1282.901 56.479 1283.292 56.948 Q1283.698 57.417 1284.542 57.729 Q1285.026 57.885 1287.417 58.479 Q1290.870 59.417 1292.237 60.003 Q1293.604 60.589 1294.378 61.721 Q1295.151 62.854 1295.151 64.542 Q1295.151 66.182 1294.206 67.628 Q1293.260 69.073 1291.471 69.870 Q1289.682 70.667 1287.417 70.667 Q1283.682 70.667 1281.721 68.901 Q1279.760 67.135 1279.214 63.667 Z"/>
  <path d=""/>
  <path d="M1309.464 70.667 L1309.464 43.667 L1318.589 43.667 Q1321.667 43.667 1323.292 44.057 Q1325.573 44.589 1327.182 45.995 Q1329.276 47.792 1330.315 50.604 Q1331.354 53.417 1331.354 57.026 Q1331.354 60.089 1330.651 62.471 Q1329.948 64.854 1328.846 66.409 Q1327.745 67.964 1326.432 68.854 Q1325.120 69.745 1323.268 70.206 Q1321.417 70.667 1319.010 70.667 L1309.464 70.667 Z M1312.964 67.667 L1318.620 67.667 Q1321.245 67.667 1322.729 67.159 Q1324.214 66.651 1325.104 65.729 Q1326.354 64.448 1327.049 62.260 Q1327.745 60.073 1327.745 56.964 Q1327.745 52.651 1326.378 50.331 Q1325.010 48.010 1323.057 47.229 Q1321.651 46.667 1318.526 46.667 L1312.964 46.667 L1312.964 67.667 Z"/>
  <path d="M1157.646 71.417 C1150.052 71.417 1143.896 65.261 1143.896 57.667 C1143.896 50.073 1150.052 43.917 1157.646 43.917 C1165.240 43.917 1171.396 50.073 1171.396 57.667 C1171.396 65.261 1165.240 71.417 1157.646 71.417 Z" fill="#89a54e"/>
  <path d="M1426.411 61.667 L1429.724 61.667 Q1429.958 63.620 1430.818 64.870 Q1431.677 66.120 1433.482 66.893 Q1435.286 67.667 1437.552 67.667 Q1439.552 67.667 1441.091 67.081 Q1442.630 66.495 1443.380 65.471 Q1444.130 64.448 1444.130 63.229 Q1444.130 61.979 1443.404 61.049 Q1442.677 60.120 1441.005 59.495 Q1439.943 59.073 1436.294 58.206 Q1432.646 57.339 1431.177 56.573 Q1429.286 55.589 1428.357 54.135 Q1427.427 52.682 1427.427 50.870 Q1427.427 48.901 1428.568 47.174 Q1429.708 45.448 1431.896 44.557 Q1434.083 43.667 1436.755 43.667 Q1439.693 43.667 1441.943 44.628 Q1444.193 45.589 1445.404 47.448 Q1446.615 49.307 1446.708 51.667 L1443.349 51.667 Q1443.083 49.198 1441.513 47.932 Q1439.943 46.667 1436.896 46.667 Q1433.708 46.667 1432.255 47.823 Q1430.802 48.979 1430.802 50.604 Q1430.802 52.026 1431.833 52.932 Q1432.849 53.854 1437.122 54.815 Q1441.396 55.776 1442.990 56.495 Q1445.302 57.542 1446.404 59.151 Q1447.505 60.760 1447.505 62.854 Q1447.505 64.932 1446.294 66.776 Q1445.083 68.620 1442.818 69.643 Q1440.552 70.667 1437.708 70.667 Q1434.115 70.667 1431.685 69.612 Q1429.255 68.557 1427.872 66.448 Q1426.490 64.339 1426.411 61.667 Z"/>
  <path d="M1464.786 64.667 L1468.146 64.667 Q1467.349 67.510 1465.201 69.089 Q1463.052 70.667 1459.708 70.667 Q1455.505 70.667 1453.036 68.081 Q1450.568 65.495 1450.568 60.823 Q1450.568 55.995 1453.060 53.331 Q1455.552 50.667 1459.536 50.667 Q1463.380 50.667 1465.818 53.323 Q1468.255 55.979 1468.255 60.792 Q1468.255 61.089 1468.240 61.667 L1453.927 61.667 Q1454.115 64.573 1455.716 66.120 Q1457.318 67.667 1459.724 67.667 Q1461.521 67.667 1462.786 66.948 Q1464.052 66.229 1464.786 64.667 Z M1454.099 58.667 L1464.818 58.667 Q1464.599 56.464 1463.583 55.370 Q1462.036 53.667 1459.552 53.667 Q1457.318 53.667 1455.786 55.026 Q1454.255 56.385 1454.099 58.667 Z"/>
  <path d="M1472.005 70.667 L1472.005 50.667 L1474.927 50.667 L1474.927 53.651 Q1476.052 51.823 1476.997 51.245 Q1477.943 50.667 1479.083 50.667 Q1480.724 50.667 1482.427 51.292 L1481.302 54.307 Q1480.115 53.667 1478.927 53.667 Q1477.865 53.667 1477.013 54.339 Q1476.161 55.010 1475.802 56.198 Q1475.255 58.010 1475.255 60.167 L1475.255 70.667 L1472.005 70.667 Z"/>
  <path d="M1484.271 46.667 L1484.271 43.667 L1487.521 43.667 L1487.521 46.667 L1484.271 46.667 Z M1484.271 70.667 L1484.271 50.667 L1487.521 50.667 L1487.521 70.667 L1484.271 70.667 Z"/>
  <path d="M1505.536 64.667 L1508.896 64.667 Q1508.099 67.510 1505.951 69.089 Q1503.802 70.667 1500.458 70.667 Q1496.255 70.667 1493.786 68.081 Q1491.318 65.495 1491.318 60.823 Q1491.318 55.995 1493.810 53.331 Q1496.302 50.667 1500.286 50.667 Q1504.130 50.667 1506.568 53.323 Q1509.005 55.979 1509.005 60.792 Q1509.005 61.089 1508.990 61.667 L1494.677 61.667 Q1494.865 64.573 1496.466 66.120 Q1498.068 67.667 1500.474 67.667 Q1502.271 67.667 1503.536 66.948 Q1504.802 66.229 1505.536 64.667 Z M1494.849 58.667 L1505.568 58.667 Q1505.349 56.464 1504.333 55.370 Q1502.786 53.667 1500.302 53.667 Q1498.068 53.667 1496.536 55.026 Q1495.005 56.385 1494.849 58.667 Z"/>
  <path d="M1511.490 63.667 L1514.708 63.667 Q1514.974 65.604 1516.216 66.635 Q1517.458 67.667 1519.677 67.667 Q1521.911 67.667 1522.997 66.831 Q1524.083 65.995 1524.083 64.885 Q1524.083 63.870 1523.130 63.292 Q1522.458 62.901 1519.802 62.292 Q1516.224 61.385 1514.841 60.714 Q1513.458 60.042 1512.747 58.862 Q1512.036 57.682 1512.036 56.260 Q1512.036 54.964 1512.622 53.854 Q1513.208 52.745 1514.224 52.026 Q1514.974 51.448 1516.286 51.057 Q1517.599 50.667 1519.099 50.667 Q1521.349 50.667 1523.052 51.393 Q1524.755 52.120 1525.568 53.354 Q1526.380 54.589 1526.693 56.667 L1523.521 56.667 Q1523.302 55.260 1522.263 54.464 Q1521.224 53.667 1519.333 53.667 Q1517.099 53.667 1516.138 54.339 Q1515.177 55.010 1515.177 55.917 Q1515.177 56.479 1515.568 56.948 Q1515.974 57.417 1516.818 57.729 Q1517.302 57.885 1519.693 58.479 Q1523.146 59.417 1524.513 60.003 Q1525.880 60.589 1526.654 61.721 Q1527.427 62.854 1527.427 64.542 Q1527.427 66.182 1526.482 67.628 Q1525.536 69.073 1523.747 69.870 Q1521.958 70.667 1519.693 70.667 Q1515.958 70.667 1513.997 68.901 Q1512.036 67.135 1511.490 63.667 Z"/>
  <path d=""/>
  <path d="M1541.802 70.667 L1541.802 43.667 L1560.958 43.667 L1560.958 46.667 L1545.318 46.667 L1545.318 55.667 L1559.958 55.667 L1559.958 58.667 L1545.318 58.667 L1545.318 67.667 L1561.568 67.667 L1561.568 70.667 L1541.802 70.667 Z"/>
  <path d="M1389.922 71.417 C1382.328 71.417 1376.172 65.261 1376.172 57.667 C1376.172 50.073 1382.328 43.917 1389.922 43.917 C1397.516 43.917 1403.672 50.073 1403.672 57.667 C1403.672 65.261 1397.516 71.417 1389.922 71.417 Z" fill="#80699b"/>
</svg>
