<?xml version="1.0" encoding="UTF-8" ?>
<!-- Generated by clip v0.7.0 (clip-lang.org) -->
<svg xmlns="http://www.w3.org/2000/svg" width="2048.000000" height="800.000000">
  <rect width="2048.000000" height="800.000000" fill="#ffffff" fill-opacity="1.000000"/>
  <path d="M36.6667 692 L2011.33 692 " fill="none" stroke-width="3.333333" stroke="#000000ff"/>
  <path d="M83.6825 692 L83.6825 678.667 " fill="none" stroke-width="3.333333" stroke="#000000ff"/>
  <path d="M271.746 692 L271.746 678.667 " fill="none" stroke-width="3.333333" stroke="#000000ff"/>
  <path d="M459.81 692 L459.81 678.667 " fill="none" stroke-width="3.333333" stroke="#000000ff"/>
  <path d="M647.873 692 L647.873 678.667 " fill="none" stroke-width="3.333333" stroke="#000000ff"/>
  <path d="M835.937 692 L835.937 678.667 " fill="none" stroke-width="3.333333" stroke="#000000ff"/>
  <path d="M1024 692 L1024 678.667 " fill="none" stroke-width="3.333333" stroke="#000000ff"/>
  <path d="M1212.06 692 L1212.06 678.667 " fill="none" stroke-width="3.333333" stroke="#000000ff"/>
  <path d="M1400.13 692 L1400.13 678.667 " fill="none" stroke-width="3.333333" stroke="#000000ff"/>
  <path d="M1588.19 692 L1588.19 678.667 " fill="none" stroke-width="3.333333" stroke="#000000ff"/>
  <path d="M1776.25 692 L1776.25 678.667 " fill="none" stroke-width="3.333333" stroke="#000000ff"/>
  <path d="M1964.32 692 L1964.32 678.667 " fill="none" stroke-width="3.333333" stroke="#000000ff"/>
  <path d="M59.7294 741.849 Q59.7294 737.146 60.6982 734.294 Q61.6669 731.443 63.5732 729.888 Q65.4794 728.333 68.37 728.333 Q70.5107 728.333 72.1122 729.193 Q73.7138 730.052 74.7685 731.661 Q75.8232 733.271 76.4169 735.591 Q77.0107 737.911 77.0107 741.849 Q77.0107 746.49 76.0497 749.349 Q75.0888 752.208 73.1825 753.771 Q71.2763 755.333 68.37 755.333 Q64.5419 755.333 62.3544 752.599 Q59.7294 749.286 59.7294 741.849 ZM63.0732 741.833 Q63.0732 748.146 64.6044 750.24 Q66.1357 752.333 68.37 752.333 Q70.6044 752.333 72.1357 750.232 Q73.6669 748.13 73.6669 741.833 Q73.6669 735.505 72.1357 733.419 Q70.6044 731.333 68.3388 731.333 Q66.0888 731.333 64.7607 733.177 Q63.0732 735.521 63.0732 741.833 Z" fill="#000000" fill-opacity="1.000000"/>
  <path d="M81.9482 755.333 L81.9482 752.333 L85.6513 752.333 L85.6513 755.333 L81.9482 755.333 Z" fill="#000000" fill-opacity="1.000000"/>
  <path d="M90.3075 741.849 Q90.3075 737.146 91.2763 734.294 Q92.245 731.443 94.1513 729.888 Q96.0575 728.333 98.9482 728.333 Q101.089 728.333 102.69 729.193 Q104.292 730.052 105.347 731.661 Q106.401 733.271 106.995 735.591 Q107.589 737.911 107.589 741.849 Q107.589 746.49 106.628 749.349 Q105.667 752.208 103.761 753.771 Q101.854 755.333 98.9482 755.333 Q95.12 755.333 92.9325 752.599 Q90.3075 749.286 90.3075 741.849 ZM93.6513 741.833 Q93.6513 748.146 95.1825 750.24 Q96.7138 752.333 98.9482 752.333 Q101.183 752.333 102.714 750.232 Q104.245 748.13 104.245 741.833 Q104.245 735.505 102.714 733.419 Q101.183 731.333 98.9169 731.333 Q96.6669 731.333 95.3388 733.177 Q93.6513 735.521 93.6513 741.833 Z" fill="#000000" fill-opacity="1.000000"/>
  <path d="M247.793 741.849 Q247.793 737.146 248.762 734.294 Q249.73 731.443 251.637 729.888 Q253.543 728.333 256.434 728.333 Q258.574 728.333 260.176 729.193 Q261.777 730.052 262.832 731.661 Q263.887 733.271 264.48 735.591 Q265.074 737.911 265.074 741.849 Q265.074 746.49 264.113 749.349 Q263.152 752.208 261.246 753.771 Q259.34 755.333 256.434 755.333 Q252.605 755.333 250.418 752.599 Q247.793 749.286 247.793 741.849 ZM251.137 741.833 Q251.137 748.146 252.668 750.24 Q254.199 752.333 256.434 752.333 Q258.668 752.333 260.199 750.232 Q261.73 748.13 261.73 741.833 Q261.73 735.505 260.199 733.419 Q258.668 731.333 256.402 731.333 Q254.152 731.333 252.824 733.177 Q251.137 735.521 251.137 741.833 Z" fill="#000000" fill-opacity="1.000000"/>
  <path d="M270.012 755.333 L270.012 752.333 L273.715 752.333 L273.715 755.333 L270.012 755.333 Z" fill="#000000" fill-opacity="1.000000"/>
  <path d="M295.465 752.333 L295.465 755.333 L277.965 755.333 Q277.918 754.208 278.34 753.161 Q279.012 751.443 280.48 749.779 Q281.949 748.115 284.73 745.74 Q289.059 742.052 290.574 739.951 Q292.09 737.849 292.09 735.99 Q292.09 734.021 290.707 732.677 Q289.324 731.333 287.105 731.333 Q284.762 731.333 283.348 732.396 Q281.934 733.458 281.918 735.333 L278.574 735.333 Q278.918 731.911 281.16 730.122 Q283.402 728.333 287.168 728.333 Q290.996 728.333 293.215 730.505 Q295.434 732.677 295.434 735.896 Q295.434 737.536 294.785 739.115 Q294.137 740.693 292.621 742.443 Q291.105 744.193 287.605 747.177 Q284.684 749.661 283.855 750.552 Q283.027 751.443 282.48 752.333 L295.465 752.333 Z" fill="#000000" fill-opacity="1.000000"/>
  <path d="M435.856 741.849 Q435.856 737.146 436.825 734.294 Q437.794 731.443 439.7 729.888 Q441.606 728.333 444.497 728.333 Q446.638 728.333 448.239 729.193 Q449.841 730.052 450.895 731.661 Q451.95 733.271 452.544 735.591 Q453.138 737.911 453.138 741.849 Q453.138 746.49 452.177 749.349 Q451.216 752.208 449.31 753.771 Q447.403 755.333 444.497 755.333 Q440.669 755.333 438.481 752.599 Q435.856 749.286 435.856 741.849 ZM439.2 741.833 Q439.2 748.146 440.731 750.24 Q442.263 752.333 444.497 752.333 Q446.731 752.333 448.263 750.232 Q449.794 748.13 449.794 741.833 Q449.794 735.505 448.263 733.419 Q446.731 731.333 444.466 731.333 Q442.216 731.333 440.888 733.177 Q439.2 735.521 439.2 741.833 Z" fill="#000000" fill-opacity="1.000000"/>
  <path d="M458.075 755.333 L458.075 752.333 L461.778 752.333 L461.778 755.333 L458.075 755.333 Z" fill="#000000" fill-opacity="1.000000"/>
  <path d="M476.856 755.333 L476.856 749.333 L465.372 749.333 L465.372 746.333 L477.466 728.333 L480.122 728.333 L480.122 746.333 L483.7 746.333 L483.7 749.333 L480.122 749.333 L480.122 755.333 L476.856 755.333 ZM476.856 746.333 L476.856 734.005 L468.575 746.333 L476.856 746.333 Z" fill="#000000" fill-opacity="1.000000"/>
  <path d="M623.92 741.849 Q623.92 737.146 624.889 734.294 Q625.857 731.443 627.764 729.888 Q629.67 728.333 632.561 728.333 Q634.701 728.333 636.303 729.193 Q637.904 730.052 638.959 731.661 Q640.014 733.271 640.607 735.591 Q641.201 737.911 641.201 741.849 Q641.201 746.49 640.24 749.349 Q639.279 752.208 637.373 753.771 Q635.467 755.333 632.561 755.333 Q628.732 755.333 626.545 752.599 Q623.92 749.286 623.92 741.849 ZM627.264 741.833 Q627.264 748.146 628.795 750.24 Q630.326 752.333 632.561 752.333 Q634.795 752.333 636.326 750.232 Q637.857 748.13 637.857 741.833 Q637.857 735.505 636.326 733.419 Q634.795 731.333 632.529 731.333 Q630.279 731.333 628.951 733.177 Q627.264 735.521 627.264 741.833 Z" fill="#000000" fill-opacity="1.000000"/>
  <path d="M646.139 755.333 L646.139 752.333 L649.842 752.333 L649.842 755.333 L646.139 755.333 Z" fill="#000000" fill-opacity="1.000000"/>
  <path d="M671.373 735.333 L668.139 735.333 Q667.701 733.505 666.904 732.661 Q665.592 731.333 663.654 731.333 Q662.107 731.333 660.936 732.099 Q659.404 733.099 658.514 735.013 Q657.623 736.927 657.592 740.865 Q658.764 739.068 660.459 738.201 Q662.154 737.333 664.029 737.333 Q667.279 737.333 669.561 739.779 Q671.842 742.224 671.842 746.099 Q671.842 748.646 670.764 750.826 Q669.686 753.005 667.811 754.169 Q665.936 755.333 663.545 755.333 Q659.482 755.333 656.92 752.349 Q654.357 749.365 654.357 742.505 Q654.357 734.849 657.201 731.365 Q659.67 728.333 663.857 728.333 Q666.982 728.333 668.982 730.193 Q670.982 732.052 671.373 735.333 ZM658.092 746.021 Q658.092 747.693 658.803 749.216 Q659.514 750.74 660.803 751.536 Q662.092 752.333 663.498 752.333 Q665.561 752.333 667.045 750.685 Q668.529 749.036 668.529 746.193 Q668.529 743.474 667.061 741.904 Q665.592 740.333 663.373 740.333 Q661.17 740.333 659.631 741.904 Q658.092 743.474 658.092 746.021 Z" fill="#000000" fill-opacity="1.000000"/>
  <path d="M811.983 741.849 Q811.983 737.146 812.952 734.294 Q813.921 731.443 815.827 729.888 Q817.733 728.333 820.624 728.333 Q822.765 728.333 824.366 729.193 Q825.968 730.052 827.022 731.661 Q828.077 733.271 828.671 735.591 Q829.265 737.911 829.265 741.849 Q829.265 746.49 828.304 749.349 Q827.343 752.208 825.437 753.771 Q823.53 755.333 820.624 755.333 Q816.796 755.333 814.608 752.599 Q811.983 749.286 811.983 741.849 ZM815.327 741.833 Q815.327 748.146 816.858 750.24 Q818.39 752.333 820.624 752.333 Q822.858 752.333 824.39 750.232 Q825.921 748.13 825.921 741.833 Q825.921 735.505 824.39 733.419 Q822.858 731.333 820.593 731.333 Q818.343 731.333 817.015 733.177 Q815.327 735.521 815.327 741.833 Z" fill="#000000" fill-opacity="1.000000"/>
  <path d="M834.202 755.333 L834.202 752.333 L837.905 752.333 L837.905 755.333 L834.202 755.333 Z" fill="#000000" fill-opacity="1.000000"/>
  <path d="M847.577 740.74 Q845.546 739.99 844.569 738.599 Q843.593 737.208 843.593 735.255 Q843.593 732.333 845.671 730.333 Q847.749 728.333 851.202 728.333 Q854.671 728.333 856.788 730.38 Q858.905 732.427 858.905 735.349 Q858.905 737.224 857.937 738.607 Q856.968 739.99 854.999 740.74 Q857.437 741.521 858.71 743.263 Q859.983 745.005 859.983 747.427 Q859.983 750.771 857.577 753.052 Q855.171 755.333 851.249 755.333 Q847.343 755.333 844.937 753.044 Q842.53 750.755 842.53 747.349 Q842.53 744.802 843.843 743.083 Q845.155 741.365 847.577 740.74 ZM846.921 735.224 Q846.921 737.036 848.132 738.185 Q849.343 739.333 851.28 739.333 Q853.155 739.333 854.358 738.193 Q855.562 737.052 855.562 735.396 Q855.562 733.677 854.327 732.505 Q853.093 731.333 851.249 731.333 Q849.374 731.333 848.147 732.482 Q846.921 733.63 846.921 735.224 ZM845.874 747.286 Q845.874 748.583 846.53 749.794 Q847.187 751.005 848.491 751.669 Q849.796 752.333 851.296 752.333 Q853.624 752.333 855.14 750.935 Q856.655 749.536 856.655 747.38 Q856.655 745.193 855.093 743.763 Q853.53 742.333 851.187 742.333 Q848.89 742.333 847.382 743.747 Q845.874 745.161 845.874 747.286 Z" fill="#000000" fill-opacity="1.000000"/>
  <path d="M1012.3 755.333 L1009.05 755.333 L1009.05 734.302 Q1007.88 735.443 1005.97 736.576 Q1004.06 737.708 1002.55 738.271 L1002.55 735.083 Q1005.28 733.786 1007.32 731.935 Q1009.36 730.083 1010.2 728.333 L1012.3 728.333 L1012.3 755.333 Z" fill="#000000" fill-opacity="1.000000"/>
  <path d="M1022.27 755.333 L1022.27 752.333 L1025.97 752.333 L1025.97 755.333 L1022.27 755.333 Z" fill="#000000" fill-opacity="1.000000"/>
  <path d="M1030.63 741.849 Q1030.63 737.146 1031.59 734.294 Q1032.56 731.443 1034.47 729.888 Q1036.38 728.333 1039.27 728.333 Q1041.41 728.333 1043.01 729.193 Q1044.61 730.052 1045.66 731.661 Q1046.72 733.271 1047.31 735.591 Q1047.91 737.911 1047.91 741.849 Q1047.91 746.49 1046.95 749.349 Q1045.98 752.208 1044.08 753.771 Q1042.17 755.333 1039.27 755.333 Q1035.44 755.333 1033.25 752.599 Q1030.63 749.286 1030.63 741.849 ZM1033.97 741.833 Q1033.97 748.146 1035.5 750.24 Q1037.03 752.333 1039.27 752.333 Q1041.5 752.333 1043.03 750.232 Q1044.56 748.13 1044.56 741.833 Q1044.56 735.505 1043.03 733.419 Q1041.5 731.333 1039.23 731.333 Q1036.98 731.333 1035.66 733.177 Q1033.97 735.521 1033.97 741.833 Z" fill="#000000" fill-opacity="1.000000"/>
  <path d="M1200.36 755.333 L1197.11 755.333 L1197.11 734.302 Q1195.94 735.443 1194.03 736.576 Q1192.13 737.708 1190.61 738.271 L1190.61 735.083 Q1193.34 733.786 1195.38 731.935 Q1197.42 730.083 1198.27 728.333 L1200.36 728.333 L1200.36 755.333 Z" fill="#000000" fill-opacity="1.000000"/>
  <path d="M1210.33 755.333 L1210.33 752.333 L1214.03 752.333 L1214.03 755.333 L1210.33 755.333 Z" fill="#000000" fill-opacity="1.000000"/>
  <path d="M1235.78 752.333 L1235.78 755.333 L1218.28 755.333 Q1218.24 754.208 1218.66 753.161 Q1219.33 751.443 1220.8 749.779 Q1222.27 748.115 1225.05 745.74 Q1229.38 742.052 1230.89 739.951 Q1232.41 737.849 1232.41 735.99 Q1232.41 734.021 1231.02 732.677 Q1229.64 731.333 1227.42 731.333 Q1225.08 731.333 1223.67 732.396 Q1222.25 733.458 1222.24 735.333 L1218.89 735.333 Q1219.24 731.911 1221.48 730.122 Q1223.72 728.333 1227.49 728.333 Q1231.31 728.333 1233.53 730.505 Q1235.75 732.677 1235.75 735.896 Q1235.75 737.536 1235.1 739.115 Q1234.45 740.693 1232.94 742.443 Q1231.42 744.193 1227.92 747.177 Q1225 749.661 1224.17 750.552 Q1223.34 751.443 1222.8 752.333 L1235.78 752.333 Z" fill="#000000" fill-opacity="1.000000"/>
  <path d="M1388.42 755.333 L1385.17 755.333 L1385.17 734.302 Q1384 735.443 1382.1 736.576 Q1380.19 737.708 1378.67 738.271 L1378.67 735.083 Q1381.41 733.786 1383.45 731.935 Q1385.49 730.083 1386.33 728.333 L1388.42 728.333 L1388.42 755.333 Z" fill="#000000" fill-opacity="1.000000"/>
  <path d="M1398.39 755.333 L1398.39 752.333 L1402.1 752.333 L1402.1 755.333 L1398.39 755.333 Z" fill="#000000" fill-opacity="1.000000"/>
  <path d="M1417.17 755.333 L1417.17 749.333 L1405.69 749.333 L1405.69 746.333 L1417.78 728.333 L1420.44 728.333 L1420.44 746.333 L1424.02 746.333 L1424.02 749.333 L1420.44 749.333 L1420.44 755.333 L1417.17 755.333 ZM1417.17 746.333 L1417.17 734.005 L1408.89 746.333 L1417.17 746.333 Z" fill="#000000" fill-opacity="1.000000"/>
  <path d="M1576.49 755.333 L1573.24 755.333 L1573.24 734.302 Q1572.07 735.443 1570.16 736.576 Q1568.25 737.708 1566.74 738.271 L1566.74 735.083 Q1569.47 733.786 1571.51 731.935 Q1573.55 730.083 1574.39 728.333 L1576.49 728.333 L1576.49 755.333 Z" fill="#000000" fill-opacity="1.000000"/>
  <path d="M1586.46 755.333 L1586.46 752.333 L1590.16 752.333 L1590.16 755.333 L1586.46 755.333 Z" fill="#000000" fill-opacity="1.000000"/>
  <path d="M1611.69 735.333 L1608.46 735.333 Q1608.02 733.505 1607.22 732.661 Q1605.91 731.333 1603.97 731.333 Q1602.42 731.333 1601.25 732.099 Q1599.72 733.099 1598.83 735.013 Q1597.94 736.927 1597.91 740.865 Q1599.08 739.068 1600.78 738.201 Q1602.47 737.333 1604.35 737.333 Q1607.6 737.333 1609.88 739.779 Q1612.16 742.224 1612.16 746.099 Q1612.16 748.646 1611.08 750.826 Q1610 753.005 1608.13 754.169 Q1606.25 755.333 1603.86 755.333 Q1599.8 755.333 1597.24 752.349 Q1594.67 749.365 1594.67 742.505 Q1594.67 734.849 1597.52 731.365 Q1599.99 728.333 1604.17 728.333 Q1607.3 728.333 1609.3 730.193 Q1611.3 732.052 1611.69 735.333 ZM1598.41 746.021 Q1598.41 747.693 1599.12 749.216 Q1599.83 750.74 1601.12 751.536 Q1602.41 752.333 1603.82 752.333 Q1605.88 752.333 1607.36 750.685 Q1608.85 749.036 1608.85 746.193 Q1608.85 743.474 1607.38 741.904 Q1605.91 740.333 1603.69 740.333 Q1601.49 740.333 1599.95 741.904 Q1598.41 743.474 1598.41 746.021 Z" fill="#000000" fill-opacity="1.000000"/>
  <path d="M1764.55 755.333 L1761.3 755.333 L1761.3 734.302 Q1760.13 735.443 1758.22 736.576 Q1756.32 737.708 1754.8 738.271 L1754.8 735.083 Q1757.54 733.786 1759.57 731.935 Q1761.61 730.083 1762.46 728.333 L1764.55 728.333 L1764.55 755.333 Z" fill="#000000" fill-opacity="1.000000"/>
  <path d="M1774.52 755.333 L1774.52 752.333 L1778.22 752.333 L1778.22 755.333 L1774.52 755.333 Z" fill="#000000" fill-opacity="1.000000"/>
  <path d="M1787.89 740.74 Q1785.86 739.99 1784.89 738.599 Q1783.91 737.208 1783.91 735.255 Q1783.91 732.333 1785.99 730.333 Q1788.07 728.333 1791.52 728.333 Q1794.99 728.333 1797.11 730.38 Q1799.22 732.427 1799.22 735.349 Q1799.22 737.224 1798.25 738.607 Q1797.29 739.99 1795.32 740.74 Q1797.75 741.521 1799.03 743.263 Q1800.3 745.005 1800.3 747.427 Q1800.3 750.771 1797.89 753.052 Q1795.49 755.333 1791.57 755.333 Q1787.66 755.333 1785.25 753.044 Q1782.85 750.755 1782.85 747.349 Q1782.85 744.802 1784.16 743.083 Q1785.47 741.365 1787.89 740.74 ZM1787.24 735.224 Q1787.24 737.036 1788.45 738.185 Q1789.66 739.333 1791.6 739.333 Q1793.47 739.333 1794.68 738.193 Q1795.88 737.052 1795.88 735.396 Q1795.88 733.677 1794.64 732.505 Q1793.41 731.333 1791.57 731.333 Q1789.69 731.333 1788.46 732.482 Q1787.24 733.63 1787.24 735.224 ZM1786.19 747.286 Q1786.19 748.583 1786.85 749.794 Q1787.5 751.005 1788.81 751.669 Q1790.11 752.333 1791.61 752.333 Q1793.94 752.333 1795.46 750.935 Q1796.97 749.536 1796.97 747.38 Q1796.97 745.193 1795.41 743.763 Q1793.85 742.333 1791.5 742.333 Q1789.21 742.333 1787.7 743.747 Q1786.19 745.161 1786.19 747.286 Z" fill="#000000" fill-opacity="1.000000"/>
  <path d="M1957.46 752.333 L1957.46 755.333 L1939.96 755.333 Q1939.91 754.208 1940.33 753.161 Q1941 751.443 1942.47 749.779 Q1943.94 748.115 1946.72 745.74 Q1951.05 742.052 1952.57 739.951 Q1954.08 737.849 1954.08 735.99 Q1954.08 734.021 1952.7 732.677 Q1951.32 731.333 1949.1 731.333 Q1946.75 731.333 1945.34 732.396 Q1943.93 733.458 1943.91 735.333 L1940.57 735.333 Q1940.91 731.911 1943.15 730.122 Q1945.4 728.333 1949.16 728.333 Q1952.99 728.333 1955.21 730.505 Q1957.43 732.677 1957.43 735.896 Q1957.43 737.536 1956.78 739.115 Q1956.13 740.693 1954.61 742.443 Q1953.1 744.193 1949.6 747.177 Q1946.68 749.661 1945.85 750.552 Q1945.02 751.443 1944.47 752.333 L1957.46 752.333 Z" fill="#000000" fill-opacity="1.000000"/>
  <path d="M1962.58 755.333 L1962.58 752.333 L1966.29 752.333 L1966.29 755.333 L1962.58 755.333 Z" fill="#000000" fill-opacity="1.000000"/>
  <path d="M1970.94 741.849 Q1970.94 737.146 1971.91 734.294 Q1972.88 731.443 1974.79 729.888 Q1976.69 728.333 1979.58 728.333 Q1981.72 728.333 1983.33 729.193 Q1984.93 730.052 1985.98 731.661 Q1987.04 733.271 1987.63 735.591 Q1988.22 737.911 1988.22 741.849 Q1988.22 746.49 1987.26 749.349 Q1986.3 752.208 1984.4 753.771 Q1982.49 755.333 1979.58 755.333 Q1975.75 755.333 1973.57 752.599 Q1970.94 749.286 1970.94 741.849 ZM1974.29 741.833 Q1974.29 748.146 1975.82 750.24 Q1977.35 752.333 1979.58 752.333 Q1981.82 752.333 1983.35 750.232 Q1984.88 748.13 1984.88 741.833 Q1984.88 735.505 1983.35 733.419 Q1981.82 731.333 1979.55 731.333 Q1977.3 731.333 1975.97 733.177 Q1974.29 735.521 1974.29 741.833 Z" fill="#000000" fill-opacity="1.000000"/>
  <path d="M65.3492 692 L65.3492 613.98 L102.016 613.98 L102.016 692 Z" fill="#9fc3f5" fill-opacity="1.000000"/>
  <path d="M107.141 692 L107.141 615.932 L143.807 615.932 L143.807 692 Z" fill="#9fc3f5" fill-opacity="1.000000"/>
  <path d="M148.933 692 L148.933 616.531 L185.6 616.531 L185.6 692 Z" fill="#9fc3f5" fill-opacity="1.000000"/>
  <path d="M190.725 692 L190.725 615.771 L227.391 615.771 L227.391 692 Z" fill="#9fc3f5" fill-opacity="1.000000"/>
  <path d="M232.517 692 L232.517 613.653 L269.184 613.653 L269.184 692 Z" fill="#9fc3f5" fill-opacity="1.000000"/>
  <path d="M274.308 692 L274.308 610.188 L310.975 610.188 L310.975 692 Z" fill="#9fc3f5" fill-opacity="1.000000"/>
  <path d="M316.101 692 L316.101 605.391 L352.768 605.391 L352.768 692 Z" fill="#9fc3f5" fill-opacity="1.000000"/>
  <path d="M357.892 692 L357.892 599.287 L394.559 599.287 L394.559 692 Z" fill="#9fc3f5" fill-opacity="1.000000"/>
  <path d="M399.685 692 L399.685 591.908 L436.351 591.908 L436.351 692 Z" fill="#9fc3f5" fill-opacity="1.000000"/>
  <path d="M441.476 692 L441.476 583.291 L478.143 583.291 L478.143 692 Z" fill="#9fc3f5" fill-opacity="1.000000"/>
  <path d="M483.268 692 L483.268 573.484 L519.934 573.484 L519.934 692 Z" fill="#9fc3f5" fill-opacity="1.000000"/>
  <path d="M525.06 692 L525.06 562.537 L561.727 562.537 L561.727 692 Z" fill="#9fc3f5" fill-opacity="1.000000"/>
  <path d="M566.852 692 L566.852 550.509 L603.518 550.509 L603.518 692 Z" fill="#9fc3f5" fill-opacity="1.000000"/>
  <path d="M608.644 692 L608.644 537.465 L645.311 537.465 L645.311 692 Z" fill="#9fc3f5" fill-opacity="1.000000"/>
  <path d="M650.435 692 L650.435 523.474 L687.102 523.474 L687.102 692 Z" fill="#9fc3f5" fill-opacity="1.000000"/>
  <path d="M692.228 692 L692.228 508.612 L728.894 508.612 L728.894 692 Z" fill="#9fc3f5" fill-opacity="1.000000"/>
  <path d="M734.019 692 L734.019 492.959 L770.686 492.959 L770.686 692 Z" fill="#9fc3f5" fill-opacity="1.000000"/>
  <path d="M775.812 692 L775.812 476.598 L812.478 476.598 L812.478 692 Z" fill="#9fc3f5" fill-opacity="1.000000"/>
  <path d="M817.603 692 L817.603 459.618 L854.27 459.618 L854.27 692 Z" fill="#9fc3f5" fill-opacity="1.000000"/>
  <path d="M859.395 692 L859.395 442.111 L896.061 442.111 L896.061 692 Z" fill="#9fc3f5" fill-opacity="1.000000"/>
  <path d="M901.187 692 L901.187 424.169 L937.854 424.169 L937.854 692 Z" fill="#9fc3f5" fill-opacity="1.000000"/>
  <path d="M942.979 692 L942.979 405.889 L979.645 405.889 L979.645 692 Z" fill="#9fc3f5" fill-opacity="1.000000"/>
  <path d="M984.771 692 L984.771 387.369 L1021.44 387.369 L1021.44 692 Z" fill="#9fc3f5" fill-opacity="1.000000"/>
  <path d="M1026.56 692 L1026.56 368.708 L1063.23 368.708 L1063.23 692 Z" fill="#9fc3f5" fill-opacity="1.000000"/>
  <path d="M1068.35 692 L1068.35 350.004 L1105.02 350.004 L1105.02 692 Z" fill="#9fc3f5" fill-opacity="1.000000"/>
  <path d="M1110.15 692 L1110.15 331.357 L1146.81 331.357 L1146.81 692 Z" fill="#9fc3f5" fill-opacity="1.000000"/>
  <path d="M1151.94 692 L1151.94 312.866 L1188.61 312.866 L1188.61 692 Z" fill="#9fc3f5" fill-opacity="1.000000"/>
  <path d="M1193.73 692 L1193.73 294.627 L1230.4 294.627 L1230.4 692 Z" fill="#9fc3f5" fill-opacity="1.000000"/>
  <path d="M1235.52 692 L1235.52 276.735 L1272.19 276.735 L1272.19 692 Z" fill="#9fc3f5" fill-opacity="1.000000"/>
  <path d="M1277.31 692 L1277.31 259.285 L1313.98 259.285 L1313.98 692 Z" fill="#9fc3f5" fill-opacity="1.000000"/>
  <path d="M1319.11 692 L1319.11 242.367 L1355.77 242.367 L1355.77 692 Z" fill="#9fc3f5" fill-opacity="1.000000"/>
  <path d="M1360.9 692 L1360.9 226.066 L1397.56 226.066 L1397.56 692 Z" fill="#9fc3f5" fill-opacity="1.000000"/>
  <path d="M1402.69 692 L1402.69 210.467 L1439.36 210.467 L1439.36 692 Z" fill="#9fc3f5" fill-opacity="1.000000"/>
  <path d="M1444.48 692 L1444.48 195.647 L1481.15 195.647 L1481.15 692 Z" fill="#9fc3f5" fill-opacity="1.000000"/>
  <path d="M1486.27 692 L1486.27 181.682 L1522.94 181.682 L1522.94 692 Z" fill="#9fc3f5" fill-opacity="1.000000"/>
  <path d="M1528.07 692 L1528.07 168.64 L1564.73 168.64 L1564.73 692 Z" fill="#9fc3f5" fill-opacity="1.000000"/>
  <path d="M1569.86 692 L1569.86 156.585 L1606.52 156.585 L1606.52 692 Z" fill="#9fc3f5" fill-opacity="1.000000"/>
  <path d="M1611.65 692 L1611.65 145.574 L1648.32 145.574 L1648.32 692 Z" fill="#9fc3f5" fill-opacity="1.000000"/>
  <path d="M1653.44 692 L1653.44 135.659 L1690.11 135.659 L1690.11 692 Z" fill="#9fc3f5" fill-opacity="1.000000"/>
  <path d="M1695.23 692 L1695.23 126.886 L1731.9 126.886 L1731.9 692 Z" fill="#9fc3f5" fill-opacity="1.000000"/>
  <path d="M1737.02 692 L1737.02 119.293 L1773.69 119.293 L1773.69 692 Z" fill="#9fc3f5" fill-opacity="1.000000"/>
  <path d="M1778.82 692 L1778.82 112.912 L1815.48 112.912 L1815.48 692 Z" fill="#9fc3f5" fill-opacity="1.000000"/>
  <path d="M1820.61 692 L1820.61 107.769 L1857.28 107.769 L1857.28 692 Z" fill="#9fc3f5" fill-opacity="1.000000"/>
  <path d="M1862.4 692 L1862.4 103.883 L1899.07 103.883 L1899.07 692 Z" fill="#9fc3f5" fill-opacity="1.000000"/>
  <path d="M1904.19 692 L1904.19 101.263 L1940.86 101.263 L1940.86 692 Z" fill="#9fc3f5" fill-opacity="1.000000"/>
  <path d="M1945.98 692 L1945.98 99.9164 L1982.65 99.9164 L1982.65 692 Z" fill="#9fc3f5" fill-opacity="1.000000"/>
  <path d="M65.3492 692 L65.3492 639.497 L102.016 639.497 L102.016 692 Z" fill="#88ade0" fill-opacity="1.000000"/>
  <path d="M107.141 692 L107.141 640.771 L143.807 640.771 L143.807 692 Z" fill="#88ade0" fill-opacity="1.000000"/>
  <path d="M148.933 692 L148.933 640.998 L185.6 640.998 L185.6 692 Z" fill="#88ade0" fill-opacity="1.000000"/>
  <path d="M190.725 692 L190.725 640.173 L227.391 640.173 L227.391 692 Z" fill="#88ade0" fill-opacity="1.000000"/>
  <path d="M232.517 692 L232.517 638.298 L269.184 638.298 L269.184 692 Z" fill="#88ade0" fill-opacity="1.000000"/>
  <path d="M274.308 692 L274.308 635.382 L310.975 635.382 L310.975 692 Z" fill="#88ade0" fill-opacity="1.000000"/>
  <path d="M316.101 692 L316.101 631.438 L352.768 631.438 L352.768 692 Z" fill="#88ade0" fill-opacity="1.000000"/>
  <path d="M357.892 692 L357.892 626.488 L394.559 626.488 L394.559 692 Z" fill="#88ade0" fill-opacity="1.000000"/>
  <path d="M399.685 692 L399.685 620.557 L436.351 620.557 L436.351 692 Z" fill="#88ade0" fill-opacity="1.000000"/>
  <path d="M441.476 692 L441.476 613.677 L478.143 613.677 L478.143 692 Z" fill="#88ade0" fill-opacity="1.000000"/>
  <path d="M483.268 692 L483.268 605.888 L519.934 605.888 L519.934 692 Z" fill="#88ade0" fill-opacity="1.000000"/>
  <path d="M525.06 692 L525.06 597.23 L561.727 597.23 L561.727 692 Z" fill="#88ade0" fill-opacity="1.000000"/>
  <path d="M566.852 692 L566.852 587.754 L603.518 587.754 L603.518 692 Z" fill="#88ade0" fill-opacity="1.000000"/>
  <path d="M608.644 692 L608.644 577.512 L645.311 577.512 L645.311 692 Z" fill="#88ade0" fill-opacity="1.000000"/>
  <path d="M650.435 692 L650.435 566.562 L687.102 566.562 L687.102 692 Z" fill="#88ade0" fill-opacity="1.000000"/>
  <path d="M692.228 692 L692.228 554.964 L728.894 554.964 L728.894 692 Z" fill="#88ade0" fill-opacity="1.000000"/>
  <path d="M734.019 692 L734.019 542.786 L770.686 542.786 L770.686 692 Z" fill="#88ade0" fill-opacity="1.000000"/>
  <path d="M775.812 692 L775.812 530.094 L812.478 530.094 L812.478 692 Z" fill="#88ade0" fill-opacity="1.000000"/>
  <path d="M817.603 692 L817.603 516.962 L854.27 516.962 L854.27 692 Z" fill="#88ade0" fill-opacity="1.000000"/>
  <path d="M859.395 692 L859.395 503.463 L896.061 503.463 L896.061 692 Z" fill="#88ade0" fill-opacity="1.000000"/>
  <path d="M901.187 692 L901.187 489.673 L937.854 489.673 L937.854 692 Z" fill="#88ade0" fill-opacity="1.000000"/>
  <path d="M942.979 692 L942.979 475.67 L979.645 475.67 L979.645 692 Z" fill="#88ade0" fill-opacity="1.000000"/>
  <path d="M984.771 692 L984.771 461.533 L1021.44 461.533 L1021.44 692 Z" fill="#88ade0" fill-opacity="1.000000"/>
  <path d="M1026.56 692 L1026.56 447.341 L1063.23 447.341 L1063.23 692 Z" fill="#88ade0" fill-opacity="1.000000"/>
  <path d="M1068.35 692 L1068.35 433.173 L1105.02 433.173 L1105.02 692 Z" fill="#88ade0" fill-opacity="1.000000"/>
  <path d="M1110.15 692 L1110.15 419.109 L1146.81 419.109 L1146.81 692 Z" fill="#88ade0" fill-opacity="1.000000"/>
  <path d="M1151.94 692 L1151.94 405.225 L1188.61 405.225 L1188.61 692 Z" fill="#88ade0" fill-opacity="1.000000"/>
  <path d="M1193.73 692 L1193.73 391.6 L1230.4 391.6 L1230.4 692 Z" fill="#88ade0" fill-opacity="1.000000"/>
  <path d="M1235.52 692 L1235.52 378.308 L1272.19 378.308 L1272.19 692 Z" fill="#88ade0" fill-opacity="1.000000"/>
  <path d="M1277.31 692 L1277.31 365.422 L1313.98 365.422 L1313.98 692 Z" fill="#88ade0" fill-opacity="1.000000"/>
  <path d="M1319.11 692 L1319.11 353.011 L1355.77 353.011 L1355.77 692 Z" fill="#88ade0" fill-opacity="1.000000"/>
  <path d="M1360.9 692 L1360.9 341.143 L1397.56 341.143 L1397.56 692 Z" fill="#88ade0" fill-opacity="1.000000"/>
  <path d="M1402.69 692 L1402.69 329.881 L1439.36 329.881 L1439.36 692 Z" fill="#88ade0" fill-opacity="1.000000"/>
  <path d="M1444.48 692 L1444.48 319.284 L1481.15 319.284 L1481.15 692 Z" fill="#88ade0" fill-opacity="1.000000"/>
  <path d="M1486.27 692 L1486.27 309.408 L1522.94 309.408 L1522.94 692 Z" fill="#88ade0" fill-opacity="1.000000"/>
  <path d="M1528.07 692 L1528.07 300.304 L1564.73 300.304 L1564.73 692 Z" fill="#88ade0" fill-opacity="1.000000"/>
  <path d="M1569.86 692 L1569.86 292.017 L1606.52 292.017 L1606.52 692 Z" fill="#88ade0" fill-opacity="1.000000"/>
  <path d="M1611.65 692 L1611.65 284.589 L1648.32 284.589 L1648.32 692 Z" fill="#88ade0" fill-opacity="1.000000"/>
  <path d="M1653.44 692 L1653.44 278.055 L1690.11 278.055 L1690.11 692 Z" fill="#88ade0" fill-opacity="1.000000"/>
  <path d="M1695.23 692 L1695.23 272.446 L1731.9 272.446 L1731.9 692 Z" fill="#88ade0" fill-opacity="1.000000"/>
  <path d="M1737.02 692 L1737.02 267.787 L1773.69 267.787 L1773.69 692 Z" fill="#88ade0" fill-opacity="1.000000"/>
  <path d="M1778.82 692 L1778.82 264.096 L1815.48 264.096 L1815.48 692 Z" fill="#88ade0" fill-opacity="1.000000"/>
  <path d="M1820.61 692 L1820.61 261.387 L1857.28 261.387 L1857.28 692 Z" fill="#88ade0" fill-opacity="1.000000"/>
  <path d="M1862.4 692 L1862.4 259.668 L1899.07 259.668 L1899.07 692 Z" fill="#88ade0" fill-opacity="1.000000"/>
  <path d="M1904.19 692 L1904.19 258.94 L1940.86 258.94 L1940.86 692 Z" fill="#88ade0" fill-opacity="1.000000"/>
  <path d="M1945.98 692 L1945.98 259.2 L1982.65 259.2 L1982.65 692 Z" fill="#88ade0" fill-opacity="1.000000"/>
  <path d="M65.3492 692 L65.3492 665.014 L102.016 665.014 L102.016 692 Z" fill="#6393c9" fill-opacity="1.000000"/>
  <path d="M107.141 692 L107.141 665.61 L143.807 665.61 L143.807 692 Z" fill="#6393c9" fill-opacity="1.000000"/>
  <path d="M148.933 692 L148.933 665.465 L185.6 665.465 L185.6 692 Z" fill="#6393c9" fill-opacity="1.000000"/>
  <path d="M190.725 692 L190.725 664.575 L227.391 664.575 L227.391 692 Z" fill="#6393c9" fill-opacity="1.000000"/>
  <path d="M232.517 692 L232.517 662.943 L269.184 662.943 L269.184 692 Z" fill="#6393c9" fill-opacity="1.000000"/>
  <path d="M274.308 692 L274.308 660.576 L310.975 660.576 L310.975 692 Z" fill="#6393c9" fill-opacity="1.000000"/>
  <path d="M316.101 692 L316.101 657.485 L352.768 657.485 L352.768 692 Z" fill="#6393c9" fill-opacity="1.000000"/>
  <path d="M357.892 692 L357.892 653.688 L394.559 653.688 L394.559 692 Z" fill="#6393c9" fill-opacity="1.000000"/>
  <path d="M399.685 692 L399.685 649.205 L436.351 649.205 L436.351 692 Z" fill="#6393c9" fill-opacity="1.000000"/>
  <path d="M441.476 692 L441.476 644.063 L478.143 644.063 L478.143 692 Z" fill="#6393c9" fill-opacity="1.000000"/>
  <path d="M483.268 692 L483.268 638.291 L519.934 638.291 L519.934 692 Z" fill="#6393c9" fill-opacity="1.000000"/>
  <path d="M525.06 692 L525.06 631.924 L561.727 631.924 L561.727 692 Z" fill="#6393c9" fill-opacity="1.000000"/>
  <path d="M566.852 692 L566.852 625 L603.518 625 L603.518 692 Z" fill="#6393c9" fill-opacity="1.000000"/>
  <path d="M608.644 692 L608.644 617.56 L645.311 617.56 L645.311 692 Z" fill="#6393c9" fill-opacity="1.000000"/>
  <path d="M650.435 692 L650.435 609.649 L687.102 609.649 L687.102 692 Z" fill="#6393c9" fill-opacity="1.000000"/>
  <path d="M692.228 692 L692.228 601.317 L728.894 601.317 L728.894 692 Z" fill="#6393c9" fill-opacity="1.000000"/>
  <path d="M734.019 692 L734.019 592.613 L770.686 592.613 L770.686 692 Z" fill="#6393c9" fill-opacity="1.000000"/>
  <path d="M775.812 692 L775.812 583.591 L812.478 583.591 L812.478 692 Z" fill="#6393c9" fill-opacity="1.000000"/>
  <path d="M817.603 692 L817.603 574.306 L854.27 574.306 L854.27 692 Z" fill="#6393c9" fill-opacity="1.000000"/>
  <path d="M859.395 692 L859.395 564.816 L896.061 564.816 L896.061 692 Z" fill="#6393c9" fill-opacity="1.000000"/>
  <path d="M901.187 692 L901.187 555.178 L937.854 555.178 L937.854 692 Z" fill="#6393c9" fill-opacity="1.000000"/>
  <path d="M942.979 692 L942.979 545.452 L979.645 545.452 L979.645 692 Z" fill="#6393c9" fill-opacity="1.000000"/>
  <path d="M984.771 692 L984.771 535.698 L1021.44 535.698 L1021.44 692 Z" fill="#6393c9" fill-opacity="1.000000"/>
  <path d="M1026.56 692 L1026.56 525.975 L1063.23 525.975 L1063.23 692 Z" fill="#6393c9" fill-opacity="1.000000"/>
  <path d="M1068.35 692 L1068.35 516.343 L1105.02 516.343 L1105.02 692 Z" fill="#6393c9" fill-opacity="1.000000"/>
  <path d="M1110.15 692 L1110.15 506.86 L1146.81 506.86 L1146.81 692 Z" fill="#6393c9" fill-opacity="1.000000"/>
  <path d="M1151.94 692 L1151.94 497.585 L1188.61 497.585 L1188.61 692 Z" fill="#6393c9" fill-opacity="1.000000"/>
  <path d="M1193.73 692 L1193.73 488.574 L1230.4 488.574 L1230.4 692 Z" fill="#6393c9" fill-opacity="1.000000"/>
  <path d="M1235.52 692 L1235.52 479.881 L1272.19 479.881 L1272.19 692 Z" fill="#6393c9" fill-opacity="1.000000"/>
  <path d="M1277.31 692 L1277.31 471.558 L1313.98 471.558 L1313.98 692 Z" fill="#6393c9" fill-opacity="1.000000"/>
  <path d="M1319.11 692 L1319.11 463.656 L1355.77 463.656 L1355.77 692 Z" fill="#6393c9" fill-opacity="1.000000"/>
  <path d="M1360.9 692 L1360.9 456.22 L1397.56 456.22 L1397.56 692 Z" fill="#6393c9" fill-opacity="1.000000"/>
  <path d="M1402.69 692 L1402.69 449.295 L1439.36 449.295 L1439.36 692 Z" fill="#6393c9" fill-opacity="1.000000"/>
  <path d="M1444.48 692 L1444.48 442.921 L1481.15 442.921 L1481.15 692 Z" fill="#6393c9" fill-opacity="1.000000"/>
  <path d="M1486.27 692 L1486.27 437.134 L1522.94 437.134 L1522.94 692 Z" fill="#6393c9" fill-opacity="1.000000"/>
  <path d="M1528.07 692 L1528.07 431.967 L1564.73 431.967 L1564.73 692 Z" fill="#6393c9" fill-opacity="1.000000"/>
  <path d="M1569.86 692 L1569.86 427.449 L1606.52 427.449 L1606.52 692 Z" fill="#6393c9" fill-opacity="1.000000"/>
  <path d="M1611.65 692 L1611.65 423.604 L1648.32 423.604 L1648.32 692 Z" fill="#6393c9" fill-opacity="1.000000"/>
  <path d="M1653.44 692 L1653.44 420.451 L1690.11 420.451 L1690.11 692 Z" fill="#6393c9" fill-opacity="1.000000"/>
  <path d="M1695.23 692 L1695.23 418.006 L1731.9 418.006 L1731.9 692 Z" fill="#6393c9" fill-opacity="1.000000"/>
  <path d="M1737.02 692 L1737.02 416.281 L1773.69 416.281 L1773.69 692 Z" fill="#6393c9" fill-opacity="1.000000"/>
  <path d="M1778.82 692 L1778.82 415.28 L1815.48 415.28 L1815.48 692 Z" fill="#6393c9" fill-opacity="1.000000"/>
  <path d="M1820.61 692 L1820.61 415.005 L1857.28 415.005 L1857.28 692 Z" fill="#6393c9" fill-opacity="1.000000"/>
  <path d="M1862.4 692 L1862.4 415.453 L1899.07 415.453 L1899.07 692 Z" fill="#6393c9" fill-opacity="1.000000"/>
  <path d="M1904.19 692 L1904.19 416.617 L1940.86 416.617 L1940.86 692 Z" fill="#6393c9" fill-opacity="1.000000"/>
  <path d="M1945.98 692 L1945.98 418.483 L1982.65 418.483 L1982.65 692 Z" fill="#6393c9" fill-opacity="1.000000"/>
  <path d="M65.3492 692 L65.3492 666.483 L102.016 666.483 L102.016 692 Z" fill="#4c7bb0" fill-opacity="1.000000"/>
  <path d="M107.141 692 L107.141 667.161 L143.807 667.161 L143.807 692 Z" fill="#4c7bb0" fill-opacity="1.000000"/>
  <path d="M148.933 692 L148.933 667.533 L185.6 667.533 L185.6 692 Z" fill="#4c7bb0" fill-opacity="1.000000"/>
  <path d="M190.725 692 L190.725 667.598 L227.391 667.598 L227.391 692 Z" fill="#4c7bb0" fill-opacity="1.000000"/>
  <path d="M232.517 692 L232.517 667.355 L269.184 667.355 L269.184 692 Z" fill="#4c7bb0" fill-opacity="1.000000"/>
  <path d="M274.308 692 L274.308 666.806 L310.975 666.806 L310.975 692 Z" fill="#4c7bb0" fill-opacity="1.000000"/>
  <path d="M316.101 692 L316.101 665.953 L352.768 665.953 L352.768 692 Z" fill="#4c7bb0" fill-opacity="1.000000"/>
  <path d="M357.892 692 L357.892 664.8 L394.559 664.8 L394.559 692 Z" fill="#4c7bb0" fill-opacity="1.000000"/>
  <path d="M399.685 692 L399.685 663.351 L436.351 663.351 L436.351 692 Z" fill="#4c7bb0" fill-opacity="1.000000"/>
  <path d="M441.476 692 L441.476 661.614 L478.143 661.614 L478.143 692 Z" fill="#4c7bb0" fill-opacity="1.000000"/>
  <path d="M483.268 692 L483.268 659.596 L519.934 659.596 L519.934 692 Z" fill="#4c7bb0" fill-opacity="1.000000"/>
  <path d="M525.06 692 L525.06 657.306 L561.727 657.306 L561.727 692 Z" fill="#4c7bb0" fill-opacity="1.000000"/>
  <path d="M566.852 692 L566.852 654.755 L603.518 654.755 L603.518 692 Z" fill="#4c7bb0" fill-opacity="1.000000"/>
  <path d="M608.644 692 L608.644 651.952 L645.311 651.952 L645.311 692 Z" fill="#4c7bb0" fill-opacity="1.000000"/>
  <path d="M650.435 692 L650.435 648.912 L687.102 648.912 L687.102 692 Z" fill="#4c7bb0" fill-opacity="1.000000"/>
  <path d="M692.228 692 L692.228 645.648 L728.894 645.648 L728.894 692 Z" fill="#4c7bb0" fill-opacity="1.000000"/>
  <path d="M734.019 692 L734.019 642.173 L770.686 642.173 L770.686 692 Z" fill="#4c7bb0" fill-opacity="1.000000"/>
  <path d="M775.812 692 L775.812 638.504 L812.478 638.504 L812.478 692 Z" fill="#4c7bb0" fill-opacity="1.000000"/>
  <path d="M817.603 692 L817.603 634.656 L854.27 634.656 L854.27 692 Z" fill="#4c7bb0" fill-opacity="1.000000"/>
  <path d="M859.395 692 L859.395 630.648 L896.061 630.648 L896.061 692 Z" fill="#4c7bb0" fill-opacity="1.000000"/>
  <path d="M901.187 692 L901.187 626.496 L937.854 626.496 L937.854 692 Z" fill="#4c7bb0" fill-opacity="1.000000"/>
  <path d="M942.979 692 L942.979 622.219 L979.645 622.219 L979.645 692 Z" fill="#4c7bb0" fill-opacity="1.000000"/>
  <path d="M984.771 692 L984.771 617.836 L1021.44 617.836 L1021.44 692 Z" fill="#4c7bb0" fill-opacity="1.000000"/>
  <path d="M1026.56 692 L1026.56 613.367 L1063.23 613.367 L1063.23 692 Z" fill="#4c7bb0" fill-opacity="1.000000"/>
  <path d="M1068.35 692 L1068.35 608.831 L1105.02 608.831 L1105.02 692 Z" fill="#4c7bb0" fill-opacity="1.000000"/>
  <path d="M1110.15 692 L1110.15 604.248 L1146.81 604.248 L1146.81 692 Z" fill="#4c7bb0" fill-opacity="1.000000"/>
  <path d="M1151.94 692 L1151.94 599.64 L1188.61 599.64 L1188.61 692 Z" fill="#4c7bb0" fill-opacity="1.000000"/>
  <path d="M1193.73 692 L1193.73 595.026 L1230.4 595.026 L1230.4 692 Z" fill="#4c7bb0" fill-opacity="1.000000"/>
  <path d="M1235.52 692 L1235.52 590.427 L1272.19 590.427 L1272.19 692 Z" fill="#4c7bb0" fill-opacity="1.000000"/>
  <path d="M1277.31 692 L1277.31 585.864 L1313.98 585.864 L1313.98 692 Z" fill="#4c7bb0" fill-opacity="1.000000"/>
  <path d="M1319.11 692 L1319.11 581.355 L1355.77 581.355 L1355.77 692 Z" fill="#4c7bb0" fill-opacity="1.000000"/>
  <path d="M1360.9 692 L1360.9 576.923 L1397.56 576.923 L1397.56 692 Z" fill="#4c7bb0" fill-opacity="1.000000"/>
  <path d="M1402.69 692 L1402.69 572.586 L1439.36 572.586 L1439.36 692 Z" fill="#4c7bb0" fill-opacity="1.000000"/>
  <path d="M1444.48 692 L1444.48 568.363 L1481.15 568.363 L1481.15 692 Z" fill="#4c7bb0" fill-opacity="1.000000"/>
  <path d="M1486.27 692 L1486.27 564.274 L1522.94 564.274 L1522.94 692 Z" fill="#4c7bb0" fill-opacity="1.000000"/>
  <path d="M1528.07 692 L1528.07 560.337 L1564.73 560.337 L1564.73 692 Z" fill="#4c7bb0" fill-opacity="1.000000"/>
  <path d="M1569.86 692 L1569.86 556.568 L1606.52 556.568 L1606.52 692 Z" fill="#4c7bb0" fill-opacity="1.000000"/>
  <path d="M1611.65 692 L1611.65 552.985 L1648.32 552.985 L1648.32 692 Z" fill="#4c7bb0" fill-opacity="1.000000"/>
  <path d="M1653.44 692 L1653.44 549.604 L1690.11 549.604 L1690.11 692 Z" fill="#4c7bb0" fill-opacity="1.000000"/>
  <path d="M1695.23 692 L1695.23 546.44 L1731.9 546.44 L1731.9 692 Z" fill="#4c7bb0" fill-opacity="1.000000"/>
  <path d="M1737.02 692 L1737.02 543.506 L1773.69 543.506 L1773.69 692 Z" fill="#4c7bb0" fill-opacity="1.000000"/>
  <path d="M1778.82 692 L1778.82 540.816 L1815.48 540.816 L1815.48 692 Z" fill="#4c7bb0" fill-opacity="1.000000"/>
  <path d="M1820.61 692 L1820.61 538.382 L1857.28 538.382 L1857.28 692 Z" fill="#4c7bb0" fill-opacity="1.000000"/>
  <path d="M1862.4 692 L1862.4 536.215 L1899.07 536.215 L1899.07 692 Z" fill="#4c7bb0" fill-opacity="1.000000"/>
  <path d="M1904.19 692 L1904.19 534.323 L1940.86 534.323 L1940.86 692 Z" fill="#4c7bb0" fill-opacity="1.000000"/>
  <path d="M1945.98 692 L1945.98 532.716 L1982.65 532.716 L1982.65 692 Z" fill="#4c7bb0" fill-opacity="1.000000"/>
  <path d="M146.089 114.667 L135.823 87.6667 L139.62 87.6667 L146.51 106.839 Q147.339 109.151 147.901 111.167 Q148.51 109.01 149.323 106.839 L156.479 87.6667 L160.057 87.6667 L149.682 114.667 L146.089 114.667 Z" fill="#000000" fill-opacity="1.000000"/>
  <path d="M173.714 112.667 Q171.917 113.76 170.245 114.214 Q168.573 114.667 166.667 114.667 Q163.495 114.667 161.799 113.073 Q160.104 111.479 160.104 109.01 Q160.104 107.557 160.745 106.354 Q161.385 105.151 162.424 104.424 Q163.464 103.698 164.76 103.323 Q165.714 103.057 167.651 102.823 Q171.589 102.339 173.448 101.667 Q173.464 101.104 173.464 100.948 Q173.464 99.276 172.542 98.5885 Q171.292 97.6667 168.839 97.6667 Q166.542 97.6667 165.456 98.3307 Q164.37 98.9948 163.839 100.667 L160.651 100.667 Q161.089 98.5885 162.081 97.3151 Q163.073 96.0417 164.948 95.3542 Q166.823 94.6667 169.307 94.6667 Q171.76 94.6667 173.299 95.2604 Q174.839 95.8542 175.557 96.7526 Q176.276 97.651 176.573 99.026 Q176.729 99.8854 176.729 101.932 L176.729 106.01 Q176.729 110.292 176.94 111.792 Q177.151 113.292 177.76 114.667 L174.37 114.667 Q173.854 113.807 173.714 112.667 ZM173.448 104.667 Q171.682 105.339 168.135 105.807 Q166.135 106.073 165.307 106.417 Q164.479 106.76 164.026 107.401 Q163.573 108.042 163.573 108.839 Q163.573 110.057 164.557 110.862 Q165.542 111.667 167.432 111.667 Q169.323 111.667 170.784 110.854 Q172.245 110.042 172.932 108.729 Q173.448 107.729 173.448 105.76 L173.448 104.667 Z" fill="#000000" fill-opacity="1.000000"/>
  <path d="M180.198 114.667 L180.198 94.6667 L183.12 94.6667 L183.12 97.651 Q184.245 95.8229 185.19 95.2448 Q186.135 94.6667 187.276 94.6667 Q188.917 94.6667 190.62 95.2917 L189.495 98.3073 Q188.307 97.6667 187.12 97.6667 Q186.057 97.6667 185.206 98.3385 Q184.354 99.0104 183.995 100.198 Q183.448 102.01 183.448 104.167 L183.448 114.667 L180.198 114.667 Z" fill="#000000" fill-opacity="1.000000"/>
  <path d="M192.464 90.6667 L192.464 87.6667 L195.714 87.6667 L195.714 90.6667 L192.464 90.6667 ZM192.464 114.667 L192.464 94.6667 L195.714 94.6667 L195.714 114.667 L192.464 114.667 Z" fill="#000000" fill-opacity="1.000000"/>
  <path d="M213.104 112.667 Q211.307 113.76 209.635 114.214 Q207.964 114.667 206.057 114.667 Q202.885 114.667 201.19 113.073 Q199.495 111.479 199.495 109.01 Q199.495 107.557 200.135 106.354 Q200.776 105.151 201.815 104.424 Q202.854 103.698 204.151 103.323 Q205.104 103.057 207.042 102.823 Q210.979 102.339 212.839 101.667 Q212.854 101.104 212.854 100.948 Q212.854 99.276 211.932 98.5885 Q210.682 97.6667 208.229 97.6667 Q205.932 97.6667 204.846 98.3307 Q203.76 98.9948 203.229 100.667 L200.042 100.667 Q200.479 98.5885 201.471 97.3151 Q202.464 96.0417 204.339 95.3542 Q206.214 94.6667 208.698 94.6667 Q211.151 94.6667 212.69 95.2604 Q214.229 95.8542 214.948 96.7526 Q215.667 97.651 215.964 99.026 Q216.12 99.8854 216.12 101.932 L216.12 106.01 Q216.12 110.292 216.331 111.792 Q216.542 113.292 217.151 114.667 L213.76 114.667 Q213.245 113.807 213.104 112.667 ZM212.839 104.667 Q211.073 105.339 207.526 105.807 Q205.526 106.073 204.698 106.417 Q203.87 106.76 203.417 107.401 Q202.964 108.042 202.964 108.839 Q202.964 110.057 203.948 110.862 Q204.932 111.667 206.823 111.667 Q208.714 111.667 210.174 110.854 Q211.635 110.042 212.323 108.729 Q212.839 107.729 212.839 105.76 L212.839 104.667 Z" fill="#000000" fill-opacity="1.000000"/>
  <path d="M223.979 114.667 L220.964 114.667 L220.964 87.6667 L224.214 87.6667 L224.214 97.5729 Q226.276 94.6667 229.479 94.6667 Q231.245 94.6667 232.823 95.3776 Q234.401 96.0885 235.424 97.3776 Q236.448 98.6667 237.026 100.487 Q237.604 102.307 237.604 104.385 Q237.604 109.292 235.167 111.979 Q232.729 114.667 229.307 114.667 Q225.917 114.667 223.979 111.479 L223.979 114.667 ZM223.948 104.526 Q223.948 107.807 224.885 109.276 Q226.417 111.667 229.042 111.667 Q231.167 111.667 232.721 109.901 Q234.276 108.135 234.276 104.651 Q234.276 101.073 232.784 99.3698 Q231.292 97.6667 229.182 97.6667 Q227.057 97.6667 225.503 99.4323 Q223.948 101.198 223.948 104.526 Z" fill="#000000" fill-opacity="1.000000"/>
  <path d="M241.292 114.667 L241.292 87.6667 L244.557 87.6667 L244.557 114.667 L241.292 114.667 Z" fill="#000000" fill-opacity="1.000000"/>
  <path d="M262.651 108.667 L266.01 108.667 Q265.214 111.51 263.065 113.089 Q260.917 114.667 257.573 114.667 Q253.37 114.667 250.901 112.081 Q248.432 109.495 248.432 104.823 Q248.432 99.9948 250.924 97.3307 Q253.417 94.6667 257.401 94.6667 Q261.245 94.6667 263.682 97.3229 Q266.12 99.9792 266.12 104.792 Q266.12 105.089 266.104 105.667 L251.792 105.667 Q251.979 108.573 253.581 110.12 Q255.182 111.667 257.589 111.667 Q259.385 111.667 260.651 110.948 Q261.917 110.229 262.651 108.667 ZM251.964 102.667 L262.682 102.667 Q262.464 100.464 261.448 99.3698 Q259.901 97.6667 257.417 97.6667 Q255.182 97.6667 253.651 99.026 Q252.12 100.385 251.964 102.667 Z" fill="#000000" fill-opacity="1.000000"/>
  <path d="" fill="#000000" fill-opacity="1.000000"/>
  <path d="M280.51 114.667 L280.51 87.6667 L289.635 87.6667 Q292.714 87.6667 294.339 88.0573 Q296.62 88.5885 298.229 89.9948 Q300.323 91.7917 301.362 94.6042 Q302.401 97.4167 302.401 101.026 Q302.401 104.089 301.698 106.471 Q300.995 108.854 299.893 110.409 Q298.792 111.964 297.479 112.854 Q296.167 113.745 294.315 114.206 Q292.464 114.667 290.057 114.667 L280.51 114.667 ZM284.01 111.667 L289.667 111.667 Q292.292 111.667 293.776 111.159 Q295.26 110.651 296.151 109.729 Q297.401 108.448 298.096 106.26 Q298.792 104.073 298.792 100.964 Q298.792 96.651 297.424 94.3307 Q296.057 92.0104 294.104 91.2292 Q292.698 90.6667 289.573 90.6667 L284.01 90.6667 L284.01 111.667 Z" fill="#000000" fill-opacity="1.000000"/>
  <path d="M100.833 115.417 C93.2394 115.417 87.0833 109.261 87.0833 101.667 C87.0833 94.0728 93.2394 87.9167 100.833 87.9167 C108.427 87.9167 114.583 94.0728 114.583 101.667 C114.583 109.261 108.427 115.417 100.833 115.417 Z" fill="#9fc3f5" fill-opacity="1.000000"/>
  <path d="M146.089 167.667 L135.823 140.667 L139.62 140.667 L146.51 159.839 Q147.339 162.151 147.901 164.167 Q148.51 162.01 149.323 159.839 L156.479 140.667 L160.057 140.667 L149.682 167.667 L146.089 167.667 Z" fill="#000000" fill-opacity="1.000000"/>
  <path d="M173.714 165.667 Q171.917 166.76 170.245 167.214 Q168.573 167.667 166.667 167.667 Q163.495 167.667 161.799 166.073 Q160.104 164.479 160.104 162.01 Q160.104 160.557 160.745 159.354 Q161.385 158.151 162.424 157.424 Q163.464 156.698 164.76 156.323 Q165.714 156.057 167.651 155.823 Q171.589 155.339 173.448 154.667 Q173.464 154.104 173.464 153.948 Q173.464 152.276 172.542 151.589 Q171.292 150.667 168.839 150.667 Q166.542 150.667 165.456 151.331 Q164.37 151.995 163.839 153.667 L160.651 153.667 Q161.089 151.589 162.081 150.315 Q163.073 149.042 164.948 148.354 Q166.823 147.667 169.307 147.667 Q171.76 147.667 173.299 148.26 Q174.839 148.854 175.557 149.753 Q176.276 150.651 176.573 152.026 Q176.729 152.885 176.729 154.932 L176.729 159.01 Q176.729 163.292 176.94 164.792 Q177.151 166.292 177.76 167.667 L174.37 167.667 Q173.854 166.807 173.714 165.667 ZM173.448 157.667 Q171.682 158.339 168.135 158.807 Q166.135 159.073 165.307 159.417 Q164.479 159.76 164.026 160.401 Q163.573 161.042 163.573 161.839 Q163.573 163.057 164.557 163.862 Q165.542 164.667 167.432 164.667 Q169.323 164.667 170.784 163.854 Q172.245 163.042 172.932 161.729 Q173.448 160.729 173.448 158.76 L173.448 157.667 Z" fill="#000000" fill-opacity="1.000000"/>
  <path d="M180.198 167.667 L180.198 147.667 L183.12 147.667 L183.12 150.651 Q184.245 148.823 185.19 148.245 Q186.135 147.667 187.276 147.667 Q188.917 147.667 190.62 148.292 L189.495 151.307 Q188.307 150.667 187.12 150.667 Q186.057 150.667 185.206 151.339 Q184.354 152.01 183.995 153.198 Q183.448 155.01 183.448 157.167 L183.448 167.667 L180.198 167.667 Z" fill="#000000" fill-opacity="1.000000"/>
  <path d="M192.464 143.667 L192.464 140.667 L195.714 140.667 L195.714 143.667 L192.464 143.667 ZM192.464 167.667 L192.464 147.667 L195.714 147.667 L195.714 167.667 L192.464 167.667 Z" fill="#000000" fill-opacity="1.000000"/>
  <path d="M213.104 165.667 Q211.307 166.76 209.635 167.214 Q207.964 167.667 206.057 167.667 Q202.885 167.667 201.19 166.073 Q199.495 164.479 199.495 162.01 Q199.495 160.557 200.135 159.354 Q200.776 158.151 201.815 157.424 Q202.854 156.698 204.151 156.323 Q205.104 156.057 207.042 155.823 Q210.979 155.339 212.839 154.667 Q212.854 154.104 212.854 153.948 Q212.854 152.276 211.932 151.589 Q210.682 150.667 208.229 150.667 Q205.932 150.667 204.846 151.331 Q203.76 151.995 203.229 153.667 L200.042 153.667 Q200.479 151.589 201.471 150.315 Q202.464 149.042 204.339 148.354 Q206.214 147.667 208.698 147.667 Q211.151 147.667 212.69 148.26 Q214.229 148.854 214.948 149.753 Q215.667 150.651 215.964 152.026 Q216.12 152.885 216.12 154.932 L216.12 159.01 Q216.12 163.292 216.331 164.792 Q216.542 166.292 217.151 167.667 L213.76 167.667 Q213.245 166.807 213.104 165.667 ZM212.839 157.667 Q211.073 158.339 207.526 158.807 Q205.526 159.073 204.698 159.417 Q203.87 159.76 203.417 160.401 Q202.964 161.042 202.964 161.839 Q202.964 163.057 203.948 163.862 Q204.932 164.667 206.823 164.667 Q208.714 164.667 210.174 163.854 Q211.635 163.042 212.323 161.729 Q212.839 160.729 212.839 158.76 L212.839 157.667 Z" fill="#000000" fill-opacity="1.000000"/>
  <path d="M223.979 167.667 L220.964 167.667 L220.964 140.667 L224.214 140.667 L224.214 150.573 Q226.276 147.667 229.479 147.667 Q231.245 147.667 232.823 148.378 Q234.401 149.089 235.424 150.378 Q236.448 151.667 237.026 153.487 Q237.604 155.307 237.604 157.385 Q237.604 162.292 235.167 164.979 Q232.729 167.667 229.307 167.667 Q225.917 167.667 223.979 164.479 L223.979 167.667 ZM223.948 157.526 Q223.948 160.807 224.885 162.276 Q226.417 164.667 229.042 164.667 Q231.167 164.667 232.721 162.901 Q234.276 161.135 234.276 157.651 Q234.276 154.073 232.784 152.37 Q231.292 150.667 229.182 150.667 Q227.057 150.667 225.503 152.432 Q223.948 154.198 223.948 157.526 Z" fill="#000000" fill-opacity="1.000000"/>
  <path d="M241.292 167.667 L241.292 140.667 L244.557 140.667 L244.557 167.667 L241.292 167.667 Z" fill="#000000" fill-opacity="1.000000"/>
  <path d="M262.651 161.667 L266.01 161.667 Q265.214 164.51 263.065 166.089 Q260.917 167.667 257.573 167.667 Q253.37 167.667 250.901 165.081 Q248.432 162.495 248.432 157.823 Q248.432 152.995 250.924 150.331 Q253.417 147.667 257.401 147.667 Q261.245 147.667 263.682 150.323 Q266.12 152.979 266.12 157.792 Q266.12 158.089 266.104 158.667 L251.792 158.667 Q251.979 161.573 253.581 163.12 Q255.182 164.667 257.589 164.667 Q259.385 164.667 260.651 163.948 Q261.917 163.229 262.651 161.667 ZM251.964 155.667 L262.682 155.667 Q262.464 153.464 261.448 152.37 Q259.901 150.667 257.417 150.667 Q255.182 150.667 253.651 152.026 Q252.12 153.385 251.964 155.667 Z" fill="#000000" fill-opacity="1.000000"/>
  <path d="" fill="#000000" fill-opacity="1.000000"/>
  <path d="M299.401 158.057 L302.901 158.917 Q301.792 163.182 298.932 165.424 Q296.073 167.667 291.932 167.667 Q287.651 167.667 284.971 165.948 Q282.292 164.229 280.893 160.971 Q279.495 157.714 279.495 153.964 Q279.495 149.885 281.073 146.854 Q282.651 143.823 285.573 142.245 Q288.495 140.667 291.995 140.667 Q295.979 140.667 298.69 142.667 Q301.401 144.667 302.464 148.292 L299.01 149.089 Q298.089 146.26 296.339 144.964 Q294.589 143.667 291.932 143.667 Q288.87 143.667 286.815 145.104 Q284.76 146.542 283.932 148.964 Q283.104 151.385 283.104 153.948 Q283.104 157.276 284.089 159.745 Q285.073 162.214 287.151 163.44 Q289.229 164.667 291.651 164.667 Q294.589 164.667 296.635 163.003 Q298.682 161.339 299.401 158.057 Z" fill="#000000" fill-opacity="1.000000"/>
  <path d="M100.833 168.417 C93.2394 168.417 87.0833 162.261 87.0833 154.667 C87.0833 147.073 93.2394 140.917 100.833 140.917 C108.427 140.917 114.583 147.073 114.583 154.667 C114.583 162.261 108.427 168.417 100.833 168.417 Z" fill="#88ade0" fill-opacity="1.000000"/>
  <path d="M146.089 220.667 L135.823 193.667 L139.62 193.667 L146.51 212.839 Q147.339 215.151 147.901 217.167 Q148.51 215.01 149.323 212.839 L156.479 193.667 L160.057 193.667 L149.682 220.667 L146.089 220.667 Z" fill="#000000" fill-opacity="1.000000"/>
  <path d="M173.714 218.667 Q171.917 219.76 170.245 220.214 Q168.573 220.667 166.667 220.667 Q163.495 220.667 161.799 219.073 Q160.104 217.479 160.104 215.01 Q160.104 213.557 160.745 212.354 Q161.385 211.151 162.424 210.424 Q163.464 209.698 164.76 209.323 Q165.714 209.057 167.651 208.823 Q171.589 208.339 173.448 207.667 Q173.464 207.104 173.464 206.948 Q173.464 205.276 172.542 204.589 Q171.292 203.667 168.839 203.667 Q166.542 203.667 165.456 204.331 Q164.37 204.995 163.839 206.667 L160.651 206.667 Q161.089 204.589 162.081 203.315 Q163.073 202.042 164.948 201.354 Q166.823 200.667 169.307 200.667 Q171.76 200.667 173.299 201.26 Q174.839 201.854 175.557 202.753 Q176.276 203.651 176.573 205.026 Q176.729 205.885 176.729 207.932 L176.729 212.01 Q176.729 216.292 176.94 217.792 Q177.151 219.292 177.76 220.667 L174.37 220.667 Q173.854 219.807 173.714 218.667 ZM173.448 210.667 Q171.682 211.339 168.135 211.807 Q166.135 212.073 165.307 212.417 Q164.479 212.76 164.026 213.401 Q163.573 214.042 163.573 214.839 Q163.573 216.057 164.557 216.862 Q165.542 217.667 167.432 217.667 Q169.323 217.667 170.784 216.854 Q172.245 216.042 172.932 214.729 Q173.448 213.729 173.448 211.76 L173.448 210.667 Z" fill="#000000" fill-opacity="1.000000"/>
  <path d="M180.198 220.667 L180.198 200.667 L183.12 200.667 L183.12 203.651 Q184.245 201.823 185.19 201.245 Q186.135 200.667 187.276 200.667 Q188.917 200.667 190.62 201.292 L189.495 204.307 Q188.307 203.667 187.12 203.667 Q186.057 203.667 185.206 204.339 Q184.354 205.01 183.995 206.198 Q183.448 208.01 183.448 210.167 L183.448 220.667 L180.198 220.667 Z" fill="#000000" fill-opacity="1.000000"/>
  <path d="M192.464 196.667 L192.464 193.667 L195.714 193.667 L195.714 196.667 L192.464 196.667 ZM192.464 220.667 L192.464 200.667 L195.714 200.667 L195.714 220.667 L192.464 220.667 Z" fill="#000000" fill-opacity="1.000000"/>
  <path d="M213.104 218.667 Q211.307 219.76 209.635 220.214 Q207.964 220.667 206.057 220.667 Q202.885 220.667 201.19 219.073 Q199.495 217.479 199.495 215.01 Q199.495 213.557 200.135 212.354 Q200.776 211.151 201.815 210.424 Q202.854 209.698 204.151 209.323 Q205.104 209.057 207.042 208.823 Q210.979 208.339 212.839 207.667 Q212.854 207.104 212.854 206.948 Q212.854 205.276 211.932 204.589 Q210.682 203.667 208.229 203.667 Q205.932 203.667 204.846 204.331 Q203.76 204.995 203.229 206.667 L200.042 206.667 Q200.479 204.589 201.471 203.315 Q202.464 202.042 204.339 201.354 Q206.214 200.667 208.698 200.667 Q211.151 200.667 212.69 201.26 Q214.229 201.854 214.948 202.753 Q215.667 203.651 215.964 205.026 Q216.12 205.885 216.12 207.932 L216.12 212.01 Q216.12 216.292 216.331 217.792 Q216.542 219.292 217.151 220.667 L213.76 220.667 Q213.245 219.807 213.104 218.667 ZM212.839 210.667 Q211.073 211.339 207.526 211.807 Q205.526 212.073 204.698 212.417 Q203.87 212.76 203.417 213.401 Q202.964 214.042 202.964 214.839 Q202.964 216.057 203.948 216.862 Q204.932 217.667 206.823 217.667 Q208.714 217.667 210.174 216.854 Q211.635 216.042 212.323 214.729 Q212.839 213.729 212.839 211.76 L212.839 210.667 Z" fill="#000000" fill-opacity="1.000000"/>
  <path d="M223.979 220.667 L220.964 220.667 L220.964 193.667 L224.214 193.667 L224.214 203.573 Q226.276 200.667 229.479 200.667 Q231.245 200.667 232.823 201.378 Q234.401 202.089 235.424 203.378 Q236.448 204.667 237.026 206.487 Q237.604 208.307 237.604 210.385 Q237.604 215.292 235.167 217.979 Q232.729 220.667 229.307 220.667 Q225.917 220.667 223.979 217.479 L223.979 220.667 ZM223.948 210.526 Q223.948 213.807 224.885 215.276 Q226.417 217.667 229.042 217.667 Q231.167 217.667 232.721 215.901 Q234.276 214.135 234.276 210.651 Q234.276 207.073 232.784 205.37 Q231.292 203.667 229.182 203.667 Q227.057 203.667 225.503 205.432 Q223.948 207.198 223.948 210.526 Z" fill="#000000" fill-opacity="1.000000"/>
  <path d="M241.292 220.667 L241.292 193.667 L244.557 193.667 L244.557 220.667 L241.292 220.667 Z" fill="#000000" fill-opacity="1.000000"/>
  <path d="M262.651 214.667 L266.01 214.667 Q265.214 217.51 263.065 219.089 Q260.917 220.667 257.573 220.667 Q253.37 220.667 250.901 218.081 Q248.432 215.495 248.432 210.823 Q248.432 205.995 250.924 203.331 Q253.417 200.667 257.401 200.667 Q261.245 200.667 263.682 203.323 Q266.12 205.979 266.12 210.792 Q266.12 211.089 266.104 211.667 L251.792 211.667 Q251.979 214.573 253.581 216.12 Q255.182 217.667 257.589 217.667 Q259.385 217.667 260.651 216.948 Q261.917 216.229 262.651 214.667 ZM251.964 208.667 L262.682 208.667 Q262.464 206.464 261.448 205.37 Q259.901 203.667 257.417 203.667 Q255.182 203.667 253.651 205.026 Q252.12 206.385 251.964 208.667 Z" fill="#000000" fill-opacity="1.000000"/>
  <path d="" fill="#000000" fill-opacity="1.000000"/>
  <path d="M280.354 220.667 L280.354 193.667 L290.292 193.667 Q293.323 193.667 295.159 194.51 Q296.995 195.354 298.034 197.104 Q299.073 198.854 299.073 200.776 Q299.073 202.557 298.151 204.128 Q297.229 205.698 295.37 206.667 Q297.776 207.37 299.065 209.057 Q300.354 210.745 300.354 213.042 Q300.354 214.885 299.565 216.471 Q298.776 218.057 297.62 218.924 Q296.464 219.792 294.721 220.229 Q292.979 220.667 290.448 220.667 L280.354 220.667 ZM283.87 205.667 L289.604 205.667 Q291.932 205.667 292.932 205.323 Q294.276 204.87 294.948 203.831 Q295.62 202.792 295.62 201.229 Q295.62 199.76 294.987 198.628 Q294.354 197.495 293.182 197.081 Q292.01 196.667 289.151 196.667 L283.87 196.667 L283.87 205.667 ZM283.87 217.667 L290.464 217.667 Q292.167 217.667 292.839 217.542 Q294.057 217.323 294.87 216.823 Q295.682 216.323 296.206 215.37 Q296.729 214.417 296.729 213.167 Q296.729 211.698 295.971 210.62 Q295.214 209.542 293.87 209.104 Q292.526 208.667 289.995 208.667 L283.87 208.667 L283.87 217.667 Z" fill="#000000" fill-opacity="1.000000"/>
  <path d="M100.833 221.417 C93.2394 221.417 87.0833 215.261 87.0833 207.667 C87.0833 200.073 93.2394 193.917 100.833 193.917 C108.427 193.917 114.583 200.073 114.583 207.667 C114.583 215.261 108.427 221.417 100.833 221.417 Z" fill="#6393c9" fill-opacity="1.000000"/>
  <path d="M146.089 273.667 L135.823 246.667 L139.62 246.667 L146.51 265.839 Q147.339 268.151 147.901 270.167 Q148.51 268.01 149.323 265.839 L156.479 246.667 L160.057 246.667 L149.682 273.667 L146.089 273.667 Z" fill="#000000" fill-opacity="1.000000"/>
  <path d="M173.714 271.667 Q171.917 272.76 170.245 273.214 Q168.573 273.667 166.667 273.667 Q163.495 273.667 161.799 272.073 Q160.104 270.479 160.104 268.01 Q160.104 266.557 160.745 265.354 Q161.385 264.151 162.424 263.424 Q163.464 262.698 164.76 262.323 Q165.714 262.057 167.651 261.823 Q171.589 261.339 173.448 260.667 Q173.464 260.104 173.464 259.948 Q173.464 258.276 172.542 257.589 Q171.292 256.667 168.839 256.667 Q166.542 256.667 165.456 257.331 Q164.37 257.995 163.839 259.667 L160.651 259.667 Q161.089 257.589 162.081 256.315 Q163.073 255.042 164.948 254.354 Q166.823 253.667 169.307 253.667 Q171.76 253.667 173.299 254.26 Q174.839 254.854 175.557 255.753 Q176.276 256.651 176.573 258.026 Q176.729 258.885 176.729 260.932 L176.729 265.01 Q176.729 269.292 176.94 270.792 Q177.151 272.292 177.76 273.667 L174.37 273.667 Q173.854 272.807 173.714 271.667 ZM173.448 263.667 Q171.682 264.339 168.135 264.807 Q166.135 265.073 165.307 265.417 Q164.479 265.76 164.026 266.401 Q163.573 267.042 163.573 267.839 Q163.573 269.057 164.557 269.862 Q165.542 270.667 167.432 270.667 Q169.323 270.667 170.784 269.854 Q172.245 269.042 172.932 267.729 Q173.448 266.729 173.448 264.76 L173.448 263.667 Z" fill="#000000" fill-opacity="1.000000"/>
  <path d="M180.198 273.667 L180.198 253.667 L183.12 253.667 L183.12 256.651 Q184.245 254.823 185.19 254.245 Q186.135 253.667 187.276 253.667 Q188.917 253.667 190.62 254.292 L189.495 257.307 Q188.307 256.667 187.12 256.667 Q186.057 256.667 185.206 257.339 Q184.354 258.01 183.995 259.198 Q183.448 261.01 183.448 263.167 L183.448 273.667 L180.198 273.667 Z" fill="#000000" fill-opacity="1.000000"/>
  <path d="M192.464 249.667 L192.464 246.667 L195.714 246.667 L195.714 249.667 L192.464 249.667 ZM192.464 273.667 L192.464 253.667 L195.714 253.667 L195.714 273.667 L192.464 273.667 Z" fill="#000000" fill-opacity="1.000000"/>
  <path d="M213.104 271.667 Q211.307 272.76 209.635 273.214 Q207.964 273.667 206.057 273.667 Q202.885 273.667 201.19 272.073 Q199.495 270.479 199.495 268.01 Q199.495 266.557 200.135 265.354 Q200.776 264.151 201.815 263.424 Q202.854 262.698 204.151 262.323 Q205.104 262.057 207.042 261.823 Q210.979 261.339 212.839 260.667 Q212.854 260.104 212.854 259.948 Q212.854 258.276 211.932 257.589 Q210.682 256.667 208.229 256.667 Q205.932 256.667 204.846 257.331 Q203.76 257.995 203.229 259.667 L200.042 259.667 Q200.479 257.589 201.471 256.315 Q202.464 255.042 204.339 254.354 Q206.214 253.667 208.698 253.667 Q211.151 253.667 212.69 254.26 Q214.229 254.854 214.948 255.753 Q215.667 256.651 215.964 258.026 Q216.12 258.885 216.12 260.932 L216.12 265.01 Q216.12 269.292 216.331 270.792 Q216.542 272.292 217.151 273.667 L213.76 273.667 Q213.245 272.807 213.104 271.667 ZM212.839 263.667 Q211.073 264.339 207.526 264.807 Q205.526 265.073 204.698 265.417 Q203.87 265.76 203.417 266.401 Q202.964 267.042 202.964 267.839 Q202.964 269.057 203.948 269.862 Q204.932 270.667 206.823 270.667 Q208.714 270.667 210.174 269.854 Q211.635 269.042 212.323 267.729 Q212.839 266.729 212.839 264.76 L212.839 263.667 Z" fill="#000000" fill-opacity="1.000000"/>
  <path d="M223.979 273.667 L220.964 273.667 L220.964 246.667 L224.214 246.667 L224.214 256.573 Q226.276 253.667 229.479 253.667 Q231.245 253.667 232.823 254.378 Q234.401 255.089 235.424 256.378 Q236.448 257.667 237.026 259.487 Q237.604 261.307 237.604 263.385 Q237.604 268.292 235.167 270.979 Q232.729 273.667 229.307 273.667 Q225.917 273.667 223.979 270.479 L223.979 273.667 ZM223.948 263.526 Q223.948 266.807 224.885 268.276 Q226.417 270.667 229.042 270.667 Q231.167 270.667 232.721 268.901 Q234.276 267.135 234.276 263.651 Q234.276 260.073 232.784 258.37 Q231.292 256.667 229.182 256.667 Q227.057 256.667 225.503 258.432 Q223.948 260.198 223.948 263.526 Z" fill="#000000" fill-opacity="1.000000"/>
  <path d="M241.292 273.667 L241.292 246.667 L244.557 246.667 L244.557 273.667 L241.292 273.667 Z" fill="#000000" fill-opacity="1.000000"/>
  <path d="M262.651 267.667 L266.01 267.667 Q265.214 270.51 263.065 272.089 Q260.917 273.667 257.573 273.667 Q253.37 273.667 250.901 271.081 Q248.432 268.495 248.432 263.823 Q248.432 258.995 250.924 256.331 Q253.417 253.667 257.401 253.667 Q261.245 253.667 263.682 256.323 Q266.12 258.979 266.12 263.792 Q266.12 264.089 266.104 264.667 L251.792 264.667 Q251.979 267.573 253.581 269.12 Q255.182 270.667 257.589 270.667 Q259.385 270.667 260.651 269.948 Q261.917 269.229 262.651 267.667 ZM251.964 261.667 L262.682 261.667 Q262.464 259.464 261.448 258.37 Q259.901 256.667 257.417 256.667 Q255.182 256.667 253.651 258.026 Q252.12 259.385 251.964 261.667 Z" fill="#000000" fill-opacity="1.000000"/>
  <path d="" fill="#000000" fill-opacity="1.000000"/>
  <path d="M276.589 273.667 L286.76 246.667 L290.526 246.667 L301.37 273.667 L297.37 273.667 L294.292 265.667 L283.214 265.667 L280.307 273.667 L276.589 273.667 ZM284.229 262.667 L293.198 262.667 L290.432 255.37 Q289.167 252.026 288.557 249.667 Q288.057 252.37 287.135 254.901 L284.229 262.667 Z" fill="#000000" fill-opacity="1.000000"/>
  <path d="M100.833 274.417 C93.2394 274.417 87.0833 268.261 87.0833 260.667 C87.0833 253.073 93.2394 246.917 100.833 246.917 C108.427 246.917 114.583 253.073 114.583 260.667 C114.583 268.261 108.427 274.417 100.833 274.417 Z" fill="#4c7bb0" fill-opacity="1.000000"/>
</svg>