<?xml version="1.0" encoding="UTF-8" ?>
<!-- Generated by clip v0.8.0 (clip-lang.org) -->
<svg xmlns="http://www.w3.org/2000/svg" width="2048" height="800">
  <rect width="2048" height="800" fill="#ffffff" fill-opacity="1"/>
  <path d="M36.667 692 L2011.333 692" fill="none" stroke="#000000" stroke-width="3.333"/>
  <path d="M83.683 692 L83.683 678.667" fill="none" stroke="#000000" stroke-width="3.333"/>
  <path d="M271.746 692 L271.746 678.667" fill="none" stroke="#000000" stroke-width="3.333"/>
  <path d="M459.810 692 L459.810 678.667" fill="none" stroke="#000000" stroke-width="3.333"/>
  <path d="M647.873 692 L647.873 678.667" fill="none" stroke="#000000" stroke-width="3.333"/>
  <path d="M835.937 692 L835.937 678.667" fill="none" stroke="#000000" stroke-width="3.333"/>
  <path d="M1024.000 692 L1024.000 678.667" fill="none" stroke="#000000" stroke-width="3.333"/>
  <path d="M1212.063 692 L1212.063 678.667" fill="none" stroke="#000000" stroke-width="3.333"/>
  <path d="M1400.127 692 L1400.127 678.667" fill="none" stroke="#000000" stroke-width="3.333"/>
  <path d="M1588.190 692 L1588.190 678.667" fill="none" stroke="#000000" stroke-width="3.333"/>
  <path d="M1776.254 692 L1776.254 678.667" fill="none" stroke="#000000" stroke-width="3.333"/>
  <path d="M1964.317 692 L1964.317 678.667" fill="none" stroke="#000000" stroke-width="3.333"/>
  <path d="M59.729 741.849 Q59.729 737.146 60.698 734.294 Q61.667 731.443 63.573 729.888 Q65.479 728.333 68.370 728.333 Q70.511 728.333 72.112 729.193 Q73.714 730.052 74.768 731.661 Q75.823 733.271 76.417 735.591 Q77.011 737.911 77.011 741.849 Q77.011 746.490 76.050 749.349 Q75.089 752.208 73.183 753.771 Q71.276 755.333 68.370 755.333 Q64.542 755.333 62.354 752.599 Q59.729 749.286 59.729 741.849 Z M63.073 741.833 Q63.073 748.146 64.604 750.240 Q66.136 752.333 68.370 752.333 Q70.604 752.333 72.136 750.232 Q73.667 748.130 73.667 741.833 Q73.667 735.505 72.136 733.419 Q70.604 731.333 68.339 731.333 Q66.089 731.333 64.761 733.177 Q63.073 735.521 63.073 741.833 Z"/>
  <path d="M81.948 755.333 L81.948 752.333 L85.651 752.333 L85.651 755.333 L81.948 755.333 Z"/>
  <path d="M90.308 741.849 Q90.308 737.146 91.276 734.294 Q92.245 731.443 94.151 729.888 Q96.058 728.333 98.948 728.333 Q101.089 728.333 102.690 729.193 Q104.292 730.052 105.347 731.661 Q106.401 733.271 106.995 735.591 Q107.589 737.911 107.589 741.849 Q107.589 746.490 106.628 749.349 Q105.667 752.208 103.761 753.771 Q101.854 755.333 98.948 755.333 Q95.120 755.333 92.933 752.599 Q90.308 749.286 90.308 741.849 Z M93.651 741.833 Q93.651 748.146 95.183 750.240 Q96.714 752.333 98.948 752.333 Q101.183 752.333 102.714 750.232 Q104.245 748.130 104.245 741.833 Q104.245 735.505 102.714 733.419 Q101.183 731.333 98.917 731.333 Q96.667 731.333 95.339 733.177 Q93.651 735.521 93.651 741.833 Z"/>
  <path d="M247.793 741.849 Q247.793 737.146 248.762 734.294 Q249.730 731.443 251.637 729.888 Q253.543 728.333 256.434 728.333 Q258.574 728.333 260.176 729.193 Q261.777 730.052 262.832 731.661 Q263.887 733.271 264.480 735.591 Q265.074 737.911 265.074 741.849 Q265.074 746.490 264.113 749.349 Q263.152 752.208 261.246 753.771 Q259.340 755.333 256.434 755.333 Q252.605 755.333 250.418 752.599 Q247.793 749.286 247.793 741.849 Z M251.137 741.833 Q251.137 748.146 252.668 750.240 Q254.199 752.333 256.434 752.333 Q258.668 752.333 260.199 750.232 Q261.730 748.130 261.730 741.833 Q261.730 735.505 260.199 733.419 Q258.668 731.333 256.402 731.333 Q254.152 731.333 252.824 733.177 Q251.137 735.521 251.137 741.833 Z"/>
  <path d="M270.012 755.333 L270.012 752.333 L273.715 752.333 L273.715 755.333 L270.012 755.333 Z"/>
  <path d="M295.465 752.333 L295.465 755.333 L277.965 755.333 Q277.918 754.208 278.340 753.161 Q279.012 751.443 280.480 749.779 Q281.949 748.115 284.730 745.740 Q289.059 742.052 290.574 739.951 Q292.090 737.849 292.090 735.990 Q292.090 734.021 290.707 732.677 Q289.324 731.333 287.105 731.333 Q284.762 731.333 283.348 732.396 Q281.934 733.458 281.918 735.333 L278.574 735.333 Q278.918 731.911 281.160 730.122 Q283.402 728.333 287.168 728.333 Q290.996 728.333 293.215 730.505 Q295.434 732.677 295.434 735.896 Q295.434 737.536 294.785 739.115 Q294.137 740.693 292.621 742.443 Q291.105 744.193 287.605 747.177 Q284.684 749.661 283.855 750.552 Q283.027 751.443 282.480 752.333 L295.465 752.333 Z"/>
  <path d="M435.856 741.849 Q435.856 737.146 436.825 734.294 Q437.794 731.443 439.700 729.888 Q441.606 728.333 444.497 728.333 Q446.638 728.333 448.239 729.193 Q449.841 730.052 450.895 731.661 Q451.950 733.271 452.544 735.591 Q453.138 737.911 453.138 741.849 Q453.138 746.490 452.177 749.349 Q451.216 752.208 449.310 753.771 Q447.403 755.333 444.497 755.333 Q440.669 755.333 438.481 752.599 Q435.856 749.286 435.856 741.849 Z M439.200 741.833 Q439.200 748.146 440.731 750.240 Q442.263 752.333 444.497 752.333 Q446.731 752.333 448.263 750.232 Q449.794 748.130 449.794 741.833 Q449.794 735.505 448.263 733.419 Q446.731 731.333 444.466 731.333 Q442.216 731.333 440.888 733.177 Q439.200 735.521 439.200 741.833 Z"/>
  <path d="M458.075 755.333 L458.075 752.333 L461.778 752.333 L461.778 755.333 L458.075 755.333 Z"/>
  <path d="M476.856 755.333 L476.856 749.333 L465.372 749.333 L465.372 746.333 L477.466 728.333 L480.122 728.333 L480.122 746.333 L483.700 746.333 L483.700 749.333 L480.122 749.333 L480.122 755.333 L476.856 755.333 Z M476.856 746.333 L476.856 734.005 L468.575 746.333 L476.856 746.333 Z"/>
  <path d="M623.920 741.849 Q623.920 737.146 624.889 734.294 Q625.857 731.443 627.764 729.888 Q629.670 728.333 632.561 728.333 Q634.701 728.333 636.303 729.193 Q637.904 730.052 638.959 731.661 Q640.014 733.271 640.607 735.591 Q641.201 737.911 641.201 741.849 Q641.201 746.490 640.240 749.349 Q639.279 752.208 637.373 753.771 Q635.467 755.333 632.561 755.333 Q628.732 755.333 626.545 752.599 Q623.920 749.286 623.920 741.849 Z M627.264 741.833 Q627.264 748.146 628.795 750.240 Q630.326 752.333 632.561 752.333 Q634.795 752.333 636.326 750.232 Q637.857 748.130 637.857 741.833 Q637.857 735.505 636.326 733.419 Q634.795 731.333 632.529 731.333 Q630.279 731.333 628.951 733.177 Q627.264 735.521 627.264 741.833 Z"/>
  <path d="M646.139 755.333 L646.139 752.333 L649.842 752.333 L649.842 755.333 L646.139 755.333 Z"/>
  <path d="M671.373 735.333 L668.139 735.333 Q667.701 733.505 666.904 732.661 Q665.592 731.333 663.654 731.333 Q662.107 731.333 660.936 732.099 Q659.404 733.099 658.514 735.013 Q657.623 736.927 657.592 740.865 Q658.764 739.068 660.459 738.201 Q662.154 737.333 664.029 737.333 Q667.279 737.333 669.561 739.779 Q671.842 742.224 671.842 746.099 Q671.842 748.646 670.764 750.826 Q669.686 753.005 667.811 754.169 Q665.936 755.333 663.545 755.333 Q659.482 755.333 656.920 752.349 Q654.357 749.365 654.357 742.505 Q654.357 734.849 657.201 731.365 Q659.670 728.333 663.857 728.333 Q666.982 728.333 668.982 730.193 Q670.982 732.052 671.373 735.333 Z M658.092 746.021 Q658.092 747.693 658.803 749.216 Q659.514 750.740 660.803 751.536 Q662.092 752.333 663.498 752.333 Q665.561 752.333 667.045 750.685 Q668.529 749.036 668.529 746.193 Q668.529 743.474 667.061 741.904 Q665.592 740.333 663.373 740.333 Q661.170 740.333 659.631 741.904 Q658.092 743.474 658.092 746.021 Z"/>
  <path d="M811.983 741.849 Q811.983 737.146 812.952 734.294 Q813.921 731.443 815.827 729.888 Q817.733 728.333 820.624 728.333 Q822.765 728.333 824.366 729.193 Q825.968 730.052 827.022 731.661 Q828.077 733.271 828.671 735.591 Q829.265 737.911 829.265 741.849 Q829.265 746.490 828.304 749.349 Q827.343 752.208 825.437 753.771 Q823.530 755.333 820.624 755.333 Q816.796 755.333 814.608 752.599 Q811.983 749.286 811.983 741.849 Z M815.327 741.833 Q815.327 748.146 816.858 750.240 Q818.390 752.333 820.624 752.333 Q822.858 752.333 824.390 750.232 Q825.921 748.130 825.921 741.833 Q825.921 735.505 824.390 733.419 Q822.858 731.333 820.593 731.333 Q818.343 731.333 817.015 733.177 Q815.327 735.521 815.327 741.833 Z"/>
  <path d="M834.202 755.333 L834.202 752.333 L837.905 752.333 L837.905 755.333 L834.202 755.333 Z"/>
  <path d="M847.577 740.740 Q845.546 739.990 844.569 738.599 Q843.593 737.208 843.593 735.255 Q843.593 732.333 845.671 730.333 Q847.749 728.333 851.202 728.333 Q854.671 728.333 856.788 730.380 Q858.905 732.427 858.905 735.349 Q858.905 737.224 857.937 738.607 Q856.968 739.990 854.999 740.740 Q857.437 741.521 858.710 743.263 Q859.983 745.005 859.983 747.427 Q859.983 750.771 857.577 753.052 Q855.171 755.333 851.249 755.333 Q847.343 755.333 844.937 753.044 Q842.530 750.755 842.530 747.349 Q842.530 744.802 843.843 743.083 Q845.155 741.365 847.577 740.740 Z M846.921 735.224 Q846.921 737.036 848.132 738.185 Q849.343 739.333 851.280 739.333 Q853.155 739.333 854.358 738.193 Q855.562 737.052 855.562 735.396 Q855.562 733.677 854.327 732.505 Q853.093 731.333 851.249 731.333 Q849.374 731.333 848.147 732.482 Q846.921 733.630 846.921 735.224 Z M845.874 747.286 Q845.874 748.583 846.530 749.794 Q847.187 751.005 848.491 751.669 Q849.796 752.333 851.296 752.333 Q853.624 752.333 855.140 750.935 Q856.655 749.536 856.655 747.380 Q856.655 745.193 855.093 743.763 Q853.530 742.333 851.187 742.333 Q848.890 742.333 847.382 743.747 Q845.874 745.161 845.874 747.286 Z"/>
  <path d="M1012.297 755.333 L1009.047 755.333 L1009.047 734.302 Q1007.875 735.443 1005.969 736.576 Q1004.063 737.708 1002.547 738.271 L1002.547 735.083 Q1005.281 733.786 1007.320 731.935 Q1009.359 730.083 1010.203 728.333 L1012.297 728.333 L1012.297 755.333 Z"/>
  <path d="M1022.266 755.333 L1022.266 752.333 L1025.969 752.333 L1025.969 755.333 L1022.266 755.333 Z"/>
  <path d="M1030.625 741.849 Q1030.625 737.146 1031.594 734.294 Q1032.563 731.443 1034.469 729.888 Q1036.375 728.333 1039.266 728.333 Q1041.406 728.333 1043.008 729.193 Q1044.609 730.052 1045.664 731.661 Q1046.719 733.271 1047.313 735.591 Q1047.906 737.911 1047.906 741.849 Q1047.906 746.490 1046.945 749.349 Q1045.984 752.208 1044.078 753.771 Q1042.172 755.333 1039.266 755.333 Q1035.438 755.333 1033.250 752.599 Q1030.625 749.286 1030.625 741.849 Z M1033.969 741.833 Q1033.969 748.146 1035.500 750.240 Q1037.031 752.333 1039.266 752.333 Q1041.500 752.333 1043.031 750.232 Q1044.563 748.130 1044.563 741.833 Q1044.563 735.505 1043.031 733.419 Q1041.500 731.333 1039.234 731.333 Q1036.984 731.333 1035.656 733.177 Q1033.969 735.521 1033.969 741.833 Z"/>
  <path d="M1200.360 755.333 L1197.110 755.333 L1197.110 734.302 Q1195.938 735.443 1194.032 736.576 Q1192.126 737.708 1190.610 738.271 L1190.610 735.083 Q1193.345 733.786 1195.384 731.935 Q1197.423 730.083 1198.267 728.333 L1200.360 728.333 L1200.360 755.333 Z"/>
  <path d="M1210.329 755.333 L1210.329 752.333 L1214.032 752.333 L1214.032 755.333 L1210.329 755.333 Z"/>
  <path d="M1235.782 752.333 L1235.782 755.333 L1218.282 755.333 Q1218.235 754.208 1218.657 753.161 Q1219.329 751.443 1220.798 749.779 Q1222.267 748.115 1225.048 745.740 Q1229.376 742.052 1230.892 739.951 Q1232.407 737.849 1232.407 735.990 Q1232.407 734.021 1231.024 732.677 Q1229.642 731.333 1227.423 731.333 Q1225.079 731.333 1223.665 732.396 Q1222.251 733.458 1222.235 735.333 L1218.892 735.333 Q1219.235 731.911 1221.478 730.122 Q1223.720 728.333 1227.485 728.333 Q1231.313 728.333 1233.532 730.505 Q1235.751 732.677 1235.751 735.896 Q1235.751 737.536 1235.103 739.115 Q1234.454 740.693 1232.938 742.443 Q1231.423 744.193 1227.923 747.177 Q1225.001 749.661 1224.173 750.552 Q1223.345 751.443 1222.798 752.333 L1235.782 752.333 Z"/>
  <path d="M1388.424 755.333 L1385.174 755.333 L1385.174 734.302 Q1384.002 735.443 1382.096 736.576 Q1380.189 737.708 1378.674 738.271 L1378.674 735.083 Q1381.408 733.786 1383.447 731.935 Q1385.486 730.083 1386.330 728.333 L1388.424 728.333 L1388.424 755.333 Z"/>
  <path d="M1398.393 755.333 L1398.393 752.333 L1402.096 752.333 L1402.096 755.333 L1398.393 755.333 Z"/>
  <path d="M1417.174 755.333 L1417.174 749.333 L1405.689 749.333 L1405.689 746.333 L1417.783 728.333 L1420.439 728.333 L1420.439 746.333 L1424.018 746.333 L1424.018 749.333 L1420.439 749.333 L1420.439 755.333 L1417.174 755.333 Z M1417.174 746.333 L1417.174 734.005 L1408.893 746.333 L1417.174 746.333 Z"/>
  <path d="M1576.487 755.333 L1573.237 755.333 L1573.237 734.302 Q1572.065 735.443 1570.159 736.576 Q1568.253 737.708 1566.737 738.271 L1566.737 735.083 Q1569.472 733.786 1571.511 731.935 Q1573.550 730.083 1574.394 728.333 L1576.487 728.333 L1576.487 755.333 Z"/>
  <path d="M1586.456 755.333 L1586.456 752.333 L1590.159 752.333 L1590.159 755.333 L1586.456 755.333 Z"/>
  <path d="M1611.690 735.333 L1608.456 735.333 Q1608.019 733.505 1607.222 732.661 Q1605.909 731.333 1603.972 731.333 Q1602.425 731.333 1601.253 732.099 Q1599.722 733.099 1598.831 735.013 Q1597.940 736.927 1597.909 740.865 Q1599.081 739.068 1600.776 738.201 Q1602.472 737.333 1604.347 737.333 Q1607.597 737.333 1609.878 739.779 Q1612.159 742.224 1612.159 746.099 Q1612.159 748.646 1611.081 750.826 Q1610.003 753.005 1608.128 754.169 Q1606.253 755.333 1603.862 755.333 Q1599.800 755.333 1597.237 752.349 Q1594.675 749.365 1594.675 742.505 Q1594.675 734.849 1597.519 731.365 Q1599.987 728.333 1604.175 728.333 Q1607.300 728.333 1609.300 730.193 Q1611.300 732.052 1611.690 735.333 Z M1598.409 746.021 Q1598.409 747.693 1599.120 749.216 Q1599.831 750.740 1601.120 751.536 Q1602.409 752.333 1603.815 752.333 Q1605.878 752.333 1607.362 750.685 Q1608.847 749.036 1608.847 746.193 Q1608.847 743.474 1607.378 741.904 Q1605.909 740.333 1603.690 740.333 Q1601.487 740.333 1599.948 741.904 Q1598.409 743.474 1598.409 746.021 Z"/>
  <path d="M1764.551 755.333 L1761.301 755.333 L1761.301 734.302 Q1760.129 735.443 1758.223 736.576 Q1756.316 737.708 1754.801 738.271 L1754.801 735.083 Q1757.535 733.786 1759.574 731.935 Q1761.613 730.083 1762.457 728.333 L1764.551 728.333 L1764.551 755.333 Z"/>
  <path d="M1774.520 755.333 L1774.520 752.333 L1778.223 752.333 L1778.223 755.333 L1774.520 755.333 Z"/>
  <path d="M1787.895 740.740 Q1785.863 739.990 1784.887 738.599 Q1783.910 737.208 1783.910 735.255 Q1783.910 732.333 1785.988 730.333 Q1788.066 728.333 1791.520 728.333 Q1794.988 728.333 1797.106 730.380 Q1799.223 732.427 1799.223 735.349 Q1799.223 737.224 1798.254 738.607 Q1797.285 739.990 1795.316 740.740 Q1797.754 741.521 1799.027 743.263 Q1800.301 745.005 1800.301 747.427 Q1800.301 750.771 1797.895 753.052 Q1795.488 755.333 1791.566 755.333 Q1787.660 755.333 1785.254 753.044 Q1782.848 750.755 1782.848 747.349 Q1782.848 744.802 1784.160 743.083 Q1785.473 741.365 1787.895 740.740 Z M1787.238 735.224 Q1787.238 737.036 1788.449 738.185 Q1789.660 739.333 1791.598 739.333 Q1793.473 739.333 1794.676 738.193 Q1795.879 737.052 1795.879 735.396 Q1795.879 733.677 1794.645 732.505 Q1793.410 731.333 1791.566 731.333 Q1789.691 731.333 1788.465 732.482 Q1787.238 733.630 1787.238 735.224 Z M1786.191 747.286 Q1786.191 748.583 1786.848 749.794 Q1787.504 751.005 1788.809 751.669 Q1790.113 752.333 1791.613 752.333 Q1793.941 752.333 1795.457 750.935 Q1796.973 749.536 1796.973 747.380 Q1796.973 745.193 1795.410 743.763 Q1793.848 742.333 1791.504 742.333 Q1789.207 742.333 1787.699 743.747 Q1786.191 745.161 1786.191 747.286 Z"/>
  <path d="M1957.458 752.333 L1957.458 755.333 L1939.958 755.333 Q1939.911 754.208 1940.333 753.161 Q1941.005 751.443 1942.474 749.779 Q1943.942 748.115 1946.724 745.740 Q1951.052 742.052 1952.567 739.951 Q1954.083 737.849 1954.083 735.990 Q1954.083 734.021 1952.700 732.677 Q1951.317 731.333 1949.099 731.333 Q1946.755 731.333 1945.341 732.396 Q1943.927 733.458 1943.911 735.333 L1940.567 735.333 Q1940.911 731.911 1943.153 730.122 Q1945.396 728.333 1949.161 728.333 Q1952.989 728.333 1955.208 730.505 Q1957.427 732.677 1957.427 735.896 Q1957.427 737.536 1956.778 739.115 Q1956.130 740.693 1954.614 742.443 Q1953.099 744.193 1949.599 747.177 Q1946.677 749.661 1945.849 750.552 Q1945.021 751.443 1944.474 752.333 L1957.458 752.333 Z"/>
  <path d="M1962.583 755.333 L1962.583 752.333 L1966.286 752.333 L1966.286 755.333 L1962.583 755.333 Z"/>
  <path d="M1970.942 741.849 Q1970.942 737.146 1971.911 734.294 Q1972.880 731.443 1974.786 729.888 Q1976.692 728.333 1979.583 728.333 Q1981.724 728.333 1983.325 729.193 Q1984.927 730.052 1985.982 731.661 Q1987.036 733.271 1987.630 735.591 Q1988.224 737.911 1988.224 741.849 Q1988.224 746.490 1987.263 749.349 Q1986.302 752.208 1984.396 753.771 Q1982.489 755.333 1979.583 755.333 Q1975.755 755.333 1973.567 752.599 Q1970.942 749.286 1970.942 741.849 Z M1974.286 741.833 Q1974.286 748.146 1975.817 750.240 Q1977.349 752.333 1979.583 752.333 Q1981.817 752.333 1983.349 750.232 Q1984.880 748.130 1984.880 741.833 Q1984.880 735.505 1983.349 733.419 Q1981.817 731.333 1979.552 731.333 Q1977.302 731.333 1975.974 733.177 Q1974.286 735.521 1974.286 741.833 Z"/>
  <path d="M65.349 692 L65.349 613.980 L102.016 613.980 L102.016 692 Z" fill="#9fc3f5"/>
  <path d="M107.141 692 L107.141 615.932 L143.807 615.932 L143.807 692 Z" fill="#9fc3f5"/>
  <path d="M148.933 692 L148.933 616.531 L185.600 616.531 L185.600 692 Z" fill="#9fc3f5"/>
  <path d="M190.725 692 L190.725 615.771 L227.391 615.771 L227.391 692 Z" fill="#9fc3f5"/>
  <path d="M232.517 692 L232.517 613.653 L269.184 613.653 L269.184 692 Z" fill="#9fc3f5"/>
  <path d="M274.308 692 L274.308 610.188 L310.975 610.188 L310.975 692 Z" fill="#9fc3f5"/>
  <path d="M316.101 692 L316.101 605.391 L352.768 605.391 L352.768 692 Z" fill="#9fc3f5"/>
  <path d="M357.892 692 L357.892 599.287 L394.559 599.287 L394.559 692 Z" fill="#9fc3f5"/>
  <path d="M399.685 692 L399.685 591.908 L436.351 591.908 L436.351 692 Z" fill="#9fc3f5"/>
  <path d="M441.476 692 L441.476 583.291 L478.143 583.291 L478.143 692 Z" fill="#9fc3f5"/>
  <path d="M483.268 692 L483.268 573.484 L519.934 573.484 L519.934 692 Z" fill="#9fc3f5"/>
  <path d="M525.060 692 L525.060 562.537 L561.727 562.537 L561.727 692 Z" fill="#9fc3f5"/>
  <path d="M566.852 692 L566.852 550.509 L603.518 550.509 L603.518 692 Z" fill="#9fc3f5"/>
  <path d="M608.644 692 L608.644 537.465 L645.311 537.465 L645.311 692 Z" fill="#9fc3f5"/>
  <path d="M650.435 692 L650.435 523.474 L687.102 523.474 L687.102 692 Z" fill="#9fc3f5"/>
  <path d="M692.228 692 L692.228 508.612 L728.894 508.612 L728.894 692 Z" fill="#9fc3f5"/>
  <path d="M734.019 692 L734.019 492.959 L770.686 492.959 L770.686 692 Z" fill="#9fc3f5"/>
  <path d="M775.812 692 L775.812 476.598 L812.478 476.598 L812.478 692 Z" fill="#9fc3f5"/>
  <path d="M817.603 692 L817.603 459.618 L854.270 459.618 L854.270 692 Z" fill="#9fc3f5"/>
  <path d="M859.395 692 L859.395 442.111 L896.061 442.111 L896.061 692 Z" fill="#9fc3f5"/>
  <path d="M901.187 692 L901.187 424.169 L937.854 424.169 L937.854 692 Z" fill="#9fc3f5"/>
  <path d="M942.979 692 L942.979 405.889 L979.645 405.889 L979.645 692 Z" fill="#9fc3f5"/>
  <path d="M984.771 692 L984.771 387.369 L1021.438 387.369 L1021.438 692 Z" fill="#9fc3f5"/>
  <path d="M1026.562 692 L1026.562 368.708 L1063.229 368.708 L1063.229 692 Z" fill="#9fc3f5"/>
  <path d="M1068.355 692 L1068.355 350.004 L1105.021 350.004 L1105.021 692 Z" fill="#9fc3f5"/>
  <path d="M1110.146 692 L1110.146 331.357 L1146.813 331.357 L1146.813 692 Z" fill="#9fc3f5"/>
  <path d="M1151.939 692 L1151.939 312.866 L1188.605 312.866 L1188.605 692 Z" fill="#9fc3f5"/>
  <path d="M1193.730 692 L1193.730 294.627 L1230.397 294.627 L1230.397 692 Z" fill="#9fc3f5"/>
  <path d="M1235.522 692 L1235.522 276.735 L1272.188 276.735 L1272.188 692 Z" fill="#9fc3f5"/>
  <path d="M1277.314 692 L1277.314 259.285 L1313.981 259.285 L1313.981 692 Z" fill="#9fc3f5"/>
  <path d="M1319.106 692 L1319.106 242.367 L1355.772 242.367 L1355.772 692 Z" fill="#9fc3f5"/>
  <path d="M1360.898 692 L1360.898 226.066 L1397.565 226.066 L1397.565 692 Z" fill="#9fc3f5"/>
  <path d="M1402.689 692 L1402.689 210.467 L1439.356 210.467 L1439.356 692 Z" fill="#9fc3f5"/>
  <path d="M1444.482 692 L1444.482 195.647 L1481.148 195.647 L1481.148 692 Z" fill="#9fc3f5"/>
  <path d="M1486.273 692 L1486.273 181.682 L1522.940 181.682 L1522.940 692 Z" fill="#9fc3f5"/>
  <path d="M1528.066 692 L1528.066 168.640 L1564.732 168.640 L1564.732 692 Z" fill="#9fc3f5"/>
  <path d="M1569.857 692 L1569.857 156.585 L1606.524 156.585 L1606.524 692 Z" fill="#9fc3f5"/>
  <path d="M1611.649 692 L1611.649 145.574 L1648.315 145.574 L1648.315 692 Z" fill="#9fc3f5"/>
  <path d="M1653.441 692 L1653.441 135.659 L1690.108 135.659 L1690.108 692 Z" fill="#9fc3f5"/>
  <path d="M1695.232 692 L1695.232 126.886 L1731.899 126.886 L1731.899 692 Z" fill="#9fc3f5"/>
  <path d="M1737.025 692 L1737.025 119.293 L1773.692 119.293 L1773.692 692 Z" fill="#9fc3f5"/>
  <path d="M1778.816 692 L1778.816 112.912 L1815.483 112.912 L1815.483 692 Z" fill="#9fc3f5"/>
  <path d="M1820.609 692 L1820.609 107.769 L1857.275 107.769 L1857.275 692 Z" fill="#9fc3f5"/>
  <path d="M1862.400 692 L1862.400 103.883 L1899.067 103.883 L1899.067 692 Z" fill="#9fc3f5"/>
  <path d="M1904.193 692 L1904.193 101.263 L1940.859 101.263 L1940.859 692 Z" fill="#9fc3f5"/>
  <path d="M1945.984 692 L1945.984 99.916 L1982.651 99.916 L1982.651 692 Z" fill="#9fc3f5"/>
  <path d="M65.349 692 L65.349 639.497 L102.016 639.497 L102.016 692 Z" fill="#88ade0"/>
  <path d="M107.141 692 L107.141 640.771 L143.807 640.771 L143.807 692 Z" fill="#88ade0"/>
  <path d="M148.933 692 L148.933 640.998 L185.600 640.998 L185.600 692 Z" fill="#88ade0"/>
  <path d="M190.725 692 L190.725 640.173 L227.391 640.173 L227.391 692 Z" fill="#88ade0"/>
  <path d="M232.517 692 L232.517 638.298 L269.184 638.298 L269.184 692 Z" fill="#88ade0"/>
  <path d="M274.308 692 L274.308 635.382 L310.975 635.382 L310.975 692 Z" fill="#88ade0"/>
  <path d="M316.101 692 L316.101 631.438 L352.768 631.438 L352.768 692 Z" fill="#88ade0"/>
  <path d="M357.892 692 L357.892 626.488 L394.559 626.488 L394.559 692 Z" fill="#88ade0"/>
  <path d="M399.685 692 L399.685 620.557 L436.351 620.557 L436.351 692 Z" fill="#88ade0"/>
  <path d="M441.476 692 L441.476 613.677 L478.143 613.677 L478.143 692 Z" fill="#88ade0"/>
  <path d="M483.268 692 L483.268 605.888 L519.934 605.888 L519.934 692 Z" fill="#88ade0"/>
  <path d="M525.060 692 L525.060 597.230 L561.727 597.230 L561.727 692 Z" fill="#88ade0"/>
  <path d="M566.852 692 L566.852 587.754 L603.518 587.754 L603.518 692 Z" fill="#88ade0"/>
  <path d="M608.644 692 L608.644 577.512 L645.311 577.512 L645.311 692 Z" fill="#88ade0"/>
  <path d="M650.435 692 L650.435 566.562 L687.102 566.562 L687.102 692 Z" fill="#88ade0"/>
  <path d="M692.228 692 L692.228 554.964 L728.894 554.964 L728.894 692 Z" fill="#88ade0"/>
  <path d="M734.019 692 L734.019 542.786 L770.686 542.786 L770.686 692 Z" fill="#88ade0"/>
  <path d="M775.812 692 L775.812 530.094 L812.478 530.094 L812.478 692 Z" fill="#88ade0"/>
  <path d="M817.603 692 L817.603 516.962 L854.270 516.962 L854.270 692 Z" fill="#88ade0"/>
  <path d="M859.395 692 L859.395 503.463 L896.061 503.463 L896.061 692 Z" fill="#88ade0"/>
  <path d="M901.187 692 L901.187 489.673 L937.854 489.673 L937.854 692 Z" fill="#88ade0"/>
  <path d="M942.979 692 L942.979 475.670 L979.645 475.670 L979.645 692 Z" fill="#88ade0"/>
  <path d="M984.771 692 L984.771 461.533 L1021.438 461.533 L1021.438 692 Z" fill="#88ade0"/>
  <path d="M1026.562 692 L1026.562 447.341 L1063.229 447.341 L1063.229 692 Z" fill="#88ade0"/>
  <path d="M1068.355 692 L1068.355 433.173 L1105.021 433.173 L1105.021 692 Z" fill="#88ade0"/>
  <path d="M1110.146 692 L1110.146 419.109 L1146.813 419.109 L1146.813 692 Z" fill="#88ade0"/>
  <path d="M1151.939 692 L1151.939 405.225 L1188.605 405.225 L1188.605 692 Z" fill="#88ade0"/>
  <path d="M1193.730 692 L1193.730 391.600 L1230.397 391.600 L1230.397 692 Z" fill="#88ade0"/>
  <path d="M1235.522 692 L1235.522 378.308 L1272.188 378.308 L1272.188 692 Z" fill="#88ade0"/>
  <path d="M1277.314 692 L1277.314 365.422 L1313.981 365.422 L1313.981 692 Z" fill="#88ade0"/>
  <path d="M1319.106 692 L1319.106 353.011 L1355.772 353.011 L1355.772 692 Z" fill="#88ade0"/>
  <path d="M1360.898 692 L1360.898 341.143 L1397.565 341.143 L1397.565 692 Z" fill="#88ade0"/>
  <path d="M1402.689 692 L1402.689 329.881 L1439.356 329.881 L1439.356 692 Z" fill="#88ade0"/>
  <path d="M1444.482 692 L1444.482 319.284 L1481.148 319.284 L1481.148 692 Z" fill="#88ade0"/>
  <path d="M1486.273 692 L1486.273 309.408 L1522.940 309.408 L1522.940 692 Z" fill="#88ade0"/>
  <path d="M1528.066 692 L1528.066 300.304 L1564.732 300.304 L1564.732 692 Z" fill="#88ade0"/>
  <path d="M1569.857 692 L1569.857 292.017 L1606.524 292.017 L1606.524 692 Z" fill="#88ade0"/>
  <path d="M1611.649 692 L1611.649 284.589 L1648.315 284.589 L1648.315 692 Z" fill="#88ade0"/>
  <path d="M1653.441 692 L1653.441 278.055 L1690.108 278.055 L1690.108 692 Z" fill="#88ade0"/>
  <path d="M1695.232 692 L1695.232 272.446 L1731.899 272.446 L1731.899 692 Z" fill="#88ade0"/>
  <path d="M1737.025 692 L1737.025 267.787 L1773.692 267.787 L1773.692 692 Z" fill="#88ade0"/>
  <path d="M1778.816 692 L1778.816 264.096 L1815.483 264.096 L1815.483 692 Z" fill="#88ade0"/>
  <path d="M1820.609 692 L1820.609 261.387 L1857.275 261.387 L1857.275 692 Z" fill="#88ade0"/>
  <path d="M1862.400 692 L1862.400 259.668 L1899.067 259.668 L1899.067 692 Z" fill="#88ade0"/>
  <path d="M1904.193 692 L1904.193 258.940 L1940.859 258.940 L1940.859 692 Z" fill="#88ade0"/>
  <path d="M1945.984 692 L1945.984 259.200 L1982.651 259.200 L1982.651 692 Z" fill="#88ade0"/>
  <path d="M65.349 692 L65.349 665.014 L102.016 665.014 L102.016 692 Z" fill="#6393c9"/>
  <path d="M107.141 692 L107.141 665.610 L143.807 665.610 L143.807 692 Z" fill="#6393c9"/>
  <path d="M148.933 692 L148.933 665.465 L185.600 665.465 L185.600 692 Z" fill="#6393c9"/>
  <path d="M190.725 692 L190.725 664.575 L227.391 664.575 L227.391 692 Z" fill="#6393c9"/>
  <path d="M232.517 692 L232.517 662.943 L269.184 662.943 L269.184 692 Z" fill="#6393c9"/>
  <path d="M274.308 692 L274.308 660.576 L310.975 660.576 L310.975 692 Z" fill="#6393c9"/>
  <path d="M316.101 692 L316.101 657.485 L352.768 657.485 L352.768 692 Z" fill="#6393c9"/>
  <path d="M357.892 692 L357.892 653.688 L394.559 653.688 L394.559 692 Z" fill="#6393c9"/>
  <path d="M399.685 692 L399.685 649.205 L436.351 649.205 L436.351 692 Z" fill="#6393c9"/>
  <path d="M441.476 692 L441.476 644.063 L478.143 644.063 L478.143 692 Z" fill="#6393c9"/>
  <path d="M483.268 692 L483.268 638.291 L519.934 638.291 L519.934 692 Z" fill="#6393c9"/>
  <path d="M525.060 692 L525.060 631.924 L561.727 631.924 L561.727 692 Z" fill="#6393c9"/>
  <path d="M566.852 692 L566.852 625.000 L603.518 625.000 L603.518 692 Z" fill="#6393c9"/>
  <path d="M608.644 692 L608.644 617.560 L645.311 617.560 L645.311 692 Z" fill="#6393c9"/>
  <path d="M650.435 692 L650.435 609.649 L687.102 609.649 L687.102 692 Z" fill="#6393c9"/>
  <path d="M692.228 692 L692.228 601.317 L728.894 601.317 L728.894 692 Z" fill="#6393c9"/>
  <path d="M734.019 692 L734.019 592.613 L770.686 592.613 L770.686 692 Z" fill="#6393c9"/>
  <path d="M775.812 692 L775.812 583.591 L812.478 583.591 L812.478 692 Z" fill="#6393c9"/>
  <path d="M817.603 692 L817.603 574.306 L854.270 574.306 L854.270 692 Z" fill="#6393c9"/>
  <path d="M859.395 692 L859.395 564.816 L896.061 564.816 L896.061 692 Z" fill="#6393c9"/>
  <path d="M901.187 692 L901.187 555.178 L937.854 555.178 L937.854 692 Z" fill="#6393c9"/>
  <path d="M942.979 692 L942.979 545.452 L979.645 545.452 L979.645 692 Z" fill="#6393c9"/>
  <path d="M984.771 692 L984.771 535.698 L1021.438 535.698 L1021.438 692 Z" fill="#6393c9"/>
  <path d="M1026.562 692 L1026.562 525.975 L1063.229 525.975 L1063.229 692 Z" fill="#6393c9"/>
  <path d="M1068.355 692 L1068.355 516.343 L1105.021 516.343 L1105.021 692 Z" fill="#6393c9"/>
  <path d="M1110.146 692 L1110.146 506.860 L1146.813 506.860 L1146.813 692 Z" fill="#6393c9"/>
  <path d="M1151.939 692 L1151.939 497.585 L1188.605 497.585 L1188.605 692 Z" fill="#6393c9"/>
  <path d="M1193.730 692 L1193.730 488.574 L1230.397 488.574 L1230.397 692 Z" fill="#6393c9"/>
  <path d="M1235.522 692 L1235.522 479.881 L1272.188 479.881 L1272.188 692 Z" fill="#6393c9"/>
  <path d="M1277.314 692 L1277.314 471.558 L1313.981 471.558 L1313.981 692 Z" fill="#6393c9"/>
  <path d="M1319.106 692 L1319.106 463.656 L1355.772 463.656 L1355.772 692 Z" fill="#6393c9"/>
  <path d="M1360.898 692 L1360.898 456.220 L1397.565 456.220 L1397.565 692 Z" fill="#6393c9"/>
  <path d="M1402.689 692 L1402.689 449.295 L1439.356 449.295 L1439.356 692 Z" fill="#6393c9"/>
  <path d="M1444.482 692 L1444.482 442.921 L1481.148 442.921 L1481.148 692 Z" fill="#6393c9"/>
  <path d="M1486.273 692 L1486.273 437.134 L1522.940 437.134 L1522.940 692 Z" fill="#6393c9"/>
  <path d="M1528.066 692 L1528.066 431.967 L1564.732 431.967 L1564.732 692 Z" fill="#6393c9"/>
  <path d="M1569.857 692 L1569.857 427.449 L1606.524 427.449 L1606.524 692 Z" fill="#6393c9"/>
  <path d="M1611.649 692 L1611.649 423.604 L1648.315 423.604 L1648.315 692 Z" fill="#6393c9"/>
  <path d="M1653.441 692 L1653.441 420.451 L1690.108 420.451 L1690.108 692 Z" fill="#6393c9"/>
  <path d="M1695.232 692 L1695.232 418.006 L1731.899 418.006 L1731.899 692 Z" fill="#6393c9"/>
  <path d="M1737.025 692 L1737.025 416.281 L1773.692 416.281 L1773.692 692 Z" fill="#6393c9"/>
  <path d="M1778.816 692 L1778.816 415.280 L1815.483 415.280 L1815.483 692 Z" fill="#6393c9"/>
  <path d="M1820.609 692 L1820.609 415.005 L1857.275 415.005 L1857.275 692 Z" fill="#6393c9"/>
  <path d="M1862.400 692 L1862.400 415.453 L1899.067 415.453 L1899.067 692 Z" fill="#6393c9"/>
  <path d="M1904.193 692 L1904.193 416.617 L1940.859 416.617 L1940.859 692 Z" fill="#6393c9"/>
  <path d="M1945.984 692 L1945.984 418.483 L1982.651 418.483 L1982.651 692 Z" fill="#6393c9"/>
  <path d="M65.349 692 L65.349 666.483 L102.016 666.483 L102.016 692 Z" fill="#4c7bb0"/>
  <path d="M107.141 692 L107.141 667.161 L143.807 667.161 L143.807 692 Z" fill="#4c7bb0"/>
  <path d="M148.933 692 L148.933 667.533 L185.600 667.533 L185.600 692 Z" fill="#4c7bb0"/>
  <path d="M190.725 692 L190.725 667.598 L227.391 667.598 L227.391 692 Z" fill="#4c7bb0"/>
  <path d="M232.517 692 L232.517 667.355 L269.184 667.355 L269.184 692 Z" fill="#4c7bb0"/>
  <path d="M274.308 692 L274.308 666.806 L310.975 666.806 L310.975 692 Z" fill="#4c7bb0"/>
  <path d="M316.101 692 L316.101 665.953 L352.768 665.953 L352.768 692 Z" fill="#4c7bb0"/>
  <path d="M357.892 692 L357.892 664.800 L394.559 664.800 L394.559 692 Z" fill="#4c7bb0"/>
  <path d="M399.685 692 L399.685 663.351 L436.351 663.351 L436.351 692 Z" fill="#4c7bb0"/>
  <path d="M441.476 692 L441.476 661.614 L478.143 661.614 L478.143 692 Z" fill="#4c7bb0"/>
  <path d="M483.268 692 L483.268 659.596 L519.934 659.596 L519.934 692 Z" fill="#4c7bb0"/>
  <path d="M525.060 692 L525.060 657.306 L561.727 657.306 L561.727 692 Z" fill="#4c7bb0"/>
  <path d="M566.852 692 L566.852 654.755 L603.518 654.755 L603.518 692 Z" fill="#4c7bb0"/>
  <path d="M608.644 692 L608.644 651.952 L645.311 651.952 L645.311 692 Z" fill="#4c7bb0"/>
  <path d="M650.435 692 L650.435 648.912 L687.102 648.912 L687.102 692 Z" fill="#4c7bb0"/>
  <path d="M692.228 692 L692.228 645.648 L728.894 645.648 L728.894 692 Z" fill="#4c7bb0"/>
  <path d="M734.019 692 L734.019 642.173 L770.686 642.173 L770.686 692 Z" fill="#4c7bb0"/>
  <path d="M775.812 692 L775.812 638.504 L812.478 638.504 L812.478 692 Z" fill="#4c7bb0"/>
  <path d="M817.603 692 L817.603 634.656 L854.270 634.656 L854.270 692 Z" fill="#4c7bb0"/>
  <path d="M859.395 692 L859.395 630.648 L896.061 630.648 L896.061 692 Z" fill="#4c7bb0"/>
  <path d="M901.187 692 L901.187 626.496 L937.854 626.496 L937.854 692 Z" fill="#4c7bb0"/>
  <path d="M942.979 692 L942.979 622.219 L979.645 622.219 L979.645 692 Z" fill="#4c7bb0"/>
  <path d="M984.771 692 L984.771 617.836 L1021.438 617.836 L1021.438 692 Z" fill="#4c7bb0"/>
  <path d="M1026.562 692 L1026.562 613.367 L1063.229 613.367 L1063.229 692 Z" fill="#4c7bb0"/>
  <path d="M1068.355 692 L1068.355 608.831 L1105.021 608.831 L1105.021 692 Z" fill="#4c7bb0"/>
  <path d="M1110.146 692 L1110.146 604.248 L1146.813 604.248 L1146.813 692 Z" fill="#4c7bb0"/>
  <path d="M1151.939 692 L1151.939 599.640 L1188.605 599.640 L1188.605 692 Z" fill="#4c7bb0"/>
  <path d="M1193.730 692 L1193.730 595.026 L1230.397 595.026 L1230.397 692 Z" fill="#4c7bb0"/>
  <path d="M1235.522 692 L1235.522 590.427 L1272.188 590.427 L1272.188 692 Z" fill="#4c7bb0"/>
  <path d="M1277.314 692 L1277.314 585.864 L1313.981 585.864 L1313.981 692 Z" fill="#4c7bb0"/>
  <path d="M1319.106 692 L1319.106 581.355 L1355.772 581.355 L1355.772 692 Z" fill="#4c7bb0"/>
  <path d="M1360.898 692 L1360.898 576.923 L1397.565 576.923 L1397.565 692 Z" fill="#4c7bb0"/>
  <path d="M1402.689 692 L1402.689 572.586 L1439.356 572.586 L1439.356 692 Z" fill="#4c7bb0"/>
  <path d="M1444.482 692 L1444.482 568.363 L1481.148 568.363 L1481.148 692 Z" fill="#4c7bb0"/>
  <path d="M1486.273 692 L1486.273 564.274 L1522.940 564.274 L1522.940 692 Z" fill="#4c7bb0"/>
  <path d="M1528.066 692 L1528.066 560.337 L1564.732 560.337 L1564.732 692 Z" fill="#4c7bb0"/>
  <path d="M1569.857 692 L1569.857 556.568 L1606.524 556.568 L1606.524 692 Z" fill="#4c7bb0"/>
  <path d="M1611.649 692 L1611.649 552.985 L1648.315 552.985 L1648.315 692 Z" fill="#4c7bb0"/>
  <path d="M1653.441 692 L1653.441 549.604 L1690.108 549.604 L1690.108 692 Z" fill="#4c7bb0"/>
  <path d="M1695.232 692 L1695.232 546.440 L1731.899 546.440 L1731.899 692 Z" fill="#4c7bb0"/>
  <path d="M1737.025 692 L1737.025 543.506 L1773.692 543.506 L1773.692 692 Z" fill="#4c7bb0"/>
  <path d="M1778.816 692 L1778.816 540.816 L1815.483 540.816 L1815.483 692 Z" fill="#4c7bb0"/>
  <path d="M1820.609 692 L1820.609 538.382 L1857.275 538.382 L1857.275 692 Z" fill="#4c7bb0"/>
  <path d="M1862.400 692 L1862.400 536.215 L1899.067 536.215 L1899.067 692 Z" fill="#4c7bb0"/>
  <path d="M1904.193 692 L1904.193 534.323 L1940.859 534.323 L1940.859 692 Z" fill="#4c7bb0"/>
  <path d="M1945.984 692 L1945.984 532.716 L1982.651 532.716 L1982.651 692 Z" fill="#4c7bb0"/>
  <path d="M146.089 114.667 L135.823 87.667 L139.620 87.667 L146.510 106.839 Q147.339 109.151 147.901 111.167 Q148.510 109.010 149.323 106.839 L156.479 87.667 L160.057 87.667 L149.682 114.667 L146.089 114.667 Z"/>
  <path d="M173.714 112.667 Q171.917 113.760 170.245 114.214 Q168.573 114.667 166.667 114.667 Q163.495 114.667 161.799 113.073 Q160.104 111.479 160.104 109.010 Q160.104 107.557 160.745 106.354 Q161.385 105.151 162.424 104.424 Q163.464 103.698 164.760 103.323 Q165.714 103.057 167.651 102.823 Q171.589 102.339 173.448 101.667 Q173.464 101.104 173.464 100.948 Q173.464 99.276 172.542 98.589 Q171.292 97.667 168.839 97.667 Q166.542 97.667 165.456 98.331 Q164.370 98.995 163.839 100.667 L160.651 100.667 Q161.089 98.589 162.081 97.315 Q163.073 96.042 164.948 95.354 Q166.823 94.667 169.307 94.667 Q171.760 94.667 173.299 95.260 Q174.839 95.854 175.557 96.753 Q176.276 97.651 176.573 99.026 Q176.729 99.885 176.729 101.932 L176.729 106.010 Q176.729 110.292 176.940 111.792 Q177.151 113.292 177.760 114.667 L174.370 114.667 Q173.854 113.807 173.714 112.667 Z M173.448 104.667 Q171.682 105.339 168.135 105.807 Q166.135 106.073 165.307 106.417 Q164.479 106.760 164.026 107.401 Q163.573 108.042 163.573 108.839 Q163.573 110.057 164.557 110.862 Q165.542 111.667 167.432 111.667 Q169.323 111.667 170.784 110.854 Q172.245 110.042 172.932 108.729 Q173.448 107.729 173.448 105.760 L173.448 104.667 Z"/>
  <path d="M180.198 114.667 L180.198 94.667 L183.120 94.667 L183.120 97.651 Q184.245 95.823 185.190 95.245 Q186.135 94.667 187.276 94.667 Q188.917 94.667 190.620 95.292 L189.495 98.307 Q188.307 97.667 187.120 97.667 Q186.057 97.667 185.206 98.339 Q184.354 99.010 183.995 100.198 Q183.448 102.010 183.448 104.167 L183.448 114.667 L180.198 114.667 Z"/>
  <path d="M192.464 90.667 L192.464 87.667 L195.714 87.667 L195.714 90.667 L192.464 90.667 Z M192.464 114.667 L192.464 94.667 L195.714 94.667 L195.714 114.667 L192.464 114.667 Z"/>
  <path d="M213.104 112.667 Q211.307 113.760 209.635 114.214 Q207.964 114.667 206.057 114.667 Q202.885 114.667 201.190 113.073 Q199.495 111.479 199.495 109.010 Q199.495 107.557 200.135 106.354 Q200.776 105.151 201.815 104.424 Q202.854 103.698 204.151 103.323 Q205.104 103.057 207.042 102.823 Q210.979 102.339 212.839 101.667 Q212.854 101.104 212.854 100.948 Q212.854 99.276 211.932 98.589 Q210.682 97.667 208.229 97.667 Q205.932 97.667 204.846 98.331 Q203.760 98.995 203.229 100.667 L200.042 100.667 Q200.479 98.589 201.471 97.315 Q202.464 96.042 204.339 95.354 Q206.214 94.667 208.698 94.667 Q211.151 94.667 212.690 95.260 Q214.229 95.854 214.948 96.753 Q215.667 97.651 215.964 99.026 Q216.120 99.885 216.120 101.932 L216.120 106.010 Q216.120 110.292 216.331 111.792 Q216.542 113.292 217.151 114.667 L213.760 114.667 Q213.245 113.807 213.104 112.667 Z M212.839 104.667 Q211.073 105.339 207.526 105.807 Q205.526 106.073 204.698 106.417 Q203.870 106.760 203.417 107.401 Q202.964 108.042 202.964 108.839 Q202.964 110.057 203.948 110.862 Q204.932 111.667 206.823 111.667 Q208.714 111.667 210.174 110.854 Q211.635 110.042 212.323 108.729 Q212.839 107.729 212.839 105.760 L212.839 104.667 Z"/>
  <path d="M223.979 114.667 L220.964 114.667 L220.964 87.667 L224.214 87.667 L224.214 97.573 Q226.276 94.667 229.479 94.667 Q231.245 94.667 232.823 95.378 Q234.401 96.089 235.424 97.378 Q236.448 98.667 237.026 100.487 Q237.604 102.307 237.604 104.385 Q237.604 109.292 235.167 111.979 Q232.729 114.667 229.307 114.667 Q225.917 114.667 223.979 111.479 L223.979 114.667 Z M223.948 104.526 Q223.948 107.807 224.885 109.276 Q226.417 111.667 229.042 111.667 Q231.167 111.667 232.721 109.901 Q234.276 108.135 234.276 104.651 Q234.276 101.073 232.784 99.370 Q231.292 97.667 229.182 97.667 Q227.057 97.667 225.503 99.432 Q223.948 101.198 223.948 104.526 Z"/>
  <path d="M241.292 114.667 L241.292 87.667 L244.557 87.667 L244.557 114.667 L241.292 114.667 Z"/>
  <path d="M262.651 108.667 L266.010 108.667 Q265.214 111.510 263.065 113.089 Q260.917 114.667 257.573 114.667 Q253.370 114.667 250.901 112.081 Q248.432 109.495 248.432 104.823 Q248.432 99.995 250.924 97.331 Q253.417 94.667 257.401 94.667 Q261.245 94.667 263.682 97.323 Q266.120 99.979 266.120 104.792 Q266.120 105.089 266.104 105.667 L251.792 105.667 Q251.979 108.573 253.581 110.120 Q255.182 111.667 257.589 111.667 Q259.385 111.667 260.651 110.948 Q261.917 110.229 262.651 108.667 Z M251.964 102.667 L262.682 102.667 Q262.464 100.464 261.448 99.370 Q259.901 97.667 257.417 97.667 Q255.182 97.667 253.651 99.026 Q252.120 100.385 251.964 102.667 Z"/>
  <path d=""/>
  <path d="M280.510 114.667 L280.510 87.667 L289.635 87.667 Q292.714 87.667 294.339 88.057 Q296.620 88.589 298.229 89.995 Q300.323 91.792 301.362 94.604 Q302.401 97.417 302.401 101.026 Q302.401 104.089 301.698 106.471 Q300.995 108.854 299.893 110.409 Q298.792 111.964 297.479 112.854 Q296.167 113.745 294.315 114.206 Q292.464 114.667 290.057 114.667 L280.510 114.667 Z M284.010 111.667 L289.667 111.667 Q292.292 111.667 293.776 111.159 Q295.260 110.651 296.151 109.729 Q297.401 108.448 298.096 106.260 Q298.792 104.073 298.792 100.964 Q298.792 96.651 297.424 94.331 Q296.057 92.010 294.104 91.229 Q292.698 90.667 289.573 90.667 L284.010 90.667 L284.010 111.667 Z"/>
  <path d="M100.833 115.417 C93.239 115.417 87.083 109.261 87.083 101.667 C87.083 94.073 93.239 87.917 100.833 87.917 C108.427 87.917 114.583 94.073 114.583 101.667 C114.583 109.261 108.427 115.417 100.833 115.417 Z" fill="#9fc3f5"/>
  <path d="M146.089 167.667 L135.823 140.667 L139.620 140.667 L146.510 159.839 Q147.339 162.151 147.901 164.167 Q148.510 162.010 149.323 159.839 L156.479 140.667 L160.057 140.667 L149.682 167.667 L146.089 167.667 Z"/>
  <path d="M173.714 165.667 Q171.917 166.760 170.245 167.214 Q168.573 167.667 166.667 167.667 Q163.495 167.667 161.799 166.073 Q160.104 164.479 160.104 162.010 Q160.104 160.557 160.745 159.354 Q161.385 158.151 162.424 157.424 Q163.464 156.698 164.760 156.323 Q165.714 156.057 167.651 155.823 Q171.589 155.339 173.448 154.667 Q173.464 154.104 173.464 153.948 Q173.464 152.276 172.542 151.589 Q171.292 150.667 168.839 150.667 Q166.542 150.667 165.456 151.331 Q164.370 151.995 163.839 153.667 L160.651 153.667 Q161.089 151.589 162.081 150.315 Q163.073 149.042 164.948 148.354 Q166.823 147.667 169.307 147.667 Q171.760 147.667 173.299 148.260 Q174.839 148.854 175.557 149.753 Q176.276 150.651 176.573 152.026 Q176.729 152.885 176.729 154.932 L176.729 159.010 Q176.729 163.292 176.940 164.792 Q177.151 166.292 177.760 167.667 L174.370 167.667 Q173.854 166.807 173.714 165.667 Z M173.448 157.667 Q171.682 158.339 168.135 158.807 Q166.135 159.073 165.307 159.417 Q164.479 159.760 164.026 160.401 Q163.573 161.042 163.573 161.839 Q163.573 163.057 164.557 163.862 Q165.542 164.667 167.432 164.667 Q169.323 164.667 170.784 163.854 Q172.245 163.042 172.932 161.729 Q173.448 160.729 173.448 158.760 L173.448 157.667 Z"/>
  <path d="M180.198 167.667 L180.198 147.667 L183.120 147.667 L183.120 150.651 Q184.245 148.823 185.190 148.245 Q186.135 147.667 187.276 147.667 Q188.917 147.667 190.620 148.292 L189.495 151.307 Q188.307 150.667 187.120 150.667 Q186.057 150.667 185.206 151.339 Q184.354 152.010 183.995 153.198 Q183.448 155.010 183.448 157.167 L183.448 167.667 L180.198 167.667 Z"/>
  <path d="M192.464 143.667 L192.464 140.667 L195.714 140.667 L195.714 143.667 L192.464 143.667 Z M192.464 167.667 L192.464 147.667 L195.714 147.667 L195.714 167.667 L192.464 167.667 Z"/>
  <path d="M213.104 165.667 Q211.307 166.760 209.635 167.214 Q207.964 167.667 206.057 167.667 Q202.885 167.667 201.190 166.073 Q199.495 164.479 199.495 162.010 Q199.495 160.557 200.135 159.354 Q200.776 158.151 201.815 157.424 Q202.854 156.698 204.151 156.323 Q205.104 156.057 207.042 155.823 Q210.979 155.339 212.839 154.667 Q212.854 154.104 212.854 153.948 Q212.854 152.276 211.932 151.589 Q210.682 150.667 208.229 150.667 Q205.932 150.667 204.846 151.331 Q203.760 151.995 203.229 153.667 L200.042 153.667 Q200.479 151.589 201.471 150.315 Q202.464 149.042 204.339 148.354 Q206.214 147.667 208.698 147.667 Q211.151 147.667 212.690 148.260 Q214.229 148.854 214.948 149.753 Q215.667 150.651 215.964 152.026 Q216.120 152.885 216.120 154.932 L216.120 159.010 Q216.120 163.292 216.331 164.792 Q216.542 166.292 217.151 167.667 L213.760 167.667 Q213.245 166.807 213.104 165.667 Z M212.839 157.667 Q211.073 158.339 207.526 158.807 Q205.526 159.073 204.698 159.417 Q203.870 159.760 203.417 160.401 Q202.964 161.042 202.964 161.839 Q202.964 163.057 203.948 163.862 Q204.932 164.667 206.823 164.667 Q208.714 164.667 210.174 163.854 Q211.635 163.042 212.323 161.729 Q212.839 160.729 212.839 158.760 L212.839 157.667 Z"/>
  <path d="M223.979 167.667 L220.964 167.667 L220.964 140.667 L224.214 140.667 L224.214 150.573 Q226.276 147.667 229.479 147.667 Q231.245 147.667 232.823 148.378 Q234.401 149.089 235.424 150.378 Q236.448 151.667 237.026 153.487 Q237.604 155.307 237.604 157.385 Q237.604 162.292 235.167 164.979 Q232.729 167.667 229.307 167.667 Q225.917 167.667 223.979 164.479 L223.979 167.667 Z M223.948 157.526 Q223.948 160.807 224.885 162.276 Q226.417 164.667 229.042 164.667 Q231.167 164.667 232.721 162.901 Q234.276 161.135 234.276 157.651 Q234.276 154.073 232.784 152.370 Q231.292 150.667 229.182 150.667 Q227.057 150.667 225.503 152.432 Q223.948 154.198 223.948 157.526 Z"/>
  <path d="M241.292 167.667 L241.292 140.667 L244.557 140.667 L244.557 167.667 L241.292 167.667 Z"/>
  <path d="M262.651 161.667 L266.010 161.667 Q265.214 164.510 263.065 166.089 Q260.917 167.667 257.573 167.667 Q253.370 167.667 250.901 165.081 Q248.432 162.495 248.432 157.823 Q248.432 152.995 250.924 150.331 Q253.417 147.667 257.401 147.667 Q261.245 147.667 263.682 150.323 Q266.120 152.979 266.120 157.792 Q266.120 158.089 266.104 158.667 L251.792 158.667 Q251.979 161.573 253.581 163.120 Q255.182 164.667 257.589 164.667 Q259.385 164.667 260.651 163.948 Q261.917 163.229 262.651 161.667 Z M251.964 155.667 L262.682 155.667 Q262.464 153.464 261.448 152.370 Q259.901 150.667 257.417 150.667 Q255.182 150.667 253.651 152.026 Q252.120 153.385 251.964 155.667 Z"/>
  <path d=""/>
  <path d="M299.401 158.057 L302.901 158.917 Q301.792 163.182 298.932 165.424 Q296.073 167.667 291.932 167.667 Q287.651 167.667 284.971 165.948 Q282.292 164.229 280.893 160.971 Q279.495 157.714 279.495 153.964 Q279.495 149.885 281.073 146.854 Q282.651 143.823 285.573 142.245 Q288.495 140.667 291.995 140.667 Q295.979 140.667 298.690 142.667 Q301.401 144.667 302.464 148.292 L299.010 149.089 Q298.089 146.260 296.339 144.964 Q294.589 143.667 291.932 143.667 Q288.870 143.667 286.815 145.104 Q284.760 146.542 283.932 148.964 Q283.104 151.385 283.104 153.948 Q283.104 157.276 284.089 159.745 Q285.073 162.214 287.151 163.440 Q289.229 164.667 291.651 164.667 Q294.589 164.667 296.635 163.003 Q298.682 161.339 299.401 158.057 Z"/>
  <path d="M100.833 168.417 C93.239 168.417 87.083 162.261 87.083 154.667 C87.083 147.073 93.239 140.917 100.833 140.917 C108.427 140.917 114.583 147.073 114.583 154.667 C114.583 162.261 108.427 168.417 100.833 168.417 Z" fill="#88ade0"/>
  <path d="M146.089 220.667 L135.823 193.667 L139.620 193.667 L146.510 212.839 Q147.339 215.151 147.901 217.167 Q148.510 215.010 149.323 212.839 L156.479 193.667 L160.057 193.667 L149.682 220.667 L146.089 220.667 Z"/>
  <path d="M173.714 218.667 Q171.917 219.760 170.245 220.214 Q168.573 220.667 166.667 220.667 Q163.495 220.667 161.799 219.073 Q160.104 217.479 160.104 215.010 Q160.104 213.557 160.745 212.354 Q161.385 211.151 162.424 210.424 Q163.464 209.698 164.760 209.323 Q165.714 209.057 167.651 208.823 Q171.589 208.339 173.448 207.667 Q173.464 207.104 173.464 206.948 Q173.464 205.276 172.542 204.589 Q171.292 203.667 168.839 203.667 Q166.542 203.667 165.456 204.331 Q164.370 204.995 163.839 206.667 L160.651 206.667 Q161.089 204.589 162.081 203.315 Q163.073 202.042 164.948 201.354 Q166.823 200.667 169.307 200.667 Q171.760 200.667 173.299 201.260 Q174.839 201.854 175.557 202.753 Q176.276 203.651 176.573 205.026 Q176.729 205.885 176.729 207.932 L176.729 212.010 Q176.729 216.292 176.940 217.792 Q177.151 219.292 177.760 220.667 L174.370 220.667 Q173.854 219.807 173.714 218.667 Z M173.448 210.667 Q171.682 211.339 168.135 211.807 Q166.135 212.073 165.307 212.417 Q164.479 212.760 164.026 213.401 Q163.573 214.042 163.573 214.839 Q163.573 216.057 164.557 216.862 Q165.542 217.667 167.432 217.667 Q169.323 217.667 170.784 216.854 Q172.245 216.042 172.932 214.729 Q173.448 213.729 173.448 211.760 L173.448 210.667 Z"/>
  <path d="M180.198 220.667 L180.198 200.667 L183.120 200.667 L183.120 203.651 Q184.245 201.823 185.190 201.245 Q186.135 200.667 187.276 200.667 Q188.917 200.667 190.620 201.292 L189.495 204.307 Q188.307 203.667 187.120 203.667 Q186.057 203.667 185.206 204.339 Q184.354 205.010 183.995 206.198 Q183.448 208.010 183.448 210.167 L183.448 220.667 L180.198 220.667 Z"/>
  <path d="M192.464 196.667 L192.464 193.667 L195.714 193.667 L195.714 196.667 L192.464 196.667 Z M192.464 220.667 L192.464 200.667 L195.714 200.667 L195.714 220.667 L192.464 220.667 Z"/>
  <path d="M213.104 218.667 Q211.307 219.760 209.635 220.214 Q207.964 220.667 206.057 220.667 Q202.885 220.667 201.190 219.073 Q199.495 217.479 199.495 215.010 Q199.495 213.557 200.135 212.354 Q200.776 211.151 201.815 210.424 Q202.854 209.698 204.151 209.323 Q205.104 209.057 207.042 208.823 Q210.979 208.339 212.839 207.667 Q212.854 207.104 212.854 206.948 Q212.854 205.276 211.932 204.589 Q210.682 203.667 208.229 203.667 Q205.932 203.667 204.846 204.331 Q203.760 204.995 203.229 206.667 L200.042 206.667 Q200.479 204.589 201.471 203.315 Q202.464 202.042 204.339 201.354 Q206.214 200.667 208.698 200.667 Q211.151 200.667 212.690 201.260 Q214.229 201.854 214.948 202.753 Q215.667 203.651 215.964 205.026 Q216.120 205.885 216.120 207.932 L216.120 212.010 Q216.120 216.292 216.331 217.792 Q216.542 219.292 217.151 220.667 L213.760 220.667 Q213.245 219.807 213.104 218.667 Z M212.839 210.667 Q211.073 211.339 207.526 211.807 Q205.526 212.073 204.698 212.417 Q203.870 212.760 203.417 213.401 Q202.964 214.042 202.964 214.839 Q202.964 216.057 203.948 216.862 Q204.932 217.667 206.823 217.667 Q208.714 217.667 210.174 216.854 Q211.635 216.042 212.323 214.729 Q212.839 213.729 212.839 211.760 L212.839 210.667 Z"/>
  <path d="M223.979 220.667 L220.964 220.667 L220.964 193.667 L224.214 193.667 L224.214 203.573 Q226.276 200.667 229.479 200.667 Q231.245 200.667 232.823 201.378 Q234.401 202.089 235.424 203.378 Q236.448 204.667 237.026 206.487 Q237.604 208.307 237.604 210.385 Q237.604 215.292 235.167 217.979 Q232.729 220.667 229.307 220.667 Q225.917 220.667 223.979 217.479 L223.979 220.667 Z M223.948 210.526 Q223.948 213.807 224.885 215.276 Q226.417 217.667 229.042 217.667 Q231.167 217.667 232.721 215.901 Q234.276 214.135 234.276 210.651 Q234.276 207.073 232.784 205.370 Q231.292 203.667 229.182 203.667 Q227.057 203.667 225.503 205.432 Q223.948 207.198 223.948 210.526 Z"/>
  <path d="M241.292 220.667 L241.292 193.667 L244.557 193.667 L244.557 220.667 L241.292 220.667 Z"/>
  <path d="M262.651 214.667 L266.010 214.667 Q265.214 217.510 263.065 219.089 Q260.917 220.667 257.573 220.667 Q253.370 220.667 250.901 218.081 Q248.432 215.495 248.432 210.823 Q248.432 205.995 250.924 203.331 Q253.417 200.667 257.401 200.667 Q261.245 200.667 263.682 203.323 Q266.120 205.979 266.120 210.792 Q266.120 211.089 266.104 211.667 L251.792 211.667 Q251.979 214.573 253.581 216.120 Q255.182 217.667 257.589 217.667 Q259.385 217.667 260.651 216.948 Q261.917 216.229 262.651 214.667 Z M251.964 208.667 L262.682 208.667 Q262.464 206.464 261.448 205.370 Q259.901 203.667 257.417 203.667 Q255.182 203.667 253.651 205.026 Q252.120 206.385 251.964 208.667 Z"/>
  <path d=""/>
  <path d="M280.354 220.667 L280.354 193.667 L290.292 193.667 Q293.323 193.667 295.159 194.510 Q296.995 195.354 298.034 197.104 Q299.073 198.854 299.073 200.776 Q299.073 202.557 298.151 204.128 Q297.229 205.698 295.370 206.667 Q297.776 207.370 299.065 209.057 Q300.354 210.745 300.354 213.042 Q300.354 214.885 299.565 216.471 Q298.776 218.057 297.620 218.924 Q296.464 219.792 294.721 220.229 Q292.979 220.667 290.448 220.667 L280.354 220.667 Z M283.870 205.667 L289.604 205.667 Q291.932 205.667 292.932 205.323 Q294.276 204.870 294.948 203.831 Q295.620 202.792 295.620 201.229 Q295.620 199.760 294.987 198.628 Q294.354 197.495 293.182 197.081 Q292.010 196.667 289.151 196.667 L283.870 196.667 L283.870 205.667 Z M283.870 217.667 L290.464 217.667 Q292.167 217.667 292.839 217.542 Q294.057 217.323 294.870 216.823 Q295.682 216.323 296.206 215.370 Q296.729 214.417 296.729 213.167 Q296.729 211.698 295.971 210.620 Q295.214 209.542 293.870 209.104 Q292.526 208.667 289.995 208.667 L283.870 208.667 L283.870 217.667 Z"/>
  <path d="M100.833 221.417 C93.239 221.417 87.083 215.261 87.083 207.667 C87.083 200.073 93.239 193.917 100.833 193.917 C108.427 193.917 114.583 200.073 114.583 207.667 C114.583 215.261 108.427 221.417 100.833 221.417 Z" fill="#6393c9"/>
  <path d="M146.089 273.667 L135.823 246.667 L139.620 246.667 L146.510 265.839 Q147.339 268.151 147.901 270.167 Q148.510 268.010 149.323 265.839 L156.479 246.667 L160.057 246.667 L149.682 273.667 L146.089 273.667 Z"/>
  <path d="M173.714 271.667 Q171.917 272.760 170.245 273.214 Q168.573 273.667 166.667 273.667 Q163.495 273.667 161.799 272.073 Q160.104 270.479 160.104 268.010 Q160.104 266.557 160.745 265.354 Q161.385 264.151 162.424 263.424 Q163.464 262.698 164.760 262.323 Q165.714 262.057 167.651 261.823 Q171.589 261.339 173.448 260.667 Q173.464 260.104 173.464 259.948 Q173.464 258.276 172.542 257.589 Q171.292 256.667 168.839 256.667 Q166.542 256.667 165.456 257.331 Q164.370 257.995 163.839 259.667 L160.651 259.667 Q161.089 257.589 162.081 256.315 Q163.073 255.042 164.948 254.354 Q166.823 253.667 169.307 253.667 Q171.760 253.667 173.299 254.260 Q174.839 254.854 175.557 255.753 Q176.276 256.651 176.573 258.026 Q176.729 258.885 176.729 260.932 L176.729 265.010 Q176.729 269.292 176.940 270.792 Q177.151 272.292 177.760 273.667 L174.370 273.667 Q173.854 272.807 173.714 271.667 Z M173.448 263.667 Q171.682 264.339 168.135 264.807 Q166.135 265.073 165.307 265.417 Q164.479 265.760 164.026 266.401 Q163.573 267.042 163.573 267.839 Q163.573 269.057 164.557 269.862 Q165.542 270.667 167.432 270.667 Q169.323 270.667 170.784 269.854 Q172.245 269.042 172.932 267.729 Q173.448 266.729 173.448 264.760 L173.448 263.667 Z"/>
  <path d="M180.198 273.667 L180.198 253.667 L183.120 253.667 L183.120 256.651 Q184.245 254.823 185.190 254.245 Q186.135 253.667 187.276 253.667 Q188.917 253.667 190.620 254.292 L189.495 257.307 Q188.307 256.667 187.120 256.667 Q186.057 256.667 185.206 257.339 Q184.354 258.010 183.995 259.198 Q183.448 261.010 183.448 263.167 L183.448 273.667 L180.198 273.667 Z"/>
  <path d="M192.464 249.667 L192.464 246.667 L195.714 246.667 L195.714 249.667 L192.464 249.667 Z M192.464 273.667 L192.464 253.667 L195.714 253.667 L195.714 273.667 L192.464 273.667 Z"/>
  <path d="M213.104 271.667 Q211.307 272.760 209.635 273.214 Q207.964 273.667 206.057 273.667 Q202.885 273.667 201.190 272.073 Q199.495 270.479 199.495 268.010 Q199.495 266.557 200.135 265.354 Q200.776 264.151 201.815 263.424 Q202.854 262.698 204.151 262.323 Q205.104 262.057 207.042 261.823 Q210.979 261.339 212.839 260.667 Q212.854 260.104 212.854 259.948 Q212.854 258.276 211.932 257.589 Q210.682 256.667 208.229 256.667 Q205.932 256.667 204.846 257.331 Q203.760 257.995 203.229 259.667 L200.042 259.667 Q200.479 257.589 201.471 256.315 Q202.464 255.042 204.339 254.354 Q206.214 253.667 208.698 253.667 Q211.151 253.667 212.690 254.260 Q214.229 254.854 214.948 255.753 Q215.667 256.651 215.964 258.026 Q216.120 258.885 216.120 260.932 L216.120 265.010 Q216.120 269.292 216.331 270.792 Q216.542 272.292 217.151 273.667 L213.760 273.667 Q213.245 272.807 213.104 271.667 Z M212.839 263.667 Q211.073 264.339 207.526 264.807 Q205.526 265.073 204.698 265.417 Q203.870 265.760 203.417 266.401 Q202.964 267.042 202.964 267.839 Q202.964 269.057 203.948 269.862 Q204.932 270.667 206.823 270.667 Q208.714 270.667 210.174 269.854 Q211.635 269.042 212.323 267.729 Q212.839 266.729 212.839 264.760 L212.839 263.667 Z"/>
  <path d="M223.979 273.667 L220.964 273.667 L220.964 246.667 L224.214 246.667 L224.214 256.573 Q226.276 253.667 229.479 253.667 Q231.245 253.667 232.823 254.378 Q234.401 255.089 235.424 256.378 Q236.448 257.667 237.026 259.487 Q237.604 261.307 237.604 263.385 Q237.604 268.292 235.167 270.979 Q232.729 273.667 229.307 273.667 Q225.917 273.667 223.979 270.479 L223.979 273.667 Z M223.948 263.526 Q223.948 266.807 224.885 268.276 Q226.417 270.667 229.042 270.667 Q231.167 270.667 232.721 268.901 Q234.276 267.135 234.276 263.651 Q234.276 260.073 232.784 258.370 Q231.292 256.667 229.182 256.667 Q227.057 256.667 225.503 258.432 Q223.948 260.198 223.948 263.526 Z"/>
  <path d="M241.292 273.667 L241.292 246.667 L244.557 246.667 L244.557 273.667 L241.292 273.667 Z"/>
  <path d="M262.651 267.667 L266.010 267.667 Q265.214 270.510 263.065 272.089 Q260.917 273.667 257.573 273.667 Q253.370 273.667 250.901 271.081 Q248.432 268.495 248.432 263.823 Q248.432 258.995 250.924 256.331 Q253.417 253.667 257.401 253.667 Q261.245 253.667 263.682 256.323 Q266.120 258.979 266.120 263.792 Q266.120 264.089 266.104 264.667 L251.792 264.667 Q251.979 267.573 253.581 269.120 Q255.182 270.667 257.589 270.667 Q259.385 270.667 260.651 269.948 Q261.917 269.229 262.651 267.667 Z M251.964 261.667 L262.682 261.667 Q262.464 259.464 261.448 258.370 Q259.901 256.667 257.417 256.667 Q255.182 256.667 253.651 258.026 Q252.120 259.385 251.964 261.667 Z"/>
  <path d=""/>
  <path d="M276.589 273.667 L286.760 246.667 L290.526 246.667 L301.370 273.667 L297.370 273.667 L294.292 265.667 L283.214 265.667 L280.307 273.667 L276.589 273.667 Z M284.229 262.667 L293.198 262.667 L290.432 255.370 Q289.167 252.026 288.557 249.667 Q288.057 252.370 287.135 254.901 L284.229 262.667 Z"/>
  <path d="M100.833 274.417 C93.239 274.417 87.083 268.261 87.083 260.667 C87.083 253.073 93.239 246.917 100.833 246.917 C108.427 246.917 114.583 253.073 114.583 260.667 C114.583 268.261 108.427 274.417 100.833 274.417 Z" fill="#4c7bb0"/>
</svg>
