<?xml version="1.0" encoding="UTF-8" ?>
<!-- Generated by clip v0.8.0 (clip-lang.org) -->
<svg xmlns="http://www.w3.org/2000/svg" width="1024" height="512">
  <rect width="1024" height="512" fill="#ffffff" fill-opacity="1"/>
  <path d="M82.431 467.600 L1009.333 467.600" fill="none" stroke="#000000" stroke-width="1.333"/>
  <path d="M82.431 467.600 L82.431 462.267" fill="none" stroke="#000000" stroke-width="1.333"/>
  <path d="M175.121 467.600 L175.121 462.267" fill="none" stroke="#000000" stroke-width="1.333"/>
  <path d="M267.812 467.600 L267.812 462.267" fill="none" stroke="#000000" stroke-width="1.333"/>
  <path d="M360.502 467.600 L360.502 462.267" fill="none" stroke="#000000" stroke-width="1.333"/>
  <path d="M453.192 467.600 L453.192 462.267" fill="none" stroke="#000000" stroke-width="1.333"/>
  <path d="M545.882 467.600 L545.882 462.267" fill="none" stroke="#000000" stroke-width="1.333"/>
  <path d="M638.573 467.600 L638.573 462.267" fill="none" stroke="#000000" stroke-width="1.333"/>
  <path d="M731.263 467.600 L731.263 462.267" fill="none" stroke="#000000" stroke-width="1.333"/>
  <path d="M823.953 467.600 L823.953 462.267" fill="none" stroke="#000000" stroke-width="1.333"/>
  <path d="M916.643 467.600 L916.643 462.267" fill="none" stroke="#000000" stroke-width="1.333"/>
  <path d="M1009.333 467.600 L1009.333 462.267" fill="none" stroke="#000000" stroke-width="1.333"/>
  <path d="M54.509 487.833 Q54.509 485.927 54.900 484.763 Q55.291 483.599 56.064 482.966 Q56.838 482.333 58.009 482.333 Q58.869 482.333 59.525 482.685 Q60.181 483.036 60.603 483.693 Q61.025 484.349 61.267 485.294 Q61.509 486.240 61.509 487.833 Q61.509 489.740 61.119 490.904 Q60.728 492.068 59.955 492.701 Q59.181 493.333 58.009 493.333 Q56.463 493.333 55.572 492.224 Q54.509 490.865 54.509 487.833 Z M55.869 487.833 Q55.869 490.536 56.486 491.435 Q57.103 492.333 58.009 492.333 Q58.916 492.333 59.533 491.435 Q60.150 490.536 60.150 487.833 Q60.150 485.115 59.533 484.224 Q58.916 483.333 57.994 483.333 Q57.088 483.333 56.541 484.115 Q55.869 485.130 55.869 487.833 Z"/>
  <path d="M62.666 490.333 L64.041 490.333 Q64.197 491.333 64.759 491.833 Q65.322 492.333 66.103 492.333 Q67.056 492.333 67.720 491.622 Q68.384 490.911 68.384 489.740 Q68.384 488.630 67.752 487.982 Q67.119 487.333 66.088 487.333 Q65.447 487.333 64.939 487.615 Q64.431 487.896 64.134 488.333 L62.900 488.333 L63.931 482.333 L69.275 482.333 L69.275 483.333 L64.994 483.333 L64.416 486.911 Q65.384 486.333 66.447 486.333 Q67.838 486.333 68.806 487.271 Q69.775 488.208 69.775 489.661 Q69.775 491.068 68.931 492.083 Q67.900 493.333 66.103 493.333 Q64.650 493.333 63.720 492.513 Q62.791 491.693 62.666 490.333 Z"/>
  <path d="M71.556 486.333 L71.556 485.333 L73.056 485.333 L73.056 486.333 L71.556 486.333 Z M71.556 493.333 L71.556 492.333 L73.056 492.333 L73.056 493.333 L71.556 493.333 Z"/>
  <path d="M79.869 493.333 L78.541 493.333 L78.541 484.755 Q78.072 485.224 77.298 485.685 Q76.525 486.146 75.916 486.380 L75.916 485.083 Q77.025 484.552 77.845 483.794 Q78.666 483.036 79.009 482.333 L79.869 482.333 L79.869 493.333 Z"/>
  <path d="M83.056 490.333 L84.431 490.333 Q84.588 491.333 85.150 491.833 Q85.713 492.333 86.494 492.333 Q87.447 492.333 88.111 491.622 Q88.775 490.911 88.775 489.740 Q88.775 488.630 88.142 487.982 Q87.509 487.333 86.478 487.333 Q85.838 487.333 85.330 487.615 Q84.822 487.896 84.525 488.333 L83.291 488.333 L84.322 482.333 L89.666 482.333 L89.666 483.333 L85.384 483.333 L84.806 486.911 Q85.775 486.333 86.838 486.333 Q88.228 486.333 89.197 487.271 Q90.166 488.208 90.166 489.661 Q90.166 491.068 89.322 492.083 Q88.291 493.333 86.494 493.333 Q85.041 493.333 84.111 492.513 Q83.181 491.693 83.056 490.333 Z"/>
  <path d="M91.947 486.333 L91.947 485.333 L93.447 485.333 L93.447 486.333 L91.947 486.333 Z M91.947 493.333 L91.947 492.333 L93.447 492.333 L93.447 493.333 L91.947 493.333 Z"/>
  <path d="M95.291 487.833 Q95.291 485.927 95.681 484.763 Q96.072 483.599 96.845 482.966 Q97.619 482.333 98.791 482.333 Q99.650 482.333 100.306 482.685 Q100.963 483.036 101.384 483.693 Q101.806 484.349 102.048 485.294 Q102.291 486.240 102.291 487.833 Q102.291 489.740 101.900 490.904 Q101.509 492.068 100.736 492.701 Q99.963 493.333 98.791 493.333 Q97.244 493.333 96.353 492.224 Q95.291 490.865 95.291 487.833 Z M96.650 487.833 Q96.650 490.536 97.267 491.435 Q97.884 492.333 98.791 492.333 Q99.697 492.333 100.314 491.435 Q100.931 490.536 100.931 487.833 Q100.931 485.115 100.314 484.224 Q99.697 483.333 98.775 483.333 Q97.869 483.333 97.322 484.115 Q96.650 485.130 96.650 487.833 Z"/>
  <path d="M103.447 487.833 Q103.447 485.927 103.838 484.763 Q104.228 483.599 105.002 482.966 Q105.775 482.333 106.947 482.333 Q107.806 482.333 108.463 482.685 Q109.119 483.036 109.541 483.693 Q109.963 484.349 110.205 485.294 Q110.447 486.240 110.447 487.833 Q110.447 489.740 110.056 490.904 Q109.666 492.068 108.892 492.701 Q108.119 493.333 106.947 493.333 Q105.400 493.333 104.509 492.224 Q103.447 490.865 103.447 487.833 Z M104.806 487.833 Q104.806 490.536 105.423 491.435 Q106.041 492.333 106.947 492.333 Q107.853 492.333 108.470 491.435 Q109.088 490.536 109.088 487.833 Q109.088 485.115 108.470 484.224 Q107.853 483.333 106.931 483.333 Q106.025 483.333 105.478 484.115 Q104.806 485.130 104.806 487.833 Z"/>
  <path d="M147.200 487.833 Q147.200 485.927 147.590 484.763 Q147.981 483.599 148.754 482.966 Q149.528 482.333 150.700 482.333 Q151.559 482.333 152.215 482.685 Q152.871 483.036 153.293 483.693 Q153.715 484.349 153.957 485.294 Q154.200 486.240 154.200 487.833 Q154.200 489.740 153.809 490.904 Q153.418 492.068 152.645 492.701 Q151.871 493.333 150.700 493.333 Q149.153 493.333 148.262 492.224 Q147.200 490.865 147.200 487.833 Z M148.559 487.833 Q148.559 490.536 149.176 491.435 Q149.793 492.333 150.700 492.333 Q151.606 492.333 152.223 491.435 Q152.840 490.536 152.840 487.833 Q152.840 485.115 152.223 484.224 Q151.606 483.333 150.684 483.333 Q149.778 483.333 149.231 484.115 Q148.559 485.130 148.559 487.833 Z"/>
  <path d="M155.356 490.333 L156.731 490.333 Q156.887 491.333 157.450 491.833 Q158.012 492.333 158.793 492.333 Q159.746 492.333 160.411 491.622 Q161.075 490.911 161.075 489.740 Q161.075 488.630 160.442 487.982 Q159.809 487.333 158.778 487.333 Q158.137 487.333 157.629 487.615 Q157.121 487.896 156.825 488.333 L155.590 488.333 L156.621 482.333 L161.965 482.333 L161.965 483.333 L157.684 483.333 L157.106 486.911 Q158.075 486.333 159.137 486.333 Q160.528 486.333 161.496 487.271 Q162.465 488.208 162.465 489.661 Q162.465 491.068 161.621 492.083 Q160.590 493.333 158.793 493.333 Q157.340 493.333 156.411 492.513 Q155.481 491.693 155.356 490.333 Z"/>
  <path d="M164.246 486.333 L164.246 485.333 L165.746 485.333 L165.746 486.333 L164.246 486.333 Z M164.246 493.333 L164.246 492.333 L165.746 492.333 L165.746 493.333 L164.246 493.333 Z"/>
  <path d="M167.590 490.333 L168.965 490.333 Q169.121 491.333 169.684 491.833 Q170.246 492.333 171.028 492.333 Q171.981 492.333 172.645 491.622 Q173.309 490.911 173.309 489.740 Q173.309 488.630 172.676 487.982 Q172.043 487.333 171.012 487.333 Q170.371 487.333 169.864 487.615 Q169.356 487.896 169.059 488.333 L167.825 488.333 L168.856 482.333 L174.200 482.333 L174.200 483.333 L169.918 483.333 L169.340 486.911 Q170.309 486.333 171.371 486.333 Q172.762 486.333 173.731 487.271 Q174.700 488.208 174.700 489.661 Q174.700 491.068 173.856 492.083 Q172.825 493.333 171.028 493.333 Q169.575 493.333 168.645 492.513 Q167.715 491.693 167.590 490.333 Z"/>
  <path d="M180.715 493.333 L179.387 493.333 L179.387 484.755 Q178.918 485.224 178.145 485.685 Q177.371 486.146 176.762 486.380 L176.762 485.083 Q177.871 484.552 178.692 483.794 Q179.512 483.036 179.856 482.333 L180.715 482.333 L180.715 493.333 Z"/>
  <path d="M184.637 486.333 L184.637 485.333 L186.137 485.333 L186.137 486.333 L184.637 486.333 Z M184.637 493.333 L184.637 492.333 L186.137 492.333 L186.137 493.333 L184.637 493.333 Z"/>
  <path d="M187.981 487.833 Q187.981 485.927 188.371 484.763 Q188.762 483.599 189.536 482.966 Q190.309 482.333 191.481 482.333 Q192.340 482.333 192.996 482.685 Q193.653 483.036 194.075 483.693 Q194.496 484.349 194.739 485.294 Q194.981 486.240 194.981 487.833 Q194.981 489.740 194.590 490.904 Q194.200 492.068 193.426 492.701 Q192.653 493.333 191.481 493.333 Q189.934 493.333 189.043 492.224 Q187.981 490.865 187.981 487.833 Z M189.340 487.833 Q189.340 490.536 189.957 491.435 Q190.575 492.333 191.481 492.333 Q192.387 492.333 193.004 491.435 Q193.621 490.536 193.621 487.833 Q193.621 485.115 193.004 484.224 Q192.387 483.333 191.465 483.333 Q190.559 483.333 190.012 484.115 Q189.340 485.130 189.340 487.833 Z"/>
  <path d="M196.137 487.833 Q196.137 485.927 196.528 484.763 Q196.918 483.599 197.692 482.966 Q198.465 482.333 199.637 482.333 Q200.496 482.333 201.153 482.685 Q201.809 483.036 202.231 483.693 Q202.653 484.349 202.895 485.294 Q203.137 486.240 203.137 487.833 Q203.137 489.740 202.746 490.904 Q202.356 492.068 201.582 492.701 Q200.809 493.333 199.637 493.333 Q198.090 493.333 197.200 492.224 Q196.137 490.865 196.137 487.833 Z M197.496 487.833 Q197.496 490.536 198.114 491.435 Q198.731 492.333 199.637 492.333 Q200.543 492.333 201.161 491.435 Q201.778 490.536 201.778 487.833 Q201.778 485.115 201.161 484.224 Q200.543 483.333 199.621 483.333 Q198.715 483.333 198.168 484.115 Q197.496 485.130 197.496 487.833 Z"/>
  <path d="M239.890 487.833 Q239.890 485.927 240.280 484.763 Q240.671 483.599 241.444 482.966 Q242.218 482.333 243.390 482.333 Q244.249 482.333 244.905 482.685 Q245.562 483.036 245.984 483.693 Q246.405 484.349 246.648 485.294 Q246.890 486.240 246.890 487.833 Q246.890 489.740 246.499 490.904 Q246.109 492.068 245.335 492.701 Q244.562 493.333 243.390 493.333 Q241.843 493.333 240.952 492.224 Q239.890 490.865 239.890 487.833 Z M241.249 487.833 Q241.249 490.536 241.866 491.435 Q242.484 492.333 243.390 492.333 Q244.296 492.333 244.913 491.435 Q245.530 490.536 245.530 487.833 Q245.530 485.115 244.913 484.224 Q244.296 483.333 243.374 483.333 Q242.468 483.333 241.921 484.115 Q241.249 485.130 241.249 487.833 Z"/>
  <path d="M254.890 485.333 L253.577 485.333 Q253.405 484.411 253.077 484.005 Q252.546 483.333 251.765 483.333 Q251.124 483.333 250.655 483.724 Q250.030 484.224 249.671 485.177 Q249.312 486.130 249.296 487.771 Q249.765 487.036 250.460 486.685 Q251.155 486.333 251.905 486.333 Q253.218 486.333 254.148 487.286 Q255.077 488.240 255.077 489.740 Q255.077 490.724 254.640 491.576 Q254.202 492.427 253.444 492.880 Q252.687 493.333 251.718 493.333 Q250.062 493.333 249.023 492.115 Q247.984 490.896 247.984 488.115 Q247.984 484.990 249.140 483.568 Q250.140 482.333 251.843 482.333 Q253.109 482.333 253.921 483.130 Q254.734 483.927 254.890 485.333 Z M249.499 489.708 Q249.499 490.396 249.788 491.029 Q250.077 491.661 250.601 491.997 Q251.124 492.333 251.687 492.333 Q252.530 492.333 253.132 491.646 Q253.734 490.958 253.734 489.771 Q253.734 488.646 253.140 487.990 Q252.546 487.333 251.640 487.333 Q250.749 487.333 250.124 487.990 Q249.499 488.646 249.499 489.708 Z"/>
  <path d="M256.937 486.333 L256.937 485.333 L258.437 485.333 L258.437 486.333 L256.937 486.333 Z M256.937 493.333 L256.937 492.333 L258.437 492.333 L258.437 493.333 L256.937 493.333 Z"/>
  <path d="M267.202 492.333 L267.202 493.333 L260.109 493.333 Q260.093 492.943 260.265 492.568 Q260.530 491.958 261.132 491.372 Q261.734 490.786 262.859 489.724 Q264.609 488.068 265.226 487.138 Q265.843 486.208 265.843 485.396 Q265.843 484.521 265.280 483.927 Q264.718 483.333 263.827 483.333 Q262.874 483.333 262.296 483.865 Q261.718 484.396 261.718 485.333 L260.359 485.333 Q260.499 483.865 261.405 483.099 Q262.312 482.333 263.843 482.333 Q265.390 482.333 266.288 483.224 Q267.187 484.115 267.187 485.443 Q267.187 486.115 266.921 486.763 Q266.655 487.411 266.046 488.130 Q265.437 488.849 264.015 490.130 Q262.827 491.193 262.491 491.568 Q262.155 491.943 261.937 492.333 L267.202 492.333 Z"/>
  <path d="M268.515 483.333 L268.515 482.333 L275.468 482.333 L275.468 483.146 Q274.452 484.240 273.444 486.177 Q272.437 488.115 271.874 490.161 Q271.484 491.615 271.374 493.333 L270.030 493.333 Q270.046 491.974 270.523 490.052 Q270.999 488.130 271.890 486.341 Q272.780 484.552 273.780 483.333 L268.515 483.333 Z"/>
  <path d="M277.327 486.333 L277.327 485.333 L278.827 485.333 L278.827 486.333 L277.327 486.333 Z M277.327 493.333 L277.327 492.333 L278.827 492.333 L278.827 493.333 L277.327 493.333 Z"/>
  <path d="M280.671 487.833 Q280.671 485.927 281.062 484.763 Q281.452 483.599 282.226 482.966 Q282.999 482.333 284.171 482.333 Q285.030 482.333 285.687 482.685 Q286.343 483.036 286.765 483.693 Q287.187 484.349 287.429 485.294 Q287.671 486.240 287.671 487.833 Q287.671 489.740 287.280 490.904 Q286.890 492.068 286.116 492.701 Q285.343 493.333 284.171 493.333 Q282.624 493.333 281.734 492.224 Q280.671 490.865 280.671 487.833 Z M282.030 487.833 Q282.030 490.536 282.648 491.435 Q283.265 492.333 284.171 492.333 Q285.077 492.333 285.694 491.435 Q286.312 490.536 286.312 487.833 Q286.312 485.115 285.694 484.224 Q285.077 483.333 284.155 483.333 Q283.249 483.333 282.702 484.115 Q282.030 485.130 282.030 487.833 Z"/>
  <path d="M288.827 487.833 Q288.827 485.927 289.218 484.763 Q289.609 483.599 290.382 482.966 Q291.155 482.333 292.327 482.333 Q293.187 482.333 293.843 482.685 Q294.499 483.036 294.921 483.693 Q295.343 484.349 295.585 485.294 Q295.827 486.240 295.827 487.833 Q295.827 489.740 295.437 490.904 Q295.046 492.068 294.273 492.701 Q293.499 493.333 292.327 493.333 Q290.780 493.333 289.890 492.224 Q288.827 490.865 288.827 487.833 Z M290.187 487.833 Q290.187 490.536 290.804 491.435 Q291.421 492.333 292.327 492.333 Q293.234 492.333 293.851 491.435 Q294.468 490.536 294.468 487.833 Q294.468 485.115 293.851 484.224 Q293.234 483.333 292.312 483.333 Q291.405 483.333 290.859 484.115 Q290.187 485.130 290.187 487.833 Z"/>
  <path d="M332.580 487.833 Q332.580 485.927 332.971 484.763 Q333.361 483.599 334.135 482.966 Q334.908 482.333 336.080 482.333 Q336.939 482.333 337.596 482.685 Q338.252 483.036 338.674 483.693 Q339.096 484.349 339.338 485.294 Q339.580 486.240 339.580 487.833 Q339.580 489.740 339.189 490.904 Q338.799 492.068 338.025 492.701 Q337.252 493.333 336.080 493.333 Q334.533 493.333 333.643 492.224 Q332.580 490.865 332.580 487.833 Z M333.939 487.833 Q333.939 490.536 334.557 491.435 Q335.174 492.333 336.080 492.333 Q336.986 492.333 337.603 491.435 Q338.221 490.536 338.221 487.833 Q338.221 485.115 337.603 484.224 Q336.986 483.333 336.064 483.333 Q335.158 483.333 334.611 484.115 Q333.939 485.130 333.939 487.833 Z"/>
  <path d="M340.814 483.333 L340.814 482.333 L347.768 482.333 L347.768 483.146 Q346.752 484.240 345.744 486.177 Q344.736 488.115 344.174 490.161 Q343.783 491.615 343.674 493.333 L342.330 493.333 Q342.346 491.974 342.822 490.052 Q343.299 488.130 344.189 486.341 Q345.080 484.552 346.080 483.333 L340.814 483.333 Z"/>
  <path d="M349.627 486.333 L349.627 485.333 L351.127 485.333 L351.127 486.333 L349.627 486.333 Z M349.627 493.333 L349.627 492.333 L351.127 492.333 L351.127 493.333 L349.627 493.333 Z"/>
  <path d="M352.971 487.833 Q352.971 485.927 353.361 484.763 Q353.752 483.599 354.525 482.966 Q355.299 482.333 356.471 482.333 Q357.330 482.333 357.986 482.685 Q358.643 483.036 359.064 483.693 Q359.486 484.349 359.728 485.294 Q359.971 486.240 359.971 487.833 Q359.971 489.740 359.580 490.904 Q359.189 492.068 358.416 492.701 Q357.643 493.333 356.471 493.333 Q354.924 493.333 354.033 492.224 Q352.971 490.865 352.971 487.833 Z M354.330 487.833 Q354.330 490.536 354.947 491.435 Q355.564 492.333 356.471 492.333 Q357.377 492.333 357.994 491.435 Q358.611 490.536 358.611 487.833 Q358.611 485.115 357.994 484.224 Q357.377 483.333 356.455 483.333 Q355.549 483.333 355.002 484.115 Q354.330 485.130 354.330 487.833 Z"/>
  <path d="M361.127 490.333 L362.455 490.333 Q362.689 491.396 363.228 491.865 Q363.768 492.333 364.549 492.333 Q365.486 492.333 366.127 491.716 Q366.768 491.099 366.768 490.193 Q366.768 489.318 366.174 488.747 Q365.580 488.177 364.658 488.177 Q364.283 488.177 363.736 488.333 L363.877 487.333 Q364.018 487.349 364.096 487.349 Q364.939 487.349 365.611 486.841 Q366.283 486.333 366.283 485.271 Q366.283 484.443 365.791 483.888 Q365.299 483.333 364.518 483.333 Q363.752 483.333 363.236 483.833 Q362.721 484.333 362.580 485.333 L361.268 485.333 Q361.502 483.911 362.361 483.122 Q363.221 482.333 364.502 482.333 Q365.377 482.333 366.119 482.740 Q366.861 483.146 367.252 483.849 Q367.643 484.552 367.643 485.349 Q367.643 486.099 367.268 486.716 Q366.893 487.333 366.158 487.693 Q367.111 487.896 367.635 488.544 Q368.158 489.193 368.158 490.177 Q368.158 491.490 367.135 492.411 Q366.111 493.333 364.533 493.333 Q363.127 493.333 362.189 492.497 Q361.252 491.661 361.127 490.333 Z"/>
  <path d="M370.018 486.333 L370.018 485.333 L371.518 485.333 L371.518 486.333 L370.018 486.333 Z M370.018 493.333 L370.018 492.333 L371.518 492.333 L371.518 493.333 L370.018 493.333 Z"/>
  <path d="M373.361 487.833 Q373.361 485.927 373.752 484.763 Q374.143 483.599 374.916 482.966 Q375.689 482.333 376.861 482.333 Q377.721 482.333 378.377 482.685 Q379.033 483.036 379.455 483.693 Q379.877 484.349 380.119 485.294 Q380.361 486.240 380.361 487.833 Q380.361 489.740 379.971 490.904 Q379.580 492.068 378.807 492.701 Q378.033 493.333 376.861 493.333 Q375.314 493.333 374.424 492.224 Q373.361 490.865 373.361 487.833 Z M374.721 487.833 Q374.721 490.536 375.338 491.435 Q375.955 492.333 376.861 492.333 Q377.768 492.333 378.385 491.435 Q379.002 490.536 379.002 487.833 Q379.002 485.115 378.385 484.224 Q377.768 483.333 376.846 483.333 Q375.939 483.333 375.393 484.115 Q374.721 485.130 374.721 487.833 Z"/>
  <path d="M381.518 487.833 Q381.518 485.927 381.908 484.763 Q382.299 483.599 383.072 482.966 Q383.846 482.333 385.018 482.333 Q385.877 482.333 386.533 482.685 Q387.189 483.036 387.611 483.693 Q388.033 484.349 388.275 485.294 Q388.518 486.240 388.518 487.833 Q388.518 489.740 388.127 490.904 Q387.736 492.068 386.963 492.701 Q386.189 493.333 385.018 493.333 Q383.471 493.333 382.580 492.224 Q381.518 490.865 381.518 487.833 Z M382.877 487.833 Q382.877 490.536 383.494 491.435 Q384.111 492.333 385.018 492.333 Q385.924 492.333 386.541 491.435 Q387.158 490.536 387.158 487.833 Q387.158 485.115 386.541 484.224 Q385.924 483.333 385.002 483.333 Q384.096 483.333 383.549 484.115 Q382.877 485.130 382.877 487.833 Z"/>
  <path d="M425.270 487.833 Q425.270 485.927 425.661 484.763 Q426.051 483.599 426.825 482.966 Q427.598 482.333 428.770 482.333 Q429.630 482.333 430.286 482.685 Q430.942 483.036 431.364 483.693 Q431.786 484.349 432.028 485.294 Q432.270 486.240 432.270 487.833 Q432.270 489.740 431.880 490.904 Q431.489 492.068 430.716 492.701 Q429.942 493.333 428.770 493.333 Q427.223 493.333 426.333 492.224 Q425.270 490.865 425.270 487.833 Z M426.630 487.833 Q426.630 490.536 427.247 491.435 Q427.864 492.333 428.770 492.333 Q429.676 492.333 430.294 491.435 Q430.911 490.536 430.911 487.833 Q430.911 485.115 430.294 484.224 Q429.676 483.333 428.755 483.333 Q427.848 483.333 427.301 484.115 Q426.630 485.130 426.630 487.833 Z"/>
  <path d="M433.505 483.333 L433.505 482.333 L440.458 482.333 L440.458 483.146 Q439.442 484.240 438.434 486.177 Q437.426 488.115 436.864 490.161 Q436.473 491.615 436.364 493.333 L435.020 493.333 Q435.036 491.974 435.512 490.052 Q435.989 488.130 436.880 486.341 Q437.770 484.552 438.770 483.333 L433.505 483.333 Z"/>
  <path d="M442.317 486.333 L442.317 485.333 L443.817 485.333 L443.817 486.333 L442.317 486.333 Z M442.317 493.333 L442.317 492.333 L443.817 492.333 L443.817 493.333 L442.317 493.333 Z"/>
  <path d="M445.661 490.333 L446.989 490.333 Q447.223 491.396 447.762 491.865 Q448.301 492.333 449.083 492.333 Q450.020 492.333 450.661 491.716 Q451.301 491.099 451.301 490.193 Q451.301 489.318 450.708 488.747 Q450.114 488.177 449.192 488.177 Q448.817 488.177 448.270 488.333 L448.411 487.333 Q448.551 487.349 448.630 487.349 Q449.473 487.349 450.145 486.841 Q450.817 486.333 450.817 485.271 Q450.817 484.443 450.325 483.888 Q449.833 483.333 449.051 483.333 Q448.286 483.333 447.770 483.833 Q447.255 484.333 447.114 485.333 L445.801 485.333 Q446.036 483.911 446.895 483.122 Q447.755 482.333 449.036 482.333 Q449.911 482.333 450.653 482.740 Q451.395 483.146 451.786 483.849 Q452.176 484.552 452.176 485.349 Q452.176 486.099 451.801 486.716 Q451.426 487.333 450.692 487.693 Q451.645 487.896 452.169 488.544 Q452.692 489.193 452.692 490.177 Q452.692 491.490 451.669 492.411 Q450.645 493.333 449.067 493.333 Q447.661 493.333 446.723 492.497 Q445.786 491.661 445.661 490.333 Z"/>
  <path d="M454.020 490.333 L455.286 490.333 Q455.442 491.380 455.895 491.857 Q456.348 492.333 457.067 492.333 Q457.661 492.333 458.122 492.029 Q458.583 491.724 458.872 491.216 Q459.161 490.708 459.364 489.857 Q459.567 489.005 459.567 488.177 Q459.567 488.099 459.551 487.927 Q459.161 488.552 458.473 488.943 Q457.786 489.333 456.989 489.333 Q455.661 489.333 454.739 488.388 Q453.817 487.443 453.817 485.880 Q453.817 484.286 454.778 483.310 Q455.739 482.333 457.192 482.333 Q458.239 482.333 459.106 482.896 Q459.973 483.458 460.426 484.505 Q460.880 485.552 460.880 487.536 Q460.880 489.615 460.434 490.833 Q459.989 492.052 459.106 492.693 Q458.223 493.333 457.036 493.333 Q455.770 493.333 454.973 492.544 Q454.176 491.755 454.020 490.333 Z M459.411 485.865 Q459.411 484.693 458.809 484.013 Q458.208 483.333 457.348 483.333 Q456.473 483.333 455.825 484.068 Q455.176 484.802 455.176 485.974 Q455.176 487.021 455.794 487.677 Q456.411 488.333 457.317 488.333 Q458.239 488.333 458.825 487.677 Q459.411 487.021 459.411 485.865 Z"/>
  <path d="M462.708 486.333 L462.708 485.333 L464.208 485.333 L464.208 486.333 L462.708 486.333 Z M462.708 493.333 L462.708 492.333 L464.208 492.333 L464.208 493.333 L462.708 493.333 Z"/>
  <path d="M466.051 487.833 Q466.051 485.927 466.442 484.763 Q466.833 483.599 467.606 482.966 Q468.380 482.333 469.551 482.333 Q470.411 482.333 471.067 482.685 Q471.723 483.036 472.145 483.693 Q472.567 484.349 472.809 485.294 Q473.051 486.240 473.051 487.833 Q473.051 489.740 472.661 490.904 Q472.270 492.068 471.497 492.701 Q470.723 493.333 469.551 493.333 Q468.005 493.333 467.114 492.224 Q466.051 490.865 466.051 487.833 Z M467.411 487.833 Q467.411 490.536 468.028 491.435 Q468.645 492.333 469.551 492.333 Q470.458 492.333 471.075 491.435 Q471.692 490.536 471.692 487.833 Q471.692 485.115 471.075 484.224 Q470.458 483.333 469.536 483.333 Q468.630 483.333 468.083 484.115 Q467.411 485.130 467.411 487.833 Z"/>
  <path d="M474.208 487.833 Q474.208 485.927 474.598 484.763 Q474.989 483.599 475.762 482.966 Q476.536 482.333 477.708 482.333 Q478.567 482.333 479.223 482.685 Q479.880 483.036 480.301 483.693 Q480.723 484.349 480.966 485.294 Q481.208 486.240 481.208 487.833 Q481.208 489.740 480.817 490.904 Q480.426 492.068 479.653 492.701 Q478.880 493.333 477.708 493.333 Q476.161 493.333 475.270 492.224 Q474.208 490.865 474.208 487.833 Z M475.567 487.833 Q475.567 490.536 476.184 491.435 Q476.801 492.333 477.708 492.333 Q478.614 492.333 479.231 491.435 Q479.848 490.536 479.848 487.833 Q479.848 485.115 479.231 484.224 Q478.614 483.333 477.692 483.333 Q476.786 483.333 476.239 484.115 Q475.567 485.130 475.567 487.833 Z"/>
  <path d="M517.960 487.833 Q517.960 485.927 518.351 484.763 Q518.742 483.599 519.515 482.966 Q520.289 482.333 521.460 482.333 Q522.320 482.333 522.976 482.685 Q523.632 483.036 524.054 483.693 Q524.476 484.349 524.718 485.294 Q524.960 486.240 524.960 487.833 Q524.960 489.740 524.570 490.904 Q524.179 492.068 523.406 492.701 Q522.632 493.333 521.460 493.333 Q519.914 493.333 519.023 492.224 Q517.960 490.865 517.960 487.833 Z M519.320 487.833 Q519.320 490.536 519.937 491.435 Q520.554 492.333 521.460 492.333 Q522.367 492.333 522.984 491.435 Q523.601 490.536 523.601 487.833 Q523.601 485.115 522.984 484.224 Q522.367 483.333 521.445 483.333 Q520.539 483.333 519.992 484.115 Q519.320 485.130 519.320 487.833 Z"/>
  <path d="M528.148 487.802 Q527.335 487.474 526.937 486.857 Q526.539 486.240 526.539 485.380 Q526.539 484.099 527.382 483.216 Q528.226 482.333 529.617 482.333 Q531.023 482.333 531.882 483.232 Q532.742 484.130 532.742 485.427 Q532.742 486.255 532.343 486.865 Q531.945 487.474 531.148 487.802 Q532.148 488.099 532.664 488.763 Q533.179 489.427 533.179 490.333 Q533.179 491.599 532.203 492.466 Q531.226 493.333 529.648 493.333 Q528.054 493.333 527.078 492.466 Q526.101 491.599 526.101 490.302 Q526.101 489.333 526.632 488.685 Q527.164 488.036 528.148 487.802 Z M527.882 485.286 Q527.882 486.193 528.374 486.763 Q528.867 487.333 529.648 487.333 Q530.414 487.333 530.898 486.763 Q531.382 486.193 531.382 485.365 Q531.382 484.505 530.882 483.919 Q530.382 483.333 529.632 483.333 Q528.882 483.333 528.382 483.904 Q527.882 484.474 527.882 485.286 Z M527.460 490.318 Q527.460 490.833 527.726 491.318 Q527.992 491.802 528.515 492.068 Q529.039 492.333 529.648 492.333 Q530.585 492.333 531.203 491.771 Q531.820 491.208 531.820 490.349 Q531.820 489.474 531.187 488.904 Q530.554 488.333 529.601 488.333 Q528.679 488.333 528.070 488.896 Q527.460 489.458 527.460 490.318 Z"/>
  <path d="M535.007 486.333 L535.007 485.333 L536.507 485.333 L536.507 486.333 L535.007 486.333 Z M535.007 493.333 L535.007 492.333 L536.507 492.333 L536.507 493.333 L535.007 493.333 Z"/>
  <path d="M543.320 493.333 L541.992 493.333 L541.992 484.755 Q541.523 485.224 540.749 485.685 Q539.976 486.146 539.367 486.380 L539.367 485.083 Q540.476 484.552 541.296 483.794 Q542.117 483.036 542.460 482.333 L543.320 482.333 L543.320 493.333 Z"/>
  <path d="M546.507 490.333 L547.882 490.333 Q548.039 491.333 548.601 491.833 Q549.164 492.333 549.945 492.333 Q550.898 492.333 551.562 491.622 Q552.226 490.911 552.226 489.740 Q552.226 488.630 551.593 487.982 Q550.960 487.333 549.929 487.333 Q549.289 487.333 548.781 487.615 Q548.273 487.896 547.976 488.333 L546.742 488.333 L547.773 482.333 L553.117 482.333 L553.117 483.333 L548.835 483.333 L548.257 486.911 Q549.226 486.333 550.289 486.333 Q551.679 486.333 552.648 487.271 Q553.617 488.208 553.617 489.661 Q553.617 491.068 552.773 492.083 Q551.742 493.333 549.945 493.333 Q548.492 493.333 547.562 492.513 Q546.632 491.693 546.507 490.333 Z"/>
  <path d="M555.398 486.333 L555.398 485.333 L556.898 485.333 L556.898 486.333 L555.398 486.333 Z M555.398 493.333 L555.398 492.333 L556.898 492.333 L556.898 493.333 L555.398 493.333 Z"/>
  <path d="M558.742 487.833 Q558.742 485.927 559.132 484.763 Q559.523 483.599 560.296 482.966 Q561.070 482.333 562.242 482.333 Q563.101 482.333 563.757 482.685 Q564.414 483.036 564.835 483.693 Q565.257 484.349 565.499 485.294 Q565.742 486.240 565.742 487.833 Q565.742 489.740 565.351 490.904 Q564.960 492.068 564.187 492.701 Q563.414 493.333 562.242 493.333 Q560.695 493.333 559.804 492.224 Q558.742 490.865 558.742 487.833 Z M560.101 487.833 Q560.101 490.536 560.718 491.435 Q561.335 492.333 562.242 492.333 Q563.148 492.333 563.765 491.435 Q564.382 490.536 564.382 487.833 Q564.382 485.115 563.765 484.224 Q563.148 483.333 562.226 483.333 Q561.320 483.333 560.773 484.115 Q560.101 485.130 560.101 487.833 Z"/>
  <path d="M566.898 487.833 Q566.898 485.927 567.289 484.763 Q567.679 483.599 568.453 482.966 Q569.226 482.333 570.398 482.333 Q571.257 482.333 571.914 482.685 Q572.570 483.036 572.992 483.693 Q573.414 484.349 573.656 485.294 Q573.898 486.240 573.898 487.833 Q573.898 489.740 573.507 490.904 Q573.117 492.068 572.343 492.701 Q571.570 493.333 570.398 493.333 Q568.851 493.333 567.960 492.224 Q566.898 490.865 566.898 487.833 Z M568.257 487.833 Q568.257 490.536 568.874 491.435 Q569.492 492.333 570.398 492.333 Q571.304 492.333 571.921 491.435 Q572.539 490.536 572.539 487.833 Q572.539 485.115 571.921 484.224 Q571.304 483.333 570.382 483.333 Q569.476 483.333 568.929 484.115 Q568.257 485.130 568.257 487.833 Z"/>
  <path d="M610.651 487.833 Q610.651 485.927 611.041 484.763 Q611.432 483.599 612.205 482.966 Q612.979 482.333 614.151 482.333 Q615.010 482.333 615.666 482.685 Q616.323 483.036 616.744 483.693 Q617.166 484.349 617.408 485.294 Q617.651 486.240 617.651 487.833 Q617.651 489.740 617.260 490.904 Q616.869 492.068 616.096 492.701 Q615.323 493.333 614.151 493.333 Q612.604 493.333 611.713 492.224 Q610.651 490.865 610.651 487.833 Z M612.010 487.833 Q612.010 490.536 612.627 491.435 Q613.244 492.333 614.151 492.333 Q615.057 492.333 615.674 491.435 Q616.291 490.536 616.291 487.833 Q616.291 485.115 615.674 484.224 Q615.057 483.333 614.135 483.333 Q613.229 483.333 612.682 484.115 Q612.010 485.130 612.010 487.833 Z"/>
  <path d="M620.838 487.802 Q620.026 487.474 619.627 486.857 Q619.229 486.240 619.229 485.380 Q619.229 484.099 620.073 483.216 Q620.916 482.333 622.307 482.333 Q623.713 482.333 624.573 483.232 Q625.432 484.130 625.432 485.427 Q625.432 486.255 625.033 486.865 Q624.635 487.474 623.838 487.802 Q624.838 488.099 625.354 488.763 Q625.869 489.427 625.869 490.333 Q625.869 491.599 624.893 492.466 Q623.916 493.333 622.338 493.333 Q620.744 493.333 619.768 492.466 Q618.791 491.599 618.791 490.302 Q618.791 489.333 619.323 488.685 Q619.854 488.036 620.838 487.802 Z M620.573 485.286 Q620.573 486.193 621.065 486.763 Q621.557 487.333 622.338 487.333 Q623.104 487.333 623.588 486.763 Q624.073 486.193 624.073 485.365 Q624.073 484.505 623.573 483.919 Q623.073 483.333 622.323 483.333 Q621.573 483.333 621.073 483.904 Q620.573 484.474 620.573 485.286 Z M620.151 490.318 Q620.151 490.833 620.416 491.318 Q620.682 491.802 621.205 492.068 Q621.729 492.333 622.338 492.333 Q623.276 492.333 623.893 491.771 Q624.510 491.208 624.510 490.349 Q624.510 489.474 623.877 488.904 Q623.244 488.333 622.291 488.333 Q621.369 488.333 620.760 488.896 Q620.151 489.458 620.151 490.318 Z"/>
  <path d="M627.698 486.333 L627.698 485.333 L629.198 485.333 L629.198 486.333 L627.698 486.333 Z M627.698 493.333 L627.698 492.333 L629.198 492.333 L629.198 493.333 L627.698 493.333 Z"/>
  <path d="M631.041 490.333 L632.416 490.333 Q632.573 491.333 633.135 491.833 Q633.698 492.333 634.479 492.333 Q635.432 492.333 636.096 491.622 Q636.760 490.911 636.760 489.740 Q636.760 488.630 636.127 487.982 Q635.494 487.333 634.463 487.333 Q633.823 487.333 633.315 487.615 Q632.807 487.896 632.510 488.333 L631.276 488.333 L632.307 482.333 L637.651 482.333 L637.651 483.333 L633.369 483.333 L632.791 486.911 Q633.760 486.333 634.823 486.333 Q636.213 486.333 637.182 487.271 Q638.151 488.208 638.151 489.661 Q638.151 491.068 637.307 492.083 Q636.276 493.333 634.479 493.333 Q633.026 493.333 632.096 492.513 Q631.166 491.693 631.041 490.333 Z"/>
  <path d="M644.166 493.333 L642.838 493.333 L642.838 484.755 Q642.369 485.224 641.596 485.685 Q640.823 486.146 640.213 486.380 L640.213 485.083 Q641.323 484.552 642.143 483.794 Q642.963 483.036 643.307 482.333 L644.166 482.333 L644.166 493.333 Z"/>
  <path d="M648.088 486.333 L648.088 485.333 L649.588 485.333 L649.588 486.333 L648.088 486.333 Z M648.088 493.333 L648.088 492.333 L649.588 492.333 L649.588 493.333 L648.088 493.333 Z"/>
  <path d="M651.432 487.833 Q651.432 485.927 651.823 484.763 Q652.213 483.599 652.987 482.966 Q653.760 482.333 654.932 482.333 Q655.791 482.333 656.448 482.685 Q657.104 483.036 657.526 483.693 Q657.948 484.349 658.190 485.294 Q658.432 486.240 658.432 487.833 Q658.432 489.740 658.041 490.904 Q657.651 492.068 656.877 492.701 Q656.104 493.333 654.932 493.333 Q653.385 493.333 652.494 492.224 Q651.432 490.865 651.432 487.833 Z M652.791 487.833 Q652.791 490.536 653.408 491.435 Q654.026 492.333 654.932 492.333 Q655.838 492.333 656.455 491.435 Q657.073 490.536 657.073 487.833 Q657.073 485.115 656.455 484.224 Q655.838 483.333 654.916 483.333 Q654.010 483.333 653.463 484.115 Q652.791 485.130 652.791 487.833 Z"/>
  <path d="M659.588 487.833 Q659.588 485.927 659.979 484.763 Q660.369 483.599 661.143 482.966 Q661.916 482.333 663.088 482.333 Q663.948 482.333 664.604 482.685 Q665.260 483.036 665.682 483.693 Q666.104 484.349 666.346 485.294 Q666.588 486.240 666.588 487.833 Q666.588 489.740 666.198 490.904 Q665.807 492.068 665.033 492.701 Q664.260 493.333 663.088 493.333 Q661.541 493.333 660.651 492.224 Q659.588 490.865 659.588 487.833 Z M660.948 487.833 Q660.948 490.536 661.565 491.435 Q662.182 492.333 663.088 492.333 Q663.994 492.333 664.612 491.435 Q665.229 490.536 665.229 487.833 Q665.229 485.115 664.612 484.224 Q663.994 483.333 663.073 483.333 Q662.166 483.333 661.619 484.115 Q660.948 485.130 660.948 487.833 Z"/>
  <path d="M703.341 487.833 Q703.341 485.927 703.731 484.763 Q704.122 483.599 704.896 482.966 Q705.669 482.333 706.841 482.333 Q707.700 482.333 708.356 482.685 Q709.013 483.036 709.435 483.693 Q709.856 484.349 710.099 485.294 Q710.341 486.240 710.341 487.833 Q710.341 489.740 709.950 490.904 Q709.560 492.068 708.786 492.701 Q708.013 493.333 706.841 493.333 Q705.294 493.333 704.403 492.224 Q703.341 490.865 703.341 487.833 Z M704.700 487.833 Q704.700 490.536 705.317 491.435 Q705.935 492.333 706.841 492.333 Q707.747 492.333 708.364 491.435 Q708.981 490.536 708.981 487.833 Q708.981 485.115 708.364 484.224 Q707.747 483.333 706.825 483.333 Q705.919 483.333 705.372 484.115 Q704.700 485.130 704.700 487.833 Z"/>
  <path d="M711.700 490.333 L712.966 490.333 Q713.122 491.380 713.575 491.857 Q714.028 492.333 714.747 492.333 Q715.341 492.333 715.802 492.029 Q716.263 491.724 716.552 491.216 Q716.841 490.708 717.044 489.857 Q717.247 489.005 717.247 488.177 Q717.247 488.099 717.231 487.927 Q716.841 488.552 716.153 488.943 Q715.466 489.333 714.669 489.333 Q713.341 489.333 712.419 488.388 Q711.497 487.443 711.497 485.880 Q711.497 484.286 712.458 483.310 Q713.419 482.333 714.872 482.333 Q715.919 482.333 716.786 482.896 Q717.653 483.458 718.106 484.505 Q718.560 485.552 718.560 487.536 Q718.560 489.615 718.114 490.833 Q717.669 492.052 716.786 492.693 Q715.903 493.333 714.716 493.333 Q713.450 493.333 712.653 492.544 Q711.856 491.755 711.700 490.333 Z M717.091 485.865 Q717.091 484.693 716.489 484.013 Q715.888 483.333 715.028 483.333 Q714.153 483.333 713.505 484.068 Q712.856 484.802 712.856 485.974 Q712.856 487.021 713.474 487.677 Q714.091 488.333 714.997 488.333 Q715.919 488.333 716.505 487.677 Q717.091 487.021 717.091 485.865 Z"/>
  <path d="M720.388 486.333 L720.388 485.333 L721.888 485.333 L721.888 486.333 L720.388 486.333 Z M720.388 493.333 L720.388 492.333 L721.888 492.333 L721.888 493.333 L720.388 493.333 Z"/>
  <path d="M730.653 492.333 L730.653 493.333 L723.560 493.333 Q723.544 492.943 723.716 492.568 Q723.981 491.958 724.583 491.372 Q725.185 490.786 726.310 489.724 Q728.060 488.068 728.677 487.138 Q729.294 486.208 729.294 485.396 Q729.294 484.521 728.731 483.927 Q728.169 483.333 727.278 483.333 Q726.325 483.333 725.747 483.865 Q725.169 484.396 725.169 485.333 L723.810 485.333 Q723.950 483.865 724.856 483.099 Q725.763 482.333 727.294 482.333 Q728.841 482.333 729.739 483.224 Q730.638 484.115 730.638 485.443 Q730.638 486.115 730.372 486.763 Q730.106 487.411 729.497 488.130 Q728.888 488.849 727.466 490.130 Q726.278 491.193 725.942 491.568 Q725.606 491.943 725.388 492.333 L730.653 492.333 Z"/>
  <path d="M738.731 485.333 L737.419 485.333 Q737.247 484.411 736.919 484.005 Q736.388 483.333 735.606 483.333 Q734.966 483.333 734.497 483.724 Q733.872 484.224 733.513 485.177 Q733.153 486.130 733.138 487.771 Q733.606 487.036 734.302 486.685 Q734.997 486.333 735.747 486.333 Q737.060 486.333 737.989 487.286 Q738.919 488.240 738.919 489.740 Q738.919 490.724 738.481 491.576 Q738.044 492.427 737.286 492.880 Q736.528 493.333 735.560 493.333 Q733.903 493.333 732.864 492.115 Q731.825 490.896 731.825 488.115 Q731.825 484.990 732.981 483.568 Q733.981 482.333 735.685 482.333 Q736.950 482.333 737.763 483.130 Q738.575 483.927 738.731 485.333 Z M733.341 489.708 Q733.341 490.396 733.630 491.029 Q733.919 491.661 734.442 491.997 Q734.966 492.333 735.528 492.333 Q736.372 492.333 736.974 491.646 Q737.575 490.958 737.575 489.771 Q737.575 488.646 736.981 487.990 Q736.388 487.333 735.481 487.333 Q734.591 487.333 733.966 487.990 Q733.341 488.646 733.341 489.708 Z"/>
  <path d="M740.778 486.333 L740.778 485.333 L742.278 485.333 L742.278 486.333 L740.778 486.333 Z M740.778 493.333 L740.778 492.333 L742.278 492.333 L742.278 493.333 L740.778 493.333 Z"/>
  <path d="M744.122 490.333 L745.497 490.333 Q745.653 491.333 746.216 491.833 Q746.778 492.333 747.560 492.333 Q748.513 492.333 749.177 491.622 Q749.841 490.911 749.841 489.740 Q749.841 488.630 749.208 487.982 Q748.575 487.333 747.544 487.333 Q746.903 487.333 746.396 487.615 Q745.888 487.896 745.591 488.333 L744.356 488.333 L745.388 482.333 L750.731 482.333 L750.731 483.333 L746.450 483.333 L745.872 486.911 Q746.841 486.333 747.903 486.333 Q749.294 486.333 750.263 487.271 Q751.231 488.208 751.231 489.661 Q751.231 491.068 750.388 492.083 Q749.356 493.333 747.560 493.333 Q746.106 493.333 745.177 492.513 Q744.247 491.693 744.122 490.333 Z"/>
  <path d="M752.481 490.333 L753.747 490.333 Q753.903 491.380 754.356 491.857 Q754.810 492.333 755.528 492.333 Q756.122 492.333 756.583 492.029 Q757.044 491.724 757.333 491.216 Q757.622 490.708 757.825 489.857 Q758.028 489.005 758.028 488.177 Q758.028 488.099 758.013 487.927 Q757.622 488.552 756.935 488.943 Q756.247 489.333 755.450 489.333 Q754.122 489.333 753.200 488.388 Q752.278 487.443 752.278 485.880 Q752.278 484.286 753.239 483.310 Q754.200 482.333 755.653 482.333 Q756.700 482.333 757.567 482.896 Q758.435 483.458 758.888 484.505 Q759.341 485.552 759.341 487.536 Q759.341 489.615 758.896 490.833 Q758.450 492.052 757.567 492.693 Q756.685 493.333 755.497 493.333 Q754.231 493.333 753.435 492.544 Q752.638 491.755 752.481 490.333 Z M757.872 485.865 Q757.872 484.693 757.271 484.013 Q756.669 483.333 755.810 483.333 Q754.935 483.333 754.286 484.068 Q753.638 484.802 753.638 485.974 Q753.638 487.021 754.255 487.677 Q754.872 488.333 755.778 488.333 Q756.700 488.333 757.286 487.677 Q757.872 487.021 757.872 485.865 Z"/>
  <path d="M801.000 493.333 L799.672 493.333 L799.672 484.755 Q799.203 485.224 798.429 485.685 Q797.656 486.146 797.047 486.380 L797.047 485.083 Q798.156 484.552 798.976 483.794 Q799.797 483.036 800.140 482.333 L801.000 482.333 L801.000 493.333 Z"/>
  <path d="M804.187 487.833 Q804.187 485.927 804.578 484.763 Q804.969 483.599 805.742 482.966 Q806.515 482.333 807.687 482.333 Q808.547 482.333 809.203 482.685 Q809.859 483.036 810.281 483.693 Q810.703 484.349 810.945 485.294 Q811.187 486.240 811.187 487.833 Q811.187 489.740 810.797 490.904 Q810.406 492.068 809.633 492.701 Q808.859 493.333 807.687 493.333 Q806.140 493.333 805.250 492.224 Q804.187 490.865 804.187 487.833 Z M805.547 487.833 Q805.547 490.536 806.164 491.435 Q806.781 492.333 807.687 492.333 Q808.594 492.333 809.211 491.435 Q809.828 490.536 809.828 487.833 Q809.828 485.115 809.211 484.224 Q808.594 483.333 807.672 483.333 Q806.765 483.333 806.219 484.115 Q805.547 485.130 805.547 487.833 Z"/>
  <path d="M813.078 486.333 L813.078 485.333 L814.578 485.333 L814.578 486.333 L813.078 486.333 Z M813.078 493.333 L813.078 492.333 L814.578 492.333 L814.578 493.333 L813.078 493.333 Z"/>
  <path d="M816.422 487.833 Q816.422 485.927 816.812 484.763 Q817.203 483.599 817.976 482.966 Q818.750 482.333 819.922 482.333 Q820.781 482.333 821.437 482.685 Q822.094 483.036 822.515 483.693 Q822.937 484.349 823.179 485.294 Q823.422 486.240 823.422 487.833 Q823.422 489.740 823.031 490.904 Q822.640 492.068 821.867 492.701 Q821.094 493.333 819.922 493.333 Q818.375 493.333 817.484 492.224 Q816.422 490.865 816.422 487.833 Z M817.781 487.833 Q817.781 490.536 818.398 491.435 Q819.015 492.333 819.922 492.333 Q820.828 492.333 821.445 491.435 Q822.062 490.536 822.062 487.833 Q822.062 485.115 821.445 484.224 Q820.828 483.333 819.906 483.333 Q819.000 483.333 818.453 484.115 Q817.781 485.130 817.781 487.833 Z"/>
  <path d="M824.578 490.333 L825.906 490.333 Q826.140 491.396 826.679 491.865 Q827.219 492.333 828.000 492.333 Q828.937 492.333 829.578 491.716 Q830.219 491.099 830.219 490.193 Q830.219 489.318 829.625 488.747 Q829.031 488.177 828.109 488.177 Q827.734 488.177 827.187 488.333 L827.328 487.333 Q827.469 487.349 827.547 487.349 Q828.390 487.349 829.062 486.841 Q829.734 486.333 829.734 485.271 Q829.734 484.443 829.242 483.888 Q828.750 483.333 827.969 483.333 Q827.203 483.333 826.687 483.833 Q826.172 484.333 826.031 485.333 L824.719 485.333 Q824.953 483.911 825.812 483.122 Q826.672 482.333 827.953 482.333 Q828.828 482.333 829.570 482.740 Q830.312 483.146 830.703 483.849 Q831.094 484.552 831.094 485.349 Q831.094 486.099 830.719 486.716 Q830.344 487.333 829.609 487.693 Q830.562 487.896 831.086 488.544 Q831.609 489.193 831.609 490.177 Q831.609 491.490 830.586 492.411 Q829.562 493.333 827.984 493.333 Q826.578 493.333 825.640 492.497 Q824.703 491.661 824.578 490.333 Z"/>
  <path d="M833.469 486.333 L833.469 485.333 L834.969 485.333 L834.969 486.333 L833.469 486.333 Z M833.469 493.333 L833.469 492.333 L834.969 492.333 L834.969 493.333 L833.469 493.333 Z"/>
  <path d="M836.812 487.833 Q836.812 485.927 837.203 484.763 Q837.594 483.599 838.367 482.966 Q839.140 482.333 840.312 482.333 Q841.172 482.333 841.828 482.685 Q842.484 483.036 842.906 483.693 Q843.328 484.349 843.570 485.294 Q843.812 486.240 843.812 487.833 Q843.812 489.740 843.422 490.904 Q843.031 492.068 842.258 492.701 Q841.484 493.333 840.312 493.333 Q838.765 493.333 837.875 492.224 Q836.812 490.865 836.812 487.833 Z M838.172 487.833 Q838.172 490.536 838.789 491.435 Q839.406 492.333 840.312 492.333 Q841.219 492.333 841.836 491.435 Q842.453 490.536 842.453 487.833 Q842.453 485.115 841.836 484.224 Q841.219 483.333 840.297 483.333 Q839.390 483.333 838.844 484.115 Q838.172 485.130 838.172 487.833 Z"/>
  <path d="M844.969 487.833 Q844.969 485.927 845.359 484.763 Q845.750 483.599 846.523 482.966 Q847.297 482.333 848.469 482.333 Q849.328 482.333 849.984 482.685 Q850.640 483.036 851.062 483.693 Q851.484 484.349 851.726 485.294 Q851.969 486.240 851.969 487.833 Q851.969 489.740 851.578 490.904 Q851.187 492.068 850.414 492.701 Q849.640 493.333 848.469 493.333 Q846.922 493.333 846.031 492.224 Q844.969 490.865 844.969 487.833 Z M846.328 487.833 Q846.328 490.536 846.945 491.435 Q847.562 492.333 848.469 492.333 Q849.375 492.333 849.992 491.435 Q850.609 490.536 850.609 487.833 Q850.609 485.115 849.992 484.224 Q849.375 483.333 848.453 483.333 Q847.547 483.333 847.000 484.115 Q846.328 485.130 846.328 487.833 Z"/>
  <path d="M893.690 493.333 L892.362 493.333 L892.362 484.755 Q891.893 485.224 891.120 485.685 Q890.346 486.146 889.737 486.380 L889.737 485.083 Q890.846 484.552 891.667 483.794 Q892.487 483.036 892.831 482.333 L893.690 482.333 L893.690 493.333 Z"/>
  <path d="M896.878 487.833 Q896.878 485.927 897.268 484.763 Q897.659 483.599 898.432 482.966 Q899.206 482.333 900.378 482.333 Q901.237 482.333 901.893 482.685 Q902.549 483.036 902.971 483.693 Q903.393 484.349 903.635 485.294 Q903.878 486.240 903.878 487.833 Q903.878 489.740 903.487 490.904 Q903.096 492.068 902.323 492.701 Q901.549 493.333 900.378 493.333 Q898.831 493.333 897.940 492.224 Q896.878 490.865 896.878 487.833 Z M898.237 487.833 Q898.237 490.536 898.854 491.435 Q899.471 492.333 900.378 492.333 Q901.284 492.333 901.901 491.435 Q902.518 490.536 902.518 487.833 Q902.518 485.115 901.901 484.224 Q901.284 483.333 900.362 483.333 Q899.456 483.333 898.909 484.115 Q898.237 485.130 898.237 487.833 Z"/>
  <path d="M905.768 486.333 L905.768 485.333 L907.268 485.333 L907.268 486.333 L905.768 486.333 Z M905.768 493.333 L905.768 492.333 L907.268 492.333 L907.268 493.333 L905.768 493.333 Z"/>
  <path d="M909.112 490.333 L910.440 490.333 Q910.674 491.396 911.213 491.865 Q911.753 492.333 912.534 492.333 Q913.471 492.333 914.112 491.716 Q914.753 491.099 914.753 490.193 Q914.753 489.318 914.159 488.747 Q913.565 488.177 912.643 488.177 Q912.268 488.177 911.721 488.333 L911.862 487.333 Q912.003 487.349 912.081 487.349 Q912.924 487.349 913.596 486.841 Q914.268 486.333 914.268 485.271 Q914.268 484.443 913.776 483.888 Q913.284 483.333 912.503 483.333 Q911.737 483.333 911.221 483.833 Q910.706 484.333 910.565 485.333 L909.253 485.333 Q909.487 483.911 910.346 483.122 Q911.206 482.333 912.487 482.333 Q913.362 482.333 914.104 482.740 Q914.846 483.146 915.237 483.849 Q915.628 484.552 915.628 485.349 Q915.628 486.099 915.253 486.716 Q914.878 487.333 914.143 487.693 Q915.096 487.896 915.620 488.544 Q916.143 489.193 916.143 490.177 Q916.143 491.490 915.120 492.411 Q914.096 493.333 912.518 493.333 Q911.112 493.333 910.174 492.497 Q909.237 491.661 909.112 490.333 Z"/>
  <path d="M917.471 490.333 L918.737 490.333 Q918.893 491.380 919.346 491.857 Q919.799 492.333 920.518 492.333 Q921.112 492.333 921.573 492.029 Q922.034 491.724 922.323 491.216 Q922.612 490.708 922.815 489.857 Q923.018 489.005 923.018 488.177 Q923.018 488.099 923.003 487.927 Q922.612 488.552 921.924 488.943 Q921.237 489.333 920.440 489.333 Q919.112 489.333 918.190 488.388 Q917.268 487.443 917.268 485.880 Q917.268 484.286 918.229 483.310 Q919.190 482.333 920.643 482.333 Q921.690 482.333 922.557 482.896 Q923.424 483.458 923.878 484.505 Q924.331 485.552 924.331 487.536 Q924.331 489.615 923.885 490.833 Q923.440 492.052 922.557 492.693 Q921.674 493.333 920.487 493.333 Q919.221 493.333 918.424 492.544 Q917.628 491.755 917.471 490.333 Z M922.862 485.865 Q922.862 484.693 922.260 484.013 Q921.659 483.333 920.799 483.333 Q919.924 483.333 919.276 484.068 Q918.628 484.802 918.628 485.974 Q918.628 487.021 919.245 487.677 Q919.862 488.333 920.768 488.333 Q921.690 488.333 922.276 487.677 Q922.862 487.021 922.862 485.865 Z"/>
  <path d="M926.159 486.333 L926.159 485.333 L927.659 485.333 L927.659 486.333 L926.159 486.333 Z M926.159 493.333 L926.159 492.333 L927.659 492.333 L927.659 493.333 L926.159 493.333 Z"/>
  <path d="M929.503 487.833 Q929.503 485.927 929.893 484.763 Q930.284 483.599 931.057 482.966 Q931.831 482.333 933.003 482.333 Q933.862 482.333 934.518 482.685 Q935.174 483.036 935.596 483.693 Q936.018 484.349 936.260 485.294 Q936.503 486.240 936.503 487.833 Q936.503 489.740 936.112 490.904 Q935.721 492.068 934.948 492.701 Q934.174 493.333 933.003 493.333 Q931.456 493.333 930.565 492.224 Q929.503 490.865 929.503 487.833 Z M930.862 487.833 Q930.862 490.536 931.479 491.435 Q932.096 492.333 933.003 492.333 Q933.909 492.333 934.526 491.435 Q935.143 490.536 935.143 487.833 Q935.143 485.115 934.526 484.224 Q933.909 483.333 932.987 483.333 Q932.081 483.333 931.534 484.115 Q930.862 485.130 930.862 487.833 Z"/>
  <path d="M937.659 487.833 Q937.659 485.927 938.049 484.763 Q938.440 483.599 939.213 482.966 Q939.987 482.333 941.159 482.333 Q942.018 482.333 942.674 482.685 Q943.331 483.036 943.753 483.693 Q944.174 484.349 944.417 485.294 Q944.659 486.240 944.659 487.833 Q944.659 489.740 944.268 490.904 Q943.878 492.068 943.104 492.701 Q942.331 493.333 941.159 493.333 Q939.612 493.333 938.721 492.224 Q937.659 490.865 937.659 487.833 Z M939.018 487.833 Q939.018 490.536 939.635 491.435 Q940.253 492.333 941.159 492.333 Q942.065 492.333 942.682 491.435 Q943.299 490.536 943.299 487.833 Q943.299 485.115 942.682 484.224 Q942.065 483.333 941.143 483.333 Q940.237 483.333 939.690 484.115 Q939.018 485.130 939.018 487.833 Z"/>
  <path d="M986.927 493.333 L985.599 493.333 L985.599 484.755 Q985.130 485.224 984.357 485.685 Q983.583 486.146 982.974 486.380 L982.974 485.083 Q984.083 484.552 984.904 483.794 Q985.724 483.036 986.068 482.333 L986.927 482.333 L986.927 493.333 Z"/>
  <path d="M994.536 493.333 L993.208 493.333 L993.208 484.755 Q992.740 485.224 991.966 485.685 Q991.193 486.146 990.583 486.380 L990.583 485.083 Q991.693 484.552 992.513 483.794 Q993.333 483.036 993.677 482.333 L994.536 482.333 L994.536 493.333 Z"/>
  <path d="M997.911 486.333 L997.911 485.333 L999.411 485.333 L999.411 486.333 L997.911 486.333 Z M997.911 493.333 L997.911 492.333 L999.411 492.333 L999.411 493.333 L997.911 493.333 Z"/>
  <path d="M1006.224 493.333 L1004.896 493.333 L1004.896 484.755 Q1004.427 485.224 1003.654 485.685 Q1002.880 486.146 1002.271 486.380 L1002.271 485.083 Q1003.380 484.552 1004.201 483.794 Q1005.021 483.036 1005.365 482.333 L1006.224 482.333 L1006.224 493.333 Z"/>
  <path d="M1009.411 490.333 L1010.786 490.333 Q1010.943 491.333 1011.505 491.833 Q1012.068 492.333 1012.849 492.333 Q1013.802 492.333 1014.466 491.622 Q1015.130 490.911 1015.130 489.740 Q1015.130 488.630 1014.497 487.982 Q1013.865 487.333 1012.833 487.333 Q1012.193 487.333 1011.685 487.615 Q1011.177 487.896 1010.880 488.333 L1009.646 488.333 L1010.677 482.333 L1016.021 482.333 L1016.021 483.333 L1011.740 483.333 L1011.161 486.911 Q1012.130 486.333 1013.193 486.333 Q1014.583 486.333 1015.552 487.271 Q1016.521 488.208 1016.521 489.661 Q1016.521 491.068 1015.677 492.083 Q1014.646 493.333 1012.849 493.333 Q1011.396 493.333 1010.466 492.513 Q1009.536 491.693 1009.411 490.333 Z"/>
  <path d="M1018.302 486.333 L1018.302 485.333 L1019.802 485.333 L1019.802 486.333 L1018.302 486.333 Z M1018.302 493.333 L1018.302 492.333 L1019.802 492.333 L1019.802 493.333 L1018.302 493.333 Z"/>
  <path d="M1021.646 487.833 Q1021.646 485.927 1022.036 484.763 Q1022.427 483.599 1023.201 482.966 Q1023.974 482.333 1025.146 482.333 Q1026.005 482.333 1026.661 482.685 Q1027.318 483.036 1027.740 483.693 Q1028.161 484.349 1028.404 485.294 Q1028.646 486.240 1028.646 487.833 Q1028.646 489.740 1028.255 490.904 Q1027.865 492.068 1027.091 492.701 Q1026.318 493.333 1025.146 493.333 Q1023.599 493.333 1022.708 492.224 Q1021.646 490.865 1021.646 487.833 Z M1023.005 487.833 Q1023.005 490.536 1023.622 491.435 Q1024.240 492.333 1025.146 492.333 Q1026.052 492.333 1026.669 491.435 Q1027.286 490.536 1027.286 487.833 Q1027.286 485.115 1026.669 484.224 Q1026.052 483.333 1025.130 483.333 Q1024.224 483.333 1023.677 484.115 Q1023.005 485.130 1023.005 487.833 Z"/>
  <path d="M1029.802 487.833 Q1029.802 485.927 1030.193 484.763 Q1030.583 483.599 1031.357 482.966 Q1032.130 482.333 1033.302 482.333 Q1034.161 482.333 1034.818 482.685 Q1035.474 483.036 1035.896 483.693 Q1036.318 484.349 1036.560 485.294 Q1036.802 486.240 1036.802 487.833 Q1036.802 489.740 1036.411 490.904 Q1036.021 492.068 1035.247 492.701 Q1034.474 493.333 1033.302 493.333 Q1031.755 493.333 1030.865 492.224 Q1029.802 490.865 1029.802 487.833 Z M1031.161 487.833 Q1031.161 490.536 1031.779 491.435 Q1032.396 492.333 1033.302 492.333 Q1034.208 492.333 1034.826 491.435 Q1035.443 490.536 1035.443 487.833 Q1035.443 485.115 1034.826 484.224 Q1034.208 483.333 1033.286 483.333 Q1032.380 483.333 1031.833 484.115 Q1031.161 485.130 1031.161 487.833 Z"/>
  <path d="M82.431 467.600 L82.431 14.667" fill="none" stroke="#000000" stroke-width="1.333"/>
  <path d="M82.431 467.600 L87.765 467.600" fill="none" stroke="#000000" stroke-width="1.333"/>
  <path d="M82.431 422.307 L87.765 422.307" fill="none" stroke="#000000" stroke-width="1.333"/>
  <path d="M82.431 377.013 L87.765 377.013" fill="none" stroke="#000000" stroke-width="1.333"/>
  <path d="M82.431 331.720 L87.765 331.720" fill="none" stroke="#000000" stroke-width="1.333"/>
  <path d="M82.431 286.427 L87.765 286.427" fill="none" stroke="#000000" stroke-width="1.333"/>
  <path d="M82.431 241.133 L87.765 241.133" fill="none" stroke="#000000" stroke-width="1.333"/>
  <path d="M82.431 195.840 L87.765 195.840" fill="none" stroke="#000000" stroke-width="1.333"/>
  <path d="M82.431 150.547 L87.765 150.547" fill="none" stroke="#000000" stroke-width="1.333"/>
  <path d="M82.431 105.253 L87.765 105.253" fill="none" stroke="#000000" stroke-width="1.333"/>
  <path d="M82.431 59.960 L87.765 59.960" fill="none" stroke="#000000" stroke-width="1.333"/>
  <path d="M82.431 14.667 L87.765 14.667" fill="none" stroke="#000000" stroke-width="1.333"/>
  <path d="M63.167 467.100 Q63.167 465.194 63.557 464.030 Q63.948 462.866 64.721 462.233 Q65.495 461.600 66.667 461.600 Q67.526 461.600 68.182 461.952 Q68.839 462.303 69.260 462.959 Q69.682 463.616 69.924 464.561 Q70.167 465.506 70.167 467.100 Q70.167 469.006 69.776 470.170 Q69.385 471.334 68.612 471.967 Q67.839 472.600 66.667 472.600 Q65.120 472.600 64.229 471.491 Q63.167 470.131 63.167 467.100 Z M64.526 467.100 Q64.526 469.803 65.143 470.702 Q65.760 471.600 66.667 471.600 Q67.573 471.600 68.190 470.702 Q68.807 469.803 68.807 467.100 Q68.807 464.381 68.190 463.491 Q67.573 462.600 66.651 462.600 Q65.745 462.600 65.198 463.381 Q64.526 464.397 64.526 467.100 Z"/>
  <path d="M22.089 424.557 L16.604 424.557 C16.745 423.635 17.214 423.041 18.495 422.229 L19.964 421.369 C21.417 420.525 22.167 419.385 22.167 418.010 C22.167 417.088 21.807 416.229 21.198 415.635 C20.573 415.072 19.807 414.807 18.823 414.807 C17.510 414.807 16.526 415.291 15.948 416.213 C15.589 416.791 15.417 417.479 15.385 418.604 L16.682 418.604 C16.729 417.854 16.823 417.416 16.995 417.041 C17.323 416.354 18.010 415.947 18.776 415.947 C19.964 415.947 20.839 416.838 20.839 418.041 C20.839 418.932 20.354 419.697 19.432 420.260 L18.073 421.088 C15.901 422.400 15.276 423.447 15.151 425.807 L22.089 425.807 L22.089 424.557 Z"/>
  <path d="M25.620 424.291 L24.089 424.291 L24.089 425.807 L25.620 425.807 L25.620 424.291 Z"/>
  <path d="M30.932 414.807 C29.964 414.807 29.073 415.260 28.542 415.979 C27.870 416.916 27.526 418.338 27.526 420.322 C27.526 423.916 28.698 425.807 30.932 425.807 C33.135 425.807 34.339 423.916 34.339 420.400 C34.339 418.338 34.010 416.947 33.323 415.979 C32.776 415.244 31.917 414.807 30.932 414.807 Z M30.932 415.963 C32.323 415.963 33.010 417.400 33.010 420.291 C33.010 423.322 32.339 424.744 30.901 424.744 C29.542 424.744 28.839 423.260 28.839 420.338 C28.839 417.400 29.542 415.963 30.932 415.963 Z"/>
  <path d=""/>
  <path d="M44.417 419.541 L42.260 421.697 L40.120 419.557 L39.401 420.275 L41.542 422.416 L39.385 424.588 L40.120 425.307 L42.260 423.150 L44.417 425.322 L45.151 424.588 L42.995 422.416 L45.135 420.275 L44.417 419.541 Z"/>
  <path d=""/>
  <path d="M53.292 418.260 L53.292 425.807 L54.573 425.807 L54.573 415.197 L53.729 415.197 C53.276 416.838 52.979 417.057 50.979 417.322 L50.979 418.260 L53.292 418.260 Z"/>
  <path d="M61.682 414.807 C60.714 414.807 59.823 415.260 59.292 415.979 C58.620 416.916 58.276 418.338 58.276 420.322 C58.276 423.916 59.448 425.807 61.682 425.807 C63.885 425.807 65.089 423.916 65.089 420.400 C65.089 418.338 64.760 416.947 64.073 415.979 C63.526 415.244 62.667 414.807 61.682 414.807 Z M61.682 415.963 C63.073 415.963 63.760 417.400 63.760 420.291 C63.760 423.322 63.089 424.744 61.651 424.744 C60.292 424.744 59.589 423.260 59.589 420.338 C59.589 417.400 60.292 415.963 61.682 415.963 Z"/>
  <path d="M70.339 416.463 C70.167 415.432 69.464 414.807 68.417 414.807 C67.682 414.807 67.010 415.135 66.620 415.697 C66.214 416.260 66.026 416.979 66.026 418.166 C66.026 420.525 66.776 421.588 68.276 421.588 C69.542 421.588 70.464 420.682 70.464 419.244 C70.464 417.885 69.604 417.041 68.417 417.041 C67.792 417.041 67.432 417.182 66.948 417.635 C66.948 416.369 67.495 415.588 68.354 415.588 C68.932 415.588 69.292 415.900 69.432 416.463 L70.339 416.463 Z M68.307 417.807 C69.073 417.807 69.542 418.400 69.542 419.307 C69.542 420.182 69.010 420.807 68.292 420.807 C67.542 420.807 67.010 420.150 67.010 419.260 C67.010 418.400 67.526 417.807 68.307 417.807 Z"/>
  <path d="M19.464 377.685 L19.464 380.513 L20.745 380.513 L20.745 377.685 L22.292 377.685 L22.292 376.513 L20.745 376.513 L20.745 369.638 L19.792 369.638 L15.073 376.310 L15.073 377.685 L19.464 377.685 Z M19.464 376.513 L16.198 376.513 L19.464 371.841 L19.464 376.513 Z"/>
  <path d="M25.620 378.998 L24.089 378.998 L24.089 380.513 L25.620 380.513 L25.620 378.998 Z"/>
  <path d="M30.932 369.513 C29.964 369.513 29.073 369.966 28.542 370.685 C27.870 371.623 27.526 373.045 27.526 375.029 C27.526 378.623 28.698 380.513 30.932 380.513 C33.135 380.513 34.339 378.623 34.339 375.107 C34.339 373.045 34.010 371.654 33.323 370.685 C32.776 369.951 31.917 369.513 30.932 369.513 Z M30.932 370.670 C32.323 370.670 33.010 372.107 33.010 374.998 C33.010 378.029 32.339 379.451 30.901 379.451 C29.542 379.451 28.839 377.966 28.839 375.045 C28.839 372.107 29.542 370.670 30.932 370.670 Z"/>
  <path d=""/>
  <path d="M44.417 374.248 L42.260 376.404 L40.120 374.263 L39.401 374.982 L41.542 377.123 L39.385 379.295 L40.120 380.013 L42.260 377.857 L44.417 380.029 L45.151 379.295 L42.995 377.123 L45.135 374.982 L44.417 374.248 Z"/>
  <path d=""/>
  <path d="M53.292 372.966 L53.292 380.513 L54.573 380.513 L54.573 369.904 L53.729 369.904 C53.276 371.545 52.979 371.763 50.979 372.029 L50.979 372.966 L53.292 372.966 Z"/>
  <path d="M61.682 369.513 C60.714 369.513 59.823 369.966 59.292 370.685 C58.620 371.623 58.276 373.045 58.276 375.029 C58.276 378.623 59.448 380.513 61.682 380.513 C63.885 380.513 65.089 378.623 65.089 375.107 C65.089 373.045 64.760 371.654 64.073 370.685 C63.526 369.951 62.667 369.513 61.682 369.513 Z M61.682 370.670 C63.073 370.670 63.760 372.107 63.760 374.998 C63.760 378.029 63.089 379.451 61.651 379.451 C60.292 379.451 59.589 377.966 59.589 375.045 C59.589 372.107 60.292 370.670 61.682 370.670 Z"/>
  <path d="M70.339 371.170 C70.167 370.138 69.464 369.513 68.417 369.513 C67.682 369.513 67.010 369.841 66.620 370.404 C66.214 370.966 66.026 371.685 66.026 372.873 C66.026 375.232 66.776 376.295 68.276 376.295 C69.542 376.295 70.464 375.388 70.464 373.951 C70.464 372.591 69.604 371.748 68.417 371.748 C67.792 371.748 67.432 371.888 66.948 372.341 C66.948 371.076 67.495 370.295 68.354 370.295 C68.932 370.295 69.292 370.607 69.432 371.170 L70.339 371.170 Z M68.307 372.513 C69.073 372.513 69.542 373.107 69.542 374.013 C69.542 374.888 69.010 375.513 68.292 375.513 C67.542 375.513 67.010 374.857 67.010 373.966 C67.010 373.107 67.526 372.513 68.307 372.513 Z"/>
  <path d="M21.964 326.954 C21.714 325.251 20.604 324.220 19.026 324.220 C17.870 324.220 16.839 324.782 16.229 325.736 C15.573 326.751 15.292 328.017 15.292 329.939 C15.292 331.782 15.542 332.939 16.167 333.907 C16.729 334.767 17.635 335.220 18.776 335.220 C20.760 335.220 22.182 333.736 22.182 331.611 C22.182 329.611 20.870 328.220 19.010 328.220 C17.979 328.220 17.167 328.611 16.604 329.392 C16.620 326.798 17.448 325.376 18.932 325.376 C19.839 325.376 20.479 325.954 20.682 326.954 L21.964 326.954 Z M18.839 329.376 C20.089 329.376 20.870 330.282 20.870 331.720 C20.870 333.095 19.995 334.079 18.792 334.079 C17.589 334.079 16.682 333.048 16.682 331.657 C16.682 330.314 17.573 329.376 18.839 329.376 Z"/>
  <path d="M25.620 333.704 L24.089 333.704 L24.089 335.220 L25.620 335.220 L25.620 333.704 Z"/>
  <path d="M30.932 324.220 C29.964 324.220 29.073 324.673 28.542 325.392 C27.870 326.329 27.526 327.751 27.526 329.736 C27.526 333.329 28.698 335.220 30.932 335.220 C33.135 335.220 34.339 333.329 34.339 329.814 C34.339 327.751 34.010 326.361 33.323 325.392 C32.776 324.657 31.917 324.220 30.932 324.220 Z M30.932 325.376 C32.323 325.376 33.010 326.814 33.010 329.704 C33.010 332.736 32.339 334.157 30.901 334.157 C29.542 334.157 28.839 332.673 28.839 329.751 C28.839 326.814 29.542 325.376 30.932 325.376 Z"/>
  <path d=""/>
  <path d="M44.417 328.954 L42.260 331.111 L40.120 328.970 L39.401 329.689 L41.542 331.829 L39.385 334.001 L40.120 334.720 L42.260 332.564 L44.417 334.736 L45.151 334.001 L42.995 331.829 L45.135 329.689 L44.417 328.954 Z"/>
  <path d=""/>
  <path d="M53.292 327.673 L53.292 335.220 L54.573 335.220 L54.573 324.611 L53.729 324.611 C53.276 326.251 52.979 326.470 50.979 326.736 L50.979 327.673 L53.292 327.673 Z"/>
  <path d="M61.682 324.220 C60.714 324.220 59.823 324.673 59.292 325.392 C58.620 326.329 58.276 327.751 58.276 329.736 C58.276 333.329 59.448 335.220 61.682 335.220 C63.885 335.220 65.089 333.329 65.089 329.814 C65.089 327.751 64.760 326.361 64.073 325.392 C63.526 324.657 62.667 324.220 61.682 324.220 Z M61.682 325.376 C63.073 325.376 63.760 326.814 63.760 329.704 C63.760 332.736 63.089 334.157 61.651 334.157 C60.292 334.157 59.589 332.673 59.589 329.751 C59.589 326.814 60.292 325.376 61.682 325.376 Z"/>
  <path d="M70.339 325.876 C70.167 324.845 69.464 324.220 68.417 324.220 C67.682 324.220 67.010 324.548 66.620 325.111 C66.214 325.673 66.026 326.392 66.026 327.579 C66.026 329.939 66.776 331.001 68.276 331.001 C69.542 331.001 70.464 330.095 70.464 328.657 C70.464 327.298 69.604 326.454 68.417 326.454 C67.792 326.454 67.432 326.595 66.948 327.048 C66.948 325.782 67.495 325.001 68.354 325.001 C68.932 325.001 69.292 325.314 69.432 325.876 L70.339 325.876 Z M68.307 327.220 C69.073 327.220 69.542 327.814 69.542 328.720 C69.542 329.595 69.010 330.220 68.292 330.220 C67.542 330.220 67.010 329.564 67.010 328.673 C67.010 327.814 67.526 327.220 68.307 327.220 Z"/>
  <path d="M20.401 284.349 C21.479 283.661 21.823 283.083 21.823 281.958 C21.823 280.099 20.542 278.927 18.698 278.927 C16.854 278.927 15.573 280.099 15.573 281.942 C15.573 283.083 15.901 283.645 16.979 284.349 C15.792 284.942 15.198 285.739 15.198 286.817 C15.198 288.599 16.620 289.927 18.698 289.927 C20.745 289.927 22.182 288.599 22.182 286.817 C22.182 285.739 21.604 284.942 20.401 284.349 Z M18.698 280.083 C19.792 280.083 20.495 280.817 20.495 281.989 C20.495 283.114 19.776 283.849 18.698 283.849 C17.589 283.849 16.885 283.114 16.885 281.958 C16.885 280.817 17.589 280.083 18.698 280.083 Z M18.698 284.927 C19.995 284.927 20.870 285.724 20.870 286.849 C20.870 288.020 19.995 288.786 18.667 288.786 C17.401 288.786 16.526 287.989 16.526 286.864 C16.526 285.708 17.385 284.927 18.698 284.927 Z"/>
  <path d="M25.620 288.411 L24.089 288.411 L24.089 289.927 L25.620 289.927 L25.620 288.411 Z"/>
  <path d="M30.932 278.927 C29.964 278.927 29.073 279.380 28.542 280.099 C27.870 281.036 27.526 282.458 27.526 284.442 C27.526 288.036 28.698 289.927 30.932 289.927 C33.135 289.927 34.339 288.036 34.339 284.520 C34.339 282.458 34.010 281.067 33.323 280.099 C32.776 279.364 31.917 278.927 30.932 278.927 Z M30.932 280.083 C32.323 280.083 33.010 281.520 33.010 284.411 C33.010 287.442 32.339 288.864 30.901 288.864 C29.542 288.864 28.839 287.380 28.839 284.458 C28.839 281.520 29.542 280.083 30.932 280.083 Z"/>
  <path d=""/>
  <path d="M44.417 283.661 L42.260 285.817 L40.120 283.677 L39.401 284.395 L41.542 286.536 L39.385 288.708 L40.120 289.427 L42.260 287.270 L44.417 289.442 L45.151 288.708 L42.995 286.536 L45.135 284.395 L44.417 283.661 Z"/>
  <path d=""/>
  <path d="M53.292 282.380 L53.292 289.927 L54.573 289.927 L54.573 279.317 L53.729 279.317 C53.276 280.958 52.979 281.177 50.979 281.442 L50.979 282.380 L53.292 282.380 Z"/>
  <path d="M61.682 278.927 C60.714 278.927 59.823 279.380 59.292 280.099 C58.620 281.036 58.276 282.458 58.276 284.442 C58.276 288.036 59.448 289.927 61.682 289.927 C63.885 289.927 65.089 288.036 65.089 284.520 C65.089 282.458 64.760 281.067 64.073 280.099 C63.526 279.364 62.667 278.927 61.682 278.927 Z M61.682 280.083 C63.073 280.083 63.760 281.520 63.760 284.411 C63.760 287.442 63.089 288.864 61.651 288.864 C60.292 288.864 59.589 287.380 59.589 284.458 C59.589 281.520 60.292 280.083 61.682 280.083 Z"/>
  <path d="M70.339 280.583 C70.167 279.552 69.464 278.927 68.417 278.927 C67.682 278.927 67.010 279.255 66.620 279.817 C66.214 280.380 66.026 281.099 66.026 282.286 C66.026 284.645 66.776 285.708 68.276 285.708 C69.542 285.708 70.464 284.802 70.464 283.364 C70.464 282.005 69.604 281.161 68.417 281.161 C67.792 281.161 67.432 281.302 66.948 281.755 C66.948 280.489 67.495 279.708 68.354 279.708 C68.932 279.708 69.292 280.020 69.432 280.583 L70.339 280.583 Z M68.307 281.927 C69.073 281.927 69.542 282.520 69.542 283.427 C69.542 284.302 69.010 284.927 68.292 284.927 C67.542 284.927 67.010 284.270 67.010 283.380 C67.010 282.520 67.526 281.927 68.307 281.927 Z"/>
  <path d="M18.464 237.086 L18.464 244.633 L19.745 244.633 L19.745 234.024 L18.901 234.024 C18.448 235.665 18.151 235.883 16.151 236.149 L16.151 237.086 L18.464 237.086 Z"/>
  <path d="M25.620 243.118 L24.089 243.118 L24.089 244.633 L25.620 244.633 L25.620 243.118 Z"/>
  <path d="M30.932 233.633 C29.964 233.633 29.073 234.086 28.542 234.805 C27.870 235.743 27.526 237.165 27.526 239.149 C27.526 242.743 28.698 244.633 30.932 244.633 C33.135 244.633 34.339 242.743 34.339 239.227 C34.339 237.165 34.010 235.774 33.323 234.805 C32.776 234.071 31.917 233.633 30.932 233.633 Z M30.932 234.790 C32.323 234.790 33.010 236.227 33.010 239.118 C33.010 242.149 32.339 243.571 30.901 243.571 C29.542 243.571 28.839 242.086 28.839 239.165 C28.839 236.227 29.542 234.790 30.932 234.790 Z"/>
  <path d=""/>
  <path d="M44.417 238.368 L42.260 240.524 L40.120 238.383 L39.401 239.102 L41.542 241.243 L39.385 243.415 L40.120 244.133 L42.260 241.977 L44.417 244.149 L45.151 243.415 L42.995 241.243 L45.135 239.102 L44.417 238.368 Z"/>
  <path d=""/>
  <path d="M53.292 237.086 L53.292 244.633 L54.573 244.633 L54.573 234.024 L53.729 234.024 C53.276 235.665 52.979 235.883 50.979 236.149 L50.979 237.086 L53.292 237.086 Z"/>
  <path d="M61.682 233.633 C60.714 233.633 59.823 234.086 59.292 234.805 C58.620 235.743 58.276 237.165 58.276 239.149 C58.276 242.743 59.448 244.633 61.682 244.633 C63.885 244.633 65.089 242.743 65.089 239.227 C65.089 237.165 64.760 235.774 64.073 234.805 C63.526 234.071 62.667 233.633 61.682 233.633 Z M61.682 234.790 C63.073 234.790 63.760 236.227 63.760 239.118 C63.760 242.149 63.089 243.571 61.651 243.571 C60.292 243.571 59.589 242.086 59.589 239.165 C59.589 236.227 60.292 234.790 61.682 234.790 Z"/>
  <path d="M70.542 233.633 L66.057 233.633 L66.057 234.493 L69.557 234.493 C68.010 236.555 67.401 237.805 66.901 239.883 L67.870 239.883 C68.229 237.899 69.057 236.196 70.542 234.352 L70.542 233.633 Z"/>
  <path d="M18.464 191.793 L18.464 199.340 L19.745 199.340 L19.745 188.731 L18.901 188.731 C18.448 190.371 18.151 190.590 16.151 190.856 L16.151 191.793 L18.464 191.793 Z"/>
  <path d="M25.620 197.824 L24.089 197.824 L24.089 199.340 L25.620 199.340 L25.620 197.824 Z"/>
  <path d="M34.323 198.090 L28.839 198.090 C28.979 197.168 29.448 196.574 30.729 195.762 L32.198 194.902 C33.651 194.059 34.401 192.918 34.401 191.543 C34.401 190.621 34.042 189.762 33.432 189.168 C32.807 188.606 32.042 188.340 31.057 188.340 C29.745 188.340 28.760 188.824 28.182 189.746 C27.823 190.324 27.651 191.012 27.620 192.137 L28.917 192.137 C28.964 191.387 29.057 190.949 29.229 190.574 C29.557 189.887 30.245 189.481 31.010 189.481 C32.198 189.481 33.073 190.371 33.073 191.574 C33.073 192.465 32.589 193.231 31.667 193.793 L30.307 194.621 C28.135 195.934 27.510 196.981 27.385 199.340 L34.323 199.340 L34.323 198.090 Z"/>
  <path d=""/>
  <path d="M44.417 193.074 L42.260 195.231 L40.120 193.090 L39.401 193.809 L41.542 195.949 L39.385 198.121 L40.120 198.840 L42.260 196.684 L44.417 198.856 L45.151 198.121 L42.995 195.949 L45.135 193.809 L44.417 193.074 Z"/>
  <path d=""/>
  <path d="M53.292 191.793 L53.292 199.340 L54.573 199.340 L54.573 188.731 L53.729 188.731 C53.276 190.371 52.979 190.590 50.979 190.856 L50.979 191.793 L53.292 191.793 Z"/>
  <path d="M61.682 188.340 C60.714 188.340 59.823 188.793 59.292 189.512 C58.620 190.449 58.276 191.871 58.276 193.856 C58.276 197.449 59.448 199.340 61.682 199.340 C63.885 199.340 65.089 197.449 65.089 193.934 C65.089 191.871 64.760 190.481 64.073 189.512 C63.526 188.777 62.667 188.340 61.682 188.340 Z M61.682 189.496 C63.073 189.496 63.760 190.934 63.760 193.824 C63.760 196.856 63.089 198.277 61.651 198.277 C60.292 198.277 59.589 196.793 59.589 193.871 C59.589 190.934 60.292 189.496 61.682 189.496 Z"/>
  <path d="M70.542 188.340 L66.057 188.340 L66.057 189.199 L69.557 189.199 C68.010 191.262 67.401 192.512 66.901 194.590 L67.870 194.590 C68.229 192.606 69.057 190.902 70.542 189.059 L70.542 188.340 Z"/>
  <path d="M18.464 146.500 L18.464 154.047 L19.745 154.047 L19.745 143.437 L18.901 143.437 C18.448 145.078 18.151 145.297 16.151 145.562 L16.151 146.500 L18.464 146.500 Z"/>
  <path d="M25.620 152.531 L24.089 152.531 L24.089 154.047 L25.620 154.047 L25.620 152.531 Z"/>
  <path d="M31.698 151.219 L31.698 154.047 L32.979 154.047 L32.979 151.219 L34.526 151.219 L34.526 150.047 L32.979 150.047 L32.979 143.172 L32.026 143.172 L27.307 149.844 L27.307 151.219 L31.698 151.219 Z M31.698 150.047 L28.432 150.047 L31.698 145.375 L31.698 150.047 Z"/>
  <path d=""/>
  <path d="M44.417 147.781 L42.260 149.937 L40.120 147.797 L39.401 148.515 L41.542 150.656 L39.385 152.828 L40.120 153.547 L42.260 151.390 L44.417 153.562 L45.151 152.828 L42.995 150.656 L45.135 148.515 L44.417 147.781 Z"/>
  <path d=""/>
  <path d="M53.292 146.500 L53.292 154.047 L54.573 154.047 L54.573 143.437 L53.729 143.437 C53.276 145.078 52.979 145.297 50.979 145.562 L50.979 146.500 L53.292 146.500 Z"/>
  <path d="M61.682 143.047 C60.714 143.047 59.823 143.500 59.292 144.219 C58.620 145.156 58.276 146.578 58.276 148.562 C58.276 152.156 59.448 154.047 61.682 154.047 C63.885 154.047 65.089 152.156 65.089 148.640 C65.089 146.578 64.760 145.187 64.073 144.219 C63.526 143.484 62.667 143.047 61.682 143.047 Z M61.682 144.203 C63.073 144.203 63.760 145.640 63.760 148.531 C63.760 151.562 63.089 152.984 61.651 152.984 C60.292 152.984 59.589 151.500 59.589 148.578 C59.589 145.640 60.292 144.203 61.682 144.203 Z"/>
  <path d="M70.542 143.047 L66.057 143.047 L66.057 143.906 L69.557 143.906 C68.010 145.969 67.401 147.219 66.901 149.297 L67.870 149.297 C68.229 147.312 69.057 145.609 70.542 143.765 L70.542 143.047 Z"/>
  <path d="M18.464 101.206 L18.464 108.753 L19.745 108.753 L19.745 98.144 L18.901 98.144 C18.448 99.785 18.151 100.003 16.151 100.269 L16.151 101.206 L18.464 101.206 Z"/>
  <path d="M25.620 107.238 L24.089 107.238 L24.089 108.753 L25.620 108.753 L25.620 107.238 Z"/>
  <path d="M34.198 100.488 C33.948 98.785 32.839 97.753 31.260 97.753 C30.104 97.753 29.073 98.316 28.464 99.269 C27.807 100.285 27.526 101.550 27.526 103.472 C27.526 105.316 27.776 106.472 28.401 107.441 C28.964 108.300 29.870 108.753 31.010 108.753 C32.995 108.753 34.417 107.269 34.417 105.144 C34.417 103.144 33.104 101.753 31.245 101.753 C30.214 101.753 29.401 102.144 28.839 102.925 C28.854 100.331 29.682 98.910 31.167 98.910 C32.073 98.910 32.714 99.488 32.917 100.488 L34.198 100.488 Z M31.073 102.910 C32.323 102.910 33.104 103.816 33.104 105.253 C33.104 106.628 32.229 107.613 31.026 107.613 C29.823 107.613 28.917 106.581 28.917 105.191 C28.917 103.847 29.807 102.910 31.073 102.910 Z"/>
  <path d=""/>
  <path d="M44.417 102.488 L42.260 104.644 L40.120 102.503 L39.401 103.222 L41.542 105.363 L39.385 107.535 L40.120 108.253 L42.260 106.097 L44.417 108.269 L45.151 107.535 L42.995 105.363 L45.135 103.222 L44.417 102.488 Z"/>
  <path d=""/>
  <path d="M53.292 101.206 L53.292 108.753 L54.573 108.753 L54.573 98.144 L53.729 98.144 C53.276 99.785 52.979 100.003 50.979 100.269 L50.979 101.206 L53.292 101.206 Z"/>
  <path d="M61.682 97.753 C60.714 97.753 59.823 98.206 59.292 98.925 C58.620 99.863 58.276 101.285 58.276 103.269 C58.276 106.863 59.448 108.753 61.682 108.753 C63.885 108.753 65.089 106.863 65.089 103.347 C65.089 101.285 64.760 99.894 64.073 98.925 C63.526 98.191 62.667 97.753 61.682 97.753 Z M61.682 98.910 C63.073 98.910 63.760 100.347 63.760 103.238 C63.760 106.269 63.089 107.691 61.651 107.691 C60.292 107.691 59.589 106.206 59.589 103.285 C59.589 100.347 60.292 98.910 61.682 98.910 Z"/>
  <path d="M70.542 97.753 L66.057 97.753 L66.057 98.613 L69.557 98.613 C68.010 100.675 67.401 101.925 66.901 104.003 L67.870 104.003 C68.229 102.019 69.057 100.316 70.542 98.472 L70.542 97.753 Z"/>
  <path d="M18.464 55.913 L18.464 63.460 L19.745 63.460 L19.745 52.851 L18.901 52.851 C18.448 54.491 18.151 54.710 16.151 54.976 L16.151 55.913 L18.464 55.913 Z"/>
  <path d="M25.620 61.944 L24.089 61.944 L24.089 63.460 L25.620 63.460 L25.620 61.944 Z"/>
  <path d="M32.635 57.882 C33.714 57.194 34.057 56.616 34.057 55.491 C34.057 53.632 32.776 52.460 30.932 52.460 C29.089 52.460 27.807 53.632 27.807 55.476 C27.807 56.616 28.135 57.179 29.214 57.882 C28.026 58.476 27.432 59.272 27.432 60.351 C27.432 62.132 28.854 63.460 30.932 63.460 C32.979 63.460 34.417 62.132 34.417 60.351 C34.417 59.272 33.839 58.476 32.635 57.882 Z M30.932 53.616 C32.026 53.616 32.729 54.351 32.729 55.522 C32.729 56.647 32.010 57.382 30.932 57.382 C29.823 57.382 29.120 56.647 29.120 55.491 C29.120 54.351 29.823 53.616 30.932 53.616 Z M30.932 58.460 C32.229 58.460 33.104 59.257 33.104 60.382 C33.104 61.554 32.229 62.319 30.901 62.319 C29.635 62.319 28.760 61.522 28.760 60.397 C28.760 59.241 29.620 58.460 30.932 58.460 Z"/>
  <path d=""/>
  <path d="M44.417 57.194 L42.260 59.351 L40.120 57.210 L39.401 57.929 L41.542 60.069 L39.385 62.241 L40.120 62.960 L42.260 60.804 L44.417 62.976 L45.151 62.241 L42.995 60.069 L45.135 57.929 L44.417 57.194 Z"/>
  <path d=""/>
  <path d="M53.292 55.913 L53.292 63.460 L54.573 63.460 L54.573 52.851 L53.729 52.851 C53.276 54.491 52.979 54.710 50.979 54.976 L50.979 55.913 L53.292 55.913 Z"/>
  <path d="M61.682 52.460 C60.714 52.460 59.823 52.913 59.292 53.632 C58.620 54.569 58.276 55.991 58.276 57.976 C58.276 61.569 59.448 63.460 61.682 63.460 C63.885 63.460 65.089 61.569 65.089 58.054 C65.089 55.991 64.760 54.601 64.073 53.632 C63.526 52.897 62.667 52.460 61.682 52.460 Z M61.682 53.616 C63.073 53.616 63.760 55.054 63.760 57.944 C63.760 60.976 63.089 62.397 61.651 62.397 C60.292 62.397 59.589 60.913 59.589 57.991 C59.589 55.054 60.292 53.616 61.682 53.616 Z"/>
  <path d="M70.542 52.460 L66.057 52.460 L66.057 53.319 L69.557 53.319 C68.010 55.382 67.401 56.632 66.901 58.710 L67.870 58.710 C68.229 56.726 69.057 55.022 70.542 53.179 L70.542 52.460 Z"/>
  <path d="M22.089 16.917 L16.604 16.917 C16.745 15.995 17.214 15.401 18.495 14.589 L19.964 13.729 C21.417 12.885 22.167 11.745 22.167 10.370 C22.167 9.448 21.807 8.589 21.198 7.995 C20.573 7.432 19.807 7.167 18.823 7.167 C17.510 7.167 16.526 7.651 15.948 8.573 C15.589 9.151 15.417 9.839 15.385 10.964 L16.682 10.964 C16.729 10.214 16.823 9.776 16.995 9.401 C17.323 8.714 18.010 8.307 18.776 8.307 C19.964 8.307 20.839 9.198 20.839 10.401 C20.839 11.292 20.354 12.057 19.432 12.620 L18.073 13.448 C15.901 14.760 15.276 15.807 15.151 18.167 L22.089 18.167 L22.089 16.917 Z"/>
  <path d="M25.620 16.651 L24.089 16.651 L24.089 18.167 L25.620 18.167 L25.620 16.651 Z"/>
  <path d="M30.932 7.167 C29.964 7.167 29.073 7.620 28.542 8.339 C27.870 9.276 27.526 10.698 27.526 12.682 C27.526 16.276 28.698 18.167 30.932 18.167 C33.135 18.167 34.339 16.276 34.339 12.760 C34.339 10.698 34.010 9.307 33.323 8.339 C32.776 7.604 31.917 7.167 30.932 7.167 Z M30.932 8.323 C32.323 8.323 33.010 9.760 33.010 12.651 C33.010 15.682 32.339 17.104 30.901 17.104 C29.542 17.104 28.839 15.620 28.839 12.698 C28.839 9.760 29.542 8.323 30.932 8.323 Z"/>
  <path d=""/>
  <path d="M44.417 11.901 L42.260 14.057 L40.120 11.917 L39.401 12.635 L41.542 14.776 L39.385 16.948 L40.120 17.667 L42.260 15.510 L44.417 17.682 L45.151 16.948 L42.995 14.776 L45.135 12.635 L44.417 11.901 Z"/>
  <path d=""/>
  <path d="M53.292 10.620 L53.292 18.167 L54.573 18.167 L54.573 7.557 L53.729 7.557 C53.276 9.198 52.979 9.417 50.979 9.682 L50.979 10.620 L53.292 10.620 Z"/>
  <path d="M61.682 7.167 C60.714 7.167 59.823 7.620 59.292 8.339 C58.620 9.276 58.276 10.698 58.276 12.682 C58.276 16.276 59.448 18.167 61.682 18.167 C63.885 18.167 65.089 16.276 65.089 12.760 C65.089 10.698 64.760 9.307 64.073 8.339 C63.526 7.604 62.667 7.167 61.682 7.167 Z M61.682 8.323 C63.073 8.323 63.760 9.760 63.760 12.651 C63.760 15.682 63.089 17.104 61.651 17.104 C60.292 17.104 59.589 15.620 59.589 12.698 C59.589 9.760 60.292 8.323 61.682 8.323 Z"/>
  <path d="M70.542 7.167 L66.057 7.167 L66.057 8.026 L69.557 8.026 C68.010 10.089 67.401 11.339 66.901 13.417 L67.870 13.417 C68.229 11.432 69.057 9.729 70.542 7.885 L70.542 7.167 Z"/>
  <path d="M82.431 467.600 L82.431 14.667" fill="none" stroke="#ffffff" stroke-width="1.333"/>
  <path d="M175.121 467.600 L175.121 14.667" fill="none" stroke="#ffffff" stroke-width="1.333"/>
  <path d="M267.812 467.600 L267.812 14.667" fill="none" stroke="#ffffff" stroke-width="1.333"/>
  <path d="M360.502 467.600 L360.502 14.667" fill="none" stroke="#ffffff" stroke-width="1.333"/>
  <path d="M453.192 467.600 L453.192 14.667" fill="none" stroke="#ffffff" stroke-width="1.333"/>
  <path d="M545.882 467.600 L545.882 14.667" fill="none" stroke="#ffffff" stroke-width="1.333"/>
  <path d="M638.573 467.600 L638.573 14.667" fill="none" stroke="#ffffff" stroke-width="1.333"/>
  <path d="M731.263 467.600 L731.263 14.667" fill="none" stroke="#ffffff" stroke-width="1.333"/>
  <path d="M823.953 467.600 L823.953 14.667" fill="none" stroke="#ffffff" stroke-width="1.333"/>
  <path d="M916.643 467.600 L916.643 14.667" fill="none" stroke="#ffffff" stroke-width="1.333"/>
  <path d="M1009.333 467.600 L1009.333 14.667" fill="none" stroke="#ffffff" stroke-width="1.333"/>
  <path d="M82.431 14.667 L1009.333 14.667" fill="none" stroke="#ffffff" stroke-width="1.333"/>
  <path d="M82.431 59.960 L1009.333 59.960" fill="none" stroke="#ffffff" stroke-width="1.333"/>
  <path d="M82.431 105.253 L1009.333 105.253" fill="none" stroke="#ffffff" stroke-width="1.333"/>
  <path d="M82.431 150.547 L1009.333 150.547" fill="none" stroke="#ffffff" stroke-width="1.333"/>
  <path d="M82.431 195.840 L1009.333 195.840" fill="none" stroke="#ffffff" stroke-width="1.333"/>
  <path d="M82.431 241.133 L1009.333 241.133" fill="none" stroke="#ffffff" stroke-width="1.333"/>
  <path d="M82.431 286.427 L1009.333 286.427" fill="none" stroke="#ffffff" stroke-width="1.333"/>
  <path d="M82.431 331.720 L1009.333 331.720" fill="none" stroke="#ffffff" stroke-width="1.333"/>
  <path d="M82.431 377.013 L1009.333 377.013" fill="none" stroke="#ffffff" stroke-width="1.333"/>
  <path d="M82.431 422.307 L1009.333 422.307" fill="none" stroke="#ffffff" stroke-width="1.333"/>
  <path d="M82.431 467.600 L1009.333 467.600" fill="none" stroke="#ffffff" stroke-width="1.333"/>
  <path d="M82.431 272.340 L95.305 278.785 L108.179 282.754 L121.052 282.436 L133.926 285.641 L146.799 287.660 L159.673 289.007 L172.547 289.831 L185.420 291.943 L198.294 288.197 L211.168 289.376 L224.041 292.991 L236.915 288.374 L249.789 288.938 L262.662 292.505 L275.536 292.024 L288.409 294.402 L301.283 296.031 L314.157 298.517 L327.030 299.440 L339.904 300.724 L352.778 290.724 L365.651 283.270 L378.525 281.252 L391.399 283.036 L404.272 287.158 L417.146 292.873 L430.020 292.418 L442.893 295.869 L455.767 297.035 L468.640 298.675 L481.514 297.188 L494.388 299.002 L507.261 295.527 L520.135 292.684 L533.009 298.595 L545.882 299.347 L558.756 300.294 L571.630 302.603 L584.503 297.816 L597.377 295.706 L610.250 295.926 L623.124 297.095 L635.998 293.958 L648.871 298.876 L661.745 295.537 L674.619 294.181 L687.492 294.329 L700.366 296.120 L713.240 292.428 L726.113 291.817 L738.987 289.430 L751.861 292.425 L764.734 295.433 L777.608 297.821 L790.481 293.222 L803.355 295.387 L816.229 294.924 L829.102 299.042 L841.976 300.229 L854.850 298.969 L867.723 299.925 L880.597 298.942 L893.471 297.308 L906.344 297.841 L919.218 296.754 L932.091 295.115 L944.965 296.024 L957.839 297.505 L970.712 292.121 L983.586 291.400 L996.460 288.478 L1009.333 288.781 L1009.333 467.600 L996.460 467.600 L983.586 467.600 L970.712 467.600 L957.839 467.600 L944.965 467.600 L932.091 467.600 L919.218 467.600 L906.344 467.600 L893.471 467.600 L880.597 467.600 L867.723 467.600 L854.850 467.600 L841.976 467.600 L829.102 467.600 L816.229 467.600 L803.355 467.600 L790.481 467.600 L777.608 467.600 L764.734 467.600 L751.861 467.600 L738.987 467.600 L726.113 467.600 L713.240 467.600 L700.366 467.600 L687.492 467.600 L674.619 467.600 L661.745 467.600 L648.871 467.600 L635.998 467.600 L623.124 467.600 L610.250 467.600 L597.377 467.600 L584.503 467.600 L571.630 467.600 L558.756 467.600 L545.882 467.600 L533.009 467.600 L520.135 467.600 L507.261 467.600 L494.388 467.600 L481.514 467.600 L468.640 467.600 L455.767 467.600 L442.893 467.600 L430.020 467.600 L417.146 467.600 L404.272 467.600 L391.399 467.600 L378.525 467.600 L365.651 467.600 L352.778 467.600 L339.904 467.600 L327.030 467.600 L314.157 467.600 L301.283 467.600 L288.409 467.600 L275.536 467.600 L262.662 467.600 L249.789 467.600 L236.915 467.600 L224.041 467.600 L211.168 467.600 L198.294 467.600 L185.420 467.600 L172.547 467.600 L159.673 467.600 L146.799 467.600 L133.926 467.600 L121.052 467.600 L108.179 467.600 L95.305 467.600 L82.431 467.600 Z" fill="#888888"/>
</svg>
