<?xml version="1.0" encoding="UTF-8" ?>
<!-- Generated by clip v0.7.0 (clip-lang.org) -->
<svg xmlns="http://www.w3.org/2000/svg" width="1200.000000" height="480.000000">
  <rect width="1200.000000" height="480.000000" fill="#ffffff" fill-opacity="1.000000"/>
  <path d="M83.4938 435.6 L1185.33 435.6 " fill="none" stroke-width="1.333333" stroke="#000000ff"/>
  <path d="M83.4938 435.6 L83.4938 430.267 " fill="none" stroke-width="1.333333" stroke="#000000ff"/>
  <path d="M193.678 435.6 L193.678 430.267 " fill="none" stroke-width="1.333333" stroke="#000000ff"/>
  <path d="M303.862 435.6 L303.862 430.267 " fill="none" stroke-width="1.333333" stroke="#000000ff"/>
  <path d="M414.046 435.6 L414.046 430.267 " fill="none" stroke-width="1.333333" stroke="#000000ff"/>
  <path d="M524.23 435.6 L524.23 430.267 " fill="none" stroke-width="1.333333" stroke="#000000ff"/>
  <path d="M634.414 435.6 L634.414 430.267 " fill="none" stroke-width="1.333333" stroke="#000000ff"/>
  <path d="M744.598 435.6 L744.598 430.267 " fill="none" stroke-width="1.333333" stroke="#000000ff"/>
  <path d="M854.781 435.6 L854.781 430.267 " fill="none" stroke-width="1.333333" stroke="#000000ff"/>
  <path d="M964.965 435.6 L964.965 430.267 " fill="none" stroke-width="1.333333" stroke="#000000ff"/>
  <path d="M1075.15 435.6 L1075.15 430.267 " fill="none" stroke-width="1.333333" stroke="#000000ff"/>
  <path d="M1185.33 435.6 L1185.33 430.267 " fill="none" stroke-width="1.333333" stroke="#000000ff"/>
  <path d="M73.9234 455.833 Q73.9234 453.927 74.3141 452.763 Q74.7047 451.599 75.4781 450.966 Q76.2516 450.333 77.4234 450.333 Q78.2828 450.333 78.9391 450.685 Q79.5953 451.036 80.0172 451.693 Q80.4391 452.349 80.6813 453.294 Q80.9234 454.24 80.9234 455.833 Q80.9234 457.74 80.5328 458.904 Q80.1422 460.068 79.3688 460.701 Q78.5953 461.333 77.4234 461.333 Q75.8766 461.333 74.9859 460.224 Q73.9234 458.865 73.9234 455.833 ZM75.2828 455.833 Q75.2828 458.536 75.9 459.435 Q76.5172 460.333 77.4234 460.333 Q78.3297 460.333 78.9469 459.435 Q79.5641 458.536 79.5641 455.833 Q79.5641 453.115 78.9469 452.224 Q78.3297 451.333 77.4078 451.333 Q76.5016 451.333 75.9547 452.115 Q75.2828 453.13 75.2828 455.833 Z" fill="#000000" fill-opacity="1.000000"/>
  <path d="M82.8141 461.333 L82.8141 460.333 L84.3141 460.333 L84.3141 461.333 L82.8141 461.333 Z" fill="#000000" fill-opacity="1.000000"/>
  <path d="M86.1578 455.833 Q86.1578 453.927 86.5484 452.763 Q86.9391 451.599 87.7125 450.966 Q88.4859 450.333 89.6578 450.333 Q90.5172 450.333 91.1734 450.685 Q91.8297 451.036 92.2516 451.693 Q92.6734 452.349 92.9156 453.294 Q93.1578 454.24 93.1578 455.833 Q93.1578 457.74 92.7672 458.904 Q92.3766 460.068 91.6031 460.701 Q90.8297 461.333 89.6578 461.333 Q88.1109 461.333 87.2203 460.224 Q86.1578 458.865 86.1578 455.833 ZM87.5172 455.833 Q87.5172 458.536 88.1344 459.435 Q88.7516 460.333 89.6578 460.333 Q90.5641 460.333 91.1813 459.435 Q91.7984 458.536 91.7984 455.833 Q91.7984 453.115 91.1813 452.224 Q90.5641 451.333 89.6422 451.333 Q88.7359 451.333 88.1891 452.115 Q87.5172 453.13 87.5172 455.833 Z" fill="#000000" fill-opacity="1.000000"/>
  <path d="M184.998 461.333 L183.67 461.333 L183.67 452.755 Q183.201 453.224 182.428 453.685 Q181.654 454.146 181.045 454.38 L181.045 453.083 Q182.154 452.552 182.975 451.794 Q183.795 451.036 184.139 450.333 L184.998 450.333 L184.998 461.333 Z" fill="#000000" fill-opacity="1.000000"/>
  <path d="M188.186 458.333 L189.561 458.333 Q189.717 459.333 190.279 459.833 Q190.842 460.333 191.623 460.333 Q192.576 460.333 193.24 459.622 Q193.904 458.911 193.904 457.74 Q193.904 456.63 193.271 455.982 Q192.639 455.333 191.607 455.333 Q190.967 455.333 190.459 455.615 Q189.951 455.896 189.654 456.333 L188.42 456.333 L189.451 450.333 L194.795 450.333 L194.795 451.333 L190.514 451.333 L189.936 454.911 Q190.904 454.333 191.967 454.333 Q193.357 454.333 194.326 455.271 Q195.295 456.208 195.295 457.661 Q195.295 459.068 194.451 460.083 Q193.42 461.333 191.623 461.333 Q190.17 461.333 189.24 460.513 Q188.311 459.693 188.186 458.333 Z" fill="#000000" fill-opacity="1.000000"/>
  <path d="M197.076 461.333 L197.076 460.333 L198.576 460.333 L198.576 461.333 L197.076 461.333 Z" fill="#000000" fill-opacity="1.000000"/>
  <path d="M200.42 455.833 Q200.42 453.927 200.811 452.763 Q201.201 451.599 201.975 450.966 Q202.748 450.333 203.92 450.333 Q204.779 450.333 205.436 450.685 Q206.092 451.036 206.514 451.693 Q206.936 452.349 207.178 453.294 Q207.42 454.24 207.42 455.833 Q207.42 457.74 207.029 458.904 Q206.639 460.068 205.865 460.701 Q205.092 461.333 203.92 461.333 Q202.373 461.333 201.482 460.224 Q200.42 458.865 200.42 455.833 ZM201.779 455.833 Q201.779 458.536 202.396 459.435 Q203.014 460.333 203.92 460.333 Q204.826 460.333 205.443 459.435 Q206.061 458.536 206.061 455.833 Q206.061 453.115 205.443 452.224 Q204.826 451.333 203.904 451.333 Q202.998 451.333 202.451 452.115 Q201.779 453.13 201.779 455.833 Z" fill="#000000" fill-opacity="1.000000"/>
  <path d="M290.213 458.333 L291.541 458.333 Q291.776 459.396 292.315 459.865 Q292.854 460.333 293.635 460.333 Q294.573 460.333 295.213 459.716 Q295.854 459.099 295.854 458.193 Q295.854 457.318 295.26 456.747 Q294.666 456.177 293.744 456.177 Q293.369 456.177 292.823 456.333 L292.963 455.333 Q293.104 455.349 293.182 455.349 Q294.026 455.349 294.698 454.841 Q295.369 454.333 295.369 453.271 Q295.369 452.443 294.877 451.888 Q294.385 451.333 293.604 451.333 Q292.838 451.333 292.323 451.833 Q291.807 452.333 291.666 453.333 L290.354 453.333 Q290.588 451.911 291.448 451.122 Q292.307 450.333 293.588 450.333 Q294.463 450.333 295.205 450.74 Q295.948 451.146 296.338 451.849 Q296.729 452.552 296.729 453.349 Q296.729 454.099 296.354 454.716 Q295.979 455.333 295.244 455.693 Q296.198 455.896 296.721 456.544 Q297.244 457.193 297.244 458.177 Q297.244 459.49 296.221 460.411 Q295.198 461.333 293.619 461.333 Q292.213 461.333 291.276 460.497 Q290.338 459.661 290.213 458.333 Z" fill="#000000" fill-opacity="1.000000"/>
  <path d="M298.369 455.833 Q298.369 453.927 298.76 452.763 Q299.151 451.599 299.924 450.966 Q300.698 450.333 301.869 450.333 Q302.729 450.333 303.385 450.685 Q304.041 451.036 304.463 451.693 Q304.885 452.349 305.127 453.294 Q305.369 454.24 305.369 455.833 Q305.369 457.74 304.979 458.904 Q304.588 460.068 303.815 460.701 Q303.041 461.333 301.869 461.333 Q300.323 461.333 299.432 460.224 Q298.369 458.865 298.369 455.833 ZM299.729 455.833 Q299.729 458.536 300.346 459.435 Q300.963 460.333 301.869 460.333 Q302.776 460.333 303.393 459.435 Q304.01 458.536 304.01 455.833 Q304.01 453.115 303.393 452.224 Q302.776 451.333 301.854 451.333 Q300.948 451.333 300.401 452.115 Q299.729 453.13 299.729 455.833 Z" fill="#000000" fill-opacity="1.000000"/>
  <path d="M307.26 461.333 L307.26 460.333 L308.76 460.333 L308.76 461.333 L307.26 461.333 Z" fill="#000000" fill-opacity="1.000000"/>
  <path d="M310.604 455.833 Q310.604 453.927 310.994 452.763 Q311.385 451.599 312.159 450.966 Q312.932 450.333 314.104 450.333 Q314.963 450.333 315.619 450.685 Q316.276 451.036 316.698 451.693 Q317.119 452.349 317.362 453.294 Q317.604 454.24 317.604 455.833 Q317.604 457.74 317.213 458.904 Q316.823 460.068 316.049 460.701 Q315.276 461.333 314.104 461.333 Q312.557 461.333 311.666 460.224 Q310.604 458.865 310.604 455.833 ZM311.963 455.833 Q311.963 458.536 312.58 459.435 Q313.198 460.333 314.104 460.333 Q315.01 460.333 315.627 459.435 Q316.244 458.536 316.244 455.833 Q316.244 453.115 315.627 452.224 Q315.01 451.333 314.088 451.333 Q313.182 451.333 312.635 452.115 Q311.963 453.13 311.963 455.833 Z" fill="#000000" fill-opacity="1.000000"/>
  <path d="M404.616 461.333 L404.616 458.333 L399.96 458.333 L399.96 457.333 L404.866 450.333 L405.944 450.333 L405.944 457.333 L407.397 457.333 L407.397 458.333 L405.944 458.333 L405.944 461.333 L404.616 461.333 ZM404.616 457.333 L404.616 452.536 L401.257 457.333 L404.616 457.333 Z" fill="#000000" fill-opacity="1.000000"/>
  <path d="M408.553 458.333 L409.928 458.333 Q410.085 459.333 410.647 459.833 Q411.21 460.333 411.991 460.333 Q412.944 460.333 413.608 459.622 Q414.272 458.911 414.272 457.74 Q414.272 456.63 413.639 455.982 Q413.007 455.333 411.975 455.333 Q411.335 455.333 410.827 455.615 Q410.319 455.896 410.022 456.333 L408.788 456.333 L409.819 450.333 L415.163 450.333 L415.163 451.333 L410.882 451.333 L410.303 454.911 Q411.272 454.333 412.335 454.333 Q413.725 454.333 414.694 455.271 Q415.663 456.208 415.663 457.661 Q415.663 459.068 414.819 460.083 Q413.788 461.333 411.991 461.333 Q410.538 461.333 409.608 460.513 Q408.678 459.693 408.553 458.333 Z" fill="#000000" fill-opacity="1.000000"/>
  <path d="M417.444 461.333 L417.444 460.333 L418.944 460.333 L418.944 461.333 L417.444 461.333 Z" fill="#000000" fill-opacity="1.000000"/>
  <path d="M420.788 455.833 Q420.788 453.927 421.178 452.763 Q421.569 451.599 422.343 450.966 Q423.116 450.333 424.288 450.333 Q425.147 450.333 425.803 450.685 Q426.46 451.036 426.882 451.693 Q427.303 452.349 427.546 453.294 Q427.788 454.24 427.788 455.833 Q427.788 457.74 427.397 458.904 Q427.007 460.068 426.233 460.701 Q425.46 461.333 424.288 461.333 Q422.741 461.333 421.85 460.224 Q420.788 458.865 420.788 455.833 ZM422.147 455.833 Q422.147 458.536 422.764 459.435 Q423.382 460.333 424.288 460.333 Q425.194 460.333 425.811 459.435 Q426.428 458.536 426.428 455.833 Q426.428 453.115 425.811 452.224 Q425.194 451.333 424.272 451.333 Q423.366 451.333 422.819 452.115 Q422.147 453.13 422.147 455.833 Z" fill="#000000" fill-opacity="1.000000"/>
  <path d="M517.425 453.333 L516.112 453.333 Q515.941 452.411 515.612 452.005 Q515.081 451.333 514.3 451.333 Q513.659 451.333 513.191 451.724 Q512.566 452.224 512.206 453.177 Q511.847 454.13 511.831 455.771 Q512.3 455.036 512.995 454.685 Q513.691 454.333 514.441 454.333 Q515.753 454.333 516.683 455.286 Q517.612 456.24 517.612 457.74 Q517.612 458.724 517.175 459.576 Q516.737 460.427 515.98 460.88 Q515.222 461.333 514.253 461.333 Q512.597 461.333 511.558 460.115 Q510.519 458.896 510.519 456.115 Q510.519 452.99 511.675 451.568 Q512.675 450.333 514.378 450.333 Q515.644 450.333 516.456 451.13 Q517.269 451.927 517.425 453.333 ZM512.034 457.708 Q512.034 458.396 512.323 459.029 Q512.612 459.661 513.136 459.997 Q513.659 460.333 514.222 460.333 Q515.066 460.333 515.667 459.646 Q516.269 458.958 516.269 457.771 Q516.269 456.646 515.675 455.99 Q515.081 455.333 514.175 455.333 Q513.284 455.333 512.659 455.99 Q512.034 456.646 512.034 457.708 Z" fill="#000000" fill-opacity="1.000000"/>
  <path d="M518.737 455.833 Q518.737 453.927 519.128 452.763 Q519.519 451.599 520.292 450.966 Q521.066 450.333 522.237 450.333 Q523.097 450.333 523.753 450.685 Q524.409 451.036 524.831 451.693 Q525.253 452.349 525.495 453.294 Q525.737 454.24 525.737 455.833 Q525.737 457.74 525.347 458.904 Q524.956 460.068 524.183 460.701 Q523.409 461.333 522.237 461.333 Q520.691 461.333 519.8 460.224 Q518.737 458.865 518.737 455.833 ZM520.097 455.833 Q520.097 458.536 520.714 459.435 Q521.331 460.333 522.237 460.333 Q523.144 460.333 523.761 459.435 Q524.378 458.536 524.378 455.833 Q524.378 453.115 523.761 452.224 Q523.144 451.333 522.222 451.333 Q521.316 451.333 520.769 452.115 Q520.097 453.13 520.097 455.833 Z" fill="#000000" fill-opacity="1.000000"/>
  <path d="M527.628 461.333 L527.628 460.333 L529.128 460.333 L529.128 461.333 L527.628 461.333 Z" fill="#000000" fill-opacity="1.000000"/>
  <path d="M530.972 455.833 Q530.972 453.927 531.362 452.763 Q531.753 451.599 532.526 450.966 Q533.3 450.333 534.472 450.333 Q535.331 450.333 535.987 450.685 Q536.644 451.036 537.066 451.693 Q537.487 452.349 537.73 453.294 Q537.972 454.24 537.972 455.833 Q537.972 457.74 537.581 458.904 Q537.191 460.068 536.417 460.701 Q535.644 461.333 534.472 461.333 Q532.925 461.333 532.034 460.224 Q530.972 458.865 530.972 455.833 ZM532.331 455.833 Q532.331 458.536 532.948 459.435 Q533.566 460.333 534.472 460.333 Q535.378 460.333 535.995 459.435 Q536.612 458.536 536.612 455.833 Q536.612 453.115 535.995 452.224 Q535.378 451.333 534.456 451.333 Q533.55 451.333 533.003 452.115 Q532.331 453.13 532.331 455.833 Z" fill="#000000" fill-opacity="1.000000"/>
  <path d="M620.843 451.333 L620.843 450.333 L627.796 450.333 L627.796 451.146 Q626.781 452.24 625.773 454.177 Q624.765 456.115 624.203 458.161 Q623.812 459.615 623.703 461.333 L622.359 461.333 Q622.374 459.974 622.851 458.052 Q623.328 456.13 624.218 454.341 Q625.109 452.552 626.109 451.333 L620.843 451.333 Z" fill="#000000" fill-opacity="1.000000"/>
  <path d="M628.921 458.333 L630.296 458.333 Q630.453 459.333 631.015 459.833 Q631.578 460.333 632.359 460.333 Q633.312 460.333 633.976 459.622 Q634.64 458.911 634.64 457.74 Q634.64 456.63 634.007 455.982 Q633.374 455.333 632.343 455.333 Q631.703 455.333 631.195 455.615 Q630.687 455.896 630.39 456.333 L629.156 456.333 L630.187 450.333 L635.531 450.333 L635.531 451.333 L631.249 451.333 L630.671 454.911 Q631.64 454.333 632.703 454.333 Q634.093 454.333 635.062 455.271 Q636.031 456.208 636.031 457.661 Q636.031 459.068 635.187 460.083 Q634.156 461.333 632.359 461.333 Q630.906 461.333 629.976 460.513 Q629.046 459.693 628.921 458.333 Z" fill="#000000" fill-opacity="1.000000"/>
  <path d="M637.812 461.333 L637.812 460.333 L639.312 460.333 L639.312 461.333 L637.812 461.333 Z" fill="#000000" fill-opacity="1.000000"/>
  <path d="M641.156 455.833 Q641.156 453.927 641.546 452.763 Q641.937 451.599 642.71 450.966 Q643.484 450.333 644.656 450.333 Q645.515 450.333 646.171 450.685 Q646.828 451.036 647.249 451.693 Q647.671 452.349 647.914 453.294 Q648.156 454.24 648.156 455.833 Q648.156 457.74 647.765 458.904 Q647.374 460.068 646.601 460.701 Q645.828 461.333 644.656 461.333 Q643.109 461.333 642.218 460.224 Q641.156 458.865 641.156 455.833 ZM642.515 455.833 Q642.515 458.536 643.132 459.435 Q643.749 460.333 644.656 460.333 Q645.562 460.333 646.179 459.435 Q646.796 458.536 646.796 455.833 Q646.796 453.115 646.179 452.224 Q645.562 451.333 644.64 451.333 Q643.734 451.333 643.187 452.115 Q642.515 453.13 642.515 455.833 Z" fill="#000000" fill-opacity="1.000000"/>
  <path d="M731.152 458.333 L732.418 458.333 Q732.574 459.38 733.027 459.857 Q733.48 460.333 734.199 460.333 Q734.793 460.333 735.254 460.029 Q735.715 459.724 736.004 459.216 Q736.293 458.708 736.496 457.857 Q736.699 457.005 736.699 456.177 Q736.699 456.099 736.683 455.927 Q736.293 456.552 735.605 456.943 Q734.918 457.333 734.121 457.333 Q732.793 457.333 731.871 456.388 Q730.949 455.443 730.949 453.88 Q730.949 452.286 731.91 451.31 Q732.871 450.333 734.324 450.333 Q735.371 450.333 736.238 450.896 Q737.105 451.458 737.558 452.505 Q738.012 453.552 738.012 455.536 Q738.012 457.615 737.566 458.833 Q737.121 460.052 736.238 460.693 Q735.355 461.333 734.168 461.333 Q732.902 461.333 732.105 460.544 Q731.308 459.755 731.152 458.333 ZM736.543 453.865 Q736.543 452.693 735.941 452.013 Q735.34 451.333 734.48 451.333 Q733.605 451.333 732.957 452.068 Q732.308 452.802 732.308 453.974 Q732.308 455.021 732.926 455.677 Q733.543 456.333 734.449 456.333 Q735.371 456.333 735.957 455.677 Q736.543 455.021 736.543 453.865 Z" fill="#000000" fill-opacity="1.000000"/>
  <path d="M739.105 455.833 Q739.105 453.927 739.496 452.763 Q739.887 451.599 740.66 450.966 Q741.433 450.333 742.605 450.333 Q743.465 450.333 744.121 450.685 Q744.777 451.036 745.199 451.693 Q745.621 452.349 745.863 453.294 Q746.105 454.24 746.105 455.833 Q746.105 457.74 745.715 458.904 Q745.324 460.068 744.551 460.701 Q743.777 461.333 742.605 461.333 Q741.058 461.333 740.168 460.224 Q739.105 458.865 739.105 455.833 ZM740.465 455.833 Q740.465 458.536 741.082 459.435 Q741.699 460.333 742.605 460.333 Q743.512 460.333 744.129 459.435 Q744.746 458.536 744.746 455.833 Q744.746 453.115 744.129 452.224 Q743.512 451.333 742.59 451.333 Q741.683 451.333 741.137 452.115 Q740.465 453.13 740.465 455.833 Z" fill="#000000" fill-opacity="1.000000"/>
  <path d="M747.996 461.333 L747.996 460.333 L749.496 460.333 L749.496 461.333 L747.996 461.333 Z" fill="#000000" fill-opacity="1.000000"/>
  <path d="M751.34 455.833 Q751.34 453.927 751.73 452.763 Q752.121 451.599 752.894 450.966 Q753.668 450.333 754.84 450.333 Q755.699 450.333 756.355 450.685 Q757.012 451.036 757.433 451.693 Q757.855 452.349 758.098 453.294 Q758.34 454.24 758.34 455.833 Q758.34 457.74 757.949 458.904 Q757.558 460.068 756.785 460.701 Q756.012 461.333 754.84 461.333 Q753.293 461.333 752.402 460.224 Q751.34 458.865 751.34 455.833 ZM752.699 455.833 Q752.699 458.536 753.316 459.435 Q753.933 460.333 754.84 460.333 Q755.746 460.333 756.363 459.435 Q756.98 458.536 756.98 455.833 Q756.98 453.115 756.363 452.224 Q755.746 451.333 754.824 451.333 Q753.918 451.333 753.371 452.115 Q752.699 453.13 752.699 455.833 Z" fill="#000000" fill-opacity="1.000000"/>
  <path d="M842.024 461.333 L840.696 461.333 L840.696 452.755 Q840.227 453.224 839.453 453.685 Q838.68 454.146 838.071 454.38 L838.071 453.083 Q839.18 452.552 840 451.794 Q840.821 451.036 841.164 450.333 L842.024 450.333 L842.024 461.333 Z" fill="#000000" fill-opacity="1.000000"/>
  <path d="M845.211 455.833 Q845.211 453.927 845.602 452.763 Q845.992 451.599 846.766 450.966 Q847.539 450.333 848.711 450.333 Q849.571 450.333 850.227 450.685 Q850.883 451.036 851.305 451.693 Q851.727 452.349 851.969 453.294 Q852.211 454.24 852.211 455.833 Q852.211 457.74 851.821 458.904 Q851.43 460.068 850.656 460.701 Q849.883 461.333 848.711 461.333 Q847.164 461.333 846.274 460.224 Q845.211 458.865 845.211 455.833 ZM846.571 455.833 Q846.571 458.536 847.188 459.435 Q847.805 460.333 848.711 460.333 Q849.617 460.333 850.235 459.435 Q850.852 458.536 850.852 455.833 Q850.852 453.115 850.235 452.224 Q849.617 451.333 848.696 451.333 Q847.789 451.333 847.242 452.115 Q846.571 453.13 846.571 455.833 Z" fill="#000000" fill-opacity="1.000000"/>
  <path d="M853.367 458.333 L854.742 458.333 Q854.899 459.333 855.461 459.833 Q856.024 460.333 856.805 460.333 Q857.758 460.333 858.422 459.622 Q859.086 458.911 859.086 457.74 Q859.086 456.63 858.453 455.982 Q857.821 455.333 856.789 455.333 Q856.149 455.333 855.641 455.615 Q855.133 455.896 854.836 456.333 L853.602 456.333 L854.633 450.333 L859.977 450.333 L859.977 451.333 L855.696 451.333 L855.117 454.911 Q856.086 454.333 857.149 454.333 Q858.539 454.333 859.508 455.271 Q860.477 456.208 860.477 457.661 Q860.477 459.068 859.633 460.083 Q858.602 461.333 856.805 461.333 Q855.352 461.333 854.422 460.513 Q853.492 459.693 853.367 458.333 Z" fill="#000000" fill-opacity="1.000000"/>
  <path d="M862.258 461.333 L862.258 460.333 L863.758 460.333 L863.758 461.333 L862.258 461.333 Z" fill="#000000" fill-opacity="1.000000"/>
  <path d="M865.602 455.833 Q865.602 453.927 865.992 452.763 Q866.383 451.599 867.156 450.966 Q867.93 450.333 869.102 450.333 Q869.961 450.333 870.617 450.685 Q871.274 451.036 871.696 451.693 Q872.117 452.349 872.36 453.294 Q872.602 454.24 872.602 455.833 Q872.602 457.74 872.211 458.904 Q871.821 460.068 871.047 460.701 Q870.274 461.333 869.102 461.333 Q867.555 461.333 866.664 460.224 Q865.602 458.865 865.602 455.833 ZM866.961 455.833 Q866.961 458.536 867.578 459.435 Q868.196 460.333 869.102 460.333 Q870.008 460.333 870.625 459.435 Q871.242 458.536 871.242 455.833 Q871.242 453.115 870.625 452.224 Q870.008 451.333 869.086 451.333 Q868.18 451.333 867.633 452.115 Q866.961 453.13 866.961 455.833 Z" fill="#000000" fill-opacity="1.000000"/>
  <path d="M952.208 461.333 L950.879 461.333 L950.879 452.755 Q950.411 453.224 949.637 453.685 Q948.864 454.146 948.254 454.38 L948.254 453.083 Q949.364 452.552 950.184 451.794 Q951.004 451.036 951.348 450.333 L952.208 450.333 L952.208 461.333 Z" fill="#000000" fill-opacity="1.000000"/>
  <path d="M962.317 460.333 L962.317 461.333 L955.223 461.333 Q955.208 460.943 955.379 460.568 Q955.645 459.958 956.247 459.372 Q956.848 458.786 957.973 457.724 Q959.723 456.068 960.34 455.138 Q960.958 454.208 960.958 453.396 Q960.958 452.521 960.395 451.927 Q959.833 451.333 958.942 451.333 Q957.989 451.333 957.411 451.865 Q956.833 452.396 956.833 453.333 L955.473 453.333 Q955.614 451.865 956.52 451.099 Q957.426 450.333 958.958 450.333 Q960.504 450.333 961.403 451.224 Q962.301 452.115 962.301 453.443 Q962.301 454.115 962.036 454.763 Q961.77 455.411 961.161 456.13 Q960.551 456.849 959.129 458.13 Q957.942 459.193 957.606 459.568 Q957.27 459.943 957.051 460.333 L962.317 460.333 Z" fill="#000000" fill-opacity="1.000000"/>
  <path d="M963.551 455.833 Q963.551 453.927 963.942 452.763 Q964.333 451.599 965.106 450.966 Q965.879 450.333 967.051 450.333 Q967.911 450.333 968.567 450.685 Q969.223 451.036 969.645 451.693 Q970.067 452.349 970.309 453.294 Q970.551 454.24 970.551 455.833 Q970.551 457.74 970.161 458.904 Q969.77 460.068 968.997 460.701 Q968.223 461.333 967.051 461.333 Q965.504 461.333 964.614 460.224 Q963.551 458.865 963.551 455.833 ZM964.911 455.833 Q964.911 458.536 965.528 459.435 Q966.145 460.333 967.051 460.333 Q967.958 460.333 968.575 459.435 Q969.192 458.536 969.192 455.833 Q969.192 453.115 968.575 452.224 Q967.958 451.333 967.036 451.333 Q966.129 451.333 965.583 452.115 Q964.911 453.13 964.911 455.833 Z" fill="#000000" fill-opacity="1.000000"/>
  <path d="M972.442 461.333 L972.442 460.333 L973.942 460.333 L973.942 461.333 L972.442 461.333 Z" fill="#000000" fill-opacity="1.000000"/>
  <path d="M975.786 455.833 Q975.786 453.927 976.176 452.763 Q976.567 451.599 977.34 450.966 Q978.114 450.333 979.286 450.333 Q980.145 450.333 980.801 450.685 Q981.458 451.036 981.879 451.693 Q982.301 452.349 982.544 453.294 Q982.786 454.24 982.786 455.833 Q982.786 457.74 982.395 458.904 Q982.004 460.068 981.231 460.701 Q980.458 461.333 979.286 461.333 Q977.739 461.333 976.848 460.224 Q975.786 458.865 975.786 455.833 ZM977.145 455.833 Q977.145 458.536 977.762 459.435 Q978.379 460.333 979.286 460.333 Q980.192 460.333 980.809 459.435 Q981.426 458.536 981.426 455.833 Q981.426 453.115 980.809 452.224 Q980.192 451.333 979.27 451.333 Q978.364 451.333 977.817 452.115 Q977.145 453.13 977.145 455.833 Z" fill="#000000" fill-opacity="1.000000"/>
  <path d="M1062.39 461.333 L1061.06 461.333 L1061.06 452.755 Q1060.59 453.224 1059.82 453.685 Q1059.05 454.146 1058.44 454.38 L1058.44 453.083 Q1059.55 452.552 1060.37 451.794 Q1061.19 451.036 1061.53 450.333 L1062.39 450.333 L1062.39 461.333 Z" fill="#000000" fill-opacity="1.000000"/>
  <path d="M1065.58 458.333 L1066.91 458.333 Q1067.14 459.396 1067.68 459.865 Q1068.22 460.333 1069 460.333 Q1069.94 460.333 1070.58 459.716 Q1071.22 459.099 1071.22 458.193 Q1071.22 457.318 1070.63 456.747 Q1070.03 456.177 1069.11 456.177 Q1068.74 456.177 1068.19 456.333 L1068.33 455.333 Q1068.47 455.349 1068.55 455.349 Q1069.39 455.349 1070.06 454.841 Q1070.74 454.333 1070.74 453.271 Q1070.74 452.443 1070.24 451.888 Q1069.75 451.333 1068.97 451.333 Q1068.2 451.333 1067.69 451.833 Q1067.17 452.333 1067.03 453.333 L1065.72 453.333 Q1065.95 451.911 1066.81 451.122 Q1067.67 450.333 1068.95 450.333 Q1069.83 450.333 1070.57 450.74 Q1071.31 451.146 1071.7 451.849 Q1072.09 452.552 1072.09 453.349 Q1072.09 454.099 1071.72 454.716 Q1071.34 455.333 1070.61 455.693 Q1071.56 455.896 1072.09 456.544 Q1072.61 457.193 1072.61 458.177 Q1072.61 459.49 1071.59 460.411 Q1070.56 461.333 1068.99 461.333 Q1067.58 461.333 1066.64 460.497 Q1065.7 459.661 1065.58 458.333 Z" fill="#000000" fill-opacity="1.000000"/>
  <path d="M1073.74 458.333 L1075.11 458.333 Q1075.27 459.333 1075.83 459.833 Q1076.39 460.333 1077.17 460.333 Q1078.13 460.333 1078.79 459.622 Q1079.45 458.911 1079.45 457.74 Q1079.45 456.63 1078.82 455.982 Q1078.19 455.333 1077.16 455.333 Q1076.52 455.333 1076.01 455.615 Q1075.5 455.896 1075.2 456.333 L1073.97 456.333 L1075 450.333 L1080.34 450.333 L1080.34 451.333 L1076.06 451.333 L1075.49 454.911 Q1076.45 454.333 1077.52 454.333 Q1078.91 454.333 1079.88 455.271 Q1080.84 456.208 1080.84 457.661 Q1080.84 459.068 1080 460.083 Q1078.97 461.333 1077.17 461.333 Q1075.72 461.333 1074.79 460.513 Q1073.86 459.693 1073.74 458.333 Z" fill="#000000" fill-opacity="1.000000"/>
  <path d="M1082.63 461.333 L1082.63 460.333 L1084.13 460.333 L1084.13 461.333 L1082.63 461.333 Z" fill="#000000" fill-opacity="1.000000"/>
  <path d="M1085.97 455.833 Q1085.97 453.927 1086.36 452.763 Q1086.75 451.599 1087.52 450.966 Q1088.3 450.333 1089.47 450.333 Q1090.33 450.333 1090.99 450.685 Q1091.64 451.036 1092.06 451.693 Q1092.49 452.349 1092.73 453.294 Q1092.97 454.24 1092.97 455.833 Q1092.97 457.74 1092.58 458.904 Q1092.19 460.068 1091.42 460.701 Q1090.64 461.333 1089.47 461.333 Q1087.92 461.333 1087.03 460.224 Q1085.97 458.865 1085.97 455.833 ZM1087.33 455.833 Q1087.33 458.536 1087.95 459.435 Q1088.56 460.333 1089.47 460.333 Q1090.38 460.333 1090.99 459.435 Q1091.61 458.536 1091.61 455.833 Q1091.61 453.115 1090.99 452.224 Q1090.38 451.333 1089.45 451.333 Q1088.55 451.333 1088 452.115 Q1087.33 453.13 1087.33 455.833 Z" fill="#000000" fill-opacity="1.000000"/>
  <path d="M1172.58 461.333 L1171.25 461.333 L1171.25 452.755 Q1170.78 453.224 1170.01 453.685 Q1169.23 454.146 1168.62 454.38 L1168.62 453.083 Q1169.73 452.552 1170.55 451.794 Q1171.37 451.036 1171.72 450.333 L1172.58 450.333 L1172.58 461.333 Z" fill="#000000" fill-opacity="1.000000"/>
  <path d="M1175.76 458.333 L1177.14 458.333 Q1177.29 459.333 1177.86 459.833 Q1178.42 460.333 1179.2 460.333 Q1180.15 460.333 1180.82 459.622 Q1181.48 458.911 1181.48 457.74 Q1181.48 456.63 1180.85 455.982 Q1180.22 455.333 1179.18 455.333 Q1178.54 455.333 1178.04 455.615 Q1177.53 455.896 1177.23 456.333 L1176 456.333 L1177.03 450.333 L1182.37 450.333 L1182.37 451.333 L1178.09 451.333 L1177.51 454.911 Q1178.48 454.333 1179.54 454.333 Q1180.93 454.333 1181.9 455.271 Q1182.87 456.208 1182.87 457.661 Q1182.87 459.068 1182.03 460.083 Q1181 461.333 1179.2 461.333 Q1177.75 461.333 1176.82 460.513 Q1175.89 459.693 1175.76 458.333 Z" fill="#000000" fill-opacity="1.000000"/>
  <path d="M1183.92 455.833 Q1183.92 453.927 1184.31 452.763 Q1184.7 451.599 1185.47 450.966 Q1186.25 450.333 1187.42 450.333 Q1188.28 450.333 1188.93 450.685 Q1189.59 451.036 1190.01 451.693 Q1190.43 452.349 1190.68 453.294 Q1190.92 454.24 1190.92 455.833 Q1190.92 457.74 1190.53 458.904 Q1190.14 460.068 1189.36 460.701 Q1188.59 461.333 1187.42 461.333 Q1185.87 461.333 1184.98 460.224 Q1183.92 458.865 1183.92 455.833 ZM1185.28 455.833 Q1185.28 458.536 1185.9 459.435 Q1186.51 460.333 1187.42 460.333 Q1188.33 460.333 1188.94 459.435 Q1189.56 458.536 1189.56 455.833 Q1189.56 453.115 1188.94 452.224 Q1188.33 451.333 1187.4 451.333 Q1186.5 451.333 1185.95 452.115 Q1185.28 453.13 1185.28 455.833 Z" fill="#000000" fill-opacity="1.000000"/>
  <path d="M1192.81 461.333 L1192.81 460.333 L1194.31 460.333 L1194.31 461.333 L1192.81 461.333 Z" fill="#000000" fill-opacity="1.000000"/>
  <path d="M1196.15 455.833 Q1196.15 453.927 1196.54 452.763 Q1196.93 451.599 1197.71 450.966 Q1198.48 450.333 1199.65 450.333 Q1200.51 450.333 1201.17 450.685 Q1201.83 451.036 1202.25 451.693 Q1202.67 452.349 1202.91 453.294 Q1203.15 454.24 1203.15 455.833 Q1203.15 457.74 1202.76 458.904 Q1202.37 460.068 1201.6 460.701 Q1200.83 461.333 1199.65 461.333 Q1198.11 461.333 1197.22 460.224 Q1196.15 458.865 1196.15 455.833 ZM1197.51 455.833 Q1197.51 458.536 1198.13 459.435 Q1198.75 460.333 1199.65 460.333 Q1200.56 460.333 1201.18 459.435 Q1201.79 458.536 1201.79 455.833 Q1201.79 453.115 1201.18 452.224 Q1200.56 451.333 1199.64 451.333 Q1198.73 451.333 1198.18 452.115 Q1197.51 453.13 1197.51 455.833 Z" fill="#000000" fill-opacity="1.000000"/>
  <path d="M83.4938 435.6 L83.4938 14.6667 " fill="none" stroke-width="1.333333" stroke="#000000ff"/>
  <path d="M83.4938 435.6 L88.8271 435.6 " fill="none" stroke-width="1.333333" stroke="#000000ff"/>
  <path d="M83.4938 393.507 L88.8271 393.507 " fill="none" stroke-width="1.333333" stroke="#000000ff"/>
  <path d="M83.4938 351.413 L88.8271 351.413 " fill="none" stroke-width="1.333333" stroke="#000000ff"/>
  <path d="M83.4938 309.32 L88.8271 309.32 " fill="none" stroke-width="1.333333" stroke="#000000ff"/>
  <path d="M83.4938 267.227 L88.8271 267.227 " fill="none" stroke-width="1.333333" stroke="#000000ff"/>
  <path d="M83.4938 225.133 L88.8271 225.133 " fill="none" stroke-width="1.333333" stroke="#000000ff"/>
  <path d="M83.4938 183.04 L88.8271 183.04 " fill="none" stroke-width="1.333333" stroke="#000000ff"/>
  <path d="M83.4938 140.947 L88.8271 140.947 " fill="none" stroke-width="1.333333" stroke="#000000ff"/>
  <path d="M83.4938 98.8533 L88.8271 98.8533 " fill="none" stroke-width="1.333333" stroke="#000000ff"/>
  <path d="M83.4938 56.76 L88.8271 56.76 " fill="none" stroke-width="1.333333" stroke="#000000ff"/>
  <path d="M83.4938 14.6667 L88.8271 14.6667 " fill="none" stroke-width="1.333333" stroke="#000000ff"/>
  <path d="M15.2917 435.1 Q15.2917 433.194 15.6823 432.03 Q16.0729 430.866 16.8464 430.233 Q17.6198 429.6 18.7917 429.6 Q19.651 429.6 20.3073 429.952 Q20.9635 430.303 21.3854 430.959 Q21.8073 431.616 22.0495 432.561 Q22.2917 433.506 22.2917 435.1 Q22.2917 437.006 21.901 438.17 Q21.5104 439.334 20.737 439.967 Q19.9635 440.6 18.7917 440.6 Q17.2448 440.6 16.3542 439.491 Q15.2917 438.131 15.2917 435.1 ZM16.651 435.1 Q16.651 437.803 17.2682 438.702 Q17.8854 439.6 18.7917 439.6 Q19.6979 439.6 20.3151 438.702 Q20.9323 437.803 20.9323 435.1 Q20.9323 432.381 20.3151 431.491 Q19.6979 430.6 18.776 430.6 Q17.8698 430.6 17.3229 431.381 Q16.651 432.397 16.651 435.1 Z" fill="#000000" fill-opacity="1.000000"/>
  <path d="M23.4479 437.6 L24.8229 437.6 Q24.9792 438.6 25.5417 439.1 Q26.1042 439.6 26.8854 439.6 Q27.8385 439.6 28.5026 438.889 Q29.1667 438.178 29.1667 437.006 Q29.1667 435.897 28.5339 435.248 Q27.901 434.6 26.8698 434.6 Q26.2292 434.6 25.7214 434.881 Q25.2135 435.163 24.9167 435.6 L23.6823 435.6 L24.7135 429.6 L30.0573 429.6 L30.0573 430.6 L25.776 430.6 L25.1979 434.178 Q26.1667 433.6 27.2292 433.6 Q28.6198 433.6 29.5885 434.538 Q30.5573 435.475 30.5573 436.928 Q30.5573 438.334 29.7135 439.35 Q28.6823 440.6 26.8854 440.6 Q25.4323 440.6 24.5026 439.78 Q23.5729 438.959 23.4479 437.6 Z" fill="#000000" fill-opacity="1.000000"/>
  <path d="M32.3385 433.6 L32.3385 432.6 L33.8385 432.6 L33.8385 433.6 L32.3385 433.6 ZM32.3385 440.6 L32.3385 439.6 L33.8385 439.6 L33.8385 440.6 L32.3385 440.6 Z" fill="#000000" fill-opacity="1.000000"/>
  <path d="M40.651 440.6 L39.3229 440.6 L39.3229 432.022 Q38.8542 432.491 38.0807 432.952 Q37.3073 433.413 36.6979 433.647 L36.6979 432.35 Q37.8073 431.819 38.6276 431.061 Q39.4479 430.303 39.7917 429.6 L40.651 429.6 L40.651 440.6 Z" fill="#000000" fill-opacity="1.000000"/>
  <path d="M43.8385 437.6 L45.2135 437.6 Q45.3698 438.6 45.9323 439.1 Q46.4948 439.6 47.276 439.6 Q48.2292 439.6 48.8932 438.889 Q49.5573 438.178 49.5573 437.006 Q49.5573 435.897 48.9245 435.248 Q48.2917 434.6 47.2604 434.6 Q46.6198 434.6 46.112 434.881 Q45.6042 435.163 45.3073 435.6 L44.0729 435.6 L45.1042 429.6 L50.4479 429.6 L50.4479 430.6 L46.1667 430.6 L45.5885 434.178 Q46.5573 433.6 47.6198 433.6 Q49.0104 433.6 49.9792 434.538 Q50.9479 435.475 50.9479 436.928 Q50.9479 438.334 50.1042 439.35 Q49.0729 440.6 47.276 440.6 Q45.8229 440.6 44.8932 439.78 Q43.9635 438.959 43.8385 437.6 Z" fill="#000000" fill-opacity="1.000000"/>
  <path d="M52.7292 433.6 L52.7292 432.6 L54.2292 432.6 L54.2292 433.6 L52.7292 433.6 ZM52.7292 440.6 L52.7292 439.6 L54.2292 439.6 L54.2292 440.6 L52.7292 440.6 Z" fill="#000000" fill-opacity="1.000000"/>
  <path d="M56.0729 435.1 Q56.0729 433.194 56.4635 432.03 Q56.8542 430.866 57.6276 430.233 Q58.401 429.6 59.5729 429.6 Q60.4323 429.6 61.0885 429.952 Q61.7448 430.303 62.1667 430.959 Q62.5885 431.616 62.8307 432.561 Q63.0729 433.506 63.0729 435.1 Q63.0729 437.006 62.6823 438.17 Q62.2917 439.334 61.5182 439.967 Q60.7448 440.6 59.5729 440.6 Q58.026 440.6 57.1354 439.491 Q56.0729 438.131 56.0729 435.1 ZM57.4323 435.1 Q57.4323 437.803 58.0495 438.702 Q58.6667 439.6 59.5729 439.6 Q60.4792 439.6 61.0964 438.702 Q61.7135 437.803 61.7135 435.1 Q61.7135 432.381 61.0964 431.491 Q60.4792 430.6 59.5573 430.6 Q58.651 430.6 58.1042 431.381 Q57.4323 432.397 57.4323 435.1 Z" fill="#000000" fill-opacity="1.000000"/>
  <path d="M64.2292 435.1 Q64.2292 433.194 64.6198 432.03 Q65.0104 430.866 65.7839 430.233 Q66.5573 429.6 67.7292 429.6 Q68.5885 429.6 69.2448 429.952 Q69.901 430.303 70.3229 430.959 Q70.7448 431.616 70.987 432.561 Q71.2292 433.506 71.2292 435.1 Q71.2292 437.006 70.8385 438.17 Q70.4479 439.334 69.6745 439.967 Q68.901 440.6 67.7292 440.6 Q66.1823 440.6 65.2917 439.491 Q64.2292 438.131 64.2292 435.1 ZM65.5885 435.1 Q65.5885 437.803 66.2057 438.702 Q66.8229 439.6 67.7292 439.6 Q68.6354 439.6 69.2526 438.702 Q69.8698 437.803 69.8698 435.1 Q69.8698 432.381 69.2526 431.491 Q68.6354 430.6 67.7135 430.6 Q66.8073 430.6 66.2604 431.381 Q65.5885 432.397 65.5885 435.1 Z" fill="#000000" fill-opacity="1.000000"/>
  <path d="M15.2917 393.007 Q15.2917 391.1 15.6823 389.936 Q16.0729 388.772 16.8464 388.139 Q17.6198 387.507 18.7917 387.507 Q19.651 387.507 20.3073 387.858 Q20.9635 388.21 21.3854 388.866 Q21.8073 389.522 22.0495 390.468 Q22.2917 391.413 22.2917 393.007 Q22.2917 394.913 21.901 396.077 Q21.5104 397.241 20.737 397.874 Q19.9635 398.507 18.7917 398.507 Q17.2448 398.507 16.3542 397.397 Q15.2917 396.038 15.2917 393.007 ZM16.651 393.007 Q16.651 395.71 17.2682 396.608 Q17.8854 397.507 18.7917 397.507 Q19.6979 397.507 20.3151 396.608 Q20.9323 395.71 20.9323 393.007 Q20.9323 390.288 20.3151 389.397 Q19.6979 388.507 18.776 388.507 Q17.8698 388.507 17.3229 389.288 Q16.651 390.304 16.651 393.007 Z" fill="#000000" fill-opacity="1.000000"/>
  <path d="M23.4479 395.507 L24.8229 395.507 Q24.9792 396.507 25.5417 397.007 Q26.1042 397.507 26.8854 397.507 Q27.8385 397.507 28.5026 396.796 Q29.1667 396.085 29.1667 394.913 Q29.1667 393.804 28.5339 393.155 Q27.901 392.507 26.8698 392.507 Q26.2292 392.507 25.7214 392.788 Q25.2135 393.069 24.9167 393.507 L23.6823 393.507 L24.7135 387.507 L30.0573 387.507 L30.0573 388.507 L25.776 388.507 L25.1979 392.085 Q26.1667 391.507 27.2292 391.507 Q28.6198 391.507 29.5885 392.444 Q30.5573 393.382 30.5573 394.835 Q30.5573 396.241 29.7135 397.257 Q28.6823 398.507 26.8854 398.507 Q25.4323 398.507 24.5026 397.686 Q23.5729 396.866 23.4479 395.507 Z" fill="#000000" fill-opacity="1.000000"/>
  <path d="M32.3385 391.507 L32.3385 390.507 L33.8385 390.507 L33.8385 391.507 L32.3385 391.507 ZM32.3385 398.507 L32.3385 397.507 L33.8385 397.507 L33.8385 398.507 L32.3385 398.507 Z" fill="#000000" fill-opacity="1.000000"/>
  <path d="M35.6823 395.507 L37.0573 395.507 Q37.2135 396.507 37.776 397.007 Q38.3385 397.507 39.1198 397.507 Q40.0729 397.507 40.737 396.796 Q41.401 396.085 41.401 394.913 Q41.401 393.804 40.7682 393.155 Q40.1354 392.507 39.1042 392.507 Q38.4635 392.507 37.9557 392.788 Q37.4479 393.069 37.151 393.507 L35.9167 393.507 L36.9479 387.507 L42.2917 387.507 L42.2917 388.507 L38.0104 388.507 L37.4323 392.085 Q38.401 391.507 39.4635 391.507 Q40.8542 391.507 41.8229 392.444 Q42.7917 393.382 42.7917 394.835 Q42.7917 396.241 41.9479 397.257 Q40.9167 398.507 39.1198 398.507 Q37.6667 398.507 36.737 397.686 Q35.8073 396.866 35.6823 395.507 Z" fill="#000000" fill-opacity="1.000000"/>
  <path d="M48.8073 398.507 L47.4792 398.507 L47.4792 389.929 Q47.0104 390.397 46.237 390.858 Q45.4635 391.319 44.8542 391.554 L44.8542 390.257 Q45.9635 389.725 46.7839 388.968 Q47.6042 388.21 47.9479 387.507 L48.8073 387.507 L48.8073 398.507 Z" fill="#000000" fill-opacity="1.000000"/>
  <path d="M52.7292 391.507 L52.7292 390.507 L54.2292 390.507 L54.2292 391.507 L52.7292 391.507 ZM52.7292 398.507 L52.7292 397.507 L54.2292 397.507 L54.2292 398.507 L52.7292 398.507 Z" fill="#000000" fill-opacity="1.000000"/>
  <path d="M56.0729 393.007 Q56.0729 391.1 56.4635 389.936 Q56.8542 388.772 57.6276 388.139 Q58.401 387.507 59.5729 387.507 Q60.4323 387.507 61.0885 387.858 Q61.7448 388.21 62.1667 388.866 Q62.5885 389.522 62.8307 390.468 Q63.0729 391.413 63.0729 393.007 Q63.0729 394.913 62.6823 396.077 Q62.2917 397.241 61.5182 397.874 Q60.7448 398.507 59.5729 398.507 Q58.026 398.507 57.1354 397.397 Q56.0729 396.038 56.0729 393.007 ZM57.4323 393.007 Q57.4323 395.71 58.0495 396.608 Q58.6667 397.507 59.5729 397.507 Q60.4792 397.507 61.0964 396.608 Q61.7135 395.71 61.7135 393.007 Q61.7135 390.288 61.0964 389.397 Q60.4792 388.507 59.5573 388.507 Q58.651 388.507 58.1042 389.288 Q57.4323 390.304 57.4323 393.007 Z" fill="#000000" fill-opacity="1.000000"/>
  <path d="M64.2292 393.007 Q64.2292 391.1 64.6198 389.936 Q65.0104 388.772 65.7839 388.139 Q66.5573 387.507 67.7292 387.507 Q68.5885 387.507 69.2448 387.858 Q69.901 388.21 70.3229 388.866 Q70.7448 389.522 70.987 390.468 Q71.2292 391.413 71.2292 393.007 Q71.2292 394.913 70.8385 396.077 Q70.4479 397.241 69.6745 397.874 Q68.901 398.507 67.7292 398.507 Q66.1823 398.507 65.2917 397.397 Q64.2292 396.038 64.2292 393.007 ZM65.5885 393.007 Q65.5885 395.71 66.2057 396.608 Q66.8229 397.507 67.7292 397.507 Q68.6354 397.507 69.2526 396.608 Q69.8698 395.71 69.8698 393.007 Q69.8698 390.288 69.2526 389.397 Q68.6354 388.507 67.7135 388.507 Q66.8073 388.507 66.2604 389.288 Q65.5885 390.304 65.5885 393.007 Z" fill="#000000" fill-opacity="1.000000"/>
  <path d="M15.2917 350.913 Q15.2917 349.007 15.6823 347.843 Q16.0729 346.679 16.8464 346.046 Q17.6198 345.413 18.7917 345.413 Q19.651 345.413 20.3073 345.765 Q20.9635 346.116 21.3854 346.773 Q21.8073 347.429 22.0495 348.374 Q22.2917 349.32 22.2917 350.913 Q22.2917 352.82 21.901 353.984 Q21.5104 355.148 20.737 355.781 Q19.9635 356.413 18.7917 356.413 Q17.2448 356.413 16.3542 355.304 Q15.2917 353.945 15.2917 350.913 ZM16.651 350.913 Q16.651 353.616 17.2682 354.515 Q17.8854 355.413 18.7917 355.413 Q19.6979 355.413 20.3151 354.515 Q20.9323 353.616 20.9323 350.913 Q20.9323 348.195 20.3151 347.304 Q19.6979 346.413 18.776 346.413 Q17.8698 346.413 17.3229 347.195 Q16.651 348.21 16.651 350.913 Z" fill="#000000" fill-opacity="1.000000"/>
  <path d="M30.2917 348.413 L28.9792 348.413 Q28.8073 347.491 28.4792 347.085 Q27.9479 346.413 27.1667 346.413 Q26.526 346.413 26.0573 346.804 Q25.4323 347.304 25.0729 348.257 Q24.7135 349.21 24.6979 350.851 Q25.1667 350.116 25.862 349.765 Q26.5573 349.413 27.3073 349.413 Q28.6198 349.413 29.5495 350.366 Q30.4792 351.32 30.4792 352.82 Q30.4792 353.804 30.0417 354.656 Q29.6042 355.507 28.8464 355.96 Q28.0885 356.413 27.1198 356.413 Q25.4635 356.413 24.4245 355.195 Q23.3854 353.976 23.3854 351.195 Q23.3854 348.07 24.5417 346.648 Q25.5417 345.413 27.2448 345.413 Q28.5104 345.413 29.3229 346.21 Q30.1354 347.007 30.2917 348.413 ZM24.901 352.788 Q24.901 353.476 25.1901 354.109 Q25.4792 354.741 26.0026 355.077 Q26.526 355.413 27.0885 355.413 Q27.9323 355.413 28.5339 354.726 Q29.1354 354.038 29.1354 352.851 Q29.1354 351.726 28.5417 351.07 Q27.9479 350.413 27.0417 350.413 Q26.151 350.413 25.526 351.07 Q24.901 351.726 24.901 352.788 Z" fill="#000000" fill-opacity="1.000000"/>
  <path d="M32.3385 349.413 L32.3385 348.413 L33.8385 348.413 L33.8385 349.413 L32.3385 349.413 ZM32.3385 356.413 L32.3385 355.413 L33.8385 355.413 L33.8385 356.413 L32.3385 356.413 Z" fill="#000000" fill-opacity="1.000000"/>
  <path d="M42.6042 355.413 L42.6042 356.413 L35.5104 356.413 Q35.4948 356.023 35.6667 355.648 Q35.9323 355.038 36.5339 354.452 Q37.1354 353.866 38.2604 352.804 Q40.0104 351.148 40.6276 350.218 Q41.2448 349.288 41.2448 348.476 Q41.2448 347.601 40.6823 347.007 Q40.1198 346.413 39.2292 346.413 Q38.276 346.413 37.6979 346.945 Q37.1198 347.476 37.1198 348.413 L35.7604 348.413 Q35.901 346.945 36.8073 346.179 Q37.7135 345.413 39.2448 345.413 Q40.7917 345.413 41.6901 346.304 Q42.5885 347.195 42.5885 348.523 Q42.5885 349.195 42.3229 349.843 Q42.0573 350.491 41.4479 351.21 Q40.8385 351.929 39.4167 353.21 Q38.2292 354.273 37.8932 354.648 Q37.5573 355.023 37.3385 355.413 L42.6042 355.413 Z" fill="#000000" fill-opacity="1.000000"/>
  <path d="M43.9167 346.413 L43.9167 345.413 L50.8698 345.413 L50.8698 346.226 Q49.8542 347.32 48.8464 349.257 Q47.8385 351.195 47.276 353.241 Q46.8854 354.695 46.776 356.413 L45.4323 356.413 Q45.4479 355.054 45.9245 353.132 Q46.401 351.21 47.2917 349.421 Q48.1823 347.632 49.1823 346.413 L43.9167 346.413 Z" fill="#000000" fill-opacity="1.000000"/>
  <path d="M52.7292 349.413 L52.7292 348.413 L54.2292 348.413 L54.2292 349.413 L52.7292 349.413 ZM52.7292 356.413 L52.7292 355.413 L54.2292 355.413 L54.2292 356.413 L52.7292 356.413 Z" fill="#000000" fill-opacity="1.000000"/>
  <path d="M56.0729 350.913 Q56.0729 349.007 56.4635 347.843 Q56.8542 346.679 57.6276 346.046 Q58.401 345.413 59.5729 345.413 Q60.4323 345.413 61.0885 345.765 Q61.7448 346.116 62.1667 346.773 Q62.5885 347.429 62.8307 348.374 Q63.0729 349.32 63.0729 350.913 Q63.0729 352.82 62.6823 353.984 Q62.2917 355.148 61.5182 355.781 Q60.7448 356.413 59.5729 356.413 Q58.026 356.413 57.1354 355.304 Q56.0729 353.945 56.0729 350.913 ZM57.4323 350.913 Q57.4323 353.616 58.0495 354.515 Q58.6667 355.413 59.5729 355.413 Q60.4792 355.413 61.0964 354.515 Q61.7135 353.616 61.7135 350.913 Q61.7135 348.195 61.0964 347.304 Q60.4792 346.413 59.5573 346.413 Q58.651 346.413 58.1042 347.195 Q57.4323 348.21 57.4323 350.913 Z" fill="#000000" fill-opacity="1.000000"/>
  <path d="M64.2292 350.913 Q64.2292 349.007 64.6198 347.843 Q65.0104 346.679 65.7839 346.046 Q66.5573 345.413 67.7292 345.413 Q68.5885 345.413 69.2448 345.765 Q69.901 346.116 70.3229 346.773 Q70.7448 347.429 70.987 348.374 Q71.2292 349.32 71.2292 350.913 Q71.2292 352.82 70.8385 353.984 Q70.4479 355.148 69.6745 355.781 Q68.901 356.413 67.7292 356.413 Q66.1823 356.413 65.2917 355.304 Q64.2292 353.945 64.2292 350.913 ZM65.5885 350.913 Q65.5885 353.616 66.2057 354.515 Q66.8229 355.413 67.7292 355.413 Q68.6354 355.413 69.2526 354.515 Q69.8698 353.616 69.8698 350.913 Q69.8698 348.195 69.2526 347.304 Q68.6354 346.413 67.7135 346.413 Q66.8073 346.413 66.2604 347.195 Q65.5885 348.21 65.5885 350.913 Z" fill="#000000" fill-opacity="1.000000"/>
  <path d="M15.2917 308.82 Q15.2917 306.914 15.6823 305.75 Q16.0729 304.586 16.8464 303.953 Q17.6198 303.32 18.7917 303.32 Q19.651 303.32 20.3073 303.672 Q20.9635 304.023 21.3854 304.679 Q21.8073 305.336 22.0495 306.281 Q22.2917 307.226 22.2917 308.82 Q22.2917 310.726 21.901 311.89 Q21.5104 313.054 20.737 313.687 Q19.9635 314.32 18.7917 314.32 Q17.2448 314.32 16.3542 313.211 Q15.2917 311.851 15.2917 308.82 ZM16.651 308.82 Q16.651 311.523 17.2682 312.422 Q17.8854 313.32 18.7917 313.32 Q19.6979 313.32 20.3151 312.422 Q20.9323 311.523 20.9323 308.82 Q20.9323 306.101 20.3151 305.211 Q19.6979 304.32 18.776 304.32 Q17.8698 304.32 17.3229 305.101 Q16.651 306.117 16.651 308.82 Z" fill="#000000" fill-opacity="1.000000"/>
  <path d="M23.526 304.32 L23.526 303.32 L30.4792 303.32 L30.4792 304.132 Q29.4635 305.226 28.4557 307.164 Q27.4479 309.101 26.8854 311.148 Q26.4948 312.601 26.3854 314.32 L25.0417 314.32 Q25.0573 312.961 25.5339 311.039 Q26.0104 309.117 26.901 307.328 Q27.7917 305.539 28.7917 304.32 L23.526 304.32 Z" fill="#000000" fill-opacity="1.000000"/>
  <path d="M32.3385 307.32 L32.3385 306.32 L33.8385 306.32 L33.8385 307.32 L32.3385 307.32 ZM32.3385 314.32 L32.3385 313.32 L33.8385 313.32 L33.8385 314.32 L32.3385 314.32 Z" fill="#000000" fill-opacity="1.000000"/>
  <path d="M35.6823 308.82 Q35.6823 306.914 36.0729 305.75 Q36.4635 304.586 37.237 303.953 Q38.0104 303.32 39.1823 303.32 Q40.0417 303.32 40.6979 303.672 Q41.3542 304.023 41.776 304.679 Q42.1979 305.336 42.4401 306.281 Q42.6823 307.226 42.6823 308.82 Q42.6823 310.726 42.2917 311.89 Q41.901 313.054 41.1276 313.687 Q40.3542 314.32 39.1823 314.32 Q37.6354 314.32 36.7448 313.211 Q35.6823 311.851 35.6823 308.82 ZM37.0417 308.82 Q37.0417 311.523 37.6589 312.422 Q38.276 313.32 39.1823 313.32 Q40.0885 313.32 40.7057 312.422 Q41.3229 311.523 41.3229 308.82 Q41.3229 306.101 40.7057 305.211 Q40.0885 304.32 39.1667 304.32 Q38.2604 304.32 37.7135 305.101 Q37.0417 306.117 37.0417 308.82 Z" fill="#000000" fill-opacity="1.000000"/>
  <path d="M43.8385 311.32 L45.1667 311.32 Q45.401 312.382 45.9401 312.851 Q46.4792 313.32 47.2604 313.32 Q48.1979 313.32 48.8385 312.703 Q49.4792 312.086 49.4792 311.179 Q49.4792 310.304 48.8854 309.734 Q48.2917 309.164 47.3698 309.164 Q46.9948 309.164 46.4479 309.32 L46.5885 308.32 Q46.7292 308.336 46.8073 308.336 Q47.651 308.336 48.3229 307.828 Q48.9948 307.32 48.9948 306.257 Q48.9948 305.429 48.5026 304.875 Q48.0104 304.32 47.2292 304.32 Q46.4635 304.32 45.9479 304.82 Q45.4323 305.32 45.2917 306.32 L43.9792 306.32 Q44.2135 304.898 45.0729 304.109 Q45.9323 303.32 47.2135 303.32 Q48.0885 303.32 48.8307 303.726 Q49.5729 304.132 49.9635 304.836 Q50.3542 305.539 50.3542 306.336 Q50.3542 307.086 49.9792 307.703 Q49.6042 308.32 48.8698 308.679 Q49.8229 308.882 50.3464 309.531 Q50.8698 310.179 50.8698 311.164 Q50.8698 312.476 49.8464 313.398 Q48.8229 314.32 47.2448 314.32 Q45.8385 314.32 44.901 313.484 Q43.9635 312.648 43.8385 311.32 Z" fill="#000000" fill-opacity="1.000000"/>
  <path d="M52.7292 307.32 L52.7292 306.32 L54.2292 306.32 L54.2292 307.32 L52.7292 307.32 ZM52.7292 314.32 L52.7292 313.32 L54.2292 313.32 L54.2292 314.32 L52.7292 314.32 Z" fill="#000000" fill-opacity="1.000000"/>
  <path d="M56.0729 308.82 Q56.0729 306.914 56.4635 305.75 Q56.8542 304.586 57.6276 303.953 Q58.401 303.32 59.5729 303.32 Q60.4323 303.32 61.0885 303.672 Q61.7448 304.023 62.1667 304.679 Q62.5885 305.336 62.8307 306.281 Q63.0729 307.226 63.0729 308.82 Q63.0729 310.726 62.6823 311.89 Q62.2917 313.054 61.5182 313.687 Q60.7448 314.32 59.5729 314.32 Q58.026 314.32 57.1354 313.211 Q56.0729 311.851 56.0729 308.82 ZM57.4323 308.82 Q57.4323 311.523 58.0495 312.422 Q58.6667 313.32 59.5729 313.32 Q60.4792 313.32 61.0964 312.422 Q61.7135 311.523 61.7135 308.82 Q61.7135 306.101 61.0964 305.211 Q60.4792 304.32 59.5573 304.32 Q58.651 304.32 58.1042 305.101 Q57.4323 306.117 57.4323 308.82 Z" fill="#000000" fill-opacity="1.000000"/>
  <path d="M64.2292 308.82 Q64.2292 306.914 64.6198 305.75 Q65.0104 304.586 65.7839 303.953 Q66.5573 303.32 67.7292 303.32 Q68.5885 303.32 69.2448 303.672 Q69.901 304.023 70.3229 304.679 Q70.7448 305.336 70.987 306.281 Q71.2292 307.226 71.2292 308.82 Q71.2292 310.726 70.8385 311.89 Q70.4479 313.054 69.6745 313.687 Q68.901 314.32 67.7292 314.32 Q66.1823 314.32 65.2917 313.211 Q64.2292 311.851 64.2292 308.82 ZM65.5885 308.82 Q65.5885 311.523 66.2057 312.422 Q66.8229 313.32 67.7292 313.32 Q68.6354 313.32 69.2526 312.422 Q69.8698 311.523 69.8698 308.82 Q69.8698 306.101 69.2526 305.211 Q68.6354 304.32 67.7135 304.32 Q66.8073 304.32 66.2604 305.101 Q65.5885 306.117 65.5885 308.82 Z" fill="#000000" fill-opacity="1.000000"/>
  <path d="M15.2917 266.727 Q15.2917 264.82 15.6823 263.656 Q16.0729 262.492 16.8464 261.859 Q17.6198 261.227 18.7917 261.227 Q19.651 261.227 20.3073 261.578 Q20.9635 261.93 21.3854 262.586 Q21.8073 263.242 22.0495 264.188 Q22.2917 265.133 22.2917 266.727 Q22.2917 268.633 21.901 269.797 Q21.5104 270.961 20.737 271.594 Q19.9635 272.227 18.7917 272.227 Q17.2448 272.227 16.3542 271.117 Q15.2917 269.758 15.2917 266.727 ZM16.651 266.727 Q16.651 269.43 17.2682 270.328 Q17.8854 271.227 18.7917 271.227 Q19.6979 271.227 20.3151 270.328 Q20.9323 269.43 20.9323 266.727 Q20.9323 264.008 20.3151 263.117 Q19.6979 262.227 18.776 262.227 Q17.8698 262.227 17.3229 263.008 Q16.651 264.024 16.651 266.727 Z" fill="#000000" fill-opacity="1.000000"/>
  <path d="M23.526 262.227 L23.526 261.227 L30.4792 261.227 L30.4792 262.039 Q29.4635 263.133 28.4557 265.07 Q27.4479 267.008 26.8854 269.055 Q26.4948 270.508 26.3854 272.227 L25.0417 272.227 Q25.0573 270.867 25.5339 268.945 Q26.0104 267.024 26.901 265.234 Q27.7917 263.445 28.7917 262.227 L23.526 262.227 Z" fill="#000000" fill-opacity="1.000000"/>
  <path d="M32.3385 265.227 L32.3385 264.227 L33.8385 264.227 L33.8385 265.227 L32.3385 265.227 ZM32.3385 272.227 L32.3385 271.227 L33.8385 271.227 L33.8385 272.227 L32.3385 272.227 Z" fill="#000000" fill-opacity="1.000000"/>
  <path d="M35.6823 269.227 L37.0104 269.227 Q37.2448 270.289 37.7839 270.758 Q38.3229 271.227 39.1042 271.227 Q40.0417 271.227 40.6823 270.609 Q41.3229 269.992 41.3229 269.086 Q41.3229 268.211 40.7292 267.641 Q40.1354 267.07 39.2135 267.07 Q38.8385 267.07 38.2917 267.227 L38.4323 266.227 Q38.5729 266.242 38.651 266.242 Q39.4948 266.242 40.1667 265.734 Q40.8385 265.227 40.8385 264.164 Q40.8385 263.336 40.3464 262.781 Q39.8542 262.227 39.0729 262.227 Q38.3073 262.227 37.7917 262.727 Q37.276 263.227 37.1354 264.227 L35.8229 264.227 Q36.0573 262.805 36.9167 262.016 Q37.776 261.227 39.0573 261.227 Q39.9323 261.227 40.6745 261.633 Q41.4167 262.039 41.8073 262.742 Q42.1979 263.445 42.1979 264.242 Q42.1979 264.992 41.8229 265.609 Q41.4479 266.227 40.7135 266.586 Q41.6667 266.789 42.1901 267.438 Q42.7135 268.086 42.7135 269.07 Q42.7135 270.383 41.6901 271.305 Q40.6667 272.227 39.0885 272.227 Q37.6823 272.227 36.7448 271.391 Q35.8073 270.555 35.6823 269.227 Z" fill="#000000" fill-opacity="1.000000"/>
  <path d="M44.0417 269.227 L45.3073 269.227 Q45.4635 270.274 45.9167 270.75 Q46.3698 271.227 47.0885 271.227 Q47.6823 271.227 48.1432 270.922 Q48.6042 270.617 48.8932 270.109 Q49.1823 269.602 49.3854 268.75 Q49.5885 267.899 49.5885 267.07 Q49.5885 266.992 49.5729 266.82 Q49.1823 267.445 48.4948 267.836 Q47.8073 268.227 47.0104 268.227 Q45.6823 268.227 44.7604 267.281 Q43.8385 266.336 43.8385 264.774 Q43.8385 263.18 44.7995 262.203 Q45.7604 261.227 47.2135 261.227 Q48.2604 261.227 49.1276 261.789 Q49.9948 262.352 50.4479 263.399 Q50.901 264.445 50.901 266.43 Q50.901 268.508 50.4557 269.727 Q50.0104 270.945 49.1276 271.586 Q48.2448 272.227 47.0573 272.227 Q45.7917 272.227 44.9948 271.438 Q44.1979 270.649 44.0417 269.227 ZM49.4323 264.758 Q49.4323 263.586 48.8307 262.906 Q48.2292 262.227 47.3698 262.227 Q46.4948 262.227 45.8464 262.961 Q45.1979 263.695 45.1979 264.867 Q45.1979 265.914 45.8151 266.57 Q46.4323 267.227 47.3385 267.227 Q48.2604 267.227 48.8464 266.57 Q49.4323 265.914 49.4323 264.758 Z" fill="#000000" fill-opacity="1.000000"/>
  <path d="M52.7292 265.227 L52.7292 264.227 L54.2292 264.227 L54.2292 265.227 L52.7292 265.227 ZM52.7292 272.227 L52.7292 271.227 L54.2292 271.227 L54.2292 272.227 L52.7292 272.227 Z" fill="#000000" fill-opacity="1.000000"/>
  <path d="M56.0729 266.727 Q56.0729 264.82 56.4635 263.656 Q56.8542 262.492 57.6276 261.859 Q58.401 261.227 59.5729 261.227 Q60.4323 261.227 61.0885 261.578 Q61.7448 261.93 62.1667 262.586 Q62.5885 263.242 62.8307 264.188 Q63.0729 265.133 63.0729 266.727 Q63.0729 268.633 62.6823 269.797 Q62.2917 270.961 61.5182 271.594 Q60.7448 272.227 59.5729 272.227 Q58.026 272.227 57.1354 271.117 Q56.0729 269.758 56.0729 266.727 ZM57.4323 266.727 Q57.4323 269.43 58.0495 270.328 Q58.6667 271.227 59.5729 271.227 Q60.4792 271.227 61.0964 270.328 Q61.7135 269.43 61.7135 266.727 Q61.7135 264.008 61.0964 263.117 Q60.4792 262.227 59.5573 262.227 Q58.651 262.227 58.1042 263.008 Q57.4323 264.024 57.4323 266.727 Z" fill="#000000" fill-opacity="1.000000"/>
  <path d="M64.2292 266.727 Q64.2292 264.82 64.6198 263.656 Q65.0104 262.492 65.7839 261.859 Q66.5573 261.227 67.7292 261.227 Q68.5885 261.227 69.2448 261.578 Q69.901 261.93 70.3229 262.586 Q70.7448 263.242 70.987 264.188 Q71.2292 265.133 71.2292 266.727 Q71.2292 268.633 70.8385 269.797 Q70.4479 270.961 69.6745 271.594 Q68.901 272.227 67.7292 272.227 Q66.1823 272.227 65.2917 271.117 Q64.2292 269.758 64.2292 266.727 ZM65.5885 266.727 Q65.5885 269.43 66.2057 270.328 Q66.8229 271.227 67.7292 271.227 Q68.6354 271.227 69.2526 270.328 Q69.8698 269.43 69.8698 266.727 Q69.8698 264.008 69.2526 263.117 Q68.6354 262.227 67.7135 262.227 Q66.8073 262.227 66.2604 263.008 Q65.5885 264.024 65.5885 266.727 Z" fill="#000000" fill-opacity="1.000000"/>
  <path d="M15.2917 224.633 Q15.2917 222.727 15.6823 221.563 Q16.0729 220.399 16.8464 219.766 Q17.6198 219.133 18.7917 219.133 Q19.651 219.133 20.3073 219.485 Q20.9635 219.836 21.3854 220.493 Q21.8073 221.149 22.0495 222.094 Q22.2917 223.04 22.2917 224.633 Q22.2917 226.54 21.901 227.704 Q21.5104 228.868 20.737 229.501 Q19.9635 230.133 18.7917 230.133 Q17.2448 230.133 16.3542 229.024 Q15.2917 227.665 15.2917 224.633 ZM16.651 224.633 Q16.651 227.336 17.2682 228.235 Q17.8854 229.133 18.7917 229.133 Q19.6979 229.133 20.3151 228.235 Q20.9323 227.336 20.9323 224.633 Q20.9323 221.915 20.3151 221.024 Q19.6979 220.133 18.776 220.133 Q17.8698 220.133 17.3229 220.915 Q16.651 221.93 16.651 224.633 Z" fill="#000000" fill-opacity="1.000000"/>
  <path d="M25.4792 224.602 Q24.6667 224.274 24.2682 223.657 Q23.8698 223.04 23.8698 222.18 Q23.8698 220.899 24.7135 220.016 Q25.5573 219.133 26.9479 219.133 Q28.3542 219.133 29.2135 220.032 Q30.0729 220.93 30.0729 222.227 Q30.0729 223.055 29.6745 223.665 Q29.276 224.274 28.4792 224.602 Q29.4792 224.899 29.9948 225.563 Q30.5104 226.227 30.5104 227.133 Q30.5104 228.399 29.5339 229.266 Q28.5573 230.133 26.9792 230.133 Q25.3854 230.133 24.4089 229.266 Q23.4323 228.399 23.4323 227.102 Q23.4323 226.133 23.9635 225.485 Q24.4948 224.836 25.4792 224.602 ZM25.2135 222.086 Q25.2135 222.993 25.7057 223.563 Q26.1979 224.133 26.9792 224.133 Q27.7448 224.133 28.2292 223.563 Q28.7135 222.993 28.7135 222.165 Q28.7135 221.305 28.2135 220.719 Q27.7135 220.133 26.9635 220.133 Q26.2135 220.133 25.7135 220.704 Q25.2135 221.274 25.2135 222.086 ZM24.7917 227.118 Q24.7917 227.633 25.0573 228.118 Q25.3229 228.602 25.8464 228.868 Q26.3698 229.133 26.9792 229.133 Q27.9167 229.133 28.5339 228.571 Q29.151 228.008 29.151 227.149 Q29.151 226.274 28.5182 225.704 Q27.8854 225.133 26.9323 225.133 Q26.0104 225.133 25.401 225.696 Q24.7917 226.258 24.7917 227.118 Z" fill="#000000" fill-opacity="1.000000"/>
  <path d="M32.3385 223.133 L32.3385 222.133 L33.8385 222.133 L33.8385 223.133 L32.3385 223.133 ZM32.3385 230.133 L32.3385 229.133 L33.8385 229.133 L33.8385 230.133 L32.3385 230.133 Z" fill="#000000" fill-opacity="1.000000"/>
  <path d="M40.651 230.133 L39.3229 230.133 L39.3229 221.555 Q38.8542 222.024 38.0807 222.485 Q37.3073 222.946 36.6979 223.18 L36.6979 221.883 Q37.8073 221.352 38.6276 220.594 Q39.4479 219.836 39.7917 219.133 L40.651 219.133 L40.651 230.133 Z" fill="#000000" fill-opacity="1.000000"/>
  <path d="M43.8385 227.133 L45.2135 227.133 Q45.3698 228.133 45.9323 228.633 Q46.4948 229.133 47.276 229.133 Q48.2292 229.133 48.8932 228.422 Q49.5573 227.711 49.5573 226.54 Q49.5573 225.43 48.9245 224.782 Q48.2917 224.133 47.2604 224.133 Q46.6198 224.133 46.112 224.415 Q45.6042 224.696 45.3073 225.133 L44.0729 225.133 L45.1042 219.133 L50.4479 219.133 L50.4479 220.133 L46.1667 220.133 L45.5885 223.711 Q46.5573 223.133 47.6198 223.133 Q49.0104 223.133 49.9792 224.071 Q50.9479 225.008 50.9479 226.461 Q50.9479 227.868 50.1042 228.883 Q49.0729 230.133 47.276 230.133 Q45.8229 230.133 44.8932 229.313 Q43.9635 228.493 43.8385 227.133 Z" fill="#000000" fill-opacity="1.000000"/>
  <path d="M52.7292 223.133 L52.7292 222.133 L54.2292 222.133 L54.2292 223.133 L52.7292 223.133 ZM52.7292 230.133 L52.7292 229.133 L54.2292 229.133 L54.2292 230.133 L52.7292 230.133 Z" fill="#000000" fill-opacity="1.000000"/>
  <path d="M56.0729 224.633 Q56.0729 222.727 56.4635 221.563 Q56.8542 220.399 57.6276 219.766 Q58.401 219.133 59.5729 219.133 Q60.4323 219.133 61.0885 219.485 Q61.7448 219.836 62.1667 220.493 Q62.5885 221.149 62.8307 222.094 Q63.0729 223.04 63.0729 224.633 Q63.0729 226.54 62.6823 227.704 Q62.2917 228.868 61.5182 229.501 Q60.7448 230.133 59.5729 230.133 Q58.026 230.133 57.1354 229.024 Q56.0729 227.665 56.0729 224.633 ZM57.4323 224.633 Q57.4323 227.336 58.0495 228.235 Q58.6667 229.133 59.5729 229.133 Q60.4792 229.133 61.0964 228.235 Q61.7135 227.336 61.7135 224.633 Q61.7135 221.915 61.0964 221.024 Q60.4792 220.133 59.5573 220.133 Q58.651 220.133 58.1042 220.915 Q57.4323 221.93 57.4323 224.633 Z" fill="#000000" fill-opacity="1.000000"/>
  <path d="M64.2292 224.633 Q64.2292 222.727 64.6198 221.563 Q65.0104 220.399 65.7839 219.766 Q66.5573 219.133 67.7292 219.133 Q68.5885 219.133 69.2448 219.485 Q69.901 219.836 70.3229 220.493 Q70.7448 221.149 70.987 222.094 Q71.2292 223.04 71.2292 224.633 Q71.2292 226.54 70.8385 227.704 Q70.4479 228.868 69.6745 229.501 Q68.901 230.133 67.7292 230.133 Q66.1823 230.133 65.2917 229.024 Q64.2292 227.665 64.2292 224.633 ZM65.5885 224.633 Q65.5885 227.336 66.2057 228.235 Q66.8229 229.133 67.7292 229.133 Q68.6354 229.133 69.2526 228.235 Q69.8698 227.336 69.8698 224.633 Q69.8698 221.915 69.2526 221.024 Q68.6354 220.133 67.7135 220.133 Q66.8073 220.133 66.2604 220.915 Q65.5885 221.93 65.5885 224.633 Z" fill="#000000" fill-opacity="1.000000"/>
  <path d="M15.2917 182.54 Q15.2917 180.634 15.6823 179.47 Q16.0729 178.306 16.8464 177.673 Q17.6198 177.04 18.7917 177.04 Q19.651 177.04 20.3073 177.392 Q20.9635 177.743 21.3854 178.399 Q21.8073 179.056 22.0495 180.001 Q22.2917 180.946 22.2917 182.54 Q22.2917 184.446 21.901 185.61 Q21.5104 186.774 20.737 187.407 Q19.9635 188.04 18.7917 188.04 Q17.2448 188.04 16.3542 186.931 Q15.2917 185.571 15.2917 182.54 ZM16.651 182.54 Q16.651 185.243 17.2682 186.142 Q17.8854 187.04 18.7917 187.04 Q19.6979 187.04 20.3151 186.142 Q20.9323 185.243 20.9323 182.54 Q20.9323 179.821 20.3151 178.931 Q19.6979 178.04 18.776 178.04 Q17.8698 178.04 17.3229 178.821 Q16.651 179.837 16.651 182.54 Z" fill="#000000" fill-opacity="1.000000"/>
  <path d="M25.4792 182.509 Q24.6667 182.181 24.2682 181.563 Q23.8698 180.946 23.8698 180.087 Q23.8698 178.806 24.7135 177.923 Q25.5573 177.04 26.9479 177.04 Q28.3542 177.04 29.2135 177.938 Q30.0729 178.837 30.0729 180.134 Q30.0729 180.962 29.6745 181.571 Q29.276 182.181 28.4792 182.509 Q29.4792 182.806 29.9948 183.47 Q30.5104 184.134 30.5104 185.04 Q30.5104 186.306 29.5339 187.173 Q28.5573 188.04 26.9792 188.04 Q25.3854 188.04 24.4089 187.173 Q23.4323 186.306 23.4323 185.009 Q23.4323 184.04 23.9635 183.392 Q24.4948 182.743 25.4792 182.509 ZM25.2135 179.993 Q25.2135 180.899 25.7057 181.47 Q26.1979 182.04 26.9792 182.04 Q27.7448 182.04 28.2292 181.47 Q28.7135 180.899 28.7135 180.071 Q28.7135 179.212 28.2135 178.626 Q27.7135 178.04 26.9635 178.04 Q26.2135 178.04 25.7135 178.61 Q25.2135 179.181 25.2135 179.993 ZM24.7917 185.024 Q24.7917 185.54 25.0573 186.024 Q25.3229 186.509 25.8464 186.774 Q26.3698 187.04 26.9792 187.04 Q27.9167 187.04 28.5339 186.477 Q29.151 185.915 29.151 185.056 Q29.151 184.181 28.5182 183.61 Q27.8854 183.04 26.9323 183.04 Q26.0104 183.04 25.401 183.602 Q24.7917 184.165 24.7917 185.024 Z" fill="#000000" fill-opacity="1.000000"/>
  <path d="M32.3385 181.04 L32.3385 180.04 L33.8385 180.04 L33.8385 181.04 L32.3385 181.04 ZM32.3385 188.04 L32.3385 187.04 L33.8385 187.04 L33.8385 188.04 L32.3385 188.04 Z" fill="#000000" fill-opacity="1.000000"/>
  <path d="M35.6823 185.04 L37.0573 185.04 Q37.2135 186.04 37.776 186.54 Q38.3385 187.04 39.1198 187.04 Q40.0729 187.04 40.737 186.329 Q41.401 185.618 41.401 184.446 Q41.401 183.337 40.7682 182.688 Q40.1354 182.04 39.1042 182.04 Q38.4635 182.04 37.9557 182.321 Q37.4479 182.602 37.151 183.04 L35.9167 183.04 L36.9479 177.04 L42.2917 177.04 L42.2917 178.04 L38.0104 178.04 L37.4323 181.618 Q38.401 181.04 39.4635 181.04 Q40.8542 181.04 41.8229 181.977 Q42.7917 182.915 42.7917 184.368 Q42.7917 185.774 41.9479 186.79 Q40.9167 188.04 39.1198 188.04 Q37.6667 188.04 36.737 187.22 Q35.8073 186.399 35.6823 185.04 Z" fill="#000000" fill-opacity="1.000000"/>
  <path d="M48.8073 188.04 L47.4792 188.04 L47.4792 179.462 Q47.0104 179.931 46.237 180.392 Q45.4635 180.852 44.8542 181.087 L44.8542 179.79 Q45.9635 179.259 46.7839 178.501 Q47.6042 177.743 47.9479 177.04 L48.8073 177.04 L48.8073 188.04 Z" fill="#000000" fill-opacity="1.000000"/>
  <path d="M52.7292 181.04 L52.7292 180.04 L54.2292 180.04 L54.2292 181.04 L52.7292 181.04 ZM52.7292 188.04 L52.7292 187.04 L54.2292 187.04 L54.2292 188.04 L52.7292 188.04 Z" fill="#000000" fill-opacity="1.000000"/>
  <path d="M56.0729 182.54 Q56.0729 180.634 56.4635 179.47 Q56.8542 178.306 57.6276 177.673 Q58.401 177.04 59.5729 177.04 Q60.4323 177.04 61.0885 177.392 Q61.7448 177.743 62.1667 178.399 Q62.5885 179.056 62.8307 180.001 Q63.0729 180.946 63.0729 182.54 Q63.0729 184.446 62.6823 185.61 Q62.2917 186.774 61.5182 187.407 Q60.7448 188.04 59.5729 188.04 Q58.026 188.04 57.1354 186.931 Q56.0729 185.571 56.0729 182.54 ZM57.4323 182.54 Q57.4323 185.243 58.0495 186.142 Q58.6667 187.04 59.5729 187.04 Q60.4792 187.04 61.0964 186.142 Q61.7135 185.243 61.7135 182.54 Q61.7135 179.821 61.0964 178.931 Q60.4792 178.04 59.5573 178.04 Q58.651 178.04 58.1042 178.821 Q57.4323 179.837 57.4323 182.54 Z" fill="#000000" fill-opacity="1.000000"/>
  <path d="M64.2292 182.54 Q64.2292 180.634 64.6198 179.47 Q65.0104 178.306 65.7839 177.673 Q66.5573 177.04 67.7292 177.04 Q68.5885 177.04 69.2448 177.392 Q69.901 177.743 70.3229 178.399 Q70.7448 179.056 70.987 180.001 Q71.2292 180.946 71.2292 182.54 Q71.2292 184.446 70.8385 185.61 Q70.4479 186.774 69.6745 187.407 Q68.901 188.04 67.7292 188.04 Q66.1823 188.04 65.2917 186.931 Q64.2292 185.571 64.2292 182.54 ZM65.5885 182.54 Q65.5885 185.243 66.2057 186.142 Q66.8229 187.04 67.7292 187.04 Q68.6354 187.04 69.2526 186.142 Q69.8698 185.243 69.8698 182.54 Q69.8698 179.821 69.2526 178.931 Q68.6354 178.04 67.7135 178.04 Q66.8073 178.04 66.2604 178.821 Q65.5885 179.837 65.5885 182.54 Z" fill="#000000" fill-opacity="1.000000"/>
  <path d="M15.2917 140.447 Q15.2917 138.54 15.6823 137.376 Q16.0729 136.212 16.8464 135.579 Q17.6198 134.947 18.7917 134.947 Q19.651 134.947 20.3073 135.298 Q20.9635 135.65 21.3854 136.306 Q21.8073 136.962 22.0495 137.908 Q22.2917 138.853 22.2917 140.447 Q22.2917 142.353 21.901 143.517 Q21.5104 144.681 20.737 145.314 Q19.9635 145.947 18.7917 145.947 Q17.2448 145.947 16.3542 144.837 Q15.2917 143.478 15.2917 140.447 ZM16.651 140.447 Q16.651 143.15 17.2682 144.048 Q17.8854 144.947 18.7917 144.947 Q19.6979 144.947 20.3151 144.048 Q20.9323 143.15 20.9323 140.447 Q20.9323 137.728 20.3151 136.837 Q19.6979 135.947 18.776 135.947 Q17.8698 135.947 17.3229 136.728 Q16.651 137.744 16.651 140.447 Z" fill="#000000" fill-opacity="1.000000"/>
  <path d="M23.651 142.947 L24.9167 142.947 Q25.0729 143.994 25.526 144.47 Q25.9792 144.947 26.6979 144.947 Q27.2917 144.947 27.7526 144.642 Q28.2135 144.337 28.5026 143.829 Q28.7917 143.322 28.9948 142.47 Q29.1979 141.619 29.1979 140.79 Q29.1979 140.712 29.1823 140.54 Q28.7917 141.165 28.1042 141.556 Q27.4167 141.947 26.6198 141.947 Q25.2917 141.947 24.3698 141.001 Q23.4479 140.056 23.4479 138.494 Q23.4479 136.9 24.4089 135.923 Q25.3698 134.947 26.8229 134.947 Q27.8698 134.947 28.737 135.509 Q29.6042 136.072 30.0573 137.119 Q30.5104 138.165 30.5104 140.15 Q30.5104 142.228 30.0651 143.447 Q29.6198 144.665 28.737 145.306 Q27.8542 145.947 26.6667 145.947 Q25.401 145.947 24.6042 145.158 Q23.8073 144.369 23.651 142.947 ZM29.0417 138.478 Q29.0417 137.306 28.4401 136.626 Q27.8385 135.947 26.9792 135.947 Q26.1042 135.947 25.4557 136.681 Q24.8073 137.415 24.8073 138.587 Q24.8073 139.634 25.4245 140.29 Q26.0417 140.947 26.9479 140.947 Q27.8698 140.947 28.4557 140.29 Q29.0417 139.634 29.0417 138.478 Z" fill="#000000" fill-opacity="1.000000"/>
  <path d="M32.3385 138.947 L32.3385 137.947 L33.8385 137.947 L33.8385 138.947 L32.3385 138.947 ZM32.3385 145.947 L32.3385 144.947 L33.8385 144.947 L33.8385 145.947 L32.3385 145.947 Z" fill="#000000" fill-opacity="1.000000"/>
  <path d="M42.6042 144.947 L42.6042 145.947 L35.5104 145.947 Q35.4948 145.556 35.6667 145.181 Q35.9323 144.572 36.5339 143.986 Q37.1354 143.4 38.2604 142.337 Q40.0104 140.681 40.6276 139.751 Q41.2448 138.822 41.2448 138.009 Q41.2448 137.134 40.6823 136.54 Q40.1198 135.947 39.2292 135.947 Q38.276 135.947 37.6979 136.478 Q37.1198 137.009 37.1198 137.947 L35.7604 137.947 Q35.901 136.478 36.8073 135.712 Q37.7135 134.947 39.2448 134.947 Q40.7917 134.947 41.6901 135.837 Q42.5885 136.728 42.5885 138.056 Q42.5885 138.728 42.3229 139.376 Q42.0573 140.025 41.4479 140.744 Q40.8385 141.462 39.4167 142.744 Q38.2292 143.806 37.8932 144.181 Q37.5573 144.556 37.3385 144.947 L42.6042 144.947 Z" fill="#000000" fill-opacity="1.000000"/>
  <path d="M50.6823 137.947 L49.3698 137.947 Q49.1979 137.025 48.8698 136.619 Q48.3385 135.947 47.5573 135.947 Q46.9167 135.947 46.4479 136.337 Q45.8229 136.837 45.4635 137.79 Q45.1042 138.744 45.0885 140.384 Q45.5573 139.65 46.2526 139.298 Q46.9479 138.947 47.6979 138.947 Q49.0104 138.947 49.9401 139.9 Q50.8698 140.853 50.8698 142.353 Q50.8698 143.337 50.4323 144.189 Q49.9948 145.04 49.237 145.494 Q48.4792 145.947 47.5104 145.947 Q45.8542 145.947 44.8151 144.728 Q43.776 143.509 43.776 140.728 Q43.776 137.603 44.9323 136.181 Q45.9323 134.947 47.6354 134.947 Q48.901 134.947 49.7135 135.744 Q50.526 136.54 50.6823 137.947 ZM45.2917 142.322 Q45.2917 143.009 45.5807 143.642 Q45.8698 144.275 46.3932 144.611 Q46.9167 144.947 47.4792 144.947 Q48.3229 144.947 48.9245 144.259 Q49.526 143.572 49.526 142.384 Q49.526 141.259 48.9323 140.603 Q48.3385 139.947 47.4323 139.947 Q46.5417 139.947 45.9167 140.603 Q45.2917 141.259 45.2917 142.322 Z" fill="#000000" fill-opacity="1.000000"/>
  <path d="M52.7292 138.947 L52.7292 137.947 L54.2292 137.947 L54.2292 138.947 L52.7292 138.947 ZM52.7292 145.947 L52.7292 144.947 L54.2292 144.947 L54.2292 145.947 L52.7292 145.947 Z" fill="#000000" fill-opacity="1.000000"/>
  <path d="M56.0729 142.947 L57.4479 142.947 Q57.6042 143.947 58.1667 144.447 Q58.7292 144.947 59.5104 144.947 Q60.4635 144.947 61.1276 144.236 Q61.7917 143.525 61.7917 142.353 Q61.7917 141.244 61.1589 140.595 Q60.526 139.947 59.4948 139.947 Q58.8542 139.947 58.3464 140.228 Q57.8385 140.509 57.5417 140.947 L56.3073 140.947 L57.3385 134.947 L62.6823 134.947 L62.6823 135.947 L58.401 135.947 L57.8229 139.525 Q58.7917 138.947 59.8542 138.947 Q61.2448 138.947 62.2135 139.884 Q63.1823 140.822 63.1823 142.275 Q63.1823 143.681 62.3385 144.697 Q61.3073 145.947 59.5104 145.947 Q58.0573 145.947 57.1276 145.126 Q56.1979 144.306 56.0729 142.947 Z" fill="#000000" fill-opacity="1.000000"/>
  <path d="M64.4323 142.947 L65.6979 142.947 Q65.8542 143.994 66.3073 144.47 Q66.7604 144.947 67.4792 144.947 Q68.0729 144.947 68.5339 144.642 Q68.9948 144.337 69.2839 143.829 Q69.5729 143.322 69.776 142.47 Q69.9792 141.619 69.9792 140.79 Q69.9792 140.712 69.9635 140.54 Q69.5729 141.165 68.8854 141.556 Q68.1979 141.947 67.401 141.947 Q66.0729 141.947 65.151 141.001 Q64.2292 140.056 64.2292 138.494 Q64.2292 136.9 65.1901 135.923 Q66.151 134.947 67.6042 134.947 Q68.651 134.947 69.5182 135.509 Q70.3854 136.072 70.8385 137.119 Q71.2917 138.165 71.2917 140.15 Q71.2917 142.228 70.8464 143.447 Q70.401 144.665 69.5182 145.306 Q68.6354 145.947 67.4479 145.947 Q66.1823 145.947 65.3854 145.158 Q64.5885 144.369 64.4323 142.947 ZM69.8229 138.478 Q69.8229 137.306 69.2214 136.626 Q68.6198 135.947 67.7604 135.947 Q66.8854 135.947 66.237 136.681 Q65.5885 137.415 65.5885 138.587 Q65.5885 139.634 66.2057 140.29 Q66.8229 140.947 67.7292 140.947 Q68.651 140.947 69.237 140.29 Q69.8229 139.634 69.8229 138.478 Z" fill="#000000" fill-opacity="1.000000"/>
  <path d="M20.2604 103.853 L18.9323 103.853 L18.9323 95.2752 Q18.4635 95.744 17.6901 96.2049 Q16.9167 96.6658 16.3073 96.9002 L16.3073 95.6033 Q17.4167 95.0721 18.237 94.3143 Q19.0573 93.5565 19.401 92.8533 L20.2604 92.8533 L20.2604 103.853 Z" fill="#000000" fill-opacity="1.000000"/>
  <path d="M23.4479 98.3533 Q23.4479 96.4471 23.8385 95.283 Q24.2292 94.119 25.0026 93.4861 Q25.776 92.8533 26.9479 92.8533 Q27.8073 92.8533 28.4635 93.2049 Q29.1198 93.5565 29.5417 94.2127 Q29.9635 94.869 30.2057 95.8143 Q30.4479 96.7596 30.4479 98.3533 Q30.4479 100.26 30.0573 101.424 Q29.6667 102.588 28.8932 103.221 Q28.1198 103.853 26.9479 103.853 Q25.401 103.853 24.5104 102.744 Q23.4479 101.385 23.4479 98.3533 ZM24.8073 98.3533 Q24.8073 101.056 25.4245 101.955 Q26.0417 102.853 26.9479 102.853 Q27.8542 102.853 28.4714 101.955 Q29.0885 101.056 29.0885 98.3533 Q29.0885 95.6346 28.4714 94.744 Q27.8542 93.8533 26.9323 93.8533 Q26.026 93.8533 25.4792 94.6346 Q24.8073 95.6502 24.8073 98.3533 Z" fill="#000000" fill-opacity="1.000000"/>
  <path d="M32.3385 96.8533 L32.3385 95.8533 L33.8385 95.8533 L33.8385 96.8533 L32.3385 96.8533 ZM32.3385 103.853 L32.3385 102.853 L33.8385 102.853 L33.8385 103.853 L32.3385 103.853 Z" fill="#000000" fill-opacity="1.000000"/>
  <path d="M35.6823 98.3533 Q35.6823 96.4471 36.0729 95.283 Q36.4635 94.119 37.237 93.4861 Q38.0104 92.8533 39.1823 92.8533 Q40.0417 92.8533 40.6979 93.2049 Q41.3542 93.5565 41.776 94.2127 Q42.1979 94.869 42.4401 95.8143 Q42.6823 96.7596 42.6823 98.3533 Q42.6823 100.26 42.2917 101.424 Q41.901 102.588 41.1276 103.221 Q40.3542 103.853 39.1823 103.853 Q37.6354 103.853 36.7448 102.744 Q35.6823 101.385 35.6823 98.3533 ZM37.0417 98.3533 Q37.0417 101.056 37.6589 101.955 Q38.276 102.853 39.1823 102.853 Q40.0885 102.853 40.7057 101.955 Q41.3229 101.056 41.3229 98.3533 Q41.3229 95.6346 40.7057 94.744 Q40.0885 93.8533 39.1667 93.8533 Q38.2604 93.8533 37.7135 94.6346 Q37.0417 95.6502 37.0417 98.3533 Z" fill="#000000" fill-opacity="1.000000"/>
  <path d="M43.8385 100.853 L45.1667 100.853 Q45.401 101.916 45.9401 102.385 Q46.4792 102.853 47.2604 102.853 Q48.1979 102.853 48.8385 102.236 Q49.4792 101.619 49.4792 100.713 Q49.4792 99.8377 48.8854 99.2674 Q48.2917 98.6971 47.3698 98.6971 Q46.9948 98.6971 46.4479 98.8533 L46.5885 97.8533 Q46.7292 97.869 46.8073 97.869 Q47.651 97.869 48.3229 97.3611 Q48.9948 96.8533 48.9948 95.7908 Q48.9948 94.9627 48.5026 94.408 Q48.0104 93.8533 47.2292 93.8533 Q46.4635 93.8533 45.9479 94.3533 Q45.4323 94.8533 45.2917 95.8533 L43.9792 95.8533 Q44.2135 94.4315 45.0729 93.6424 Q45.9323 92.8533 47.2135 92.8533 Q48.0885 92.8533 48.8307 93.2596 Q49.5729 93.6658 49.9635 94.369 Q50.3542 95.0721 50.3542 95.869 Q50.3542 96.619 49.9792 97.2361 Q49.6042 97.8533 48.8698 98.2127 Q49.8229 98.4158 50.3464 99.0643 Q50.8698 99.7127 50.8698 100.697 Q50.8698 102.01 49.8464 102.931 Q48.8229 103.853 47.2448 103.853 Q45.8385 103.853 44.901 103.017 Q43.9635 102.181 43.8385 100.853 Z" fill="#000000" fill-opacity="1.000000"/>
  <path d="M52.7292 96.8533 L52.7292 95.8533 L54.2292 95.8533 L54.2292 96.8533 L52.7292 96.8533 ZM52.7292 103.853 L52.7292 102.853 L54.2292 102.853 L54.2292 103.853 L52.7292 103.853 Z" fill="#000000" fill-opacity="1.000000"/>
  <path d="M56.0729 98.3533 Q56.0729 96.4471 56.4635 95.283 Q56.8542 94.119 57.6276 93.4861 Q58.401 92.8533 59.5729 92.8533 Q60.4323 92.8533 61.0885 93.2049 Q61.7448 93.5565 62.1667 94.2127 Q62.5885 94.869 62.8307 95.8143 Q63.0729 96.7596 63.0729 98.3533 Q63.0729 100.26 62.6823 101.424 Q62.2917 102.588 61.5182 103.221 Q60.7448 103.853 59.5729 103.853 Q58.026 103.853 57.1354 102.744 Q56.0729 101.385 56.0729 98.3533 ZM57.4323 98.3533 Q57.4323 101.056 58.0495 101.955 Q58.6667 102.853 59.5729 102.853 Q60.4792 102.853 61.0964 101.955 Q61.7135 101.056 61.7135 98.3533 Q61.7135 95.6346 61.0964 94.744 Q60.4792 93.8533 59.5573 93.8533 Q58.651 93.8533 58.1042 94.6346 Q57.4323 95.6502 57.4323 98.3533 Z" fill="#000000" fill-opacity="1.000000"/>
  <path d="M64.2292 98.3533 Q64.2292 96.4471 64.6198 95.283 Q65.0104 94.119 65.7839 93.4861 Q66.5573 92.8533 67.7292 92.8533 Q68.5885 92.8533 69.2448 93.2049 Q69.901 93.5565 70.3229 94.2127 Q70.7448 94.869 70.987 95.8143 Q71.2292 96.7596 71.2292 98.3533 Q71.2292 100.26 70.8385 101.424 Q70.4479 102.588 69.6745 103.221 Q68.901 103.853 67.7292 103.853 Q66.1823 103.853 65.2917 102.744 Q64.2292 101.385 64.2292 98.3533 ZM65.5885 98.3533 Q65.5885 101.056 66.2057 101.955 Q66.8229 102.853 67.7292 102.853 Q68.6354 102.853 69.2526 101.955 Q69.8698 101.056 69.8698 98.3533 Q69.8698 95.6346 69.2526 94.744 Q68.6354 93.8533 67.7135 93.8533 Q66.8073 93.8533 66.2604 94.6346 Q65.5885 95.6502 65.5885 98.3533 Z" fill="#000000" fill-opacity="1.000000"/>
  <path d="M20.2604 61.76 L18.9323 61.76 L18.9323 53.1819 Q18.4635 53.6506 17.6901 54.1115 Q16.9167 54.5725 16.3073 54.8069 L16.3073 53.51 Q17.4167 52.9787 18.237 52.2209 Q19.0573 51.4631 19.401 50.76 L20.2604 50.76 L20.2604 61.76 Z" fill="#000000" fill-opacity="1.000000"/>
  <path d="M23.4479 56.26 Q23.4479 54.3537 23.8385 53.1897 Q24.2292 52.0256 25.0026 51.3928 Q25.776 50.76 26.9479 50.76 Q27.8073 50.76 28.4635 51.1115 Q29.1198 51.4631 29.5417 52.1194 Q29.9635 52.7756 30.2057 53.7209 Q30.4479 54.6662 30.4479 56.26 Q30.4479 58.1662 30.0573 59.3303 Q29.6667 60.4944 28.8932 61.1272 Q28.1198 61.76 26.9479 61.76 Q25.401 61.76 24.5104 60.6506 Q23.4479 59.2912 23.4479 56.26 ZM24.8073 56.26 Q24.8073 58.9631 25.4245 59.8615 Q26.0417 60.76 26.9479 60.76 Q27.8542 60.76 28.4714 59.8615 Q29.0885 58.9631 29.0885 56.26 Q29.0885 53.5412 28.4714 52.6506 Q27.8542 51.76 26.9323 51.76 Q26.026 51.76 25.4792 52.5412 Q24.8073 53.5569 24.8073 56.26 Z" fill="#000000" fill-opacity="1.000000"/>
  <path d="M32.3385 54.76 L32.3385 53.76 L33.8385 53.76 L33.8385 54.76 L32.3385 54.76 ZM32.3385 61.76 L32.3385 60.76 L33.8385 60.76 L33.8385 61.76 L32.3385 61.76 Z" fill="#000000" fill-opacity="1.000000"/>
  <path d="M35.6823 58.76 L37.0104 58.76 Q37.2448 59.8225 37.7839 60.2912 Q38.3229 60.76 39.1042 60.76 Q40.0417 60.76 40.6823 60.1428 Q41.3229 59.5256 41.3229 58.6194 Q41.3229 57.7444 40.7292 57.174 Q40.1354 56.6037 39.2135 56.6037 Q38.8385 56.6037 38.2917 56.76 L38.4323 55.76 Q38.5729 55.7756 38.651 55.7756 Q39.4948 55.7756 40.1667 55.2678 Q40.8385 54.76 40.8385 53.6975 Q40.8385 52.8694 40.3464 52.3147 Q39.8542 51.76 39.0729 51.76 Q38.3073 51.76 37.7917 52.26 Q37.276 52.76 37.1354 53.76 L35.8229 53.76 Q36.0573 52.3381 36.9167 51.549 Q37.776 50.76 39.0573 50.76 Q39.9323 50.76 40.6745 51.1662 Q41.4167 51.5725 41.8073 52.2756 Q42.1979 52.9787 42.1979 53.7756 Q42.1979 54.5256 41.8229 55.1428 Q41.4479 55.76 40.7135 56.1194 Q41.6667 56.3225 42.1901 56.9709 Q42.7135 57.6194 42.7135 58.6037 Q42.7135 59.9162 41.6901 60.8381 Q40.6667 61.76 39.0885 61.76 Q37.6823 61.76 36.7448 60.924 Q35.8073 60.0881 35.6823 58.76 Z" fill="#000000" fill-opacity="1.000000"/>
  <path d="M44.0417 58.76 L45.3073 58.76 Q45.4635 59.8069 45.9167 60.2834 Q46.3698 60.76 47.0885 60.76 Q47.6823 60.76 48.1432 60.4553 Q48.6042 60.1506 48.8932 59.6428 Q49.1823 59.135 49.3854 58.2834 Q49.5885 57.4319 49.5885 56.6037 Q49.5885 56.5256 49.5729 56.3537 Q49.1823 56.9787 48.4948 57.3694 Q47.8073 57.76 47.0104 57.76 Q45.6823 57.76 44.7604 56.8147 Q43.8385 55.8694 43.8385 54.3069 Q43.8385 52.7131 44.7995 51.7365 Q45.7604 50.76 47.2135 50.76 Q48.2604 50.76 49.1276 51.3225 Q49.9948 51.885 50.4479 52.9319 Q50.901 53.9787 50.901 55.9631 Q50.901 58.0412 50.4557 59.26 Q50.0104 60.4787 49.1276 61.1194 Q48.2448 61.76 47.0573 61.76 Q45.7917 61.76 44.9948 60.9709 Q44.1979 60.1819 44.0417 58.76 ZM49.4323 54.2912 Q49.4323 53.1194 48.8307 52.4397 Q48.2292 51.76 47.3698 51.76 Q46.4948 51.76 45.8464 52.4944 Q45.1979 53.2287 45.1979 54.4006 Q45.1979 55.4475 45.8151 56.1037 Q46.4323 56.76 47.3385 56.76 Q48.2604 56.76 48.8464 56.1037 Q49.4323 55.4475 49.4323 54.2912 Z" fill="#000000" fill-opacity="1.000000"/>
  <path d="M52.7292 54.76 L52.7292 53.76 L54.2292 53.76 L54.2292 54.76 L52.7292 54.76 ZM52.7292 61.76 L52.7292 60.76 L54.2292 60.76 L54.2292 61.76 L52.7292 61.76 Z" fill="#000000" fill-opacity="1.000000"/>
  <path d="M56.0729 56.26 Q56.0729 54.3537 56.4635 53.1897 Q56.8542 52.0256 57.6276 51.3928 Q58.401 50.76 59.5729 50.76 Q60.4323 50.76 61.0885 51.1115 Q61.7448 51.4631 62.1667 52.1194 Q62.5885 52.7756 62.8307 53.7209 Q63.0729 54.6662 63.0729 56.26 Q63.0729 58.1662 62.6823 59.3303 Q62.2917 60.4944 61.5182 61.1272 Q60.7448 61.76 59.5729 61.76 Q58.026 61.76 57.1354 60.6506 Q56.0729 59.2912 56.0729 56.26 ZM57.4323 56.26 Q57.4323 58.9631 58.0495 59.8615 Q58.6667 60.76 59.5729 60.76 Q60.4792 60.76 61.0964 59.8615 Q61.7135 58.9631 61.7135 56.26 Q61.7135 53.5412 61.0964 52.6506 Q60.4792 51.76 59.5573 51.76 Q58.651 51.76 58.1042 52.5412 Q57.4323 53.5569 57.4323 56.26 Z" fill="#000000" fill-opacity="1.000000"/>
  <path d="M64.2292 56.26 Q64.2292 54.3537 64.6198 53.1897 Q65.0104 52.0256 65.7839 51.3928 Q66.5573 50.76 67.7292 50.76 Q68.5885 50.76 69.2448 51.1115 Q69.901 51.4631 70.3229 52.1194 Q70.7448 52.7756 70.987 53.7209 Q71.2292 54.6662 71.2292 56.26 Q71.2292 58.1662 70.8385 59.3303 Q70.4479 60.4944 69.6745 61.1272 Q68.901 61.76 67.7292 61.76 Q66.1823 61.76 65.2917 60.6506 Q64.2292 59.2912 64.2292 56.26 ZM65.5885 56.26 Q65.5885 58.9631 66.2057 59.8615 Q66.8229 60.76 67.7292 60.76 Q68.6354 60.76 69.2526 59.8615 Q69.8698 58.9631 69.8698 56.26 Q69.8698 53.5412 69.2526 52.6506 Q68.6354 51.76 67.7135 51.76 Q66.8073 51.76 66.2604 52.5412 Q65.5885 53.5569 65.5885 56.26 Z" fill="#000000" fill-opacity="1.000000"/>
  <path d="M21.3542 19.6667 L20.026 19.6667 L20.026 11.0885 Q19.5573 11.5573 18.7839 12.0182 Q18.0104 12.4792 17.401 12.7135 L17.401 11.4167 Q18.5104 10.8854 19.3307 10.1276 Q20.151 9.36979 20.4948 8.66667 L21.3542 8.66667 L21.3542 19.6667 Z" fill="#000000" fill-opacity="1.000000"/>
  <path d="M28.9635 19.6667 L27.6354 19.6667 L27.6354 11.0885 Q27.1667 11.5573 26.3932 12.0182 Q25.6198 12.4792 25.0104 12.7135 L25.0104 11.4167 Q26.1198 10.8854 26.9401 10.1276 Q27.7604 9.36979 28.1042 8.66667 L28.9635 8.66667 L28.9635 19.6667 Z" fill="#000000" fill-opacity="1.000000"/>
  <path d="M32.3385 12.6667 L32.3385 11.6667 L33.8385 11.6667 L33.8385 12.6667 L32.3385 12.6667 ZM32.3385 19.6667 L32.3385 18.6667 L33.8385 18.6667 L33.8385 19.6667 L32.3385 19.6667 Z" fill="#000000" fill-opacity="1.000000"/>
  <path d="M40.651 19.6667 L39.3229 19.6667 L39.3229 11.0885 Q38.8542 11.5573 38.0807 12.0182 Q37.3073 12.4792 36.6979 12.7135 L36.6979 11.4167 Q37.8073 10.8854 38.6276 10.1276 Q39.4479 9.36979 39.7917 8.66667 L40.651 8.66667 L40.651 19.6667 Z" fill="#000000" fill-opacity="1.000000"/>
  <path d="M43.8385 16.6667 L45.2135 16.6667 Q45.3698 17.6667 45.9323 18.1667 Q46.4948 18.6667 47.276 18.6667 Q48.2292 18.6667 48.8932 17.9557 Q49.5573 17.2448 49.5573 16.0729 Q49.5573 14.9635 48.9245 14.3151 Q48.2917 13.6667 47.2604 13.6667 Q46.6198 13.6667 46.112 13.9479 Q45.6042 14.2292 45.3073 14.6667 L44.0729 14.6667 L45.1042 8.66667 L50.4479 8.66667 L50.4479 9.66667 L46.1667 9.66667 L45.5885 13.2448 Q46.5573 12.6667 47.6198 12.6667 Q49.0104 12.6667 49.9792 13.6042 Q50.9479 14.5417 50.9479 15.9948 Q50.9479 17.401 50.1042 18.4167 Q49.0729 19.6667 47.276 19.6667 Q45.8229 19.6667 44.8932 18.8464 Q43.9635 18.026 43.8385 16.6667 Z" fill="#000000" fill-opacity="1.000000"/>
  <path d="M52.7292 12.6667 L52.7292 11.6667 L54.2292 11.6667 L54.2292 12.6667 L52.7292 12.6667 ZM52.7292 19.6667 L52.7292 18.6667 L54.2292 18.6667 L54.2292 19.6667 L52.7292 19.6667 Z" fill="#000000" fill-opacity="1.000000"/>
  <path d="M56.0729 14.1667 Q56.0729 12.2604 56.4635 11.0964 Q56.8542 9.93229 57.6276 9.29948 Q58.401 8.66667 59.5729 8.66667 Q60.4323 8.66667 61.0885 9.01823 Q61.7448 9.36979 62.1667 10.026 Q62.5885 10.6823 62.8307 11.6276 Q63.0729 12.5729 63.0729 14.1667 Q63.0729 16.0729 62.6823 17.237 Q62.2917 18.401 61.5182 19.0339 Q60.7448 19.6667 59.5729 19.6667 Q58.026 19.6667 57.1354 18.5573 Q56.0729 17.1979 56.0729 14.1667 ZM57.4323 14.1667 Q57.4323 16.8698 58.0495 17.7682 Q58.6667 18.6667 59.5729 18.6667 Q60.4792 18.6667 61.0964 17.7682 Q61.7135 16.8698 61.7135 14.1667 Q61.7135 11.4479 61.0964 10.5573 Q60.4792 9.66667 59.5573 9.66667 Q58.651 9.66667 58.1042 10.4479 Q57.4323 11.4635 57.4323 14.1667 Z" fill="#000000" fill-opacity="1.000000"/>
  <path d="M64.2292 14.1667 Q64.2292 12.2604 64.6198 11.0964 Q65.0104 9.93229 65.7839 9.29948 Q66.5573 8.66667 67.7292 8.66667 Q68.5885 8.66667 69.2448 9.01823 Q69.901 9.36979 70.3229 10.026 Q70.7448 10.6823 70.987 11.6276 Q71.2292 12.5729 71.2292 14.1667 Q71.2292 16.0729 70.8385 17.237 Q70.4479 18.401 69.6745 19.0339 Q68.901 19.6667 67.7292 19.6667 Q66.1823 19.6667 65.2917 18.5573 Q64.2292 17.1979 64.2292 14.1667 ZM65.5885 14.1667 Q65.5885 16.8698 66.2057 17.7682 Q66.8229 18.6667 67.7292 18.6667 Q68.6354 18.6667 69.2526 17.7682 Q69.8698 16.8698 69.8698 14.1667 Q69.8698 11.4479 69.2526 10.5573 Q68.6354 9.66667 67.7135 9.66667 Q66.8073 9.66667 66.2604 10.4479 Q65.5885 11.4635 65.5885 14.1667 Z" fill="#000000" fill-opacity="1.000000"/>
  <path d="M314.805 435.6 L295.536 429.754 L140.959 423.907 L147.956 418.061 L180.524 412.215 L106.308 406.369 L100.905 400.522 L147.81 394.676 L191.883 388.83 L102.532 382.983 L156.709 377.137 L136.164 371.291 L253.968 365.444 L216.42 359.598 L166.614 353.752 L224.227 347.906 L157.113 342.059 L128.522 336.213 L104.999 330.367 L104.063 324.52 L104.181 318.674 L211.73 312.828 L622.1 306.981 L934.689 301.135 L919.962 295.289 L893.124 289.443 L528.191 283.596 L430.746 277.75 L247.327 271.904 L152.207 266.057 L118.698 260.211 L127.5 254.365 L116.79 248.519 L127.436 242.672 L233.127 236.826 L242.375 230.98 L246.123 225.133 L287.345 219.287 L268.396 213.441 L235.883 207.594 L251.292 201.748 L303.931 195.902 L385.371 190.056 L376.147 184.209 L429.698 178.363 L345.232 172.517 L307.55 166.67 L220.314 160.824 L265.678 154.978 L415.965 149.131 L444.823 143.285 L372.484 137.439 L357.496 131.593 L378.181 125.746 L416.551 119.9 L264.276 114.054 L214.835 108.207 L350.913 102.361 L262.373 96.5148 L163.571 90.6685 L173.889 84.8222 L276.283 78.9759 L200.196 73.1296 L192.077 67.2833 L176.892 61.437 L192.974 55.5907 L177.774 49.7444 L234.666 43.8981 L184.83 38.0519 L215.944 32.2056 L247.127 26.3593 L219.513 20.513 L164.186 14.6667 L83.4938 14.6667 L83.4938 20.513 L83.4938 26.3593 L83.4938 32.2056 L83.4938 38.0519 L83.4938 43.8981 L83.4938 49.7444 L83.4938 55.5907 L83.4938 61.437 L83.4938 67.2833 L83.4938 73.1296 L83.4938 78.9759 L83.4938 84.8222 L83.4938 90.6685 L83.4938 96.5148 L83.4938 102.361 L83.4938 108.207 L83.4938 114.054 L83.4938 119.9 L83.4938 125.746 L83.4938 131.593 L83.4938 137.439 L83.4938 143.285 L83.4938 149.131 L83.4938 154.978 L83.4938 160.824 L83.4938 166.67 L83.4938 172.517 L83.4938 178.363 L83.4938 184.209 L83.4938 190.056 L83.4938 195.902 L83.4938 201.748 L83.4938 207.594 L83.4938 213.441 L83.4938 219.287 L83.4938 225.133 L83.4938 230.98 L83.4938 236.826 L83.4938 242.672 L83.4938 248.519 L83.4938 254.365 L83.4938 260.211 L83.4938 266.057 L83.4938 271.904 L83.4938 277.75 L83.4938 283.596 L83.4938 289.443 L83.4938 295.289 L83.4938 301.135 L83.4938 306.981 L83.4938 312.828 L83.4938 318.674 L83.4938 324.52 L83.4938 330.367 L83.4938 336.213 L83.4938 342.059 L83.4938 347.906 L83.4938 353.752 L83.4938 359.598 L83.4938 365.444 L83.4938 371.291 L83.4938 377.137 L83.4938 382.983 L83.4938 388.83 L83.4938 394.676 L83.4938 400.522 L83.4938 406.369 L83.4938 412.215 L83.4938 418.061 L83.4938 423.907 L83.4938 429.754 L83.4938 435.6 Z" fill="#999999" fill-opacity="1.000000"/>
</svg>