<?xml version="1.0" encoding="UTF-8" ?>
<!-- Generated by clip v0.7.0 (clip-lang.org) -->
<svg xmlns="http://www.w3.org/2000/svg" width="1200.000000" height="480.000000">
  <rect width="1200.000000" height="480.000000" fill="#ffffff" fill-opacity="1.000000"/>
  <path d="M14.6667 44.4 L1185.33 44.4 " fill="none" stroke-width="1.333333" stroke="#000000ff"/>
  <path d="M14.6667 49.7333 L14.6667 44.4 " fill="none" stroke-width="1.333333" stroke="#000000ff"/>
  <path d="M131.733 49.7333 L131.733 44.4 " fill="none" stroke-width="1.333333" stroke="#000000ff"/>
  <path d="M248.8 49.7333 L248.8 44.4 " fill="none" stroke-width="1.333333" stroke="#000000ff"/>
  <path d="M365.867 49.7333 L365.867 44.4 " fill="none" stroke-width="1.333333" stroke="#000000ff"/>
  <path d="M482.933 49.7333 L482.933 44.4 " fill="none" stroke-width="1.333333" stroke="#000000ff"/>
  <path d="M600 49.7333 L600 44.4 " fill="none" stroke-width="1.333333" stroke="#000000ff"/>
  <path d="M717.067 49.7333 L717.067 44.4 " fill="none" stroke-width="1.333333" stroke="#000000ff"/>
  <path d="M834.133 49.7333 L834.133 44.4 " fill="none" stroke-width="1.333333" stroke="#000000ff"/>
  <path d="M951.2 49.7333 L951.2 44.4 " fill="none" stroke-width="1.333333" stroke="#000000ff"/>
  <path d="M1068.27 49.7333 L1068.27 44.4 " fill="none" stroke-width="1.333333" stroke="#000000ff"/>
  <path d="M1185.33 49.7333 L1185.33 44.4 " fill="none" stroke-width="1.333333" stroke="#000000ff"/>
  <path d="M5.09635 23.1667 Q5.09635 21.2604 5.48698 20.0964 Q5.8776 18.9323 6.65104 18.2995 Q7.42448 17.6667 8.59635 17.6667 Q9.45573 17.6667 10.112 18.0182 Q10.7682 18.3698 11.1901 19.026 Q11.612 19.6823 11.8542 20.6276 Q12.0964 21.5729 12.0964 23.1667 Q12.0964 25.0729 11.7057 26.237 Q11.3151 27.401 10.5417 28.0339 Q9.76823 28.6667 8.59635 28.6667 Q7.04948 28.6667 6.15885 27.5573 Q5.09635 26.1979 5.09635 23.1667 ZM6.45573 23.1667 Q6.45573 25.8698 7.07292 26.7682 Q7.6901 27.6667 8.59635 27.6667 Q9.5026 27.6667 10.1198 26.7682 Q10.737 25.8698 10.737 23.1667 Q10.737 20.4479 10.1198 19.5573 Q9.5026 18.6667 8.58073 18.6667 Q7.67448 18.6667 7.1276 19.4479 Q6.45573 20.4635 6.45573 23.1667 Z" fill="#000000" fill-opacity="1.000000"/>
  <path d="M13.987 28.6667 L13.987 27.6667 L15.487 27.6667 L15.487 28.6667 L13.987 28.6667 Z" fill="#000000" fill-opacity="1.000000"/>
  <path d="M17.3307 23.1667 Q17.3307 21.2604 17.7214 20.0964 Q18.112 18.9323 18.8854 18.2995 Q19.6589 17.6667 20.8307 17.6667 Q21.6901 17.6667 22.3464 18.0182 Q23.0026 18.3698 23.4245 19.026 Q23.8464 19.6823 24.0885 20.6276 Q24.3307 21.5729 24.3307 23.1667 Q24.3307 25.0729 23.9401 26.237 Q23.5495 27.401 22.776 28.0339 Q22.0026 28.6667 20.8307 28.6667 Q19.2839 28.6667 18.3932 27.5573 Q17.3307 26.1979 17.3307 23.1667 ZM18.6901 23.1667 Q18.6901 25.8698 19.3073 26.7682 Q19.9245 27.6667 20.8307 27.6667 Q21.737 27.6667 22.3542 26.7682 Q22.9714 25.8698 22.9714 23.1667 Q22.9714 20.4479 22.3542 19.5573 Q21.737 18.6667 20.8151 18.6667 Q19.9089 18.6667 19.362 19.4479 Q18.6901 20.4635 18.6901 23.1667 Z" fill="#000000" fill-opacity="1.000000"/>
  <path d="M122.163 23.1667 Q122.163 21.2604 122.554 20.0964 Q122.944 18.9323 123.718 18.2995 Q124.491 17.6667 125.663 17.6667 Q126.522 17.6667 127.179 18.0182 Q127.835 18.3698 128.257 19.026 Q128.679 19.6823 128.921 20.6276 Q129.163 21.5729 129.163 23.1667 Q129.163 25.0729 128.772 26.237 Q128.382 27.401 127.608 28.0339 Q126.835 28.6667 125.663 28.6667 Q124.116 28.6667 123.226 27.5573 Q122.163 26.1979 122.163 23.1667 ZM123.522 23.1667 Q123.522 25.8698 124.14 26.7682 Q124.757 27.6667 125.663 27.6667 Q126.569 27.6667 127.186 26.7682 Q127.804 25.8698 127.804 23.1667 Q127.804 20.4479 127.186 19.5573 Q126.569 18.6667 125.647 18.6667 Q124.741 18.6667 124.194 19.4479 Q123.522 20.4635 123.522 23.1667 Z" fill="#000000" fill-opacity="1.000000"/>
  <path d="M131.054 28.6667 L131.054 27.6667 L132.554 27.6667 L132.554 28.6667 L131.054 28.6667 Z" fill="#000000" fill-opacity="1.000000"/>
  <path d="M139.366 28.6667 L138.038 28.6667 L138.038 20.0885 Q137.569 20.5573 136.796 21.0182 Q136.022 21.4792 135.413 21.7135 L135.413 20.4167 Q136.522 19.8854 137.343 19.1276 Q138.163 18.3698 138.507 17.6667 L139.366 17.6667 L139.366 28.6667 Z" fill="#000000" fill-opacity="1.000000"/>
  <path d="M239.23 23.1667 Q239.23 21.2604 239.62 20.0964 Q240.011 18.9323 240.784 18.2995 Q241.558 17.6667 242.73 17.6667 Q243.589 17.6667 244.245 18.0182 Q244.902 18.3698 245.323 19.026 Q245.745 19.6823 245.988 20.6276 Q246.23 21.5729 246.23 23.1667 Q246.23 25.0729 245.839 26.237 Q245.448 27.401 244.675 28.0339 Q243.902 28.6667 242.73 28.6667 Q241.183 28.6667 240.292 27.5573 Q239.23 26.1979 239.23 23.1667 ZM240.589 23.1667 Q240.589 25.8698 241.206 26.7682 Q241.823 27.6667 242.73 27.6667 Q243.636 27.6667 244.253 26.7682 Q244.87 25.8698 244.87 23.1667 Q244.87 20.4479 244.253 19.5573 Q243.636 18.6667 242.714 18.6667 Q241.808 18.6667 241.261 19.4479 Q240.589 20.4635 240.589 23.1667 Z" fill="#000000" fill-opacity="1.000000"/>
  <path d="M248.12 28.6667 L248.12 27.6667 L249.62 27.6667 L249.62 28.6667 L248.12 28.6667 Z" fill="#000000" fill-opacity="1.000000"/>
  <path d="M258.386 27.6667 L258.386 28.6667 L251.292 28.6667 Q251.277 28.276 251.448 27.901 Q251.714 27.2917 252.316 26.7057 Q252.917 26.1198 254.042 25.0573 Q255.792 23.401 256.409 22.4714 Q257.027 21.5417 257.027 20.7292 Q257.027 19.8542 256.464 19.2604 Q255.902 18.6667 255.011 18.6667 Q254.058 18.6667 253.48 19.1979 Q252.902 19.7292 252.902 20.6667 L251.542 20.6667 Q251.683 19.1979 252.589 18.4323 Q253.495 17.6667 255.027 17.6667 Q256.573 17.6667 257.472 18.5573 Q258.37 19.4479 258.37 20.776 Q258.37 21.4479 258.105 22.0964 Q257.839 22.7448 257.23 23.4635 Q256.62 24.1823 255.198 25.4635 Q254.011 26.526 253.675 26.901 Q253.339 27.276 253.12 27.6667 L258.386 27.6667 Z" fill="#000000" fill-opacity="1.000000"/>
  <path d="M356.296 23.1667 Q356.296 21.2604 356.687 20.0964 Q357.078 18.9323 357.851 18.2995 Q358.624 17.6667 359.796 17.6667 Q360.656 17.6667 361.312 18.0182 Q361.968 18.3698 362.39 19.026 Q362.812 19.6823 363.054 20.6276 Q363.296 21.5729 363.296 23.1667 Q363.296 25.0729 362.906 26.237 Q362.515 27.401 361.742 28.0339 Q360.968 28.6667 359.796 28.6667 Q358.249 28.6667 357.359 27.5573 Q356.296 26.1979 356.296 23.1667 ZM357.656 23.1667 Q357.656 25.8698 358.273 26.7682 Q358.89 27.6667 359.796 27.6667 Q360.703 27.6667 361.32 26.7682 Q361.937 25.8698 361.937 23.1667 Q361.937 20.4479 361.32 19.5573 Q360.703 18.6667 359.781 18.6667 Q358.874 18.6667 358.328 19.4479 Q357.656 20.4635 357.656 23.1667 Z" fill="#000000" fill-opacity="1.000000"/>
  <path d="M365.187 28.6667 L365.187 27.6667 L366.687 27.6667 L366.687 28.6667 L365.187 28.6667 Z" fill="#000000" fill-opacity="1.000000"/>
  <path d="M368.531 25.6667 L369.859 25.6667 Q370.093 26.7292 370.632 27.1979 Q371.171 27.6667 371.953 27.6667 Q372.89 27.6667 373.531 27.0495 Q374.171 26.4323 374.171 25.526 Q374.171 24.651 373.578 24.0807 Q372.984 23.5104 372.062 23.5104 Q371.687 23.5104 371.14 23.6667 L371.281 22.6667 Q371.421 22.6823 371.499 22.6823 Q372.343 22.6823 373.015 22.1745 Q373.687 21.6667 373.687 20.6042 Q373.687 19.776 373.195 19.2214 Q372.703 18.6667 371.921 18.6667 Q371.156 18.6667 370.64 19.1667 Q370.124 19.6667 369.984 20.6667 L368.671 20.6667 Q368.906 19.2448 369.765 18.4557 Q370.624 17.6667 371.906 17.6667 Q372.781 17.6667 373.523 18.0729 Q374.265 18.4792 374.656 19.1823 Q375.046 19.8854 375.046 20.6823 Q375.046 21.4323 374.671 22.0495 Q374.296 22.6667 373.562 23.026 Q374.515 23.2292 375.039 23.8776 Q375.562 24.526 375.562 25.5104 Q375.562 26.8229 374.539 27.7448 Q373.515 28.6667 371.937 28.6667 Q370.531 28.6667 369.593 27.8307 Q368.656 26.9948 368.531 25.6667 Z" fill="#000000" fill-opacity="1.000000"/>
  <path d="M473.363 23.1667 Q473.363 21.2604 473.754 20.0964 Q474.144 18.9323 474.918 18.2995 Q475.691 17.6667 476.863 17.6667 Q477.722 17.6667 478.379 18.0182 Q479.035 18.3698 479.457 19.026 Q479.879 19.6823 480.121 20.6276 Q480.363 21.5729 480.363 23.1667 Q480.363 25.0729 479.972 26.237 Q479.582 27.401 478.808 28.0339 Q478.035 28.6667 476.863 28.6667 Q475.316 28.6667 474.426 27.5573 Q473.363 26.1979 473.363 23.1667 ZM474.722 23.1667 Q474.722 25.8698 475.34 26.7682 Q475.957 27.6667 476.863 27.6667 Q477.769 27.6667 478.386 26.7682 Q479.004 25.8698 479.004 23.1667 Q479.004 20.4479 478.386 19.5573 Q477.769 18.6667 476.847 18.6667 Q475.941 18.6667 475.394 19.4479 Q474.722 20.4635 474.722 23.1667 Z" fill="#000000" fill-opacity="1.000000"/>
  <path d="M482.254 28.6667 L482.254 27.6667 L483.754 27.6667 L483.754 28.6667 L482.254 28.6667 Z" fill="#000000" fill-opacity="1.000000"/>
  <path d="M489.816 28.6667 L489.816 25.6667 L485.16 25.6667 L485.16 24.6667 L490.066 17.6667 L491.144 17.6667 L491.144 24.6667 L492.597 24.6667 L492.597 25.6667 L491.144 25.6667 L491.144 28.6667 L489.816 28.6667 ZM489.816 24.6667 L489.816 19.8698 L486.457 24.6667 L489.816 24.6667 Z" fill="#000000" fill-opacity="1.000000"/>
  <path d="M590.43 23.1667 Q590.43 21.2604 590.82 20.0964 Q591.211 18.9323 591.984 18.2995 Q592.758 17.6667 593.93 17.6667 Q594.789 17.6667 595.445 18.0182 Q596.102 18.3698 596.523 19.026 Q596.945 19.6823 597.188 20.6276 Q597.43 21.5729 597.43 23.1667 Q597.43 25.0729 597.039 26.237 Q596.648 27.401 595.875 28.0339 Q595.102 28.6667 593.93 28.6667 Q592.383 28.6667 591.492 27.5573 Q590.43 26.1979 590.43 23.1667 ZM591.789 23.1667 Q591.789 25.8698 592.406 26.7682 Q593.023 27.6667 593.93 27.6667 Q594.836 27.6667 595.453 26.7682 Q596.07 25.8698 596.07 23.1667 Q596.07 20.4479 595.453 19.5573 Q594.836 18.6667 593.914 18.6667 Q593.008 18.6667 592.461 19.4479 Q591.789 20.4635 591.789 23.1667 Z" fill="#000000" fill-opacity="1.000000"/>
  <path d="M599.32 28.6667 L599.32 27.6667 L600.82 27.6667 L600.82 28.6667 L599.32 28.6667 Z" fill="#000000" fill-opacity="1.000000"/>
  <path d="M602.664 25.6667 L604.039 25.6667 Q604.195 26.6667 604.758 27.1667 Q605.32 27.6667 606.102 27.6667 Q607.055 27.6667 607.719 26.9557 Q608.383 26.2448 608.383 25.0729 Q608.383 23.9635 607.75 23.3151 Q607.117 22.6667 606.086 22.6667 Q605.445 22.6667 604.938 22.9479 Q604.43 23.2292 604.133 23.6667 L602.898 23.6667 L603.93 17.6667 L609.273 17.6667 L609.273 18.6667 L604.992 18.6667 L604.414 22.2448 Q605.383 21.6667 606.445 21.6667 Q607.836 21.6667 608.805 22.6042 Q609.773 23.5417 609.773 24.9948 Q609.773 26.401 608.93 27.4167 Q607.898 28.6667 606.102 28.6667 Q604.648 28.6667 603.719 27.8464 Q602.789 27.026 602.664 25.6667 Z" fill="#000000" fill-opacity="1.000000"/>
  <path d="M707.496 23.1667 Q707.496 21.2604 707.887 20.0964 Q708.278 18.9323 709.051 18.2995 Q709.825 17.6667 710.996 17.6667 Q711.856 17.6667 712.512 18.0182 Q713.168 18.3698 713.59 19.026 Q714.012 19.6823 714.254 20.6276 Q714.496 21.5729 714.496 23.1667 Q714.496 25.0729 714.106 26.237 Q713.715 27.401 712.942 28.0339 Q712.168 28.6667 710.996 28.6667 Q709.45 28.6667 708.559 27.5573 Q707.496 26.1979 707.496 23.1667 ZM708.856 23.1667 Q708.856 25.8698 709.473 26.7682 Q710.09 27.6667 710.996 27.6667 Q711.903 27.6667 712.52 26.7682 Q713.137 25.8698 713.137 23.1667 Q713.137 20.4479 712.52 19.5573 Q711.903 18.6667 710.981 18.6667 Q710.075 18.6667 709.528 19.4479 Q708.856 20.4635 708.856 23.1667 Z" fill="#000000" fill-opacity="1.000000"/>
  <path d="M716.387 28.6667 L716.387 27.6667 L717.887 27.6667 L717.887 28.6667 L716.387 28.6667 Z" fill="#000000" fill-opacity="1.000000"/>
  <path d="M726.575 20.6667 L725.262 20.6667 Q725.09 19.7448 724.762 19.3385 Q724.231 18.6667 723.45 18.6667 Q722.809 18.6667 722.34 19.0573 Q721.715 19.5573 721.356 20.5104 Q720.996 21.4635 720.981 23.1042 Q721.45 22.3698 722.145 22.0182 Q722.84 21.6667 723.59 21.6667 Q724.903 21.6667 725.832 22.6198 Q726.762 23.5729 726.762 25.0729 Q726.762 26.0573 726.325 26.9089 Q725.887 27.7604 725.129 28.2135 Q724.371 28.6667 723.403 28.6667 Q721.746 28.6667 720.707 27.4479 Q719.668 26.2292 719.668 23.4479 Q719.668 20.3229 720.825 18.901 Q721.825 17.6667 723.528 17.6667 Q724.793 17.6667 725.606 18.4635 Q726.418 19.2604 726.575 20.6667 ZM721.184 25.0417 Q721.184 25.7292 721.473 26.362 Q721.762 26.9948 722.285 27.3307 Q722.809 27.6667 723.371 27.6667 Q724.215 27.6667 724.817 26.9792 Q725.418 26.2917 725.418 25.1042 Q725.418 23.9792 724.825 23.3229 Q724.231 22.6667 723.325 22.6667 Q722.434 22.6667 721.809 23.3229 Q721.184 23.9792 721.184 25.0417 Z" fill="#000000" fill-opacity="1.000000"/>
  <path d="M824.563 23.1667 Q824.563 21.2604 824.954 20.0964 Q825.344 18.9323 826.118 18.2995 Q826.891 17.6667 828.063 17.6667 Q828.922 17.6667 829.579 18.0182 Q830.235 18.3698 830.657 19.026 Q831.079 19.6823 831.321 20.6276 Q831.563 21.5729 831.563 23.1667 Q831.563 25.0729 831.172 26.237 Q830.782 27.401 830.008 28.0339 Q829.235 28.6667 828.063 28.6667 Q826.516 28.6667 825.626 27.5573 Q824.563 26.1979 824.563 23.1667 ZM825.922 23.1667 Q825.922 25.8698 826.54 26.7682 Q827.157 27.6667 828.063 27.6667 Q828.969 27.6667 829.586 26.7682 Q830.204 25.8698 830.204 23.1667 Q830.204 20.4479 829.586 19.5573 Q828.969 18.6667 828.047 18.6667 Q827.141 18.6667 826.594 19.4479 Q825.922 20.4635 825.922 23.1667 Z" fill="#000000" fill-opacity="1.000000"/>
  <path d="M833.454 28.6667 L833.454 27.6667 L834.954 27.6667 L834.954 28.6667 L833.454 28.6667 Z" fill="#000000" fill-opacity="1.000000"/>
  <path d="M836.876 18.6667 L836.876 17.6667 L843.829 17.6667 L843.829 18.4792 Q842.813 19.5729 841.805 21.5104 Q840.797 23.4479 840.235 25.4948 Q839.844 26.9479 839.735 28.6667 L838.391 28.6667 Q838.407 27.3073 838.883 25.3854 Q839.36 23.4635 840.251 21.6745 Q841.141 19.8854 842.141 18.6667 L836.876 18.6667 Z" fill="#000000" fill-opacity="1.000000"/>
  <path d="M941.63 23.1667 Q941.63 21.2604 942.02 20.0964 Q942.411 18.9323 943.184 18.2995 Q943.958 17.6667 945.13 17.6667 Q945.989 17.6667 946.645 18.0182 Q947.302 18.3698 947.723 19.026 Q948.145 19.6823 948.388 20.6276 Q948.63 21.5729 948.63 23.1667 Q948.63 25.0729 948.239 26.237 Q947.848 27.401 947.075 28.0339 Q946.302 28.6667 945.13 28.6667 Q943.583 28.6667 942.692 27.5573 Q941.63 26.1979 941.63 23.1667 ZM942.989 23.1667 Q942.989 25.8698 943.606 26.7682 Q944.223 27.6667 945.13 27.6667 Q946.036 27.6667 946.653 26.7682 Q947.27 25.8698 947.27 23.1667 Q947.27 20.4479 946.653 19.5573 Q946.036 18.6667 945.114 18.6667 Q944.208 18.6667 943.661 19.4479 Q942.989 20.4635 942.989 23.1667 Z" fill="#000000" fill-opacity="1.000000"/>
  <path d="M950.52 28.6667 L950.52 27.6667 L952.02 27.6667 L952.02 28.6667 L950.52 28.6667 Z" fill="#000000" fill-opacity="1.000000"/>
  <path d="M955.895 23.1354 Q955.083 22.8073 954.684 22.1901 Q954.286 21.5729 954.286 20.7135 Q954.286 19.4323 955.13 18.5495 Q955.973 17.6667 957.364 17.6667 Q958.77 17.6667 959.63 18.5651 Q960.489 19.4635 960.489 20.7604 Q960.489 21.5885 960.091 22.1979 Q959.692 22.8073 958.895 23.1354 Q959.895 23.4323 960.411 24.0964 Q960.927 24.7604 960.927 25.6667 Q960.927 26.9323 959.95 27.7995 Q958.973 28.6667 957.395 28.6667 Q955.802 28.6667 954.825 27.7995 Q953.848 26.9323 953.848 25.6354 Q953.848 24.6667 954.38 24.0182 Q954.911 23.3698 955.895 23.1354 ZM955.63 20.6198 Q955.63 21.526 956.122 22.0964 Q956.614 22.6667 957.395 22.6667 Q958.161 22.6667 958.645 22.0964 Q959.13 21.526 959.13 20.6979 Q959.13 19.8385 958.63 19.2526 Q958.13 18.6667 957.38 18.6667 Q956.63 18.6667 956.13 19.237 Q955.63 19.8073 955.63 20.6198 ZM955.208 25.651 Q955.208 26.1667 955.473 26.651 Q955.739 27.1354 956.263 27.401 Q956.786 27.6667 957.395 27.6667 Q958.333 27.6667 958.95 27.1042 Q959.567 26.5417 959.567 25.6823 Q959.567 24.8073 958.934 24.237 Q958.302 23.6667 957.348 23.6667 Q956.427 23.6667 955.817 24.2292 Q955.208 24.7917 955.208 25.651 Z" fill="#000000" fill-opacity="1.000000"/>
  <path d="M1058.7 23.1667 Q1058.7 21.2604 1059.09 20.0964 Q1059.48 18.9323 1060.25 18.2995 Q1061.02 17.6667 1062.2 17.6667 Q1063.06 17.6667 1063.71 18.0182 Q1064.37 18.3698 1064.79 19.026 Q1065.21 19.6823 1065.45 20.6276 Q1065.7 21.5729 1065.7 23.1667 Q1065.7 25.0729 1065.31 26.237 Q1064.92 27.401 1064.14 28.0339 Q1063.37 28.6667 1062.2 28.6667 Q1060.65 28.6667 1059.76 27.5573 Q1058.7 26.1979 1058.7 23.1667 ZM1060.06 23.1667 Q1060.06 25.8698 1060.67 26.7682 Q1061.29 27.6667 1062.2 27.6667 Q1063.1 27.6667 1063.72 26.7682 Q1064.34 25.8698 1064.34 23.1667 Q1064.34 20.4479 1063.72 19.5573 Q1063.1 18.6667 1062.18 18.6667 Q1061.27 18.6667 1060.73 19.4479 Q1060.06 20.4635 1060.06 23.1667 Z" fill="#000000" fill-opacity="1.000000"/>
  <path d="M1067.59 28.6667 L1067.59 27.6667 L1069.09 27.6667 L1069.09 28.6667 L1067.59 28.6667 Z" fill="#000000" fill-opacity="1.000000"/>
  <path d="M1071.13 25.6667 L1072.4 25.6667 Q1072.56 26.7135 1073.01 27.1901 Q1073.46 27.6667 1074.18 27.6667 Q1074.77 27.6667 1075.24 27.362 Q1075.7 27.0573 1075.99 26.5495 Q1076.27 26.0417 1076.48 25.1901 Q1076.68 24.3385 1076.68 23.5104 Q1076.68 23.4323 1076.67 23.2604 Q1076.27 23.8854 1075.59 24.276 Q1074.9 24.6667 1074.1 24.6667 Q1072.77 24.6667 1071.85 23.7214 Q1070.93 22.776 1070.93 21.2135 Q1070.93 19.6198 1071.89 18.6432 Q1072.85 17.6667 1074.31 17.6667 Q1075.35 17.6667 1076.22 18.2292 Q1077.09 18.7917 1077.54 19.8385 Q1077.99 20.8854 1077.99 22.8698 Q1077.99 24.9479 1077.55 26.1667 Q1077.1 27.3854 1076.22 28.026 Q1075.34 28.6667 1074.15 28.6667 Q1072.88 28.6667 1072.09 27.8776 Q1071.29 27.0885 1071.13 25.6667 ZM1076.52 21.1979 Q1076.52 20.026 1075.92 19.3464 Q1075.32 18.6667 1074.46 18.6667 Q1073.59 18.6667 1072.94 19.401 Q1072.29 20.1354 1072.29 21.3073 Q1072.29 22.3542 1072.91 23.0104 Q1073.52 23.6667 1074.43 23.6667 Q1075.35 23.6667 1075.94 23.0104 Q1076.52 22.3542 1076.52 21.1979 Z" fill="#000000" fill-opacity="1.000000"/>
  <path d="M1180.73 28.6667 L1179.4 28.6667 L1179.4 20.0885 Q1178.93 20.5573 1178.16 21.0182 Q1177.39 21.4792 1176.78 21.7135 L1176.78 20.4167 Q1177.89 19.8854 1178.71 19.1276 Q1179.53 18.3698 1179.87 17.6667 L1180.73 17.6667 L1180.73 28.6667 Z" fill="#000000" fill-opacity="1.000000"/>
  <path d="M1184.65 28.6667 L1184.65 27.6667 L1186.15 27.6667 L1186.15 28.6667 L1184.65 28.6667 Z" fill="#000000" fill-opacity="1.000000"/>
  <path d="M1188 23.1667 Q1188 21.2604 1188.39 20.0964 Q1188.78 18.9323 1189.55 18.2995 Q1190.33 17.6667 1191.5 17.6667 Q1192.36 17.6667 1193.01 18.0182 Q1193.67 18.3698 1194.09 19.026 Q1194.51 19.6823 1194.76 20.6276 Q1195 21.5729 1195 23.1667 Q1195 25.0729 1194.61 26.237 Q1194.22 27.401 1193.44 28.0339 Q1192.67 28.6667 1191.5 28.6667 Q1189.95 28.6667 1189.06 27.5573 Q1188 26.1979 1188 23.1667 ZM1189.36 23.1667 Q1189.36 25.8698 1189.97 26.7682 Q1190.59 27.6667 1191.5 27.6667 Q1192.4 27.6667 1193.02 26.7682 Q1193.64 25.8698 1193.64 23.1667 Q1193.64 20.4479 1193.02 19.5573 Q1192.4 18.6667 1191.48 18.6667 Q1190.58 18.6667 1190.03 19.4479 Q1189.36 20.4635 1189.36 23.1667 Z" fill="#000000" fill-opacity="1.000000"/>
  <path d="M14.6667 435.6 L1185.33 435.6 " fill="none" stroke-width="1.333333" stroke="#000000ff"/>
  <path d="M14.6667 435.6 L14.6667 430.267 " fill="none" stroke-width="1.333333" stroke="#000000ff"/>
  <path d="M131.733 435.6 L131.733 430.267 " fill="none" stroke-width="1.333333" stroke="#000000ff"/>
  <path d="M248.8 435.6 L248.8 430.267 " fill="none" stroke-width="1.333333" stroke="#000000ff"/>
  <path d="M365.867 435.6 L365.867 430.267 " fill="none" stroke-width="1.333333" stroke="#000000ff"/>
  <path d="M482.933 435.6 L482.933 430.267 " fill="none" stroke-width="1.333333" stroke="#000000ff"/>
  <path d="M600 435.6 L600 430.267 " fill="none" stroke-width="1.333333" stroke="#000000ff"/>
  <path d="M717.067 435.6 L717.067 430.267 " fill="none" stroke-width="1.333333" stroke="#000000ff"/>
  <path d="M834.133 435.6 L834.133 430.267 " fill="none" stroke-width="1.333333" stroke="#000000ff"/>
  <path d="M951.2 435.6 L951.2 430.267 " fill="none" stroke-width="1.333333" stroke="#000000ff"/>
  <path d="M1068.27 435.6 L1068.27 430.267 " fill="none" stroke-width="1.333333" stroke="#000000ff"/>
  <path d="M1185.33 435.6 L1185.33 430.267 " fill="none" stroke-width="1.333333" stroke="#000000ff"/>
  <path d="M5.09635 455.833 Q5.09635 453.927 5.48698 452.763 Q5.8776 451.599 6.65104 450.966 Q7.42448 450.333 8.59635 450.333 Q9.45573 450.333 10.112 450.685 Q10.7682 451.036 11.1901 451.693 Q11.612 452.349 11.8542 453.294 Q12.0964 454.24 12.0964 455.833 Q12.0964 457.74 11.7057 458.904 Q11.3151 460.068 10.5417 460.701 Q9.76823 461.333 8.59635 461.333 Q7.04948 461.333 6.15885 460.224 Q5.09635 458.865 5.09635 455.833 ZM6.45573 455.833 Q6.45573 458.536 7.07292 459.435 Q7.6901 460.333 8.59635 460.333 Q9.5026 460.333 10.1198 459.435 Q10.737 458.536 10.737 455.833 Q10.737 453.115 10.1198 452.224 Q9.5026 451.333 8.58073 451.333 Q7.67448 451.333 7.1276 452.115 Q6.45573 453.13 6.45573 455.833 Z" fill="#000000" fill-opacity="1.000000"/>
  <path d="M13.987 461.333 L13.987 460.333 L15.487 460.333 L15.487 461.333 L13.987 461.333 Z" fill="#000000" fill-opacity="1.000000"/>
  <path d="M17.3307 455.833 Q17.3307 453.927 17.7214 452.763 Q18.112 451.599 18.8854 450.966 Q19.6589 450.333 20.8307 450.333 Q21.6901 450.333 22.3464 450.685 Q23.0026 451.036 23.4245 451.693 Q23.8464 452.349 24.0885 453.294 Q24.3307 454.24 24.3307 455.833 Q24.3307 457.74 23.9401 458.904 Q23.5495 460.068 22.776 460.701 Q22.0026 461.333 20.8307 461.333 Q19.2839 461.333 18.3932 460.224 Q17.3307 458.865 17.3307 455.833 ZM18.6901 455.833 Q18.6901 458.536 19.3073 459.435 Q19.9245 460.333 20.8307 460.333 Q21.737 460.333 22.3542 459.435 Q22.9714 458.536 22.9714 455.833 Q22.9714 453.115 22.3542 452.224 Q21.737 451.333 20.8151 451.333 Q19.9089 451.333 19.362 452.115 Q18.6901 453.13 18.6901 455.833 Z" fill="#000000" fill-opacity="1.000000"/>
  <path d="M122.163 455.833 Q122.163 453.927 122.554 452.763 Q122.944 451.599 123.718 450.966 Q124.491 450.333 125.663 450.333 Q126.522 450.333 127.179 450.685 Q127.835 451.036 128.257 451.693 Q128.679 452.349 128.921 453.294 Q129.163 454.24 129.163 455.833 Q129.163 457.74 128.772 458.904 Q128.382 460.068 127.608 460.701 Q126.835 461.333 125.663 461.333 Q124.116 461.333 123.226 460.224 Q122.163 458.865 122.163 455.833 ZM123.522 455.833 Q123.522 458.536 124.14 459.435 Q124.757 460.333 125.663 460.333 Q126.569 460.333 127.186 459.435 Q127.804 458.536 127.804 455.833 Q127.804 453.115 127.186 452.224 Q126.569 451.333 125.647 451.333 Q124.741 451.333 124.194 452.115 Q123.522 453.13 123.522 455.833 Z" fill="#000000" fill-opacity="1.000000"/>
  <path d="M131.054 461.333 L131.054 460.333 L132.554 460.333 L132.554 461.333 L131.054 461.333 Z" fill="#000000" fill-opacity="1.000000"/>
  <path d="M139.366 461.333 L138.038 461.333 L138.038 452.755 Q137.569 453.224 136.796 453.685 Q136.022 454.146 135.413 454.38 L135.413 453.083 Q136.522 452.552 137.343 451.794 Q138.163 451.036 138.507 450.333 L139.366 450.333 L139.366 461.333 Z" fill="#000000" fill-opacity="1.000000"/>
  <path d="M239.23 455.833 Q239.23 453.927 239.62 452.763 Q240.011 451.599 240.784 450.966 Q241.558 450.333 242.73 450.333 Q243.589 450.333 244.245 450.685 Q244.902 451.036 245.323 451.693 Q245.745 452.349 245.988 453.294 Q246.23 454.24 246.23 455.833 Q246.23 457.74 245.839 458.904 Q245.448 460.068 244.675 460.701 Q243.902 461.333 242.73 461.333 Q241.183 461.333 240.292 460.224 Q239.23 458.865 239.23 455.833 ZM240.589 455.833 Q240.589 458.536 241.206 459.435 Q241.823 460.333 242.73 460.333 Q243.636 460.333 244.253 459.435 Q244.87 458.536 244.87 455.833 Q244.87 453.115 244.253 452.224 Q243.636 451.333 242.714 451.333 Q241.808 451.333 241.261 452.115 Q240.589 453.13 240.589 455.833 Z" fill="#000000" fill-opacity="1.000000"/>
  <path d="M248.12 461.333 L248.12 460.333 L249.62 460.333 L249.62 461.333 L248.12 461.333 Z" fill="#000000" fill-opacity="1.000000"/>
  <path d="M258.386 460.333 L258.386 461.333 L251.292 461.333 Q251.277 460.943 251.448 460.568 Q251.714 459.958 252.316 459.372 Q252.917 458.786 254.042 457.724 Q255.792 456.068 256.409 455.138 Q257.027 454.208 257.027 453.396 Q257.027 452.521 256.464 451.927 Q255.902 451.333 255.011 451.333 Q254.058 451.333 253.48 451.865 Q252.902 452.396 252.902 453.333 L251.542 453.333 Q251.683 451.865 252.589 451.099 Q253.495 450.333 255.027 450.333 Q256.573 450.333 257.472 451.224 Q258.37 452.115 258.37 453.443 Q258.37 454.115 258.105 454.763 Q257.839 455.411 257.23 456.13 Q256.62 456.849 255.198 458.13 Q254.011 459.193 253.675 459.568 Q253.339 459.943 253.12 460.333 L258.386 460.333 Z" fill="#000000" fill-opacity="1.000000"/>
  <path d="M356.296 455.833 Q356.296 453.927 356.687 452.763 Q357.078 451.599 357.851 450.966 Q358.624 450.333 359.796 450.333 Q360.656 450.333 361.312 450.685 Q361.968 451.036 362.39 451.693 Q362.812 452.349 363.054 453.294 Q363.296 454.24 363.296 455.833 Q363.296 457.74 362.906 458.904 Q362.515 460.068 361.742 460.701 Q360.968 461.333 359.796 461.333 Q358.249 461.333 357.359 460.224 Q356.296 458.865 356.296 455.833 ZM357.656 455.833 Q357.656 458.536 358.273 459.435 Q358.89 460.333 359.796 460.333 Q360.703 460.333 361.32 459.435 Q361.937 458.536 361.937 455.833 Q361.937 453.115 361.32 452.224 Q360.703 451.333 359.781 451.333 Q358.874 451.333 358.328 452.115 Q357.656 453.13 357.656 455.833 Z" fill="#000000" fill-opacity="1.000000"/>
  <path d="M365.187 461.333 L365.187 460.333 L366.687 460.333 L366.687 461.333 L365.187 461.333 Z" fill="#000000" fill-opacity="1.000000"/>
  <path d="M368.531 458.333 L369.859 458.333 Q370.093 459.396 370.632 459.865 Q371.171 460.333 371.953 460.333 Q372.89 460.333 373.531 459.716 Q374.171 459.099 374.171 458.193 Q374.171 457.318 373.578 456.747 Q372.984 456.177 372.062 456.177 Q371.687 456.177 371.14 456.333 L371.281 455.333 Q371.421 455.349 371.499 455.349 Q372.343 455.349 373.015 454.841 Q373.687 454.333 373.687 453.271 Q373.687 452.443 373.195 451.888 Q372.703 451.333 371.921 451.333 Q371.156 451.333 370.64 451.833 Q370.124 452.333 369.984 453.333 L368.671 453.333 Q368.906 451.911 369.765 451.122 Q370.624 450.333 371.906 450.333 Q372.781 450.333 373.523 450.74 Q374.265 451.146 374.656 451.849 Q375.046 452.552 375.046 453.349 Q375.046 454.099 374.671 454.716 Q374.296 455.333 373.562 455.693 Q374.515 455.896 375.039 456.544 Q375.562 457.193 375.562 458.177 Q375.562 459.49 374.539 460.411 Q373.515 461.333 371.937 461.333 Q370.531 461.333 369.593 460.497 Q368.656 459.661 368.531 458.333 Z" fill="#000000" fill-opacity="1.000000"/>
  <path d="M473.363 455.833 Q473.363 453.927 473.754 452.763 Q474.144 451.599 474.918 450.966 Q475.691 450.333 476.863 450.333 Q477.722 450.333 478.379 450.685 Q479.035 451.036 479.457 451.693 Q479.879 452.349 480.121 453.294 Q480.363 454.24 480.363 455.833 Q480.363 457.74 479.972 458.904 Q479.582 460.068 478.808 460.701 Q478.035 461.333 476.863 461.333 Q475.316 461.333 474.426 460.224 Q473.363 458.865 473.363 455.833 ZM474.722 455.833 Q474.722 458.536 475.34 459.435 Q475.957 460.333 476.863 460.333 Q477.769 460.333 478.386 459.435 Q479.004 458.536 479.004 455.833 Q479.004 453.115 478.386 452.224 Q477.769 451.333 476.847 451.333 Q475.941 451.333 475.394 452.115 Q474.722 453.13 474.722 455.833 Z" fill="#000000" fill-opacity="1.000000"/>
  <path d="M482.254 461.333 L482.254 460.333 L483.754 460.333 L483.754 461.333 L482.254 461.333 Z" fill="#000000" fill-opacity="1.000000"/>
  <path d="M489.816 461.333 L489.816 458.333 L485.16 458.333 L485.16 457.333 L490.066 450.333 L491.144 450.333 L491.144 457.333 L492.597 457.333 L492.597 458.333 L491.144 458.333 L491.144 461.333 L489.816 461.333 ZM489.816 457.333 L489.816 452.536 L486.457 457.333 L489.816 457.333 Z" fill="#000000" fill-opacity="1.000000"/>
  <path d="M590.43 455.833 Q590.43 453.927 590.82 452.763 Q591.211 451.599 591.984 450.966 Q592.758 450.333 593.93 450.333 Q594.789 450.333 595.445 450.685 Q596.102 451.036 596.523 451.693 Q596.945 452.349 597.188 453.294 Q597.43 454.24 597.43 455.833 Q597.43 457.74 597.039 458.904 Q596.648 460.068 595.875 460.701 Q595.102 461.333 593.93 461.333 Q592.383 461.333 591.492 460.224 Q590.43 458.865 590.43 455.833 ZM591.789 455.833 Q591.789 458.536 592.406 459.435 Q593.023 460.333 593.93 460.333 Q594.836 460.333 595.453 459.435 Q596.07 458.536 596.07 455.833 Q596.07 453.115 595.453 452.224 Q594.836 451.333 593.914 451.333 Q593.008 451.333 592.461 452.115 Q591.789 453.13 591.789 455.833 Z" fill="#000000" fill-opacity="1.000000"/>
  <path d="M599.32 461.333 L599.32 460.333 L600.82 460.333 L600.82 461.333 L599.32 461.333 Z" fill="#000000" fill-opacity="1.000000"/>
  <path d="M602.664 458.333 L604.039 458.333 Q604.195 459.333 604.758 459.833 Q605.32 460.333 606.102 460.333 Q607.055 460.333 607.719 459.622 Q608.383 458.911 608.383 457.74 Q608.383 456.63 607.75 455.982 Q607.117 455.333 606.086 455.333 Q605.445 455.333 604.938 455.615 Q604.43 455.896 604.133 456.333 L602.898 456.333 L603.93 450.333 L609.273 450.333 L609.273 451.333 L604.992 451.333 L604.414 454.911 Q605.383 454.333 606.445 454.333 Q607.836 454.333 608.805 455.271 Q609.773 456.208 609.773 457.661 Q609.773 459.068 608.93 460.083 Q607.898 461.333 606.102 461.333 Q604.648 461.333 603.719 460.513 Q602.789 459.693 602.664 458.333 Z" fill="#000000" fill-opacity="1.000000"/>
  <path d="M707.496 455.833 Q707.496 453.927 707.887 452.763 Q708.278 451.599 709.051 450.966 Q709.825 450.333 710.996 450.333 Q711.856 450.333 712.512 450.685 Q713.168 451.036 713.59 451.693 Q714.012 452.349 714.254 453.294 Q714.496 454.24 714.496 455.833 Q714.496 457.74 714.106 458.904 Q713.715 460.068 712.942 460.701 Q712.168 461.333 710.996 461.333 Q709.45 461.333 708.559 460.224 Q707.496 458.865 707.496 455.833 ZM708.856 455.833 Q708.856 458.536 709.473 459.435 Q710.09 460.333 710.996 460.333 Q711.903 460.333 712.52 459.435 Q713.137 458.536 713.137 455.833 Q713.137 453.115 712.52 452.224 Q711.903 451.333 710.981 451.333 Q710.075 451.333 709.528 452.115 Q708.856 453.13 708.856 455.833 Z" fill="#000000" fill-opacity="1.000000"/>
  <path d="M716.387 461.333 L716.387 460.333 L717.887 460.333 L717.887 461.333 L716.387 461.333 Z" fill="#000000" fill-opacity="1.000000"/>
  <path d="M726.575 453.333 L725.262 453.333 Q725.09 452.411 724.762 452.005 Q724.231 451.333 723.45 451.333 Q722.809 451.333 722.34 451.724 Q721.715 452.224 721.356 453.177 Q720.996 454.13 720.981 455.771 Q721.45 455.036 722.145 454.685 Q722.84 454.333 723.59 454.333 Q724.903 454.333 725.832 455.286 Q726.762 456.24 726.762 457.74 Q726.762 458.724 726.325 459.576 Q725.887 460.427 725.129 460.88 Q724.371 461.333 723.403 461.333 Q721.746 461.333 720.707 460.115 Q719.668 458.896 719.668 456.115 Q719.668 452.99 720.825 451.568 Q721.825 450.333 723.528 450.333 Q724.793 450.333 725.606 451.13 Q726.418 451.927 726.575 453.333 ZM721.184 457.708 Q721.184 458.396 721.473 459.029 Q721.762 459.661 722.285 459.997 Q722.809 460.333 723.371 460.333 Q724.215 460.333 724.817 459.646 Q725.418 458.958 725.418 457.771 Q725.418 456.646 724.825 455.99 Q724.231 455.333 723.325 455.333 Q722.434 455.333 721.809 455.99 Q721.184 456.646 721.184 457.708 Z" fill="#000000" fill-opacity="1.000000"/>
  <path d="M824.563 455.833 Q824.563 453.927 824.954 452.763 Q825.344 451.599 826.118 450.966 Q826.891 450.333 828.063 450.333 Q828.922 450.333 829.579 450.685 Q830.235 451.036 830.657 451.693 Q831.079 452.349 831.321 453.294 Q831.563 454.24 831.563 455.833 Q831.563 457.74 831.172 458.904 Q830.782 460.068 830.008 460.701 Q829.235 461.333 828.063 461.333 Q826.516 461.333 825.626 460.224 Q824.563 458.865 824.563 455.833 ZM825.922 455.833 Q825.922 458.536 826.54 459.435 Q827.157 460.333 828.063 460.333 Q828.969 460.333 829.586 459.435 Q830.204 458.536 830.204 455.833 Q830.204 453.115 829.586 452.224 Q828.969 451.333 828.047 451.333 Q827.141 451.333 826.594 452.115 Q825.922 453.13 825.922 455.833 Z" fill="#000000" fill-opacity="1.000000"/>
  <path d="M833.454 461.333 L833.454 460.333 L834.954 460.333 L834.954 461.333 L833.454 461.333 Z" fill="#000000" fill-opacity="1.000000"/>
  <path d="M836.876 451.333 L836.876 450.333 L843.829 450.333 L843.829 451.146 Q842.813 452.24 841.805 454.177 Q840.797 456.115 840.235 458.161 Q839.844 459.615 839.735 461.333 L838.391 461.333 Q838.407 459.974 838.883 458.052 Q839.36 456.13 840.251 454.341 Q841.141 452.552 842.141 451.333 L836.876 451.333 Z" fill="#000000" fill-opacity="1.000000"/>
  <path d="M941.63 455.833 Q941.63 453.927 942.02 452.763 Q942.411 451.599 943.184 450.966 Q943.958 450.333 945.13 450.333 Q945.989 450.333 946.645 450.685 Q947.302 451.036 947.723 451.693 Q948.145 452.349 948.388 453.294 Q948.63 454.24 948.63 455.833 Q948.63 457.74 948.239 458.904 Q947.848 460.068 947.075 460.701 Q946.302 461.333 945.13 461.333 Q943.583 461.333 942.692 460.224 Q941.63 458.865 941.63 455.833 ZM942.989 455.833 Q942.989 458.536 943.606 459.435 Q944.223 460.333 945.13 460.333 Q946.036 460.333 946.653 459.435 Q947.27 458.536 947.27 455.833 Q947.27 453.115 946.653 452.224 Q946.036 451.333 945.114 451.333 Q944.208 451.333 943.661 452.115 Q942.989 453.13 942.989 455.833 Z" fill="#000000" fill-opacity="1.000000"/>
  <path d="M950.52 461.333 L950.52 460.333 L952.02 460.333 L952.02 461.333 L950.52 461.333 Z" fill="#000000" fill-opacity="1.000000"/>
  <path d="M955.895 455.802 Q955.083 455.474 954.684 454.857 Q954.286 454.24 954.286 453.38 Q954.286 452.099 955.13 451.216 Q955.973 450.333 957.364 450.333 Q958.77 450.333 959.63 451.232 Q960.489 452.13 960.489 453.427 Q960.489 454.255 960.091 454.865 Q959.692 455.474 958.895 455.802 Q959.895 456.099 960.411 456.763 Q960.927 457.427 960.927 458.333 Q960.927 459.599 959.95 460.466 Q958.973 461.333 957.395 461.333 Q955.802 461.333 954.825 460.466 Q953.848 459.599 953.848 458.302 Q953.848 457.333 954.38 456.685 Q954.911 456.036 955.895 455.802 ZM955.63 453.286 Q955.63 454.193 956.122 454.763 Q956.614 455.333 957.395 455.333 Q958.161 455.333 958.645 454.763 Q959.13 454.193 959.13 453.365 Q959.13 452.505 958.63 451.919 Q958.13 451.333 957.38 451.333 Q956.63 451.333 956.13 451.904 Q955.63 452.474 955.63 453.286 ZM955.208 458.318 Q955.208 458.833 955.473 459.318 Q955.739 459.802 956.263 460.068 Q956.786 460.333 957.395 460.333 Q958.333 460.333 958.95 459.771 Q959.567 459.208 959.567 458.349 Q959.567 457.474 958.934 456.904 Q958.302 456.333 957.348 456.333 Q956.427 456.333 955.817 456.896 Q955.208 457.458 955.208 458.318 Z" fill="#000000" fill-opacity="1.000000"/>
  <path d="M1058.7 455.833 Q1058.7 453.927 1059.09 452.763 Q1059.48 451.599 1060.25 450.966 Q1061.02 450.333 1062.2 450.333 Q1063.06 450.333 1063.71 450.685 Q1064.37 451.036 1064.79 451.693 Q1065.21 452.349 1065.45 453.294 Q1065.7 454.24 1065.7 455.833 Q1065.7 457.74 1065.31 458.904 Q1064.92 460.068 1064.14 460.701 Q1063.37 461.333 1062.2 461.333 Q1060.65 461.333 1059.76 460.224 Q1058.7 458.865 1058.7 455.833 ZM1060.06 455.833 Q1060.06 458.536 1060.67 459.435 Q1061.29 460.333 1062.2 460.333 Q1063.1 460.333 1063.72 459.435 Q1064.34 458.536 1064.34 455.833 Q1064.34 453.115 1063.72 452.224 Q1063.1 451.333 1062.18 451.333 Q1061.27 451.333 1060.73 452.115 Q1060.06 453.13 1060.06 455.833 Z" fill="#000000" fill-opacity="1.000000"/>
  <path d="M1067.59 461.333 L1067.59 460.333 L1069.09 460.333 L1069.09 461.333 L1067.59 461.333 Z" fill="#000000" fill-opacity="1.000000"/>
  <path d="M1071.13 458.333 L1072.4 458.333 Q1072.56 459.38 1073.01 459.857 Q1073.46 460.333 1074.18 460.333 Q1074.77 460.333 1075.24 460.029 Q1075.7 459.724 1075.99 459.216 Q1076.27 458.708 1076.48 457.857 Q1076.68 457.005 1076.68 456.177 Q1076.68 456.099 1076.67 455.927 Q1076.27 456.552 1075.59 456.943 Q1074.9 457.333 1074.1 457.333 Q1072.77 457.333 1071.85 456.388 Q1070.93 455.443 1070.93 453.88 Q1070.93 452.286 1071.89 451.31 Q1072.85 450.333 1074.31 450.333 Q1075.35 450.333 1076.22 450.896 Q1077.09 451.458 1077.54 452.505 Q1077.99 453.552 1077.99 455.536 Q1077.99 457.615 1077.55 458.833 Q1077.1 460.052 1076.22 460.693 Q1075.34 461.333 1074.15 461.333 Q1072.88 461.333 1072.09 460.544 Q1071.29 459.755 1071.13 458.333 ZM1076.52 453.865 Q1076.52 452.693 1075.92 452.013 Q1075.32 451.333 1074.46 451.333 Q1073.59 451.333 1072.94 452.068 Q1072.29 452.802 1072.29 453.974 Q1072.29 455.021 1072.91 455.677 Q1073.52 456.333 1074.43 456.333 Q1075.35 456.333 1075.94 455.677 Q1076.52 455.021 1076.52 453.865 Z" fill="#000000" fill-opacity="1.000000"/>
  <path d="M1180.73 461.333 L1179.4 461.333 L1179.4 452.755 Q1178.93 453.224 1178.16 453.685 Q1177.39 454.146 1176.78 454.38 L1176.78 453.083 Q1177.89 452.552 1178.71 451.794 Q1179.53 451.036 1179.87 450.333 L1180.73 450.333 L1180.73 461.333 Z" fill="#000000" fill-opacity="1.000000"/>
  <path d="M1184.65 461.333 L1184.65 460.333 L1186.15 460.333 L1186.15 461.333 L1184.65 461.333 Z" fill="#000000" fill-opacity="1.000000"/>
  <path d="M1188 455.833 Q1188 453.927 1188.39 452.763 Q1188.78 451.599 1189.55 450.966 Q1190.33 450.333 1191.5 450.333 Q1192.36 450.333 1193.01 450.685 Q1193.67 451.036 1194.09 451.693 Q1194.51 452.349 1194.76 453.294 Q1195 454.24 1195 455.833 Q1195 457.74 1194.61 458.904 Q1194.22 460.068 1193.44 460.701 Q1192.67 461.333 1191.5 461.333 Q1189.95 461.333 1189.06 460.224 Q1188 458.865 1188 455.833 ZM1189.36 455.833 Q1189.36 458.536 1189.97 459.435 Q1190.59 460.333 1191.5 460.333 Q1192.4 460.333 1193.02 459.435 Q1193.64 458.536 1193.64 455.833 Q1193.64 453.115 1193.02 452.224 Q1192.4 451.333 1191.48 451.333 Q1190.58 451.333 1190.03 452.115 Q1189.36 453.13 1189.36 455.833 Z" fill="#000000" fill-opacity="1.000000"/>
  <path d="M14.6667 106.992 L161 91.344 L307.333 71.784 L600 110.904 L892.667 157.848 L1185.33 110.904 L1185.33 365.184 L892.667 310.416 L600 333.888 L307.333 318.24 L161 357.36 L14.6667 373.008 Z" fill="#cccccc" fill-opacity="1.000000"/>
  <path d="M14.6667 118.728 L161 110.904 L307.333 122.64 L600 134.376 L892.667 189.144 L1185.33 122.64 L1185.33 310.416 L892.667 267.384 L600 318.24 L307.333 279.12 L161 318.24 L14.6667 333.888 Z" fill="#888888" fill-opacity="1.000000"/>
  <path d="M14.6667 235.188 L307.333 199.628 L600 264.372 L892.667 222.67 L1185.33 226.504 " fill="none" stroke-width="2.000000" stroke="#000000ff"/>
  <path d="M14.6667 237.855 C13.1939 237.855 12 236.661 12 235.188 C12 233.715 13.1939 232.522 14.6667 232.522 C16.1394 232.522 17.3333 233.715 17.3333 235.188 C17.3333 236.661 16.1394 237.855 14.6667 237.855 Z" fill="#000000" fill-opacity="1.000000"/>
  <path d="M307.333 202.295 C305.861 202.295 304.667 201.101 304.667 199.628 C304.667 198.155 305.861 196.961 307.333 196.961 C308.806 196.961 310 198.155 310 199.628 C310 201.101 308.806 202.295 307.333 202.295 Z" fill="#000000" fill-opacity="1.000000"/>
  <path d="M600 267.038 C598.527 267.038 597.333 265.845 597.333 264.372 C597.333 262.899 598.527 261.705 600 261.705 C601.473 261.705 602.667 262.899 602.667 264.372 C602.667 265.845 601.473 267.038 600 267.038 Z" fill="#000000" fill-opacity="1.000000"/>
  <path d="M892.667 225.337 C891.194 225.337 890 224.143 890 222.67 C890 221.197 891.194 220.003 892.667 220.003 C894.139 220.003 895.333 221.197 895.333 222.67 C895.333 224.143 894.139 225.337 892.667 225.337 Z" fill="#000000" fill-opacity="1.000000"/>
  <path d="M1185.33 229.17 C1183.86 229.17 1182.67 227.976 1182.67 226.504 C1182.67 225.031 1183.86 223.837 1185.33 223.837 C1186.81 223.837 1188 225.031 1188 226.504 C1188 227.976 1186.81 229.17 1185.33 229.17 Z" fill="#000000" fill-opacity="1.000000"/>
  <path d="M912.252 411 L913.596 411 Q913.69 411.656 914.041 412.07 Q914.393 412.484 915.127 412.742 Q915.861 413 916.768 413 Q917.58 413 918.205 412.805 Q918.83 412.609 919.135 412.266 Q919.44 411.922 919.44 411.312 Q919.44 410.688 919.143 410.227 Q918.846 409.766 918.174 409.484 Q917.736 409.312 916.26 408.945 Q914.783 408.578 914.19 408.266 Q913.408 407.859 913.033 407.266 Q912.658 406.672 912.658 405.938 Q912.658 405.141 913.119 404.438 Q913.58 403.734 914.471 403.367 Q915.361 403 916.44 403 Q917.643 403 918.557 403.359 Q919.471 403.719 919.963 404.414 Q920.455 405.109 920.486 406 L919.111 406 Q919.002 405.016 918.369 404.508 Q917.736 404 916.502 404 Q915.205 404 914.619 404.492 Q914.033 404.984 914.033 405.688 Q914.033 406.297 914.455 406.688 Q914.861 407.078 916.596 407.492 Q918.33 407.906 918.971 408.203 Q919.908 408.625 920.354 409.281 Q920.799 409.938 920.799 410.797 Q920.799 411.656 920.307 412.406 Q919.815 413.156 918.901 413.578 Q917.986 414 916.83 414 Q915.377 414 914.393 413.648 Q913.408 413.297 912.846 412.594 Q912.283 411.891 912.252 411 Z" fill="#000000" fill-opacity="1.000000"/>
  <path d="M927.674 412 L929.033 412 Q928.705 412.953 927.838 413.477 Q926.971 414 925.611 414 Q923.908 414 922.908 412.969 Q921.908 411.938 921.908 410.062 Q921.908 408.141 922.916 407.07 Q923.924 406 925.549 406 Q927.096 406 928.088 406.969 Q929.08 407.938 929.08 409.688 Q929.08 409.781 929.08 410 L923.268 410 Q923.346 411.453 923.994 412.227 Q924.643 413 925.627 413 Q926.346 413 926.861 412.758 Q927.377 412.516 927.674 412 ZM923.346 409 L927.69 409 Q927.596 408.125 927.19 407.688 Q926.565 407 925.565 407 Q924.643 407 924.026 407.547 Q923.408 408.094 923.346 409 Z" fill="#000000" fill-opacity="1.000000"/>
  <path d="M930.486 414 L930.486 406 L931.674 406 L931.674 407 Q932.127 406.391 932.51 406.195 Q932.893 406 933.361 406 Q934.033 406 934.721 406.203 L934.268 407.422 Q933.783 407 933.299 407 Q932.861 407 932.518 407.273 Q932.174 407.547 932.033 408.031 Q931.815 408.781 931.815 409.672 L931.815 414 L930.486 414 Z" fill="#000000" fill-opacity="1.000000"/>
  <path d="M935.408 404 L935.408 403 L936.721 403 L936.721 404 L935.408 404 ZM935.408 414 L935.408 406 L936.721 406 L936.721 414 L935.408 414 Z" fill="#000000" fill-opacity="1.000000"/>
  <path d="M943.986 412 L945.346 412 Q945.018 412.953 944.151 413.477 Q943.283 414 941.924 414 Q940.221 414 939.221 412.969 Q938.221 411.938 938.221 410.062 Q938.221 408.141 939.229 407.07 Q940.236 406 941.861 406 Q943.408 406 944.401 406.969 Q945.393 407.938 945.393 409.688 Q945.393 409.781 945.393 410 L939.58 410 Q939.658 411.453 940.307 412.227 Q940.955 413 941.94 413 Q942.658 413 943.174 412.758 Q943.69 412.516 943.986 412 ZM939.658 409 L944.002 409 Q943.908 408.125 943.502 407.688 Q942.877 407 941.877 407 Q940.955 407 940.338 407.547 Q939.721 408.094 939.658 409 Z" fill="#000000" fill-opacity="1.000000"/>
  <path d="M946.299 412 L947.596 412 Q947.705 412.484 948.205 412.742 Q948.705 413 949.611 413 Q950.518 413 950.955 412.617 Q951.393 412.234 951.393 411.734 Q951.393 411.266 951.002 411 Q950.736 410.828 949.658 410.547 Q948.205 410.188 947.651 409.93 Q947.096 409.672 946.807 409.211 Q946.518 408.75 946.518 408.188 Q946.518 407.688 946.752 407.25 Q946.986 406.812 947.408 406.531 Q947.705 406.312 948.236 406.156 Q948.768 406 949.377 406 Q950.283 406 950.979 406.242 Q951.674 406.484 952.002 406.898 Q952.33 407.312 952.455 408 L951.174 408 Q951.08 407.531 950.658 407.266 Q950.236 407 949.471 407 Q948.565 407 948.174 407.312 Q947.783 407.625 947.783 408.031 Q947.783 408.297 947.94 408.516 Q948.111 408.734 948.44 408.875 Q948.643 408.953 949.611 409.219 Q951.018 409.578 951.572 409.812 Q952.127 410.047 952.44 410.492 Q952.752 410.938 952.752 411.594 Q952.752 412.234 952.369 412.805 Q951.986 413.375 951.26 413.688 Q950.533 414 949.627 414 Q948.111 414 947.315 413.492 Q946.518 412.984 946.299 412 Z" fill="#000000" fill-opacity="1.000000"/>
  <path d="" fill="#000000" fill-opacity="1.000000"/>
  <path d="M956.83 414 L960.955 403 L962.471 403 L966.877 414 L965.252 414 L964.002 411 L959.518 411 L958.33 414 L956.83 414 ZM959.924 410 L963.565 410 L962.44 406.562 Q961.924 405.203 961.674 404 Q961.471 405.344 961.096 406.375 L959.924 410 Z" fill="#000000" fill-opacity="1.000000"/>
  <path d="M897.647 414.5 C894.609 414.5 892.147 412.038 892.147 409 C892.147 405.962 894.609 403.5 897.647 403.5 C900.684 403.5 903.147 405.962 903.147 409 C903.147 412.038 900.684 414.5 897.647 414.5 Z" fill="#cccccc" fill-opacity="1.000000"/>
  <path d="M1003.56 411 L1004.9 411 Q1005 411.656 1005.35 412.07 Q1005.7 412.484 1006.43 412.742 Q1007.17 413 1008.08 413 Q1008.89 413 1009.51 412.805 Q1010.14 412.609 1010.44 412.266 Q1010.75 411.922 1010.75 411.312 Q1010.75 410.688 1010.45 410.227 Q1010.15 409.766 1009.48 409.484 Q1009.04 409.312 1007.57 408.945 Q1006.09 408.578 1005.5 408.266 Q1004.72 407.859 1004.34 407.266 Q1003.97 406.672 1003.97 405.938 Q1003.97 405.141 1004.43 404.438 Q1004.89 403.734 1005.78 403.367 Q1006.67 403 1007.75 403 Q1008.95 403 1009.86 403.359 Q1010.78 403.719 1011.27 404.414 Q1011.76 405.109 1011.79 406 L1010.42 406 Q1010.31 405.016 1009.68 404.508 Q1009.04 404 1007.81 404 Q1006.51 404 1005.93 404.492 Q1005.34 404.984 1005.34 405.688 Q1005.34 406.297 1005.76 406.688 Q1006.17 407.078 1007.9 407.492 Q1009.64 407.906 1010.28 408.203 Q1011.22 408.625 1011.66 409.281 Q1012.11 409.938 1012.11 410.797 Q1012.11 411.656 1011.61 412.406 Q1011.12 413.156 1010.21 413.578 Q1009.29 414 1008.14 414 Q1006.68 414 1005.7 413.648 Q1004.72 413.297 1004.15 412.594 Q1003.59 411.891 1003.56 411 Z" fill="#000000" fill-opacity="1.000000"/>
  <path d="M1018.98 412 L1020.34 412 Q1020.01 412.953 1019.15 413.477 Q1018.28 414 1016.92 414 Q1015.22 414 1014.22 412.969 Q1013.22 411.938 1013.22 410.062 Q1013.22 408.141 1014.22 407.07 Q1015.23 406 1016.86 406 Q1018.4 406 1019.4 406.969 Q1020.39 407.938 1020.39 409.688 Q1020.39 409.781 1020.39 410 L1014.58 410 Q1014.65 411.453 1015.3 412.227 Q1015.95 413 1016.93 413 Q1017.65 413 1018.17 412.758 Q1018.68 412.516 1018.98 412 ZM1014.65 409 L1019 409 Q1018.9 408.125 1018.5 407.688 Q1017.87 407 1016.87 407 Q1015.95 407 1015.33 407.547 Q1014.72 408.094 1014.65 409 Z" fill="#000000" fill-opacity="1.000000"/>
  <path d="M1021.79 414 L1021.79 406 L1022.98 406 L1022.98 407 Q1023.43 406.391 1023.82 406.195 Q1024.2 406 1024.67 406 Q1025.34 406 1026.03 406.203 L1025.58 407.422 Q1025.09 407 1024.61 407 Q1024.17 407 1023.83 407.273 Q1023.48 407.547 1023.34 408.031 Q1023.12 408.781 1023.12 409.672 L1023.12 414 L1021.79 414 Z" fill="#000000" fill-opacity="1.000000"/>
  <path d="M1026.72 404 L1026.72 403 L1028.03 403 L1028.03 404 L1026.72 404 ZM1026.72 414 L1026.72 406 L1028.03 406 L1028.03 414 L1026.72 414 Z" fill="#000000" fill-opacity="1.000000"/>
  <path d="M1035.29 412 L1036.65 412 Q1036.33 412.953 1035.46 413.477 Q1034.59 414 1033.23 414 Q1031.53 414 1030.53 412.969 Q1029.53 411.938 1029.53 410.062 Q1029.53 408.141 1030.54 407.07 Q1031.54 406 1033.17 406 Q1034.72 406 1035.71 406.969 Q1036.7 407.938 1036.7 409.688 Q1036.7 409.781 1036.7 410 L1030.89 410 Q1030.97 411.453 1031.61 412.227 Q1032.26 413 1033.25 413 Q1033.97 413 1034.48 412.758 Q1035 412.516 1035.29 412 ZM1030.97 409 L1035.31 409 Q1035.22 408.125 1034.81 407.688 Q1034.18 407 1033.18 407 Q1032.26 407 1031.65 407.547 Q1031.03 408.094 1030.97 409 Z" fill="#000000" fill-opacity="1.000000"/>
  <path d="M1037.61 412 L1038.9 412 Q1039.01 412.484 1039.51 412.742 Q1040.01 413 1040.92 413 Q1041.83 413 1042.26 412.617 Q1042.7 412.234 1042.7 411.734 Q1042.7 411.266 1042.31 411 Q1042.04 410.828 1040.97 410.547 Q1039.51 410.188 1038.96 409.93 Q1038.4 409.672 1038.11 409.211 Q1037.83 408.75 1037.83 408.188 Q1037.83 407.688 1038.06 407.25 Q1038.29 406.812 1038.72 406.531 Q1039.01 406.312 1039.54 406.156 Q1040.08 406 1040.68 406 Q1041.59 406 1042.29 406.242 Q1042.98 406.484 1043.31 406.898 Q1043.64 407.312 1043.76 408 L1042.48 408 Q1042.39 407.531 1041.97 407.266 Q1041.54 407 1040.78 407 Q1039.87 407 1039.48 407.312 Q1039.09 407.625 1039.09 408.031 Q1039.09 408.297 1039.25 408.516 Q1039.42 408.734 1039.75 408.875 Q1039.95 408.953 1040.92 409.219 Q1042.33 409.578 1042.88 409.812 Q1043.43 410.047 1043.75 410.492 Q1044.06 410.938 1044.06 411.594 Q1044.06 412.234 1043.68 412.805 Q1043.29 413.375 1042.57 413.688 Q1041.84 414 1040.93 414 Q1039.42 414 1038.62 413.492 Q1037.83 412.984 1037.61 412 Z" fill="#000000" fill-opacity="1.000000"/>
  <path d="" fill="#000000" fill-opacity="1.000000"/>
  <path d="M1049.65 414 L1049.65 403 L1053.68 403 Q1054.92 403 1055.66 403.328 Q1056.4 403.656 1056.83 404.328 Q1057.25 405 1057.25 405.734 Q1057.25 406.422 1056.87 407.023 Q1056.5 407.625 1055.75 408 Q1056.72 408.297 1057.24 409.023 Q1057.76 409.75 1057.76 410.734 Q1057.76 411.516 1057.44 412.203 Q1057.12 412.891 1056.65 413.258 Q1056.18 413.625 1055.48 413.812 Q1054.78 414 1053.75 414 L1049.65 414 ZM1051.08 408 L1053.4 408 Q1054.34 408 1054.75 407.844 Q1055.29 407.641 1055.57 407.18 Q1055.84 406.719 1055.84 406.031 Q1055.84 405.375 1055.58 404.875 Q1055.33 404.375 1054.85 404.188 Q1054.37 404 1053.22 404 L1051.08 404 L1051.08 408 ZM1051.08 413 L1053.75 413 Q1054.43 413 1054.72 412.938 Q1055.22 412.844 1055.54 412.625 Q1055.87 412.406 1056.08 411.984 Q1056.29 411.562 1056.29 411 Q1056.29 410.344 1055.99 409.867 Q1055.68 409.391 1055.14 409.195 Q1054.59 409 1053.56 409 L1051.08 409 L1051.08 413 Z" fill="#000000" fill-opacity="1.000000"/>
  <path d="M988.954 414.5 C985.917 414.5 983.454 412.038 983.454 409 C983.454 405.962 985.917 403.5 988.954 403.5 C991.992 403.5 994.454 405.962 994.454 409 C994.454 412.038 991.992 414.5 988.954 414.5 Z" fill="#888888" fill-opacity="1.000000"/>
  <path d="M1103.82 410.172 L1105.24 410.531 Q1104.79 412.219 1103.63 413.109 Q1102.48 414 1100.8 414 Q1099.07 414 1097.98 413.297 Q1096.9 412.594 1096.33 411.266 Q1095.76 409.938 1095.76 408.422 Q1095.76 406.766 1096.4 405.523 Q1097.04 404.281 1098.23 403.641 Q1099.41 403 1100.82 403 Q1102.44 403 1103.54 403.781 Q1104.63 404.562 1105.07 405.984 L1103.66 406.328 Q1103.29 405.109 1102.58 404.555 Q1101.87 404 1100.79 404 Q1099.55 404 1098.73 404.617 Q1097.9 405.234 1097.56 406.273 Q1097.23 407.312 1097.23 408.406 Q1097.23 409.828 1097.62 410.891 Q1098.02 411.953 1098.87 412.477 Q1099.71 413 1100.68 413 Q1101.88 413 1102.7 412.289 Q1103.52 411.578 1103.82 410.172 Z" fill="#000000" fill-opacity="1.000000"/>
  <path d="M1106.1 410 Q1106.1 407.875 1107.3 406.844 Q1108.3 406 1109.74 406 Q1111.35 406 1112.37 407.031 Q1113.38 408.062 1113.38 409.891 Q1113.38 411.375 1112.93 412.219 Q1112.48 413.062 1111.62 413.531 Q1110.76 414 1109.74 414 Q1108.12 414 1107.11 412.969 Q1106.1 411.938 1106.1 410 ZM1107.46 410 Q1107.46 411.5 1108.11 412.25 Q1108.76 413 1109.76 413 Q1110.74 413 1111.39 412.25 Q1112.04 411.5 1112.04 409.953 Q1112.04 408.5 1111.38 407.75 Q1110.73 407 1109.76 407 Q1108.76 407 1108.11 407.742 Q1107.46 408.484 1107.46 410 Z" fill="#000000" fill-opacity="1.000000"/>
  <path d="M1114.74 414 L1114.74 406 L1115.93 406 L1115.93 407.125 Q1116.29 406.625 1116.9 406.312 Q1117.51 406 1118.29 406 Q1119.15 406 1119.69 406.32 Q1120.24 406.641 1120.48 407.219 Q1121.4 406 1122.88 406 Q1124.04 406 1124.66 406.648 Q1125.29 407.297 1125.29 408.625 L1125.29 414 L1123.98 414 L1123.98 408.969 Q1123.98 408.156 1123.85 407.797 Q1123.73 407.438 1123.38 407.219 Q1123.04 407 1122.59 407 Q1121.77 407 1121.23 407.562 Q1120.68 408.125 1120.68 409.359 L1120.68 414 L1119.37 414 L1119.37 408.812 Q1119.37 407.906 1119.05 407.453 Q1118.73 407 1117.99 407 Q1117.43 407 1116.96 407.305 Q1116.49 407.609 1116.28 408.188 Q1116.07 408.766 1116.07 409.859 L1116.07 414 L1114.74 414 Z" fill="#000000" fill-opacity="1.000000"/>
  <path d="M1128.18 414 L1126.96 414 L1126.96 403 L1128.27 403 L1128.27 406.969 Q1129.12 406 1130.41 406 Q1131.13 406 1131.77 406.281 Q1132.41 406.562 1132.83 407.078 Q1133.24 407.594 1133.48 408.328 Q1133.71 409.062 1133.71 409.891 Q1133.71 411.859 1132.72 412.93 Q1131.73 414 1130.35 414 Q1128.96 414 1128.18 412.938 L1128.18 414 ZM1128.16 409.938 Q1128.16 411.344 1128.54 411.969 Q1129.16 413 1130.23 413 Q1131.09 413 1131.72 412.242 Q1132.35 411.484 1132.35 410 Q1132.35 408.453 1131.75 407.727 Q1131.15 407 1130.29 407 Q1129.43 407 1128.8 407.758 Q1128.16 408.516 1128.16 409.938 Z" fill="#000000" fill-opacity="1.000000"/>
  <path d="M1135.13 404 L1135.13 403 L1136.44 403 L1136.44 404 L1135.13 404 ZM1135.13 414 L1135.13 406 L1136.44 406 L1136.44 414 L1135.13 414 Z" fill="#000000" fill-opacity="1.000000"/>
  <path d="M1138.38 414 L1138.38 406 L1139.57 406 L1139.57 407.109 Q1140.43 406 1142.05 406 Q1142.76 406 1143.34 406.258 Q1143.93 406.516 1144.23 406.922 Q1144.52 407.328 1144.63 407.906 Q1144.71 408.266 1144.71 409.188 L1144.71 414 L1143.38 414 L1143.38 409.141 Q1143.38 408.312 1143.23 407.898 Q1143.07 407.484 1142.68 407.242 Q1142.29 407 1141.77 407 Q1140.93 407 1140.32 407.547 Q1139.71 408.094 1139.71 409.625 L1139.71 414 L1138.38 414 Z" fill="#000000" fill-opacity="1.000000"/>
  <path d="M1151.87 412 L1153.23 412 Q1152.9 412.953 1152.03 413.477 Q1151.16 414 1149.8 414 Q1148.1 414 1147.1 412.969 Q1146.1 411.938 1146.1 410.062 Q1146.1 408.141 1147.11 407.07 Q1148.12 406 1149.74 406 Q1151.29 406 1152.28 406.969 Q1153.27 407.938 1153.27 409.688 Q1153.27 409.781 1153.27 410 L1147.46 410 Q1147.54 411.453 1148.19 412.227 Q1148.84 413 1149.82 413 Q1150.54 413 1151.05 412.758 Q1151.57 412.516 1151.87 412 ZM1147.54 409 L1151.88 409 Q1151.79 408.125 1151.38 407.688 Q1150.76 407 1149.76 407 Q1148.84 407 1148.22 407.547 Q1147.6 408.094 1147.54 409 Z" fill="#000000" fill-opacity="1.000000"/>
  <path d="M1159.74 414 L1159.74 412.938 Q1159.01 414 1157.57 414 Q1156.63 414 1155.86 413.492 Q1155.09 412.984 1154.66 412.086 Q1154.23 411.188 1154.23 410 Q1154.23 408.859 1154.62 407.93 Q1155.01 407 1155.78 406.5 Q1156.55 406 1157.52 406 Q1158.23 406 1158.77 406.273 Q1159.32 406.547 1159.66 406.984 L1159.66 403 L1160.98 403 L1160.98 414 L1159.74 414 ZM1155.59 410 Q1155.59 411.516 1156.22 412.258 Q1156.85 413 1157.69 413 Q1158.57 413 1159.17 412.289 Q1159.77 411.578 1159.77 410.109 Q1159.77 408.5 1159.16 407.75 Q1158.54 407 1157.65 407 Q1156.76 407 1156.17 407.727 Q1155.59 408.453 1155.59 410 Z" fill="#000000" fill-opacity="1.000000"/>
  <path d="M1081.07 414.5 C1078.04 414.5 1075.57 412.038 1075.57 409 C1075.57 405.962 1078.04 403.5 1081.07 403.5 C1084.11 403.5 1086.57 405.962 1086.57 409 C1086.57 412.038 1084.11 414.5 1081.07 414.5 Z" fill="#000000" fill-opacity="1.000000"/>
</svg>