<?xml version="1.0" encoding="UTF-8" ?>
<!-- Generated by clip v0.8.0 (clip-lang.org) -->
<svg xmlns="http://www.w3.org/2000/svg" width="1200" height="480">
  <rect width="1200" height="480" fill="#ffffff" fill-opacity="1"/>
  <path d="M83.494 435.600 L1185.333 435.600" fill="none" stroke="#000000" stroke-width="1.333"/>
  <path d="M83.494 435.600 L83.494 430.267" fill="none" stroke="#000000" stroke-width="1.333"/>
  <path d="M193.678 435.600 L193.678 430.267" fill="none" stroke="#000000" stroke-width="1.333"/>
  <path d="M303.862 435.600 L303.862 430.267" fill="none" stroke="#000000" stroke-width="1.333"/>
  <path d="M414.046 435.600 L414.046 430.267" fill="none" stroke="#000000" stroke-width="1.333"/>
  <path d="M524.230 435.600 L524.230 430.267" fill="none" stroke="#000000" stroke-width="1.333"/>
  <path d="M634.414 435.600 L634.414 430.267" fill="none" stroke="#000000" stroke-width="1.333"/>
  <path d="M744.598 435.600 L744.598 430.267" fill="none" stroke="#000000" stroke-width="1.333"/>
  <path d="M854.781 435.600 L854.781 430.267" fill="none" stroke="#000000" stroke-width="1.333"/>
  <path d="M964.965 435.600 L964.965 430.267" fill="none" stroke="#000000" stroke-width="1.333"/>
  <path d="M1075.149 435.600 L1075.149 430.267" fill="none" stroke="#000000" stroke-width="1.333"/>
  <path d="M1185.333 435.600 L1185.333 430.267" fill="none" stroke="#000000" stroke-width="1.333"/>
  <path d="M73.923 455.833 Q73.923 453.927 74.314 452.763 Q74.705 451.599 75.478 450.966 Q76.252 450.333 77.423 450.333 Q78.283 450.333 78.939 450.685 Q79.595 451.036 80.017 451.693 Q80.439 452.349 80.681 453.294 Q80.923 454.240 80.923 455.833 Q80.923 457.740 80.533 458.904 Q80.142 460.068 79.369 460.701 Q78.595 461.333 77.423 461.333 Q75.877 461.333 74.986 460.224 Q73.923 458.865 73.923 455.833 Z M75.283 455.833 Q75.283 458.536 75.900 459.435 Q76.517 460.333 77.423 460.333 Q78.330 460.333 78.947 459.435 Q79.564 458.536 79.564 455.833 Q79.564 453.115 78.947 452.224 Q78.330 451.333 77.408 451.333 Q76.502 451.333 75.955 452.115 Q75.283 453.130 75.283 455.833 Z"/>
  <path d="M82.814 461.333 L82.814 460.333 L84.314 460.333 L84.314 461.333 L82.814 461.333 Z"/>
  <path d="M86.158 455.833 Q86.158 453.927 86.548 452.763 Q86.939 451.599 87.713 450.966 Q88.486 450.333 89.658 450.333 Q90.517 450.333 91.173 450.685 Q91.830 451.036 92.252 451.693 Q92.673 452.349 92.916 453.294 Q93.158 454.240 93.158 455.833 Q93.158 457.740 92.767 458.904 Q92.377 460.068 91.603 460.701 Q90.830 461.333 89.658 461.333 Q88.111 461.333 87.220 460.224 Q86.158 458.865 86.158 455.833 Z M87.517 455.833 Q87.517 458.536 88.134 459.435 Q88.752 460.333 89.658 460.333 Q90.564 460.333 91.181 459.435 Q91.798 458.536 91.798 455.833 Q91.798 453.115 91.181 452.224 Q90.564 451.333 89.642 451.333 Q88.736 451.333 88.189 452.115 Q87.517 453.130 87.517 455.833 Z"/>
  <path d="M184.998 461.333 L183.670 461.333 L183.670 452.755 Q183.201 453.224 182.428 453.685 Q181.654 454.146 181.045 454.380 L181.045 453.083 Q182.154 452.552 182.975 451.794 Q183.795 451.036 184.139 450.333 L184.998 450.333 L184.998 461.333 Z"/>
  <path d="M188.186 458.333 L189.561 458.333 Q189.717 459.333 190.279 459.833 Q190.842 460.333 191.623 460.333 Q192.576 460.333 193.240 459.622 Q193.904 458.911 193.904 457.740 Q193.904 456.630 193.271 455.982 Q192.639 455.333 191.607 455.333 Q190.967 455.333 190.459 455.615 Q189.951 455.896 189.654 456.333 L188.420 456.333 L189.451 450.333 L194.795 450.333 L194.795 451.333 L190.514 451.333 L189.936 454.911 Q190.904 454.333 191.967 454.333 Q193.357 454.333 194.326 455.271 Q195.295 456.208 195.295 457.661 Q195.295 459.068 194.451 460.083 Q193.420 461.333 191.623 461.333 Q190.170 461.333 189.240 460.513 Q188.311 459.693 188.186 458.333 Z"/>
  <path d="M197.076 461.333 L197.076 460.333 L198.576 460.333 L198.576 461.333 L197.076 461.333 Z"/>
  <path d="M200.420 455.833 Q200.420 453.927 200.811 452.763 Q201.201 451.599 201.975 450.966 Q202.748 450.333 203.920 450.333 Q204.779 450.333 205.436 450.685 Q206.092 451.036 206.514 451.693 Q206.936 452.349 207.178 453.294 Q207.420 454.240 207.420 455.833 Q207.420 457.740 207.029 458.904 Q206.639 460.068 205.865 460.701 Q205.092 461.333 203.920 461.333 Q202.373 461.333 201.482 460.224 Q200.420 458.865 200.420 455.833 Z M201.779 455.833 Q201.779 458.536 202.396 459.435 Q203.014 460.333 203.920 460.333 Q204.826 460.333 205.443 459.435 Q206.061 458.536 206.061 455.833 Q206.061 453.115 205.443 452.224 Q204.826 451.333 203.904 451.333 Q202.998 451.333 202.451 452.115 Q201.779 453.130 201.779 455.833 Z"/>
  <path d="M290.213 458.333 L291.541 458.333 Q291.776 459.396 292.315 459.865 Q292.854 460.333 293.635 460.333 Q294.573 460.333 295.213 459.716 Q295.854 459.099 295.854 458.193 Q295.854 457.318 295.260 456.747 Q294.666 456.177 293.744 456.177 Q293.369 456.177 292.823 456.333 L292.963 455.333 Q293.104 455.349 293.182 455.349 Q294.026 455.349 294.698 454.841 Q295.369 454.333 295.369 453.271 Q295.369 452.443 294.877 451.888 Q294.385 451.333 293.604 451.333 Q292.838 451.333 292.323 451.833 Q291.807 452.333 291.666 453.333 L290.354 453.333 Q290.588 451.911 291.448 451.122 Q292.307 450.333 293.588 450.333 Q294.463 450.333 295.205 450.740 Q295.948 451.146 296.338 451.849 Q296.729 452.552 296.729 453.349 Q296.729 454.099 296.354 454.716 Q295.979 455.333 295.244 455.693 Q296.198 455.896 296.721 456.544 Q297.244 457.193 297.244 458.177 Q297.244 459.490 296.221 460.411 Q295.198 461.333 293.619 461.333 Q292.213 461.333 291.276 460.497 Q290.338 459.661 290.213 458.333 Z"/>
  <path d="M298.369 455.833 Q298.369 453.927 298.760 452.763 Q299.151 451.599 299.924 450.966 Q300.698 450.333 301.869 450.333 Q302.729 450.333 303.385 450.685 Q304.041 451.036 304.463 451.693 Q304.885 452.349 305.127 453.294 Q305.369 454.240 305.369 455.833 Q305.369 457.740 304.979 458.904 Q304.588 460.068 303.815 460.701 Q303.041 461.333 301.869 461.333 Q300.323 461.333 299.432 460.224 Q298.369 458.865 298.369 455.833 Z M299.729 455.833 Q299.729 458.536 300.346 459.435 Q300.963 460.333 301.869 460.333 Q302.776 460.333 303.393 459.435 Q304.010 458.536 304.010 455.833 Q304.010 453.115 303.393 452.224 Q302.776 451.333 301.854 451.333 Q300.948 451.333 300.401 452.115 Q299.729 453.130 299.729 455.833 Z"/>
  <path d="M307.260 461.333 L307.260 460.333 L308.760 460.333 L308.760 461.333 L307.260 461.333 Z"/>
  <path d="M310.604 455.833 Q310.604 453.927 310.994 452.763 Q311.385 451.599 312.159 450.966 Q312.932 450.333 314.104 450.333 Q314.963 450.333 315.619 450.685 Q316.276 451.036 316.698 451.693 Q317.119 452.349 317.362 453.294 Q317.604 454.240 317.604 455.833 Q317.604 457.740 317.213 458.904 Q316.823 460.068 316.049 460.701 Q315.276 461.333 314.104 461.333 Q312.557 461.333 311.666 460.224 Q310.604 458.865 310.604 455.833 Z M311.963 455.833 Q311.963 458.536 312.580 459.435 Q313.198 460.333 314.104 460.333 Q315.010 460.333 315.627 459.435 Q316.244 458.536 316.244 455.833 Q316.244 453.115 315.627 452.224 Q315.010 451.333 314.088 451.333 Q313.182 451.333 312.635 452.115 Q311.963 453.130 311.963 455.833 Z"/>
  <path d="M404.616 461.333 L404.616 458.333 L399.960 458.333 L399.960 457.333 L404.866 450.333 L405.944 450.333 L405.944 457.333 L407.397 457.333 L407.397 458.333 L405.944 458.333 L405.944 461.333 L404.616 461.333 Z M404.616 457.333 L404.616 452.536 L401.257 457.333 L404.616 457.333 Z"/>
  <path d="M408.553 458.333 L409.928 458.333 Q410.085 459.333 410.647 459.833 Q411.210 460.333 411.991 460.333 Q412.944 460.333 413.608 459.622 Q414.272 458.911 414.272 457.740 Q414.272 456.630 413.639 455.982 Q413.007 455.333 411.975 455.333 Q411.335 455.333 410.827 455.615 Q410.319 455.896 410.022 456.333 L408.788 456.333 L409.819 450.333 L415.163 450.333 L415.163 451.333 L410.882 451.333 L410.303 454.911 Q411.272 454.333 412.335 454.333 Q413.725 454.333 414.694 455.271 Q415.663 456.208 415.663 457.661 Q415.663 459.068 414.819 460.083 Q413.788 461.333 411.991 461.333 Q410.538 461.333 409.608 460.513 Q408.678 459.693 408.553 458.333 Z"/>
  <path d="M417.444 461.333 L417.444 460.333 L418.944 460.333 L418.944 461.333 L417.444 461.333 Z"/>
  <path d="M420.788 455.833 Q420.788 453.927 421.178 452.763 Q421.569 451.599 422.343 450.966 Q423.116 450.333 424.288 450.333 Q425.147 450.333 425.803 450.685 Q426.460 451.036 426.882 451.693 Q427.303 452.349 427.546 453.294 Q427.788 454.240 427.788 455.833 Q427.788 457.740 427.397 458.904 Q427.007 460.068 426.233 460.701 Q425.460 461.333 424.288 461.333 Q422.741 461.333 421.850 460.224 Q420.788 458.865 420.788 455.833 Z M422.147 455.833 Q422.147 458.536 422.764 459.435 Q423.382 460.333 424.288 460.333 Q425.194 460.333 425.811 459.435 Q426.428 458.536 426.428 455.833 Q426.428 453.115 425.811 452.224 Q425.194 451.333 424.272 451.333 Q423.366 451.333 422.819 452.115 Q422.147 453.130 422.147 455.833 Z"/>
  <path d="M517.425 453.333 L516.112 453.333 Q515.941 452.411 515.612 452.005 Q515.081 451.333 514.300 451.333 Q513.659 451.333 513.191 451.724 Q512.566 452.224 512.206 453.177 Q511.847 454.130 511.831 455.771 Q512.300 455.036 512.995 454.685 Q513.691 454.333 514.441 454.333 Q515.753 454.333 516.683 455.286 Q517.612 456.240 517.612 457.740 Q517.612 458.724 517.175 459.576 Q516.737 460.427 515.980 460.880 Q515.222 461.333 514.253 461.333 Q512.597 461.333 511.558 460.115 Q510.519 458.896 510.519 456.115 Q510.519 452.990 511.675 451.568 Q512.675 450.333 514.378 450.333 Q515.644 450.333 516.456 451.130 Q517.269 451.927 517.425 453.333 Z M512.034 457.708 Q512.034 458.396 512.323 459.029 Q512.612 459.661 513.136 459.997 Q513.659 460.333 514.222 460.333 Q515.066 460.333 515.667 459.646 Q516.269 458.958 516.269 457.771 Q516.269 456.646 515.675 455.990 Q515.081 455.333 514.175 455.333 Q513.284 455.333 512.659 455.990 Q512.034 456.646 512.034 457.708 Z"/>
  <path d="M518.737 455.833 Q518.737 453.927 519.128 452.763 Q519.519 451.599 520.292 450.966 Q521.066 450.333 522.237 450.333 Q523.097 450.333 523.753 450.685 Q524.409 451.036 524.831 451.693 Q525.253 452.349 525.495 453.294 Q525.737 454.240 525.737 455.833 Q525.737 457.740 525.347 458.904 Q524.956 460.068 524.183 460.701 Q523.409 461.333 522.237 461.333 Q520.691 461.333 519.800 460.224 Q518.737 458.865 518.737 455.833 Z M520.097 455.833 Q520.097 458.536 520.714 459.435 Q521.331 460.333 522.237 460.333 Q523.144 460.333 523.761 459.435 Q524.378 458.536 524.378 455.833 Q524.378 453.115 523.761 452.224 Q523.144 451.333 522.222 451.333 Q521.316 451.333 520.769 452.115 Q520.097 453.130 520.097 455.833 Z"/>
  <path d="M527.628 461.333 L527.628 460.333 L529.128 460.333 L529.128 461.333 L527.628 461.333 Z"/>
  <path d="M530.972 455.833 Q530.972 453.927 531.362 452.763 Q531.753 451.599 532.526 450.966 Q533.300 450.333 534.472 450.333 Q535.331 450.333 535.987 450.685 Q536.644 451.036 537.066 451.693 Q537.487 452.349 537.730 453.294 Q537.972 454.240 537.972 455.833 Q537.972 457.740 537.581 458.904 Q537.191 460.068 536.417 460.701 Q535.644 461.333 534.472 461.333 Q532.925 461.333 532.034 460.224 Q530.972 458.865 530.972 455.833 Z M532.331 455.833 Q532.331 458.536 532.948 459.435 Q533.566 460.333 534.472 460.333 Q535.378 460.333 535.995 459.435 Q536.612 458.536 536.612 455.833 Q536.612 453.115 535.995 452.224 Q535.378 451.333 534.456 451.333 Q533.550 451.333 533.003 452.115 Q532.331 453.130 532.331 455.833 Z"/>
  <path d="M620.843 451.333 L620.843 450.333 L627.796 450.333 L627.796 451.146 Q626.781 452.240 625.773 454.177 Q624.765 456.115 624.203 458.161 Q623.812 459.615 623.703 461.333 L622.359 461.333 Q622.374 459.974 622.851 458.052 Q623.328 456.130 624.218 454.341 Q625.109 452.552 626.109 451.333 L620.843 451.333 Z"/>
  <path d="M628.921 458.333 L630.296 458.333 Q630.453 459.333 631.015 459.833 Q631.578 460.333 632.359 460.333 Q633.312 460.333 633.976 459.622 Q634.640 458.911 634.640 457.740 Q634.640 456.630 634.007 455.982 Q633.374 455.333 632.343 455.333 Q631.703 455.333 631.195 455.615 Q630.687 455.896 630.390 456.333 L629.156 456.333 L630.187 450.333 L635.531 450.333 L635.531 451.333 L631.249 451.333 L630.671 454.911 Q631.640 454.333 632.703 454.333 Q634.093 454.333 635.062 455.271 Q636.031 456.208 636.031 457.661 Q636.031 459.068 635.187 460.083 Q634.156 461.333 632.359 461.333 Q630.906 461.333 629.976 460.513 Q629.046 459.693 628.921 458.333 Z"/>
  <path d="M637.812 461.333 L637.812 460.333 L639.312 460.333 L639.312 461.333 L637.812 461.333 Z"/>
  <path d="M641.156 455.833 Q641.156 453.927 641.546 452.763 Q641.937 451.599 642.710 450.966 Q643.484 450.333 644.656 450.333 Q645.515 450.333 646.171 450.685 Q646.828 451.036 647.249 451.693 Q647.671 452.349 647.914 453.294 Q648.156 454.240 648.156 455.833 Q648.156 457.740 647.765 458.904 Q647.374 460.068 646.601 460.701 Q645.828 461.333 644.656 461.333 Q643.109 461.333 642.218 460.224 Q641.156 458.865 641.156 455.833 Z M642.515 455.833 Q642.515 458.536 643.132 459.435 Q643.749 460.333 644.656 460.333 Q645.562 460.333 646.179 459.435 Q646.796 458.536 646.796 455.833 Q646.796 453.115 646.179 452.224 Q645.562 451.333 644.640 451.333 Q643.734 451.333 643.187 452.115 Q642.515 453.130 642.515 455.833 Z"/>
  <path d="M731.152 458.333 L732.418 458.333 Q732.574 459.380 733.027 459.857 Q733.480 460.333 734.199 460.333 Q734.793 460.333 735.254 460.029 Q735.715 459.724 736.004 459.216 Q736.293 458.708 736.496 457.857 Q736.699 457.005 736.699 456.177 Q736.699 456.099 736.683 455.927 Q736.293 456.552 735.605 456.943 Q734.918 457.333 734.121 457.333 Q732.793 457.333 731.871 456.388 Q730.949 455.443 730.949 453.880 Q730.949 452.286 731.910 451.310 Q732.871 450.333 734.324 450.333 Q735.371 450.333 736.238 450.896 Q737.105 451.458 737.558 452.505 Q738.012 453.552 738.012 455.536 Q738.012 457.615 737.566 458.833 Q737.121 460.052 736.238 460.693 Q735.355 461.333 734.168 461.333 Q732.902 461.333 732.105 460.544 Q731.308 459.755 731.152 458.333 Z M736.543 453.865 Q736.543 452.693 735.941 452.013 Q735.340 451.333 734.480 451.333 Q733.605 451.333 732.957 452.068 Q732.308 452.802 732.308 453.974 Q732.308 455.021 732.926 455.677 Q733.543 456.333 734.449 456.333 Q735.371 456.333 735.957 455.677 Q736.543 455.021 736.543 453.865 Z"/>
  <path d="M739.105 455.833 Q739.105 453.927 739.496 452.763 Q739.887 451.599 740.660 450.966 Q741.433 450.333 742.605 450.333 Q743.465 450.333 744.121 450.685 Q744.777 451.036 745.199 451.693 Q745.621 452.349 745.863 453.294 Q746.105 454.240 746.105 455.833 Q746.105 457.740 745.715 458.904 Q745.324 460.068 744.551 460.701 Q743.777 461.333 742.605 461.333 Q741.058 461.333 740.168 460.224 Q739.105 458.865 739.105 455.833 Z M740.465 455.833 Q740.465 458.536 741.082 459.435 Q741.699 460.333 742.605 460.333 Q743.512 460.333 744.129 459.435 Q744.746 458.536 744.746 455.833 Q744.746 453.115 744.129 452.224 Q743.512 451.333 742.590 451.333 Q741.683 451.333 741.137 452.115 Q740.465 453.130 740.465 455.833 Z"/>
  <path d="M747.996 461.333 L747.996 460.333 L749.496 460.333 L749.496 461.333 L747.996 461.333 Z"/>
  <path d="M751.340 455.833 Q751.340 453.927 751.730 452.763 Q752.121 451.599 752.894 450.966 Q753.668 450.333 754.840 450.333 Q755.699 450.333 756.355 450.685 Q757.012 451.036 757.433 451.693 Q757.855 452.349 758.098 453.294 Q758.340 454.240 758.340 455.833 Q758.340 457.740 757.949 458.904 Q757.558 460.068 756.785 460.701 Q756.012 461.333 754.840 461.333 Q753.293 461.333 752.402 460.224 Q751.340 458.865 751.340 455.833 Z M752.699 455.833 Q752.699 458.536 753.316 459.435 Q753.933 460.333 754.840 460.333 Q755.746 460.333 756.363 459.435 Q756.980 458.536 756.980 455.833 Q756.980 453.115 756.363 452.224 Q755.746 451.333 754.824 451.333 Q753.918 451.333 753.371 452.115 Q752.699 453.130 752.699 455.833 Z"/>
  <path d="M842.024 461.333 L840.696 461.333 L840.696 452.755 Q840.227 453.224 839.453 453.685 Q838.680 454.146 838.071 454.380 L838.071 453.083 Q839.180 452.552 840.000 451.794 Q840.821 451.036 841.164 450.333 L842.024 450.333 L842.024 461.333 Z"/>
  <path d="M845.211 455.833 Q845.211 453.927 845.602 452.763 Q845.992 451.599 846.766 450.966 Q847.539 450.333 848.711 450.333 Q849.571 450.333 850.227 450.685 Q850.883 451.036 851.305 451.693 Q851.727 452.349 851.969 453.294 Q852.211 454.240 852.211 455.833 Q852.211 457.740 851.821 458.904 Q851.430 460.068 850.656 460.701 Q849.883 461.333 848.711 461.333 Q847.164 461.333 846.274 460.224 Q845.211 458.865 845.211 455.833 Z M846.571 455.833 Q846.571 458.536 847.188 459.435 Q847.805 460.333 848.711 460.333 Q849.617 460.333 850.235 459.435 Q850.852 458.536 850.852 455.833 Q850.852 453.115 850.235 452.224 Q849.617 451.333 848.696 451.333 Q847.789 451.333 847.242 452.115 Q846.571 453.130 846.571 455.833 Z"/>
  <path d="M853.367 458.333 L854.742 458.333 Q854.899 459.333 855.461 459.833 Q856.024 460.333 856.805 460.333 Q857.758 460.333 858.422 459.622 Q859.086 458.911 859.086 457.740 Q859.086 456.630 858.453 455.982 Q857.821 455.333 856.789 455.333 Q856.149 455.333 855.641 455.615 Q855.133 455.896 854.836 456.333 L853.602 456.333 L854.633 450.333 L859.977 450.333 L859.977 451.333 L855.696 451.333 L855.117 454.911 Q856.086 454.333 857.149 454.333 Q858.539 454.333 859.508 455.271 Q860.477 456.208 860.477 457.661 Q860.477 459.068 859.633 460.083 Q858.602 461.333 856.805 461.333 Q855.352 461.333 854.422 460.513 Q853.492 459.693 853.367 458.333 Z"/>
  <path d="M862.258 461.333 L862.258 460.333 L863.758 460.333 L863.758 461.333 L862.258 461.333 Z"/>
  <path d="M865.602 455.833 Q865.602 453.927 865.992 452.763 Q866.383 451.599 867.156 450.966 Q867.930 450.333 869.102 450.333 Q869.961 450.333 870.617 450.685 Q871.274 451.036 871.696 451.693 Q872.117 452.349 872.360 453.294 Q872.602 454.240 872.602 455.833 Q872.602 457.740 872.211 458.904 Q871.821 460.068 871.047 460.701 Q870.274 461.333 869.102 461.333 Q867.555 461.333 866.664 460.224 Q865.602 458.865 865.602 455.833 Z M866.961 455.833 Q866.961 458.536 867.578 459.435 Q868.196 460.333 869.102 460.333 Q870.008 460.333 870.625 459.435 Q871.242 458.536 871.242 455.833 Q871.242 453.115 870.625 452.224 Q870.008 451.333 869.086 451.333 Q868.180 451.333 867.633 452.115 Q866.961 453.130 866.961 455.833 Z"/>
  <path d="M952.208 461.333 L950.879 461.333 L950.879 452.755 Q950.411 453.224 949.637 453.685 Q948.864 454.146 948.254 454.380 L948.254 453.083 Q949.364 452.552 950.184 451.794 Q951.004 451.036 951.348 450.333 L952.208 450.333 L952.208 461.333 Z"/>
  <path d="M962.317 460.333 L962.317 461.333 L955.223 461.333 Q955.208 460.943 955.379 460.568 Q955.645 459.958 956.247 459.372 Q956.848 458.786 957.973 457.724 Q959.723 456.068 960.340 455.138 Q960.958 454.208 960.958 453.396 Q960.958 452.521 960.395 451.927 Q959.833 451.333 958.942 451.333 Q957.989 451.333 957.411 451.865 Q956.833 452.396 956.833 453.333 L955.473 453.333 Q955.614 451.865 956.520 451.099 Q957.426 450.333 958.958 450.333 Q960.504 450.333 961.403 451.224 Q962.301 452.115 962.301 453.443 Q962.301 454.115 962.036 454.763 Q961.770 455.411 961.161 456.130 Q960.551 456.849 959.129 458.130 Q957.942 459.193 957.606 459.568 Q957.270 459.943 957.051 460.333 L962.317 460.333 Z"/>
  <path d="M963.551 455.833 Q963.551 453.927 963.942 452.763 Q964.333 451.599 965.106 450.966 Q965.879 450.333 967.051 450.333 Q967.911 450.333 968.567 450.685 Q969.223 451.036 969.645 451.693 Q970.067 452.349 970.309 453.294 Q970.551 454.240 970.551 455.833 Q970.551 457.740 970.161 458.904 Q969.770 460.068 968.997 460.701 Q968.223 461.333 967.051 461.333 Q965.504 461.333 964.614 460.224 Q963.551 458.865 963.551 455.833 Z M964.911 455.833 Q964.911 458.536 965.528 459.435 Q966.145 460.333 967.051 460.333 Q967.958 460.333 968.575 459.435 Q969.192 458.536 969.192 455.833 Q969.192 453.115 968.575 452.224 Q967.958 451.333 967.036 451.333 Q966.129 451.333 965.583 452.115 Q964.911 453.130 964.911 455.833 Z"/>
  <path d="M972.442 461.333 L972.442 460.333 L973.942 460.333 L973.942 461.333 L972.442 461.333 Z"/>
  <path d="M975.786 455.833 Q975.786 453.927 976.176 452.763 Q976.567 451.599 977.340 450.966 Q978.114 450.333 979.286 450.333 Q980.145 450.333 980.801 450.685 Q981.458 451.036 981.879 451.693 Q982.301 452.349 982.544 453.294 Q982.786 454.240 982.786 455.833 Q982.786 457.740 982.395 458.904 Q982.004 460.068 981.231 460.701 Q980.458 461.333 979.286 461.333 Q977.739 461.333 976.848 460.224 Q975.786 458.865 975.786 455.833 Z M977.145 455.833 Q977.145 458.536 977.762 459.435 Q978.379 460.333 979.286 460.333 Q980.192 460.333 980.809 459.435 Q981.426 458.536 981.426 455.833 Q981.426 453.115 980.809 452.224 Q980.192 451.333 979.270 451.333 Q978.364 451.333 977.817 452.115 Q977.145 453.130 977.145 455.833 Z"/>
  <path d="M1062.392 461.333 L1061.063 461.333 L1061.063 452.755 Q1060.595 453.224 1059.821 453.685 Q1059.048 454.146 1058.438 454.380 L1058.438 453.083 Q1059.548 452.552 1060.368 451.794 Q1061.188 451.036 1061.532 450.333 L1062.392 450.333 L1062.392 461.333 Z"/>
  <path d="M1065.579 458.333 L1066.907 458.333 Q1067.142 459.396 1067.681 459.865 Q1068.220 460.333 1069.001 460.333 Q1069.938 460.333 1070.579 459.716 Q1071.220 459.099 1071.220 458.193 Q1071.220 457.318 1070.626 456.747 Q1070.032 456.177 1069.110 456.177 Q1068.735 456.177 1068.188 456.333 L1068.329 455.333 Q1068.470 455.349 1068.548 455.349 Q1069.392 455.349 1070.063 454.841 Q1070.735 454.333 1070.735 453.271 Q1070.735 452.443 1070.243 451.888 Q1069.751 451.333 1068.970 451.333 Q1068.204 451.333 1067.688 451.833 Q1067.173 452.333 1067.032 453.333 L1065.720 453.333 Q1065.954 451.911 1066.813 451.122 Q1067.673 450.333 1068.954 450.333 Q1069.829 450.333 1070.571 450.740 Q1071.313 451.146 1071.704 451.849 Q1072.095 452.552 1072.095 453.349 Q1072.095 454.099 1071.720 454.716 Q1071.345 455.333 1070.610 455.693 Q1071.563 455.896 1072.087 456.544 Q1072.610 457.193 1072.610 458.177 Q1072.610 459.490 1071.587 460.411 Q1070.563 461.333 1068.985 461.333 Q1067.579 461.333 1066.642 460.497 Q1065.704 459.661 1065.579 458.333 Z"/>
  <path d="M1073.735 458.333 L1075.110 458.333 Q1075.267 459.333 1075.829 459.833 Q1076.392 460.333 1077.173 460.333 Q1078.126 460.333 1078.790 459.622 Q1079.454 458.911 1079.454 457.740 Q1079.454 456.630 1078.821 455.982 Q1078.188 455.333 1077.157 455.333 Q1076.517 455.333 1076.009 455.615 Q1075.501 455.896 1075.204 456.333 L1073.970 456.333 L1075.001 450.333 L1080.345 450.333 L1080.345 451.333 L1076.063 451.333 L1075.485 454.911 Q1076.454 454.333 1077.517 454.333 Q1078.907 454.333 1079.876 455.271 Q1080.845 456.208 1080.845 457.661 Q1080.845 459.068 1080.001 460.083 Q1078.970 461.333 1077.173 461.333 Q1075.720 461.333 1074.790 460.513 Q1073.860 459.693 1073.735 458.333 Z"/>
  <path d="M1082.626 461.333 L1082.626 460.333 L1084.126 460.333 L1084.126 461.333 L1082.626 461.333 Z"/>
  <path d="M1085.970 455.833 Q1085.970 453.927 1086.360 452.763 Q1086.751 451.599 1087.524 450.966 Q1088.298 450.333 1089.470 450.333 Q1090.329 450.333 1090.985 450.685 Q1091.642 451.036 1092.063 451.693 Q1092.485 452.349 1092.728 453.294 Q1092.970 454.240 1092.970 455.833 Q1092.970 457.740 1092.579 458.904 Q1092.188 460.068 1091.415 460.701 Q1090.642 461.333 1089.470 461.333 Q1087.923 461.333 1087.032 460.224 Q1085.970 458.865 1085.970 455.833 Z M1087.329 455.833 Q1087.329 458.536 1087.946 459.435 Q1088.563 460.333 1089.470 460.333 Q1090.376 460.333 1090.993 459.435 Q1091.610 458.536 1091.610 455.833 Q1091.610 453.115 1090.993 452.224 Q1090.376 451.333 1089.454 451.333 Q1088.548 451.333 1088.001 452.115 Q1087.329 453.130 1087.329 455.833 Z"/>
  <path d="M1172.576 461.333 L1171.247 461.333 L1171.247 452.755 Q1170.779 453.224 1170.005 453.685 Q1169.232 454.146 1168.622 454.380 L1168.622 453.083 Q1169.732 452.552 1170.552 451.794 Q1171.372 451.036 1171.716 450.333 L1172.576 450.333 L1172.576 461.333 Z"/>
  <path d="M1175.763 458.333 L1177.138 458.333 Q1177.294 459.333 1177.857 459.833 Q1178.419 460.333 1179.201 460.333 Q1180.154 460.333 1180.818 459.622 Q1181.482 458.911 1181.482 457.740 Q1181.482 456.630 1180.849 455.982 Q1180.216 455.333 1179.185 455.333 Q1178.544 455.333 1178.036 455.615 Q1177.529 455.896 1177.232 456.333 L1175.997 456.333 L1177.029 450.333 L1182.372 450.333 L1182.372 451.333 L1178.091 451.333 L1177.513 454.911 Q1178.482 454.333 1179.544 454.333 Q1180.935 454.333 1181.904 455.271 Q1182.872 456.208 1182.872 457.661 Q1182.872 459.068 1182.029 460.083 Q1180.997 461.333 1179.201 461.333 Q1177.747 461.333 1176.818 460.513 Q1175.888 459.693 1175.763 458.333 Z"/>
  <path d="M1183.919 455.833 Q1183.919 453.927 1184.310 452.763 Q1184.701 451.599 1185.474 450.966 Q1186.247 450.333 1187.419 450.333 Q1188.279 450.333 1188.935 450.685 Q1189.591 451.036 1190.013 451.693 Q1190.435 452.349 1190.677 453.294 Q1190.919 454.240 1190.919 455.833 Q1190.919 457.740 1190.529 458.904 Q1190.138 460.068 1189.365 460.701 Q1188.591 461.333 1187.419 461.333 Q1185.872 461.333 1184.982 460.224 Q1183.919 458.865 1183.919 455.833 Z M1185.279 455.833 Q1185.279 458.536 1185.896 459.435 Q1186.513 460.333 1187.419 460.333 Q1188.326 460.333 1188.943 459.435 Q1189.560 458.536 1189.560 455.833 Q1189.560 453.115 1188.943 452.224 Q1188.326 451.333 1187.404 451.333 Q1186.497 451.333 1185.951 452.115 Q1185.279 453.130 1185.279 455.833 Z"/>
  <path d="M1192.810 461.333 L1192.810 460.333 L1194.310 460.333 L1194.310 461.333 L1192.810 461.333 Z"/>
  <path d="M1196.154 455.833 Q1196.154 453.927 1196.544 452.763 Q1196.935 451.599 1197.708 450.966 Q1198.482 450.333 1199.654 450.333 Q1200.513 450.333 1201.169 450.685 Q1201.826 451.036 1202.247 451.693 Q1202.669 452.349 1202.911 453.294 Q1203.154 454.240 1203.154 455.833 Q1203.154 457.740 1202.763 458.904 Q1202.372 460.068 1201.599 460.701 Q1200.826 461.333 1199.654 461.333 Q1198.107 461.333 1197.216 460.224 Q1196.154 458.865 1196.154 455.833 Z M1197.513 455.833 Q1197.513 458.536 1198.130 459.435 Q1198.747 460.333 1199.654 460.333 Q1200.560 460.333 1201.177 459.435 Q1201.794 458.536 1201.794 455.833 Q1201.794 453.115 1201.177 452.224 Q1200.560 451.333 1199.638 451.333 Q1198.732 451.333 1198.185 452.115 Q1197.513 453.130 1197.513 455.833 Z"/>
  <path d="M83.494 435.600 L83.494 14.667" fill="none" stroke="#000000" stroke-width="1.333"/>
  <path d="M83.494 435.600 L88.827 435.600" fill="none" stroke="#000000" stroke-width="1.333"/>
  <path d="M83.494 393.507 L88.827 393.507" fill="none" stroke="#000000" stroke-width="1.333"/>
  <path d="M83.494 351.413 L88.827 351.413" fill="none" stroke="#000000" stroke-width="1.333"/>
  <path d="M83.494 309.320 L88.827 309.320" fill="none" stroke="#000000" stroke-width="1.333"/>
  <path d="M83.494 267.227 L88.827 267.227" fill="none" stroke="#000000" stroke-width="1.333"/>
  <path d="M83.494 225.133 L88.827 225.133" fill="none" stroke="#000000" stroke-width="1.333"/>
  <path d="M83.494 183.040 L88.827 183.040" fill="none" stroke="#000000" stroke-width="1.333"/>
  <path d="M83.494 140.947 L88.827 140.947" fill="none" stroke="#000000" stroke-width="1.333"/>
  <path d="M83.494 98.853 L88.827 98.853" fill="none" stroke="#000000" stroke-width="1.333"/>
  <path d="M83.494 56.760 L88.827 56.760" fill="none" stroke="#000000" stroke-width="1.333"/>
  <path d="M83.494 14.667 L88.827 14.667" fill="none" stroke="#000000" stroke-width="1.333"/>
  <path d="M15.292 435.100 Q15.292 433.194 15.682 432.030 Q16.073 430.866 16.846 430.233 Q17.620 429.600 18.792 429.600 Q19.651 429.600 20.307 429.952 Q20.964 430.303 21.385 430.959 Q21.807 431.616 22.049 432.561 Q22.292 433.506 22.292 435.100 Q22.292 437.006 21.901 438.170 Q21.510 439.334 20.737 439.967 Q19.964 440.600 18.792 440.600 Q17.245 440.600 16.354 439.491 Q15.292 438.131 15.292 435.100 Z M16.651 435.100 Q16.651 437.803 17.268 438.702 Q17.885 439.600 18.792 439.600 Q19.698 439.600 20.315 438.702 Q20.932 437.803 20.932 435.100 Q20.932 432.381 20.315 431.491 Q19.698 430.600 18.776 430.600 Q17.870 430.600 17.323 431.381 Q16.651 432.397 16.651 435.100 Z"/>
  <path d="M23.448 437.600 L24.823 437.600 Q24.979 438.600 25.542 439.100 Q26.104 439.600 26.885 439.600 Q27.839 439.600 28.503 438.889 Q29.167 438.178 29.167 437.006 Q29.167 435.897 28.534 435.248 Q27.901 434.600 26.870 434.600 Q26.229 434.600 25.721 434.881 Q25.214 435.163 24.917 435.600 L23.682 435.600 L24.714 429.600 L30.057 429.600 L30.057 430.600 L25.776 430.600 L25.198 434.178 Q26.167 433.600 27.229 433.600 Q28.620 433.600 29.589 434.538 Q30.557 435.475 30.557 436.928 Q30.557 438.334 29.714 439.350 Q28.682 440.600 26.885 440.600 Q25.432 440.600 24.503 439.780 Q23.573 438.959 23.448 437.600 Z"/>
  <path d="M32.339 433.600 L32.339 432.600 L33.839 432.600 L33.839 433.600 L32.339 433.600 Z M32.339 440.600 L32.339 439.600 L33.839 439.600 L33.839 440.600 L32.339 440.600 Z"/>
  <path d="M40.651 440.600 L39.323 440.600 L39.323 432.022 Q38.854 432.491 38.081 432.952 Q37.307 433.413 36.698 433.647 L36.698 432.350 Q37.807 431.819 38.628 431.061 Q39.448 430.303 39.792 429.600 L40.651 429.600 L40.651 440.600 Z"/>
  <path d="M43.839 437.600 L45.214 437.600 Q45.370 438.600 45.932 439.100 Q46.495 439.600 47.276 439.600 Q48.229 439.600 48.893 438.889 Q49.557 438.178 49.557 437.006 Q49.557 435.897 48.924 435.248 Q48.292 434.600 47.260 434.600 Q46.620 434.600 46.112 434.881 Q45.604 435.163 45.307 435.600 L44.073 435.600 L45.104 429.600 L50.448 429.600 L50.448 430.600 L46.167 430.600 L45.589 434.178 Q46.557 433.600 47.620 433.600 Q49.010 433.600 49.979 434.538 Q50.948 435.475 50.948 436.928 Q50.948 438.334 50.104 439.350 Q49.073 440.600 47.276 440.600 Q45.823 440.600 44.893 439.780 Q43.964 438.959 43.839 437.600 Z"/>
  <path d="M52.729 433.600 L52.729 432.600 L54.229 432.600 L54.229 433.600 L52.729 433.600 Z M52.729 440.600 L52.729 439.600 L54.229 439.600 L54.229 440.600 L52.729 440.600 Z"/>
  <path d="M56.073 435.100 Q56.073 433.194 56.464 432.030 Q56.854 430.866 57.628 430.233 Q58.401 429.600 59.573 429.600 Q60.432 429.600 61.089 429.952 Q61.745 430.303 62.167 430.959 Q62.589 431.616 62.831 432.561 Q63.073 433.506 63.073 435.100 Q63.073 437.006 62.682 438.170 Q62.292 439.334 61.518 439.967 Q60.745 440.600 59.573 440.600 Q58.026 440.600 57.135 439.491 Q56.073 438.131 56.073 435.100 Z M57.432 435.100 Q57.432 437.803 58.049 438.702 Q58.667 439.600 59.573 439.600 Q60.479 439.600 61.096 438.702 Q61.714 437.803 61.714 435.100 Q61.714 432.381 61.096 431.491 Q60.479 430.600 59.557 430.600 Q58.651 430.600 58.104 431.381 Q57.432 432.397 57.432 435.100 Z"/>
  <path d="M64.229 435.100 Q64.229 433.194 64.620 432.030 Q65.010 430.866 65.784 430.233 Q66.557 429.600 67.729 429.600 Q68.589 429.600 69.245 429.952 Q69.901 430.303 70.323 430.959 Q70.745 431.616 70.987 432.561 Q71.229 433.506 71.229 435.100 Q71.229 437.006 70.839 438.170 Q70.448 439.334 69.674 439.967 Q68.901 440.600 67.729 440.600 Q66.182 440.600 65.292 439.491 Q64.229 438.131 64.229 435.100 Z M65.589 435.100 Q65.589 437.803 66.206 438.702 Q66.823 439.600 67.729 439.600 Q68.635 439.600 69.253 438.702 Q69.870 437.803 69.870 435.100 Q69.870 432.381 69.253 431.491 Q68.635 430.600 67.714 430.600 Q66.807 430.600 66.260 431.381 Q65.589 432.397 65.589 435.100 Z"/>
  <path d="M15.292 393.007 Q15.292 391.100 15.682 389.936 Q16.073 388.772 16.846 388.139 Q17.620 387.507 18.792 387.507 Q19.651 387.507 20.307 387.858 Q20.964 388.210 21.385 388.866 Q21.807 389.522 22.049 390.468 Q22.292 391.413 22.292 393.007 Q22.292 394.913 21.901 396.077 Q21.510 397.241 20.737 397.874 Q19.964 398.507 18.792 398.507 Q17.245 398.507 16.354 397.397 Q15.292 396.038 15.292 393.007 Z M16.651 393.007 Q16.651 395.710 17.268 396.608 Q17.885 397.507 18.792 397.507 Q19.698 397.507 20.315 396.608 Q20.932 395.710 20.932 393.007 Q20.932 390.288 20.315 389.397 Q19.698 388.507 18.776 388.507 Q17.870 388.507 17.323 389.288 Q16.651 390.304 16.651 393.007 Z"/>
  <path d="M23.448 395.507 L24.823 395.507 Q24.979 396.507 25.542 397.007 Q26.104 397.507 26.885 397.507 Q27.839 397.507 28.503 396.796 Q29.167 396.085 29.167 394.913 Q29.167 393.804 28.534 393.155 Q27.901 392.507 26.870 392.507 Q26.229 392.507 25.721 392.788 Q25.214 393.069 24.917 393.507 L23.682 393.507 L24.714 387.507 L30.057 387.507 L30.057 388.507 L25.776 388.507 L25.198 392.085 Q26.167 391.507 27.229 391.507 Q28.620 391.507 29.589 392.444 Q30.557 393.382 30.557 394.835 Q30.557 396.241 29.714 397.257 Q28.682 398.507 26.885 398.507 Q25.432 398.507 24.503 397.686 Q23.573 396.866 23.448 395.507 Z"/>
  <path d="M32.339 391.507 L32.339 390.507 L33.839 390.507 L33.839 391.507 L32.339 391.507 Z M32.339 398.507 L32.339 397.507 L33.839 397.507 L33.839 398.507 L32.339 398.507 Z"/>
  <path d="M35.682 395.507 L37.057 395.507 Q37.214 396.507 37.776 397.007 Q38.339 397.507 39.120 397.507 Q40.073 397.507 40.737 396.796 Q41.401 396.085 41.401 394.913 Q41.401 393.804 40.768 393.155 Q40.135 392.507 39.104 392.507 Q38.464 392.507 37.956 392.788 Q37.448 393.069 37.151 393.507 L35.917 393.507 L36.948 387.507 L42.292 387.507 L42.292 388.507 L38.010 388.507 L37.432 392.085 Q38.401 391.507 39.464 391.507 Q40.854 391.507 41.823 392.444 Q42.792 393.382 42.792 394.835 Q42.792 396.241 41.948 397.257 Q40.917 398.507 39.120 398.507 Q37.667 398.507 36.737 397.686 Q35.807 396.866 35.682 395.507 Z"/>
  <path d="M48.807 398.507 L47.479 398.507 L47.479 389.929 Q47.010 390.397 46.237 390.858 Q45.464 391.319 44.854 391.554 L44.854 390.257 Q45.964 389.725 46.784 388.968 Q47.604 388.210 47.948 387.507 L48.807 387.507 L48.807 398.507 Z"/>
  <path d="M52.729 391.507 L52.729 390.507 L54.229 390.507 L54.229 391.507 L52.729 391.507 Z M52.729 398.507 L52.729 397.507 L54.229 397.507 L54.229 398.507 L52.729 398.507 Z"/>
  <path d="M56.073 393.007 Q56.073 391.100 56.464 389.936 Q56.854 388.772 57.628 388.139 Q58.401 387.507 59.573 387.507 Q60.432 387.507 61.089 387.858 Q61.745 388.210 62.167 388.866 Q62.589 389.522 62.831 390.468 Q63.073 391.413 63.073 393.007 Q63.073 394.913 62.682 396.077 Q62.292 397.241 61.518 397.874 Q60.745 398.507 59.573 398.507 Q58.026 398.507 57.135 397.397 Q56.073 396.038 56.073 393.007 Z M57.432 393.007 Q57.432 395.710 58.049 396.608 Q58.667 397.507 59.573 397.507 Q60.479 397.507 61.096 396.608 Q61.714 395.710 61.714 393.007 Q61.714 390.288 61.096 389.397 Q60.479 388.507 59.557 388.507 Q58.651 388.507 58.104 389.288 Q57.432 390.304 57.432 393.007 Z"/>
  <path d="M64.229 393.007 Q64.229 391.100 64.620 389.936 Q65.010 388.772 65.784 388.139 Q66.557 387.507 67.729 387.507 Q68.589 387.507 69.245 387.858 Q69.901 388.210 70.323 388.866 Q70.745 389.522 70.987 390.468 Q71.229 391.413 71.229 393.007 Q71.229 394.913 70.839 396.077 Q70.448 397.241 69.674 397.874 Q68.901 398.507 67.729 398.507 Q66.182 398.507 65.292 397.397 Q64.229 396.038 64.229 393.007 Z M65.589 393.007 Q65.589 395.710 66.206 396.608 Q66.823 397.507 67.729 397.507 Q68.635 397.507 69.253 396.608 Q69.870 395.710 69.870 393.007 Q69.870 390.288 69.253 389.397 Q68.635 388.507 67.714 388.507 Q66.807 388.507 66.260 389.288 Q65.589 390.304 65.589 393.007 Z"/>
  <path d="M15.292 350.913 Q15.292 349.007 15.682 347.843 Q16.073 346.679 16.846 346.046 Q17.620 345.413 18.792 345.413 Q19.651 345.413 20.307 345.765 Q20.964 346.116 21.385 346.773 Q21.807 347.429 22.049 348.374 Q22.292 349.320 22.292 350.913 Q22.292 352.820 21.901 353.984 Q21.510 355.148 20.737 355.781 Q19.964 356.413 18.792 356.413 Q17.245 356.413 16.354 355.304 Q15.292 353.945 15.292 350.913 Z M16.651 350.913 Q16.651 353.616 17.268 354.515 Q17.885 355.413 18.792 355.413 Q19.698 355.413 20.315 354.515 Q20.932 353.616 20.932 350.913 Q20.932 348.195 20.315 347.304 Q19.698 346.413 18.776 346.413 Q17.870 346.413 17.323 347.195 Q16.651 348.210 16.651 350.913 Z"/>
  <path d="M30.292 348.413 L28.979 348.413 Q28.807 347.491 28.479 347.085 Q27.948 346.413 27.167 346.413 Q26.526 346.413 26.057 346.804 Q25.432 347.304 25.073 348.257 Q24.714 349.210 24.698 350.851 Q25.167 350.116 25.862 349.765 Q26.557 349.413 27.307 349.413 Q28.620 349.413 29.549 350.366 Q30.479 351.320 30.479 352.820 Q30.479 353.804 30.042 354.656 Q29.604 355.507 28.846 355.960 Q28.089 356.413 27.120 356.413 Q25.464 356.413 24.424 355.195 Q23.385 353.976 23.385 351.195 Q23.385 348.070 24.542 346.648 Q25.542 345.413 27.245 345.413 Q28.510 345.413 29.323 346.210 Q30.135 347.007 30.292 348.413 Z M24.901 352.788 Q24.901 353.476 25.190 354.109 Q25.479 354.741 26.003 355.077 Q26.526 355.413 27.089 355.413 Q27.932 355.413 28.534 354.726 Q29.135 354.038 29.135 352.851 Q29.135 351.726 28.542 351.070 Q27.948 350.413 27.042 350.413 Q26.151 350.413 25.526 351.070 Q24.901 351.726 24.901 352.788 Z"/>
  <path d="M32.339 349.413 L32.339 348.413 L33.839 348.413 L33.839 349.413 L32.339 349.413 Z M32.339 356.413 L32.339 355.413 L33.839 355.413 L33.839 356.413 L32.339 356.413 Z"/>
  <path d="M42.604 355.413 L42.604 356.413 L35.510 356.413 Q35.495 356.023 35.667 355.648 Q35.932 355.038 36.534 354.452 Q37.135 353.866 38.260 352.804 Q40.010 351.148 40.628 350.218 Q41.245 349.288 41.245 348.476 Q41.245 347.601 40.682 347.007 Q40.120 346.413 39.229 346.413 Q38.276 346.413 37.698 346.945 Q37.120 347.476 37.120 348.413 L35.760 348.413 Q35.901 346.945 36.807 346.179 Q37.714 345.413 39.245 345.413 Q40.792 345.413 41.690 346.304 Q42.589 347.195 42.589 348.523 Q42.589 349.195 42.323 349.843 Q42.057 350.491 41.448 351.210 Q40.839 351.929 39.417 353.210 Q38.229 354.273 37.893 354.648 Q37.557 355.023 37.339 355.413 L42.604 355.413 Z"/>
  <path d="M43.917 346.413 L43.917 345.413 L50.870 345.413 L50.870 346.226 Q49.854 347.320 48.846 349.257 Q47.839 351.195 47.276 353.241 Q46.885 354.695 46.776 356.413 L45.432 356.413 Q45.448 355.054 45.924 353.132 Q46.401 351.210 47.292 349.421 Q48.182 347.632 49.182 346.413 L43.917 346.413 Z"/>
  <path d="M52.729 349.413 L52.729 348.413 L54.229 348.413 L54.229 349.413 L52.729 349.413 Z M52.729 356.413 L52.729 355.413 L54.229 355.413 L54.229 356.413 L52.729 356.413 Z"/>
  <path d="M56.073 350.913 Q56.073 349.007 56.464 347.843 Q56.854 346.679 57.628 346.046 Q58.401 345.413 59.573 345.413 Q60.432 345.413 61.089 345.765 Q61.745 346.116 62.167 346.773 Q62.589 347.429 62.831 348.374 Q63.073 349.320 63.073 350.913 Q63.073 352.820 62.682 353.984 Q62.292 355.148 61.518 355.781 Q60.745 356.413 59.573 356.413 Q58.026 356.413 57.135 355.304 Q56.073 353.945 56.073 350.913 Z M57.432 350.913 Q57.432 353.616 58.049 354.515 Q58.667 355.413 59.573 355.413 Q60.479 355.413 61.096 354.515 Q61.714 353.616 61.714 350.913 Q61.714 348.195 61.096 347.304 Q60.479 346.413 59.557 346.413 Q58.651 346.413 58.104 347.195 Q57.432 348.210 57.432 350.913 Z"/>
  <path d="M64.229 350.913 Q64.229 349.007 64.620 347.843 Q65.010 346.679 65.784 346.046 Q66.557 345.413 67.729 345.413 Q68.589 345.413 69.245 345.765 Q69.901 346.116 70.323 346.773 Q70.745 347.429 70.987 348.374 Q71.229 349.320 71.229 350.913 Q71.229 352.820 70.839 353.984 Q70.448 355.148 69.674 355.781 Q68.901 356.413 67.729 356.413 Q66.182 356.413 65.292 355.304 Q64.229 353.945 64.229 350.913 Z M65.589 350.913 Q65.589 353.616 66.206 354.515 Q66.823 355.413 67.729 355.413 Q68.635 355.413 69.253 354.515 Q69.870 353.616 69.870 350.913 Q69.870 348.195 69.253 347.304 Q68.635 346.413 67.714 346.413 Q66.807 346.413 66.260 347.195 Q65.589 348.210 65.589 350.913 Z"/>
  <path d="M15.292 308.820 Q15.292 306.914 15.682 305.750 Q16.073 304.586 16.846 303.953 Q17.620 303.320 18.792 303.320 Q19.651 303.320 20.307 303.672 Q20.964 304.023 21.385 304.679 Q21.807 305.336 22.049 306.281 Q22.292 307.226 22.292 308.820 Q22.292 310.726 21.901 311.890 Q21.510 313.054 20.737 313.687 Q19.964 314.320 18.792 314.320 Q17.245 314.320 16.354 313.211 Q15.292 311.851 15.292 308.820 Z M16.651 308.820 Q16.651 311.523 17.268 312.422 Q17.885 313.320 18.792 313.320 Q19.698 313.320 20.315 312.422 Q20.932 311.523 20.932 308.820 Q20.932 306.101 20.315 305.211 Q19.698 304.320 18.776 304.320 Q17.870 304.320 17.323 305.101 Q16.651 306.117 16.651 308.820 Z"/>
  <path d="M23.526 304.320 L23.526 303.320 L30.479 303.320 L30.479 304.132 Q29.464 305.226 28.456 307.164 Q27.448 309.101 26.885 311.148 Q26.495 312.601 26.385 314.320 L25.042 314.320 Q25.057 312.961 25.534 311.039 Q26.010 309.117 26.901 307.328 Q27.792 305.539 28.792 304.320 L23.526 304.320 Z"/>
  <path d="M32.339 307.320 L32.339 306.320 L33.839 306.320 L33.839 307.320 L32.339 307.320 Z M32.339 314.320 L32.339 313.320 L33.839 313.320 L33.839 314.320 L32.339 314.320 Z"/>
  <path d="M35.682 308.820 Q35.682 306.914 36.073 305.750 Q36.464 304.586 37.237 303.953 Q38.010 303.320 39.182 303.320 Q40.042 303.320 40.698 303.672 Q41.354 304.023 41.776 304.679 Q42.198 305.336 42.440 306.281 Q42.682 307.226 42.682 308.820 Q42.682 310.726 42.292 311.890 Q41.901 313.054 41.128 313.687 Q40.354 314.320 39.182 314.320 Q37.635 314.320 36.745 313.211 Q35.682 311.851 35.682 308.820 Z M37.042 308.820 Q37.042 311.523 37.659 312.422 Q38.276 313.320 39.182 313.320 Q40.089 313.320 40.706 312.422 Q41.323 311.523 41.323 308.820 Q41.323 306.101 40.706 305.211 Q40.089 304.320 39.167 304.320 Q38.260 304.320 37.714 305.101 Q37.042 306.117 37.042 308.820 Z"/>
  <path d="M43.839 311.320 L45.167 311.320 Q45.401 312.382 45.940 312.851 Q46.479 313.320 47.260 313.320 Q48.198 313.320 48.839 312.703 Q49.479 312.086 49.479 311.179 Q49.479 310.304 48.885 309.734 Q48.292 309.164 47.370 309.164 Q46.995 309.164 46.448 309.320 L46.589 308.320 Q46.729 308.336 46.807 308.336 Q47.651 308.336 48.323 307.828 Q48.995 307.320 48.995 306.257 Q48.995 305.429 48.503 304.875 Q48.010 304.320 47.229 304.320 Q46.464 304.320 45.948 304.820 Q45.432 305.320 45.292 306.320 L43.979 306.320 Q44.214 304.898 45.073 304.109 Q45.932 303.320 47.214 303.320 Q48.089 303.320 48.831 303.726 Q49.573 304.132 49.964 304.836 Q50.354 305.539 50.354 306.336 Q50.354 307.086 49.979 307.703 Q49.604 308.320 48.870 308.679 Q49.823 308.882 50.346 309.531 Q50.870 310.179 50.870 311.164 Q50.870 312.476 49.846 313.398 Q48.823 314.320 47.245 314.320 Q45.839 314.320 44.901 313.484 Q43.964 312.648 43.839 311.320 Z"/>
  <path d="M52.729 307.320 L52.729 306.320 L54.229 306.320 L54.229 307.320 L52.729 307.320 Z M52.729 314.320 L52.729 313.320 L54.229 313.320 L54.229 314.320 L52.729 314.320 Z"/>
  <path d="M56.073 308.820 Q56.073 306.914 56.464 305.750 Q56.854 304.586 57.628 303.953 Q58.401 303.320 59.573 303.320 Q60.432 303.320 61.089 303.672 Q61.745 304.023 62.167 304.679 Q62.589 305.336 62.831 306.281 Q63.073 307.226 63.073 308.820 Q63.073 310.726 62.682 311.890 Q62.292 313.054 61.518 313.687 Q60.745 314.320 59.573 314.320 Q58.026 314.320 57.135 313.211 Q56.073 311.851 56.073 308.820 Z M57.432 308.820 Q57.432 311.523 58.049 312.422 Q58.667 313.320 59.573 313.320 Q60.479 313.320 61.096 312.422 Q61.714 311.523 61.714 308.820 Q61.714 306.101 61.096 305.211 Q60.479 304.320 59.557 304.320 Q58.651 304.320 58.104 305.101 Q57.432 306.117 57.432 308.820 Z"/>
  <path d="M64.229 308.820 Q64.229 306.914 64.620 305.750 Q65.010 304.586 65.784 303.953 Q66.557 303.320 67.729 303.320 Q68.589 303.320 69.245 303.672 Q69.901 304.023 70.323 304.679 Q70.745 305.336 70.987 306.281 Q71.229 307.226 71.229 308.820 Q71.229 310.726 70.839 311.890 Q70.448 313.054 69.674 313.687 Q68.901 314.320 67.729 314.320 Q66.182 314.320 65.292 313.211 Q64.229 311.851 64.229 308.820 Z M65.589 308.820 Q65.589 311.523 66.206 312.422 Q66.823 313.320 67.729 313.320 Q68.635 313.320 69.253 312.422 Q69.870 311.523 69.870 308.820 Q69.870 306.101 69.253 305.211 Q68.635 304.320 67.714 304.320 Q66.807 304.320 66.260 305.101 Q65.589 306.117 65.589 308.820 Z"/>
  <path d="M15.292 266.727 Q15.292 264.820 15.682 263.656 Q16.073 262.492 16.846 261.859 Q17.620 261.227 18.792 261.227 Q19.651 261.227 20.307 261.578 Q20.964 261.930 21.385 262.586 Q21.807 263.242 22.049 264.188 Q22.292 265.133 22.292 266.727 Q22.292 268.633 21.901 269.797 Q21.510 270.961 20.737 271.594 Q19.964 272.227 18.792 272.227 Q17.245 272.227 16.354 271.117 Q15.292 269.758 15.292 266.727 Z M16.651 266.727 Q16.651 269.430 17.268 270.328 Q17.885 271.227 18.792 271.227 Q19.698 271.227 20.315 270.328 Q20.932 269.430 20.932 266.727 Q20.932 264.008 20.315 263.117 Q19.698 262.227 18.776 262.227 Q17.870 262.227 17.323 263.008 Q16.651 264.024 16.651 266.727 Z"/>
  <path d="M23.526 262.227 L23.526 261.227 L30.479 261.227 L30.479 262.039 Q29.464 263.133 28.456 265.070 Q27.448 267.008 26.885 269.055 Q26.495 270.508 26.385 272.227 L25.042 272.227 Q25.057 270.867 25.534 268.945 Q26.010 267.024 26.901 265.234 Q27.792 263.445 28.792 262.227 L23.526 262.227 Z"/>
  <path d="M32.339 265.227 L32.339 264.227 L33.839 264.227 L33.839 265.227 L32.339 265.227 Z M32.339 272.227 L32.339 271.227 L33.839 271.227 L33.839 272.227 L32.339 272.227 Z"/>
  <path d="M35.682 269.227 L37.010 269.227 Q37.245 270.289 37.784 270.758 Q38.323 271.227 39.104 271.227 Q40.042 271.227 40.682 270.609 Q41.323 269.992 41.323 269.086 Q41.323 268.211 40.729 267.641 Q40.135 267.070 39.214 267.070 Q38.839 267.070 38.292 267.227 L38.432 266.227 Q38.573 266.242 38.651 266.242 Q39.495 266.242 40.167 265.734 Q40.839 265.227 40.839 264.164 Q40.839 263.336 40.346 262.781 Q39.854 262.227 39.073 262.227 Q38.307 262.227 37.792 262.727 Q37.276 263.227 37.135 264.227 L35.823 264.227 Q36.057 262.805 36.917 262.016 Q37.776 261.227 39.057 261.227 Q39.932 261.227 40.674 261.633 Q41.417 262.039 41.807 262.742 Q42.198 263.445 42.198 264.242 Q42.198 264.992 41.823 265.609 Q41.448 266.227 40.714 266.586 Q41.667 266.789 42.190 267.438 Q42.714 268.086 42.714 269.070 Q42.714 270.383 41.690 271.305 Q40.667 272.227 39.089 272.227 Q37.682 272.227 36.745 271.391 Q35.807 270.555 35.682 269.227 Z"/>
  <path d="M44.042 269.227 L45.307 269.227 Q45.464 270.274 45.917 270.750 Q46.370 271.227 47.089 271.227 Q47.682 271.227 48.143 270.922 Q48.604 270.617 48.893 270.109 Q49.182 269.602 49.385 268.750 Q49.589 267.899 49.589 267.070 Q49.589 266.992 49.573 266.820 Q49.182 267.445 48.495 267.836 Q47.807 268.227 47.010 268.227 Q45.682 268.227 44.760 267.281 Q43.839 266.336 43.839 264.774 Q43.839 263.180 44.799 262.203 Q45.760 261.227 47.214 261.227 Q48.260 261.227 49.128 261.789 Q49.995 262.352 50.448 263.399 Q50.901 264.445 50.901 266.430 Q50.901 268.508 50.456 269.727 Q50.010 270.945 49.128 271.586 Q48.245 272.227 47.057 272.227 Q45.792 272.227 44.995 271.438 Q44.198 270.649 44.042 269.227 Z M49.432 264.758 Q49.432 263.586 48.831 262.906 Q48.229 262.227 47.370 262.227 Q46.495 262.227 45.846 262.961 Q45.198 263.695 45.198 264.867 Q45.198 265.914 45.815 266.570 Q46.432 267.227 47.339 267.227 Q48.260 267.227 48.846 266.570 Q49.432 265.914 49.432 264.758 Z"/>
  <path d="M52.729 265.227 L52.729 264.227 L54.229 264.227 L54.229 265.227 L52.729 265.227 Z M52.729 272.227 L52.729 271.227 L54.229 271.227 L54.229 272.227 L52.729 272.227 Z"/>
  <path d="M56.073 266.727 Q56.073 264.820 56.464 263.656 Q56.854 262.492 57.628 261.859 Q58.401 261.227 59.573 261.227 Q60.432 261.227 61.089 261.578 Q61.745 261.930 62.167 262.586 Q62.589 263.242 62.831 264.188 Q63.073 265.133 63.073 266.727 Q63.073 268.633 62.682 269.797 Q62.292 270.961 61.518 271.594 Q60.745 272.227 59.573 272.227 Q58.026 272.227 57.135 271.117 Q56.073 269.758 56.073 266.727 Z M57.432 266.727 Q57.432 269.430 58.049 270.328 Q58.667 271.227 59.573 271.227 Q60.479 271.227 61.096 270.328 Q61.714 269.430 61.714 266.727 Q61.714 264.008 61.096 263.117 Q60.479 262.227 59.557 262.227 Q58.651 262.227 58.104 263.008 Q57.432 264.024 57.432 266.727 Z"/>
  <path d="M64.229 266.727 Q64.229 264.820 64.620 263.656 Q65.010 262.492 65.784 261.859 Q66.557 261.227 67.729 261.227 Q68.589 261.227 69.245 261.578 Q69.901 261.930 70.323 262.586 Q70.745 263.242 70.987 264.188 Q71.229 265.133 71.229 266.727 Q71.229 268.633 70.839 269.797 Q70.448 270.961 69.674 271.594 Q68.901 272.227 67.729 272.227 Q66.182 272.227 65.292 271.117 Q64.229 269.758 64.229 266.727 Z M65.589 266.727 Q65.589 269.430 66.206 270.328 Q66.823 271.227 67.729 271.227 Q68.635 271.227 69.253 270.328 Q69.870 269.430 69.870 266.727 Q69.870 264.008 69.253 263.117 Q68.635 262.227 67.714 262.227 Q66.807 262.227 66.260 263.008 Q65.589 264.024 65.589 266.727 Z"/>
  <path d="M15.292 224.633 Q15.292 222.727 15.682 221.563 Q16.073 220.399 16.846 219.766 Q17.620 219.133 18.792 219.133 Q19.651 219.133 20.307 219.485 Q20.964 219.836 21.385 220.493 Q21.807 221.149 22.049 222.094 Q22.292 223.040 22.292 224.633 Q22.292 226.540 21.901 227.704 Q21.510 228.868 20.737 229.501 Q19.964 230.133 18.792 230.133 Q17.245 230.133 16.354 229.024 Q15.292 227.665 15.292 224.633 Z M16.651 224.633 Q16.651 227.336 17.268 228.235 Q17.885 229.133 18.792 229.133 Q19.698 229.133 20.315 228.235 Q20.932 227.336 20.932 224.633 Q20.932 221.915 20.315 221.024 Q19.698 220.133 18.776 220.133 Q17.870 220.133 17.323 220.915 Q16.651 221.930 16.651 224.633 Z"/>
  <path d="M25.479 224.602 Q24.667 224.274 24.268 223.657 Q23.870 223.040 23.870 222.180 Q23.870 220.899 24.714 220.016 Q25.557 219.133 26.948 219.133 Q28.354 219.133 29.214 220.032 Q30.073 220.930 30.073 222.227 Q30.073 223.055 29.674 223.665 Q29.276 224.274 28.479 224.602 Q29.479 224.899 29.995 225.563 Q30.510 226.227 30.510 227.133 Q30.510 228.399 29.534 229.266 Q28.557 230.133 26.979 230.133 Q25.385 230.133 24.409 229.266 Q23.432 228.399 23.432 227.102 Q23.432 226.133 23.964 225.485 Q24.495 224.836 25.479 224.602 Z M25.214 222.086 Q25.214 222.993 25.706 223.563 Q26.198 224.133 26.979 224.133 Q27.745 224.133 28.229 223.563 Q28.714 222.993 28.714 222.165 Q28.714 221.305 28.214 220.719 Q27.714 220.133 26.964 220.133 Q26.214 220.133 25.714 220.704 Q25.214 221.274 25.214 222.086 Z M24.792 227.118 Q24.792 227.633 25.057 228.118 Q25.323 228.602 25.846 228.868 Q26.370 229.133 26.979 229.133 Q27.917 229.133 28.534 228.571 Q29.151 228.008 29.151 227.149 Q29.151 226.274 28.518 225.704 Q27.885 225.133 26.932 225.133 Q26.010 225.133 25.401 225.696 Q24.792 226.258 24.792 227.118 Z"/>
  <path d="M32.339 223.133 L32.339 222.133 L33.839 222.133 L33.839 223.133 L32.339 223.133 Z M32.339 230.133 L32.339 229.133 L33.839 229.133 L33.839 230.133 L32.339 230.133 Z"/>
  <path d="M40.651 230.133 L39.323 230.133 L39.323 221.555 Q38.854 222.024 38.081 222.485 Q37.307 222.946 36.698 223.180 L36.698 221.883 Q37.807 221.352 38.628 220.594 Q39.448 219.836 39.792 219.133 L40.651 219.133 L40.651 230.133 Z"/>
  <path d="M43.839 227.133 L45.214 227.133 Q45.370 228.133 45.932 228.633 Q46.495 229.133 47.276 229.133 Q48.229 229.133 48.893 228.422 Q49.557 227.711 49.557 226.540 Q49.557 225.430 48.924 224.782 Q48.292 224.133 47.260 224.133 Q46.620 224.133 46.112 224.415 Q45.604 224.696 45.307 225.133 L44.073 225.133 L45.104 219.133 L50.448 219.133 L50.448 220.133 L46.167 220.133 L45.589 223.711 Q46.557 223.133 47.620 223.133 Q49.010 223.133 49.979 224.071 Q50.948 225.008 50.948 226.461 Q50.948 227.868 50.104 228.883 Q49.073 230.133 47.276 230.133 Q45.823 230.133 44.893 229.313 Q43.964 228.493 43.839 227.133 Z"/>
  <path d="M52.729 223.133 L52.729 222.133 L54.229 222.133 L54.229 223.133 L52.729 223.133 Z M52.729 230.133 L52.729 229.133 L54.229 229.133 L54.229 230.133 L52.729 230.133 Z"/>
  <path d="M56.073 224.633 Q56.073 222.727 56.464 221.563 Q56.854 220.399 57.628 219.766 Q58.401 219.133 59.573 219.133 Q60.432 219.133 61.089 219.485 Q61.745 219.836 62.167 220.493 Q62.589 221.149 62.831 222.094 Q63.073 223.040 63.073 224.633 Q63.073 226.540 62.682 227.704 Q62.292 228.868 61.518 229.501 Q60.745 230.133 59.573 230.133 Q58.026 230.133 57.135 229.024 Q56.073 227.665 56.073 224.633 Z M57.432 224.633 Q57.432 227.336 58.049 228.235 Q58.667 229.133 59.573 229.133 Q60.479 229.133 61.096 228.235 Q61.714 227.336 61.714 224.633 Q61.714 221.915 61.096 221.024 Q60.479 220.133 59.557 220.133 Q58.651 220.133 58.104 220.915 Q57.432 221.930 57.432 224.633 Z"/>
  <path d="M64.229 224.633 Q64.229 222.727 64.620 221.563 Q65.010 220.399 65.784 219.766 Q66.557 219.133 67.729 219.133 Q68.589 219.133 69.245 219.485 Q69.901 219.836 70.323 220.493 Q70.745 221.149 70.987 222.094 Q71.229 223.040 71.229 224.633 Q71.229 226.540 70.839 227.704 Q70.448 228.868 69.674 229.501 Q68.901 230.133 67.729 230.133 Q66.182 230.133 65.292 229.024 Q64.229 227.665 64.229 224.633 Z M65.589 224.633 Q65.589 227.336 66.206 228.235 Q66.823 229.133 67.729 229.133 Q68.635 229.133 69.253 228.235 Q69.870 227.336 69.870 224.633 Q69.870 221.915 69.253 221.024 Q68.635 220.133 67.714 220.133 Q66.807 220.133 66.260 220.915 Q65.589 221.930 65.589 224.633 Z"/>
  <path d="M15.292 182.540 Q15.292 180.634 15.682 179.470 Q16.073 178.306 16.846 177.673 Q17.620 177.040 18.792 177.040 Q19.651 177.040 20.307 177.392 Q20.964 177.743 21.385 178.399 Q21.807 179.056 22.049 180.001 Q22.292 180.946 22.292 182.540 Q22.292 184.446 21.901 185.610 Q21.510 186.774 20.737 187.407 Q19.964 188.040 18.792 188.040 Q17.245 188.040 16.354 186.931 Q15.292 185.571 15.292 182.540 Z M16.651 182.540 Q16.651 185.243 17.268 186.142 Q17.885 187.040 18.792 187.040 Q19.698 187.040 20.315 186.142 Q20.932 185.243 20.932 182.540 Q20.932 179.821 20.315 178.931 Q19.698 178.040 18.776 178.040 Q17.870 178.040 17.323 178.821 Q16.651 179.837 16.651 182.540 Z"/>
  <path d="M25.479 182.509 Q24.667 182.181 24.268 181.563 Q23.870 180.946 23.870 180.087 Q23.870 178.806 24.714 177.923 Q25.557 177.040 26.948 177.040 Q28.354 177.040 29.214 177.938 Q30.073 178.837 30.073 180.134 Q30.073 180.962 29.674 181.571 Q29.276 182.181 28.479 182.509 Q29.479 182.806 29.995 183.470 Q30.510 184.134 30.510 185.040 Q30.510 186.306 29.534 187.173 Q28.557 188.040 26.979 188.040 Q25.385 188.040 24.409 187.173 Q23.432 186.306 23.432 185.009 Q23.432 184.040 23.964 183.392 Q24.495 182.743 25.479 182.509 Z M25.214 179.993 Q25.214 180.899 25.706 181.470 Q26.198 182.040 26.979 182.040 Q27.745 182.040 28.229 181.470 Q28.714 180.899 28.714 180.071 Q28.714 179.212 28.214 178.626 Q27.714 178.040 26.964 178.040 Q26.214 178.040 25.714 178.610 Q25.214 179.181 25.214 179.993 Z M24.792 185.024 Q24.792 185.540 25.057 186.024 Q25.323 186.509 25.846 186.774 Q26.370 187.040 26.979 187.040 Q27.917 187.040 28.534 186.477 Q29.151 185.915 29.151 185.056 Q29.151 184.181 28.518 183.610 Q27.885 183.040 26.932 183.040 Q26.010 183.040 25.401 183.602 Q24.792 184.165 24.792 185.024 Z"/>
  <path d="M32.339 181.040 L32.339 180.040 L33.839 180.040 L33.839 181.040 L32.339 181.040 Z M32.339 188.040 L32.339 187.040 L33.839 187.040 L33.839 188.040 L32.339 188.040 Z"/>
  <path d="M35.682 185.040 L37.057 185.040 Q37.214 186.040 37.776 186.540 Q38.339 187.040 39.120 187.040 Q40.073 187.040 40.737 186.329 Q41.401 185.618 41.401 184.446 Q41.401 183.337 40.768 182.688 Q40.135 182.040 39.104 182.040 Q38.464 182.040 37.956 182.321 Q37.448 182.602 37.151 183.040 L35.917 183.040 L36.948 177.040 L42.292 177.040 L42.292 178.040 L38.010 178.040 L37.432 181.618 Q38.401 181.040 39.464 181.040 Q40.854 181.040 41.823 181.977 Q42.792 182.915 42.792 184.368 Q42.792 185.774 41.948 186.790 Q40.917 188.040 39.120 188.040 Q37.667 188.040 36.737 187.220 Q35.807 186.399 35.682 185.040 Z"/>
  <path d="M48.807 188.040 L47.479 188.040 L47.479 179.462 Q47.010 179.931 46.237 180.392 Q45.464 180.852 44.854 181.087 L44.854 179.790 Q45.964 179.259 46.784 178.501 Q47.604 177.743 47.948 177.040 L48.807 177.040 L48.807 188.040 Z"/>
  <path d="M52.729 181.040 L52.729 180.040 L54.229 180.040 L54.229 181.040 L52.729 181.040 Z M52.729 188.040 L52.729 187.040 L54.229 187.040 L54.229 188.040 L52.729 188.040 Z"/>
  <path d="M56.073 182.540 Q56.073 180.634 56.464 179.470 Q56.854 178.306 57.628 177.673 Q58.401 177.040 59.573 177.040 Q60.432 177.040 61.089 177.392 Q61.745 177.743 62.167 178.399 Q62.589 179.056 62.831 180.001 Q63.073 180.946 63.073 182.540 Q63.073 184.446 62.682 185.610 Q62.292 186.774 61.518 187.407 Q60.745 188.040 59.573 188.040 Q58.026 188.040 57.135 186.931 Q56.073 185.571 56.073 182.540 Z M57.432 182.540 Q57.432 185.243 58.049 186.142 Q58.667 187.040 59.573 187.040 Q60.479 187.040 61.096 186.142 Q61.714 185.243 61.714 182.540 Q61.714 179.821 61.096 178.931 Q60.479 178.040 59.557 178.040 Q58.651 178.040 58.104 178.821 Q57.432 179.837 57.432 182.540 Z"/>
  <path d="M64.229 182.540 Q64.229 180.634 64.620 179.470 Q65.010 178.306 65.784 177.673 Q66.557 177.040 67.729 177.040 Q68.589 177.040 69.245 177.392 Q69.901 177.743 70.323 178.399 Q70.745 179.056 70.987 180.001 Q71.229 180.946 71.229 182.540 Q71.229 184.446 70.839 185.610 Q70.448 186.774 69.674 187.407 Q68.901 188.040 67.729 188.040 Q66.182 188.040 65.292 186.931 Q64.229 185.571 64.229 182.540 Z M65.589 182.540 Q65.589 185.243 66.206 186.142 Q66.823 187.040 67.729 187.040 Q68.635 187.040 69.253 186.142 Q69.870 185.243 69.870 182.540 Q69.870 179.821 69.253 178.931 Q68.635 178.040 67.714 178.040 Q66.807 178.040 66.260 178.821 Q65.589 179.837 65.589 182.540 Z"/>
  <path d="M15.292 140.447 Q15.292 138.540 15.682 137.376 Q16.073 136.212 16.846 135.579 Q17.620 134.947 18.792 134.947 Q19.651 134.947 20.307 135.298 Q20.964 135.650 21.385 136.306 Q21.807 136.962 22.049 137.908 Q22.292 138.853 22.292 140.447 Q22.292 142.353 21.901 143.517 Q21.510 144.681 20.737 145.314 Q19.964 145.947 18.792 145.947 Q17.245 145.947 16.354 144.837 Q15.292 143.478 15.292 140.447 Z M16.651 140.447 Q16.651 143.150 17.268 144.048 Q17.885 144.947 18.792 144.947 Q19.698 144.947 20.315 144.048 Q20.932 143.150 20.932 140.447 Q20.932 137.728 20.315 136.837 Q19.698 135.947 18.776 135.947 Q17.870 135.947 17.323 136.728 Q16.651 137.744 16.651 140.447 Z"/>
  <path d="M23.651 142.947 L24.917 142.947 Q25.073 143.994 25.526 144.470 Q25.979 144.947 26.698 144.947 Q27.292 144.947 27.753 144.642 Q28.214 144.337 28.503 143.829 Q28.792 143.322 28.995 142.470 Q29.198 141.619 29.198 140.790 Q29.198 140.712 29.182 140.540 Q28.792 141.165 28.104 141.556 Q27.417 141.947 26.620 141.947 Q25.292 141.947 24.370 141.001 Q23.448 140.056 23.448 138.494 Q23.448 136.900 24.409 135.923 Q25.370 134.947 26.823 134.947 Q27.870 134.947 28.737 135.509 Q29.604 136.072 30.057 137.119 Q30.510 138.165 30.510 140.150 Q30.510 142.228 30.065 143.447 Q29.620 144.665 28.737 145.306 Q27.854 145.947 26.667 145.947 Q25.401 145.947 24.604 145.158 Q23.807 144.369 23.651 142.947 Z M29.042 138.478 Q29.042 137.306 28.440 136.626 Q27.839 135.947 26.979 135.947 Q26.104 135.947 25.456 136.681 Q24.807 137.415 24.807 138.587 Q24.807 139.634 25.424 140.290 Q26.042 140.947 26.948 140.947 Q27.870 140.947 28.456 140.290 Q29.042 139.634 29.042 138.478 Z"/>
  <path d="M32.339 138.947 L32.339 137.947 L33.839 137.947 L33.839 138.947 L32.339 138.947 Z M32.339 145.947 L32.339 144.947 L33.839 144.947 L33.839 145.947 L32.339 145.947 Z"/>
  <path d="M42.604 144.947 L42.604 145.947 L35.510 145.947 Q35.495 145.556 35.667 145.181 Q35.932 144.572 36.534 143.986 Q37.135 143.400 38.260 142.337 Q40.010 140.681 40.628 139.751 Q41.245 138.822 41.245 138.009 Q41.245 137.134 40.682 136.540 Q40.120 135.947 39.229 135.947 Q38.276 135.947 37.698 136.478 Q37.120 137.009 37.120 137.947 L35.760 137.947 Q35.901 136.478 36.807 135.712 Q37.714 134.947 39.245 134.947 Q40.792 134.947 41.690 135.837 Q42.589 136.728 42.589 138.056 Q42.589 138.728 42.323 139.376 Q42.057 140.025 41.448 140.744 Q40.839 141.462 39.417 142.744 Q38.229 143.806 37.893 144.181 Q37.557 144.556 37.339 144.947 L42.604 144.947 Z"/>
  <path d="M50.682 137.947 L49.370 137.947 Q49.198 137.025 48.870 136.619 Q48.339 135.947 47.557 135.947 Q46.917 135.947 46.448 136.337 Q45.823 136.837 45.464 137.790 Q45.104 138.744 45.089 140.384 Q45.557 139.650 46.253 139.298 Q46.948 138.947 47.698 138.947 Q49.010 138.947 49.940 139.900 Q50.870 140.853 50.870 142.353 Q50.870 143.337 50.432 144.189 Q49.995 145.040 49.237 145.494 Q48.479 145.947 47.510 145.947 Q45.854 145.947 44.815 144.728 Q43.776 143.509 43.776 140.728 Q43.776 137.603 44.932 136.181 Q45.932 134.947 47.635 134.947 Q48.901 134.947 49.714 135.744 Q50.526 136.540 50.682 137.947 Z M45.292 142.322 Q45.292 143.009 45.581 143.642 Q45.870 144.275 46.393 144.611 Q46.917 144.947 47.479 144.947 Q48.323 144.947 48.924 144.259 Q49.526 143.572 49.526 142.384 Q49.526 141.259 48.932 140.603 Q48.339 139.947 47.432 139.947 Q46.542 139.947 45.917 140.603 Q45.292 141.259 45.292 142.322 Z"/>
  <path d="M52.729 138.947 L52.729 137.947 L54.229 137.947 L54.229 138.947 L52.729 138.947 Z M52.729 145.947 L52.729 144.947 L54.229 144.947 L54.229 145.947 L52.729 145.947 Z"/>
  <path d="M56.073 142.947 L57.448 142.947 Q57.604 143.947 58.167 144.447 Q58.729 144.947 59.510 144.947 Q60.464 144.947 61.128 144.236 Q61.792 143.525 61.792 142.353 Q61.792 141.244 61.159 140.595 Q60.526 139.947 59.495 139.947 Q58.854 139.947 58.346 140.228 Q57.839 140.509 57.542 140.947 L56.307 140.947 L57.339 134.947 L62.682 134.947 L62.682 135.947 L58.401 135.947 L57.823 139.525 Q58.792 138.947 59.854 138.947 Q61.245 138.947 62.214 139.884 Q63.182 140.822 63.182 142.275 Q63.182 143.681 62.339 144.697 Q61.307 145.947 59.510 145.947 Q58.057 145.947 57.128 145.126 Q56.198 144.306 56.073 142.947 Z"/>
  <path d="M64.432 142.947 L65.698 142.947 Q65.854 143.994 66.307 144.470 Q66.760 144.947 67.479 144.947 Q68.073 144.947 68.534 144.642 Q68.995 144.337 69.284 143.829 Q69.573 143.322 69.776 142.470 Q69.979 141.619 69.979 140.790 Q69.979 140.712 69.964 140.540 Q69.573 141.165 68.885 141.556 Q68.198 141.947 67.401 141.947 Q66.073 141.947 65.151 141.001 Q64.229 140.056 64.229 138.494 Q64.229 136.900 65.190 135.923 Q66.151 134.947 67.604 134.947 Q68.651 134.947 69.518 135.509 Q70.385 136.072 70.839 137.119 Q71.292 138.165 71.292 140.150 Q71.292 142.228 70.846 143.447 Q70.401 144.665 69.518 145.306 Q68.635 145.947 67.448 145.947 Q66.182 145.947 65.385 145.158 Q64.589 144.369 64.432 142.947 Z M69.823 138.478 Q69.823 137.306 69.221 136.626 Q68.620 135.947 67.760 135.947 Q66.885 135.947 66.237 136.681 Q65.589 137.415 65.589 138.587 Q65.589 139.634 66.206 140.290 Q66.823 140.947 67.729 140.947 Q68.651 140.947 69.237 140.290 Q69.823 139.634 69.823 138.478 Z"/>
  <path d="M20.260 103.853 L18.932 103.853 L18.932 95.275 Q18.464 95.744 17.690 96.205 Q16.917 96.666 16.307 96.900 L16.307 95.603 Q17.417 95.072 18.237 94.314 Q19.057 93.556 19.401 92.853 L20.260 92.853 L20.260 103.853 Z"/>
  <path d="M23.448 98.353 Q23.448 96.447 23.839 95.283 Q24.229 94.119 25.003 93.486 Q25.776 92.853 26.948 92.853 Q27.807 92.853 28.464 93.205 Q29.120 93.556 29.542 94.213 Q29.964 94.869 30.206 95.814 Q30.448 96.760 30.448 98.353 Q30.448 100.260 30.057 101.424 Q29.667 102.588 28.893 103.221 Q28.120 103.853 26.948 103.853 Q25.401 103.853 24.510 102.744 Q23.448 101.385 23.448 98.353 Z M24.807 98.353 Q24.807 101.056 25.424 101.955 Q26.042 102.853 26.948 102.853 Q27.854 102.853 28.471 101.955 Q29.089 101.056 29.089 98.353 Q29.089 95.635 28.471 94.744 Q27.854 93.853 26.932 93.853 Q26.026 93.853 25.479 94.635 Q24.807 95.650 24.807 98.353 Z"/>
  <path d="M32.339 96.853 L32.339 95.853 L33.839 95.853 L33.839 96.853 L32.339 96.853 Z M32.339 103.853 L32.339 102.853 L33.839 102.853 L33.839 103.853 L32.339 103.853 Z"/>
  <path d="M35.682 98.353 Q35.682 96.447 36.073 95.283 Q36.464 94.119 37.237 93.486 Q38.010 92.853 39.182 92.853 Q40.042 92.853 40.698 93.205 Q41.354 93.556 41.776 94.213 Q42.198 94.869 42.440 95.814 Q42.682 96.760 42.682 98.353 Q42.682 100.260 42.292 101.424 Q41.901 102.588 41.128 103.221 Q40.354 103.853 39.182 103.853 Q37.635 103.853 36.745 102.744 Q35.682 101.385 35.682 98.353 Z M37.042 98.353 Q37.042 101.056 37.659 101.955 Q38.276 102.853 39.182 102.853 Q40.089 102.853 40.706 101.955 Q41.323 101.056 41.323 98.353 Q41.323 95.635 40.706 94.744 Q40.089 93.853 39.167 93.853 Q38.260 93.853 37.714 94.635 Q37.042 95.650 37.042 98.353 Z"/>
  <path d="M43.839 100.853 L45.167 100.853 Q45.401 101.916 45.940 102.385 Q46.479 102.853 47.260 102.853 Q48.198 102.853 48.839 102.236 Q49.479 101.619 49.479 100.713 Q49.479 99.838 48.885 99.267 Q48.292 98.697 47.370 98.697 Q46.995 98.697 46.448 98.853 L46.589 97.853 Q46.729 97.869 46.807 97.869 Q47.651 97.869 48.323 97.361 Q48.995 96.853 48.995 95.791 Q48.995 94.963 48.503 94.408 Q48.010 93.853 47.229 93.853 Q46.464 93.853 45.948 94.353 Q45.432 94.853 45.292 95.853 L43.979 95.853 Q44.214 94.431 45.073 93.642 Q45.932 92.853 47.214 92.853 Q48.089 92.853 48.831 93.260 Q49.573 93.666 49.964 94.369 Q50.354 95.072 50.354 95.869 Q50.354 96.619 49.979 97.236 Q49.604 97.853 48.870 98.213 Q49.823 98.416 50.346 99.064 Q50.870 99.713 50.870 100.697 Q50.870 102.010 49.846 102.931 Q48.823 103.853 47.245 103.853 Q45.839 103.853 44.901 103.017 Q43.964 102.181 43.839 100.853 Z"/>
  <path d="M52.729 96.853 L52.729 95.853 L54.229 95.853 L54.229 96.853 L52.729 96.853 Z M52.729 103.853 L52.729 102.853 L54.229 102.853 L54.229 103.853 L52.729 103.853 Z"/>
  <path d="M56.073 98.353 Q56.073 96.447 56.464 95.283 Q56.854 94.119 57.628 93.486 Q58.401 92.853 59.573 92.853 Q60.432 92.853 61.089 93.205 Q61.745 93.556 62.167 94.213 Q62.589 94.869 62.831 95.814 Q63.073 96.760 63.073 98.353 Q63.073 100.260 62.682 101.424 Q62.292 102.588 61.518 103.221 Q60.745 103.853 59.573 103.853 Q58.026 103.853 57.135 102.744 Q56.073 101.385 56.073 98.353 Z M57.432 98.353 Q57.432 101.056 58.049 101.955 Q58.667 102.853 59.573 102.853 Q60.479 102.853 61.096 101.955 Q61.714 101.056 61.714 98.353 Q61.714 95.635 61.096 94.744 Q60.479 93.853 59.557 93.853 Q58.651 93.853 58.104 94.635 Q57.432 95.650 57.432 98.353 Z"/>
  <path d="M64.229 98.353 Q64.229 96.447 64.620 95.283 Q65.010 94.119 65.784 93.486 Q66.557 92.853 67.729 92.853 Q68.589 92.853 69.245 93.205 Q69.901 93.556 70.323 94.213 Q70.745 94.869 70.987 95.814 Q71.229 96.760 71.229 98.353 Q71.229 100.260 70.839 101.424 Q70.448 102.588 69.674 103.221 Q68.901 103.853 67.729 103.853 Q66.182 103.853 65.292 102.744 Q64.229 101.385 64.229 98.353 Z M65.589 98.353 Q65.589 101.056 66.206 101.955 Q66.823 102.853 67.729 102.853 Q68.635 102.853 69.253 101.955 Q69.870 101.056 69.870 98.353 Q69.870 95.635 69.253 94.744 Q68.635 93.853 67.714 93.853 Q66.807 93.853 66.260 94.635 Q65.589 95.650 65.589 98.353 Z"/>
  <path d="M20.260 61.760 L18.932 61.760 L18.932 53.182 Q18.464 53.651 17.690 54.112 Q16.917 54.572 16.307 54.807 L16.307 53.510 Q17.417 52.979 18.237 52.221 Q19.057 51.463 19.401 50.760 L20.260 50.760 L20.260 61.760 Z"/>
  <path d="M23.448 56.260 Q23.448 54.354 23.839 53.190 Q24.229 52.026 25.003 51.393 Q25.776 50.760 26.948 50.760 Q27.807 50.760 28.464 51.112 Q29.120 51.463 29.542 52.119 Q29.964 52.776 30.206 53.721 Q30.448 54.666 30.448 56.260 Q30.448 58.166 30.057 59.330 Q29.667 60.494 28.893 61.127 Q28.120 61.760 26.948 61.760 Q25.401 61.760 24.510 60.651 Q23.448 59.291 23.448 56.260 Z M24.807 56.260 Q24.807 58.963 25.424 59.862 Q26.042 60.760 26.948 60.760 Q27.854 60.760 28.471 59.862 Q29.089 58.963 29.089 56.260 Q29.089 53.541 28.471 52.651 Q27.854 51.760 26.932 51.760 Q26.026 51.760 25.479 52.541 Q24.807 53.557 24.807 56.260 Z"/>
  <path d="M32.339 54.760 L32.339 53.760 L33.839 53.760 L33.839 54.760 L32.339 54.760 Z M32.339 61.760 L32.339 60.760 L33.839 60.760 L33.839 61.760 L32.339 61.760 Z"/>
  <path d="M35.682 58.760 L37.010 58.760 Q37.245 59.822 37.784 60.291 Q38.323 60.760 39.104 60.760 Q40.042 60.760 40.682 60.143 Q41.323 59.526 41.323 58.619 Q41.323 57.744 40.729 57.174 Q40.135 56.604 39.214 56.604 Q38.839 56.604 38.292 56.760 L38.432 55.760 Q38.573 55.776 38.651 55.776 Q39.495 55.776 40.167 55.268 Q40.839 54.760 40.839 53.697 Q40.839 52.869 40.346 52.315 Q39.854 51.760 39.073 51.760 Q38.307 51.760 37.792 52.260 Q37.276 52.760 37.135 53.760 L35.823 53.760 Q36.057 52.338 36.917 51.549 Q37.776 50.760 39.057 50.760 Q39.932 50.760 40.674 51.166 Q41.417 51.572 41.807 52.276 Q42.198 52.979 42.198 53.776 Q42.198 54.526 41.823 55.143 Q41.448 55.760 40.714 56.119 Q41.667 56.322 42.190 56.971 Q42.714 57.619 42.714 58.604 Q42.714 59.916 41.690 60.838 Q40.667 61.760 39.089 61.760 Q37.682 61.760 36.745 60.924 Q35.807 60.088 35.682 58.760 Z"/>
  <path d="M44.042 58.760 L45.307 58.760 Q45.464 59.807 45.917 60.283 Q46.370 60.760 47.089 60.760 Q47.682 60.760 48.143 60.455 Q48.604 60.151 48.893 59.643 Q49.182 59.135 49.385 58.283 Q49.589 57.432 49.589 56.604 Q49.589 56.526 49.573 56.354 Q49.182 56.979 48.495 57.369 Q47.807 57.760 47.010 57.760 Q45.682 57.760 44.760 56.815 Q43.839 55.869 43.839 54.307 Q43.839 52.713 44.799 51.737 Q45.760 50.760 47.214 50.760 Q48.260 50.760 49.128 51.322 Q49.995 51.885 50.448 52.932 Q50.901 53.979 50.901 55.963 Q50.901 58.041 50.456 59.260 Q50.010 60.479 49.128 61.119 Q48.245 61.760 47.057 61.760 Q45.792 61.760 44.995 60.971 Q44.198 60.182 44.042 58.760 Z M49.432 54.291 Q49.432 53.119 48.831 52.440 Q48.229 51.760 47.370 51.760 Q46.495 51.760 45.846 52.494 Q45.198 53.229 45.198 54.401 Q45.198 55.447 45.815 56.104 Q46.432 56.760 47.339 56.760 Q48.260 56.760 48.846 56.104 Q49.432 55.447 49.432 54.291 Z"/>
  <path d="M52.729 54.760 L52.729 53.760 L54.229 53.760 L54.229 54.760 L52.729 54.760 Z M52.729 61.760 L52.729 60.760 L54.229 60.760 L54.229 61.760 L52.729 61.760 Z"/>
  <path d="M56.073 56.260 Q56.073 54.354 56.464 53.190 Q56.854 52.026 57.628 51.393 Q58.401 50.760 59.573 50.760 Q60.432 50.760 61.089 51.112 Q61.745 51.463 62.167 52.119 Q62.589 52.776 62.831 53.721 Q63.073 54.666 63.073 56.260 Q63.073 58.166 62.682 59.330 Q62.292 60.494 61.518 61.127 Q60.745 61.760 59.573 61.760 Q58.026 61.760 57.135 60.651 Q56.073 59.291 56.073 56.260 Z M57.432 56.260 Q57.432 58.963 58.049 59.862 Q58.667 60.760 59.573 60.760 Q60.479 60.760 61.096 59.862 Q61.714 58.963 61.714 56.260 Q61.714 53.541 61.096 52.651 Q60.479 51.760 59.557 51.760 Q58.651 51.760 58.104 52.541 Q57.432 53.557 57.432 56.260 Z"/>
  <path d="M64.229 56.260 Q64.229 54.354 64.620 53.190 Q65.010 52.026 65.784 51.393 Q66.557 50.760 67.729 50.760 Q68.589 50.760 69.245 51.112 Q69.901 51.463 70.323 52.119 Q70.745 52.776 70.987 53.721 Q71.229 54.666 71.229 56.260 Q71.229 58.166 70.839 59.330 Q70.448 60.494 69.674 61.127 Q68.901 61.760 67.729 61.760 Q66.182 61.760 65.292 60.651 Q64.229 59.291 64.229 56.260 Z M65.589 56.260 Q65.589 58.963 66.206 59.862 Q66.823 60.760 67.729 60.760 Q68.635 60.760 69.253 59.862 Q69.870 58.963 69.870 56.260 Q69.870 53.541 69.253 52.651 Q68.635 51.760 67.714 51.760 Q66.807 51.760 66.260 52.541 Q65.589 53.557 65.589 56.260 Z"/>
  <path d="M21.354 19.667 L20.026 19.667 L20.026 11.089 Q19.557 11.557 18.784 12.018 Q18.010 12.479 17.401 12.714 L17.401 11.417 Q18.510 10.885 19.331 10.128 Q20.151 9.370 20.495 8.667 L21.354 8.667 L21.354 19.667 Z"/>
  <path d="M28.964 19.667 L27.635 19.667 L27.635 11.089 Q27.167 11.557 26.393 12.018 Q25.620 12.479 25.010 12.714 L25.010 11.417 Q26.120 10.885 26.940 10.128 Q27.760 9.370 28.104 8.667 L28.964 8.667 L28.964 19.667 Z"/>
  <path d="M32.339 12.667 L32.339 11.667 L33.839 11.667 L33.839 12.667 L32.339 12.667 Z M32.339 19.667 L32.339 18.667 L33.839 18.667 L33.839 19.667 L32.339 19.667 Z"/>
  <path d="M40.651 19.667 L39.323 19.667 L39.323 11.089 Q38.854 11.557 38.081 12.018 Q37.307 12.479 36.698 12.714 L36.698 11.417 Q37.807 10.885 38.628 10.128 Q39.448 9.370 39.792 8.667 L40.651 8.667 L40.651 19.667 Z"/>
  <path d="M43.839 16.667 L45.214 16.667 Q45.370 17.667 45.932 18.167 Q46.495 18.667 47.276 18.667 Q48.229 18.667 48.893 17.956 Q49.557 17.245 49.557 16.073 Q49.557 14.964 48.924 14.315 Q48.292 13.667 47.260 13.667 Q46.620 13.667 46.112 13.948 Q45.604 14.229 45.307 14.667 L44.073 14.667 L45.104 8.667 L50.448 8.667 L50.448 9.667 L46.167 9.667 L45.589 13.245 Q46.557 12.667 47.620 12.667 Q49.010 12.667 49.979 13.604 Q50.948 14.542 50.948 15.995 Q50.948 17.401 50.104 18.417 Q49.073 19.667 47.276 19.667 Q45.823 19.667 44.893 18.846 Q43.964 18.026 43.839 16.667 Z"/>
  <path d="M52.729 12.667 L52.729 11.667 L54.229 11.667 L54.229 12.667 L52.729 12.667 Z M52.729 19.667 L52.729 18.667 L54.229 18.667 L54.229 19.667 L52.729 19.667 Z"/>
  <path d="M56.073 14.167 Q56.073 12.260 56.464 11.096 Q56.854 9.932 57.628 9.299 Q58.401 8.667 59.573 8.667 Q60.432 8.667 61.089 9.018 Q61.745 9.370 62.167 10.026 Q62.589 10.682 62.831 11.628 Q63.073 12.573 63.073 14.167 Q63.073 16.073 62.682 17.237 Q62.292 18.401 61.518 19.034 Q60.745 19.667 59.573 19.667 Q58.026 19.667 57.135 18.557 Q56.073 17.198 56.073 14.167 Z M57.432 14.167 Q57.432 16.870 58.049 17.768 Q58.667 18.667 59.573 18.667 Q60.479 18.667 61.096 17.768 Q61.714 16.870 61.714 14.167 Q61.714 11.448 61.096 10.557 Q60.479 9.667 59.557 9.667 Q58.651 9.667 58.104 10.448 Q57.432 11.464 57.432 14.167 Z"/>
  <path d="M64.229 14.167 Q64.229 12.260 64.620 11.096 Q65.010 9.932 65.784 9.299 Q66.557 8.667 67.729 8.667 Q68.589 8.667 69.245 9.018 Q69.901 9.370 70.323 10.026 Q70.745 10.682 70.987 11.628 Q71.229 12.573 71.229 14.167 Q71.229 16.073 70.839 17.237 Q70.448 18.401 69.674 19.034 Q68.901 19.667 67.729 19.667 Q66.182 19.667 65.292 18.557 Q64.229 17.198 64.229 14.167 Z M65.589 14.167 Q65.589 16.870 66.206 17.768 Q66.823 18.667 67.729 18.667 Q68.635 18.667 69.253 17.768 Q69.870 16.870 69.870 14.167 Q69.870 11.448 69.253 10.557 Q68.635 9.667 67.714 9.667 Q66.807 9.667 66.260 10.448 Q65.589 11.464 65.589 14.167 Z"/>
  <path d="M314.805 435.600 L295.536 429.754 L140.959 423.907 L147.956 418.061 L180.524 412.215 L106.308 406.369 L100.905 400.522 L147.810 394.676 L191.883 388.830 L102.532 382.983 L156.709 377.137 L136.164 371.291 L253.968 365.444 L216.420 359.598 L166.614 353.752 L224.227 347.906 L157.113 342.059 L128.522 336.213 L104.999 330.367 L104.063 324.520 L104.181 318.674 L211.730 312.828 L622.100 306.981 L934.689 301.135 L919.962 295.289 L893.124 289.443 L528.191 283.596 L430.746 277.750 L247.327 271.904 L152.207 266.057 L118.698 260.211 L127.500 254.365 L116.790 248.519 L127.436 242.672 L233.127 236.826 L242.375 230.980 L246.123 225.133 L287.345 219.287 L268.396 213.441 L235.883 207.594 L251.292 201.748 L303.931 195.902 L385.371 190.056 L376.147 184.209 L429.698 178.363 L345.232 172.517 L307.550 166.670 L220.314 160.824 L265.678 154.978 L415.965 149.131 L444.823 143.285 L372.484 137.439 L357.496 131.593 L378.181 125.746 L416.551 119.900 L264.276 114.054 L214.835 108.207 L350.913 102.361 L262.373 96.515 L163.571 90.669 L173.889 84.822 L276.283 78.976 L200.196 73.130 L192.077 67.283 L176.892 61.437 L192.974 55.591 L177.774 49.744 L234.666 43.898 L184.830 38.052 L215.944 32.206 L247.127 26.359 L219.513 20.513 L164.186 14.667 L83.494 14.667 L83.494 20.513 L83.494 26.359 L83.494 32.206 L83.494 38.052 L83.494 43.898 L83.494 49.744 L83.494 55.591 L83.494 61.437 L83.494 67.283 L83.494 73.130 L83.494 78.976 L83.494 84.822 L83.494 90.669 L83.494 96.515 L83.494 102.361 L83.494 108.207 L83.494 114.054 L83.494 119.900 L83.494 125.746 L83.494 131.593 L83.494 137.439 L83.494 143.285 L83.494 149.131 L83.494 154.978 L83.494 160.824 L83.494 166.670 L83.494 172.517 L83.494 178.363 L83.494 184.209 L83.494 190.056 L83.494 195.902 L83.494 201.748 L83.494 207.594 L83.494 213.441 L83.494 219.287 L83.494 225.133 L83.494 230.980 L83.494 236.826 L83.494 242.672 L83.494 248.519 L83.494 254.365 L83.494 260.211 L83.494 266.057 L83.494 271.904 L83.494 277.750 L83.494 283.596 L83.494 289.443 L83.494 295.289 L83.494 301.135 L83.494 306.981 L83.494 312.828 L83.494 318.674 L83.494 324.520 L83.494 330.367 L83.494 336.213 L83.494 342.059 L83.494 347.906 L83.494 353.752 L83.494 359.598 L83.494 365.444 L83.494 371.291 L83.494 377.137 L83.494 382.983 L83.494 388.830 L83.494 394.676 L83.494 400.522 L83.494 406.369 L83.494 412.215 L83.494 418.061 L83.494 423.907 L83.494 429.754 L83.494 435.600 Z" fill="#999999"/>
</svg>
