<?xml version="1.0" encoding="UTF-8" ?>
<!-- Generated by clip v0.8.0 (clip-lang.org) -->
<svg xmlns="http://www.w3.org/2000/svg" width="1200" height="480">
  <rect width="1200" height="480" fill="#ffffff" fill-opacity="1"/>
  <path d="M14.667 44.400 L1185.333 44.400" fill="none" stroke="#000000" stroke-width="1.333"/>
  <path d="M14.667 49.733 L14.667 44.400" fill="none" stroke="#000000" stroke-width="1.333"/>
  <path d="M131.733 49.733 L131.733 44.400" fill="none" stroke="#000000" stroke-width="1.333"/>
  <path d="M248.800 49.733 L248.800 44.400" fill="none" stroke="#000000" stroke-width="1.333"/>
  <path d="M365.867 49.733 L365.867 44.400" fill="none" stroke="#000000" stroke-width="1.333"/>
  <path d="M482.933 49.733 L482.933 44.400" fill="none" stroke="#000000" stroke-width="1.333"/>
  <path d="M600 49.733 L600 44.400" fill="none" stroke="#000000" stroke-width="1.333"/>
  <path d="M717.067 49.733 L717.067 44.400" fill="none" stroke="#000000" stroke-width="1.333"/>
  <path d="M834.133 49.733 L834.133 44.400" fill="none" stroke="#000000" stroke-width="1.333"/>
  <path d="M951.200 49.733 L951.200 44.400" fill="none" stroke="#000000" stroke-width="1.333"/>
  <path d="M1068.267 49.733 L1068.267 44.400" fill="none" stroke="#000000" stroke-width="1.333"/>
  <path d="M1185.333 49.733 L1185.333 44.400" fill="none" stroke="#000000" stroke-width="1.333"/>
  <path d="M5.096 23.167 Q5.096 21.260 5.487 20.096 Q5.878 18.932 6.651 18.299 Q7.424 17.667 8.596 17.667 Q9.456 17.667 10.112 18.018 Q10.768 18.370 11.190 19.026 Q11.612 19.682 11.854 20.628 Q12.096 21.573 12.096 23.167 Q12.096 25.073 11.706 26.237 Q11.315 27.401 10.542 28.034 Q9.768 28.667 8.596 28.667 Q7.049 28.667 6.159 27.557 Q5.096 26.198 5.096 23.167 Z M6.456 23.167 Q6.456 25.870 7.073 26.768 Q7.690 27.667 8.596 27.667 Q9.503 27.667 10.120 26.768 Q10.737 25.870 10.737 23.167 Q10.737 20.448 10.120 19.557 Q9.503 18.667 8.581 18.667 Q7.674 18.667 7.128 19.448 Q6.456 20.464 6.456 23.167 Z"/>
  <path d="M13.987 28.667 L13.987 27.667 L15.487 27.667 L15.487 28.667 L13.987 28.667 Z"/>
  <path d="M17.331 23.167 Q17.331 21.260 17.721 20.096 Q18.112 18.932 18.885 18.299 Q19.659 17.667 20.831 17.667 Q21.690 17.667 22.346 18.018 Q23.003 18.370 23.424 19.026 Q23.846 19.682 24.089 20.628 Q24.331 21.573 24.331 23.167 Q24.331 25.073 23.940 26.237 Q23.549 27.401 22.776 28.034 Q22.003 28.667 20.831 28.667 Q19.284 28.667 18.393 27.557 Q17.331 26.198 17.331 23.167 Z M18.690 23.167 Q18.690 25.870 19.307 26.768 Q19.924 27.667 20.831 27.667 Q21.737 27.667 22.354 26.768 Q22.971 25.870 22.971 23.167 Q22.971 20.448 22.354 19.557 Q21.737 18.667 20.815 18.667 Q19.909 18.667 19.362 19.448 Q18.690 20.464 18.690 23.167 Z"/>
  <path d="M122.163 23.167 Q122.163 21.260 122.554 20.096 Q122.944 18.932 123.718 18.299 Q124.491 17.667 125.663 17.667 Q126.522 17.667 127.179 18.018 Q127.835 18.370 128.257 19.026 Q128.679 19.682 128.921 20.628 Q129.163 21.573 129.163 23.167 Q129.163 25.073 128.772 26.237 Q128.382 27.401 127.608 28.034 Q126.835 28.667 125.663 28.667 Q124.116 28.667 123.226 27.557 Q122.163 26.198 122.163 23.167 Z M123.522 23.167 Q123.522 25.870 124.140 26.768 Q124.757 27.667 125.663 27.667 Q126.569 27.667 127.186 26.768 Q127.804 25.870 127.804 23.167 Q127.804 20.448 127.186 19.557 Q126.569 18.667 125.647 18.667 Q124.741 18.667 124.194 19.448 Q123.522 20.464 123.522 23.167 Z"/>
  <path d="M131.054 28.667 L131.054 27.667 L132.554 27.667 L132.554 28.667 L131.054 28.667 Z"/>
  <path d="M139.366 28.667 L138.038 28.667 L138.038 20.089 Q137.569 20.557 136.796 21.018 Q136.022 21.479 135.413 21.714 L135.413 20.417 Q136.522 19.885 137.343 19.128 Q138.163 18.370 138.507 17.667 L139.366 17.667 L139.366 28.667 Z"/>
  <path d="M239.230 23.167 Q239.230 21.260 239.620 20.096 Q240.011 18.932 240.784 18.299 Q241.558 17.667 242.730 17.667 Q243.589 17.667 244.245 18.018 Q244.902 18.370 245.323 19.026 Q245.745 19.682 245.988 20.628 Q246.230 21.573 246.230 23.167 Q246.230 25.073 245.839 26.237 Q245.448 27.401 244.675 28.034 Q243.902 28.667 242.730 28.667 Q241.183 28.667 240.292 27.557 Q239.230 26.198 239.230 23.167 Z M240.589 23.167 Q240.589 25.870 241.206 26.768 Q241.823 27.667 242.730 27.667 Q243.636 27.667 244.253 26.768 Q244.870 25.870 244.870 23.167 Q244.870 20.448 244.253 19.557 Q243.636 18.667 242.714 18.667 Q241.808 18.667 241.261 19.448 Q240.589 20.464 240.589 23.167 Z"/>
  <path d="M248.120 28.667 L248.120 27.667 L249.620 27.667 L249.620 28.667 L248.120 28.667 Z"/>
  <path d="M258.386 27.667 L258.386 28.667 L251.292 28.667 Q251.277 28.276 251.448 27.901 Q251.714 27.292 252.316 26.706 Q252.917 26.120 254.042 25.057 Q255.792 23.401 256.409 22.471 Q257.027 21.542 257.027 20.729 Q257.027 19.854 256.464 19.260 Q255.902 18.667 255.011 18.667 Q254.058 18.667 253.480 19.198 Q252.902 19.729 252.902 20.667 L251.542 20.667 Q251.683 19.198 252.589 18.432 Q253.495 17.667 255.027 17.667 Q256.573 17.667 257.472 18.557 Q258.370 19.448 258.370 20.776 Q258.370 21.448 258.105 22.096 Q257.839 22.745 257.230 23.464 Q256.620 24.182 255.198 25.464 Q254.011 26.526 253.675 26.901 Q253.339 27.276 253.120 27.667 L258.386 27.667 Z"/>
  <path d="M356.296 23.167 Q356.296 21.260 356.687 20.096 Q357.078 18.932 357.851 18.299 Q358.624 17.667 359.796 17.667 Q360.656 17.667 361.312 18.018 Q361.968 18.370 362.390 19.026 Q362.812 19.682 363.054 20.628 Q363.296 21.573 363.296 23.167 Q363.296 25.073 362.906 26.237 Q362.515 27.401 361.742 28.034 Q360.968 28.667 359.796 28.667 Q358.249 28.667 357.359 27.557 Q356.296 26.198 356.296 23.167 Z M357.656 23.167 Q357.656 25.870 358.273 26.768 Q358.890 27.667 359.796 27.667 Q360.703 27.667 361.320 26.768 Q361.937 25.870 361.937 23.167 Q361.937 20.448 361.320 19.557 Q360.703 18.667 359.781 18.667 Q358.874 18.667 358.328 19.448 Q357.656 20.464 357.656 23.167 Z"/>
  <path d="M365.187 28.667 L365.187 27.667 L366.687 27.667 L366.687 28.667 L365.187 28.667 Z"/>
  <path d="M368.531 25.667 L369.859 25.667 Q370.093 26.729 370.632 27.198 Q371.171 27.667 371.953 27.667 Q372.890 27.667 373.531 27.049 Q374.171 26.432 374.171 25.526 Q374.171 24.651 373.578 24.081 Q372.984 23.510 372.062 23.510 Q371.687 23.510 371.140 23.667 L371.281 22.667 Q371.421 22.682 371.499 22.682 Q372.343 22.682 373.015 22.174 Q373.687 21.667 373.687 20.604 Q373.687 19.776 373.195 19.221 Q372.703 18.667 371.921 18.667 Q371.156 18.667 370.640 19.167 Q370.124 19.667 369.984 20.667 L368.671 20.667 Q368.906 19.245 369.765 18.456 Q370.624 17.667 371.906 17.667 Q372.781 17.667 373.523 18.073 Q374.265 18.479 374.656 19.182 Q375.046 19.885 375.046 20.682 Q375.046 21.432 374.671 22.049 Q374.296 22.667 373.562 23.026 Q374.515 23.229 375.039 23.878 Q375.562 24.526 375.562 25.510 Q375.562 26.823 374.539 27.745 Q373.515 28.667 371.937 28.667 Q370.531 28.667 369.593 27.831 Q368.656 26.995 368.531 25.667 Z"/>
  <path d="M473.363 23.167 Q473.363 21.260 473.754 20.096 Q474.144 18.932 474.918 18.299 Q475.691 17.667 476.863 17.667 Q477.722 17.667 478.379 18.018 Q479.035 18.370 479.457 19.026 Q479.879 19.682 480.121 20.628 Q480.363 21.573 480.363 23.167 Q480.363 25.073 479.972 26.237 Q479.582 27.401 478.808 28.034 Q478.035 28.667 476.863 28.667 Q475.316 28.667 474.426 27.557 Q473.363 26.198 473.363 23.167 Z M474.722 23.167 Q474.722 25.870 475.340 26.768 Q475.957 27.667 476.863 27.667 Q477.769 27.667 478.386 26.768 Q479.004 25.870 479.004 23.167 Q479.004 20.448 478.386 19.557 Q477.769 18.667 476.847 18.667 Q475.941 18.667 475.394 19.448 Q474.722 20.464 474.722 23.167 Z"/>
  <path d="M482.254 28.667 L482.254 27.667 L483.754 27.667 L483.754 28.667 L482.254 28.667 Z"/>
  <path d="M489.816 28.667 L489.816 25.667 L485.160 25.667 L485.160 24.667 L490.066 17.667 L491.144 17.667 L491.144 24.667 L492.597 24.667 L492.597 25.667 L491.144 25.667 L491.144 28.667 L489.816 28.667 Z M489.816 24.667 L489.816 19.870 L486.457 24.667 L489.816 24.667 Z"/>
  <path d="M590.430 23.167 Q590.430 21.260 590.820 20.096 Q591.211 18.932 591.984 18.299 Q592.758 17.667 593.930 17.667 Q594.789 17.667 595.445 18.018 Q596.102 18.370 596.523 19.026 Q596.945 19.682 597.188 20.628 Q597.430 21.573 597.430 23.167 Q597.430 25.073 597.039 26.237 Q596.648 27.401 595.875 28.034 Q595.102 28.667 593.930 28.667 Q592.383 28.667 591.492 27.557 Q590.430 26.198 590.430 23.167 Z M591.789 23.167 Q591.789 25.870 592.406 26.768 Q593.023 27.667 593.930 27.667 Q594.836 27.667 595.453 26.768 Q596.070 25.870 596.070 23.167 Q596.070 20.448 595.453 19.557 Q594.836 18.667 593.914 18.667 Q593.008 18.667 592.461 19.448 Q591.789 20.464 591.789 23.167 Z"/>
  <path d="M599.320 28.667 L599.320 27.667 L600.820 27.667 L600.820 28.667 L599.320 28.667 Z"/>
  <path d="M602.664 25.667 L604.039 25.667 Q604.195 26.667 604.758 27.167 Q605.320 27.667 606.102 27.667 Q607.055 27.667 607.719 26.956 Q608.383 26.245 608.383 25.073 Q608.383 23.964 607.750 23.315 Q607.117 22.667 606.086 22.667 Q605.445 22.667 604.938 22.948 Q604.430 23.229 604.133 23.667 L602.898 23.667 L603.930 17.667 L609.273 17.667 L609.273 18.667 L604.992 18.667 L604.414 22.245 Q605.383 21.667 606.445 21.667 Q607.836 21.667 608.805 22.604 Q609.773 23.542 609.773 24.995 Q609.773 26.401 608.930 27.417 Q607.898 28.667 606.102 28.667 Q604.648 28.667 603.719 27.846 Q602.789 27.026 602.664 25.667 Z"/>
  <path d="M707.496 23.167 Q707.496 21.260 707.887 20.096 Q708.278 18.932 709.051 18.299 Q709.825 17.667 710.996 17.667 Q711.856 17.667 712.512 18.018 Q713.168 18.370 713.590 19.026 Q714.012 19.682 714.254 20.628 Q714.496 21.573 714.496 23.167 Q714.496 25.073 714.106 26.237 Q713.715 27.401 712.942 28.034 Q712.168 28.667 710.996 28.667 Q709.450 28.667 708.559 27.557 Q707.496 26.198 707.496 23.167 Z M708.856 23.167 Q708.856 25.870 709.473 26.768 Q710.090 27.667 710.996 27.667 Q711.903 27.667 712.520 26.768 Q713.137 25.870 713.137 23.167 Q713.137 20.448 712.520 19.557 Q711.903 18.667 710.981 18.667 Q710.075 18.667 709.528 19.448 Q708.856 20.464 708.856 23.167 Z"/>
  <path d="M716.387 28.667 L716.387 27.667 L717.887 27.667 L717.887 28.667 L716.387 28.667 Z"/>
  <path d="M726.575 20.667 L725.262 20.667 Q725.090 19.745 724.762 19.339 Q724.231 18.667 723.450 18.667 Q722.809 18.667 722.340 19.057 Q721.715 19.557 721.356 20.510 Q720.996 21.464 720.981 23.104 Q721.450 22.370 722.145 22.018 Q722.840 21.667 723.590 21.667 Q724.903 21.667 725.832 22.620 Q726.762 23.573 726.762 25.073 Q726.762 26.057 726.325 26.909 Q725.887 27.760 725.129 28.214 Q724.371 28.667 723.403 28.667 Q721.746 28.667 720.707 27.448 Q719.668 26.229 719.668 23.448 Q719.668 20.323 720.825 18.901 Q721.825 17.667 723.528 17.667 Q724.793 17.667 725.606 18.464 Q726.418 19.260 726.575 20.667 Z M721.184 25.042 Q721.184 25.729 721.473 26.362 Q721.762 26.995 722.285 27.331 Q722.809 27.667 723.371 27.667 Q724.215 27.667 724.817 26.979 Q725.418 26.292 725.418 25.104 Q725.418 23.979 724.825 23.323 Q724.231 22.667 723.325 22.667 Q722.434 22.667 721.809 23.323 Q721.184 23.979 721.184 25.042 Z"/>
  <path d="M824.563 23.167 Q824.563 21.260 824.954 20.096 Q825.344 18.932 826.118 18.299 Q826.891 17.667 828.063 17.667 Q828.922 17.667 829.579 18.018 Q830.235 18.370 830.657 19.026 Q831.079 19.682 831.321 20.628 Q831.563 21.573 831.563 23.167 Q831.563 25.073 831.172 26.237 Q830.782 27.401 830.008 28.034 Q829.235 28.667 828.063 28.667 Q826.516 28.667 825.626 27.557 Q824.563 26.198 824.563 23.167 Z M825.922 23.167 Q825.922 25.870 826.540 26.768 Q827.157 27.667 828.063 27.667 Q828.969 27.667 829.586 26.768 Q830.204 25.870 830.204 23.167 Q830.204 20.448 829.586 19.557 Q828.969 18.667 828.047 18.667 Q827.141 18.667 826.594 19.448 Q825.922 20.464 825.922 23.167 Z"/>
  <path d="M833.454 28.667 L833.454 27.667 L834.954 27.667 L834.954 28.667 L833.454 28.667 Z"/>
  <path d="M836.876 18.667 L836.876 17.667 L843.829 17.667 L843.829 18.479 Q842.813 19.573 841.805 21.510 Q840.797 23.448 840.235 25.495 Q839.844 26.948 839.735 28.667 L838.391 28.667 Q838.407 27.307 838.883 25.385 Q839.360 23.464 840.251 21.674 Q841.141 19.885 842.141 18.667 L836.876 18.667 Z"/>
  <path d="M941.630 23.167 Q941.630 21.260 942.020 20.096 Q942.411 18.932 943.184 18.299 Q943.958 17.667 945.130 17.667 Q945.989 17.667 946.645 18.018 Q947.302 18.370 947.723 19.026 Q948.145 19.682 948.388 20.628 Q948.630 21.573 948.630 23.167 Q948.630 25.073 948.239 26.237 Q947.848 27.401 947.075 28.034 Q946.302 28.667 945.130 28.667 Q943.583 28.667 942.692 27.557 Q941.630 26.198 941.630 23.167 Z M942.989 23.167 Q942.989 25.870 943.606 26.768 Q944.223 27.667 945.130 27.667 Q946.036 27.667 946.653 26.768 Q947.270 25.870 947.270 23.167 Q947.270 20.448 946.653 19.557 Q946.036 18.667 945.114 18.667 Q944.208 18.667 943.661 19.448 Q942.989 20.464 942.989 23.167 Z"/>
  <path d="M950.520 28.667 L950.520 27.667 L952.020 27.667 L952.020 28.667 L950.520 28.667 Z"/>
  <path d="M955.895 23.135 Q955.083 22.807 954.684 22.190 Q954.286 21.573 954.286 20.714 Q954.286 19.432 955.130 18.549 Q955.973 17.667 957.364 17.667 Q958.770 17.667 959.630 18.565 Q960.489 19.464 960.489 20.760 Q960.489 21.589 960.091 22.198 Q959.692 22.807 958.895 23.135 Q959.895 23.432 960.411 24.096 Q960.927 24.760 960.927 25.667 Q960.927 26.932 959.950 27.799 Q958.973 28.667 957.395 28.667 Q955.802 28.667 954.825 27.799 Q953.848 26.932 953.848 25.635 Q953.848 24.667 954.380 24.018 Q954.911 23.370 955.895 23.135 Z M955.630 20.620 Q955.630 21.526 956.122 22.096 Q956.614 22.667 957.395 22.667 Q958.161 22.667 958.645 22.096 Q959.130 21.526 959.130 20.698 Q959.130 19.839 958.630 19.253 Q958.130 18.667 957.380 18.667 Q956.630 18.667 956.130 19.237 Q955.630 19.807 955.630 20.620 Z M955.208 25.651 Q955.208 26.167 955.473 26.651 Q955.739 27.135 956.263 27.401 Q956.786 27.667 957.395 27.667 Q958.333 27.667 958.950 27.104 Q959.567 26.542 959.567 25.682 Q959.567 24.807 958.934 24.237 Q958.302 23.667 957.348 23.667 Q956.427 23.667 955.817 24.229 Q955.208 24.792 955.208 25.651 Z"/>
  <path d="M1058.696 23.167 Q1058.696 21.260 1059.087 20.096 Q1059.478 18.932 1060.251 18.299 Q1061.025 17.667 1062.196 17.667 Q1063.056 17.667 1063.712 18.018 Q1064.368 18.370 1064.790 19.026 Q1065.212 19.682 1065.454 20.628 Q1065.696 21.573 1065.696 23.167 Q1065.696 25.073 1065.306 26.237 Q1064.915 27.401 1064.142 28.034 Q1063.368 28.667 1062.196 28.667 Q1060.650 28.667 1059.759 27.557 Q1058.696 26.198 1058.696 23.167 Z M1060.056 23.167 Q1060.056 25.870 1060.673 26.768 Q1061.290 27.667 1062.196 27.667 Q1063.103 27.667 1063.720 26.768 Q1064.337 25.870 1064.337 23.167 Q1064.337 20.448 1063.720 19.557 Q1063.103 18.667 1062.181 18.667 Q1061.275 18.667 1060.728 19.448 Q1060.056 20.464 1060.056 23.167 Z"/>
  <path d="M1067.587 28.667 L1067.587 27.667 L1069.087 27.667 L1069.087 28.667 L1067.587 28.667 Z"/>
  <path d="M1071.134 25.667 L1072.400 25.667 Q1072.556 26.714 1073.009 27.190 Q1073.462 27.667 1074.181 27.667 Q1074.775 27.667 1075.235 27.362 Q1075.696 27.057 1075.985 26.549 Q1076.275 26.042 1076.478 25.190 Q1076.681 24.339 1076.681 23.510 Q1076.681 23.432 1076.665 23.260 Q1076.275 23.885 1075.587 24.276 Q1074.900 24.667 1074.103 24.667 Q1072.775 24.667 1071.853 23.721 Q1070.931 22.776 1070.931 21.214 Q1070.931 19.620 1071.892 18.643 Q1072.853 17.667 1074.306 17.667 Q1075.353 17.667 1076.220 18.229 Q1077.087 18.792 1077.540 19.839 Q1077.993 20.885 1077.993 22.870 Q1077.993 24.948 1077.548 26.167 Q1077.103 27.385 1076.220 28.026 Q1075.337 28.667 1074.150 28.667 Q1072.884 28.667 1072.087 27.878 Q1071.290 27.089 1071.134 25.667 Z M1076.525 21.198 Q1076.525 20.026 1075.923 19.346 Q1075.321 18.667 1074.462 18.667 Q1073.587 18.667 1072.939 19.401 Q1072.290 20.135 1072.290 21.307 Q1072.290 22.354 1072.907 23.010 Q1073.525 23.667 1074.431 23.667 Q1075.353 23.667 1075.939 23.010 Q1076.525 22.354 1076.525 21.198 Z"/>
  <path d="M1180.732 28.667 L1179.404 28.667 L1179.404 20.089 Q1178.935 20.557 1178.161 21.018 Q1177.388 21.479 1176.779 21.714 L1176.779 20.417 Q1177.888 19.885 1178.708 19.128 Q1179.529 18.370 1179.872 17.667 L1180.732 17.667 L1180.732 28.667 Z"/>
  <path d="M1184.654 28.667 L1184.654 27.667 L1186.154 27.667 L1186.154 28.667 L1184.654 28.667 Z"/>
  <path d="M1187.997 23.167 Q1187.997 21.260 1188.388 20.096 Q1188.779 18.932 1189.552 18.299 Q1190.326 17.667 1191.497 17.667 Q1192.357 17.667 1193.013 18.018 Q1193.669 18.370 1194.091 19.026 Q1194.513 19.682 1194.755 20.628 Q1194.997 21.573 1194.997 23.167 Q1194.997 25.073 1194.607 26.237 Q1194.216 27.401 1193.443 28.034 Q1192.669 28.667 1191.497 28.667 Q1189.951 28.667 1189.060 27.557 Q1187.997 26.198 1187.997 23.167 Z M1189.357 23.167 Q1189.357 25.870 1189.974 26.768 Q1190.591 27.667 1191.497 27.667 Q1192.404 27.667 1193.021 26.768 Q1193.638 25.870 1193.638 23.167 Q1193.638 20.448 1193.021 19.557 Q1192.404 18.667 1191.482 18.667 Q1190.576 18.667 1190.029 19.448 Q1189.357 20.464 1189.357 23.167 Z"/>
  <path d="M14.667 435.600 L1185.333 435.600" fill="none" stroke="#000000" stroke-width="1.333"/>
  <path d="M14.667 435.600 L14.667 430.267" fill="none" stroke="#000000" stroke-width="1.333"/>
  <path d="M131.733 435.600 L131.733 430.267" fill="none" stroke="#000000" stroke-width="1.333"/>
  <path d="M248.800 435.600 L248.800 430.267" fill="none" stroke="#000000" stroke-width="1.333"/>
  <path d="M365.867 435.600 L365.867 430.267" fill="none" stroke="#000000" stroke-width="1.333"/>
  <path d="M482.933 435.600 L482.933 430.267" fill="none" stroke="#000000" stroke-width="1.333"/>
  <path d="M600 435.600 L600 430.267" fill="none" stroke="#000000" stroke-width="1.333"/>
  <path d="M717.067 435.600 L717.067 430.267" fill="none" stroke="#000000" stroke-width="1.333"/>
  <path d="M834.133 435.600 L834.133 430.267" fill="none" stroke="#000000" stroke-width="1.333"/>
  <path d="M951.200 435.600 L951.200 430.267" fill="none" stroke="#000000" stroke-width="1.333"/>
  <path d="M1068.267 435.600 L1068.267 430.267" fill="none" stroke="#000000" stroke-width="1.333"/>
  <path d="M1185.333 435.600 L1185.333 430.267" fill="none" stroke="#000000" stroke-width="1.333"/>
  <path d="M5.096 455.833 Q5.096 453.927 5.487 452.763 Q5.878 451.599 6.651 450.966 Q7.424 450.333 8.596 450.333 Q9.456 450.333 10.112 450.685 Q10.768 451.036 11.190 451.693 Q11.612 452.349 11.854 453.294 Q12.096 454.240 12.096 455.833 Q12.096 457.740 11.706 458.904 Q11.315 460.068 10.542 460.701 Q9.768 461.333 8.596 461.333 Q7.049 461.333 6.159 460.224 Q5.096 458.865 5.096 455.833 Z M6.456 455.833 Q6.456 458.536 7.073 459.435 Q7.690 460.333 8.596 460.333 Q9.503 460.333 10.120 459.435 Q10.737 458.536 10.737 455.833 Q10.737 453.115 10.120 452.224 Q9.503 451.333 8.581 451.333 Q7.674 451.333 7.128 452.115 Q6.456 453.130 6.456 455.833 Z"/>
  <path d="M13.987 461.333 L13.987 460.333 L15.487 460.333 L15.487 461.333 L13.987 461.333 Z"/>
  <path d="M17.331 455.833 Q17.331 453.927 17.721 452.763 Q18.112 451.599 18.885 450.966 Q19.659 450.333 20.831 450.333 Q21.690 450.333 22.346 450.685 Q23.003 451.036 23.424 451.693 Q23.846 452.349 24.089 453.294 Q24.331 454.240 24.331 455.833 Q24.331 457.740 23.940 458.904 Q23.549 460.068 22.776 460.701 Q22.003 461.333 20.831 461.333 Q19.284 461.333 18.393 460.224 Q17.331 458.865 17.331 455.833 Z M18.690 455.833 Q18.690 458.536 19.307 459.435 Q19.924 460.333 20.831 460.333 Q21.737 460.333 22.354 459.435 Q22.971 458.536 22.971 455.833 Q22.971 453.115 22.354 452.224 Q21.737 451.333 20.815 451.333 Q19.909 451.333 19.362 452.115 Q18.690 453.130 18.690 455.833 Z"/>
  <path d="M122.163 455.833 Q122.163 453.927 122.554 452.763 Q122.944 451.599 123.718 450.966 Q124.491 450.333 125.663 450.333 Q126.522 450.333 127.179 450.685 Q127.835 451.036 128.257 451.693 Q128.679 452.349 128.921 453.294 Q129.163 454.240 129.163 455.833 Q129.163 457.740 128.772 458.904 Q128.382 460.068 127.608 460.701 Q126.835 461.333 125.663 461.333 Q124.116 461.333 123.226 460.224 Q122.163 458.865 122.163 455.833 Z M123.522 455.833 Q123.522 458.536 124.140 459.435 Q124.757 460.333 125.663 460.333 Q126.569 460.333 127.186 459.435 Q127.804 458.536 127.804 455.833 Q127.804 453.115 127.186 452.224 Q126.569 451.333 125.647 451.333 Q124.741 451.333 124.194 452.115 Q123.522 453.130 123.522 455.833 Z"/>
  <path d="M131.054 461.333 L131.054 460.333 L132.554 460.333 L132.554 461.333 L131.054 461.333 Z"/>
  <path d="M139.366 461.333 L138.038 461.333 L138.038 452.755 Q137.569 453.224 136.796 453.685 Q136.022 454.146 135.413 454.380 L135.413 453.083 Q136.522 452.552 137.343 451.794 Q138.163 451.036 138.507 450.333 L139.366 450.333 L139.366 461.333 Z"/>
  <path d="M239.230 455.833 Q239.230 453.927 239.620 452.763 Q240.011 451.599 240.784 450.966 Q241.558 450.333 242.730 450.333 Q243.589 450.333 244.245 450.685 Q244.902 451.036 245.323 451.693 Q245.745 452.349 245.988 453.294 Q246.230 454.240 246.230 455.833 Q246.230 457.740 245.839 458.904 Q245.448 460.068 244.675 460.701 Q243.902 461.333 242.730 461.333 Q241.183 461.333 240.292 460.224 Q239.230 458.865 239.230 455.833 Z M240.589 455.833 Q240.589 458.536 241.206 459.435 Q241.823 460.333 242.730 460.333 Q243.636 460.333 244.253 459.435 Q244.870 458.536 244.870 455.833 Q244.870 453.115 244.253 452.224 Q243.636 451.333 242.714 451.333 Q241.808 451.333 241.261 452.115 Q240.589 453.130 240.589 455.833 Z"/>
  <path d="M248.120 461.333 L248.120 460.333 L249.620 460.333 L249.620 461.333 L248.120 461.333 Z"/>
  <path d="M258.386 460.333 L258.386 461.333 L251.292 461.333 Q251.277 460.943 251.448 460.568 Q251.714 459.958 252.316 459.372 Q252.917 458.786 254.042 457.724 Q255.792 456.068 256.409 455.138 Q257.027 454.208 257.027 453.396 Q257.027 452.521 256.464 451.927 Q255.902 451.333 255.011 451.333 Q254.058 451.333 253.480 451.865 Q252.902 452.396 252.902 453.333 L251.542 453.333 Q251.683 451.865 252.589 451.099 Q253.495 450.333 255.027 450.333 Q256.573 450.333 257.472 451.224 Q258.370 452.115 258.370 453.443 Q258.370 454.115 258.105 454.763 Q257.839 455.411 257.230 456.130 Q256.620 456.849 255.198 458.130 Q254.011 459.193 253.675 459.568 Q253.339 459.943 253.120 460.333 L258.386 460.333 Z"/>
  <path d="M356.296 455.833 Q356.296 453.927 356.687 452.763 Q357.078 451.599 357.851 450.966 Q358.624 450.333 359.796 450.333 Q360.656 450.333 361.312 450.685 Q361.968 451.036 362.390 451.693 Q362.812 452.349 363.054 453.294 Q363.296 454.240 363.296 455.833 Q363.296 457.740 362.906 458.904 Q362.515 460.068 361.742 460.701 Q360.968 461.333 359.796 461.333 Q358.249 461.333 357.359 460.224 Q356.296 458.865 356.296 455.833 Z M357.656 455.833 Q357.656 458.536 358.273 459.435 Q358.890 460.333 359.796 460.333 Q360.703 460.333 361.320 459.435 Q361.937 458.536 361.937 455.833 Q361.937 453.115 361.320 452.224 Q360.703 451.333 359.781 451.333 Q358.874 451.333 358.328 452.115 Q357.656 453.130 357.656 455.833 Z"/>
  <path d="M365.187 461.333 L365.187 460.333 L366.687 460.333 L366.687 461.333 L365.187 461.333 Z"/>
  <path d="M368.531 458.333 L369.859 458.333 Q370.093 459.396 370.632 459.865 Q371.171 460.333 371.953 460.333 Q372.890 460.333 373.531 459.716 Q374.171 459.099 374.171 458.193 Q374.171 457.318 373.578 456.747 Q372.984 456.177 372.062 456.177 Q371.687 456.177 371.140 456.333 L371.281 455.333 Q371.421 455.349 371.499 455.349 Q372.343 455.349 373.015 454.841 Q373.687 454.333 373.687 453.271 Q373.687 452.443 373.195 451.888 Q372.703 451.333 371.921 451.333 Q371.156 451.333 370.640 451.833 Q370.124 452.333 369.984 453.333 L368.671 453.333 Q368.906 451.911 369.765 451.122 Q370.624 450.333 371.906 450.333 Q372.781 450.333 373.523 450.740 Q374.265 451.146 374.656 451.849 Q375.046 452.552 375.046 453.349 Q375.046 454.099 374.671 454.716 Q374.296 455.333 373.562 455.693 Q374.515 455.896 375.039 456.544 Q375.562 457.193 375.562 458.177 Q375.562 459.490 374.539 460.411 Q373.515 461.333 371.937 461.333 Q370.531 461.333 369.593 460.497 Q368.656 459.661 368.531 458.333 Z"/>
  <path d="M473.363 455.833 Q473.363 453.927 473.754 452.763 Q474.144 451.599 474.918 450.966 Q475.691 450.333 476.863 450.333 Q477.722 450.333 478.379 450.685 Q479.035 451.036 479.457 451.693 Q479.879 452.349 480.121 453.294 Q480.363 454.240 480.363 455.833 Q480.363 457.740 479.972 458.904 Q479.582 460.068 478.808 460.701 Q478.035 461.333 476.863 461.333 Q475.316 461.333 474.426 460.224 Q473.363 458.865 473.363 455.833 Z M474.722 455.833 Q474.722 458.536 475.340 459.435 Q475.957 460.333 476.863 460.333 Q477.769 460.333 478.386 459.435 Q479.004 458.536 479.004 455.833 Q479.004 453.115 478.386 452.224 Q477.769 451.333 476.847 451.333 Q475.941 451.333 475.394 452.115 Q474.722 453.130 474.722 455.833 Z"/>
  <path d="M482.254 461.333 L482.254 460.333 L483.754 460.333 L483.754 461.333 L482.254 461.333 Z"/>
  <path d="M489.816 461.333 L489.816 458.333 L485.160 458.333 L485.160 457.333 L490.066 450.333 L491.144 450.333 L491.144 457.333 L492.597 457.333 L492.597 458.333 L491.144 458.333 L491.144 461.333 L489.816 461.333 Z M489.816 457.333 L489.816 452.536 L486.457 457.333 L489.816 457.333 Z"/>
  <path d="M590.430 455.833 Q590.430 453.927 590.820 452.763 Q591.211 451.599 591.984 450.966 Q592.758 450.333 593.930 450.333 Q594.789 450.333 595.445 450.685 Q596.102 451.036 596.523 451.693 Q596.945 452.349 597.188 453.294 Q597.430 454.240 597.430 455.833 Q597.430 457.740 597.039 458.904 Q596.648 460.068 595.875 460.701 Q595.102 461.333 593.930 461.333 Q592.383 461.333 591.492 460.224 Q590.430 458.865 590.430 455.833 Z M591.789 455.833 Q591.789 458.536 592.406 459.435 Q593.023 460.333 593.930 460.333 Q594.836 460.333 595.453 459.435 Q596.070 458.536 596.070 455.833 Q596.070 453.115 595.453 452.224 Q594.836 451.333 593.914 451.333 Q593.008 451.333 592.461 452.115 Q591.789 453.130 591.789 455.833 Z"/>
  <path d="M599.320 461.333 L599.320 460.333 L600.820 460.333 L600.820 461.333 L599.320 461.333 Z"/>
  <path d="M602.664 458.333 L604.039 458.333 Q604.195 459.333 604.758 459.833 Q605.320 460.333 606.102 460.333 Q607.055 460.333 607.719 459.622 Q608.383 458.911 608.383 457.740 Q608.383 456.630 607.750 455.982 Q607.117 455.333 606.086 455.333 Q605.445 455.333 604.938 455.615 Q604.430 455.896 604.133 456.333 L602.898 456.333 L603.930 450.333 L609.273 450.333 L609.273 451.333 L604.992 451.333 L604.414 454.911 Q605.383 454.333 606.445 454.333 Q607.836 454.333 608.805 455.271 Q609.773 456.208 609.773 457.661 Q609.773 459.068 608.930 460.083 Q607.898 461.333 606.102 461.333 Q604.648 461.333 603.719 460.513 Q602.789 459.693 602.664 458.333 Z"/>
  <path d="M707.496 455.833 Q707.496 453.927 707.887 452.763 Q708.278 451.599 709.051 450.966 Q709.825 450.333 710.996 450.333 Q711.856 450.333 712.512 450.685 Q713.168 451.036 713.590 451.693 Q714.012 452.349 714.254 453.294 Q714.496 454.240 714.496 455.833 Q714.496 457.740 714.106 458.904 Q713.715 460.068 712.942 460.701 Q712.168 461.333 710.996 461.333 Q709.450 461.333 708.559 460.224 Q707.496 458.865 707.496 455.833 Z M708.856 455.833 Q708.856 458.536 709.473 459.435 Q710.090 460.333 710.996 460.333 Q711.903 460.333 712.520 459.435 Q713.137 458.536 713.137 455.833 Q713.137 453.115 712.520 452.224 Q711.903 451.333 710.981 451.333 Q710.075 451.333 709.528 452.115 Q708.856 453.130 708.856 455.833 Z"/>
  <path d="M716.387 461.333 L716.387 460.333 L717.887 460.333 L717.887 461.333 L716.387 461.333 Z"/>
  <path d="M726.575 453.333 L725.262 453.333 Q725.090 452.411 724.762 452.005 Q724.231 451.333 723.450 451.333 Q722.809 451.333 722.340 451.724 Q721.715 452.224 721.356 453.177 Q720.996 454.130 720.981 455.771 Q721.450 455.036 722.145 454.685 Q722.840 454.333 723.590 454.333 Q724.903 454.333 725.832 455.286 Q726.762 456.240 726.762 457.740 Q726.762 458.724 726.325 459.576 Q725.887 460.427 725.129 460.880 Q724.371 461.333 723.403 461.333 Q721.746 461.333 720.707 460.115 Q719.668 458.896 719.668 456.115 Q719.668 452.990 720.825 451.568 Q721.825 450.333 723.528 450.333 Q724.793 450.333 725.606 451.130 Q726.418 451.927 726.575 453.333 Z M721.184 457.708 Q721.184 458.396 721.473 459.029 Q721.762 459.661 722.285 459.997 Q722.809 460.333 723.371 460.333 Q724.215 460.333 724.817 459.646 Q725.418 458.958 725.418 457.771 Q725.418 456.646 724.825 455.990 Q724.231 455.333 723.325 455.333 Q722.434 455.333 721.809 455.990 Q721.184 456.646 721.184 457.708 Z"/>
  <path d="M824.563 455.833 Q824.563 453.927 824.954 452.763 Q825.344 451.599 826.118 450.966 Q826.891 450.333 828.063 450.333 Q828.922 450.333 829.579 450.685 Q830.235 451.036 830.657 451.693 Q831.079 452.349 831.321 453.294 Q831.563 454.240 831.563 455.833 Q831.563 457.740 831.172 458.904 Q830.782 460.068 830.008 460.701 Q829.235 461.333 828.063 461.333 Q826.516 461.333 825.626 460.224 Q824.563 458.865 824.563 455.833 Z M825.922 455.833 Q825.922 458.536 826.540 459.435 Q827.157 460.333 828.063 460.333 Q828.969 460.333 829.586 459.435 Q830.204 458.536 830.204 455.833 Q830.204 453.115 829.586 452.224 Q828.969 451.333 828.047 451.333 Q827.141 451.333 826.594 452.115 Q825.922 453.130 825.922 455.833 Z"/>
  <path d="M833.454 461.333 L833.454 460.333 L834.954 460.333 L834.954 461.333 L833.454 461.333 Z"/>
  <path d="M836.876 451.333 L836.876 450.333 L843.829 450.333 L843.829 451.146 Q842.813 452.240 841.805 454.177 Q840.797 456.115 840.235 458.161 Q839.844 459.615 839.735 461.333 L838.391 461.333 Q838.407 459.974 838.883 458.052 Q839.360 456.130 840.251 454.341 Q841.141 452.552 842.141 451.333 L836.876 451.333 Z"/>
  <path d="M941.630 455.833 Q941.630 453.927 942.020 452.763 Q942.411 451.599 943.184 450.966 Q943.958 450.333 945.130 450.333 Q945.989 450.333 946.645 450.685 Q947.302 451.036 947.723 451.693 Q948.145 452.349 948.388 453.294 Q948.630 454.240 948.630 455.833 Q948.630 457.740 948.239 458.904 Q947.848 460.068 947.075 460.701 Q946.302 461.333 945.130 461.333 Q943.583 461.333 942.692 460.224 Q941.630 458.865 941.630 455.833 Z M942.989 455.833 Q942.989 458.536 943.606 459.435 Q944.223 460.333 945.130 460.333 Q946.036 460.333 946.653 459.435 Q947.270 458.536 947.270 455.833 Q947.270 453.115 946.653 452.224 Q946.036 451.333 945.114 451.333 Q944.208 451.333 943.661 452.115 Q942.989 453.130 942.989 455.833 Z"/>
  <path d="M950.520 461.333 L950.520 460.333 L952.020 460.333 L952.020 461.333 L950.520 461.333 Z"/>
  <path d="M955.895 455.802 Q955.083 455.474 954.684 454.857 Q954.286 454.240 954.286 453.380 Q954.286 452.099 955.130 451.216 Q955.973 450.333 957.364 450.333 Q958.770 450.333 959.630 451.232 Q960.489 452.130 960.489 453.427 Q960.489 454.255 960.091 454.865 Q959.692 455.474 958.895 455.802 Q959.895 456.099 960.411 456.763 Q960.927 457.427 960.927 458.333 Q960.927 459.599 959.950 460.466 Q958.973 461.333 957.395 461.333 Q955.802 461.333 954.825 460.466 Q953.848 459.599 953.848 458.302 Q953.848 457.333 954.380 456.685 Q954.911 456.036 955.895 455.802 Z M955.630 453.286 Q955.630 454.193 956.122 454.763 Q956.614 455.333 957.395 455.333 Q958.161 455.333 958.645 454.763 Q959.130 454.193 959.130 453.365 Q959.130 452.505 958.630 451.919 Q958.130 451.333 957.380 451.333 Q956.630 451.333 956.130 451.904 Q955.630 452.474 955.630 453.286 Z M955.208 458.318 Q955.208 458.833 955.473 459.318 Q955.739 459.802 956.263 460.068 Q956.786 460.333 957.395 460.333 Q958.333 460.333 958.950 459.771 Q959.567 459.208 959.567 458.349 Q959.567 457.474 958.934 456.904 Q958.302 456.333 957.348 456.333 Q956.427 456.333 955.817 456.896 Q955.208 457.458 955.208 458.318 Z"/>
  <path d="M1058.696 455.833 Q1058.696 453.927 1059.087 452.763 Q1059.478 451.599 1060.251 450.966 Q1061.025 450.333 1062.196 450.333 Q1063.056 450.333 1063.712 450.685 Q1064.368 451.036 1064.790 451.693 Q1065.212 452.349 1065.454 453.294 Q1065.696 454.240 1065.696 455.833 Q1065.696 457.740 1065.306 458.904 Q1064.915 460.068 1064.142 460.701 Q1063.368 461.333 1062.196 461.333 Q1060.650 461.333 1059.759 460.224 Q1058.696 458.865 1058.696 455.833 Z M1060.056 455.833 Q1060.056 458.536 1060.673 459.435 Q1061.290 460.333 1062.196 460.333 Q1063.103 460.333 1063.720 459.435 Q1064.337 458.536 1064.337 455.833 Q1064.337 453.115 1063.720 452.224 Q1063.103 451.333 1062.181 451.333 Q1061.275 451.333 1060.728 452.115 Q1060.056 453.130 1060.056 455.833 Z"/>
  <path d="M1067.587 461.333 L1067.587 460.333 L1069.087 460.333 L1069.087 461.333 L1067.587 461.333 Z"/>
  <path d="M1071.134 458.333 L1072.400 458.333 Q1072.556 459.380 1073.009 459.857 Q1073.462 460.333 1074.181 460.333 Q1074.775 460.333 1075.235 460.029 Q1075.696 459.724 1075.985 459.216 Q1076.275 458.708 1076.478 457.857 Q1076.681 457.005 1076.681 456.177 Q1076.681 456.099 1076.665 455.927 Q1076.275 456.552 1075.587 456.943 Q1074.900 457.333 1074.103 457.333 Q1072.775 457.333 1071.853 456.388 Q1070.931 455.443 1070.931 453.880 Q1070.931 452.286 1071.892 451.310 Q1072.853 450.333 1074.306 450.333 Q1075.353 450.333 1076.220 450.896 Q1077.087 451.458 1077.540 452.505 Q1077.993 453.552 1077.993 455.536 Q1077.993 457.615 1077.548 458.833 Q1077.103 460.052 1076.220 460.693 Q1075.337 461.333 1074.150 461.333 Q1072.884 461.333 1072.087 460.544 Q1071.290 459.755 1071.134 458.333 Z M1076.525 453.865 Q1076.525 452.693 1075.923 452.013 Q1075.321 451.333 1074.462 451.333 Q1073.587 451.333 1072.939 452.068 Q1072.290 452.802 1072.290 453.974 Q1072.290 455.021 1072.907 455.677 Q1073.525 456.333 1074.431 456.333 Q1075.353 456.333 1075.939 455.677 Q1076.525 455.021 1076.525 453.865 Z"/>
  <path d="M1180.732 461.333 L1179.404 461.333 L1179.404 452.755 Q1178.935 453.224 1178.161 453.685 Q1177.388 454.146 1176.779 454.380 L1176.779 453.083 Q1177.888 452.552 1178.708 451.794 Q1179.529 451.036 1179.872 450.333 L1180.732 450.333 L1180.732 461.333 Z"/>
  <path d="M1184.654 461.333 L1184.654 460.333 L1186.154 460.333 L1186.154 461.333 L1184.654 461.333 Z"/>
  <path d="M1187.997 455.833 Q1187.997 453.927 1188.388 452.763 Q1188.779 451.599 1189.552 450.966 Q1190.326 450.333 1191.497 450.333 Q1192.357 450.333 1193.013 450.685 Q1193.669 451.036 1194.091 451.693 Q1194.513 452.349 1194.755 453.294 Q1194.997 454.240 1194.997 455.833 Q1194.997 457.740 1194.607 458.904 Q1194.216 460.068 1193.443 460.701 Q1192.669 461.333 1191.497 461.333 Q1189.951 461.333 1189.060 460.224 Q1187.997 458.865 1187.997 455.833 Z M1189.357 455.833 Q1189.357 458.536 1189.974 459.435 Q1190.591 460.333 1191.497 460.333 Q1192.404 460.333 1193.021 459.435 Q1193.638 458.536 1193.638 455.833 Q1193.638 453.115 1193.021 452.224 Q1192.404 451.333 1191.482 451.333 Q1190.576 451.333 1190.029 452.115 Q1189.357 453.130 1189.357 455.833 Z"/>
  <path d="M14.667 106.992 L161 91.344 L307.333 71.784 L600 110.904 L892.667 157.848 L1185.333 110.904 L1185.333 365.184 L892.667 310.416 L600 333.888 L307.333 318.240 L161 357.360 L14.667 373.008 Z" fill="#cccccc"/>
  <path d="M14.667 118.728 L161 110.904 L307.333 122.640 L600 134.376 L892.667 189.144 L1185.333 122.640 L1185.333 310.416 L892.667 267.384 L600 318.240 L307.333 279.120 L161 318.240 L14.667 333.888 Z" fill="#888888"/>
  <path d="M14.667 235.188 L307.333 199.628 L600 264.372 L892.667 222.670 L1185.333 226.504" fill="none" stroke="#000000" stroke-width="2"/>
  <path d="M14.667 237.855 C13.194 237.855 12.000 236.661 12.000 235.188 C12.000 233.715 13.194 232.522 14.667 232.522 C16.139 232.522 17.333 233.715 17.333 235.188 C17.333 236.661 16.139 237.855 14.667 237.855 Z"/>
  <path d="M307.333 202.295 C305.861 202.295 304.667 201.101 304.667 199.628 C304.667 198.155 305.861 196.961 307.333 196.961 C308.806 196.961 310.000 198.155 310.000 199.628 C310.000 201.101 308.806 202.295 307.333 202.295 Z"/>
  <path d="M600 267.038 C598.527 267.038 597.333 265.845 597.333 264.372 C597.333 262.899 598.527 261.705 600 261.705 C601.473 261.705 602.667 262.899 602.667 264.372 C602.667 265.845 601.473 267.038 600 267.038 Z"/>
  <path d="M892.667 225.337 C891.194 225.337 890 224.143 890 222.670 C890 221.197 891.194 220.003 892.667 220.003 C894.139 220.003 895.333 221.197 895.333 222.670 C895.333 224.143 894.139 225.337 892.667 225.337 Z"/>
  <path d="M1185.333 229.170 C1183.861 229.170 1182.667 227.976 1182.667 226.504 C1182.667 225.031 1183.861 223.837 1185.333 223.837 C1186.806 223.837 1188.000 225.031 1188.000 226.504 C1188.000 227.976 1186.806 229.170 1185.333 229.170 Z"/>
  <path d="M912.252 411 L913.596 411 Q913.690 411.656 914.041 412.070 Q914.393 412.484 915.127 412.742 Q915.861 413 916.768 413 Q917.580 413 918.205 412.805 Q918.830 412.609 919.135 412.266 Q919.440 411.922 919.440 411.312 Q919.440 410.688 919.143 410.227 Q918.846 409.766 918.174 409.484 Q917.736 409.312 916.260 408.945 Q914.783 408.578 914.190 408.266 Q913.408 407.859 913.033 407.266 Q912.658 406.672 912.658 405.938 Q912.658 405.141 913.119 404.438 Q913.580 403.734 914.471 403.367 Q915.361 403 916.440 403 Q917.643 403 918.557 403.359 Q919.471 403.719 919.963 404.414 Q920.455 405.109 920.486 406 L919.111 406 Q919.002 405.016 918.369 404.508 Q917.736 404 916.502 404 Q915.205 404 914.619 404.492 Q914.033 404.984 914.033 405.688 Q914.033 406.297 914.455 406.688 Q914.861 407.078 916.596 407.492 Q918.330 407.906 918.971 408.203 Q919.908 408.625 920.354 409.281 Q920.799 409.938 920.799 410.797 Q920.799 411.656 920.307 412.406 Q919.815 413.156 918.901 413.578 Q917.986 414 916.830 414 Q915.377 414 914.393 413.648 Q913.408 413.297 912.846 412.594 Q912.283 411.891 912.252 411 Z"/>
  <path d="M927.674 412 L929.033 412 Q928.705 412.953 927.838 413.477 Q926.971 414 925.611 414 Q923.908 414 922.908 412.969 Q921.908 411.938 921.908 410.062 Q921.908 408.141 922.916 407.070 Q923.924 406 925.549 406 Q927.096 406 928.088 406.969 Q929.080 407.938 929.080 409.688 Q929.080 409.781 929.080 410 L923.268 410 Q923.346 411.453 923.994 412.227 Q924.643 413 925.627 413 Q926.346 413 926.861 412.758 Q927.377 412.516 927.674 412 Z M923.346 409 L927.690 409 Q927.596 408.125 927.190 407.688 Q926.565 407 925.565 407 Q924.643 407 924.026 407.547 Q923.408 408.094 923.346 409 Z"/>
  <path d="M930.486 414 L930.486 406 L931.674 406 L931.674 407 Q932.127 406.391 932.510 406.195 Q932.893 406 933.361 406 Q934.033 406 934.721 406.203 L934.268 407.422 Q933.783 407 933.299 407 Q932.861 407 932.518 407.273 Q932.174 407.547 932.033 408.031 Q931.815 408.781 931.815 409.672 L931.815 414 L930.486 414 Z"/>
  <path d="M935.408 404 L935.408 403 L936.721 403 L936.721 404 L935.408 404 Z M935.408 414 L935.408 406 L936.721 406 L936.721 414 L935.408 414 Z"/>
  <path d="M943.986 412 L945.346 412 Q945.018 412.953 944.151 413.477 Q943.283 414 941.924 414 Q940.221 414 939.221 412.969 Q938.221 411.938 938.221 410.062 Q938.221 408.141 939.229 407.070 Q940.236 406 941.861 406 Q943.408 406 944.401 406.969 Q945.393 407.938 945.393 409.688 Q945.393 409.781 945.393 410 L939.580 410 Q939.658 411.453 940.307 412.227 Q940.955 413 941.940 413 Q942.658 413 943.174 412.758 Q943.690 412.516 943.986 412 Z M939.658 409 L944.002 409 Q943.908 408.125 943.502 407.688 Q942.877 407 941.877 407 Q940.955 407 940.338 407.547 Q939.721 408.094 939.658 409 Z"/>
  <path d="M946.299 412 L947.596 412 Q947.705 412.484 948.205 412.742 Q948.705 413 949.611 413 Q950.518 413 950.955 412.617 Q951.393 412.234 951.393 411.734 Q951.393 411.266 951.002 411 Q950.736 410.828 949.658 410.547 Q948.205 410.188 947.651 409.930 Q947.096 409.672 946.807 409.211 Q946.518 408.750 946.518 408.188 Q946.518 407.688 946.752 407.250 Q946.986 406.812 947.408 406.531 Q947.705 406.312 948.236 406.156 Q948.768 406 949.377 406 Q950.283 406 950.979 406.242 Q951.674 406.484 952.002 406.898 Q952.330 407.312 952.455 408 L951.174 408 Q951.080 407.531 950.658 407.266 Q950.236 407 949.471 407 Q948.565 407 948.174 407.312 Q947.783 407.625 947.783 408.031 Q947.783 408.297 947.940 408.516 Q948.111 408.734 948.440 408.875 Q948.643 408.953 949.611 409.219 Q951.018 409.578 951.572 409.812 Q952.127 410.047 952.440 410.492 Q952.752 410.938 952.752 411.594 Q952.752 412.234 952.369 412.805 Q951.986 413.375 951.260 413.688 Q950.533 414 949.627 414 Q948.111 414 947.315 413.492 Q946.518 412.984 946.299 412 Z"/>
  <path d=""/>
  <path d="M956.830 414 L960.955 403 L962.471 403 L966.877 414 L965.252 414 L964.002 411 L959.518 411 L958.330 414 L956.830 414 Z M959.924 410 L963.565 410 L962.440 406.562 Q961.924 405.203 961.674 404 Q961.471 405.344 961.096 406.375 L959.924 410 Z"/>
  <path d="M897.647 414.500 C894.609 414.500 892.147 412.038 892.147 409 C892.147 405.962 894.609 403.500 897.647 403.500 C900.684 403.500 903.147 405.962 903.147 409 C903.147 412.038 900.684 414.500 897.647 414.500 Z" fill="#cccccc"/>
  <path d="M1003.559 411 L1004.903 411 Q1004.997 411.656 1005.348 412.070 Q1005.700 412.484 1006.434 412.742 Q1007.169 413 1008.075 413 Q1008.888 413 1009.513 412.805 Q1010.138 412.609 1010.442 412.266 Q1010.747 411.922 1010.747 411.312 Q1010.747 410.688 1010.450 410.227 Q1010.153 409.766 1009.481 409.484 Q1009.044 409.312 1007.567 408.945 Q1006.091 408.578 1005.497 408.266 Q1004.716 407.859 1004.341 407.266 Q1003.966 406.672 1003.966 405.938 Q1003.966 405.141 1004.427 404.438 Q1004.888 403.734 1005.778 403.367 Q1006.669 403 1007.747 403 Q1008.950 403 1009.864 403.359 Q1010.778 403.719 1011.270 404.414 Q1011.763 405.109 1011.794 406 L1010.419 406 Q1010.309 405.016 1009.677 404.508 Q1009.044 404 1007.809 404 Q1006.513 404 1005.927 404.492 Q1005.341 404.984 1005.341 405.688 Q1005.341 406.297 1005.763 406.688 Q1006.169 407.078 1007.903 407.492 Q1009.638 407.906 1010.278 408.203 Q1011.216 408.625 1011.661 409.281 Q1012.106 409.938 1012.106 410.797 Q1012.106 411.656 1011.614 412.406 Q1011.122 413.156 1010.208 413.578 Q1009.294 414 1008.138 414 Q1006.684 414 1005.700 413.648 Q1004.716 413.297 1004.153 412.594 Q1003.591 411.891 1003.559 411 Z"/>
  <path d="M1018.981 412 L1020.341 412 Q1020.013 412.953 1019.145 413.477 Q1018.278 414 1016.919 414 Q1015.216 414 1014.216 412.969 Q1013.216 411.938 1013.216 410.062 Q1013.216 408.141 1014.223 407.070 Q1015.231 406 1016.856 406 Q1018.403 406 1019.395 406.969 Q1020.388 407.938 1020.388 409.688 Q1020.388 409.781 1020.388 410 L1014.575 410 Q1014.653 411.453 1015.302 412.227 Q1015.950 413 1016.934 413 Q1017.653 413 1018.169 412.758 Q1018.684 412.516 1018.981 412 Z M1014.653 409 L1018.997 409 Q1018.903 408.125 1018.497 407.688 Q1017.872 407 1016.872 407 Q1015.950 407 1015.333 407.547 Q1014.716 408.094 1014.653 409 Z"/>
  <path d="M1021.794 414 L1021.794 406 L1022.981 406 L1022.981 407 Q1023.434 406.391 1023.817 406.195 Q1024.200 406 1024.669 406 Q1025.341 406 1026.028 406.203 L1025.575 407.422 Q1025.091 407 1024.606 407 Q1024.169 407 1023.825 407.273 Q1023.481 407.547 1023.341 408.031 Q1023.122 408.781 1023.122 409.672 L1023.122 414 L1021.794 414 Z"/>
  <path d="M1026.716 404 L1026.716 403 L1028.028 403 L1028.028 404 L1026.716 404 Z M1026.716 414 L1026.716 406 L1028.028 406 L1028.028 414 L1026.716 414 Z"/>
  <path d="M1035.294 412 L1036.653 412 Q1036.325 412.953 1035.458 413.477 Q1034.591 414 1033.231 414 Q1031.528 414 1030.528 412.969 Q1029.528 411.938 1029.528 410.062 Q1029.528 408.141 1030.536 407.070 Q1031.544 406 1033.169 406 Q1034.716 406 1035.708 406.969 Q1036.700 407.938 1036.700 409.688 Q1036.700 409.781 1036.700 410 L1030.888 410 Q1030.966 411.453 1031.614 412.227 Q1032.263 413 1033.247 413 Q1033.966 413 1034.481 412.758 Q1034.997 412.516 1035.294 412 Z M1030.966 409 L1035.309 409 Q1035.216 408.125 1034.809 407.688 Q1034.184 407 1033.184 407 Q1032.263 407 1031.645 407.547 Q1031.028 408.094 1030.966 409 Z"/>
  <path d="M1037.606 412 L1038.903 412 Q1039.013 412.484 1039.513 412.742 Q1040.013 413 1040.919 413 Q1041.825 413 1042.263 412.617 Q1042.700 412.234 1042.700 411.734 Q1042.700 411.266 1042.309 411 Q1042.044 410.828 1040.966 410.547 Q1039.513 410.188 1038.958 409.930 Q1038.403 409.672 1038.114 409.211 Q1037.825 408.750 1037.825 408.188 Q1037.825 407.688 1038.059 407.250 Q1038.294 406.812 1038.716 406.531 Q1039.013 406.312 1039.544 406.156 Q1040.075 406 1040.684 406 Q1041.591 406 1042.286 406.242 Q1042.981 406.484 1043.309 406.898 Q1043.638 407.312 1043.763 408 L1042.481 408 Q1042.388 407.531 1041.966 407.266 Q1041.544 407 1040.778 407 Q1039.872 407 1039.481 407.312 Q1039.091 407.625 1039.091 408.031 Q1039.091 408.297 1039.247 408.516 Q1039.419 408.734 1039.747 408.875 Q1039.950 408.953 1040.919 409.219 Q1042.325 409.578 1042.880 409.812 Q1043.434 410.047 1043.747 410.492 Q1044.059 410.938 1044.059 411.594 Q1044.059 412.234 1043.677 412.805 Q1043.294 413.375 1042.567 413.688 Q1041.841 414 1040.934 414 Q1039.419 414 1038.622 413.492 Q1037.825 412.984 1037.606 412 Z"/>
  <path d=""/>
  <path d="M1049.653 414 L1049.653 403 L1053.684 403 Q1054.919 403 1055.661 403.328 Q1056.403 403.656 1056.825 404.328 Q1057.247 405 1057.247 405.734 Q1057.247 406.422 1056.872 407.023 Q1056.497 407.625 1055.747 408 Q1056.716 408.297 1057.239 409.023 Q1057.763 409.750 1057.763 410.734 Q1057.763 411.516 1057.442 412.203 Q1057.122 412.891 1056.653 413.258 Q1056.184 413.625 1055.481 413.812 Q1054.778 414 1053.747 414 L1049.653 414 Z M1051.075 408 L1053.403 408 Q1054.341 408 1054.747 407.844 Q1055.294 407.641 1055.567 407.180 Q1055.841 406.719 1055.841 406.031 Q1055.841 405.375 1055.583 404.875 Q1055.325 404.375 1054.848 404.188 Q1054.372 404 1053.216 404 L1051.075 404 L1051.075 408 Z M1051.075 413 L1053.747 413 Q1054.434 413 1054.716 412.938 Q1055.216 412.844 1055.544 412.625 Q1055.872 412.406 1056.083 411.984 Q1056.294 411.562 1056.294 411 Q1056.294 410.344 1055.989 409.867 Q1055.684 409.391 1055.138 409.195 Q1054.591 409 1053.559 409 L1051.075 409 L1051.075 413 Z"/>
  <path d="M988.954 414.500 C985.917 414.500 983.454 412.038 983.454 409 C983.454 405.962 985.917 403.500 988.954 403.500 C991.992 403.500 994.454 405.962 994.454 409 C994.454 412.038 991.992 414.500 988.954 414.500 Z" fill="#888888"/>
  <path d="M1103.820 410.172 L1105.242 410.531 Q1104.789 412.219 1103.632 413.109 Q1102.476 414 1100.804 414 Q1099.070 414 1097.984 413.297 Q1096.898 412.594 1096.328 411.266 Q1095.757 409.938 1095.757 408.422 Q1095.757 406.766 1096.398 405.523 Q1097.039 404.281 1098.226 403.641 Q1099.414 403 1100.820 403 Q1102.445 403 1103.539 403.781 Q1104.632 404.562 1105.070 405.984 L1103.664 406.328 Q1103.289 405.109 1102.578 404.555 Q1101.867 404 1100.789 404 Q1099.554 404 1098.726 404.617 Q1097.898 405.234 1097.562 406.273 Q1097.226 407.312 1097.226 408.406 Q1097.226 409.828 1097.624 410.891 Q1098.023 411.953 1098.867 412.477 Q1099.710 413 1100.679 413 Q1101.882 413 1102.703 412.289 Q1103.523 411.578 1103.820 410.172 Z"/>
  <path d="M1106.101 410 Q1106.101 407.875 1107.304 406.844 Q1108.304 406 1109.742 406 Q1111.351 406 1112.367 407.031 Q1113.382 408.062 1113.382 409.891 Q1113.382 411.375 1112.929 412.219 Q1112.476 413.062 1111.617 413.531 Q1110.757 414 1109.742 414 Q1108.117 414 1107.109 412.969 Q1106.101 411.938 1106.101 410 Z M1107.460 410 Q1107.460 411.500 1108.109 412.250 Q1108.757 413 1109.757 413 Q1110.742 413 1111.390 412.250 Q1112.039 411.500 1112.039 409.953 Q1112.039 408.500 1111.382 407.750 Q1110.726 407 1109.757 407 Q1108.757 407 1108.109 407.742 Q1107.460 408.484 1107.460 410 Z"/>
  <path d="M1114.742 414 L1114.742 406 L1115.929 406 L1115.929 407.125 Q1116.289 406.625 1116.898 406.312 Q1117.507 406 1118.289 406 Q1119.148 406 1119.695 406.320 Q1120.242 406.641 1120.476 407.219 Q1121.398 406 1122.882 406 Q1124.039 406 1124.664 406.648 Q1125.289 407.297 1125.289 408.625 L1125.289 414 L1123.976 414 L1123.976 408.969 Q1123.976 408.156 1123.851 407.797 Q1123.726 407.438 1123.382 407.219 Q1123.039 407 1122.585 407 Q1121.773 407 1121.226 407.562 Q1120.679 408.125 1120.679 409.359 L1120.679 414 L1119.367 414 L1119.367 408.812 Q1119.367 407.906 1119.046 407.453 Q1118.726 407 1117.992 407 Q1117.429 407 1116.960 407.305 Q1116.492 407.609 1116.281 408.188 Q1116.070 408.766 1116.070 409.859 L1116.070 414 L1114.742 414 Z"/>
  <path d="M1128.179 414 L1126.960 414 L1126.960 403 L1128.273 403 L1128.273 406.969 Q1129.117 406 1130.414 406 Q1131.132 406 1131.773 406.281 Q1132.414 406.562 1132.828 407.078 Q1133.242 407.594 1133.476 408.328 Q1133.710 409.062 1133.710 409.891 Q1133.710 411.859 1132.718 412.930 Q1131.726 414 1130.351 414 Q1128.960 414 1128.179 412.938 L1128.179 414 Z M1128.164 409.938 Q1128.164 411.344 1128.539 411.969 Q1129.164 413 1130.226 413 Q1131.085 413 1131.718 412.242 Q1132.351 411.484 1132.351 410 Q1132.351 408.453 1131.749 407.727 Q1131.148 407 1130.289 407 Q1129.429 407 1128.796 407.758 Q1128.164 408.516 1128.164 409.938 Z"/>
  <path d="M1135.132 404 L1135.132 403 L1136.445 403 L1136.445 404 L1135.132 404 Z M1135.132 414 L1135.132 406 L1136.445 406 L1136.445 414 L1135.132 414 Z"/>
  <path d="M1138.382 414 L1138.382 406 L1139.570 406 L1139.570 407.109 Q1140.429 406 1142.054 406 Q1142.757 406 1143.343 406.258 Q1143.929 406.516 1144.226 406.922 Q1144.523 407.328 1144.632 407.906 Q1144.710 408.266 1144.710 409.188 L1144.710 414 L1143.382 414 L1143.382 409.141 Q1143.382 408.312 1143.226 407.898 Q1143.070 407.484 1142.679 407.242 Q1142.289 407 1141.773 407 Q1140.929 407 1140.320 407.547 Q1139.710 408.094 1139.710 409.625 L1139.710 414 L1138.382 414 Z"/>
  <path d="M1151.867 412 L1153.226 412 Q1152.898 412.953 1152.031 413.477 Q1151.164 414 1149.804 414 Q1148.101 414 1147.101 412.969 Q1146.101 411.938 1146.101 410.062 Q1146.101 408.141 1147.109 407.070 Q1148.117 406 1149.742 406 Q1151.289 406 1152.281 406.969 Q1153.273 407.938 1153.273 409.688 Q1153.273 409.781 1153.273 410 L1147.460 410 Q1147.539 411.453 1148.187 412.227 Q1148.835 413 1149.820 413 Q1150.539 413 1151.054 412.758 Q1151.570 412.516 1151.867 412 Z M1147.539 409 L1151.882 409 Q1151.789 408.125 1151.382 407.688 Q1150.757 407 1149.757 407 Q1148.835 407 1148.218 407.547 Q1147.601 408.094 1147.539 409 Z"/>
  <path d="M1159.742 414 L1159.742 412.938 Q1159.007 414 1157.570 414 Q1156.632 414 1155.859 413.492 Q1155.085 412.984 1154.656 412.086 Q1154.226 411.188 1154.226 410 Q1154.226 408.859 1154.617 407.930 Q1155.007 407 1155.781 406.500 Q1156.554 406 1157.523 406 Q1158.226 406 1158.773 406.273 Q1159.320 406.547 1159.664 406.984 L1159.664 403 L1160.976 403 L1160.976 414 L1159.742 414 Z M1155.585 410 Q1155.585 411.516 1156.218 412.258 Q1156.851 413 1157.695 413 Q1158.570 413 1159.171 412.289 Q1159.773 411.578 1159.773 410.109 Q1159.773 408.500 1159.156 407.750 Q1158.539 407 1157.648 407 Q1156.757 407 1156.171 407.727 Q1155.585 408.453 1155.585 410 Z"/>
  <path d="M1081.074 414.500 C1078.036 414.500 1075.574 412.038 1075.574 409 C1075.574 405.962 1078.036 403.500 1081.074 403.500 C1084.112 403.500 1086.574 405.962 1086.574 409 C1086.574 412.038 1084.112 414.500 1081.074 414.500 Z"/>
</svg>
