<?xml version="1.0" encoding="UTF-8" ?>
<!-- Generated by clip v0.7.0 (clip-lang.org) -->
<svg xmlns="http://www.w3.org/2000/svg" width="1024.000000" height="512.000000">
  <rect width="1024.000000" height="512.000000" fill="#ffffff" fill-opacity="1.000000"/>
  <path d="M82.4313 467.6 L1009.33 467.6 " fill="none" stroke-width="1.333333" stroke="#000000ff"/>
  <path d="M82.4313 467.6 L82.4313 462.267 " fill="none" stroke-width="1.333333" stroke="#000000ff"/>
  <path d="M175.121 467.6 L175.121 462.267 " fill="none" stroke-width="1.333333" stroke="#000000ff"/>
  <path d="M267.812 467.6 L267.812 462.267 " fill="none" stroke-width="1.333333" stroke="#000000ff"/>
  <path d="M360.502 467.6 L360.502 462.267 " fill="none" stroke-width="1.333333" stroke="#000000ff"/>
  <path d="M453.192 467.6 L453.192 462.267 " fill="none" stroke-width="1.333333" stroke="#000000ff"/>
  <path d="M545.882 467.6 L545.882 462.267 " fill="none" stroke-width="1.333333" stroke="#000000ff"/>
  <path d="M638.573 467.6 L638.573 462.267 " fill="none" stroke-width="1.333333" stroke="#000000ff"/>
  <path d="M731.263 467.6 L731.263 462.267 " fill="none" stroke-width="1.333333" stroke="#000000ff"/>
  <path d="M823.953 467.6 L823.953 462.267 " fill="none" stroke-width="1.333333" stroke="#000000ff"/>
  <path d="M916.643 467.6 L916.643 462.267 " fill="none" stroke-width="1.333333" stroke="#000000ff"/>
  <path d="M1009.33 467.6 L1009.33 462.267 " fill="none" stroke-width="1.333333" stroke="#000000ff"/>
  <path d="M54.5094 487.833 Q54.5094 485.927 54.9 484.763 Q55.2906 483.599 56.0641 482.966 Q56.8375 482.333 58.0094 482.333 Q58.8688 482.333 59.525 482.685 Q60.1813 483.036 60.6031 483.693 Q61.025 484.349 61.2672 485.294 Q61.5094 486.24 61.5094 487.833 Q61.5094 489.74 61.1188 490.904 Q60.7281 492.068 59.9547 492.701 Q59.1813 493.333 58.0094 493.333 Q56.4625 493.333 55.5719 492.224 Q54.5094 490.865 54.5094 487.833 ZM55.8688 487.833 Q55.8688 490.536 56.4859 491.435 Q57.1031 492.333 58.0094 492.333 Q58.9156 492.333 59.5328 491.435 Q60.15 490.536 60.15 487.833 Q60.15 485.115 59.5328 484.224 Q58.9156 483.333 57.9938 483.333 Q57.0875 483.333 56.5406 484.115 Q55.8688 485.13 55.8688 487.833 Z" fill="#000000" fill-opacity="1.000000"/>
  <path d="M62.6656 490.333 L64.0406 490.333 Q64.1969 491.333 64.7594 491.833 Q65.3219 492.333 66.1031 492.333 Q67.0563 492.333 67.7203 491.622 Q68.3844 490.911 68.3844 489.74 Q68.3844 488.63 67.7516 487.982 Q67.1188 487.333 66.0875 487.333 Q65.4469 487.333 64.9391 487.615 Q64.4313 487.896 64.1344 488.333 L62.9 488.333 L63.9313 482.333 L69.275 482.333 L69.275 483.333 L64.9938 483.333 L64.4156 486.911 Q65.3844 486.333 66.4469 486.333 Q67.8375 486.333 68.8063 487.271 Q69.775 488.208 69.775 489.661 Q69.775 491.068 68.9313 492.083 Q67.9 493.333 66.1031 493.333 Q64.65 493.333 63.7203 492.513 Q62.7906 491.693 62.6656 490.333 Z" fill="#000000" fill-opacity="1.000000"/>
  <path d="M71.5563 486.333 L71.5563 485.333 L73.0563 485.333 L73.0563 486.333 L71.5563 486.333 ZM71.5563 493.333 L71.5563 492.333 L73.0563 492.333 L73.0563 493.333 L71.5563 493.333 Z" fill="#000000" fill-opacity="1.000000"/>
  <path d="M79.8688 493.333 L78.5406 493.333 L78.5406 484.755 Q78.0719 485.224 77.2984 485.685 Q76.525 486.146 75.9156 486.38 L75.9156 485.083 Q77.025 484.552 77.8453 483.794 Q78.6656 483.036 79.0094 482.333 L79.8688 482.333 L79.8688 493.333 Z" fill="#000000" fill-opacity="1.000000"/>
  <path d="M83.0563 490.333 L84.4313 490.333 Q84.5875 491.333 85.15 491.833 Q85.7125 492.333 86.4938 492.333 Q87.4469 492.333 88.1109 491.622 Q88.775 490.911 88.775 489.74 Q88.775 488.63 88.1422 487.982 Q87.5094 487.333 86.4781 487.333 Q85.8375 487.333 85.3297 487.615 Q84.8219 487.896 84.525 488.333 L83.2906 488.333 L84.3219 482.333 L89.6656 482.333 L89.6656 483.333 L85.3844 483.333 L84.8063 486.911 Q85.775 486.333 86.8375 486.333 Q88.2281 486.333 89.1969 487.271 Q90.1656 488.208 90.1656 489.661 Q90.1656 491.068 89.3219 492.083 Q88.2906 493.333 86.4938 493.333 Q85.0406 493.333 84.1109 492.513 Q83.1813 491.693 83.0563 490.333 Z" fill="#000000" fill-opacity="1.000000"/>
  <path d="M91.9469 486.333 L91.9469 485.333 L93.4469 485.333 L93.4469 486.333 L91.9469 486.333 ZM91.9469 493.333 L91.9469 492.333 L93.4469 492.333 L93.4469 493.333 L91.9469 493.333 Z" fill="#000000" fill-opacity="1.000000"/>
  <path d="M95.2906 487.833 Q95.2906 485.927 95.6813 484.763 Q96.0719 483.599 96.8453 482.966 Q97.6188 482.333 98.7906 482.333 Q99.65 482.333 100.306 482.685 Q100.963 483.036 101.384 483.693 Q101.806 484.349 102.048 485.294 Q102.291 486.24 102.291 487.833 Q102.291 489.74 101.9 490.904 Q101.509 492.068 100.736 492.701 Q99.9625 493.333 98.7906 493.333 Q97.2438 493.333 96.3531 492.224 Q95.2906 490.865 95.2906 487.833 ZM96.65 487.833 Q96.65 490.536 97.2672 491.435 Q97.8844 492.333 98.7906 492.333 Q99.6969 492.333 100.314 491.435 Q100.931 490.536 100.931 487.833 Q100.931 485.115 100.314 484.224 Q99.6969 483.333 98.775 483.333 Q97.8688 483.333 97.3219 484.115 Q96.65 485.13 96.65 487.833 Z" fill="#000000" fill-opacity="1.000000"/>
  <path d="M103.447 487.833 Q103.447 485.927 103.838 484.763 Q104.228 483.599 105.002 482.966 Q105.775 482.333 106.947 482.333 Q107.806 482.333 108.463 482.685 Q109.119 483.036 109.541 483.693 Q109.963 484.349 110.205 485.294 Q110.447 486.24 110.447 487.833 Q110.447 489.74 110.056 490.904 Q109.666 492.068 108.892 492.701 Q108.119 493.333 106.947 493.333 Q105.4 493.333 104.509 492.224 Q103.447 490.865 103.447 487.833 ZM104.806 487.833 Q104.806 490.536 105.423 491.435 Q106.041 492.333 106.947 492.333 Q107.853 492.333 108.47 491.435 Q109.088 490.536 109.088 487.833 Q109.088 485.115 108.47 484.224 Q107.853 483.333 106.931 483.333 Q106.025 483.333 105.478 484.115 Q104.806 485.13 104.806 487.833 Z" fill="#000000" fill-opacity="1.000000"/>
  <path d="M147.2 487.833 Q147.2 485.927 147.59 484.763 Q147.981 483.599 148.754 482.966 Q149.528 482.333 150.7 482.333 Q151.559 482.333 152.215 482.685 Q152.871 483.036 153.293 483.693 Q153.715 484.349 153.957 485.294 Q154.2 486.24 154.2 487.833 Q154.2 489.74 153.809 490.904 Q153.418 492.068 152.645 492.701 Q151.871 493.333 150.7 493.333 Q149.153 493.333 148.262 492.224 Q147.2 490.865 147.2 487.833 ZM148.559 487.833 Q148.559 490.536 149.176 491.435 Q149.793 492.333 150.7 492.333 Q151.606 492.333 152.223 491.435 Q152.84 490.536 152.84 487.833 Q152.84 485.115 152.223 484.224 Q151.606 483.333 150.684 483.333 Q149.778 483.333 149.231 484.115 Q148.559 485.13 148.559 487.833 Z" fill="#000000" fill-opacity="1.000000"/>
  <path d="M155.356 490.333 L156.731 490.333 Q156.887 491.333 157.45 491.833 Q158.012 492.333 158.793 492.333 Q159.746 492.333 160.411 491.622 Q161.075 490.911 161.075 489.74 Q161.075 488.63 160.442 487.982 Q159.809 487.333 158.778 487.333 Q158.137 487.333 157.629 487.615 Q157.121 487.896 156.825 488.333 L155.59 488.333 L156.621 482.333 L161.965 482.333 L161.965 483.333 L157.684 483.333 L157.106 486.911 Q158.075 486.333 159.137 486.333 Q160.528 486.333 161.496 487.271 Q162.465 488.208 162.465 489.661 Q162.465 491.068 161.621 492.083 Q160.59 493.333 158.793 493.333 Q157.34 493.333 156.411 492.513 Q155.481 491.693 155.356 490.333 Z" fill="#000000" fill-opacity="1.000000"/>
  <path d="M164.246 486.333 L164.246 485.333 L165.746 485.333 L165.746 486.333 L164.246 486.333 ZM164.246 493.333 L164.246 492.333 L165.746 492.333 L165.746 493.333 L164.246 493.333 Z" fill="#000000" fill-opacity="1.000000"/>
  <path d="M167.59 490.333 L168.965 490.333 Q169.121 491.333 169.684 491.833 Q170.246 492.333 171.028 492.333 Q171.981 492.333 172.645 491.622 Q173.309 490.911 173.309 489.74 Q173.309 488.63 172.676 487.982 Q172.043 487.333 171.012 487.333 Q170.371 487.333 169.864 487.615 Q169.356 487.896 169.059 488.333 L167.825 488.333 L168.856 482.333 L174.2 482.333 L174.2 483.333 L169.918 483.333 L169.34 486.911 Q170.309 486.333 171.371 486.333 Q172.762 486.333 173.731 487.271 Q174.7 488.208 174.7 489.661 Q174.7 491.068 173.856 492.083 Q172.825 493.333 171.028 493.333 Q169.575 493.333 168.645 492.513 Q167.715 491.693 167.59 490.333 Z" fill="#000000" fill-opacity="1.000000"/>
  <path d="M180.715 493.333 L179.387 493.333 L179.387 484.755 Q178.918 485.224 178.145 485.685 Q177.371 486.146 176.762 486.38 L176.762 485.083 Q177.871 484.552 178.692 483.794 Q179.512 483.036 179.856 482.333 L180.715 482.333 L180.715 493.333 Z" fill="#000000" fill-opacity="1.000000"/>
  <path d="M184.637 486.333 L184.637 485.333 L186.137 485.333 L186.137 486.333 L184.637 486.333 ZM184.637 493.333 L184.637 492.333 L186.137 492.333 L186.137 493.333 L184.637 493.333 Z" fill="#000000" fill-opacity="1.000000"/>
  <path d="M187.981 487.833 Q187.981 485.927 188.371 484.763 Q188.762 483.599 189.536 482.966 Q190.309 482.333 191.481 482.333 Q192.34 482.333 192.996 482.685 Q193.653 483.036 194.075 483.693 Q194.496 484.349 194.739 485.294 Q194.981 486.24 194.981 487.833 Q194.981 489.74 194.59 490.904 Q194.2 492.068 193.426 492.701 Q192.653 493.333 191.481 493.333 Q189.934 493.333 189.043 492.224 Q187.981 490.865 187.981 487.833 ZM189.34 487.833 Q189.34 490.536 189.957 491.435 Q190.575 492.333 191.481 492.333 Q192.387 492.333 193.004 491.435 Q193.621 490.536 193.621 487.833 Q193.621 485.115 193.004 484.224 Q192.387 483.333 191.465 483.333 Q190.559 483.333 190.012 484.115 Q189.34 485.13 189.34 487.833 Z" fill="#000000" fill-opacity="1.000000"/>
  <path d="M196.137 487.833 Q196.137 485.927 196.528 484.763 Q196.918 483.599 197.692 482.966 Q198.465 482.333 199.637 482.333 Q200.496 482.333 201.153 482.685 Q201.809 483.036 202.231 483.693 Q202.653 484.349 202.895 485.294 Q203.137 486.24 203.137 487.833 Q203.137 489.74 202.746 490.904 Q202.356 492.068 201.582 492.701 Q200.809 493.333 199.637 493.333 Q198.09 493.333 197.2 492.224 Q196.137 490.865 196.137 487.833 ZM197.496 487.833 Q197.496 490.536 198.114 491.435 Q198.731 492.333 199.637 492.333 Q200.543 492.333 201.161 491.435 Q201.778 490.536 201.778 487.833 Q201.778 485.115 201.161 484.224 Q200.543 483.333 199.621 483.333 Q198.715 483.333 198.168 484.115 Q197.496 485.13 197.496 487.833 Z" fill="#000000" fill-opacity="1.000000"/>
  <path d="M239.89 487.833 Q239.89 485.927 240.28 484.763 Q240.671 483.599 241.444 482.966 Q242.218 482.333 243.39 482.333 Q244.249 482.333 244.905 482.685 Q245.562 483.036 245.984 483.693 Q246.405 484.349 246.648 485.294 Q246.89 486.24 246.89 487.833 Q246.89 489.74 246.499 490.904 Q246.109 492.068 245.335 492.701 Q244.562 493.333 243.39 493.333 Q241.843 493.333 240.952 492.224 Q239.89 490.865 239.89 487.833 ZM241.249 487.833 Q241.249 490.536 241.866 491.435 Q242.484 492.333 243.39 492.333 Q244.296 492.333 244.913 491.435 Q245.53 490.536 245.53 487.833 Q245.53 485.115 244.913 484.224 Q244.296 483.333 243.374 483.333 Q242.468 483.333 241.921 484.115 Q241.249 485.13 241.249 487.833 Z" fill="#000000" fill-opacity="1.000000"/>
  <path d="M254.89 485.333 L253.577 485.333 Q253.405 484.411 253.077 484.005 Q252.546 483.333 251.765 483.333 Q251.124 483.333 250.655 483.724 Q250.03 484.224 249.671 485.177 Q249.312 486.13 249.296 487.771 Q249.765 487.036 250.46 486.685 Q251.155 486.333 251.905 486.333 Q253.218 486.333 254.148 487.286 Q255.077 488.24 255.077 489.74 Q255.077 490.724 254.64 491.576 Q254.202 492.427 253.444 492.88 Q252.687 493.333 251.718 493.333 Q250.062 493.333 249.023 492.115 Q247.984 490.896 247.984 488.115 Q247.984 484.99 249.14 483.568 Q250.14 482.333 251.843 482.333 Q253.109 482.333 253.921 483.13 Q254.734 483.927 254.89 485.333 ZM249.499 489.708 Q249.499 490.396 249.788 491.029 Q250.077 491.661 250.601 491.997 Q251.124 492.333 251.687 492.333 Q252.53 492.333 253.132 491.646 Q253.734 490.958 253.734 489.771 Q253.734 488.646 253.14 487.99 Q252.546 487.333 251.64 487.333 Q250.749 487.333 250.124 487.99 Q249.499 488.646 249.499 489.708 Z" fill="#000000" fill-opacity="1.000000"/>
  <path d="M256.937 486.333 L256.937 485.333 L258.437 485.333 L258.437 486.333 L256.937 486.333 ZM256.937 493.333 L256.937 492.333 L258.437 492.333 L258.437 493.333 L256.937 493.333 Z" fill="#000000" fill-opacity="1.000000"/>
  <path d="M267.202 492.333 L267.202 493.333 L260.109 493.333 Q260.093 492.943 260.265 492.568 Q260.53 491.958 261.132 491.372 Q261.734 490.786 262.859 489.724 Q264.609 488.068 265.226 487.138 Q265.843 486.208 265.843 485.396 Q265.843 484.521 265.28 483.927 Q264.718 483.333 263.827 483.333 Q262.874 483.333 262.296 483.865 Q261.718 484.396 261.718 485.333 L260.359 485.333 Q260.499 483.865 261.405 483.099 Q262.312 482.333 263.843 482.333 Q265.39 482.333 266.288 483.224 Q267.187 484.115 267.187 485.443 Q267.187 486.115 266.921 486.763 Q266.655 487.411 266.046 488.13 Q265.437 488.849 264.015 490.13 Q262.827 491.193 262.491 491.568 Q262.155 491.943 261.937 492.333 L267.202 492.333 Z" fill="#000000" fill-opacity="1.000000"/>
  <path d="M268.515 483.333 L268.515 482.333 L275.468 482.333 L275.468 483.146 Q274.452 484.24 273.444 486.177 Q272.437 488.115 271.874 490.161 Q271.484 491.615 271.374 493.333 L270.03 493.333 Q270.046 491.974 270.523 490.052 Q270.999 488.13 271.89 486.341 Q272.78 484.552 273.78 483.333 L268.515 483.333 Z" fill="#000000" fill-opacity="1.000000"/>
  <path d="M277.327 486.333 L277.327 485.333 L278.827 485.333 L278.827 486.333 L277.327 486.333 ZM277.327 493.333 L277.327 492.333 L278.827 492.333 L278.827 493.333 L277.327 493.333 Z" fill="#000000" fill-opacity="1.000000"/>
  <path d="M280.671 487.833 Q280.671 485.927 281.062 484.763 Q281.452 483.599 282.226 482.966 Q282.999 482.333 284.171 482.333 Q285.03 482.333 285.687 482.685 Q286.343 483.036 286.765 483.693 Q287.187 484.349 287.429 485.294 Q287.671 486.24 287.671 487.833 Q287.671 489.74 287.28 490.904 Q286.89 492.068 286.116 492.701 Q285.343 493.333 284.171 493.333 Q282.624 493.333 281.734 492.224 Q280.671 490.865 280.671 487.833 ZM282.03 487.833 Q282.03 490.536 282.648 491.435 Q283.265 492.333 284.171 492.333 Q285.077 492.333 285.694 491.435 Q286.312 490.536 286.312 487.833 Q286.312 485.115 285.694 484.224 Q285.077 483.333 284.155 483.333 Q283.249 483.333 282.702 484.115 Q282.03 485.13 282.03 487.833 Z" fill="#000000" fill-opacity="1.000000"/>
  <path d="M288.827 487.833 Q288.827 485.927 289.218 484.763 Q289.609 483.599 290.382 482.966 Q291.155 482.333 292.327 482.333 Q293.187 482.333 293.843 482.685 Q294.499 483.036 294.921 483.693 Q295.343 484.349 295.585 485.294 Q295.827 486.24 295.827 487.833 Q295.827 489.74 295.437 490.904 Q295.046 492.068 294.273 492.701 Q293.499 493.333 292.327 493.333 Q290.78 493.333 289.89 492.224 Q288.827 490.865 288.827 487.833 ZM290.187 487.833 Q290.187 490.536 290.804 491.435 Q291.421 492.333 292.327 492.333 Q293.234 492.333 293.851 491.435 Q294.468 490.536 294.468 487.833 Q294.468 485.115 293.851 484.224 Q293.234 483.333 292.312 483.333 Q291.405 483.333 290.859 484.115 Q290.187 485.13 290.187 487.833 Z" fill="#000000" fill-opacity="1.000000"/>
  <path d="M332.58 487.833 Q332.58 485.927 332.971 484.763 Q333.361 483.599 334.135 482.966 Q334.908 482.333 336.08 482.333 Q336.939 482.333 337.596 482.685 Q338.252 483.036 338.674 483.693 Q339.096 484.349 339.338 485.294 Q339.58 486.24 339.58 487.833 Q339.58 489.74 339.189 490.904 Q338.799 492.068 338.025 492.701 Q337.252 493.333 336.08 493.333 Q334.533 493.333 333.643 492.224 Q332.58 490.865 332.58 487.833 ZM333.939 487.833 Q333.939 490.536 334.557 491.435 Q335.174 492.333 336.08 492.333 Q336.986 492.333 337.603 491.435 Q338.221 490.536 338.221 487.833 Q338.221 485.115 337.603 484.224 Q336.986 483.333 336.064 483.333 Q335.158 483.333 334.611 484.115 Q333.939 485.13 333.939 487.833 Z" fill="#000000" fill-opacity="1.000000"/>
  <path d="M340.814 483.333 L340.814 482.333 L347.768 482.333 L347.768 483.146 Q346.752 484.24 345.744 486.177 Q344.736 488.115 344.174 490.161 Q343.783 491.615 343.674 493.333 L342.33 493.333 Q342.346 491.974 342.822 490.052 Q343.299 488.13 344.189 486.341 Q345.08 484.552 346.08 483.333 L340.814 483.333 Z" fill="#000000" fill-opacity="1.000000"/>
  <path d="M349.627 486.333 L349.627 485.333 L351.127 485.333 L351.127 486.333 L349.627 486.333 ZM349.627 493.333 L349.627 492.333 L351.127 492.333 L351.127 493.333 L349.627 493.333 Z" fill="#000000" fill-opacity="1.000000"/>
  <path d="M352.971 487.833 Q352.971 485.927 353.361 484.763 Q353.752 483.599 354.525 482.966 Q355.299 482.333 356.471 482.333 Q357.33 482.333 357.986 482.685 Q358.643 483.036 359.064 483.693 Q359.486 484.349 359.728 485.294 Q359.971 486.24 359.971 487.833 Q359.971 489.74 359.58 490.904 Q359.189 492.068 358.416 492.701 Q357.643 493.333 356.471 493.333 Q354.924 493.333 354.033 492.224 Q352.971 490.865 352.971 487.833 ZM354.33 487.833 Q354.33 490.536 354.947 491.435 Q355.564 492.333 356.471 492.333 Q357.377 492.333 357.994 491.435 Q358.611 490.536 358.611 487.833 Q358.611 485.115 357.994 484.224 Q357.377 483.333 356.455 483.333 Q355.549 483.333 355.002 484.115 Q354.33 485.13 354.33 487.833 Z" fill="#000000" fill-opacity="1.000000"/>
  <path d="M361.127 490.333 L362.455 490.333 Q362.689 491.396 363.228 491.865 Q363.768 492.333 364.549 492.333 Q365.486 492.333 366.127 491.716 Q366.768 491.099 366.768 490.193 Q366.768 489.318 366.174 488.747 Q365.58 488.177 364.658 488.177 Q364.283 488.177 363.736 488.333 L363.877 487.333 Q364.018 487.349 364.096 487.349 Q364.939 487.349 365.611 486.841 Q366.283 486.333 366.283 485.271 Q366.283 484.443 365.791 483.888 Q365.299 483.333 364.518 483.333 Q363.752 483.333 363.236 483.833 Q362.721 484.333 362.58 485.333 L361.268 485.333 Q361.502 483.911 362.361 483.122 Q363.221 482.333 364.502 482.333 Q365.377 482.333 366.119 482.74 Q366.861 483.146 367.252 483.849 Q367.643 484.552 367.643 485.349 Q367.643 486.099 367.268 486.716 Q366.893 487.333 366.158 487.693 Q367.111 487.896 367.635 488.544 Q368.158 489.193 368.158 490.177 Q368.158 491.49 367.135 492.411 Q366.111 493.333 364.533 493.333 Q363.127 493.333 362.189 492.497 Q361.252 491.661 361.127 490.333 Z" fill="#000000" fill-opacity="1.000000"/>
  <path d="M370.018 486.333 L370.018 485.333 L371.518 485.333 L371.518 486.333 L370.018 486.333 ZM370.018 493.333 L370.018 492.333 L371.518 492.333 L371.518 493.333 L370.018 493.333 Z" fill="#000000" fill-opacity="1.000000"/>
  <path d="M373.361 487.833 Q373.361 485.927 373.752 484.763 Q374.143 483.599 374.916 482.966 Q375.689 482.333 376.861 482.333 Q377.721 482.333 378.377 482.685 Q379.033 483.036 379.455 483.693 Q379.877 484.349 380.119 485.294 Q380.361 486.24 380.361 487.833 Q380.361 489.74 379.971 490.904 Q379.58 492.068 378.807 492.701 Q378.033 493.333 376.861 493.333 Q375.314 493.333 374.424 492.224 Q373.361 490.865 373.361 487.833 ZM374.721 487.833 Q374.721 490.536 375.338 491.435 Q375.955 492.333 376.861 492.333 Q377.768 492.333 378.385 491.435 Q379.002 490.536 379.002 487.833 Q379.002 485.115 378.385 484.224 Q377.768 483.333 376.846 483.333 Q375.939 483.333 375.393 484.115 Q374.721 485.13 374.721 487.833 Z" fill="#000000" fill-opacity="1.000000"/>
  <path d="M381.518 487.833 Q381.518 485.927 381.908 484.763 Q382.299 483.599 383.072 482.966 Q383.846 482.333 385.018 482.333 Q385.877 482.333 386.533 482.685 Q387.189 483.036 387.611 483.693 Q388.033 484.349 388.275 485.294 Q388.518 486.24 388.518 487.833 Q388.518 489.74 388.127 490.904 Q387.736 492.068 386.963 492.701 Q386.189 493.333 385.018 493.333 Q383.471 493.333 382.58 492.224 Q381.518 490.865 381.518 487.833 ZM382.877 487.833 Q382.877 490.536 383.494 491.435 Q384.111 492.333 385.018 492.333 Q385.924 492.333 386.541 491.435 Q387.158 490.536 387.158 487.833 Q387.158 485.115 386.541 484.224 Q385.924 483.333 385.002 483.333 Q384.096 483.333 383.549 484.115 Q382.877 485.13 382.877 487.833 Z" fill="#000000" fill-opacity="1.000000"/>
  <path d="M425.27 487.833 Q425.27 485.927 425.661 484.763 Q426.051 483.599 426.825 482.966 Q427.598 482.333 428.77 482.333 Q429.63 482.333 430.286 482.685 Q430.942 483.036 431.364 483.693 Q431.786 484.349 432.028 485.294 Q432.27 486.24 432.27 487.833 Q432.27 489.74 431.88 490.904 Q431.489 492.068 430.716 492.701 Q429.942 493.333 428.77 493.333 Q427.223 493.333 426.333 492.224 Q425.27 490.865 425.27 487.833 ZM426.63 487.833 Q426.63 490.536 427.247 491.435 Q427.864 492.333 428.77 492.333 Q429.676 492.333 430.294 491.435 Q430.911 490.536 430.911 487.833 Q430.911 485.115 430.294 484.224 Q429.676 483.333 428.755 483.333 Q427.848 483.333 427.301 484.115 Q426.63 485.13 426.63 487.833 Z" fill="#000000" fill-opacity="1.000000"/>
  <path d="M433.505 483.333 L433.505 482.333 L440.458 482.333 L440.458 483.146 Q439.442 484.24 438.434 486.177 Q437.426 488.115 436.864 490.161 Q436.473 491.615 436.364 493.333 L435.02 493.333 Q435.036 491.974 435.512 490.052 Q435.989 488.13 436.88 486.341 Q437.77 484.552 438.77 483.333 L433.505 483.333 Z" fill="#000000" fill-opacity="1.000000"/>
  <path d="M442.317 486.333 L442.317 485.333 L443.817 485.333 L443.817 486.333 L442.317 486.333 ZM442.317 493.333 L442.317 492.333 L443.817 492.333 L443.817 493.333 L442.317 493.333 Z" fill="#000000" fill-opacity="1.000000"/>
  <path d="M445.661 490.333 L446.989 490.333 Q447.223 491.396 447.762 491.865 Q448.301 492.333 449.083 492.333 Q450.02 492.333 450.661 491.716 Q451.301 491.099 451.301 490.193 Q451.301 489.318 450.708 488.747 Q450.114 488.177 449.192 488.177 Q448.817 488.177 448.27 488.333 L448.411 487.333 Q448.551 487.349 448.63 487.349 Q449.473 487.349 450.145 486.841 Q450.817 486.333 450.817 485.271 Q450.817 484.443 450.325 483.888 Q449.833 483.333 449.051 483.333 Q448.286 483.333 447.77 483.833 Q447.255 484.333 447.114 485.333 L445.801 485.333 Q446.036 483.911 446.895 483.122 Q447.755 482.333 449.036 482.333 Q449.911 482.333 450.653 482.74 Q451.395 483.146 451.786 483.849 Q452.176 484.552 452.176 485.349 Q452.176 486.099 451.801 486.716 Q451.426 487.333 450.692 487.693 Q451.645 487.896 452.169 488.544 Q452.692 489.193 452.692 490.177 Q452.692 491.49 451.669 492.411 Q450.645 493.333 449.067 493.333 Q447.661 493.333 446.723 492.497 Q445.786 491.661 445.661 490.333 Z" fill="#000000" fill-opacity="1.000000"/>
  <path d="M454.02 490.333 L455.286 490.333 Q455.442 491.38 455.895 491.857 Q456.348 492.333 457.067 492.333 Q457.661 492.333 458.122 492.029 Q458.583 491.724 458.872 491.216 Q459.161 490.708 459.364 489.857 Q459.567 489.005 459.567 488.177 Q459.567 488.099 459.551 487.927 Q459.161 488.552 458.473 488.943 Q457.786 489.333 456.989 489.333 Q455.661 489.333 454.739 488.388 Q453.817 487.443 453.817 485.88 Q453.817 484.286 454.778 483.31 Q455.739 482.333 457.192 482.333 Q458.239 482.333 459.106 482.896 Q459.973 483.458 460.426 484.505 Q460.88 485.552 460.88 487.536 Q460.88 489.615 460.434 490.833 Q459.989 492.052 459.106 492.693 Q458.223 493.333 457.036 493.333 Q455.77 493.333 454.973 492.544 Q454.176 491.755 454.02 490.333 ZM459.411 485.865 Q459.411 484.693 458.809 484.013 Q458.208 483.333 457.348 483.333 Q456.473 483.333 455.825 484.068 Q455.176 484.802 455.176 485.974 Q455.176 487.021 455.794 487.677 Q456.411 488.333 457.317 488.333 Q458.239 488.333 458.825 487.677 Q459.411 487.021 459.411 485.865 Z" fill="#000000" fill-opacity="1.000000"/>
  <path d="M462.708 486.333 L462.708 485.333 L464.208 485.333 L464.208 486.333 L462.708 486.333 ZM462.708 493.333 L462.708 492.333 L464.208 492.333 L464.208 493.333 L462.708 493.333 Z" fill="#000000" fill-opacity="1.000000"/>
  <path d="M466.051 487.833 Q466.051 485.927 466.442 484.763 Q466.833 483.599 467.606 482.966 Q468.38 482.333 469.551 482.333 Q470.411 482.333 471.067 482.685 Q471.723 483.036 472.145 483.693 Q472.567 484.349 472.809 485.294 Q473.051 486.24 473.051 487.833 Q473.051 489.74 472.661 490.904 Q472.27 492.068 471.497 492.701 Q470.723 493.333 469.551 493.333 Q468.005 493.333 467.114 492.224 Q466.051 490.865 466.051 487.833 ZM467.411 487.833 Q467.411 490.536 468.028 491.435 Q468.645 492.333 469.551 492.333 Q470.458 492.333 471.075 491.435 Q471.692 490.536 471.692 487.833 Q471.692 485.115 471.075 484.224 Q470.458 483.333 469.536 483.333 Q468.63 483.333 468.083 484.115 Q467.411 485.13 467.411 487.833 Z" fill="#000000" fill-opacity="1.000000"/>
  <path d="M474.208 487.833 Q474.208 485.927 474.598 484.763 Q474.989 483.599 475.762 482.966 Q476.536 482.333 477.708 482.333 Q478.567 482.333 479.223 482.685 Q479.88 483.036 480.301 483.693 Q480.723 484.349 480.966 485.294 Q481.208 486.24 481.208 487.833 Q481.208 489.74 480.817 490.904 Q480.426 492.068 479.653 492.701 Q478.88 493.333 477.708 493.333 Q476.161 493.333 475.27 492.224 Q474.208 490.865 474.208 487.833 ZM475.567 487.833 Q475.567 490.536 476.184 491.435 Q476.801 492.333 477.708 492.333 Q478.614 492.333 479.231 491.435 Q479.848 490.536 479.848 487.833 Q479.848 485.115 479.231 484.224 Q478.614 483.333 477.692 483.333 Q476.786 483.333 476.239 484.115 Q475.567 485.13 475.567 487.833 Z" fill="#000000" fill-opacity="1.000000"/>
  <path d="M517.96 487.833 Q517.96 485.927 518.351 484.763 Q518.742 483.599 519.515 482.966 Q520.289 482.333 521.46 482.333 Q522.32 482.333 522.976 482.685 Q523.632 483.036 524.054 483.693 Q524.476 484.349 524.718 485.294 Q524.96 486.24 524.96 487.833 Q524.96 489.74 524.57 490.904 Q524.179 492.068 523.406 492.701 Q522.632 493.333 521.46 493.333 Q519.914 493.333 519.023 492.224 Q517.96 490.865 517.96 487.833 ZM519.32 487.833 Q519.32 490.536 519.937 491.435 Q520.554 492.333 521.46 492.333 Q522.367 492.333 522.984 491.435 Q523.601 490.536 523.601 487.833 Q523.601 485.115 522.984 484.224 Q522.367 483.333 521.445 483.333 Q520.539 483.333 519.992 484.115 Q519.32 485.13 519.32 487.833 Z" fill="#000000" fill-opacity="1.000000"/>
  <path d="M528.148 487.802 Q527.335 487.474 526.937 486.857 Q526.539 486.24 526.539 485.38 Q526.539 484.099 527.382 483.216 Q528.226 482.333 529.617 482.333 Q531.023 482.333 531.882 483.232 Q532.742 484.13 532.742 485.427 Q532.742 486.255 532.343 486.865 Q531.945 487.474 531.148 487.802 Q532.148 488.099 532.664 488.763 Q533.179 489.427 533.179 490.333 Q533.179 491.599 532.203 492.466 Q531.226 493.333 529.648 493.333 Q528.054 493.333 527.078 492.466 Q526.101 491.599 526.101 490.302 Q526.101 489.333 526.632 488.685 Q527.164 488.036 528.148 487.802 ZM527.882 485.286 Q527.882 486.193 528.374 486.763 Q528.867 487.333 529.648 487.333 Q530.414 487.333 530.898 486.763 Q531.382 486.193 531.382 485.365 Q531.382 484.505 530.882 483.919 Q530.382 483.333 529.632 483.333 Q528.882 483.333 528.382 483.904 Q527.882 484.474 527.882 485.286 ZM527.46 490.318 Q527.46 490.833 527.726 491.318 Q527.992 491.802 528.515 492.068 Q529.039 492.333 529.648 492.333 Q530.585 492.333 531.203 491.771 Q531.82 491.208 531.82 490.349 Q531.82 489.474 531.187 488.904 Q530.554 488.333 529.601 488.333 Q528.679 488.333 528.07 488.896 Q527.46 489.458 527.46 490.318 Z" fill="#000000" fill-opacity="1.000000"/>
  <path d="M535.007 486.333 L535.007 485.333 L536.507 485.333 L536.507 486.333 L535.007 486.333 ZM535.007 493.333 L535.007 492.333 L536.507 492.333 L536.507 493.333 L535.007 493.333 Z" fill="#000000" fill-opacity="1.000000"/>
  <path d="M543.32 493.333 L541.992 493.333 L541.992 484.755 Q541.523 485.224 540.749 485.685 Q539.976 486.146 539.367 486.38 L539.367 485.083 Q540.476 484.552 541.296 483.794 Q542.117 483.036 542.46 482.333 L543.32 482.333 L543.32 493.333 Z" fill="#000000" fill-opacity="1.000000"/>
  <path d="M546.507 490.333 L547.882 490.333 Q548.039 491.333 548.601 491.833 Q549.164 492.333 549.945 492.333 Q550.898 492.333 551.562 491.622 Q552.226 490.911 552.226 489.74 Q552.226 488.63 551.593 487.982 Q550.96 487.333 549.929 487.333 Q549.289 487.333 548.781 487.615 Q548.273 487.896 547.976 488.333 L546.742 488.333 L547.773 482.333 L553.117 482.333 L553.117 483.333 L548.835 483.333 L548.257 486.911 Q549.226 486.333 550.289 486.333 Q551.679 486.333 552.648 487.271 Q553.617 488.208 553.617 489.661 Q553.617 491.068 552.773 492.083 Q551.742 493.333 549.945 493.333 Q548.492 493.333 547.562 492.513 Q546.632 491.693 546.507 490.333 Z" fill="#000000" fill-opacity="1.000000"/>
  <path d="M555.398 486.333 L555.398 485.333 L556.898 485.333 L556.898 486.333 L555.398 486.333 ZM555.398 493.333 L555.398 492.333 L556.898 492.333 L556.898 493.333 L555.398 493.333 Z" fill="#000000" fill-opacity="1.000000"/>
  <path d="M558.742 487.833 Q558.742 485.927 559.132 484.763 Q559.523 483.599 560.296 482.966 Q561.07 482.333 562.242 482.333 Q563.101 482.333 563.757 482.685 Q564.414 483.036 564.835 483.693 Q565.257 484.349 565.499 485.294 Q565.742 486.24 565.742 487.833 Q565.742 489.74 565.351 490.904 Q564.96 492.068 564.187 492.701 Q563.414 493.333 562.242 493.333 Q560.695 493.333 559.804 492.224 Q558.742 490.865 558.742 487.833 ZM560.101 487.833 Q560.101 490.536 560.718 491.435 Q561.335 492.333 562.242 492.333 Q563.148 492.333 563.765 491.435 Q564.382 490.536 564.382 487.833 Q564.382 485.115 563.765 484.224 Q563.148 483.333 562.226 483.333 Q561.32 483.333 560.773 484.115 Q560.101 485.13 560.101 487.833 Z" fill="#000000" fill-opacity="1.000000"/>
  <path d="M566.898 487.833 Q566.898 485.927 567.289 484.763 Q567.679 483.599 568.453 482.966 Q569.226 482.333 570.398 482.333 Q571.257 482.333 571.914 482.685 Q572.57 483.036 572.992 483.693 Q573.414 484.349 573.656 485.294 Q573.898 486.24 573.898 487.833 Q573.898 489.74 573.507 490.904 Q573.117 492.068 572.343 492.701 Q571.57 493.333 570.398 493.333 Q568.851 493.333 567.96 492.224 Q566.898 490.865 566.898 487.833 ZM568.257 487.833 Q568.257 490.536 568.874 491.435 Q569.492 492.333 570.398 492.333 Q571.304 492.333 571.921 491.435 Q572.539 490.536 572.539 487.833 Q572.539 485.115 571.921 484.224 Q571.304 483.333 570.382 483.333 Q569.476 483.333 568.929 484.115 Q568.257 485.13 568.257 487.833 Z" fill="#000000" fill-opacity="1.000000"/>
  <path d="M610.651 487.833 Q610.651 485.927 611.041 484.763 Q611.432 483.599 612.205 482.966 Q612.979 482.333 614.151 482.333 Q615.01 482.333 615.666 482.685 Q616.323 483.036 616.744 483.693 Q617.166 484.349 617.408 485.294 Q617.651 486.24 617.651 487.833 Q617.651 489.74 617.26 490.904 Q616.869 492.068 616.096 492.701 Q615.323 493.333 614.151 493.333 Q612.604 493.333 611.713 492.224 Q610.651 490.865 610.651 487.833 ZM612.01 487.833 Q612.01 490.536 612.627 491.435 Q613.244 492.333 614.151 492.333 Q615.057 492.333 615.674 491.435 Q616.291 490.536 616.291 487.833 Q616.291 485.115 615.674 484.224 Q615.057 483.333 614.135 483.333 Q613.229 483.333 612.682 484.115 Q612.01 485.13 612.01 487.833 Z" fill="#000000" fill-opacity="1.000000"/>
  <path d="M620.838 487.802 Q620.026 487.474 619.627 486.857 Q619.229 486.24 619.229 485.38 Q619.229 484.099 620.073 483.216 Q620.916 482.333 622.307 482.333 Q623.713 482.333 624.573 483.232 Q625.432 484.13 625.432 485.427 Q625.432 486.255 625.033 486.865 Q624.635 487.474 623.838 487.802 Q624.838 488.099 625.354 488.763 Q625.869 489.427 625.869 490.333 Q625.869 491.599 624.893 492.466 Q623.916 493.333 622.338 493.333 Q620.744 493.333 619.768 492.466 Q618.791 491.599 618.791 490.302 Q618.791 489.333 619.323 488.685 Q619.854 488.036 620.838 487.802 ZM620.573 485.286 Q620.573 486.193 621.065 486.763 Q621.557 487.333 622.338 487.333 Q623.104 487.333 623.588 486.763 Q624.073 486.193 624.073 485.365 Q624.073 484.505 623.573 483.919 Q623.073 483.333 622.323 483.333 Q621.573 483.333 621.073 483.904 Q620.573 484.474 620.573 485.286 ZM620.151 490.318 Q620.151 490.833 620.416 491.318 Q620.682 491.802 621.205 492.068 Q621.729 492.333 622.338 492.333 Q623.276 492.333 623.893 491.771 Q624.51 491.208 624.51 490.349 Q624.51 489.474 623.877 488.904 Q623.244 488.333 622.291 488.333 Q621.369 488.333 620.76 488.896 Q620.151 489.458 620.151 490.318 Z" fill="#000000" fill-opacity="1.000000"/>
  <path d="M627.698 486.333 L627.698 485.333 L629.198 485.333 L629.198 486.333 L627.698 486.333 ZM627.698 493.333 L627.698 492.333 L629.198 492.333 L629.198 493.333 L627.698 493.333 Z" fill="#000000" fill-opacity="1.000000"/>
  <path d="M631.041 490.333 L632.416 490.333 Q632.573 491.333 633.135 491.833 Q633.698 492.333 634.479 492.333 Q635.432 492.333 636.096 491.622 Q636.76 490.911 636.76 489.74 Q636.76 488.63 636.127 487.982 Q635.494 487.333 634.463 487.333 Q633.823 487.333 633.315 487.615 Q632.807 487.896 632.51 488.333 L631.276 488.333 L632.307 482.333 L637.651 482.333 L637.651 483.333 L633.369 483.333 L632.791 486.911 Q633.76 486.333 634.823 486.333 Q636.213 486.333 637.182 487.271 Q638.151 488.208 638.151 489.661 Q638.151 491.068 637.307 492.083 Q636.276 493.333 634.479 493.333 Q633.026 493.333 632.096 492.513 Q631.166 491.693 631.041 490.333 Z" fill="#000000" fill-opacity="1.000000"/>
  <path d="M644.166 493.333 L642.838 493.333 L642.838 484.755 Q642.369 485.224 641.596 485.685 Q640.823 486.146 640.213 486.38 L640.213 485.083 Q641.323 484.552 642.143 483.794 Q642.963 483.036 643.307 482.333 L644.166 482.333 L644.166 493.333 Z" fill="#000000" fill-opacity="1.000000"/>
  <path d="M648.088 486.333 L648.088 485.333 L649.588 485.333 L649.588 486.333 L648.088 486.333 ZM648.088 493.333 L648.088 492.333 L649.588 492.333 L649.588 493.333 L648.088 493.333 Z" fill="#000000" fill-opacity="1.000000"/>
  <path d="M651.432 487.833 Q651.432 485.927 651.823 484.763 Q652.213 483.599 652.987 482.966 Q653.76 482.333 654.932 482.333 Q655.791 482.333 656.448 482.685 Q657.104 483.036 657.526 483.693 Q657.948 484.349 658.19 485.294 Q658.432 486.24 658.432 487.833 Q658.432 489.74 658.041 490.904 Q657.651 492.068 656.877 492.701 Q656.104 493.333 654.932 493.333 Q653.385 493.333 652.494 492.224 Q651.432 490.865 651.432 487.833 ZM652.791 487.833 Q652.791 490.536 653.408 491.435 Q654.026 492.333 654.932 492.333 Q655.838 492.333 656.455 491.435 Q657.073 490.536 657.073 487.833 Q657.073 485.115 656.455 484.224 Q655.838 483.333 654.916 483.333 Q654.01 483.333 653.463 484.115 Q652.791 485.13 652.791 487.833 Z" fill="#000000" fill-opacity="1.000000"/>
  <path d="M659.588 487.833 Q659.588 485.927 659.979 484.763 Q660.369 483.599 661.143 482.966 Q661.916 482.333 663.088 482.333 Q663.948 482.333 664.604 482.685 Q665.26 483.036 665.682 483.693 Q666.104 484.349 666.346 485.294 Q666.588 486.24 666.588 487.833 Q666.588 489.74 666.198 490.904 Q665.807 492.068 665.033 492.701 Q664.26 493.333 663.088 493.333 Q661.541 493.333 660.651 492.224 Q659.588 490.865 659.588 487.833 ZM660.948 487.833 Q660.948 490.536 661.565 491.435 Q662.182 492.333 663.088 492.333 Q663.994 492.333 664.612 491.435 Q665.229 490.536 665.229 487.833 Q665.229 485.115 664.612 484.224 Q663.994 483.333 663.073 483.333 Q662.166 483.333 661.619 484.115 Q660.948 485.13 660.948 487.833 Z" fill="#000000" fill-opacity="1.000000"/>
  <path d="M703.341 487.833 Q703.341 485.927 703.731 484.763 Q704.122 483.599 704.896 482.966 Q705.669 482.333 706.841 482.333 Q707.7 482.333 708.356 482.685 Q709.013 483.036 709.435 483.693 Q709.856 484.349 710.099 485.294 Q710.341 486.24 710.341 487.833 Q710.341 489.74 709.95 490.904 Q709.56 492.068 708.786 492.701 Q708.013 493.333 706.841 493.333 Q705.294 493.333 704.403 492.224 Q703.341 490.865 703.341 487.833 ZM704.7 487.833 Q704.7 490.536 705.317 491.435 Q705.935 492.333 706.841 492.333 Q707.747 492.333 708.364 491.435 Q708.981 490.536 708.981 487.833 Q708.981 485.115 708.364 484.224 Q707.747 483.333 706.825 483.333 Q705.919 483.333 705.372 484.115 Q704.7 485.13 704.7 487.833 Z" fill="#000000" fill-opacity="1.000000"/>
  <path d="M711.7 490.333 L712.966 490.333 Q713.122 491.38 713.575 491.857 Q714.028 492.333 714.747 492.333 Q715.341 492.333 715.802 492.029 Q716.263 491.724 716.552 491.216 Q716.841 490.708 717.044 489.857 Q717.247 489.005 717.247 488.177 Q717.247 488.099 717.231 487.927 Q716.841 488.552 716.153 488.943 Q715.466 489.333 714.669 489.333 Q713.341 489.333 712.419 488.388 Q711.497 487.443 711.497 485.88 Q711.497 484.286 712.458 483.31 Q713.419 482.333 714.872 482.333 Q715.919 482.333 716.786 482.896 Q717.653 483.458 718.106 484.505 Q718.56 485.552 718.56 487.536 Q718.56 489.615 718.114 490.833 Q717.669 492.052 716.786 492.693 Q715.903 493.333 714.716 493.333 Q713.45 493.333 712.653 492.544 Q711.856 491.755 711.7 490.333 ZM717.091 485.865 Q717.091 484.693 716.489 484.013 Q715.888 483.333 715.028 483.333 Q714.153 483.333 713.505 484.068 Q712.856 484.802 712.856 485.974 Q712.856 487.021 713.474 487.677 Q714.091 488.333 714.997 488.333 Q715.919 488.333 716.505 487.677 Q717.091 487.021 717.091 485.865 Z" fill="#000000" fill-opacity="1.000000"/>
  <path d="M720.388 486.333 L720.388 485.333 L721.888 485.333 L721.888 486.333 L720.388 486.333 ZM720.388 493.333 L720.388 492.333 L721.888 492.333 L721.888 493.333 L720.388 493.333 Z" fill="#000000" fill-opacity="1.000000"/>
  <path d="M730.653 492.333 L730.653 493.333 L723.56 493.333 Q723.544 492.943 723.716 492.568 Q723.981 491.958 724.583 491.372 Q725.185 490.786 726.31 489.724 Q728.06 488.068 728.677 487.138 Q729.294 486.208 729.294 485.396 Q729.294 484.521 728.731 483.927 Q728.169 483.333 727.278 483.333 Q726.325 483.333 725.747 483.865 Q725.169 484.396 725.169 485.333 L723.81 485.333 Q723.95 483.865 724.856 483.099 Q725.763 482.333 727.294 482.333 Q728.841 482.333 729.739 483.224 Q730.638 484.115 730.638 485.443 Q730.638 486.115 730.372 486.763 Q730.106 487.411 729.497 488.13 Q728.888 488.849 727.466 490.13 Q726.278 491.193 725.942 491.568 Q725.606 491.943 725.388 492.333 L730.653 492.333 Z" fill="#000000" fill-opacity="1.000000"/>
  <path d="M738.731 485.333 L737.419 485.333 Q737.247 484.411 736.919 484.005 Q736.388 483.333 735.606 483.333 Q734.966 483.333 734.497 483.724 Q733.872 484.224 733.513 485.177 Q733.153 486.13 733.138 487.771 Q733.606 487.036 734.302 486.685 Q734.997 486.333 735.747 486.333 Q737.06 486.333 737.989 487.286 Q738.919 488.24 738.919 489.74 Q738.919 490.724 738.481 491.576 Q738.044 492.427 737.286 492.88 Q736.528 493.333 735.56 493.333 Q733.903 493.333 732.864 492.115 Q731.825 490.896 731.825 488.115 Q731.825 484.99 732.981 483.568 Q733.981 482.333 735.685 482.333 Q736.95 482.333 737.763 483.13 Q738.575 483.927 738.731 485.333 ZM733.341 489.708 Q733.341 490.396 733.63 491.029 Q733.919 491.661 734.442 491.997 Q734.966 492.333 735.528 492.333 Q736.372 492.333 736.974 491.646 Q737.575 490.958 737.575 489.771 Q737.575 488.646 736.981 487.99 Q736.388 487.333 735.481 487.333 Q734.591 487.333 733.966 487.99 Q733.341 488.646 733.341 489.708 Z" fill="#000000" fill-opacity="1.000000"/>
  <path d="M740.778 486.333 L740.778 485.333 L742.278 485.333 L742.278 486.333 L740.778 486.333 ZM740.778 493.333 L740.778 492.333 L742.278 492.333 L742.278 493.333 L740.778 493.333 Z" fill="#000000" fill-opacity="1.000000"/>
  <path d="M744.122 490.333 L745.497 490.333 Q745.653 491.333 746.216 491.833 Q746.778 492.333 747.56 492.333 Q748.513 492.333 749.177 491.622 Q749.841 490.911 749.841 489.74 Q749.841 488.63 749.208 487.982 Q748.575 487.333 747.544 487.333 Q746.903 487.333 746.396 487.615 Q745.888 487.896 745.591 488.333 L744.356 488.333 L745.388 482.333 L750.731 482.333 L750.731 483.333 L746.45 483.333 L745.872 486.911 Q746.841 486.333 747.903 486.333 Q749.294 486.333 750.263 487.271 Q751.231 488.208 751.231 489.661 Q751.231 491.068 750.388 492.083 Q749.356 493.333 747.56 493.333 Q746.106 493.333 745.177 492.513 Q744.247 491.693 744.122 490.333 Z" fill="#000000" fill-opacity="1.000000"/>
  <path d="M752.481 490.333 L753.747 490.333 Q753.903 491.38 754.356 491.857 Q754.81 492.333 755.528 492.333 Q756.122 492.333 756.583 492.029 Q757.044 491.724 757.333 491.216 Q757.622 490.708 757.825 489.857 Q758.028 489.005 758.028 488.177 Q758.028 488.099 758.013 487.927 Q757.622 488.552 756.935 488.943 Q756.247 489.333 755.45 489.333 Q754.122 489.333 753.2 488.388 Q752.278 487.443 752.278 485.88 Q752.278 484.286 753.239 483.31 Q754.2 482.333 755.653 482.333 Q756.7 482.333 757.567 482.896 Q758.435 483.458 758.888 484.505 Q759.341 485.552 759.341 487.536 Q759.341 489.615 758.896 490.833 Q758.45 492.052 757.567 492.693 Q756.685 493.333 755.497 493.333 Q754.231 493.333 753.435 492.544 Q752.638 491.755 752.481 490.333 ZM757.872 485.865 Q757.872 484.693 757.271 484.013 Q756.669 483.333 755.81 483.333 Q754.935 483.333 754.286 484.068 Q753.638 484.802 753.638 485.974 Q753.638 487.021 754.255 487.677 Q754.872 488.333 755.778 488.333 Q756.7 488.333 757.286 487.677 Q757.872 487.021 757.872 485.865 Z" fill="#000000" fill-opacity="1.000000"/>
  <path d="M801 493.333 L799.672 493.333 L799.672 484.755 Q799.203 485.224 798.429 485.685 Q797.656 486.146 797.047 486.38 L797.047 485.083 Q798.156 484.552 798.976 483.794 Q799.797 483.036 800.14 482.333 L801 482.333 L801 493.333 Z" fill="#000000" fill-opacity="1.000000"/>
  <path d="M804.187 487.833 Q804.187 485.927 804.578 484.763 Q804.969 483.599 805.742 482.966 Q806.515 482.333 807.687 482.333 Q808.547 482.333 809.203 482.685 Q809.859 483.036 810.281 483.693 Q810.703 484.349 810.945 485.294 Q811.187 486.24 811.187 487.833 Q811.187 489.74 810.797 490.904 Q810.406 492.068 809.633 492.701 Q808.859 493.333 807.687 493.333 Q806.14 493.333 805.25 492.224 Q804.187 490.865 804.187 487.833 ZM805.547 487.833 Q805.547 490.536 806.164 491.435 Q806.781 492.333 807.687 492.333 Q808.594 492.333 809.211 491.435 Q809.828 490.536 809.828 487.833 Q809.828 485.115 809.211 484.224 Q808.594 483.333 807.672 483.333 Q806.765 483.333 806.219 484.115 Q805.547 485.13 805.547 487.833 Z" fill="#000000" fill-opacity="1.000000"/>
  <path d="M813.078 486.333 L813.078 485.333 L814.578 485.333 L814.578 486.333 L813.078 486.333 ZM813.078 493.333 L813.078 492.333 L814.578 492.333 L814.578 493.333 L813.078 493.333 Z" fill="#000000" fill-opacity="1.000000"/>
  <path d="M816.422 487.833 Q816.422 485.927 816.812 484.763 Q817.203 483.599 817.976 482.966 Q818.75 482.333 819.922 482.333 Q820.781 482.333 821.437 482.685 Q822.094 483.036 822.515 483.693 Q822.937 484.349 823.179 485.294 Q823.422 486.24 823.422 487.833 Q823.422 489.74 823.031 490.904 Q822.64 492.068 821.867 492.701 Q821.094 493.333 819.922 493.333 Q818.375 493.333 817.484 492.224 Q816.422 490.865 816.422 487.833 ZM817.781 487.833 Q817.781 490.536 818.398 491.435 Q819.015 492.333 819.922 492.333 Q820.828 492.333 821.445 491.435 Q822.062 490.536 822.062 487.833 Q822.062 485.115 821.445 484.224 Q820.828 483.333 819.906 483.333 Q819 483.333 818.453 484.115 Q817.781 485.13 817.781 487.833 Z" fill="#000000" fill-opacity="1.000000"/>
  <path d="M824.578 490.333 L825.906 490.333 Q826.14 491.396 826.679 491.865 Q827.219 492.333 828 492.333 Q828.937 492.333 829.578 491.716 Q830.219 491.099 830.219 490.193 Q830.219 489.318 829.625 488.747 Q829.031 488.177 828.109 488.177 Q827.734 488.177 827.187 488.333 L827.328 487.333 Q827.469 487.349 827.547 487.349 Q828.39 487.349 829.062 486.841 Q829.734 486.333 829.734 485.271 Q829.734 484.443 829.242 483.888 Q828.75 483.333 827.969 483.333 Q827.203 483.333 826.687 483.833 Q826.172 484.333 826.031 485.333 L824.719 485.333 Q824.953 483.911 825.812 483.122 Q826.672 482.333 827.953 482.333 Q828.828 482.333 829.57 482.74 Q830.312 483.146 830.703 483.849 Q831.094 484.552 831.094 485.349 Q831.094 486.099 830.719 486.716 Q830.344 487.333 829.609 487.693 Q830.562 487.896 831.086 488.544 Q831.609 489.193 831.609 490.177 Q831.609 491.49 830.586 492.411 Q829.562 493.333 827.984 493.333 Q826.578 493.333 825.64 492.497 Q824.703 491.661 824.578 490.333 Z" fill="#000000" fill-opacity="1.000000"/>
  <path d="M833.469 486.333 L833.469 485.333 L834.969 485.333 L834.969 486.333 L833.469 486.333 ZM833.469 493.333 L833.469 492.333 L834.969 492.333 L834.969 493.333 L833.469 493.333 Z" fill="#000000" fill-opacity="1.000000"/>
  <path d="M836.812 487.833 Q836.812 485.927 837.203 484.763 Q837.594 483.599 838.367 482.966 Q839.14 482.333 840.312 482.333 Q841.172 482.333 841.828 482.685 Q842.484 483.036 842.906 483.693 Q843.328 484.349 843.57 485.294 Q843.812 486.24 843.812 487.833 Q843.812 489.74 843.422 490.904 Q843.031 492.068 842.258 492.701 Q841.484 493.333 840.312 493.333 Q838.765 493.333 837.875 492.224 Q836.812 490.865 836.812 487.833 ZM838.172 487.833 Q838.172 490.536 838.789 491.435 Q839.406 492.333 840.312 492.333 Q841.219 492.333 841.836 491.435 Q842.453 490.536 842.453 487.833 Q842.453 485.115 841.836 484.224 Q841.219 483.333 840.297 483.333 Q839.39 483.333 838.844 484.115 Q838.172 485.13 838.172 487.833 Z" fill="#000000" fill-opacity="1.000000"/>
  <path d="M844.969 487.833 Q844.969 485.927 845.359 484.763 Q845.75 483.599 846.523 482.966 Q847.297 482.333 848.469 482.333 Q849.328 482.333 849.984 482.685 Q850.64 483.036 851.062 483.693 Q851.484 484.349 851.726 485.294 Q851.969 486.24 851.969 487.833 Q851.969 489.74 851.578 490.904 Q851.187 492.068 850.414 492.701 Q849.64 493.333 848.469 493.333 Q846.922 493.333 846.031 492.224 Q844.969 490.865 844.969 487.833 ZM846.328 487.833 Q846.328 490.536 846.945 491.435 Q847.562 492.333 848.469 492.333 Q849.375 492.333 849.992 491.435 Q850.609 490.536 850.609 487.833 Q850.609 485.115 849.992 484.224 Q849.375 483.333 848.453 483.333 Q847.547 483.333 847 484.115 Q846.328 485.13 846.328 487.833 Z" fill="#000000" fill-opacity="1.000000"/>
  <path d="M893.69 493.333 L892.362 493.333 L892.362 484.755 Q891.893 485.224 891.12 485.685 Q890.346 486.146 889.737 486.38 L889.737 485.083 Q890.846 484.552 891.667 483.794 Q892.487 483.036 892.831 482.333 L893.69 482.333 L893.69 493.333 Z" fill="#000000" fill-opacity="1.000000"/>
  <path d="M896.878 487.833 Q896.878 485.927 897.268 484.763 Q897.659 483.599 898.432 482.966 Q899.206 482.333 900.378 482.333 Q901.237 482.333 901.893 482.685 Q902.549 483.036 902.971 483.693 Q903.393 484.349 903.635 485.294 Q903.878 486.24 903.878 487.833 Q903.878 489.74 903.487 490.904 Q903.096 492.068 902.323 492.701 Q901.549 493.333 900.378 493.333 Q898.831 493.333 897.94 492.224 Q896.878 490.865 896.878 487.833 ZM898.237 487.833 Q898.237 490.536 898.854 491.435 Q899.471 492.333 900.378 492.333 Q901.284 492.333 901.901 491.435 Q902.518 490.536 902.518 487.833 Q902.518 485.115 901.901 484.224 Q901.284 483.333 900.362 483.333 Q899.456 483.333 898.909 484.115 Q898.237 485.13 898.237 487.833 Z" fill="#000000" fill-opacity="1.000000"/>
  <path d="M905.768 486.333 L905.768 485.333 L907.268 485.333 L907.268 486.333 L905.768 486.333 ZM905.768 493.333 L905.768 492.333 L907.268 492.333 L907.268 493.333 L905.768 493.333 Z" fill="#000000" fill-opacity="1.000000"/>
  <path d="M909.112 490.333 L910.44 490.333 Q910.674 491.396 911.213 491.865 Q911.753 492.333 912.534 492.333 Q913.471 492.333 914.112 491.716 Q914.753 491.099 914.753 490.193 Q914.753 489.318 914.159 488.747 Q913.565 488.177 912.643 488.177 Q912.268 488.177 911.721 488.333 L911.862 487.333 Q912.003 487.349 912.081 487.349 Q912.924 487.349 913.596 486.841 Q914.268 486.333 914.268 485.271 Q914.268 484.443 913.776 483.888 Q913.284 483.333 912.503 483.333 Q911.737 483.333 911.221 483.833 Q910.706 484.333 910.565 485.333 L909.253 485.333 Q909.487 483.911 910.346 483.122 Q911.206 482.333 912.487 482.333 Q913.362 482.333 914.104 482.74 Q914.846 483.146 915.237 483.849 Q915.628 484.552 915.628 485.349 Q915.628 486.099 915.253 486.716 Q914.878 487.333 914.143 487.693 Q915.096 487.896 915.62 488.544 Q916.143 489.193 916.143 490.177 Q916.143 491.49 915.12 492.411 Q914.096 493.333 912.518 493.333 Q911.112 493.333 910.174 492.497 Q909.237 491.661 909.112 490.333 Z" fill="#000000" fill-opacity="1.000000"/>
  <path d="M917.471 490.333 L918.737 490.333 Q918.893 491.38 919.346 491.857 Q919.799 492.333 920.518 492.333 Q921.112 492.333 921.573 492.029 Q922.034 491.724 922.323 491.216 Q922.612 490.708 922.815 489.857 Q923.018 489.005 923.018 488.177 Q923.018 488.099 923.003 487.927 Q922.612 488.552 921.924 488.943 Q921.237 489.333 920.44 489.333 Q919.112 489.333 918.19 488.388 Q917.268 487.443 917.268 485.88 Q917.268 484.286 918.229 483.31 Q919.19 482.333 920.643 482.333 Q921.69 482.333 922.557 482.896 Q923.424 483.458 923.878 484.505 Q924.331 485.552 924.331 487.536 Q924.331 489.615 923.885 490.833 Q923.44 492.052 922.557 492.693 Q921.674 493.333 920.487 493.333 Q919.221 493.333 918.424 492.544 Q917.628 491.755 917.471 490.333 ZM922.862 485.865 Q922.862 484.693 922.26 484.013 Q921.659 483.333 920.799 483.333 Q919.924 483.333 919.276 484.068 Q918.628 484.802 918.628 485.974 Q918.628 487.021 919.245 487.677 Q919.862 488.333 920.768 488.333 Q921.69 488.333 922.276 487.677 Q922.862 487.021 922.862 485.865 Z" fill="#000000" fill-opacity="1.000000"/>
  <path d="M926.159 486.333 L926.159 485.333 L927.659 485.333 L927.659 486.333 L926.159 486.333 ZM926.159 493.333 L926.159 492.333 L927.659 492.333 L927.659 493.333 L926.159 493.333 Z" fill="#000000" fill-opacity="1.000000"/>
  <path d="M929.503 487.833 Q929.503 485.927 929.893 484.763 Q930.284 483.599 931.057 482.966 Q931.831 482.333 933.003 482.333 Q933.862 482.333 934.518 482.685 Q935.174 483.036 935.596 483.693 Q936.018 484.349 936.26 485.294 Q936.503 486.24 936.503 487.833 Q936.503 489.74 936.112 490.904 Q935.721 492.068 934.948 492.701 Q934.174 493.333 933.003 493.333 Q931.456 493.333 930.565 492.224 Q929.503 490.865 929.503 487.833 ZM930.862 487.833 Q930.862 490.536 931.479 491.435 Q932.096 492.333 933.003 492.333 Q933.909 492.333 934.526 491.435 Q935.143 490.536 935.143 487.833 Q935.143 485.115 934.526 484.224 Q933.909 483.333 932.987 483.333 Q932.081 483.333 931.534 484.115 Q930.862 485.13 930.862 487.833 Z" fill="#000000" fill-opacity="1.000000"/>
  <path d="M937.659 487.833 Q937.659 485.927 938.049 484.763 Q938.44 483.599 939.213 482.966 Q939.987 482.333 941.159 482.333 Q942.018 482.333 942.674 482.685 Q943.331 483.036 943.753 483.693 Q944.174 484.349 944.417 485.294 Q944.659 486.24 944.659 487.833 Q944.659 489.74 944.268 490.904 Q943.878 492.068 943.104 492.701 Q942.331 493.333 941.159 493.333 Q939.612 493.333 938.721 492.224 Q937.659 490.865 937.659 487.833 ZM939.018 487.833 Q939.018 490.536 939.635 491.435 Q940.253 492.333 941.159 492.333 Q942.065 492.333 942.682 491.435 Q943.299 490.536 943.299 487.833 Q943.299 485.115 942.682 484.224 Q942.065 483.333 941.143 483.333 Q940.237 483.333 939.69 484.115 Q939.018 485.13 939.018 487.833 Z" fill="#000000" fill-opacity="1.000000"/>
  <path d="M986.927 493.333 L985.599 493.333 L985.599 484.755 Q985.13 485.224 984.357 485.685 Q983.583 486.146 982.974 486.38 L982.974 485.083 Q984.083 484.552 984.904 483.794 Q985.724 483.036 986.068 482.333 L986.927 482.333 L986.927 493.333 Z" fill="#000000" fill-opacity="1.000000"/>
  <path d="M994.536 493.333 L993.208 493.333 L993.208 484.755 Q992.74 485.224 991.966 485.685 Q991.193 486.146 990.583 486.38 L990.583 485.083 Q991.693 484.552 992.513 483.794 Q993.333 483.036 993.677 482.333 L994.536 482.333 L994.536 493.333 Z" fill="#000000" fill-opacity="1.000000"/>
  <path d="M997.911 486.333 L997.911 485.333 L999.411 485.333 L999.411 486.333 L997.911 486.333 ZM997.911 493.333 L997.911 492.333 L999.411 492.333 L999.411 493.333 L997.911 493.333 Z" fill="#000000" fill-opacity="1.000000"/>
  <path d="M1006.22 493.333 L1004.9 493.333 L1004.9 484.755 Q1004.43 485.224 1003.65 485.685 Q1002.88 486.146 1002.27 486.38 L1002.27 485.083 Q1003.38 484.552 1004.2 483.794 Q1005.02 483.036 1005.36 482.333 L1006.22 482.333 L1006.22 493.333 Z" fill="#000000" fill-opacity="1.000000"/>
  <path d="M1009.41 490.333 L1010.79 490.333 Q1010.94 491.333 1011.51 491.833 Q1012.07 492.333 1012.85 492.333 Q1013.8 492.333 1014.47 491.622 Q1015.13 490.911 1015.13 489.74 Q1015.13 488.63 1014.5 487.982 Q1013.86 487.333 1012.83 487.333 Q1012.19 487.333 1011.68 487.615 Q1011.18 487.896 1010.88 488.333 L1009.65 488.333 L1010.68 482.333 L1016.02 482.333 L1016.02 483.333 L1011.74 483.333 L1011.16 486.911 Q1012.13 486.333 1013.19 486.333 Q1014.58 486.333 1015.55 487.271 Q1016.52 488.208 1016.52 489.661 Q1016.52 491.068 1015.68 492.083 Q1014.65 493.333 1012.85 493.333 Q1011.4 493.333 1010.47 492.513 Q1009.54 491.693 1009.41 490.333 Z" fill="#000000" fill-opacity="1.000000"/>
  <path d="M1018.3 486.333 L1018.3 485.333 L1019.8 485.333 L1019.8 486.333 L1018.3 486.333 ZM1018.3 493.333 L1018.3 492.333 L1019.8 492.333 L1019.8 493.333 L1018.3 493.333 Z" fill="#000000" fill-opacity="1.000000"/>
  <path d="M1021.65 487.833 Q1021.65 485.927 1022.04 484.763 Q1022.43 483.599 1023.2 482.966 Q1023.97 482.333 1025.15 482.333 Q1026.01 482.333 1026.66 482.685 Q1027.32 483.036 1027.74 483.693 Q1028.16 484.349 1028.4 485.294 Q1028.65 486.24 1028.65 487.833 Q1028.65 489.74 1028.26 490.904 Q1027.86 492.068 1027.09 492.701 Q1026.32 493.333 1025.15 493.333 Q1023.6 493.333 1022.71 492.224 Q1021.65 490.865 1021.65 487.833 ZM1023.01 487.833 Q1023.01 490.536 1023.62 491.435 Q1024.24 492.333 1025.15 492.333 Q1026.05 492.333 1026.67 491.435 Q1027.29 490.536 1027.29 487.833 Q1027.29 485.115 1026.67 484.224 Q1026.05 483.333 1025.13 483.333 Q1024.22 483.333 1023.68 484.115 Q1023.01 485.13 1023.01 487.833 Z" fill="#000000" fill-opacity="1.000000"/>
  <path d="M1029.8 487.833 Q1029.8 485.927 1030.19 484.763 Q1030.58 483.599 1031.36 482.966 Q1032.13 482.333 1033.3 482.333 Q1034.16 482.333 1034.82 482.685 Q1035.47 483.036 1035.9 483.693 Q1036.32 484.349 1036.56 485.294 Q1036.8 486.24 1036.8 487.833 Q1036.8 489.74 1036.41 490.904 Q1036.02 492.068 1035.25 492.701 Q1034.47 493.333 1033.3 493.333 Q1031.76 493.333 1030.86 492.224 Q1029.8 490.865 1029.8 487.833 ZM1031.16 487.833 Q1031.16 490.536 1031.78 491.435 Q1032.4 492.333 1033.3 492.333 Q1034.21 492.333 1034.83 491.435 Q1035.44 490.536 1035.44 487.833 Q1035.44 485.115 1034.83 484.224 Q1034.21 483.333 1033.29 483.333 Q1032.38 483.333 1031.83 484.115 Q1031.16 485.13 1031.16 487.833 Z" fill="#000000" fill-opacity="1.000000"/>
  <path d="M82.4313 467.6 L82.4313 14.6667 " fill="none" stroke-width="1.333333" stroke="#000000ff"/>
  <path d="M82.4313 467.6 L87.7646 467.6 " fill="none" stroke-width="1.333333" stroke="#000000ff"/>
  <path d="M82.4313 422.307 L87.7646 422.307 " fill="none" stroke-width="1.333333" stroke="#000000ff"/>
  <path d="M82.4313 377.013 L87.7646 377.013 " fill="none" stroke-width="1.333333" stroke="#000000ff"/>
  <path d="M82.4313 331.72 L87.7646 331.72 " fill="none" stroke-width="1.333333" stroke="#000000ff"/>
  <path d="M82.4313 286.427 L87.7646 286.427 " fill="none" stroke-width="1.333333" stroke="#000000ff"/>
  <path d="M82.4313 241.133 L87.7646 241.133 " fill="none" stroke-width="1.333333" stroke="#000000ff"/>
  <path d="M82.4313 195.84 L87.7646 195.84 " fill="none" stroke-width="1.333333" stroke="#000000ff"/>
  <path d="M82.4313 150.547 L87.7646 150.547 " fill="none" stroke-width="1.333333" stroke="#000000ff"/>
  <path d="M82.4313 105.253 L87.7646 105.253 " fill="none" stroke-width="1.333333" stroke="#000000ff"/>
  <path d="M82.4313 59.96 L87.7646 59.96 " fill="none" stroke-width="1.333333" stroke="#000000ff"/>
  <path d="M82.4313 14.6667 L87.7646 14.6667 " fill="none" stroke-width="1.333333" stroke="#000000ff"/>
  <path d="M63.1667 467.1 Q63.1667 465.194 63.5573 464.03 Q63.9479 462.866 64.7214 462.233 Q65.4948 461.6 66.6667 461.6 Q67.526 461.6 68.1823 461.952 Q68.8385 462.303 69.2604 462.959 Q69.6823 463.616 69.9245 464.561 Q70.1667 465.506 70.1667 467.1 Q70.1667 469.006 69.776 470.17 Q69.3854 471.334 68.612 471.967 Q67.8385 472.6 66.6667 472.6 Q65.1198 472.6 64.2292 471.491 Q63.1667 470.131 63.1667 467.1 ZM64.526 467.1 Q64.526 469.803 65.1432 470.702 Q65.7604 471.6 66.6667 471.6 Q67.5729 471.6 68.1901 470.702 Q68.8073 469.803 68.8073 467.1 Q68.8073 464.381 68.1901 463.491 Q67.5729 462.6 66.651 462.6 Q65.7448 462.6 65.1979 463.381 Q64.526 464.397 64.526 467.1 Z" fill="#000000" fill-opacity="1.000000"/>
  <path d="M22.0885 424.557 L16.6042 424.557 C16.7448 423.635 17.2135 423.041 18.4948 422.229 L19.9635 421.369 C21.4167 420.525 22.1667 419.385 22.1667 418.01 C22.1667 417.088 21.8073 416.229 21.1979 415.635 C20.5729 415.072 19.8073 414.807 18.8229 414.807 C17.5104 414.807 16.526 415.291 15.9479 416.213 C15.5885 416.791 15.4167 417.479 15.3854 418.604 L16.6823 418.604 C16.7292 417.854 16.8229 417.416 16.9948 417.041 C17.3229 416.354 18.0104 415.947 18.776 415.947 C19.9635 415.947 20.8385 416.838 20.8385 418.041 C20.8385 418.932 20.3542 419.697 19.4323 420.26 L18.0729 421.088 C15.901 422.4 15.276 423.447 15.151 425.807 L22.0885 425.807 L22.0885 424.557 Z" fill="#000000" fill-opacity="1.000000"/>
  <path d="M25.6198 424.291 L24.0885 424.291 L24.0885 425.807 L25.6198 425.807 L25.6198 424.291 Z" fill="#000000" fill-opacity="1.000000"/>
  <path d="M30.9323 414.807 C29.9635 414.807 29.0729 415.26 28.5417 415.979 C27.8698 416.916 27.526 418.338 27.526 420.322 C27.526 423.916 28.6979 425.807 30.9323 425.807 C33.1354 425.807 34.3385 423.916 34.3385 420.4 C34.3385 418.338 34.0104 416.947 33.3229 415.979 C32.776 415.244 31.9167 414.807 30.9323 414.807 ZM30.9323 415.963 C32.3229 415.963 33.0104 417.4 33.0104 420.291 C33.0104 423.322 32.3385 424.744 30.901 424.744 C29.5417 424.744 28.8385 423.26 28.8385 420.338 C28.8385 417.4 29.5417 415.963 30.9323 415.963 Z" fill="#000000" fill-opacity="1.000000"/>
  <path d="" fill="#000000" fill-opacity="1.000000"/>
  <path d="M44.4167 419.541 L42.2604 421.697 L40.1198 419.557 L39.401 420.275 L41.5417 422.416 L39.3854 424.588 L40.1198 425.307 L42.2604 423.15 L44.4167 425.322 L45.151 424.588 L42.9948 422.416 L45.1354 420.275 L44.4167 419.541 Z" fill="#000000" fill-opacity="1.000000"/>
  <path d="" fill="#000000" fill-opacity="1.000000"/>
  <path d="M53.2917 418.26 L53.2917 425.807 L54.5729 425.807 L54.5729 415.197 L53.7292 415.197 C53.276 416.838 52.9792 417.057 50.9792 417.322 L50.9792 418.26 L53.2917 418.26 Z" fill="#000000" fill-opacity="1.000000"/>
  <path d="M61.6823 414.807 C60.7135 414.807 59.8229 415.26 59.2917 415.979 C58.6198 416.916 58.276 418.338 58.276 420.322 C58.276 423.916 59.4479 425.807 61.6823 425.807 C63.8854 425.807 65.0885 423.916 65.0885 420.4 C65.0885 418.338 64.7604 416.947 64.0729 415.979 C63.526 415.244 62.6667 414.807 61.6823 414.807 ZM61.6823 415.963 C63.0729 415.963 63.7604 417.4 63.7604 420.291 C63.7604 423.322 63.0885 424.744 61.651 424.744 C60.2917 424.744 59.5885 423.26 59.5885 420.338 C59.5885 417.4 60.2917 415.963 61.6823 415.963 Z" fill="#000000" fill-opacity="1.000000"/>
  <path d="M70.3385 416.463 C70.1667 415.432 69.4635 414.807 68.4167 414.807 C67.6823 414.807 67.0104 415.135 66.6198 415.697 C66.2135 416.26 66.026 416.979 66.026 418.166 C66.026 420.525 66.776 421.588 68.276 421.588 C69.5417 421.588 70.4635 420.682 70.4635 419.244 C70.4635 417.885 69.6042 417.041 68.4167 417.041 C67.7917 417.041 67.4323 417.182 66.9479 417.635 C66.9479 416.369 67.4948 415.588 68.3542 415.588 C68.9323 415.588 69.2917 415.9 69.4323 416.463 L70.3385 416.463 ZM68.3073 417.807 C69.0729 417.807 69.5417 418.4 69.5417 419.307 C69.5417 420.182 69.0104 420.807 68.2917 420.807 C67.5417 420.807 67.0104 420.15 67.0104 419.26 C67.0104 418.4 67.526 417.807 68.3073 417.807 Z" fill="#000000" fill-opacity="1.000000"/>
  <path d="M19.4635 377.685 L19.4635 380.513 L20.7448 380.513 L20.7448 377.685 L22.2917 377.685 L22.2917 376.513 L20.7448 376.513 L20.7448 369.638 L19.7917 369.638 L15.0729 376.31 L15.0729 377.685 L19.4635 377.685 ZM19.4635 376.513 L16.1979 376.513 L19.4635 371.841 L19.4635 376.513 Z" fill="#000000" fill-opacity="1.000000"/>
  <path d="M25.6198 378.998 L24.0885 378.998 L24.0885 380.513 L25.6198 380.513 L25.6198 378.998 Z" fill="#000000" fill-opacity="1.000000"/>
  <path d="M30.9323 369.513 C29.9635 369.513 29.0729 369.966 28.5417 370.685 C27.8698 371.623 27.526 373.045 27.526 375.029 C27.526 378.623 28.6979 380.513 30.9323 380.513 C33.1354 380.513 34.3385 378.623 34.3385 375.107 C34.3385 373.045 34.0104 371.654 33.3229 370.685 C32.776 369.951 31.9167 369.513 30.9323 369.513 ZM30.9323 370.67 C32.3229 370.67 33.0104 372.107 33.0104 374.998 C33.0104 378.029 32.3385 379.451 30.901 379.451 C29.5417 379.451 28.8385 377.966 28.8385 375.045 C28.8385 372.107 29.5417 370.67 30.9323 370.67 Z" fill="#000000" fill-opacity="1.000000"/>
  <path d="" fill="#000000" fill-opacity="1.000000"/>
  <path d="M44.4167 374.248 L42.2604 376.404 L40.1198 374.263 L39.401 374.982 L41.5417 377.123 L39.3854 379.295 L40.1198 380.013 L42.2604 377.857 L44.4167 380.029 L45.151 379.295 L42.9948 377.123 L45.1354 374.982 L44.4167 374.248 Z" fill="#000000" fill-opacity="1.000000"/>
  <path d="" fill="#000000" fill-opacity="1.000000"/>
  <path d="M53.2917 372.966 L53.2917 380.513 L54.5729 380.513 L54.5729 369.904 L53.7292 369.904 C53.276 371.545 52.9792 371.763 50.9792 372.029 L50.9792 372.966 L53.2917 372.966 Z" fill="#000000" fill-opacity="1.000000"/>
  <path d="M61.6823 369.513 C60.7135 369.513 59.8229 369.966 59.2917 370.685 C58.6198 371.623 58.276 373.045 58.276 375.029 C58.276 378.623 59.4479 380.513 61.6823 380.513 C63.8854 380.513 65.0885 378.623 65.0885 375.107 C65.0885 373.045 64.7604 371.654 64.0729 370.685 C63.526 369.951 62.6667 369.513 61.6823 369.513 ZM61.6823 370.67 C63.0729 370.67 63.7604 372.107 63.7604 374.998 C63.7604 378.029 63.0885 379.451 61.651 379.451 C60.2917 379.451 59.5885 377.966 59.5885 375.045 C59.5885 372.107 60.2917 370.67 61.6823 370.67 Z" fill="#000000" fill-opacity="1.000000"/>
  <path d="M70.3385 371.17 C70.1667 370.138 69.4635 369.513 68.4167 369.513 C67.6823 369.513 67.0104 369.841 66.6198 370.404 C66.2135 370.966 66.026 371.685 66.026 372.873 C66.026 375.232 66.776 376.295 68.276 376.295 C69.5417 376.295 70.4635 375.388 70.4635 373.951 C70.4635 372.591 69.6042 371.748 68.4167 371.748 C67.7917 371.748 67.4323 371.888 66.9479 372.341 C66.9479 371.076 67.4948 370.295 68.3542 370.295 C68.9323 370.295 69.2917 370.607 69.4323 371.17 L70.3385 371.17 ZM68.3073 372.513 C69.0729 372.513 69.5417 373.107 69.5417 374.013 C69.5417 374.888 69.0104 375.513 68.2917 375.513 C67.5417 375.513 67.0104 374.857 67.0104 373.966 C67.0104 373.107 67.526 372.513 68.3073 372.513 Z" fill="#000000" fill-opacity="1.000000"/>
  <path d="M21.9635 326.954 C21.7135 325.251 20.6042 324.22 19.026 324.22 C17.8698 324.22 16.8385 324.782 16.2292 325.736 C15.5729 326.751 15.2917 328.017 15.2917 329.939 C15.2917 331.782 15.5417 332.939 16.1667 333.907 C16.7292 334.767 17.6354 335.22 18.776 335.22 C20.7604 335.22 22.1823 333.736 22.1823 331.611 C22.1823 329.611 20.8698 328.22 19.0104 328.22 C17.9792 328.22 17.1667 328.611 16.6042 329.392 C16.6198 326.798 17.4479 325.376 18.9323 325.376 C19.8385 325.376 20.4792 325.954 20.6823 326.954 L21.9635 326.954 ZM18.8385 329.376 C20.0885 329.376 20.8698 330.282 20.8698 331.72 C20.8698 333.095 19.9948 334.079 18.7917 334.079 C17.5885 334.079 16.6823 333.048 16.6823 331.657 C16.6823 330.314 17.5729 329.376 18.8385 329.376 Z" fill="#000000" fill-opacity="1.000000"/>
  <path d="M25.6198 333.704 L24.0885 333.704 L24.0885 335.22 L25.6198 335.22 L25.6198 333.704 Z" fill="#000000" fill-opacity="1.000000"/>
  <path d="M30.9323 324.22 C29.9635 324.22 29.0729 324.673 28.5417 325.392 C27.8698 326.329 27.526 327.751 27.526 329.736 C27.526 333.329 28.6979 335.22 30.9323 335.22 C33.1354 335.22 34.3385 333.329 34.3385 329.814 C34.3385 327.751 34.0104 326.361 33.3229 325.392 C32.776 324.657 31.9167 324.22 30.9323 324.22 ZM30.9323 325.376 C32.3229 325.376 33.0104 326.814 33.0104 329.704 C33.0104 332.736 32.3385 334.157 30.901 334.157 C29.5417 334.157 28.8385 332.673 28.8385 329.751 C28.8385 326.814 29.5417 325.376 30.9323 325.376 Z" fill="#000000" fill-opacity="1.000000"/>
  <path d="" fill="#000000" fill-opacity="1.000000"/>
  <path d="M44.4167 328.954 L42.2604 331.111 L40.1198 328.97 L39.401 329.689 L41.5417 331.829 L39.3854 334.001 L40.1198 334.72 L42.2604 332.564 L44.4167 334.736 L45.151 334.001 L42.9948 331.829 L45.1354 329.689 L44.4167 328.954 Z" fill="#000000" fill-opacity="1.000000"/>
  <path d="" fill="#000000" fill-opacity="1.000000"/>
  <path d="M53.2917 327.673 L53.2917 335.22 L54.5729 335.22 L54.5729 324.611 L53.7292 324.611 C53.276 326.251 52.9792 326.47 50.9792 326.736 L50.9792 327.673 L53.2917 327.673 Z" fill="#000000" fill-opacity="1.000000"/>
  <path d="M61.6823 324.22 C60.7135 324.22 59.8229 324.673 59.2917 325.392 C58.6198 326.329 58.276 327.751 58.276 329.736 C58.276 333.329 59.4479 335.22 61.6823 335.22 C63.8854 335.22 65.0885 333.329 65.0885 329.814 C65.0885 327.751 64.7604 326.361 64.0729 325.392 C63.526 324.657 62.6667 324.22 61.6823 324.22 ZM61.6823 325.376 C63.0729 325.376 63.7604 326.814 63.7604 329.704 C63.7604 332.736 63.0885 334.157 61.651 334.157 C60.2917 334.157 59.5885 332.673 59.5885 329.751 C59.5885 326.814 60.2917 325.376 61.6823 325.376 Z" fill="#000000" fill-opacity="1.000000"/>
  <path d="M70.3385 325.876 C70.1667 324.845 69.4635 324.22 68.4167 324.22 C67.6823 324.22 67.0104 324.548 66.6198 325.111 C66.2135 325.673 66.026 326.392 66.026 327.579 C66.026 329.939 66.776 331.001 68.276 331.001 C69.5417 331.001 70.4635 330.095 70.4635 328.657 C70.4635 327.298 69.6042 326.454 68.4167 326.454 C67.7917 326.454 67.4323 326.595 66.9479 327.048 C66.9479 325.782 67.4948 325.001 68.3542 325.001 C68.9323 325.001 69.2917 325.314 69.4323 325.876 L70.3385 325.876 ZM68.3073 327.22 C69.0729 327.22 69.5417 327.814 69.5417 328.72 C69.5417 329.595 69.0104 330.22 68.2917 330.22 C67.5417 330.22 67.0104 329.564 67.0104 328.673 C67.0104 327.814 67.526 327.22 68.3073 327.22 Z" fill="#000000" fill-opacity="1.000000"/>
  <path d="M20.401 284.349 C21.4792 283.661 21.8229 283.083 21.8229 281.958 C21.8229 280.099 20.5417 278.927 18.6979 278.927 C16.8542 278.927 15.5729 280.099 15.5729 281.942 C15.5729 283.083 15.901 283.645 16.9792 284.349 C15.7917 284.942 15.1979 285.739 15.1979 286.817 C15.1979 288.599 16.6198 289.927 18.6979 289.927 C20.7448 289.927 22.1823 288.599 22.1823 286.817 C22.1823 285.739 21.6042 284.942 20.401 284.349 ZM18.6979 280.083 C19.7917 280.083 20.4948 280.817 20.4948 281.989 C20.4948 283.114 19.776 283.849 18.6979 283.849 C17.5885 283.849 16.8854 283.114 16.8854 281.958 C16.8854 280.817 17.5885 280.083 18.6979 280.083 ZM18.6979 284.927 C19.9948 284.927 20.8698 285.724 20.8698 286.849 C20.8698 288.02 19.9948 288.786 18.6667 288.786 C17.401 288.786 16.526 287.989 16.526 286.864 C16.526 285.708 17.3854 284.927 18.6979 284.927 Z" fill="#000000" fill-opacity="1.000000"/>
  <path d="M25.6198 288.411 L24.0885 288.411 L24.0885 289.927 L25.6198 289.927 L25.6198 288.411 Z" fill="#000000" fill-opacity="1.000000"/>
  <path d="M30.9323 278.927 C29.9635 278.927 29.0729 279.38 28.5417 280.099 C27.8698 281.036 27.526 282.458 27.526 284.442 C27.526 288.036 28.6979 289.927 30.9323 289.927 C33.1354 289.927 34.3385 288.036 34.3385 284.52 C34.3385 282.458 34.0104 281.067 33.3229 280.099 C32.776 279.364 31.9167 278.927 30.9323 278.927 ZM30.9323 280.083 C32.3229 280.083 33.0104 281.52 33.0104 284.411 C33.0104 287.442 32.3385 288.864 30.901 288.864 C29.5417 288.864 28.8385 287.38 28.8385 284.458 C28.8385 281.52 29.5417 280.083 30.9323 280.083 Z" fill="#000000" fill-opacity="1.000000"/>
  <path d="" fill="#000000" fill-opacity="1.000000"/>
  <path d="M44.4167 283.661 L42.2604 285.817 L40.1198 283.677 L39.401 284.395 L41.5417 286.536 L39.3854 288.708 L40.1198 289.427 L42.2604 287.27 L44.4167 289.442 L45.151 288.708 L42.9948 286.536 L45.1354 284.395 L44.4167 283.661 Z" fill="#000000" fill-opacity="1.000000"/>
  <path d="" fill="#000000" fill-opacity="1.000000"/>
  <path d="M53.2917 282.38 L53.2917 289.927 L54.5729 289.927 L54.5729 279.317 L53.7292 279.317 C53.276 280.958 52.9792 281.177 50.9792 281.442 L50.9792 282.38 L53.2917 282.38 Z" fill="#000000" fill-opacity="1.000000"/>
  <path d="M61.6823 278.927 C60.7135 278.927 59.8229 279.38 59.2917 280.099 C58.6198 281.036 58.276 282.458 58.276 284.442 C58.276 288.036 59.4479 289.927 61.6823 289.927 C63.8854 289.927 65.0885 288.036 65.0885 284.52 C65.0885 282.458 64.7604 281.067 64.0729 280.099 C63.526 279.364 62.6667 278.927 61.6823 278.927 ZM61.6823 280.083 C63.0729 280.083 63.7604 281.52 63.7604 284.411 C63.7604 287.442 63.0885 288.864 61.651 288.864 C60.2917 288.864 59.5885 287.38 59.5885 284.458 C59.5885 281.52 60.2917 280.083 61.6823 280.083 Z" fill="#000000" fill-opacity="1.000000"/>
  <path d="M70.3385 280.583 C70.1667 279.552 69.4635 278.927 68.4167 278.927 C67.6823 278.927 67.0104 279.255 66.6198 279.817 C66.2135 280.38 66.026 281.099 66.026 282.286 C66.026 284.645 66.776 285.708 68.276 285.708 C69.5417 285.708 70.4635 284.802 70.4635 283.364 C70.4635 282.005 69.6042 281.161 68.4167 281.161 C67.7917 281.161 67.4323 281.302 66.9479 281.755 C66.9479 280.489 67.4948 279.708 68.3542 279.708 C68.9323 279.708 69.2917 280.02 69.4323 280.583 L70.3385 280.583 ZM68.3073 281.927 C69.0729 281.927 69.5417 282.52 69.5417 283.427 C69.5417 284.302 69.0104 284.927 68.2917 284.927 C67.5417 284.927 67.0104 284.27 67.0104 283.38 C67.0104 282.52 67.526 281.927 68.3073 281.927 Z" fill="#000000" fill-opacity="1.000000"/>
  <path d="M18.4635 237.086 L18.4635 244.633 L19.7448 244.633 L19.7448 234.024 L18.901 234.024 C18.4479 235.665 18.151 235.883 16.151 236.149 L16.151 237.086 L18.4635 237.086 Z" fill="#000000" fill-opacity="1.000000"/>
  <path d="M25.6198 243.118 L24.0885 243.118 L24.0885 244.633 L25.6198 244.633 L25.6198 243.118 Z" fill="#000000" fill-opacity="1.000000"/>
  <path d="M30.9323 233.633 C29.9635 233.633 29.0729 234.086 28.5417 234.805 C27.8698 235.743 27.526 237.165 27.526 239.149 C27.526 242.743 28.6979 244.633 30.9323 244.633 C33.1354 244.633 34.3385 242.743 34.3385 239.227 C34.3385 237.165 34.0104 235.774 33.3229 234.805 C32.776 234.071 31.9167 233.633 30.9323 233.633 ZM30.9323 234.79 C32.3229 234.79 33.0104 236.227 33.0104 239.118 C33.0104 242.149 32.3385 243.571 30.901 243.571 C29.5417 243.571 28.8385 242.086 28.8385 239.165 C28.8385 236.227 29.5417 234.79 30.9323 234.79 Z" fill="#000000" fill-opacity="1.000000"/>
  <path d="" fill="#000000" fill-opacity="1.000000"/>
  <path d="M44.4167 238.368 L42.2604 240.524 L40.1198 238.383 L39.401 239.102 L41.5417 241.243 L39.3854 243.415 L40.1198 244.133 L42.2604 241.977 L44.4167 244.149 L45.151 243.415 L42.9948 241.243 L45.1354 239.102 L44.4167 238.368 Z" fill="#000000" fill-opacity="1.000000"/>
  <path d="" fill="#000000" fill-opacity="1.000000"/>
  <path d="M53.2917 237.086 L53.2917 244.633 L54.5729 244.633 L54.5729 234.024 L53.7292 234.024 C53.276 235.665 52.9792 235.883 50.9792 236.149 L50.9792 237.086 L53.2917 237.086 Z" fill="#000000" fill-opacity="1.000000"/>
  <path d="M61.6823 233.633 C60.7135 233.633 59.8229 234.086 59.2917 234.805 C58.6198 235.743 58.276 237.165 58.276 239.149 C58.276 242.743 59.4479 244.633 61.6823 244.633 C63.8854 244.633 65.0885 242.743 65.0885 239.227 C65.0885 237.165 64.7604 235.774 64.0729 234.805 C63.526 234.071 62.6667 233.633 61.6823 233.633 ZM61.6823 234.79 C63.0729 234.79 63.7604 236.227 63.7604 239.118 C63.7604 242.149 63.0885 243.571 61.651 243.571 C60.2917 243.571 59.5885 242.086 59.5885 239.165 C59.5885 236.227 60.2917 234.79 61.6823 234.79 Z" fill="#000000" fill-opacity="1.000000"/>
  <path d="M70.5417 233.633 L66.0573 233.633 L66.0573 234.493 L69.5573 234.493 C68.0104 236.555 67.401 237.805 66.901 239.883 L67.8698 239.883 C68.2292 237.899 69.0573 236.196 70.5417 234.352 L70.5417 233.633 Z" fill="#000000" fill-opacity="1.000000"/>
  <path d="M18.4635 191.793 L18.4635 199.34 L19.7448 199.34 L19.7448 188.731 L18.901 188.731 C18.4479 190.371 18.151 190.59 16.151 190.856 L16.151 191.793 L18.4635 191.793 Z" fill="#000000" fill-opacity="1.000000"/>
  <path d="M25.6198 197.824 L24.0885 197.824 L24.0885 199.34 L25.6198 199.34 L25.6198 197.824 Z" fill="#000000" fill-opacity="1.000000"/>
  <path d="M34.3229 198.09 L28.8385 198.09 C28.9792 197.168 29.4479 196.574 30.7292 195.762 L32.1979 194.902 C33.651 194.059 34.401 192.918 34.401 191.543 C34.401 190.621 34.0417 189.762 33.4323 189.168 C32.8073 188.606 32.0417 188.34 31.0573 188.34 C29.7448 188.34 28.7604 188.824 28.1823 189.746 C27.8229 190.324 27.651 191.012 27.6198 192.137 L28.9167 192.137 C28.9635 191.387 29.0573 190.949 29.2292 190.574 C29.5573 189.887 30.2448 189.481 31.0104 189.481 C32.1979 189.481 33.0729 190.371 33.0729 191.574 C33.0729 192.465 32.5885 193.231 31.6667 193.793 L30.3073 194.621 C28.1354 195.934 27.5104 196.981 27.3854 199.34 L34.3229 199.34 L34.3229 198.09 Z" fill="#000000" fill-opacity="1.000000"/>
  <path d="" fill="#000000" fill-opacity="1.000000"/>
  <path d="M44.4167 193.074 L42.2604 195.231 L40.1198 193.09 L39.401 193.809 L41.5417 195.949 L39.3854 198.121 L40.1198 198.84 L42.2604 196.684 L44.4167 198.856 L45.151 198.121 L42.9948 195.949 L45.1354 193.809 L44.4167 193.074 Z" fill="#000000" fill-opacity="1.000000"/>
  <path d="" fill="#000000" fill-opacity="1.000000"/>
  <path d="M53.2917 191.793 L53.2917 199.34 L54.5729 199.34 L54.5729 188.731 L53.7292 188.731 C53.276 190.371 52.9792 190.59 50.9792 190.856 L50.9792 191.793 L53.2917 191.793 Z" fill="#000000" fill-opacity="1.000000"/>
  <path d="M61.6823 188.34 C60.7135 188.34 59.8229 188.793 59.2917 189.512 C58.6198 190.449 58.276 191.871 58.276 193.856 C58.276 197.449 59.4479 199.34 61.6823 199.34 C63.8854 199.34 65.0885 197.449 65.0885 193.934 C65.0885 191.871 64.7604 190.481 64.0729 189.512 C63.526 188.777 62.6667 188.34 61.6823 188.34 ZM61.6823 189.496 C63.0729 189.496 63.7604 190.934 63.7604 193.824 C63.7604 196.856 63.0885 198.277 61.651 198.277 C60.2917 198.277 59.5885 196.793 59.5885 193.871 C59.5885 190.934 60.2917 189.496 61.6823 189.496 Z" fill="#000000" fill-opacity="1.000000"/>
  <path d="M70.5417 188.34 L66.0573 188.34 L66.0573 189.199 L69.5573 189.199 C68.0104 191.262 67.401 192.512 66.901 194.59 L67.8698 194.59 C68.2292 192.606 69.0573 190.902 70.5417 189.059 L70.5417 188.34 Z" fill="#000000" fill-opacity="1.000000"/>
  <path d="M18.4635 146.5 L18.4635 154.047 L19.7448 154.047 L19.7448 143.437 L18.901 143.437 C18.4479 145.078 18.151 145.297 16.151 145.562 L16.151 146.5 L18.4635 146.5 Z" fill="#000000" fill-opacity="1.000000"/>
  <path d="M25.6198 152.531 L24.0885 152.531 L24.0885 154.047 L25.6198 154.047 L25.6198 152.531 Z" fill="#000000" fill-opacity="1.000000"/>
  <path d="M31.6979 151.219 L31.6979 154.047 L32.9792 154.047 L32.9792 151.219 L34.526 151.219 L34.526 150.047 L32.9792 150.047 L32.9792 143.172 L32.026 143.172 L27.3073 149.844 L27.3073 151.219 L31.6979 151.219 ZM31.6979 150.047 L28.4323 150.047 L31.6979 145.375 L31.6979 150.047 Z" fill="#000000" fill-opacity="1.000000"/>
  <path d="" fill="#000000" fill-opacity="1.000000"/>
  <path d="M44.4167 147.781 L42.2604 149.937 L40.1198 147.797 L39.401 148.515 L41.5417 150.656 L39.3854 152.828 L40.1198 153.547 L42.2604 151.39 L44.4167 153.562 L45.151 152.828 L42.9948 150.656 L45.1354 148.515 L44.4167 147.781 Z" fill="#000000" fill-opacity="1.000000"/>
  <path d="" fill="#000000" fill-opacity="1.000000"/>
  <path d="M53.2917 146.5 L53.2917 154.047 L54.5729 154.047 L54.5729 143.437 L53.7292 143.437 C53.276 145.078 52.9792 145.297 50.9792 145.562 L50.9792 146.5 L53.2917 146.5 Z" fill="#000000" fill-opacity="1.000000"/>
  <path d="M61.6823 143.047 C60.7135 143.047 59.8229 143.5 59.2917 144.219 C58.6198 145.156 58.276 146.578 58.276 148.562 C58.276 152.156 59.4479 154.047 61.6823 154.047 C63.8854 154.047 65.0885 152.156 65.0885 148.64 C65.0885 146.578 64.7604 145.187 64.0729 144.219 C63.526 143.484 62.6667 143.047 61.6823 143.047 ZM61.6823 144.203 C63.0729 144.203 63.7604 145.64 63.7604 148.531 C63.7604 151.562 63.0885 152.984 61.651 152.984 C60.2917 152.984 59.5885 151.5 59.5885 148.578 C59.5885 145.64 60.2917 144.203 61.6823 144.203 Z" fill="#000000" fill-opacity="1.000000"/>
  <path d="M70.5417 143.047 L66.0573 143.047 L66.0573 143.906 L69.5573 143.906 C68.0104 145.969 67.401 147.219 66.901 149.297 L67.8698 149.297 C68.2292 147.312 69.0573 145.609 70.5417 143.765 L70.5417 143.047 Z" fill="#000000" fill-opacity="1.000000"/>
  <path d="M18.4635 101.206 L18.4635 108.753 L19.7448 108.753 L19.7448 98.144 L18.901 98.144 C18.4479 99.7846 18.151 100.003 16.151 100.269 L16.151 101.206 L18.4635 101.206 Z" fill="#000000" fill-opacity="1.000000"/>
  <path d="M25.6198 107.238 L24.0885 107.238 L24.0885 108.753 L25.6198 108.753 L25.6198 107.238 Z" fill="#000000" fill-opacity="1.000000"/>
  <path d="M34.1979 100.488 C33.9479 98.7846 32.8385 97.7533 31.2604 97.7533 C30.1042 97.7533 29.0729 98.3158 28.4635 99.269 C27.8073 100.285 27.526 101.55 27.526 103.472 C27.526 105.316 27.776 106.472 28.401 107.441 C28.9635 108.3 29.8698 108.753 31.0104 108.753 C32.9948 108.753 34.4167 107.269 34.4167 105.144 C34.4167 103.144 33.1042 101.753 31.2448 101.753 C30.2135 101.753 29.401 102.144 28.8385 102.925 C28.8542 100.331 29.6823 98.9096 31.1667 98.9096 C32.0729 98.9096 32.7135 99.4877 32.9167 100.488 L34.1979 100.488 ZM31.0729 102.91 C32.3229 102.91 33.1042 103.816 33.1042 105.253 C33.1042 106.628 32.2292 107.613 31.026 107.613 C29.8229 107.613 28.9167 106.581 28.9167 105.191 C28.9167 103.847 29.8073 102.91 31.0729 102.91 Z" fill="#000000" fill-opacity="1.000000"/>
  <path d="" fill="#000000" fill-opacity="1.000000"/>
  <path d="M44.4167 102.488 L42.2604 104.644 L40.1198 102.503 L39.401 103.222 L41.5417 105.363 L39.3854 107.535 L40.1198 108.253 L42.2604 106.097 L44.4167 108.269 L45.151 107.535 L42.9948 105.363 L45.1354 103.222 L44.4167 102.488 Z" fill="#000000" fill-opacity="1.000000"/>
  <path d="" fill="#000000" fill-opacity="1.000000"/>
  <path d="M53.2917 101.206 L53.2917 108.753 L54.5729 108.753 L54.5729 98.144 L53.7292 98.144 C53.276 99.7846 52.9792 100.003 50.9792 100.269 L50.9792 101.206 L53.2917 101.206 Z" fill="#000000" fill-opacity="1.000000"/>
  <path d="M61.6823 97.7533 C60.7135 97.7533 59.8229 98.2065 59.2917 98.9252 C58.6198 99.8627 58.276 101.285 58.276 103.269 C58.276 106.863 59.4479 108.753 61.6823 108.753 C63.8854 108.753 65.0885 106.863 65.0885 103.347 C65.0885 101.285 64.7604 99.894 64.0729 98.9252 C63.526 98.1908 62.6667 97.7533 61.6823 97.7533 ZM61.6823 98.9096 C63.0729 98.9096 63.7604 100.347 63.7604 103.238 C63.7604 106.269 63.0885 107.691 61.651 107.691 C60.2917 107.691 59.5885 106.206 59.5885 103.285 C59.5885 100.347 60.2917 98.9096 61.6823 98.9096 Z" fill="#000000" fill-opacity="1.000000"/>
  <path d="M70.5417 97.7533 L66.0573 97.7533 L66.0573 98.6127 L69.5573 98.6127 C68.0104 100.675 67.401 101.925 66.901 104.003 L67.8698 104.003 C68.2292 102.019 69.0573 100.316 70.5417 98.4721 L70.5417 97.7533 Z" fill="#000000" fill-opacity="1.000000"/>
  <path d="M18.4635 55.9131 L18.4635 63.46 L19.7448 63.46 L19.7448 52.8506 L18.901 52.8506 C18.4479 54.4912 18.151 54.71 16.151 54.9756 L16.151 55.9131 L18.4635 55.9131 Z" fill="#000000" fill-opacity="1.000000"/>
  <path d="M25.6198 61.9444 L24.0885 61.9444 L24.0885 63.46 L25.6198 63.46 L25.6198 61.9444 Z" fill="#000000" fill-opacity="1.000000"/>
  <path d="M32.6354 57.8819 C33.7135 57.1944 34.0573 56.6162 34.0573 55.4912 C34.0573 53.6319 32.776 52.46 30.9323 52.46 C29.0885 52.46 27.8073 53.6319 27.8073 55.4756 C27.8073 56.6162 28.1354 57.1787 29.2135 57.8819 C28.026 58.4756 27.4323 59.2725 27.4323 60.3506 C27.4323 62.1319 28.8542 63.46 30.9323 63.46 C32.9792 63.46 34.4167 62.1319 34.4167 60.3506 C34.4167 59.2725 33.8385 58.4756 32.6354 57.8819 ZM30.9323 53.6162 C32.026 53.6162 32.7292 54.3506 32.7292 55.5225 C32.7292 56.6475 32.0104 57.3819 30.9323 57.3819 C29.8229 57.3819 29.1198 56.6475 29.1198 55.4912 C29.1198 54.3506 29.8229 53.6162 30.9323 53.6162 ZM30.9323 58.46 C32.2292 58.46 33.1042 59.2569 33.1042 60.3819 C33.1042 61.5537 32.2292 62.3194 30.901 62.3194 C29.6354 62.3194 28.7604 61.5225 28.7604 60.3975 C28.7604 59.2412 29.6198 58.46 30.9323 58.46 Z" fill="#000000" fill-opacity="1.000000"/>
  <path d="" fill="#000000" fill-opacity="1.000000"/>
  <path d="M44.4167 57.1944 L42.2604 59.3506 L40.1198 57.21 L39.401 57.9287 L41.5417 60.0694 L39.3854 62.2412 L40.1198 62.96 L42.2604 60.8037 L44.4167 62.9756 L45.151 62.2412 L42.9948 60.0694 L45.1354 57.9287 L44.4167 57.1944 Z" fill="#000000" fill-opacity="1.000000"/>
  <path d="" fill="#000000" fill-opacity="1.000000"/>
  <path d="M53.2917 55.9131 L53.2917 63.46 L54.5729 63.46 L54.5729 52.8506 L53.7292 52.8506 C53.276 54.4912 52.9792 54.71 50.9792 54.9756 L50.9792 55.9131 L53.2917 55.9131 Z" fill="#000000" fill-opacity="1.000000"/>
  <path d="M61.6823 52.46 C60.7135 52.46 59.8229 52.9131 59.2917 53.6319 C58.6198 54.5694 58.276 55.9912 58.276 57.9756 C58.276 61.5694 59.4479 63.46 61.6823 63.46 C63.8854 63.46 65.0885 61.5694 65.0885 58.0537 C65.0885 55.9912 64.7604 54.6006 64.0729 53.6319 C63.526 52.8975 62.6667 52.46 61.6823 52.46 ZM61.6823 53.6162 C63.0729 53.6162 63.7604 55.0537 63.7604 57.9444 C63.7604 60.9756 63.0885 62.3975 61.651 62.3975 C60.2917 62.3975 59.5885 60.9131 59.5885 57.9912 C59.5885 55.0537 60.2917 53.6162 61.6823 53.6162 Z" fill="#000000" fill-opacity="1.000000"/>
  <path d="M70.5417 52.46 L66.0573 52.46 L66.0573 53.3194 L69.5573 53.3194 C68.0104 55.3819 67.401 56.6319 66.901 58.71 L67.8698 58.71 C68.2292 56.7256 69.0573 55.0225 70.5417 53.1787 L70.5417 52.46 Z" fill="#000000" fill-opacity="1.000000"/>
  <path d="M22.0885 16.9167 L16.6042 16.9167 C16.7448 15.9948 17.2135 15.401 18.4948 14.5885 L19.9635 13.7292 C21.4167 12.8854 22.1667 11.7448 22.1667 10.3698 C22.1667 9.44792 21.8073 8.58854 21.1979 7.99479 C20.5729 7.43229 19.8073 7.16667 18.8229 7.16667 C17.5104 7.16667 16.526 7.65104 15.9479 8.57292 C15.5885 9.15104 15.4167 9.83854 15.3854 10.9635 L16.6823 10.9635 C16.7292 10.2135 16.8229 9.77604 16.9948 9.40104 C17.3229 8.71354 18.0104 8.30729 18.776 8.30729 C19.9635 8.30729 20.8385 9.19792 20.8385 10.401 C20.8385 11.2917 20.3542 12.0573 19.4323 12.6198 L18.0729 13.4479 C15.901 14.7604 15.276 15.8073 15.151 18.1667 L22.0885 18.1667 L22.0885 16.9167 Z" fill="#000000" fill-opacity="1.000000"/>
  <path d="M25.6198 16.651 L24.0885 16.651 L24.0885 18.1667 L25.6198 18.1667 L25.6198 16.651 Z" fill="#000000" fill-opacity="1.000000"/>
  <path d="M30.9323 7.16667 C29.9635 7.16667 29.0729 7.61979 28.5417 8.33854 C27.8698 9.27604 27.526 10.6979 27.526 12.6823 C27.526 16.276 28.6979 18.1667 30.9323 18.1667 C33.1354 18.1667 34.3385 16.276 34.3385 12.7604 C34.3385 10.6979 34.0104 9.30729 33.3229 8.33854 C32.776 7.60417 31.9167 7.16667 30.9323 7.16667 ZM30.9323 8.32292 C32.3229 8.32292 33.0104 9.76042 33.0104 12.651 C33.0104 15.6823 32.3385 17.1042 30.901 17.1042 C29.5417 17.1042 28.8385 15.6198 28.8385 12.6979 C28.8385 9.76042 29.5417 8.32292 30.9323 8.32292 Z" fill="#000000" fill-opacity="1.000000"/>
  <path d="" fill="#000000" fill-opacity="1.000000"/>
  <path d="M44.4167 11.901 L42.2604 14.0573 L40.1198 11.9167 L39.401 12.6354 L41.5417 14.776 L39.3854 16.9479 L40.1198 17.6667 L42.2604 15.5104 L44.4167 17.6823 L45.151 16.9479 L42.9948 14.776 L45.1354 12.6354 L44.4167 11.901 Z" fill="#000000" fill-opacity="1.000000"/>
  <path d="" fill="#000000" fill-opacity="1.000000"/>
  <path d="M53.2917 10.6198 L53.2917 18.1667 L54.5729 18.1667 L54.5729 7.55729 L53.7292 7.55729 C53.276 9.19792 52.9792 9.41667 50.9792 9.68229 L50.9792 10.6198 L53.2917 10.6198 Z" fill="#000000" fill-opacity="1.000000"/>
  <path d="M61.6823 7.16667 C60.7135 7.16667 59.8229 7.61979 59.2917 8.33854 C58.6198 9.27604 58.276 10.6979 58.276 12.6823 C58.276 16.276 59.4479 18.1667 61.6823 18.1667 C63.8854 18.1667 65.0885 16.276 65.0885 12.7604 C65.0885 10.6979 64.7604 9.30729 64.0729 8.33854 C63.526 7.60417 62.6667 7.16667 61.6823 7.16667 ZM61.6823 8.32292 C63.0729 8.32292 63.7604 9.76042 63.7604 12.651 C63.7604 15.6823 63.0885 17.1042 61.651 17.1042 C60.2917 17.1042 59.5885 15.6198 59.5885 12.6979 C59.5885 9.76042 60.2917 8.32292 61.6823 8.32292 Z" fill="#000000" fill-opacity="1.000000"/>
  <path d="M70.5417 7.16667 L66.0573 7.16667 L66.0573 8.02604 L69.5573 8.02604 C68.0104 10.0885 67.401 11.3385 66.901 13.4167 L67.8698 13.4167 C68.2292 11.4323 69.0573 9.72917 70.5417 7.88542 L70.5417 7.16667 Z" fill="#000000" fill-opacity="1.000000"/>
  <path d="M82.4313 467.6 L82.4313 14.6667 " fill="none" stroke-width="1.333333" stroke="#ffffffff"/>
  <path d="M175.121 467.6 L175.121 14.6667 " fill="none" stroke-width="1.333333" stroke="#ffffffff"/>
  <path d="M267.812 467.6 L267.812 14.6667 " fill="none" stroke-width="1.333333" stroke="#ffffffff"/>
  <path d="M360.502 467.6 L360.502 14.6667 " fill="none" stroke-width="1.333333" stroke="#ffffffff"/>
  <path d="M453.192 467.6 L453.192 14.6667 " fill="none" stroke-width="1.333333" stroke="#ffffffff"/>
  <path d="M545.882 467.6 L545.882 14.6667 " fill="none" stroke-width="1.333333" stroke="#ffffffff"/>
  <path d="M638.573 467.6 L638.573 14.6667 " fill="none" stroke-width="1.333333" stroke="#ffffffff"/>
  <path d="M731.263 467.6 L731.263 14.6667 " fill="none" stroke-width="1.333333" stroke="#ffffffff"/>
  <path d="M823.953 467.6 L823.953 14.6667 " fill="none" stroke-width="1.333333" stroke="#ffffffff"/>
  <path d="M916.643 467.6 L916.643 14.6667 " fill="none" stroke-width="1.333333" stroke="#ffffffff"/>
  <path d="M1009.33 467.6 L1009.33 14.6667 " fill="none" stroke-width="1.333333" stroke="#ffffffff"/>
  <path d="M82.4313 14.6667 L1009.33 14.6667 " fill="none" stroke-width="1.333333" stroke="#ffffffff"/>
  <path d="M82.4313 59.96 L1009.33 59.96 " fill="none" stroke-width="1.333333" stroke="#ffffffff"/>
  <path d="M82.4313 105.253 L1009.33 105.253 " fill="none" stroke-width="1.333333" stroke="#ffffffff"/>
  <path d="M82.4313 150.547 L1009.33 150.547 " fill="none" stroke-width="1.333333" stroke="#ffffffff"/>
  <path d="M82.4313 195.84 L1009.33 195.84 " fill="none" stroke-width="1.333333" stroke="#ffffffff"/>
  <path d="M82.4313 241.133 L1009.33 241.133 " fill="none" stroke-width="1.333333" stroke="#ffffffff"/>
  <path d="M82.4313 286.427 L1009.33 286.427 " fill="none" stroke-width="1.333333" stroke="#ffffffff"/>
  <path d="M82.4313 331.72 L1009.33 331.72 " fill="none" stroke-width="1.333333" stroke="#ffffffff"/>
  <path d="M82.4313 377.013 L1009.33 377.013 " fill="none" stroke-width="1.333333" stroke="#ffffffff"/>
  <path d="M82.4313 422.307 L1009.33 422.307 " fill="none" stroke-width="1.333333" stroke="#ffffffff"/>
  <path d="M82.4313 467.6 L1009.33 467.6 " fill="none" stroke-width="1.333333" stroke="#ffffffff"/>
  <path d="M82.4313 272.34 L95.3049 278.785 L108.179 282.754 L121.052 282.436 L133.926 285.641 L146.799 287.66 L159.673 289.007 L172.547 289.831 L185.42 291.943 L198.294 288.197 L211.168 289.376 L224.041 292.991 L236.915 288.374 L249.789 288.938 L262.662 292.505 L275.536 292.024 L288.409 294.402 L301.283 296.031 L314.157 298.517 L327.03 299.44 L339.904 300.724 L352.778 290.724 L365.651 283.27 L378.525 281.252 L391.399 283.036 L404.272 287.158 L417.146 292.873 L430.02 292.418 L442.893 295.869 L455.767 297.035 L468.64 298.675 L481.514 297.188 L494.388 299.002 L507.261 295.527 L520.135 292.684 L533.009 298.595 L545.882 299.347 L558.756 300.294 L571.63 302.603 L584.503 297.816 L597.377 295.706 L610.25 295.926 L623.124 297.095 L635.998 293.958 L648.871 298.876 L661.745 295.537 L674.619 294.181 L687.492 294.329 L700.366 296.12 L713.24 292.428 L726.113 291.817 L738.987 289.43 L751.861 292.425 L764.734 295.433 L777.608 297.821 L790.481 293.222 L803.355 295.387 L816.229 294.924 L829.102 299.042 L841.976 300.229 L854.85 298.969 L867.723 299.925 L880.597 298.942 L893.471 297.308 L906.344 297.841 L919.218 296.754 L932.091 295.115 L944.965 296.024 L957.839 297.505 L970.712 292.121 L983.586 291.4 L996.46 288.478 L1009.33 288.781 L1009.33 467.6 L996.46 467.6 L983.586 467.6 L970.712 467.6 L957.839 467.6 L944.965 467.6 L932.091 467.6 L919.218 467.6 L906.344 467.6 L893.471 467.6 L880.597 467.6 L867.723 467.6 L854.85 467.6 L841.976 467.6 L829.102 467.6 L816.229 467.6 L803.355 467.6 L790.481 467.6 L777.608 467.6 L764.734 467.6 L751.861 467.6 L738.987 467.6 L726.113 467.6 L713.24 467.6 L700.366 467.6 L687.492 467.6 L674.619 467.6 L661.745 467.6 L648.871 467.6 L635.998 467.6 L623.124 467.6 L610.25 467.6 L597.377 467.6 L584.503 467.6 L571.63 467.6 L558.756 467.6 L545.882 467.6 L533.009 467.6 L520.135 467.6 L507.261 467.6 L494.388 467.6 L481.514 467.6 L468.64 467.6 L455.767 467.6 L442.893 467.6 L430.02 467.6 L417.146 467.6 L404.272 467.6 L391.399 467.6 L378.525 467.6 L365.651 467.6 L352.778 467.6 L339.904 467.6 L327.03 467.6 L314.157 467.6 L301.283 467.6 L288.409 467.6 L275.536 467.6 L262.662 467.6 L249.789 467.6 L236.915 467.6 L224.041 467.6 L211.168 467.6 L198.294 467.6 L185.42 467.6 L172.547 467.6 L159.673 467.6 L146.799 467.6 L133.926 467.6 L121.052 467.6 L108.179 467.6 L95.3049 467.6 L82.4313 467.6 Z" fill="#888888" fill-opacity="1.000000"/>
</svg>