<?xml version="1.0" encoding="UTF-8" ?>
<!-- Generated by clip v0.8.0 (clip-lang.org) -->
<svg xmlns="http://www.w3.org/2000/svg" width="2048" height="512">
  <rect width="2048" height="512" fill="#ffffff" fill-opacity="1"/>
  <path d="M137.359 108 L1910.641 108" fill="none" stroke="#000000" stroke-width="3.333"/>
  <path d="M137.359 121.333 L137.359 108" fill="none" stroke="#000000" stroke-width="3.333"/>
  <path d="M432.906 121.333 L432.906 108" fill="none" stroke="#000000" stroke-width="3.333"/>
  <path d="M728.453 121.333 L728.453 108" fill="none" stroke="#000000" stroke-width="3.333"/>
  <path d="M1024 121.333 L1024 108" fill="none" stroke="#000000" stroke-width="3.333"/>
  <path d="M1319.547 121.333 L1319.547 108" fill="none" stroke="#000000" stroke-width="3.333"/>
  <path d="M1615.094 121.333 L1615.094 108" fill="none" stroke="#000000" stroke-width="3.333"/>
  <path d="M1910.641 121.333 L1910.641 108" fill="none" stroke="#000000" stroke-width="3.333"/>
  <path d="M272.859 70.667 L283.031 43.667 L286.797 43.667 L297.641 70.667 L293.641 70.667 L290.562 62.667 L279.484 62.667 L276.578 70.667 L272.859 70.667 Z M280.500 59.667 L289.469 59.667 L286.703 52.370 Q285.438 49.026 284.828 46.667 Q284.328 49.370 283.406 51.901 L280.500 59.667 Z"/>
  <path d="M571.156 70.667 L571.156 43.667 L581.094 43.667 Q584.125 43.667 585.961 44.510 Q587.797 45.354 588.836 47.104 Q589.875 48.854 589.875 50.776 Q589.875 52.557 588.953 54.128 Q588.031 55.698 586.172 56.667 Q588.578 57.370 589.867 59.057 Q591.156 60.745 591.156 63.042 Q591.156 64.885 590.367 66.471 Q589.578 68.057 588.422 68.924 Q587.266 69.792 585.523 70.229 Q583.781 70.667 581.250 70.667 L571.156 70.667 Z M574.672 55.667 L580.406 55.667 Q582.734 55.667 583.734 55.323 Q585.078 54.870 585.750 53.831 Q586.422 52.792 586.422 51.229 Q586.422 49.760 585.789 48.628 Q585.156 47.495 583.984 47.081 Q582.812 46.667 579.953 46.667 L574.672 46.667 L574.672 55.667 Z M574.672 67.667 L581.266 67.667 Q582.969 67.667 583.641 67.542 Q584.859 67.323 585.672 66.823 Q586.484 66.323 587.008 65.370 Q587.531 64.417 587.531 63.167 Q587.531 61.698 586.773 60.620 Q586.016 59.542 584.672 59.104 Q583.328 58.667 580.797 58.667 L574.672 58.667 L574.672 67.667 Z"/>
  <path d="M884.734 61.057 L888.234 61.917 Q887.125 66.182 884.266 68.424 Q881.406 70.667 877.266 70.667 Q872.984 70.667 870.305 68.948 Q867.625 67.229 866.227 63.971 Q864.828 60.714 864.828 56.964 Q864.828 52.885 866.406 49.854 Q867.984 46.823 870.906 45.245 Q873.828 43.667 877.328 43.667 Q881.312 43.667 884.023 45.667 Q886.734 47.667 887.797 51.292 L884.344 52.089 Q883.422 49.260 881.672 47.964 Q879.922 46.667 877.266 46.667 Q874.203 46.667 872.148 48.104 Q870.094 49.542 869.266 51.964 Q868.438 54.385 868.438 56.948 Q868.438 60.276 869.422 62.745 Q870.406 65.214 872.484 66.440 Q874.562 67.667 876.984 67.667 Q879.922 67.667 881.969 66.003 Q884.016 64.339 884.734 61.057 Z"/>
  <path d="M1161.391 70.667 L1161.391 43.667 L1170.516 43.667 Q1173.594 43.667 1175.219 44.057 Q1177.500 44.589 1179.109 45.995 Q1181.203 47.792 1182.242 50.604 Q1183.281 53.417 1183.281 57.026 Q1183.281 60.089 1182.578 62.471 Q1181.875 64.854 1180.773 66.409 Q1179.672 67.964 1178.359 68.854 Q1177.047 69.745 1175.195 70.206 Q1173.344 70.667 1170.938 70.667 L1161.391 70.667 Z M1164.891 67.667 L1170.547 67.667 Q1173.172 67.667 1174.656 67.159 Q1176.141 66.651 1177.031 65.729 Q1178.281 64.448 1178.977 62.260 Q1179.672 60.073 1179.672 56.964 Q1179.672 52.651 1178.305 50.331 Q1176.938 48.010 1174.984 47.229 Q1173.578 46.667 1170.453 46.667 L1164.891 46.667 L1164.891 67.667 Z"/>
  <path d="M1458.016 70.667 L1458.016 43.667 L1477.172 43.667 L1477.172 46.667 L1461.531 46.667 L1461.531 55.667 L1476.172 55.667 L1476.172 58.667 L1461.531 58.667 L1461.531 67.667 L1477.781 67.667 L1477.781 70.667 L1458.016 70.667 Z"/>
  <path d="M1754.695 70.667 L1754.695 43.667 L1772.570 43.667 L1772.570 46.667 L1758.211 46.667 L1758.211 55.667 L1770.633 55.667 L1770.633 58.667 L1758.211 58.667 L1758.211 70.667 L1754.695 70.667 Z"/>
  <path d="M1910.641 404 L1910.641 108" fill="none" stroke="#000000" stroke-width="3.333"/>
  <path d="M1897.307 367 L1910.641 367" fill="none" stroke="#000000" stroke-width="3.333"/>
  <path d="M1897.307 330 L1910.641 330" fill="none" stroke="#000000" stroke-width="3.333"/>
  <path d="M1897.307 293 L1910.641 293" fill="none" stroke="#000000" stroke-width="3.333"/>
  <path d="M1897.307 256 L1910.641 256" fill="none" stroke="#000000" stroke-width="3.333"/>
  <path d="M1897.307 219 L1910.641 219" fill="none" stroke="#000000" stroke-width="3.333"/>
  <path d="M1897.307 182 L1910.641 182" fill="none" stroke="#000000" stroke-width="3.333"/>
  <path d="M1897.307 145 L1910.641 145" fill="none" stroke="#000000" stroke-width="3.333"/>
  <path d="M1953.755 380 L1950.505 380 L1950.505 358.969 Q1949.333 360.109 1947.427 361.242 Q1945.521 362.375 1944.005 362.938 L1944.005 359.750 Q1946.740 358.453 1948.779 356.602 Q1950.818 354.750 1951.661 353 L1953.755 353 L1953.755 380 Z"/>
  <path d="M1961.896 366.516 Q1961.896 361.812 1962.865 358.961 Q1963.833 356.109 1965.740 354.555 Q1967.646 353 1970.536 353 Q1972.677 353 1974.279 353.859 Q1975.880 354.719 1976.935 356.328 Q1977.990 357.938 1978.583 360.258 Q1979.177 362.578 1979.177 366.516 Q1979.177 371.156 1978.216 374.016 Q1977.255 376.875 1975.349 378.438 Q1973.443 380 1970.536 380 Q1966.708 380 1964.521 377.266 Q1961.896 373.953 1961.896 366.516 Z M1965.240 366.500 Q1965.240 372.812 1966.771 374.906 Q1968.302 377 1970.536 377 Q1972.771 377 1974.302 374.898 Q1975.833 372.797 1975.833 366.500 Q1975.833 360.172 1974.302 358.086 Q1972.771 356 1970.505 356 Q1968.255 356 1966.927 357.844 Q1965.240 360.188 1965.240 366.500 Z"/>
  <path d="M1984.115 380 L1984.115 377 L1987.818 377 L1987.818 380 L1984.115 380 Z"/>
  <path d="M1992.474 366.516 Q1992.474 361.812 1993.443 358.961 Q1994.411 356.109 1996.318 354.555 Q1998.224 353 2001.115 353 Q2003.255 353 2004.857 353.859 Q2006.458 354.719 2007.513 356.328 Q2008.568 357.938 2009.161 360.258 Q2009.755 362.578 2009.755 366.516 Q2009.755 371.156 2008.794 374.016 Q2007.833 376.875 2005.927 378.438 Q2004.021 380 2001.115 380 Q1997.286 380 1995.099 377.266 Q1992.474 373.953 1992.474 366.516 Z M1995.818 366.500 Q1995.818 372.812 1997.349 374.906 Q1998.880 377 2001.115 377 Q2003.349 377 2004.880 374.898 Q2006.411 372.797 2006.411 366.500 Q2006.411 360.172 2004.880 358.086 Q2003.349 356 2001.083 356 Q1998.833 356 1997.505 357.844 Q1995.818 360.188 1995.818 366.500 Z"/>
  <path d="M1958.599 340 L1958.599 343 L1941.099 343 Q1941.052 341.875 1941.474 340.828 Q1942.146 339.109 1943.615 337.445 Q1945.083 335.781 1947.865 333.406 Q1952.193 329.719 1953.708 327.617 Q1955.224 325.516 1955.224 323.656 Q1955.224 321.688 1953.841 320.344 Q1952.458 319 1950.240 319 Q1947.896 319 1946.482 320.062 Q1945.068 321.125 1945.052 323 L1941.708 323 Q1942.052 319.578 1944.294 317.789 Q1946.536 316 1950.302 316 Q1954.130 316 1956.349 318.172 Q1958.568 320.344 1958.568 323.562 Q1958.568 325.203 1957.919 326.781 Q1957.271 328.359 1955.755 330.109 Q1954.240 331.859 1950.740 334.844 Q1947.818 337.328 1946.990 338.219 Q1946.161 339.109 1945.615 340 L1958.599 340 Z"/>
  <path d="M1961.896 329.516 Q1961.896 324.812 1962.865 321.961 Q1963.833 319.109 1965.740 317.555 Q1967.646 316 1970.536 316 Q1972.677 316 1974.279 316.859 Q1975.880 317.719 1976.935 319.328 Q1977.990 320.938 1978.583 323.258 Q1979.177 325.578 1979.177 329.516 Q1979.177 334.156 1978.216 337.016 Q1977.255 339.875 1975.349 341.438 Q1973.443 343 1970.536 343 Q1966.708 343 1964.521 340.266 Q1961.896 336.953 1961.896 329.516 Z M1965.240 329.500 Q1965.240 335.812 1966.771 337.906 Q1968.302 340 1970.536 340 Q1972.771 340 1974.302 337.898 Q1975.833 335.797 1975.833 329.500 Q1975.833 323.172 1974.302 321.086 Q1972.771 319 1970.505 319 Q1968.255 319 1966.927 320.844 Q1965.240 323.188 1965.240 329.500 Z"/>
  <path d="M1984.115 343 L1984.115 340 L1987.818 340 L1987.818 343 L1984.115 343 Z"/>
  <path d="M1992.474 329.516 Q1992.474 324.812 1993.443 321.961 Q1994.411 319.109 1996.318 317.555 Q1998.224 316 2001.115 316 Q2003.255 316 2004.857 316.859 Q2006.458 317.719 2007.513 319.328 Q2008.568 320.938 2009.161 323.258 Q2009.755 325.578 2009.755 329.516 Q2009.755 334.156 2008.794 337.016 Q2007.833 339.875 2005.927 341.438 Q2004.021 343 2001.115 343 Q1997.286 343 1995.099 340.266 Q1992.474 336.953 1992.474 329.516 Z M1995.818 329.500 Q1995.818 335.812 1997.349 337.906 Q1998.880 340 2001.115 340 Q2003.349 340 2004.880 337.898 Q2006.411 335.797 2006.411 329.500 Q2006.411 323.172 2004.880 321.086 Q2003.349 319 2001.083 319 Q1998.833 319 1997.505 320.844 Q1995.818 323.188 1995.818 329.500 Z"/>
  <path d="M1941.521 299 L1944.786 299 Q1945.349 301.125 1946.693 302.062 Q1948.036 303 1949.974 303 Q1952.271 303 1953.849 301.461 Q1955.427 299.922 1955.427 297.641 Q1955.427 295.469 1953.966 294.047 Q1952.505 292.625 1950.240 292.625 Q1949.318 292.625 1947.943 293 L1948.302 290 Q1948.630 290.031 1948.833 290.031 Q1950.911 290.031 1952.568 289.016 Q1954.224 288 1954.224 285.875 Q1954.224 284.203 1953.013 283.102 Q1951.802 282 1949.880 282 Q1947.990 282 1946.724 283 Q1945.458 284 1945.099 286 L1941.849 286 Q1942.443 282.672 1944.560 280.836 Q1946.677 279 1949.818 279 Q1951.990 279 1953.810 279.922 Q1955.630 280.844 1956.599 282.430 Q1957.568 284.016 1957.568 285.797 Q1957.568 287.484 1956.646 288.875 Q1955.724 290.266 1953.927 291.094 Q1956.271 291.641 1957.568 293.359 Q1958.865 295.078 1958.865 297.656 Q1958.865 301.141 1956.333 303.570 Q1953.802 306 1949.943 306 Q1946.458 306 1944.154 304.055 Q1941.849 302.109 1941.521 299 Z"/>
  <path d="M1961.896 292.516 Q1961.896 287.812 1962.865 284.961 Q1963.833 282.109 1965.740 280.555 Q1967.646 279 1970.536 279 Q1972.677 279 1974.279 279.859 Q1975.880 280.719 1976.935 282.328 Q1977.990 283.938 1978.583 286.258 Q1979.177 288.578 1979.177 292.516 Q1979.177 297.156 1978.216 300.016 Q1977.255 302.875 1975.349 304.438 Q1973.443 306 1970.536 306 Q1966.708 306 1964.521 303.266 Q1961.896 299.953 1961.896 292.516 Z M1965.240 292.500 Q1965.240 298.812 1966.771 300.906 Q1968.302 303 1970.536 303 Q1972.771 303 1974.302 300.898 Q1975.833 298.797 1975.833 292.500 Q1975.833 286.172 1974.302 284.086 Q1972.771 282 1970.505 282 Q1968.255 282 1966.927 283.844 Q1965.240 286.188 1965.240 292.500 Z"/>
  <path d="M1984.115 306 L1984.115 303 L1987.818 303 L1987.818 306 L1984.115 306 Z"/>
  <path d="M1992.474 292.516 Q1992.474 287.812 1993.443 284.961 Q1994.411 282.109 1996.318 280.555 Q1998.224 279 2001.115 279 Q2003.255 279 2004.857 279.859 Q2006.458 280.719 2007.513 282.328 Q2008.568 283.938 2009.161 286.258 Q2009.755 288.578 2009.755 292.516 Q2009.755 297.156 2008.794 300.016 Q2007.833 302.875 2005.927 304.438 Q2004.021 306 2001.115 306 Q1997.286 306 1995.099 303.266 Q1992.474 299.953 1992.474 292.516 Z M1995.818 292.500 Q1995.818 298.812 1997.349 300.906 Q1998.880 303 2001.115 303 Q2003.349 303 2004.880 300.898 Q2006.411 298.797 2006.411 292.500 Q2006.411 286.172 2004.880 284.086 Q2003.349 282 2001.083 282 Q1998.833 282 1997.505 283.844 Q1995.818 286.188 1995.818 292.500 Z"/>
  <path d="M1951.927 269 L1951.927 263 L1940.443 263 L1940.443 260 L1952.536 242 L1955.193 242 L1955.193 260 L1958.771 260 L1958.771 263 L1955.193 263 L1955.193 269 L1951.927 269 Z M1951.927 260 L1951.927 247.672 L1943.646 260 L1951.927 260 Z"/>
  <path d="M1961.896 255.516 Q1961.896 250.812 1962.865 247.961 Q1963.833 245.109 1965.740 243.555 Q1967.646 242 1970.536 242 Q1972.677 242 1974.279 242.859 Q1975.880 243.719 1976.935 245.328 Q1977.990 246.938 1978.583 249.258 Q1979.177 251.578 1979.177 255.516 Q1979.177 260.156 1978.216 263.016 Q1977.255 265.875 1975.349 267.438 Q1973.443 269 1970.536 269 Q1966.708 269 1964.521 266.266 Q1961.896 262.953 1961.896 255.516 Z M1965.240 255.500 Q1965.240 261.812 1966.771 263.906 Q1968.302 266 1970.536 266 Q1972.771 266 1974.302 263.898 Q1975.833 261.797 1975.833 255.500 Q1975.833 249.172 1974.302 247.086 Q1972.771 245 1970.505 245 Q1968.255 245 1966.927 246.844 Q1965.240 249.188 1965.240 255.500 Z"/>
  <path d="M1984.115 269 L1984.115 266 L1987.818 266 L1987.818 269 L1984.115 269 Z"/>
  <path d="M1992.474 255.516 Q1992.474 250.812 1993.443 247.961 Q1994.411 245.109 1996.318 243.555 Q1998.224 242 2001.115 242 Q2003.255 242 2004.857 242.859 Q2006.458 243.719 2007.513 245.328 Q2008.568 246.938 2009.161 249.258 Q2009.755 251.578 2009.755 255.516 Q2009.755 260.156 2008.794 263.016 Q2007.833 265.875 2005.927 267.438 Q2004.021 269 2001.115 269 Q1997.286 269 1995.099 266.266 Q1992.474 262.953 1992.474 255.516 Z M1995.818 255.500 Q1995.818 261.812 1997.349 263.906 Q1998.880 266 2001.115 266 Q2003.349 266 2004.880 263.898 Q2006.411 261.797 2006.411 255.500 Q2006.411 249.172 2004.880 247.086 Q2003.349 245 2001.083 245 Q1998.833 245 1997.505 246.844 Q1995.818 249.188 1995.818 255.500 Z"/>
  <path d="M1941.505 225 L1944.927 225 Q1945.302 227 1946.685 228 Q1948.068 229 1950.021 229 Q1952.365 229 1953.990 227.297 Q1955.615 225.594 1955.615 222.781 Q1955.615 220.094 1954.052 218.547 Q1952.490 217 1949.958 217 Q1948.396 217 1947.130 217.555 Q1945.865 218.109 1945.146 219 L1942.083 219 L1944.646 205 L1957.818 205 L1957.818 208 L1947.255 208 L1945.833 215.734 Q1948.224 214 1950.833 214 Q1954.302 214 1956.685 216.398 Q1959.068 218.797 1959.068 222.578 Q1959.068 226.172 1956.974 228.781 Q1954.427 232 1950.021 232 Q1946.396 232 1944.115 230.086 Q1941.833 228.172 1941.505 225 Z"/>
  <path d="M1961.896 218.516 Q1961.896 213.812 1962.865 210.961 Q1963.833 208.109 1965.740 206.555 Q1967.646 205 1970.536 205 Q1972.677 205 1974.279 205.859 Q1975.880 206.719 1976.935 208.328 Q1977.990 209.938 1978.583 212.258 Q1979.177 214.578 1979.177 218.516 Q1979.177 223.156 1978.216 226.016 Q1977.255 228.875 1975.349 230.438 Q1973.443 232 1970.536 232 Q1966.708 232 1964.521 229.266 Q1961.896 225.953 1961.896 218.516 Z M1965.240 218.500 Q1965.240 224.812 1966.771 226.906 Q1968.302 229 1970.536 229 Q1972.771 229 1974.302 226.898 Q1975.833 224.797 1975.833 218.500 Q1975.833 212.172 1974.302 210.086 Q1972.771 208 1970.505 208 Q1968.255 208 1966.927 209.844 Q1965.240 212.188 1965.240 218.500 Z"/>
  <path d="M1984.115 232 L1984.115 229 L1987.818 229 L1987.818 232 L1984.115 232 Z"/>
  <path d="M1992.474 218.516 Q1992.474 213.812 1993.443 210.961 Q1994.411 208.109 1996.318 206.555 Q1998.224 205 2001.115 205 Q2003.255 205 2004.857 205.859 Q2006.458 206.719 2007.513 208.328 Q2008.568 209.938 2009.161 212.258 Q2009.755 214.578 2009.755 218.516 Q2009.755 223.156 2008.794 226.016 Q2007.833 228.875 2005.927 230.438 Q2004.021 232 2001.115 232 Q1997.286 232 1995.099 229.266 Q1992.474 225.953 1992.474 218.516 Z M1995.818 218.500 Q1995.818 224.812 1997.349 226.906 Q1998.880 229 2001.115 229 Q2003.349 229 2004.880 226.898 Q2006.411 224.797 2006.411 218.500 Q2006.411 212.172 2004.880 210.086 Q2003.349 208 2001.083 208 Q1998.833 208 1997.505 209.844 Q1995.818 212.188 1995.818 218.500 Z"/>
  <path d="M1958.380 175 L1955.146 175 Q1954.708 173.172 1953.911 172.328 Q1952.599 171 1950.661 171 Q1949.115 171 1947.943 171.766 Q1946.411 172.766 1945.521 174.680 Q1944.630 176.594 1944.599 180.531 Q1945.771 178.734 1947.466 177.867 Q1949.161 177 1951.036 177 Q1954.286 177 1956.568 179.445 Q1958.849 181.891 1958.849 185.766 Q1958.849 188.312 1957.771 190.492 Q1956.693 192.672 1954.818 193.836 Q1952.943 195 1950.552 195 Q1946.490 195 1943.927 192.016 Q1941.365 189.031 1941.365 182.172 Q1941.365 174.516 1944.208 171.031 Q1946.677 168 1950.865 168 Q1953.990 168 1955.990 169.859 Q1957.990 171.719 1958.380 175 Z M1945.099 185.688 Q1945.099 187.359 1945.810 188.883 Q1946.521 190.406 1947.810 191.203 Q1949.099 192 1950.505 192 Q1952.568 192 1954.052 190.352 Q1955.536 188.703 1955.536 185.859 Q1955.536 183.141 1954.068 181.570 Q1952.599 180 1950.380 180 Q1948.177 180 1946.638 181.570 Q1945.099 183.141 1945.099 185.688 Z"/>
  <path d="M1961.896 181.516 Q1961.896 176.812 1962.865 173.961 Q1963.833 171.109 1965.740 169.555 Q1967.646 168 1970.536 168 Q1972.677 168 1974.279 168.859 Q1975.880 169.719 1976.935 171.328 Q1977.990 172.938 1978.583 175.258 Q1979.177 177.578 1979.177 181.516 Q1979.177 186.156 1978.216 189.016 Q1977.255 191.875 1975.349 193.438 Q1973.443 195 1970.536 195 Q1966.708 195 1964.521 192.266 Q1961.896 188.953 1961.896 181.516 Z M1965.240 181.500 Q1965.240 187.812 1966.771 189.906 Q1968.302 192 1970.536 192 Q1972.771 192 1974.302 189.898 Q1975.833 187.797 1975.833 181.500 Q1975.833 175.172 1974.302 173.086 Q1972.771 171 1970.505 171 Q1968.255 171 1966.927 172.844 Q1965.240 175.188 1965.240 181.500 Z"/>
  <path d="M1984.115 195 L1984.115 192 L1987.818 192 L1987.818 195 L1984.115 195 Z"/>
  <path d="M1992.474 181.516 Q1992.474 176.812 1993.443 173.961 Q1994.411 171.109 1996.318 169.555 Q1998.224 168 2001.115 168 Q2003.255 168 2004.857 168.859 Q2006.458 169.719 2007.513 171.328 Q2008.568 172.938 2009.161 175.258 Q2009.755 177.578 2009.755 181.516 Q2009.755 186.156 2008.794 189.016 Q2007.833 191.875 2005.927 193.438 Q2004.021 195 2001.115 195 Q1997.286 195 1995.099 192.266 Q1992.474 188.953 1992.474 181.516 Z M1995.818 181.500 Q1995.818 187.812 1997.349 189.906 Q1998.880 192 2001.115 192 Q2003.349 192 2004.880 189.898 Q2006.411 187.797 2006.411 181.500 Q2006.411 175.172 2004.880 173.086 Q2003.349 171 2001.083 171 Q1998.833 171 1997.505 172.844 Q1995.818 175.188 1995.818 181.500 Z"/>
  <path d="M1941.724 134 L1941.724 131 L1958.865 131 L1958.865 133.422 Q1956.349 136.188 1953.865 140.844 Q1951.380 145.500 1950.021 150.406 Q1949.036 153.875 1948.771 158 L1945.427 158 Q1945.474 154.734 1946.654 150.125 Q1947.833 145.516 1950.029 141.227 Q1952.224 136.938 1954.693 134 L1941.724 134 Z"/>
  <path d="M1961.896 144.516 Q1961.896 139.812 1962.865 136.961 Q1963.833 134.109 1965.740 132.555 Q1967.646 131 1970.536 131 Q1972.677 131 1974.279 131.859 Q1975.880 132.719 1976.935 134.328 Q1977.990 135.938 1978.583 138.258 Q1979.177 140.578 1979.177 144.516 Q1979.177 149.156 1978.216 152.016 Q1977.255 154.875 1975.349 156.438 Q1973.443 158 1970.536 158 Q1966.708 158 1964.521 155.266 Q1961.896 151.953 1961.896 144.516 Z M1965.240 144.500 Q1965.240 150.812 1966.771 152.906 Q1968.302 155 1970.536 155 Q1972.771 155 1974.302 152.898 Q1975.833 150.797 1975.833 144.500 Q1975.833 138.172 1974.302 136.086 Q1972.771 134 1970.505 134 Q1968.255 134 1966.927 135.844 Q1965.240 138.188 1965.240 144.500 Z"/>
  <path d="M1984.115 158 L1984.115 155 L1987.818 155 L1987.818 158 L1984.115 158 Z"/>
  <path d="M1992.474 144.516 Q1992.474 139.812 1993.443 136.961 Q1994.411 134.109 1996.318 132.555 Q1998.224 131 2001.115 131 Q2003.255 131 2004.857 131.859 Q2006.458 132.719 2007.513 134.328 Q2008.568 135.938 2009.161 138.258 Q2009.755 140.578 2009.755 144.516 Q2009.755 149.156 2008.794 152.016 Q2007.833 154.875 2005.927 156.438 Q2004.021 158 2001.115 158 Q1997.286 158 1995.099 155.266 Q1992.474 151.953 1992.474 144.516 Z M1995.818 144.500 Q1995.818 150.812 1997.349 152.906 Q1998.880 155 2001.115 155 Q2003.349 155 2004.880 152.898 Q2006.411 150.797 2006.411 144.500 Q2006.411 138.172 2004.880 136.086 Q2003.349 134 2001.083 134 Q1998.833 134 1997.505 135.844 Q1995.818 138.188 1995.818 144.500 Z"/>
  <path d="M137.359 404 L1910.641 404" fill="none" stroke="#000000" stroke-width="3.333"/>
  <path d="M137.359 404 L137.359 390.667" fill="none" stroke="#000000" stroke-width="3.333"/>
  <path d="M432.906 404 L432.906 390.667" fill="none" stroke="#000000" stroke-width="3.333"/>
  <path d="M728.453 404 L728.453 390.667" fill="none" stroke="#000000" stroke-width="3.333"/>
  <path d="M1024 404 L1024 390.667" fill="none" stroke="#000000" stroke-width="3.333"/>
  <path d="M1319.547 404 L1319.547 390.667" fill="none" stroke="#000000" stroke-width="3.333"/>
  <path d="M1615.094 404 L1615.094 390.667" fill="none" stroke="#000000" stroke-width="3.333"/>
  <path d="M1910.641 404 L1910.641 390.667" fill="none" stroke="#000000" stroke-width="3.333"/>
  <path d="M272.859 467.333 L283.031 440.333 L286.797 440.333 L297.641 467.333 L293.641 467.333 L290.562 459.333 L279.484 459.333 L276.578 467.333 L272.859 467.333 Z M280.500 456.333 L289.469 456.333 L286.703 449.036 Q285.438 445.693 284.828 443.333 Q284.328 446.036 283.406 448.568 L280.500 456.333 Z"/>
  <path d="M571.156 467.333 L571.156 440.333 L581.094 440.333 Q584.125 440.333 585.961 441.177 Q587.797 442.021 588.836 443.771 Q589.875 445.521 589.875 447.443 Q589.875 449.224 588.953 450.794 Q588.031 452.365 586.172 453.333 Q588.578 454.036 589.867 455.724 Q591.156 457.411 591.156 459.708 Q591.156 461.552 590.367 463.138 Q589.578 464.724 588.422 465.591 Q587.266 466.458 585.523 466.896 Q583.781 467.333 581.250 467.333 L571.156 467.333 Z M574.672 452.333 L580.406 452.333 Q582.734 452.333 583.734 451.990 Q585.078 451.536 585.750 450.497 Q586.422 449.458 586.422 447.896 Q586.422 446.427 585.789 445.294 Q585.156 444.161 583.984 443.747 Q582.812 443.333 579.953 443.333 L574.672 443.333 L574.672 452.333 Z M574.672 464.333 L581.266 464.333 Q582.969 464.333 583.641 464.208 Q584.859 463.990 585.672 463.490 Q586.484 462.990 587.008 462.036 Q587.531 461.083 587.531 459.833 Q587.531 458.365 586.773 457.286 Q586.016 456.208 584.672 455.771 Q583.328 455.333 580.797 455.333 L574.672 455.333 L574.672 464.333 Z"/>
  <path d="M884.734 457.724 L888.234 458.583 Q887.125 462.849 884.266 465.091 Q881.406 467.333 877.266 467.333 Q872.984 467.333 870.305 465.615 Q867.625 463.896 866.227 460.638 Q864.828 457.380 864.828 453.630 Q864.828 449.552 866.406 446.521 Q867.984 443.490 870.906 441.911 Q873.828 440.333 877.328 440.333 Q881.312 440.333 884.023 442.333 Q886.734 444.333 887.797 447.958 L884.344 448.755 Q883.422 445.927 881.672 444.630 Q879.922 443.333 877.266 443.333 Q874.203 443.333 872.148 444.771 Q870.094 446.208 869.266 448.630 Q868.438 451.052 868.438 453.615 Q868.438 456.943 869.422 459.411 Q870.406 461.880 872.484 463.107 Q874.562 464.333 876.984 464.333 Q879.922 464.333 881.969 462.669 Q884.016 461.005 884.734 457.724 Z"/>
  <path d="M1161.391 467.333 L1161.391 440.333 L1170.516 440.333 Q1173.594 440.333 1175.219 440.724 Q1177.500 441.255 1179.109 442.661 Q1181.203 444.458 1182.242 447.271 Q1183.281 450.083 1183.281 453.693 Q1183.281 456.755 1182.578 459.138 Q1181.875 461.521 1180.773 463.076 Q1179.672 464.630 1178.359 465.521 Q1177.047 466.411 1175.195 466.872 Q1173.344 467.333 1170.938 467.333 L1161.391 467.333 Z M1164.891 464.333 L1170.547 464.333 Q1173.172 464.333 1174.656 463.826 Q1176.141 463.318 1177.031 462.396 Q1178.281 461.115 1178.977 458.927 Q1179.672 456.740 1179.672 453.630 Q1179.672 449.318 1178.305 446.997 Q1176.938 444.677 1174.984 443.896 Q1173.578 443.333 1170.453 443.333 L1164.891 443.333 L1164.891 464.333 Z"/>
  <path d="M1458.016 467.333 L1458.016 440.333 L1477.172 440.333 L1477.172 443.333 L1461.531 443.333 L1461.531 452.333 L1476.172 452.333 L1476.172 455.333 L1461.531 455.333 L1461.531 464.333 L1477.781 464.333 L1477.781 467.333 L1458.016 467.333 Z"/>
  <path d="M1754.695 467.333 L1754.695 440.333 L1772.570 440.333 L1772.570 443.333 L1758.211 443.333 L1758.211 452.333 L1770.633 452.333 L1770.633 455.333 L1758.211 455.333 L1758.211 467.333 L1754.695 467.333 Z"/>
  <path d="M137.359 404 L137.359 108" fill="none" stroke="#000000" stroke-width="3.333"/>
  <path d="M137.359 367 L150.693 367" fill="none" stroke="#000000" stroke-width="3.333"/>
  <path d="M137.359 330 L150.693 330" fill="none" stroke="#000000" stroke-width="3.333"/>
  <path d="M137.359 293 L150.693 293" fill="none" stroke="#000000" stroke-width="3.333"/>
  <path d="M137.359 256 L150.693 256" fill="none" stroke="#000000" stroke-width="3.333"/>
  <path d="M137.359 219 L150.693 219" fill="none" stroke="#000000" stroke-width="3.333"/>
  <path d="M137.359 182 L150.693 182" fill="none" stroke="#000000" stroke-width="3.333"/>
  <path d="M137.359 145 L150.693 145" fill="none" stroke="#000000" stroke-width="3.333"/>
  <path d="M50.448 380 L47.198 380 L47.198 358.969 Q46.026 360.109 44.120 361.242 Q42.214 362.375 40.698 362.938 L40.698 359.750 Q43.432 358.453 45.471 356.602 Q47.510 354.750 48.354 353 L50.448 353 L50.448 380 Z"/>
  <path d="M58.589 366.516 Q58.589 361.812 59.557 358.961 Q60.526 356.109 62.432 354.555 Q64.339 353 67.229 353 Q69.370 353 70.971 353.859 Q72.573 354.719 73.628 356.328 Q74.682 357.938 75.276 360.258 Q75.870 362.578 75.870 366.516 Q75.870 371.156 74.909 374.016 Q73.948 376.875 72.042 378.438 Q70.135 380 67.229 380 Q63.401 380 61.214 377.266 Q58.589 373.953 58.589 366.516 Z M61.932 366.500 Q61.932 372.812 63.464 374.906 Q64.995 377 67.229 377 Q69.464 377 70.995 374.898 Q72.526 372.797 72.526 366.500 Q72.526 360.172 70.995 358.086 Q69.464 356 67.198 356 Q64.948 356 63.620 357.844 Q61.932 360.188 61.932 366.500 Z"/>
  <path d="M80.807 380 L80.807 377 L84.510 377 L84.510 380 L80.807 380 Z"/>
  <path d="M89.167 366.516 Q89.167 361.812 90.135 358.961 Q91.104 356.109 93.010 354.555 Q94.917 353 97.807 353 Q99.948 353 101.549 353.859 Q103.151 354.719 104.206 356.328 Q105.260 357.938 105.854 360.258 Q106.448 362.578 106.448 366.516 Q106.448 371.156 105.487 374.016 Q104.526 376.875 102.620 378.438 Q100.714 380 97.807 380 Q93.979 380 91.792 377.266 Q89.167 373.953 89.167 366.516 Z M92.510 366.500 Q92.510 372.812 94.042 374.906 Q95.573 377 97.807 377 Q100.042 377 101.573 374.898 Q103.104 372.797 103.104 366.500 Q103.104 360.172 101.573 358.086 Q100.042 356 97.776 356 Q95.526 356 94.198 357.844 Q92.510 360.188 92.510 366.500 Z"/>
  <path d="M55.292 340 L55.292 343 L37.792 343 Q37.745 341.875 38.167 340.828 Q38.839 339.109 40.307 337.445 Q41.776 335.781 44.557 333.406 Q48.885 329.719 50.401 327.617 Q51.917 325.516 51.917 323.656 Q51.917 321.688 50.534 320.344 Q49.151 319 46.932 319 Q44.589 319 43.174 320.062 Q41.760 321.125 41.745 323 L38.401 323 Q38.745 319.578 40.987 317.789 Q43.229 316 46.995 316 Q50.823 316 53.042 318.172 Q55.260 320.344 55.260 323.562 Q55.260 325.203 54.612 326.781 Q53.964 328.359 52.448 330.109 Q50.932 331.859 47.432 334.844 Q44.510 337.328 43.682 338.219 Q42.854 339.109 42.307 340 L55.292 340 Z"/>
  <path d="M58.589 329.516 Q58.589 324.812 59.557 321.961 Q60.526 319.109 62.432 317.555 Q64.339 316 67.229 316 Q69.370 316 70.971 316.859 Q72.573 317.719 73.628 319.328 Q74.682 320.938 75.276 323.258 Q75.870 325.578 75.870 329.516 Q75.870 334.156 74.909 337.016 Q73.948 339.875 72.042 341.438 Q70.135 343 67.229 343 Q63.401 343 61.214 340.266 Q58.589 336.953 58.589 329.516 Z M61.932 329.500 Q61.932 335.812 63.464 337.906 Q64.995 340 67.229 340 Q69.464 340 70.995 337.898 Q72.526 335.797 72.526 329.500 Q72.526 323.172 70.995 321.086 Q69.464 319 67.198 319 Q64.948 319 63.620 320.844 Q61.932 323.188 61.932 329.500 Z"/>
  <path d="M80.807 343 L80.807 340 L84.510 340 L84.510 343 L80.807 343 Z"/>
  <path d="M89.167 329.516 Q89.167 324.812 90.135 321.961 Q91.104 319.109 93.010 317.555 Q94.917 316 97.807 316 Q99.948 316 101.549 316.859 Q103.151 317.719 104.206 319.328 Q105.260 320.938 105.854 323.258 Q106.448 325.578 106.448 329.516 Q106.448 334.156 105.487 337.016 Q104.526 339.875 102.620 341.438 Q100.714 343 97.807 343 Q93.979 343 91.792 340.266 Q89.167 336.953 89.167 329.516 Z M92.510 329.500 Q92.510 335.812 94.042 337.906 Q95.573 340 97.807 340 Q100.042 340 101.573 337.898 Q103.104 335.797 103.104 329.500 Q103.104 323.172 101.573 321.086 Q100.042 319 97.776 319 Q95.526 319 94.198 320.844 Q92.510 323.188 92.510 329.500 Z"/>
  <path d="M38.214 299 L41.479 299 Q42.042 301.125 43.385 302.062 Q44.729 303 46.667 303 Q48.964 303 50.542 301.461 Q52.120 299.922 52.120 297.641 Q52.120 295.469 50.659 294.047 Q49.198 292.625 46.932 292.625 Q46.010 292.625 44.635 293 L44.995 290 Q45.323 290.031 45.526 290.031 Q47.604 290.031 49.260 289.016 Q50.917 288 50.917 285.875 Q50.917 284.203 49.706 283.102 Q48.495 282 46.573 282 Q44.682 282 43.417 283 Q42.151 284 41.792 286 L38.542 286 Q39.135 282.672 41.253 280.836 Q43.370 279 46.510 279 Q48.682 279 50.503 279.922 Q52.323 280.844 53.292 282.430 Q54.260 284.016 54.260 285.797 Q54.260 287.484 53.339 288.875 Q52.417 290.266 50.620 291.094 Q52.964 291.641 54.260 293.359 Q55.557 295.078 55.557 297.656 Q55.557 301.141 53.026 303.570 Q50.495 306 46.635 306 Q43.151 306 40.846 304.055 Q38.542 302.109 38.214 299 Z"/>
  <path d="M58.589 292.516 Q58.589 287.812 59.557 284.961 Q60.526 282.109 62.432 280.555 Q64.339 279 67.229 279 Q69.370 279 70.971 279.859 Q72.573 280.719 73.628 282.328 Q74.682 283.938 75.276 286.258 Q75.870 288.578 75.870 292.516 Q75.870 297.156 74.909 300.016 Q73.948 302.875 72.042 304.438 Q70.135 306 67.229 306 Q63.401 306 61.214 303.266 Q58.589 299.953 58.589 292.516 Z M61.932 292.500 Q61.932 298.812 63.464 300.906 Q64.995 303 67.229 303 Q69.464 303 70.995 300.898 Q72.526 298.797 72.526 292.500 Q72.526 286.172 70.995 284.086 Q69.464 282 67.198 282 Q64.948 282 63.620 283.844 Q61.932 286.188 61.932 292.500 Z"/>
  <path d="M80.807 306 L80.807 303 L84.510 303 L84.510 306 L80.807 306 Z"/>
  <path d="M89.167 292.516 Q89.167 287.812 90.135 284.961 Q91.104 282.109 93.010 280.555 Q94.917 279 97.807 279 Q99.948 279 101.549 279.859 Q103.151 280.719 104.206 282.328 Q105.260 283.938 105.854 286.258 Q106.448 288.578 106.448 292.516 Q106.448 297.156 105.487 300.016 Q104.526 302.875 102.620 304.438 Q100.714 306 97.807 306 Q93.979 306 91.792 303.266 Q89.167 299.953 89.167 292.516 Z M92.510 292.500 Q92.510 298.812 94.042 300.906 Q95.573 303 97.807 303 Q100.042 303 101.573 300.898 Q103.104 298.797 103.104 292.500 Q103.104 286.172 101.573 284.086 Q100.042 282 97.776 282 Q95.526 282 94.198 283.844 Q92.510 286.188 92.510 292.500 Z"/>
  <path d="M48.620 269 L48.620 263 L37.135 263 L37.135 260 L49.229 242 L51.885 242 L51.885 260 L55.464 260 L55.464 263 L51.885 263 L51.885 269 L48.620 269 Z M48.620 260 L48.620 247.672 L40.339 260 L48.620 260 Z"/>
  <path d="M58.589 255.516 Q58.589 250.812 59.557 247.961 Q60.526 245.109 62.432 243.555 Q64.339 242 67.229 242 Q69.370 242 70.971 242.859 Q72.573 243.719 73.628 245.328 Q74.682 246.938 75.276 249.258 Q75.870 251.578 75.870 255.516 Q75.870 260.156 74.909 263.016 Q73.948 265.875 72.042 267.438 Q70.135 269 67.229 269 Q63.401 269 61.214 266.266 Q58.589 262.953 58.589 255.516 Z M61.932 255.500 Q61.932 261.812 63.464 263.906 Q64.995 266 67.229 266 Q69.464 266 70.995 263.898 Q72.526 261.797 72.526 255.500 Q72.526 249.172 70.995 247.086 Q69.464 245 67.198 245 Q64.948 245 63.620 246.844 Q61.932 249.188 61.932 255.500 Z"/>
  <path d="M80.807 269 L80.807 266 L84.510 266 L84.510 269 L80.807 269 Z"/>
  <path d="M89.167 255.516 Q89.167 250.812 90.135 247.961 Q91.104 245.109 93.010 243.555 Q94.917 242 97.807 242 Q99.948 242 101.549 242.859 Q103.151 243.719 104.206 245.328 Q105.260 246.938 105.854 249.258 Q106.448 251.578 106.448 255.516 Q106.448 260.156 105.487 263.016 Q104.526 265.875 102.620 267.438 Q100.714 269 97.807 269 Q93.979 269 91.792 266.266 Q89.167 262.953 89.167 255.516 Z M92.510 255.500 Q92.510 261.812 94.042 263.906 Q95.573 266 97.807 266 Q100.042 266 101.573 263.898 Q103.104 261.797 103.104 255.500 Q103.104 249.172 101.573 247.086 Q100.042 245 97.776 245 Q95.526 245 94.198 246.844 Q92.510 249.188 92.510 255.500 Z"/>
  <path d="M38.198 225 L41.620 225 Q41.995 227 43.378 228 Q44.760 229 46.714 229 Q49.057 229 50.682 227.297 Q52.307 225.594 52.307 222.781 Q52.307 220.094 50.745 218.547 Q49.182 217 46.651 217 Q45.089 217 43.823 217.555 Q42.557 218.109 41.839 219 L38.776 219 L41.339 205 L54.510 205 L54.510 208 L43.948 208 L42.526 215.734 Q44.917 214 47.526 214 Q50.995 214 53.378 216.398 Q55.760 218.797 55.760 222.578 Q55.760 226.172 53.667 228.781 Q51.120 232 46.714 232 Q43.089 232 40.807 230.086 Q38.526 228.172 38.198 225 Z"/>
  <path d="M58.589 218.516 Q58.589 213.812 59.557 210.961 Q60.526 208.109 62.432 206.555 Q64.339 205 67.229 205 Q69.370 205 70.971 205.859 Q72.573 206.719 73.628 208.328 Q74.682 209.938 75.276 212.258 Q75.870 214.578 75.870 218.516 Q75.870 223.156 74.909 226.016 Q73.948 228.875 72.042 230.438 Q70.135 232 67.229 232 Q63.401 232 61.214 229.266 Q58.589 225.953 58.589 218.516 Z M61.932 218.500 Q61.932 224.812 63.464 226.906 Q64.995 229 67.229 229 Q69.464 229 70.995 226.898 Q72.526 224.797 72.526 218.500 Q72.526 212.172 70.995 210.086 Q69.464 208 67.198 208 Q64.948 208 63.620 209.844 Q61.932 212.188 61.932 218.500 Z"/>
  <path d="M80.807 232 L80.807 229 L84.510 229 L84.510 232 L80.807 232 Z"/>
  <path d="M89.167 218.516 Q89.167 213.812 90.135 210.961 Q91.104 208.109 93.010 206.555 Q94.917 205 97.807 205 Q99.948 205 101.549 205.859 Q103.151 206.719 104.206 208.328 Q105.260 209.938 105.854 212.258 Q106.448 214.578 106.448 218.516 Q106.448 223.156 105.487 226.016 Q104.526 228.875 102.620 230.438 Q100.714 232 97.807 232 Q93.979 232 91.792 229.266 Q89.167 225.953 89.167 218.516 Z M92.510 218.500 Q92.510 224.812 94.042 226.906 Q95.573 229 97.807 229 Q100.042 229 101.573 226.898 Q103.104 224.797 103.104 218.500 Q103.104 212.172 101.573 210.086 Q100.042 208 97.776 208 Q95.526 208 94.198 209.844 Q92.510 212.188 92.510 218.500 Z"/>
  <path d="M55.073 175 L51.839 175 Q51.401 173.172 50.604 172.328 Q49.292 171 47.354 171 Q45.807 171 44.635 171.766 Q43.104 172.766 42.214 174.680 Q41.323 176.594 41.292 180.531 Q42.464 178.734 44.159 177.867 Q45.854 177 47.729 177 Q50.979 177 53.260 179.445 Q55.542 181.891 55.542 185.766 Q55.542 188.312 54.464 190.492 Q53.385 192.672 51.510 193.836 Q49.635 195 47.245 195 Q43.182 195 40.620 192.016 Q38.057 189.031 38.057 182.172 Q38.057 174.516 40.901 171.031 Q43.370 168 47.557 168 Q50.682 168 52.682 169.859 Q54.682 171.719 55.073 175 Z M41.792 185.688 Q41.792 187.359 42.503 188.883 Q43.214 190.406 44.503 191.203 Q45.792 192 47.198 192 Q49.260 192 50.745 190.352 Q52.229 188.703 52.229 185.859 Q52.229 183.141 50.760 181.570 Q49.292 180 47.073 180 Q44.870 180 43.331 181.570 Q41.792 183.141 41.792 185.688 Z"/>
  <path d="M58.589 181.516 Q58.589 176.812 59.557 173.961 Q60.526 171.109 62.432 169.555 Q64.339 168 67.229 168 Q69.370 168 70.971 168.859 Q72.573 169.719 73.628 171.328 Q74.682 172.938 75.276 175.258 Q75.870 177.578 75.870 181.516 Q75.870 186.156 74.909 189.016 Q73.948 191.875 72.042 193.438 Q70.135 195 67.229 195 Q63.401 195 61.214 192.266 Q58.589 188.953 58.589 181.516 Z M61.932 181.500 Q61.932 187.812 63.464 189.906 Q64.995 192 67.229 192 Q69.464 192 70.995 189.898 Q72.526 187.797 72.526 181.500 Q72.526 175.172 70.995 173.086 Q69.464 171 67.198 171 Q64.948 171 63.620 172.844 Q61.932 175.188 61.932 181.500 Z"/>
  <path d="M80.807 195 L80.807 192 L84.510 192 L84.510 195 L80.807 195 Z"/>
  <path d="M89.167 181.516 Q89.167 176.812 90.135 173.961 Q91.104 171.109 93.010 169.555 Q94.917 168 97.807 168 Q99.948 168 101.549 168.859 Q103.151 169.719 104.206 171.328 Q105.260 172.938 105.854 175.258 Q106.448 177.578 106.448 181.516 Q106.448 186.156 105.487 189.016 Q104.526 191.875 102.620 193.438 Q100.714 195 97.807 195 Q93.979 195 91.792 192.266 Q89.167 188.953 89.167 181.516 Z M92.510 181.500 Q92.510 187.812 94.042 189.906 Q95.573 192 97.807 192 Q100.042 192 101.573 189.898 Q103.104 187.797 103.104 181.500 Q103.104 175.172 101.573 173.086 Q100.042 171 97.776 171 Q95.526 171 94.198 172.844 Q92.510 175.188 92.510 181.500 Z"/>
  <path d="M38.417 134 L38.417 131 L55.557 131 L55.557 133.422 Q53.042 136.188 50.557 140.844 Q48.073 145.500 46.714 150.406 Q45.729 153.875 45.464 158 L42.120 158 Q42.167 154.734 43.346 150.125 Q44.526 145.516 46.721 141.227 Q48.917 136.938 51.385 134 L38.417 134 Z"/>
  <path d="M58.589 144.516 Q58.589 139.812 59.557 136.961 Q60.526 134.109 62.432 132.555 Q64.339 131 67.229 131 Q69.370 131 70.971 131.859 Q72.573 132.719 73.628 134.328 Q74.682 135.938 75.276 138.258 Q75.870 140.578 75.870 144.516 Q75.870 149.156 74.909 152.016 Q73.948 154.875 72.042 156.438 Q70.135 158 67.229 158 Q63.401 158 61.214 155.266 Q58.589 151.953 58.589 144.516 Z M61.932 144.500 Q61.932 150.812 63.464 152.906 Q64.995 155 67.229 155 Q69.464 155 70.995 152.898 Q72.526 150.797 72.526 144.500 Q72.526 138.172 70.995 136.086 Q69.464 134 67.198 134 Q64.948 134 63.620 135.844 Q61.932 138.188 61.932 144.500 Z"/>
  <path d="M80.807 158 L80.807 155 L84.510 155 L84.510 158 L80.807 158 Z"/>
  <path d="M89.167 144.516 Q89.167 139.812 90.135 136.961 Q91.104 134.109 93.010 132.555 Q94.917 131 97.807 131 Q99.948 131 101.549 131.859 Q103.151 132.719 104.206 134.328 Q105.260 135.938 105.854 138.258 Q106.448 140.578 106.448 144.516 Q106.448 149.156 105.487 152.016 Q104.526 154.875 102.620 156.438 Q100.714 158 97.807 158 Q93.979 158 91.792 155.266 Q89.167 151.953 89.167 144.516 Z M92.510 144.500 Q92.510 150.812 94.042 152.906 Q95.573 155 97.807 155 Q100.042 155 101.573 152.898 Q103.104 150.797 103.104 144.500 Q103.104 138.172 101.573 136.086 Q100.042 134 97.776 134 Q95.526 134 94.198 135.844 Q92.510 138.188 92.510 144.500 Z"/>
  <path d="M137.359 108 L1910.641 108" fill="none" stroke="#000000" stroke-opacity="0.050" stroke-width="3.333" stroke-dasharray="6.667 6.667" stroke-dashoffset="0"/>
  <path d="M137.359 137.600 L1910.641 137.600" fill="none" stroke="#000000" stroke-opacity="0.050" stroke-width="3.333" stroke-dasharray="6.667 6.667" stroke-dashoffset="0"/>
  <path d="M137.359 167.200 L1910.641 167.200" fill="none" stroke="#000000" stroke-opacity="0.050" stroke-width="3.333" stroke-dasharray="6.667 6.667" stroke-dashoffset="0"/>
  <path d="M137.359 196.800 L1910.641 196.800" fill="none" stroke="#000000" stroke-opacity="0.050" stroke-width="3.333" stroke-dasharray="6.667 6.667" stroke-dashoffset="0"/>
  <path d="M137.359 226.400 L1910.641 226.400" fill="none" stroke="#000000" stroke-opacity="0.050" stroke-width="3.333" stroke-dasharray="6.667 6.667" stroke-dashoffset="0"/>
  <path d="M137.359 256 L1910.641 256" fill="none" stroke="#000000" stroke-opacity="0.050" stroke-width="3.333" stroke-dasharray="6.667 6.667" stroke-dashoffset="0"/>
  <path d="M137.359 285.600 L1910.641 285.600" fill="none" stroke="#000000" stroke-opacity="0.050" stroke-width="3.333" stroke-dasharray="6.667 6.667" stroke-dashoffset="0"/>
  <path d="M137.359 315.200 L1910.641 315.200" fill="none" stroke="#000000" stroke-opacity="0.050" stroke-width="3.333" stroke-dasharray="6.667 6.667" stroke-dashoffset="0"/>
  <path d="M137.359 344.800 L1910.641 344.800" fill="none" stroke="#000000" stroke-opacity="0.050" stroke-width="3.333" stroke-dasharray="6.667 6.667" stroke-dashoffset="0"/>
  <path d="M137.359 374.400 L1910.641 374.400" fill="none" stroke="#000000" stroke-opacity="0.050" stroke-width="3.333" stroke-dasharray="6.667 6.667" stroke-dashoffset="0"/>
  <path d="M137.359 404 L1910.641 404" fill="none" stroke="#000000" stroke-opacity="0.050" stroke-width="3.333" stroke-dasharray="6.667 6.667" stroke-dashoffset="0"/>
  <path d="M237.466 404 L237.466 278.200 L274.133 278.200 L274.133 404 Z" fill="#444444"/>
  <path d="M533.013 404 L533.013 263.400 L569.680 263.400 L569.680 404 Z" fill="#444444"/>
  <path d="M828.560 404 L828.560 244.900 L865.227 244.900 L865.227 404 Z" fill="#444444"/>
  <path d="M1124.107 404 L1124.107 281.900 L1160.773 281.900 L1160.773 404 Z" fill="#444444"/>
  <path d="M1419.654 404 L1419.654 326.300 L1456.320 326.300 L1456.320 404 Z" fill="#444444"/>
  <path d="M1715.201 404 L1715.201 281.900 L1751.867 281.900 L1751.867 404 Z" fill="#444444"/>
  <path d="M296.133 404 L296.133 244.900 L332.799 244.900 L332.799 404 Z" fill="#999999"/>
  <path d="M591.680 404 L591.680 163.500 L628.346 163.500 L628.346 404 Z" fill="#999999"/>
  <path d="M887.227 404 L887.227 233.800 L923.893 233.800 L923.893 404 Z" fill="#999999"/>
  <path d="M1182.773 404 L1182.773 263.400 L1219.440 263.400 L1219.440 404 Z" fill="#999999"/>
  <path d="M1478.320 404 L1478.320 263.400 L1514.987 263.400 L1514.987 404 Z" fill="#999999"/>
  <path d="M1773.867 404 L1773.867 200.500 L1810.534 200.500 L1810.534 404 Z" fill="#999999"/>
</svg>
