<?xml version="1.0" encoding="UTF-8" ?>
<!-- Generated by clip v0.7.0 (clip-lang.org) -->
<svg xmlns="http://www.w3.org/2000/svg" width="2048.000000" height="512.000000">
  <rect width="2048.000000" height="512.000000" fill="#ffffff" fill-opacity="1.000000"/>
  <path d="M137.359 108 L1910.64 108 " fill="none" stroke-width="3.333333" stroke="#000000ff"/>
  <path d="M137.359 121.333 L137.359 108 " fill="none" stroke-width="3.333333" stroke="#000000ff"/>
  <path d="M432.906 121.333 L432.906 108 " fill="none" stroke-width="3.333333" stroke="#000000ff"/>
  <path d="M728.453 121.333 L728.453 108 " fill="none" stroke-width="3.333333" stroke="#000000ff"/>
  <path d="M1024 121.333 L1024 108 " fill="none" stroke-width="3.333333" stroke="#000000ff"/>
  <path d="M1319.55 121.333 L1319.55 108 " fill="none" stroke-width="3.333333" stroke="#000000ff"/>
  <path d="M1615.09 121.333 L1615.09 108 " fill="none" stroke-width="3.333333" stroke="#000000ff"/>
  <path d="M1910.64 121.333 L1910.64 108 " fill="none" stroke-width="3.333333" stroke="#000000ff"/>
  <path d="M272.859 70.6667 L283.031 43.6667 L286.797 43.6667 L297.641 70.6667 L293.641 70.6667 L290.562 62.6667 L279.484 62.6667 L276.578 70.6667 L272.859 70.6667 ZM280.5 59.6667 L289.469 59.6667 L286.703 52.3698 Q285.438 49.026 284.828 46.6667 Q284.328 49.3698 283.406 51.901 L280.5 59.6667 Z" fill="#000000" fill-opacity="1.000000"/>
  <path d="M571.156 70.6667 L571.156 43.6667 L581.094 43.6667 Q584.125 43.6667 585.961 44.5104 Q587.797 45.3542 588.836 47.1042 Q589.875 48.8542 589.875 50.776 Q589.875 52.5573 588.953 54.1276 Q588.031 55.6979 586.172 56.6667 Q588.578 57.3698 589.867 59.0573 Q591.156 60.7448 591.156 63.0417 Q591.156 64.8854 590.367 66.4714 Q589.578 68.0573 588.422 68.9245 Q587.266 69.7917 585.523 70.2292 Q583.781 70.6667 581.25 70.6667 L571.156 70.6667 ZM574.672 55.6667 L580.406 55.6667 Q582.734 55.6667 583.734 55.3229 Q585.078 54.8698 585.75 53.8307 Q586.422 52.7917 586.422 51.2292 Q586.422 49.7604 585.789 48.6276 Q585.156 47.4948 583.984 47.0807 Q582.812 46.6667 579.953 46.6667 L574.672 46.6667 L574.672 55.6667 ZM574.672 67.6667 L581.266 67.6667 Q582.969 67.6667 583.641 67.5417 Q584.859 67.3229 585.672 66.8229 Q586.484 66.3229 587.008 65.3698 Q587.531 64.4167 587.531 63.1667 Q587.531 61.6979 586.773 60.6198 Q586.016 59.5417 584.672 59.1042 Q583.328 58.6667 580.797 58.6667 L574.672 58.6667 L574.672 67.6667 Z" fill="#000000" fill-opacity="1.000000"/>
  <path d="M884.734 61.0573 L888.234 61.9167 Q887.125 66.1823 884.266 68.4245 Q881.406 70.6667 877.266 70.6667 Q872.984 70.6667 870.305 68.9479 Q867.625 67.2292 866.227 63.9714 Q864.828 60.7135 864.828 56.9635 Q864.828 52.8854 866.406 49.8542 Q867.984 46.8229 870.906 45.2448 Q873.828 43.6667 877.328 43.6667 Q881.312 43.6667 884.023 45.6667 Q886.734 47.6667 887.797 51.2917 L884.344 52.0885 Q883.422 49.2604 881.672 47.9635 Q879.922 46.6667 877.266 46.6667 Q874.203 46.6667 872.148 48.1042 Q870.094 49.5417 869.266 51.9635 Q868.438 54.3854 868.438 56.9479 Q868.438 60.276 869.422 62.7448 Q870.406 65.2135 872.484 66.4401 Q874.562 67.6667 876.984 67.6667 Q879.922 67.6667 881.969 66.0026 Q884.016 64.3385 884.734 61.0573 Z" fill="#000000" fill-opacity="1.000000"/>
  <path d="M1161.39 70.6667 L1161.39 43.6667 L1170.52 43.6667 Q1173.59 43.6667 1175.22 44.0573 Q1177.5 44.5885 1179.11 45.9948 Q1181.2 47.7917 1182.24 50.6042 Q1183.28 53.4167 1183.28 57.026 Q1183.28 60.0885 1182.58 62.4714 Q1181.88 64.8542 1180.77 66.4089 Q1179.67 67.9635 1178.36 68.8542 Q1177.05 69.7448 1175.2 70.2057 Q1173.34 70.6667 1170.94 70.6667 L1161.39 70.6667 ZM1164.89 67.6667 L1170.55 67.6667 Q1173.17 67.6667 1174.66 67.1589 Q1176.14 66.651 1177.03 65.7292 Q1178.28 64.4479 1178.98 62.2604 Q1179.67 60.0729 1179.67 56.9635 Q1179.67 52.651 1178.3 50.3307 Q1176.94 48.0104 1174.98 47.2292 Q1173.58 46.6667 1170.45 46.6667 L1164.89 46.6667 L1164.89 67.6667 Z" fill="#000000" fill-opacity="1.000000"/>
  <path d="M1458.02 70.6667 L1458.02 43.6667 L1477.17 43.6667 L1477.17 46.6667 L1461.53 46.6667 L1461.53 55.6667 L1476.17 55.6667 L1476.17 58.6667 L1461.53 58.6667 L1461.53 67.6667 L1477.78 67.6667 L1477.78 70.6667 L1458.02 70.6667 Z" fill="#000000" fill-opacity="1.000000"/>
  <path d="M1754.7 70.6667 L1754.7 43.6667 L1772.57 43.6667 L1772.57 46.6667 L1758.21 46.6667 L1758.21 55.6667 L1770.63 55.6667 L1770.63 58.6667 L1758.21 58.6667 L1758.21 70.6667 L1754.7 70.6667 Z" fill="#000000" fill-opacity="1.000000"/>
  <path d="M1910.64 404 L1910.64 108 " fill="none" stroke-width="3.333333" stroke="#000000ff"/>
  <path d="M1897.31 367 L1910.64 367 " fill="none" stroke-width="3.333333" stroke="#000000ff"/>
  <path d="M1897.31 330 L1910.64 330 " fill="none" stroke-width="3.333333" stroke="#000000ff"/>
  <path d="M1897.31 293 L1910.64 293 " fill="none" stroke-width="3.333333" stroke="#000000ff"/>
  <path d="M1897.31 256 L1910.64 256 " fill="none" stroke-width="3.333333" stroke="#000000ff"/>
  <path d="M1897.31 219 L1910.64 219 " fill="none" stroke-width="3.333333" stroke="#000000ff"/>
  <path d="M1897.31 182 L1910.64 182 " fill="none" stroke-width="3.333333" stroke="#000000ff"/>
  <path d="M1897.31 145 L1910.64 145 " fill="none" stroke-width="3.333333" stroke="#000000ff"/>
  <path d="M1953.76 380 L1950.51 380 L1950.51 358.969 Q1949.33 360.109 1947.43 361.242 Q1945.52 362.375 1944.01 362.938 L1944.01 359.75 Q1946.74 358.453 1948.78 356.602 Q1950.82 354.75 1951.66 353 L1953.76 353 L1953.76 380 Z" fill="#000000" fill-opacity="1.000000"/>
  <path d="M1961.9 366.516 Q1961.9 361.812 1962.86 358.961 Q1963.83 356.109 1965.74 354.555 Q1967.65 353 1970.54 353 Q1972.68 353 1974.28 353.859 Q1975.88 354.719 1976.93 356.328 Q1977.99 357.938 1978.58 360.258 Q1979.18 362.578 1979.18 366.516 Q1979.18 371.156 1978.22 374.016 Q1977.26 376.875 1975.35 378.438 Q1973.44 380 1970.54 380 Q1966.71 380 1964.52 377.266 Q1961.9 373.953 1961.9 366.516 ZM1965.24 366.5 Q1965.24 372.812 1966.77 374.906 Q1968.3 377 1970.54 377 Q1972.77 377 1974.3 374.898 Q1975.83 372.797 1975.83 366.5 Q1975.83 360.172 1974.3 358.086 Q1972.77 356 1970.51 356 Q1968.26 356 1966.93 357.844 Q1965.24 360.188 1965.24 366.5 Z" fill="#000000" fill-opacity="1.000000"/>
  <path d="M1984.11 380 L1984.11 377 L1987.82 377 L1987.82 380 L1984.11 380 Z" fill="#000000" fill-opacity="1.000000"/>
  <path d="M1992.47 366.516 Q1992.47 361.812 1993.44 358.961 Q1994.41 356.109 1996.32 354.555 Q1998.22 353 2001.11 353 Q2003.26 353 2004.86 353.859 Q2006.46 354.719 2007.51 356.328 Q2008.57 357.938 2009.16 360.258 Q2009.76 362.578 2009.76 366.516 Q2009.76 371.156 2008.79 374.016 Q2007.83 376.875 2005.93 378.438 Q2004.02 380 2001.11 380 Q1997.29 380 1995.1 377.266 Q1992.47 373.953 1992.47 366.516 ZM1995.82 366.5 Q1995.82 372.812 1997.35 374.906 Q1998.88 377 2001.11 377 Q2003.35 377 2004.88 374.898 Q2006.41 372.797 2006.41 366.5 Q2006.41 360.172 2004.88 358.086 Q2003.35 356 2001.08 356 Q1998.83 356 1997.51 357.844 Q1995.82 360.188 1995.82 366.5 Z" fill="#000000" fill-opacity="1.000000"/>
  <path d="M1958.6 340 L1958.6 343 L1941.1 343 Q1941.05 341.875 1941.47 340.828 Q1942.15 339.109 1943.61 337.445 Q1945.08 335.781 1947.86 333.406 Q1952.19 329.719 1953.71 327.617 Q1955.22 325.516 1955.22 323.656 Q1955.22 321.688 1953.84 320.344 Q1952.46 319 1950.24 319 Q1947.9 319 1946.48 320.062 Q1945.07 321.125 1945.05 323 L1941.71 323 Q1942.05 319.578 1944.29 317.789 Q1946.54 316 1950.3 316 Q1954.13 316 1956.35 318.172 Q1958.57 320.344 1958.57 323.562 Q1958.57 325.203 1957.92 326.781 Q1957.27 328.359 1955.76 330.109 Q1954.24 331.859 1950.74 334.844 Q1947.82 337.328 1946.99 338.219 Q1946.16 339.109 1945.61 340 L1958.6 340 Z" fill="#000000" fill-opacity="1.000000"/>
  <path d="M1961.9 329.516 Q1961.9 324.812 1962.86 321.961 Q1963.83 319.109 1965.74 317.555 Q1967.65 316 1970.54 316 Q1972.68 316 1974.28 316.859 Q1975.88 317.719 1976.93 319.328 Q1977.99 320.938 1978.58 323.258 Q1979.18 325.578 1979.18 329.516 Q1979.18 334.156 1978.22 337.016 Q1977.26 339.875 1975.35 341.438 Q1973.44 343 1970.54 343 Q1966.71 343 1964.52 340.266 Q1961.9 336.953 1961.9 329.516 ZM1965.24 329.5 Q1965.24 335.812 1966.77 337.906 Q1968.3 340 1970.54 340 Q1972.77 340 1974.3 337.898 Q1975.83 335.797 1975.83 329.5 Q1975.83 323.172 1974.3 321.086 Q1972.77 319 1970.51 319 Q1968.26 319 1966.93 320.844 Q1965.24 323.188 1965.24 329.5 Z" fill="#000000" fill-opacity="1.000000"/>
  <path d="M1984.11 343 L1984.11 340 L1987.82 340 L1987.82 343 L1984.11 343 Z" fill="#000000" fill-opacity="1.000000"/>
  <path d="M1992.47 329.516 Q1992.47 324.812 1993.44 321.961 Q1994.41 319.109 1996.32 317.555 Q1998.22 316 2001.11 316 Q2003.26 316 2004.86 316.859 Q2006.46 317.719 2007.51 319.328 Q2008.57 320.938 2009.16 323.258 Q2009.76 325.578 2009.76 329.516 Q2009.76 334.156 2008.79 337.016 Q2007.83 339.875 2005.93 341.438 Q2004.02 343 2001.11 343 Q1997.29 343 1995.1 340.266 Q1992.47 336.953 1992.47 329.516 ZM1995.82 329.5 Q1995.82 335.812 1997.35 337.906 Q1998.88 340 2001.11 340 Q2003.35 340 2004.88 337.898 Q2006.41 335.797 2006.41 329.5 Q2006.41 323.172 2004.88 321.086 Q2003.35 319 2001.08 319 Q1998.83 319 1997.51 320.844 Q1995.82 323.188 1995.82 329.5 Z" fill="#000000" fill-opacity="1.000000"/>
  <path d="M1941.52 299 L1944.79 299 Q1945.35 301.125 1946.69 302.062 Q1948.04 303 1949.97 303 Q1952.27 303 1953.85 301.461 Q1955.43 299.922 1955.43 297.641 Q1955.43 295.469 1953.97 294.047 Q1952.51 292.625 1950.24 292.625 Q1949.32 292.625 1947.94 293 L1948.3 290 Q1948.63 290.031 1948.83 290.031 Q1950.91 290.031 1952.57 289.016 Q1954.22 288 1954.22 285.875 Q1954.22 284.203 1953.01 283.102 Q1951.8 282 1949.88 282 Q1947.99 282 1946.72 283 Q1945.46 284 1945.1 286 L1941.85 286 Q1942.44 282.672 1944.56 280.836 Q1946.68 279 1949.82 279 Q1951.99 279 1953.81 279.922 Q1955.63 280.844 1956.6 282.43 Q1957.57 284.016 1957.57 285.797 Q1957.57 287.484 1956.65 288.875 Q1955.72 290.266 1953.93 291.094 Q1956.27 291.641 1957.57 293.359 Q1958.86 295.078 1958.86 297.656 Q1958.86 301.141 1956.33 303.57 Q1953.8 306 1949.94 306 Q1946.46 306 1944.15 304.055 Q1941.85 302.109 1941.52 299 Z" fill="#000000" fill-opacity="1.000000"/>
  <path d="M1961.9 292.516 Q1961.9 287.812 1962.86 284.961 Q1963.83 282.109 1965.74 280.555 Q1967.65 279 1970.54 279 Q1972.68 279 1974.28 279.859 Q1975.88 280.719 1976.93 282.328 Q1977.99 283.938 1978.58 286.258 Q1979.18 288.578 1979.18 292.516 Q1979.18 297.156 1978.22 300.016 Q1977.26 302.875 1975.35 304.438 Q1973.44 306 1970.54 306 Q1966.71 306 1964.52 303.266 Q1961.9 299.953 1961.9 292.516 ZM1965.24 292.5 Q1965.24 298.812 1966.77 300.906 Q1968.3 303 1970.54 303 Q1972.77 303 1974.3 300.898 Q1975.83 298.797 1975.83 292.5 Q1975.83 286.172 1974.3 284.086 Q1972.77 282 1970.51 282 Q1968.26 282 1966.93 283.844 Q1965.24 286.188 1965.24 292.5 Z" fill="#000000" fill-opacity="1.000000"/>
  <path d="M1984.11 306 L1984.11 303 L1987.82 303 L1987.82 306 L1984.11 306 Z" fill="#000000" fill-opacity="1.000000"/>
  <path d="M1992.47 292.516 Q1992.47 287.812 1993.44 284.961 Q1994.41 282.109 1996.32 280.555 Q1998.22 279 2001.11 279 Q2003.26 279 2004.86 279.859 Q2006.46 280.719 2007.51 282.328 Q2008.57 283.938 2009.16 286.258 Q2009.76 288.578 2009.76 292.516 Q2009.76 297.156 2008.79 300.016 Q2007.83 302.875 2005.93 304.438 Q2004.02 306 2001.11 306 Q1997.29 306 1995.1 303.266 Q1992.47 299.953 1992.47 292.516 ZM1995.82 292.5 Q1995.82 298.812 1997.35 300.906 Q1998.88 303 2001.11 303 Q2003.35 303 2004.88 300.898 Q2006.41 298.797 2006.41 292.5 Q2006.41 286.172 2004.88 284.086 Q2003.35 282 2001.08 282 Q1998.83 282 1997.51 283.844 Q1995.82 286.188 1995.82 292.5 Z" fill="#000000" fill-opacity="1.000000"/>
  <path d="M1951.93 269 L1951.93 263 L1940.44 263 L1940.44 260 L1952.54 242 L1955.19 242 L1955.19 260 L1958.77 260 L1958.77 263 L1955.19 263 L1955.19 269 L1951.93 269 ZM1951.93 260 L1951.93 247.672 L1943.65 260 L1951.93 260 Z" fill="#000000" fill-opacity="1.000000"/>
  <path d="M1961.9 255.516 Q1961.9 250.812 1962.86 247.961 Q1963.83 245.109 1965.74 243.555 Q1967.65 242 1970.54 242 Q1972.68 242 1974.28 242.859 Q1975.88 243.719 1976.93 245.328 Q1977.99 246.938 1978.58 249.258 Q1979.18 251.578 1979.18 255.516 Q1979.18 260.156 1978.22 263.016 Q1977.26 265.875 1975.35 267.438 Q1973.44 269 1970.54 269 Q1966.71 269 1964.52 266.266 Q1961.9 262.953 1961.9 255.516 ZM1965.24 255.5 Q1965.24 261.812 1966.77 263.906 Q1968.3 266 1970.54 266 Q1972.77 266 1974.3 263.898 Q1975.83 261.797 1975.83 255.5 Q1975.83 249.172 1974.3 247.086 Q1972.77 245 1970.51 245 Q1968.26 245 1966.93 246.844 Q1965.24 249.188 1965.24 255.5 Z" fill="#000000" fill-opacity="1.000000"/>
  <path d="M1984.11 269 L1984.11 266 L1987.82 266 L1987.82 269 L1984.11 269 Z" fill="#000000" fill-opacity="1.000000"/>
  <path d="M1992.47 255.516 Q1992.47 250.812 1993.44 247.961 Q1994.41 245.109 1996.32 243.555 Q1998.22 242 2001.11 242 Q2003.26 242 2004.86 242.859 Q2006.46 243.719 2007.51 245.328 Q2008.57 246.938 2009.16 249.258 Q2009.76 251.578 2009.76 255.516 Q2009.76 260.156 2008.79 263.016 Q2007.83 265.875 2005.93 267.438 Q2004.02 269 2001.11 269 Q1997.29 269 1995.1 266.266 Q1992.47 262.953 1992.47 255.516 ZM1995.82 255.5 Q1995.82 261.812 1997.35 263.906 Q1998.88 266 2001.11 266 Q2003.35 266 2004.88 263.898 Q2006.41 261.797 2006.41 255.5 Q2006.41 249.172 2004.88 247.086 Q2003.35 245 2001.08 245 Q1998.83 245 1997.51 246.844 Q1995.82 249.188 1995.82 255.5 Z" fill="#000000" fill-opacity="1.000000"/>
  <path d="M1941.51 225 L1944.93 225 Q1945.3 227 1946.68 228 Q1948.07 229 1950.02 229 Q1952.36 229 1953.99 227.297 Q1955.61 225.594 1955.61 222.781 Q1955.61 220.094 1954.05 218.547 Q1952.49 217 1949.96 217 Q1948.4 217 1947.13 217.555 Q1945.86 218.109 1945.15 219 L1942.08 219 L1944.65 205 L1957.82 205 L1957.82 208 L1947.26 208 L1945.83 215.734 Q1948.22 214 1950.83 214 Q1954.3 214 1956.68 216.398 Q1959.07 218.797 1959.07 222.578 Q1959.07 226.172 1956.97 228.781 Q1954.43 232 1950.02 232 Q1946.4 232 1944.11 230.086 Q1941.83 228.172 1941.51 225 Z" fill="#000000" fill-opacity="1.000000"/>
  <path d="M1961.9 218.516 Q1961.9 213.812 1962.86 210.961 Q1963.83 208.109 1965.74 206.555 Q1967.65 205 1970.54 205 Q1972.68 205 1974.28 205.859 Q1975.88 206.719 1976.93 208.328 Q1977.99 209.938 1978.58 212.258 Q1979.18 214.578 1979.18 218.516 Q1979.18 223.156 1978.22 226.016 Q1977.26 228.875 1975.35 230.438 Q1973.44 232 1970.54 232 Q1966.71 232 1964.52 229.266 Q1961.9 225.953 1961.9 218.516 ZM1965.24 218.5 Q1965.24 224.812 1966.77 226.906 Q1968.3 229 1970.54 229 Q1972.77 229 1974.3 226.898 Q1975.83 224.797 1975.83 218.5 Q1975.83 212.172 1974.3 210.086 Q1972.77 208 1970.51 208 Q1968.26 208 1966.93 209.844 Q1965.24 212.188 1965.24 218.5 Z" fill="#000000" fill-opacity="1.000000"/>
  <path d="M1984.11 232 L1984.11 229 L1987.82 229 L1987.82 232 L1984.11 232 Z" fill="#000000" fill-opacity="1.000000"/>
  <path d="M1992.47 218.516 Q1992.47 213.812 1993.44 210.961 Q1994.41 208.109 1996.32 206.555 Q1998.22 205 2001.11 205 Q2003.26 205 2004.86 205.859 Q2006.46 206.719 2007.51 208.328 Q2008.57 209.938 2009.16 212.258 Q2009.76 214.578 2009.76 218.516 Q2009.76 223.156 2008.79 226.016 Q2007.83 228.875 2005.93 230.438 Q2004.02 232 2001.11 232 Q1997.29 232 1995.1 229.266 Q1992.47 225.953 1992.47 218.516 ZM1995.82 218.5 Q1995.82 224.812 1997.35 226.906 Q1998.88 229 2001.11 229 Q2003.35 229 2004.88 226.898 Q2006.41 224.797 2006.41 218.5 Q2006.41 212.172 2004.88 210.086 Q2003.35 208 2001.08 208 Q1998.83 208 1997.51 209.844 Q1995.82 212.188 1995.82 218.5 Z" fill="#000000" fill-opacity="1.000000"/>
  <path d="M1958.38 175 L1955.15 175 Q1954.71 173.172 1953.91 172.328 Q1952.6 171 1950.66 171 Q1949.11 171 1947.94 171.766 Q1946.41 172.766 1945.52 174.68 Q1944.63 176.594 1944.6 180.531 Q1945.77 178.734 1947.47 177.867 Q1949.16 177 1951.04 177 Q1954.29 177 1956.57 179.445 Q1958.85 181.891 1958.85 185.766 Q1958.85 188.312 1957.77 190.492 Q1956.69 192.672 1954.82 193.836 Q1952.94 195 1950.55 195 Q1946.49 195 1943.93 192.016 Q1941.36 189.031 1941.36 182.172 Q1941.36 174.516 1944.21 171.031 Q1946.68 168 1950.86 168 Q1953.99 168 1955.99 169.859 Q1957.99 171.719 1958.38 175 ZM1945.1 185.688 Q1945.1 187.359 1945.81 188.883 Q1946.52 190.406 1947.81 191.203 Q1949.1 192 1950.51 192 Q1952.57 192 1954.05 190.352 Q1955.54 188.703 1955.54 185.859 Q1955.54 183.141 1954.07 181.57 Q1952.6 180 1950.38 180 Q1948.18 180 1946.64 181.57 Q1945.1 183.141 1945.1 185.688 Z" fill="#000000" fill-opacity="1.000000"/>
  <path d="M1961.9 181.516 Q1961.9 176.812 1962.86 173.961 Q1963.83 171.109 1965.74 169.555 Q1967.65 168 1970.54 168 Q1972.68 168 1974.28 168.859 Q1975.88 169.719 1976.93 171.328 Q1977.99 172.938 1978.58 175.258 Q1979.18 177.578 1979.18 181.516 Q1979.18 186.156 1978.22 189.016 Q1977.26 191.875 1975.35 193.438 Q1973.44 195 1970.54 195 Q1966.71 195 1964.52 192.266 Q1961.9 188.953 1961.9 181.516 ZM1965.24 181.5 Q1965.24 187.812 1966.77 189.906 Q1968.3 192 1970.54 192 Q1972.77 192 1974.3 189.898 Q1975.83 187.797 1975.83 181.5 Q1975.83 175.172 1974.3 173.086 Q1972.77 171 1970.51 171 Q1968.26 171 1966.93 172.844 Q1965.24 175.188 1965.24 181.5 Z" fill="#000000" fill-opacity="1.000000"/>
  <path d="M1984.11 195 L1984.11 192 L1987.82 192 L1987.82 195 L1984.11 195 Z" fill="#000000" fill-opacity="1.000000"/>
  <path d="M1992.47 181.516 Q1992.47 176.812 1993.44 173.961 Q1994.41 171.109 1996.32 169.555 Q1998.22 168 2001.11 168 Q2003.26 168 2004.86 168.859 Q2006.46 169.719 2007.51 171.328 Q2008.57 172.938 2009.16 175.258 Q2009.76 177.578 2009.76 181.516 Q2009.76 186.156 2008.79 189.016 Q2007.83 191.875 2005.93 193.438 Q2004.02 195 2001.11 195 Q1997.29 195 1995.1 192.266 Q1992.47 188.953 1992.47 181.516 ZM1995.82 181.5 Q1995.82 187.812 1997.35 189.906 Q1998.88 192 2001.11 192 Q2003.35 192 2004.88 189.898 Q2006.41 187.797 2006.41 181.5 Q2006.41 175.172 2004.88 173.086 Q2003.35 171 2001.08 171 Q1998.83 171 1997.51 172.844 Q1995.82 175.188 1995.82 181.5 Z" fill="#000000" fill-opacity="1.000000"/>
  <path d="M1941.72 134 L1941.72 131 L1958.86 131 L1958.86 133.422 Q1956.35 136.188 1953.86 140.844 Q1951.38 145.5 1950.02 150.406 Q1949.04 153.875 1948.77 158 L1945.43 158 Q1945.47 154.734 1946.65 150.125 Q1947.83 145.516 1950.03 141.227 Q1952.22 136.938 1954.69 134 L1941.72 134 Z" fill="#000000" fill-opacity="1.000000"/>
  <path d="M1961.9 144.516 Q1961.9 139.812 1962.86 136.961 Q1963.83 134.109 1965.74 132.555 Q1967.65 131 1970.54 131 Q1972.68 131 1974.28 131.859 Q1975.88 132.719 1976.93 134.328 Q1977.99 135.938 1978.58 138.258 Q1979.18 140.578 1979.18 144.516 Q1979.18 149.156 1978.22 152.016 Q1977.26 154.875 1975.35 156.438 Q1973.44 158 1970.54 158 Q1966.71 158 1964.52 155.266 Q1961.9 151.953 1961.9 144.516 ZM1965.24 144.5 Q1965.24 150.812 1966.77 152.906 Q1968.3 155 1970.54 155 Q1972.77 155 1974.3 152.898 Q1975.83 150.797 1975.83 144.5 Q1975.83 138.172 1974.3 136.086 Q1972.77 134 1970.51 134 Q1968.26 134 1966.93 135.844 Q1965.24 138.188 1965.24 144.5 Z" fill="#000000" fill-opacity="1.000000"/>
  <path d="M1984.11 158 L1984.11 155 L1987.82 155 L1987.82 158 L1984.11 158 Z" fill="#000000" fill-opacity="1.000000"/>
  <path d="M1992.47 144.516 Q1992.47 139.812 1993.44 136.961 Q1994.41 134.109 1996.32 132.555 Q1998.22 131 2001.11 131 Q2003.26 131 2004.86 131.859 Q2006.46 132.719 2007.51 134.328 Q2008.57 135.938 2009.16 138.258 Q2009.76 140.578 2009.76 144.516 Q2009.76 149.156 2008.79 152.016 Q2007.83 154.875 2005.93 156.438 Q2004.02 158 2001.11 158 Q1997.29 158 1995.1 155.266 Q1992.47 151.953 1992.47 144.516 ZM1995.82 144.5 Q1995.82 150.812 1997.35 152.906 Q1998.88 155 2001.11 155 Q2003.35 155 2004.88 152.898 Q2006.41 150.797 2006.41 144.5 Q2006.41 138.172 2004.88 136.086 Q2003.35 134 2001.08 134 Q1998.83 134 1997.51 135.844 Q1995.82 138.188 1995.82 144.5 Z" fill="#000000" fill-opacity="1.000000"/>
  <path d="M137.359 404 L1910.64 404 " fill="none" stroke-width="3.333333" stroke="#000000ff"/>
  <path d="M137.359 404 L137.359 390.667 " fill="none" stroke-width="3.333333" stroke="#000000ff"/>
  <path d="M432.906 404 L432.906 390.667 " fill="none" stroke-width="3.333333" stroke="#000000ff"/>
  <path d="M728.453 404 L728.453 390.667 " fill="none" stroke-width="3.333333" stroke="#000000ff"/>
  <path d="M1024 404 L1024 390.667 " fill="none" stroke-width="3.333333" stroke="#000000ff"/>
  <path d="M1319.55 404 L1319.55 390.667 " fill="none" stroke-width="3.333333" stroke="#000000ff"/>
  <path d="M1615.09 404 L1615.09 390.667 " fill="none" stroke-width="3.333333" stroke="#000000ff"/>
  <path d="M1910.64 404 L1910.64 390.667 " fill="none" stroke-width="3.333333" stroke="#000000ff"/>
  <path d="M272.859 467.333 L283.031 440.333 L286.797 440.333 L297.641 467.333 L293.641 467.333 L290.562 459.333 L279.484 459.333 L276.578 467.333 L272.859 467.333 ZM280.5 456.333 L289.469 456.333 L286.703 449.036 Q285.438 445.693 284.828 443.333 Q284.328 446.036 283.406 448.568 L280.5 456.333 Z" fill="#000000" fill-opacity="1.000000"/>
  <path d="M571.156 467.333 L571.156 440.333 L581.094 440.333 Q584.125 440.333 585.961 441.177 Q587.797 442.021 588.836 443.771 Q589.875 445.521 589.875 447.443 Q589.875 449.224 588.953 450.794 Q588.031 452.365 586.172 453.333 Q588.578 454.036 589.867 455.724 Q591.156 457.411 591.156 459.708 Q591.156 461.552 590.367 463.138 Q589.578 464.724 588.422 465.591 Q587.266 466.458 585.523 466.896 Q583.781 467.333 581.25 467.333 L571.156 467.333 ZM574.672 452.333 L580.406 452.333 Q582.734 452.333 583.734 451.99 Q585.078 451.536 585.75 450.497 Q586.422 449.458 586.422 447.896 Q586.422 446.427 585.789 445.294 Q585.156 444.161 583.984 443.747 Q582.812 443.333 579.953 443.333 L574.672 443.333 L574.672 452.333 ZM574.672 464.333 L581.266 464.333 Q582.969 464.333 583.641 464.208 Q584.859 463.99 585.672 463.49 Q586.484 462.99 587.008 462.036 Q587.531 461.083 587.531 459.833 Q587.531 458.365 586.773 457.286 Q586.016 456.208 584.672 455.771 Q583.328 455.333 580.797 455.333 L574.672 455.333 L574.672 464.333 Z" fill="#000000" fill-opacity="1.000000"/>
  <path d="M884.734 457.724 L888.234 458.583 Q887.125 462.849 884.266 465.091 Q881.406 467.333 877.266 467.333 Q872.984 467.333 870.305 465.615 Q867.625 463.896 866.227 460.638 Q864.828 457.38 864.828 453.63 Q864.828 449.552 866.406 446.521 Q867.984 443.49 870.906 441.911 Q873.828 440.333 877.328 440.333 Q881.312 440.333 884.023 442.333 Q886.734 444.333 887.797 447.958 L884.344 448.755 Q883.422 445.927 881.672 444.63 Q879.922 443.333 877.266 443.333 Q874.203 443.333 872.148 444.771 Q870.094 446.208 869.266 448.63 Q868.438 451.052 868.438 453.615 Q868.438 456.943 869.422 459.411 Q870.406 461.88 872.484 463.107 Q874.562 464.333 876.984 464.333 Q879.922 464.333 881.969 462.669 Q884.016 461.005 884.734 457.724 Z" fill="#000000" fill-opacity="1.000000"/>
  <path d="M1161.39 467.333 L1161.39 440.333 L1170.52 440.333 Q1173.59 440.333 1175.22 440.724 Q1177.5 441.255 1179.11 442.661 Q1181.2 444.458 1182.24 447.271 Q1183.28 450.083 1183.28 453.693 Q1183.28 456.755 1182.58 459.138 Q1181.88 461.521 1180.77 463.076 Q1179.67 464.63 1178.36 465.521 Q1177.05 466.411 1175.2 466.872 Q1173.34 467.333 1170.94 467.333 L1161.39 467.333 ZM1164.89 464.333 L1170.55 464.333 Q1173.17 464.333 1174.66 463.826 Q1176.14 463.318 1177.03 462.396 Q1178.28 461.115 1178.98 458.927 Q1179.67 456.74 1179.67 453.63 Q1179.67 449.318 1178.3 446.997 Q1176.94 444.677 1174.98 443.896 Q1173.58 443.333 1170.45 443.333 L1164.89 443.333 L1164.89 464.333 Z" fill="#000000" fill-opacity="1.000000"/>
  <path d="M1458.02 467.333 L1458.02 440.333 L1477.17 440.333 L1477.17 443.333 L1461.53 443.333 L1461.53 452.333 L1476.17 452.333 L1476.17 455.333 L1461.53 455.333 L1461.53 464.333 L1477.78 464.333 L1477.78 467.333 L1458.02 467.333 Z" fill="#000000" fill-opacity="1.000000"/>
  <path d="M1754.7 467.333 L1754.7 440.333 L1772.57 440.333 L1772.57 443.333 L1758.21 443.333 L1758.21 452.333 L1770.63 452.333 L1770.63 455.333 L1758.21 455.333 L1758.21 467.333 L1754.7 467.333 Z" fill="#000000" fill-opacity="1.000000"/>
  <path d="M137.359 404 L137.359 108 " fill="none" stroke-width="3.333333" stroke="#000000ff"/>
  <path d="M137.359 367 L150.693 367 " fill="none" stroke-width="3.333333" stroke="#000000ff"/>
  <path d="M137.359 330 L150.693 330 " fill="none" stroke-width="3.333333" stroke="#000000ff"/>
  <path d="M137.359 293 L150.693 293 " fill="none" stroke-width="3.333333" stroke="#000000ff"/>
  <path d="M137.359 256 L150.693 256 " fill="none" stroke-width="3.333333" stroke="#000000ff"/>
  <path d="M137.359 219 L150.693 219 " fill="none" stroke-width="3.333333" stroke="#000000ff"/>
  <path d="M137.359 182 L150.693 182 " fill="none" stroke-width="3.333333" stroke="#000000ff"/>
  <path d="M137.359 145 L150.693 145 " fill="none" stroke-width="3.333333" stroke="#000000ff"/>
  <path d="M50.4479 380 L47.1979 380 L47.1979 358.969 Q46.026 360.109 44.1198 361.242 Q42.2135 362.375 40.6979 362.938 L40.6979 359.75 Q43.4323 358.453 45.4714 356.602 Q47.5104 354.75 48.3542 353 L50.4479 353 L50.4479 380 Z" fill="#000000" fill-opacity="1.000000"/>
  <path d="M58.5885 366.516 Q58.5885 361.812 59.5573 358.961 Q60.526 356.109 62.4323 354.555 Q64.3385 353 67.2292 353 Q69.3698 353 70.9714 353.859 Q72.5729 354.719 73.6276 356.328 Q74.6823 357.938 75.276 360.258 Q75.8698 362.578 75.8698 366.516 Q75.8698 371.156 74.9089 374.016 Q73.9479 376.875 72.0417 378.438 Q70.1354 380 67.2292 380 Q63.401 380 61.2135 377.266 Q58.5885 373.953 58.5885 366.516 ZM61.9323 366.5 Q61.9323 372.812 63.4635 374.906 Q64.9948 377 67.2292 377 Q69.4635 377 70.9948 374.898 Q72.526 372.797 72.526 366.5 Q72.526 360.172 70.9948 358.086 Q69.4635 356 67.1979 356 Q64.9479 356 63.6198 357.844 Q61.9323 360.188 61.9323 366.5 Z" fill="#000000" fill-opacity="1.000000"/>
  <path d="M80.8073 380 L80.8073 377 L84.5104 377 L84.5104 380 L80.8073 380 Z" fill="#000000" fill-opacity="1.000000"/>
  <path d="M89.1667 366.516 Q89.1667 361.812 90.1354 358.961 Q91.1042 356.109 93.0104 354.555 Q94.9167 353 97.8073 353 Q99.9479 353 101.549 353.859 Q103.151 354.719 104.206 356.328 Q105.26 357.938 105.854 360.258 Q106.448 362.578 106.448 366.516 Q106.448 371.156 105.487 374.016 Q104.526 376.875 102.62 378.438 Q100.714 380 97.8073 380 Q93.9792 380 91.7917 377.266 Q89.1667 373.953 89.1667 366.516 ZM92.5104 366.5 Q92.5104 372.812 94.0417 374.906 Q95.5729 377 97.8073 377 Q100.042 377 101.573 374.898 Q103.104 372.797 103.104 366.5 Q103.104 360.172 101.573 358.086 Q100.042 356 97.776 356 Q95.526 356 94.1979 357.844 Q92.5104 360.188 92.5104 366.5 Z" fill="#000000" fill-opacity="1.000000"/>
  <path d="M55.2917 340 L55.2917 343 L37.7917 343 Q37.7448 341.875 38.1667 340.828 Q38.8385 339.109 40.3073 337.445 Q41.776 335.781 44.5573 333.406 Q48.8854 329.719 50.401 327.617 Q51.9167 325.516 51.9167 323.656 Q51.9167 321.688 50.5339 320.344 Q49.151 319 46.9323 319 Q44.5885 319 43.1745 320.062 Q41.7604 321.125 41.7448 323 L38.401 323 Q38.7448 319.578 40.987 317.789 Q43.2292 316 46.9948 316 Q50.8229 316 53.0417 318.172 Q55.2604 320.344 55.2604 323.562 Q55.2604 325.203 54.612 326.781 Q53.9635 328.359 52.4479 330.109 Q50.9323 331.859 47.4323 334.844 Q44.5104 337.328 43.6823 338.219 Q42.8542 339.109 42.3073 340 L55.2917 340 Z" fill="#000000" fill-opacity="1.000000"/>
  <path d="M58.5885 329.516 Q58.5885 324.812 59.5573 321.961 Q60.526 319.109 62.4323 317.555 Q64.3385 316 67.2292 316 Q69.3698 316 70.9714 316.859 Q72.5729 317.719 73.6276 319.328 Q74.6823 320.938 75.276 323.258 Q75.8698 325.578 75.8698 329.516 Q75.8698 334.156 74.9089 337.016 Q73.9479 339.875 72.0417 341.438 Q70.1354 343 67.2292 343 Q63.401 343 61.2135 340.266 Q58.5885 336.953 58.5885 329.516 ZM61.9323 329.5 Q61.9323 335.812 63.4635 337.906 Q64.9948 340 67.2292 340 Q69.4635 340 70.9948 337.898 Q72.526 335.797 72.526 329.5 Q72.526 323.172 70.9948 321.086 Q69.4635 319 67.1979 319 Q64.9479 319 63.6198 320.844 Q61.9323 323.188 61.9323 329.5 Z" fill="#000000" fill-opacity="1.000000"/>
  <path d="M80.8073 343 L80.8073 340 L84.5104 340 L84.5104 343 L80.8073 343 Z" fill="#000000" fill-opacity="1.000000"/>
  <path d="M89.1667 329.516 Q89.1667 324.812 90.1354 321.961 Q91.1042 319.109 93.0104 317.555 Q94.9167 316 97.8073 316 Q99.9479 316 101.549 316.859 Q103.151 317.719 104.206 319.328 Q105.26 320.938 105.854 323.258 Q106.448 325.578 106.448 329.516 Q106.448 334.156 105.487 337.016 Q104.526 339.875 102.62 341.438 Q100.714 343 97.8073 343 Q93.9792 343 91.7917 340.266 Q89.1667 336.953 89.1667 329.516 ZM92.5104 329.5 Q92.5104 335.812 94.0417 337.906 Q95.5729 340 97.8073 340 Q100.042 340 101.573 337.898 Q103.104 335.797 103.104 329.5 Q103.104 323.172 101.573 321.086 Q100.042 319 97.776 319 Q95.526 319 94.1979 320.844 Q92.5104 323.188 92.5104 329.5 Z" fill="#000000" fill-opacity="1.000000"/>
  <path d="M38.2135 299 L41.4792 299 Q42.0417 301.125 43.3854 302.062 Q44.7292 303 46.6667 303 Q48.9635 303 50.5417 301.461 Q52.1198 299.922 52.1198 297.641 Q52.1198 295.469 50.6589 294.047 Q49.1979 292.625 46.9323 292.625 Q46.0104 292.625 44.6354 293 L44.9948 290 Q45.3229 290.031 45.526 290.031 Q47.6042 290.031 49.2604 289.016 Q50.9167 288 50.9167 285.875 Q50.9167 284.203 49.7057 283.102 Q48.4948 282 46.5729 282 Q44.6823 282 43.4167 283 Q42.151 284 41.7917 286 L38.5417 286 Q39.1354 282.672 41.2526 280.836 Q43.3698 279 46.5104 279 Q48.6823 279 50.5026 279.922 Q52.3229 280.844 53.2917 282.43 Q54.2604 284.016 54.2604 285.797 Q54.2604 287.484 53.3385 288.875 Q52.4167 290.266 50.6198 291.094 Q52.9635 291.641 54.2604 293.359 Q55.5573 295.078 55.5573 297.656 Q55.5573 301.141 53.026 303.57 Q50.4948 306 46.6354 306 Q43.151 306 40.8464 304.055 Q38.5417 302.109 38.2135 299 Z" fill="#000000" fill-opacity="1.000000"/>
  <path d="M58.5885 292.516 Q58.5885 287.812 59.5573 284.961 Q60.526 282.109 62.4323 280.555 Q64.3385 279 67.2292 279 Q69.3698 279 70.9714 279.859 Q72.5729 280.719 73.6276 282.328 Q74.6823 283.938 75.276 286.258 Q75.8698 288.578 75.8698 292.516 Q75.8698 297.156 74.9089 300.016 Q73.9479 302.875 72.0417 304.438 Q70.1354 306 67.2292 306 Q63.401 306 61.2135 303.266 Q58.5885 299.953 58.5885 292.516 ZM61.9323 292.5 Q61.9323 298.812 63.4635 300.906 Q64.9948 303 67.2292 303 Q69.4635 303 70.9948 300.898 Q72.526 298.797 72.526 292.5 Q72.526 286.172 70.9948 284.086 Q69.4635 282 67.1979 282 Q64.9479 282 63.6198 283.844 Q61.9323 286.188 61.9323 292.5 Z" fill="#000000" fill-opacity="1.000000"/>
  <path d="M80.8073 306 L80.8073 303 L84.5104 303 L84.5104 306 L80.8073 306 Z" fill="#000000" fill-opacity="1.000000"/>
  <path d="M89.1667 292.516 Q89.1667 287.812 90.1354 284.961 Q91.1042 282.109 93.0104 280.555 Q94.9167 279 97.8073 279 Q99.9479 279 101.549 279.859 Q103.151 280.719 104.206 282.328 Q105.26 283.938 105.854 286.258 Q106.448 288.578 106.448 292.516 Q106.448 297.156 105.487 300.016 Q104.526 302.875 102.62 304.438 Q100.714 306 97.8073 306 Q93.9792 306 91.7917 303.266 Q89.1667 299.953 89.1667 292.516 ZM92.5104 292.5 Q92.5104 298.812 94.0417 300.906 Q95.5729 303 97.8073 303 Q100.042 303 101.573 300.898 Q103.104 298.797 103.104 292.5 Q103.104 286.172 101.573 284.086 Q100.042 282 97.776 282 Q95.526 282 94.1979 283.844 Q92.5104 286.188 92.5104 292.5 Z" fill="#000000" fill-opacity="1.000000"/>
  <path d="M48.6198 269 L48.6198 263 L37.1354 263 L37.1354 260 L49.2292 242 L51.8854 242 L51.8854 260 L55.4635 260 L55.4635 263 L51.8854 263 L51.8854 269 L48.6198 269 ZM48.6198 260 L48.6198 247.672 L40.3385 260 L48.6198 260 Z" fill="#000000" fill-opacity="1.000000"/>
  <path d="M58.5885 255.516 Q58.5885 250.812 59.5573 247.961 Q60.526 245.109 62.4323 243.555 Q64.3385 242 67.2292 242 Q69.3698 242 70.9714 242.859 Q72.5729 243.719 73.6276 245.328 Q74.6823 246.938 75.276 249.258 Q75.8698 251.578 75.8698 255.516 Q75.8698 260.156 74.9089 263.016 Q73.9479 265.875 72.0417 267.438 Q70.1354 269 67.2292 269 Q63.401 269 61.2135 266.266 Q58.5885 262.953 58.5885 255.516 ZM61.9323 255.5 Q61.9323 261.812 63.4635 263.906 Q64.9948 266 67.2292 266 Q69.4635 266 70.9948 263.898 Q72.526 261.797 72.526 255.5 Q72.526 249.172 70.9948 247.086 Q69.4635 245 67.1979 245 Q64.9479 245 63.6198 246.844 Q61.9323 249.188 61.9323 255.5 Z" fill="#000000" fill-opacity="1.000000"/>
  <path d="M80.8073 269 L80.8073 266 L84.5104 266 L84.5104 269 L80.8073 269 Z" fill="#000000" fill-opacity="1.000000"/>
  <path d="M89.1667 255.516 Q89.1667 250.812 90.1354 247.961 Q91.1042 245.109 93.0104 243.555 Q94.9167 242 97.8073 242 Q99.9479 242 101.549 242.859 Q103.151 243.719 104.206 245.328 Q105.26 246.938 105.854 249.258 Q106.448 251.578 106.448 255.516 Q106.448 260.156 105.487 263.016 Q104.526 265.875 102.62 267.438 Q100.714 269 97.8073 269 Q93.9792 269 91.7917 266.266 Q89.1667 262.953 89.1667 255.516 ZM92.5104 255.5 Q92.5104 261.812 94.0417 263.906 Q95.5729 266 97.8073 266 Q100.042 266 101.573 263.898 Q103.104 261.797 103.104 255.5 Q103.104 249.172 101.573 247.086 Q100.042 245 97.776 245 Q95.526 245 94.1979 246.844 Q92.5104 249.188 92.5104 255.5 Z" fill="#000000" fill-opacity="1.000000"/>
  <path d="M38.1979 225 L41.6198 225 Q41.9948 227 43.3776 228 Q44.7604 229 46.7135 229 Q49.0573 229 50.6823 227.297 Q52.3073 225.594 52.3073 222.781 Q52.3073 220.094 50.7448 218.547 Q49.1823 217 46.651 217 Q45.0885 217 43.8229 217.555 Q42.5573 218.109 41.8385 219 L38.776 219 L41.3385 205 L54.5104 205 L54.5104 208 L43.9479 208 L42.526 215.734 Q44.9167 214 47.526 214 Q50.9948 214 53.3776 216.398 Q55.7604 218.797 55.7604 222.578 Q55.7604 226.172 53.6667 228.781 Q51.1198 232 46.7135 232 Q43.0885 232 40.8073 230.086 Q38.526 228.172 38.1979 225 Z" fill="#000000" fill-opacity="1.000000"/>
  <path d="M58.5885 218.516 Q58.5885 213.812 59.5573 210.961 Q60.526 208.109 62.4323 206.555 Q64.3385 205 67.2292 205 Q69.3698 205 70.9714 205.859 Q72.5729 206.719 73.6276 208.328 Q74.6823 209.938 75.276 212.258 Q75.8698 214.578 75.8698 218.516 Q75.8698 223.156 74.9089 226.016 Q73.9479 228.875 72.0417 230.438 Q70.1354 232 67.2292 232 Q63.401 232 61.2135 229.266 Q58.5885 225.953 58.5885 218.516 ZM61.9323 218.5 Q61.9323 224.812 63.4635 226.906 Q64.9948 229 67.2292 229 Q69.4635 229 70.9948 226.898 Q72.526 224.797 72.526 218.5 Q72.526 212.172 70.9948 210.086 Q69.4635 208 67.1979 208 Q64.9479 208 63.6198 209.844 Q61.9323 212.188 61.9323 218.5 Z" fill="#000000" fill-opacity="1.000000"/>
  <path d="M80.8073 232 L80.8073 229 L84.5104 229 L84.5104 232 L80.8073 232 Z" fill="#000000" fill-opacity="1.000000"/>
  <path d="M89.1667 218.516 Q89.1667 213.812 90.1354 210.961 Q91.1042 208.109 93.0104 206.555 Q94.9167 205 97.8073 205 Q99.9479 205 101.549 205.859 Q103.151 206.719 104.206 208.328 Q105.26 209.938 105.854 212.258 Q106.448 214.578 106.448 218.516 Q106.448 223.156 105.487 226.016 Q104.526 228.875 102.62 230.438 Q100.714 232 97.8073 232 Q93.9792 232 91.7917 229.266 Q89.1667 225.953 89.1667 218.516 ZM92.5104 218.5 Q92.5104 224.812 94.0417 226.906 Q95.5729 229 97.8073 229 Q100.042 229 101.573 226.898 Q103.104 224.797 103.104 218.5 Q103.104 212.172 101.573 210.086 Q100.042 208 97.776 208 Q95.526 208 94.1979 209.844 Q92.5104 212.188 92.5104 218.5 Z" fill="#000000" fill-opacity="1.000000"/>
  <path d="M55.0729 175 L51.8385 175 Q51.401 173.172 50.6042 172.328 Q49.2917 171 47.3542 171 Q45.8073 171 44.6354 171.766 Q43.1042 172.766 42.2135 174.68 Q41.3229 176.594 41.2917 180.531 Q42.4635 178.734 44.1589 177.867 Q45.8542 177 47.7292 177 Q50.9792 177 53.2604 179.445 Q55.5417 181.891 55.5417 185.766 Q55.5417 188.312 54.4635 190.492 Q53.3854 192.672 51.5104 193.836 Q49.6354 195 47.2448 195 Q43.1823 195 40.6198 192.016 Q38.0573 189.031 38.0573 182.172 Q38.0573 174.516 40.901 171.031 Q43.3698 168 47.5573 168 Q50.6823 168 52.6823 169.859 Q54.6823 171.719 55.0729 175 ZM41.7917 185.688 Q41.7917 187.359 42.5026 188.883 Q43.2135 190.406 44.5026 191.203 Q45.7917 192 47.1979 192 Q49.2604 192 50.7448 190.352 Q52.2292 188.703 52.2292 185.859 Q52.2292 183.141 50.7604 181.57 Q49.2917 180 47.0729 180 Q44.8698 180 43.3307 181.57 Q41.7917 183.141 41.7917 185.688 Z" fill="#000000" fill-opacity="1.000000"/>
  <path d="M58.5885 181.516 Q58.5885 176.812 59.5573 173.961 Q60.526 171.109 62.4323 169.555 Q64.3385 168 67.2292 168 Q69.3698 168 70.9714 168.859 Q72.5729 169.719 73.6276 171.328 Q74.6823 172.938 75.276 175.258 Q75.8698 177.578 75.8698 181.516 Q75.8698 186.156 74.9089 189.016 Q73.9479 191.875 72.0417 193.438 Q70.1354 195 67.2292 195 Q63.401 195 61.2135 192.266 Q58.5885 188.953 58.5885 181.516 ZM61.9323 181.5 Q61.9323 187.812 63.4635 189.906 Q64.9948 192 67.2292 192 Q69.4635 192 70.9948 189.898 Q72.526 187.797 72.526 181.5 Q72.526 175.172 70.9948 173.086 Q69.4635 171 67.1979 171 Q64.9479 171 63.6198 172.844 Q61.9323 175.188 61.9323 181.5 Z" fill="#000000" fill-opacity="1.000000"/>
  <path d="M80.8073 195 L80.8073 192 L84.5104 192 L84.5104 195 L80.8073 195 Z" fill="#000000" fill-opacity="1.000000"/>
  <path d="M89.1667 181.516 Q89.1667 176.812 90.1354 173.961 Q91.1042 171.109 93.0104 169.555 Q94.9167 168 97.8073 168 Q99.9479 168 101.549 168.859 Q103.151 169.719 104.206 171.328 Q105.26 172.938 105.854 175.258 Q106.448 177.578 106.448 181.516 Q106.448 186.156 105.487 189.016 Q104.526 191.875 102.62 193.438 Q100.714 195 97.8073 195 Q93.9792 195 91.7917 192.266 Q89.1667 188.953 89.1667 181.516 ZM92.5104 181.5 Q92.5104 187.812 94.0417 189.906 Q95.5729 192 97.8073 192 Q100.042 192 101.573 189.898 Q103.104 187.797 103.104 181.5 Q103.104 175.172 101.573 173.086 Q100.042 171 97.776 171 Q95.526 171 94.1979 172.844 Q92.5104 175.188 92.5104 181.5 Z" fill="#000000" fill-opacity="1.000000"/>
  <path d="M38.4167 134 L38.4167 131 L55.5573 131 L55.5573 133.422 Q53.0417 136.188 50.5573 140.844 Q48.0729 145.5 46.7135 150.406 Q45.7292 153.875 45.4635 158 L42.1198 158 Q42.1667 154.734 43.3464 150.125 Q44.526 145.516 46.7214 141.227 Q48.9167 136.938 51.3854 134 L38.4167 134 Z" fill="#000000" fill-opacity="1.000000"/>
  <path d="M58.5885 144.516 Q58.5885 139.812 59.5573 136.961 Q60.526 134.109 62.4323 132.555 Q64.3385 131 67.2292 131 Q69.3698 131 70.9714 131.859 Q72.5729 132.719 73.6276 134.328 Q74.6823 135.938 75.276 138.258 Q75.8698 140.578 75.8698 144.516 Q75.8698 149.156 74.9089 152.016 Q73.9479 154.875 72.0417 156.438 Q70.1354 158 67.2292 158 Q63.401 158 61.2135 155.266 Q58.5885 151.953 58.5885 144.516 ZM61.9323 144.5 Q61.9323 150.812 63.4635 152.906 Q64.9948 155 67.2292 155 Q69.4635 155 70.9948 152.898 Q72.526 150.797 72.526 144.5 Q72.526 138.172 70.9948 136.086 Q69.4635 134 67.1979 134 Q64.9479 134 63.6198 135.844 Q61.9323 138.188 61.9323 144.5 Z" fill="#000000" fill-opacity="1.000000"/>
  <path d="M80.8073 158 L80.8073 155 L84.5104 155 L84.5104 158 L80.8073 158 Z" fill="#000000" fill-opacity="1.000000"/>
  <path d="M89.1667 144.516 Q89.1667 139.812 90.1354 136.961 Q91.1042 134.109 93.0104 132.555 Q94.9167 131 97.8073 131 Q99.9479 131 101.549 131.859 Q103.151 132.719 104.206 134.328 Q105.26 135.938 105.854 138.258 Q106.448 140.578 106.448 144.516 Q106.448 149.156 105.487 152.016 Q104.526 154.875 102.62 156.438 Q100.714 158 97.8073 158 Q93.9792 158 91.7917 155.266 Q89.1667 151.953 89.1667 144.516 ZM92.5104 144.5 Q92.5104 150.812 94.0417 152.906 Q95.5729 155 97.8073 155 Q100.042 155 101.573 152.898 Q103.104 150.797 103.104 144.5 Q103.104 138.172 101.573 136.086 Q100.042 134 97.776 134 Q95.526 134 94.1979 135.844 Q92.5104 138.188 92.5104 144.5 Z" fill="#000000" fill-opacity="1.000000"/>
  <path d="M137.359 108 L1910.64 108 " fill="none" stroke-width="3.333333" stroke="#0000000c" stroke-dasharray="6.66667 6.66667 " stroke-dashoffset="0.000000"/>
  <path d="M137.359 137.6 L1910.64 137.6 " fill="none" stroke-width="3.333333" stroke="#0000000c" stroke-dasharray="6.66667 6.66667 " stroke-dashoffset="0.000000"/>
  <path d="M137.359 167.2 L1910.64 167.2 " fill="none" stroke-width="3.333333" stroke="#0000000c" stroke-dasharray="6.66667 6.66667 " stroke-dashoffset="0.000000"/>
  <path d="M137.359 196.8 L1910.64 196.8 " fill="none" stroke-width="3.333333" stroke="#0000000c" stroke-dasharray="6.66667 6.66667 " stroke-dashoffset="0.000000"/>
  <path d="M137.359 226.4 L1910.64 226.4 " fill="none" stroke-width="3.333333" stroke="#0000000c" stroke-dasharray="6.66667 6.66667 " stroke-dashoffset="0.000000"/>
  <path d="M137.359 256 L1910.64 256 " fill="none" stroke-width="3.333333" stroke="#0000000c" stroke-dasharray="6.66667 6.66667 " stroke-dashoffset="0.000000"/>
  <path d="M137.359 285.6 L1910.64 285.6 " fill="none" stroke-width="3.333333" stroke="#0000000c" stroke-dasharray="6.66667 6.66667 " stroke-dashoffset="0.000000"/>
  <path d="M137.359 315.2 L1910.64 315.2 " fill="none" stroke-width="3.333333" stroke="#0000000c" stroke-dasharray="6.66667 6.66667 " stroke-dashoffset="0.000000"/>
  <path d="M137.359 344.8 L1910.64 344.8 " fill="none" stroke-width="3.333333" stroke="#0000000c" stroke-dasharray="6.66667 6.66667 " stroke-dashoffset="0.000000"/>
  <path d="M137.359 374.4 L1910.64 374.4 " fill="none" stroke-width="3.333333" stroke="#0000000c" stroke-dasharray="6.66667 6.66667 " stroke-dashoffset="0.000000"/>
  <path d="M137.359 404 L1910.64 404 " fill="none" stroke-width="3.333333" stroke="#0000000c" stroke-dasharray="6.66667 6.66667 " stroke-dashoffset="0.000000"/>
  <path d="M237.799 404 L237.799 278.2 L274.466 278.2 L274.466 404 Z" fill="#444444" fill-opacity="1.000000"/>
  <path d="M533.346 404 L533.346 263.4 L570.013 263.4 L570.013 404 Z" fill="#444444" fill-opacity="1.000000"/>
  <path d="M828.893 404 L828.893 244.9 L865.56 244.9 L865.56 404 Z" fill="#444444" fill-opacity="1.000000"/>
  <path d="M1124.44 404 L1124.44 281.9 L1161.11 281.9 L1161.11 404 Z" fill="#444444" fill-opacity="1.000000"/>
  <path d="M1419.99 404 L1419.99 326.3 L1456.65 326.3 L1456.65 404 Z" fill="#444444" fill-opacity="1.000000"/>
  <path d="M1715.53 404 L1715.53 281.9 L1752.2 281.9 L1752.2 404 Z" fill="#444444" fill-opacity="1.000000"/>
  <path d="M295.799 404 L295.799 244.9 L332.466 244.9 L332.466 404 Z" fill="#999999" fill-opacity="1.000000"/>
  <path d="M591.346 404 L591.346 163.5 L628.013 163.5 L628.013 404 Z" fill="#999999" fill-opacity="1.000000"/>
  <path d="M886.893 404 L886.893 233.8 L923.56 233.8 L923.56 404 Z" fill="#999999" fill-opacity="1.000000"/>
  <path d="M1182.44 404 L1182.44 263.4 L1219.11 263.4 L1219.11 404 Z" fill="#999999" fill-opacity="1.000000"/>
  <path d="M1477.99 404 L1477.99 263.4 L1514.65 263.4 L1514.65 404 Z" fill="#999999" fill-opacity="1.000000"/>
  <path d="M1773.53 404 L1773.53 200.5 L1810.2 200.5 L1810.2 404 Z" fill="#999999" fill-opacity="1.000000"/>
</svg>