<?xml version="1.0" encoding="UTF-8" ?>
<!-- Generated by clip v0.8.0 (clip-lang.org) -->
<svg xmlns="http://www.w3.org/2000/svg" width="1024" height="512">
  <rect width="1024" height="512" fill="#ffffff" fill-opacity="1"/>
  <path d="M198.531 404 L987.333 404" fill="none" stroke="#000000" stroke-width="3.333"/>
  <path d="M311.217 404 L311.217 390.667" fill="none" stroke="#000000" stroke-width="3.333"/>
  <path d="M423.903 404 L423.903 390.667" fill="none" stroke="#000000" stroke-width="3.333"/>
  <path d="M536.589 404 L536.589 390.667" fill="none" stroke="#000000" stroke-width="3.333"/>
  <path d="M649.275 404 L649.275 390.667" fill="none" stroke="#000000" stroke-width="3.333"/>
  <path d="M761.961 404 L761.961 390.667" fill="none" stroke="#000000" stroke-width="3.333"/>
  <path d="M874.647 404 L874.647 390.667" fill="none" stroke="#000000" stroke-width="3.333"/>
  <path d="M299.514 467.333 L296.264 467.333 L296.264 446.302 Q295.092 447.443 293.186 448.576 Q291.280 449.708 289.764 450.271 L289.764 447.083 Q292.499 445.786 294.538 443.935 Q296.577 442.083 297.420 440.333 L299.514 440.333 L299.514 467.333 Z"/>
  <path d="M309.483 467.333 L309.483 464.333 L313.186 464.333 L313.186 467.333 L309.483 467.333 Z"/>
  <path d="M317.842 453.849 Q317.842 449.146 318.811 446.294 Q319.780 443.443 321.686 441.888 Q323.592 440.333 326.483 440.333 Q328.624 440.333 330.225 441.193 Q331.827 442.052 332.881 443.661 Q333.936 445.271 334.530 447.591 Q335.124 449.911 335.124 453.849 Q335.124 458.490 334.163 461.349 Q333.202 464.208 331.295 465.771 Q329.389 467.333 326.483 467.333 Q322.655 467.333 320.467 464.599 Q317.842 461.286 317.842 453.849 Z M321.186 453.833 Q321.186 460.146 322.717 462.240 Q324.249 464.333 326.483 464.333 Q328.717 464.333 330.249 462.232 Q331.780 460.130 331.780 453.833 Q331.780 447.505 330.249 445.419 Q328.717 443.333 326.452 443.333 Q324.202 443.333 322.874 445.177 Q321.186 447.521 321.186 453.833 Z"/>
  <path d="M417.044 464.333 L417.044 467.333 L399.544 467.333 Q399.497 466.208 399.919 465.161 Q400.591 463.443 402.060 461.779 Q403.528 460.115 406.310 457.740 Q410.638 454.052 412.153 451.951 Q413.669 449.849 413.669 447.990 Q413.669 446.021 412.286 444.677 Q410.903 443.333 408.685 443.333 Q406.341 443.333 404.927 444.396 Q403.513 445.458 403.497 447.333 L400.153 447.333 Q400.497 443.911 402.739 442.122 Q404.981 440.333 408.747 440.333 Q412.575 440.333 414.794 442.505 Q417.013 444.677 417.013 447.896 Q417.013 449.536 416.364 451.115 Q415.716 452.693 414.200 454.443 Q412.685 456.193 409.185 459.177 Q406.263 461.661 405.435 462.552 Q404.606 463.443 404.060 464.333 L417.044 464.333 Z"/>
  <path d="M422.169 467.333 L422.169 464.333 L425.872 464.333 L425.872 467.333 L422.169 467.333 Z"/>
  <path d="M430.528 453.849 Q430.528 449.146 431.497 446.294 Q432.466 443.443 434.372 441.888 Q436.278 440.333 439.169 440.333 Q441.310 440.333 442.911 441.193 Q444.513 442.052 445.567 443.661 Q446.622 445.271 447.216 447.591 Q447.810 449.911 447.810 453.849 Q447.810 458.490 446.849 461.349 Q445.888 464.208 443.981 465.771 Q442.075 467.333 439.169 467.333 Q435.341 467.333 433.153 464.599 Q430.528 461.286 430.528 453.849 Z M433.872 453.833 Q433.872 460.146 435.403 462.240 Q436.935 464.333 439.169 464.333 Q441.403 464.333 442.935 462.232 Q444.466 460.130 444.466 453.833 Q444.466 447.505 442.935 445.419 Q441.403 443.333 439.138 443.333 Q436.888 443.333 435.560 445.177 Q433.872 447.521 433.872 453.833 Z"/>
  <path d="M512.652 460.333 L515.917 460.333 Q516.480 462.458 517.824 463.396 Q519.167 464.333 521.105 464.333 Q523.402 464.333 524.980 462.794 Q526.558 461.255 526.558 458.974 Q526.558 456.802 525.097 455.380 Q523.636 453.958 521.371 453.958 Q520.449 453.958 519.074 454.333 L519.433 451.333 Q519.761 451.365 519.964 451.365 Q522.042 451.365 523.699 450.349 Q525.355 449.333 525.355 447.208 Q525.355 445.536 524.144 444.435 Q522.933 443.333 521.011 443.333 Q519.121 443.333 517.855 444.333 Q516.589 445.333 516.230 447.333 L512.980 447.333 Q513.574 444.005 515.691 442.169 Q517.808 440.333 520.949 440.333 Q523.121 440.333 524.941 441.255 Q526.761 442.177 527.730 443.763 Q528.699 445.349 528.699 447.130 Q528.699 448.818 527.777 450.208 Q526.855 451.599 525.058 452.427 Q527.402 452.974 528.699 454.693 Q529.996 456.411 529.996 458.990 Q529.996 462.474 527.464 464.904 Q524.933 467.333 521.074 467.333 Q517.589 467.333 515.285 465.388 Q512.980 463.443 512.652 460.333 Z"/>
  <path d="M534.855 467.333 L534.855 464.333 L538.558 464.333 L538.558 467.333 L534.855 467.333 Z"/>
  <path d="M543.214 453.849 Q543.214 449.146 544.183 446.294 Q545.152 443.443 547.058 441.888 Q548.964 440.333 551.855 440.333 Q553.996 440.333 555.597 441.193 Q557.199 442.052 558.253 443.661 Q559.308 445.271 559.902 447.591 Q560.496 449.911 560.496 453.849 Q560.496 458.490 559.535 461.349 Q558.574 464.208 556.667 465.771 Q554.761 467.333 551.855 467.333 Q548.027 467.333 545.839 464.599 Q543.214 461.286 543.214 453.849 Z M546.558 453.833 Q546.558 460.146 548.089 462.240 Q549.621 464.333 551.855 464.333 Q554.089 464.333 555.621 462.232 Q557.152 460.130 557.152 453.833 Q557.152 447.505 555.621 445.419 Q554.089 443.333 551.824 443.333 Q549.574 443.333 548.246 445.177 Q546.558 447.521 546.558 453.833 Z"/>
  <path d="M635.744 467.333 L635.744 461.333 L624.260 461.333 L624.260 458.333 L636.353 440.333 L639.010 440.333 L639.010 458.333 L642.588 458.333 L642.588 461.333 L639.010 461.333 L639.010 467.333 L635.744 467.333 Z M635.744 458.333 L635.744 446.005 L627.463 458.333 L635.744 458.333 Z"/>
  <path d="M647.541 467.333 L647.541 464.333 L651.244 464.333 L651.244 467.333 L647.541 467.333 Z"/>
  <path d="M655.900 453.849 Q655.900 449.146 656.869 446.294 Q657.838 443.443 659.744 441.888 Q661.650 440.333 664.541 440.333 Q666.682 440.333 668.283 441.193 Q669.885 442.052 670.939 443.661 Q671.994 445.271 672.588 447.591 Q673.182 449.911 673.182 453.849 Q673.182 458.490 672.221 461.349 Q671.260 464.208 669.353 465.771 Q667.447 467.333 664.541 467.333 Q660.713 467.333 658.525 464.599 Q655.900 461.286 655.900 453.849 Z M659.244 453.833 Q659.244 460.146 660.775 462.240 Q662.307 464.333 664.541 464.333 Q666.775 464.333 668.307 462.232 Q669.838 460.130 669.838 453.833 Q669.838 447.505 668.307 445.419 Q666.775 443.333 664.510 443.333 Q662.260 443.333 660.932 445.177 Q659.244 447.521 659.244 453.833 Z"/>
  <path d="M738.008 460.333 L741.430 460.333 Q741.805 462.333 743.188 463.333 Q744.571 464.333 746.524 464.333 Q748.868 464.333 750.493 462.630 Q752.118 460.927 752.118 458.115 Q752.118 455.427 750.555 453.880 Q748.993 452.333 746.461 452.333 Q744.899 452.333 743.633 452.888 Q742.368 453.443 741.649 454.333 L738.586 454.333 L741.149 440.333 L754.321 440.333 L754.321 443.333 L743.758 443.333 L742.336 451.068 Q744.727 449.333 747.336 449.333 Q750.805 449.333 753.188 451.732 Q755.571 454.130 755.571 457.911 Q755.571 461.505 753.477 464.115 Q750.930 467.333 746.524 467.333 Q742.899 467.333 740.618 465.419 Q738.336 463.505 738.008 460.333 Z"/>
  <path d="M760.227 467.333 L760.227 464.333 L763.930 464.333 L763.930 467.333 L760.227 467.333 Z"/>
  <path d="M768.586 453.849 Q768.586 449.146 769.555 446.294 Q770.524 443.443 772.430 441.888 Q774.336 440.333 777.227 440.333 Q779.368 440.333 780.969 441.193 Q782.571 442.052 783.625 443.661 Q784.680 445.271 785.274 447.591 Q785.868 449.911 785.868 453.849 Q785.868 458.490 784.907 461.349 Q783.946 464.208 782.039 465.771 Q780.133 467.333 777.227 467.333 Q773.399 467.333 771.211 464.599 Q768.586 461.286 768.586 453.849 Z M771.930 453.833 Q771.930 460.146 773.461 462.240 Q774.993 464.333 777.227 464.333 Q779.461 464.333 780.993 462.232 Q782.524 460.130 782.524 453.833 Q782.524 447.505 780.993 445.419 Q779.461 443.333 777.196 443.333 Q774.946 443.333 773.618 445.177 Q771.930 447.521 771.930 453.833 Z"/>
  <path d="M867.569 447.333 L864.335 447.333 Q863.897 445.505 863.100 444.661 Q861.788 443.333 859.850 443.333 Q858.304 443.333 857.132 444.099 Q855.600 445.099 854.710 447.013 Q853.819 448.927 853.788 452.865 Q854.960 451.068 856.655 450.201 Q858.350 449.333 860.225 449.333 Q863.475 449.333 865.757 451.779 Q868.038 454.224 868.038 458.099 Q868.038 460.646 866.960 462.826 Q865.882 465.005 864.007 466.169 Q862.132 467.333 859.741 467.333 Q855.679 467.333 853.116 464.349 Q850.554 461.365 850.554 454.505 Q850.554 446.849 853.397 443.365 Q855.866 440.333 860.054 440.333 Q863.179 440.333 865.179 442.193 Q867.179 444.052 867.569 447.333 Z M854.288 458.021 Q854.288 459.693 854.999 461.216 Q855.710 462.740 856.999 463.536 Q858.288 464.333 859.694 464.333 Q861.757 464.333 863.241 462.685 Q864.725 461.036 864.725 458.193 Q864.725 455.474 863.257 453.904 Q861.788 452.333 859.569 452.333 Q857.366 452.333 855.827 453.904 Q854.288 455.474 854.288 458.021 Z"/>
  <path d="M872.913 467.333 L872.913 464.333 L876.616 464.333 L876.616 467.333 L872.913 467.333 Z"/>
  <path d="M881.272 453.849 Q881.272 449.146 882.241 446.294 Q883.210 443.443 885.116 441.888 Q887.022 440.333 889.913 440.333 Q892.054 440.333 893.655 441.193 Q895.257 442.052 896.311 443.661 Q897.366 445.271 897.960 447.591 Q898.554 449.911 898.554 453.849 Q898.554 458.490 897.593 461.349 Q896.632 464.208 894.725 465.771 Q892.819 467.333 889.913 467.333 Q886.085 467.333 883.897 464.599 Q881.272 461.286 881.272 453.849 Z M884.616 453.833 Q884.616 460.146 886.147 462.240 Q887.679 464.333 889.913 464.333 Q892.147 464.333 893.679 462.232 Q895.210 460.130 895.210 453.833 Q895.210 447.505 893.679 445.419 Q892.147 443.333 889.882 443.333 Q887.632 443.333 886.304 445.177 Q884.616 447.521 884.616 453.833 Z"/>
  <path d="M198.531 404 L198.531 36.667" fill="none" stroke="#000000" stroke-width="3.333"/>
  <path d="M198.531 404 L211.865 404" fill="none" stroke="#000000" stroke-width="3.333"/>
  <path d="M198.531 376.355 L211.865 376.355" fill="none" stroke="#000000" stroke-width="3.333"/>
  <path d="M198.531 360.184 L211.865 360.184" fill="none" stroke="#000000" stroke-width="3.333"/>
  <path d="M198.531 348.711 L211.865 348.711" fill="none" stroke="#000000" stroke-width="3.333"/>
  <path d="M198.531 339.811 L211.865 339.811" fill="none" stroke="#000000" stroke-width="3.333"/>
  <path d="M198.531 332.540 L211.865 332.540" fill="none" stroke="#000000" stroke-width="3.333"/>
  <path d="M198.531 326.392 L211.865 326.392" fill="none" stroke="#000000" stroke-width="3.333"/>
  <path d="M198.531 321.066 L211.865 321.066" fill="none" stroke="#000000" stroke-width="3.333"/>
  <path d="M198.531 316.369 L211.865 316.369" fill="none" stroke="#000000" stroke-width="3.333"/>
  <path d="M198.531 312.167 L211.865 312.167" fill="none" stroke="#000000" stroke-width="3.333"/>
  <path d="M198.531 284.522 L211.865 284.522" fill="none" stroke="#000000" stroke-width="3.333"/>
  <path d="M198.531 268.351 L211.865 268.351" fill="none" stroke="#000000" stroke-width="3.333"/>
  <path d="M198.531 256.877 L211.865 256.877" fill="none" stroke="#000000" stroke-width="3.333"/>
  <path d="M198.531 247.978 L211.865 247.978" fill="none" stroke="#000000" stroke-width="3.333"/>
  <path d="M198.531 240.706 L211.865 240.706" fill="none" stroke="#000000" stroke-width="3.333"/>
  <path d="M198.531 234.558 L211.865 234.558" fill="none" stroke="#000000" stroke-width="3.333"/>
  <path d="M198.531 229.233 L211.865 229.233" fill="none" stroke="#000000" stroke-width="3.333"/>
  <path d="M198.531 224.535 L211.865 224.535" fill="none" stroke="#000000" stroke-width="3.333"/>
  <path d="M198.531 220.333 L211.865 220.333" fill="none" stroke="#000000" stroke-width="3.333"/>
  <path d="M198.531 192.689 L211.865 192.689" fill="none" stroke="#000000" stroke-width="3.333"/>
  <path d="M198.531 176.518 L211.865 176.518" fill="none" stroke="#000000" stroke-width="3.333"/>
  <path d="M198.531 165.044 L211.865 165.044" fill="none" stroke="#000000" stroke-width="3.333"/>
  <path d="M198.531 156.145 L211.865 156.145" fill="none" stroke="#000000" stroke-width="3.333"/>
  <path d="M198.531 148.873 L211.865 148.873" fill="none" stroke="#000000" stroke-width="3.333"/>
  <path d="M198.531 142.725 L211.865 142.725" fill="none" stroke="#000000" stroke-width="3.333"/>
  <path d="M198.531 137.400 L211.865 137.400" fill="none" stroke="#000000" stroke-width="3.333"/>
  <path d="M198.531 132.702 L211.865 132.702" fill="none" stroke="#000000" stroke-width="3.333"/>
  <path d="M198.531 128.500 L211.865 128.500" fill="none" stroke="#000000" stroke-width="3.333"/>
  <path d="M198.531 100.855 L211.865 100.855" fill="none" stroke="#000000" stroke-width="3.333"/>
  <path d="M198.531 84.684 L211.865 84.684" fill="none" stroke="#000000" stroke-width="3.333"/>
  <path d="M198.531 73.211 L211.865 73.211" fill="none" stroke="#000000" stroke-width="3.333"/>
  <path d="M198.531 64.311 L211.865 64.311" fill="none" stroke="#000000" stroke-width="3.333"/>
  <path d="M198.531 57.040 L211.865 57.040" fill="none" stroke="#000000" stroke-width="3.333"/>
  <path d="M198.531 50.892 L211.865 50.892" fill="none" stroke="#000000" stroke-width="3.333"/>
  <path d="M198.531 45.566 L211.865 45.566" fill="none" stroke="#000000" stroke-width="3.333"/>
  <path d="M198.531 40.869 L211.865 40.869" fill="none" stroke="#000000" stroke-width="3.333"/>
  <path d="M198.531 36.667 L211.865 36.667" fill="none" stroke="#000000" stroke-width="3.333"/>
  <path d="M132.010 417 L128.760 417 L128.760 395.969 Q127.589 397.109 125.682 398.242 Q123.776 399.375 122.260 399.938 L122.260 396.750 Q124.995 395.453 127.034 393.602 Q129.073 391.750 129.917 390 L132.010 390 L132.010 417 Z"/>
  <path d="M141.979 417 L141.979 414 L145.682 414 L145.682 417 L141.979 417 Z"/>
  <path d="M150.339 403.516 Q150.339 398.812 151.307 395.961 Q152.276 393.109 154.182 391.555 Q156.089 390 158.979 390 Q161.120 390 162.721 390.859 Q164.323 391.719 165.378 393.328 Q166.432 394.938 167.026 397.258 Q167.620 399.578 167.620 403.516 Q167.620 408.156 166.659 411.016 Q165.698 413.875 163.792 415.438 Q161.885 417 158.979 417 Q155.151 417 152.964 414.266 Q150.339 410.953 150.339 403.516 Z M153.682 403.500 Q153.682 409.812 155.214 411.906 Q156.745 414 158.979 414 Q161.214 414 162.745 411.898 Q164.276 409.797 164.276 403.500 Q164.276 397.172 162.745 395.086 Q161.214 393 158.948 393 Q156.698 393 155.370 394.844 Q153.682 397.188 153.682 403.500 Z"/>
  <path d="M111.620 325.167 L108.370 325.167 L108.370 304.135 Q107.198 305.276 105.292 306.409 Q103.385 307.542 101.870 308.104 L101.870 304.917 Q104.604 303.620 106.643 301.768 Q108.682 299.917 109.526 298.167 L111.620 298.167 L111.620 325.167 Z"/>
  <path d="M119.760 311.682 Q119.760 306.979 120.729 304.128 Q121.698 301.276 123.604 299.721 Q125.510 298.167 128.401 298.167 Q130.542 298.167 132.143 299.026 Q133.745 299.885 134.799 301.495 Q135.854 303.104 136.448 305.424 Q137.042 307.745 137.042 311.682 Q137.042 316.323 136.081 319.182 Q135.120 322.042 133.214 323.604 Q131.307 325.167 128.401 325.167 Q124.573 325.167 122.385 322.432 Q119.760 319.120 119.760 311.682 Z M123.104 311.667 Q123.104 317.979 124.635 320.073 Q126.167 322.167 128.401 322.167 Q130.635 322.167 132.167 320.065 Q133.698 317.964 133.698 311.667 Q133.698 305.339 132.167 303.253 Q130.635 301.167 128.370 301.167 Q126.120 301.167 124.792 303.010 Q123.104 305.354 123.104 311.667 Z"/>
  <path d="M141.979 325.167 L141.979 322.167 L145.682 322.167 L145.682 325.167 L141.979 325.167 Z"/>
  <path d="M150.339 311.682 Q150.339 306.979 151.307 304.128 Q152.276 301.276 154.182 299.721 Q156.089 298.167 158.979 298.167 Q161.120 298.167 162.721 299.026 Q164.323 299.885 165.378 301.495 Q166.432 303.104 167.026 305.424 Q167.620 307.745 167.620 311.682 Q167.620 316.323 166.659 319.182 Q165.698 322.042 163.792 323.604 Q161.885 325.167 158.979 325.167 Q155.151 325.167 152.964 322.432 Q150.339 319.120 150.339 311.682 Z M153.682 311.667 Q153.682 317.979 155.214 320.073 Q156.745 322.167 158.979 322.167 Q161.214 322.167 162.745 320.065 Q164.276 317.964 164.276 311.667 Q164.276 305.339 162.745 303.253 Q161.214 301.167 158.948 301.167 Q156.698 301.167 155.370 303.010 Q153.682 305.354 153.682 311.667 Z"/>
  <path d="M91.229 233.333 L87.979 233.333 L87.979 212.302 Q86.807 213.443 84.901 214.576 Q82.995 215.708 81.479 216.271 L81.479 213.083 Q84.214 211.786 86.253 209.935 Q88.292 208.083 89.135 206.333 L91.229 206.333 L91.229 233.333 Z"/>
  <path d="M99.370 219.849 Q99.370 215.146 100.339 212.294 Q101.307 209.443 103.214 207.888 Q105.120 206.333 108.010 206.333 Q110.151 206.333 111.753 207.193 Q113.354 208.052 114.409 209.661 Q115.464 211.271 116.057 213.591 Q116.651 215.911 116.651 219.849 Q116.651 224.490 115.690 227.349 Q114.729 230.208 112.823 231.771 Q110.917 233.333 108.010 233.333 Q104.182 233.333 101.995 230.599 Q99.370 227.286 99.370 219.849 Z M102.714 219.833 Q102.714 226.146 104.245 228.240 Q105.776 230.333 108.010 230.333 Q110.245 230.333 111.776 228.232 Q113.307 226.130 113.307 219.833 Q113.307 213.505 111.776 211.419 Q110.245 209.333 107.979 209.333 Q105.729 209.333 104.401 211.177 Q102.714 213.521 102.714 219.833 Z"/>
  <path d="M119.760 219.849 Q119.760 215.146 120.729 212.294 Q121.698 209.443 123.604 207.888 Q125.510 206.333 128.401 206.333 Q130.542 206.333 132.143 207.193 Q133.745 208.052 134.799 209.661 Q135.854 211.271 136.448 213.591 Q137.042 215.911 137.042 219.849 Q137.042 224.490 136.081 227.349 Q135.120 230.208 133.214 231.771 Q131.307 233.333 128.401 233.333 Q124.573 233.333 122.385 230.599 Q119.760 227.286 119.760 219.849 Z M123.104 219.833 Q123.104 226.146 124.635 228.240 Q126.167 230.333 128.401 230.333 Q130.635 230.333 132.167 228.232 Q133.698 226.130 133.698 219.833 Q133.698 213.505 132.167 211.419 Q130.635 209.333 128.370 209.333 Q126.120 209.333 124.792 211.177 Q123.104 213.521 123.104 219.833 Z"/>
  <path d="M141.979 233.333 L141.979 230.333 L145.682 230.333 L145.682 233.333 L141.979 233.333 Z"/>
  <path d="M150.339 219.849 Q150.339 215.146 151.307 212.294 Q152.276 209.443 154.182 207.888 Q156.089 206.333 158.979 206.333 Q161.120 206.333 162.721 207.193 Q164.323 208.052 165.378 209.661 Q166.432 211.271 167.026 213.591 Q167.620 215.911 167.620 219.849 Q167.620 224.490 166.659 227.349 Q165.698 230.208 163.792 231.771 Q161.885 233.333 158.979 233.333 Q155.151 233.333 152.964 230.599 Q150.339 227.286 150.339 219.849 Z M153.682 219.833 Q153.682 226.146 155.214 228.240 Q156.745 230.333 158.979 230.333 Q161.214 230.333 162.745 228.232 Q164.276 226.130 164.276 219.833 Q164.276 213.505 162.745 211.419 Q161.214 209.333 158.948 209.333 Q156.698 209.333 155.370 211.177 Q153.682 213.521 153.682 219.833 Z"/>
  <path d="M70.839 141.500 L67.589 141.500 L67.589 120.469 Q66.417 121.609 64.510 122.742 Q62.604 123.875 61.089 124.438 L61.089 121.250 Q63.823 119.953 65.862 118.102 Q67.901 116.250 68.745 114.500 L70.839 114.500 L70.839 141.500 Z"/>
  <path d="M78.979 128.016 Q78.979 123.313 79.948 120.461 Q80.917 117.609 82.823 116.055 Q84.729 114.500 87.620 114.500 Q89.760 114.500 91.362 115.359 Q92.964 116.219 94.018 117.828 Q95.073 119.438 95.667 121.758 Q96.260 124.078 96.260 128.016 Q96.260 132.656 95.299 135.516 Q94.339 138.375 92.432 139.938 Q90.526 141.500 87.620 141.500 Q83.792 141.500 81.604 138.766 Q78.979 135.453 78.979 128.016 Z M82.323 128.000 Q82.323 134.313 83.854 136.406 Q85.385 138.500 87.620 138.500 Q89.854 138.500 91.385 136.398 Q92.917 134.297 92.917 128.000 Q92.917 121.672 91.385 119.586 Q89.854 117.500 87.589 117.500 Q85.339 117.500 84.010 119.344 Q82.323 121.688 82.323 128.000 Z"/>
  <path d="M99.370 128.016 Q99.370 123.313 100.339 120.461 Q101.307 117.609 103.214 116.055 Q105.120 114.500 108.010 114.500 Q110.151 114.500 111.753 115.359 Q113.354 116.219 114.409 117.828 Q115.464 119.438 116.057 121.758 Q116.651 124.078 116.651 128.016 Q116.651 132.656 115.690 135.516 Q114.729 138.375 112.823 139.938 Q110.917 141.500 108.010 141.500 Q104.182 141.500 101.995 138.766 Q99.370 135.453 99.370 128.016 Z M102.714 128.000 Q102.714 134.313 104.245 136.406 Q105.776 138.500 108.010 138.500 Q110.245 138.500 111.776 136.398 Q113.307 134.297 113.307 128.000 Q113.307 121.672 111.776 119.586 Q110.245 117.500 107.979 117.500 Q105.729 117.500 104.401 119.344 Q102.714 121.688 102.714 128.000 Z"/>
  <path d="M119.760 128.016 Q119.760 123.313 120.729 120.461 Q121.698 117.609 123.604 116.055 Q125.510 114.500 128.401 114.500 Q130.542 114.500 132.143 115.359 Q133.745 116.219 134.799 117.828 Q135.854 119.438 136.448 121.758 Q137.042 124.078 137.042 128.016 Q137.042 132.656 136.081 135.516 Q135.120 138.375 133.214 139.938 Q131.307 141.500 128.401 141.500 Q124.573 141.500 122.385 138.766 Q119.760 135.453 119.760 128.016 Z M123.104 128.000 Q123.104 134.313 124.635 136.406 Q126.167 138.500 128.401 138.500 Q130.635 138.500 132.167 136.398 Q133.698 134.297 133.698 128.000 Q133.698 121.672 132.167 119.586 Q130.635 117.500 128.370 117.500 Q126.120 117.500 124.792 119.344 Q123.104 121.688 123.104 128.000 Z"/>
  <path d="M141.979 141.500 L141.979 138.500 L145.682 138.500 L145.682 141.500 L141.979 141.500 Z"/>
  <path d="M150.339 128.016 Q150.339 123.313 151.307 120.461 Q152.276 117.609 154.182 116.055 Q156.089 114.500 158.979 114.500 Q161.120 114.500 162.721 115.359 Q164.323 116.219 165.378 117.828 Q166.432 119.438 167.026 121.758 Q167.620 124.078 167.620 128.016 Q167.620 132.656 166.659 135.516 Q165.698 138.375 163.792 139.938 Q161.885 141.500 158.979 141.500 Q155.151 141.500 152.964 138.766 Q150.339 135.453 150.339 128.016 Z M153.682 128.000 Q153.682 134.313 155.214 136.406 Q156.745 138.500 158.979 138.500 Q161.214 138.500 162.745 136.398 Q164.276 134.297 164.276 128.000 Q164.276 121.672 162.745 119.586 Q161.214 117.500 158.948 117.500 Q156.698 117.500 155.370 119.344 Q153.682 121.688 153.682 128.000 Z"/>
  <path d="M50.448 49.667 L47.198 49.667 L47.198 28.635 Q46.026 29.776 44.120 30.909 Q42.214 32.042 40.698 32.604 L40.698 29.417 Q43.432 28.120 45.471 26.268 Q47.510 24.417 48.354 22.667 L50.448 22.667 L50.448 49.667 Z"/>
  <path d="M58.589 36.182 Q58.589 31.479 59.557 28.628 Q60.526 25.776 62.432 24.221 Q64.339 22.667 67.229 22.667 Q69.370 22.667 70.971 23.526 Q72.573 24.385 73.628 25.995 Q74.682 27.604 75.276 29.924 Q75.870 32.245 75.870 36.182 Q75.870 40.823 74.909 43.682 Q73.948 46.542 72.042 48.104 Q70.135 49.667 67.229 49.667 Q63.401 49.667 61.214 46.932 Q58.589 43.620 58.589 36.182 Z M61.932 36.167 Q61.932 42.479 63.464 44.573 Q64.995 46.667 67.229 46.667 Q69.464 46.667 70.995 44.565 Q72.526 42.464 72.526 36.167 Q72.526 29.839 70.995 27.753 Q69.464 25.667 67.198 25.667 Q64.948 25.667 63.620 27.510 Q61.932 29.854 61.932 36.167 Z"/>
  <path d="M78.979 36.182 Q78.979 31.479 79.948 28.628 Q80.917 25.776 82.823 24.221 Q84.729 22.667 87.620 22.667 Q89.760 22.667 91.362 23.526 Q92.964 24.385 94.018 25.995 Q95.073 27.604 95.667 29.924 Q96.260 32.245 96.260 36.182 Q96.260 40.823 95.299 43.682 Q94.339 46.542 92.432 48.104 Q90.526 49.667 87.620 49.667 Q83.792 49.667 81.604 46.932 Q78.979 43.620 78.979 36.182 Z M82.323 36.167 Q82.323 42.479 83.854 44.573 Q85.385 46.667 87.620 46.667 Q89.854 46.667 91.385 44.565 Q92.917 42.464 92.917 36.167 Q92.917 29.839 91.385 27.753 Q89.854 25.667 87.589 25.667 Q85.339 25.667 84.010 27.510 Q82.323 29.854 82.323 36.167 Z"/>
  <path d="M99.370 36.182 Q99.370 31.479 100.339 28.628 Q101.307 25.776 103.214 24.221 Q105.120 22.667 108.010 22.667 Q110.151 22.667 111.753 23.526 Q113.354 24.385 114.409 25.995 Q115.464 27.604 116.057 29.924 Q116.651 32.245 116.651 36.182 Q116.651 40.823 115.690 43.682 Q114.729 46.542 112.823 48.104 Q110.917 49.667 108.010 49.667 Q104.182 49.667 101.995 46.932 Q99.370 43.620 99.370 36.182 Z M102.714 36.167 Q102.714 42.479 104.245 44.573 Q105.776 46.667 108.010 46.667 Q110.245 46.667 111.776 44.565 Q113.307 42.464 113.307 36.167 Q113.307 29.839 111.776 27.753 Q110.245 25.667 107.979 25.667 Q105.729 25.667 104.401 27.510 Q102.714 29.854 102.714 36.167 Z"/>
  <path d="M119.760 36.182 Q119.760 31.479 120.729 28.628 Q121.698 25.776 123.604 24.221 Q125.510 22.667 128.401 22.667 Q130.542 22.667 132.143 23.526 Q133.745 24.385 134.799 25.995 Q135.854 27.604 136.448 29.924 Q137.042 32.245 137.042 36.182 Q137.042 40.823 136.081 43.682 Q135.120 46.542 133.214 48.104 Q131.307 49.667 128.401 49.667 Q124.573 49.667 122.385 46.932 Q119.760 43.620 119.760 36.182 Z M123.104 36.167 Q123.104 42.479 124.635 44.573 Q126.167 46.667 128.401 46.667 Q130.635 46.667 132.167 44.565 Q133.698 42.464 133.698 36.167 Q133.698 29.839 132.167 27.753 Q130.635 25.667 128.370 25.667 Q126.120 25.667 124.792 27.510 Q123.104 29.854 123.104 36.167 Z"/>
  <path d="M141.979 49.667 L141.979 46.667 L145.682 46.667 L145.682 49.667 L141.979 49.667 Z"/>
  <path d="M150.339 36.182 Q150.339 31.479 151.307 28.628 Q152.276 25.776 154.182 24.221 Q156.089 22.667 158.979 22.667 Q161.120 22.667 162.721 23.526 Q164.323 24.385 165.378 25.995 Q166.432 27.604 167.026 29.924 Q167.620 32.245 167.620 36.182 Q167.620 40.823 166.659 43.682 Q165.698 46.542 163.792 48.104 Q161.885 49.667 158.979 49.667 Q155.151 49.667 152.964 46.932 Q150.339 43.620 150.339 36.182 Z M153.682 36.167 Q153.682 42.479 155.214 44.573 Q156.745 46.667 158.979 46.667 Q161.214 46.667 162.745 44.565 Q164.276 42.464 164.276 36.167 Q164.276 29.839 162.745 27.753 Q161.214 25.667 158.948 25.667 Q156.698 25.667 155.370 27.510 Q153.682 29.854 153.682 36.167 Z"/>
  <path d="M278.217 404 L278.217 64.752 L344.217 64.752 L344.217 404 Z" fill="#666666"/>
  <path d="M390.903 404 L390.903 252.180 L456.903 252.180 L456.903 404 Z" fill="#666666"/>
  <path d="M503.589 404 L503.589 332.540 L569.589 332.540 L569.589 404 Z" fill="#666666"/>
  <path d="M616.275 404 L616.275 348.711 L682.275 348.711 L682.275 404 Z" fill="#666666"/>
  <path d="M728.961 404 L728.961 376.355 L794.961 376.355 L794.961 404 Z" fill="#666666"/>
  <path d="M841.647 404 L841.647 404 L907.647 404 L907.647 404 Z" fill="#666666"/>
</svg>
