<?xml version="1.0" encoding="UTF-8" ?>
<!-- Generated by clip v0.8.0 (clip-lang.org) -->
<svg xmlns="http://www.w3.org/2000/svg" width="2048" height="512">
  <rect width="2048" height="512" fill="#ffffff" fill-opacity="1"/>
  <path d="M218.266 404 L2011.333 404" fill="none" stroke="#000000" stroke-width="3.333"/>
  <path d="M442.399 404 L442.399 390.667" fill="none" stroke="#000000" stroke-width="3.333"/>
  <path d="M666.533 404 L666.533 390.667" fill="none" stroke="#000000" stroke-width="3.333"/>
  <path d="M890.666 404 L890.666 390.667" fill="none" stroke="#000000" stroke-width="3.333"/>
  <path d="M1114.799 404 L1114.799 390.667" fill="none" stroke="#000000" stroke-width="3.333"/>
  <path d="M1338.933 404 L1338.933 390.667" fill="none" stroke="#000000" stroke-width="3.333"/>
  <path d="M1563.066 404 L1563.066 390.667" fill="none" stroke="#000000" stroke-width="3.333"/>
  <path d="M1787.200 404 L1787.200 390.667" fill="none" stroke="#000000" stroke-width="3.333"/>
  <path d="M2011.333 404 L2011.333 390.667" fill="none" stroke="#000000" stroke-width="3.333"/>
  <path d="M372.571 453.849 Q372.571 449.146 373.540 446.294 Q374.508 443.443 376.415 441.888 Q378.321 440.333 381.212 440.333 Q383.352 440.333 384.954 441.193 Q386.555 442.052 387.610 443.661 Q388.665 445.271 389.258 447.591 Q389.852 449.911 389.852 453.849 Q389.852 458.490 388.891 461.349 Q387.930 464.208 386.024 465.771 Q384.118 467.333 381.212 467.333 Q377.383 467.333 375.196 464.599 Q372.571 461.286 372.571 453.849 Z M375.915 453.833 Q375.915 460.146 377.446 462.240 Q378.977 464.333 381.212 464.333 Q383.446 464.333 384.977 462.232 Q386.508 460.130 386.508 453.833 Q386.508 447.505 384.977 445.419 Q383.446 443.333 381.180 443.333 Q378.930 443.333 377.602 445.177 Q375.915 447.521 375.915 453.833 Z"/>
  <path d="M392.962 453.849 Q392.962 449.146 393.930 446.294 Q394.899 443.443 396.805 441.888 Q398.712 440.333 401.602 440.333 Q403.743 440.333 405.344 441.193 Q406.946 442.052 408.001 443.661 Q409.055 445.271 409.649 447.591 Q410.243 449.911 410.243 453.849 Q410.243 458.490 409.282 461.349 Q408.321 464.208 406.415 465.771 Q404.508 467.333 401.602 467.333 Q397.774 467.333 395.587 464.599 Q392.962 461.286 392.962 453.849 Z M396.305 453.833 Q396.305 460.146 397.837 462.240 Q399.368 464.333 401.602 464.333 Q403.837 464.333 405.368 462.232 Q406.899 460.130 406.899 453.833 Q406.899 447.505 405.368 445.419 Q403.837 443.333 401.571 443.333 Q399.321 443.333 397.993 445.177 Q396.305 447.521 396.305 453.833 Z"/>
  <path d="M415.165 450.333 L415.165 447.333 L418.868 447.333 L418.868 450.333 L415.165 450.333 Z M415.165 467.333 L415.165 464.333 L418.868 464.333 L418.868 467.333 L415.165 467.333 Z"/>
  <path d="M435.790 467.333 L432.540 467.333 L432.540 446.302 Q431.368 447.443 429.462 448.576 Q427.555 449.708 426.040 450.271 L426.040 447.083 Q428.774 445.786 430.813 443.935 Q432.852 442.083 433.696 440.333 L435.790 440.333 L435.790 467.333 Z"/>
  <path d="M443.930 460.333 L447.352 460.333 Q447.727 462.333 449.110 463.333 Q450.493 464.333 452.446 464.333 Q454.790 464.333 456.415 462.630 Q458.040 460.927 458.040 458.115 Q458.040 455.427 456.477 453.880 Q454.915 452.333 452.383 452.333 Q450.821 452.333 449.555 452.888 Q448.290 453.443 447.571 454.333 L444.508 454.333 L447.071 440.333 L460.243 440.333 L460.243 443.333 L449.680 443.333 L448.258 451.068 Q450.649 449.333 453.258 449.333 Q456.727 449.333 459.110 451.732 Q461.493 454.130 461.493 457.911 Q461.493 461.505 459.399 464.115 Q456.852 467.333 452.446 467.333 Q448.821 467.333 446.540 465.419 Q444.258 463.505 443.930 460.333 Z"/>
  <path d="M466.133 450.333 L466.133 447.333 L469.837 447.333 L469.837 450.333 L466.133 450.333 Z M466.133 467.333 L466.133 464.333 L469.837 464.333 L469.837 467.333 L466.133 467.333 Z"/>
  <path d="M474.508 453.849 Q474.508 449.146 475.477 446.294 Q476.446 443.443 478.352 441.888 Q480.258 440.333 483.149 440.333 Q485.290 440.333 486.891 441.193 Q488.493 442.052 489.548 443.661 Q490.602 445.271 491.196 447.591 Q491.790 449.911 491.790 453.849 Q491.790 458.490 490.829 461.349 Q489.868 464.208 487.962 465.771 Q486.055 467.333 483.149 467.333 Q479.321 467.333 477.133 464.599 Q474.508 461.286 474.508 453.849 Z M477.852 453.833 Q477.852 460.146 479.383 462.240 Q480.915 464.333 483.149 464.333 Q485.383 464.333 486.915 462.232 Q488.446 460.130 488.446 453.833 Q488.446 447.505 486.915 445.419 Q485.383 443.333 483.118 443.333 Q480.868 443.333 479.540 445.177 Q477.852 447.521 477.852 453.833 Z"/>
  <path d="M494.899 453.849 Q494.899 449.146 495.868 446.294 Q496.837 443.443 498.743 441.888 Q500.649 440.333 503.540 440.333 Q505.680 440.333 507.282 441.193 Q508.883 442.052 509.938 443.661 Q510.993 445.271 511.587 447.591 Q512.180 449.911 512.180 453.849 Q512.180 458.490 511.219 461.349 Q510.258 464.208 508.352 465.771 Q506.446 467.333 503.540 467.333 Q499.712 467.333 497.524 464.599 Q494.899 461.286 494.899 453.849 Z M498.243 453.833 Q498.243 460.146 499.774 462.240 Q501.305 464.333 503.540 464.333 Q505.774 464.333 507.305 462.232 Q508.837 460.130 508.837 453.833 Q508.837 447.505 507.305 445.419 Q505.774 443.333 503.508 443.333 Q501.258 443.333 499.930 445.177 Q498.243 447.521 498.243 453.833 Z"/>
  <path d="M596.704 453.849 Q596.704 449.146 597.673 446.294 Q598.642 443.443 600.548 441.888 Q602.454 440.333 605.345 440.333 Q607.486 440.333 609.087 441.193 Q610.689 442.052 611.743 443.661 Q612.798 445.271 613.392 447.591 Q613.986 449.911 613.986 453.849 Q613.986 458.490 613.025 461.349 Q612.064 464.208 610.158 465.771 Q608.251 467.333 605.345 467.333 Q601.517 467.333 599.329 464.599 Q596.704 461.286 596.704 453.849 Z M600.048 453.833 Q600.048 460.146 601.579 462.240 Q603.111 464.333 605.345 464.333 Q607.579 464.333 609.111 462.232 Q610.642 460.130 610.642 453.833 Q610.642 447.505 609.111 445.419 Q607.579 443.333 605.314 443.333 Q603.064 443.333 601.736 445.177 Q600.048 447.521 600.048 453.833 Z"/>
  <path d="M617.095 453.849 Q617.095 449.146 618.064 446.294 Q619.033 443.443 620.939 441.888 Q622.845 440.333 625.736 440.333 Q627.876 440.333 629.478 441.193 Q631.079 442.052 632.134 443.661 Q633.189 445.271 633.783 447.591 Q634.376 449.911 634.376 453.849 Q634.376 458.490 633.415 461.349 Q632.454 464.208 630.548 465.771 Q628.642 467.333 625.736 467.333 Q621.908 467.333 619.720 464.599 Q617.095 461.286 617.095 453.849 Z M620.439 453.833 Q620.439 460.146 621.970 462.240 Q623.501 464.333 625.736 464.333 Q627.970 464.333 629.501 462.232 Q631.033 460.130 631.033 453.833 Q631.033 447.505 629.501 445.419 Q627.970 443.333 625.704 443.333 Q623.454 443.333 622.126 445.177 Q620.439 447.521 620.439 453.833 Z"/>
  <path d="M639.298 450.333 L639.298 447.333 L643.001 447.333 L643.001 450.333 L639.298 450.333 Z M639.298 467.333 L639.298 464.333 L643.001 464.333 L643.001 467.333 L639.298 467.333 Z"/>
  <path d="M647.689 460.333 L650.954 460.333 Q651.517 462.458 652.861 463.396 Q654.204 464.333 656.142 464.333 Q658.439 464.333 660.017 462.794 Q661.595 461.255 661.595 458.974 Q661.595 456.802 660.134 455.380 Q658.673 453.958 656.408 453.958 Q655.486 453.958 654.111 454.333 L654.470 451.333 Q654.798 451.365 655.001 451.365 Q657.079 451.365 658.736 450.349 Q660.392 449.333 660.392 447.208 Q660.392 445.536 659.181 444.435 Q657.970 443.333 656.048 443.333 Q654.158 443.333 652.892 444.333 Q651.626 445.333 651.267 447.333 L648.017 447.333 Q648.611 444.005 650.728 442.169 Q652.845 440.333 655.986 440.333 Q658.158 440.333 659.978 441.255 Q661.798 442.177 662.767 443.763 Q663.736 445.349 663.736 447.130 Q663.736 448.818 662.814 450.208 Q661.892 451.599 660.095 452.427 Q662.439 452.974 663.736 454.693 Q665.033 456.411 665.033 458.990 Q665.033 462.474 662.501 464.904 Q659.970 467.333 656.111 467.333 Q652.626 467.333 650.322 465.388 Q648.017 463.443 647.689 460.333 Z"/>
  <path d="M668.064 453.849 Q668.064 449.146 669.033 446.294 Q670.001 443.443 671.908 441.888 Q673.814 440.333 676.704 440.333 Q678.845 440.333 680.447 441.193 Q682.048 442.052 683.103 443.661 Q684.158 445.271 684.751 447.591 Q685.345 449.911 685.345 453.849 Q685.345 458.490 684.384 461.349 Q683.423 464.208 681.517 465.771 Q679.611 467.333 676.704 467.333 Q672.876 467.333 670.689 464.599 Q668.064 461.286 668.064 453.849 Z M671.408 453.833 Q671.408 460.146 672.939 462.240 Q674.470 464.333 676.704 464.333 Q678.939 464.333 680.470 462.232 Q682.001 460.130 682.001 453.833 Q682.001 447.505 680.470 445.419 Q678.939 443.333 676.673 443.333 Q674.423 443.333 673.095 445.177 Q671.408 447.521 671.408 453.833 Z"/>
  <path d="M690.267 450.333 L690.267 447.333 L693.970 447.333 L693.970 450.333 L690.267 450.333 Z M690.267 467.333 L690.267 464.333 L693.970 464.333 L693.970 467.333 L690.267 467.333 Z"/>
  <path d="M698.642 453.849 Q698.642 449.146 699.611 446.294 Q700.579 443.443 702.486 441.888 Q704.392 440.333 707.283 440.333 Q709.423 440.333 711.025 441.193 Q712.626 442.052 713.681 443.661 Q714.736 445.271 715.329 447.591 Q715.923 449.911 715.923 453.849 Q715.923 458.490 714.962 461.349 Q714.001 464.208 712.095 465.771 Q710.189 467.333 707.283 467.333 Q703.454 467.333 701.267 464.599 Q698.642 461.286 698.642 453.849 Z M701.986 453.833 Q701.986 460.146 703.517 462.240 Q705.048 464.333 707.283 464.333 Q709.517 464.333 711.048 462.232 Q712.579 460.130 712.579 453.833 Q712.579 447.505 711.048 445.419 Q709.517 443.333 707.251 443.333 Q705.001 443.333 703.673 445.177 Q701.986 447.521 701.986 453.833 Z"/>
  <path d="M719.033 453.849 Q719.033 449.146 720.001 446.294 Q720.970 443.443 722.876 441.888 Q724.783 440.333 727.673 440.333 Q729.814 440.333 731.415 441.193 Q733.017 442.052 734.072 443.661 Q735.126 445.271 735.720 447.591 Q736.314 449.911 736.314 453.849 Q736.314 458.490 735.353 461.349 Q734.392 464.208 732.486 465.771 Q730.579 467.333 727.673 467.333 Q723.845 467.333 721.658 464.599 Q719.033 461.286 719.033 453.849 Z M722.376 453.833 Q722.376 460.146 723.908 462.240 Q725.439 464.333 727.673 464.333 Q729.908 464.333 731.439 462.232 Q732.970 460.130 732.970 453.833 Q732.970 447.505 731.439 445.419 Q729.908 443.333 727.642 443.333 Q725.392 443.333 724.064 445.177 Q722.376 447.521 722.376 453.833 Z"/>
  <path d="M820.838 453.849 Q820.838 449.146 821.807 446.294 Q822.775 443.443 824.682 441.888 Q826.588 440.333 829.479 440.333 Q831.619 440.333 833.221 441.193 Q834.822 442.052 835.877 443.661 Q836.932 445.271 837.525 447.591 Q838.119 449.911 838.119 453.849 Q838.119 458.490 837.158 461.349 Q836.197 464.208 834.291 465.771 Q832.385 467.333 829.479 467.333 Q825.650 467.333 823.463 464.599 Q820.838 461.286 820.838 453.849 Z M824.182 453.833 Q824.182 460.146 825.713 462.240 Q827.244 464.333 829.479 464.333 Q831.713 464.333 833.244 462.232 Q834.775 460.130 834.775 453.833 Q834.775 447.505 833.244 445.419 Q831.713 443.333 829.447 443.333 Q827.197 443.333 825.869 445.177 Q824.182 447.521 824.182 453.833 Z"/>
  <path d="M841.229 453.849 Q841.229 449.146 842.197 446.294 Q843.166 443.443 845.072 441.888 Q846.979 440.333 849.869 440.333 Q852.010 440.333 853.611 441.193 Q855.213 442.052 856.268 443.661 Q857.322 445.271 857.916 447.591 Q858.510 449.911 858.510 453.849 Q858.510 458.490 857.549 461.349 Q856.588 464.208 854.682 465.771 Q852.775 467.333 849.869 467.333 Q846.041 467.333 843.854 464.599 Q841.229 461.286 841.229 453.849 Z M844.572 453.833 Q844.572 460.146 846.104 462.240 Q847.635 464.333 849.869 464.333 Q852.104 464.333 853.635 462.232 Q855.166 460.130 855.166 453.833 Q855.166 447.505 853.635 445.419 Q852.104 443.333 849.838 443.333 Q847.588 443.333 846.260 445.177 Q844.572 447.521 844.572 453.833 Z"/>
  <path d="M863.432 450.333 L863.432 447.333 L867.135 447.333 L867.135 450.333 L863.432 450.333 Z M863.432 467.333 L863.432 464.333 L867.135 464.333 L867.135 467.333 L863.432 467.333 Z"/>
  <path d="M882.229 467.333 L882.229 461.333 L870.744 461.333 L870.744 458.333 L882.838 440.333 L885.494 440.333 L885.494 458.333 L889.072 458.333 L889.072 461.333 L885.494 461.333 L885.494 467.333 L882.229 467.333 Z M882.229 458.333 L882.229 446.005 L873.947 458.333 L882.229 458.333 Z"/>
  <path d="M892.197 460.333 L895.619 460.333 Q895.994 462.333 897.377 463.333 Q898.760 464.333 900.713 464.333 Q903.057 464.333 904.682 462.630 Q906.307 460.927 906.307 458.115 Q906.307 455.427 904.744 453.880 Q903.182 452.333 900.650 452.333 Q899.088 452.333 897.822 452.888 Q896.557 453.443 895.838 454.333 L892.775 454.333 L895.338 440.333 L908.510 440.333 L908.510 443.333 L897.947 443.333 L896.525 451.068 Q898.916 449.333 901.525 449.333 Q904.994 449.333 907.377 451.732 Q909.760 454.130 909.760 457.911 Q909.760 461.505 907.666 464.115 Q905.119 467.333 900.713 467.333 Q897.088 467.333 894.807 465.419 Q892.525 463.505 892.197 460.333 Z"/>
  <path d="M914.400 450.333 L914.400 447.333 L918.104 447.333 L918.104 450.333 L914.400 450.333 Z M914.400 467.333 L914.400 464.333 L918.104 464.333 L918.104 467.333 L914.400 467.333 Z"/>
  <path d="M922.775 453.849 Q922.775 449.146 923.744 446.294 Q924.713 443.443 926.619 441.888 Q928.525 440.333 931.416 440.333 Q933.557 440.333 935.158 441.193 Q936.760 442.052 937.814 443.661 Q938.869 445.271 939.463 447.591 Q940.057 449.911 940.057 453.849 Q940.057 458.490 939.096 461.349 Q938.135 464.208 936.229 465.771 Q934.322 467.333 931.416 467.333 Q927.588 467.333 925.400 464.599 Q922.775 461.286 922.775 453.849 Z M926.119 453.833 Q926.119 460.146 927.650 462.240 Q929.182 464.333 931.416 464.333 Q933.650 464.333 935.182 462.232 Q936.713 460.130 936.713 453.833 Q936.713 447.505 935.182 445.419 Q933.650 443.333 931.385 443.333 Q929.135 443.333 927.807 445.177 Q926.119 447.521 926.119 453.833 Z"/>
  <path d="M943.166 453.849 Q943.166 449.146 944.135 446.294 Q945.104 443.443 947.010 441.888 Q948.916 440.333 951.807 440.333 Q953.947 440.333 955.549 441.193 Q957.150 442.052 958.205 443.661 Q959.260 445.271 959.854 447.591 Q960.447 449.911 960.447 453.849 Q960.447 458.490 959.486 461.349 Q958.525 464.208 956.619 465.771 Q954.713 467.333 951.807 467.333 Q947.979 467.333 945.791 464.599 Q943.166 461.286 943.166 453.849 Z M946.510 453.833 Q946.510 460.146 948.041 462.240 Q949.572 464.333 951.807 464.333 Q954.041 464.333 955.572 462.232 Q957.104 460.130 957.104 453.833 Q957.104 447.505 955.572 445.419 Q954.041 443.333 951.775 443.333 Q949.525 443.333 948.197 445.177 Q946.510 447.521 946.510 453.833 Z"/>
  <path d="M1044.971 453.849 Q1044.971 449.146 1045.940 446.294 Q1046.909 443.443 1048.815 441.888 Q1050.721 440.333 1053.612 440.333 Q1055.753 440.333 1057.354 441.193 Q1058.956 442.052 1060.010 443.661 Q1061.065 445.271 1061.659 447.591 Q1062.253 449.911 1062.253 453.849 Q1062.253 458.490 1061.292 461.349 Q1060.331 464.208 1058.424 465.771 Q1056.518 467.333 1053.612 467.333 Q1049.784 467.333 1047.596 464.599 Q1044.971 461.286 1044.971 453.849 Z M1048.315 453.833 Q1048.315 460.146 1049.846 462.240 Q1051.378 464.333 1053.612 464.333 Q1055.846 464.333 1057.378 462.232 Q1058.909 460.130 1058.909 453.833 Q1058.909 447.505 1057.378 445.419 Q1055.846 443.333 1053.581 443.333 Q1051.331 443.333 1050.003 445.177 Q1048.315 447.521 1048.315 453.833 Z"/>
  <path d="M1077.612 467.333 L1074.362 467.333 L1074.362 446.302 Q1073.190 447.443 1071.284 448.576 Q1069.378 449.708 1067.862 450.271 L1067.862 447.083 Q1070.596 445.786 1072.635 443.935 Q1074.674 442.083 1075.518 440.333 L1077.612 440.333 L1077.612 467.333 Z"/>
  <path d="M1087.565 450.333 L1087.565 447.333 L1091.268 447.333 L1091.268 450.333 L1087.565 450.333 Z M1087.565 467.333 L1087.565 464.333 L1091.268 464.333 L1091.268 467.333 L1087.565 467.333 Z"/>
  <path d="M1095.940 453.849 Q1095.940 449.146 1096.909 446.294 Q1097.878 443.443 1099.784 441.888 Q1101.690 440.333 1104.581 440.333 Q1106.721 440.333 1108.323 441.193 Q1109.924 442.052 1110.979 443.661 Q1112.034 445.271 1112.628 447.591 Q1113.221 449.911 1113.221 453.849 Q1113.221 458.490 1112.260 461.349 Q1111.299 464.208 1109.393 465.771 Q1107.487 467.333 1104.581 467.333 Q1100.753 467.333 1098.565 464.599 Q1095.940 461.286 1095.940 453.849 Z M1099.284 453.833 Q1099.284 460.146 1100.815 462.240 Q1102.346 464.333 1104.581 464.333 Q1106.815 464.333 1108.346 462.232 Q1109.878 460.130 1109.878 453.833 Q1109.878 447.505 1108.346 445.419 Q1106.815 443.333 1104.549 443.333 Q1102.299 443.333 1100.971 445.177 Q1099.284 447.521 1099.284 453.833 Z"/>
  <path d="M1116.331 453.849 Q1116.331 449.146 1117.299 446.294 Q1118.268 443.443 1120.174 441.888 Q1122.081 440.333 1124.971 440.333 Q1127.112 440.333 1128.714 441.193 Q1130.315 442.052 1131.370 443.661 Q1132.424 445.271 1133.018 447.591 Q1133.612 449.911 1133.612 453.849 Q1133.612 458.490 1132.651 461.349 Q1131.690 464.208 1129.784 465.771 Q1127.878 467.333 1124.971 467.333 Q1121.143 467.333 1118.956 464.599 Q1116.331 461.286 1116.331 453.849 Z M1119.674 453.833 Q1119.674 460.146 1121.206 462.240 Q1122.737 464.333 1124.971 464.333 Q1127.206 464.333 1128.737 462.232 Q1130.268 460.130 1130.268 453.833 Q1130.268 447.505 1128.737 445.419 Q1127.206 443.333 1124.940 443.333 Q1122.690 443.333 1121.362 445.177 Q1119.674 447.521 1119.674 453.833 Z"/>
  <path d="M1138.534 450.333 L1138.534 447.333 L1142.237 447.333 L1142.237 450.333 L1138.534 450.333 Z M1138.534 467.333 L1138.534 464.333 L1142.237 464.333 L1142.237 467.333 L1138.534 467.333 Z"/>
  <path d="M1146.909 453.849 Q1146.909 449.146 1147.878 446.294 Q1148.846 443.443 1150.753 441.888 Q1152.659 440.333 1155.549 440.333 Q1157.690 440.333 1159.292 441.193 Q1160.893 442.052 1161.948 443.661 Q1163.003 445.271 1163.596 447.591 Q1164.190 449.911 1164.190 453.849 Q1164.190 458.490 1163.229 461.349 Q1162.268 464.208 1160.362 465.771 Q1158.456 467.333 1155.549 467.333 Q1151.721 467.333 1149.534 464.599 Q1146.909 461.286 1146.909 453.849 Z M1150.253 453.833 Q1150.253 460.146 1151.784 462.240 Q1153.315 464.333 1155.549 464.333 Q1157.784 464.333 1159.315 462.232 Q1160.846 460.130 1160.846 453.833 Q1160.846 447.505 1159.315 445.419 Q1157.784 443.333 1155.518 443.333 Q1153.268 443.333 1151.940 445.177 Q1150.253 447.521 1150.253 453.833 Z"/>
  <path d="M1167.299 453.849 Q1167.299 449.146 1168.268 446.294 Q1169.237 443.443 1171.143 441.888 Q1173.049 440.333 1175.940 440.333 Q1178.081 440.333 1179.682 441.193 Q1181.284 442.052 1182.339 443.661 Q1183.393 445.271 1183.987 447.591 Q1184.581 449.911 1184.581 453.849 Q1184.581 458.490 1183.620 461.349 Q1182.659 464.208 1180.753 465.771 Q1178.846 467.333 1175.940 467.333 Q1172.112 467.333 1169.924 464.599 Q1167.299 461.286 1167.299 453.849 Z M1170.643 453.833 Q1170.643 460.146 1172.174 462.240 Q1173.706 464.333 1175.940 464.333 Q1178.174 464.333 1179.706 462.232 Q1181.237 460.130 1181.237 453.833 Q1181.237 447.505 1179.706 445.419 Q1178.174 443.333 1175.909 443.333 Q1173.659 443.333 1172.331 445.177 Q1170.643 447.521 1170.643 453.833 Z"/>
  <path d="M1269.105 453.849 Q1269.105 449.146 1270.074 446.294 Q1271.042 443.443 1272.949 441.888 Q1274.855 440.333 1277.745 440.333 Q1279.886 440.333 1281.488 441.193 Q1283.089 442.052 1284.144 443.661 Q1285.199 445.271 1285.792 447.591 Q1286.386 449.911 1286.386 453.849 Q1286.386 458.490 1285.425 461.349 Q1284.464 464.208 1282.558 465.771 Q1280.652 467.333 1277.745 467.333 Q1273.917 467.333 1271.730 464.599 Q1269.105 461.286 1269.105 453.849 Z M1272.449 453.833 Q1272.449 460.146 1273.980 462.240 Q1275.511 464.333 1277.745 464.333 Q1279.980 464.333 1281.511 462.232 Q1283.042 460.130 1283.042 453.833 Q1283.042 447.505 1281.511 445.419 Q1279.980 443.333 1277.714 443.333 Q1275.464 443.333 1274.136 445.177 Q1272.449 447.521 1272.449 453.833 Z"/>
  <path d="M1301.745 467.333 L1298.495 467.333 L1298.495 446.302 Q1297.324 447.443 1295.417 448.576 Q1293.511 449.708 1291.995 450.271 L1291.995 447.083 Q1294.730 445.786 1296.769 443.935 Q1298.808 442.083 1299.652 440.333 L1301.745 440.333 L1301.745 467.333 Z"/>
  <path d="M1311.699 450.333 L1311.699 447.333 L1315.402 447.333 L1315.402 450.333 L1311.699 450.333 Z M1311.699 467.333 L1311.699 464.333 L1315.402 464.333 L1315.402 467.333 L1311.699 467.333 Z"/>
  <path d="M1332.324 467.333 L1329.074 467.333 L1329.074 446.302 Q1327.902 447.443 1325.995 448.576 Q1324.089 449.708 1322.574 450.271 L1322.574 447.083 Q1325.308 445.786 1327.347 443.935 Q1329.386 442.083 1330.230 440.333 L1332.324 440.333 L1332.324 467.333 Z"/>
  <path d="M1340.464 460.333 L1343.886 460.333 Q1344.261 462.333 1345.644 463.333 Q1347.027 464.333 1348.980 464.333 Q1351.324 464.333 1352.949 462.630 Q1354.574 460.927 1354.574 458.115 Q1354.574 455.427 1353.011 453.880 Q1351.449 452.333 1348.917 452.333 Q1347.355 452.333 1346.089 452.888 Q1344.824 453.443 1344.105 454.333 L1341.042 454.333 L1343.605 440.333 L1356.777 440.333 L1356.777 443.333 L1346.214 443.333 L1344.792 451.068 Q1347.183 449.333 1349.792 449.333 Q1353.261 449.333 1355.644 451.732 Q1358.027 454.130 1358.027 457.911 Q1358.027 461.505 1355.933 464.115 Q1353.386 467.333 1348.980 467.333 Q1345.355 467.333 1343.074 465.419 Q1340.792 463.505 1340.464 460.333 Z"/>
  <path d="M1362.667 450.333 L1362.667 447.333 L1366.370 447.333 L1366.370 450.333 L1362.667 450.333 Z M1362.667 467.333 L1362.667 464.333 L1366.370 464.333 L1366.370 467.333 L1362.667 467.333 Z"/>
  <path d="M1371.042 453.849 Q1371.042 449.146 1372.011 446.294 Q1372.980 443.443 1374.886 441.888 Q1376.792 440.333 1379.683 440.333 Q1381.824 440.333 1383.425 441.193 Q1385.027 442.052 1386.081 443.661 Q1387.136 445.271 1387.730 447.591 Q1388.324 449.911 1388.324 453.849 Q1388.324 458.490 1387.363 461.349 Q1386.402 464.208 1384.495 465.771 Q1382.589 467.333 1379.683 467.333 Q1375.855 467.333 1373.667 464.599 Q1371.042 461.286 1371.042 453.849 Z M1374.386 453.833 Q1374.386 460.146 1375.917 462.240 Q1377.449 464.333 1379.683 464.333 Q1381.917 464.333 1383.449 462.232 Q1384.980 460.130 1384.980 453.833 Q1384.980 447.505 1383.449 445.419 Q1381.917 443.333 1379.652 443.333 Q1377.402 443.333 1376.074 445.177 Q1374.386 447.521 1374.386 453.833 Z"/>
  <path d="M1391.433 453.849 Q1391.433 449.146 1392.402 446.294 Q1393.370 443.443 1395.277 441.888 Q1397.183 440.333 1400.074 440.333 Q1402.214 440.333 1403.816 441.193 Q1405.417 442.052 1406.472 443.661 Q1407.527 445.271 1408.120 447.591 Q1408.714 449.911 1408.714 453.849 Q1408.714 458.490 1407.753 461.349 Q1406.792 464.208 1404.886 465.771 Q1402.980 467.333 1400.074 467.333 Q1396.245 467.333 1394.058 464.599 Q1391.433 461.286 1391.433 453.849 Z M1394.777 453.833 Q1394.777 460.146 1396.308 462.240 Q1397.839 464.333 1400.074 464.333 Q1402.308 464.333 1403.839 462.232 Q1405.370 460.130 1405.370 453.833 Q1405.370 447.505 1403.839 445.419 Q1402.308 443.333 1400.042 443.333 Q1397.792 443.333 1396.464 445.177 Q1394.777 447.521 1394.777 453.833 Z"/>
  <path d="M1493.238 453.849 Q1493.238 449.146 1494.207 446.294 Q1495.176 443.443 1497.082 441.888 Q1498.988 440.333 1501.879 440.333 Q1504.020 440.333 1505.621 441.193 Q1507.223 442.052 1508.277 443.661 Q1509.332 445.271 1509.926 447.591 Q1510.520 449.911 1510.520 453.849 Q1510.520 458.490 1509.559 461.349 Q1508.598 464.208 1506.691 465.771 Q1504.785 467.333 1501.879 467.333 Q1498.051 467.333 1495.863 464.599 Q1493.238 461.286 1493.238 453.849 Z M1496.582 453.833 Q1496.582 460.146 1498.113 462.240 Q1499.645 464.333 1501.879 464.333 Q1504.113 464.333 1505.645 462.232 Q1507.176 460.130 1507.176 453.833 Q1507.176 447.505 1505.645 445.419 Q1504.113 443.333 1501.848 443.333 Q1499.598 443.333 1498.270 445.177 Q1496.582 447.521 1496.582 453.833 Z"/>
  <path d="M1525.879 467.333 L1522.629 467.333 L1522.629 446.302 Q1521.457 447.443 1519.551 448.576 Q1517.645 449.708 1516.129 450.271 L1516.129 447.083 Q1518.863 445.786 1520.902 443.935 Q1522.941 442.083 1523.785 440.333 L1525.879 440.333 L1525.879 467.333 Z"/>
  <path d="M1535.832 450.333 L1535.832 447.333 L1539.535 447.333 L1539.535 450.333 L1535.832 450.333 Z M1535.832 467.333 L1535.832 464.333 L1539.535 464.333 L1539.535 467.333 L1535.832 467.333 Z"/>
  <path d="M1544.223 460.333 L1547.488 460.333 Q1548.051 462.458 1549.395 463.396 Q1550.738 464.333 1552.676 464.333 Q1554.973 464.333 1556.551 462.794 Q1558.129 461.255 1558.129 458.974 Q1558.129 456.802 1556.668 455.380 Q1555.207 453.958 1552.941 453.958 Q1552.020 453.958 1550.645 454.333 L1551.004 451.333 Q1551.332 451.365 1551.535 451.365 Q1553.613 451.365 1555.270 450.349 Q1556.926 449.333 1556.926 447.208 Q1556.926 445.536 1555.715 444.435 Q1554.504 443.333 1552.582 443.333 Q1550.691 443.333 1549.426 444.333 Q1548.160 445.333 1547.801 447.333 L1544.551 447.333 Q1545.145 444.005 1547.262 442.169 Q1549.379 440.333 1552.520 440.333 Q1554.691 440.333 1556.512 441.255 Q1558.332 442.177 1559.301 443.763 Q1560.270 445.349 1560.270 447.130 Q1560.270 448.818 1559.348 450.208 Q1558.426 451.599 1556.629 452.427 Q1558.973 452.974 1560.270 454.693 Q1561.566 456.411 1561.566 458.990 Q1561.566 462.474 1559.035 464.904 Q1556.504 467.333 1552.645 467.333 Q1549.160 467.333 1546.855 465.388 Q1544.551 463.443 1544.223 460.333 Z"/>
  <path d="M1564.598 453.849 Q1564.598 449.146 1565.566 446.294 Q1566.535 443.443 1568.441 441.888 Q1570.348 440.333 1573.238 440.333 Q1575.379 440.333 1576.980 441.193 Q1578.582 442.052 1579.637 443.661 Q1580.691 445.271 1581.285 447.591 Q1581.879 449.911 1581.879 453.849 Q1581.879 458.490 1580.918 461.349 Q1579.957 464.208 1578.051 465.771 Q1576.145 467.333 1573.238 467.333 Q1569.410 467.333 1567.223 464.599 Q1564.598 461.286 1564.598 453.849 Z M1567.941 453.833 Q1567.941 460.146 1569.473 462.240 Q1571.004 464.333 1573.238 464.333 Q1575.473 464.333 1577.004 462.232 Q1578.535 460.130 1578.535 453.833 Q1578.535 447.505 1577.004 445.419 Q1575.473 443.333 1573.207 443.333 Q1570.957 443.333 1569.629 445.177 Q1567.941 447.521 1567.941 453.833 Z"/>
  <path d="M1586.801 450.333 L1586.801 447.333 L1590.504 447.333 L1590.504 450.333 L1586.801 450.333 Z M1586.801 467.333 L1586.801 464.333 L1590.504 464.333 L1590.504 467.333 L1586.801 467.333 Z"/>
  <path d="M1595.176 453.849 Q1595.176 449.146 1596.145 446.294 Q1597.113 443.443 1599.020 441.888 Q1600.926 440.333 1603.816 440.333 Q1605.957 440.333 1607.559 441.193 Q1609.160 442.052 1610.215 443.661 Q1611.270 445.271 1611.863 447.591 Q1612.457 449.911 1612.457 453.849 Q1612.457 458.490 1611.496 461.349 Q1610.535 464.208 1608.629 465.771 Q1606.723 467.333 1603.816 467.333 Q1599.988 467.333 1597.801 464.599 Q1595.176 461.286 1595.176 453.849 Z M1598.520 453.833 Q1598.520 460.146 1600.051 462.240 Q1601.582 464.333 1603.816 464.333 Q1606.051 464.333 1607.582 462.232 Q1609.113 460.130 1609.113 453.833 Q1609.113 447.505 1607.582 445.419 Q1606.051 443.333 1603.785 443.333 Q1601.535 443.333 1600.207 445.177 Q1598.520 447.521 1598.520 453.833 Z"/>
  <path d="M1615.566 453.849 Q1615.566 449.146 1616.535 446.294 Q1617.504 443.443 1619.410 441.888 Q1621.316 440.333 1624.207 440.333 Q1626.348 440.333 1627.949 441.193 Q1629.551 442.052 1630.605 443.661 Q1631.660 445.271 1632.254 447.591 Q1632.848 449.911 1632.848 453.849 Q1632.848 458.490 1631.887 461.349 Q1630.926 464.208 1629.020 465.771 Q1627.113 467.333 1624.207 467.333 Q1620.379 467.333 1618.191 464.599 Q1615.566 461.286 1615.566 453.849 Z M1618.910 453.833 Q1618.910 460.146 1620.441 462.240 Q1621.973 464.333 1624.207 464.333 Q1626.441 464.333 1627.973 462.232 Q1629.504 460.130 1629.504 453.833 Q1629.504 447.505 1627.973 445.419 Q1626.441 443.333 1624.176 443.333 Q1621.926 443.333 1620.598 445.177 Q1618.910 447.521 1618.910 453.833 Z"/>
  <path d="M1717.372 453.849 Q1717.372 449.146 1718.340 446.294 Q1719.309 443.443 1721.215 441.888 Q1723.122 440.333 1726.012 440.333 Q1728.153 440.333 1729.755 441.193 Q1731.356 442.052 1732.411 443.661 Q1733.465 445.271 1734.059 447.591 Q1734.653 449.911 1734.653 453.849 Q1734.653 458.490 1733.692 461.349 Q1732.731 464.208 1730.825 465.771 Q1728.919 467.333 1726.012 467.333 Q1722.184 467.333 1719.997 464.599 Q1717.372 461.286 1717.372 453.849 Z M1720.715 453.833 Q1720.715 460.146 1722.247 462.240 Q1723.778 464.333 1726.012 464.333 Q1728.247 464.333 1729.778 462.232 Q1731.309 460.130 1731.309 453.833 Q1731.309 447.505 1729.778 445.419 Q1728.247 443.333 1725.981 443.333 Q1723.731 443.333 1722.403 445.177 Q1720.715 447.521 1720.715 453.833 Z"/>
  <path d="M1750.012 467.333 L1746.762 467.333 L1746.762 446.302 Q1745.590 447.443 1743.684 448.576 Q1741.778 449.708 1740.262 450.271 L1740.262 447.083 Q1742.997 445.786 1745.036 443.935 Q1747.075 442.083 1747.919 440.333 L1750.012 440.333 L1750.012 467.333 Z"/>
  <path d="M1759.965 450.333 L1759.965 447.333 L1763.669 447.333 L1763.669 450.333 L1759.965 450.333 Z M1759.965 467.333 L1759.965 464.333 L1763.669 464.333 L1763.669 467.333 L1759.965 467.333 Z"/>
  <path d="M1778.762 467.333 L1778.762 461.333 L1767.278 461.333 L1767.278 458.333 L1779.372 440.333 L1782.028 440.333 L1782.028 458.333 L1785.606 458.333 L1785.606 461.333 L1782.028 461.333 L1782.028 467.333 L1778.762 467.333 Z M1778.762 458.333 L1778.762 446.005 L1770.481 458.333 L1778.762 458.333 Z"/>
  <path d="M1788.731 460.333 L1792.153 460.333 Q1792.528 462.333 1793.911 463.333 Q1795.294 464.333 1797.247 464.333 Q1799.590 464.333 1801.215 462.630 Q1802.840 460.927 1802.840 458.115 Q1802.840 455.427 1801.278 453.880 Q1799.715 452.333 1797.184 452.333 Q1795.622 452.333 1794.356 452.888 Q1793.090 453.443 1792.372 454.333 L1789.309 454.333 L1791.872 440.333 L1805.044 440.333 L1805.044 443.333 L1794.481 443.333 L1793.059 451.068 Q1795.450 449.333 1798.059 449.333 Q1801.528 449.333 1803.911 451.732 Q1806.294 454.130 1806.294 457.911 Q1806.294 461.505 1804.200 464.115 Q1801.653 467.333 1797.247 467.333 Q1793.622 467.333 1791.340 465.419 Q1789.059 463.505 1788.731 460.333 Z"/>
  <path d="M1810.934 450.333 L1810.934 447.333 L1814.637 447.333 L1814.637 450.333 L1810.934 450.333 Z M1810.934 467.333 L1810.934 464.333 L1814.637 464.333 L1814.637 467.333 L1810.934 467.333 Z"/>
  <path d="M1819.309 453.849 Q1819.309 449.146 1820.278 446.294 Q1821.247 443.443 1823.153 441.888 Q1825.059 440.333 1827.950 440.333 Q1830.090 440.333 1831.692 441.193 Q1833.294 442.052 1834.348 443.661 Q1835.403 445.271 1835.997 447.591 Q1836.590 449.911 1836.590 453.849 Q1836.590 458.490 1835.630 461.349 Q1834.669 464.208 1832.762 465.771 Q1830.856 467.333 1827.950 467.333 Q1824.122 467.333 1821.934 464.599 Q1819.309 461.286 1819.309 453.849 Z M1822.653 453.833 Q1822.653 460.146 1824.184 462.240 Q1825.715 464.333 1827.950 464.333 Q1830.184 464.333 1831.715 462.232 Q1833.247 460.130 1833.247 453.833 Q1833.247 447.505 1831.715 445.419 Q1830.184 443.333 1827.919 443.333 Q1825.669 443.333 1824.340 445.177 Q1822.653 447.521 1822.653 453.833 Z"/>
  <path d="M1839.700 453.849 Q1839.700 449.146 1840.669 446.294 Q1841.637 443.443 1843.544 441.888 Q1845.450 440.333 1848.340 440.333 Q1850.481 440.333 1852.083 441.193 Q1853.684 442.052 1854.739 443.661 Q1855.794 445.271 1856.387 447.591 Q1856.981 449.911 1856.981 453.849 Q1856.981 458.490 1856.020 461.349 Q1855.059 464.208 1853.153 465.771 Q1851.247 467.333 1848.340 467.333 Q1844.512 467.333 1842.325 464.599 Q1839.700 461.286 1839.700 453.849 Z M1843.044 453.833 Q1843.044 460.146 1844.575 462.240 Q1846.106 464.333 1848.340 464.333 Q1850.575 464.333 1852.106 462.232 Q1853.637 460.130 1853.637 453.833 Q1853.637 447.505 1852.106 445.419 Q1850.575 443.333 1848.309 443.333 Q1846.059 443.333 1844.731 445.177 Q1843.044 447.521 1843.044 453.833 Z"/>
  <path d="M1941.505 453.849 Q1941.505 449.146 1942.474 446.294 Q1943.443 443.443 1945.349 441.888 Q1947.255 440.333 1950.146 440.333 Q1952.286 440.333 1953.888 441.193 Q1955.490 442.052 1956.544 443.661 Q1957.599 445.271 1958.193 447.591 Q1958.786 449.911 1958.786 453.849 Q1958.786 458.490 1957.826 461.349 Q1956.865 464.208 1954.958 465.771 Q1953.052 467.333 1950.146 467.333 Q1946.318 467.333 1944.130 464.599 Q1941.505 461.286 1941.505 453.849 Z M1944.849 453.833 Q1944.849 460.146 1946.380 462.240 Q1947.911 464.333 1950.146 464.333 Q1952.380 464.333 1953.911 462.232 Q1955.443 460.130 1955.443 453.833 Q1955.443 447.505 1953.911 445.419 Q1952.380 443.333 1950.115 443.333 Q1947.865 443.333 1946.536 445.177 Q1944.849 447.521 1944.849 453.833 Z"/>
  <path d="M1978.990 464.333 L1978.990 467.333 L1961.490 467.333 Q1961.443 466.208 1961.865 465.161 Q1962.536 463.443 1964.005 461.779 Q1965.474 460.115 1968.255 457.740 Q1972.583 454.052 1974.099 451.951 Q1975.615 449.849 1975.615 447.990 Q1975.615 446.021 1974.232 444.677 Q1972.849 443.333 1970.630 443.333 Q1968.286 443.333 1966.872 444.396 Q1965.458 445.458 1965.443 447.333 L1962.099 447.333 Q1962.443 443.911 1964.685 442.122 Q1966.927 440.333 1970.693 440.333 Q1974.521 440.333 1976.740 442.505 Q1978.958 444.677 1978.958 447.896 Q1978.958 449.536 1978.310 451.115 Q1977.661 452.693 1976.146 454.443 Q1974.630 456.193 1971.130 459.177 Q1968.208 461.661 1967.380 462.552 Q1966.552 463.443 1966.005 464.333 L1978.990 464.333 Z"/>
  <path d="M1984.099 450.333 L1984.099 447.333 L1987.802 447.333 L1987.802 450.333 L1984.099 450.333 Z M1984.099 467.333 L1984.099 464.333 L1987.802 464.333 L1987.802 467.333 L1984.099 467.333 Z"/>
  <path d="M1992.474 453.849 Q1992.474 449.146 1993.443 446.294 Q1994.411 443.443 1996.318 441.888 Q1998.224 440.333 2001.115 440.333 Q2003.255 440.333 2004.857 441.193 Q2006.458 442.052 2007.513 443.661 Q2008.568 445.271 2009.161 447.591 Q2009.755 449.911 2009.755 453.849 Q2009.755 458.490 2008.794 461.349 Q2007.833 464.208 2005.927 465.771 Q2004.021 467.333 2001.115 467.333 Q1997.286 467.333 1995.099 464.599 Q1992.474 461.286 1992.474 453.849 Z M1995.818 453.833 Q1995.818 460.146 1997.349 462.240 Q1998.880 464.333 2001.115 464.333 Q2003.349 464.333 2004.880 462.232 Q2006.411 460.130 2006.411 453.833 Q2006.411 447.505 2004.880 445.419 Q2003.349 443.333 2001.083 443.333 Q1998.833 443.333 1997.505 445.177 Q1995.818 447.521 1995.818 453.833 Z"/>
  <path d="M2012.865 453.849 Q2012.865 449.146 2013.833 446.294 Q2014.802 443.443 2016.708 441.888 Q2018.615 440.333 2021.505 440.333 Q2023.646 440.333 2025.247 441.193 Q2026.849 442.052 2027.904 443.661 Q2028.958 445.271 2029.552 447.591 Q2030.146 449.911 2030.146 453.849 Q2030.146 458.490 2029.185 461.349 Q2028.224 464.208 2026.318 465.771 Q2024.411 467.333 2021.505 467.333 Q2017.677 467.333 2015.490 464.599 Q2012.865 461.286 2012.865 453.849 Z M2016.208 453.833 Q2016.208 460.146 2017.740 462.240 Q2019.271 464.333 2021.505 464.333 Q2023.740 464.333 2025.271 462.232 Q2026.802 460.130 2026.802 453.833 Q2026.802 447.505 2025.271 445.419 Q2023.740 443.333 2021.474 443.333 Q2019.224 443.333 2017.896 445.177 Q2016.208 447.521 2016.208 453.833 Z"/>
  <path d="M2035.068 450.333 L2035.068 447.333 L2038.771 447.333 L2038.771 450.333 L2035.068 450.333 Z M2035.068 467.333 L2035.068 464.333 L2038.771 464.333 L2038.771 467.333 L2035.068 467.333 Z"/>
  <path d="M2043.443 453.849 Q2043.443 449.146 2044.411 446.294 Q2045.380 443.443 2047.286 441.888 Q2049.193 440.333 2052.083 440.333 Q2054.224 440.333 2055.826 441.193 Q2057.427 442.052 2058.482 443.661 Q2059.536 445.271 2060.130 447.591 Q2060.724 449.911 2060.724 453.849 Q2060.724 458.490 2059.763 461.349 Q2058.802 464.208 2056.896 465.771 Q2054.990 467.333 2052.083 467.333 Q2048.255 467.333 2046.068 464.599 Q2043.443 461.286 2043.443 453.849 Z M2046.786 453.833 Q2046.786 460.146 2048.318 462.240 Q2049.849 464.333 2052.083 464.333 Q2054.318 464.333 2055.849 462.232 Q2057.380 460.130 2057.380 453.833 Q2057.380 447.505 2055.849 445.419 Q2054.318 443.333 2052.052 443.333 Q2049.802 443.333 2048.474 445.177 Q2046.786 447.521 2046.786 453.833 Z"/>
  <path d="M2063.833 453.849 Q2063.833 449.146 2064.802 446.294 Q2065.771 443.443 2067.677 441.888 Q2069.583 440.333 2072.474 440.333 Q2074.615 440.333 2076.216 441.193 Q2077.818 442.052 2078.872 443.661 Q2079.927 445.271 2080.521 447.591 Q2081.115 449.911 2081.115 453.849 Q2081.115 458.490 2080.154 461.349 Q2079.193 464.208 2077.286 465.771 Q2075.380 467.333 2072.474 467.333 Q2068.646 467.333 2066.458 464.599 Q2063.833 461.286 2063.833 453.849 Z M2067.177 453.833 Q2067.177 460.146 2068.708 462.240 Q2070.240 464.333 2072.474 464.333 Q2074.708 464.333 2076.240 462.232 Q2077.771 460.130 2077.771 453.833 Q2077.771 447.505 2076.240 445.419 Q2074.708 443.333 2072.443 443.333 Q2070.193 443.333 2068.865 445.177 Q2067.177 447.521 2067.177 453.833 Z"/>
  <path d="M218.266 404 L218.266 36.667" fill="none" stroke="#000000" stroke-width="3.333"/>
  <path d="M218.266 404 L231.599 404" fill="none" stroke="#000000" stroke-width="3.333"/>
  <path d="M218.266 367.267 L231.599 367.267" fill="none" stroke="#000000" stroke-width="3.333"/>
  <path d="M218.266 330.533 L231.599 330.533" fill="none" stroke="#000000" stroke-width="3.333"/>
  <path d="M218.266 293.800 L231.599 293.800" fill="none" stroke="#000000" stroke-width="3.333"/>
  <path d="M218.266 257.067 L231.599 257.067" fill="none" stroke="#000000" stroke-width="3.333"/>
  <path d="M218.266 220.333 L231.599 220.333" fill="none" stroke="#000000" stroke-width="3.333"/>
  <path d="M218.266 183.600 L231.599 183.600" fill="none" stroke="#000000" stroke-width="3.333"/>
  <path d="M218.266 146.867 L231.599 146.867" fill="none" stroke="#000000" stroke-width="3.333"/>
  <path d="M218.266 110.133 L231.599 110.133" fill="none" stroke="#000000" stroke-width="3.333"/>
  <path d="M218.266 73.400 L231.599 73.400" fill="none" stroke="#000000" stroke-width="3.333"/>
  <path d="M218.266 36.667 L231.599 36.667" fill="none" stroke="#000000" stroke-width="3.333"/>
  <path d="M47.073 400.875 L38.339 400.875 L38.339 403.500 L47.073 403.500 L47.073 400.875 Z"/>
  <path d="M66.339 386.500 L52.917 386.500 L50.964 400.594 L53.932 400.594 C55.448 398.938 56.682 398.375 58.745 398.375 C62.229 398.375 64.385 400.562 64.385 404.109 C64.385 407.547 62.229 409.641 58.698 409.641 C55.885 409.641 54.151 408.328 53.385 405.625 L50.167 405.625 C50.604 407.594 50.964 408.531 51.745 409.406 C53.198 411.375 55.839 412.500 58.776 412.500 C64.026 412.500 67.682 408.766 67.682 403.703 C67.682 398.984 64.276 395.500 59.292 395.500 C57.464 395.500 55.995 395.984 54.495 397.078 L55.510 389.703 L66.339 389.703 L66.339 386.500 Z"/>
  <path d="M76.276 408.688 L72.464 408.688 L72.464 412.500 L76.276 412.500 L76.276 408.688 Z"/>
  <path d="M89.542 386.500 C87.120 386.500 84.917 387.609 83.557 389.406 C81.870 391.609 81.026 394.906 81.026 399.516 C81.026 407.906 83.964 412.500 89.542 412.500 C95.042 412.500 98.042 407.906 98.042 399.719 C98.042 394.906 97.245 391.672 95.510 389.406 C94.167 387.578 91.995 386.500 89.542 386.500 Z M89.542 389.375 C93.026 389.375 94.745 392.703 94.745 399.438 C94.745 406.531 93.057 409.828 89.464 409.828 C86.057 409.828 84.339 406.391 84.339 399.547 C84.339 392.703 86.057 389.375 89.542 389.375 Z"/>
  <path d=""/>
  <path d="M123.229 396.844 L117.839 402.203 L112.495 396.891 L110.698 398.688 L116.042 404.031 L110.651 409.422 L112.495 411.219 L117.839 405.875 L123.229 411.266 L125.073 409.422 L119.682 404.031 L125.026 398.688 L123.229 396.844 Z"/>
  <path d=""/>
  <path d="M145.417 393.625 L145.417 412.500 L148.651 412.500 L148.651 386 L146.526 386 C145.385 390.062 144.651 390.625 139.667 391.281 L139.667 393.625 L145.417 393.625 Z"/>
  <path d="M166.401 386.500 C163.979 386.500 161.776 387.609 160.417 389.406 C158.729 391.609 157.885 394.906 157.885 399.516 C157.885 407.906 160.823 412.500 166.401 412.500 C171.901 412.500 174.901 407.906 174.901 399.719 C174.901 394.906 174.104 391.672 172.370 389.406 C171.026 387.578 168.854 386.500 166.401 386.500 Z M166.401 389.375 C169.885 389.375 171.604 392.703 171.604 399.438 C171.604 406.531 169.917 409.828 166.323 409.828 C162.917 409.828 161.198 406.391 161.198 399.547 C161.198 392.703 162.917 389.375 166.401 389.375 Z"/>
  <path d="M182.714 386.500 C179.167 386.500 177.260 389.281 177.260 394.484 C177.260 399.734 179.167 402.500 182.760 402.500 C186.276 402.500 188.214 399.734 188.214 394.641 C188.214 389.250 186.354 386.500 182.714 386.500 Z M182.714 388.453 C184.839 388.453 185.917 390.453 185.917 394.453 C185.917 398.703 184.885 400.672 182.682 400.672 C180.589 400.672 179.573 398.594 179.573 394.531 C179.573 390.422 180.589 388.453 182.714 388.453 Z"/>
  <path d="M47.073 364.142 L38.339 364.142 L38.339 366.767 L47.073 366.767 L47.073 364.142 Z"/>
  <path d="M60.870 369.673 L60.870 375.767 L64.089 375.767 L64.089 369.673 L67.948 369.673 L67.948 366.767 L64.089 366.767 L64.089 349.579 L61.714 349.579 L49.901 366.267 L49.901 369.673 L60.870 369.673 Z M60.870 366.767 L52.729 366.767 L60.870 355.079 L60.870 366.767 Z"/>
  <path d="M76.276 371.954 L72.464 371.954 L72.464 375.767 L76.276 375.767 L76.276 371.954 Z"/>
  <path d="M89.542 349.767 C87.120 349.767 84.917 350.876 83.557 352.673 C81.870 354.876 81.026 358.173 81.026 362.782 C81.026 371.173 83.964 375.767 89.542 375.767 C95.042 375.767 98.042 371.173 98.042 362.985 C98.042 358.173 97.245 354.939 95.510 352.673 C94.167 350.845 91.995 349.767 89.542 349.767 Z M89.542 352.642 C93.026 352.642 94.745 355.970 94.745 362.704 C94.745 369.798 93.057 373.095 89.464 373.095 C86.057 373.095 84.339 369.657 84.339 362.814 C84.339 355.970 86.057 352.642 89.542 352.642 Z"/>
  <path d=""/>
  <path d="M123.229 360.110 L117.839 365.470 L112.495 360.157 L110.698 361.954 L116.042 367.298 L110.651 372.689 L112.495 374.485 L117.839 369.142 L123.229 374.532 L125.073 372.689 L119.682 367.298 L125.026 361.954 L123.229 360.110 Z"/>
  <path d=""/>
  <path d="M145.417 356.892 L145.417 375.767 L148.651 375.767 L148.651 349.267 L146.526 349.267 C145.385 353.329 144.651 353.892 139.667 354.548 L139.667 356.892 L145.417 356.892 Z"/>
  <path d="M166.401 349.767 C163.979 349.767 161.776 350.876 160.417 352.673 C158.729 354.876 157.885 358.173 157.885 362.782 C157.885 371.173 160.823 375.767 166.401 375.767 C171.901 375.767 174.901 371.173 174.901 362.985 C174.901 358.173 174.104 354.939 172.370 352.673 C171.026 350.845 168.854 349.767 166.401 349.767 Z M166.401 352.642 C169.885 352.642 171.604 355.970 171.604 362.704 C171.604 369.798 169.917 373.095 166.323 373.095 C162.917 373.095 161.198 369.657 161.198 362.814 C161.198 355.970 162.917 352.642 166.401 352.642 Z"/>
  <path d="M182.714 349.767 C179.167 349.767 177.260 352.548 177.260 357.751 C177.260 363.001 179.167 365.767 182.760 365.767 C186.276 365.767 188.214 363.001 188.214 357.907 C188.214 352.517 186.354 349.767 182.714 349.767 Z M182.714 351.720 C184.839 351.720 185.917 353.720 185.917 357.720 C185.917 361.970 184.885 363.939 182.682 363.939 C180.589 363.939 179.573 361.860 179.573 357.798 C179.573 353.689 180.589 351.720 182.714 351.720 Z"/>
  <path d="M47.073 327.408 L38.339 327.408 L38.339 330.033 L47.073 330.033 L47.073 327.408 Z"/>
  <path d="M56.979 326.627 L57.385 326.627 L58.745 326.627 C62.260 326.627 64.135 328.174 64.135 331.158 C64.135 334.283 62.120 336.174 58.776 336.174 C55.214 336.174 53.495 334.502 53.276 330.846 L50.057 330.846 C50.198 332.846 50.557 334.158 51.182 335.252 C52.542 337.752 55.073 339.033 58.635 339.033 C63.979 339.033 67.432 335.830 67.432 331.127 C67.432 327.971 66.151 326.252 63.026 325.221 C65.448 324.283 66.667 322.565 66.667 320.065 C66.667 315.799 63.698 313.033 58.745 313.033 C53.495 313.033 50.714 315.971 50.604 321.221 L53.823 321.221 C53.870 319.721 54.010 318.861 54.417 318.096 C55.151 316.690 56.760 315.861 58.776 315.861 C61.635 315.861 63.354 317.486 63.354 320.158 C63.354 321.908 62.698 322.986 61.276 323.565 C60.385 323.908 59.214 324.049 56.979 324.080 L56.979 326.627 Z"/>
  <path d="M76.276 335.221 L72.464 335.221 L72.464 339.033 L76.276 339.033 L76.276 335.221 Z"/>
  <path d="M89.542 313.033 C87.120 313.033 84.917 314.143 83.557 315.940 C81.870 318.143 81.026 321.440 81.026 326.049 C81.026 334.440 83.964 339.033 89.542 339.033 C95.042 339.033 98.042 334.440 98.042 326.252 C98.042 321.440 97.245 318.205 95.510 315.940 C94.167 314.111 91.995 313.033 89.542 313.033 Z M89.542 315.908 C93.026 315.908 94.745 319.236 94.745 325.971 C94.745 333.065 93.057 336.361 89.464 336.361 C86.057 336.361 84.339 332.924 84.339 326.080 C84.339 319.236 86.057 315.908 89.542 315.908 Z"/>
  <path d=""/>
  <path d="M123.229 323.377 L117.839 328.736 L112.495 323.424 L110.698 325.221 L116.042 330.565 L110.651 335.955 L112.495 337.752 L117.839 332.408 L123.229 337.799 L125.073 335.955 L119.682 330.565 L125.026 325.221 L123.229 323.377 Z"/>
  <path d=""/>
  <path d="M145.417 320.158 L145.417 339.033 L148.651 339.033 L148.651 312.533 L146.526 312.533 C145.385 316.596 144.651 317.158 139.667 317.815 L139.667 320.158 L145.417 320.158 Z"/>
  <path d="M166.401 313.033 C163.979 313.033 161.776 314.143 160.417 315.940 C158.729 318.143 157.885 321.440 157.885 326.049 C157.885 334.440 160.823 339.033 166.401 339.033 C171.901 339.033 174.901 334.440 174.901 326.252 C174.901 321.440 174.104 318.205 172.370 315.940 C171.026 314.111 168.854 313.033 166.401 313.033 Z M166.401 315.908 C169.885 315.908 171.604 319.236 171.604 325.971 C171.604 333.065 169.917 336.361 166.323 336.361 C162.917 336.361 161.198 332.924 161.198 326.080 C161.198 319.236 162.917 315.908 166.401 315.908 Z"/>
  <path d="M182.714 313.033 C179.167 313.033 177.260 315.815 177.260 321.018 C177.260 326.268 179.167 329.033 182.760 329.033 C186.276 329.033 188.214 326.268 188.214 321.174 C188.214 315.783 186.354 313.033 182.714 313.033 Z M182.714 314.986 C184.839 314.986 185.917 316.986 185.917 320.986 C185.917 325.236 184.885 327.205 182.682 327.205 C180.589 327.205 179.573 325.127 179.573 321.065 C179.573 316.955 180.589 314.986 182.714 314.986 Z"/>
  <path d="M47.073 290.675 L38.339 290.675 L38.339 293.300 L47.073 293.300 L47.073 290.675 Z"/>
  <path d="M67.432 299.159 L53.760 299.159 C54.089 297.003 55.260 295.644 58.448 293.753 L62.120 291.737 C65.745 289.769 67.620 287.128 67.620 283.941 C67.620 281.784 66.729 279.784 65.198 278.362 C63.651 276.972 61.745 276.300 59.292 276.300 C55.995 276.300 53.542 277.487 52.104 279.737 C51.182 281.112 50.792 282.722 50.714 285.331 L53.932 285.331 C54.042 283.581 54.260 282.534 54.714 281.675 C55.557 280.097 57.245 279.128 59.182 279.128 C62.120 279.128 64.307 281.206 64.307 284.003 C64.307 286.081 63.104 287.878 60.792 289.159 L57.417 291.097 C51.995 294.144 50.417 296.581 50.120 302.300 L67.432 302.300 L67.432 299.159 Z"/>
  <path d="M76.276 298.487 L72.464 298.487 L72.464 302.300 L76.276 302.300 L76.276 298.487 Z"/>
  <path d="M89.542 276.300 C87.120 276.300 84.917 277.409 83.557 279.206 C81.870 281.409 81.026 284.706 81.026 289.316 C81.026 297.706 83.964 302.300 89.542 302.300 C95.042 302.300 98.042 297.706 98.042 289.519 C98.042 284.706 97.245 281.472 95.510 279.206 C94.167 277.378 91.995 276.300 89.542 276.300 Z M89.542 279.175 C93.026 279.175 94.745 282.503 94.745 289.237 C94.745 296.331 93.057 299.628 89.464 299.628 C86.057 299.628 84.339 296.191 84.339 289.347 C84.339 282.503 86.057 279.175 89.542 279.175 Z"/>
  <path d=""/>
  <path d="M123.229 286.644 L117.839 292.003 L112.495 286.691 L110.698 288.487 L116.042 293.831 L110.651 299.222 L112.495 301.019 L117.839 295.675 L123.229 301.066 L125.073 299.222 L119.682 293.831 L125.026 288.487 L123.229 286.644 Z"/>
  <path d=""/>
  <path d="M145.417 283.425 L145.417 302.300 L148.651 302.300 L148.651 275.800 L146.526 275.800 C145.385 279.862 144.651 280.425 139.667 281.081 L139.667 283.425 L145.417 283.425 Z"/>
  <path d="M166.401 276.300 C163.979 276.300 161.776 277.409 160.417 279.206 C158.729 281.409 157.885 284.706 157.885 289.316 C157.885 297.706 160.823 302.300 166.401 302.300 C171.901 302.300 174.901 297.706 174.901 289.519 C174.901 284.706 174.104 281.472 172.370 279.206 C171.026 277.378 168.854 276.300 166.401 276.300 Z M166.401 279.175 C169.885 279.175 171.604 282.503 171.604 289.237 C171.604 296.331 169.917 299.628 166.323 299.628 C162.917 299.628 161.198 296.191 161.198 289.347 C161.198 282.503 162.917 279.175 166.401 279.175 Z"/>
  <path d="M182.714 276.300 C179.167 276.300 177.260 279.081 177.260 284.284 C177.260 289.534 179.167 292.300 182.760 292.300 C186.276 292.300 188.214 289.534 188.214 284.441 C188.214 279.050 186.354 276.300 182.714 276.300 Z M182.714 278.253 C184.839 278.253 185.917 280.253 185.917 284.253 C185.917 288.503 184.885 290.472 182.682 290.472 C180.589 290.472 179.573 288.394 179.573 284.331 C179.573 280.222 180.589 278.253 182.714 278.253 Z"/>
  <path d="M47.073 253.942 L38.339 253.942 L38.339 256.567 L47.073 256.567 L47.073 253.942 Z"/>
  <path d="M58.370 246.692 L58.370 265.567 L61.604 265.567 L61.604 239.067 L59.479 239.067 C58.339 243.129 57.604 243.692 52.620 244.348 L52.620 246.692 L58.370 246.692 Z"/>
  <path d="M76.276 261.754 L72.464 261.754 L72.464 265.567 L76.276 265.567 L76.276 261.754 Z"/>
  <path d="M89.542 239.567 C87.120 239.567 84.917 240.676 83.557 242.473 C81.870 244.676 81.026 247.973 81.026 252.582 C81.026 260.973 83.964 265.567 89.542 265.567 C95.042 265.567 98.042 260.973 98.042 252.785 C98.042 247.973 97.245 244.739 95.510 242.473 C94.167 240.645 91.995 239.567 89.542 239.567 Z M89.542 242.442 C93.026 242.442 94.745 245.770 94.745 252.504 C94.745 259.598 93.057 262.895 89.464 262.895 C86.057 262.895 84.339 259.457 84.339 252.614 C84.339 245.770 86.057 242.442 89.542 242.442 Z"/>
  <path d=""/>
  <path d="M123.229 249.910 L117.839 255.270 L112.495 249.957 L110.698 251.754 L116.042 257.098 L110.651 262.489 L112.495 264.285 L117.839 258.942 L123.229 264.332 L125.073 262.489 L119.682 257.098 L125.026 251.754 L123.229 249.910 Z"/>
  <path d=""/>
  <path d="M145.417 246.692 L145.417 265.567 L148.651 265.567 L148.651 239.067 L146.526 239.067 C145.385 243.129 144.651 243.692 139.667 244.348 L139.667 246.692 L145.417 246.692 Z"/>
  <path d="M166.401 239.567 C163.979 239.567 161.776 240.676 160.417 242.473 C158.729 244.676 157.885 247.973 157.885 252.582 C157.885 260.973 160.823 265.567 166.401 265.567 C171.901 265.567 174.901 260.973 174.901 252.785 C174.901 247.973 174.104 244.739 172.370 242.473 C171.026 240.645 168.854 239.567 166.401 239.567 Z M166.401 242.442 C169.885 242.442 171.604 245.770 171.604 252.504 C171.604 259.598 169.917 262.895 166.323 262.895 C162.917 262.895 161.198 259.457 161.198 252.614 C161.198 245.770 162.917 242.442 166.401 242.442 Z"/>
  <path d="M182.714 239.567 C179.167 239.567 177.260 242.348 177.260 247.551 C177.260 252.801 179.167 255.567 182.760 255.567 C186.276 255.567 188.214 252.801 188.214 247.707 C188.214 242.317 186.354 239.567 182.714 239.567 Z M182.714 241.520 C184.839 241.520 185.917 243.520 185.917 247.520 C185.917 251.770 184.885 253.739 182.682 253.739 C180.589 253.739 179.573 251.660 179.573 247.598 C179.573 243.489 180.589 241.520 182.714 241.520 Z"/>
  <path d="M170.073 219.849 Q170.073 215.146 171.042 212.294 Q172.010 209.443 173.917 207.888 Q175.823 206.333 178.714 206.333 Q180.854 206.333 182.456 207.193 Q184.057 208.052 185.112 209.661 Q186.167 211.271 186.760 213.591 Q187.354 215.911 187.354 219.849 Q187.354 224.490 186.393 227.349 Q185.432 230.208 183.526 231.771 Q181.620 233.333 178.714 233.333 Q174.885 233.333 172.698 230.599 Q170.073 227.286 170.073 219.849 Z M173.417 219.833 Q173.417 226.146 174.948 228.240 Q176.479 230.333 178.714 230.333 Q180.948 230.333 182.479 228.232 Q184.010 226.130 184.010 219.833 Q184.010 213.505 182.479 211.419 Q180.948 209.333 178.682 209.333 Q176.432 209.333 175.104 211.177 Q173.417 213.521 173.417 219.833 Z"/>
  <path d="M58.370 173.225 L58.370 192.100 L61.604 192.100 L61.604 165.600 L59.479 165.600 C58.339 169.662 57.604 170.225 52.620 170.881 L52.620 173.225 L58.370 173.225 Z"/>
  <path d="M76.276 188.287 L72.464 188.287 L72.464 192.100 L76.276 192.100 L76.276 188.287 Z"/>
  <path d="M89.542 166.100 C87.120 166.100 84.917 167.209 83.557 169.006 C81.870 171.209 81.026 174.506 81.026 179.116 C81.026 187.506 83.964 192.100 89.542 192.100 C95.042 192.100 98.042 187.506 98.042 179.319 C98.042 174.506 97.245 171.272 95.510 169.006 C94.167 167.178 91.995 166.100 89.542 166.100 Z M89.542 168.975 C93.026 168.975 94.745 172.303 94.745 179.037 C94.745 186.131 93.057 189.428 89.464 189.428 C86.057 189.428 84.339 185.991 84.339 179.147 C84.339 172.303 86.057 168.975 89.542 168.975 Z"/>
  <path d=""/>
  <path d="M123.229 176.444 L117.839 181.803 L112.495 176.491 L110.698 178.287 L116.042 183.631 L110.651 189.022 L112.495 190.819 L117.839 185.475 L123.229 190.866 L125.073 189.022 L119.682 183.631 L125.026 178.287 L123.229 176.444 Z"/>
  <path d=""/>
  <path d="M145.417 173.225 L145.417 192.100 L148.651 192.100 L148.651 165.600 L146.526 165.600 C145.385 169.662 144.651 170.225 139.667 170.881 L139.667 173.225 L145.417 173.225 Z"/>
  <path d="M166.401 166.100 C163.979 166.100 161.776 167.209 160.417 169.006 C158.729 171.209 157.885 174.506 157.885 179.116 C157.885 187.506 160.823 192.100 166.401 192.100 C171.901 192.100 174.901 187.506 174.901 179.319 C174.901 174.506 174.104 171.272 172.370 169.006 C171.026 167.178 168.854 166.100 166.401 166.100 Z M166.401 168.975 C169.885 168.975 171.604 172.303 171.604 179.037 C171.604 186.131 169.917 189.428 166.323 189.428 C162.917 189.428 161.198 185.991 161.198 179.147 C161.198 172.303 162.917 168.975 166.401 168.975 Z"/>
  <path d="M182.714 166.100 C179.167 166.100 177.260 168.881 177.260 174.084 C177.260 179.334 179.167 182.100 182.760 182.100 C186.276 182.100 188.214 179.334 188.214 174.241 C188.214 168.850 186.354 166.100 182.714 166.100 Z M182.714 168.053 C184.839 168.053 185.917 170.053 185.917 174.053 C185.917 178.303 184.885 180.272 182.682 180.272 C180.589 180.272 179.573 178.194 179.573 174.131 C179.573 170.022 180.589 168.053 182.714 168.053 Z"/>
  <path d="M67.432 152.226 L53.760 152.226 C54.089 150.070 55.260 148.710 58.448 146.820 L62.120 144.804 C65.745 142.835 67.620 140.195 67.620 137.007 C67.620 134.851 66.729 132.851 65.198 131.429 C63.651 130.039 61.745 129.367 59.292 129.367 C55.995 129.367 53.542 130.554 52.104 132.804 C51.182 134.179 50.792 135.789 50.714 138.398 L53.932 138.398 C54.042 136.648 54.260 135.601 54.714 134.742 C55.557 133.164 57.245 132.195 59.182 132.195 C62.120 132.195 64.307 134.273 64.307 137.070 C64.307 139.148 63.104 140.945 60.792 142.226 L57.417 144.164 C51.995 147.210 50.417 149.648 50.120 155.367 L67.432 155.367 L67.432 152.226 Z"/>
  <path d="M76.276 151.554 L72.464 151.554 L72.464 155.367 L76.276 155.367 L76.276 151.554 Z"/>
  <path d="M89.542 129.367 C87.120 129.367 84.917 130.476 83.557 132.273 C81.870 134.476 81.026 137.773 81.026 142.382 C81.026 150.773 83.964 155.367 89.542 155.367 C95.042 155.367 98.042 150.773 98.042 142.585 C98.042 137.773 97.245 134.539 95.510 132.273 C94.167 130.445 91.995 129.367 89.542 129.367 Z M89.542 132.242 C93.026 132.242 94.745 135.570 94.745 142.304 C94.745 149.398 93.057 152.695 89.464 152.695 C86.057 152.695 84.339 149.257 84.339 142.414 C84.339 135.570 86.057 132.242 89.542 132.242 Z"/>
  <path d=""/>
  <path d="M123.229 139.710 L117.839 145.070 L112.495 139.757 L110.698 141.554 L116.042 146.898 L110.651 152.289 L112.495 154.085 L117.839 148.742 L123.229 154.132 L125.073 152.289 L119.682 146.898 L125.026 141.554 L123.229 139.710 Z"/>
  <path d=""/>
  <path d="M145.417 136.492 L145.417 155.367 L148.651 155.367 L148.651 128.867 L146.526 128.867 C145.385 132.929 144.651 133.492 139.667 134.148 L139.667 136.492 L145.417 136.492 Z"/>
  <path d="M166.401 129.367 C163.979 129.367 161.776 130.476 160.417 132.273 C158.729 134.476 157.885 137.773 157.885 142.382 C157.885 150.773 160.823 155.367 166.401 155.367 C171.901 155.367 174.901 150.773 174.901 142.585 C174.901 137.773 174.104 134.539 172.370 132.273 C171.026 130.445 168.854 129.367 166.401 129.367 Z M166.401 132.242 C169.885 132.242 171.604 135.570 171.604 142.304 C171.604 149.398 169.917 152.695 166.323 152.695 C162.917 152.695 161.198 149.257 161.198 142.414 C161.198 135.570 162.917 132.242 166.401 132.242 Z"/>
  <path d="M182.714 129.367 C179.167 129.367 177.260 132.148 177.260 137.351 C177.260 142.601 179.167 145.367 182.760 145.367 C186.276 145.367 188.214 142.601 188.214 137.507 C188.214 132.117 186.354 129.367 182.714 129.367 Z M182.714 131.320 C184.839 131.320 185.917 133.320 185.917 137.320 C185.917 141.570 184.885 143.539 182.682 143.539 C180.589 143.539 179.573 141.460 179.573 137.398 C179.573 133.289 180.589 131.320 182.714 131.320 Z"/>
  <path d="M56.979 106.227 L57.385 106.227 L58.745 106.227 C62.260 106.227 64.135 107.774 64.135 110.758 C64.135 113.883 62.120 115.774 58.776 115.774 C55.214 115.774 53.495 114.102 53.276 110.446 L50.057 110.446 C50.198 112.446 50.557 113.758 51.182 114.852 C52.542 117.352 55.073 118.633 58.635 118.633 C63.979 118.633 67.432 115.430 67.432 110.727 C67.432 107.571 66.151 105.852 63.026 104.821 C65.448 103.883 66.667 102.165 66.667 99.665 C66.667 95.399 63.698 92.633 58.745 92.633 C53.495 92.633 50.714 95.571 50.604 100.821 L53.823 100.821 C53.870 99.321 54.010 98.461 54.417 97.696 C55.151 96.290 56.760 95.461 58.776 95.461 C61.635 95.461 63.354 97.086 63.354 99.758 C63.354 101.508 62.698 102.586 61.276 103.165 C60.385 103.508 59.214 103.649 56.979 103.680 L56.979 106.227 Z"/>
  <path d="M76.276 114.821 L72.464 114.821 L72.464 118.633 L76.276 118.633 L76.276 114.821 Z"/>
  <path d="M89.542 92.633 C87.120 92.633 84.917 93.743 83.557 95.540 C81.870 97.743 81.026 101.040 81.026 105.649 C81.026 114.040 83.964 118.633 89.542 118.633 C95.042 118.633 98.042 114.040 98.042 105.852 C98.042 101.040 97.245 97.805 95.510 95.540 C94.167 93.711 91.995 92.633 89.542 92.633 Z M89.542 95.508 C93.026 95.508 94.745 98.836 94.745 105.571 C94.745 112.665 93.057 115.961 89.464 115.961 C86.057 115.961 84.339 112.524 84.339 105.680 C84.339 98.836 86.057 95.508 89.542 95.508 Z"/>
  <path d=""/>
  <path d="M123.229 102.977 L117.839 108.336 L112.495 103.024 L110.698 104.821 L116.042 110.165 L110.651 115.555 L112.495 117.352 L117.839 112.008 L123.229 117.399 L125.073 115.555 L119.682 110.165 L125.026 104.821 L123.229 102.977 Z"/>
  <path d=""/>
  <path d="M145.417 99.758 L145.417 118.633 L148.651 118.633 L148.651 92.133 L146.526 92.133 C145.385 96.196 144.651 96.758 139.667 97.415 L139.667 99.758 L145.417 99.758 Z"/>
  <path d="M166.401 92.633 C163.979 92.633 161.776 93.743 160.417 95.540 C158.729 97.743 157.885 101.040 157.885 105.649 C157.885 114.040 160.823 118.633 166.401 118.633 C171.901 118.633 174.901 114.040 174.901 105.852 C174.901 101.040 174.104 97.805 172.370 95.540 C171.026 93.711 168.854 92.633 166.401 92.633 Z M166.401 95.508 C169.885 95.508 171.604 98.836 171.604 105.571 C171.604 112.665 169.917 115.961 166.323 115.961 C162.917 115.961 161.198 112.524 161.198 105.680 C161.198 98.836 162.917 95.508 166.401 95.508 Z"/>
  <path d="M182.714 92.633 C179.167 92.633 177.260 95.415 177.260 100.618 C177.260 105.868 179.167 108.633 182.760 108.633 C186.276 108.633 188.214 105.868 188.214 100.774 C188.214 95.383 186.354 92.633 182.714 92.633 Z M182.714 94.586 C184.839 94.586 185.917 96.586 185.917 100.586 C185.917 104.836 184.885 106.805 182.682 106.805 C180.589 106.805 179.573 104.727 179.573 100.665 C179.573 96.555 180.589 94.586 182.714 94.586 Z"/>
  <path d="M60.870 75.806 L60.870 81.900 L64.089 81.900 L64.089 75.806 L67.948 75.806 L67.948 72.900 L64.089 72.900 L64.089 55.712 L61.714 55.712 L49.901 72.400 L49.901 75.806 L60.870 75.806 Z M60.870 72.900 L52.729 72.900 L60.870 61.212 L60.870 72.900 Z"/>
  <path d="M76.276 78.087 L72.464 78.087 L72.464 81.900 L76.276 81.900 L76.276 78.087 Z"/>
  <path d="M89.542 55.900 C87.120 55.900 84.917 57.009 83.557 58.806 C81.870 61.009 81.026 64.306 81.026 68.916 C81.026 77.306 83.964 81.900 89.542 81.900 C95.042 81.900 98.042 77.306 98.042 69.119 C98.042 64.306 97.245 61.072 95.510 58.806 C94.167 56.978 91.995 55.900 89.542 55.900 Z M89.542 58.775 C93.026 58.775 94.745 62.103 94.745 68.837 C94.745 75.931 93.057 79.228 89.464 79.228 C86.057 79.228 84.339 75.791 84.339 68.947 C84.339 62.103 86.057 58.775 89.542 58.775 Z"/>
  <path d=""/>
  <path d="M123.229 66.244 L117.839 71.603 L112.495 66.291 L110.698 68.087 L116.042 73.431 L110.651 78.822 L112.495 80.619 L117.839 75.275 L123.229 80.666 L125.073 78.822 L119.682 73.431 L125.026 68.087 L123.229 66.244 Z"/>
  <path d=""/>
  <path d="M145.417 63.025 L145.417 81.900 L148.651 81.900 L148.651 55.400 L146.526 55.400 C145.385 59.462 144.651 60.025 139.667 60.681 L139.667 63.025 L145.417 63.025 Z"/>
  <path d="M166.401 55.900 C163.979 55.900 161.776 57.009 160.417 58.806 C158.729 61.009 157.885 64.306 157.885 68.916 C157.885 77.306 160.823 81.900 166.401 81.900 C171.901 81.900 174.901 77.306 174.901 69.119 C174.901 64.306 174.104 61.072 172.370 58.806 C171.026 56.978 168.854 55.900 166.401 55.900 Z M166.401 58.775 C169.885 58.775 171.604 62.103 171.604 68.837 C171.604 75.931 169.917 79.228 166.323 79.228 C162.917 79.228 161.198 75.791 161.198 68.947 C161.198 62.103 162.917 58.775 166.401 58.775 Z"/>
  <path d="M182.714 55.900 C179.167 55.900 177.260 58.681 177.260 63.884 C177.260 69.134 179.167 71.900 182.760 71.900 C186.276 71.900 188.214 69.134 188.214 64.041 C188.214 58.650 186.354 55.900 182.714 55.900 Z M182.714 57.853 C184.839 57.853 185.917 59.853 185.917 63.853 C185.917 68.103 184.885 70.072 182.682 70.072 C180.589 70.072 179.573 67.994 179.573 63.931 C179.573 59.822 180.589 57.853 182.714 57.853 Z"/>
  <path d="M66.339 19.167 L52.917 19.167 L50.964 33.260 L53.932 33.260 C55.448 31.604 56.682 31.042 58.745 31.042 C62.229 31.042 64.385 33.229 64.385 36.776 C64.385 40.214 62.229 42.307 58.698 42.307 C55.885 42.307 54.151 40.995 53.385 38.292 L50.167 38.292 C50.604 40.260 50.964 41.198 51.745 42.073 C53.198 44.042 55.839 45.167 58.776 45.167 C64.026 45.167 67.682 41.432 67.682 36.370 C67.682 31.651 64.276 28.167 59.292 28.167 C57.464 28.167 55.995 28.651 54.495 29.745 L55.510 22.370 L66.339 22.370 L66.339 19.167 Z"/>
  <path d="M76.276 41.354 L72.464 41.354 L72.464 45.167 L76.276 45.167 L76.276 41.354 Z"/>
  <path d="M89.542 19.167 C87.120 19.167 84.917 20.276 83.557 22.073 C81.870 24.276 81.026 27.573 81.026 32.182 C81.026 40.573 83.964 45.167 89.542 45.167 C95.042 45.167 98.042 40.573 98.042 32.385 C98.042 27.573 97.245 24.339 95.510 22.073 C94.167 20.245 91.995 19.167 89.542 19.167 Z M89.542 22.042 C93.026 22.042 94.745 25.370 94.745 32.104 C94.745 39.198 93.057 42.495 89.464 42.495 C86.057 42.495 84.339 39.057 84.339 32.214 C84.339 25.370 86.057 22.042 89.542 22.042 Z"/>
  <path d=""/>
  <path d="M123.229 29.510 L117.839 34.870 L112.495 29.557 L110.698 31.354 L116.042 36.698 L110.651 42.089 L112.495 43.885 L117.839 38.542 L123.229 43.932 L125.073 42.089 L119.682 36.698 L125.026 31.354 L123.229 29.510 Z"/>
  <path d=""/>
  <path d="M145.417 26.292 L145.417 45.167 L148.651 45.167 L148.651 18.667 L146.526 18.667 C145.385 22.729 144.651 23.292 139.667 23.948 L139.667 26.292 L145.417 26.292 Z"/>
  <path d="M166.401 19.167 C163.979 19.167 161.776 20.276 160.417 22.073 C158.729 24.276 157.885 27.573 157.885 32.182 C157.885 40.573 160.823 45.167 166.401 45.167 C171.901 45.167 174.901 40.573 174.901 32.385 C174.901 27.573 174.104 24.339 172.370 22.073 C171.026 20.245 168.854 19.167 166.401 19.167 Z M166.401 22.042 C169.885 22.042 171.604 25.370 171.604 32.104 C171.604 39.198 169.917 42.495 166.323 42.495 C162.917 42.495 161.198 39.057 161.198 32.214 C161.198 25.370 162.917 22.042 166.401 22.042 Z"/>
  <path d="M182.714 19.167 C179.167 19.167 177.260 21.948 177.260 27.151 C177.260 32.401 179.167 35.167 182.760 35.167 C186.276 35.167 188.214 32.401 188.214 27.307 C188.214 21.917 186.354 19.167 182.714 19.167 Z M182.714 21.120 C184.839 21.120 185.917 23.120 185.917 27.120 C185.917 31.370 184.885 33.339 182.682 33.339 C180.589 33.339 179.573 31.260 179.573 27.198 C179.573 23.089 180.589 21.120 182.714 21.120 Z"/>
  <path d="M218.266 221.146 L223.246 222.320 L228.227 195.315 L233.208 203.922 L238.189 219.864 L243.169 245.422 L248.150 191.282 L253.131 201.733 L258.112 222.245 L263.092 192.053 L268.073 238.114 L273.054 256.010 L278.035 191.913 L283.015 195.199 L287.996 189.150 L292.977 252.845 L297.958 211.966 L302.938 255.088 L307.919 230.780 L312.900 190.532 L317.880 247.753 L322.861 207.616 L327.842 236.379 L332.823 200.040 L337.803 186.515 L342.784 215.430 L347.765 239.918 L352.746 201.073 L357.726 196.799 L362.707 201.998 L367.688 244.849 L372.669 198.352 L377.649 250.554 L382.630 254.500 L387.611 194.807 L392.592 247.526 L397.572 212.167 L402.553 228.259 L407.534 244.965 L412.515 185.893 L417.495 233.401 L422.476 232.447 L427.457 232.159 L432.438 196.145 L437.418 190.507 L442.399 185.522 L447.380 189.585 L452.361 188.272 L457.341 211.540 L462.322 197.883 L467.303 239.852 L472.284 226.860 L477.264 223.196 L482.245 196.976 L487.226 214.696 L492.207 200.719 L497.187 184.320 L502.168 211.664 L507.149 224.438 L512.129 194.654 L517.110 226.510 L522.091 188.590 L527.072 251.012 L532.052 193.924 L537.033 248.049 L542.014 190.344 L546.995 250.638 L551.975 225.137 L556.956 219.032 L561.937 205.234 L566.918 256.262 L571.898 197.272 L576.879 213.715 L581.860 202.300 L586.841 210.901 L591.821 203.825 L596.802 253.800 L601.783 208.530 L606.764 195.601 L611.744 190.018 L616.725 210.254 L621.706 230.379 L626.687 195.251 L631.667 221.679 L636.648 250.647 L641.629 212.447 L646.610 229.128 L651.590 192.382 L656.571 201.869 L661.552 216.033 L666.533 256.611 L671.513 239.078 L676.494 188.266 L681.475 203.174 L686.456 206.632 L691.436 191.423 L696.417 221.808 L701.398 240.228 L706.379 205.407 L711.359 227.281 L716.340 231.445 L721.321 229.183 L726.301 205.230 L731.282 236.267 L736.263 216.040 L741.244 217.469 L746.224 206.056 L751.205 211.513 L756.186 206.203 L761.167 240.715 L766.147 233.478 L771.128 214.344 L776.109 219.315 L781.090 255.504 L786.070 212.314 L791.051 210.559 L796.032 197.023 L801.013 247.710 L805.993 224.879 L810.974 209.345 L815.955 249.223 L820.936 244.307 L825.916 205.377 L830.897 250.741 L835.878 213.355 L840.859 192.854 L845.839 191.120 L850.820 227.517 L855.801 223.036 L860.782 200.100 L865.762 233.174 L870.743 246.266 L875.724 219.511 L880.705 192.363 L885.685 224.691 L890.666 209.912 L895.647 234.853 L900.628 248.020 L905.608 202.797 L910.589 256.719 L915.570 211.992 L920.550 219.198 L925.531 210.079 L930.512 221.457 L935.493 240.548 L940.473 234.252 L945.454 191.608 L950.435 212.584 L955.416 200.444 L960.396 241.819 L965.377 254.227 L970.358 227.738 L975.339 211.602 L980.319 205.533 L985.300 251.023 L990.281 201.008 L995.262 244.102 L1000.242 211.350 L1005.223 252.307 L1010.204 204.002 L1015.185 246.759 L1020.165 253.761 L1025.146 244.767 L1030.127 229.056 L1035.108 253.060 L1040.088 217.686 L1045.069 211.180 L1050.050 201.768 L1055.031 218.839 L1060.011 225.268 L1064.992 254.433 L1069.973 256.744 L1074.954 256.035 L1079.934 223.925 L1084.915 216.126 L1089.896 247.940 L1094.877 254.827 L1099.857 240.023 L1104.838 213.967 L1109.819 211.292 L1114.799 208.410 L1119.780 187.418 L1124.761 238.454 L1129.742 226.599 L1134.722 188.109 L1139.703 198.233 L1144.684 188.901 L1149.665 248.183 L1154.645 242.889 L1159.626 212.915 L1164.607 207.950 L1169.588 195.427 L1174.568 243.765 L1179.549 241.501 L1184.530 228.187 L1189.511 213.053 L1194.491 214.468 L1199.472 237.140 L1204.453 203.020 L1209.434 232.175 L1214.414 234.841 L1219.395 206.541 L1224.376 208.057 L1229.357 208.104 L1234.337 184.016 L1239.318 206.533 L1244.299 183.723 L1249.280 187.707 L1254.260 195.764 L1259.241 218.967 L1264.222 249.610 L1269.203 184.810 L1274.183 249.293 L1279.164 234.976 L1284.145 205.293 L1289.126 188.423 L1294.106 191.942 L1299.087 184.299 L1304.068 235.125 L1309.048 206.209 L1314.029 183.744 L1319.010 198.172 L1323.991 185.028 L1328.971 227.612 L1333.952 189.982 L1338.933 198.008 L1343.914 191.946 L1348.894 192.518 L1353.875 254.220 L1358.856 239.315 L1363.837 186.421 L1368.817 211.570 L1373.798 216.960 L1378.779 238.181 L1383.760 220.736 L1388.740 202.102 L1393.721 241.597 L1398.702 197.979 L1403.683 191.887 L1408.663 219.793 L1413.644 202.314 L1418.625 209.625 L1423.606 206.975 L1428.586 184.502 L1433.567 205.213 L1438.548 232.877 L1443.529 241.651 L1448.509 220.039 L1453.490 244.955 L1458.471 187.479 L1463.452 198.934 L1468.432 193.874 L1473.413 249.889 L1478.394 256.037 L1483.375 195.512 L1488.355 214.835 L1493.336 217.390 L1498.317 207.181 L1503.297 233.487 L1508.278 202.173 L1513.259 203.530 L1518.240 185.331 L1523.220 240.358 L1528.201 236.403 L1533.182 256.143 L1538.163 244.671 L1543.143 230.947 L1548.124 240.961 L1553.105 204.750 L1558.086 239.766 L1563.066 187.011 L1568.047 253.318 L1573.028 212.647 L1578.009 192.360 L1582.989 214.332 L1587.970 255.355 L1592.951 183.815 L1597.932 195.193 L1602.912 236.308 L1607.893 235.359 L1612.874 196.449 L1617.855 253.605 L1622.835 210.365 L1627.816 183.667 L1632.797 197.229 L1637.778 243.355 L1642.758 194.991 L1647.739 184.805 L1652.720 193.121 L1657.701 249.681 L1662.681 246.959 L1667.662 216.640 L1672.643 222.489 L1677.624 254.177 L1682.604 237.184 L1687.585 250.593 L1692.566 241.229 L1697.546 219.438 L1702.527 199.034 L1707.508 223.902 L1712.489 248.376 L1717.469 189.296 L1722.450 211.505 L1727.431 248.502 L1732.412 189.465 L1737.392 214.973 L1742.373 255.315 L1747.354 194.043 L1752.335 250.428 L1757.315 223.449 L1762.296 188.001 L1767.277 186.492 L1772.258 214.750 L1777.238 209.401 L1782.219 215.728 L1787.200 189.733 L1792.181 235.768 L1797.161 202.097 L1802.142 205.923 L1807.123 202.910 L1812.104 227.443 L1817.084 199.286 L1822.065 192.775 L1827.046 225.724 L1832.027 215.310 L1837.007 196.077 L1841.988 221.303 L1846.969 245.894 L1851.950 253.203 L1856.930 248.551 L1861.911 244.624 L1866.892 238.372 L1871.873 220.773 L1876.853 206.826 L1881.834 218.865 L1886.815 234.822 L1891.795 249.115 L1896.776 254.858 L1901.757 204.029 L1906.738 197.254 L1911.718 222.354 L1916.699 187.261 L1921.680 239.270 L1926.661 199.828 L1931.641 186.517 L1936.622 204.129 L1941.603 213.014 L1946.584 230.818 L1951.564 206.886 L1956.545 210.724 L1961.526 189.896 L1966.507 186.698 L1971.487 184.183 L1976.468 207.396 L1981.449 188.726 L1986.430 192.144 L1991.410 236.296 L1996.391 208.928 L2001.372 227.249 L2006.353 216.660 L2011.333 224.675" fill="none" stroke="#0066cc" stroke-width="5"/>
  <path d="M1729.339 114.667 L1729.339 87.667 L1741.089 87.667 Q1744.620 87.667 1746.464 88.409 Q1748.307 89.151 1749.409 91.026 Q1750.510 92.901 1750.510 95.182 Q1750.510 98.104 1748.690 100.112 Q1746.870 102.120 1743.057 102.667 Q1744.448 103.448 1745.167 104.198 Q1746.698 105.839 1748.073 107.495 L1752.682 114.667 L1748.276 114.667 L1744.760 109.182 Q1743.229 106.807 1742.237 105.549 Q1741.245 104.292 1740.464 103.674 Q1739.682 103.057 1738.870 102.823 Q1738.276 102.667 1736.917 102.667 L1732.839 102.667 L1732.839 114.667 L1729.339 114.667 Z M1732.839 99.667 L1740.385 99.667 Q1742.776 99.667 1744.135 99.159 Q1745.495 98.651 1746.198 97.526 Q1746.901 96.401 1746.901 95.089 Q1746.901 93.151 1745.534 91.909 Q1744.167 90.667 1741.229 90.667 L1732.839 90.667 L1732.839 99.667 Z"/>
  <path d="M1767.870 112.667 Q1766.073 113.760 1764.401 114.214 Q1762.729 114.667 1760.823 114.667 Q1757.651 114.667 1755.956 113.073 Q1754.260 111.479 1754.260 109.010 Q1754.260 107.557 1754.901 106.354 Q1755.542 105.151 1756.581 104.424 Q1757.620 103.698 1758.917 103.323 Q1759.870 103.057 1761.807 102.823 Q1765.745 102.339 1767.604 101.667 Q1767.620 101.104 1767.620 100.948 Q1767.620 99.276 1766.698 98.589 Q1765.448 97.667 1762.995 97.667 Q1760.698 97.667 1759.612 98.331 Q1758.526 98.995 1757.995 100.667 L1754.807 100.667 Q1755.245 98.589 1756.237 97.315 Q1757.229 96.042 1759.104 95.354 Q1760.979 94.667 1763.464 94.667 Q1765.917 94.667 1767.456 95.260 Q1768.995 95.854 1769.714 96.753 Q1770.432 97.651 1770.729 99.026 Q1770.885 99.885 1770.885 101.932 L1770.885 106.010 Q1770.885 110.292 1771.096 111.792 Q1771.307 113.292 1771.917 114.667 L1768.526 114.667 Q1768.010 113.807 1767.870 112.667 Z M1767.604 104.667 Q1765.839 105.339 1762.292 105.807 Q1760.292 106.073 1759.464 106.417 Q1758.635 106.760 1758.182 107.401 Q1757.729 108.042 1757.729 108.839 Q1757.729 110.057 1758.714 110.862 Q1759.698 111.667 1761.589 111.667 Q1763.479 111.667 1764.940 110.854 Q1766.401 110.042 1767.089 108.729 Q1767.604 107.729 1767.604 105.760 L1767.604 104.667 Z"/>
  <path d="M1775.745 114.667 L1775.745 94.667 L1778.667 94.667 L1778.667 97.401 Q1780.776 94.667 1784.776 94.667 Q1786.510 94.667 1787.964 95.299 Q1789.417 95.932 1790.143 96.964 Q1790.870 97.995 1791.151 99.417 Q1791.339 100.339 1791.339 102.635 L1791.339 114.667 L1788.089 114.667 L1788.089 102.854 Q1788.089 100.854 1787.706 99.854 Q1787.323 98.854 1786.362 98.260 Q1785.401 97.667 1784.089 97.667 Q1782.010 97.667 1780.503 99.003 Q1778.995 100.339 1778.995 104.073 L1778.995 114.667 L1775.745 114.667 Z"/>
  <path d="M1808.589 114.667 L1808.589 111.464 Q1806.760 114.667 1803.229 114.667 Q1800.932 114.667 1799.003 113.409 Q1797.073 112.151 1796.018 109.885 Q1794.964 107.620 1794.964 104.682 Q1794.964 101.823 1795.924 99.487 Q1796.885 97.151 1798.799 95.909 Q1800.714 94.667 1803.073 94.667 Q1804.807 94.667 1806.167 95.479 Q1807.526 96.292 1808.370 97.604 L1808.370 87.667 L1811.604 87.667 L1811.604 114.667 L1808.589 114.667 Z M1798.307 104.682 Q1798.307 108.182 1799.862 109.924 Q1801.417 111.667 1803.526 111.667 Q1805.651 111.667 1807.143 110.003 Q1808.635 108.339 1808.635 104.932 Q1808.635 101.182 1807.120 99.424 Q1805.604 97.667 1803.385 97.667 Q1801.214 97.667 1799.760 99.354 Q1798.307 101.042 1798.307 104.682 Z"/>
  <path d="M1815.323 104.667 Q1815.323 99.354 1818.292 96.792 Q1820.760 94.667 1824.323 94.667 Q1828.276 94.667 1830.784 97.253 Q1833.292 99.839 1833.292 104.401 Q1833.292 108.089 1832.182 110.206 Q1831.073 112.323 1828.948 113.495 Q1826.823 114.667 1824.323 114.667 Q1820.292 114.667 1817.807 112.089 Q1815.323 109.510 1815.323 104.667 Z M1818.667 104.651 Q1818.667 108.167 1820.276 109.917 Q1821.885 111.667 1824.323 111.667 Q1826.729 111.667 1828.339 109.909 Q1829.948 108.151 1829.948 104.557 Q1829.948 101.167 1828.331 99.417 Q1826.714 97.667 1824.323 97.667 Q1821.885 97.667 1820.276 99.409 Q1818.667 101.151 1818.667 104.651 Z"/>
  <path d="M1836.917 114.667 L1836.917 94.667 L1839.823 94.667 L1839.823 97.979 Q1840.729 96.479 1842.229 95.573 Q1843.729 94.667 1845.635 94.667 Q1847.776 94.667 1849.135 95.604 Q1850.495 96.542 1851.057 98.214 Q1853.339 94.667 1856.995 94.667 Q1859.839 94.667 1861.378 96.276 Q1862.917 97.885 1862.917 101.245 L1862.917 114.667 L1859.682 114.667 L1859.682 102.432 Q1859.682 100.464 1859.370 99.596 Q1859.057 98.729 1858.221 98.198 Q1857.385 97.667 1856.276 97.667 Q1854.245 97.667 1852.909 99.026 Q1851.573 100.385 1851.573 103.385 L1851.573 114.667 L1848.323 114.667 L1848.323 102.057 Q1848.323 99.854 1847.526 98.760 Q1846.729 97.667 1844.917 97.667 Q1843.542 97.667 1842.378 98.401 Q1841.214 99.135 1840.690 100.542 Q1840.167 101.948 1840.167 104.604 L1840.167 114.667 L1836.917 114.667 Z"/>
  <path d=""/>
  <path d="M1878.073 114.667 L1878.073 87.667 L1887.198 87.667 Q1890.276 87.667 1891.901 88.057 Q1894.182 88.589 1895.792 89.995 Q1897.885 91.792 1898.924 94.604 Q1899.964 97.417 1899.964 101.026 Q1899.964 104.089 1899.260 106.471 Q1898.557 108.854 1897.456 110.409 Q1896.354 111.964 1895.042 112.854 Q1893.729 113.745 1891.878 114.206 Q1890.026 114.667 1887.620 114.667 L1878.073 114.667 Z M1881.573 111.667 L1887.229 111.667 Q1889.854 111.667 1891.339 111.159 Q1892.823 110.651 1893.714 109.729 Q1894.964 108.448 1895.659 106.260 Q1896.354 104.073 1896.354 100.964 Q1896.354 96.651 1894.987 94.331 Q1893.620 92.010 1891.667 91.229 Q1890.260 90.667 1887.135 90.667 L1881.573 90.667 L1881.573 111.667 Z"/>
  <path d="M1916.651 112.667 Q1914.854 113.760 1913.182 114.214 Q1911.510 114.667 1909.604 114.667 Q1906.432 114.667 1904.737 113.073 Q1903.042 111.479 1903.042 109.010 Q1903.042 107.557 1903.682 106.354 Q1904.323 105.151 1905.362 104.424 Q1906.401 103.698 1907.698 103.323 Q1908.651 103.057 1910.589 102.823 Q1914.526 102.339 1916.385 101.667 Q1916.401 101.104 1916.401 100.948 Q1916.401 99.276 1915.479 98.589 Q1914.229 97.667 1911.776 97.667 Q1909.479 97.667 1908.393 98.331 Q1907.307 98.995 1906.776 100.667 L1903.589 100.667 Q1904.026 98.589 1905.018 97.315 Q1906.010 96.042 1907.885 95.354 Q1909.760 94.667 1912.245 94.667 Q1914.698 94.667 1916.237 95.260 Q1917.776 95.854 1918.495 96.753 Q1919.214 97.651 1919.510 99.026 Q1919.667 99.885 1919.667 101.932 L1919.667 106.010 Q1919.667 110.292 1919.878 111.792 Q1920.089 113.292 1920.698 114.667 L1917.307 114.667 Q1916.792 113.807 1916.651 112.667 Z M1916.385 104.667 Q1914.620 105.339 1911.073 105.807 Q1909.073 106.073 1908.245 106.417 Q1907.417 106.760 1906.964 107.401 Q1906.510 108.042 1906.510 108.839 Q1906.510 110.057 1907.495 110.862 Q1908.479 111.667 1910.370 111.667 Q1912.260 111.667 1913.721 110.854 Q1915.182 110.042 1915.870 108.729 Q1916.385 107.729 1916.385 105.760 L1916.385 104.667 Z"/>
  <path d="M1931.635 111.510 L1932.104 114.385 Q1930.729 114.667 1929.651 114.667 Q1927.870 114.667 1926.893 114.104 Q1925.917 113.542 1925.518 112.628 Q1925.120 111.714 1925.120 108.760 L1925.120 97.667 L1922.745 97.667 L1922.745 94.667 L1925.120 94.667 L1925.120 89.917 L1928.354 87.964 L1928.354 94.667 L1931.635 94.667 L1931.635 97.667 L1928.354 97.667 L1928.354 108.979 Q1928.354 110.385 1928.526 110.792 Q1928.698 111.198 1929.089 111.432 Q1929.479 111.667 1930.198 111.667 Q1930.745 111.667 1931.635 111.510 Z"/>
  <path d="M1947.229 112.667 Q1945.432 113.760 1943.760 114.214 Q1942.089 114.667 1940.182 114.667 Q1937.010 114.667 1935.315 113.073 Q1933.620 111.479 1933.620 109.010 Q1933.620 107.557 1934.260 106.354 Q1934.901 105.151 1935.940 104.424 Q1936.979 103.698 1938.276 103.323 Q1939.229 103.057 1941.167 102.823 Q1945.104 102.339 1946.964 101.667 Q1946.979 101.104 1946.979 100.948 Q1946.979 99.276 1946.057 98.589 Q1944.807 97.667 1942.354 97.667 Q1940.057 97.667 1938.971 98.331 Q1937.885 98.995 1937.354 100.667 L1934.167 100.667 Q1934.604 98.589 1935.596 97.315 Q1936.589 96.042 1938.464 95.354 Q1940.339 94.667 1942.823 94.667 Q1945.276 94.667 1946.815 95.260 Q1948.354 95.854 1949.073 96.753 Q1949.792 97.651 1950.089 99.026 Q1950.245 99.885 1950.245 101.932 L1950.245 106.010 Q1950.245 110.292 1950.456 111.792 Q1950.667 113.292 1951.276 114.667 L1947.885 114.667 Q1947.370 113.807 1947.229 112.667 Z M1946.964 104.667 Q1945.198 105.339 1941.651 105.807 Q1939.651 106.073 1938.823 106.417 Q1937.995 106.760 1937.542 107.401 Q1937.089 108.042 1937.089 108.839 Q1937.089 110.057 1938.073 110.862 Q1939.057 111.667 1940.948 111.667 Q1942.839 111.667 1944.299 110.854 Q1945.760 110.042 1946.448 108.729 Q1946.964 107.729 1946.964 105.760 L1946.964 104.667 Z"/>
  <path d="M1691.599 115.417 C1684.005 115.417 1677.849 109.261 1677.849 101.667 C1677.849 94.073 1684.005 87.917 1691.599 87.917 C1699.193 87.917 1705.349 94.073 1705.349 101.667 C1705.349 109.261 1699.193 115.417 1691.599 115.417 Z" fill="#0066cc"/>
</svg>
