<?xml version="1.0" encoding="UTF-8" ?>
<!-- Generated by clip v0.7.0 (clip-lang.org) -->
<svg xmlns="http://www.w3.org/2000/svg" width="2048.000000" height="512.000000">
  <rect width="2048.000000" height="512.000000" fill="#ffffff" fill-opacity="1.000000"/>
  <path d="M218.266 404 L2011.33 404 " fill="none" stroke-width="3.333333" stroke="#000000ff"/>
  <path d="M442.399 404 L442.399 390.667 " fill="none" stroke-width="3.333333" stroke="#000000ff"/>
  <path d="M666.533 404 L666.533 390.667 " fill="none" stroke-width="3.333333" stroke="#000000ff"/>
  <path d="M890.666 404 L890.666 390.667 " fill="none" stroke-width="3.333333" stroke="#000000ff"/>
  <path d="M1114.8 404 L1114.8 390.667 " fill="none" stroke-width="3.333333" stroke="#000000ff"/>
  <path d="M1338.93 404 L1338.93 390.667 " fill="none" stroke-width="3.333333" stroke="#000000ff"/>
  <path d="M1563.07 404 L1563.07 390.667 " fill="none" stroke-width="3.333333" stroke="#000000ff"/>
  <path d="M1787.2 404 L1787.2 390.667 " fill="none" stroke-width="3.333333" stroke="#000000ff"/>
  <path d="M2011.33 404 L2011.33 390.667 " fill="none" stroke-width="3.333333" stroke="#000000ff"/>
  <path d="M372.571 453.849 Q372.571 449.146 373.54 446.294 Q374.508 443.443 376.415 441.888 Q378.321 440.333 381.212 440.333 Q383.352 440.333 384.954 441.193 Q386.555 442.052 387.61 443.661 Q388.665 445.271 389.258 447.591 Q389.852 449.911 389.852 453.849 Q389.852 458.49 388.891 461.349 Q387.93 464.208 386.024 465.771 Q384.118 467.333 381.212 467.333 Q377.383 467.333 375.196 464.599 Q372.571 461.286 372.571 453.849 ZM375.915 453.833 Q375.915 460.146 377.446 462.24 Q378.977 464.333 381.212 464.333 Q383.446 464.333 384.977 462.232 Q386.508 460.13 386.508 453.833 Q386.508 447.505 384.977 445.419 Q383.446 443.333 381.18 443.333 Q378.93 443.333 377.602 445.177 Q375.915 447.521 375.915 453.833 Z" fill="#000000" fill-opacity="1.000000"/>
  <path d="M392.962 453.849 Q392.962 449.146 393.93 446.294 Q394.899 443.443 396.805 441.888 Q398.712 440.333 401.602 440.333 Q403.743 440.333 405.344 441.193 Q406.946 442.052 408.001 443.661 Q409.055 445.271 409.649 447.591 Q410.243 449.911 410.243 453.849 Q410.243 458.49 409.282 461.349 Q408.321 464.208 406.415 465.771 Q404.508 467.333 401.602 467.333 Q397.774 467.333 395.587 464.599 Q392.962 461.286 392.962 453.849 ZM396.305 453.833 Q396.305 460.146 397.837 462.24 Q399.368 464.333 401.602 464.333 Q403.837 464.333 405.368 462.232 Q406.899 460.13 406.899 453.833 Q406.899 447.505 405.368 445.419 Q403.837 443.333 401.571 443.333 Q399.321 443.333 397.993 445.177 Q396.305 447.521 396.305 453.833 Z" fill="#000000" fill-opacity="1.000000"/>
  <path d="M415.165 450.333 L415.165 447.333 L418.868 447.333 L418.868 450.333 L415.165 450.333 ZM415.165 467.333 L415.165 464.333 L418.868 464.333 L418.868 467.333 L415.165 467.333 Z" fill="#000000" fill-opacity="1.000000"/>
  <path d="M435.79 467.333 L432.54 467.333 L432.54 446.302 Q431.368 447.443 429.462 448.576 Q427.555 449.708 426.04 450.271 L426.04 447.083 Q428.774 445.786 430.813 443.935 Q432.852 442.083 433.696 440.333 L435.79 440.333 L435.79 467.333 Z" fill="#000000" fill-opacity="1.000000"/>
  <path d="M443.93 460.333 L447.352 460.333 Q447.727 462.333 449.11 463.333 Q450.493 464.333 452.446 464.333 Q454.79 464.333 456.415 462.63 Q458.04 460.927 458.04 458.115 Q458.04 455.427 456.477 453.88 Q454.915 452.333 452.383 452.333 Q450.821 452.333 449.555 452.888 Q448.29 453.443 447.571 454.333 L444.508 454.333 L447.071 440.333 L460.243 440.333 L460.243 443.333 L449.68 443.333 L448.258 451.068 Q450.649 449.333 453.258 449.333 Q456.727 449.333 459.11 451.732 Q461.493 454.13 461.493 457.911 Q461.493 461.505 459.399 464.115 Q456.852 467.333 452.446 467.333 Q448.821 467.333 446.54 465.419 Q444.258 463.505 443.93 460.333 Z" fill="#000000" fill-opacity="1.000000"/>
  <path d="M466.133 450.333 L466.133 447.333 L469.837 447.333 L469.837 450.333 L466.133 450.333 ZM466.133 467.333 L466.133 464.333 L469.837 464.333 L469.837 467.333 L466.133 467.333 Z" fill="#000000" fill-opacity="1.000000"/>
  <path d="M474.508 453.849 Q474.508 449.146 475.477 446.294 Q476.446 443.443 478.352 441.888 Q480.258 440.333 483.149 440.333 Q485.29 440.333 486.891 441.193 Q488.493 442.052 489.548 443.661 Q490.602 445.271 491.196 447.591 Q491.79 449.911 491.79 453.849 Q491.79 458.49 490.829 461.349 Q489.868 464.208 487.962 465.771 Q486.055 467.333 483.149 467.333 Q479.321 467.333 477.133 464.599 Q474.508 461.286 474.508 453.849 ZM477.852 453.833 Q477.852 460.146 479.383 462.24 Q480.915 464.333 483.149 464.333 Q485.383 464.333 486.915 462.232 Q488.446 460.13 488.446 453.833 Q488.446 447.505 486.915 445.419 Q485.383 443.333 483.118 443.333 Q480.868 443.333 479.54 445.177 Q477.852 447.521 477.852 453.833 Z" fill="#000000" fill-opacity="1.000000"/>
  <path d="M494.899 453.849 Q494.899 449.146 495.868 446.294 Q496.837 443.443 498.743 441.888 Q500.649 440.333 503.54 440.333 Q505.68 440.333 507.282 441.193 Q508.883 442.052 509.938 443.661 Q510.993 445.271 511.587 447.591 Q512.18 449.911 512.18 453.849 Q512.18 458.49 511.219 461.349 Q510.258 464.208 508.352 465.771 Q506.446 467.333 503.54 467.333 Q499.712 467.333 497.524 464.599 Q494.899 461.286 494.899 453.849 ZM498.243 453.833 Q498.243 460.146 499.774 462.24 Q501.305 464.333 503.54 464.333 Q505.774 464.333 507.305 462.232 Q508.837 460.13 508.837 453.833 Q508.837 447.505 507.305 445.419 Q505.774 443.333 503.508 443.333 Q501.258 443.333 499.93 445.177 Q498.243 447.521 498.243 453.833 Z" fill="#000000" fill-opacity="1.000000"/>
  <path d="M596.704 453.849 Q596.704 449.146 597.673 446.294 Q598.642 443.443 600.548 441.888 Q602.454 440.333 605.345 440.333 Q607.486 440.333 609.087 441.193 Q610.689 442.052 611.743 443.661 Q612.798 445.271 613.392 447.591 Q613.986 449.911 613.986 453.849 Q613.986 458.49 613.025 461.349 Q612.064 464.208 610.158 465.771 Q608.251 467.333 605.345 467.333 Q601.517 467.333 599.329 464.599 Q596.704 461.286 596.704 453.849 ZM600.048 453.833 Q600.048 460.146 601.579 462.24 Q603.111 464.333 605.345 464.333 Q607.579 464.333 609.111 462.232 Q610.642 460.13 610.642 453.833 Q610.642 447.505 609.111 445.419 Q607.579 443.333 605.314 443.333 Q603.064 443.333 601.736 445.177 Q600.048 447.521 600.048 453.833 Z" fill="#000000" fill-opacity="1.000000"/>
  <path d="M617.095 453.849 Q617.095 449.146 618.064 446.294 Q619.033 443.443 620.939 441.888 Q622.845 440.333 625.736 440.333 Q627.876 440.333 629.478 441.193 Q631.079 442.052 632.134 443.661 Q633.189 445.271 633.783 447.591 Q634.376 449.911 634.376 453.849 Q634.376 458.49 633.415 461.349 Q632.454 464.208 630.548 465.771 Q628.642 467.333 625.736 467.333 Q621.908 467.333 619.72 464.599 Q617.095 461.286 617.095 453.849 ZM620.439 453.833 Q620.439 460.146 621.97 462.24 Q623.501 464.333 625.736 464.333 Q627.97 464.333 629.501 462.232 Q631.033 460.13 631.033 453.833 Q631.033 447.505 629.501 445.419 Q627.97 443.333 625.704 443.333 Q623.454 443.333 622.126 445.177 Q620.439 447.521 620.439 453.833 Z" fill="#000000" fill-opacity="1.000000"/>
  <path d="M639.298 450.333 L639.298 447.333 L643.001 447.333 L643.001 450.333 L639.298 450.333 ZM639.298 467.333 L639.298 464.333 L643.001 464.333 L643.001 467.333 L639.298 467.333 Z" fill="#000000" fill-opacity="1.000000"/>
  <path d="M647.689 460.333 L650.954 460.333 Q651.517 462.458 652.861 463.396 Q654.204 464.333 656.142 464.333 Q658.439 464.333 660.017 462.794 Q661.595 461.255 661.595 458.974 Q661.595 456.802 660.134 455.38 Q658.673 453.958 656.408 453.958 Q655.486 453.958 654.111 454.333 L654.47 451.333 Q654.798 451.365 655.001 451.365 Q657.079 451.365 658.736 450.349 Q660.392 449.333 660.392 447.208 Q660.392 445.536 659.181 444.435 Q657.97 443.333 656.048 443.333 Q654.158 443.333 652.892 444.333 Q651.626 445.333 651.267 447.333 L648.017 447.333 Q648.611 444.005 650.728 442.169 Q652.845 440.333 655.986 440.333 Q658.158 440.333 659.978 441.255 Q661.798 442.177 662.767 443.763 Q663.736 445.349 663.736 447.13 Q663.736 448.818 662.814 450.208 Q661.892 451.599 660.095 452.427 Q662.439 452.974 663.736 454.693 Q665.033 456.411 665.033 458.99 Q665.033 462.474 662.501 464.904 Q659.97 467.333 656.111 467.333 Q652.626 467.333 650.322 465.388 Q648.017 463.443 647.689 460.333 Z" fill="#000000" fill-opacity="1.000000"/>
  <path d="M668.064 453.849 Q668.064 449.146 669.033 446.294 Q670.001 443.443 671.908 441.888 Q673.814 440.333 676.704 440.333 Q678.845 440.333 680.447 441.193 Q682.048 442.052 683.103 443.661 Q684.158 445.271 684.751 447.591 Q685.345 449.911 685.345 453.849 Q685.345 458.49 684.384 461.349 Q683.423 464.208 681.517 465.771 Q679.611 467.333 676.704 467.333 Q672.876 467.333 670.689 464.599 Q668.064 461.286 668.064 453.849 ZM671.408 453.833 Q671.408 460.146 672.939 462.24 Q674.47 464.333 676.704 464.333 Q678.939 464.333 680.47 462.232 Q682.001 460.13 682.001 453.833 Q682.001 447.505 680.47 445.419 Q678.939 443.333 676.673 443.333 Q674.423 443.333 673.095 445.177 Q671.408 447.521 671.408 453.833 Z" fill="#000000" fill-opacity="1.000000"/>
  <path d="M690.267 450.333 L690.267 447.333 L693.97 447.333 L693.97 450.333 L690.267 450.333 ZM690.267 467.333 L690.267 464.333 L693.97 464.333 L693.97 467.333 L690.267 467.333 Z" fill="#000000" fill-opacity="1.000000"/>
  <path d="M698.642 453.849 Q698.642 449.146 699.611 446.294 Q700.579 443.443 702.486 441.888 Q704.392 440.333 707.283 440.333 Q709.423 440.333 711.025 441.193 Q712.626 442.052 713.681 443.661 Q714.736 445.271 715.329 447.591 Q715.923 449.911 715.923 453.849 Q715.923 458.49 714.962 461.349 Q714.001 464.208 712.095 465.771 Q710.189 467.333 707.283 467.333 Q703.454 467.333 701.267 464.599 Q698.642 461.286 698.642 453.849 ZM701.986 453.833 Q701.986 460.146 703.517 462.24 Q705.048 464.333 707.283 464.333 Q709.517 464.333 711.048 462.232 Q712.579 460.13 712.579 453.833 Q712.579 447.505 711.048 445.419 Q709.517 443.333 707.251 443.333 Q705.001 443.333 703.673 445.177 Q701.986 447.521 701.986 453.833 Z" fill="#000000" fill-opacity="1.000000"/>
  <path d="M719.033 453.849 Q719.033 449.146 720.001 446.294 Q720.97 443.443 722.876 441.888 Q724.783 440.333 727.673 440.333 Q729.814 440.333 731.415 441.193 Q733.017 442.052 734.072 443.661 Q735.126 445.271 735.72 447.591 Q736.314 449.911 736.314 453.849 Q736.314 458.49 735.353 461.349 Q734.392 464.208 732.486 465.771 Q730.579 467.333 727.673 467.333 Q723.845 467.333 721.658 464.599 Q719.033 461.286 719.033 453.849 ZM722.376 453.833 Q722.376 460.146 723.908 462.24 Q725.439 464.333 727.673 464.333 Q729.908 464.333 731.439 462.232 Q732.97 460.13 732.97 453.833 Q732.97 447.505 731.439 445.419 Q729.908 443.333 727.642 443.333 Q725.392 443.333 724.064 445.177 Q722.376 447.521 722.376 453.833 Z" fill="#000000" fill-opacity="1.000000"/>
  <path d="M820.838 453.849 Q820.838 449.146 821.807 446.294 Q822.775 443.443 824.682 441.888 Q826.588 440.333 829.479 440.333 Q831.619 440.333 833.221 441.193 Q834.822 442.052 835.877 443.661 Q836.932 445.271 837.525 447.591 Q838.119 449.911 838.119 453.849 Q838.119 458.49 837.158 461.349 Q836.197 464.208 834.291 465.771 Q832.385 467.333 829.479 467.333 Q825.65 467.333 823.463 464.599 Q820.838 461.286 820.838 453.849 ZM824.182 453.833 Q824.182 460.146 825.713 462.24 Q827.244 464.333 829.479 464.333 Q831.713 464.333 833.244 462.232 Q834.775 460.13 834.775 453.833 Q834.775 447.505 833.244 445.419 Q831.713 443.333 829.447 443.333 Q827.197 443.333 825.869 445.177 Q824.182 447.521 824.182 453.833 Z" fill="#000000" fill-opacity="1.000000"/>
  <path d="M841.229 453.849 Q841.229 449.146 842.197 446.294 Q843.166 443.443 845.072 441.888 Q846.979 440.333 849.869 440.333 Q852.01 440.333 853.611 441.193 Q855.213 442.052 856.268 443.661 Q857.322 445.271 857.916 447.591 Q858.51 449.911 858.51 453.849 Q858.51 458.49 857.549 461.349 Q856.588 464.208 854.682 465.771 Q852.775 467.333 849.869 467.333 Q846.041 467.333 843.854 464.599 Q841.229 461.286 841.229 453.849 ZM844.572 453.833 Q844.572 460.146 846.104 462.24 Q847.635 464.333 849.869 464.333 Q852.104 464.333 853.635 462.232 Q855.166 460.13 855.166 453.833 Q855.166 447.505 853.635 445.419 Q852.104 443.333 849.838 443.333 Q847.588 443.333 846.26 445.177 Q844.572 447.521 844.572 453.833 Z" fill="#000000" fill-opacity="1.000000"/>
  <path d="M863.432 450.333 L863.432 447.333 L867.135 447.333 L867.135 450.333 L863.432 450.333 ZM863.432 467.333 L863.432 464.333 L867.135 464.333 L867.135 467.333 L863.432 467.333 Z" fill="#000000" fill-opacity="1.000000"/>
  <path d="M882.229 467.333 L882.229 461.333 L870.744 461.333 L870.744 458.333 L882.838 440.333 L885.494 440.333 L885.494 458.333 L889.072 458.333 L889.072 461.333 L885.494 461.333 L885.494 467.333 L882.229 467.333 ZM882.229 458.333 L882.229 446.005 L873.947 458.333 L882.229 458.333 Z" fill="#000000" fill-opacity="1.000000"/>
  <path d="M892.197 460.333 L895.619 460.333 Q895.994 462.333 897.377 463.333 Q898.76 464.333 900.713 464.333 Q903.057 464.333 904.682 462.63 Q906.307 460.927 906.307 458.115 Q906.307 455.427 904.744 453.88 Q903.182 452.333 900.65 452.333 Q899.088 452.333 897.822 452.888 Q896.557 453.443 895.838 454.333 L892.775 454.333 L895.338 440.333 L908.51 440.333 L908.51 443.333 L897.947 443.333 L896.525 451.068 Q898.916 449.333 901.525 449.333 Q904.994 449.333 907.377 451.732 Q909.76 454.13 909.76 457.911 Q909.76 461.505 907.666 464.115 Q905.119 467.333 900.713 467.333 Q897.088 467.333 894.807 465.419 Q892.525 463.505 892.197 460.333 Z" fill="#000000" fill-opacity="1.000000"/>
  <path d="M914.4 450.333 L914.4 447.333 L918.104 447.333 L918.104 450.333 L914.4 450.333 ZM914.4 467.333 L914.4 464.333 L918.104 464.333 L918.104 467.333 L914.4 467.333 Z" fill="#000000" fill-opacity="1.000000"/>
  <path d="M922.775 453.849 Q922.775 449.146 923.744 446.294 Q924.713 443.443 926.619 441.888 Q928.525 440.333 931.416 440.333 Q933.557 440.333 935.158 441.193 Q936.76 442.052 937.814 443.661 Q938.869 445.271 939.463 447.591 Q940.057 449.911 940.057 453.849 Q940.057 458.49 939.096 461.349 Q938.135 464.208 936.229 465.771 Q934.322 467.333 931.416 467.333 Q927.588 467.333 925.4 464.599 Q922.775 461.286 922.775 453.849 ZM926.119 453.833 Q926.119 460.146 927.65 462.24 Q929.182 464.333 931.416 464.333 Q933.65 464.333 935.182 462.232 Q936.713 460.13 936.713 453.833 Q936.713 447.505 935.182 445.419 Q933.65 443.333 931.385 443.333 Q929.135 443.333 927.807 445.177 Q926.119 447.521 926.119 453.833 Z" fill="#000000" fill-opacity="1.000000"/>
  <path d="M943.166 453.849 Q943.166 449.146 944.135 446.294 Q945.104 443.443 947.01 441.888 Q948.916 440.333 951.807 440.333 Q953.947 440.333 955.549 441.193 Q957.15 442.052 958.205 443.661 Q959.26 445.271 959.854 447.591 Q960.447 449.911 960.447 453.849 Q960.447 458.49 959.486 461.349 Q958.525 464.208 956.619 465.771 Q954.713 467.333 951.807 467.333 Q947.979 467.333 945.791 464.599 Q943.166 461.286 943.166 453.849 ZM946.51 453.833 Q946.51 460.146 948.041 462.24 Q949.572 464.333 951.807 464.333 Q954.041 464.333 955.572 462.232 Q957.104 460.13 957.104 453.833 Q957.104 447.505 955.572 445.419 Q954.041 443.333 951.775 443.333 Q949.525 443.333 948.197 445.177 Q946.51 447.521 946.51 453.833 Z" fill="#000000" fill-opacity="1.000000"/>
  <path d="M1044.97 453.849 Q1044.97 449.146 1045.94 446.294 Q1046.91 443.443 1048.82 441.888 Q1050.72 440.333 1053.61 440.333 Q1055.75 440.333 1057.35 441.193 Q1058.96 442.052 1060.01 443.661 Q1061.07 445.271 1061.66 447.591 Q1062.25 449.911 1062.25 453.849 Q1062.25 458.49 1061.29 461.349 Q1060.33 464.208 1058.42 465.771 Q1056.52 467.333 1053.61 467.333 Q1049.78 467.333 1047.6 464.599 Q1044.97 461.286 1044.97 453.849 ZM1048.32 453.833 Q1048.32 460.146 1049.85 462.24 Q1051.38 464.333 1053.61 464.333 Q1055.85 464.333 1057.38 462.232 Q1058.91 460.13 1058.91 453.833 Q1058.91 447.505 1057.38 445.419 Q1055.85 443.333 1053.58 443.333 Q1051.33 443.333 1050 445.177 Q1048.32 447.521 1048.32 453.833 Z" fill="#000000" fill-opacity="1.000000"/>
  <path d="M1077.61 467.333 L1074.36 467.333 L1074.36 446.302 Q1073.19 447.443 1071.28 448.576 Q1069.38 449.708 1067.86 450.271 L1067.86 447.083 Q1070.6 445.786 1072.64 443.935 Q1074.67 442.083 1075.52 440.333 L1077.61 440.333 L1077.61 467.333 Z" fill="#000000" fill-opacity="1.000000"/>
  <path d="M1087.57 450.333 L1087.57 447.333 L1091.27 447.333 L1091.27 450.333 L1087.57 450.333 ZM1087.57 467.333 L1087.57 464.333 L1091.27 464.333 L1091.27 467.333 L1087.57 467.333 Z" fill="#000000" fill-opacity="1.000000"/>
  <path d="M1095.94 453.849 Q1095.94 449.146 1096.91 446.294 Q1097.88 443.443 1099.78 441.888 Q1101.69 440.333 1104.58 440.333 Q1106.72 440.333 1108.32 441.193 Q1109.92 442.052 1110.98 443.661 Q1112.03 445.271 1112.63 447.591 Q1113.22 449.911 1113.22 453.849 Q1113.22 458.49 1112.26 461.349 Q1111.3 464.208 1109.39 465.771 Q1107.49 467.333 1104.58 467.333 Q1100.75 467.333 1098.57 464.599 Q1095.94 461.286 1095.94 453.849 ZM1099.28 453.833 Q1099.28 460.146 1100.82 462.24 Q1102.35 464.333 1104.58 464.333 Q1106.82 464.333 1108.35 462.232 Q1109.88 460.13 1109.88 453.833 Q1109.88 447.505 1108.35 445.419 Q1106.82 443.333 1104.55 443.333 Q1102.3 443.333 1100.97 445.177 Q1099.28 447.521 1099.28 453.833 Z" fill="#000000" fill-opacity="1.000000"/>
  <path d="M1116.33 453.849 Q1116.33 449.146 1117.3 446.294 Q1118.27 443.443 1120.17 441.888 Q1122.08 440.333 1124.97 440.333 Q1127.11 440.333 1128.71 441.193 Q1130.32 442.052 1131.37 443.661 Q1132.42 445.271 1133.02 447.591 Q1133.61 449.911 1133.61 453.849 Q1133.61 458.49 1132.65 461.349 Q1131.69 464.208 1129.78 465.771 Q1127.88 467.333 1124.97 467.333 Q1121.14 467.333 1118.96 464.599 Q1116.33 461.286 1116.33 453.849 ZM1119.67 453.833 Q1119.67 460.146 1121.21 462.24 Q1122.74 464.333 1124.97 464.333 Q1127.21 464.333 1128.74 462.232 Q1130.27 460.13 1130.27 453.833 Q1130.27 447.505 1128.74 445.419 Q1127.21 443.333 1124.94 443.333 Q1122.69 443.333 1121.36 445.177 Q1119.67 447.521 1119.67 453.833 Z" fill="#000000" fill-opacity="1.000000"/>
  <path d="M1138.53 450.333 L1138.53 447.333 L1142.24 447.333 L1142.24 450.333 L1138.53 450.333 ZM1138.53 467.333 L1138.53 464.333 L1142.24 464.333 L1142.24 467.333 L1138.53 467.333 Z" fill="#000000" fill-opacity="1.000000"/>
  <path d="M1146.91 453.849 Q1146.91 449.146 1147.88 446.294 Q1148.85 443.443 1150.75 441.888 Q1152.66 440.333 1155.55 440.333 Q1157.69 440.333 1159.29 441.193 Q1160.89 442.052 1161.95 443.661 Q1163 445.271 1163.6 447.591 Q1164.19 449.911 1164.19 453.849 Q1164.19 458.49 1163.23 461.349 Q1162.27 464.208 1160.36 465.771 Q1158.46 467.333 1155.55 467.333 Q1151.72 467.333 1149.53 464.599 Q1146.91 461.286 1146.91 453.849 ZM1150.25 453.833 Q1150.25 460.146 1151.78 462.24 Q1153.32 464.333 1155.55 464.333 Q1157.78 464.333 1159.32 462.232 Q1160.85 460.13 1160.85 453.833 Q1160.85 447.505 1159.32 445.419 Q1157.78 443.333 1155.52 443.333 Q1153.27 443.333 1151.94 445.177 Q1150.25 447.521 1150.25 453.833 Z" fill="#000000" fill-opacity="1.000000"/>
  <path d="M1167.3 453.849 Q1167.3 449.146 1168.27 446.294 Q1169.24 443.443 1171.14 441.888 Q1173.05 440.333 1175.94 440.333 Q1178.08 440.333 1179.68 441.193 Q1181.28 442.052 1182.34 443.661 Q1183.39 445.271 1183.99 447.591 Q1184.58 449.911 1184.58 453.849 Q1184.58 458.49 1183.62 461.349 Q1182.66 464.208 1180.75 465.771 Q1178.85 467.333 1175.94 467.333 Q1172.11 467.333 1169.92 464.599 Q1167.3 461.286 1167.3 453.849 ZM1170.64 453.833 Q1170.64 460.146 1172.17 462.24 Q1173.71 464.333 1175.94 464.333 Q1178.17 464.333 1179.71 462.232 Q1181.24 460.13 1181.24 453.833 Q1181.24 447.505 1179.71 445.419 Q1178.17 443.333 1175.91 443.333 Q1173.66 443.333 1172.33 445.177 Q1170.64 447.521 1170.64 453.833 Z" fill="#000000" fill-opacity="1.000000"/>
  <path d="M1269.1 453.849 Q1269.1 449.146 1270.07 446.294 Q1271.04 443.443 1272.95 441.888 Q1274.85 440.333 1277.75 440.333 Q1279.89 440.333 1281.49 441.193 Q1283.09 442.052 1284.14 443.661 Q1285.2 445.271 1285.79 447.591 Q1286.39 449.911 1286.39 453.849 Q1286.39 458.49 1285.43 461.349 Q1284.46 464.208 1282.56 465.771 Q1280.65 467.333 1277.75 467.333 Q1273.92 467.333 1271.73 464.599 Q1269.1 461.286 1269.1 453.849 ZM1272.45 453.833 Q1272.45 460.146 1273.98 462.24 Q1275.51 464.333 1277.75 464.333 Q1279.98 464.333 1281.51 462.232 Q1283.04 460.13 1283.04 453.833 Q1283.04 447.505 1281.51 445.419 Q1279.98 443.333 1277.71 443.333 Q1275.46 443.333 1274.14 445.177 Q1272.45 447.521 1272.45 453.833 Z" fill="#000000" fill-opacity="1.000000"/>
  <path d="M1301.75 467.333 L1298.5 467.333 L1298.5 446.302 Q1297.32 447.443 1295.42 448.576 Q1293.51 449.708 1292 450.271 L1292 447.083 Q1294.73 445.786 1296.77 443.935 Q1298.81 442.083 1299.65 440.333 L1301.75 440.333 L1301.75 467.333 Z" fill="#000000" fill-opacity="1.000000"/>
  <path d="M1311.7 450.333 L1311.7 447.333 L1315.4 447.333 L1315.4 450.333 L1311.7 450.333 ZM1311.7 467.333 L1311.7 464.333 L1315.4 464.333 L1315.4 467.333 L1311.7 467.333 Z" fill="#000000" fill-opacity="1.000000"/>
  <path d="M1332.32 467.333 L1329.07 467.333 L1329.07 446.302 Q1327.9 447.443 1326 448.576 Q1324.09 449.708 1322.57 450.271 L1322.57 447.083 Q1325.31 445.786 1327.35 443.935 Q1329.39 442.083 1330.23 440.333 L1332.32 440.333 L1332.32 467.333 Z" fill="#000000" fill-opacity="1.000000"/>
  <path d="M1340.46 460.333 L1343.89 460.333 Q1344.26 462.333 1345.64 463.333 Q1347.03 464.333 1348.98 464.333 Q1351.32 464.333 1352.95 462.63 Q1354.57 460.927 1354.57 458.115 Q1354.57 455.427 1353.01 453.88 Q1351.45 452.333 1348.92 452.333 Q1347.35 452.333 1346.09 452.888 Q1344.82 453.443 1344.1 454.333 L1341.04 454.333 L1343.6 440.333 L1356.78 440.333 L1356.78 443.333 L1346.21 443.333 L1344.79 451.068 Q1347.18 449.333 1349.79 449.333 Q1353.26 449.333 1355.64 451.732 Q1358.03 454.13 1358.03 457.911 Q1358.03 461.505 1355.93 464.115 Q1353.39 467.333 1348.98 467.333 Q1345.35 467.333 1343.07 465.419 Q1340.79 463.505 1340.46 460.333 Z" fill="#000000" fill-opacity="1.000000"/>
  <path d="M1362.67 450.333 L1362.67 447.333 L1366.37 447.333 L1366.37 450.333 L1362.67 450.333 ZM1362.67 467.333 L1362.67 464.333 L1366.37 464.333 L1366.37 467.333 L1362.67 467.333 Z" fill="#000000" fill-opacity="1.000000"/>
  <path d="M1371.04 453.849 Q1371.04 449.146 1372.01 446.294 Q1372.98 443.443 1374.89 441.888 Q1376.79 440.333 1379.68 440.333 Q1381.82 440.333 1383.43 441.193 Q1385.03 442.052 1386.08 443.661 Q1387.14 445.271 1387.73 447.591 Q1388.32 449.911 1388.32 453.849 Q1388.32 458.49 1387.36 461.349 Q1386.4 464.208 1384.5 465.771 Q1382.59 467.333 1379.68 467.333 Q1375.85 467.333 1373.67 464.599 Q1371.04 461.286 1371.04 453.849 ZM1374.39 453.833 Q1374.39 460.146 1375.92 462.24 Q1377.45 464.333 1379.68 464.333 Q1381.92 464.333 1383.45 462.232 Q1384.98 460.13 1384.98 453.833 Q1384.98 447.505 1383.45 445.419 Q1381.92 443.333 1379.65 443.333 Q1377.4 443.333 1376.07 445.177 Q1374.39 447.521 1374.39 453.833 Z" fill="#000000" fill-opacity="1.000000"/>
  <path d="M1391.43 453.849 Q1391.43 449.146 1392.4 446.294 Q1393.37 443.443 1395.28 441.888 Q1397.18 440.333 1400.07 440.333 Q1402.21 440.333 1403.82 441.193 Q1405.42 442.052 1406.47 443.661 Q1407.53 445.271 1408.12 447.591 Q1408.71 449.911 1408.71 453.849 Q1408.71 458.49 1407.75 461.349 Q1406.79 464.208 1404.89 465.771 Q1402.98 467.333 1400.07 467.333 Q1396.25 467.333 1394.06 464.599 Q1391.43 461.286 1391.43 453.849 ZM1394.78 453.833 Q1394.78 460.146 1396.31 462.24 Q1397.84 464.333 1400.07 464.333 Q1402.31 464.333 1403.84 462.232 Q1405.37 460.13 1405.37 453.833 Q1405.37 447.505 1403.84 445.419 Q1402.31 443.333 1400.04 443.333 Q1397.79 443.333 1396.46 445.177 Q1394.78 447.521 1394.78 453.833 Z" fill="#000000" fill-opacity="1.000000"/>
  <path d="M1493.24 453.849 Q1493.24 449.146 1494.21 446.294 Q1495.18 443.443 1497.08 441.888 Q1498.99 440.333 1501.88 440.333 Q1504.02 440.333 1505.62 441.193 Q1507.22 442.052 1508.28 443.661 Q1509.33 445.271 1509.93 447.591 Q1510.52 449.911 1510.52 453.849 Q1510.52 458.49 1509.56 461.349 Q1508.6 464.208 1506.69 465.771 Q1504.79 467.333 1501.88 467.333 Q1498.05 467.333 1495.86 464.599 Q1493.24 461.286 1493.24 453.849 ZM1496.58 453.833 Q1496.58 460.146 1498.11 462.24 Q1499.64 464.333 1501.88 464.333 Q1504.11 464.333 1505.64 462.232 Q1507.18 460.13 1507.18 453.833 Q1507.18 447.505 1505.64 445.419 Q1504.11 443.333 1501.85 443.333 Q1499.6 443.333 1498.27 445.177 Q1496.58 447.521 1496.58 453.833 Z" fill="#000000" fill-opacity="1.000000"/>
  <path d="M1525.88 467.333 L1522.63 467.333 L1522.63 446.302 Q1521.46 447.443 1519.55 448.576 Q1517.64 449.708 1516.13 450.271 L1516.13 447.083 Q1518.86 445.786 1520.9 443.935 Q1522.94 442.083 1523.79 440.333 L1525.88 440.333 L1525.88 467.333 Z" fill="#000000" fill-opacity="1.000000"/>
  <path d="M1535.83 450.333 L1535.83 447.333 L1539.54 447.333 L1539.54 450.333 L1535.83 450.333 ZM1535.83 467.333 L1535.83 464.333 L1539.54 464.333 L1539.54 467.333 L1535.83 467.333 Z" fill="#000000" fill-opacity="1.000000"/>
  <path d="M1544.22 460.333 L1547.49 460.333 Q1548.05 462.458 1549.39 463.396 Q1550.74 464.333 1552.68 464.333 Q1554.97 464.333 1556.55 462.794 Q1558.13 461.255 1558.13 458.974 Q1558.13 456.802 1556.67 455.38 Q1555.21 453.958 1552.94 453.958 Q1552.02 453.958 1550.64 454.333 L1551 451.333 Q1551.33 451.365 1551.54 451.365 Q1553.61 451.365 1555.27 450.349 Q1556.93 449.333 1556.93 447.208 Q1556.93 445.536 1555.71 444.435 Q1554.5 443.333 1552.58 443.333 Q1550.69 443.333 1549.43 444.333 Q1548.16 445.333 1547.8 447.333 L1544.55 447.333 Q1545.14 444.005 1547.26 442.169 Q1549.38 440.333 1552.52 440.333 Q1554.69 440.333 1556.51 441.255 Q1558.33 442.177 1559.3 443.763 Q1560.27 445.349 1560.27 447.13 Q1560.27 448.818 1559.35 450.208 Q1558.43 451.599 1556.63 452.427 Q1558.97 452.974 1560.27 454.693 Q1561.57 456.411 1561.57 458.99 Q1561.57 462.474 1559.04 464.904 Q1556.5 467.333 1552.64 467.333 Q1549.16 467.333 1546.86 465.388 Q1544.55 463.443 1544.22 460.333 Z" fill="#000000" fill-opacity="1.000000"/>
  <path d="M1564.6 453.849 Q1564.6 449.146 1565.57 446.294 Q1566.54 443.443 1568.44 441.888 Q1570.35 440.333 1573.24 440.333 Q1575.38 440.333 1576.98 441.193 Q1578.58 442.052 1579.64 443.661 Q1580.69 445.271 1581.29 447.591 Q1581.88 449.911 1581.88 453.849 Q1581.88 458.49 1580.92 461.349 Q1579.96 464.208 1578.05 465.771 Q1576.14 467.333 1573.24 467.333 Q1569.41 467.333 1567.22 464.599 Q1564.6 461.286 1564.6 453.849 ZM1567.94 453.833 Q1567.94 460.146 1569.47 462.24 Q1571 464.333 1573.24 464.333 Q1575.47 464.333 1577 462.232 Q1578.54 460.13 1578.54 453.833 Q1578.54 447.505 1577 445.419 Q1575.47 443.333 1573.21 443.333 Q1570.96 443.333 1569.63 445.177 Q1567.94 447.521 1567.94 453.833 Z" fill="#000000" fill-opacity="1.000000"/>
  <path d="M1586.8 450.333 L1586.8 447.333 L1590.5 447.333 L1590.5 450.333 L1586.8 450.333 ZM1586.8 467.333 L1586.8 464.333 L1590.5 464.333 L1590.5 467.333 L1586.8 467.333 Z" fill="#000000" fill-opacity="1.000000"/>
  <path d="M1595.18 453.849 Q1595.18 449.146 1596.14 446.294 Q1597.11 443.443 1599.02 441.888 Q1600.93 440.333 1603.82 440.333 Q1605.96 440.333 1607.56 441.193 Q1609.16 442.052 1610.21 443.661 Q1611.27 445.271 1611.86 447.591 Q1612.46 449.911 1612.46 453.849 Q1612.46 458.49 1611.5 461.349 Q1610.54 464.208 1608.63 465.771 Q1606.72 467.333 1603.82 467.333 Q1599.99 467.333 1597.8 464.599 Q1595.18 461.286 1595.18 453.849 ZM1598.52 453.833 Q1598.52 460.146 1600.05 462.24 Q1601.58 464.333 1603.82 464.333 Q1606.05 464.333 1607.58 462.232 Q1609.11 460.13 1609.11 453.833 Q1609.11 447.505 1607.58 445.419 Q1606.05 443.333 1603.79 443.333 Q1601.54 443.333 1600.21 445.177 Q1598.52 447.521 1598.52 453.833 Z" fill="#000000" fill-opacity="1.000000"/>
  <path d="M1615.57 453.849 Q1615.57 449.146 1616.54 446.294 Q1617.5 443.443 1619.41 441.888 Q1621.32 440.333 1624.21 440.333 Q1626.35 440.333 1627.95 441.193 Q1629.55 442.052 1630.61 443.661 Q1631.66 445.271 1632.25 447.591 Q1632.85 449.911 1632.85 453.849 Q1632.85 458.49 1631.89 461.349 Q1630.93 464.208 1629.02 465.771 Q1627.11 467.333 1624.21 467.333 Q1620.38 467.333 1618.19 464.599 Q1615.57 461.286 1615.57 453.849 ZM1618.91 453.833 Q1618.91 460.146 1620.44 462.24 Q1621.97 464.333 1624.21 464.333 Q1626.44 464.333 1627.97 462.232 Q1629.5 460.13 1629.5 453.833 Q1629.5 447.505 1627.97 445.419 Q1626.44 443.333 1624.18 443.333 Q1621.93 443.333 1620.6 445.177 Q1618.91 447.521 1618.91 453.833 Z" fill="#000000" fill-opacity="1.000000"/>
  <path d="M1717.37 453.849 Q1717.37 449.146 1718.34 446.294 Q1719.31 443.443 1721.22 441.888 Q1723.12 440.333 1726.01 440.333 Q1728.15 440.333 1729.75 441.193 Q1731.36 442.052 1732.41 443.661 Q1733.47 445.271 1734.06 447.591 Q1734.65 449.911 1734.65 453.849 Q1734.65 458.49 1733.69 461.349 Q1732.73 464.208 1730.82 465.771 Q1728.92 467.333 1726.01 467.333 Q1722.18 467.333 1720 464.599 Q1717.37 461.286 1717.37 453.849 ZM1720.72 453.833 Q1720.72 460.146 1722.25 462.24 Q1723.78 464.333 1726.01 464.333 Q1728.25 464.333 1729.78 462.232 Q1731.31 460.13 1731.31 453.833 Q1731.31 447.505 1729.78 445.419 Q1728.25 443.333 1725.98 443.333 Q1723.73 443.333 1722.4 445.177 Q1720.72 447.521 1720.72 453.833 Z" fill="#000000" fill-opacity="1.000000"/>
  <path d="M1750.01 467.333 L1746.76 467.333 L1746.76 446.302 Q1745.59 447.443 1743.68 448.576 Q1741.78 449.708 1740.26 450.271 L1740.26 447.083 Q1743 445.786 1745.04 443.935 Q1747.07 442.083 1747.92 440.333 L1750.01 440.333 L1750.01 467.333 Z" fill="#000000" fill-opacity="1.000000"/>
  <path d="M1759.97 450.333 L1759.97 447.333 L1763.67 447.333 L1763.67 450.333 L1759.97 450.333 ZM1759.97 467.333 L1759.97 464.333 L1763.67 464.333 L1763.67 467.333 L1759.97 467.333 Z" fill="#000000" fill-opacity="1.000000"/>
  <path d="M1778.76 467.333 L1778.76 461.333 L1767.28 461.333 L1767.28 458.333 L1779.37 440.333 L1782.03 440.333 L1782.03 458.333 L1785.61 458.333 L1785.61 461.333 L1782.03 461.333 L1782.03 467.333 L1778.76 467.333 ZM1778.76 458.333 L1778.76 446.005 L1770.48 458.333 L1778.76 458.333 Z" fill="#000000" fill-opacity="1.000000"/>
  <path d="M1788.73 460.333 L1792.15 460.333 Q1792.53 462.333 1793.91 463.333 Q1795.29 464.333 1797.25 464.333 Q1799.59 464.333 1801.22 462.63 Q1802.84 460.927 1802.84 458.115 Q1802.84 455.427 1801.28 453.88 Q1799.72 452.333 1797.18 452.333 Q1795.62 452.333 1794.36 452.888 Q1793.09 453.443 1792.37 454.333 L1789.31 454.333 L1791.87 440.333 L1805.04 440.333 L1805.04 443.333 L1794.48 443.333 L1793.06 451.068 Q1795.45 449.333 1798.06 449.333 Q1801.53 449.333 1803.91 451.732 Q1806.29 454.13 1806.29 457.911 Q1806.29 461.505 1804.2 464.115 Q1801.65 467.333 1797.25 467.333 Q1793.62 467.333 1791.34 465.419 Q1789.06 463.505 1788.73 460.333 Z" fill="#000000" fill-opacity="1.000000"/>
  <path d="M1810.93 450.333 L1810.93 447.333 L1814.64 447.333 L1814.64 450.333 L1810.93 450.333 ZM1810.93 467.333 L1810.93 464.333 L1814.64 464.333 L1814.64 467.333 L1810.93 467.333 Z" fill="#000000" fill-opacity="1.000000"/>
  <path d="M1819.31 453.849 Q1819.31 449.146 1820.28 446.294 Q1821.25 443.443 1823.15 441.888 Q1825.06 440.333 1827.95 440.333 Q1830.09 440.333 1831.69 441.193 Q1833.29 442.052 1834.35 443.661 Q1835.4 445.271 1836 447.591 Q1836.59 449.911 1836.59 453.849 Q1836.59 458.49 1835.63 461.349 Q1834.67 464.208 1832.76 465.771 Q1830.86 467.333 1827.95 467.333 Q1824.12 467.333 1821.93 464.599 Q1819.31 461.286 1819.31 453.849 ZM1822.65 453.833 Q1822.65 460.146 1824.18 462.24 Q1825.72 464.333 1827.95 464.333 Q1830.18 464.333 1831.72 462.232 Q1833.25 460.13 1833.25 453.833 Q1833.25 447.505 1831.72 445.419 Q1830.18 443.333 1827.92 443.333 Q1825.67 443.333 1824.34 445.177 Q1822.65 447.521 1822.65 453.833 Z" fill="#000000" fill-opacity="1.000000"/>
  <path d="M1839.7 453.849 Q1839.7 449.146 1840.67 446.294 Q1841.64 443.443 1843.54 441.888 Q1845.45 440.333 1848.34 440.333 Q1850.48 440.333 1852.08 441.193 Q1853.68 442.052 1854.74 443.661 Q1855.79 445.271 1856.39 447.591 Q1856.98 449.911 1856.98 453.849 Q1856.98 458.49 1856.02 461.349 Q1855.06 464.208 1853.15 465.771 Q1851.25 467.333 1848.34 467.333 Q1844.51 467.333 1842.32 464.599 Q1839.7 461.286 1839.7 453.849 ZM1843.04 453.833 Q1843.04 460.146 1844.57 462.24 Q1846.11 464.333 1848.34 464.333 Q1850.57 464.333 1852.11 462.232 Q1853.64 460.13 1853.64 453.833 Q1853.64 447.505 1852.11 445.419 Q1850.57 443.333 1848.31 443.333 Q1846.06 443.333 1844.73 445.177 Q1843.04 447.521 1843.04 453.833 Z" fill="#000000" fill-opacity="1.000000"/>
  <path d="M1941.51 453.849 Q1941.51 449.146 1942.47 446.294 Q1943.44 443.443 1945.35 441.888 Q1947.26 440.333 1950.15 440.333 Q1952.29 440.333 1953.89 441.193 Q1955.49 442.052 1956.54 443.661 Q1957.6 445.271 1958.19 447.591 Q1958.79 449.911 1958.79 453.849 Q1958.79 458.49 1957.83 461.349 Q1956.86 464.208 1954.96 465.771 Q1953.05 467.333 1950.15 467.333 Q1946.32 467.333 1944.13 464.599 Q1941.51 461.286 1941.51 453.849 ZM1944.85 453.833 Q1944.85 460.146 1946.38 462.24 Q1947.91 464.333 1950.15 464.333 Q1952.38 464.333 1953.91 462.232 Q1955.44 460.13 1955.44 453.833 Q1955.44 447.505 1953.91 445.419 Q1952.38 443.333 1950.11 443.333 Q1947.86 443.333 1946.54 445.177 Q1944.85 447.521 1944.85 453.833 Z" fill="#000000" fill-opacity="1.000000"/>
  <path d="M1978.99 464.333 L1978.99 467.333 L1961.49 467.333 Q1961.44 466.208 1961.86 465.161 Q1962.54 463.443 1964.01 461.779 Q1965.47 460.115 1968.26 457.74 Q1972.58 454.052 1974.1 451.951 Q1975.61 449.849 1975.61 447.99 Q1975.61 446.021 1974.23 444.677 Q1972.85 443.333 1970.63 443.333 Q1968.29 443.333 1966.87 444.396 Q1965.46 445.458 1965.44 447.333 L1962.1 447.333 Q1962.44 443.911 1964.68 442.122 Q1966.93 440.333 1970.69 440.333 Q1974.52 440.333 1976.74 442.505 Q1978.96 444.677 1978.96 447.896 Q1978.96 449.536 1978.31 451.115 Q1977.66 452.693 1976.15 454.443 Q1974.63 456.193 1971.13 459.177 Q1968.21 461.661 1967.38 462.552 Q1966.55 463.443 1966.01 464.333 L1978.99 464.333 Z" fill="#000000" fill-opacity="1.000000"/>
  <path d="M1984.1 450.333 L1984.1 447.333 L1987.8 447.333 L1987.8 450.333 L1984.1 450.333 ZM1984.1 467.333 L1984.1 464.333 L1987.8 464.333 L1987.8 467.333 L1984.1 467.333 Z" fill="#000000" fill-opacity="1.000000"/>
  <path d="M1992.47 453.849 Q1992.47 449.146 1993.44 446.294 Q1994.41 443.443 1996.32 441.888 Q1998.22 440.333 2001.11 440.333 Q2003.26 440.333 2004.86 441.193 Q2006.46 442.052 2007.51 443.661 Q2008.57 445.271 2009.16 447.591 Q2009.76 449.911 2009.76 453.849 Q2009.76 458.49 2008.79 461.349 Q2007.83 464.208 2005.93 465.771 Q2004.02 467.333 2001.11 467.333 Q1997.29 467.333 1995.1 464.599 Q1992.47 461.286 1992.47 453.849 ZM1995.82 453.833 Q1995.82 460.146 1997.35 462.24 Q1998.88 464.333 2001.11 464.333 Q2003.35 464.333 2004.88 462.232 Q2006.41 460.13 2006.41 453.833 Q2006.41 447.505 2004.88 445.419 Q2003.35 443.333 2001.08 443.333 Q1998.83 443.333 1997.51 445.177 Q1995.82 447.521 1995.82 453.833 Z" fill="#000000" fill-opacity="1.000000"/>
  <path d="M2012.86 453.849 Q2012.86 449.146 2013.83 446.294 Q2014.8 443.443 2016.71 441.888 Q2018.61 440.333 2021.51 440.333 Q2023.65 440.333 2025.25 441.193 Q2026.85 442.052 2027.9 443.661 Q2028.96 445.271 2029.55 447.591 Q2030.15 449.911 2030.15 453.849 Q2030.15 458.49 2029.18 461.349 Q2028.22 464.208 2026.32 465.771 Q2024.41 467.333 2021.51 467.333 Q2017.68 467.333 2015.49 464.599 Q2012.86 461.286 2012.86 453.849 ZM2016.21 453.833 Q2016.21 460.146 2017.74 462.24 Q2019.27 464.333 2021.51 464.333 Q2023.74 464.333 2025.27 462.232 Q2026.8 460.13 2026.8 453.833 Q2026.8 447.505 2025.27 445.419 Q2023.74 443.333 2021.47 443.333 Q2019.22 443.333 2017.9 445.177 Q2016.21 447.521 2016.21 453.833 Z" fill="#000000" fill-opacity="1.000000"/>
  <path d="M2035.07 450.333 L2035.07 447.333 L2038.77 447.333 L2038.77 450.333 L2035.07 450.333 ZM2035.07 467.333 L2035.07 464.333 L2038.77 464.333 L2038.77 467.333 L2035.07 467.333 Z" fill="#000000" fill-opacity="1.000000"/>
  <path d="M2043.44 453.849 Q2043.44 449.146 2044.41 446.294 Q2045.38 443.443 2047.29 441.888 Q2049.19 440.333 2052.08 440.333 Q2054.22 440.333 2055.83 441.193 Q2057.43 442.052 2058.48 443.661 Q2059.54 445.271 2060.13 447.591 Q2060.72 449.911 2060.72 453.849 Q2060.72 458.49 2059.76 461.349 Q2058.8 464.208 2056.9 465.771 Q2054.99 467.333 2052.08 467.333 Q2048.26 467.333 2046.07 464.599 Q2043.44 461.286 2043.44 453.849 ZM2046.79 453.833 Q2046.79 460.146 2048.32 462.24 Q2049.85 464.333 2052.08 464.333 Q2054.32 464.333 2055.85 462.232 Q2057.38 460.13 2057.38 453.833 Q2057.38 447.505 2055.85 445.419 Q2054.32 443.333 2052.05 443.333 Q2049.8 443.333 2048.47 445.177 Q2046.79 447.521 2046.79 453.833 Z" fill="#000000" fill-opacity="1.000000"/>
  <path d="M2063.83 453.849 Q2063.83 449.146 2064.8 446.294 Q2065.77 443.443 2067.68 441.888 Q2069.58 440.333 2072.47 440.333 Q2074.61 440.333 2076.22 441.193 Q2077.82 442.052 2078.87 443.661 Q2079.93 445.271 2080.52 447.591 Q2081.11 449.911 2081.11 453.849 Q2081.11 458.49 2080.15 461.349 Q2079.19 464.208 2077.29 465.771 Q2075.38 467.333 2072.47 467.333 Q2068.65 467.333 2066.46 464.599 Q2063.83 461.286 2063.83 453.849 ZM2067.18 453.833 Q2067.18 460.146 2068.71 462.24 Q2070.24 464.333 2072.47 464.333 Q2074.71 464.333 2076.24 462.232 Q2077.77 460.13 2077.77 453.833 Q2077.77 447.505 2076.24 445.419 Q2074.71 443.333 2072.44 443.333 Q2070.19 443.333 2068.86 445.177 Q2067.18 447.521 2067.18 453.833 Z" fill="#000000" fill-opacity="1.000000"/>
  <path d="M218.266 404 L218.266 36.6667 " fill="none" stroke-width="3.333333" stroke="#000000ff"/>
  <path d="M218.266 404 L231.599 404 " fill="none" stroke-width="3.333333" stroke="#000000ff"/>
  <path d="M218.266 367.267 L231.599 367.267 " fill="none" stroke-width="3.333333" stroke="#000000ff"/>
  <path d="M218.266 330.533 L231.599 330.533 " fill="none" stroke-width="3.333333" stroke="#000000ff"/>
  <path d="M218.266 293.8 L231.599 293.8 " fill="none" stroke-width="3.333333" stroke="#000000ff"/>
  <path d="M218.266 257.067 L231.599 257.067 " fill="none" stroke-width="3.333333" stroke="#000000ff"/>
  <path d="M218.266 220.333 L231.599 220.333 " fill="none" stroke-width="3.333333" stroke="#000000ff"/>
  <path d="M218.266 183.6 L231.599 183.6 " fill="none" stroke-width="3.333333" stroke="#000000ff"/>
  <path d="M218.266 146.867 L231.599 146.867 " fill="none" stroke-width="3.333333" stroke="#000000ff"/>
  <path d="M218.266 110.133 L231.599 110.133 " fill="none" stroke-width="3.333333" stroke="#000000ff"/>
  <path d="M218.266 73.4 L231.599 73.4 " fill="none" stroke-width="3.333333" stroke="#000000ff"/>
  <path d="M218.266 36.6667 L231.599 36.6667 " fill="none" stroke-width="3.333333" stroke="#000000ff"/>
  <path d="M47.0729 400.875 L38.3385 400.875 L38.3385 403.5 L47.0729 403.5 L47.0729 400.875 Z" fill="#000000" fill-opacity="1.000000"/>
  <path d="M66.3385 386.5 L52.9167 386.5 L50.9635 400.594 L53.9323 400.594 C55.4479 398.938 56.6823 398.375 58.7448 398.375 C62.2292 398.375 64.3854 400.562 64.3854 404.109 C64.3854 407.547 62.2292 409.641 58.6979 409.641 C55.8854 409.641 54.151 408.328 53.3854 405.625 L50.1667 405.625 C50.6042 407.594 50.9635 408.531 51.7448 409.406 C53.1979 411.375 55.8385 412.5 58.776 412.5 C64.026 412.5 67.6823 408.766 67.6823 403.703 C67.6823 398.984 64.276 395.5 59.2917 395.5 C57.4635 395.5 55.9948 395.984 54.4948 397.078 L55.5104 389.703 L66.3385 389.703 L66.3385 386.5 Z" fill="#000000" fill-opacity="1.000000"/>
  <path d="M76.276 408.688 L72.4635 408.688 L72.4635 412.5 L76.276 412.5 L76.276 408.688 Z" fill="#000000" fill-opacity="1.000000"/>
  <path d="M89.5417 386.5 C87.1198 386.5 84.9167 387.609 83.5573 389.406 C81.8698 391.609 81.026 394.906 81.026 399.516 C81.026 407.906 83.9635 412.5 89.5417 412.5 C95.0417 412.5 98.0417 407.906 98.0417 399.719 C98.0417 394.906 97.2448 391.672 95.5104 389.406 C94.1667 387.578 91.9948 386.5 89.5417 386.5 ZM89.5417 389.375 C93.026 389.375 94.7448 392.703 94.7448 399.438 C94.7448 406.531 93.0573 409.828 89.4635 409.828 C86.0573 409.828 84.3385 406.391 84.3385 399.547 C84.3385 392.703 86.0573 389.375 89.5417 389.375 Z" fill="#000000" fill-opacity="1.000000"/>
  <path d="" fill="#000000" fill-opacity="1.000000"/>
  <path d="M123.229 396.844 L117.839 402.203 L112.495 396.891 L110.698 398.688 L116.042 404.031 L110.651 409.422 L112.495 411.219 L117.839 405.875 L123.229 411.266 L125.073 409.422 L119.682 404.031 L125.026 398.688 L123.229 396.844 Z" fill="#000000" fill-opacity="1.000000"/>
  <path d="" fill="#000000" fill-opacity="1.000000"/>
  <path d="M145.417 393.625 L145.417 412.5 L148.651 412.5 L148.651 386 L146.526 386 C145.385 390.062 144.651 390.625 139.667 391.281 L139.667 393.625 L145.417 393.625 Z" fill="#000000" fill-opacity="1.000000"/>
  <path d="M166.401 386.5 C163.979 386.5 161.776 387.609 160.417 389.406 C158.729 391.609 157.885 394.906 157.885 399.516 C157.885 407.906 160.823 412.5 166.401 412.5 C171.901 412.5 174.901 407.906 174.901 399.719 C174.901 394.906 174.104 391.672 172.37 389.406 C171.026 387.578 168.854 386.5 166.401 386.5 ZM166.401 389.375 C169.885 389.375 171.604 392.703 171.604 399.438 C171.604 406.531 169.917 409.828 166.323 409.828 C162.917 409.828 161.198 406.391 161.198 399.547 C161.198 392.703 162.917 389.375 166.401 389.375 Z" fill="#000000" fill-opacity="1.000000"/>
  <path d="M182.714 386.5 C179.167 386.5 177.26 389.281 177.26 394.484 C177.26 399.734 179.167 402.5 182.76 402.5 C186.276 402.5 188.214 399.734 188.214 394.641 C188.214 389.25 186.354 386.5 182.714 386.5 ZM182.714 388.453 C184.839 388.453 185.917 390.453 185.917 394.453 C185.917 398.703 184.885 400.672 182.682 400.672 C180.589 400.672 179.573 398.594 179.573 394.531 C179.573 390.422 180.589 388.453 182.714 388.453 Z" fill="#000000" fill-opacity="1.000000"/>
  <path d="M47.0729 364.142 L38.3385 364.142 L38.3385 366.767 L47.0729 366.767 L47.0729 364.142 Z" fill="#000000" fill-opacity="1.000000"/>
  <path d="M60.8698 369.673 L60.8698 375.767 L64.0885 375.767 L64.0885 369.673 L67.9479 369.673 L67.9479 366.767 L64.0885 366.767 L64.0885 349.579 L61.7135 349.579 L49.901 366.267 L49.901 369.673 L60.8698 369.673 ZM60.8698 366.767 L52.7292 366.767 L60.8698 355.079 L60.8698 366.767 Z" fill="#000000" fill-opacity="1.000000"/>
  <path d="M76.276 371.954 L72.4635 371.954 L72.4635 375.767 L76.276 375.767 L76.276 371.954 Z" fill="#000000" fill-opacity="1.000000"/>
  <path d="M89.5417 349.767 C87.1198 349.767 84.9167 350.876 83.5573 352.673 C81.8698 354.876 81.026 358.173 81.026 362.782 C81.026 371.173 83.9635 375.767 89.5417 375.767 C95.0417 375.767 98.0417 371.173 98.0417 362.985 C98.0417 358.173 97.2448 354.939 95.5104 352.673 C94.1667 350.845 91.9948 349.767 89.5417 349.767 ZM89.5417 352.642 C93.026 352.642 94.7448 355.97 94.7448 362.704 C94.7448 369.798 93.0573 373.095 89.4635 373.095 C86.0573 373.095 84.3385 369.657 84.3385 362.814 C84.3385 355.97 86.0573 352.642 89.5417 352.642 Z" fill="#000000" fill-opacity="1.000000"/>
  <path d="" fill="#000000" fill-opacity="1.000000"/>
  <path d="M123.229 360.11 L117.839 365.47 L112.495 360.157 L110.698 361.954 L116.042 367.298 L110.651 372.689 L112.495 374.485 L117.839 369.142 L123.229 374.532 L125.073 372.689 L119.682 367.298 L125.026 361.954 L123.229 360.11 Z" fill="#000000" fill-opacity="1.000000"/>
  <path d="" fill="#000000" fill-opacity="1.000000"/>
  <path d="M145.417 356.892 L145.417 375.767 L148.651 375.767 L148.651 349.267 L146.526 349.267 C145.385 353.329 144.651 353.892 139.667 354.548 L139.667 356.892 L145.417 356.892 Z" fill="#000000" fill-opacity="1.000000"/>
  <path d="M166.401 349.767 C163.979 349.767 161.776 350.876 160.417 352.673 C158.729 354.876 157.885 358.173 157.885 362.782 C157.885 371.173 160.823 375.767 166.401 375.767 C171.901 375.767 174.901 371.173 174.901 362.985 C174.901 358.173 174.104 354.939 172.37 352.673 C171.026 350.845 168.854 349.767 166.401 349.767 ZM166.401 352.642 C169.885 352.642 171.604 355.97 171.604 362.704 C171.604 369.798 169.917 373.095 166.323 373.095 C162.917 373.095 161.198 369.657 161.198 362.814 C161.198 355.97 162.917 352.642 166.401 352.642 Z" fill="#000000" fill-opacity="1.000000"/>
  <path d="M182.714 349.767 C179.167 349.767 177.26 352.548 177.26 357.751 C177.26 363.001 179.167 365.767 182.76 365.767 C186.276 365.767 188.214 363.001 188.214 357.907 C188.214 352.517 186.354 349.767 182.714 349.767 ZM182.714 351.72 C184.839 351.72 185.917 353.72 185.917 357.72 C185.917 361.97 184.885 363.939 182.682 363.939 C180.589 363.939 179.573 361.86 179.573 357.798 C179.573 353.689 180.589 351.72 182.714 351.72 Z" fill="#000000" fill-opacity="1.000000"/>
  <path d="M47.0729 327.408 L38.3385 327.408 L38.3385 330.033 L47.0729 330.033 L47.0729 327.408 Z" fill="#000000" fill-opacity="1.000000"/>
  <path d="M56.9792 326.627 L57.3854 326.627 L58.7448 326.627 C62.2604 326.627 64.1354 328.174 64.1354 331.158 C64.1354 334.283 62.1198 336.174 58.776 336.174 C55.2135 336.174 53.4948 334.502 53.276 330.846 L50.0573 330.846 C50.1979 332.846 50.5573 334.158 51.1823 335.252 C52.5417 337.752 55.0729 339.033 58.6354 339.033 C63.9792 339.033 67.4323 335.83 67.4323 331.127 C67.4323 327.971 66.151 326.252 63.026 325.221 C65.4479 324.283 66.6667 322.565 66.6667 320.065 C66.6667 315.799 63.6979 313.033 58.7448 313.033 C53.4948 313.033 50.7135 315.971 50.6042 321.221 L53.8229 321.221 C53.8698 319.721 54.0104 318.861 54.4167 318.096 C55.151 316.69 56.7604 315.861 58.776 315.861 C61.6354 315.861 63.3542 317.486 63.3542 320.158 C63.3542 321.908 62.6979 322.986 61.276 323.565 C60.3854 323.908 59.2135 324.049 56.9792 324.08 L56.9792 326.627 Z" fill="#000000" fill-opacity="1.000000"/>
  <path d="M76.276 335.221 L72.4635 335.221 L72.4635 339.033 L76.276 339.033 L76.276 335.221 Z" fill="#000000" fill-opacity="1.000000"/>
  <path d="M89.5417 313.033 C87.1198 313.033 84.9167 314.143 83.5573 315.94 C81.8698 318.143 81.026 321.44 81.026 326.049 C81.026 334.44 83.9635 339.033 89.5417 339.033 C95.0417 339.033 98.0417 334.44 98.0417 326.252 C98.0417 321.44 97.2448 318.205 95.5104 315.94 C94.1667 314.111 91.9948 313.033 89.5417 313.033 ZM89.5417 315.908 C93.026 315.908 94.7448 319.236 94.7448 325.971 C94.7448 333.065 93.0573 336.361 89.4635 336.361 C86.0573 336.361 84.3385 332.924 84.3385 326.08 C84.3385 319.236 86.0573 315.908 89.5417 315.908 Z" fill="#000000" fill-opacity="1.000000"/>
  <path d="" fill="#000000" fill-opacity="1.000000"/>
  <path d="M123.229 323.377 L117.839 328.736 L112.495 323.424 L110.698 325.221 L116.042 330.565 L110.651 335.955 L112.495 337.752 L117.839 332.408 L123.229 337.799 L125.073 335.955 L119.682 330.565 L125.026 325.221 L123.229 323.377 Z" fill="#000000" fill-opacity="1.000000"/>
  <path d="" fill="#000000" fill-opacity="1.000000"/>
  <path d="M145.417 320.158 L145.417 339.033 L148.651 339.033 L148.651 312.533 L146.526 312.533 C145.385 316.596 144.651 317.158 139.667 317.815 L139.667 320.158 L145.417 320.158 Z" fill="#000000" fill-opacity="1.000000"/>
  <path d="M166.401 313.033 C163.979 313.033 161.776 314.143 160.417 315.94 C158.729 318.143 157.885 321.44 157.885 326.049 C157.885 334.44 160.823 339.033 166.401 339.033 C171.901 339.033 174.901 334.44 174.901 326.252 C174.901 321.44 174.104 318.205 172.37 315.94 C171.026 314.111 168.854 313.033 166.401 313.033 ZM166.401 315.908 C169.885 315.908 171.604 319.236 171.604 325.971 C171.604 333.065 169.917 336.361 166.323 336.361 C162.917 336.361 161.198 332.924 161.198 326.08 C161.198 319.236 162.917 315.908 166.401 315.908 Z" fill="#000000" fill-opacity="1.000000"/>
  <path d="M182.714 313.033 C179.167 313.033 177.26 315.815 177.26 321.018 C177.26 326.268 179.167 329.033 182.76 329.033 C186.276 329.033 188.214 326.268 188.214 321.174 C188.214 315.783 186.354 313.033 182.714 313.033 ZM182.714 314.986 C184.839 314.986 185.917 316.986 185.917 320.986 C185.917 325.236 184.885 327.205 182.682 327.205 C180.589 327.205 179.573 325.127 179.573 321.065 C179.573 316.955 180.589 314.986 182.714 314.986 Z" fill="#000000" fill-opacity="1.000000"/>
  <path d="M47.0729 290.675 L38.3385 290.675 L38.3385 293.3 L47.0729 293.3 L47.0729 290.675 Z" fill="#000000" fill-opacity="1.000000"/>
  <path d="M67.4323 299.159 L53.7604 299.159 C54.0885 297.003 55.2604 295.644 58.4479 293.753 L62.1198 291.737 C65.7448 289.769 67.6198 287.128 67.6198 283.941 C67.6198 281.784 66.7292 279.784 65.1979 278.362 C63.651 276.972 61.7448 276.3 59.2917 276.3 C55.9948 276.3 53.5417 277.487 52.1042 279.737 C51.1823 281.112 50.7917 282.722 50.7135 285.331 L53.9323 285.331 C54.0417 283.581 54.2604 282.534 54.7135 281.675 C55.5573 280.097 57.2448 279.128 59.1823 279.128 C62.1198 279.128 64.3073 281.206 64.3073 284.003 C64.3073 286.081 63.1042 287.878 60.7917 289.159 L57.4167 291.097 C51.9948 294.144 50.4167 296.581 50.1198 302.3 L67.4323 302.3 L67.4323 299.159 Z" fill="#000000" fill-opacity="1.000000"/>
  <path d="M76.276 298.487 L72.4635 298.487 L72.4635 302.3 L76.276 302.3 L76.276 298.487 Z" fill="#000000" fill-opacity="1.000000"/>
  <path d="M89.5417 276.3 C87.1198 276.3 84.9167 277.409 83.5573 279.206 C81.8698 281.409 81.026 284.706 81.026 289.316 C81.026 297.706 83.9635 302.3 89.5417 302.3 C95.0417 302.3 98.0417 297.706 98.0417 289.519 C98.0417 284.706 97.2448 281.472 95.5104 279.206 C94.1667 277.378 91.9948 276.3 89.5417 276.3 ZM89.5417 279.175 C93.026 279.175 94.7448 282.503 94.7448 289.237 C94.7448 296.331 93.0573 299.628 89.4635 299.628 C86.0573 299.628 84.3385 296.191 84.3385 289.347 C84.3385 282.503 86.0573 279.175 89.5417 279.175 Z" fill="#000000" fill-opacity="1.000000"/>
  <path d="" fill="#000000" fill-opacity="1.000000"/>
  <path d="M123.229 286.644 L117.839 292.003 L112.495 286.691 L110.698 288.487 L116.042 293.831 L110.651 299.222 L112.495 301.019 L117.839 295.675 L123.229 301.066 L125.073 299.222 L119.682 293.831 L125.026 288.487 L123.229 286.644 Z" fill="#000000" fill-opacity="1.000000"/>
  <path d="" fill="#000000" fill-opacity="1.000000"/>
  <path d="M145.417 283.425 L145.417 302.3 L148.651 302.3 L148.651 275.8 L146.526 275.8 C145.385 279.862 144.651 280.425 139.667 281.081 L139.667 283.425 L145.417 283.425 Z" fill="#000000" fill-opacity="1.000000"/>
  <path d="M166.401 276.3 C163.979 276.3 161.776 277.409 160.417 279.206 C158.729 281.409 157.885 284.706 157.885 289.316 C157.885 297.706 160.823 302.3 166.401 302.3 C171.901 302.3 174.901 297.706 174.901 289.519 C174.901 284.706 174.104 281.472 172.37 279.206 C171.026 277.378 168.854 276.3 166.401 276.3 ZM166.401 279.175 C169.885 279.175 171.604 282.503 171.604 289.237 C171.604 296.331 169.917 299.628 166.323 299.628 C162.917 299.628 161.198 296.191 161.198 289.347 C161.198 282.503 162.917 279.175 166.401 279.175 Z" fill="#000000" fill-opacity="1.000000"/>
  <path d="M182.714 276.3 C179.167 276.3 177.26 279.081 177.26 284.284 C177.26 289.534 179.167 292.3 182.76 292.3 C186.276 292.3 188.214 289.534 188.214 284.441 C188.214 279.05 186.354 276.3 182.714 276.3 ZM182.714 278.253 C184.839 278.253 185.917 280.253 185.917 284.253 C185.917 288.503 184.885 290.472 182.682 290.472 C180.589 290.472 179.573 288.394 179.573 284.331 C179.573 280.222 180.589 278.253 182.714 278.253 Z" fill="#000000" fill-opacity="1.000000"/>
  <path d="M47.0729 253.942 L38.3385 253.942 L38.3385 256.567 L47.0729 256.567 L47.0729 253.942 Z" fill="#000000" fill-opacity="1.000000"/>
  <path d="M58.3698 246.692 L58.3698 265.567 L61.6042 265.567 L61.6042 239.067 L59.4792 239.067 C58.3385 243.129 57.6042 243.692 52.6198 244.348 L52.6198 246.692 L58.3698 246.692 Z" fill="#000000" fill-opacity="1.000000"/>
  <path d="M76.276 261.754 L72.4635 261.754 L72.4635 265.567 L76.276 265.567 L76.276 261.754 Z" fill="#000000" fill-opacity="1.000000"/>
  <path d="M89.5417 239.567 C87.1198 239.567 84.9167 240.676 83.5573 242.473 C81.8698 244.676 81.026 247.973 81.026 252.582 C81.026 260.973 83.9635 265.567 89.5417 265.567 C95.0417 265.567 98.0417 260.973 98.0417 252.785 C98.0417 247.973 97.2448 244.739 95.5104 242.473 C94.1667 240.645 91.9948 239.567 89.5417 239.567 ZM89.5417 242.442 C93.026 242.442 94.7448 245.77 94.7448 252.504 C94.7448 259.598 93.0573 262.895 89.4635 262.895 C86.0573 262.895 84.3385 259.457 84.3385 252.614 C84.3385 245.77 86.0573 242.442 89.5417 242.442 Z" fill="#000000" fill-opacity="1.000000"/>
  <path d="" fill="#000000" fill-opacity="1.000000"/>
  <path d="M123.229 249.91 L117.839 255.27 L112.495 249.957 L110.698 251.754 L116.042 257.098 L110.651 262.489 L112.495 264.285 L117.839 258.942 L123.229 264.332 L125.073 262.489 L119.682 257.098 L125.026 251.754 L123.229 249.91 Z" fill="#000000" fill-opacity="1.000000"/>
  <path d="" fill="#000000" fill-opacity="1.000000"/>
  <path d="M145.417 246.692 L145.417 265.567 L148.651 265.567 L148.651 239.067 L146.526 239.067 C145.385 243.129 144.651 243.692 139.667 244.348 L139.667 246.692 L145.417 246.692 Z" fill="#000000" fill-opacity="1.000000"/>
  <path d="M166.401 239.567 C163.979 239.567 161.776 240.676 160.417 242.473 C158.729 244.676 157.885 247.973 157.885 252.582 C157.885 260.973 160.823 265.567 166.401 265.567 C171.901 265.567 174.901 260.973 174.901 252.785 C174.901 247.973 174.104 244.739 172.37 242.473 C171.026 240.645 168.854 239.567 166.401 239.567 ZM166.401 242.442 C169.885 242.442 171.604 245.77 171.604 252.504 C171.604 259.598 169.917 262.895 166.323 262.895 C162.917 262.895 161.198 259.457 161.198 252.614 C161.198 245.77 162.917 242.442 166.401 242.442 Z" fill="#000000" fill-opacity="1.000000"/>
  <path d="M182.714 239.567 C179.167 239.567 177.26 242.348 177.26 247.551 C177.26 252.801 179.167 255.567 182.76 255.567 C186.276 255.567 188.214 252.801 188.214 247.707 C188.214 242.317 186.354 239.567 182.714 239.567 ZM182.714 241.52 C184.839 241.52 185.917 243.52 185.917 247.52 C185.917 251.77 184.885 253.739 182.682 253.739 C180.589 253.739 179.573 251.66 179.573 247.598 C179.573 243.489 180.589 241.52 182.714 241.52 Z" fill="#000000" fill-opacity="1.000000"/>
  <path d="M170.073 219.849 Q170.073 215.146 171.042 212.294 Q172.01 209.443 173.917 207.888 Q175.823 206.333 178.714 206.333 Q180.854 206.333 182.456 207.193 Q184.057 208.052 185.112 209.661 Q186.167 211.271 186.76 213.591 Q187.354 215.911 187.354 219.849 Q187.354 224.49 186.393 227.349 Q185.432 230.208 183.526 231.771 Q181.62 233.333 178.714 233.333 Q174.885 233.333 172.698 230.599 Q170.073 227.286 170.073 219.849 ZM173.417 219.833 Q173.417 226.146 174.948 228.24 Q176.479 230.333 178.714 230.333 Q180.948 230.333 182.479 228.232 Q184.01 226.13 184.01 219.833 Q184.01 213.505 182.479 211.419 Q180.948 209.333 178.682 209.333 Q176.432 209.333 175.104 211.177 Q173.417 213.521 173.417 219.833 Z" fill="#000000" fill-opacity="1.000000"/>
  <path d="M58.3698 173.225 L58.3698 192.1 L61.6042 192.1 L61.6042 165.6 L59.4792 165.6 C58.3385 169.662 57.6042 170.225 52.6198 170.881 L52.6198 173.225 L58.3698 173.225 Z" fill="#000000" fill-opacity="1.000000"/>
  <path d="M76.276 188.287 L72.4635 188.287 L72.4635 192.1 L76.276 192.1 L76.276 188.287 Z" fill="#000000" fill-opacity="1.000000"/>
  <path d="M89.5417 166.1 C87.1198 166.1 84.9167 167.209 83.5573 169.006 C81.8698 171.209 81.026 174.506 81.026 179.116 C81.026 187.506 83.9635 192.1 89.5417 192.1 C95.0417 192.1 98.0417 187.506 98.0417 179.319 C98.0417 174.506 97.2448 171.272 95.5104 169.006 C94.1667 167.178 91.9948 166.1 89.5417 166.1 ZM89.5417 168.975 C93.026 168.975 94.7448 172.303 94.7448 179.037 C94.7448 186.131 93.0573 189.428 89.4635 189.428 C86.0573 189.428 84.3385 185.991 84.3385 179.147 C84.3385 172.303 86.0573 168.975 89.5417 168.975 Z" fill="#000000" fill-opacity="1.000000"/>
  <path d="" fill="#000000" fill-opacity="1.000000"/>
  <path d="M123.229 176.444 L117.839 181.803 L112.495 176.491 L110.698 178.287 L116.042 183.631 L110.651 189.022 L112.495 190.819 L117.839 185.475 L123.229 190.866 L125.073 189.022 L119.682 183.631 L125.026 178.287 L123.229 176.444 Z" fill="#000000" fill-opacity="1.000000"/>
  <path d="" fill="#000000" fill-opacity="1.000000"/>
  <path d="M145.417 173.225 L145.417 192.1 L148.651 192.1 L148.651 165.6 L146.526 165.6 C145.385 169.662 144.651 170.225 139.667 170.881 L139.667 173.225 L145.417 173.225 Z" fill="#000000" fill-opacity="1.000000"/>
  <path d="M166.401 166.1 C163.979 166.1 161.776 167.209 160.417 169.006 C158.729 171.209 157.885 174.506 157.885 179.116 C157.885 187.506 160.823 192.1 166.401 192.1 C171.901 192.1 174.901 187.506 174.901 179.319 C174.901 174.506 174.104 171.272 172.37 169.006 C171.026 167.178 168.854 166.1 166.401 166.1 ZM166.401 168.975 C169.885 168.975 171.604 172.303 171.604 179.037 C171.604 186.131 169.917 189.428 166.323 189.428 C162.917 189.428 161.198 185.991 161.198 179.147 C161.198 172.303 162.917 168.975 166.401 168.975 Z" fill="#000000" fill-opacity="1.000000"/>
  <path d="M182.714 166.1 C179.167 166.1 177.26 168.881 177.26 174.084 C177.26 179.334 179.167 182.1 182.76 182.1 C186.276 182.1 188.214 179.334 188.214 174.241 C188.214 168.85 186.354 166.1 182.714 166.1 ZM182.714 168.053 C184.839 168.053 185.917 170.053 185.917 174.053 C185.917 178.303 184.885 180.272 182.682 180.272 C180.589 180.272 179.573 178.194 179.573 174.131 C179.573 170.022 180.589 168.053 182.714 168.053 Z" fill="#000000" fill-opacity="1.000000"/>
  <path d="M67.4323 152.226 L53.7604 152.226 C54.0885 150.07 55.2604 148.71 58.4479 146.82 L62.1198 144.804 C65.7448 142.835 67.6198 140.195 67.6198 137.007 C67.6198 134.851 66.7292 132.851 65.1979 131.429 C63.651 130.039 61.7448 129.367 59.2917 129.367 C55.9948 129.367 53.5417 130.554 52.1042 132.804 C51.1823 134.179 50.7917 135.789 50.7135 138.398 L53.9323 138.398 C54.0417 136.648 54.2604 135.601 54.7135 134.742 C55.5573 133.164 57.2448 132.195 59.1823 132.195 C62.1198 132.195 64.3073 134.273 64.3073 137.07 C64.3073 139.148 63.1042 140.945 60.7917 142.226 L57.4167 144.164 C51.9948 147.21 50.4167 149.648 50.1198 155.367 L67.4323 155.367 L67.4323 152.226 Z" fill="#000000" fill-opacity="1.000000"/>
  <path d="M76.276 151.554 L72.4635 151.554 L72.4635 155.367 L76.276 155.367 L76.276 151.554 Z" fill="#000000" fill-opacity="1.000000"/>
  <path d="M89.5417 129.367 C87.1198 129.367 84.9167 130.476 83.5573 132.273 C81.8698 134.476 81.026 137.773 81.026 142.382 C81.026 150.773 83.9635 155.367 89.5417 155.367 C95.0417 155.367 98.0417 150.773 98.0417 142.585 C98.0417 137.773 97.2448 134.539 95.5104 132.273 C94.1667 130.445 91.9948 129.367 89.5417 129.367 ZM89.5417 132.242 C93.026 132.242 94.7448 135.57 94.7448 142.304 C94.7448 149.398 93.0573 152.695 89.4635 152.695 C86.0573 152.695 84.3385 149.257 84.3385 142.414 C84.3385 135.57 86.0573 132.242 89.5417 132.242 Z" fill="#000000" fill-opacity="1.000000"/>
  <path d="" fill="#000000" fill-opacity="1.000000"/>
  <path d="M123.229 139.71 L117.839 145.07 L112.495 139.757 L110.698 141.554 L116.042 146.898 L110.651 152.289 L112.495 154.085 L117.839 148.742 L123.229 154.132 L125.073 152.289 L119.682 146.898 L125.026 141.554 L123.229 139.71 Z" fill="#000000" fill-opacity="1.000000"/>
  <path d="" fill="#000000" fill-opacity="1.000000"/>
  <path d="M145.417 136.492 L145.417 155.367 L148.651 155.367 L148.651 128.867 L146.526 128.867 C145.385 132.929 144.651 133.492 139.667 134.148 L139.667 136.492 L145.417 136.492 Z" fill="#000000" fill-opacity="1.000000"/>
  <path d="M166.401 129.367 C163.979 129.367 161.776 130.476 160.417 132.273 C158.729 134.476 157.885 137.773 157.885 142.382 C157.885 150.773 160.823 155.367 166.401 155.367 C171.901 155.367 174.901 150.773 174.901 142.585 C174.901 137.773 174.104 134.539 172.37 132.273 C171.026 130.445 168.854 129.367 166.401 129.367 ZM166.401 132.242 C169.885 132.242 171.604 135.57 171.604 142.304 C171.604 149.398 169.917 152.695 166.323 152.695 C162.917 152.695 161.198 149.257 161.198 142.414 C161.198 135.57 162.917 132.242 166.401 132.242 Z" fill="#000000" fill-opacity="1.000000"/>
  <path d="M182.714 129.367 C179.167 129.367 177.26 132.148 177.26 137.351 C177.26 142.601 179.167 145.367 182.76 145.367 C186.276 145.367 188.214 142.601 188.214 137.507 C188.214 132.117 186.354 129.367 182.714 129.367 ZM182.714 131.32 C184.839 131.32 185.917 133.32 185.917 137.32 C185.917 141.57 184.885 143.539 182.682 143.539 C180.589 143.539 179.573 141.46 179.573 137.398 C179.573 133.289 180.589 131.32 182.714 131.32 Z" fill="#000000" fill-opacity="1.000000"/>
  <path d="M56.9792 106.227 L57.3854 106.227 L58.7448 106.227 C62.2604 106.227 64.1354 107.774 64.1354 110.758 C64.1354 113.883 62.1198 115.774 58.776 115.774 C55.2135 115.774 53.4948 114.102 53.276 110.446 L50.0573 110.446 C50.1979 112.446 50.5573 113.758 51.1823 114.852 C52.5417 117.352 55.0729 118.633 58.6354 118.633 C63.9792 118.633 67.4323 115.43 67.4323 110.727 C67.4323 107.571 66.151 105.852 63.026 104.821 C65.4479 103.883 66.6667 102.165 66.6667 99.6646 C66.6667 95.399 63.6979 92.6333 58.7448 92.6333 C53.4948 92.6333 50.7135 95.5708 50.6042 100.821 L53.8229 100.821 C53.8698 99.3208 54.0104 98.4615 54.4167 97.6958 C55.151 96.2896 56.7604 95.4615 58.776 95.4615 C61.6354 95.4615 63.3542 97.0865 63.3542 99.7583 C63.3542 101.508 62.6979 102.586 61.276 103.165 C60.3854 103.508 59.2135 103.649 56.9792 103.68 L56.9792 106.227 Z" fill="#000000" fill-opacity="1.000000"/>
  <path d="M76.276 114.821 L72.4635 114.821 L72.4635 118.633 L76.276 118.633 L76.276 114.821 Z" fill="#000000" fill-opacity="1.000000"/>
  <path d="M89.5417 92.6333 C87.1198 92.6333 84.9167 93.7427 83.5573 95.5396 C81.8698 97.7427 81.026 101.04 81.026 105.649 C81.026 114.04 83.9635 118.633 89.5417 118.633 C95.0417 118.633 98.0417 114.04 98.0417 105.852 C98.0417 101.04 97.2448 97.8052 95.5104 95.5396 C94.1667 93.7115 91.9948 92.6333 89.5417 92.6333 ZM89.5417 95.5083 C93.026 95.5083 94.7448 98.8365 94.7448 105.571 C94.7448 112.665 93.0573 115.961 89.4635 115.961 C86.0573 115.961 84.3385 112.524 84.3385 105.68 C84.3385 98.8365 86.0573 95.5083 89.5417 95.5083 Z" fill="#000000" fill-opacity="1.000000"/>
  <path d="" fill="#000000" fill-opacity="1.000000"/>
  <path d="M123.229 102.977 L117.839 108.336 L112.495 103.024 L110.698 104.821 L116.042 110.165 L110.651 115.555 L112.495 117.352 L117.839 112.008 L123.229 117.399 L125.073 115.555 L119.682 110.165 L125.026 104.821 L123.229 102.977 Z" fill="#000000" fill-opacity="1.000000"/>
  <path d="" fill="#000000" fill-opacity="1.000000"/>
  <path d="M145.417 99.7583 L145.417 118.633 L148.651 118.633 L148.651 92.1333 L146.526 92.1333 C145.385 96.1958 144.651 96.7583 139.667 97.4146 L139.667 99.7583 L145.417 99.7583 Z" fill="#000000" fill-opacity="1.000000"/>
  <path d="M166.401 92.6333 C163.979 92.6333 161.776 93.7427 160.417 95.5396 C158.729 97.7427 157.885 101.04 157.885 105.649 C157.885 114.04 160.823 118.633 166.401 118.633 C171.901 118.633 174.901 114.04 174.901 105.852 C174.901 101.04 174.104 97.8052 172.37 95.5396 C171.026 93.7115 168.854 92.6333 166.401 92.6333 ZM166.401 95.5083 C169.885 95.5083 171.604 98.8365 171.604 105.571 C171.604 112.665 169.917 115.961 166.323 115.961 C162.917 115.961 161.198 112.524 161.198 105.68 C161.198 98.8365 162.917 95.5083 166.401 95.5083 Z" fill="#000000" fill-opacity="1.000000"/>
  <path d="M182.714 92.6333 C179.167 92.6333 177.26 95.4146 177.26 100.618 C177.26 105.868 179.167 108.633 182.76 108.633 C186.276 108.633 188.214 105.868 188.214 100.774 C188.214 95.3833 186.354 92.6333 182.714 92.6333 ZM182.714 94.5865 C184.839 94.5865 185.917 96.5865 185.917 100.586 C185.917 104.836 184.885 106.805 182.682 106.805 C180.589 106.805 179.573 104.727 179.573 100.665 C179.573 96.5552 180.589 94.5865 182.714 94.5865 Z" fill="#000000" fill-opacity="1.000000"/>
  <path d="M60.8698 75.8062 L60.8698 81.9 L64.0885 81.9 L64.0885 75.8062 L67.9479 75.8062 L67.9479 72.9 L64.0885 72.9 L64.0885 55.7125 L61.7135 55.7125 L49.901 72.4 L49.901 75.8062 L60.8698 75.8062 ZM60.8698 72.9 L52.7292 72.9 L60.8698 61.2125 L60.8698 72.9 Z" fill="#000000" fill-opacity="1.000000"/>
  <path d="M76.276 78.0875 L72.4635 78.0875 L72.4635 81.9 L76.276 81.9 L76.276 78.0875 Z" fill="#000000" fill-opacity="1.000000"/>
  <path d="M89.5417 55.9 C87.1198 55.9 84.9167 57.0094 83.5573 58.8062 C81.8698 61.0094 81.026 64.3062 81.026 68.9156 C81.026 77.3062 83.9635 81.9 89.5417 81.9 C95.0417 81.9 98.0417 77.3062 98.0417 69.1187 C98.0417 64.3062 97.2448 61.0719 95.5104 58.8062 C94.1667 56.9781 91.9948 55.9 89.5417 55.9 ZM89.5417 58.775 C93.026 58.775 94.7448 62.1031 94.7448 68.8375 C94.7448 75.9312 93.0573 79.2281 89.4635 79.2281 C86.0573 79.2281 84.3385 75.7906 84.3385 68.9469 C84.3385 62.1031 86.0573 58.775 89.5417 58.775 Z" fill="#000000" fill-opacity="1.000000"/>
  <path d="" fill="#000000" fill-opacity="1.000000"/>
  <path d="M123.229 66.2437 L117.839 71.6031 L112.495 66.2906 L110.698 68.0875 L116.042 73.4312 L110.651 78.8219 L112.495 80.6187 L117.839 75.275 L123.229 80.6656 L125.073 78.8219 L119.682 73.4312 L125.026 68.0875 L123.229 66.2437 Z" fill="#000000" fill-opacity="1.000000"/>
  <path d="" fill="#000000" fill-opacity="1.000000"/>
  <path d="M145.417 63.025 L145.417 81.9 L148.651 81.9 L148.651 55.4 L146.526 55.4 C145.385 59.4625 144.651 60.025 139.667 60.6812 L139.667 63.025 L145.417 63.025 Z" fill="#000000" fill-opacity="1.000000"/>
  <path d="M166.401 55.9 C163.979 55.9 161.776 57.0094 160.417 58.8062 C158.729 61.0094 157.885 64.3062 157.885 68.9156 C157.885 77.3062 160.823 81.9 166.401 81.9 C171.901 81.9 174.901 77.3062 174.901 69.1187 C174.901 64.3062 174.104 61.0719 172.37 58.8062 C171.026 56.9781 168.854 55.9 166.401 55.9 ZM166.401 58.775 C169.885 58.775 171.604 62.1031 171.604 68.8375 C171.604 75.9312 169.917 79.2281 166.323 79.2281 C162.917 79.2281 161.198 75.7906 161.198 68.9469 C161.198 62.1031 162.917 58.775 166.401 58.775 Z" fill="#000000" fill-opacity="1.000000"/>
  <path d="M182.714 55.9 C179.167 55.9 177.26 58.6812 177.26 63.8844 C177.26 69.1344 179.167 71.9 182.76 71.9 C186.276 71.9 188.214 69.1344 188.214 64.0406 C188.214 58.65 186.354 55.9 182.714 55.9 ZM182.714 57.8531 C184.839 57.8531 185.917 59.8531 185.917 63.8531 C185.917 68.1031 184.885 70.0719 182.682 70.0719 C180.589 70.0719 179.573 67.9937 179.573 63.9312 C179.573 59.8219 180.589 57.8531 182.714 57.8531 Z" fill="#000000" fill-opacity="1.000000"/>
  <path d="M66.3385 19.1667 L52.9167 19.1667 L50.9635 33.2604 L53.9323 33.2604 C55.4479 31.6042 56.6823 31.0417 58.7448 31.0417 C62.2292 31.0417 64.3854 33.2292 64.3854 36.776 C64.3854 40.2135 62.2292 42.3073 58.6979 42.3073 C55.8854 42.3073 54.151 40.9948 53.3854 38.2917 L50.1667 38.2917 C50.6042 40.2604 50.9635 41.1979 51.7448 42.0729 C53.1979 44.0417 55.8385 45.1667 58.776 45.1667 C64.026 45.1667 67.6823 41.4323 67.6823 36.3698 C67.6823 31.651 64.276 28.1667 59.2917 28.1667 C57.4635 28.1667 55.9948 28.651 54.4948 29.7448 L55.5104 22.3698 L66.3385 22.3698 L66.3385 19.1667 Z" fill="#000000" fill-opacity="1.000000"/>
  <path d="M76.276 41.3542 L72.4635 41.3542 L72.4635 45.1667 L76.276 45.1667 L76.276 41.3542 Z" fill="#000000" fill-opacity="1.000000"/>
  <path d="M89.5417 19.1667 C87.1198 19.1667 84.9167 20.276 83.5573 22.0729 C81.8698 24.276 81.026 27.5729 81.026 32.1823 C81.026 40.5729 83.9635 45.1667 89.5417 45.1667 C95.0417 45.1667 98.0417 40.5729 98.0417 32.3854 C98.0417 27.5729 97.2448 24.3385 95.5104 22.0729 C94.1667 20.2448 91.9948 19.1667 89.5417 19.1667 ZM89.5417 22.0417 C93.026 22.0417 94.7448 25.3698 94.7448 32.1042 C94.7448 39.1979 93.0573 42.4948 89.4635 42.4948 C86.0573 42.4948 84.3385 39.0573 84.3385 32.2135 C84.3385 25.3698 86.0573 22.0417 89.5417 22.0417 Z" fill="#000000" fill-opacity="1.000000"/>
  <path d="" fill="#000000" fill-opacity="1.000000"/>
  <path d="M123.229 29.5104 L117.839 34.8698 L112.495 29.5573 L110.698 31.3542 L116.042 36.6979 L110.651 42.0885 L112.495 43.8854 L117.839 38.5417 L123.229 43.9323 L125.073 42.0885 L119.682 36.6979 L125.026 31.3542 L123.229 29.5104 Z" fill="#000000" fill-opacity="1.000000"/>
  <path d="" fill="#000000" fill-opacity="1.000000"/>
  <path d="M145.417 26.2917 L145.417 45.1667 L148.651 45.1667 L148.651 18.6667 L146.526 18.6667 C145.385 22.7292 144.651 23.2917 139.667 23.9479 L139.667 26.2917 L145.417 26.2917 Z" fill="#000000" fill-opacity="1.000000"/>
  <path d="M166.401 19.1667 C163.979 19.1667 161.776 20.276 160.417 22.0729 C158.729 24.276 157.885 27.5729 157.885 32.1823 C157.885 40.5729 160.823 45.1667 166.401 45.1667 C171.901 45.1667 174.901 40.5729 174.901 32.3854 C174.901 27.5729 174.104 24.3385 172.37 22.0729 C171.026 20.2448 168.854 19.1667 166.401 19.1667 ZM166.401 22.0417 C169.885 22.0417 171.604 25.3698 171.604 32.1042 C171.604 39.1979 169.917 42.4948 166.323 42.4948 C162.917 42.4948 161.198 39.0573 161.198 32.2135 C161.198 25.3698 162.917 22.0417 166.401 22.0417 Z" fill="#000000" fill-opacity="1.000000"/>
  <path d="M182.714 19.1667 C179.167 19.1667 177.26 21.9479 177.26 27.151 C177.26 32.401 179.167 35.1667 182.76 35.1667 C186.276 35.1667 188.214 32.401 188.214 27.3073 C188.214 21.9167 186.354 19.1667 182.714 19.1667 ZM182.714 21.1198 C184.839 21.1198 185.917 23.1198 185.917 27.1198 C185.917 31.3698 184.885 33.3385 182.682 33.3385 C180.589 33.3385 179.573 31.2604 179.573 27.1979 C179.573 23.0885 180.589 21.1198 182.714 21.1198 Z" fill="#000000" fill-opacity="1.000000"/>
  <path d="M218.266 221.146 L223.246 222.32 L228.227 195.315 L233.208 203.922 L238.189 219.864 L243.169 245.422 L248.15 191.282 L253.131 201.733 L258.112 222.245 L263.092 192.053 L268.073 238.114 L273.054 256.01 L278.035 191.913 L283.015 195.199 L287.996 189.15 L292.977 252.845 L297.958 211.966 L302.938 255.088 L307.919 230.78 L312.9 190.532 L317.88 247.753 L322.861 207.616 L327.842 236.379 L332.823 200.04 L337.803 186.515 L342.784 215.43 L347.765 239.918 L352.746 201.073 L357.726 196.799 L362.707 201.998 L367.688 244.849 L372.669 198.352 L377.649 250.554 L382.63 254.5 L387.611 194.807 L392.592 247.526 L397.572 212.167 L402.553 228.259 L407.534 244.965 L412.515 185.893 L417.495 233.401 L422.476 232.447 L427.457 232.159 L432.438 196.145 L437.418 190.507 L442.399 185.522 L447.38 189.585 L452.361 188.272 L457.341 211.54 L462.322 197.883 L467.303 239.852 L472.284 226.86 L477.264 223.196 L482.245 196.976 L487.226 214.696 L492.207 200.719 L497.187 184.32 L502.168 211.664 L507.149 224.438 L512.129 194.654 L517.11 226.51 L522.091 188.59 L527.072 251.012 L532.052 193.924 L537.033 248.049 L542.014 190.344 L546.995 250.638 L551.975 225.137 L556.956 219.032 L561.937 205.234 L566.918 256.262 L571.898 197.272 L576.879 213.715 L581.86 202.3 L586.841 210.901 L591.821 203.825 L596.802 253.8 L601.783 208.53 L606.764 195.601 L611.744 190.018 L616.725 210.254 L621.706 230.379 L626.687 195.251 L631.667 221.679 L636.648 250.647 L641.629 212.447 L646.61 229.128 L651.59 192.382 L656.571 201.869 L661.552 216.033 L666.533 256.611 L671.513 239.078 L676.494 188.266 L681.475 203.174 L686.456 206.632 L691.436 191.423 L696.417 221.808 L701.398 240.228 L706.379 205.407 L711.359 227.281 L716.34 231.445 L721.321 229.183 L726.301 205.23 L731.282 236.267 L736.263 216.04 L741.244 217.469 L746.224 206.056 L751.205 211.513 L756.186 206.203 L761.167 240.715 L766.147 233.478 L771.128 214.344 L776.109 219.315 L781.09 255.504 L786.07 212.314 L791.051 210.559 L796.032 197.023 L801.013 247.71 L805.993 224.879 L810.974 209.345 L815.955 249.223 L820.936 244.307 L825.916 205.377 L830.897 250.741 L835.878 213.355 L840.859 192.854 L845.839 191.12 L850.82 227.517 L855.801 223.036 L860.782 200.1 L865.762 233.174 L870.743 246.266 L875.724 219.511 L880.705 192.363 L885.685 224.691 L890.666 209.912 L895.647 234.853 L900.628 248.02 L905.608 202.797 L910.589 256.719 L915.57 211.992 L920.55 219.198 L925.531 210.079 L930.512 221.457 L935.493 240.548 L940.473 234.252 L945.454 191.608 L950.435 212.584 L955.416 200.444 L960.396 241.819 L965.377 254.227 L970.358 227.738 L975.339 211.602 L980.319 205.533 L985.3 251.023 L990.281 201.008 L995.262 244.102 L1000.24 211.35 L1005.22 252.307 L1010.2 204.002 L1015.18 246.759 L1020.17 253.761 L1025.15 244.767 L1030.13 229.056 L1035.11 253.06 L1040.09 217.686 L1045.07 211.18 L1050.05 201.768 L1055.03 218.839 L1060.01 225.268 L1064.99 254.433 L1069.97 256.744 L1074.95 256.035 L1079.93 223.925 L1084.92 216.126 L1089.9 247.94 L1094.88 254.827 L1099.86 240.023 L1104.84 213.967 L1109.82 211.292 L1114.8 208.41 L1119.78 187.418 L1124.76 238.454 L1129.74 226.599 L1134.72 188.109 L1139.7 198.233 L1144.68 188.901 L1149.66 248.183 L1154.65 242.889 L1159.63 212.915 L1164.61 207.95 L1169.59 195.427 L1174.57 243.765 L1179.55 241.501 L1184.53 228.187 L1189.51 213.053 L1194.49 214.468 L1199.47 237.14 L1204.45 203.02 L1209.43 232.175 L1214.41 234.841 L1219.4 206.541 L1224.38 208.057 L1229.36 208.104 L1234.34 184.016 L1239.32 206.533 L1244.3 183.723 L1249.28 187.707 L1254.26 195.764 L1259.24 218.967 L1264.22 249.61 L1269.2 184.81 L1274.18 249.293 L1279.16 234.976 L1284.14 205.293 L1289.13 188.423 L1294.11 191.942 L1299.09 184.299 L1304.07 235.125 L1309.05 206.209 L1314.03 183.744 L1319.01 198.172 L1323.99 185.028 L1328.97 227.612 L1333.95 189.982 L1338.93 198.008 L1343.91 191.946 L1348.89 192.518 L1353.88 254.22 L1358.86 239.315 L1363.84 186.421 L1368.82 211.57 L1373.8 216.96 L1378.78 238.181 L1383.76 220.736 L1388.74 202.102 L1393.72 241.597 L1398.7 197.979 L1403.68 191.887 L1408.66 219.793 L1413.64 202.314 L1418.62 209.625 L1423.61 206.975 L1428.59 184.502 L1433.57 205.213 L1438.55 232.877 L1443.53 241.651 L1448.51 220.039 L1453.49 244.955 L1458.47 187.479 L1463.45 198.934 L1468.43 193.874 L1473.41 249.889 L1478.39 256.037 L1483.37 195.512 L1488.36 214.835 L1493.34 217.39 L1498.32 207.181 L1503.3 233.487 L1508.28 202.173 L1513.26 203.53 L1518.24 185.331 L1523.22 240.358 L1528.2 236.403 L1533.18 256.143 L1538.16 244.671 L1543.14 230.947 L1548.12 240.961 L1553.1 204.75 L1558.09 239.766 L1563.07 187.011 L1568.05 253.318 L1573.03 212.647 L1578.01 192.36 L1582.99 214.332 L1587.97 255.355 L1592.95 183.815 L1597.93 195.193 L1602.91 236.308 L1607.89 235.359 L1612.87 196.449 L1617.85 253.605 L1622.84 210.365 L1627.82 183.667 L1632.8 197.229 L1637.78 243.355 L1642.76 194.991 L1647.74 184.805 L1652.72 193.121 L1657.7 249.681 L1662.68 246.959 L1667.66 216.64 L1672.64 222.489 L1677.62 254.177 L1682.6 237.184 L1687.58 250.593 L1692.57 241.229 L1697.55 219.438 L1702.53 199.034 L1707.51 223.902 L1712.49 248.376 L1717.47 189.296 L1722.45 211.505 L1727.43 248.502 L1732.41 189.465 L1737.39 214.973 L1742.37 255.315 L1747.35 194.043 L1752.33 250.428 L1757.32 223.449 L1762.3 188.001 L1767.28 186.492 L1772.26 214.75 L1777.24 209.401 L1782.22 215.728 L1787.2 189.733 L1792.18 235.768 L1797.16 202.097 L1802.14 205.923 L1807.12 202.91 L1812.1 227.443 L1817.08 199.286 L1822.07 192.775 L1827.05 225.724 L1832.03 215.31 L1837.01 196.077 L1841.99 221.303 L1846.97 245.894 L1851.95 253.203 L1856.93 248.551 L1861.91 244.624 L1866.89 238.372 L1871.87 220.773 L1876.85 206.826 L1881.83 218.865 L1886.81 234.822 L1891.8 249.115 L1896.78 254.858 L1901.76 204.029 L1906.74 197.254 L1911.72 222.354 L1916.7 187.261 L1921.68 239.27 L1926.66 199.828 L1931.64 186.517 L1936.62 204.129 L1941.6 213.014 L1946.58 230.818 L1951.56 206.886 L1956.55 210.724 L1961.53 189.896 L1966.51 186.698 L1971.49 184.183 L1976.47 207.396 L1981.45 188.726 L1986.43 192.144 L1991.41 236.296 L1996.39 208.928 L2001.37 227.249 L2006.35 216.66 L2011.33 224.675 " fill="none" stroke-width="5.000000" stroke="#0066ccff"/>
  <path d="M1729.34 114.667 L1729.34 87.6667 L1741.09 87.6667 Q1744.62 87.6667 1746.46 88.4089 Q1748.31 89.151 1749.41 91.026 Q1750.51 92.901 1750.51 95.1823 Q1750.51 98.1042 1748.69 100.112 Q1746.87 102.12 1743.06 102.667 Q1744.45 103.448 1745.17 104.198 Q1746.7 105.839 1748.07 107.495 L1752.68 114.667 L1748.28 114.667 L1744.76 109.182 Q1743.23 106.807 1742.24 105.549 Q1741.24 104.292 1740.46 103.674 Q1739.68 103.057 1738.87 102.823 Q1738.28 102.667 1736.92 102.667 L1732.84 102.667 L1732.84 114.667 L1729.34 114.667 ZM1732.84 99.6667 L1740.39 99.6667 Q1742.78 99.6667 1744.14 99.1589 Q1745.49 98.651 1746.2 97.526 Q1746.9 96.401 1746.9 95.0885 Q1746.9 93.151 1745.53 91.9089 Q1744.17 90.6667 1741.23 90.6667 L1732.84 90.6667 L1732.84 99.6667 Z" fill="#000000" fill-opacity="1.000000"/>
  <path d="M1767.87 112.667 Q1766.07 113.76 1764.4 114.214 Q1762.73 114.667 1760.82 114.667 Q1757.65 114.667 1755.96 113.073 Q1754.26 111.479 1754.26 109.01 Q1754.26 107.557 1754.9 106.354 Q1755.54 105.151 1756.58 104.424 Q1757.62 103.698 1758.92 103.323 Q1759.87 103.057 1761.81 102.823 Q1765.74 102.339 1767.6 101.667 Q1767.62 101.104 1767.62 100.948 Q1767.62 99.276 1766.7 98.5885 Q1765.45 97.6667 1762.99 97.6667 Q1760.7 97.6667 1759.61 98.3307 Q1758.53 98.9948 1757.99 100.667 L1754.81 100.667 Q1755.24 98.5885 1756.24 97.3151 Q1757.23 96.0417 1759.1 95.3542 Q1760.98 94.6667 1763.46 94.6667 Q1765.92 94.6667 1767.46 95.2604 Q1768.99 95.8542 1769.71 96.7526 Q1770.43 97.651 1770.73 99.026 Q1770.89 99.8854 1770.89 101.932 L1770.89 106.01 Q1770.89 110.292 1771.1 111.792 Q1771.31 113.292 1771.92 114.667 L1768.53 114.667 Q1768.01 113.807 1767.87 112.667 ZM1767.6 104.667 Q1765.84 105.339 1762.29 105.807 Q1760.29 106.073 1759.46 106.417 Q1758.64 106.76 1758.18 107.401 Q1757.73 108.042 1757.73 108.839 Q1757.73 110.057 1758.71 110.862 Q1759.7 111.667 1761.59 111.667 Q1763.48 111.667 1764.94 110.854 Q1766.4 110.042 1767.09 108.729 Q1767.6 107.729 1767.6 105.76 L1767.6 104.667 Z" fill="#000000" fill-opacity="1.000000"/>
  <path d="M1775.74 114.667 L1775.74 94.6667 L1778.67 94.6667 L1778.67 97.401 Q1780.78 94.6667 1784.78 94.6667 Q1786.51 94.6667 1787.96 95.2995 Q1789.42 95.9323 1790.14 96.9635 Q1790.87 97.9948 1791.15 99.4167 Q1791.34 100.339 1791.34 102.635 L1791.34 114.667 L1788.09 114.667 L1788.09 102.854 Q1788.09 100.854 1787.71 99.8542 Q1787.32 98.8542 1786.36 98.2604 Q1785.4 97.6667 1784.09 97.6667 Q1782.01 97.6667 1780.5 99.0026 Q1778.99 100.339 1778.99 104.073 L1778.99 114.667 L1775.74 114.667 Z" fill="#000000" fill-opacity="1.000000"/>
  <path d="M1808.59 114.667 L1808.59 111.464 Q1806.76 114.667 1803.23 114.667 Q1800.93 114.667 1799 113.409 Q1797.07 112.151 1796.02 109.885 Q1794.96 107.62 1794.96 104.682 Q1794.96 101.823 1795.92 99.487 Q1796.89 97.151 1798.8 95.9089 Q1800.71 94.6667 1803.07 94.6667 Q1804.81 94.6667 1806.17 95.4792 Q1807.53 96.2917 1808.37 97.6042 L1808.37 87.6667 L1811.6 87.6667 L1811.6 114.667 L1808.59 114.667 ZM1798.31 104.682 Q1798.31 108.182 1799.86 109.924 Q1801.42 111.667 1803.53 111.667 Q1805.65 111.667 1807.14 110.003 Q1808.64 108.339 1808.64 104.932 Q1808.64 101.182 1807.12 99.4245 Q1805.6 97.6667 1803.39 97.6667 Q1801.21 97.6667 1799.76 99.3542 Q1798.31 101.042 1798.31 104.682 Z" fill="#000000" fill-opacity="1.000000"/>
  <path d="M1815.32 104.667 Q1815.32 99.3542 1818.29 96.7917 Q1820.76 94.6667 1824.32 94.6667 Q1828.28 94.6667 1830.78 97.2526 Q1833.29 99.8385 1833.29 104.401 Q1833.29 108.089 1832.18 110.206 Q1831.07 112.323 1828.95 113.495 Q1826.82 114.667 1824.32 114.667 Q1820.29 114.667 1817.81 112.089 Q1815.32 109.51 1815.32 104.667 ZM1818.67 104.651 Q1818.67 108.167 1820.28 109.917 Q1821.89 111.667 1824.32 111.667 Q1826.73 111.667 1828.34 109.909 Q1829.95 108.151 1829.95 104.557 Q1829.95 101.167 1828.33 99.4167 Q1826.71 97.6667 1824.32 97.6667 Q1821.89 97.6667 1820.28 99.4089 Q1818.67 101.151 1818.67 104.651 Z" fill="#000000" fill-opacity="1.000000"/>
  <path d="M1836.92 114.667 L1836.92 94.6667 L1839.82 94.6667 L1839.82 97.9792 Q1840.73 96.4792 1842.23 95.5729 Q1843.73 94.6667 1845.64 94.6667 Q1847.78 94.6667 1849.14 95.6042 Q1850.49 96.5417 1851.06 98.2135 Q1853.34 94.6667 1856.99 94.6667 Q1859.84 94.6667 1861.38 96.276 Q1862.92 97.8854 1862.92 101.245 L1862.92 114.667 L1859.68 114.667 L1859.68 102.432 Q1859.68 100.464 1859.37 99.5964 Q1859.06 98.7292 1858.22 98.1979 Q1857.39 97.6667 1856.28 97.6667 Q1854.24 97.6667 1852.91 99.026 Q1851.57 100.385 1851.57 103.385 L1851.57 114.667 L1848.32 114.667 L1848.32 102.057 Q1848.32 99.8542 1847.53 98.7604 Q1846.73 97.6667 1844.92 97.6667 Q1843.54 97.6667 1842.38 98.401 Q1841.21 99.1354 1840.69 100.542 Q1840.17 101.948 1840.17 104.604 L1840.17 114.667 L1836.92 114.667 Z" fill="#000000" fill-opacity="1.000000"/>
  <path d="" fill="#000000" fill-opacity="1.000000"/>
  <path d="M1878.07 114.667 L1878.07 87.6667 L1887.2 87.6667 Q1890.28 87.6667 1891.9 88.0573 Q1894.18 88.5885 1895.79 89.9948 Q1897.89 91.7917 1898.92 94.6042 Q1899.96 97.4167 1899.96 101.026 Q1899.96 104.089 1899.26 106.471 Q1898.56 108.854 1897.46 110.409 Q1896.35 111.964 1895.04 112.854 Q1893.73 113.745 1891.88 114.206 Q1890.03 114.667 1887.62 114.667 L1878.07 114.667 ZM1881.57 111.667 L1887.23 111.667 Q1889.85 111.667 1891.34 111.159 Q1892.82 110.651 1893.71 109.729 Q1894.96 108.448 1895.66 106.26 Q1896.35 104.073 1896.35 100.964 Q1896.35 96.651 1894.99 94.3307 Q1893.62 92.0104 1891.67 91.2292 Q1890.26 90.6667 1887.14 90.6667 L1881.57 90.6667 L1881.57 111.667 Z" fill="#000000" fill-opacity="1.000000"/>
  <path d="M1916.65 112.667 Q1914.85 113.76 1913.18 114.214 Q1911.51 114.667 1909.6 114.667 Q1906.43 114.667 1904.74 113.073 Q1903.04 111.479 1903.04 109.01 Q1903.04 107.557 1903.68 106.354 Q1904.32 105.151 1905.36 104.424 Q1906.4 103.698 1907.7 103.323 Q1908.65 103.057 1910.59 102.823 Q1914.53 102.339 1916.39 101.667 Q1916.4 101.104 1916.4 100.948 Q1916.4 99.276 1915.48 98.5885 Q1914.23 97.6667 1911.78 97.6667 Q1909.48 97.6667 1908.39 98.3307 Q1907.31 98.9948 1906.78 100.667 L1903.59 100.667 Q1904.03 98.5885 1905.02 97.3151 Q1906.01 96.0417 1907.89 95.3542 Q1909.76 94.6667 1912.24 94.6667 Q1914.7 94.6667 1916.24 95.2604 Q1917.78 95.8542 1918.49 96.7526 Q1919.21 97.651 1919.51 99.026 Q1919.67 99.8854 1919.67 101.932 L1919.67 106.01 Q1919.67 110.292 1919.88 111.792 Q1920.09 113.292 1920.7 114.667 L1917.31 114.667 Q1916.79 113.807 1916.65 112.667 ZM1916.39 104.667 Q1914.62 105.339 1911.07 105.807 Q1909.07 106.073 1908.24 106.417 Q1907.42 106.76 1906.96 107.401 Q1906.51 108.042 1906.51 108.839 Q1906.51 110.057 1907.49 110.862 Q1908.48 111.667 1910.37 111.667 Q1912.26 111.667 1913.72 110.854 Q1915.18 110.042 1915.87 108.729 Q1916.39 107.729 1916.39 105.76 L1916.39 104.667 Z" fill="#000000" fill-opacity="1.000000"/>
  <path d="M1931.64 111.51 L1932.1 114.385 Q1930.73 114.667 1929.65 114.667 Q1927.87 114.667 1926.89 114.104 Q1925.92 113.542 1925.52 112.628 Q1925.12 111.714 1925.12 108.76 L1925.12 97.6667 L1922.74 97.6667 L1922.74 94.6667 L1925.12 94.6667 L1925.12 89.9167 L1928.35 87.9635 L1928.35 94.6667 L1931.64 94.6667 L1931.64 97.6667 L1928.35 97.6667 L1928.35 108.979 Q1928.35 110.385 1928.53 110.792 Q1928.7 111.198 1929.09 111.432 Q1929.48 111.667 1930.2 111.667 Q1930.74 111.667 1931.64 111.51 Z" fill="#000000" fill-opacity="1.000000"/>
  <path d="M1947.23 112.667 Q1945.43 113.76 1943.76 114.214 Q1942.09 114.667 1940.18 114.667 Q1937.01 114.667 1935.32 113.073 Q1933.62 111.479 1933.62 109.01 Q1933.62 107.557 1934.26 106.354 Q1934.9 105.151 1935.94 104.424 Q1936.98 103.698 1938.28 103.323 Q1939.23 103.057 1941.17 102.823 Q1945.1 102.339 1946.96 101.667 Q1946.98 101.104 1946.98 100.948 Q1946.98 99.276 1946.06 98.5885 Q1944.81 97.6667 1942.35 97.6667 Q1940.06 97.6667 1938.97 98.3307 Q1937.89 98.9948 1937.35 100.667 L1934.17 100.667 Q1934.6 98.5885 1935.6 97.3151 Q1936.59 96.0417 1938.46 95.3542 Q1940.34 94.6667 1942.82 94.6667 Q1945.28 94.6667 1946.82 95.2604 Q1948.35 95.8542 1949.07 96.7526 Q1949.79 97.651 1950.09 99.026 Q1950.24 99.8854 1950.24 101.932 L1950.24 106.01 Q1950.24 110.292 1950.46 111.792 Q1950.67 113.292 1951.28 114.667 L1947.89 114.667 Q1947.37 113.807 1947.23 112.667 ZM1946.96 104.667 Q1945.2 105.339 1941.65 105.807 Q1939.65 106.073 1938.82 106.417 Q1937.99 106.76 1937.54 107.401 Q1937.09 108.042 1937.09 108.839 Q1937.09 110.057 1938.07 110.862 Q1939.06 111.667 1940.95 111.667 Q1942.84 111.667 1944.3 110.854 Q1945.76 110.042 1946.45 108.729 Q1946.96 107.729 1946.96 105.76 L1946.96 104.667 Z" fill="#000000" fill-opacity="1.000000"/>
  <path d="M1691.6 115.417 C1684.01 115.417 1677.85 109.261 1677.85 101.667 C1677.85 94.0728 1684.01 87.9167 1691.6 87.9167 C1699.19 87.9167 1705.35 94.0728 1705.35 101.667 C1705.35 109.261 1699.19 115.417 1691.6 115.417 Z" fill="#0066cc" fill-opacity="1.000000"/>
</svg>