<?xml version="1.0" encoding="UTF-8" ?>
<!-- Generated by clip v0.7.0 (clip-lang.org) -->
<svg xmlns="http://www.w3.org/2000/svg" width="396.850394" height="559.370079">
  <rect width="396.850394" height="559.370079" fill="#ffffff" fill-opacity="1.000000"/>
  <path d="M57.0502 308.213 L57.0502 294.119 L69.1283 292.447 L126.035 145.4 L144.941 145.4 L200.847 292.447 L212.816 294.119 L212.816 308.213 L166.066 308.213 L166.066 294.119 L178.363 291.994 L167.628 262.025 L102.441 262.025 L91.3783 291.994 L103.675 294.119 L103.675 308.213 L57.0502 308.213 ZM109.269 243.588 L160.925 243.588 L137.003 177.384 L135.66 173.697 L134.988 173.697 L133.644 177.384 L109.269 243.588 Z" fill="#000000" fill-opacity="1.000000"/>
  <path d="M268.285 310.556 Q249.394 310.556 239.55 301.33 Q229.706 292.103 229.706 275.338 Q229.706 263.822 236.027 255.267 Q242.347 246.713 254.308 241.963 Q266.269 237.213 282.941 237.213 L304.519 237.213 L304.519 225.353 Q304.519 214.4 297.863 208.361 Q291.206 202.322 279.128 202.322 Q271.535 202.322 265.941 204.166 Q260.347 206.009 255.769 209.259 L253.41 226.134 L236.425 226.134 L236.425 198.416 Q244.581 191.806 255.425 188.4 Q266.269 184.994 279.472 184.994 Q301.503 184.994 314.027 195.502 Q326.55 206.009 326.55 225.588 L326.55 283.838 Q326.55 286.181 326.605 288.416 Q326.66 290.65 326.878 292.9 L338.628 294.119 L338.628 308.213 L306.972 308.213 Q305.972 303.291 305.41 299.377 Q304.847 295.463 304.628 291.556 Q298.253 299.713 288.691 305.134 Q279.128 310.556 268.285 310.556 ZM271.535 292.103 Q282.488 292.103 291.542 286.853 Q300.597 281.603 304.519 274.213 L304.519 252.306 L282.16 252.306 Q266.941 252.306 259.339 259.572 Q251.738 266.838 251.738 275.791 Q251.738 283.728 256.66 287.916 Q261.581 292.103 271.535 292.103 Z" fill="#000000" fill-opacity="1.000000"/>
  <path d="M173.472 473.484 L195.144 416.484 L201.753 416.484 L223.503 473.484 L215.769 473.484 L210.347 458.484 L186.55 458.484 L181.16 473.484 L173.472 473.484 ZM188.816 452.547 L208.113 452.547 L198.472 425.844 L188.816 452.547 Z" fill="#000000" fill-opacity="1.000000"/>
</svg>