<?xml version="1.0" encoding="UTF-8" ?>
<!-- Generated by clip v0.7.0 (clip-lang.org) -->
<svg xmlns="http://www.w3.org/2000/svg" width="396.850394" height="559.370079">
  <rect width="396.850394" height="559.370079" fill="#ffffff" fill-opacity="1.000000"/>
  <path d="M63.7611 308.213 L63.7611 294.119 L81.9955 290.994 L81.9955 162.744 L63.7611 159.603 L63.7611 145.4 L181.839 145.4 L181.839 181.416 L162.949 181.416 L161.277 162.744 L105.136 162.744 L105.136 212.056 L145.277 212.056 Q162.73 212.056 174.972 217.869 Q187.214 223.681 193.699 234.361 Q200.183 245.041 200.183 259.681 Q200.183 274.338 193.699 285.291 Q187.214 296.244 174.917 302.228 Q162.621 308.213 145.277 308.213 L63.7611 308.213 ZM105.136 290.994 L145.277 290.994 Q161.824 290.994 169.988 282.049 Q178.152 273.103 178.152 259.463 Q178.152 246.259 169.988 237.822 Q161.824 229.384 145.277 229.384 L105.136 229.384 L105.136 290.994 Z" fill="#000000" fill-opacity="1.000000"/>
  <path d="M275.199 310.556 Q258.542 310.556 246.41 303.009 Q234.277 295.463 227.683 282.103 Q221.089 268.744 221.089 251.416 L221.089 235.759 Q221.089 211.931 227.847 194.494 Q234.605 177.056 247.019 166.431 Q259.433 155.806 276.324 152.447 Q290.402 149.884 296.722 146.306 Q303.042 142.728 303.042 134.556 L320.042 134.556 L320.261 135.228 Q320.48 145.072 318.191 151.22 Q315.902 157.369 310.98 161.064 Q306.058 164.759 298.456 166.877 Q290.855 168.994 280.464 170.791 Q270.277 172.463 261.949 177.103 Q253.621 181.744 248.199 189.744 Q242.777 197.744 241.105 209.588 L241.542 210.15 Q248.136 203.103 258.144 198.634 Q268.152 194.166 279.449 194.166 Q294.777 194.166 305.956 201.205 Q317.136 208.244 323.23 220.603 Q329.324 232.963 329.324 248.947 L329.324 251.416 Q329.324 268.744 322.722 282.103 Q316.121 295.463 303.988 303.009 Q291.855 310.556 275.199 310.556 ZM275.199 293.338 Q285.714 293.338 292.871 287.916 Q300.027 282.494 303.66 273.049 Q307.292 263.603 307.292 251.416 L307.292 248.947 Q307.292 238.213 303.605 229.713 Q299.917 221.213 292.761 216.299 Q285.605 211.384 274.98 211.384 Q264.464 211.384 257.363 216.299 Q250.261 221.213 246.683 229.713 Q243.105 238.213 243.105 248.947 L243.105 251.416 Q243.105 263.603 246.683 273.049 Q250.261 282.494 257.417 287.916 Q264.574 293.338 275.199 293.338 Z" fill="#000000" fill-opacity="1.000000"/>
  <path d="M197.527 456.891 Q197.527 464.953 192.456 469.219 Q187.386 473.484 178.98 473.484 L159.292 473.484 L159.292 416.547 L177.824 416.547 Q186.527 416.547 191.41 420.125 Q196.292 423.703 196.292 431.547 Q196.292 435.453 194.121 438.484 Q191.949 441.516 188.183 443.187 Q192.714 444.516 195.121 448.273 Q197.527 452.031 197.527 456.891 ZM166.527 422.484 L166.527 440.547 L178.074 440.547 Q183.011 440.547 186.035 438.125 Q189.058 435.703 189.058 431.391 Q189.058 422.484 177.839 422.484 L166.527 422.484 ZM190.292 457.062 Q190.292 452.141 187.691 449.312 Q185.089 446.484 179.308 446.484 L166.527 446.484 L166.527 467.547 L178.964 467.547 Q184.339 467.547 187.316 464.719 Q190.292 461.891 190.292 457.062 Z" fill="#000000" fill-opacity="1.000000"/>
  <path d="M241.683 466.266 Q239.605 469.406 235.792 471.945 Q231.98 474.484 225.683 474.484 Q216.792 474.484 211.464 468.726 Q206.136 462.969 206.136 454 L206.136 452.359 Q206.136 445.422 208.777 440.547 Q211.417 435.672 215.652 433.109 Q219.886 430.547 224.683 430.547 Q233.777 430.547 237.956 436.461 Q242.136 442.375 242.136 451.25 L242.136 454.484 L213.371 454.484 Q213.371 460.328 216.73 464.437 Q220.089 468.547 225.964 468.547 Q229.871 468.547 232.574 466.969 Q235.277 465.391 237.308 462.766 L241.683 466.266 ZM224.761 436.484 Q220.371 436.484 217.324 439.594 Q214.277 442.703 213.527 448.547 L234.902 448.547 L234.902 448 Q234.902 443.797 232.675 440.141 Q230.449 436.484 224.761 436.484 Z" fill="#000000" fill-opacity="1.000000"/>
</svg>