<?xml version="1.0" encoding="UTF-8" ?>
<!-- Generated by clip v0.7.0 (clip-lang.org) -->
<svg xmlns="http://www.w3.org/2000/svg" width="396.850394" height="559.370079">
  <rect width="396.850394" height="559.370079" fill="#ffffff" fill-opacity="1.000000"/>
  <path d="M61.0189 308.213 L61.0189 294.119 L79.2377 290.994 L79.2377 162.744 L61.0189 159.603 L61.0189 145.4 L79.2377 145.4 L131.238 145.4 Q156.722 145.4 171.097 156.416 Q185.472 167.431 185.472 189.463 Q185.472 200.306 178.589 208.861 Q171.706 217.416 160.425 221.556 Q170.253 223.572 177.3 229.439 Q184.347 235.306 188.206 243.752 Q192.066 252.197 192.066 262.259 Q192.066 284.619 177.527 296.416 Q162.988 308.213 138.16 308.213 L61.0189 308.213 ZM101.269 290.994 L138.16 290.994 Q153.269 290.994 161.597 283.556 Q169.925 276.119 169.925 262.478 Q169.925 252.869 166.847 246.049 Q163.769 239.228 157.456 235.533 Q151.144 231.838 141.519 231.838 L101.269 231.838 L101.269 290.994 ZM101.269 214.619 L136.941 214.619 Q148.785 214.619 156.113 207.744 Q163.441 200.869 163.441 189.009 Q163.441 175.822 155.167 169.283 Q146.894 162.744 131.238 162.744 L101.269 162.744 L101.269 214.619 Z" fill="#000000" fill-opacity="1.000000"/>
  <path d="M213.41 308.213 L213.41 294.119 L231.644 290.994 L231.644 204.556 L213.41 201.431 L213.41 187.228 L231.644 187.228 L279.269 187.228 Q303.206 187.228 316.402 195.556 Q329.597 203.884 329.597 220.541 Q329.597 229.041 324.449 235.697 Q319.3 242.353 309.91 245.822 Q321.206 248.619 327.581 256.275 Q333.956 263.931 333.956 273.775 Q333.956 290.775 321.597 299.494 Q309.238 308.213 286.988 308.213 L213.41 308.213 ZM253.66 291.213 L286.988 291.213 Q299.285 291.213 305.55 286.572 Q311.816 281.931 311.816 273.213 Q311.816 264.603 305.55 259.908 Q299.285 255.213 286.988 255.213 L253.66 255.213 L253.66 291.213 ZM253.66 238.322 L279.378 238.322 Q293.363 238.322 300.464 234.189 Q307.566 230.056 307.566 221.666 Q307.566 204.338 279.269 204.338 L253.66 204.338 L253.66 238.322 Z" fill="#000000" fill-opacity="1.000000"/>
  <path d="M222.847 416.484 L201.785 473.484 L195.113 473.484 L174.097 416.484 L182.253 416.484 L198.394 463.469 L214.675 416.484 L222.847 416.484 Z" fill="#000000" fill-opacity="1.000000"/>
</svg>