<?xml version="1.0" encoding="UTF-8" ?>
<!-- Generated by clip v0.7.0 (clip-lang.org) -->
<svg xmlns="http://www.w3.org/2000/svg" width="396.850394" height="559.370079">
  <rect width="396.850394" height="559.370079" fill="#ffffff" fill-opacity="1.000000"/>
  <path d="M90.2455 308.213 L90.2455 294.119 L108.48 290.994 L108.48 162.744 L90.2455 159.603 L90.2455 145.4 L208.324 145.4 L208.324 181.416 L189.433 181.416 L187.746 162.744 L130.496 162.744 L130.496 290.994 L148.73 294.119 L148.73 308.213 L90.2455 308.213 Z" fill="#000000" fill-opacity="1.000000"/>
  <path d="M202.886 308.213 L202.886 294.119 L221.121 290.994 L221.121 204.556 L202.886 201.431 L202.886 187.228 L301.621 187.228 L301.621 218.431 L287.308 218.431 L285.746 204.666 L243.152 204.666 L243.152 290.994 L261.371 294.119 L261.371 308.213 L202.886 308.213 Z" fill="#000000" fill-opacity="1.000000"/>
  <path d="M220.175 445.484 L220.175 466.359 Q218.566 468.641 214.058 471.562 Q209.55 474.484 199.988 474.484 Q189.566 474.484 182.871 467.406 Q176.175 460.328 176.175 447.656 L176.175 443.281 Q176.175 430.672 182.128 423.578 Q188.081 416.484 199.128 416.484 Q208.925 416.484 214.003 421.32 Q219.081 426.156 220.175 433.625 L212.894 433.625 Q212.097 429.031 208.956 425.726 Q205.816 422.422 199.113 422.422 Q191.019 422.422 187.214 428.008 Q183.41 433.594 183.41 443.156 L183.41 447.656 Q183.41 457.484 187.98 463.016 Q192.55 468.547 200.035 468.547 Q206.238 468.547 209.003 467.101 Q211.769 465.656 212.941 464.344 L212.941 451.422 L199.441 451.422 L199.441 445.484 L220.175 445.484 Z" fill="#000000" fill-opacity="1.000000"/>
</svg>