<?xml version="1.0" encoding="UTF-8" ?>
<!-- Generated by clip v0.7.0 (clip-lang.org) -->
<svg xmlns="http://www.w3.org/2000/svg" width="396.850394" height="559.370079">
  <rect width="396.850394" height="559.370079" fill="#ffffff" fill-opacity="1.000000"/>
  <path d="M45.8471 348.353 L42.6127 290.994 L56.5814 290.994 Q62.2846 284.4 67.4877 274.002 Q72.6908 263.603 76.1518 248.228 Q79.6127 232.853 80.0658 211.275 L82.7533 162.634 L65.5346 159.603 L65.5346 145.4 L199.925 145.4 L199.925 159.603 L181.706 162.744 L181.706 290.994 L204.066 290.994 L201.831 348.134 L182.035 348.134 L182.035 308.213 L64.6283 308.213 L64.6283 348.353 L45.8471 348.353 ZM80.9564 290.994 L159.675 290.994 L159.675 162.744 L104.894 162.744 L102.316 211.275 Q101.644 229.041 98.8471 243.97 Q96.0502 258.9 91.4643 270.752 Q86.8783 282.603 80.9564 290.994 Z" fill="#000000" fill-opacity="1.000000"/>
  <path d="M223.878 343.775 L221.753 290.994 L231.269 290.994 Q235.956 285.619 239.425 280.314 Q242.894 275.009 245.464 268.58 Q248.035 262.15 249.66 253.478 Q251.285 244.806 252.066 232.744 L253.175 204.447 L235.628 201.431 L235.628 187.228 L332.91 187.228 L351.128 187.228 L351.128 201.431 L332.91 204.556 L332.91 290.994 L349.003 290.994 L346.769 343.775 L326.972 343.775 L326.972 308.213 L243.675 308.213 L243.675 343.775 L223.878 343.775 ZM256.644 290.994 L310.878 290.994 L310.878 206.791 L275.097 206.791 L274.081 232.744 Q272.863 252.869 268.331 267.064 Q263.8 281.259 256.644 290.994 Z" fill="#000000" fill-opacity="1.000000"/>
  <path d="M179.175 473.484 L179.175 416.547 L195.206 416.547 Q206.363 416.547 213.269 423.758 Q220.175 430.969 220.175 443.344 L220.175 446.734 Q220.175 459.094 213.23 466.289 Q206.285 473.484 194.503 473.484 L179.175 473.484 ZM195.097 422.484 L186.41 422.484 L186.41 467.547 L194.378 467.547 Q203.597 467.547 208.269 461.859 Q212.941 456.172 212.941 446.734 L212.941 443.219 Q212.941 433.297 208.269 427.891 Q203.597 422.484 195.097 422.484 Z" fill="#000000" fill-opacity="1.000000"/>
</svg>