<?xml version="1.0" encoding="UTF-8" ?>
<!-- Generated by clip v0.7.0 (clip-lang.org) -->
<svg xmlns="http://www.w3.org/2000/svg" width="396.850394" height="559.370079">
  <rect width="396.850394" height="559.370079" fill="#ffffff" fill-opacity="1.000000"/>
  <path d="M76.1439 308.213 L76.1439 294.119 L94.3627 290.994 L94.3627 162.744 L76.1439 159.603 L76.1439 145.4 L196.675 145.4 L196.675 184.541 L179.003 184.541 L176.55 162.4 L116.394 162.4 L116.394 215.4 L176.441 215.4 L176.441 232.744 L116.394 232.744 L116.394 291.666 L180.128 291.666 L182.581 269.181 L200.144 269.181 L200.144 308.213 L76.1439 308.213 Z" fill="#000000" fill-opacity="1.000000"/>
  <path d="M274.597 310.556 Q257.816 310.556 245.402 302.9 Q232.988 295.244 226.23 281.603 Q219.472 267.963 219.472 250.072 L219.472 245.15 Q219.472 227.931 226.566 214.345 Q233.66 200.759 245.456 192.877 Q257.253 184.994 271.238 184.994 Q287.566 184.994 298.581 191.705 Q309.597 198.416 315.183 210.541 Q320.769 222.666 320.769 239.103 L320.769 252.869 L242.269 252.869 L241.941 253.416 Q242.16 265.056 246.019 274.056 Q249.878 283.056 257.144 288.197 Q264.41 293.338 274.597 293.338 Q285.769 293.338 294.214 290.15 Q302.66 286.963 308.8 281.369 L317.41 295.681 Q310.925 301.947 300.253 306.252 Q289.581 310.556 274.597 310.556 ZM242.941 235.65 L298.738 235.65 L298.738 232.744 Q298.738 224.009 295.667 217.134 Q292.597 210.259 286.503 206.291 Q280.41 202.322 271.238 202.322 Q263.863 202.322 257.824 206.627 Q251.785 210.931 247.871 218.314 Q243.956 225.697 242.722 235.088 L242.941 235.65 Z" fill="#000000" fill-opacity="1.000000"/>
  <path d="M160.66 473.484 L160.66 416.547 L196.16 416.547 L196.16 422.484 L167.894 422.484 L167.894 441.484 L192.66 441.484 L192.66 447.422 L167.894 447.422 L167.894 467.547 L196.66 467.547 L196.66 473.484 L160.66 473.484 Z" fill="#000000" fill-opacity="1.000000"/>
  <path d="M222.691 436.484 Q219.206 436.484 216.55 438.359 Q213.894 440.234 212.363 443.25 L212.363 473.484 L205.128 473.484 L205.128 413.484 L212.363 413.484 L212.363 436.219 Q217.175 430.547 224.831 430.547 Q231.066 430.547 234.714 434.055 Q238.363 437.562 238.363 445.859 L238.363 473.484 L231.128 473.484 L231.128 445.672 Q231.128 440.703 228.964 438.594 Q226.8 436.484 222.691 436.484 Z" fill="#000000" fill-opacity="1.000000"/>
</svg>