<?xml version="1.0" encoding="UTF-8" ?>
<!-- Generated by clip v0.7.0 (clip-lang.org) -->
<svg xmlns="http://www.w3.org/2000/svg" width="396.850394" height="559.370079">
  <rect width="396.850394" height="559.370079" fill="#ffffff" fill-opacity="1.000000"/>
  <path d="M91.1986 308.213 L91.1986 294.119 L107.527 291.775 L150.902 223.119 L121.167 175.713 Q116.808 169.119 113.003 166.267 Q109.199 163.416 103.949 163.416 Q101.48 163.416 99.0814 163.752 Q96.683 164.088 94.3236 164.525 L91.0893 149.103 Q94.6674 146.744 98.8002 145.463 Q102.933 144.181 108.417 144.181 Q114.683 144.181 119.824 146.08 Q124.964 147.978 129.769 152.619 Q134.574 157.259 139.73 165.759 L172.152 218.759 L188.027 218.759 L188.027 162.744 L169.808 159.603 L169.808 145.4 L228.167 145.4 L228.167 159.603 L209.949 162.744 L209.949 218.759 L227.167 218.759 L259.589 165.759 Q267.308 153.119 274.355 148.65 Q281.402 144.181 290.902 144.181 Q296.261 144.181 300.402 145.463 Q304.542 146.744 308.121 149.103 L304.871 164.525 Q302.527 164.088 300.121 163.752 Q297.714 163.416 295.371 163.416 Q290.011 163.416 286.206 166.267 Q282.402 169.119 278.042 175.713 L246.839 224.119 L289.558 291.775 L305.886 294.119 L305.886 308.213 L254.339 308.213 L254.339 294.119 L263.058 292.666 L262.73 292.103 L229.511 237.322 L209.949 237.322 L209.949 290.994 L228.167 294.119 L228.167 308.213 L169.808 308.213 L169.808 294.119 L188.027 290.994 L188.027 237.322 L167.683 237.322 L134.246 292.228 L134.027 292.666 L142.855 294.119 L142.855 308.213 L91.1986 308.213 Z" fill="#000000" fill-opacity="1.000000"/>
  <path d="M155.425 422.484 L155.425 416.547 L195.425 416.547 L195.425 421.812 L163.863 467.547 L196.425 467.547 L196.425 473.484 L155.425 473.484 L155.425 468.031 L186.394 422.484 L155.425 422.484 Z" fill="#000000" fill-opacity="1.000000"/>
  <path d="M223.925 436.484 Q220.441 436.484 217.785 438.359 Q215.128 440.234 213.597 443.25 L213.597 473.484 L206.363 473.484 L206.363 413.484 L213.597 413.484 L213.597 436.219 Q218.41 430.547 226.066 430.547 Q232.3 430.547 235.949 434.055 Q239.597 437.562 239.597 445.859 L239.597 473.484 L232.363 473.484 L232.363 445.672 Q232.363 440.703 230.199 438.594 Q228.035 436.484 223.925 436.484 Z" fill="#000000" fill-opacity="1.000000"/>
</svg>