<?xml version="1.0" encoding="UTF-8" ?>
<!-- Generated by clip v0.7.0 (clip-lang.org) -->
<svg xmlns="http://www.w3.org/2000/svg" width="396.850394" height="559.370079">
  <rect width="396.850394" height="559.370079" fill="#ffffff" fill-opacity="1.000000"/>
  <path d="M136.308 310.556 Q120.761 310.556 107.792 305.189 Q94.8236 299.822 87.1596 289.424 Q79.4955 279.025 79.8393 263.713 L80.058 263.041 L101.089 263.041 Q101.089 271.541 105.277 278.416 Q109.464 285.291 117.464 289.314 Q125.464 293.338 136.746 293.338 Q153.074 293.338 163.699 285.009 Q174.324 276.681 174.324 261.588 Q174.324 248.166 165.152 241.064 Q155.98 233.963 138.089 233.963 L119.761 233.963 L119.761 216.525 L138.089 216.525 Q155.308 216.525 163.581 209.259 Q171.855 201.994 171.855 189.463 Q171.855 176.494 162.636 168.439 Q153.417 160.384 135.183 160.384 Q123.449 160.384 115.394 163.799 Q107.339 167.213 102.308 172.353 L98.058 195.275 L82.6361 195.275 L82.6361 166.431 Q89.558 157.478 103.761 150.267 Q117.964 143.056 137.308 143.056 Q163.246 143.056 178.566 154.744 Q193.886 166.431 193.886 186.447 Q193.886 199.978 186.847 209.65 Q179.808 219.322 167.496 224.681 Q181.48 229.384 188.917 239.111 Q196.355 248.838 196.355 262.931 Q196.355 277.791 188.808 288.47 Q181.261 299.15 167.73 304.853 Q154.199 310.556 136.308 310.556 Z" fill="#000000" fill-opacity="1.000000"/>
  <path d="M265.636 310.338 Q252.449 310.338 241.488 306.088 Q230.527 301.838 224.152 293.509 Q217.777 285.181 218.121 273.103 L218.339 272.431 L239.246 272.431 Q239.246 278.134 242.605 282.884 Q245.964 287.634 251.949 290.541 Q257.933 293.447 265.636 293.447 Q277.605 293.447 284.199 287.916 Q290.792 282.384 290.792 274.103 Q290.792 264.384 285.035 259.908 Q279.277 255.431 267.089 255.431 L246.074 255.431 L246.074 237.541 L267.089 237.541 Q278.73 237.541 283.706 233.127 Q288.683 228.713 288.683 220.322 Q288.683 212.728 282.98 207.47 Q277.277 202.213 265.636 202.213 Q258.714 202.213 253.175 204.728 Q247.636 207.244 244.394 211.494 Q241.152 215.744 241.152 220.994 L220.246 220.994 L220.027 220.322 Q219.574 209.931 225.558 202.049 Q231.542 194.166 242.05 189.689 Q252.558 185.213 265.636 185.213 Q286.886 185.213 298.847 194.33 Q310.808 203.447 310.808 220.322 Q310.808 228.494 305.894 235.314 Q300.98 242.134 292.136 246.041 Q313.058 253.416 313.058 274.103 Q313.058 285.4 307.128 293.509 Q301.199 301.619 290.519 305.978 Q279.839 310.338 265.636 310.338 Z" fill="#000000" fill-opacity="1.000000"/>
  <path d="M177.456 422.484 L177.456 416.547 L217.456 416.547 L217.456 421.812 L185.894 467.547 L218.456 467.547 L218.456 473.484 L177.456 473.484 L177.456 468.031 L208.425 422.484 L177.456 422.484 Z" fill="#000000" fill-opacity="1.000000"/>
</svg>