<?xml version="1.0" encoding="UTF-8" ?>
<!-- Generated by clip v0.7.0 (clip-lang.org) -->
<svg xmlns="http://www.w3.org/2000/svg" width="396.850394" height="559.370079">
  <rect width="396.850394" height="559.370079" fill="#ffffff" fill-opacity="1.000000"/>
  <path d="M40.7533 308.213 L40.7533 294.119 L58.9877 290.994 L58.9877 162.744 L40.7533 159.603 L40.7533 145.4 L58.9877 145.4 L81.0033 145.4 L99.2377 145.4 L99.2377 159.603 L81.0033 162.744 L81.0033 256.556 L81.6752 256.775 L159.956 173.025 L159.956 162.744 L141.722 159.603 L141.722 145.4 L159.956 145.4 L181.972 145.4 L200.206 145.4 L200.206 159.603 L181.972 162.744 L181.972 290.994 L200.206 294.119 L200.206 308.213 L141.722 308.213 L141.722 294.119 L159.956 290.994 L159.956 200.197 L159.285 199.978 L81.0033 283.838 L81.0033 290.994 L99.2377 294.119 L99.2377 308.213 L40.7533 308.213 Z" fill="#000000" fill-opacity="1.000000"/>
  <path d="M219.238 308.213 L219.238 294.119 L237.472 290.994 L237.472 204.556 L219.238 201.431 L219.238 187.228 L259.378 187.228 L277.613 187.228 L277.613 201.431 L259.378 204.556 L259.378 272.884 L260.05 273.103 L313.394 187.228 L335.425 187.228 L353.644 187.228 L353.644 201.431 L335.425 204.556 L335.425 290.994 L353.644 294.119 L353.644 308.213 L295.16 308.213 L295.16 294.119 L313.394 290.994 L313.394 222.556 L312.722 222.338 L259.378 308.213 L219.238 308.213 Z" fill="#000000" fill-opacity="1.000000"/>
  <path d="M201.777 416.484 L201.777 473.484 L194.542 473.484 L194.542 416.484 L201.777 416.484 Z" fill="#000000" fill-opacity="1.000000"/>
</svg>