<?xml version="1.0" encoding="UTF-8" ?>
<!-- Generated by clip v0.7.0 (clip-lang.org) -->
<svg xmlns="http://www.w3.org/2000/svg" width="396.850394" height="559.370079">
  <rect width="396.850394" height="559.370079" fill="#ffffff" fill-opacity="1.000000"/>
  <path d="M40.6439 308.213 L40.6439 294.119 L58.8783 290.994 L58.8783 162.744 L40.6439 159.603 L40.6439 145.4 L200.316 145.4 L200.316 159.603 L182.097 162.744 L182.097 290.994 L200.316 294.119 L200.316 308.213 L141.831 308.213 L141.831 294.119 L160.066 290.994 L160.066 162.744 L80.8939 162.744 L80.8939 290.994 L99.1283 294.119 L99.1283 308.213 L40.6439 308.213 Z" fill="#000000" fill-opacity="1.000000"/>
  <path d="M219.347 308.213 L219.347 294.119 L237.581 290.994 L237.581 204.556 L219.347 201.431 L219.347 187.228 L353.753 187.228 L353.753 201.431 L335.535 204.556 L335.535 290.994 L353.753 294.119 L353.753 308.213 L295.269 308.213 L295.269 294.119 L313.503 290.994 L313.503 204.666 L259.597 204.666 L259.597 290.994 L277.831 294.119 L277.831 308.213 L219.347 308.213 Z" fill="#000000" fill-opacity="1.000000"/>
  <path d="M201.003 451.484 L187.425 451.484 L187.425 473.984 L180.191 473.984 L180.191 417.547 L201.191 417.547 Q210.894 417.547 216.042 422.336 Q221.191 427.125 221.191 434.578 Q221.191 442.672 215.996 447.078 Q210.8 451.484 201.003 451.484 ZM187.425 423.484 L187.425 445.547 L201.206 445.547 Q208.019 445.547 210.988 442.484 Q213.956 439.422 213.956 434.625 Q213.956 430.297 210.988 426.891 Q208.019 423.484 201.206 423.484 L187.425 423.484 Z" fill="#000000" fill-opacity="1.000000"/>
</svg>