<?xml version="1.0" encoding="UTF-8" ?>
<!-- Generated by clip v0.8.0 (clip-lang.org) -->
<svg xmlns="http://www.w3.org/2000/svg" width="1024" height="80">
  <rect width="1024" height="80" fill="#ffffff" fill-opacity="1"/>
  <path d="M29.333 40 L994.667 40" fill="none" stroke="#000000" stroke-width="1.333"/>
  <path d="M29.333 42.667 L29.333 37.333" fill="none" stroke="#000000" stroke-width="1.333"/>
  <path d="M117.091 42.667 L117.091 37.333" fill="none" stroke="#000000" stroke-width="1.333"/>
  <path d="M204.848 42.667 L204.848 37.333" fill="none" stroke="#000000" stroke-width="1.333"/>
  <path d="M292.606 42.667 L292.606 37.333" fill="none" stroke="#000000" stroke-width="1.333"/>
  <path d="M380.364 42.667 L380.364 37.333" fill="none" stroke="#000000" stroke-width="1.333"/>
  <path d="M468.121 42.667 L468.121 37.333" fill="none" stroke="#000000" stroke-width="1.333"/>
  <path d="M555.879 42.667 L555.879 37.333" fill="none" stroke="#000000" stroke-width="1.333"/>
  <path d="M643.636 42.667 L643.636 37.333" fill="none" stroke="#000000" stroke-width="1.333"/>
  <path d="M731.394 42.667 L731.394 37.333" fill="none" stroke="#000000" stroke-width="1.333"/>
  <path d="M819.152 42.667 L819.152 37.333" fill="none" stroke="#000000" stroke-width="1.333"/>
  <path d="M906.909 42.667 L906.909 37.333" fill="none" stroke="#000000" stroke-width="1.333"/>
  <path d="M994.667 42.667 L994.667 37.333" fill="none" stroke="#000000" stroke-width="1.333"/>
  <path d="M1.411 60.233 Q1.411 58.327 1.802 57.163 Q2.193 55.999 2.966 55.366 Q3.740 54.733 4.911 54.733 Q5.771 54.733 6.427 55.085 Q7.083 55.436 7.505 56.093 Q7.927 56.749 8.169 57.694 Q8.411 58.640 8.411 60.233 Q8.411 62.140 8.021 63.304 Q7.630 64.468 6.857 65.101 Q6.083 65.733 4.911 65.733 Q3.365 65.733 2.474 64.624 Q1.411 63.265 1.411 60.233 Z M2.771 60.233 Q2.771 62.936 3.388 63.835 Q4.005 64.733 4.911 64.733 Q5.818 64.733 6.435 63.835 Q7.052 62.936 7.052 60.233 Q7.052 57.515 6.435 56.624 Q5.818 55.733 4.896 55.733 Q3.990 55.733 3.443 56.515 Q2.771 57.530 2.771 60.233 Z"/>
  <path d="M9.568 60.233 Q9.568 58.327 9.958 57.163 Q10.349 55.999 11.122 55.366 Q11.896 54.733 13.068 54.733 Q13.927 54.733 14.583 55.085 Q15.240 55.436 15.661 56.093 Q16.083 56.749 16.326 57.694 Q16.568 58.640 16.568 60.233 Q16.568 62.140 16.177 63.304 Q15.786 64.468 15.013 65.101 Q14.240 65.733 13.068 65.733 Q11.521 65.733 10.630 64.624 Q9.568 63.265 9.568 60.233 Z M10.927 60.233 Q10.927 62.936 11.544 63.835 Q12.161 64.733 13.068 64.733 Q13.974 64.733 14.591 63.835 Q15.208 62.936 15.208 60.233 Q15.208 57.515 14.591 56.624 Q13.974 55.733 13.052 55.733 Q12.146 55.733 11.599 56.515 Q10.927 57.530 10.927 60.233 Z"/>
  <path d="M18.458 58.733 L18.458 57.733 L19.958 57.733 L19.958 58.733 L18.458 58.733 Z M18.458 65.733 L18.458 64.733 L19.958 64.733 L19.958 65.733 L18.458 65.733 Z"/>
  <path d="M21.802 60.233 Q21.802 58.327 22.193 57.163 Q22.583 55.999 23.357 55.366 Q24.130 54.733 25.302 54.733 Q26.161 54.733 26.818 55.085 Q27.474 55.436 27.896 56.093 Q28.318 56.749 28.560 57.694 Q28.802 58.640 28.802 60.233 Q28.802 62.140 28.411 63.304 Q28.021 64.468 27.247 65.101 Q26.474 65.733 25.302 65.733 Q23.755 65.733 22.865 64.624 Q21.802 63.265 21.802 60.233 Z M23.161 60.233 Q23.161 62.936 23.779 63.835 Q24.396 64.733 25.302 64.733 Q26.208 64.733 26.826 63.835 Q27.443 62.936 27.443 60.233 Q27.443 57.515 26.826 56.624 Q26.208 55.733 25.286 55.733 Q24.380 55.733 23.833 56.515 Q23.161 57.530 23.161 60.233 Z"/>
  <path d="M29.958 60.233 Q29.958 58.327 30.349 57.163 Q30.740 55.999 31.513 55.366 Q32.286 54.733 33.458 54.733 Q34.318 54.733 34.974 55.085 Q35.630 55.436 36.052 56.093 Q36.474 56.749 36.716 57.694 Q36.958 58.640 36.958 60.233 Q36.958 62.140 36.568 63.304 Q36.177 64.468 35.404 65.101 Q34.630 65.733 33.458 65.733 Q31.911 65.733 31.021 64.624 Q29.958 63.265 29.958 60.233 Z M31.318 60.233 Q31.318 62.936 31.935 63.835 Q32.552 64.733 33.458 64.733 Q34.365 64.733 34.982 63.835 Q35.599 62.936 35.599 60.233 Q35.599 57.515 34.982 56.624 Q34.365 55.733 33.443 55.733 Q32.536 55.733 31.990 56.515 Q31.318 57.530 31.318 60.233 Z"/>
  <path d="M38.849 58.733 L38.849 57.733 L40.349 57.733 L40.349 58.733 L38.849 58.733 Z M38.849 65.733 L38.849 64.733 L40.349 64.733 L40.349 65.733 L38.849 65.733 Z"/>
  <path d="M42.193 60.233 Q42.193 58.327 42.583 57.163 Q42.974 55.999 43.747 55.366 Q44.521 54.733 45.693 54.733 Q46.552 54.733 47.208 55.085 Q47.865 55.436 48.286 56.093 Q48.708 56.749 48.951 57.694 Q49.193 58.640 49.193 60.233 Q49.193 62.140 48.802 63.304 Q48.411 64.468 47.638 65.101 Q46.865 65.733 45.693 65.733 Q44.146 65.733 43.255 64.624 Q42.193 63.265 42.193 60.233 Z M43.552 60.233 Q43.552 62.936 44.169 63.835 Q44.786 64.733 45.693 64.733 Q46.599 64.733 47.216 63.835 Q47.833 62.936 47.833 60.233 Q47.833 57.515 47.216 56.624 Q46.599 55.733 45.677 55.733 Q44.771 55.733 44.224 56.515 Q43.552 57.530 43.552 60.233 Z"/>
  <path d="M50.349 60.233 Q50.349 58.327 50.740 57.163 Q51.130 55.999 51.904 55.366 Q52.677 54.733 53.849 54.733 Q54.708 54.733 55.365 55.085 Q56.021 55.436 56.443 56.093 Q56.865 56.749 57.107 57.694 Q57.349 58.640 57.349 60.233 Q57.349 62.140 56.958 63.304 Q56.568 64.468 55.794 65.101 Q55.021 65.733 53.849 65.733 Q52.302 65.733 51.411 64.624 Q50.349 63.265 50.349 60.233 Z M51.708 60.233 Q51.708 62.936 52.326 63.835 Q52.943 64.733 53.849 64.733 Q54.755 64.733 55.372 63.835 Q55.990 62.936 55.990 60.233 Q55.990 57.515 55.372 56.624 Q54.755 55.733 53.833 55.733 Q52.927 55.733 52.380 56.515 Q51.708 57.530 51.708 60.233 Z"/>
  <path d="M89.169 60.233 Q89.169 58.327 89.560 57.163 Q89.950 55.999 90.724 55.366 Q91.497 54.733 92.669 54.733 Q93.528 54.733 94.185 55.085 Q94.841 55.436 95.263 56.093 Q95.685 56.749 95.927 57.694 Q96.169 58.640 96.169 60.233 Q96.169 62.140 95.778 63.304 Q95.388 64.468 94.614 65.101 Q93.841 65.733 92.669 65.733 Q91.122 65.733 90.232 64.624 Q89.169 63.265 89.169 60.233 Z M90.528 60.233 Q90.528 62.936 91.146 63.835 Q91.763 64.733 92.669 64.733 Q93.575 64.733 94.192 63.835 Q94.810 62.936 94.810 60.233 Q94.810 57.515 94.192 56.624 Q93.575 55.733 92.653 55.733 Q91.747 55.733 91.200 56.515 Q90.528 57.530 90.528 60.233 Z"/>
  <path d="M104.247 64.733 L104.247 65.733 L97.153 65.733 Q97.138 65.343 97.310 64.968 Q97.575 64.358 98.177 63.772 Q98.778 63.186 99.903 62.124 Q101.653 60.468 102.271 59.538 Q102.888 58.608 102.888 57.796 Q102.888 56.921 102.325 56.327 Q101.763 55.733 100.872 55.733 Q99.919 55.733 99.341 56.265 Q98.763 56.796 98.763 57.733 L97.403 57.733 Q97.544 56.265 98.450 55.499 Q99.357 54.733 100.888 54.733 Q102.435 54.733 103.333 55.624 Q104.232 56.515 104.232 57.843 Q104.232 58.515 103.966 59.163 Q103.700 59.811 103.091 60.530 Q102.482 61.249 101.060 62.530 Q99.872 63.593 99.536 63.968 Q99.200 64.343 98.982 64.733 L104.247 64.733 Z"/>
  <path d="M106.216 58.733 L106.216 57.733 L107.716 57.733 L107.716 58.733 L106.216 58.733 Z M106.216 65.733 L106.216 64.733 L107.716 64.733 L107.716 65.733 L106.216 65.733 Z"/>
  <path d="M109.560 60.233 Q109.560 58.327 109.950 57.163 Q110.341 55.999 111.114 55.366 Q111.888 54.733 113.060 54.733 Q113.919 54.733 114.575 55.085 Q115.232 55.436 115.653 56.093 Q116.075 56.749 116.317 57.694 Q116.560 58.640 116.560 60.233 Q116.560 62.140 116.169 63.304 Q115.778 64.468 115.005 65.101 Q114.232 65.733 113.060 65.733 Q111.513 65.733 110.622 64.624 Q109.560 63.265 109.560 60.233 Z M110.919 60.233 Q110.919 62.936 111.536 63.835 Q112.153 64.733 113.060 64.733 Q113.966 64.733 114.583 63.835 Q115.200 62.936 115.200 60.233 Q115.200 57.515 114.583 56.624 Q113.966 55.733 113.044 55.733 Q112.138 55.733 111.591 56.515 Q110.919 57.530 110.919 60.233 Z"/>
  <path d="M117.716 60.233 Q117.716 58.327 118.107 57.163 Q118.497 55.999 119.271 55.366 Q120.044 54.733 121.216 54.733 Q122.075 54.733 122.732 55.085 Q123.388 55.436 123.810 56.093 Q124.232 56.749 124.474 57.694 Q124.716 58.640 124.716 60.233 Q124.716 62.140 124.325 63.304 Q123.935 64.468 123.161 65.101 Q122.388 65.733 121.216 65.733 Q119.669 65.733 118.778 64.624 Q117.716 63.265 117.716 60.233 Z M119.075 60.233 Q119.075 62.936 119.692 63.835 Q120.310 64.733 121.216 64.733 Q122.122 64.733 122.739 63.835 Q123.357 62.936 123.357 60.233 Q123.357 57.515 122.739 56.624 Q122.122 55.733 121.200 55.733 Q120.294 55.733 119.747 56.515 Q119.075 57.530 119.075 60.233 Z"/>
  <path d="M126.607 58.733 L126.607 57.733 L128.107 57.733 L128.107 58.733 L126.607 58.733 Z M126.607 65.733 L126.607 64.733 L128.107 64.733 L128.107 65.733 L126.607 65.733 Z"/>
  <path d="M129.950 60.233 Q129.950 58.327 130.341 57.163 Q130.732 55.999 131.505 55.366 Q132.278 54.733 133.450 54.733 Q134.310 54.733 134.966 55.085 Q135.622 55.436 136.044 56.093 Q136.466 56.749 136.708 57.694 Q136.950 58.640 136.950 60.233 Q136.950 62.140 136.560 63.304 Q136.169 64.468 135.396 65.101 Q134.622 65.733 133.450 65.733 Q131.903 65.733 131.013 64.624 Q129.950 63.265 129.950 60.233 Z M131.310 60.233 Q131.310 62.936 131.927 63.835 Q132.544 64.733 133.450 64.733 Q134.357 64.733 134.974 63.835 Q135.591 62.936 135.591 60.233 Q135.591 57.515 134.974 56.624 Q134.357 55.733 133.435 55.733 Q132.528 55.733 131.982 56.515 Q131.310 57.530 131.310 60.233 Z"/>
  <path d="M138.107 60.233 Q138.107 58.327 138.497 57.163 Q138.888 55.999 139.661 55.366 Q140.435 54.733 141.607 54.733 Q142.466 54.733 143.122 55.085 Q143.778 55.436 144.200 56.093 Q144.622 56.749 144.864 57.694 Q145.107 58.640 145.107 60.233 Q145.107 62.140 144.716 63.304 Q144.325 64.468 143.552 65.101 Q142.778 65.733 141.607 65.733 Q140.060 65.733 139.169 64.624 Q138.107 63.265 138.107 60.233 Z M139.466 60.233 Q139.466 62.936 140.083 63.835 Q140.700 64.733 141.607 64.733 Q142.513 64.733 143.130 63.835 Q143.747 62.936 143.747 60.233 Q143.747 57.515 143.130 56.624 Q142.513 55.733 141.591 55.733 Q140.685 55.733 140.138 56.515 Q139.466 57.530 139.466 60.233 Z"/>
  <path d="M176.927 60.233 Q176.927 58.327 177.317 57.163 Q177.708 55.999 178.481 55.366 Q179.255 54.733 180.427 54.733 Q181.286 54.733 181.942 55.085 Q182.598 55.436 183.020 56.093 Q183.442 56.749 183.684 57.694 Q183.927 58.640 183.927 60.233 Q183.927 62.140 183.536 63.304 Q183.145 64.468 182.372 65.101 Q181.598 65.733 180.427 65.733 Q178.880 65.733 177.989 64.624 Q176.927 63.265 176.927 60.233 Z M178.286 60.233 Q178.286 62.936 178.903 63.835 Q179.520 64.733 180.427 64.733 Q181.333 64.733 181.950 63.835 Q182.567 62.936 182.567 60.233 Q182.567 57.515 181.950 56.624 Q181.333 55.733 180.411 55.733 Q179.505 55.733 178.958 56.515 Q178.286 57.530 178.286 60.233 Z"/>
  <path d="M189.302 65.733 L189.302 62.733 L184.645 62.733 L184.645 61.733 L189.552 54.733 L190.630 54.733 L190.630 61.733 L192.083 61.733 L192.083 62.733 L190.630 62.733 L190.630 65.733 L189.302 65.733 Z M189.302 61.733 L189.302 56.936 L185.942 61.733 L189.302 61.733 Z"/>
  <path d="M193.973 58.733 L193.973 57.733 L195.473 57.733 L195.473 58.733 L193.973 58.733 Z M193.973 65.733 L193.973 64.733 L195.473 64.733 L195.473 65.733 L193.973 65.733 Z"/>
  <path d="M197.317 60.233 Q197.317 58.327 197.708 57.163 Q198.098 55.999 198.872 55.366 Q199.645 54.733 200.817 54.733 Q201.677 54.733 202.333 55.085 Q202.989 55.436 203.411 56.093 Q203.833 56.749 204.075 57.694 Q204.317 58.640 204.317 60.233 Q204.317 62.140 203.927 63.304 Q203.536 64.468 202.763 65.101 Q201.989 65.733 200.817 65.733 Q199.270 65.733 198.380 64.624 Q197.317 63.265 197.317 60.233 Z M198.677 60.233 Q198.677 62.936 199.294 63.835 Q199.911 64.733 200.817 64.733 Q201.723 64.733 202.341 63.835 Q202.958 62.936 202.958 60.233 Q202.958 57.515 202.341 56.624 Q201.723 55.733 200.802 55.733 Q199.895 55.733 199.348 56.515 Q198.677 57.530 198.677 60.233 Z"/>
  <path d="M205.473 60.233 Q205.473 58.327 205.864 57.163 Q206.255 55.999 207.028 55.366 Q207.802 54.733 208.973 54.733 Q209.833 54.733 210.489 55.085 Q211.145 55.436 211.567 56.093 Q211.989 56.749 212.231 57.694 Q212.473 58.640 212.473 60.233 Q212.473 62.140 212.083 63.304 Q211.692 64.468 210.919 65.101 Q210.145 65.733 208.973 65.733 Q207.427 65.733 206.536 64.624 Q205.473 63.265 205.473 60.233 Z M206.833 60.233 Q206.833 62.936 207.450 63.835 Q208.067 64.733 208.973 64.733 Q209.880 64.733 210.497 63.835 Q211.114 62.936 211.114 60.233 Q211.114 57.515 210.497 56.624 Q209.880 55.733 208.958 55.733 Q208.052 55.733 207.505 56.515 Q206.833 57.530 206.833 60.233 Z"/>
  <path d="M214.364 58.733 L214.364 57.733 L215.864 57.733 L215.864 58.733 L214.364 58.733 Z M214.364 65.733 L214.364 64.733 L215.864 64.733 L215.864 65.733 L214.364 65.733 Z"/>
  <path d="M217.708 60.233 Q217.708 58.327 218.098 57.163 Q218.489 55.999 219.263 55.366 Q220.036 54.733 221.208 54.733 Q222.067 54.733 222.723 55.085 Q223.380 55.436 223.802 56.093 Q224.223 56.749 224.466 57.694 Q224.708 58.640 224.708 60.233 Q224.708 62.140 224.317 63.304 Q223.927 64.468 223.153 65.101 Q222.380 65.733 221.208 65.733 Q219.661 65.733 218.770 64.624 Q217.708 63.265 217.708 60.233 Z M219.067 60.233 Q219.067 62.936 219.684 63.835 Q220.302 64.733 221.208 64.733 Q222.114 64.733 222.731 63.835 Q223.348 62.936 223.348 60.233 Q223.348 57.515 222.731 56.624 Q222.114 55.733 221.192 55.733 Q220.286 55.733 219.739 56.515 Q219.067 57.530 219.067 60.233 Z"/>
  <path d="M225.864 60.233 Q225.864 58.327 226.255 57.163 Q226.645 55.999 227.419 55.366 Q228.192 54.733 229.364 54.733 Q230.223 54.733 230.880 55.085 Q231.536 55.436 231.958 56.093 Q232.380 56.749 232.622 57.694 Q232.864 58.640 232.864 60.233 Q232.864 62.140 232.473 63.304 Q232.083 64.468 231.309 65.101 Q230.536 65.733 229.364 65.733 Q227.817 65.733 226.927 64.624 Q225.864 63.265 225.864 60.233 Z M227.223 60.233 Q227.223 62.936 227.841 63.835 Q228.458 64.733 229.364 64.733 Q230.270 64.733 230.888 63.835 Q231.505 62.936 231.505 60.233 Q231.505 57.515 230.888 56.624 Q230.270 55.733 229.348 55.733 Q228.442 55.733 227.895 56.515 Q227.223 57.530 227.223 60.233 Z"/>
  <path d="M264.684 60.233 Q264.684 58.327 265.075 57.163 Q265.465 55.999 266.239 55.366 Q267.012 54.733 268.184 54.733 Q269.044 54.733 269.700 55.085 Q270.356 55.436 270.778 56.093 Q271.200 56.749 271.442 57.694 Q271.684 58.640 271.684 60.233 Q271.684 62.140 271.294 63.304 Q270.903 64.468 270.129 65.101 Q269.356 65.733 268.184 65.733 Q266.637 65.733 265.747 64.624 Q264.684 63.265 264.684 60.233 Z M266.044 60.233 Q266.044 62.936 266.661 63.835 Q267.278 64.733 268.184 64.733 Q269.090 64.733 269.708 63.835 Q270.325 62.936 270.325 60.233 Q270.325 57.515 269.708 56.624 Q269.090 55.733 268.169 55.733 Q267.262 55.733 266.715 56.515 Q266.044 57.530 266.044 60.233 Z"/>
  <path d="M279.684 57.733 L278.372 57.733 Q278.200 56.811 277.872 56.405 Q277.340 55.733 276.559 55.733 Q275.919 55.733 275.450 56.124 Q274.825 56.624 274.465 57.577 Q274.106 58.530 274.090 60.171 Q274.559 59.436 275.254 59.085 Q275.950 58.733 276.700 58.733 Q278.012 58.733 278.942 59.686 Q279.872 60.640 279.872 62.140 Q279.872 63.124 279.434 63.976 Q278.997 64.827 278.239 65.280 Q277.481 65.733 276.512 65.733 Q274.856 65.733 273.817 64.515 Q272.778 63.296 272.778 60.515 Q272.778 57.390 273.934 55.968 Q274.934 54.733 276.637 54.733 Q277.903 54.733 278.715 55.530 Q279.528 56.327 279.684 57.733 Z M274.294 62.108 Q274.294 62.796 274.583 63.429 Q274.872 64.061 275.395 64.397 Q275.919 64.733 276.481 64.733 Q277.325 64.733 277.926 64.046 Q278.528 63.358 278.528 62.171 Q278.528 61.046 277.934 60.390 Q277.340 59.733 276.434 59.733 Q275.544 59.733 274.919 60.390 Q274.294 61.046 274.294 62.108 Z"/>
  <path d="M281.731 58.733 L281.731 57.733 L283.231 57.733 L283.231 58.733 L281.731 58.733 Z M281.731 65.733 L281.731 64.733 L283.231 64.733 L283.231 65.733 L281.731 65.733 Z"/>
  <path d="M285.075 60.233 Q285.075 58.327 285.465 57.163 Q285.856 55.999 286.629 55.366 Q287.403 54.733 288.575 54.733 Q289.434 54.733 290.090 55.085 Q290.747 55.436 291.169 56.093 Q291.590 56.749 291.833 57.694 Q292.075 58.640 292.075 60.233 Q292.075 62.140 291.684 63.304 Q291.294 64.468 290.520 65.101 Q289.747 65.733 288.575 65.733 Q287.028 65.733 286.137 64.624 Q285.075 63.265 285.075 60.233 Z M286.434 60.233 Q286.434 62.936 287.051 63.835 Q287.669 64.733 288.575 64.733 Q289.481 64.733 290.098 63.835 Q290.715 62.936 290.715 60.233 Q290.715 57.515 290.098 56.624 Q289.481 55.733 288.559 55.733 Q287.653 55.733 287.106 56.515 Q286.434 57.530 286.434 60.233 Z"/>
  <path d="M293.231 60.233 Q293.231 58.327 293.622 57.163 Q294.012 55.999 294.786 55.366 Q295.559 54.733 296.731 54.733 Q297.590 54.733 298.247 55.085 Q298.903 55.436 299.325 56.093 Q299.747 56.749 299.989 57.694 Q300.231 58.640 300.231 60.233 Q300.231 62.140 299.840 63.304 Q299.450 64.468 298.676 65.101 Q297.903 65.733 296.731 65.733 Q295.184 65.733 294.294 64.624 Q293.231 63.265 293.231 60.233 Z M294.590 60.233 Q294.590 62.936 295.208 63.835 Q295.825 64.733 296.731 64.733 Q297.637 64.733 298.254 63.835 Q298.872 62.936 298.872 60.233 Q298.872 57.515 298.254 56.624 Q297.637 55.733 296.715 55.733 Q295.809 55.733 295.262 56.515 Q294.590 57.530 294.590 60.233 Z"/>
  <path d="M302.122 58.733 L302.122 57.733 L303.622 57.733 L303.622 58.733 L302.122 58.733 Z M302.122 65.733 L302.122 64.733 L303.622 64.733 L303.622 65.733 L302.122 65.733 Z"/>
  <path d="M305.465 60.233 Q305.465 58.327 305.856 57.163 Q306.247 55.999 307.020 55.366 Q307.794 54.733 308.965 54.733 Q309.825 54.733 310.481 55.085 Q311.137 55.436 311.559 56.093 Q311.981 56.749 312.223 57.694 Q312.465 58.640 312.465 60.233 Q312.465 62.140 312.075 63.304 Q311.684 64.468 310.911 65.101 Q310.137 65.733 308.965 65.733 Q307.419 65.733 306.528 64.624 Q305.465 63.265 305.465 60.233 Z M306.825 60.233 Q306.825 62.936 307.442 63.835 Q308.059 64.733 308.965 64.733 Q309.872 64.733 310.489 63.835 Q311.106 62.936 311.106 60.233 Q311.106 57.515 310.489 56.624 Q309.872 55.733 308.950 55.733 Q308.044 55.733 307.497 56.515 Q306.825 57.530 306.825 60.233 Z"/>
  <path d="M313.622 60.233 Q313.622 58.327 314.012 57.163 Q314.403 55.999 315.176 55.366 Q315.950 54.733 317.122 54.733 Q317.981 54.733 318.637 55.085 Q319.294 55.436 319.715 56.093 Q320.137 56.749 320.379 57.694 Q320.622 58.640 320.622 60.233 Q320.622 62.140 320.231 63.304 Q319.840 64.468 319.067 65.101 Q318.294 65.733 317.122 65.733 Q315.575 65.733 314.684 64.624 Q313.622 63.265 313.622 60.233 Z M314.981 60.233 Q314.981 62.936 315.598 63.835 Q316.215 64.733 317.122 64.733 Q318.028 64.733 318.645 63.835 Q319.262 62.936 319.262 60.233 Q319.262 57.515 318.645 56.624 Q318.028 55.733 317.106 55.733 Q316.200 55.733 315.653 56.515 Q314.981 57.530 314.981 60.233 Z"/>
  <path d="M352.442 60.233 Q352.442 58.327 352.832 57.163 Q353.223 55.999 353.996 55.366 Q354.770 54.733 355.942 54.733 Q356.801 54.733 357.457 55.085 Q358.114 55.436 358.536 56.093 Q358.957 56.749 359.200 57.694 Q359.442 58.640 359.442 60.233 Q359.442 62.140 359.051 63.304 Q358.661 64.468 357.887 65.101 Q357.114 65.733 355.942 65.733 Q354.395 65.733 353.504 64.624 Q352.442 63.265 352.442 60.233 Z M353.801 60.233 Q353.801 62.936 354.418 63.835 Q355.036 64.733 355.942 64.733 Q356.848 64.733 357.465 63.835 Q358.082 62.936 358.082 60.233 Q358.082 57.515 357.465 56.624 Q356.848 55.733 355.926 55.733 Q355.020 55.733 354.473 56.515 Q353.801 57.530 353.801 60.233 Z"/>
  <path d="M362.629 60.202 Q361.817 59.874 361.418 59.257 Q361.020 58.640 361.020 57.780 Q361.020 56.499 361.864 55.616 Q362.707 54.733 364.098 54.733 Q365.504 54.733 366.364 55.632 Q367.223 56.530 367.223 57.827 Q367.223 58.655 366.825 59.265 Q366.426 59.874 365.629 60.202 Q366.629 60.499 367.145 61.163 Q367.661 61.827 367.661 62.733 Q367.661 63.999 366.684 64.866 Q365.707 65.733 364.129 65.733 Q362.536 65.733 361.559 64.866 Q360.582 63.999 360.582 62.702 Q360.582 61.733 361.114 61.085 Q361.645 60.436 362.629 60.202 Z M362.364 57.686 Q362.364 58.593 362.856 59.163 Q363.348 59.733 364.129 59.733 Q364.895 59.733 365.379 59.163 Q365.864 58.593 365.864 57.765 Q365.864 56.905 365.364 56.319 Q364.864 55.733 364.114 55.733 Q363.364 55.733 362.864 56.304 Q362.364 56.874 362.364 57.686 Z M361.942 62.718 Q361.942 63.233 362.207 63.718 Q362.473 64.202 362.996 64.468 Q363.520 64.733 364.129 64.733 Q365.067 64.733 365.684 64.171 Q366.301 63.608 366.301 62.749 Q366.301 61.874 365.668 61.304 Q365.036 60.733 364.082 60.733 Q363.161 60.733 362.551 61.296 Q361.942 61.858 361.942 62.718 Z"/>
  <path d="M369.489 58.733 L369.489 57.733 L370.989 57.733 L370.989 58.733 L369.489 58.733 Z M369.489 65.733 L369.489 64.733 L370.989 64.733 L370.989 65.733 L369.489 65.733 Z"/>
  <path d="M372.832 60.233 Q372.832 58.327 373.223 57.163 Q373.614 55.999 374.387 55.366 Q375.161 54.733 376.332 54.733 Q377.192 54.733 377.848 55.085 Q378.504 55.436 378.926 56.093 Q379.348 56.749 379.590 57.694 Q379.832 58.640 379.832 60.233 Q379.832 62.140 379.442 63.304 Q379.051 64.468 378.278 65.101 Q377.504 65.733 376.332 65.733 Q374.786 65.733 373.895 64.624 Q372.832 63.265 372.832 60.233 Z M374.192 60.233 Q374.192 62.936 374.809 63.835 Q375.426 64.733 376.332 64.733 Q377.239 64.733 377.856 63.835 Q378.473 62.936 378.473 60.233 Q378.473 57.515 377.856 56.624 Q377.239 55.733 376.317 55.733 Q375.411 55.733 374.864 56.515 Q374.192 57.530 374.192 60.233 Z"/>
  <path d="M380.989 60.233 Q380.989 58.327 381.379 57.163 Q381.770 55.999 382.543 55.366 Q383.317 54.733 384.489 54.733 Q385.348 54.733 386.004 55.085 Q386.661 55.436 387.082 56.093 Q387.504 56.749 387.746 57.694 Q387.989 58.640 387.989 60.233 Q387.989 62.140 387.598 63.304 Q387.207 64.468 386.434 65.101 Q385.661 65.733 384.489 65.733 Q382.942 65.733 382.051 64.624 Q380.989 63.265 380.989 60.233 Z M382.348 60.233 Q382.348 62.936 382.965 63.835 Q383.582 64.733 384.489 64.733 Q385.395 64.733 386.012 63.835 Q386.629 62.936 386.629 60.233 Q386.629 57.515 386.012 56.624 Q385.395 55.733 384.473 55.733 Q383.567 55.733 383.020 56.515 Q382.348 57.530 382.348 60.233 Z"/>
  <path d="M389.879 58.733 L389.879 57.733 L391.379 57.733 L391.379 58.733 L389.879 58.733 Z M389.879 65.733 L389.879 64.733 L391.379 64.733 L391.379 65.733 L389.879 65.733 Z"/>
  <path d="M393.223 60.233 Q393.223 58.327 393.614 57.163 Q394.004 55.999 394.778 55.366 Q395.551 54.733 396.723 54.733 Q397.582 54.733 398.239 55.085 Q398.895 55.436 399.317 56.093 Q399.739 56.749 399.981 57.694 Q400.223 58.640 400.223 60.233 Q400.223 62.140 399.832 63.304 Q399.442 64.468 398.668 65.101 Q397.895 65.733 396.723 65.733 Q395.176 65.733 394.286 64.624 Q393.223 63.265 393.223 60.233 Z M394.582 60.233 Q394.582 62.936 395.200 63.835 Q395.817 64.733 396.723 64.733 Q397.629 64.733 398.246 63.835 Q398.864 62.936 398.864 60.233 Q398.864 57.515 398.246 56.624 Q397.629 55.733 396.707 55.733 Q395.801 55.733 395.254 56.515 Q394.582 57.530 394.582 60.233 Z"/>
  <path d="M401.379 60.233 Q401.379 58.327 401.770 57.163 Q402.161 55.999 402.934 55.366 Q403.707 54.733 404.879 54.733 Q405.739 54.733 406.395 55.085 Q407.051 55.436 407.473 56.093 Q407.895 56.749 408.137 57.694 Q408.379 58.640 408.379 60.233 Q408.379 62.140 407.989 63.304 Q407.598 64.468 406.825 65.101 Q406.051 65.733 404.879 65.733 Q403.332 65.733 402.442 64.624 Q401.379 63.265 401.379 60.233 Z M402.739 60.233 Q402.739 62.936 403.356 63.835 Q403.973 64.733 404.879 64.733 Q405.786 64.733 406.403 63.835 Q407.020 62.936 407.020 60.233 Q407.020 57.515 406.403 56.624 Q405.786 55.733 404.864 55.733 Q403.957 55.733 403.411 56.515 Q402.739 57.530 402.739 60.233 Z"/>
  <path d="M445.168 65.733 L443.840 65.733 L443.840 57.155 Q443.371 57.624 442.598 58.085 Q441.824 58.546 441.215 58.780 L441.215 57.483 Q442.324 56.952 443.145 56.194 Q443.965 55.436 444.309 54.733 L445.168 54.733 L445.168 65.733 Z"/>
  <path d="M448.356 60.233 Q448.356 58.327 448.746 57.163 Q449.137 55.999 449.910 55.366 Q450.684 54.733 451.856 54.733 Q452.715 54.733 453.371 55.085 Q454.027 55.436 454.449 56.093 Q454.871 56.749 455.113 57.694 Q455.356 58.640 455.356 60.233 Q455.356 62.140 454.965 63.304 Q454.574 64.468 453.801 65.101 Q453.027 65.733 451.856 65.733 Q450.309 65.733 449.418 64.624 Q448.356 63.265 448.356 60.233 Z M449.715 60.233 Q449.715 62.936 450.332 63.835 Q450.949 64.733 451.856 64.733 Q452.762 64.733 453.379 63.835 Q453.996 62.936 453.996 60.233 Q453.996 57.515 453.379 56.624 Q452.762 55.733 451.840 55.733 Q450.934 55.733 450.387 56.515 Q449.715 57.530 449.715 60.233 Z"/>
  <path d="M457.246 58.733 L457.246 57.733 L458.746 57.733 L458.746 58.733 L457.246 58.733 Z M457.246 65.733 L457.246 64.733 L458.746 64.733 L458.746 65.733 L457.246 65.733 Z"/>
  <path d="M460.590 60.233 Q460.590 58.327 460.981 57.163 Q461.371 55.999 462.145 55.366 Q462.918 54.733 464.090 54.733 Q464.949 54.733 465.606 55.085 Q466.262 55.436 466.684 56.093 Q467.106 56.749 467.348 57.694 Q467.590 58.640 467.590 60.233 Q467.590 62.140 467.199 63.304 Q466.809 64.468 466.035 65.101 Q465.262 65.733 464.090 65.733 Q462.543 65.733 461.652 64.624 Q460.590 63.265 460.590 60.233 Z M461.949 60.233 Q461.949 62.936 462.567 63.835 Q463.184 64.733 464.090 64.733 Q464.996 64.733 465.613 63.835 Q466.231 62.936 466.231 60.233 Q466.231 57.515 465.613 56.624 Q464.996 55.733 464.074 55.733 Q463.168 55.733 462.621 56.515 Q461.949 57.530 461.949 60.233 Z"/>
  <path d="M468.746 60.233 Q468.746 58.327 469.137 57.163 Q469.527 55.999 470.301 55.366 Q471.074 54.733 472.246 54.733 Q473.106 54.733 473.762 55.085 Q474.418 55.436 474.840 56.093 Q475.262 56.749 475.504 57.694 Q475.746 58.640 475.746 60.233 Q475.746 62.140 475.356 63.304 Q474.965 64.468 474.192 65.101 Q473.418 65.733 472.246 65.733 Q470.699 65.733 469.809 64.624 Q468.746 63.265 468.746 60.233 Z M470.106 60.233 Q470.106 62.936 470.723 63.835 Q471.340 64.733 472.246 64.733 Q473.152 64.733 473.770 63.835 Q474.387 62.936 474.387 60.233 Q474.387 57.515 473.770 56.624 Q473.152 55.733 472.231 55.733 Q471.324 55.733 470.777 56.515 Q470.106 57.530 470.106 60.233 Z"/>
  <path d="M477.637 58.733 L477.637 57.733 L479.137 57.733 L479.137 58.733 L477.637 58.733 Z M477.637 65.733 L477.637 64.733 L479.137 64.733 L479.137 65.733 L477.637 65.733 Z"/>
  <path d="M480.981 60.233 Q480.981 58.327 481.371 57.163 Q481.762 55.999 482.535 55.366 Q483.309 54.733 484.481 54.733 Q485.340 54.733 485.996 55.085 Q486.652 55.436 487.074 56.093 Q487.496 56.749 487.738 57.694 Q487.981 58.640 487.981 60.233 Q487.981 62.140 487.590 63.304 Q487.199 64.468 486.426 65.101 Q485.652 65.733 484.481 65.733 Q482.934 65.733 482.043 64.624 Q480.981 63.265 480.981 60.233 Z M482.340 60.233 Q482.340 62.936 482.957 63.835 Q483.574 64.733 484.481 64.733 Q485.387 64.733 486.004 63.835 Q486.621 62.936 486.621 60.233 Q486.621 57.515 486.004 56.624 Q485.387 55.733 484.465 55.733 Q483.559 55.733 483.012 56.515 Q482.340 57.530 482.340 60.233 Z"/>
  <path d="M489.137 60.233 Q489.137 58.327 489.527 57.163 Q489.918 55.999 490.692 55.366 Q491.465 54.733 492.637 54.733 Q493.496 54.733 494.152 55.085 Q494.809 55.436 495.231 56.093 Q495.652 56.749 495.895 57.694 Q496.137 58.640 496.137 60.233 Q496.137 62.140 495.746 63.304 Q495.356 64.468 494.582 65.101 Q493.809 65.733 492.637 65.733 Q491.090 65.733 490.199 64.624 Q489.137 63.265 489.137 60.233 Z M490.496 60.233 Q490.496 62.936 491.113 63.835 Q491.731 64.733 492.637 64.733 Q493.543 64.733 494.160 63.835 Q494.777 62.936 494.777 60.233 Q494.777 57.515 494.160 56.624 Q493.543 55.733 492.621 55.733 Q491.715 55.733 491.168 56.515 Q490.496 57.530 490.496 60.233 Z"/>
  <path d="M532.926 65.733 L531.598 65.733 L531.598 57.155 Q531.129 57.624 530.355 58.085 Q529.582 58.546 528.973 58.780 L528.973 57.483 Q530.082 56.952 530.902 56.194 Q531.723 55.436 532.066 54.733 L532.926 54.733 L532.926 65.733 Z"/>
  <path d="M543.035 64.733 L543.035 65.733 L535.941 65.733 Q535.926 65.343 536.098 64.968 Q536.363 64.358 536.965 63.772 Q537.566 63.186 538.691 62.124 Q540.441 60.468 541.058 59.538 Q541.676 58.608 541.676 57.796 Q541.676 56.921 541.113 56.327 Q540.551 55.733 539.660 55.733 Q538.707 55.733 538.129 56.265 Q537.551 56.796 537.551 57.733 L536.191 57.733 Q536.332 56.265 537.238 55.499 Q538.144 54.733 539.676 54.733 Q541.223 54.733 542.121 55.624 Q543.019 56.515 543.019 57.843 Q543.019 58.515 542.754 59.163 Q542.488 59.811 541.879 60.530 Q541.269 61.249 539.848 62.530 Q538.660 63.593 538.324 63.968 Q537.988 64.343 537.769 64.733 L543.035 64.733 Z"/>
  <path d="M545.004 58.733 L545.004 57.733 L546.504 57.733 L546.504 58.733 L545.004 58.733 Z M545.004 65.733 L545.004 64.733 L546.504 64.733 L546.504 65.733 L545.004 65.733 Z"/>
  <path d="M548.348 60.233 Q548.348 58.327 548.738 57.163 Q549.129 55.999 549.902 55.366 Q550.676 54.733 551.848 54.733 Q552.707 54.733 553.363 55.085 Q554.019 55.436 554.441 56.093 Q554.863 56.749 555.105 57.694 Q555.348 58.640 555.348 60.233 Q555.348 62.140 554.957 63.304 Q554.566 64.468 553.793 65.101 Q553.019 65.733 551.848 65.733 Q550.301 65.733 549.410 64.624 Q548.348 63.265 548.348 60.233 Z M549.707 60.233 Q549.707 62.936 550.324 63.835 Q550.941 64.733 551.848 64.733 Q552.754 64.733 553.371 63.835 Q553.988 62.936 553.988 60.233 Q553.988 57.515 553.371 56.624 Q552.754 55.733 551.832 55.733 Q550.926 55.733 550.379 56.515 Q549.707 57.530 549.707 60.233 Z"/>
  <path d="M556.504 60.233 Q556.504 58.327 556.894 57.163 Q557.285 55.999 558.058 55.366 Q558.832 54.733 560.004 54.733 Q560.863 54.733 561.519 55.085 Q562.176 55.436 562.598 56.093 Q563.019 56.749 563.262 57.694 Q563.504 58.640 563.504 60.233 Q563.504 62.140 563.113 63.304 Q562.723 64.468 561.949 65.101 Q561.176 65.733 560.004 65.733 Q558.457 65.733 557.566 64.624 Q556.504 63.265 556.504 60.233 Z M557.863 60.233 Q557.863 62.936 558.480 63.835 Q559.098 64.733 560.004 64.733 Q560.910 64.733 561.527 63.835 Q562.144 62.936 562.144 60.233 Q562.144 57.515 561.527 56.624 Q560.910 55.733 559.988 55.733 Q559.082 55.733 558.535 56.515 Q557.863 57.530 557.863 60.233 Z"/>
  <path d="M565.394 58.733 L565.394 57.733 L566.894 57.733 L566.894 58.733 L565.394 58.733 Z M565.394 65.733 L565.394 64.733 L566.894 64.733 L566.894 65.733 L565.394 65.733 Z"/>
  <path d="M568.738 60.233 Q568.738 58.327 569.129 57.163 Q569.519 55.999 570.293 55.366 Q571.066 54.733 572.238 54.733 Q573.098 54.733 573.754 55.085 Q574.410 55.436 574.832 56.093 Q575.254 56.749 575.496 57.694 Q575.738 58.640 575.738 60.233 Q575.738 62.140 575.348 63.304 Q574.957 64.468 574.183 65.101 Q573.410 65.733 572.238 65.733 Q570.691 65.733 569.801 64.624 Q568.738 63.265 568.738 60.233 Z M570.098 60.233 Q570.098 62.936 570.715 63.835 Q571.332 64.733 572.238 64.733 Q573.144 64.733 573.762 63.835 Q574.379 62.936 574.379 60.233 Q574.379 57.515 573.762 56.624 Q573.144 55.733 572.223 55.733 Q571.316 55.733 570.769 56.515 Q570.098 57.530 570.098 60.233 Z"/>
  <path d="M576.894 60.233 Q576.894 58.327 577.285 57.163 Q577.676 55.999 578.449 55.366 Q579.223 54.733 580.394 54.733 Q581.254 54.733 581.910 55.085 Q582.566 55.436 582.988 56.093 Q583.410 56.749 583.652 57.694 Q583.894 58.640 583.894 60.233 Q583.894 62.140 583.504 63.304 Q583.113 64.468 582.340 65.101 Q581.566 65.733 580.394 65.733 Q578.848 65.733 577.957 64.624 Q576.894 63.265 576.894 60.233 Z M578.254 60.233 Q578.254 62.936 578.871 63.835 Q579.488 64.733 580.394 64.733 Q581.301 64.733 581.918 63.835 Q582.535 62.936 582.535 60.233 Q582.535 57.515 581.918 56.624 Q581.301 55.733 580.379 55.733 Q579.473 55.733 578.926 56.515 Q578.254 57.530 578.254 60.233 Z"/>
  <path d="M620.683 65.733 L619.355 65.733 L619.355 57.155 Q618.886 57.624 618.113 58.085 Q617.339 58.546 616.730 58.780 L616.730 57.483 Q617.839 56.952 618.660 56.194 Q619.480 55.436 619.824 54.733 L620.683 54.733 L620.683 65.733 Z"/>
  <path d="M628.089 65.733 L628.089 62.733 L623.433 62.733 L623.433 61.733 L628.339 54.733 L629.418 54.733 L629.418 61.733 L630.871 61.733 L630.871 62.733 L629.418 62.733 L629.418 65.733 L628.089 65.733 Z M628.089 61.733 L628.089 56.936 L624.730 61.733 L628.089 61.733 Z"/>
  <path d="M632.761 58.733 L632.761 57.733 L634.261 57.733 L634.261 58.733 L632.761 58.733 Z M632.761 65.733 L632.761 64.733 L634.261 64.733 L634.261 65.733 L632.761 65.733 Z"/>
  <path d="M636.105 60.233 Q636.105 58.327 636.496 57.163 Q636.886 55.999 637.660 55.366 Q638.433 54.733 639.605 54.733 Q640.464 54.733 641.121 55.085 Q641.777 55.436 642.199 56.093 Q642.621 56.749 642.863 57.694 Q643.105 58.640 643.105 60.233 Q643.105 62.140 642.714 63.304 Q642.324 64.468 641.550 65.101 Q640.777 65.733 639.605 65.733 Q638.058 65.733 637.168 64.624 Q636.105 63.265 636.105 60.233 Z M637.464 60.233 Q637.464 62.936 638.082 63.835 Q638.699 64.733 639.605 64.733 Q640.511 64.733 641.129 63.835 Q641.746 62.936 641.746 60.233 Q641.746 57.515 641.129 56.624 Q640.511 55.733 639.589 55.733 Q638.683 55.733 638.136 56.515 Q637.464 57.530 637.464 60.233 Z"/>
  <path d="M644.261 60.233 Q644.261 58.327 644.652 57.163 Q645.043 55.999 645.816 55.366 Q646.589 54.733 647.761 54.733 Q648.621 54.733 649.277 55.085 Q649.933 55.436 650.355 56.093 Q650.777 56.749 651.019 57.694 Q651.261 58.640 651.261 60.233 Q651.261 62.140 650.871 63.304 Q650.480 64.468 649.707 65.101 Q648.933 65.733 647.761 65.733 Q646.214 65.733 645.324 64.624 Q644.261 63.265 644.261 60.233 Z M645.621 60.233 Q645.621 62.936 646.238 63.835 Q646.855 64.733 647.761 64.733 Q648.668 64.733 649.285 63.835 Q649.902 62.936 649.902 60.233 Q649.902 57.515 649.285 56.624 Q648.668 55.733 647.746 55.733 Q646.839 55.733 646.293 56.515 Q645.621 57.530 645.621 60.233 Z"/>
  <path d="M653.152 58.733 L653.152 57.733 L654.652 57.733 L654.652 58.733 L653.152 58.733 Z M653.152 65.733 L653.152 64.733 L654.652 64.733 L654.652 65.733 L653.152 65.733 Z"/>
  <path d="M656.496 60.233 Q656.496 58.327 656.886 57.163 Q657.277 55.999 658.050 55.366 Q658.824 54.733 659.996 54.733 Q660.855 54.733 661.511 55.085 Q662.168 55.436 662.589 56.093 Q663.011 56.749 663.254 57.694 Q663.496 58.640 663.496 60.233 Q663.496 62.140 663.105 63.304 Q662.714 64.468 661.941 65.101 Q661.168 65.733 659.996 65.733 Q658.449 65.733 657.558 64.624 Q656.496 63.265 656.496 60.233 Z M657.855 60.233 Q657.855 62.936 658.472 63.835 Q659.089 64.733 659.996 64.733 Q660.902 64.733 661.519 63.835 Q662.136 62.936 662.136 60.233 Q662.136 57.515 661.519 56.624 Q660.902 55.733 659.980 55.733 Q659.074 55.733 658.527 56.515 Q657.855 57.530 657.855 60.233 Z"/>
  <path d="M664.652 60.233 Q664.652 58.327 665.043 57.163 Q665.433 55.999 666.207 55.366 Q666.980 54.733 668.152 54.733 Q669.011 54.733 669.668 55.085 Q670.324 55.436 670.746 56.093 Q671.168 56.749 671.410 57.694 Q671.652 58.640 671.652 60.233 Q671.652 62.140 671.261 63.304 Q670.871 64.468 670.097 65.101 Q669.324 65.733 668.152 65.733 Q666.605 65.733 665.714 64.624 Q664.652 63.265 664.652 60.233 Z M666.011 60.233 Q666.011 62.936 666.629 63.835 Q667.246 64.733 668.152 64.733 Q669.058 64.733 669.675 63.835 Q670.293 62.936 670.293 60.233 Q670.293 57.515 669.675 56.624 Q669.058 55.733 668.136 55.733 Q667.230 55.733 666.683 56.515 Q666.011 57.530 666.011 60.233 Z"/>
  <path d="M708.441 65.733 L707.113 65.733 L707.113 57.155 Q706.644 57.624 705.871 58.085 Q705.097 58.546 704.488 58.780 L704.488 57.483 Q705.597 56.952 706.417 56.194 Q707.238 55.436 707.581 54.733 L708.441 54.733 L708.441 65.733 Z"/>
  <path d="M718.472 57.733 L717.160 57.733 Q716.988 56.811 716.660 56.405 Q716.128 55.733 715.347 55.733 Q714.706 55.733 714.238 56.124 Q713.613 56.624 713.253 57.577 Q712.894 58.530 712.878 60.171 Q713.347 59.436 714.042 59.085 Q714.738 58.733 715.488 58.733 Q716.800 58.733 717.730 59.686 Q718.660 60.640 718.660 62.140 Q718.660 63.124 718.222 63.976 Q717.785 64.827 717.027 65.280 Q716.269 65.733 715.300 65.733 Q713.644 65.733 712.605 64.515 Q711.566 63.296 711.566 60.515 Q711.566 57.390 712.722 55.968 Q713.722 54.733 715.425 54.733 Q716.691 54.733 717.503 55.530 Q718.316 56.327 718.472 57.733 Z M713.081 62.108 Q713.081 62.796 713.371 63.429 Q713.660 64.061 714.183 64.397 Q714.706 64.733 715.269 64.733 Q716.113 64.733 716.714 64.046 Q717.316 63.358 717.316 62.171 Q717.316 61.046 716.722 60.390 Q716.128 59.733 715.222 59.733 Q714.331 59.733 713.706 60.390 Q713.081 61.046 713.081 62.108 Z"/>
  <path d="M720.519 58.733 L720.519 57.733 L722.019 57.733 L722.019 58.733 L720.519 58.733 Z M720.519 65.733 L720.519 64.733 L722.019 64.733 L722.019 65.733 L720.519 65.733 Z"/>
  <path d="M723.863 60.233 Q723.863 58.327 724.253 57.163 Q724.644 55.999 725.417 55.366 Q726.191 54.733 727.363 54.733 Q728.222 54.733 728.878 55.085 Q729.535 55.436 729.956 56.093 Q730.378 56.749 730.621 57.694 Q730.863 58.640 730.863 60.233 Q730.863 62.140 730.472 63.304 Q730.081 64.468 729.308 65.101 Q728.535 65.733 727.363 65.733 Q725.816 65.733 724.925 64.624 Q723.863 63.265 723.863 60.233 Z M725.222 60.233 Q725.222 62.936 725.839 63.835 Q726.456 64.733 727.363 64.733 Q728.269 64.733 728.886 63.835 Q729.503 62.936 729.503 60.233 Q729.503 57.515 728.886 56.624 Q728.269 55.733 727.347 55.733 Q726.441 55.733 725.894 56.515 Q725.222 57.530 725.222 60.233 Z"/>
  <path d="M732.019 60.233 Q732.019 58.327 732.410 57.163 Q732.800 55.999 733.574 55.366 Q734.347 54.733 735.519 54.733 Q736.378 54.733 737.035 55.085 Q737.691 55.436 738.113 56.093 Q738.535 56.749 738.777 57.694 Q739.019 58.640 739.019 60.233 Q739.019 62.140 738.628 63.304 Q738.238 64.468 737.464 65.101 Q736.691 65.733 735.519 65.733 Q733.972 65.733 733.081 64.624 Q732.019 63.265 732.019 60.233 Z M733.378 60.233 Q733.378 62.936 733.996 63.835 Q734.613 64.733 735.519 64.733 Q736.425 64.733 737.042 63.835 Q737.660 62.936 737.660 60.233 Q737.660 57.515 737.042 56.624 Q736.425 55.733 735.503 55.733 Q734.597 55.733 734.050 56.515 Q733.378 57.530 733.378 60.233 Z"/>
  <path d="M740.910 58.733 L740.910 57.733 L742.410 57.733 L742.410 58.733 L740.910 58.733 Z M740.910 65.733 L740.910 64.733 L742.410 64.733 L742.410 65.733 L740.910 65.733 Z"/>
  <path d="M744.253 60.233 Q744.253 58.327 744.644 57.163 Q745.035 55.999 745.808 55.366 Q746.581 54.733 747.753 54.733 Q748.613 54.733 749.269 55.085 Q749.925 55.436 750.347 56.093 Q750.769 56.749 751.011 57.694 Q751.253 58.640 751.253 60.233 Q751.253 62.140 750.863 63.304 Q750.472 64.468 749.699 65.101 Q748.925 65.733 747.753 65.733 Q746.206 65.733 745.316 64.624 Q744.253 63.265 744.253 60.233 Z M745.613 60.233 Q745.613 62.936 746.230 63.835 Q746.847 64.733 747.753 64.733 Q748.660 64.733 749.277 63.835 Q749.894 62.936 749.894 60.233 Q749.894 57.515 749.277 56.624 Q748.660 55.733 747.738 55.733 Q746.831 55.733 746.285 56.515 Q745.613 57.530 745.613 60.233 Z"/>
  <path d="M752.410 60.233 Q752.410 58.327 752.800 57.163 Q753.191 55.999 753.964 55.366 Q754.738 54.733 755.910 54.733 Q756.769 54.733 757.425 55.085 Q758.081 55.436 758.503 56.093 Q758.925 56.749 759.167 57.694 Q759.410 58.640 759.410 60.233 Q759.410 62.140 759.019 63.304 Q758.628 64.468 757.855 65.101 Q757.081 65.733 755.910 65.733 Q754.363 65.733 753.472 64.624 Q752.410 63.265 752.410 60.233 Z M753.769 60.233 Q753.769 62.936 754.386 63.835 Q755.003 64.733 755.910 64.733 Q756.816 64.733 757.433 63.835 Q758.050 62.936 758.050 60.233 Q758.050 57.515 757.433 56.624 Q756.816 55.733 755.894 55.733 Q754.988 55.733 754.441 56.515 Q753.769 57.530 753.769 60.233 Z"/>
  <path d="M796.198 65.733 L794.870 65.733 L794.870 57.155 Q794.402 57.624 793.628 58.085 Q792.855 58.546 792.245 58.780 L792.245 57.483 Q793.355 56.952 794.175 56.194 Q794.995 55.436 795.339 54.733 L796.198 54.733 L796.198 65.733 Z"/>
  <path d="M801.417 60.202 Q800.605 59.874 800.206 59.257 Q799.808 58.640 799.808 57.780 Q799.808 56.499 800.652 55.616 Q801.495 54.733 802.886 54.733 Q804.292 54.733 805.152 55.632 Q806.011 56.530 806.011 57.827 Q806.011 58.655 805.612 59.265 Q805.214 59.874 804.417 60.202 Q805.417 60.499 805.933 61.163 Q806.448 61.827 806.448 62.733 Q806.448 63.999 805.472 64.866 Q804.495 65.733 802.917 65.733 Q801.323 65.733 800.347 64.866 Q799.370 63.999 799.370 62.702 Q799.370 61.733 799.902 61.085 Q800.433 60.436 801.417 60.202 Z M801.152 57.686 Q801.152 58.593 801.644 59.163 Q802.136 59.733 802.917 59.733 Q803.683 59.733 804.167 59.163 Q804.652 58.593 804.652 57.765 Q804.652 56.905 804.152 56.319 Q803.652 55.733 802.902 55.733 Q802.152 55.733 801.652 56.304 Q801.152 56.874 801.152 57.686 Z M800.730 62.718 Q800.730 63.233 800.995 63.718 Q801.261 64.202 801.784 64.468 Q802.308 64.733 802.917 64.733 Q803.855 64.733 804.472 64.171 Q805.089 63.608 805.089 62.749 Q805.089 61.874 804.456 61.304 Q803.823 60.733 802.870 60.733 Q801.948 60.733 801.339 61.296 Q800.730 61.858 800.730 62.718 Z"/>
  <path d="M808.277 58.733 L808.277 57.733 L809.777 57.733 L809.777 58.733 L808.277 58.733 Z M808.277 65.733 L808.277 64.733 L809.777 64.733 L809.777 65.733 L808.277 65.733 Z"/>
  <path d="M811.620 60.233 Q811.620 58.327 812.011 57.163 Q812.402 55.999 813.175 55.366 Q813.948 54.733 815.120 54.733 Q815.980 54.733 816.636 55.085 Q817.292 55.436 817.714 56.093 Q818.136 56.749 818.378 57.694 Q818.620 58.640 818.620 60.233 Q818.620 62.140 818.230 63.304 Q817.839 64.468 817.066 65.101 Q816.292 65.733 815.120 65.733 Q813.573 65.733 812.683 64.624 Q811.620 63.265 811.620 60.233 Z M812.980 60.233 Q812.980 62.936 813.597 63.835 Q814.214 64.733 815.120 64.733 Q816.027 64.733 816.644 63.835 Q817.261 62.936 817.261 60.233 Q817.261 57.515 816.644 56.624 Q816.027 55.733 815.105 55.733 Q814.198 55.733 813.652 56.515 Q812.980 57.530 812.980 60.233 Z"/>
  <path d="M819.777 60.233 Q819.777 58.327 820.167 57.163 Q820.558 55.999 821.331 55.366 Q822.105 54.733 823.277 54.733 Q824.136 54.733 824.792 55.085 Q825.448 55.436 825.870 56.093 Q826.292 56.749 826.534 57.694 Q826.777 58.640 826.777 60.233 Q826.777 62.140 826.386 63.304 Q825.995 64.468 825.222 65.101 Q824.448 65.733 823.277 65.733 Q821.730 65.733 820.839 64.624 Q819.777 63.265 819.777 60.233 Z M821.136 60.233 Q821.136 62.936 821.753 63.835 Q822.370 64.733 823.277 64.733 Q824.183 64.733 824.800 63.835 Q825.417 62.936 825.417 60.233 Q825.417 57.515 824.800 56.624 Q824.183 55.733 823.261 55.733 Q822.355 55.733 821.808 56.515 Q821.136 57.530 821.136 60.233 Z"/>
  <path d="M828.667 58.733 L828.667 57.733 L830.167 57.733 L830.167 58.733 L828.667 58.733 Z M828.667 65.733 L828.667 64.733 L830.167 64.733 L830.167 65.733 L828.667 65.733 Z"/>
  <path d="M832.011 60.233 Q832.011 58.327 832.402 57.163 Q832.792 55.999 833.566 55.366 Q834.339 54.733 835.511 54.733 Q836.370 54.733 837.027 55.085 Q837.683 55.436 838.105 56.093 Q838.527 56.749 838.769 57.694 Q839.011 58.640 839.011 60.233 Q839.011 62.140 838.620 63.304 Q838.230 64.468 837.456 65.101 Q836.683 65.733 835.511 65.733 Q833.964 65.733 833.073 64.624 Q832.011 63.265 832.011 60.233 Z M833.370 60.233 Q833.370 62.936 833.987 63.835 Q834.605 64.733 835.511 64.733 Q836.417 64.733 837.034 63.835 Q837.652 62.936 837.652 60.233 Q837.652 57.515 837.034 56.624 Q836.417 55.733 835.495 55.733 Q834.589 55.733 834.042 56.515 Q833.370 57.530 833.370 60.233 Z"/>
  <path d="M840.167 60.233 Q840.167 58.327 840.558 57.163 Q840.948 55.999 841.722 55.366 Q842.495 54.733 843.667 54.733 Q844.527 54.733 845.183 55.085 Q845.839 55.436 846.261 56.093 Q846.683 56.749 846.925 57.694 Q847.167 58.640 847.167 60.233 Q847.167 62.140 846.777 63.304 Q846.386 64.468 845.612 65.101 Q844.839 65.733 843.667 65.733 Q842.120 65.733 841.230 64.624 Q840.167 63.265 840.167 60.233 Z M841.527 60.233 Q841.527 62.936 842.144 63.835 Q842.761 64.733 843.667 64.733 Q844.573 64.733 845.191 63.835 Q845.808 62.936 845.808 60.233 Q845.808 57.515 845.191 56.624 Q844.573 55.733 843.652 55.733 Q842.745 55.733 842.198 56.515 Q841.527 57.530 841.527 60.233 Z"/>
  <path d="M885.909 64.733 L885.909 65.733 L878.815 65.733 Q878.800 65.343 878.972 64.968 Q879.237 64.358 879.839 63.772 Q880.440 63.186 881.565 62.124 Q883.315 60.468 883.933 59.538 Q884.550 58.608 884.550 57.796 Q884.550 56.921 883.987 56.327 Q883.425 55.733 882.534 55.733 Q881.581 55.733 881.003 56.265 Q880.425 56.796 880.425 57.733 L879.065 57.733 Q879.206 56.265 880.112 55.499 Q881.018 54.733 882.550 54.733 Q884.097 54.733 884.995 55.624 Q885.893 56.515 885.893 57.843 Q885.893 58.515 885.628 59.163 Q885.362 59.811 884.753 60.530 Q884.143 61.249 882.722 62.530 Q881.534 63.593 881.198 63.968 Q880.862 64.343 880.643 64.733 L885.909 64.733 Z"/>
  <path d="M887.143 60.233 Q887.143 58.327 887.534 57.163 Q887.925 55.999 888.698 55.366 Q889.472 54.733 890.643 54.733 Q891.503 54.733 892.159 55.085 Q892.815 55.436 893.237 56.093 Q893.659 56.749 893.901 57.694 Q894.143 58.640 894.143 60.233 Q894.143 62.140 893.753 63.304 Q893.362 64.468 892.589 65.101 Q891.815 65.733 890.643 65.733 Q889.097 65.733 888.206 64.624 Q887.143 63.265 887.143 60.233 Z M888.503 60.233 Q888.503 62.936 889.120 63.835 Q889.737 64.733 890.643 64.733 Q891.550 64.733 892.167 63.835 Q892.784 62.936 892.784 60.233 Q892.784 57.515 892.167 56.624 Q891.550 55.733 890.628 55.733 Q889.722 55.733 889.175 56.515 Q888.503 57.530 888.503 60.233 Z"/>
  <path d="M896.034 58.733 L896.034 57.733 L897.534 57.733 L897.534 58.733 L896.034 58.733 Z M896.034 65.733 L896.034 64.733 L897.534 64.733 L897.534 65.733 L896.034 65.733 Z"/>
  <path d="M899.378 60.233 Q899.378 58.327 899.768 57.163 Q900.159 55.999 900.933 55.366 Q901.706 54.733 902.878 54.733 Q903.737 54.733 904.393 55.085 Q905.050 55.436 905.472 56.093 Q905.893 56.749 906.136 57.694 Q906.378 58.640 906.378 60.233 Q906.378 62.140 905.987 63.304 Q905.597 64.468 904.823 65.101 Q904.050 65.733 902.878 65.733 Q901.331 65.733 900.440 64.624 Q899.378 63.265 899.378 60.233 Z M900.737 60.233 Q900.737 62.936 901.354 63.835 Q901.972 64.733 902.878 64.733 Q903.784 64.733 904.401 63.835 Q905.018 62.936 905.018 60.233 Q905.018 57.515 904.401 56.624 Q903.784 55.733 902.862 55.733 Q901.956 55.733 901.409 56.515 Q900.737 57.530 900.737 60.233 Z"/>
  <path d="M907.534 60.233 Q907.534 58.327 907.925 57.163 Q908.315 55.999 909.089 55.366 Q909.862 54.733 911.034 54.733 Q911.893 54.733 912.550 55.085 Q913.206 55.436 913.628 56.093 Q914.050 56.749 914.292 57.694 Q914.534 58.640 914.534 60.233 Q914.534 62.140 914.143 63.304 Q913.753 64.468 912.979 65.101 Q912.206 65.733 911.034 65.733 Q909.487 65.733 908.597 64.624 Q907.534 63.265 907.534 60.233 Z M908.893 60.233 Q908.893 62.936 909.511 63.835 Q910.128 64.733 911.034 64.733 Q911.940 64.733 912.558 63.835 Q913.175 62.936 913.175 60.233 Q913.175 57.515 912.558 56.624 Q911.940 55.733 911.018 55.733 Q910.112 55.733 909.565 56.515 Q908.893 57.530 908.893 60.233 Z"/>
  <path d="M916.425 58.733 L916.425 57.733 L917.925 57.733 L917.925 58.733 L916.425 58.733 Z M916.425 65.733 L916.425 64.733 L917.925 64.733 L917.925 65.733 L916.425 65.733 Z"/>
  <path d="M919.768 60.233 Q919.768 58.327 920.159 57.163 Q920.550 55.999 921.323 55.366 Q922.097 54.733 923.268 54.733 Q924.128 54.733 924.784 55.085 Q925.440 55.436 925.862 56.093 Q926.284 56.749 926.526 57.694 Q926.768 58.640 926.768 60.233 Q926.768 62.140 926.378 63.304 Q925.987 64.468 925.214 65.101 Q924.440 65.733 923.268 65.733 Q921.722 65.733 920.831 64.624 Q919.768 63.265 919.768 60.233 Z M921.128 60.233 Q921.128 62.936 921.745 63.835 Q922.362 64.733 923.268 64.733 Q924.175 64.733 924.792 63.835 Q925.409 62.936 925.409 60.233 Q925.409 57.515 924.792 56.624 Q924.175 55.733 923.253 55.733 Q922.347 55.733 921.800 56.515 Q921.128 57.530 921.128 60.233 Z"/>
  <path d="M927.925 60.233 Q927.925 58.327 928.315 57.163 Q928.706 55.999 929.479 55.366 Q930.253 54.733 931.425 54.733 Q932.284 54.733 932.940 55.085 Q933.597 55.436 934.018 56.093 Q934.440 56.749 934.683 57.694 Q934.925 58.640 934.925 60.233 Q934.925 62.140 934.534 63.304 Q934.143 64.468 933.370 65.101 Q932.597 65.733 931.425 65.733 Q929.878 65.733 928.987 64.624 Q927.925 63.265 927.925 60.233 Z M929.284 60.233 Q929.284 62.936 929.901 63.835 Q930.518 64.733 931.425 64.733 Q932.331 64.733 932.948 63.835 Q933.565 62.936 933.565 60.233 Q933.565 57.515 932.948 56.624 Q932.331 55.733 931.409 55.733 Q930.503 55.733 929.956 56.515 Q929.284 57.530 929.284 60.233 Z"/>
  <path d="M973.667 64.733 L973.667 65.733 L966.573 65.733 Q966.557 65.343 966.729 64.968 Q966.995 64.358 967.596 63.772 Q968.198 63.186 969.323 62.124 Q971.073 60.468 971.690 59.538 Q972.307 58.608 972.307 57.796 Q972.307 56.921 971.745 56.327 Q971.182 55.733 970.292 55.733 Q969.339 55.733 968.760 56.265 Q968.182 56.796 968.182 57.733 L966.823 57.733 Q966.964 56.265 967.870 55.499 Q968.776 54.733 970.307 54.733 Q971.854 54.733 972.753 55.624 Q973.651 56.515 973.651 57.843 Q973.651 58.515 973.385 59.163 Q973.120 59.811 972.510 60.530 Q971.901 61.249 970.479 62.530 Q969.292 63.593 968.956 63.968 Q968.620 64.343 968.401 64.733 L973.667 64.733 Z"/>
  <path d="M981.823 64.733 L981.823 65.733 L974.729 65.733 Q974.714 65.343 974.885 64.968 Q975.151 64.358 975.753 63.772 Q976.354 63.186 977.479 62.124 Q979.229 60.468 979.846 59.538 Q980.464 58.608 980.464 57.796 Q980.464 56.921 979.901 56.327 Q979.339 55.733 978.448 55.733 Q977.495 55.733 976.917 56.265 Q976.339 56.796 976.339 57.733 L974.979 57.733 Q975.120 56.265 976.026 55.499 Q976.932 54.733 978.464 54.733 Q980.010 54.733 980.909 55.624 Q981.807 56.515 981.807 57.843 Q981.807 58.515 981.542 59.163 Q981.276 59.811 980.667 60.530 Q980.057 61.249 978.635 62.530 Q977.448 63.593 977.112 63.968 Q976.776 64.343 976.557 64.733 L981.823 64.733 Z"/>
  <path d="M983.792 58.733 L983.792 57.733 L985.292 57.733 L985.292 58.733 L983.792 58.733 Z M983.792 65.733 L983.792 64.733 L985.292 64.733 L985.292 65.733 L983.792 65.733 Z"/>
  <path d="M987.135 60.233 Q987.135 58.327 987.526 57.163 Q987.917 55.999 988.690 55.366 Q989.464 54.733 990.635 54.733 Q991.495 54.733 992.151 55.085 Q992.807 55.436 993.229 56.093 Q993.651 56.749 993.893 57.694 Q994.135 58.640 994.135 60.233 Q994.135 62.140 993.745 63.304 Q993.354 64.468 992.581 65.101 Q991.807 65.733 990.635 65.733 Q989.089 65.733 988.198 64.624 Q987.135 63.265 987.135 60.233 Z M988.495 60.233 Q988.495 62.936 989.112 63.835 Q989.729 64.733 990.635 64.733 Q991.542 64.733 992.159 63.835 Q992.776 62.936 992.776 60.233 Q992.776 57.515 992.159 56.624 Q991.542 55.733 990.620 55.733 Q989.714 55.733 989.167 56.515 Q988.495 57.530 988.495 60.233 Z"/>
  <path d="M995.292 60.233 Q995.292 58.327 995.682 57.163 Q996.073 55.999 996.846 55.366 Q997.620 54.733 998.792 54.733 Q999.651 54.733 1000.307 55.085 Q1000.964 55.436 1001.385 56.093 Q1001.807 56.749 1002.049 57.694 Q1002.292 58.640 1002.292 60.233 Q1002.292 62.140 1001.901 63.304 Q1001.510 64.468 1000.737 65.101 Q999.964 65.733 998.792 65.733 Q997.245 65.733 996.354 64.624 Q995.292 63.265 995.292 60.233 Z M996.651 60.233 Q996.651 62.936 997.268 63.835 Q997.885 64.733 998.792 64.733 Q999.698 64.733 1000.315 63.835 Q1000.932 62.936 1000.932 60.233 Q1000.932 57.515 1000.315 56.624 Q999.698 55.733 998.776 55.733 Q997.870 55.733 997.323 56.515 Q996.651 57.530 996.651 60.233 Z"/>
  <path d="M1004.182 58.733 L1004.182 57.733 L1005.682 57.733 L1005.682 58.733 L1004.182 58.733 Z M1004.182 65.733 L1004.182 64.733 L1005.682 64.733 L1005.682 65.733 L1004.182 65.733 Z"/>
  <path d="M1007.526 60.233 Q1007.526 58.327 1007.917 57.163 Q1008.307 55.999 1009.081 55.366 Q1009.854 54.733 1011.026 54.733 Q1011.885 54.733 1012.542 55.085 Q1013.198 55.436 1013.620 56.093 Q1014.042 56.749 1014.284 57.694 Q1014.526 58.640 1014.526 60.233 Q1014.526 62.140 1014.135 63.304 Q1013.745 64.468 1012.971 65.101 Q1012.198 65.733 1011.026 65.733 Q1009.479 65.733 1008.589 64.624 Q1007.526 63.265 1007.526 60.233 Z M1008.885 60.233 Q1008.885 62.936 1009.503 63.835 Q1010.120 64.733 1011.026 64.733 Q1011.932 64.733 1012.549 63.835 Q1013.167 62.936 1013.167 60.233 Q1013.167 57.515 1012.549 56.624 Q1011.932 55.733 1011.010 55.733 Q1010.104 55.733 1009.557 56.515 Q1008.885 57.530 1008.885 60.233 Z"/>
  <path d="M1015.682 60.233 Q1015.682 58.327 1016.073 57.163 Q1016.464 55.999 1017.237 55.366 Q1018.010 54.733 1019.182 54.733 Q1020.042 54.733 1020.698 55.085 Q1021.354 55.436 1021.776 56.093 Q1022.198 56.749 1022.440 57.694 Q1022.682 58.640 1022.682 60.233 Q1022.682 62.140 1022.292 63.304 Q1021.901 64.468 1021.128 65.101 Q1020.354 65.733 1019.182 65.733 Q1017.635 65.733 1016.745 64.624 Q1015.682 63.265 1015.682 60.233 Z M1017.042 60.233 Q1017.042 62.936 1017.659 63.835 Q1018.276 64.733 1019.182 64.733 Q1020.089 64.733 1020.706 63.835 Q1021.323 62.936 1021.323 60.233 Q1021.323 57.515 1020.706 56.624 Q1020.089 55.733 1019.167 55.733 Q1018.260 55.733 1017.714 56.515 Q1017.042 57.530 1017.042 60.233 Z"/>
</svg>
