<?xml version="1.0" encoding="UTF-8" ?>
<!-- Generated by clip v0.8.0 (clip-lang.org) -->
<svg xmlns="http://www.w3.org/2000/svg" width="1024" height="80">
  <rect width="1024" height="80" fill="#ffffff" fill-opacity="1"/>
  <path d="M29.333 40 L994.667 40" fill="none" stroke="#000000" stroke-width="1.333"/>
  <path d="M29.333 42.667 L29.333 37.333" fill="none" stroke="#000000" stroke-width="1.333"/>
  <path d="M109.778 42.667 L109.778 37.333" fill="none" stroke="#000000" stroke-width="1.333"/>
  <path d="M190.222 42.667 L190.222 37.333" fill="none" stroke="#000000" stroke-width="1.333"/>
  <path d="M270.667 42.667 L270.667 37.333" fill="none" stroke="#000000" stroke-width="1.333"/>
  <path d="M351.111 42.667 L351.111 37.333" fill="none" stroke="#000000" stroke-width="1.333"/>
  <path d="M431.556 42.667 L431.556 37.333" fill="none" stroke="#000000" stroke-width="1.333"/>
  <path d="M512 42.667 L512 37.333" fill="none" stroke="#000000" stroke-width="1.333"/>
  <path d="M592.444 42.667 L592.444 37.333" fill="none" stroke="#000000" stroke-width="1.333"/>
  <path d="M672.889 42.667 L672.889 37.333" fill="none" stroke="#000000" stroke-width="1.333"/>
  <path d="M753.333 42.667 L753.333 37.333" fill="none" stroke="#000000" stroke-width="1.333"/>
  <path d="M833.778 42.667 L833.778 37.333" fill="none" stroke="#000000" stroke-width="1.333"/>
  <path d="M914.222 42.667 L914.222 37.333" fill="none" stroke="#000000" stroke-width="1.333"/>
  <path d="M994.667 42.667 L994.667 37.333" fill="none" stroke="#000000" stroke-width="1.333"/>
  <path d="M30.232 61.483 L24.747 61.483 C24.888 60.561 25.357 59.968 26.638 59.155 L28.107 58.296 C29.560 57.452 30.310 56.311 30.310 54.936 C30.310 54.015 29.951 53.155 29.341 52.561 C28.716 51.999 27.951 51.733 26.966 51.733 C25.654 51.733 24.669 52.218 24.091 53.140 C23.732 53.718 23.560 54.405 23.529 55.530 L24.826 55.530 C24.872 54.780 24.966 54.343 25.138 53.968 C25.466 53.280 26.154 52.874 26.919 52.874 C28.107 52.874 28.982 53.765 28.982 54.968 C28.982 55.858 28.497 56.624 27.576 57.186 L26.216 58.015 C24.044 59.327 23.419 60.374 23.294 62.733 L30.232 62.733 L30.232 61.483 Z"/>
  <path d="M33.372 51.733 C31.935 51.733 31.185 52.874 31.185 55.093 C31.185 57.343 31.935 58.468 33.388 58.468 C34.794 58.468 35.560 57.343 35.560 55.155 C35.560 52.858 34.826 51.733 33.372 51.733 Z M33.372 52.515 C34.216 52.515 34.638 53.374 34.638 55.077 C34.638 56.905 34.232 57.733 33.357 57.733 C32.513 57.733 32.107 56.858 32.107 55.108 C32.107 53.358 32.513 52.515 33.372 52.515 Z"/>
  <path d="M110.801 64.733 L110.801 65.733 L103.707 65.733 Q103.692 65.343 103.864 64.968 Q104.129 64.358 104.731 63.772 Q105.332 63.186 106.457 62.124 Q108.207 60.468 108.825 59.538 Q109.442 58.608 109.442 57.796 Q109.442 56.921 108.879 56.327 Q108.317 55.733 107.426 55.733 Q106.473 55.733 105.895 56.265 Q105.317 56.796 105.317 57.733 L103.957 57.733 Q104.098 56.265 105.004 55.499 Q105.911 54.733 107.442 54.733 Q108.989 54.733 109.887 55.624 Q110.786 56.515 110.786 57.843 Q110.786 58.515 110.520 59.163 Q110.254 59.811 109.645 60.530 Q109.036 61.249 107.614 62.530 Q106.426 63.593 106.090 63.968 Q105.754 64.343 105.536 64.733 L110.801 64.733 Z"/>
  <path d="M113.832 60.733 L113.832 55.811 Q113.082 56.468 112.192 56.733 L112.192 55.733 Q112.645 55.624 113.207 55.343 Q113.770 55.061 114.114 54.733 L114.895 54.733 L114.895 60.733 L113.832 60.733 Z"/>
  <path d="M191.246 64.733 L191.246 65.733 L184.152 65.733 Q184.136 65.343 184.308 64.968 Q184.574 64.358 185.175 63.772 Q185.777 63.186 186.902 62.124 Q188.652 60.468 189.269 59.538 Q189.886 58.608 189.886 57.796 Q189.886 56.921 189.324 56.327 Q188.761 55.733 187.871 55.733 Q186.918 55.733 186.339 56.265 Q185.761 56.796 185.761 57.733 L184.402 57.733 Q184.543 56.265 185.449 55.499 Q186.355 54.733 187.886 54.733 Q189.433 54.733 190.332 55.624 Q191.230 56.515 191.230 57.843 Q191.230 58.515 190.964 59.163 Q190.699 59.811 190.089 60.530 Q189.480 61.249 188.058 62.530 Q186.871 63.593 186.535 63.968 Q186.199 64.343 185.980 64.733 L191.246 64.733 Z"/>
  <path d="M192.043 60.733 Q192.089 60.280 192.386 59.827 Q192.839 59.155 193.894 58.327 Q194.949 57.499 195.152 57.265 Q195.418 56.936 195.418 56.608 Q195.418 56.218 195.160 55.976 Q194.902 55.733 194.402 55.733 Q193.918 55.733 193.683 55.936 Q193.449 56.140 193.293 56.733 L192.199 56.733 Q192.418 55.702 192.941 55.218 Q193.464 54.733 194.433 54.733 Q195.543 54.733 196.058 55.202 Q196.574 55.671 196.574 56.358 Q196.574 57.015 196.136 57.624 Q195.808 58.061 194.636 58.983 Q194.027 59.452 193.777 59.733 L196.605 59.733 L196.605 60.733 L192.043 60.733 Z"/>
  <path d="M271.690 64.733 L271.690 65.733 L264.596 65.733 Q264.581 65.343 264.753 64.968 Q265.018 64.358 265.620 63.772 Q266.221 63.186 267.346 62.124 Q269.096 60.468 269.714 59.538 Q270.331 58.608 270.331 57.796 Q270.331 56.921 269.768 56.327 Q269.206 55.733 268.315 55.733 Q267.362 55.733 266.784 56.265 Q266.206 56.796 266.206 57.733 L264.846 57.733 Q264.987 56.265 265.893 55.499 Q266.799 54.733 268.331 54.733 Q269.878 54.733 270.776 55.624 Q271.674 56.515 271.674 57.843 Q271.674 58.515 271.409 59.163 Q271.143 59.811 270.534 60.530 Q269.924 61.249 268.503 62.530 Q267.315 63.593 266.979 63.968 Q266.643 64.343 266.424 64.733 L271.690 64.733 Z"/>
  <path d="M272.534 58.733 L273.612 58.733 Q273.753 59.265 273.987 59.468 Q274.315 59.733 274.737 59.733 Q275.268 59.733 275.581 59.405 Q275.893 59.077 275.893 58.624 Q275.893 58.202 275.628 57.960 Q275.362 57.718 274.721 57.718 Q274.628 57.718 274.471 57.733 Q274.378 57.733 274.315 57.733 L274.487 56.733 Q275.081 56.733 275.354 56.577 Q275.628 56.421 275.628 56.202 Q275.628 55.999 275.409 55.866 Q275.190 55.733 274.753 55.733 Q274.346 55.733 274.112 55.952 Q273.878 56.171 273.706 56.733 L272.659 56.733 Q272.956 55.624 273.417 55.179 Q273.878 54.733 274.753 54.733 Q275.815 54.733 276.292 55.101 Q276.768 55.468 276.768 56.030 Q276.768 56.405 276.510 56.710 Q276.253 57.015 275.768 57.140 Q276.424 57.327 276.729 57.757 Q277.034 58.186 277.034 58.765 Q277.034 59.561 276.456 60.147 Q275.878 60.733 274.799 60.733 Q273.768 60.733 273.229 60.218 Q272.690 59.702 272.534 58.733 Z"/>
  <path d="M352.010 61.483 L346.525 61.483 C346.666 60.561 347.135 59.968 348.416 59.155 L349.885 58.296 C351.338 57.452 352.088 56.311 352.088 54.936 C352.088 54.015 351.728 53.155 351.119 52.561 C350.494 51.999 349.728 51.733 348.744 51.733 C347.431 51.733 346.447 52.218 345.869 53.140 C345.510 53.718 345.338 54.405 345.306 55.530 L346.603 55.530 C346.650 54.780 346.744 54.343 346.916 53.968 C347.244 53.280 347.931 52.874 348.697 52.874 C349.885 52.874 350.760 53.765 350.760 54.968 C350.760 55.858 350.275 56.624 349.353 57.186 L347.994 58.015 C345.822 59.327 345.197 60.374 345.072 62.733 L352.010 62.733 L352.010 61.483 Z"/>
  <path d="M355.572 56.733 L355.572 58.202 L356.478 58.202 L356.478 56.733 L357.463 56.733 L357.463 55.968 L356.478 55.968 L356.478 51.968 L355.806 51.968 L352.806 55.874 L352.806 56.733 L355.572 56.733 Z M355.572 55.968 L353.681 55.968 L355.572 53.468 L355.572 55.968 Z"/>
  <path d="M432.454 61.483 L426.970 61.483 C427.110 60.561 427.579 59.968 428.860 59.155 L430.329 58.296 C431.782 57.452 432.532 56.311 432.532 54.936 C432.532 54.015 432.173 53.155 431.563 52.561 C430.938 51.999 430.173 51.733 429.188 51.733 C427.876 51.733 426.891 52.218 426.313 53.140 C425.954 53.718 425.782 54.405 425.751 55.530 L427.048 55.530 C427.095 54.780 427.188 54.343 427.360 53.968 C427.688 53.280 428.376 52.874 429.141 52.874 C430.329 52.874 431.204 53.765 431.204 54.968 C431.204 55.858 430.720 56.624 429.798 57.186 L428.438 58.015 C426.266 59.327 425.641 60.374 425.516 62.733 L432.454 62.733 L432.454 61.483 Z"/>
  <path d="M437.501 51.733 L434.016 51.733 L433.516 55.358 L434.345 55.358 C434.720 54.905 435.032 54.733 435.532 54.733 C436.376 54.733 436.923 55.343 436.923 56.249 C436.923 57.171 436.391 57.733 435.532 57.733 C434.829 57.733 434.407 57.390 434.220 56.640 L433.313 56.640 C433.423 57.218 433.516 57.483 433.720 57.765 C434.126 58.233 434.782 58.515 435.548 58.515 C436.891 58.515 437.845 57.561 437.845 56.155 C437.845 54.843 436.954 53.968 435.673 53.968 C435.235 53.968 434.876 54.061 434.532 54.265 L434.751 52.593 L437.501 52.593 L437.501 51.733 Z"/>
  <path d="M512.898 61.483 L507.414 61.483 C507.555 60.561 508.023 59.968 509.305 59.155 L510.773 58.296 C512.227 57.452 512.977 56.311 512.977 54.936 C512.977 54.015 512.617 53.155 512.008 52.561 C511.383 51.999 510.617 51.733 509.633 51.733 C508.320 51.733 507.336 52.218 506.758 53.140 C506.398 53.718 506.227 54.405 506.195 55.530 L507.492 55.530 C507.539 54.780 507.633 54.343 507.805 53.968 C508.133 53.280 508.820 52.874 509.586 52.874 C510.773 52.874 511.648 53.765 511.648 54.968 C511.648 55.858 511.164 56.624 510.242 57.186 L508.883 58.015 C506.711 59.327 506.086 60.374 505.961 62.733 L512.898 62.733 L512.898 61.483 Z"/>
  <path d="M518.164 53.390 C517.992 52.358 517.289 51.733 516.242 51.733 C515.508 51.733 514.836 52.061 514.445 52.624 C514.039 53.186 513.852 53.905 513.852 55.093 C513.852 57.452 514.602 58.515 516.102 58.515 C517.367 58.515 518.289 57.608 518.289 56.171 C518.289 54.811 517.430 53.968 516.242 53.968 C515.617 53.968 515.258 54.108 514.773 54.561 C514.773 53.296 515.320 52.515 516.180 52.515 C516.758 52.515 517.117 52.827 517.258 53.390 L518.164 53.390 Z M516.133 54.733 C516.898 54.733 517.367 55.327 517.367 56.233 C517.367 57.108 516.836 57.733 516.117 57.733 C515.367 57.733 514.836 57.077 514.836 56.186 C514.836 55.327 515.352 54.733 516.133 54.733 Z"/>
  <path d="M593.343 61.483 L587.859 61.483 C587.999 60.561 588.468 59.968 589.749 59.155 L591.218 58.296 C592.671 57.452 593.421 56.311 593.421 54.936 C593.421 54.015 593.062 53.155 592.452 52.561 C591.827 51.999 591.062 51.733 590.077 51.733 C588.765 51.733 587.780 52.218 587.202 53.140 C586.843 53.718 586.671 54.405 586.640 55.530 L587.937 55.530 C587.984 54.780 588.077 54.343 588.249 53.968 C588.577 53.280 589.265 52.874 590.030 52.874 C591.218 52.874 592.093 53.765 592.093 54.968 C592.093 55.858 591.609 56.624 590.687 57.186 L589.327 58.015 C587.155 59.327 586.530 60.374 586.405 62.733 L593.343 62.733 L593.343 61.483 Z"/>
  <path d="M598.812 51.733 L594.327 51.733 L594.327 52.593 L597.827 52.593 C596.280 54.655 595.671 55.905 595.171 57.983 L596.140 57.983 C596.499 55.999 597.327 54.296 598.812 52.452 L598.812 51.733 Z"/>
  <path d="M673.787 61.483 L668.303 61.483 C668.444 60.561 668.912 59.968 670.194 59.155 L671.662 58.296 C673.115 57.452 673.865 56.311 673.865 54.936 C673.865 54.015 673.506 53.155 672.897 52.561 C672.272 51.999 671.506 51.733 670.522 51.733 C669.209 51.733 668.225 52.218 667.647 53.140 C667.287 53.718 667.115 54.405 667.084 55.530 L668.381 55.530 C668.428 54.780 668.522 54.343 668.694 53.968 C669.022 53.280 669.709 52.874 670.475 52.874 C671.662 52.874 672.537 53.765 672.537 54.968 C672.537 55.858 672.053 56.624 671.131 57.186 L669.772 58.015 C667.600 59.327 666.975 60.374 666.850 62.733 L673.787 62.733 L673.787 61.483 Z"/>
  <path d="M678.115 55.077 C678.709 54.718 678.944 54.311 678.944 53.624 C678.944 52.436 678.115 51.733 676.928 51.733 C675.725 51.733 674.897 52.436 674.897 53.624 C674.897 54.311 675.115 54.718 675.725 55.077 C675.037 55.421 674.678 55.968 674.678 56.686 C674.678 57.952 675.584 58.733 676.928 58.733 C678.256 58.733 679.162 57.952 679.162 56.702 C679.162 55.983 678.803 55.421 678.115 55.077 Z M676.928 52.515 C677.600 52.515 678.022 52.952 678.022 53.640 C678.022 54.311 677.584 54.733 676.928 54.733 C676.240 54.733 675.819 54.311 675.819 53.640 C675.819 52.968 676.240 52.515 676.928 52.515 Z M676.928 55.468 C677.709 55.468 678.240 55.983 678.240 56.718 C678.240 57.468 677.709 57.968 676.912 57.968 C676.131 57.968 675.600 57.452 675.600 56.718 C675.600 55.983 676.131 55.468 676.928 55.468 Z"/>
  <path d="M754.232 61.483 L748.747 61.483 C748.888 60.561 749.357 59.968 750.638 59.155 L752.107 58.296 C753.560 57.452 754.310 56.311 754.310 54.936 C754.310 54.015 753.951 53.155 753.341 52.561 C752.716 51.999 751.951 51.733 750.966 51.733 C749.654 51.733 748.669 52.218 748.091 53.140 C747.732 53.718 747.560 54.405 747.529 55.530 L748.826 55.530 C748.872 54.780 748.966 54.343 749.138 53.968 C749.466 53.280 750.154 52.874 750.919 52.874 C752.107 52.874 752.982 53.765 752.982 54.968 C752.982 55.858 752.497 56.624 751.576 57.186 L750.216 58.015 C748.044 59.327 747.419 60.374 747.294 62.733 L754.232 62.733 L754.232 61.483 Z"/>
  <path d="M755.263 56.546 C755.435 57.890 756.138 58.515 757.185 58.515 C757.919 58.515 758.576 58.202 758.982 57.593 C759.404 56.811 759.576 55.843 759.576 54.671 C759.576 52.749 758.841 51.733 757.341 51.733 C756.060 51.733 755.138 52.624 755.138 53.811 C755.138 54.921 755.982 55.733 757.185 55.733 C757.810 55.733 758.138 55.593 758.638 55.124 C758.622 56.718 758.107 57.733 757.232 57.733 C756.669 57.733 756.294 57.327 756.169 56.546 L755.263 56.546 Z M757.310 52.515 C758.060 52.515 758.591 53.061 758.591 53.796 C758.591 54.468 758.060 54.968 757.294 54.968 C756.529 54.968 756.060 54.499 756.060 53.749 C756.060 53.030 756.591 52.515 757.310 52.515 Z"/>
  <path d="M832.231 61.483 L826.747 61.483 C826.887 60.561 827.356 59.968 828.637 59.155 L830.106 58.296 C831.559 57.452 832.309 56.311 832.309 54.936 C832.309 54.015 831.950 53.155 831.340 52.561 C830.715 51.999 829.950 51.733 828.965 51.733 C827.653 51.733 826.668 52.218 826.090 53.140 C825.731 53.718 825.559 54.405 825.528 55.530 L826.825 55.530 C826.872 54.780 826.965 54.343 827.137 53.968 C827.465 53.280 828.153 52.874 828.918 52.874 C830.106 52.874 830.981 53.765 830.981 54.968 C830.981 55.858 830.497 56.624 829.575 57.186 L828.215 58.015 C826.043 59.327 825.418 60.374 825.293 62.733 L832.231 62.733 L832.231 61.483 Z"/>
  <path d="M835.168 54.233 L835.168 58.577 L836.090 58.577 L836.090 52.327 L835.450 52.327 C835.200 53.280 834.997 53.436 833.934 53.530 L833.715 53.546 L833.715 54.233 L835.168 54.233 Z"/>
  <path d="M840.262 51.733 C838.825 51.733 838.075 52.874 838.075 55.093 C838.075 57.343 838.825 58.468 840.278 58.468 C841.684 58.468 842.450 57.343 842.450 55.155 C842.450 52.858 841.715 51.733 840.262 51.733 Z M840.262 52.515 C841.106 52.515 841.528 53.374 841.528 55.077 C841.528 56.905 841.122 57.733 840.247 57.733 C839.403 57.733 838.997 56.858 838.997 55.108 C838.997 53.358 839.403 52.515 840.262 52.515 Z"/>
  <path d="M912.800 64.733 L912.800 65.733 L905.707 65.733 Q905.691 65.343 905.863 64.968 Q906.128 64.358 906.730 63.772 Q907.332 63.186 908.457 62.124 Q910.207 60.468 910.824 59.538 Q911.441 58.608 911.441 57.796 Q911.441 56.921 910.878 56.327 Q910.316 55.733 909.425 55.733 Q908.472 55.733 907.894 56.265 Q907.316 56.796 907.316 57.733 L905.957 57.733 Q906.097 56.265 907.003 55.499 Q907.910 54.733 909.441 54.733 Q910.988 54.733 911.886 55.624 Q912.785 56.515 912.785 57.843 Q912.785 58.515 912.519 59.163 Q912.253 59.811 911.644 60.530 Q911.035 61.249 909.613 62.530 Q908.425 63.593 908.089 63.968 Q907.753 64.343 907.535 64.733 L912.800 64.733 Z"/>
  <path d="M915.832 60.733 L915.832 55.811 Q915.082 56.468 914.191 56.733 L914.191 55.733 Q914.644 55.624 915.207 55.343 Q915.769 55.061 916.113 54.733 L916.894 54.733 L916.894 60.733 L915.832 60.733 Z"/>
  <path d="M920.722 60.733 L920.722 55.811 Q919.972 56.468 919.082 56.733 L919.082 55.733 Q919.535 55.624 920.097 55.343 Q920.660 55.061 921.003 54.733 L921.785 54.733 L921.785 60.733 L920.722 60.733 Z"/>
  <path d="M993.245 64.733 L993.245 65.733 L986.151 65.733 Q986.135 65.343 986.307 64.968 Q986.573 64.358 987.174 63.772 Q987.776 63.186 988.901 62.124 Q990.651 60.468 991.268 59.538 Q991.885 58.608 991.885 57.796 Q991.885 56.921 991.323 56.327 Q990.760 55.733 989.870 55.733 Q988.917 55.733 988.339 56.265 Q987.760 56.796 987.760 57.733 L986.401 57.733 Q986.542 56.265 987.448 55.499 Q988.354 54.733 989.885 54.733 Q991.432 54.733 992.331 55.624 Q993.229 56.515 993.229 57.843 Q993.229 58.515 992.964 59.163 Q992.698 59.811 992.089 60.530 Q991.479 61.249 990.057 62.530 Q988.870 63.593 988.534 63.968 Q988.198 64.343 987.979 64.733 L993.245 64.733 Z"/>
  <path d="M996.276 60.733 L996.276 55.811 Q995.526 56.468 994.635 56.733 L994.635 55.733 Q995.089 55.624 995.651 55.343 Q996.214 55.061 996.557 54.733 L997.339 54.733 L997.339 60.733 L996.276 60.733 Z"/>
  <path d="M998.932 60.733 Q998.979 60.280 999.276 59.827 Q999.729 59.155 1000.784 58.327 Q1001.839 57.499 1002.042 57.265 Q1002.307 56.936 1002.307 56.608 Q1002.307 56.218 1002.049 55.976 Q1001.792 55.733 1001.292 55.733 Q1000.807 55.733 1000.573 55.936 Q1000.339 56.140 1000.182 56.733 L999.089 56.733 Q999.307 55.702 999.831 55.218 Q1000.354 54.733 1001.323 54.733 Q1002.432 54.733 1002.948 55.202 Q1003.464 55.671 1003.464 56.358 Q1003.464 57.015 1003.026 57.624 Q1002.698 58.061 1001.526 58.983 Q1000.917 59.452 1000.667 59.733 L1003.495 59.733 L1003.495 60.733 L998.932 60.733 Z"/>
</svg>
