<?xml version="1.0" encoding="UTF-8" ?>
<!-- Generated by clip v0.7.0 (clip-lang.org) -->
<svg xmlns="http://www.w3.org/2000/svg" width="1024.000000" height="80.000000">
  <rect width="1024.000000" height="80.000000" fill="#ffffff" fill-opacity="1.000000"/>
  <path d="M29.3333 40 L994.667 40 " fill="none" stroke-width="1.333333" stroke="#000000ff"/>
  <path d="M29.3333 42.6667 L29.3333 37.3333 " fill="none" stroke-width="1.333333" stroke="#000000ff"/>
  <path d="M117.091 42.6667 L117.091 37.3333 " fill="none" stroke-width="1.333333" stroke="#000000ff"/>
  <path d="M204.848 42.6667 L204.848 37.3333 " fill="none" stroke-width="1.333333" stroke="#000000ff"/>
  <path d="M292.606 42.6667 L292.606 37.3333 " fill="none" stroke-width="1.333333" stroke="#000000ff"/>
  <path d="M380.364 42.6667 L380.364 37.3333 " fill="none" stroke-width="1.333333" stroke="#000000ff"/>
  <path d="M468.121 42.6667 L468.121 37.3333 " fill="none" stroke-width="1.333333" stroke="#000000ff"/>
  <path d="M555.879 42.6667 L555.879 37.3333 " fill="none" stroke-width="1.333333" stroke="#000000ff"/>
  <path d="M643.636 42.6667 L643.636 37.3333 " fill="none" stroke-width="1.333333" stroke="#000000ff"/>
  <path d="M731.394 42.6667 L731.394 37.3333 " fill="none" stroke-width="1.333333" stroke="#000000ff"/>
  <path d="M819.152 42.6667 L819.152 37.3333 " fill="none" stroke-width="1.333333" stroke="#000000ff"/>
  <path d="M906.909 42.6667 L906.909 37.3333 " fill="none" stroke-width="1.333333" stroke="#000000ff"/>
  <path d="M994.667 42.6667 L994.667 37.3333 " fill="none" stroke-width="1.333333" stroke="#000000ff"/>
  <path d="M1.41146 60.2333 Q1.41146 58.3271 1.80208 57.163 Q2.19271 55.999 2.96615 55.3661 Q3.73958 54.7333 4.91146 54.7333 Q5.77083 54.7333 6.42708 55.0849 Q7.08333 55.4365 7.50521 56.0927 Q7.92708 56.749 8.16927 57.6943 Q8.41146 58.6396 8.41146 60.2333 Q8.41146 62.1396 8.02083 63.3036 Q7.63021 64.4677 6.85677 65.1005 Q6.08333 65.7333 4.91146 65.7333 Q3.36458 65.7333 2.47396 64.624 Q1.41146 63.2646 1.41146 60.2333 ZM2.77083 60.2333 Q2.77083 62.9365 3.38802 63.8349 Q4.00521 64.7333 4.91146 64.7333 Q5.81771 64.7333 6.4349 63.8349 Q7.05208 62.9365 7.05208 60.2333 Q7.05208 57.5146 6.4349 56.624 Q5.81771 55.7333 4.89583 55.7333 Q3.98958 55.7333 3.44271 56.5146 Q2.77083 57.5302 2.77083 60.2333 Z" fill="#000000" fill-opacity="1.000000"/>
  <path d="M9.56771 60.2333 Q9.56771 58.3271 9.95833 57.163 Q10.349 55.999 11.1224 55.3661 Q11.8958 54.7333 13.0677 54.7333 Q13.9271 54.7333 14.5833 55.0849 Q15.2396 55.4365 15.6615 56.0927 Q16.0833 56.749 16.3255 57.6943 Q16.5677 58.6396 16.5677 60.2333 Q16.5677 62.1396 16.1771 63.3036 Q15.7865 64.4677 15.013 65.1005 Q14.2396 65.7333 13.0677 65.7333 Q11.5208 65.7333 10.6302 64.624 Q9.56771 63.2646 9.56771 60.2333 ZM10.9271 60.2333 Q10.9271 62.9365 11.5443 63.8349 Q12.1615 64.7333 13.0677 64.7333 Q13.974 64.7333 14.5911 63.8349 Q15.2083 62.9365 15.2083 60.2333 Q15.2083 57.5146 14.5911 56.624 Q13.974 55.7333 13.0521 55.7333 Q12.1458 55.7333 11.599 56.5146 Q10.9271 57.5302 10.9271 60.2333 Z" fill="#000000" fill-opacity="1.000000"/>
  <path d="M18.4583 58.7333 L18.4583 57.7333 L19.9583 57.7333 L19.9583 58.7333 L18.4583 58.7333 ZM18.4583 65.7333 L18.4583 64.7333 L19.9583 64.7333 L19.9583 65.7333 L18.4583 65.7333 Z" fill="#000000" fill-opacity="1.000000"/>
  <path d="M21.8021 60.2333 Q21.8021 58.3271 22.1927 57.163 Q22.5833 55.999 23.3568 55.3661 Q24.1302 54.7333 25.3021 54.7333 Q26.1615 54.7333 26.8177 55.0849 Q27.474 55.4365 27.8958 56.0927 Q28.3177 56.749 28.5599 57.6943 Q28.8021 58.6396 28.8021 60.2333 Q28.8021 62.1396 28.4115 63.3036 Q28.0208 64.4677 27.2474 65.1005 Q26.474 65.7333 25.3021 65.7333 Q23.7552 65.7333 22.8646 64.624 Q21.8021 63.2646 21.8021 60.2333 ZM23.1615 60.2333 Q23.1615 62.9365 23.7786 63.8349 Q24.3958 64.7333 25.3021 64.7333 Q26.2083 64.7333 26.8255 63.8349 Q27.4427 62.9365 27.4427 60.2333 Q27.4427 57.5146 26.8255 56.624 Q26.2083 55.7333 25.2865 55.7333 Q24.3802 55.7333 23.8333 56.5146 Q23.1615 57.5302 23.1615 60.2333 Z" fill="#000000" fill-opacity="1.000000"/>
  <path d="M29.9583 60.2333 Q29.9583 58.3271 30.349 57.163 Q30.7396 55.999 31.513 55.3661 Q32.2865 54.7333 33.4583 54.7333 Q34.3177 54.7333 34.974 55.0849 Q35.6302 55.4365 36.0521 56.0927 Q36.474 56.749 36.7161 57.6943 Q36.9583 58.6396 36.9583 60.2333 Q36.9583 62.1396 36.5677 63.3036 Q36.1771 64.4677 35.4036 65.1005 Q34.6302 65.7333 33.4583 65.7333 Q31.9115 65.7333 31.0208 64.624 Q29.9583 63.2646 29.9583 60.2333 ZM31.3177 60.2333 Q31.3177 62.9365 31.9349 63.8349 Q32.5521 64.7333 33.4583 64.7333 Q34.3646 64.7333 34.9818 63.8349 Q35.599 62.9365 35.599 60.2333 Q35.599 57.5146 34.9818 56.624 Q34.3646 55.7333 33.4427 55.7333 Q32.5365 55.7333 31.9896 56.5146 Q31.3177 57.5302 31.3177 60.2333 Z" fill="#000000" fill-opacity="1.000000"/>
  <path d="M38.849 58.7333 L38.849 57.7333 L40.349 57.7333 L40.349 58.7333 L38.849 58.7333 ZM38.849 65.7333 L38.849 64.7333 L40.349 64.7333 L40.349 65.7333 L38.849 65.7333 Z" fill="#000000" fill-opacity="1.000000"/>
  <path d="M42.1927 60.2333 Q42.1927 58.3271 42.5833 57.163 Q42.974 55.999 43.7474 55.3661 Q44.5208 54.7333 45.6927 54.7333 Q46.5521 54.7333 47.2083 55.0849 Q47.8646 55.4365 48.2865 56.0927 Q48.7083 56.749 48.9505 57.6943 Q49.1927 58.6396 49.1927 60.2333 Q49.1927 62.1396 48.8021 63.3036 Q48.4115 64.4677 47.638 65.1005 Q46.8646 65.7333 45.6927 65.7333 Q44.1458 65.7333 43.2552 64.624 Q42.1927 63.2646 42.1927 60.2333 ZM43.5521 60.2333 Q43.5521 62.9365 44.1693 63.8349 Q44.7865 64.7333 45.6927 64.7333 Q46.599 64.7333 47.2161 63.8349 Q47.8333 62.9365 47.8333 60.2333 Q47.8333 57.5146 47.2161 56.624 Q46.599 55.7333 45.6771 55.7333 Q44.7708 55.7333 44.224 56.5146 Q43.5521 57.5302 43.5521 60.2333 Z" fill="#000000" fill-opacity="1.000000"/>
  <path d="M50.349 60.2333 Q50.349 58.3271 50.7396 57.163 Q51.1302 55.999 51.9036 55.3661 Q52.6771 54.7333 53.849 54.7333 Q54.7083 54.7333 55.3646 55.0849 Q56.0208 55.4365 56.4427 56.0927 Q56.8646 56.749 57.1068 57.6943 Q57.349 58.6396 57.349 60.2333 Q57.349 62.1396 56.9583 63.3036 Q56.5677 64.4677 55.7943 65.1005 Q55.0208 65.7333 53.849 65.7333 Q52.3021 65.7333 51.4115 64.624 Q50.349 63.2646 50.349 60.2333 ZM51.7083 60.2333 Q51.7083 62.9365 52.3255 63.8349 Q52.9427 64.7333 53.849 64.7333 Q54.7552 64.7333 55.3724 63.8349 Q55.9896 62.9365 55.9896 60.2333 Q55.9896 57.5146 55.3724 56.624 Q54.7552 55.7333 53.8333 55.7333 Q52.9271 55.7333 52.3802 56.5146 Q51.7083 57.5302 51.7083 60.2333 Z" fill="#000000" fill-opacity="1.000000"/>
  <path d="M89.169 60.2333 Q89.169 58.3271 89.5597 57.163 Q89.9503 55.999 90.7237 55.3661 Q91.4972 54.7333 92.669 54.7333 Q93.5284 54.7333 94.1847 55.0849 Q94.8409 55.4365 95.2628 56.0927 Q95.6847 56.749 95.9268 57.6943 Q96.169 58.6396 96.169 60.2333 Q96.169 62.1396 95.7784 63.3036 Q95.3878 64.4677 94.6143 65.1005 Q93.8409 65.7333 92.669 65.7333 Q91.1222 65.7333 90.2315 64.624 Q89.169 63.2646 89.169 60.2333 ZM90.5284 60.2333 Q90.5284 62.9365 91.1456 63.8349 Q91.7628 64.7333 92.669 64.7333 Q93.5753 64.7333 94.1925 63.8349 Q94.8097 62.9365 94.8097 60.2333 Q94.8097 57.5146 94.1925 56.624 Q93.5753 55.7333 92.6534 55.7333 Q91.7472 55.7333 91.2003 56.5146 Q90.5284 57.5302 90.5284 60.2333 Z" fill="#000000" fill-opacity="1.000000"/>
  <path d="M104.247 64.7333 L104.247 65.7333 L97.1534 65.7333 Q97.1378 65.3427 97.3097 64.9677 Q97.5753 64.3583 98.1768 63.7724 Q98.7784 63.1865 99.9034 62.124 Q101.653 60.4677 102.271 59.538 Q102.888 58.6083 102.888 57.7958 Q102.888 56.9208 102.325 56.3271 Q101.763 55.7333 100.872 55.7333 Q99.919 55.7333 99.3409 56.2646 Q98.7628 56.7958 98.7628 57.7333 L97.4034 57.7333 Q97.544 56.2646 98.4503 55.499 Q99.3565 54.7333 100.888 54.7333 Q102.435 54.7333 103.333 55.624 Q104.232 56.5146 104.232 57.8427 Q104.232 58.5146 103.966 59.163 Q103.7 59.8115 103.091 60.5302 Q102.482 61.249 101.06 62.5302 Q99.8722 63.5927 99.5362 63.9677 Q99.2003 64.3427 98.9815 64.7333 L104.247 64.7333 Z" fill="#000000" fill-opacity="1.000000"/>
  <path d="M106.216 58.7333 L106.216 57.7333 L107.716 57.7333 L107.716 58.7333 L106.216 58.7333 ZM106.216 65.7333 L106.216 64.7333 L107.716 64.7333 L107.716 65.7333 L106.216 65.7333 Z" fill="#000000" fill-opacity="1.000000"/>
  <path d="M109.56 60.2333 Q109.56 58.3271 109.95 57.163 Q110.341 55.999 111.114 55.3661 Q111.888 54.7333 113.06 54.7333 Q113.919 54.7333 114.575 55.0849 Q115.232 55.4365 115.653 56.0927 Q116.075 56.749 116.317 57.6943 Q116.56 58.6396 116.56 60.2333 Q116.56 62.1396 116.169 63.3036 Q115.778 64.4677 115.005 65.1005 Q114.232 65.7333 113.06 65.7333 Q111.513 65.7333 110.622 64.624 Q109.56 63.2646 109.56 60.2333 ZM110.919 60.2333 Q110.919 62.9365 111.536 63.8349 Q112.153 64.7333 113.06 64.7333 Q113.966 64.7333 114.583 63.8349 Q115.2 62.9365 115.2 60.2333 Q115.2 57.5146 114.583 56.624 Q113.966 55.7333 113.044 55.7333 Q112.138 55.7333 111.591 56.5146 Q110.919 57.5302 110.919 60.2333 Z" fill="#000000" fill-opacity="1.000000"/>
  <path d="M117.716 60.2333 Q117.716 58.3271 118.107 57.163 Q118.497 55.999 119.271 55.3661 Q120.044 54.7333 121.216 54.7333 Q122.075 54.7333 122.732 55.0849 Q123.388 55.4365 123.81 56.0927 Q124.232 56.749 124.474 57.6943 Q124.716 58.6396 124.716 60.2333 Q124.716 62.1396 124.325 63.3036 Q123.935 64.4677 123.161 65.1005 Q122.388 65.7333 121.216 65.7333 Q119.669 65.7333 118.778 64.624 Q117.716 63.2646 117.716 60.2333 ZM119.075 60.2333 Q119.075 62.9365 119.692 63.8349 Q120.31 64.7333 121.216 64.7333 Q122.122 64.7333 122.739 63.8349 Q123.357 62.9365 123.357 60.2333 Q123.357 57.5146 122.739 56.624 Q122.122 55.7333 121.2 55.7333 Q120.294 55.7333 119.747 56.5146 Q119.075 57.5302 119.075 60.2333 Z" fill="#000000" fill-opacity="1.000000"/>
  <path d="M126.607 58.7333 L126.607 57.7333 L128.107 57.7333 L128.107 58.7333 L126.607 58.7333 ZM126.607 65.7333 L126.607 64.7333 L128.107 64.7333 L128.107 65.7333 L126.607 65.7333 Z" fill="#000000" fill-opacity="1.000000"/>
  <path d="M129.95 60.2333 Q129.95 58.3271 130.341 57.163 Q130.732 55.999 131.505 55.3661 Q132.278 54.7333 133.45 54.7333 Q134.31 54.7333 134.966 55.0849 Q135.622 55.4365 136.044 56.0927 Q136.466 56.749 136.708 57.6943 Q136.95 58.6396 136.95 60.2333 Q136.95 62.1396 136.56 63.3036 Q136.169 64.4677 135.396 65.1005 Q134.622 65.7333 133.45 65.7333 Q131.903 65.7333 131.013 64.624 Q129.95 63.2646 129.95 60.2333 ZM131.31 60.2333 Q131.31 62.9365 131.927 63.8349 Q132.544 64.7333 133.45 64.7333 Q134.357 64.7333 134.974 63.8349 Q135.591 62.9365 135.591 60.2333 Q135.591 57.5146 134.974 56.624 Q134.357 55.7333 133.435 55.7333 Q132.528 55.7333 131.982 56.5146 Q131.31 57.5302 131.31 60.2333 Z" fill="#000000" fill-opacity="1.000000"/>
  <path d="M138.107 60.2333 Q138.107 58.3271 138.497 57.163 Q138.888 55.999 139.661 55.3661 Q140.435 54.7333 141.607 54.7333 Q142.466 54.7333 143.122 55.0849 Q143.778 55.4365 144.2 56.0927 Q144.622 56.749 144.864 57.6943 Q145.107 58.6396 145.107 60.2333 Q145.107 62.1396 144.716 63.3036 Q144.325 64.4677 143.552 65.1005 Q142.778 65.7333 141.607 65.7333 Q140.06 65.7333 139.169 64.624 Q138.107 63.2646 138.107 60.2333 ZM139.466 60.2333 Q139.466 62.9365 140.083 63.8349 Q140.7 64.7333 141.607 64.7333 Q142.513 64.7333 143.13 63.8349 Q143.747 62.9365 143.747 60.2333 Q143.747 57.5146 143.13 56.624 Q142.513 55.7333 141.591 55.7333 Q140.685 55.7333 140.138 56.5146 Q139.466 57.5302 139.466 60.2333 Z" fill="#000000" fill-opacity="1.000000"/>
  <path d="M176.927 60.2333 Q176.927 58.3271 177.317 57.163 Q177.708 55.999 178.481 55.3661 Q179.255 54.7333 180.427 54.7333 Q181.286 54.7333 181.942 55.0849 Q182.598 55.4365 183.02 56.0927 Q183.442 56.749 183.684 57.6943 Q183.927 58.6396 183.927 60.2333 Q183.927 62.1396 183.536 63.3036 Q183.145 64.4677 182.372 65.1005 Q181.598 65.7333 180.427 65.7333 Q178.88 65.7333 177.989 64.624 Q176.927 63.2646 176.927 60.2333 ZM178.286 60.2333 Q178.286 62.9365 178.903 63.8349 Q179.52 64.7333 180.427 64.7333 Q181.333 64.7333 181.95 63.8349 Q182.567 62.9365 182.567 60.2333 Q182.567 57.5146 181.95 56.624 Q181.333 55.7333 180.411 55.7333 Q179.505 55.7333 178.958 56.5146 Q178.286 57.5302 178.286 60.2333 Z" fill="#000000" fill-opacity="1.000000"/>
  <path d="M189.302 65.7333 L189.302 62.7333 L184.645 62.7333 L184.645 61.7333 L189.552 54.7333 L190.63 54.7333 L190.63 61.7333 L192.083 61.7333 L192.083 62.7333 L190.63 62.7333 L190.63 65.7333 L189.302 65.7333 ZM189.302 61.7333 L189.302 56.9365 L185.942 61.7333 L189.302 61.7333 Z" fill="#000000" fill-opacity="1.000000"/>
  <path d="M193.973 58.7333 L193.973 57.7333 L195.473 57.7333 L195.473 58.7333 L193.973 58.7333 ZM193.973 65.7333 L193.973 64.7333 L195.473 64.7333 L195.473 65.7333 L193.973 65.7333 Z" fill="#000000" fill-opacity="1.000000"/>
  <path d="M197.317 60.2333 Q197.317 58.3271 197.708 57.163 Q198.098 55.999 198.872 55.3661 Q199.645 54.7333 200.817 54.7333 Q201.677 54.7333 202.333 55.0849 Q202.989 55.4365 203.411 56.0927 Q203.833 56.749 204.075 57.6943 Q204.317 58.6396 204.317 60.2333 Q204.317 62.1396 203.927 63.3036 Q203.536 64.4677 202.763 65.1005 Q201.989 65.7333 200.817 65.7333 Q199.27 65.7333 198.38 64.624 Q197.317 63.2646 197.317 60.2333 ZM198.677 60.2333 Q198.677 62.9365 199.294 63.8349 Q199.911 64.7333 200.817 64.7333 Q201.723 64.7333 202.341 63.8349 Q202.958 62.9365 202.958 60.2333 Q202.958 57.5146 202.341 56.624 Q201.723 55.7333 200.802 55.7333 Q199.895 55.7333 199.348 56.5146 Q198.677 57.5302 198.677 60.2333 Z" fill="#000000" fill-opacity="1.000000"/>
  <path d="M205.473 60.2333 Q205.473 58.3271 205.864 57.163 Q206.255 55.999 207.028 55.3661 Q207.802 54.7333 208.973 54.7333 Q209.833 54.7333 210.489 55.0849 Q211.145 55.4365 211.567 56.0927 Q211.989 56.749 212.231 57.6943 Q212.473 58.6396 212.473 60.2333 Q212.473 62.1396 212.083 63.3036 Q211.692 64.4677 210.919 65.1005 Q210.145 65.7333 208.973 65.7333 Q207.427 65.7333 206.536 64.624 Q205.473 63.2646 205.473 60.2333 ZM206.833 60.2333 Q206.833 62.9365 207.45 63.8349 Q208.067 64.7333 208.973 64.7333 Q209.88 64.7333 210.497 63.8349 Q211.114 62.9365 211.114 60.2333 Q211.114 57.5146 210.497 56.624 Q209.88 55.7333 208.958 55.7333 Q208.052 55.7333 207.505 56.5146 Q206.833 57.5302 206.833 60.2333 Z" fill="#000000" fill-opacity="1.000000"/>
  <path d="M214.364 58.7333 L214.364 57.7333 L215.864 57.7333 L215.864 58.7333 L214.364 58.7333 ZM214.364 65.7333 L214.364 64.7333 L215.864 64.7333 L215.864 65.7333 L214.364 65.7333 Z" fill="#000000" fill-opacity="1.000000"/>
  <path d="M217.708 60.2333 Q217.708 58.3271 218.098 57.163 Q218.489 55.999 219.263 55.3661 Q220.036 54.7333 221.208 54.7333 Q222.067 54.7333 222.723 55.0849 Q223.38 55.4365 223.802 56.0927 Q224.223 56.749 224.466 57.6943 Q224.708 58.6396 224.708 60.2333 Q224.708 62.1396 224.317 63.3036 Q223.927 64.4677 223.153 65.1005 Q222.38 65.7333 221.208 65.7333 Q219.661 65.7333 218.77 64.624 Q217.708 63.2646 217.708 60.2333 ZM219.067 60.2333 Q219.067 62.9365 219.684 63.8349 Q220.302 64.7333 221.208 64.7333 Q222.114 64.7333 222.731 63.8349 Q223.348 62.9365 223.348 60.2333 Q223.348 57.5146 222.731 56.624 Q222.114 55.7333 221.192 55.7333 Q220.286 55.7333 219.739 56.5146 Q219.067 57.5302 219.067 60.2333 Z" fill="#000000" fill-opacity="1.000000"/>
  <path d="M225.864 60.2333 Q225.864 58.3271 226.255 57.163 Q226.645 55.999 227.419 55.3661 Q228.192 54.7333 229.364 54.7333 Q230.223 54.7333 230.88 55.0849 Q231.536 55.4365 231.958 56.0927 Q232.38 56.749 232.622 57.6943 Q232.864 58.6396 232.864 60.2333 Q232.864 62.1396 232.473 63.3036 Q232.083 64.4677 231.309 65.1005 Q230.536 65.7333 229.364 65.7333 Q227.817 65.7333 226.927 64.624 Q225.864 63.2646 225.864 60.2333 ZM227.223 60.2333 Q227.223 62.9365 227.841 63.8349 Q228.458 64.7333 229.364 64.7333 Q230.27 64.7333 230.888 63.8349 Q231.505 62.9365 231.505 60.2333 Q231.505 57.5146 230.888 56.624 Q230.27 55.7333 229.348 55.7333 Q228.442 55.7333 227.895 56.5146 Q227.223 57.5302 227.223 60.2333 Z" fill="#000000" fill-opacity="1.000000"/>
  <path d="M264.684 60.2333 Q264.684 58.3271 265.075 57.163 Q265.465 55.999 266.239 55.3661 Q267.012 54.7333 268.184 54.7333 Q269.044 54.7333 269.7 55.0849 Q270.356 55.4365 270.778 56.0927 Q271.2 56.749 271.442 57.6943 Q271.684 58.6396 271.684 60.2333 Q271.684 62.1396 271.294 63.3036 Q270.903 64.4677 270.129 65.1005 Q269.356 65.7333 268.184 65.7333 Q266.637 65.7333 265.747 64.624 Q264.684 63.2646 264.684 60.2333 ZM266.044 60.2333 Q266.044 62.9365 266.661 63.8349 Q267.278 64.7333 268.184 64.7333 Q269.09 64.7333 269.708 63.8349 Q270.325 62.9365 270.325 60.2333 Q270.325 57.5146 269.708 56.624 Q269.09 55.7333 268.169 55.7333 Q267.262 55.7333 266.715 56.5146 Q266.044 57.5302 266.044 60.2333 Z" fill="#000000" fill-opacity="1.000000"/>
  <path d="M279.684 57.7333 L278.372 57.7333 Q278.2 56.8115 277.872 56.4052 Q277.34 55.7333 276.559 55.7333 Q275.919 55.7333 275.45 56.124 Q274.825 56.624 274.465 57.5771 Q274.106 58.5302 274.09 60.1708 Q274.559 59.4365 275.254 59.0849 Q275.95 58.7333 276.7 58.7333 Q278.012 58.7333 278.942 59.6865 Q279.872 60.6396 279.872 62.1396 Q279.872 63.124 279.434 63.9755 Q278.997 64.8271 278.239 65.2802 Q277.481 65.7333 276.512 65.7333 Q274.856 65.7333 273.817 64.5146 Q272.778 63.2958 272.778 60.5146 Q272.778 57.3896 273.934 55.9677 Q274.934 54.7333 276.637 54.7333 Q277.903 54.7333 278.715 55.5302 Q279.528 56.3271 279.684 57.7333 ZM274.294 62.1083 Q274.294 62.7958 274.583 63.4286 Q274.872 64.0615 275.395 64.3974 Q275.919 64.7333 276.481 64.7333 Q277.325 64.7333 277.926 64.0458 Q278.528 63.3583 278.528 62.1708 Q278.528 61.0458 277.934 60.3896 Q277.34 59.7333 276.434 59.7333 Q275.544 59.7333 274.919 60.3896 Q274.294 61.0458 274.294 62.1083 Z" fill="#000000" fill-opacity="1.000000"/>
  <path d="M281.731 58.7333 L281.731 57.7333 L283.231 57.7333 L283.231 58.7333 L281.731 58.7333 ZM281.731 65.7333 L281.731 64.7333 L283.231 64.7333 L283.231 65.7333 L281.731 65.7333 Z" fill="#000000" fill-opacity="1.000000"/>
  <path d="M285.075 60.2333 Q285.075 58.3271 285.465 57.163 Q285.856 55.999 286.629 55.3661 Q287.403 54.7333 288.575 54.7333 Q289.434 54.7333 290.09 55.0849 Q290.747 55.4365 291.169 56.0927 Q291.59 56.749 291.833 57.6943 Q292.075 58.6396 292.075 60.2333 Q292.075 62.1396 291.684 63.3036 Q291.294 64.4677 290.52 65.1005 Q289.747 65.7333 288.575 65.7333 Q287.028 65.7333 286.137 64.624 Q285.075 63.2646 285.075 60.2333 ZM286.434 60.2333 Q286.434 62.9365 287.051 63.8349 Q287.669 64.7333 288.575 64.7333 Q289.481 64.7333 290.098 63.8349 Q290.715 62.9365 290.715 60.2333 Q290.715 57.5146 290.098 56.624 Q289.481 55.7333 288.559 55.7333 Q287.653 55.7333 287.106 56.5146 Q286.434 57.5302 286.434 60.2333 Z" fill="#000000" fill-opacity="1.000000"/>
  <path d="M293.231 60.2333 Q293.231 58.3271 293.622 57.163 Q294.012 55.999 294.786 55.3661 Q295.559 54.7333 296.731 54.7333 Q297.59 54.7333 298.247 55.0849 Q298.903 55.4365 299.325 56.0927 Q299.747 56.749 299.989 57.6943 Q300.231 58.6396 300.231 60.2333 Q300.231 62.1396 299.84 63.3036 Q299.45 64.4677 298.676 65.1005 Q297.903 65.7333 296.731 65.7333 Q295.184 65.7333 294.294 64.624 Q293.231 63.2646 293.231 60.2333 ZM294.59 60.2333 Q294.59 62.9365 295.208 63.8349 Q295.825 64.7333 296.731 64.7333 Q297.637 64.7333 298.254 63.8349 Q298.872 62.9365 298.872 60.2333 Q298.872 57.5146 298.254 56.624 Q297.637 55.7333 296.715 55.7333 Q295.809 55.7333 295.262 56.5146 Q294.59 57.5302 294.59 60.2333 Z" fill="#000000" fill-opacity="1.000000"/>
  <path d="M302.122 58.7333 L302.122 57.7333 L303.622 57.7333 L303.622 58.7333 L302.122 58.7333 ZM302.122 65.7333 L302.122 64.7333 L303.622 64.7333 L303.622 65.7333 L302.122 65.7333 Z" fill="#000000" fill-opacity="1.000000"/>
  <path d="M305.465 60.2333 Q305.465 58.3271 305.856 57.163 Q306.247 55.999 307.02 55.3661 Q307.794 54.7333 308.965 54.7333 Q309.825 54.7333 310.481 55.0849 Q311.137 55.4365 311.559 56.0927 Q311.981 56.749 312.223 57.6943 Q312.465 58.6396 312.465 60.2333 Q312.465 62.1396 312.075 63.3036 Q311.684 64.4677 310.911 65.1005 Q310.137 65.7333 308.965 65.7333 Q307.419 65.7333 306.528 64.624 Q305.465 63.2646 305.465 60.2333 ZM306.825 60.2333 Q306.825 62.9365 307.442 63.8349 Q308.059 64.7333 308.965 64.7333 Q309.872 64.7333 310.489 63.8349 Q311.106 62.9365 311.106 60.2333 Q311.106 57.5146 310.489 56.624 Q309.872 55.7333 308.95 55.7333 Q308.044 55.7333 307.497 56.5146 Q306.825 57.5302 306.825 60.2333 Z" fill="#000000" fill-opacity="1.000000"/>
  <path d="M313.622 60.2333 Q313.622 58.3271 314.012 57.163 Q314.403 55.999 315.176 55.3661 Q315.95 54.7333 317.122 54.7333 Q317.981 54.7333 318.637 55.0849 Q319.294 55.4365 319.715 56.0927 Q320.137 56.749 320.379 57.6943 Q320.622 58.6396 320.622 60.2333 Q320.622 62.1396 320.231 63.3036 Q319.84 64.4677 319.067 65.1005 Q318.294 65.7333 317.122 65.7333 Q315.575 65.7333 314.684 64.624 Q313.622 63.2646 313.622 60.2333 ZM314.981 60.2333 Q314.981 62.9365 315.598 63.8349 Q316.215 64.7333 317.122 64.7333 Q318.028 64.7333 318.645 63.8349 Q319.262 62.9365 319.262 60.2333 Q319.262 57.5146 318.645 56.624 Q318.028 55.7333 317.106 55.7333 Q316.2 55.7333 315.653 56.5146 Q314.981 57.5302 314.981 60.2333 Z" fill="#000000" fill-opacity="1.000000"/>
  <path d="M352.442 60.2333 Q352.442 58.3271 352.832 57.163 Q353.223 55.999 353.996 55.3661 Q354.77 54.7333 355.942 54.7333 Q356.801 54.7333 357.457 55.0849 Q358.114 55.4365 358.536 56.0927 Q358.957 56.749 359.2 57.6943 Q359.442 58.6396 359.442 60.2333 Q359.442 62.1396 359.051 63.3036 Q358.661 64.4677 357.887 65.1005 Q357.114 65.7333 355.942 65.7333 Q354.395 65.7333 353.504 64.624 Q352.442 63.2646 352.442 60.2333 ZM353.801 60.2333 Q353.801 62.9365 354.418 63.8349 Q355.036 64.7333 355.942 64.7333 Q356.848 64.7333 357.465 63.8349 Q358.082 62.9365 358.082 60.2333 Q358.082 57.5146 357.465 56.624 Q356.848 55.7333 355.926 55.7333 Q355.02 55.7333 354.473 56.5146 Q353.801 57.5302 353.801 60.2333 Z" fill="#000000" fill-opacity="1.000000"/>
  <path d="M362.629 60.2021 Q361.817 59.874 361.418 59.2568 Q361.02 58.6396 361.02 57.7802 Q361.02 56.499 361.864 55.6161 Q362.707 54.7333 364.098 54.7333 Q365.504 54.7333 366.364 55.6318 Q367.223 56.5302 367.223 57.8271 Q367.223 58.6552 366.825 59.2646 Q366.426 59.874 365.629 60.2021 Q366.629 60.499 367.145 61.163 Q367.661 61.8271 367.661 62.7333 Q367.661 63.999 366.684 64.8661 Q365.707 65.7333 364.129 65.7333 Q362.536 65.7333 361.559 64.8661 Q360.582 63.999 360.582 62.7021 Q360.582 61.7333 361.114 61.0849 Q361.645 60.4365 362.629 60.2021 ZM362.364 57.6865 Q362.364 58.5927 362.856 59.163 Q363.348 59.7333 364.129 59.7333 Q364.895 59.7333 365.379 59.163 Q365.864 58.5927 365.864 57.7646 Q365.864 56.9052 365.364 56.3193 Q364.864 55.7333 364.114 55.7333 Q363.364 55.7333 362.864 56.3036 Q362.364 56.874 362.364 57.6865 ZM361.942 62.7177 Q361.942 63.2333 362.207 63.7177 Q362.473 64.2021 362.996 64.4677 Q363.52 64.7333 364.129 64.7333 Q365.067 64.7333 365.684 64.1708 Q366.301 63.6083 366.301 62.749 Q366.301 61.874 365.668 61.3036 Q365.036 60.7333 364.082 60.7333 Q363.161 60.7333 362.551 61.2958 Q361.942 61.8583 361.942 62.7177 Z" fill="#000000" fill-opacity="1.000000"/>
  <path d="M369.489 58.7333 L369.489 57.7333 L370.989 57.7333 L370.989 58.7333 L369.489 58.7333 ZM369.489 65.7333 L369.489 64.7333 L370.989 64.7333 L370.989 65.7333 L369.489 65.7333 Z" fill="#000000" fill-opacity="1.000000"/>
  <path d="M372.832 60.2333 Q372.832 58.3271 373.223 57.163 Q373.614 55.999 374.387 55.3661 Q375.161 54.7333 376.332 54.7333 Q377.192 54.7333 377.848 55.0849 Q378.504 55.4365 378.926 56.0927 Q379.348 56.749 379.59 57.6943 Q379.832 58.6396 379.832 60.2333 Q379.832 62.1396 379.442 63.3036 Q379.051 64.4677 378.278 65.1005 Q377.504 65.7333 376.332 65.7333 Q374.786 65.7333 373.895 64.624 Q372.832 63.2646 372.832 60.2333 ZM374.192 60.2333 Q374.192 62.9365 374.809 63.8349 Q375.426 64.7333 376.332 64.7333 Q377.239 64.7333 377.856 63.8349 Q378.473 62.9365 378.473 60.2333 Q378.473 57.5146 377.856 56.624 Q377.239 55.7333 376.317 55.7333 Q375.411 55.7333 374.864 56.5146 Q374.192 57.5302 374.192 60.2333 Z" fill="#000000" fill-opacity="1.000000"/>
  <path d="M380.989 60.2333 Q380.989 58.3271 381.379 57.163 Q381.77 55.999 382.543 55.3661 Q383.317 54.7333 384.489 54.7333 Q385.348 54.7333 386.004 55.0849 Q386.661 55.4365 387.082 56.0927 Q387.504 56.749 387.746 57.6943 Q387.989 58.6396 387.989 60.2333 Q387.989 62.1396 387.598 63.3036 Q387.207 64.4677 386.434 65.1005 Q385.661 65.7333 384.489 65.7333 Q382.942 65.7333 382.051 64.624 Q380.989 63.2646 380.989 60.2333 ZM382.348 60.2333 Q382.348 62.9365 382.965 63.8349 Q383.582 64.7333 384.489 64.7333 Q385.395 64.7333 386.012 63.8349 Q386.629 62.9365 386.629 60.2333 Q386.629 57.5146 386.012 56.624 Q385.395 55.7333 384.473 55.7333 Q383.567 55.7333 383.02 56.5146 Q382.348 57.5302 382.348 60.2333 Z" fill="#000000" fill-opacity="1.000000"/>
  <path d="M389.879 58.7333 L389.879 57.7333 L391.379 57.7333 L391.379 58.7333 L389.879 58.7333 ZM389.879 65.7333 L389.879 64.7333 L391.379 64.7333 L391.379 65.7333 L389.879 65.7333 Z" fill="#000000" fill-opacity="1.000000"/>
  <path d="M393.223 60.2333 Q393.223 58.3271 393.614 57.163 Q394.004 55.999 394.778 55.3661 Q395.551 54.7333 396.723 54.7333 Q397.582 54.7333 398.239 55.0849 Q398.895 55.4365 399.317 56.0927 Q399.739 56.749 399.981 57.6943 Q400.223 58.6396 400.223 60.2333 Q400.223 62.1396 399.832 63.3036 Q399.442 64.4677 398.668 65.1005 Q397.895 65.7333 396.723 65.7333 Q395.176 65.7333 394.286 64.624 Q393.223 63.2646 393.223 60.2333 ZM394.582 60.2333 Q394.582 62.9365 395.2 63.8349 Q395.817 64.7333 396.723 64.7333 Q397.629 64.7333 398.246 63.8349 Q398.864 62.9365 398.864 60.2333 Q398.864 57.5146 398.246 56.624 Q397.629 55.7333 396.707 55.7333 Q395.801 55.7333 395.254 56.5146 Q394.582 57.5302 394.582 60.2333 Z" fill="#000000" fill-opacity="1.000000"/>
  <path d="M401.379 60.2333 Q401.379 58.3271 401.77 57.163 Q402.161 55.999 402.934 55.3661 Q403.707 54.7333 404.879 54.7333 Q405.739 54.7333 406.395 55.0849 Q407.051 55.4365 407.473 56.0927 Q407.895 56.749 408.137 57.6943 Q408.379 58.6396 408.379 60.2333 Q408.379 62.1396 407.989 63.3036 Q407.598 64.4677 406.825 65.1005 Q406.051 65.7333 404.879 65.7333 Q403.332 65.7333 402.442 64.624 Q401.379 63.2646 401.379 60.2333 ZM402.739 60.2333 Q402.739 62.9365 403.356 63.8349 Q403.973 64.7333 404.879 64.7333 Q405.786 64.7333 406.403 63.8349 Q407.02 62.9365 407.02 60.2333 Q407.02 57.5146 406.403 56.624 Q405.786 55.7333 404.864 55.7333 Q403.957 55.7333 403.411 56.5146 Q402.739 57.5302 402.739 60.2333 Z" fill="#000000" fill-opacity="1.000000"/>
  <path d="M445.168 65.7333 L443.84 65.7333 L443.84 57.1552 Q443.371 57.624 442.598 58.0849 Q441.824 58.5458 441.215 58.7802 L441.215 57.4833 Q442.324 56.9521 443.145 56.1943 Q443.965 55.4365 444.309 54.7333 L445.168 54.7333 L445.168 65.7333 Z" fill="#000000" fill-opacity="1.000000"/>
  <path d="M448.356 60.2333 Q448.356 58.3271 448.746 57.163 Q449.137 55.999 449.91 55.3661 Q450.684 54.7333 451.856 54.7333 Q452.715 54.7333 453.371 55.0849 Q454.027 55.4365 454.449 56.0927 Q454.871 56.749 455.113 57.6943 Q455.356 58.6396 455.356 60.2333 Q455.356 62.1396 454.965 63.3036 Q454.574 64.4677 453.801 65.1005 Q453.027 65.7333 451.856 65.7333 Q450.309 65.7333 449.418 64.624 Q448.356 63.2646 448.356 60.2333 ZM449.715 60.2333 Q449.715 62.9365 450.332 63.8349 Q450.949 64.7333 451.856 64.7333 Q452.762 64.7333 453.379 63.8349 Q453.996 62.9365 453.996 60.2333 Q453.996 57.5146 453.379 56.624 Q452.762 55.7333 451.84 55.7333 Q450.934 55.7333 450.387 56.5146 Q449.715 57.5302 449.715 60.2333 Z" fill="#000000" fill-opacity="1.000000"/>
  <path d="M457.246 58.7333 L457.246 57.7333 L458.746 57.7333 L458.746 58.7333 L457.246 58.7333 ZM457.246 65.7333 L457.246 64.7333 L458.746 64.7333 L458.746 65.7333 L457.246 65.7333 Z" fill="#000000" fill-opacity="1.000000"/>
  <path d="M460.59 60.2333 Q460.59 58.3271 460.981 57.163 Q461.371 55.999 462.145 55.3661 Q462.918 54.7333 464.09 54.7333 Q464.949 54.7333 465.606 55.0849 Q466.262 55.4365 466.684 56.0927 Q467.106 56.749 467.348 57.6943 Q467.59 58.6396 467.59 60.2333 Q467.59 62.1396 467.199 63.3036 Q466.809 64.4677 466.035 65.1005 Q465.262 65.7333 464.09 65.7333 Q462.543 65.7333 461.652 64.624 Q460.59 63.2646 460.59 60.2333 ZM461.949 60.2333 Q461.949 62.9365 462.567 63.8349 Q463.184 64.7333 464.09 64.7333 Q464.996 64.7333 465.613 63.8349 Q466.231 62.9365 466.231 60.2333 Q466.231 57.5146 465.613 56.624 Q464.996 55.7333 464.074 55.7333 Q463.168 55.7333 462.621 56.5146 Q461.949 57.5302 461.949 60.2333 Z" fill="#000000" fill-opacity="1.000000"/>
  <path d="M468.746 60.2333 Q468.746 58.3271 469.137 57.163 Q469.527 55.999 470.301 55.3661 Q471.074 54.7333 472.246 54.7333 Q473.106 54.7333 473.762 55.0849 Q474.418 55.4365 474.84 56.0927 Q475.262 56.749 475.504 57.6943 Q475.746 58.6396 475.746 60.2333 Q475.746 62.1396 475.356 63.3036 Q474.965 64.4677 474.192 65.1005 Q473.418 65.7333 472.246 65.7333 Q470.699 65.7333 469.809 64.624 Q468.746 63.2646 468.746 60.2333 ZM470.106 60.2333 Q470.106 62.9365 470.723 63.8349 Q471.34 64.7333 472.246 64.7333 Q473.152 64.7333 473.77 63.8349 Q474.387 62.9365 474.387 60.2333 Q474.387 57.5146 473.77 56.624 Q473.152 55.7333 472.231 55.7333 Q471.324 55.7333 470.777 56.5146 Q470.106 57.5302 470.106 60.2333 Z" fill="#000000" fill-opacity="1.000000"/>
  <path d="M477.637 58.7333 L477.637 57.7333 L479.137 57.7333 L479.137 58.7333 L477.637 58.7333 ZM477.637 65.7333 L477.637 64.7333 L479.137 64.7333 L479.137 65.7333 L477.637 65.7333 Z" fill="#000000" fill-opacity="1.000000"/>
  <path d="M480.981 60.2333 Q480.981 58.3271 481.371 57.163 Q481.762 55.999 482.535 55.3661 Q483.309 54.7333 484.481 54.7333 Q485.34 54.7333 485.996 55.0849 Q486.652 55.4365 487.074 56.0927 Q487.496 56.749 487.738 57.6943 Q487.981 58.6396 487.981 60.2333 Q487.981 62.1396 487.59 63.3036 Q487.199 64.4677 486.426 65.1005 Q485.652 65.7333 484.481 65.7333 Q482.934 65.7333 482.043 64.624 Q480.981 63.2646 480.981 60.2333 ZM482.34 60.2333 Q482.34 62.9365 482.957 63.8349 Q483.574 64.7333 484.481 64.7333 Q485.387 64.7333 486.004 63.8349 Q486.621 62.9365 486.621 60.2333 Q486.621 57.5146 486.004 56.624 Q485.387 55.7333 484.465 55.7333 Q483.559 55.7333 483.012 56.5146 Q482.34 57.5302 482.34 60.2333 Z" fill="#000000" fill-opacity="1.000000"/>
  <path d="M489.137 60.2333 Q489.137 58.3271 489.527 57.163 Q489.918 55.999 490.692 55.3661 Q491.465 54.7333 492.637 54.7333 Q493.496 54.7333 494.152 55.0849 Q494.809 55.4365 495.231 56.0927 Q495.652 56.749 495.895 57.6943 Q496.137 58.6396 496.137 60.2333 Q496.137 62.1396 495.746 63.3036 Q495.356 64.4677 494.582 65.1005 Q493.809 65.7333 492.637 65.7333 Q491.09 65.7333 490.199 64.624 Q489.137 63.2646 489.137 60.2333 ZM490.496 60.2333 Q490.496 62.9365 491.113 63.8349 Q491.731 64.7333 492.637 64.7333 Q493.543 64.7333 494.16 63.8349 Q494.777 62.9365 494.777 60.2333 Q494.777 57.5146 494.16 56.624 Q493.543 55.7333 492.621 55.7333 Q491.715 55.7333 491.168 56.5146 Q490.496 57.5302 490.496 60.2333 Z" fill="#000000" fill-opacity="1.000000"/>
  <path d="M532.926 65.7333 L531.598 65.7333 L531.598 57.1552 Q531.129 57.624 530.355 58.0849 Q529.582 58.5458 528.973 58.7802 L528.973 57.4833 Q530.082 56.9521 530.902 56.1943 Q531.723 55.4365 532.066 54.7333 L532.926 54.7333 L532.926 65.7333 Z" fill="#000000" fill-opacity="1.000000"/>
  <path d="M543.035 64.7333 L543.035 65.7333 L535.941 65.7333 Q535.926 65.3427 536.098 64.9677 Q536.363 64.3583 536.965 63.7724 Q537.566 63.1865 538.691 62.124 Q540.441 60.4677 541.058 59.538 Q541.676 58.6083 541.676 57.7958 Q541.676 56.9208 541.113 56.3271 Q540.551 55.7333 539.66 55.7333 Q538.707 55.7333 538.129 56.2646 Q537.551 56.7958 537.551 57.7333 L536.191 57.7333 Q536.332 56.2646 537.238 55.499 Q538.144 54.7333 539.676 54.7333 Q541.223 54.7333 542.121 55.624 Q543.019 56.5146 543.019 57.8427 Q543.019 58.5146 542.754 59.163 Q542.488 59.8115 541.879 60.5302 Q541.269 61.249 539.848 62.5302 Q538.66 63.5927 538.324 63.9677 Q537.988 64.3427 537.769 64.7333 L543.035 64.7333 Z" fill="#000000" fill-opacity="1.000000"/>
  <path d="M545.004 58.7333 L545.004 57.7333 L546.504 57.7333 L546.504 58.7333 L545.004 58.7333 ZM545.004 65.7333 L545.004 64.7333 L546.504 64.7333 L546.504 65.7333 L545.004 65.7333 Z" fill="#000000" fill-opacity="1.000000"/>
  <path d="M548.348 60.2333 Q548.348 58.3271 548.738 57.163 Q549.129 55.999 549.902 55.3661 Q550.676 54.7333 551.848 54.7333 Q552.707 54.7333 553.363 55.0849 Q554.019 55.4365 554.441 56.0927 Q554.863 56.749 555.105 57.6943 Q555.348 58.6396 555.348 60.2333 Q555.348 62.1396 554.957 63.3036 Q554.566 64.4677 553.793 65.1005 Q553.019 65.7333 551.848 65.7333 Q550.301 65.7333 549.41 64.624 Q548.348 63.2646 548.348 60.2333 ZM549.707 60.2333 Q549.707 62.9365 550.324 63.8349 Q550.941 64.7333 551.848 64.7333 Q552.754 64.7333 553.371 63.8349 Q553.988 62.9365 553.988 60.2333 Q553.988 57.5146 553.371 56.624 Q552.754 55.7333 551.832 55.7333 Q550.926 55.7333 550.379 56.5146 Q549.707 57.5302 549.707 60.2333 Z" fill="#000000" fill-opacity="1.000000"/>
  <path d="M556.504 60.2333 Q556.504 58.3271 556.894 57.163 Q557.285 55.999 558.058 55.3661 Q558.832 54.7333 560.004 54.7333 Q560.863 54.7333 561.519 55.0849 Q562.176 55.4365 562.598 56.0927 Q563.019 56.749 563.262 57.6943 Q563.504 58.6396 563.504 60.2333 Q563.504 62.1396 563.113 63.3036 Q562.723 64.4677 561.949 65.1005 Q561.176 65.7333 560.004 65.7333 Q558.457 65.7333 557.566 64.624 Q556.504 63.2646 556.504 60.2333 ZM557.863 60.2333 Q557.863 62.9365 558.48 63.8349 Q559.098 64.7333 560.004 64.7333 Q560.91 64.7333 561.527 63.8349 Q562.144 62.9365 562.144 60.2333 Q562.144 57.5146 561.527 56.624 Q560.91 55.7333 559.988 55.7333 Q559.082 55.7333 558.535 56.5146 Q557.863 57.5302 557.863 60.2333 Z" fill="#000000" fill-opacity="1.000000"/>
  <path d="M565.394 58.7333 L565.394 57.7333 L566.894 57.7333 L566.894 58.7333 L565.394 58.7333 ZM565.394 65.7333 L565.394 64.7333 L566.894 64.7333 L566.894 65.7333 L565.394 65.7333 Z" fill="#000000" fill-opacity="1.000000"/>
  <path d="M568.738 60.2333 Q568.738 58.3271 569.129 57.163 Q569.519 55.999 570.293 55.3661 Q571.066 54.7333 572.238 54.7333 Q573.098 54.7333 573.754 55.0849 Q574.41 55.4365 574.832 56.0927 Q575.254 56.749 575.496 57.6943 Q575.738 58.6396 575.738 60.2333 Q575.738 62.1396 575.348 63.3036 Q574.957 64.4677 574.183 65.1005 Q573.41 65.7333 572.238 65.7333 Q570.691 65.7333 569.801 64.624 Q568.738 63.2646 568.738 60.2333 ZM570.098 60.2333 Q570.098 62.9365 570.715 63.8349 Q571.332 64.7333 572.238 64.7333 Q573.144 64.7333 573.762 63.8349 Q574.379 62.9365 574.379 60.2333 Q574.379 57.5146 573.762 56.624 Q573.144 55.7333 572.223 55.7333 Q571.316 55.7333 570.769 56.5146 Q570.098 57.5302 570.098 60.2333 Z" fill="#000000" fill-opacity="1.000000"/>
  <path d="M576.894 60.2333 Q576.894 58.3271 577.285 57.163 Q577.676 55.999 578.449 55.3661 Q579.223 54.7333 580.394 54.7333 Q581.254 54.7333 581.91 55.0849 Q582.566 55.4365 582.988 56.0927 Q583.41 56.749 583.652 57.6943 Q583.894 58.6396 583.894 60.2333 Q583.894 62.1396 583.504 63.3036 Q583.113 64.4677 582.34 65.1005 Q581.566 65.7333 580.394 65.7333 Q578.848 65.7333 577.957 64.624 Q576.894 63.2646 576.894 60.2333 ZM578.254 60.2333 Q578.254 62.9365 578.871 63.8349 Q579.488 64.7333 580.394 64.7333 Q581.301 64.7333 581.918 63.8349 Q582.535 62.9365 582.535 60.2333 Q582.535 57.5146 581.918 56.624 Q581.301 55.7333 580.379 55.7333 Q579.473 55.7333 578.926 56.5146 Q578.254 57.5302 578.254 60.2333 Z" fill="#000000" fill-opacity="1.000000"/>
  <path d="M620.683 65.7333 L619.355 65.7333 L619.355 57.1552 Q618.886 57.624 618.113 58.0849 Q617.339 58.5458 616.73 58.7802 L616.73 57.4833 Q617.839 56.9521 618.66 56.1943 Q619.48 55.4365 619.824 54.7333 L620.683 54.7333 L620.683 65.7333 Z" fill="#000000" fill-opacity="1.000000"/>
  <path d="M628.089 65.7333 L628.089 62.7333 L623.433 62.7333 L623.433 61.7333 L628.339 54.7333 L629.418 54.7333 L629.418 61.7333 L630.871 61.7333 L630.871 62.7333 L629.418 62.7333 L629.418 65.7333 L628.089 65.7333 ZM628.089 61.7333 L628.089 56.9365 L624.73 61.7333 L628.089 61.7333 Z" fill="#000000" fill-opacity="1.000000"/>
  <path d="M632.761 58.7333 L632.761 57.7333 L634.261 57.7333 L634.261 58.7333 L632.761 58.7333 ZM632.761 65.7333 L632.761 64.7333 L634.261 64.7333 L634.261 65.7333 L632.761 65.7333 Z" fill="#000000" fill-opacity="1.000000"/>
  <path d="M636.105 60.2333 Q636.105 58.3271 636.496 57.163 Q636.886 55.999 637.66 55.3661 Q638.433 54.7333 639.605 54.7333 Q640.464 54.7333 641.121 55.0849 Q641.777 55.4365 642.199 56.0927 Q642.621 56.749 642.863 57.6943 Q643.105 58.6396 643.105 60.2333 Q643.105 62.1396 642.714 63.3036 Q642.324 64.4677 641.55 65.1005 Q640.777 65.7333 639.605 65.7333 Q638.058 65.7333 637.168 64.624 Q636.105 63.2646 636.105 60.2333 ZM637.464 60.2333 Q637.464 62.9365 638.082 63.8349 Q638.699 64.7333 639.605 64.7333 Q640.511 64.7333 641.129 63.8349 Q641.746 62.9365 641.746 60.2333 Q641.746 57.5146 641.129 56.624 Q640.511 55.7333 639.589 55.7333 Q638.683 55.7333 638.136 56.5146 Q637.464 57.5302 637.464 60.2333 Z" fill="#000000" fill-opacity="1.000000"/>
  <path d="M644.261 60.2333 Q644.261 58.3271 644.652 57.163 Q645.043 55.999 645.816 55.3661 Q646.589 54.7333 647.761 54.7333 Q648.621 54.7333 649.277 55.0849 Q649.933 55.4365 650.355 56.0927 Q650.777 56.749 651.019 57.6943 Q651.261 58.6396 651.261 60.2333 Q651.261 62.1396 650.871 63.3036 Q650.48 64.4677 649.707 65.1005 Q648.933 65.7333 647.761 65.7333 Q646.214 65.7333 645.324 64.624 Q644.261 63.2646 644.261 60.2333 ZM645.621 60.2333 Q645.621 62.9365 646.238 63.8349 Q646.855 64.7333 647.761 64.7333 Q648.668 64.7333 649.285 63.8349 Q649.902 62.9365 649.902 60.2333 Q649.902 57.5146 649.285 56.624 Q648.668 55.7333 647.746 55.7333 Q646.839 55.7333 646.293 56.5146 Q645.621 57.5302 645.621 60.2333 Z" fill="#000000" fill-opacity="1.000000"/>
  <path d="M653.152 58.7333 L653.152 57.7333 L654.652 57.7333 L654.652 58.7333 L653.152 58.7333 ZM653.152 65.7333 L653.152 64.7333 L654.652 64.7333 L654.652 65.7333 L653.152 65.7333 Z" fill="#000000" fill-opacity="1.000000"/>
  <path d="M656.496 60.2333 Q656.496 58.3271 656.886 57.163 Q657.277 55.999 658.05 55.3661 Q658.824 54.7333 659.996 54.7333 Q660.855 54.7333 661.511 55.0849 Q662.168 55.4365 662.589 56.0927 Q663.011 56.749 663.254 57.6943 Q663.496 58.6396 663.496 60.2333 Q663.496 62.1396 663.105 63.3036 Q662.714 64.4677 661.941 65.1005 Q661.168 65.7333 659.996 65.7333 Q658.449 65.7333 657.558 64.624 Q656.496 63.2646 656.496 60.2333 ZM657.855 60.2333 Q657.855 62.9365 658.472 63.8349 Q659.089 64.7333 659.996 64.7333 Q660.902 64.7333 661.519 63.8349 Q662.136 62.9365 662.136 60.2333 Q662.136 57.5146 661.519 56.624 Q660.902 55.7333 659.98 55.7333 Q659.074 55.7333 658.527 56.5146 Q657.855 57.5302 657.855 60.2333 Z" fill="#000000" fill-opacity="1.000000"/>
  <path d="M664.652 60.2333 Q664.652 58.3271 665.043 57.163 Q665.433 55.999 666.207 55.3661 Q666.98 54.7333 668.152 54.7333 Q669.011 54.7333 669.668 55.0849 Q670.324 55.4365 670.746 56.0927 Q671.168 56.749 671.41 57.6943 Q671.652 58.6396 671.652 60.2333 Q671.652 62.1396 671.261 63.3036 Q670.871 64.4677 670.097 65.1005 Q669.324 65.7333 668.152 65.7333 Q666.605 65.7333 665.714 64.624 Q664.652 63.2646 664.652 60.2333 ZM666.011 60.2333 Q666.011 62.9365 666.629 63.8349 Q667.246 64.7333 668.152 64.7333 Q669.058 64.7333 669.675 63.8349 Q670.293 62.9365 670.293 60.2333 Q670.293 57.5146 669.675 56.624 Q669.058 55.7333 668.136 55.7333 Q667.23 55.7333 666.683 56.5146 Q666.011 57.5302 666.011 60.2333 Z" fill="#000000" fill-opacity="1.000000"/>
  <path d="M708.441 65.7333 L707.113 65.7333 L707.113 57.1552 Q706.644 57.624 705.871 58.0849 Q705.097 58.5458 704.488 58.7802 L704.488 57.4833 Q705.597 56.9521 706.417 56.1943 Q707.238 55.4365 707.581 54.7333 L708.441 54.7333 L708.441 65.7333 Z" fill="#000000" fill-opacity="1.000000"/>
  <path d="M718.472 57.7333 L717.16 57.7333 Q716.988 56.8115 716.66 56.4052 Q716.128 55.7333 715.347 55.7333 Q714.706 55.7333 714.238 56.124 Q713.613 56.624 713.253 57.5771 Q712.894 58.5302 712.878 60.1708 Q713.347 59.4365 714.042 59.0849 Q714.738 58.7333 715.488 58.7333 Q716.8 58.7333 717.73 59.6865 Q718.66 60.6396 718.66 62.1396 Q718.66 63.124 718.222 63.9755 Q717.785 64.8271 717.027 65.2802 Q716.269 65.7333 715.3 65.7333 Q713.644 65.7333 712.605 64.5146 Q711.566 63.2958 711.566 60.5146 Q711.566 57.3896 712.722 55.9677 Q713.722 54.7333 715.425 54.7333 Q716.691 54.7333 717.503 55.5302 Q718.316 56.3271 718.472 57.7333 ZM713.081 62.1083 Q713.081 62.7958 713.371 63.4286 Q713.66 64.0615 714.183 64.3974 Q714.706 64.7333 715.269 64.7333 Q716.113 64.7333 716.714 64.0458 Q717.316 63.3583 717.316 62.1708 Q717.316 61.0458 716.722 60.3896 Q716.128 59.7333 715.222 59.7333 Q714.331 59.7333 713.706 60.3896 Q713.081 61.0458 713.081 62.1083 Z" fill="#000000" fill-opacity="1.000000"/>
  <path d="M720.519 58.7333 L720.519 57.7333 L722.019 57.7333 L722.019 58.7333 L720.519 58.7333 ZM720.519 65.7333 L720.519 64.7333 L722.019 64.7333 L722.019 65.7333 L720.519 65.7333 Z" fill="#000000" fill-opacity="1.000000"/>
  <path d="M723.863 60.2333 Q723.863 58.3271 724.253 57.163 Q724.644 55.999 725.417 55.3661 Q726.191 54.7333 727.363 54.7333 Q728.222 54.7333 728.878 55.0849 Q729.535 55.4365 729.956 56.0927 Q730.378 56.749 730.621 57.6943 Q730.863 58.6396 730.863 60.2333 Q730.863 62.1396 730.472 63.3036 Q730.081 64.4677 729.308 65.1005 Q728.535 65.7333 727.363 65.7333 Q725.816 65.7333 724.925 64.624 Q723.863 63.2646 723.863 60.2333 ZM725.222 60.2333 Q725.222 62.9365 725.839 63.8349 Q726.456 64.7333 727.363 64.7333 Q728.269 64.7333 728.886 63.8349 Q729.503 62.9365 729.503 60.2333 Q729.503 57.5146 728.886 56.624 Q728.269 55.7333 727.347 55.7333 Q726.441 55.7333 725.894 56.5146 Q725.222 57.5302 725.222 60.2333 Z" fill="#000000" fill-opacity="1.000000"/>
  <path d="M732.019 60.2333 Q732.019 58.3271 732.41 57.163 Q732.8 55.999 733.574 55.3661 Q734.347 54.7333 735.519 54.7333 Q736.378 54.7333 737.035 55.0849 Q737.691 55.4365 738.113 56.0927 Q738.535 56.749 738.777 57.6943 Q739.019 58.6396 739.019 60.2333 Q739.019 62.1396 738.628 63.3036 Q738.238 64.4677 737.464 65.1005 Q736.691 65.7333 735.519 65.7333 Q733.972 65.7333 733.081 64.624 Q732.019 63.2646 732.019 60.2333 ZM733.378 60.2333 Q733.378 62.9365 733.996 63.8349 Q734.613 64.7333 735.519 64.7333 Q736.425 64.7333 737.042 63.8349 Q737.66 62.9365 737.66 60.2333 Q737.66 57.5146 737.042 56.624 Q736.425 55.7333 735.503 55.7333 Q734.597 55.7333 734.05 56.5146 Q733.378 57.5302 733.378 60.2333 Z" fill="#000000" fill-opacity="1.000000"/>
  <path d="M740.91 58.7333 L740.91 57.7333 L742.41 57.7333 L742.41 58.7333 L740.91 58.7333 ZM740.91 65.7333 L740.91 64.7333 L742.41 64.7333 L742.41 65.7333 L740.91 65.7333 Z" fill="#000000" fill-opacity="1.000000"/>
  <path d="M744.253 60.2333 Q744.253 58.3271 744.644 57.163 Q745.035 55.999 745.808 55.3661 Q746.581 54.7333 747.753 54.7333 Q748.613 54.7333 749.269 55.0849 Q749.925 55.4365 750.347 56.0927 Q750.769 56.749 751.011 57.6943 Q751.253 58.6396 751.253 60.2333 Q751.253 62.1396 750.863 63.3036 Q750.472 64.4677 749.699 65.1005 Q748.925 65.7333 747.753 65.7333 Q746.206 65.7333 745.316 64.624 Q744.253 63.2646 744.253 60.2333 ZM745.613 60.2333 Q745.613 62.9365 746.23 63.8349 Q746.847 64.7333 747.753 64.7333 Q748.66 64.7333 749.277 63.8349 Q749.894 62.9365 749.894 60.2333 Q749.894 57.5146 749.277 56.624 Q748.66 55.7333 747.738 55.7333 Q746.831 55.7333 746.285 56.5146 Q745.613 57.5302 745.613 60.2333 Z" fill="#000000" fill-opacity="1.000000"/>
  <path d="M752.41 60.2333 Q752.41 58.3271 752.8 57.163 Q753.191 55.999 753.964 55.3661 Q754.738 54.7333 755.91 54.7333 Q756.769 54.7333 757.425 55.0849 Q758.081 55.4365 758.503 56.0927 Q758.925 56.749 759.167 57.6943 Q759.41 58.6396 759.41 60.2333 Q759.41 62.1396 759.019 63.3036 Q758.628 64.4677 757.855 65.1005 Q757.081 65.7333 755.91 65.7333 Q754.363 65.7333 753.472 64.624 Q752.41 63.2646 752.41 60.2333 ZM753.769 60.2333 Q753.769 62.9365 754.386 63.8349 Q755.003 64.7333 755.91 64.7333 Q756.816 64.7333 757.433 63.8349 Q758.05 62.9365 758.05 60.2333 Q758.05 57.5146 757.433 56.624 Q756.816 55.7333 755.894 55.7333 Q754.988 55.7333 754.441 56.5146 Q753.769 57.5302 753.769 60.2333 Z" fill="#000000" fill-opacity="1.000000"/>
  <path d="M796.198 65.7333 L794.87 65.7333 L794.87 57.1552 Q794.402 57.624 793.628 58.0849 Q792.855 58.5458 792.245 58.7802 L792.245 57.4833 Q793.355 56.9521 794.175 56.1943 Q794.995 55.4365 795.339 54.7333 L796.198 54.7333 L796.198 65.7333 Z" fill="#000000" fill-opacity="1.000000"/>
  <path d="M801.417 60.2021 Q800.605 59.874 800.206 59.2568 Q799.808 58.6396 799.808 57.7802 Q799.808 56.499 800.652 55.6161 Q801.495 54.7333 802.886 54.7333 Q804.292 54.7333 805.152 55.6318 Q806.011 56.5302 806.011 57.8271 Q806.011 58.6552 805.612 59.2646 Q805.214 59.874 804.417 60.2021 Q805.417 60.499 805.933 61.163 Q806.448 61.8271 806.448 62.7333 Q806.448 63.999 805.472 64.8661 Q804.495 65.7333 802.917 65.7333 Q801.323 65.7333 800.347 64.8661 Q799.37 63.999 799.37 62.7021 Q799.37 61.7333 799.902 61.0849 Q800.433 60.4365 801.417 60.2021 ZM801.152 57.6865 Q801.152 58.5927 801.644 59.163 Q802.136 59.7333 802.917 59.7333 Q803.683 59.7333 804.167 59.163 Q804.652 58.5927 804.652 57.7646 Q804.652 56.9052 804.152 56.3193 Q803.652 55.7333 802.902 55.7333 Q802.152 55.7333 801.652 56.3036 Q801.152 56.874 801.152 57.6865 ZM800.73 62.7177 Q800.73 63.2333 800.995 63.7177 Q801.261 64.2021 801.784 64.4677 Q802.308 64.7333 802.917 64.7333 Q803.855 64.7333 804.472 64.1708 Q805.089 63.6083 805.089 62.749 Q805.089 61.874 804.456 61.3036 Q803.823 60.7333 802.87 60.7333 Q801.948 60.7333 801.339 61.2958 Q800.73 61.8583 800.73 62.7177 Z" fill="#000000" fill-opacity="1.000000"/>
  <path d="M808.277 58.7333 L808.277 57.7333 L809.777 57.7333 L809.777 58.7333 L808.277 58.7333 ZM808.277 65.7333 L808.277 64.7333 L809.777 64.7333 L809.777 65.7333 L808.277 65.7333 Z" fill="#000000" fill-opacity="1.000000"/>
  <path d="M811.62 60.2333 Q811.62 58.3271 812.011 57.163 Q812.402 55.999 813.175 55.3661 Q813.948 54.7333 815.12 54.7333 Q815.98 54.7333 816.636 55.0849 Q817.292 55.4365 817.714 56.0927 Q818.136 56.749 818.378 57.6943 Q818.62 58.6396 818.62 60.2333 Q818.62 62.1396 818.23 63.3036 Q817.839 64.4677 817.066 65.1005 Q816.292 65.7333 815.12 65.7333 Q813.573 65.7333 812.683 64.624 Q811.62 63.2646 811.62 60.2333 ZM812.98 60.2333 Q812.98 62.9365 813.597 63.8349 Q814.214 64.7333 815.12 64.7333 Q816.027 64.7333 816.644 63.8349 Q817.261 62.9365 817.261 60.2333 Q817.261 57.5146 816.644 56.624 Q816.027 55.7333 815.105 55.7333 Q814.198 55.7333 813.652 56.5146 Q812.98 57.5302 812.98 60.2333 Z" fill="#000000" fill-opacity="1.000000"/>
  <path d="M819.777 60.2333 Q819.777 58.3271 820.167 57.163 Q820.558 55.999 821.331 55.3661 Q822.105 54.7333 823.277 54.7333 Q824.136 54.7333 824.792 55.0849 Q825.448 55.4365 825.87 56.0927 Q826.292 56.749 826.534 57.6943 Q826.777 58.6396 826.777 60.2333 Q826.777 62.1396 826.386 63.3036 Q825.995 64.4677 825.222 65.1005 Q824.448 65.7333 823.277 65.7333 Q821.73 65.7333 820.839 64.624 Q819.777 63.2646 819.777 60.2333 ZM821.136 60.2333 Q821.136 62.9365 821.753 63.8349 Q822.37 64.7333 823.277 64.7333 Q824.183 64.7333 824.8 63.8349 Q825.417 62.9365 825.417 60.2333 Q825.417 57.5146 824.8 56.624 Q824.183 55.7333 823.261 55.7333 Q822.355 55.7333 821.808 56.5146 Q821.136 57.5302 821.136 60.2333 Z" fill="#000000" fill-opacity="1.000000"/>
  <path d="M828.667 58.7333 L828.667 57.7333 L830.167 57.7333 L830.167 58.7333 L828.667 58.7333 ZM828.667 65.7333 L828.667 64.7333 L830.167 64.7333 L830.167 65.7333 L828.667 65.7333 Z" fill="#000000" fill-opacity="1.000000"/>
  <path d="M832.011 60.2333 Q832.011 58.3271 832.402 57.163 Q832.792 55.999 833.566 55.3661 Q834.339 54.7333 835.511 54.7333 Q836.37 54.7333 837.027 55.0849 Q837.683 55.4365 838.105 56.0927 Q838.527 56.749 838.769 57.6943 Q839.011 58.6396 839.011 60.2333 Q839.011 62.1396 838.62 63.3036 Q838.23 64.4677 837.456 65.1005 Q836.683 65.7333 835.511 65.7333 Q833.964 65.7333 833.073 64.624 Q832.011 63.2646 832.011 60.2333 ZM833.37 60.2333 Q833.37 62.9365 833.987 63.8349 Q834.605 64.7333 835.511 64.7333 Q836.417 64.7333 837.034 63.8349 Q837.652 62.9365 837.652 60.2333 Q837.652 57.5146 837.034 56.624 Q836.417 55.7333 835.495 55.7333 Q834.589 55.7333 834.042 56.5146 Q833.37 57.5302 833.37 60.2333 Z" fill="#000000" fill-opacity="1.000000"/>
  <path d="M840.167 60.2333 Q840.167 58.3271 840.558 57.163 Q840.948 55.999 841.722 55.3661 Q842.495 54.7333 843.667 54.7333 Q844.527 54.7333 845.183 55.0849 Q845.839 55.4365 846.261 56.0927 Q846.683 56.749 846.925 57.6943 Q847.167 58.6396 847.167 60.2333 Q847.167 62.1396 846.777 63.3036 Q846.386 64.4677 845.612 65.1005 Q844.839 65.7333 843.667 65.7333 Q842.12 65.7333 841.23 64.624 Q840.167 63.2646 840.167 60.2333 ZM841.527 60.2333 Q841.527 62.9365 842.144 63.8349 Q842.761 64.7333 843.667 64.7333 Q844.573 64.7333 845.191 63.8349 Q845.808 62.9365 845.808 60.2333 Q845.808 57.5146 845.191 56.624 Q844.573 55.7333 843.652 55.7333 Q842.745 55.7333 842.198 56.5146 Q841.527 57.5302 841.527 60.2333 Z" fill="#000000" fill-opacity="1.000000"/>
  <path d="M885.909 64.7333 L885.909 65.7333 L878.815 65.7333 Q878.8 65.3427 878.972 64.9677 Q879.237 64.3583 879.839 63.7724 Q880.44 63.1865 881.565 62.124 Q883.315 60.4677 883.933 59.538 Q884.55 58.6083 884.55 57.7958 Q884.55 56.9208 883.987 56.3271 Q883.425 55.7333 882.534 55.7333 Q881.581 55.7333 881.003 56.2646 Q880.425 56.7958 880.425 57.7333 L879.065 57.7333 Q879.206 56.2646 880.112 55.499 Q881.018 54.7333 882.55 54.7333 Q884.097 54.7333 884.995 55.624 Q885.893 56.5146 885.893 57.8427 Q885.893 58.5146 885.628 59.163 Q885.362 59.8115 884.753 60.5302 Q884.143 61.249 882.722 62.5302 Q881.534 63.5927 881.198 63.9677 Q880.862 64.3427 880.643 64.7333 L885.909 64.7333 Z" fill="#000000" fill-opacity="1.000000"/>
  <path d="M887.143 60.2333 Q887.143 58.3271 887.534 57.163 Q887.925 55.999 888.698 55.3661 Q889.472 54.7333 890.643 54.7333 Q891.503 54.7333 892.159 55.0849 Q892.815 55.4365 893.237 56.0927 Q893.659 56.749 893.901 57.6943 Q894.143 58.6396 894.143 60.2333 Q894.143 62.1396 893.753 63.3036 Q893.362 64.4677 892.589 65.1005 Q891.815 65.7333 890.643 65.7333 Q889.097 65.7333 888.206 64.624 Q887.143 63.2646 887.143 60.2333 ZM888.503 60.2333 Q888.503 62.9365 889.12 63.8349 Q889.737 64.7333 890.643 64.7333 Q891.55 64.7333 892.167 63.8349 Q892.784 62.9365 892.784 60.2333 Q892.784 57.5146 892.167 56.624 Q891.55 55.7333 890.628 55.7333 Q889.722 55.7333 889.175 56.5146 Q888.503 57.5302 888.503 60.2333 Z" fill="#000000" fill-opacity="1.000000"/>
  <path d="M896.034 58.7333 L896.034 57.7333 L897.534 57.7333 L897.534 58.7333 L896.034 58.7333 ZM896.034 65.7333 L896.034 64.7333 L897.534 64.7333 L897.534 65.7333 L896.034 65.7333 Z" fill="#000000" fill-opacity="1.000000"/>
  <path d="M899.378 60.2333 Q899.378 58.3271 899.768 57.163 Q900.159 55.999 900.933 55.3661 Q901.706 54.7333 902.878 54.7333 Q903.737 54.7333 904.393 55.0849 Q905.05 55.4365 905.472 56.0927 Q905.893 56.749 906.136 57.6943 Q906.378 58.6396 906.378 60.2333 Q906.378 62.1396 905.987 63.3036 Q905.597 64.4677 904.823 65.1005 Q904.05 65.7333 902.878 65.7333 Q901.331 65.7333 900.44 64.624 Q899.378 63.2646 899.378 60.2333 ZM900.737 60.2333 Q900.737 62.9365 901.354 63.8349 Q901.972 64.7333 902.878 64.7333 Q903.784 64.7333 904.401 63.8349 Q905.018 62.9365 905.018 60.2333 Q905.018 57.5146 904.401 56.624 Q903.784 55.7333 902.862 55.7333 Q901.956 55.7333 901.409 56.5146 Q900.737 57.5302 900.737 60.2333 Z" fill="#000000" fill-opacity="1.000000"/>
  <path d="M907.534 60.2333 Q907.534 58.3271 907.925 57.163 Q908.315 55.999 909.089 55.3661 Q909.862 54.7333 911.034 54.7333 Q911.893 54.7333 912.55 55.0849 Q913.206 55.4365 913.628 56.0927 Q914.05 56.749 914.292 57.6943 Q914.534 58.6396 914.534 60.2333 Q914.534 62.1396 914.143 63.3036 Q913.753 64.4677 912.979 65.1005 Q912.206 65.7333 911.034 65.7333 Q909.487 65.7333 908.597 64.624 Q907.534 63.2646 907.534 60.2333 ZM908.893 60.2333 Q908.893 62.9365 909.511 63.8349 Q910.128 64.7333 911.034 64.7333 Q911.94 64.7333 912.558 63.8349 Q913.175 62.9365 913.175 60.2333 Q913.175 57.5146 912.558 56.624 Q911.94 55.7333 911.018 55.7333 Q910.112 55.7333 909.565 56.5146 Q908.893 57.5302 908.893 60.2333 Z" fill="#000000" fill-opacity="1.000000"/>
  <path d="M916.425 58.7333 L916.425 57.7333 L917.925 57.7333 L917.925 58.7333 L916.425 58.7333 ZM916.425 65.7333 L916.425 64.7333 L917.925 64.7333 L917.925 65.7333 L916.425 65.7333 Z" fill="#000000" fill-opacity="1.000000"/>
  <path d="M919.768 60.2333 Q919.768 58.3271 920.159 57.163 Q920.55 55.999 921.323 55.3661 Q922.097 54.7333 923.268 54.7333 Q924.128 54.7333 924.784 55.0849 Q925.44 55.4365 925.862 56.0927 Q926.284 56.749 926.526 57.6943 Q926.768 58.6396 926.768 60.2333 Q926.768 62.1396 926.378 63.3036 Q925.987 64.4677 925.214 65.1005 Q924.44 65.7333 923.268 65.7333 Q921.722 65.7333 920.831 64.624 Q919.768 63.2646 919.768 60.2333 ZM921.128 60.2333 Q921.128 62.9365 921.745 63.8349 Q922.362 64.7333 923.268 64.7333 Q924.175 64.7333 924.792 63.8349 Q925.409 62.9365 925.409 60.2333 Q925.409 57.5146 924.792 56.624 Q924.175 55.7333 923.253 55.7333 Q922.347 55.7333 921.8 56.5146 Q921.128 57.5302 921.128 60.2333 Z" fill="#000000" fill-opacity="1.000000"/>
  <path d="M927.925 60.2333 Q927.925 58.3271 928.315 57.163 Q928.706 55.999 929.479 55.3661 Q930.253 54.7333 931.425 54.7333 Q932.284 54.7333 932.94 55.0849 Q933.597 55.4365 934.018 56.0927 Q934.44 56.749 934.683 57.6943 Q934.925 58.6396 934.925 60.2333 Q934.925 62.1396 934.534 63.3036 Q934.143 64.4677 933.37 65.1005 Q932.597 65.7333 931.425 65.7333 Q929.878 65.7333 928.987 64.624 Q927.925 63.2646 927.925 60.2333 ZM929.284 60.2333 Q929.284 62.9365 929.901 63.8349 Q930.518 64.7333 931.425 64.7333 Q932.331 64.7333 932.948 63.8349 Q933.565 62.9365 933.565 60.2333 Q933.565 57.5146 932.948 56.624 Q932.331 55.7333 931.409 55.7333 Q930.503 55.7333 929.956 56.5146 Q929.284 57.5302 929.284 60.2333 Z" fill="#000000" fill-opacity="1.000000"/>
  <path d="M973.667 64.7333 L973.667 65.7333 L966.573 65.7333 Q966.557 65.3427 966.729 64.9677 Q966.995 64.3583 967.596 63.7724 Q968.198 63.1865 969.323 62.124 Q971.073 60.4677 971.69 59.538 Q972.307 58.6083 972.307 57.7958 Q972.307 56.9208 971.745 56.3271 Q971.182 55.7333 970.292 55.7333 Q969.339 55.7333 968.76 56.2646 Q968.182 56.7958 968.182 57.7333 L966.823 57.7333 Q966.964 56.2646 967.87 55.499 Q968.776 54.7333 970.307 54.7333 Q971.854 54.7333 972.753 55.624 Q973.651 56.5146 973.651 57.8427 Q973.651 58.5146 973.385 59.163 Q973.12 59.8115 972.51 60.5302 Q971.901 61.249 970.479 62.5302 Q969.292 63.5927 968.956 63.9677 Q968.62 64.3427 968.401 64.7333 L973.667 64.7333 Z" fill="#000000" fill-opacity="1.000000"/>
  <path d="M981.823 64.7333 L981.823 65.7333 L974.729 65.7333 Q974.714 65.3427 974.885 64.9677 Q975.151 64.3583 975.753 63.7724 Q976.354 63.1865 977.479 62.124 Q979.229 60.4677 979.846 59.538 Q980.464 58.6083 980.464 57.7958 Q980.464 56.9208 979.901 56.3271 Q979.339 55.7333 978.448 55.7333 Q977.495 55.7333 976.917 56.2646 Q976.339 56.7958 976.339 57.7333 L974.979 57.7333 Q975.12 56.2646 976.026 55.499 Q976.932 54.7333 978.464 54.7333 Q980.01 54.7333 980.909 55.624 Q981.807 56.5146 981.807 57.8427 Q981.807 58.5146 981.542 59.163 Q981.276 59.8115 980.667 60.5302 Q980.057 61.249 978.635 62.5302 Q977.448 63.5927 977.112 63.9677 Q976.776 64.3427 976.557 64.7333 L981.823 64.7333 Z" fill="#000000" fill-opacity="1.000000"/>
  <path d="M983.792 58.7333 L983.792 57.7333 L985.292 57.7333 L985.292 58.7333 L983.792 58.7333 ZM983.792 65.7333 L983.792 64.7333 L985.292 64.7333 L985.292 65.7333 L983.792 65.7333 Z" fill="#000000" fill-opacity="1.000000"/>
  <path d="M987.135 60.2333 Q987.135 58.3271 987.526 57.163 Q987.917 55.999 988.69 55.3661 Q989.464 54.7333 990.635 54.7333 Q991.495 54.7333 992.151 55.0849 Q992.807 55.4365 993.229 56.0927 Q993.651 56.749 993.893 57.6943 Q994.135 58.6396 994.135 60.2333 Q994.135 62.1396 993.745 63.3036 Q993.354 64.4677 992.581 65.1005 Q991.807 65.7333 990.635 65.7333 Q989.089 65.7333 988.198 64.624 Q987.135 63.2646 987.135 60.2333 ZM988.495 60.2333 Q988.495 62.9365 989.112 63.8349 Q989.729 64.7333 990.635 64.7333 Q991.542 64.7333 992.159 63.8349 Q992.776 62.9365 992.776 60.2333 Q992.776 57.5146 992.159 56.624 Q991.542 55.7333 990.62 55.7333 Q989.714 55.7333 989.167 56.5146 Q988.495 57.5302 988.495 60.2333 Z" fill="#000000" fill-opacity="1.000000"/>
  <path d="M995.292 60.2333 Q995.292 58.3271 995.682 57.163 Q996.073 55.999 996.846 55.3661 Q997.62 54.7333 998.792 54.7333 Q999.651 54.7333 1000.31 55.0849 Q1000.96 55.4365 1001.39 56.0927 Q1001.81 56.749 1002.05 57.6943 Q1002.29 58.6396 1002.29 60.2333 Q1002.29 62.1396 1001.9 63.3036 Q1001.51 64.4677 1000.74 65.1005 Q999.964 65.7333 998.792 65.7333 Q997.245 65.7333 996.354 64.624 Q995.292 63.2646 995.292 60.2333 ZM996.651 60.2333 Q996.651 62.9365 997.268 63.8349 Q997.885 64.7333 998.792 64.7333 Q999.698 64.7333 1000.32 63.8349 Q1000.93 62.9365 1000.93 60.2333 Q1000.93 57.5146 1000.32 56.624 Q999.698 55.7333 998.776 55.7333 Q997.87 55.7333 997.323 56.5146 Q996.651 57.5302 996.651 60.2333 Z" fill="#000000" fill-opacity="1.000000"/>
  <path d="M1004.18 58.7333 L1004.18 57.7333 L1005.68 57.7333 L1005.68 58.7333 L1004.18 58.7333 ZM1004.18 65.7333 L1004.18 64.7333 L1005.68 64.7333 L1005.68 65.7333 L1004.18 65.7333 Z" fill="#000000" fill-opacity="1.000000"/>
  <path d="M1007.53 60.2333 Q1007.53 58.3271 1007.92 57.163 Q1008.31 55.999 1009.08 55.3661 Q1009.85 54.7333 1011.03 54.7333 Q1011.89 54.7333 1012.54 55.0849 Q1013.2 55.4365 1013.62 56.0927 Q1014.04 56.749 1014.28 57.6943 Q1014.53 58.6396 1014.53 60.2333 Q1014.53 62.1396 1014.14 63.3036 Q1013.74 64.4677 1012.97 65.1005 Q1012.2 65.7333 1011.03 65.7333 Q1009.48 65.7333 1008.59 64.624 Q1007.53 63.2646 1007.53 60.2333 ZM1008.89 60.2333 Q1008.89 62.9365 1009.5 63.8349 Q1010.12 64.7333 1011.03 64.7333 Q1011.93 64.7333 1012.55 63.8349 Q1013.17 62.9365 1013.17 60.2333 Q1013.17 57.5146 1012.55 56.624 Q1011.93 55.7333 1011.01 55.7333 Q1010.1 55.7333 1009.56 56.5146 Q1008.89 57.5302 1008.89 60.2333 Z" fill="#000000" fill-opacity="1.000000"/>
  <path d="M1015.68 60.2333 Q1015.68 58.3271 1016.07 57.163 Q1016.46 55.999 1017.24 55.3661 Q1018.01 54.7333 1019.18 54.7333 Q1020.04 54.7333 1020.7 55.0849 Q1021.35 55.4365 1021.78 56.0927 Q1022.2 56.749 1022.44 57.6943 Q1022.68 58.6396 1022.68 60.2333 Q1022.68 62.1396 1022.29 63.3036 Q1021.9 64.4677 1021.13 65.1005 Q1020.35 65.7333 1019.18 65.7333 Q1017.64 65.7333 1016.74 64.624 Q1015.68 63.2646 1015.68 60.2333 ZM1017.04 60.2333 Q1017.04 62.9365 1017.66 63.8349 Q1018.28 64.7333 1019.18 64.7333 Q1020.09 64.7333 1020.71 63.8349 Q1021.32 62.9365 1021.32 60.2333 Q1021.32 57.5146 1020.71 56.624 Q1020.09 55.7333 1019.17 55.7333 Q1018.26 55.7333 1017.71 56.5146 Q1017.04 57.5302 1017.04 60.2333 Z" fill="#000000" fill-opacity="1.000000"/>
</svg>