<?xml version="1.0" encoding="UTF-8" ?>
<!-- Generated by clip v0.7.0 (clip-lang.org) -->
<svg xmlns="http://www.w3.org/2000/svg" width="1024.000000" height="80.000000">
  <rect width="1024.000000" height="80.000000" fill="#ffffff" fill-opacity="1.000000"/>
  <path d="M29.3333 40 L994.667 40 " fill="none" stroke-width="1.333333" stroke="#000000ff"/>
  <path d="M29.3333 42.6667 L29.3333 37.3333 " fill="none" stroke-width="1.333333" stroke="#000000ff"/>
  <path d="M109.778 42.6667 L109.778 37.3333 " fill="none" stroke-width="1.333333" stroke="#000000ff"/>
  <path d="M190.222 42.6667 L190.222 37.3333 " fill="none" stroke-width="1.333333" stroke="#000000ff"/>
  <path d="M270.667 42.6667 L270.667 37.3333 " fill="none" stroke-width="1.333333" stroke="#000000ff"/>
  <path d="M351.111 42.6667 L351.111 37.3333 " fill="none" stroke-width="1.333333" stroke="#000000ff"/>
  <path d="M431.556 42.6667 L431.556 37.3333 " fill="none" stroke-width="1.333333" stroke="#000000ff"/>
  <path d="M512 42.6667 L512 37.3333 " fill="none" stroke-width="1.333333" stroke="#000000ff"/>
  <path d="M592.444 42.6667 L592.444 37.3333 " fill="none" stroke-width="1.333333" stroke="#000000ff"/>
  <path d="M672.889 42.6667 L672.889 37.3333 " fill="none" stroke-width="1.333333" stroke="#000000ff"/>
  <path d="M753.333 42.6667 L753.333 37.3333 " fill="none" stroke-width="1.333333" stroke="#000000ff"/>
  <path d="M833.778 42.6667 L833.778 37.3333 " fill="none" stroke-width="1.333333" stroke="#000000ff"/>
  <path d="M914.222 42.6667 L914.222 37.3333 " fill="none" stroke-width="1.333333" stroke="#000000ff"/>
  <path d="M994.667 42.6667 L994.667 37.3333 " fill="none" stroke-width="1.333333" stroke="#000000ff"/>
  <path d="M30.2318 61.4833 L24.7474 61.4833 C24.888 60.5615 25.3568 59.9677 26.638 59.1552 L28.1068 58.2958 C29.5599 57.4521 30.3099 56.3115 30.3099 54.9365 C30.3099 54.0146 29.9505 53.1552 29.3411 52.5615 C28.7161 51.999 27.9505 51.7333 26.9661 51.7333 C25.6536 51.7333 24.6693 52.2177 24.0911 53.1396 C23.7318 53.7177 23.5599 54.4052 23.5286 55.5302 L24.8255 55.5302 C24.8724 54.7802 24.9661 54.3427 25.138 53.9677 C25.4661 53.2802 26.1536 52.874 26.9193 52.874 C28.1068 52.874 28.9818 53.7646 28.9818 54.9677 C28.9818 55.8583 28.4974 56.624 27.5755 57.1865 L26.2161 58.0146 C24.0443 59.3271 23.4193 60.374 23.2943 62.7333 L30.2318 62.7333 L30.2318 61.4833 Z" fill="#000000" fill-opacity="1.000000"/>
  <path d="M33.3724 51.7333 C31.9349 51.7333 31.1849 52.874 31.1849 55.0927 C31.1849 57.3427 31.9349 58.4677 33.388 58.4677 C34.7943 58.4677 35.5599 57.3427 35.5599 55.1552 C35.5599 52.8583 34.8255 51.7333 33.3724 51.7333 ZM33.3724 52.5146 C34.2161 52.5146 34.638 53.374 34.638 55.0771 C34.638 56.9052 34.2318 57.7333 33.3568 57.7333 C32.513 57.7333 32.1068 56.8583 32.1068 55.1083 C32.1068 53.3583 32.513 52.5146 33.3724 52.5146 Z" fill="#000000" fill-opacity="1.000000"/>
  <path d="M110.801 64.7333 L110.801 65.7333 L103.707 65.7333 Q103.692 65.3427 103.864 64.9677 Q104.129 64.3583 104.731 63.7724 Q105.332 63.1865 106.457 62.124 Q108.207 60.4677 108.825 59.538 Q109.442 58.6083 109.442 57.7958 Q109.442 56.9208 108.879 56.3271 Q108.317 55.7333 107.426 55.7333 Q106.473 55.7333 105.895 56.2646 Q105.317 56.7958 105.317 57.7333 L103.957 57.7333 Q104.098 56.2646 105.004 55.499 Q105.911 54.7333 107.442 54.7333 Q108.989 54.7333 109.887 55.624 Q110.786 56.5146 110.786 57.8427 Q110.786 58.5146 110.52 59.163 Q110.254 59.8115 109.645 60.5302 Q109.036 61.249 107.614 62.5302 Q106.426 63.5927 106.09 63.9677 Q105.754 64.3427 105.536 64.7333 L110.801 64.7333 Z" fill="#000000" fill-opacity="1.000000"/>
  <path d="M113.832 60.7333 L113.832 55.8115 Q113.082 56.4677 112.192 56.7333 L112.192 55.7333 Q112.645 55.624 113.207 55.3427 Q113.77 55.0615 114.114 54.7333 L114.895 54.7333 L114.895 60.7333 L113.832 60.7333 Z" fill="#000000" fill-opacity="1.000000"/>
  <path d="M191.246 64.7333 L191.246 65.7333 L184.152 65.7333 Q184.136 65.3427 184.308 64.9677 Q184.574 64.3583 185.175 63.7724 Q185.777 63.1865 186.902 62.124 Q188.652 60.4677 189.269 59.538 Q189.886 58.6083 189.886 57.7958 Q189.886 56.9208 189.324 56.3271 Q188.761 55.7333 187.871 55.7333 Q186.918 55.7333 186.339 56.2646 Q185.761 56.7958 185.761 57.7333 L184.402 57.7333 Q184.543 56.2646 185.449 55.499 Q186.355 54.7333 187.886 54.7333 Q189.433 54.7333 190.332 55.624 Q191.23 56.5146 191.23 57.8427 Q191.23 58.5146 190.964 59.163 Q190.699 59.8115 190.089 60.5302 Q189.48 61.249 188.058 62.5302 Q186.871 63.5927 186.535 63.9677 Q186.199 64.3427 185.98 64.7333 L191.246 64.7333 Z" fill="#000000" fill-opacity="1.000000"/>
  <path d="M192.043 60.7333 Q192.089 60.2802 192.386 59.8271 Q192.839 59.1552 193.894 58.3271 Q194.949 57.499 195.152 57.2646 Q195.418 56.9365 195.418 56.6083 Q195.418 56.2177 195.16 55.9755 Q194.902 55.7333 194.402 55.7333 Q193.918 55.7333 193.683 55.9365 Q193.449 56.1396 193.293 56.7333 L192.199 56.7333 Q192.418 55.7021 192.941 55.2177 Q193.464 54.7333 194.433 54.7333 Q195.543 54.7333 196.058 55.2021 Q196.574 55.6708 196.574 56.3583 Q196.574 57.0146 196.136 57.624 Q195.808 58.0615 194.636 58.9833 Q194.027 59.4521 193.777 59.7333 L196.605 59.7333 L196.605 60.7333 L192.043 60.7333 Z" fill="#000000" fill-opacity="1.000000"/>
  <path d="M271.69 64.7333 L271.69 65.7333 L264.596 65.7333 Q264.581 65.3427 264.753 64.9677 Q265.018 64.3583 265.62 63.7724 Q266.221 63.1865 267.346 62.124 Q269.096 60.4677 269.714 59.538 Q270.331 58.6083 270.331 57.7958 Q270.331 56.9208 269.768 56.3271 Q269.206 55.7333 268.315 55.7333 Q267.362 55.7333 266.784 56.2646 Q266.206 56.7958 266.206 57.7333 L264.846 57.7333 Q264.987 56.2646 265.893 55.499 Q266.799 54.7333 268.331 54.7333 Q269.878 54.7333 270.776 55.624 Q271.674 56.5146 271.674 57.8427 Q271.674 58.5146 271.409 59.163 Q271.143 59.8115 270.534 60.5302 Q269.924 61.249 268.503 62.5302 Q267.315 63.5927 266.979 63.9677 Q266.643 64.3427 266.424 64.7333 L271.69 64.7333 Z" fill="#000000" fill-opacity="1.000000"/>
  <path d="M272.534 58.7333 L273.612 58.7333 Q273.753 59.2646 273.987 59.4677 Q274.315 59.7333 274.737 59.7333 Q275.268 59.7333 275.581 59.4052 Q275.893 59.0771 275.893 58.624 Q275.893 58.2021 275.628 57.9599 Q275.362 57.7177 274.721 57.7177 Q274.628 57.7177 274.471 57.7333 Q274.378 57.7333 274.315 57.7333 L274.487 56.7333 Q275.081 56.7333 275.354 56.5771 Q275.628 56.4208 275.628 56.2021 Q275.628 55.999 275.409 55.8661 Q275.19 55.7333 274.753 55.7333 Q274.346 55.7333 274.112 55.9521 Q273.878 56.1708 273.706 56.7333 L272.659 56.7333 Q272.956 55.624 273.417 55.1786 Q273.878 54.7333 274.753 54.7333 Q275.815 54.7333 276.292 55.1005 Q276.768 55.4677 276.768 56.0302 Q276.768 56.4052 276.51 56.7099 Q276.253 57.0146 275.768 57.1396 Q276.424 57.3271 276.729 57.7568 Q277.034 58.1865 277.034 58.7646 Q277.034 59.5615 276.456 60.1474 Q275.878 60.7333 274.799 60.7333 Q273.768 60.7333 273.229 60.2177 Q272.69 59.7021 272.534 58.7333 Z" fill="#000000" fill-opacity="1.000000"/>
  <path d="M352.01 61.4833 L346.525 61.4833 C346.666 60.5615 347.135 59.9677 348.416 59.1552 L349.885 58.2958 C351.338 57.4521 352.088 56.3115 352.088 54.9365 C352.088 54.0146 351.728 53.1552 351.119 52.5615 C350.494 51.999 349.728 51.7333 348.744 51.7333 C347.431 51.7333 346.447 52.2177 345.869 53.1396 C345.51 53.7177 345.338 54.4052 345.306 55.5302 L346.603 55.5302 C346.65 54.7802 346.744 54.3427 346.916 53.9677 C347.244 53.2802 347.931 52.874 348.697 52.874 C349.885 52.874 350.76 53.7646 350.76 54.9677 C350.76 55.8583 350.275 56.624 349.353 57.1865 L347.994 58.0146 C345.822 59.3271 345.197 60.374 345.072 62.7333 L352.01 62.7333 L352.01 61.4833 Z" fill="#000000" fill-opacity="1.000000"/>
  <path d="M355.572 56.7333 L355.572 58.2021 L356.478 58.2021 L356.478 56.7333 L357.463 56.7333 L357.463 55.9677 L356.478 55.9677 L356.478 51.9677 L355.806 51.9677 L352.806 55.874 L352.806 56.7333 L355.572 56.7333 ZM355.572 55.9677 L353.681 55.9677 L355.572 53.4677 L355.572 55.9677 Z" fill="#000000" fill-opacity="1.000000"/>
  <path d="M432.454 61.4833 L426.97 61.4833 C427.11 60.5615 427.579 59.9677 428.86 59.1552 L430.329 58.2958 C431.782 57.4521 432.532 56.3115 432.532 54.9365 C432.532 54.0146 432.173 53.1552 431.563 52.5615 C430.938 51.999 430.173 51.7333 429.188 51.7333 C427.876 51.7333 426.891 52.2177 426.313 53.1396 C425.954 53.7177 425.782 54.4052 425.751 55.5302 L427.048 55.5302 C427.095 54.7802 427.188 54.3427 427.36 53.9677 C427.688 53.2802 428.376 52.874 429.141 52.874 C430.329 52.874 431.204 53.7646 431.204 54.9677 C431.204 55.8583 430.72 56.624 429.798 57.1865 L428.438 58.0146 C426.266 59.3271 425.641 60.374 425.516 62.7333 L432.454 62.7333 L432.454 61.4833 Z" fill="#000000" fill-opacity="1.000000"/>
  <path d="M437.501 51.7333 L434.016 51.7333 L433.516 55.3583 L434.345 55.3583 C434.72 54.9052 435.032 54.7333 435.532 54.7333 C436.376 54.7333 436.923 55.3427 436.923 56.249 C436.923 57.1708 436.391 57.7333 435.532 57.7333 C434.829 57.7333 434.407 57.3896 434.22 56.6396 L433.313 56.6396 C433.423 57.2177 433.516 57.4833 433.72 57.7646 C434.126 58.2333 434.782 58.5146 435.548 58.5146 C436.891 58.5146 437.845 57.5615 437.845 56.1552 C437.845 54.8427 436.954 53.9677 435.673 53.9677 C435.235 53.9677 434.876 54.0615 434.532 54.2646 L434.751 52.5927 L437.501 52.5927 L437.501 51.7333 Z" fill="#000000" fill-opacity="1.000000"/>
  <path d="M512.898 61.4833 L507.414 61.4833 C507.555 60.5615 508.023 59.9677 509.305 59.1552 L510.773 58.2958 C512.227 57.4521 512.977 56.3115 512.977 54.9365 C512.977 54.0146 512.617 53.1552 512.008 52.5615 C511.383 51.999 510.617 51.7333 509.633 51.7333 C508.32 51.7333 507.336 52.2177 506.758 53.1396 C506.398 53.7177 506.227 54.4052 506.195 55.5302 L507.492 55.5302 C507.539 54.7802 507.633 54.3427 507.805 53.9677 C508.133 53.2802 508.82 52.874 509.586 52.874 C510.773 52.874 511.648 53.7646 511.648 54.9677 C511.648 55.8583 511.164 56.624 510.242 57.1865 L508.883 58.0146 C506.711 59.3271 506.086 60.374 505.961 62.7333 L512.898 62.7333 L512.898 61.4833 Z" fill="#000000" fill-opacity="1.000000"/>
  <path d="M518.164 53.3896 C517.992 52.3583 517.289 51.7333 516.242 51.7333 C515.508 51.7333 514.836 52.0615 514.445 52.624 C514.039 53.1865 513.852 53.9052 513.852 55.0927 C513.852 57.4521 514.602 58.5146 516.102 58.5146 C517.367 58.5146 518.289 57.6083 518.289 56.1708 C518.289 54.8115 517.43 53.9677 516.242 53.9677 C515.617 53.9677 515.258 54.1083 514.773 54.5615 C514.773 53.2958 515.32 52.5146 516.18 52.5146 C516.758 52.5146 517.117 52.8271 517.258 53.3896 L518.164 53.3896 ZM516.133 54.7333 C516.898 54.7333 517.367 55.3271 517.367 56.2333 C517.367 57.1083 516.836 57.7333 516.117 57.7333 C515.367 57.7333 514.836 57.0771 514.836 56.1865 C514.836 55.3271 515.352 54.7333 516.133 54.7333 Z" fill="#000000" fill-opacity="1.000000"/>
  <path d="M593.343 61.4833 L587.859 61.4833 C587.999 60.5615 588.468 59.9677 589.749 59.1552 L591.218 58.2958 C592.671 57.4521 593.421 56.3115 593.421 54.9365 C593.421 54.0146 593.062 53.1552 592.452 52.5615 C591.827 51.999 591.062 51.7333 590.077 51.7333 C588.765 51.7333 587.78 52.2177 587.202 53.1396 C586.843 53.7177 586.671 54.4052 586.64 55.5302 L587.937 55.5302 C587.984 54.7802 588.077 54.3427 588.249 53.9677 C588.577 53.2802 589.265 52.874 590.03 52.874 C591.218 52.874 592.093 53.7646 592.093 54.9677 C592.093 55.8583 591.609 56.624 590.687 57.1865 L589.327 58.0146 C587.155 59.3271 586.53 60.374 586.405 62.7333 L593.343 62.7333 L593.343 61.4833 Z" fill="#000000" fill-opacity="1.000000"/>
  <path d="M598.812 51.7333 L594.327 51.7333 L594.327 52.5927 L597.827 52.5927 C596.28 54.6552 595.671 55.9052 595.171 57.9833 L596.14 57.9833 C596.499 55.999 597.327 54.2958 598.812 52.4521 L598.812 51.7333 Z" fill="#000000" fill-opacity="1.000000"/>
  <path d="M673.787 61.4833 L668.303 61.4833 C668.444 60.5615 668.912 59.9677 670.194 59.1552 L671.662 58.2958 C673.115 57.4521 673.865 56.3115 673.865 54.9365 C673.865 54.0146 673.506 53.1552 672.897 52.5615 C672.272 51.999 671.506 51.7333 670.522 51.7333 C669.209 51.7333 668.225 52.2177 667.647 53.1396 C667.287 53.7177 667.115 54.4052 667.084 55.5302 L668.381 55.5302 C668.428 54.7802 668.522 54.3427 668.694 53.9677 C669.022 53.2802 669.709 52.874 670.475 52.874 C671.662 52.874 672.537 53.7646 672.537 54.9677 C672.537 55.8583 672.053 56.624 671.131 57.1865 L669.772 58.0146 C667.6 59.3271 666.975 60.374 666.85 62.7333 L673.787 62.7333 L673.787 61.4833 Z" fill="#000000" fill-opacity="1.000000"/>
  <path d="M678.115 55.0771 C678.709 54.7177 678.944 54.3115 678.944 53.624 C678.944 52.4365 678.115 51.7333 676.928 51.7333 C675.725 51.7333 674.897 52.4365 674.897 53.624 C674.897 54.3115 675.115 54.7177 675.725 55.0771 C675.037 55.4208 674.678 55.9677 674.678 56.6865 C674.678 57.9521 675.584 58.7333 676.928 58.7333 C678.256 58.7333 679.162 57.9521 679.162 56.7021 C679.162 55.9833 678.803 55.4208 678.115 55.0771 ZM676.928 52.5146 C677.6 52.5146 678.022 52.9521 678.022 53.6396 C678.022 54.3115 677.584 54.7333 676.928 54.7333 C676.24 54.7333 675.819 54.3115 675.819 53.6396 C675.819 52.9677 676.24 52.5146 676.928 52.5146 ZM676.928 55.4677 C677.709 55.4677 678.24 55.9833 678.24 56.7177 C678.24 57.4677 677.709 57.9677 676.912 57.9677 C676.131 57.9677 675.6 57.4521 675.6 56.7177 C675.6 55.9833 676.131 55.4677 676.928 55.4677 Z" fill="#000000" fill-opacity="1.000000"/>
  <path d="M754.232 61.4833 L748.747 61.4833 C748.888 60.5615 749.357 59.9677 750.638 59.1552 L752.107 58.2958 C753.56 57.4521 754.31 56.3115 754.31 54.9365 C754.31 54.0146 753.951 53.1552 753.341 52.5615 C752.716 51.999 751.951 51.7333 750.966 51.7333 C749.654 51.7333 748.669 52.2177 748.091 53.1396 C747.732 53.7177 747.56 54.4052 747.529 55.5302 L748.826 55.5302 C748.872 54.7802 748.966 54.3427 749.138 53.9677 C749.466 53.2802 750.154 52.874 750.919 52.874 C752.107 52.874 752.982 53.7646 752.982 54.9677 C752.982 55.8583 752.497 56.624 751.576 57.1865 L750.216 58.0146 C748.044 59.3271 747.419 60.374 747.294 62.7333 L754.232 62.7333 L754.232 61.4833 Z" fill="#000000" fill-opacity="1.000000"/>
  <path d="M755.263 56.5458 C755.435 57.8896 756.138 58.5146 757.185 58.5146 C757.919 58.5146 758.576 58.2021 758.982 57.5927 C759.404 56.8115 759.576 55.8427 759.576 54.6708 C759.576 52.749 758.841 51.7333 757.341 51.7333 C756.06 51.7333 755.138 52.624 755.138 53.8115 C755.138 54.9208 755.982 55.7333 757.185 55.7333 C757.81 55.7333 758.138 55.5927 758.638 55.124 C758.622 56.7177 758.107 57.7333 757.232 57.7333 C756.669 57.7333 756.294 57.3271 756.169 56.5458 L755.263 56.5458 ZM757.31 52.5146 C758.06 52.5146 758.591 53.0615 758.591 53.7958 C758.591 54.4677 758.06 54.9677 757.294 54.9677 C756.529 54.9677 756.06 54.499 756.06 53.749 C756.06 53.0302 756.591 52.5146 757.31 52.5146 Z" fill="#000000" fill-opacity="1.000000"/>
  <path d="M832.231 61.4833 L826.747 61.4833 C826.887 60.5615 827.356 59.9677 828.637 59.1552 L830.106 58.2958 C831.559 57.4521 832.309 56.3115 832.309 54.9365 C832.309 54.0146 831.95 53.1552 831.34 52.5615 C830.715 51.999 829.95 51.7333 828.965 51.7333 C827.653 51.7333 826.668 52.2177 826.09 53.1396 C825.731 53.7177 825.559 54.4052 825.528 55.5302 L826.825 55.5302 C826.872 54.7802 826.965 54.3427 827.137 53.9677 C827.465 53.2802 828.153 52.874 828.918 52.874 C830.106 52.874 830.981 53.7646 830.981 54.9677 C830.981 55.8583 830.497 56.624 829.575 57.1865 L828.215 58.0146 C826.043 59.3271 825.418 60.374 825.293 62.7333 L832.231 62.7333 L832.231 61.4833 Z" fill="#000000" fill-opacity="1.000000"/>
  <path d="M835.168 54.2333 L835.168 58.5771 L836.09 58.5771 L836.09 52.3271 L835.45 52.3271 C835.2 53.2802 834.997 53.4365 833.934 53.5302 L833.715 53.5458 L833.715 54.2333 L835.168 54.2333 Z" fill="#000000" fill-opacity="1.000000"/>
  <path d="M840.262 51.7333 C838.825 51.7333 838.075 52.874 838.075 55.0927 C838.075 57.3427 838.825 58.4677 840.278 58.4677 C841.684 58.4677 842.45 57.3427 842.45 55.1552 C842.45 52.8583 841.715 51.7333 840.262 51.7333 ZM840.262 52.5146 C841.106 52.5146 841.528 53.374 841.528 55.0771 C841.528 56.9052 841.122 57.7333 840.247 57.7333 C839.403 57.7333 838.997 56.8583 838.997 55.1083 C838.997 53.3583 839.403 52.5146 840.262 52.5146 Z" fill="#000000" fill-opacity="1.000000"/>
  <path d="M912.8 64.7333 L912.8 65.7333 L905.707 65.7333 Q905.691 65.3427 905.863 64.9677 Q906.128 64.3583 906.73 63.7724 Q907.332 63.1865 908.457 62.124 Q910.207 60.4677 910.824 59.538 Q911.441 58.6083 911.441 57.7958 Q911.441 56.9208 910.878 56.3271 Q910.316 55.7333 909.425 55.7333 Q908.472 55.7333 907.894 56.2646 Q907.316 56.7958 907.316 57.7333 L905.957 57.7333 Q906.097 56.2646 907.003 55.499 Q907.91 54.7333 909.441 54.7333 Q910.988 54.7333 911.886 55.624 Q912.785 56.5146 912.785 57.8427 Q912.785 58.5146 912.519 59.163 Q912.253 59.8115 911.644 60.5302 Q911.035 61.249 909.613 62.5302 Q908.425 63.5927 908.089 63.9677 Q907.753 64.3427 907.535 64.7333 L912.8 64.7333 Z" fill="#000000" fill-opacity="1.000000"/>
  <path d="M915.832 60.7333 L915.832 55.8115 Q915.082 56.4677 914.191 56.7333 L914.191 55.7333 Q914.644 55.624 915.207 55.3427 Q915.769 55.0615 916.113 54.7333 L916.894 54.7333 L916.894 60.7333 L915.832 60.7333 Z" fill="#000000" fill-opacity="1.000000"/>
  <path d="M920.722 60.7333 L920.722 55.8115 Q919.972 56.4677 919.082 56.7333 L919.082 55.7333 Q919.535 55.624 920.097 55.3427 Q920.66 55.0615 921.003 54.7333 L921.785 54.7333 L921.785 60.7333 L920.722 60.7333 Z" fill="#000000" fill-opacity="1.000000"/>
  <path d="M993.245 64.7333 L993.245 65.7333 L986.151 65.7333 Q986.135 65.3427 986.307 64.9677 Q986.573 64.3583 987.174 63.7724 Q987.776 63.1865 988.901 62.124 Q990.651 60.4677 991.268 59.538 Q991.885 58.6083 991.885 57.7958 Q991.885 56.9208 991.323 56.3271 Q990.76 55.7333 989.87 55.7333 Q988.917 55.7333 988.339 56.2646 Q987.76 56.7958 987.76 57.7333 L986.401 57.7333 Q986.542 56.2646 987.448 55.499 Q988.354 54.7333 989.885 54.7333 Q991.432 54.7333 992.331 55.624 Q993.229 56.5146 993.229 57.8427 Q993.229 58.5146 992.964 59.163 Q992.698 59.8115 992.089 60.5302 Q991.479 61.249 990.057 62.5302 Q988.87 63.5927 988.534 63.9677 Q988.198 64.3427 987.979 64.7333 L993.245 64.7333 Z" fill="#000000" fill-opacity="1.000000"/>
  <path d="M996.276 60.7333 L996.276 55.8115 Q995.526 56.4677 994.635 56.7333 L994.635 55.7333 Q995.089 55.624 995.651 55.3427 Q996.214 55.0615 996.557 54.7333 L997.339 54.7333 L997.339 60.7333 L996.276 60.7333 Z" fill="#000000" fill-opacity="1.000000"/>
  <path d="M998.932 60.7333 Q998.979 60.2802 999.276 59.8271 Q999.729 59.1552 1000.78 58.3271 Q1001.84 57.499 1002.04 57.2646 Q1002.31 56.9365 1002.31 56.6083 Q1002.31 56.2177 1002.05 55.9755 Q1001.79 55.7333 1001.29 55.7333 Q1000.81 55.7333 1000.57 55.9365 Q1000.34 56.1396 1000.18 56.7333 L999.089 56.7333 Q999.307 55.7021 999.831 55.2177 Q1000.35 54.7333 1001.32 54.7333 Q1002.43 54.7333 1002.95 55.2021 Q1003.46 55.6708 1003.46 56.3583 Q1003.46 57.0146 1003.03 57.624 Q1002.7 58.0615 1001.53 58.9833 Q1000.92 59.4521 1000.67 59.7333 L1003.49 59.7333 L1003.49 60.7333 L998.932 60.7333 Z" fill="#000000" fill-opacity="1.000000"/>
</svg>