<?xml version="1.0" encoding="UTF-8" ?>
<!-- Generated by clip v0.7.0 (clip-lang.org) -->
<svg xmlns="http://www.w3.org/2000/svg" width="1024.000000" height="60.000000">
  <rect width="1024.000000" height="60.000000" fill="#ffffff" fill-opacity="1.000000"/>
  <path d="M14.6667 30 L1009.33 30 " fill="none" stroke-width="1.333333" stroke="#000000ff"/>
  <path d="M14.6667 32.6667 L14.6667 27.3333 " fill="none" stroke-width="1.333333" stroke="#000000ff"/>
  <path d="M80.9778 32.6667 L80.9778 27.3333 " fill="none" stroke-width="1.333333" stroke="#000000ff"/>
  <path d="M147.289 32.6667 L147.289 27.3333 " fill="none" stroke-width="1.333333" stroke="#000000ff"/>
  <path d="M213.6 32.6667 L213.6 27.3333 " fill="none" stroke-width="1.333333" stroke="#000000ff"/>
  <path d="M279.911 32.6667 L279.911 27.3333 " fill="none" stroke-width="1.333333" stroke="#000000ff"/>
  <path d="M346.222 32.6667 L346.222 27.3333 " fill="none" stroke-width="1.333333" stroke="#000000ff"/>
  <path d="M412.533 32.6667 L412.533 27.3333 " fill="none" stroke-width="1.333333" stroke="#000000ff"/>
  <path d="M478.844 32.6667 L478.844 27.3333 " fill="none" stroke-width="1.333333" stroke="#000000ff"/>
  <path d="M545.156 32.6667 L545.156 27.3333 " fill="none" stroke-width="1.333333" stroke="#000000ff"/>
  <path d="M611.467 32.6667 L611.467 27.3333 " fill="none" stroke-width="1.333333" stroke="#000000ff"/>
  <path d="M677.778 32.6667 L677.778 27.3333 " fill="none" stroke-width="1.333333" stroke="#000000ff"/>
  <path d="M744.089 32.6667 L744.089 27.3333 " fill="none" stroke-width="1.333333" stroke="#000000ff"/>
  <path d="M810.4 32.6667 L810.4 27.3333 " fill="none" stroke-width="1.333333" stroke="#000000ff"/>
  <path d="M876.711 32.6667 L876.711 27.3333 " fill="none" stroke-width="1.333333" stroke="#000000ff"/>
  <path d="M943.022 32.6667 L943.022 27.3333 " fill="none" stroke-width="1.333333" stroke="#000000ff"/>
  <path d="M1009.33 32.6667 L1009.33 27.3333 " fill="none" stroke-width="1.333333" stroke="#000000ff"/>
  <path d="M16.1823 55.7333 L14.8542 55.7333 L14.8542 47.1552 Q14.3854 47.624 13.612 48.0849 Q12.8385 48.5458 12.2292 48.7802 L12.2292 47.4833 Q13.3385 46.9521 14.1589 46.1943 Q14.9792 45.4365 15.3229 44.7333 L16.1823 44.7333 L16.1823 55.7333 Z" fill="#000000" fill-opacity="1.000000"/>
  <path d="M84.4465 54.7333 L84.4465 55.7333 L77.3528 55.7333 Q77.3372 55.3427 77.509 54.9677 Q77.7747 54.3583 78.3762 53.7724 Q78.9778 53.1865 80.1028 52.124 Q81.8528 50.4677 82.47 49.538 Q83.0872 48.6083 83.0872 47.7958 Q83.0872 46.9208 82.5247 46.3271 Q81.9622 45.7333 81.0715 45.7333 Q80.1184 45.7333 79.5403 46.2646 Q78.9622 46.7958 78.9622 47.7333 L77.6028 47.7333 Q77.7434 46.2646 78.6497 45.499 Q79.5559 44.7333 81.0872 44.7333 Q82.634 44.7333 83.5325 45.624 Q84.4309 46.5146 84.4309 47.8427 Q84.4309 48.5146 84.1653 49.163 Q83.8997 49.8115 83.2903 50.5302 Q82.6809 51.249 81.259 52.5302 Q80.0715 53.5927 79.7356 53.9677 Q79.3997 54.3427 79.1809 54.7333 L84.4465 54.7333 Z" fill="#000000" fill-opacity="1.000000"/>
  <path d="M143.836 52.7333 L145.164 52.7333 Q145.398 53.7958 145.937 54.2646 Q146.476 54.7333 147.258 54.7333 Q148.195 54.7333 148.836 54.1161 Q149.476 53.499 149.476 52.5927 Q149.476 51.7177 148.883 51.1474 Q148.289 50.5771 147.367 50.5771 Q146.992 50.5771 146.445 50.7333 L146.586 49.7333 Q146.726 49.749 146.805 49.749 Q147.648 49.749 148.32 49.2411 Q148.992 48.7333 148.992 47.6708 Q148.992 46.8427 148.5 46.288 Q148.008 45.7333 147.226 45.7333 Q146.461 45.7333 145.945 46.2333 Q145.43 46.7333 145.289 47.7333 L143.976 47.7333 Q144.211 46.3115 145.07 45.5224 Q145.93 44.7333 147.211 44.7333 Q148.086 44.7333 148.828 45.1396 Q149.57 45.5458 149.961 46.249 Q150.351 46.9521 150.351 47.749 Q150.351 48.499 149.976 49.1161 Q149.601 49.7333 148.867 50.0927 Q149.82 50.2958 150.344 50.9443 Q150.867 51.5927 150.867 52.5771 Q150.867 53.8896 149.844 54.8115 Q148.82 55.7333 147.242 55.7333 Q145.836 55.7333 144.898 54.8974 Q143.961 54.0615 143.836 52.7333 Z" fill="#000000" fill-opacity="1.000000"/>
  <path d="M214.366 55.7333 L214.366 52.7333 L209.709 52.7333 L209.709 51.7333 L214.616 44.7333 L215.694 44.7333 L215.694 51.7333 L217.147 51.7333 L217.147 52.7333 L215.694 52.7333 L215.694 55.7333 L214.366 55.7333 ZM214.366 51.7333 L214.366 46.9365 L211.006 51.7333 L214.366 51.7333 Z" fill="#000000" fill-opacity="1.000000"/>
  <path d="M276.458 52.7333 L277.833 52.7333 Q277.989 53.7333 278.552 54.2333 Q279.114 54.7333 279.895 54.7333 Q280.849 54.7333 281.513 54.0224 Q282.177 53.3115 282.177 52.1396 Q282.177 51.0302 281.544 50.3818 Q280.911 49.7333 279.88 49.7333 Q279.239 49.7333 278.731 50.0146 Q278.224 50.2958 277.927 50.7333 L276.692 50.7333 L277.724 44.7333 L283.067 44.7333 L283.067 45.7333 L278.786 45.7333 L278.208 49.3115 Q279.177 48.7333 280.239 48.7333 Q281.63 48.7333 282.599 49.6708 Q283.567 50.6083 283.567 52.0615 Q283.567 53.4677 282.724 54.4833 Q281.692 55.7333 279.895 55.7333 Q278.442 55.7333 277.513 54.913 Q276.583 54.0927 276.458 52.7333 Z" fill="#000000" fill-opacity="1.000000"/>
  <path d="M349.613 47.7333 L348.3 47.7333 Q348.128 46.8115 347.8 46.4052 Q347.269 45.7333 346.488 45.7333 Q345.847 45.7333 345.378 46.124 Q344.753 46.624 344.394 47.5771 Q344.035 48.5302 344.019 50.1708 Q344.488 49.4365 345.183 49.0849 Q345.878 48.7333 346.628 48.7333 Q347.941 48.7333 348.871 49.6865 Q349.8 50.6396 349.8 52.1396 Q349.8 53.124 349.363 53.9755 Q348.925 54.8271 348.168 55.2802 Q347.41 55.7333 346.441 55.7333 Q344.785 55.7333 343.746 54.5146 Q342.707 53.2958 342.707 50.5146 Q342.707 47.3896 343.863 45.9677 Q344.863 44.7333 346.566 44.7333 Q347.832 44.7333 348.644 45.5302 Q349.457 46.3271 349.613 47.7333 ZM344.222 52.1083 Q344.222 52.7958 344.511 53.4286 Q344.8 54.0615 345.324 54.3974 Q345.847 54.7333 346.41 54.7333 Q347.253 54.7333 347.855 54.0458 Q348.457 53.3583 348.457 52.1708 Q348.457 51.0458 347.863 50.3896 Q347.269 49.7333 346.363 49.7333 Q345.472 49.7333 344.847 50.3896 Q344.222 51.0458 344.222 52.1083 Z" fill="#000000" fill-opacity="1.000000"/>
  <path d="M409.158 45.7333 L409.158 44.7333 L416.111 44.7333 L416.111 45.5458 Q415.096 46.6396 414.088 48.5771 Q413.08 50.5146 412.518 52.5615 Q412.127 54.0146 412.018 55.7333 L410.674 55.7333 Q410.69 54.374 411.166 52.4521 Q411.643 50.5302 412.533 48.7411 Q413.424 46.9521 414.424 45.7333 L409.158 45.7333 Z" fill="#000000" fill-opacity="1.000000"/>
  <path d="M477.423 50.2021 Q476.61 49.874 476.212 49.2568 Q475.813 48.6396 475.813 47.7802 Q475.813 46.499 476.657 45.6161 Q477.501 44.7333 478.891 44.7333 Q480.298 44.7333 481.157 45.6318 Q482.016 46.5302 482.016 47.8271 Q482.016 48.6552 481.618 49.2646 Q481.219 49.874 480.423 50.2021 Q481.423 50.499 481.938 51.163 Q482.454 51.8271 482.454 52.7333 Q482.454 53.999 481.477 54.8661 Q480.501 55.7333 478.923 55.7333 Q477.329 55.7333 476.352 54.8661 Q475.376 53.999 475.376 52.7021 Q475.376 51.7333 475.907 51.0849 Q476.438 50.4365 477.423 50.2021 ZM477.157 47.6865 Q477.157 48.5927 477.649 49.163 Q478.141 49.7333 478.923 49.7333 Q479.688 49.7333 480.173 49.163 Q480.657 48.5927 480.657 47.7646 Q480.657 46.9052 480.157 46.3193 Q479.657 45.7333 478.907 45.7333 Q478.157 45.7333 477.657 46.3036 Q477.157 46.874 477.157 47.6865 ZM476.735 52.7177 Q476.735 53.2333 477.001 53.7177 Q477.266 54.2021 477.79 54.4677 Q478.313 54.7333 478.923 54.7333 Q479.86 54.7333 480.477 54.1708 Q481.094 53.6083 481.094 52.749 Q481.094 51.874 480.462 51.3036 Q479.829 50.7333 478.876 50.7333 Q477.954 50.7333 477.344 51.2958 Q476.735 51.8583 476.735 52.7177 Z" fill="#000000" fill-opacity="1.000000"/>
  <path d="M541.906 52.7333 L543.171 52.7333 Q543.327 53.7802 543.781 54.2568 Q544.234 54.7333 544.952 54.7333 Q545.546 54.7333 546.007 54.4286 Q546.468 54.124 546.757 53.6161 Q547.046 53.1083 547.249 52.2568 Q547.452 51.4052 547.452 50.5771 Q547.452 50.499 547.437 50.3271 Q547.046 50.9521 546.359 51.3427 Q545.671 51.7333 544.874 51.7333 Q543.546 51.7333 542.624 50.788 Q541.702 49.8427 541.702 48.2802 Q541.702 46.6865 542.663 45.7099 Q543.624 44.7333 545.077 44.7333 Q546.124 44.7333 546.991 45.2958 Q547.859 45.8583 548.312 46.9052 Q548.765 47.9521 548.765 49.9365 Q548.765 52.0146 548.32 53.2333 Q547.874 54.4521 546.991 55.0927 Q546.109 55.7333 544.921 55.7333 Q543.656 55.7333 542.859 54.9443 Q542.062 54.1552 541.906 52.7333 ZM547.296 48.2646 Q547.296 47.0927 546.695 46.413 Q546.093 45.7333 545.234 45.7333 Q544.359 45.7333 543.71 46.4677 Q543.062 47.2021 543.062 48.374 Q543.062 49.4208 543.679 50.0771 Q544.296 50.7333 545.202 50.7333 Q546.124 50.7333 546.71 50.0771 Q547.296 49.4208 547.296 48.2646 Z" fill="#000000" fill-opacity="1.000000"/>
  <path d="M608.904 55.7333 L607.576 55.7333 L607.576 47.1552 Q607.107 47.624 606.334 48.0849 Q605.56 48.5458 604.951 48.7802 L604.951 47.4833 Q606.06 46.9521 606.881 46.1943 Q607.701 45.4365 608.045 44.7333 L608.904 44.7333 L608.904 55.7333 Z" fill="#000000" fill-opacity="1.000000"/>
  <path d="M612.092 50.2333 Q612.092 48.3271 612.482 47.163 Q612.873 45.999 613.646 45.3661 Q614.42 44.7333 615.592 44.7333 Q616.451 44.7333 617.107 45.0849 Q617.764 45.4365 618.185 46.0927 Q618.607 46.749 618.849 47.6943 Q619.092 48.6396 619.092 50.2333 Q619.092 52.1396 618.701 53.3036 Q618.31 54.4677 617.537 55.1005 Q616.764 55.7333 615.592 55.7333 Q614.045 55.7333 613.154 54.624 Q612.092 53.2646 612.092 50.2333 ZM613.451 50.2333 Q613.451 52.9365 614.068 53.8349 Q614.685 54.7333 615.592 54.7333 Q616.498 54.7333 617.115 53.8349 Q617.732 52.9365 617.732 50.2333 Q617.732 47.5146 617.115 46.624 Q616.498 45.7333 615.576 45.7333 Q614.67 45.7333 614.123 46.5146 Q613.451 47.5302 613.451 50.2333 Z" fill="#000000" fill-opacity="1.000000"/>
  <path d="M675.762 55.7333 L674.434 55.7333 L674.434 47.1552 Q673.965 47.624 673.192 48.0849 Q672.418 48.5458 671.809 48.7802 L671.809 47.4833 Q672.918 46.9521 673.739 46.1943 Q674.559 45.4365 674.903 44.7333 L675.762 44.7333 L675.762 55.7333 Z" fill="#000000" fill-opacity="1.000000"/>
  <path d="M683.372 55.7333 L682.043 55.7333 L682.043 47.1552 Q681.575 47.624 680.801 48.0849 Q680.028 48.5458 679.418 48.7802 L679.418 47.4833 Q680.528 46.9521 681.348 46.1943 Q682.168 45.4365 682.512 44.7333 L683.372 44.7333 L683.372 55.7333 Z" fill="#000000" fill-opacity="1.000000"/>
  <path d="M741.526 55.7333 L740.198 55.7333 L740.198 47.1552 Q739.73 47.624 738.956 48.0849 Q738.183 48.5458 737.573 48.7802 L737.573 47.4833 Q738.683 46.9521 739.503 46.1943 Q740.323 45.4365 740.667 44.7333 L741.526 44.7333 L741.526 55.7333 Z" fill="#000000" fill-opacity="1.000000"/>
  <path d="M751.636 54.7333 L751.636 55.7333 L744.542 55.7333 Q744.526 55.3427 744.698 54.9677 Q744.964 54.3583 745.565 53.7724 Q746.167 53.1865 747.292 52.124 Q749.042 50.4677 749.659 49.538 Q750.276 48.6083 750.276 47.7958 Q750.276 46.9208 749.714 46.3271 Q749.151 45.7333 748.261 45.7333 Q747.308 45.7333 746.73 46.2646 Q746.151 46.7958 746.151 47.7333 L744.792 47.7333 Q744.933 46.2646 745.839 45.499 Q746.745 44.7333 748.276 44.7333 Q749.823 44.7333 750.722 45.624 Q751.62 46.5146 751.62 47.8427 Q751.62 48.5146 751.355 49.163 Q751.089 49.8115 750.48 50.5302 Q749.87 51.249 748.448 52.5302 Q747.261 53.5927 746.925 53.9677 Q746.589 54.3427 746.37 54.7333 L751.636 54.7333 Z" fill="#000000" fill-opacity="1.000000"/>
  <path d="M807.837 55.7333 L806.509 55.7333 L806.509 47.1552 Q806.041 47.624 805.267 48.0849 Q804.494 48.5458 803.884 48.7802 L803.884 47.4833 Q804.994 46.9521 805.814 46.1943 Q806.634 45.4365 806.978 44.7333 L807.837 44.7333 L807.837 55.7333 Z" fill="#000000" fill-opacity="1.000000"/>
  <path d="M811.025 52.7333 L812.353 52.7333 Q812.587 53.7958 813.127 54.2646 Q813.666 54.7333 814.447 54.7333 Q815.384 54.7333 816.025 54.1161 Q816.666 53.499 816.666 52.5927 Q816.666 51.7177 816.072 51.1474 Q815.478 50.5771 814.556 50.5771 Q814.181 50.5771 813.634 50.7333 L813.775 49.7333 Q813.916 49.749 813.994 49.749 Q814.837 49.749 815.509 49.2411 Q816.181 48.7333 816.181 47.6708 Q816.181 46.8427 815.689 46.288 Q815.197 45.7333 814.416 45.7333 Q813.65 45.7333 813.134 46.2333 Q812.619 46.7333 812.478 47.7333 L811.166 47.7333 Q811.4 46.3115 812.259 45.5224 Q813.119 44.7333 814.4 44.7333 Q815.275 44.7333 816.017 45.1396 Q816.759 45.5458 817.15 46.249 Q817.541 46.9521 817.541 47.749 Q817.541 48.499 817.166 49.1161 Q816.791 49.7333 816.056 50.0927 Q817.009 50.2958 817.533 50.9443 Q818.056 51.5927 818.056 52.5771 Q818.056 53.8896 817.033 54.8115 Q816.009 55.7333 814.431 55.7333 Q813.025 55.7333 812.087 54.8974 Q811.15 54.0615 811.025 52.7333 Z" fill="#000000" fill-opacity="1.000000"/>
  <path d="M874.149 55.7333 L872.82 55.7333 L872.82 47.1552 Q872.352 47.624 871.578 48.0849 Q870.805 48.5458 870.195 48.7802 L870.195 47.4833 Q871.305 46.9521 872.125 46.1943 Q872.945 45.4365 873.289 44.7333 L874.149 44.7333 L874.149 55.7333 Z" fill="#000000" fill-opacity="1.000000"/>
  <path d="M881.555 55.7333 L881.555 52.7333 L876.899 52.7333 L876.899 51.7333 L881.805 44.7333 L882.883 44.7333 L882.883 51.7333 L884.336 51.7333 L884.336 52.7333 L882.883 52.7333 L882.883 55.7333 L881.555 55.7333 ZM881.555 51.7333 L881.555 46.9365 L878.195 51.7333 L881.555 51.7333 Z" fill="#000000" fill-opacity="1.000000"/>
  <path d="M940.46 55.7333 L939.132 55.7333 L939.132 47.1552 Q938.663 47.624 937.889 48.0849 Q937.116 48.5458 936.507 48.7802 L936.507 47.4833 Q937.616 46.9521 938.436 46.1943 Q939.257 45.4365 939.6 44.7333 L940.46 44.7333 L940.46 55.7333 Z" fill="#000000" fill-opacity="1.000000"/>
  <path d="M943.647 52.7333 L945.022 52.7333 Q945.178 53.7333 945.741 54.2333 Q946.303 54.7333 947.085 54.7333 Q948.038 54.7333 948.702 54.0224 Q949.366 53.3115 949.366 52.1396 Q949.366 51.0302 948.733 50.3818 Q948.1 49.7333 947.069 49.7333 Q946.428 49.7333 945.921 50.0146 Q945.413 50.2958 945.116 50.7333 L943.882 50.7333 L944.913 44.7333 L950.257 44.7333 L950.257 45.7333 L945.975 45.7333 L945.397 49.3115 Q946.366 48.7333 947.428 48.7333 Q948.819 48.7333 949.788 49.6708 Q950.757 50.6083 950.757 52.0615 Q950.757 53.4677 949.913 54.4833 Q948.882 55.7333 947.085 55.7333 Q945.632 55.7333 944.702 54.913 Q943.772 54.0927 943.647 52.7333 Z" fill="#000000" fill-opacity="1.000000"/>
  <path d="M1006.77 55.7333 L1005.44 55.7333 L1005.44 47.1552 Q1004.97 47.624 1004.2 48.0849 Q1003.43 48.5458 1002.82 48.7802 L1002.82 47.4833 Q1003.93 46.9521 1004.75 46.1943 Q1005.57 45.4365 1005.91 44.7333 L1006.77 44.7333 L1006.77 55.7333 Z" fill="#000000" fill-opacity="1.000000"/>
  <path d="M1016.8 47.7333 L1015.49 47.7333 Q1015.32 46.8115 1014.99 46.4052 Q1014.46 45.7333 1013.68 45.7333 Q1013.04 45.7333 1012.57 46.124 Q1011.94 46.624 1011.58 47.5771 Q1011.22 48.5302 1011.21 50.1708 Q1011.68 49.4365 1012.37 49.0849 Q1013.07 48.7333 1013.82 48.7333 Q1015.13 48.7333 1016.06 49.6865 Q1016.99 50.6396 1016.99 52.1396 Q1016.99 53.124 1016.55 53.9755 Q1016.11 54.8271 1015.36 55.2802 Q1014.6 55.7333 1013.63 55.7333 Q1011.97 55.7333 1010.93 54.5146 Q1009.9 53.2958 1009.9 50.5146 Q1009.9 47.3896 1011.05 45.9677 Q1012.05 44.7333 1013.76 44.7333 Q1015.02 44.7333 1015.83 45.5302 Q1016.65 46.3271 1016.8 47.7333 ZM1011.41 52.1083 Q1011.41 52.7958 1011.7 53.4286 Q1011.99 54.0615 1012.51 54.3974 Q1013.04 54.7333 1013.6 54.7333 Q1014.44 54.7333 1015.04 54.0458 Q1015.65 53.3583 1015.65 52.1708 Q1015.65 51.0458 1015.05 50.3896 Q1014.46 49.7333 1013.55 49.7333 Q1012.66 49.7333 1012.04 50.3896 Q1011.41 51.0458 1011.41 52.1083 Z" fill="#000000" fill-opacity="1.000000"/>
</svg>