<?xml version="1.0" encoding="UTF-8" ?>
<!-- Generated by clip v0.7.0 (clip-lang.org) -->
<svg xmlns="http://www.w3.org/2000/svg" width="1024.000000" height="80.000000">
  <rect width="1024.000000" height="80.000000" fill="#ffffff" fill-opacity="1.000000"/>
  <path d="M29.3333 40 L994.667 40 " fill="none" stroke-width="1.333333" stroke="#000000ff"/>
  <path d="M29.3333 42.6667 L29.3333 37.3333 " fill="none" stroke-width="1.333333" stroke="#000000ff"/>
  <path d="M125.867 42.6667 L125.867 37.3333 " fill="none" stroke-width="1.333333" stroke="#000000ff"/>
  <path d="M222.4 42.6667 L222.4 37.3333 " fill="none" stroke-width="1.333333" stroke="#000000ff"/>
  <path d="M318.933 42.6667 L318.933 37.3333 " fill="none" stroke-width="1.333333" stroke="#000000ff"/>
  <path d="M415.467 42.6667 L415.467 37.3333 " fill="none" stroke-width="1.333333" stroke="#000000ff"/>
  <path d="M512 42.6667 L512 37.3333 " fill="none" stroke-width="1.333333" stroke="#000000ff"/>
  <path d="M608.533 42.6667 L608.533 37.3333 " fill="none" stroke-width="1.333333" stroke="#000000ff"/>
  <path d="M705.067 42.6667 L705.067 37.3333 " fill="none" stroke-width="1.333333" stroke="#000000ff"/>
  <path d="M801.6 42.6667 L801.6 37.3333 " fill="none" stroke-width="1.333333" stroke="#000000ff"/>
  <path d="M898.133 42.6667 L898.133 37.3333 " fill="none" stroke-width="1.333333" stroke="#000000ff"/>
  <path d="M994.667 42.6667 L994.667 37.3333 " fill="none" stroke-width="1.333333" stroke="#000000ff"/>
  <path d="M24.7318 65.7333 L23.4036 65.7333 L23.4036 57.1552 Q22.9349 57.624 22.1615 58.0849 Q21.388 58.5458 20.7786 58.7802 L20.7786 57.4833 Q21.888 56.9521 22.7083 56.1943 Q23.5286 55.4365 23.8724 54.7333 L24.7318 54.7333 L24.7318 65.7333 Z" fill="#000000" fill-opacity="1.000000"/>
  <path d="M28.6536 65.7333 L28.6536 64.7333 L30.1536 64.7333 L30.1536 65.7333 L28.6536 65.7333 Z" fill="#000000" fill-opacity="1.000000"/>
  <path d="M31.9974 60.2333 Q31.9974 58.3271 32.388 57.163 Q32.7786 55.999 33.5521 55.3661 Q34.3255 54.7333 35.4974 54.7333 Q36.3568 54.7333 37.013 55.0849 Q37.6693 55.4365 38.0911 56.0927 Q38.513 56.749 38.7552 57.6943 Q38.9974 58.6396 38.9974 60.2333 Q38.9974 62.1396 38.6068 63.3036 Q38.2161 64.4677 37.4427 65.1005 Q36.6693 65.7333 35.4974 65.7333 Q33.9505 65.7333 33.0599 64.624 Q31.9974 63.2646 31.9974 60.2333 ZM33.3568 60.2333 Q33.3568 62.9365 33.974 63.8349 Q34.5911 64.7333 35.4974 64.7333 Q36.4036 64.7333 37.0208 63.8349 Q37.638 62.9365 37.638 60.2333 Q37.638 57.5146 37.0208 56.624 Q36.4036 55.7333 35.4818 55.7333 Q34.5755 55.7333 34.0286 56.5146 Q33.3568 57.5302 33.3568 60.2333 Z" fill="#000000" fill-opacity="1.000000"/>
  <path d="M123.218 64.7333 L123.218 65.7333 L116.124 65.7333 Q116.109 65.3427 116.281 64.9677 Q116.546 64.3583 117.148 63.7724 Q117.749 63.1865 118.874 62.124 Q120.624 60.4677 121.242 59.538 Q121.859 58.6083 121.859 57.7958 Q121.859 56.9208 121.296 56.3271 Q120.734 55.7333 119.843 55.7333 Q118.89 55.7333 118.312 56.2646 Q117.734 56.7958 117.734 57.7333 L116.374 57.7333 Q116.515 56.2646 117.421 55.499 Q118.328 54.7333 119.859 54.7333 Q121.406 54.7333 122.304 55.624 Q123.203 56.5146 123.203 57.8427 Q123.203 58.5146 122.937 59.163 Q122.671 59.8115 122.062 60.5302 Q121.453 61.249 120.031 62.5302 Q118.843 63.5927 118.507 63.9677 Q118.171 64.3427 117.953 64.7333 L123.218 64.7333 Z" fill="#000000" fill-opacity="1.000000"/>
  <path d="M125.187 65.7333 L125.187 64.7333 L126.687 64.7333 L126.687 65.7333 L125.187 65.7333 Z" fill="#000000" fill-opacity="1.000000"/>
  <path d="M128.531 62.7333 L129.906 62.7333 Q130.062 63.7333 130.624 64.2333 Q131.187 64.7333 131.968 64.7333 Q132.921 64.7333 133.585 64.0224 Q134.249 63.3115 134.249 62.1396 Q134.249 61.0302 133.617 60.3818 Q132.984 59.7333 131.953 59.7333 Q131.312 59.7333 130.804 60.0146 Q130.296 60.2958 129.999 60.7333 L128.765 60.7333 L129.796 54.7333 L135.14 54.7333 L135.14 55.7333 L130.859 55.7333 L130.281 59.3115 Q131.249 58.7333 132.312 58.7333 Q133.703 58.7333 134.671 59.6708 Q135.64 60.6083 135.64 62.0615 Q135.64 63.4677 134.796 64.4833 Q133.765 65.7333 131.968 65.7333 Q130.515 65.7333 129.585 64.913 Q128.656 64.0927 128.531 62.7333 Z" fill="#000000" fill-opacity="1.000000"/>
  <path d="M217.048 65.7333 L217.048 62.7333 L212.392 62.7333 L212.392 61.7333 L217.298 54.7333 L218.377 54.7333 L218.377 61.7333 L219.83 61.7333 L219.83 62.7333 L218.377 62.7333 L218.377 65.7333 L217.048 65.7333 ZM217.048 61.7333 L217.048 56.9365 L213.689 61.7333 L217.048 61.7333 Z" fill="#000000" fill-opacity="1.000000"/>
  <path d="M221.72 65.7333 L221.72 64.7333 L223.22 64.7333 L223.22 65.7333 L221.72 65.7333 Z" fill="#000000" fill-opacity="1.000000"/>
  <path d="M225.064 60.2333 Q225.064 58.3271 225.455 57.163 Q225.845 55.999 226.619 55.3661 Q227.392 54.7333 228.564 54.7333 Q229.423 54.7333 230.08 55.0849 Q230.736 55.4365 231.158 56.0927 Q231.58 56.749 231.822 57.6943 Q232.064 58.6396 232.064 60.2333 Q232.064 62.1396 231.673 63.3036 Q231.283 64.4677 230.509 65.1005 Q229.736 65.7333 228.564 65.7333 Q227.017 65.7333 226.127 64.624 Q225.064 63.2646 225.064 60.2333 ZM226.423 60.2333 Q226.423 62.9365 227.041 63.8349 Q227.658 64.7333 228.564 64.7333 Q229.47 64.7333 230.088 63.8349 Q230.705 62.9365 230.705 60.2333 Q230.705 57.5146 230.088 56.624 Q229.47 55.7333 228.548 55.7333 Q227.642 55.7333 227.095 56.5146 Q226.423 57.5302 226.423 60.2333 Z" fill="#000000" fill-opacity="1.000000"/>
  <path d="M309.363 62.7333 L310.738 62.7333 Q310.894 63.7333 311.457 64.2333 Q312.019 64.7333 312.801 64.7333 Q313.754 64.7333 314.418 64.0224 Q315.082 63.3115 315.082 62.1396 Q315.082 61.0302 314.449 60.3818 Q313.816 59.7333 312.785 59.7333 Q312.144 59.7333 311.636 60.0146 Q311.129 60.2958 310.832 60.7333 L309.597 60.7333 L310.629 54.7333 L315.972 54.7333 L315.972 55.7333 L311.691 55.7333 L311.113 59.3115 Q312.082 58.7333 313.144 58.7333 Q314.535 58.7333 315.504 59.6708 Q316.472 60.6083 316.472 62.0615 Q316.472 63.4677 315.629 64.4833 Q314.597 65.7333 312.801 65.7333 Q311.347 65.7333 310.418 64.913 Q309.488 64.0927 309.363 62.7333 Z" fill="#000000" fill-opacity="1.000000"/>
  <path d="M318.254 65.7333 L318.254 64.7333 L319.754 64.7333 L319.754 65.7333 L318.254 65.7333 Z" fill="#000000" fill-opacity="1.000000"/>
  <path d="M321.597 62.7333 L322.972 62.7333 Q323.129 63.7333 323.691 64.2333 Q324.254 64.7333 325.035 64.7333 Q325.988 64.7333 326.652 64.0224 Q327.316 63.3115 327.316 62.1396 Q327.316 61.0302 326.683 60.3818 Q326.051 59.7333 325.019 59.7333 Q324.379 59.7333 323.871 60.0146 Q323.363 60.2958 323.066 60.7333 L321.832 60.7333 L322.863 54.7333 L328.207 54.7333 L328.207 55.7333 L323.926 55.7333 L323.347 59.3115 Q324.316 58.7333 325.379 58.7333 Q326.769 58.7333 327.738 59.6708 Q328.707 60.6083 328.707 62.0615 Q328.707 63.4677 327.863 64.4833 Q326.832 65.7333 325.035 65.7333 Q323.582 65.7333 322.652 64.913 Q321.722 64.0927 321.597 62.7333 Z" fill="#000000" fill-opacity="1.000000"/>
  <path d="M405.974 55.7333 L405.974 54.7333 L412.928 54.7333 L412.928 55.5458 Q411.912 56.6396 410.904 58.5771 Q409.896 60.5146 409.334 62.5615 Q408.943 64.0146 408.834 65.7333 L407.49 65.7333 Q407.506 64.374 407.982 62.4521 Q408.459 60.5302 409.349 58.7411 Q410.24 56.9521 411.24 55.7333 L405.974 55.7333 Z" fill="#000000" fill-opacity="1.000000"/>
  <path d="M414.787 65.7333 L414.787 64.7333 L416.287 64.7333 L416.287 65.7333 L414.787 65.7333 Z" fill="#000000" fill-opacity="1.000000"/>
  <path d="M418.131 60.2333 Q418.131 58.3271 418.521 57.163 Q418.912 55.999 419.685 55.3661 Q420.459 54.7333 421.631 54.7333 Q422.49 54.7333 423.146 55.0849 Q423.803 55.4365 424.224 56.0927 Q424.646 56.749 424.889 57.6943 Q425.131 58.6396 425.131 60.2333 Q425.131 62.1396 424.74 63.3036 Q424.349 64.4677 423.576 65.1005 Q422.803 65.7333 421.631 65.7333 Q420.084 65.7333 419.193 64.624 Q418.131 63.2646 418.131 60.2333 ZM419.49 60.2333 Q419.49 62.9365 420.107 63.8349 Q420.724 64.7333 421.631 64.7333 Q422.537 64.7333 423.154 63.8349 Q423.771 62.9365 423.771 60.2333 Q423.771 57.5146 423.154 56.624 Q422.537 55.7333 421.615 55.7333 Q420.709 55.7333 420.162 56.5146 Q419.49 57.5302 419.49 60.2333 Z" fill="#000000" fill-opacity="1.000000"/>
  <path d="M504.461 60.2021 Q503.648 59.874 503.25 59.2568 Q502.852 58.6396 502.852 57.7802 Q502.852 56.499 503.695 55.6161 Q504.539 54.7333 505.93 54.7333 Q507.336 54.7333 508.195 55.6318 Q509.055 56.5302 509.055 57.8271 Q509.055 58.6552 508.656 59.2646 Q508.258 59.874 507.461 60.2021 Q508.461 60.499 508.977 61.163 Q509.492 61.8271 509.492 62.7333 Q509.492 63.999 508.516 64.8661 Q507.539 65.7333 505.961 65.7333 Q504.367 65.7333 503.391 64.8661 Q502.414 63.999 502.414 62.7021 Q502.414 61.7333 502.945 61.0849 Q503.477 60.4365 504.461 60.2021 ZM504.195 57.6865 Q504.195 58.5927 504.688 59.163 Q505.18 59.7333 505.961 59.7333 Q506.727 59.7333 507.211 59.163 Q507.695 58.5927 507.695 57.7646 Q507.695 56.9052 507.195 56.3193 Q506.695 55.7333 505.945 55.7333 Q505.195 55.7333 504.695 56.3036 Q504.195 56.874 504.195 57.6865 ZM503.773 62.7177 Q503.773 63.2333 504.039 63.7177 Q504.305 64.2021 504.828 64.4677 Q505.352 64.7333 505.961 64.7333 Q506.898 64.7333 507.516 64.1708 Q508.133 63.6083 508.133 62.749 Q508.133 61.874 507.5 61.3036 Q506.867 60.7333 505.914 60.7333 Q504.992 60.7333 504.383 61.2958 Q503.773 61.8583 503.773 62.7177 Z" fill="#000000" fill-opacity="1.000000"/>
  <path d="M511.32 65.7333 L511.32 64.7333 L512.82 64.7333 L512.82 65.7333 L511.32 65.7333 Z" fill="#000000" fill-opacity="1.000000"/>
  <path d="M514.664 62.7333 L516.039 62.7333 Q516.195 63.7333 516.758 64.2333 Q517.32 64.7333 518.102 64.7333 Q519.055 64.7333 519.719 64.0224 Q520.383 63.3115 520.383 62.1396 Q520.383 61.0302 519.75 60.3818 Q519.117 59.7333 518.086 59.7333 Q517.445 59.7333 516.938 60.0146 Q516.43 60.2958 516.133 60.7333 L514.898 60.7333 L515.93 54.7333 L521.273 54.7333 L521.273 55.7333 L516.992 55.7333 L516.414 59.3115 Q517.383 58.7333 518.445 58.7333 Q519.836 58.7333 520.805 59.6708 Q521.773 60.6083 521.773 62.0615 Q521.773 63.4677 520.93 64.4833 Q519.898 65.7333 518.102 65.7333 Q516.648 65.7333 515.719 64.913 Q514.789 64.0927 514.664 62.7333 Z" fill="#000000" fill-opacity="1.000000"/>
  <path d="M599.854 65.7333 L598.526 65.7333 L598.526 57.1552 Q598.057 57.624 597.283 58.0849 Q596.51 58.5458 595.901 58.7802 L595.901 57.4833 Q597.01 56.9521 597.83 56.1943 Q598.651 55.4365 598.994 54.7333 L599.854 54.7333 L599.854 65.7333 Z" fill="#000000" fill-opacity="1.000000"/>
  <path d="M603.041 60.2333 Q603.041 58.3271 603.432 57.163 Q603.822 55.999 604.596 55.3661 Q605.369 54.7333 606.541 54.7333 Q607.401 54.7333 608.057 55.0849 Q608.713 55.4365 609.135 56.0927 Q609.557 56.749 609.799 57.6943 Q610.041 58.6396 610.041 60.2333 Q610.041 62.1396 609.651 63.3036 Q609.26 64.4677 608.486 65.1005 Q607.713 65.7333 606.541 65.7333 Q604.994 65.7333 604.104 64.624 Q603.041 63.2646 603.041 60.2333 ZM604.401 60.2333 Q604.401 62.9365 605.018 63.8349 Q605.635 64.7333 606.541 64.7333 Q607.447 64.7333 608.065 63.8349 Q608.682 62.9365 608.682 60.2333 Q608.682 57.5146 608.065 56.624 Q607.447 55.7333 606.526 55.7333 Q605.619 55.7333 605.072 56.5146 Q604.401 57.5302 604.401 60.2333 Z" fill="#000000" fill-opacity="1.000000"/>
  <path d="M611.932 65.7333 L611.932 64.7333 L613.432 64.7333 L613.432 65.7333 L611.932 65.7333 Z" fill="#000000" fill-opacity="1.000000"/>
  <path d="M615.276 60.2333 Q615.276 58.3271 615.666 57.163 Q616.057 55.999 616.83 55.3661 Q617.604 54.7333 618.776 54.7333 Q619.635 54.7333 620.291 55.0849 Q620.947 55.4365 621.369 56.0927 Q621.791 56.749 622.033 57.6943 Q622.276 58.6396 622.276 60.2333 Q622.276 62.1396 621.885 63.3036 Q621.494 64.4677 620.721 65.1005 Q619.947 65.7333 618.776 65.7333 Q617.229 65.7333 616.338 64.624 Q615.276 63.2646 615.276 60.2333 ZM616.635 60.2333 Q616.635 62.9365 617.252 63.8349 Q617.869 64.7333 618.776 64.7333 Q619.682 64.7333 620.299 63.8349 Q620.916 62.9365 620.916 60.2333 Q620.916 57.5146 620.299 56.624 Q619.682 55.7333 618.76 55.7333 Q617.854 55.7333 617.307 56.5146 Q616.635 57.5302 616.635 60.2333 Z" fill="#000000" fill-opacity="1.000000"/>
  <path d="M696.934 65.7333 L695.606 65.7333 L695.606 57.1552 Q695.137 57.624 694.364 58.0849 Q693.59 58.5458 692.981 58.7802 L692.981 57.4833 Q694.09 56.9521 694.91 56.1943 Q695.731 55.4365 696.074 54.7333 L696.934 54.7333 L696.934 65.7333 Z" fill="#000000" fill-opacity="1.000000"/>
  <path d="M704.543 65.7333 L703.215 65.7333 L703.215 57.1552 Q702.746 57.624 701.973 58.0849 Q701.199 58.5458 700.59 58.7802 L700.59 57.4833 Q701.699 56.9521 702.52 56.1943 Q703.34 55.4365 703.684 54.7333 L704.543 54.7333 L704.543 65.7333 Z" fill="#000000" fill-opacity="1.000000"/>
  <path d="M707.918 65.7333 L707.918 64.7333 L709.418 64.7333 L709.418 65.7333 L707.918 65.7333 Z" fill="#000000" fill-opacity="1.000000"/>
  <path d="M711.262 62.7333 L712.637 62.7333 Q712.793 63.7333 713.356 64.2333 Q713.918 64.7333 714.699 64.7333 Q715.653 64.7333 716.317 64.0224 Q716.981 63.3115 716.981 62.1396 Q716.981 61.0302 716.348 60.3818 Q715.715 59.7333 714.684 59.7333 Q714.043 59.7333 713.535 60.0146 Q713.028 60.2958 712.731 60.7333 L711.496 60.7333 L712.528 54.7333 L717.871 54.7333 L717.871 55.7333 L713.59 55.7333 L713.012 59.3115 Q713.981 58.7333 715.043 58.7333 Q716.434 58.7333 717.403 59.6708 Q718.371 60.6083 718.371 62.0615 Q718.371 63.4677 717.528 64.4833 Q716.496 65.7333 714.699 65.7333 Q713.246 65.7333 712.317 64.913 Q711.387 64.0927 711.262 62.7333 Z" fill="#000000" fill-opacity="1.000000"/>
  <path d="M792.92 65.7333 L791.592 65.7333 L791.592 57.1552 Q791.123 57.624 790.35 58.0849 Q789.577 58.5458 788.967 58.7802 L788.967 57.4833 Q790.077 56.9521 790.897 56.1943 Q791.717 55.4365 792.061 54.7333 L792.92 54.7333 L792.92 65.7333 Z" fill="#000000" fill-opacity="1.000000"/>
  <path d="M796.108 62.7333 L797.436 62.7333 Q797.67 63.7958 798.209 64.2646 Q798.748 64.7333 799.53 64.7333 Q800.467 64.7333 801.108 64.1161 Q801.748 63.499 801.748 62.5927 Q801.748 61.7177 801.155 61.1474 Q800.561 60.5771 799.639 60.5771 Q799.264 60.5771 798.717 60.7333 L798.858 59.7333 Q798.998 59.749 799.077 59.749 Q799.92 59.749 800.592 59.2411 Q801.264 58.7333 801.264 57.6708 Q801.264 56.8427 800.772 56.288 Q800.28 55.7333 799.498 55.7333 Q798.733 55.7333 798.217 56.2333 Q797.702 56.7333 797.561 57.7333 L796.248 57.7333 Q796.483 56.3115 797.342 55.5224 Q798.202 54.7333 799.483 54.7333 Q800.358 54.7333 801.1 55.1396 Q801.842 55.5458 802.233 56.249 Q802.623 56.9521 802.623 57.749 Q802.623 58.499 802.248 59.1161 Q801.873 59.7333 801.139 60.0927 Q802.092 60.2958 802.616 60.9443 Q803.139 61.5927 803.139 62.5771 Q803.139 63.8896 802.116 64.8115 Q801.092 65.7333 799.514 65.7333 Q798.108 65.7333 797.17 64.8974 Q796.233 64.0615 796.108 62.7333 Z" fill="#000000" fill-opacity="1.000000"/>
  <path d="M804.998 65.7333 L804.998 64.7333 L806.498 64.7333 L806.498 65.7333 L804.998 65.7333 Z" fill="#000000" fill-opacity="1.000000"/>
  <path d="M808.342 60.2333 Q808.342 58.3271 808.733 57.163 Q809.123 55.999 809.897 55.3661 Q810.67 54.7333 811.842 54.7333 Q812.702 54.7333 813.358 55.0849 Q814.014 55.4365 814.436 56.0927 Q814.858 56.749 815.1 57.6943 Q815.342 58.6396 815.342 60.2333 Q815.342 62.1396 814.952 63.3036 Q814.561 64.4677 813.788 65.1005 Q813.014 65.7333 811.842 65.7333 Q810.295 65.7333 809.405 64.624 Q808.342 63.2646 808.342 60.2333 ZM809.702 60.2333 Q809.702 62.9365 810.319 63.8349 Q810.936 64.7333 811.842 64.7333 Q812.748 64.7333 813.366 63.8349 Q813.983 62.9365 813.983 60.2333 Q813.983 57.5146 813.366 56.624 Q812.748 55.7333 811.827 55.7333 Q810.92 55.7333 810.373 56.5146 Q809.702 57.5302 809.702 60.2333 Z" fill="#000000" fill-opacity="1.000000"/>
  <path d="M889.454 65.7333 L888.126 65.7333 L888.126 57.1552 Q887.657 57.624 886.883 58.0849 Q886.11 58.5458 885.501 58.7802 L885.501 57.4833 Q886.61 56.9521 887.43 56.1943 Q888.251 55.4365 888.594 54.7333 L889.454 54.7333 L889.454 65.7333 Z" fill="#000000" fill-opacity="1.000000"/>
  <path d="M896.86 65.7333 L896.86 62.7333 L892.204 62.7333 L892.204 61.7333 L897.11 54.7333 L898.188 54.7333 L898.188 61.7333 L899.641 61.7333 L899.641 62.7333 L898.188 62.7333 L898.188 65.7333 L896.86 65.7333 ZM896.86 61.7333 L896.86 56.9365 L893.501 61.7333 L896.86 61.7333 Z" fill="#000000" fill-opacity="1.000000"/>
  <path d="M901.532 65.7333 L901.532 64.7333 L903.032 64.7333 L903.032 65.7333 L901.532 65.7333 Z" fill="#000000" fill-opacity="1.000000"/>
  <path d="M904.876 62.7333 L906.251 62.7333 Q906.407 63.7333 906.969 64.2333 Q907.532 64.7333 908.313 64.7333 Q909.266 64.7333 909.93 64.0224 Q910.594 63.3115 910.594 62.1396 Q910.594 61.0302 909.961 60.3818 Q909.329 59.7333 908.297 59.7333 Q907.657 59.7333 907.149 60.0146 Q906.641 60.2958 906.344 60.7333 L905.11 60.7333 L906.141 54.7333 L911.485 54.7333 L911.485 55.7333 L907.204 55.7333 L906.626 59.3115 Q907.594 58.7333 908.657 58.7333 Q910.047 58.7333 911.016 59.6708 Q911.985 60.6083 911.985 62.0615 Q911.985 63.4677 911.141 64.4833 Q910.11 65.7333 908.313 65.7333 Q906.86 65.7333 905.93 64.913 Q905.001 64.0927 904.876 62.7333 Z" fill="#000000" fill-opacity="1.000000"/>
  <path d="M985.987 65.7333 L984.659 65.7333 L984.659 57.1552 Q984.19 57.624 983.417 58.0849 Q982.643 58.5458 982.034 58.7802 L982.034 57.4833 Q983.143 56.9521 983.964 56.1943 Q984.784 55.4365 985.128 54.7333 L985.987 54.7333 L985.987 65.7333 Z" fill="#000000" fill-opacity="1.000000"/>
  <path d="M996.018 57.7333 L994.706 57.7333 Q994.534 56.8115 994.206 56.4052 Q993.674 55.7333 992.893 55.7333 Q992.253 55.7333 991.784 56.124 Q991.159 56.624 990.799 57.5771 Q990.44 58.5302 990.424 60.1708 Q990.893 59.4365 991.589 59.0849 Q992.284 58.7333 993.034 58.7333 Q994.346 58.7333 995.276 59.6865 Q996.206 60.6396 996.206 62.1396 Q996.206 63.124 995.768 63.9755 Q995.331 64.8271 994.573 65.2802 Q993.815 65.7333 992.846 65.7333 Q991.19 65.7333 990.151 64.5146 Q989.112 63.2958 989.112 60.5146 Q989.112 57.3896 990.268 55.9677 Q991.268 54.7333 992.971 54.7333 Q994.237 54.7333 995.049 55.5302 Q995.862 56.3271 996.018 57.7333 ZM990.628 62.1083 Q990.628 62.7958 990.917 63.4286 Q991.206 64.0615 991.729 64.3974 Q992.253 64.7333 992.815 64.7333 Q993.659 64.7333 994.26 64.0458 Q994.862 63.3583 994.862 62.1708 Q994.862 61.0458 994.268 60.3896 Q993.674 59.7333 992.768 59.7333 Q991.878 59.7333 991.253 60.3896 Q990.628 61.0458 990.628 62.1083 Z" fill="#000000" fill-opacity="1.000000"/>
  <path d="M998.065 65.7333 L998.065 64.7333 L999.565 64.7333 L999.565 65.7333 L998.065 65.7333 Z" fill="#000000" fill-opacity="1.000000"/>
  <path d="M1001.41 60.2333 Q1001.41 58.3271 1001.8 57.163 Q1002.19 55.999 1002.96 55.3661 Q1003.74 54.7333 1004.91 54.7333 Q1005.77 54.7333 1006.42 55.0849 Q1007.08 55.4365 1007.5 56.0927 Q1007.92 56.749 1008.17 57.6943 Q1008.41 58.6396 1008.41 60.2333 Q1008.41 62.1396 1008.02 63.3036 Q1007.63 64.4677 1006.85 65.1005 Q1006.08 65.7333 1004.91 65.7333 Q1003.36 65.7333 1002.47 64.624 Q1001.41 63.2646 1001.41 60.2333 ZM1002.77 60.2333 Q1002.77 62.9365 1003.39 63.8349 Q1004 64.7333 1004.91 64.7333 Q1005.82 64.7333 1006.43 63.8349 Q1007.05 62.9365 1007.05 60.2333 Q1007.05 57.5146 1006.43 56.624 Q1005.82 55.7333 1004.89 55.7333 Q1003.99 55.7333 1003.44 56.5146 Q1002.77 57.5302 1002.77 60.2333 Z" fill="#000000" fill-opacity="1.000000"/>
</svg>