<?xml version="1.0" encoding="UTF-8" ?>
<!-- Generated by clip v0.8.0 (clip-lang.org) -->
<svg xmlns="http://www.w3.org/2000/svg" width="1024" height="80">
  <rect width="1024" height="80" fill="#ffffff" fill-opacity="1"/>
  <path d="M29.333 40 L994.667 40" fill="none" stroke="#000000" stroke-width="1.333"/>
  <path d="M29.333 42.667 L29.333 37.333" fill="none" stroke="#000000" stroke-width="1.333"/>
  <path d="M125.867 42.667 L125.867 37.333" fill="none" stroke="#000000" stroke-width="1.333"/>
  <path d="M222.400 42.667 L222.400 37.333" fill="none" stroke="#000000" stroke-width="1.333"/>
  <path d="M318.933 42.667 L318.933 37.333" fill="none" stroke="#000000" stroke-width="1.333"/>
  <path d="M415.467 42.667 L415.467 37.333" fill="none" stroke="#000000" stroke-width="1.333"/>
  <path d="M512 42.667 L512 37.333" fill="none" stroke="#000000" stroke-width="1.333"/>
  <path d="M608.533 42.667 L608.533 37.333" fill="none" stroke="#000000" stroke-width="1.333"/>
  <path d="M705.067 42.667 L705.067 37.333" fill="none" stroke="#000000" stroke-width="1.333"/>
  <path d="M801.600 42.667 L801.600 37.333" fill="none" stroke="#000000" stroke-width="1.333"/>
  <path d="M898.133 42.667 L898.133 37.333" fill="none" stroke="#000000" stroke-width="1.333"/>
  <path d="M994.667 42.667 L994.667 37.333" fill="none" stroke="#000000" stroke-width="1.333"/>
  <path d="M24.732 65.733 L23.404 65.733 L23.404 57.155 Q22.935 57.624 22.161 58.085 Q21.388 58.546 20.779 58.780 L20.779 57.483 Q21.888 56.952 22.708 56.194 Q23.529 55.436 23.872 54.733 L24.732 54.733 L24.732 65.733 Z"/>
  <path d="M28.654 65.733 L28.654 64.733 L30.154 64.733 L30.154 65.733 L28.654 65.733 Z"/>
  <path d="M31.997 60.233 Q31.997 58.327 32.388 57.163 Q32.779 55.999 33.552 55.366 Q34.326 54.733 35.497 54.733 Q36.357 54.733 37.013 55.085 Q37.669 55.436 38.091 56.093 Q38.513 56.749 38.755 57.694 Q38.997 58.640 38.997 60.233 Q38.997 62.140 38.607 63.304 Q38.216 64.468 37.443 65.101 Q36.669 65.733 35.497 65.733 Q33.951 65.733 33.060 64.624 Q31.997 63.265 31.997 60.233 Z M33.357 60.233 Q33.357 62.936 33.974 63.835 Q34.591 64.733 35.497 64.733 Q36.404 64.733 37.021 63.835 Q37.638 62.936 37.638 60.233 Q37.638 57.515 37.021 56.624 Q36.404 55.733 35.482 55.733 Q34.576 55.733 34.029 56.515 Q33.357 57.530 33.357 60.233 Z"/>
  <path d="M123.218 64.733 L123.218 65.733 L116.124 65.733 Q116.109 65.343 116.281 64.968 Q116.546 64.358 117.148 63.772 Q117.749 63.186 118.874 62.124 Q120.624 60.468 121.242 59.538 Q121.859 58.608 121.859 57.796 Q121.859 56.921 121.296 56.327 Q120.734 55.733 119.843 55.733 Q118.890 55.733 118.312 56.265 Q117.734 56.796 117.734 57.733 L116.374 57.733 Q116.515 56.265 117.421 55.499 Q118.328 54.733 119.859 54.733 Q121.406 54.733 122.304 55.624 Q123.203 56.515 123.203 57.843 Q123.203 58.515 122.937 59.163 Q122.671 59.811 122.062 60.530 Q121.453 61.249 120.031 62.530 Q118.843 63.593 118.507 63.968 Q118.171 64.343 117.953 64.733 L123.218 64.733 Z"/>
  <path d="M125.187 65.733 L125.187 64.733 L126.687 64.733 L126.687 65.733 L125.187 65.733 Z"/>
  <path d="M128.531 62.733 L129.906 62.733 Q130.062 63.733 130.624 64.233 Q131.187 64.733 131.968 64.733 Q132.921 64.733 133.585 64.022 Q134.249 63.311 134.249 62.140 Q134.249 61.030 133.617 60.382 Q132.984 59.733 131.953 59.733 Q131.312 59.733 130.804 60.015 Q130.296 60.296 129.999 60.733 L128.765 60.733 L129.796 54.733 L135.140 54.733 L135.140 55.733 L130.859 55.733 L130.281 59.311 Q131.249 58.733 132.312 58.733 Q133.703 58.733 134.671 59.671 Q135.640 60.608 135.640 62.061 Q135.640 63.468 134.796 64.483 Q133.765 65.733 131.968 65.733 Q130.515 65.733 129.585 64.913 Q128.656 64.093 128.531 62.733 Z"/>
  <path d="M217.048 65.733 L217.048 62.733 L212.392 62.733 L212.392 61.733 L217.298 54.733 L218.377 54.733 L218.377 61.733 L219.830 61.733 L219.830 62.733 L218.377 62.733 L218.377 65.733 L217.048 65.733 Z M217.048 61.733 L217.048 56.936 L213.689 61.733 L217.048 61.733 Z"/>
  <path d="M221.720 65.733 L221.720 64.733 L223.220 64.733 L223.220 65.733 L221.720 65.733 Z"/>
  <path d="M225.064 60.233 Q225.064 58.327 225.455 57.163 Q225.845 55.999 226.619 55.366 Q227.392 54.733 228.564 54.733 Q229.423 54.733 230.080 55.085 Q230.736 55.436 231.158 56.093 Q231.580 56.749 231.822 57.694 Q232.064 58.640 232.064 60.233 Q232.064 62.140 231.673 63.304 Q231.283 64.468 230.509 65.101 Q229.736 65.733 228.564 65.733 Q227.017 65.733 226.127 64.624 Q225.064 63.265 225.064 60.233 Z M226.423 60.233 Q226.423 62.936 227.041 63.835 Q227.658 64.733 228.564 64.733 Q229.470 64.733 230.088 63.835 Q230.705 62.936 230.705 60.233 Q230.705 57.515 230.088 56.624 Q229.470 55.733 228.548 55.733 Q227.642 55.733 227.095 56.515 Q226.423 57.530 226.423 60.233 Z"/>
  <path d="M309.363 62.733 L310.738 62.733 Q310.894 63.733 311.457 64.233 Q312.019 64.733 312.801 64.733 Q313.754 64.733 314.418 64.022 Q315.082 63.311 315.082 62.140 Q315.082 61.030 314.449 60.382 Q313.816 59.733 312.785 59.733 Q312.144 59.733 311.636 60.015 Q311.129 60.296 310.832 60.733 L309.597 60.733 L310.629 54.733 L315.972 54.733 L315.972 55.733 L311.691 55.733 L311.113 59.311 Q312.082 58.733 313.144 58.733 Q314.535 58.733 315.504 59.671 Q316.472 60.608 316.472 62.061 Q316.472 63.468 315.629 64.483 Q314.597 65.733 312.801 65.733 Q311.347 65.733 310.418 64.913 Q309.488 64.093 309.363 62.733 Z"/>
  <path d="M318.254 65.733 L318.254 64.733 L319.754 64.733 L319.754 65.733 L318.254 65.733 Z"/>
  <path d="M321.597 62.733 L322.972 62.733 Q323.129 63.733 323.691 64.233 Q324.254 64.733 325.035 64.733 Q325.988 64.733 326.652 64.022 Q327.316 63.311 327.316 62.140 Q327.316 61.030 326.683 60.382 Q326.051 59.733 325.019 59.733 Q324.379 59.733 323.871 60.015 Q323.363 60.296 323.066 60.733 L321.832 60.733 L322.863 54.733 L328.207 54.733 L328.207 55.733 L323.926 55.733 L323.347 59.311 Q324.316 58.733 325.379 58.733 Q326.769 58.733 327.738 59.671 Q328.707 60.608 328.707 62.061 Q328.707 63.468 327.863 64.483 Q326.832 65.733 325.035 65.733 Q323.582 65.733 322.652 64.913 Q321.722 64.093 321.597 62.733 Z"/>
  <path d="M405.974 55.733 L405.974 54.733 L412.928 54.733 L412.928 55.546 Q411.912 56.640 410.904 58.577 Q409.896 60.515 409.334 62.561 Q408.943 64.015 408.834 65.733 L407.490 65.733 Q407.506 64.374 407.982 62.452 Q408.459 60.530 409.349 58.741 Q410.240 56.952 411.240 55.733 L405.974 55.733 Z"/>
  <path d="M414.787 65.733 L414.787 64.733 L416.287 64.733 L416.287 65.733 L414.787 65.733 Z"/>
  <path d="M418.131 60.233 Q418.131 58.327 418.521 57.163 Q418.912 55.999 419.685 55.366 Q420.459 54.733 421.631 54.733 Q422.490 54.733 423.146 55.085 Q423.803 55.436 424.224 56.093 Q424.646 56.749 424.889 57.694 Q425.131 58.640 425.131 60.233 Q425.131 62.140 424.740 63.304 Q424.349 64.468 423.576 65.101 Q422.803 65.733 421.631 65.733 Q420.084 65.733 419.193 64.624 Q418.131 63.265 418.131 60.233 Z M419.490 60.233 Q419.490 62.936 420.107 63.835 Q420.724 64.733 421.631 64.733 Q422.537 64.733 423.154 63.835 Q423.771 62.936 423.771 60.233 Q423.771 57.515 423.154 56.624 Q422.537 55.733 421.615 55.733 Q420.709 55.733 420.162 56.515 Q419.490 57.530 419.490 60.233 Z"/>
  <path d="M504.461 60.202 Q503.648 59.874 503.250 59.257 Q502.852 58.640 502.852 57.780 Q502.852 56.499 503.695 55.616 Q504.539 54.733 505.930 54.733 Q507.336 54.733 508.195 55.632 Q509.055 56.530 509.055 57.827 Q509.055 58.655 508.656 59.265 Q508.258 59.874 507.461 60.202 Q508.461 60.499 508.977 61.163 Q509.492 61.827 509.492 62.733 Q509.492 63.999 508.516 64.866 Q507.539 65.733 505.961 65.733 Q504.367 65.733 503.391 64.866 Q502.414 63.999 502.414 62.702 Q502.414 61.733 502.945 61.085 Q503.477 60.436 504.461 60.202 Z M504.195 57.686 Q504.195 58.593 504.688 59.163 Q505.180 59.733 505.961 59.733 Q506.727 59.733 507.211 59.163 Q507.695 58.593 507.695 57.765 Q507.695 56.905 507.195 56.319 Q506.695 55.733 505.945 55.733 Q505.195 55.733 504.695 56.304 Q504.195 56.874 504.195 57.686 Z M503.773 62.718 Q503.773 63.233 504.039 63.718 Q504.305 64.202 504.828 64.468 Q505.352 64.733 505.961 64.733 Q506.898 64.733 507.516 64.171 Q508.133 63.608 508.133 62.749 Q508.133 61.874 507.500 61.304 Q506.867 60.733 505.914 60.733 Q504.992 60.733 504.383 61.296 Q503.773 61.858 503.773 62.718 Z"/>
  <path d="M511.320 65.733 L511.320 64.733 L512.820 64.733 L512.820 65.733 L511.320 65.733 Z"/>
  <path d="M514.664 62.733 L516.039 62.733 Q516.195 63.733 516.758 64.233 Q517.320 64.733 518.102 64.733 Q519.055 64.733 519.719 64.022 Q520.383 63.311 520.383 62.140 Q520.383 61.030 519.750 60.382 Q519.117 59.733 518.086 59.733 Q517.445 59.733 516.938 60.015 Q516.430 60.296 516.133 60.733 L514.898 60.733 L515.930 54.733 L521.273 54.733 L521.273 55.733 L516.992 55.733 L516.414 59.311 Q517.383 58.733 518.445 58.733 Q519.836 58.733 520.805 59.671 Q521.773 60.608 521.773 62.061 Q521.773 63.468 520.930 64.483 Q519.898 65.733 518.102 65.733 Q516.648 65.733 515.719 64.913 Q514.789 64.093 514.664 62.733 Z"/>
  <path d="M599.854 65.733 L598.526 65.733 L598.526 57.155 Q598.057 57.624 597.283 58.085 Q596.510 58.546 595.901 58.780 L595.901 57.483 Q597.010 56.952 597.830 56.194 Q598.651 55.436 598.994 54.733 L599.854 54.733 L599.854 65.733 Z"/>
  <path d="M603.041 60.233 Q603.041 58.327 603.432 57.163 Q603.822 55.999 604.596 55.366 Q605.369 54.733 606.541 54.733 Q607.401 54.733 608.057 55.085 Q608.713 55.436 609.135 56.093 Q609.557 56.749 609.799 57.694 Q610.041 58.640 610.041 60.233 Q610.041 62.140 609.651 63.304 Q609.260 64.468 608.486 65.101 Q607.713 65.733 606.541 65.733 Q604.994 65.733 604.104 64.624 Q603.041 63.265 603.041 60.233 Z M604.401 60.233 Q604.401 62.936 605.018 63.835 Q605.635 64.733 606.541 64.733 Q607.447 64.733 608.065 63.835 Q608.682 62.936 608.682 60.233 Q608.682 57.515 608.065 56.624 Q607.447 55.733 606.526 55.733 Q605.619 55.733 605.072 56.515 Q604.401 57.530 604.401 60.233 Z"/>
  <path d="M611.932 65.733 L611.932 64.733 L613.432 64.733 L613.432 65.733 L611.932 65.733 Z"/>
  <path d="M615.276 60.233 Q615.276 58.327 615.666 57.163 Q616.057 55.999 616.830 55.366 Q617.604 54.733 618.776 54.733 Q619.635 54.733 620.291 55.085 Q620.947 55.436 621.369 56.093 Q621.791 56.749 622.033 57.694 Q622.276 58.640 622.276 60.233 Q622.276 62.140 621.885 63.304 Q621.494 64.468 620.721 65.101 Q619.947 65.733 618.776 65.733 Q617.229 65.733 616.338 64.624 Q615.276 63.265 615.276 60.233 Z M616.635 60.233 Q616.635 62.936 617.252 63.835 Q617.869 64.733 618.776 64.733 Q619.682 64.733 620.299 63.835 Q620.916 62.936 620.916 60.233 Q620.916 57.515 620.299 56.624 Q619.682 55.733 618.760 55.733 Q617.854 55.733 617.307 56.515 Q616.635 57.530 616.635 60.233 Z"/>
  <path d="M696.934 65.733 L695.606 65.733 L695.606 57.155 Q695.137 57.624 694.364 58.085 Q693.590 58.546 692.981 58.780 L692.981 57.483 Q694.090 56.952 694.910 56.194 Q695.731 55.436 696.074 54.733 L696.934 54.733 L696.934 65.733 Z"/>
  <path d="M704.543 65.733 L703.215 65.733 L703.215 57.155 Q702.746 57.624 701.973 58.085 Q701.199 58.546 700.590 58.780 L700.590 57.483 Q701.699 56.952 702.520 56.194 Q703.340 55.436 703.684 54.733 L704.543 54.733 L704.543 65.733 Z"/>
  <path d="M707.918 65.733 L707.918 64.733 L709.418 64.733 L709.418 65.733 L707.918 65.733 Z"/>
  <path d="M711.262 62.733 L712.637 62.733 Q712.793 63.733 713.356 64.233 Q713.918 64.733 714.699 64.733 Q715.653 64.733 716.317 64.022 Q716.981 63.311 716.981 62.140 Q716.981 61.030 716.348 60.382 Q715.715 59.733 714.684 59.733 Q714.043 59.733 713.535 60.015 Q713.028 60.296 712.731 60.733 L711.496 60.733 L712.528 54.733 L717.871 54.733 L717.871 55.733 L713.590 55.733 L713.012 59.311 Q713.981 58.733 715.043 58.733 Q716.434 58.733 717.403 59.671 Q718.371 60.608 718.371 62.061 Q718.371 63.468 717.528 64.483 Q716.496 65.733 714.699 65.733 Q713.246 65.733 712.317 64.913 Q711.387 64.093 711.262 62.733 Z"/>
  <path d="M792.920 65.733 L791.592 65.733 L791.592 57.155 Q791.123 57.624 790.350 58.085 Q789.577 58.546 788.967 58.780 L788.967 57.483 Q790.077 56.952 790.897 56.194 Q791.717 55.436 792.061 54.733 L792.920 54.733 L792.920 65.733 Z"/>
  <path d="M796.108 62.733 L797.436 62.733 Q797.670 63.796 798.209 64.265 Q798.748 64.733 799.530 64.733 Q800.467 64.733 801.108 64.116 Q801.748 63.499 801.748 62.593 Q801.748 61.718 801.155 61.147 Q800.561 60.577 799.639 60.577 Q799.264 60.577 798.717 60.733 L798.858 59.733 Q798.998 59.749 799.077 59.749 Q799.920 59.749 800.592 59.241 Q801.264 58.733 801.264 57.671 Q801.264 56.843 800.772 56.288 Q800.280 55.733 799.498 55.733 Q798.733 55.733 798.217 56.233 Q797.702 56.733 797.561 57.733 L796.248 57.733 Q796.483 56.311 797.342 55.522 Q798.202 54.733 799.483 54.733 Q800.358 54.733 801.100 55.140 Q801.842 55.546 802.233 56.249 Q802.623 56.952 802.623 57.749 Q802.623 58.499 802.248 59.116 Q801.873 59.733 801.139 60.093 Q802.092 60.296 802.616 60.944 Q803.139 61.593 803.139 62.577 Q803.139 63.890 802.116 64.811 Q801.092 65.733 799.514 65.733 Q798.108 65.733 797.170 64.897 Q796.233 64.061 796.108 62.733 Z"/>
  <path d="M804.998 65.733 L804.998 64.733 L806.498 64.733 L806.498 65.733 L804.998 65.733 Z"/>
  <path d="M808.342 60.233 Q808.342 58.327 808.733 57.163 Q809.123 55.999 809.897 55.366 Q810.670 54.733 811.842 54.733 Q812.702 54.733 813.358 55.085 Q814.014 55.436 814.436 56.093 Q814.858 56.749 815.100 57.694 Q815.342 58.640 815.342 60.233 Q815.342 62.140 814.952 63.304 Q814.561 64.468 813.788 65.101 Q813.014 65.733 811.842 65.733 Q810.295 65.733 809.405 64.624 Q808.342 63.265 808.342 60.233 Z M809.702 60.233 Q809.702 62.936 810.319 63.835 Q810.936 64.733 811.842 64.733 Q812.748 64.733 813.366 63.835 Q813.983 62.936 813.983 60.233 Q813.983 57.515 813.366 56.624 Q812.748 55.733 811.827 55.733 Q810.920 55.733 810.373 56.515 Q809.702 57.530 809.702 60.233 Z"/>
  <path d="M889.454 65.733 L888.126 65.733 L888.126 57.155 Q887.657 57.624 886.883 58.085 Q886.110 58.546 885.501 58.780 L885.501 57.483 Q886.610 56.952 887.430 56.194 Q888.251 55.436 888.594 54.733 L889.454 54.733 L889.454 65.733 Z"/>
  <path d="M896.860 65.733 L896.860 62.733 L892.204 62.733 L892.204 61.733 L897.110 54.733 L898.188 54.733 L898.188 61.733 L899.641 61.733 L899.641 62.733 L898.188 62.733 L898.188 65.733 L896.860 65.733 Z M896.860 61.733 L896.860 56.936 L893.501 61.733 L896.860 61.733 Z"/>
  <path d="M901.532 65.733 L901.532 64.733 L903.032 64.733 L903.032 65.733 L901.532 65.733 Z"/>
  <path d="M904.876 62.733 L906.251 62.733 Q906.407 63.733 906.969 64.233 Q907.532 64.733 908.313 64.733 Q909.266 64.733 909.930 64.022 Q910.594 63.311 910.594 62.140 Q910.594 61.030 909.961 60.382 Q909.329 59.733 908.297 59.733 Q907.657 59.733 907.149 60.015 Q906.641 60.296 906.344 60.733 L905.110 60.733 L906.141 54.733 L911.485 54.733 L911.485 55.733 L907.204 55.733 L906.626 59.311 Q907.594 58.733 908.657 58.733 Q910.047 58.733 911.016 59.671 Q911.985 60.608 911.985 62.061 Q911.985 63.468 911.141 64.483 Q910.110 65.733 908.313 65.733 Q906.860 65.733 905.930 64.913 Q905.001 64.093 904.876 62.733 Z"/>
  <path d="M985.987 65.733 L984.659 65.733 L984.659 57.155 Q984.190 57.624 983.417 58.085 Q982.643 58.546 982.034 58.780 L982.034 57.483 Q983.143 56.952 983.964 56.194 Q984.784 55.436 985.128 54.733 L985.987 54.733 L985.987 65.733 Z"/>
  <path d="M996.018 57.733 L994.706 57.733 Q994.534 56.811 994.206 56.405 Q993.674 55.733 992.893 55.733 Q992.253 55.733 991.784 56.124 Q991.159 56.624 990.799 57.577 Q990.440 58.530 990.424 60.171 Q990.893 59.436 991.589 59.085 Q992.284 58.733 993.034 58.733 Q994.346 58.733 995.276 59.686 Q996.206 60.640 996.206 62.140 Q996.206 63.124 995.768 63.976 Q995.331 64.827 994.573 65.280 Q993.815 65.733 992.846 65.733 Q991.190 65.733 990.151 64.515 Q989.112 63.296 989.112 60.515 Q989.112 57.390 990.268 55.968 Q991.268 54.733 992.971 54.733 Q994.237 54.733 995.049 55.530 Q995.862 56.327 996.018 57.733 Z M990.628 62.108 Q990.628 62.796 990.917 63.429 Q991.206 64.061 991.729 64.397 Q992.253 64.733 992.815 64.733 Q993.659 64.733 994.260 64.046 Q994.862 63.358 994.862 62.171 Q994.862 61.046 994.268 60.390 Q993.674 59.733 992.768 59.733 Q991.878 59.733 991.253 60.390 Q990.628 61.046 990.628 62.108 Z"/>
  <path d="M998.065 65.733 L998.065 64.733 L999.565 64.733 L999.565 65.733 L998.065 65.733 Z"/>
  <path d="M1001.409 60.233 Q1001.409 58.327 1001.799 57.163 Q1002.190 55.999 1002.964 55.366 Q1003.737 54.733 1004.909 54.733 Q1005.768 54.733 1006.424 55.085 Q1007.081 55.436 1007.503 56.093 Q1007.924 56.749 1008.167 57.694 Q1008.409 58.640 1008.409 60.233 Q1008.409 62.140 1008.018 63.304 Q1007.628 64.468 1006.854 65.101 Q1006.081 65.733 1004.909 65.733 Q1003.362 65.733 1002.471 64.624 Q1001.409 63.265 1001.409 60.233 Z M1002.768 60.233 Q1002.768 62.936 1003.385 63.835 Q1004.003 64.733 1004.909 64.733 Q1005.815 64.733 1006.432 63.835 Q1007.049 62.936 1007.049 60.233 Q1007.049 57.515 1006.432 56.624 Q1005.815 55.733 1004.893 55.733 Q1003.987 55.733 1003.440 56.515 Q1002.768 57.530 1002.768 60.233 Z"/>
</svg>
