<?xml version="1.0" encoding="UTF-8" ?>
<!-- Generated by clip v0.8.0 (clip-lang.org) -->
<svg xmlns="http://www.w3.org/2000/svg" width="1024" height="60">
  <rect width="1024" height="60" fill="#ffffff" fill-opacity="1"/>
  <path d="M14.667 30 L1009.333 30" fill="none" stroke="#000000" stroke-width="1.333"/>
  <path d="M14.667 32.667 L14.667 27.333" fill="none" stroke="#000000" stroke-width="1.333"/>
  <path d="M80.978 32.667 L80.978 27.333" fill="none" stroke="#000000" stroke-width="1.333"/>
  <path d="M147.289 32.667 L147.289 27.333" fill="none" stroke="#000000" stroke-width="1.333"/>
  <path d="M213.600 32.667 L213.600 27.333" fill="none" stroke="#000000" stroke-width="1.333"/>
  <path d="M279.911 32.667 L279.911 27.333" fill="none" stroke="#000000" stroke-width="1.333"/>
  <path d="M346.222 32.667 L346.222 27.333" fill="none" stroke="#000000" stroke-width="1.333"/>
  <path d="M412.533 32.667 L412.533 27.333" fill="none" stroke="#000000" stroke-width="1.333"/>
  <path d="M478.844 32.667 L478.844 27.333" fill="none" stroke="#000000" stroke-width="1.333"/>
  <path d="M545.156 32.667 L545.156 27.333" fill="none" stroke="#000000" stroke-width="1.333"/>
  <path d="M611.467 32.667 L611.467 27.333" fill="none" stroke="#000000" stroke-width="1.333"/>
  <path d="M677.778 32.667 L677.778 27.333" fill="none" stroke="#000000" stroke-width="1.333"/>
  <path d="M744.089 32.667 L744.089 27.333" fill="none" stroke="#000000" stroke-width="1.333"/>
  <path d="M810.400 32.667 L810.400 27.333" fill="none" stroke="#000000" stroke-width="1.333"/>
  <path d="M876.711 32.667 L876.711 27.333" fill="none" stroke="#000000" stroke-width="1.333"/>
  <path d="M943.022 32.667 L943.022 27.333" fill="none" stroke="#000000" stroke-width="1.333"/>
  <path d="M1009.333 32.667 L1009.333 27.333" fill="none" stroke="#000000" stroke-width="1.333"/>
  <path d="M16.182 55.733 L14.854 55.733 L14.854 47.155 Q14.385 47.624 13.612 48.085 Q12.839 48.546 12.229 48.780 L12.229 47.483 Q13.339 46.952 14.159 46.194 Q14.979 45.436 15.323 44.733 L16.182 44.733 L16.182 55.733 Z"/>
  <path d="M84.447 54.733 L84.447 55.733 L77.353 55.733 Q77.337 55.343 77.509 54.968 Q77.775 54.358 78.376 53.772 Q78.978 53.186 80.103 52.124 Q81.853 50.468 82.470 49.538 Q83.087 48.608 83.087 47.796 Q83.087 46.921 82.525 46.327 Q81.962 45.733 81.072 45.733 Q80.118 45.733 79.540 46.265 Q78.962 46.796 78.962 47.733 L77.603 47.733 Q77.743 46.265 78.650 45.499 Q79.556 44.733 81.087 44.733 Q82.634 44.733 83.532 45.624 Q84.431 46.515 84.431 47.843 Q84.431 48.515 84.165 49.163 Q83.900 49.811 83.290 50.530 Q82.681 51.249 81.259 52.530 Q80.072 53.593 79.736 53.968 Q79.400 54.343 79.181 54.733 L84.447 54.733 Z"/>
  <path d="M143.836 52.733 L145.164 52.733 Q145.398 53.796 145.937 54.265 Q146.476 54.733 147.258 54.733 Q148.195 54.733 148.836 54.116 Q149.476 53.499 149.476 52.593 Q149.476 51.718 148.883 51.147 Q148.289 50.577 147.367 50.577 Q146.992 50.577 146.445 50.733 L146.586 49.733 Q146.726 49.749 146.805 49.749 Q147.648 49.749 148.320 49.241 Q148.992 48.733 148.992 47.671 Q148.992 46.843 148.500 46.288 Q148.008 45.733 147.226 45.733 Q146.461 45.733 145.945 46.233 Q145.430 46.733 145.289 47.733 L143.976 47.733 Q144.211 46.311 145.070 45.522 Q145.930 44.733 147.211 44.733 Q148.086 44.733 148.828 45.140 Q149.570 45.546 149.961 46.249 Q150.351 46.952 150.351 47.749 Q150.351 48.499 149.976 49.116 Q149.601 49.733 148.867 50.093 Q149.820 50.296 150.344 50.944 Q150.867 51.593 150.867 52.577 Q150.867 53.890 149.844 54.811 Q148.820 55.733 147.242 55.733 Q145.836 55.733 144.898 54.897 Q143.961 54.061 143.836 52.733 Z"/>
  <path d="M214.366 55.733 L214.366 52.733 L209.709 52.733 L209.709 51.733 L214.616 44.733 L215.694 44.733 L215.694 51.733 L217.147 51.733 L217.147 52.733 L215.694 52.733 L215.694 55.733 L214.366 55.733 Z M214.366 51.733 L214.366 46.936 L211.006 51.733 L214.366 51.733 Z"/>
  <path d="M276.458 52.733 L277.833 52.733 Q277.989 53.733 278.552 54.233 Q279.114 54.733 279.895 54.733 Q280.849 54.733 281.513 54.022 Q282.177 53.311 282.177 52.140 Q282.177 51.030 281.544 50.382 Q280.911 49.733 279.880 49.733 Q279.239 49.733 278.731 50.015 Q278.224 50.296 277.927 50.733 L276.692 50.733 L277.724 44.733 L283.067 44.733 L283.067 45.733 L278.786 45.733 L278.208 49.311 Q279.177 48.733 280.239 48.733 Q281.630 48.733 282.599 49.671 Q283.567 50.608 283.567 52.061 Q283.567 53.468 282.724 54.483 Q281.692 55.733 279.895 55.733 Q278.442 55.733 277.513 54.913 Q276.583 54.093 276.458 52.733 Z"/>
  <path d="M349.613 47.733 L348.300 47.733 Q348.128 46.811 347.800 46.405 Q347.269 45.733 346.488 45.733 Q345.847 45.733 345.378 46.124 Q344.753 46.624 344.394 47.577 Q344.035 48.530 344.019 50.171 Q344.488 49.436 345.183 49.085 Q345.878 48.733 346.628 48.733 Q347.941 48.733 348.871 49.686 Q349.800 50.640 349.800 52.140 Q349.800 53.124 349.363 53.976 Q348.925 54.827 348.168 55.280 Q347.410 55.733 346.441 55.733 Q344.785 55.733 343.746 54.515 Q342.707 53.296 342.707 50.515 Q342.707 47.390 343.863 45.968 Q344.863 44.733 346.566 44.733 Q347.832 44.733 348.644 45.530 Q349.457 46.327 349.613 47.733 Z M344.222 52.108 Q344.222 52.796 344.511 53.429 Q344.800 54.061 345.324 54.397 Q345.847 54.733 346.410 54.733 Q347.253 54.733 347.855 54.046 Q348.457 53.358 348.457 52.171 Q348.457 51.046 347.863 50.390 Q347.269 49.733 346.363 49.733 Q345.472 49.733 344.847 50.390 Q344.222 51.046 344.222 52.108 Z"/>
  <path d="M409.158 45.733 L409.158 44.733 L416.111 44.733 L416.111 45.546 Q415.096 46.640 414.088 48.577 Q413.080 50.515 412.518 52.561 Q412.127 54.015 412.018 55.733 L410.674 55.733 Q410.690 54.374 411.166 52.452 Q411.643 50.530 412.533 48.741 Q413.424 46.952 414.424 45.733 L409.158 45.733 Z"/>
  <path d="M477.423 50.202 Q476.610 49.874 476.212 49.257 Q475.813 48.640 475.813 47.780 Q475.813 46.499 476.657 45.616 Q477.501 44.733 478.891 44.733 Q480.298 44.733 481.157 45.632 Q482.016 46.530 482.016 47.827 Q482.016 48.655 481.618 49.265 Q481.219 49.874 480.423 50.202 Q481.423 50.499 481.938 51.163 Q482.454 51.827 482.454 52.733 Q482.454 53.999 481.477 54.866 Q480.501 55.733 478.923 55.733 Q477.329 55.733 476.352 54.866 Q475.376 53.999 475.376 52.702 Q475.376 51.733 475.907 51.085 Q476.438 50.436 477.423 50.202 Z M477.157 47.686 Q477.157 48.593 477.649 49.163 Q478.141 49.733 478.923 49.733 Q479.688 49.733 480.173 49.163 Q480.657 48.593 480.657 47.765 Q480.657 46.905 480.157 46.319 Q479.657 45.733 478.907 45.733 Q478.157 45.733 477.657 46.304 Q477.157 46.874 477.157 47.686 Z M476.735 52.718 Q476.735 53.233 477.001 53.718 Q477.266 54.202 477.790 54.468 Q478.313 54.733 478.923 54.733 Q479.860 54.733 480.477 54.171 Q481.094 53.608 481.094 52.749 Q481.094 51.874 480.462 51.304 Q479.829 50.733 478.876 50.733 Q477.954 50.733 477.344 51.296 Q476.735 51.858 476.735 52.718 Z"/>
  <path d="M541.906 52.733 L543.171 52.733 Q543.327 53.780 543.781 54.257 Q544.234 54.733 544.952 54.733 Q545.546 54.733 546.007 54.429 Q546.468 54.124 546.757 53.616 Q547.046 53.108 547.249 52.257 Q547.452 51.405 547.452 50.577 Q547.452 50.499 547.437 50.327 Q547.046 50.952 546.359 51.343 Q545.671 51.733 544.874 51.733 Q543.546 51.733 542.624 50.788 Q541.702 49.843 541.702 48.280 Q541.702 46.686 542.663 45.710 Q543.624 44.733 545.077 44.733 Q546.124 44.733 546.991 45.296 Q547.859 45.858 548.312 46.905 Q548.765 47.952 548.765 49.936 Q548.765 52.015 548.320 53.233 Q547.874 54.452 546.991 55.093 Q546.109 55.733 544.921 55.733 Q543.656 55.733 542.859 54.944 Q542.062 54.155 541.906 52.733 Z M547.296 48.265 Q547.296 47.093 546.695 46.413 Q546.093 45.733 545.234 45.733 Q544.359 45.733 543.710 46.468 Q543.062 47.202 543.062 48.374 Q543.062 49.421 543.679 50.077 Q544.296 50.733 545.202 50.733 Q546.124 50.733 546.710 50.077 Q547.296 49.421 547.296 48.265 Z"/>
  <path d="M608.904 55.733 L607.576 55.733 L607.576 47.155 Q607.107 47.624 606.334 48.085 Q605.560 48.546 604.951 48.780 L604.951 47.483 Q606.060 46.952 606.881 46.194 Q607.701 45.436 608.045 44.733 L608.904 44.733 L608.904 55.733 Z"/>
  <path d="M612.092 50.233 Q612.092 48.327 612.482 47.163 Q612.873 45.999 613.646 45.366 Q614.420 44.733 615.592 44.733 Q616.451 44.733 617.107 45.085 Q617.764 45.436 618.185 46.093 Q618.607 46.749 618.849 47.694 Q619.092 48.640 619.092 50.233 Q619.092 52.140 618.701 53.304 Q618.310 54.468 617.537 55.101 Q616.764 55.733 615.592 55.733 Q614.045 55.733 613.154 54.624 Q612.092 53.265 612.092 50.233 Z M613.451 50.233 Q613.451 52.936 614.068 53.835 Q614.685 54.733 615.592 54.733 Q616.498 54.733 617.115 53.835 Q617.732 52.936 617.732 50.233 Q617.732 47.515 617.115 46.624 Q616.498 45.733 615.576 45.733 Q614.670 45.733 614.123 46.515 Q613.451 47.530 613.451 50.233 Z"/>
  <path d="M675.762 55.733 L674.434 55.733 L674.434 47.155 Q673.965 47.624 673.192 48.085 Q672.418 48.546 671.809 48.780 L671.809 47.483 Q672.918 46.952 673.739 46.194 Q674.559 45.436 674.903 44.733 L675.762 44.733 L675.762 55.733 Z"/>
  <path d="M683.372 55.733 L682.043 55.733 L682.043 47.155 Q681.575 47.624 680.801 48.085 Q680.028 48.546 679.418 48.780 L679.418 47.483 Q680.528 46.952 681.348 46.194 Q682.168 45.436 682.512 44.733 L683.372 44.733 L683.372 55.733 Z"/>
  <path d="M741.526 55.733 L740.198 55.733 L740.198 47.155 Q739.730 47.624 738.956 48.085 Q738.183 48.546 737.573 48.780 L737.573 47.483 Q738.683 46.952 739.503 46.194 Q740.323 45.436 740.667 44.733 L741.526 44.733 L741.526 55.733 Z"/>
  <path d="M751.636 54.733 L751.636 55.733 L744.542 55.733 Q744.526 55.343 744.698 54.968 Q744.964 54.358 745.565 53.772 Q746.167 53.186 747.292 52.124 Q749.042 50.468 749.659 49.538 Q750.276 48.608 750.276 47.796 Q750.276 46.921 749.714 46.327 Q749.151 45.733 748.261 45.733 Q747.308 45.733 746.730 46.265 Q746.151 46.796 746.151 47.733 L744.792 47.733 Q744.933 46.265 745.839 45.499 Q746.745 44.733 748.276 44.733 Q749.823 44.733 750.722 45.624 Q751.620 46.515 751.620 47.843 Q751.620 48.515 751.355 49.163 Q751.089 49.811 750.480 50.530 Q749.870 51.249 748.448 52.530 Q747.261 53.593 746.925 53.968 Q746.589 54.343 746.370 54.733 L751.636 54.733 Z"/>
  <path d="M807.837 55.733 L806.509 55.733 L806.509 47.155 Q806.041 47.624 805.267 48.085 Q804.494 48.546 803.884 48.780 L803.884 47.483 Q804.994 46.952 805.814 46.194 Q806.634 45.436 806.978 44.733 L807.837 44.733 L807.837 55.733 Z"/>
  <path d="M811.025 52.733 L812.353 52.733 Q812.587 53.796 813.127 54.265 Q813.666 54.733 814.447 54.733 Q815.384 54.733 816.025 54.116 Q816.666 53.499 816.666 52.593 Q816.666 51.718 816.072 51.147 Q815.478 50.577 814.556 50.577 Q814.181 50.577 813.634 50.733 L813.775 49.733 Q813.916 49.749 813.994 49.749 Q814.837 49.749 815.509 49.241 Q816.181 48.733 816.181 47.671 Q816.181 46.843 815.689 46.288 Q815.197 45.733 814.416 45.733 Q813.650 45.733 813.134 46.233 Q812.619 46.733 812.478 47.733 L811.166 47.733 Q811.400 46.311 812.259 45.522 Q813.119 44.733 814.400 44.733 Q815.275 44.733 816.017 45.140 Q816.759 45.546 817.150 46.249 Q817.541 46.952 817.541 47.749 Q817.541 48.499 817.166 49.116 Q816.791 49.733 816.056 50.093 Q817.009 50.296 817.533 50.944 Q818.056 51.593 818.056 52.577 Q818.056 53.890 817.033 54.811 Q816.009 55.733 814.431 55.733 Q813.025 55.733 812.087 54.897 Q811.150 54.061 811.025 52.733 Z"/>
  <path d="M874.149 55.733 L872.820 55.733 L872.820 47.155 Q872.352 47.624 871.578 48.085 Q870.805 48.546 870.195 48.780 L870.195 47.483 Q871.305 46.952 872.125 46.194 Q872.945 45.436 873.289 44.733 L874.149 44.733 L874.149 55.733 Z"/>
  <path d="M881.555 55.733 L881.555 52.733 L876.899 52.733 L876.899 51.733 L881.805 44.733 L882.883 44.733 L882.883 51.733 L884.336 51.733 L884.336 52.733 L882.883 52.733 L882.883 55.733 L881.555 55.733 Z M881.555 51.733 L881.555 46.936 L878.195 51.733 L881.555 51.733 Z"/>
  <path d="M940.460 55.733 L939.132 55.733 L939.132 47.155 Q938.663 47.624 937.889 48.085 Q937.116 48.546 936.507 48.780 L936.507 47.483 Q937.616 46.952 938.436 46.194 Q939.257 45.436 939.600 44.733 L940.460 44.733 L940.460 55.733 Z"/>
  <path d="M943.647 52.733 L945.022 52.733 Q945.178 53.733 945.741 54.233 Q946.303 54.733 947.085 54.733 Q948.038 54.733 948.702 54.022 Q949.366 53.311 949.366 52.140 Q949.366 51.030 948.733 50.382 Q948.100 49.733 947.069 49.733 Q946.428 49.733 945.921 50.015 Q945.413 50.296 945.116 50.733 L943.882 50.733 L944.913 44.733 L950.257 44.733 L950.257 45.733 L945.975 45.733 L945.397 49.311 Q946.366 48.733 947.428 48.733 Q948.819 48.733 949.788 49.671 Q950.757 50.608 950.757 52.061 Q950.757 53.468 949.913 54.483 Q948.882 55.733 947.085 55.733 Q945.632 55.733 944.702 54.913 Q943.772 54.093 943.647 52.733 Z"/>
  <path d="M1006.771 55.733 L1005.443 55.733 L1005.443 47.155 Q1004.974 47.624 1004.201 48.085 Q1003.427 48.546 1002.818 48.780 L1002.818 47.483 Q1003.927 46.952 1004.747 46.194 Q1005.568 45.436 1005.911 44.733 L1006.771 44.733 L1006.771 55.733 Z"/>
  <path d="M1016.802 47.733 L1015.490 47.733 Q1015.318 46.811 1014.990 46.405 Q1014.458 45.733 1013.677 45.733 Q1013.036 45.733 1012.568 46.124 Q1011.943 46.624 1011.583 47.577 Q1011.224 48.530 1011.208 50.171 Q1011.677 49.436 1012.372 49.085 Q1013.068 48.733 1013.818 48.733 Q1015.130 48.733 1016.060 49.686 Q1016.990 50.640 1016.990 52.140 Q1016.990 53.124 1016.552 53.976 Q1016.115 54.827 1015.357 55.280 Q1014.599 55.733 1013.630 55.733 Q1011.974 55.733 1010.935 54.515 Q1009.896 53.296 1009.896 50.515 Q1009.896 47.390 1011.052 45.968 Q1012.052 44.733 1013.755 44.733 Q1015.021 44.733 1015.833 45.530 Q1016.646 46.327 1016.802 47.733 Z M1011.411 52.108 Q1011.411 52.796 1011.701 53.429 Q1011.990 54.061 1012.513 54.397 Q1013.036 54.733 1013.599 54.733 Q1014.443 54.733 1015.044 54.046 Q1015.646 53.358 1015.646 52.171 Q1015.646 51.046 1015.052 50.390 Q1014.458 49.733 1013.552 49.733 Q1012.661 49.733 1012.036 50.390 Q1011.411 51.046 1011.411 52.108 Z"/>
</svg>
