<?xml version="1.0" encoding="UTF-8" ?>
<!-- Generated by clip v0.7.0 (clip-lang.org) -->
<svg xmlns="http://www.w3.org/2000/svg" width="1024.000000" height="80.000000">
  <rect width="1024.000000" height="80.000000" fill="#ffffff" fill-opacity="1.000000"/>
  <path d="M29.3333 40 L994.667 40 " fill="none" stroke-width="1.333333" stroke="#000000ff"/>
  <path d="M29.3333 42.6667 L29.3333 37.3333 " fill="none" stroke-width="1.333333" stroke="#000000ff"/>
  <path d="M167.238 42.6667 L167.238 37.3333 " fill="none" stroke-width="1.333333" stroke="#000000ff"/>
  <path d="M305.143 42.6667 L305.143 37.3333 " fill="none" stroke-width="1.333333" stroke="#000000ff"/>
  <path d="M443.048 42.6667 L443.048 37.3333 " fill="none" stroke-width="1.333333" stroke="#000000ff"/>
  <path d="M580.952 42.6667 L580.952 37.3333 " fill="none" stroke-width="1.333333" stroke="#000000ff"/>
  <path d="M718.857 42.6667 L718.857 37.3333 " fill="none" stroke-width="1.333333" stroke="#000000ff"/>
  <path d="M856.762 42.6667 L856.762 37.3333 " fill="none" stroke-width="1.333333" stroke="#000000ff"/>
  <path d="M994.667 42.6667 L994.667 37.3333 " fill="none" stroke-width="1.333333" stroke="#000000ff"/>
  <path d="M25.8802 60.2333 Q25.8802 58.3271 26.2708 57.163 Q26.6615 55.999 27.4349 55.3661 Q28.2083 54.7333 29.3802 54.7333 Q30.2396 54.7333 30.8958 55.0849 Q31.5521 55.4365 31.974 56.0927 Q32.3958 56.749 32.638 57.6943 Q32.8802 58.6396 32.8802 60.2333 Q32.8802 62.1396 32.4896 63.3036 Q32.099 64.4677 31.3255 65.1005 Q30.5521 65.7333 29.3802 65.7333 Q27.8333 65.7333 26.9427 64.624 Q25.8802 63.2646 25.8802 60.2333 ZM27.2396 60.2333 Q27.2396 62.9365 27.8568 63.8349 Q28.474 64.7333 29.3802 64.7333 Q30.2865 64.7333 30.9036 63.8349 Q31.5208 62.9365 31.5208 60.2333 Q31.5208 57.5146 30.9036 56.624 Q30.2865 55.7333 29.3646 55.7333 Q28.4583 55.7333 27.9115 56.5146 Q27.2396 57.5302 27.2396 60.2333 Z" fill="#000000" fill-opacity="1.000000"/>
  <path d="M139.847 62.7333 L141.222 62.7333 Q141.379 63.7333 141.941 64.2333 Q142.504 64.7333 143.285 64.7333 Q144.238 64.7333 144.902 64.0224 Q145.566 63.3115 145.566 62.1396 Q145.566 61.0302 144.933 60.3818 Q144.301 59.7333 143.269 59.7333 Q142.629 59.7333 142.121 60.0146 Q141.613 60.2958 141.316 60.7333 L140.082 60.7333 L141.113 54.7333 L146.457 54.7333 L146.457 55.7333 L142.176 55.7333 L141.597 59.3115 Q142.566 58.7333 143.629 58.7333 Q145.019 58.7333 145.988 59.6708 Q146.957 60.6083 146.957 62.0615 Q146.957 63.4677 146.113 64.4833 Q145.082 65.7333 143.285 65.7333 Q141.832 65.7333 140.902 64.913 Q139.972 64.0927 139.847 62.7333 Z" fill="#000000" fill-opacity="1.000000"/>
  <path d="M148.738 65.7333 L148.738 64.7333 L150.238 64.7333 L150.238 65.7333 L148.738 65.7333 Z" fill="#000000" fill-opacity="1.000000"/>
  <path d="M152.082 60.2333 Q152.082 58.3271 152.472 57.163 Q152.863 55.999 153.637 55.3661 Q154.41 54.7333 155.582 54.7333 Q156.441 54.7333 157.097 55.0849 Q157.754 55.4365 158.176 56.0927 Q158.597 56.749 158.84 57.6943 Q159.082 58.6396 159.082 60.2333 Q159.082 62.1396 158.691 63.3036 Q158.301 64.4677 157.527 65.1005 Q156.754 65.7333 155.582 65.7333 Q154.035 65.7333 153.144 64.624 Q152.082 63.2646 152.082 60.2333 ZM153.441 60.2333 Q153.441 62.9365 154.058 63.8349 Q154.676 64.7333 155.582 64.7333 Q156.488 64.7333 157.105 63.8349 Q157.722 62.9365 157.722 60.2333 Q157.722 57.5146 157.105 56.624 Q156.488 55.7333 155.566 55.7333 Q154.66 55.7333 154.113 56.5146 Q153.441 57.5302 153.441 60.2333 Z" fill="#000000" fill-opacity="1.000000"/>
  <path d="" fill="#000000" fill-opacity="1.000000"/>
  <path d="M163.722 62.7333 L166.019 60.2333 L163.738 57.7333 L164.629 56.7333 L166.926 59.249 L169.222 56.7333 L170.097 57.0771 L167.816 60.2177 L170.113 63.3896 L169.222 63.7333 L166.91 61.2177 L164.613 63.7333 L163.722 62.7333 Z" fill="#000000" fill-opacity="1.000000"/>
  <path d="" fill="#000000" fill-opacity="1.000000"/>
  <path d="M179.644 65.7333 L178.316 65.7333 L178.316 57.1552 Q177.847 57.624 177.074 58.0849 Q176.301 58.5458 175.691 58.7802 L175.691 57.4833 Q176.801 56.9521 177.621 56.1943 Q178.441 55.4365 178.785 54.7333 L179.644 54.7333 L179.644 65.7333 Z" fill="#000000" fill-opacity="1.000000"/>
  <path d="M182.832 60.2333 Q182.832 58.3271 183.222 57.163 Q183.613 55.999 184.387 55.3661 Q185.16 54.7333 186.332 54.7333 Q187.191 54.7333 187.847 55.0849 Q188.504 55.4365 188.926 56.0927 Q189.347 56.749 189.59 57.6943 Q189.832 58.6396 189.832 60.2333 Q189.832 62.1396 189.441 63.3036 Q189.051 64.4677 188.277 65.1005 Q187.504 65.7333 186.332 65.7333 Q184.785 65.7333 183.894 64.624 Q182.832 63.2646 182.832 60.2333 ZM184.191 60.2333 Q184.191 62.9365 184.808 63.8349 Q185.426 64.7333 186.332 64.7333 Q187.238 64.7333 187.855 63.8349 Q188.472 62.9365 188.472 60.2333 Q188.472 57.5146 187.855 56.624 Q187.238 55.7333 186.316 55.7333 Q185.41 55.7333 184.863 56.5146 Q184.191 57.5302 184.191 60.2333 Z" fill="#000000" fill-opacity="1.000000"/>
  <path d="M190.551 60.7333 Q190.597 60.2802 190.894 59.8271 Q191.347 59.1552 192.402 58.3271 Q193.457 57.499 193.66 57.2646 Q193.926 56.9365 193.926 56.6083 Q193.926 56.2177 193.668 55.9755 Q193.41 55.7333 192.91 55.7333 Q192.426 55.7333 192.191 55.9365 Q191.957 56.1396 191.801 56.7333 L190.707 56.7333 Q190.926 55.7021 191.449 55.2177 Q191.972 54.7333 192.941 54.7333 Q194.051 54.7333 194.566 55.2021 Q195.082 55.6708 195.082 56.3583 Q195.082 57.0146 194.644 57.624 Q194.316 58.0615 193.144 58.9833 Q192.535 59.4521 192.285 59.7333 L195.113 59.7333 L195.113 60.7333 L190.551 60.7333 Z" fill="#000000" fill-opacity="1.000000"/>
  <path d="M282.721 65.7333 L281.393 65.7333 L281.393 57.1552 Q280.924 57.624 280.151 58.0849 Q279.377 58.5458 278.768 58.7802 L278.768 57.4833 Q279.877 56.9521 280.698 56.1943 Q281.518 55.4365 281.862 54.7333 L282.721 54.7333 L282.721 65.7333 Z" fill="#000000" fill-opacity="1.000000"/>
  <path d="M286.643 65.7333 L286.643 64.7333 L288.143 64.7333 L288.143 65.7333 L286.643 65.7333 Z" fill="#000000" fill-opacity="1.000000"/>
  <path d="M289.987 60.2333 Q289.987 58.3271 290.377 57.163 Q290.768 55.999 291.541 55.3661 Q292.315 54.7333 293.487 54.7333 Q294.346 54.7333 295.002 55.0849 Q295.658 55.4365 296.08 56.0927 Q296.502 56.749 296.744 57.6943 Q296.987 58.6396 296.987 60.2333 Q296.987 62.1396 296.596 63.3036 Q296.205 64.4677 295.432 65.1005 Q294.658 65.7333 293.487 65.7333 Q291.94 65.7333 291.049 64.624 Q289.987 63.2646 289.987 60.2333 ZM291.346 60.2333 Q291.346 62.9365 291.963 63.8349 Q292.58 64.7333 293.487 64.7333 Q294.393 64.7333 295.01 63.8349 Q295.627 62.9365 295.627 60.2333 Q295.627 57.5146 295.01 56.624 Q294.393 55.7333 293.471 55.7333 Q292.565 55.7333 292.018 56.5146 Q291.346 57.5302 291.346 60.2333 Z" fill="#000000" fill-opacity="1.000000"/>
  <path d="" fill="#000000" fill-opacity="1.000000"/>
  <path d="M301.627 62.7333 L303.924 60.2333 L301.643 57.7333 L302.533 56.7333 L304.83 59.249 L307.127 56.7333 L308.002 57.0771 L305.721 60.2177 L308.018 63.3896 L307.127 63.7333 L304.815 61.2177 L302.518 63.7333 L301.627 62.7333 Z" fill="#000000" fill-opacity="1.000000"/>
  <path d="" fill="#000000" fill-opacity="1.000000"/>
  <path d="M317.549 65.7333 L316.221 65.7333 L316.221 57.1552 Q315.752 57.624 314.979 58.0849 Q314.205 58.5458 313.596 58.7802 L313.596 57.4833 Q314.705 56.9521 315.526 56.1943 Q316.346 55.4365 316.69 54.7333 L317.549 54.7333 L317.549 65.7333 Z" fill="#000000" fill-opacity="1.000000"/>
  <path d="M320.737 60.2333 Q320.737 58.3271 321.127 57.163 Q321.518 55.999 322.291 55.3661 Q323.065 54.7333 324.237 54.7333 Q325.096 54.7333 325.752 55.0849 Q326.408 55.4365 326.83 56.0927 Q327.252 56.749 327.494 57.6943 Q327.737 58.6396 327.737 60.2333 Q327.737 62.1396 327.346 63.3036 Q326.955 64.4677 326.182 65.1005 Q325.408 65.7333 324.237 65.7333 Q322.69 65.7333 321.799 64.624 Q320.737 63.2646 320.737 60.2333 ZM322.096 60.2333 Q322.096 62.9365 322.713 63.8349 Q323.33 64.7333 324.237 64.7333 Q325.143 64.7333 325.76 63.8349 Q326.377 62.9365 326.377 60.2333 Q326.377 57.5146 325.76 56.624 Q325.143 55.7333 324.221 55.7333 Q323.315 55.7333 322.768 56.5146 Q322.096 57.5302 322.096 60.2333 Z" fill="#000000" fill-opacity="1.000000"/>
  <path d="M328.502 58.7333 L329.58 58.7333 Q329.721 59.2646 329.955 59.4677 Q330.283 59.7333 330.705 59.7333 Q331.237 59.7333 331.549 59.4052 Q331.862 59.0771 331.862 58.624 Q331.862 58.2021 331.596 57.9599 Q331.33 57.7177 330.69 57.7177 Q330.596 57.7177 330.44 57.7333 Q330.346 57.7333 330.283 57.7333 L330.455 56.7333 Q331.049 56.7333 331.323 56.5771 Q331.596 56.4208 331.596 56.2021 Q331.596 55.999 331.377 55.8661 Q331.158 55.7333 330.721 55.7333 Q330.315 55.7333 330.08 55.9521 Q329.846 56.1708 329.674 56.7333 L328.627 56.7333 Q328.924 55.624 329.385 55.1786 Q329.846 54.7333 330.721 54.7333 Q331.783 54.7333 332.26 55.1005 Q332.737 55.4677 332.737 56.0302 Q332.737 56.4052 332.479 56.7099 Q332.221 57.0146 331.737 57.1396 Q332.393 57.3271 332.698 57.7568 Q333.002 58.1865 333.002 58.7646 Q333.002 59.5615 332.424 60.1474 Q331.846 60.7333 330.768 60.7333 Q329.737 60.7333 329.198 60.2177 Q328.658 59.7021 328.502 58.7333 Z" fill="#000000" fill-opacity="1.000000"/>
  <path d="M420.626 65.7333 L419.298 65.7333 L419.298 57.1552 Q418.829 57.624 418.055 58.0849 Q417.282 58.5458 416.673 58.7802 L416.673 57.4833 Q417.782 56.9521 418.602 56.1943 Q419.423 55.4365 419.766 54.7333 L420.626 54.7333 L420.626 65.7333 Z" fill="#000000" fill-opacity="1.000000"/>
  <path d="M424.548 65.7333 L424.548 64.7333 L426.048 64.7333 L426.048 65.7333 L424.548 65.7333 Z" fill="#000000" fill-opacity="1.000000"/>
  <path d="M427.891 62.7333 L429.266 62.7333 Q429.423 63.7333 429.985 64.2333 Q430.548 64.7333 431.329 64.7333 Q432.282 64.7333 432.946 64.0224 Q433.61 63.3115 433.61 62.1396 Q433.61 61.0302 432.977 60.3818 Q432.344 59.7333 431.313 59.7333 Q430.673 59.7333 430.165 60.0146 Q429.657 60.2958 429.36 60.7333 L428.126 60.7333 L429.157 54.7333 L434.501 54.7333 L434.501 55.7333 L430.219 55.7333 L429.641 59.3115 Q430.61 58.7333 431.673 58.7333 Q433.063 58.7333 434.032 59.6708 Q435.001 60.6083 435.001 62.0615 Q435.001 63.4677 434.157 64.4833 Q433.126 65.7333 431.329 65.7333 Q429.876 65.7333 428.946 64.913 Q428.016 64.0927 427.891 62.7333 Z" fill="#000000" fill-opacity="1.000000"/>
  <path d="" fill="#000000" fill-opacity="1.000000"/>
  <path d="M439.532 62.7333 L441.829 60.2333 L439.548 57.7333 L440.438 56.7333 L442.735 59.249 L445.032 56.7333 L445.907 57.0771 L443.626 60.2177 L445.923 63.3896 L445.032 63.7333 L442.719 61.2177 L440.423 63.7333 L439.532 62.7333 Z" fill="#000000" fill-opacity="1.000000"/>
  <path d="" fill="#000000" fill-opacity="1.000000"/>
  <path d="M455.454 65.7333 L454.126 65.7333 L454.126 57.1552 Q453.657 57.624 452.884 58.0849 Q452.11 58.5458 451.501 58.7802 L451.501 57.4833 Q452.61 56.9521 453.43 56.1943 Q454.251 55.4365 454.594 54.7333 L455.454 54.7333 L455.454 65.7333 Z" fill="#000000" fill-opacity="1.000000"/>
  <path d="M458.641 60.2333 Q458.641 58.3271 459.032 57.163 Q459.423 55.999 460.196 55.3661 Q460.969 54.7333 462.141 54.7333 Q463.001 54.7333 463.657 55.0849 Q464.313 55.4365 464.735 56.0927 Q465.157 56.749 465.399 57.6943 Q465.641 58.6396 465.641 60.2333 Q465.641 62.1396 465.251 63.3036 Q464.86 64.4677 464.087 65.1005 Q463.313 65.7333 462.141 65.7333 Q460.594 65.7333 459.704 64.624 Q458.641 63.2646 458.641 60.2333 ZM460.001 60.2333 Q460.001 62.9365 460.618 63.8349 Q461.235 64.7333 462.141 64.7333 Q463.048 64.7333 463.665 63.8349 Q464.282 62.9365 464.282 60.2333 Q464.282 57.5146 463.665 56.624 Q463.048 55.7333 462.126 55.7333 Q461.219 55.7333 460.673 56.5146 Q460.001 57.5302 460.001 60.2333 Z" fill="#000000" fill-opacity="1.000000"/>
  <path d="M466.407 58.7333 L467.485 58.7333 Q467.626 59.2646 467.86 59.4677 Q468.188 59.7333 468.61 59.7333 Q469.141 59.7333 469.454 59.4052 Q469.766 59.0771 469.766 58.624 Q469.766 58.2021 469.501 57.9599 Q469.235 57.7177 468.594 57.7177 Q468.501 57.7177 468.344 57.7333 Q468.251 57.7333 468.188 57.7333 L468.36 56.7333 Q468.954 56.7333 469.227 56.5771 Q469.501 56.4208 469.501 56.2021 Q469.501 55.999 469.282 55.8661 Q469.063 55.7333 468.626 55.7333 Q468.219 55.7333 467.985 55.9521 Q467.751 56.1708 467.579 56.7333 L466.532 56.7333 Q466.829 55.624 467.29 55.1786 Q467.751 54.7333 468.626 54.7333 Q469.688 54.7333 470.165 55.1005 Q470.641 55.4677 470.641 56.0302 Q470.641 56.4052 470.384 56.7099 Q470.126 57.0146 469.641 57.1396 Q470.298 57.3271 470.602 57.7568 Q470.907 58.1865 470.907 58.7646 Q470.907 59.5615 470.329 60.1474 Q469.751 60.7333 468.673 60.7333 Q467.641 60.7333 467.102 60.2177 Q466.563 59.7021 466.407 58.7333 Z" fill="#000000" fill-opacity="1.000000"/>
  <path d="M560.484 64.7333 L560.484 65.7333 L553.39 65.7333 Q553.374 65.3427 553.546 64.9677 Q553.812 64.3583 554.413 63.7724 Q555.015 63.1865 556.14 62.124 Q557.89 60.4677 558.507 59.538 Q559.124 58.6083 559.124 57.7958 Q559.124 56.9208 558.562 56.3271 Q557.999 55.7333 557.109 55.7333 Q556.156 55.7333 555.577 56.2646 Q554.999 56.7958 554.999 57.7333 L553.64 57.7333 Q553.781 56.2646 554.687 55.499 Q555.593 54.7333 557.124 54.7333 Q558.671 54.7333 559.57 55.624 Q560.468 56.5146 560.468 57.8427 Q560.468 58.5146 560.202 59.163 Q559.937 59.8115 559.327 60.5302 Q558.718 61.249 557.296 62.5302 Q556.109 63.5927 555.773 63.9677 Q555.437 64.3427 555.218 64.7333 L560.484 64.7333 Z" fill="#000000" fill-opacity="1.000000"/>
  <path d="M562.452 65.7333 L562.452 64.7333 L563.952 64.7333 L563.952 65.7333 L562.452 65.7333 Z" fill="#000000" fill-opacity="1.000000"/>
  <path d="M565.796 60.2333 Q565.796 58.3271 566.187 57.163 Q566.577 55.999 567.351 55.3661 Q568.124 54.7333 569.296 54.7333 Q570.156 54.7333 570.812 55.0849 Q571.468 55.4365 571.89 56.0927 Q572.312 56.749 572.554 57.6943 Q572.796 58.6396 572.796 60.2333 Q572.796 62.1396 572.406 63.3036 Q572.015 64.4677 571.241 65.1005 Q570.468 65.7333 569.296 65.7333 Q567.749 65.7333 566.859 64.624 Q565.796 63.2646 565.796 60.2333 ZM567.156 60.2333 Q567.156 62.9365 567.773 63.8349 Q568.39 64.7333 569.296 64.7333 Q570.202 64.7333 570.82 63.8349 Q571.437 62.9365 571.437 60.2333 Q571.437 57.5146 570.82 56.624 Q570.202 55.7333 569.281 55.7333 Q568.374 55.7333 567.827 56.5146 Q567.156 57.5302 567.156 60.2333 Z" fill="#000000" fill-opacity="1.000000"/>
  <path d="" fill="#000000" fill-opacity="1.000000"/>
  <path d="M577.437 62.7333 L579.734 60.2333 L577.452 57.7333 L578.343 56.7333 L580.64 59.249 L582.937 56.7333 L583.812 57.0771 L581.531 60.2177 L583.827 63.3896 L582.937 63.7333 L580.624 61.2177 L578.327 63.7333 L577.437 62.7333 Z" fill="#000000" fill-opacity="1.000000"/>
  <path d="" fill="#000000" fill-opacity="1.000000"/>
  <path d="M593.359 65.7333 L592.031 65.7333 L592.031 57.1552 Q591.562 57.624 590.788 58.0849 Q590.015 58.5458 589.406 58.7802 L589.406 57.4833 Q590.515 56.9521 591.335 56.1943 Q592.156 55.4365 592.499 54.7333 L593.359 54.7333 L593.359 65.7333 Z" fill="#000000" fill-opacity="1.000000"/>
  <path d="M596.546 60.2333 Q596.546 58.3271 596.937 57.163 Q597.327 55.999 598.101 55.3661 Q598.874 54.7333 600.046 54.7333 Q600.906 54.7333 601.562 55.0849 Q602.218 55.4365 602.64 56.0927 Q603.062 56.749 603.304 57.6943 Q603.546 58.6396 603.546 60.2333 Q603.546 62.1396 603.156 63.3036 Q602.765 64.4677 601.991 65.1005 Q601.218 65.7333 600.046 65.7333 Q598.499 65.7333 597.609 64.624 Q596.546 63.2646 596.546 60.2333 ZM597.906 60.2333 Q597.906 62.9365 598.523 63.8349 Q599.14 64.7333 600.046 64.7333 Q600.952 64.7333 601.57 63.8349 Q602.187 62.9365 602.187 60.2333 Q602.187 57.5146 601.57 56.624 Q600.952 55.7333 600.031 55.7333 Q599.124 55.7333 598.577 56.5146 Q597.906 57.5302 597.906 60.2333 Z" fill="#000000" fill-opacity="1.000000"/>
  <path d="M604.312 58.7333 L605.39 58.7333 Q605.531 59.2646 605.765 59.4677 Q606.093 59.7333 606.515 59.7333 Q607.046 59.7333 607.359 59.4052 Q607.671 59.0771 607.671 58.624 Q607.671 58.2021 607.406 57.9599 Q607.14 57.7177 606.499 57.7177 Q606.406 57.7177 606.249 57.7333 Q606.156 57.7333 606.093 57.7333 L606.265 56.7333 Q606.859 56.7333 607.132 56.5771 Q607.406 56.4208 607.406 56.2021 Q607.406 55.999 607.187 55.8661 Q606.968 55.7333 606.531 55.7333 Q606.124 55.7333 605.89 55.9521 Q605.656 56.1708 605.484 56.7333 L604.437 56.7333 Q604.734 55.624 605.195 55.1786 Q605.656 54.7333 606.531 54.7333 Q607.593 54.7333 608.07 55.1005 Q608.546 55.4677 608.546 56.0302 Q608.546 56.4052 608.288 56.7099 Q608.031 57.0146 607.546 57.1396 Q608.202 57.3271 608.507 57.7568 Q608.812 58.1865 608.812 58.7646 Q608.812 59.5615 608.234 60.1474 Q607.656 60.7333 606.577 60.7333 Q605.546 60.7333 605.007 60.2177 Q604.468 59.7021 604.312 58.7333 Z" fill="#000000" fill-opacity="1.000000"/>
  <path d="M698.388 64.7333 L698.388 65.7333 L691.295 65.7333 Q691.279 65.3427 691.451 64.9677 Q691.717 64.3583 692.318 63.7724 Q692.92 63.1865 694.045 62.124 Q695.795 60.4677 696.412 59.538 Q697.029 58.6083 697.029 57.7958 Q697.029 56.9208 696.467 56.3271 Q695.904 55.7333 695.013 55.7333 Q694.06 55.7333 693.482 56.2646 Q692.904 56.7958 692.904 57.7333 L691.545 57.7333 Q691.685 56.2646 692.592 55.499 Q693.498 54.7333 695.029 54.7333 Q696.576 54.7333 697.474 55.624 Q698.373 56.5146 698.373 57.8427 Q698.373 58.5146 698.107 59.163 Q697.842 59.8115 697.232 60.5302 Q696.623 61.249 695.201 62.5302 Q694.013 63.5927 693.677 63.9677 Q693.342 64.3427 693.123 64.7333 L698.388 64.7333 Z" fill="#000000" fill-opacity="1.000000"/>
  <path d="M700.357 65.7333 L700.357 64.7333 L701.857 64.7333 L701.857 65.7333 L700.357 65.7333 Z" fill="#000000" fill-opacity="1.000000"/>
  <path d="M703.701 62.7333 L705.076 62.7333 Q705.232 63.7333 705.795 64.2333 Q706.357 64.7333 707.138 64.7333 Q708.092 64.7333 708.756 64.0224 Q709.42 63.3115 709.42 62.1396 Q709.42 61.0302 708.787 60.3818 Q708.154 59.7333 707.123 59.7333 Q706.482 59.7333 705.974 60.0146 Q705.467 60.2958 705.17 60.7333 L703.935 60.7333 L704.967 54.7333 L710.31 54.7333 L710.31 55.7333 L706.029 55.7333 L705.451 59.3115 Q706.42 58.7333 707.482 58.7333 Q708.873 58.7333 709.842 59.6708 Q710.81 60.6083 710.81 62.0615 Q710.81 63.4677 709.967 64.4833 Q708.935 65.7333 707.138 65.7333 Q705.685 65.7333 704.756 64.913 Q703.826 64.0927 703.701 62.7333 Z" fill="#000000" fill-opacity="1.000000"/>
  <path d="" fill="#000000" fill-opacity="1.000000"/>
  <path d="M715.342 62.7333 L717.638 60.2333 L715.357 57.7333 L716.248 56.7333 L718.545 59.249 L720.842 56.7333 L721.717 57.0771 L719.435 60.2177 L721.732 63.3896 L720.842 63.7333 L718.529 61.2177 L716.232 63.7333 L715.342 62.7333 Z" fill="#000000" fill-opacity="1.000000"/>
  <path d="" fill="#000000" fill-opacity="1.000000"/>
  <path d="M731.263 65.7333 L729.935 65.7333 L729.935 57.1552 Q729.467 57.624 728.693 58.0849 Q727.92 58.5458 727.31 58.7802 L727.31 57.4833 Q728.42 56.9521 729.24 56.1943 Q730.06 55.4365 730.404 54.7333 L731.263 54.7333 L731.263 65.7333 Z" fill="#000000" fill-opacity="1.000000"/>
  <path d="M734.451 60.2333 Q734.451 58.3271 734.842 57.163 Q735.232 55.999 736.006 55.3661 Q736.779 54.7333 737.951 54.7333 Q738.81 54.7333 739.467 55.0849 Q740.123 55.4365 740.545 56.0927 Q740.967 56.749 741.209 57.6943 Q741.451 58.6396 741.451 60.2333 Q741.451 62.1396 741.06 63.3036 Q740.67 64.4677 739.896 65.1005 Q739.123 65.7333 737.951 65.7333 Q736.404 65.7333 735.513 64.624 Q734.451 63.2646 734.451 60.2333 ZM735.81 60.2333 Q735.81 62.9365 736.427 63.8349 Q737.045 64.7333 737.951 64.7333 Q738.857 64.7333 739.474 63.8349 Q740.092 62.9365 740.092 60.2333 Q740.092 57.5146 739.474 56.624 Q738.857 55.7333 737.935 55.7333 Q737.029 55.7333 736.482 56.5146 Q735.81 57.5302 735.81 60.2333 Z" fill="#000000" fill-opacity="1.000000"/>
  <path d="M742.217 58.7333 L743.295 58.7333 Q743.435 59.2646 743.67 59.4677 Q743.998 59.7333 744.42 59.7333 Q744.951 59.7333 745.263 59.4052 Q745.576 59.0771 745.576 58.624 Q745.576 58.2021 745.31 57.9599 Q745.045 57.7177 744.404 57.7177 Q744.31 57.7177 744.154 57.7333 Q744.06 57.7333 743.998 57.7333 L744.17 56.7333 Q744.763 56.7333 745.037 56.5771 Q745.31 56.4208 745.31 56.2021 Q745.31 55.999 745.092 55.8661 Q744.873 55.7333 744.435 55.7333 Q744.029 55.7333 743.795 55.9521 Q743.56 56.1708 743.388 56.7333 L742.342 56.7333 Q742.638 55.624 743.099 55.1786 Q743.56 54.7333 744.435 54.7333 Q745.498 54.7333 745.974 55.1005 Q746.451 55.4677 746.451 56.0302 Q746.451 56.4052 746.193 56.7099 Q745.935 57.0146 745.451 57.1396 Q746.107 57.3271 746.412 57.7568 Q746.717 58.1865 746.717 58.7646 Q746.717 59.5615 746.138 60.1474 Q745.56 60.7333 744.482 60.7333 Q743.451 60.7333 742.912 60.2177 Q742.373 59.7021 742.217 58.7333 Z" fill="#000000" fill-opacity="1.000000"/>
  <path d="M829.371 62.7333 L830.699 62.7333 Q830.934 63.7958 831.473 64.2646 Q832.012 64.7333 832.793 64.7333 Q833.731 64.7333 834.371 64.1161 Q835.012 63.499 835.012 62.5927 Q835.012 61.7177 834.418 61.1474 Q833.824 60.5771 832.903 60.5771 Q832.528 60.5771 831.981 60.7333 L832.121 59.7333 Q832.262 59.749 832.34 59.749 Q833.184 59.749 833.856 59.2411 Q834.528 58.7333 834.528 57.6708 Q834.528 56.8427 834.035 56.288 Q833.543 55.7333 832.762 55.7333 Q831.996 55.7333 831.481 56.2333 Q830.965 56.7333 830.824 57.7333 L829.512 57.7333 Q829.746 56.3115 830.606 55.5224 Q831.465 54.7333 832.746 54.7333 Q833.621 54.7333 834.363 55.1396 Q835.106 55.5458 835.496 56.249 Q835.887 56.9521 835.887 57.749 Q835.887 58.499 835.512 59.1161 Q835.137 59.7333 834.403 60.0927 Q835.356 60.2958 835.879 60.9443 Q836.403 61.5927 836.403 62.5771 Q836.403 63.8896 835.379 64.8115 Q834.356 65.7333 832.778 65.7333 Q831.371 65.7333 830.434 64.8974 Q829.496 64.0615 829.371 62.7333 Z" fill="#000000" fill-opacity="1.000000"/>
  <path d="M838.262 65.7333 L838.262 64.7333 L839.762 64.7333 L839.762 65.7333 L838.262 65.7333 Z" fill="#000000" fill-opacity="1.000000"/>
  <path d="M841.606 60.2333 Q841.606 58.3271 841.996 57.163 Q842.387 55.999 843.16 55.3661 Q843.934 54.7333 845.106 54.7333 Q845.965 54.7333 846.621 55.0849 Q847.278 55.4365 847.699 56.0927 Q848.121 56.749 848.363 57.6943 Q848.606 58.6396 848.606 60.2333 Q848.606 62.1396 848.215 63.3036 Q847.824 64.4677 847.051 65.1005 Q846.278 65.7333 845.106 65.7333 Q843.559 65.7333 842.668 64.624 Q841.606 63.2646 841.606 60.2333 ZM842.965 60.2333 Q842.965 62.9365 843.582 63.8349 Q844.199 64.7333 845.106 64.7333 Q846.012 64.7333 846.629 63.8349 Q847.246 62.9365 847.246 60.2333 Q847.246 57.5146 846.629 56.624 Q846.012 55.7333 845.09 55.7333 Q844.184 55.7333 843.637 56.5146 Q842.965 57.5302 842.965 60.2333 Z" fill="#000000" fill-opacity="1.000000"/>
  <path d="" fill="#000000" fill-opacity="1.000000"/>
  <path d="M853.246 62.7333 L855.543 60.2333 L853.262 57.7333 L854.153 56.7333 L856.449 59.249 L858.746 56.7333 L859.621 57.0771 L857.34 60.2177 L859.637 63.3896 L858.746 63.7333 L856.434 61.2177 L854.137 63.7333 L853.246 62.7333 Z" fill="#000000" fill-opacity="1.000000"/>
  <path d="" fill="#000000" fill-opacity="1.000000"/>
  <path d="M869.168 65.7333 L867.84 65.7333 L867.84 57.1552 Q867.371 57.624 866.598 58.0849 Q865.824 58.5458 865.215 58.7802 L865.215 57.4833 Q866.324 56.9521 867.145 56.1943 Q867.965 55.4365 868.309 54.7333 L869.168 54.7333 L869.168 65.7333 Z" fill="#000000" fill-opacity="1.000000"/>
  <path d="M872.356 60.2333 Q872.356 58.3271 872.746 57.163 Q873.137 55.999 873.91 55.3661 Q874.684 54.7333 875.856 54.7333 Q876.715 54.7333 877.371 55.0849 Q878.028 55.4365 878.449 56.0927 Q878.871 56.749 879.113 57.6943 Q879.356 58.6396 879.356 60.2333 Q879.356 62.1396 878.965 63.3036 Q878.574 64.4677 877.801 65.1005 Q877.028 65.7333 875.856 65.7333 Q874.309 65.7333 873.418 64.624 Q872.356 63.2646 872.356 60.2333 ZM873.715 60.2333 Q873.715 62.9365 874.332 63.8349 Q874.949 64.7333 875.856 64.7333 Q876.762 64.7333 877.379 63.8349 Q877.996 62.9365 877.996 60.2333 Q877.996 57.5146 877.379 56.624 Q876.762 55.7333 875.84 55.7333 Q874.934 55.7333 874.387 56.5146 Q873.715 57.5302 873.715 60.2333 Z" fill="#000000" fill-opacity="1.000000"/>
  <path d="M880.121 58.7333 L881.199 58.7333 Q881.34 59.2646 881.574 59.4677 Q881.903 59.7333 882.324 59.7333 Q882.856 59.7333 883.168 59.4052 Q883.481 59.0771 883.481 58.624 Q883.481 58.2021 883.215 57.9599 Q882.949 57.7177 882.309 57.7177 Q882.215 57.7177 882.059 57.7333 Q881.965 57.7333 881.903 57.7333 L882.074 56.7333 Q882.668 56.7333 882.942 56.5771 Q883.215 56.4208 883.215 56.2021 Q883.215 55.999 882.996 55.8661 Q882.778 55.7333 882.34 55.7333 Q881.934 55.7333 881.699 55.9521 Q881.465 56.1708 881.293 56.7333 L880.246 56.7333 Q880.543 55.624 881.004 55.1786 Q881.465 54.7333 882.34 54.7333 Q883.403 54.7333 883.879 55.1005 Q884.356 55.4677 884.356 56.0302 Q884.356 56.4052 884.098 56.7099 Q883.84 57.0146 883.356 57.1396 Q884.012 57.3271 884.317 57.7568 Q884.621 58.1865 884.621 58.7646 Q884.621 59.5615 884.043 60.1474 Q883.465 60.7333 882.387 60.7333 Q881.356 60.7333 880.817 60.2177 Q880.278 59.7021 880.121 58.7333 Z" fill="#000000" fill-opacity="1.000000"/>
  <path d="M967.276 62.7333 L968.604 62.7333 Q968.839 63.7958 969.378 64.2646 Q969.917 64.7333 970.698 64.7333 Q971.635 64.7333 972.276 64.1161 Q972.917 63.499 972.917 62.5927 Q972.917 61.7177 972.323 61.1474 Q971.729 60.5771 970.807 60.5771 Q970.432 60.5771 969.885 60.7333 L970.026 59.7333 Q970.167 59.749 970.245 59.749 Q971.089 59.749 971.76 59.2411 Q972.432 58.7333 972.432 57.6708 Q972.432 56.8427 971.94 56.288 Q971.448 55.7333 970.667 55.7333 Q969.901 55.7333 969.385 56.2333 Q968.87 56.7333 968.729 57.7333 L967.417 57.7333 Q967.651 56.3115 968.51 55.5224 Q969.37 54.7333 970.651 54.7333 Q971.526 54.7333 972.268 55.1396 Q973.01 55.5458 973.401 56.249 Q973.792 56.9521 973.792 57.749 Q973.792 58.499 973.417 59.1161 Q973.042 59.7333 972.307 60.0927 Q973.26 60.2958 973.784 60.9443 Q974.307 61.5927 974.307 62.5771 Q974.307 63.8896 973.284 64.8115 Q972.26 65.7333 970.682 65.7333 Q969.276 65.7333 968.339 64.8974 Q967.401 64.0615 967.276 62.7333 Z" fill="#000000" fill-opacity="1.000000"/>
  <path d="M976.167 65.7333 L976.167 64.7333 L977.667 64.7333 L977.667 65.7333 L976.167 65.7333 Z" fill="#000000" fill-opacity="1.000000"/>
  <path d="M979.51 62.7333 L980.885 62.7333 Q981.042 63.7333 981.604 64.2333 Q982.167 64.7333 982.948 64.7333 Q983.901 64.7333 984.565 64.0224 Q985.229 63.3115 985.229 62.1396 Q985.229 61.0302 984.596 60.3818 Q983.964 59.7333 982.932 59.7333 Q982.292 59.7333 981.784 60.0146 Q981.276 60.2958 980.979 60.7333 L979.745 60.7333 L980.776 54.7333 L986.12 54.7333 L986.12 55.7333 L981.839 55.7333 L981.26 59.3115 Q982.229 58.7333 983.292 58.7333 Q984.682 58.7333 985.651 59.6708 Q986.62 60.6083 986.62 62.0615 Q986.62 63.4677 985.776 64.4833 Q984.745 65.7333 982.948 65.7333 Q981.495 65.7333 980.565 64.913 Q979.635 64.0927 979.51 62.7333 Z" fill="#000000" fill-opacity="1.000000"/>
  <path d="" fill="#000000" fill-opacity="1.000000"/>
  <path d="M991.151 62.7333 L993.448 60.2333 L991.167 57.7333 L992.057 56.7333 L994.354 59.249 L996.651 56.7333 L997.526 57.0771 L995.245 60.2177 L997.542 63.3896 L996.651 63.7333 L994.339 61.2177 L992.042 63.7333 L991.151 62.7333 Z" fill="#000000" fill-opacity="1.000000"/>
  <path d="" fill="#000000" fill-opacity="1.000000"/>
  <path d="M1007.07 65.7333 L1005.74 65.7333 L1005.74 57.1552 Q1005.28 57.624 1004.5 58.0849 Q1003.73 58.5458 1003.12 58.7802 L1003.12 57.4833 Q1004.23 56.9521 1005.05 56.1943 Q1005.87 55.4365 1006.21 54.7333 L1007.07 54.7333 L1007.07 65.7333 Z" fill="#000000" fill-opacity="1.000000"/>
  <path d="M1010.26 60.2333 Q1010.26 58.3271 1010.65 57.163 Q1011.04 55.999 1011.82 55.3661 Q1012.59 54.7333 1013.76 54.7333 Q1014.62 54.7333 1015.28 55.0849 Q1015.93 55.4365 1016.35 56.0927 Q1016.78 56.749 1017.02 57.6943 Q1017.26 58.6396 1017.26 60.2333 Q1017.26 62.1396 1016.87 63.3036 Q1016.48 64.4677 1015.71 65.1005 Q1014.93 65.7333 1013.76 65.7333 Q1012.21 65.7333 1011.32 64.624 Q1010.26 63.2646 1010.26 60.2333 ZM1011.62 60.2333 Q1011.62 62.9365 1012.24 63.8349 Q1012.85 64.7333 1013.76 64.7333 Q1014.67 64.7333 1015.28 63.8349 Q1015.9 62.9365 1015.9 60.2333 Q1015.9 57.5146 1015.28 56.624 Q1014.67 55.7333 1013.74 55.7333 Q1012.84 55.7333 1012.29 56.5146 Q1011.62 57.5302 1011.62 60.2333 Z" fill="#000000" fill-opacity="1.000000"/>
  <path d="M1018.03 58.7333 L1019.1 58.7333 Q1019.24 59.2646 1019.48 59.4677 Q1019.81 59.7333 1020.23 59.7333 Q1020.76 59.7333 1021.07 59.4052 Q1021.39 59.0771 1021.39 58.624 Q1021.39 58.2021 1021.12 57.9599 Q1020.85 57.7177 1020.21 57.7177 Q1020.12 57.7177 1019.96 57.7333 Q1019.87 57.7333 1019.81 57.7333 L1019.98 56.7333 Q1020.57 56.7333 1020.85 56.5771 Q1021.12 56.4208 1021.12 56.2021 Q1021.12 55.999 1020.9 55.8661 Q1020.68 55.7333 1020.24 55.7333 Q1019.84 55.7333 1019.6 55.9521 Q1019.37 56.1708 1019.2 56.7333 L1018.15 56.7333 Q1018.45 55.624 1018.91 55.1786 Q1019.37 54.7333 1020.24 54.7333 Q1021.31 54.7333 1021.78 55.1005 Q1022.26 55.4677 1022.26 56.0302 Q1022.26 56.4052 1022 56.7099 Q1021.74 57.0146 1021.26 57.1396 Q1021.92 57.3271 1022.22 57.7568 Q1022.53 58.1865 1022.53 58.7646 Q1022.53 59.5615 1021.95 60.1474 Q1021.37 60.7333 1020.29 60.7333 Q1019.26 60.7333 1018.72 60.2177 Q1018.18 59.7021 1018.03 58.7333 Z" fill="#000000" fill-opacity="1.000000"/>
</svg>