<?xml version="1.0" encoding="UTF-8" ?>
<!-- Generated by clip v0.8.0 (clip-lang.org) -->
<svg xmlns="http://www.w3.org/2000/svg" width="1024" height="80">
  <rect width="1024" height="80" fill="#ffffff" fill-opacity="1"/>
  <path d="M29.333 40 L994.667 40" fill="none" stroke="#000000" stroke-width="1.333"/>
  <path d="M29.333 42.667 L29.333 37.333" fill="none" stroke="#000000" stroke-width="1.333"/>
  <path d="M167.238 42.667 L167.238 37.333" fill="none" stroke="#000000" stroke-width="1.333"/>
  <path d="M305.143 42.667 L305.143 37.333" fill="none" stroke="#000000" stroke-width="1.333"/>
  <path d="M443.048 42.667 L443.048 37.333" fill="none" stroke="#000000" stroke-width="1.333"/>
  <path d="M580.952 42.667 L580.952 37.333" fill="none" stroke="#000000" stroke-width="1.333"/>
  <path d="M718.857 42.667 L718.857 37.333" fill="none" stroke="#000000" stroke-width="1.333"/>
  <path d="M856.762 42.667 L856.762 37.333" fill="none" stroke="#000000" stroke-width="1.333"/>
  <path d="M994.667 42.667 L994.667 37.333" fill="none" stroke="#000000" stroke-width="1.333"/>
  <path d="M25.880 60.233 Q25.880 58.327 26.271 57.163 Q26.661 55.999 27.435 55.366 Q28.208 54.733 29.380 54.733 Q30.240 54.733 30.896 55.085 Q31.552 55.436 31.974 56.093 Q32.396 56.749 32.638 57.694 Q32.880 58.640 32.880 60.233 Q32.880 62.140 32.490 63.304 Q32.099 64.468 31.326 65.101 Q30.552 65.733 29.380 65.733 Q27.833 65.733 26.943 64.624 Q25.880 63.265 25.880 60.233 Z M27.240 60.233 Q27.240 62.936 27.857 63.835 Q28.474 64.733 29.380 64.733 Q30.286 64.733 30.904 63.835 Q31.521 62.936 31.521 60.233 Q31.521 57.515 30.904 56.624 Q30.286 55.733 29.365 55.733 Q28.458 55.733 27.911 56.515 Q27.240 57.530 27.240 60.233 Z"/>
  <path d="M139.847 62.733 L141.222 62.733 Q141.379 63.733 141.941 64.233 Q142.504 64.733 143.285 64.733 Q144.238 64.733 144.902 64.022 Q145.566 63.311 145.566 62.140 Q145.566 61.030 144.933 60.382 Q144.301 59.733 143.269 59.733 Q142.629 59.733 142.121 60.015 Q141.613 60.296 141.316 60.733 L140.082 60.733 L141.113 54.733 L146.457 54.733 L146.457 55.733 L142.176 55.733 L141.597 59.311 Q142.566 58.733 143.629 58.733 Q145.019 58.733 145.988 59.671 Q146.957 60.608 146.957 62.061 Q146.957 63.468 146.113 64.483 Q145.082 65.733 143.285 65.733 Q141.832 65.733 140.902 64.913 Q139.972 64.093 139.847 62.733 Z"/>
  <path d="M148.738 65.733 L148.738 64.733 L150.238 64.733 L150.238 65.733 L148.738 65.733 Z"/>
  <path d="M152.082 60.233 Q152.082 58.327 152.472 57.163 Q152.863 55.999 153.637 55.366 Q154.410 54.733 155.582 54.733 Q156.441 54.733 157.097 55.085 Q157.754 55.436 158.176 56.093 Q158.597 56.749 158.840 57.694 Q159.082 58.640 159.082 60.233 Q159.082 62.140 158.691 63.304 Q158.301 64.468 157.527 65.101 Q156.754 65.733 155.582 65.733 Q154.035 65.733 153.144 64.624 Q152.082 63.265 152.082 60.233 Z M153.441 60.233 Q153.441 62.936 154.058 63.835 Q154.676 64.733 155.582 64.733 Q156.488 64.733 157.105 63.835 Q157.722 62.936 157.722 60.233 Q157.722 57.515 157.105 56.624 Q156.488 55.733 155.566 55.733 Q154.660 55.733 154.113 56.515 Q153.441 57.530 153.441 60.233 Z"/>
  <path d=""/>
  <path d="M163.722 62.733 L166.019 60.233 L163.738 57.733 L164.629 56.733 L166.926 59.249 L169.222 56.733 L170.097 57.077 L167.816 60.218 L170.113 63.390 L169.222 63.733 L166.910 61.218 L164.613 63.733 L163.722 62.733 Z"/>
  <path d=""/>
  <path d="M179.644 65.733 L178.316 65.733 L178.316 57.155 Q177.847 57.624 177.074 58.085 Q176.301 58.546 175.691 58.780 L175.691 57.483 Q176.801 56.952 177.621 56.194 Q178.441 55.436 178.785 54.733 L179.644 54.733 L179.644 65.733 Z"/>
  <path d="M182.832 60.233 Q182.832 58.327 183.222 57.163 Q183.613 55.999 184.387 55.366 Q185.160 54.733 186.332 54.733 Q187.191 54.733 187.847 55.085 Q188.504 55.436 188.926 56.093 Q189.347 56.749 189.590 57.694 Q189.832 58.640 189.832 60.233 Q189.832 62.140 189.441 63.304 Q189.051 64.468 188.277 65.101 Q187.504 65.733 186.332 65.733 Q184.785 65.733 183.894 64.624 Q182.832 63.265 182.832 60.233 Z M184.191 60.233 Q184.191 62.936 184.808 63.835 Q185.426 64.733 186.332 64.733 Q187.238 64.733 187.855 63.835 Q188.472 62.936 188.472 60.233 Q188.472 57.515 187.855 56.624 Q187.238 55.733 186.316 55.733 Q185.410 55.733 184.863 56.515 Q184.191 57.530 184.191 60.233 Z"/>
  <path d="M190.551 60.733 Q190.597 60.280 190.894 59.827 Q191.347 59.155 192.402 58.327 Q193.457 57.499 193.660 57.265 Q193.926 56.936 193.926 56.608 Q193.926 56.218 193.668 55.976 Q193.410 55.733 192.910 55.733 Q192.426 55.733 192.191 55.936 Q191.957 56.140 191.801 56.733 L190.707 56.733 Q190.926 55.702 191.449 55.218 Q191.972 54.733 192.941 54.733 Q194.051 54.733 194.566 55.202 Q195.082 55.671 195.082 56.358 Q195.082 57.015 194.644 57.624 Q194.316 58.061 193.144 58.983 Q192.535 59.452 192.285 59.733 L195.113 59.733 L195.113 60.733 L190.551 60.733 Z"/>
  <path d="M282.721 65.733 L281.393 65.733 L281.393 57.155 Q280.924 57.624 280.151 58.085 Q279.377 58.546 278.768 58.780 L278.768 57.483 Q279.877 56.952 280.698 56.194 Q281.518 55.436 281.862 54.733 L282.721 54.733 L282.721 65.733 Z"/>
  <path d="M286.643 65.733 L286.643 64.733 L288.143 64.733 L288.143 65.733 L286.643 65.733 Z"/>
  <path d="M289.987 60.233 Q289.987 58.327 290.377 57.163 Q290.768 55.999 291.541 55.366 Q292.315 54.733 293.487 54.733 Q294.346 54.733 295.002 55.085 Q295.658 55.436 296.080 56.093 Q296.502 56.749 296.744 57.694 Q296.987 58.640 296.987 60.233 Q296.987 62.140 296.596 63.304 Q296.205 64.468 295.432 65.101 Q294.658 65.733 293.487 65.733 Q291.940 65.733 291.049 64.624 Q289.987 63.265 289.987 60.233 Z M291.346 60.233 Q291.346 62.936 291.963 63.835 Q292.580 64.733 293.487 64.733 Q294.393 64.733 295.010 63.835 Q295.627 62.936 295.627 60.233 Q295.627 57.515 295.010 56.624 Q294.393 55.733 293.471 55.733 Q292.565 55.733 292.018 56.515 Q291.346 57.530 291.346 60.233 Z"/>
  <path d=""/>
  <path d="M301.627 62.733 L303.924 60.233 L301.643 57.733 L302.533 56.733 L304.830 59.249 L307.127 56.733 L308.002 57.077 L305.721 60.218 L308.018 63.390 L307.127 63.733 L304.815 61.218 L302.518 63.733 L301.627 62.733 Z"/>
  <path d=""/>
  <path d="M317.549 65.733 L316.221 65.733 L316.221 57.155 Q315.752 57.624 314.979 58.085 Q314.205 58.546 313.596 58.780 L313.596 57.483 Q314.705 56.952 315.526 56.194 Q316.346 55.436 316.690 54.733 L317.549 54.733 L317.549 65.733 Z"/>
  <path d="M320.737 60.233 Q320.737 58.327 321.127 57.163 Q321.518 55.999 322.291 55.366 Q323.065 54.733 324.237 54.733 Q325.096 54.733 325.752 55.085 Q326.408 55.436 326.830 56.093 Q327.252 56.749 327.494 57.694 Q327.737 58.640 327.737 60.233 Q327.737 62.140 327.346 63.304 Q326.955 64.468 326.182 65.101 Q325.408 65.733 324.237 65.733 Q322.690 65.733 321.799 64.624 Q320.737 63.265 320.737 60.233 Z M322.096 60.233 Q322.096 62.936 322.713 63.835 Q323.330 64.733 324.237 64.733 Q325.143 64.733 325.760 63.835 Q326.377 62.936 326.377 60.233 Q326.377 57.515 325.760 56.624 Q325.143 55.733 324.221 55.733 Q323.315 55.733 322.768 56.515 Q322.096 57.530 322.096 60.233 Z"/>
  <path d="M328.502 58.733 L329.580 58.733 Q329.721 59.265 329.955 59.468 Q330.283 59.733 330.705 59.733 Q331.237 59.733 331.549 59.405 Q331.862 59.077 331.862 58.624 Q331.862 58.202 331.596 57.960 Q331.330 57.718 330.690 57.718 Q330.596 57.718 330.440 57.733 Q330.346 57.733 330.283 57.733 L330.455 56.733 Q331.049 56.733 331.323 56.577 Q331.596 56.421 331.596 56.202 Q331.596 55.999 331.377 55.866 Q331.158 55.733 330.721 55.733 Q330.315 55.733 330.080 55.952 Q329.846 56.171 329.674 56.733 L328.627 56.733 Q328.924 55.624 329.385 55.179 Q329.846 54.733 330.721 54.733 Q331.783 54.733 332.260 55.101 Q332.737 55.468 332.737 56.030 Q332.737 56.405 332.479 56.710 Q332.221 57.015 331.737 57.140 Q332.393 57.327 332.698 57.757 Q333.002 58.186 333.002 58.765 Q333.002 59.561 332.424 60.147 Q331.846 60.733 330.768 60.733 Q329.737 60.733 329.198 60.218 Q328.658 59.702 328.502 58.733 Z"/>
  <path d="M420.626 65.733 L419.298 65.733 L419.298 57.155 Q418.829 57.624 418.055 58.085 Q417.282 58.546 416.673 58.780 L416.673 57.483 Q417.782 56.952 418.602 56.194 Q419.423 55.436 419.766 54.733 L420.626 54.733 L420.626 65.733 Z"/>
  <path d="M424.548 65.733 L424.548 64.733 L426.048 64.733 L426.048 65.733 L424.548 65.733 Z"/>
  <path d="M427.891 62.733 L429.266 62.733 Q429.423 63.733 429.985 64.233 Q430.548 64.733 431.329 64.733 Q432.282 64.733 432.946 64.022 Q433.610 63.311 433.610 62.140 Q433.610 61.030 432.977 60.382 Q432.344 59.733 431.313 59.733 Q430.673 59.733 430.165 60.015 Q429.657 60.296 429.360 60.733 L428.126 60.733 L429.157 54.733 L434.501 54.733 L434.501 55.733 L430.219 55.733 L429.641 59.311 Q430.610 58.733 431.673 58.733 Q433.063 58.733 434.032 59.671 Q435.001 60.608 435.001 62.061 Q435.001 63.468 434.157 64.483 Q433.126 65.733 431.329 65.733 Q429.876 65.733 428.946 64.913 Q428.016 64.093 427.891 62.733 Z"/>
  <path d=""/>
  <path d="M439.532 62.733 L441.829 60.233 L439.548 57.733 L440.438 56.733 L442.735 59.249 L445.032 56.733 L445.907 57.077 L443.626 60.218 L445.923 63.390 L445.032 63.733 L442.719 61.218 L440.423 63.733 L439.532 62.733 Z"/>
  <path d=""/>
  <path d="M455.454 65.733 L454.126 65.733 L454.126 57.155 Q453.657 57.624 452.884 58.085 Q452.110 58.546 451.501 58.780 L451.501 57.483 Q452.610 56.952 453.430 56.194 Q454.251 55.436 454.594 54.733 L455.454 54.733 L455.454 65.733 Z"/>
  <path d="M458.641 60.233 Q458.641 58.327 459.032 57.163 Q459.423 55.999 460.196 55.366 Q460.969 54.733 462.141 54.733 Q463.001 54.733 463.657 55.085 Q464.313 55.436 464.735 56.093 Q465.157 56.749 465.399 57.694 Q465.641 58.640 465.641 60.233 Q465.641 62.140 465.251 63.304 Q464.860 64.468 464.087 65.101 Q463.313 65.733 462.141 65.733 Q460.594 65.733 459.704 64.624 Q458.641 63.265 458.641 60.233 Z M460.001 60.233 Q460.001 62.936 460.618 63.835 Q461.235 64.733 462.141 64.733 Q463.048 64.733 463.665 63.835 Q464.282 62.936 464.282 60.233 Q464.282 57.515 463.665 56.624 Q463.048 55.733 462.126 55.733 Q461.219 55.733 460.673 56.515 Q460.001 57.530 460.001 60.233 Z"/>
  <path d="M466.407 58.733 L467.485 58.733 Q467.626 59.265 467.860 59.468 Q468.188 59.733 468.610 59.733 Q469.141 59.733 469.454 59.405 Q469.766 59.077 469.766 58.624 Q469.766 58.202 469.501 57.960 Q469.235 57.718 468.594 57.718 Q468.501 57.718 468.344 57.733 Q468.251 57.733 468.188 57.733 L468.360 56.733 Q468.954 56.733 469.227 56.577 Q469.501 56.421 469.501 56.202 Q469.501 55.999 469.282 55.866 Q469.063 55.733 468.626 55.733 Q468.219 55.733 467.985 55.952 Q467.751 56.171 467.579 56.733 L466.532 56.733 Q466.829 55.624 467.290 55.179 Q467.751 54.733 468.626 54.733 Q469.688 54.733 470.165 55.101 Q470.641 55.468 470.641 56.030 Q470.641 56.405 470.384 56.710 Q470.126 57.015 469.641 57.140 Q470.298 57.327 470.602 57.757 Q470.907 58.186 470.907 58.765 Q470.907 59.561 470.329 60.147 Q469.751 60.733 468.673 60.733 Q467.641 60.733 467.102 60.218 Q466.563 59.702 466.407 58.733 Z"/>
  <path d="M560.484 64.733 L560.484 65.733 L553.390 65.733 Q553.374 65.343 553.546 64.968 Q553.812 64.358 554.413 63.772 Q555.015 63.186 556.140 62.124 Q557.890 60.468 558.507 59.538 Q559.124 58.608 559.124 57.796 Q559.124 56.921 558.562 56.327 Q557.999 55.733 557.109 55.733 Q556.156 55.733 555.577 56.265 Q554.999 56.796 554.999 57.733 L553.640 57.733 Q553.781 56.265 554.687 55.499 Q555.593 54.733 557.124 54.733 Q558.671 54.733 559.570 55.624 Q560.468 56.515 560.468 57.843 Q560.468 58.515 560.202 59.163 Q559.937 59.811 559.327 60.530 Q558.718 61.249 557.296 62.530 Q556.109 63.593 555.773 63.968 Q555.437 64.343 555.218 64.733 L560.484 64.733 Z"/>
  <path d="M562.452 65.733 L562.452 64.733 L563.952 64.733 L563.952 65.733 L562.452 65.733 Z"/>
  <path d="M565.796 60.233 Q565.796 58.327 566.187 57.163 Q566.577 55.999 567.351 55.366 Q568.124 54.733 569.296 54.733 Q570.156 54.733 570.812 55.085 Q571.468 55.436 571.890 56.093 Q572.312 56.749 572.554 57.694 Q572.796 58.640 572.796 60.233 Q572.796 62.140 572.406 63.304 Q572.015 64.468 571.241 65.101 Q570.468 65.733 569.296 65.733 Q567.749 65.733 566.859 64.624 Q565.796 63.265 565.796 60.233 Z M567.156 60.233 Q567.156 62.936 567.773 63.835 Q568.390 64.733 569.296 64.733 Q570.202 64.733 570.820 63.835 Q571.437 62.936 571.437 60.233 Q571.437 57.515 570.820 56.624 Q570.202 55.733 569.281 55.733 Q568.374 55.733 567.827 56.515 Q567.156 57.530 567.156 60.233 Z"/>
  <path d=""/>
  <path d="M577.437 62.733 L579.734 60.233 L577.452 57.733 L578.343 56.733 L580.640 59.249 L582.937 56.733 L583.812 57.077 L581.531 60.218 L583.827 63.390 L582.937 63.733 L580.624 61.218 L578.327 63.733 L577.437 62.733 Z"/>
  <path d=""/>
  <path d="M593.359 65.733 L592.031 65.733 L592.031 57.155 Q591.562 57.624 590.788 58.085 Q590.015 58.546 589.406 58.780 L589.406 57.483 Q590.515 56.952 591.335 56.194 Q592.156 55.436 592.499 54.733 L593.359 54.733 L593.359 65.733 Z"/>
  <path d="M596.546 60.233 Q596.546 58.327 596.937 57.163 Q597.327 55.999 598.101 55.366 Q598.874 54.733 600.046 54.733 Q600.906 54.733 601.562 55.085 Q602.218 55.436 602.640 56.093 Q603.062 56.749 603.304 57.694 Q603.546 58.640 603.546 60.233 Q603.546 62.140 603.156 63.304 Q602.765 64.468 601.991 65.101 Q601.218 65.733 600.046 65.733 Q598.499 65.733 597.609 64.624 Q596.546 63.265 596.546 60.233 Z M597.906 60.233 Q597.906 62.936 598.523 63.835 Q599.140 64.733 600.046 64.733 Q600.952 64.733 601.570 63.835 Q602.187 62.936 602.187 60.233 Q602.187 57.515 601.570 56.624 Q600.952 55.733 600.031 55.733 Q599.124 55.733 598.577 56.515 Q597.906 57.530 597.906 60.233 Z"/>
  <path d="M604.312 58.733 L605.390 58.733 Q605.531 59.265 605.765 59.468 Q606.093 59.733 606.515 59.733 Q607.046 59.733 607.359 59.405 Q607.671 59.077 607.671 58.624 Q607.671 58.202 607.406 57.960 Q607.140 57.718 606.499 57.718 Q606.406 57.718 606.249 57.733 Q606.156 57.733 606.093 57.733 L606.265 56.733 Q606.859 56.733 607.132 56.577 Q607.406 56.421 607.406 56.202 Q607.406 55.999 607.187 55.866 Q606.968 55.733 606.531 55.733 Q606.124 55.733 605.890 55.952 Q605.656 56.171 605.484 56.733 L604.437 56.733 Q604.734 55.624 605.195 55.179 Q605.656 54.733 606.531 54.733 Q607.593 54.733 608.070 55.101 Q608.546 55.468 608.546 56.030 Q608.546 56.405 608.288 56.710 Q608.031 57.015 607.546 57.140 Q608.202 57.327 608.507 57.757 Q608.812 58.186 608.812 58.765 Q608.812 59.561 608.234 60.147 Q607.656 60.733 606.577 60.733 Q605.546 60.733 605.007 60.218 Q604.468 59.702 604.312 58.733 Z"/>
  <path d="M698.388 64.733 L698.388 65.733 L691.295 65.733 Q691.279 65.343 691.451 64.968 Q691.717 64.358 692.318 63.772 Q692.920 63.186 694.045 62.124 Q695.795 60.468 696.412 59.538 Q697.029 58.608 697.029 57.796 Q697.029 56.921 696.467 56.327 Q695.904 55.733 695.013 55.733 Q694.060 55.733 693.482 56.265 Q692.904 56.796 692.904 57.733 L691.545 57.733 Q691.685 56.265 692.592 55.499 Q693.498 54.733 695.029 54.733 Q696.576 54.733 697.474 55.624 Q698.373 56.515 698.373 57.843 Q698.373 58.515 698.107 59.163 Q697.842 59.811 697.232 60.530 Q696.623 61.249 695.201 62.530 Q694.013 63.593 693.677 63.968 Q693.342 64.343 693.123 64.733 L698.388 64.733 Z"/>
  <path d="M700.357 65.733 L700.357 64.733 L701.857 64.733 L701.857 65.733 L700.357 65.733 Z"/>
  <path d="M703.701 62.733 L705.076 62.733 Q705.232 63.733 705.795 64.233 Q706.357 64.733 707.138 64.733 Q708.092 64.733 708.756 64.022 Q709.420 63.311 709.420 62.140 Q709.420 61.030 708.787 60.382 Q708.154 59.733 707.123 59.733 Q706.482 59.733 705.974 60.015 Q705.467 60.296 705.170 60.733 L703.935 60.733 L704.967 54.733 L710.310 54.733 L710.310 55.733 L706.029 55.733 L705.451 59.311 Q706.420 58.733 707.482 58.733 Q708.873 58.733 709.842 59.671 Q710.810 60.608 710.810 62.061 Q710.810 63.468 709.967 64.483 Q708.935 65.733 707.138 65.733 Q705.685 65.733 704.756 64.913 Q703.826 64.093 703.701 62.733 Z"/>
  <path d=""/>
  <path d="M715.342 62.733 L717.638 60.233 L715.357 57.733 L716.248 56.733 L718.545 59.249 L720.842 56.733 L721.717 57.077 L719.435 60.218 L721.732 63.390 L720.842 63.733 L718.529 61.218 L716.232 63.733 L715.342 62.733 Z"/>
  <path d=""/>
  <path d="M731.263 65.733 L729.935 65.733 L729.935 57.155 Q729.467 57.624 728.693 58.085 Q727.920 58.546 727.310 58.780 L727.310 57.483 Q728.420 56.952 729.240 56.194 Q730.060 55.436 730.404 54.733 L731.263 54.733 L731.263 65.733 Z"/>
  <path d="M734.451 60.233 Q734.451 58.327 734.842 57.163 Q735.232 55.999 736.006 55.366 Q736.779 54.733 737.951 54.733 Q738.810 54.733 739.467 55.085 Q740.123 55.436 740.545 56.093 Q740.967 56.749 741.209 57.694 Q741.451 58.640 741.451 60.233 Q741.451 62.140 741.060 63.304 Q740.670 64.468 739.896 65.101 Q739.123 65.733 737.951 65.733 Q736.404 65.733 735.513 64.624 Q734.451 63.265 734.451 60.233 Z M735.810 60.233 Q735.810 62.936 736.427 63.835 Q737.045 64.733 737.951 64.733 Q738.857 64.733 739.474 63.835 Q740.092 62.936 740.092 60.233 Q740.092 57.515 739.474 56.624 Q738.857 55.733 737.935 55.733 Q737.029 55.733 736.482 56.515 Q735.810 57.530 735.810 60.233 Z"/>
  <path d="M742.217 58.733 L743.295 58.733 Q743.435 59.265 743.670 59.468 Q743.998 59.733 744.420 59.733 Q744.951 59.733 745.263 59.405 Q745.576 59.077 745.576 58.624 Q745.576 58.202 745.310 57.960 Q745.045 57.718 744.404 57.718 Q744.310 57.718 744.154 57.733 Q744.060 57.733 743.998 57.733 L744.170 56.733 Q744.763 56.733 745.037 56.577 Q745.310 56.421 745.310 56.202 Q745.310 55.999 745.092 55.866 Q744.873 55.733 744.435 55.733 Q744.029 55.733 743.795 55.952 Q743.560 56.171 743.388 56.733 L742.342 56.733 Q742.638 55.624 743.099 55.179 Q743.560 54.733 744.435 54.733 Q745.498 54.733 745.974 55.101 Q746.451 55.468 746.451 56.030 Q746.451 56.405 746.193 56.710 Q745.935 57.015 745.451 57.140 Q746.107 57.327 746.412 57.757 Q746.717 58.186 746.717 58.765 Q746.717 59.561 746.138 60.147 Q745.560 60.733 744.482 60.733 Q743.451 60.733 742.912 60.218 Q742.373 59.702 742.217 58.733 Z"/>
  <path d="M829.371 62.733 L830.699 62.733 Q830.934 63.796 831.473 64.265 Q832.012 64.733 832.793 64.733 Q833.731 64.733 834.371 64.116 Q835.012 63.499 835.012 62.593 Q835.012 61.718 834.418 61.147 Q833.824 60.577 832.903 60.577 Q832.528 60.577 831.981 60.733 L832.121 59.733 Q832.262 59.749 832.340 59.749 Q833.184 59.749 833.856 59.241 Q834.528 58.733 834.528 57.671 Q834.528 56.843 834.035 56.288 Q833.543 55.733 832.762 55.733 Q831.996 55.733 831.481 56.233 Q830.965 56.733 830.824 57.733 L829.512 57.733 Q829.746 56.311 830.606 55.522 Q831.465 54.733 832.746 54.733 Q833.621 54.733 834.363 55.140 Q835.106 55.546 835.496 56.249 Q835.887 56.952 835.887 57.749 Q835.887 58.499 835.512 59.116 Q835.137 59.733 834.403 60.093 Q835.356 60.296 835.879 60.944 Q836.403 61.593 836.403 62.577 Q836.403 63.890 835.379 64.811 Q834.356 65.733 832.778 65.733 Q831.371 65.733 830.434 64.897 Q829.496 64.061 829.371 62.733 Z"/>
  <path d="M838.262 65.733 L838.262 64.733 L839.762 64.733 L839.762 65.733 L838.262 65.733 Z"/>
  <path d="M841.606 60.233 Q841.606 58.327 841.996 57.163 Q842.387 55.999 843.160 55.366 Q843.934 54.733 845.106 54.733 Q845.965 54.733 846.621 55.085 Q847.278 55.436 847.699 56.093 Q848.121 56.749 848.363 57.694 Q848.606 58.640 848.606 60.233 Q848.606 62.140 848.215 63.304 Q847.824 64.468 847.051 65.101 Q846.278 65.733 845.106 65.733 Q843.559 65.733 842.668 64.624 Q841.606 63.265 841.606 60.233 Z M842.965 60.233 Q842.965 62.936 843.582 63.835 Q844.199 64.733 845.106 64.733 Q846.012 64.733 846.629 63.835 Q847.246 62.936 847.246 60.233 Q847.246 57.515 846.629 56.624 Q846.012 55.733 845.090 55.733 Q844.184 55.733 843.637 56.515 Q842.965 57.530 842.965 60.233 Z"/>
  <path d=""/>
  <path d="M853.246 62.733 L855.543 60.233 L853.262 57.733 L854.153 56.733 L856.449 59.249 L858.746 56.733 L859.621 57.077 L857.340 60.218 L859.637 63.390 L858.746 63.733 L856.434 61.218 L854.137 63.733 L853.246 62.733 Z"/>
  <path d=""/>
  <path d="M869.168 65.733 L867.840 65.733 L867.840 57.155 Q867.371 57.624 866.598 58.085 Q865.824 58.546 865.215 58.780 L865.215 57.483 Q866.324 56.952 867.145 56.194 Q867.965 55.436 868.309 54.733 L869.168 54.733 L869.168 65.733 Z"/>
  <path d="M872.356 60.233 Q872.356 58.327 872.746 57.163 Q873.137 55.999 873.910 55.366 Q874.684 54.733 875.856 54.733 Q876.715 54.733 877.371 55.085 Q878.028 55.436 878.449 56.093 Q878.871 56.749 879.113 57.694 Q879.356 58.640 879.356 60.233 Q879.356 62.140 878.965 63.304 Q878.574 64.468 877.801 65.101 Q877.028 65.733 875.856 65.733 Q874.309 65.733 873.418 64.624 Q872.356 63.265 872.356 60.233 Z M873.715 60.233 Q873.715 62.936 874.332 63.835 Q874.949 64.733 875.856 64.733 Q876.762 64.733 877.379 63.835 Q877.996 62.936 877.996 60.233 Q877.996 57.515 877.379 56.624 Q876.762 55.733 875.840 55.733 Q874.934 55.733 874.387 56.515 Q873.715 57.530 873.715 60.233 Z"/>
  <path d="M880.121 58.733 L881.199 58.733 Q881.340 59.265 881.574 59.468 Q881.903 59.733 882.324 59.733 Q882.856 59.733 883.168 59.405 Q883.481 59.077 883.481 58.624 Q883.481 58.202 883.215 57.960 Q882.949 57.718 882.309 57.718 Q882.215 57.718 882.059 57.733 Q881.965 57.733 881.903 57.733 L882.074 56.733 Q882.668 56.733 882.942 56.577 Q883.215 56.421 883.215 56.202 Q883.215 55.999 882.996 55.866 Q882.778 55.733 882.340 55.733 Q881.934 55.733 881.699 55.952 Q881.465 56.171 881.293 56.733 L880.246 56.733 Q880.543 55.624 881.004 55.179 Q881.465 54.733 882.340 54.733 Q883.403 54.733 883.879 55.101 Q884.356 55.468 884.356 56.030 Q884.356 56.405 884.098 56.710 Q883.840 57.015 883.356 57.140 Q884.012 57.327 884.317 57.757 Q884.621 58.186 884.621 58.765 Q884.621 59.561 884.043 60.147 Q883.465 60.733 882.387 60.733 Q881.356 60.733 880.817 60.218 Q880.278 59.702 880.121 58.733 Z"/>
  <path d="M967.276 62.733 L968.604 62.733 Q968.839 63.796 969.378 64.265 Q969.917 64.733 970.698 64.733 Q971.635 64.733 972.276 64.116 Q972.917 63.499 972.917 62.593 Q972.917 61.718 972.323 61.147 Q971.729 60.577 970.807 60.577 Q970.432 60.577 969.885 60.733 L970.026 59.733 Q970.167 59.749 970.245 59.749 Q971.089 59.749 971.760 59.241 Q972.432 58.733 972.432 57.671 Q972.432 56.843 971.940 56.288 Q971.448 55.733 970.667 55.733 Q969.901 55.733 969.385 56.233 Q968.870 56.733 968.729 57.733 L967.417 57.733 Q967.651 56.311 968.510 55.522 Q969.370 54.733 970.651 54.733 Q971.526 54.733 972.268 55.140 Q973.010 55.546 973.401 56.249 Q973.792 56.952 973.792 57.749 Q973.792 58.499 973.417 59.116 Q973.042 59.733 972.307 60.093 Q973.260 60.296 973.784 60.944 Q974.307 61.593 974.307 62.577 Q974.307 63.890 973.284 64.811 Q972.260 65.733 970.682 65.733 Q969.276 65.733 968.339 64.897 Q967.401 64.061 967.276 62.733 Z"/>
  <path d="M976.167 65.733 L976.167 64.733 L977.667 64.733 L977.667 65.733 L976.167 65.733 Z"/>
  <path d="M979.510 62.733 L980.885 62.733 Q981.042 63.733 981.604 64.233 Q982.167 64.733 982.948 64.733 Q983.901 64.733 984.565 64.022 Q985.229 63.311 985.229 62.140 Q985.229 61.030 984.596 60.382 Q983.964 59.733 982.932 59.733 Q982.292 59.733 981.784 60.015 Q981.276 60.296 980.979 60.733 L979.745 60.733 L980.776 54.733 L986.120 54.733 L986.120 55.733 L981.839 55.733 L981.260 59.311 Q982.229 58.733 983.292 58.733 Q984.682 58.733 985.651 59.671 Q986.620 60.608 986.620 62.061 Q986.620 63.468 985.776 64.483 Q984.745 65.733 982.948 65.733 Q981.495 65.733 980.565 64.913 Q979.635 64.093 979.510 62.733 Z"/>
  <path d=""/>
  <path d="M991.151 62.733 L993.448 60.233 L991.167 57.733 L992.057 56.733 L994.354 59.249 L996.651 56.733 L997.526 57.077 L995.245 60.218 L997.542 63.390 L996.651 63.733 L994.339 61.218 L992.042 63.733 L991.151 62.733 Z"/>
  <path d=""/>
  <path d="M1007.073 65.733 L1005.745 65.733 L1005.745 57.155 Q1005.276 57.624 1004.503 58.085 Q1003.729 58.546 1003.120 58.780 L1003.120 57.483 Q1004.229 56.952 1005.049 56.194 Q1005.870 55.436 1006.214 54.733 L1007.073 54.733 L1007.073 65.733 Z"/>
  <path d="M1010.260 60.233 Q1010.260 58.327 1010.651 57.163 Q1011.042 55.999 1011.815 55.366 Q1012.589 54.733 1013.760 54.733 Q1014.620 54.733 1015.276 55.085 Q1015.932 55.436 1016.354 56.093 Q1016.776 56.749 1017.018 57.694 Q1017.260 58.640 1017.260 60.233 Q1017.260 62.140 1016.870 63.304 Q1016.479 64.468 1015.706 65.101 Q1014.932 65.733 1013.760 65.733 Q1012.214 65.733 1011.323 64.624 Q1010.260 63.265 1010.260 60.233 Z M1011.620 60.233 Q1011.620 62.936 1012.237 63.835 Q1012.854 64.733 1013.760 64.733 Q1014.667 64.733 1015.284 63.835 Q1015.901 62.936 1015.901 60.233 Q1015.901 57.515 1015.284 56.624 Q1014.667 55.733 1013.745 55.733 Q1012.839 55.733 1012.292 56.515 Q1011.620 57.530 1011.620 60.233 Z"/>
  <path d="M1018.026 58.733 L1019.104 58.733 Q1019.245 59.265 1019.479 59.468 Q1019.807 59.733 1020.229 59.733 Q1020.760 59.733 1021.073 59.405 Q1021.385 59.077 1021.385 58.624 Q1021.385 58.202 1021.120 57.960 Q1020.854 57.718 1020.214 57.718 Q1020.120 57.718 1019.964 57.733 Q1019.870 57.733 1019.807 57.733 L1019.979 56.733 Q1020.573 56.733 1020.846 56.577 Q1021.120 56.421 1021.120 56.202 Q1021.120 55.999 1020.901 55.866 Q1020.682 55.733 1020.245 55.733 Q1019.839 55.733 1019.604 55.952 Q1019.370 56.171 1019.198 56.733 L1018.151 56.733 Q1018.448 55.624 1018.909 55.179 Q1019.370 54.733 1020.245 54.733 Q1021.307 54.733 1021.784 55.101 Q1022.260 55.468 1022.260 56.030 Q1022.260 56.405 1022.003 56.710 Q1021.745 57.015 1021.260 57.140 Q1021.917 57.327 1022.221 57.757 Q1022.526 58.186 1022.526 58.765 Q1022.526 59.561 1021.948 60.147 Q1021.370 60.733 1020.292 60.733 Q1019.260 60.733 1018.721 60.218 Q1018.182 59.702 1018.026 58.733 Z"/>
</svg>
