<?xml version="1.0" encoding="UTF-8" ?>
<!-- Generated by clip v0.7.0 (clip-lang.org) -->
<svg xmlns="http://www.w3.org/2000/svg" width="1024.000000" height="60.000000">
  <rect width="1024.000000" height="60.000000" fill="#ffffff" fill-opacity="1.000000"/>
  <path d="M14.6667 30 L1009.33 30 " fill="none" stroke-width="1.333333" stroke="#000000ff"/>
  <path d="M43.9216 32.6667 L43.9216 27.3333 " fill="none" stroke-width="1.333333" stroke="#000000ff"/>
  <path d="M102.431 32.6667 L102.431 27.3333 " fill="none" stroke-width="1.333333" stroke="#000000ff"/>
  <path d="M160.941 32.6667 L160.941 27.3333 " fill="none" stroke-width="1.333333" stroke="#000000ff"/>
  <path d="M219.451 32.6667 L219.451 27.3333 " fill="none" stroke-width="1.333333" stroke="#000000ff"/>
  <path d="M277.961 32.6667 L277.961 27.3333 " fill="none" stroke-width="1.333333" stroke="#000000ff"/>
  <path d="M336.471 32.6667 L336.471 27.3333 " fill="none" stroke-width="1.333333" stroke="#000000ff"/>
  <path d="M394.98 32.6667 L394.98 27.3333 " fill="none" stroke-width="1.333333" stroke="#000000ff"/>
  <path d="M453.49 32.6667 L453.49 27.3333 " fill="none" stroke-width="1.333333" stroke="#000000ff"/>
  <path d="M512 32.6667 L512 27.3333 " fill="none" stroke-width="1.333333" stroke="#000000ff"/>
  <path d="M570.51 32.6667 L570.51 27.3333 " fill="none" stroke-width="1.333333" stroke="#000000ff"/>
  <path d="M629.02 32.6667 L629.02 27.3333 " fill="none" stroke-width="1.333333" stroke="#000000ff"/>
  <path d="M687.529 32.6667 L687.529 27.3333 " fill="none" stroke-width="1.333333" stroke="#000000ff"/>
  <path d="M746.039 32.6667 L746.039 27.3333 " fill="none" stroke-width="1.333333" stroke="#000000ff"/>
  <path d="M804.549 32.6667 L804.549 27.3333 " fill="none" stroke-width="1.333333" stroke="#000000ff"/>
  <path d="M863.059 32.6667 L863.059 27.3333 " fill="none" stroke-width="1.333333" stroke="#000000ff"/>
  <path d="M921.569 32.6667 L921.569 27.3333 " fill="none" stroke-width="1.333333" stroke="#000000ff"/>
  <path d="M980.078 32.6667 L980.078 27.3333 " fill="none" stroke-width="1.333333" stroke="#000000ff"/>
  <path d="M34.3513 50.2333 Q34.3513 48.3271 34.7419 47.163 Q35.1325 45.999 35.9059 45.3661 Q36.6794 44.7333 37.8513 44.7333 Q38.7106 44.7333 39.3669 45.0849 Q40.0231 45.4365 40.445 46.0927 Q40.8669 46.749 41.1091 47.6943 Q41.3513 48.6396 41.3513 50.2333 Q41.3513 52.1396 40.9606 53.3036 Q40.57 54.4677 39.7966 55.1005 Q39.0231 55.7333 37.8513 55.7333 Q36.3044 55.7333 35.4138 54.624 Q34.3513 53.2646 34.3513 50.2333 ZM35.7106 50.2333 Q35.7106 52.9365 36.3278 53.8349 Q36.945 54.7333 37.8513 54.7333 Q38.7575 54.7333 39.3747 53.8349 Q39.9919 52.9365 39.9919 50.2333 Q39.9919 47.5146 39.3747 46.624 Q38.7575 45.7333 37.8356 45.7333 Q36.9294 45.7333 36.3825 46.5146 Q35.7106 47.5302 35.7106 50.2333 Z" fill="#000000" fill-opacity="1.000000"/>
  <path d="M43.2419 55.7333 L43.2419 54.7333 L44.7419 54.7333 L44.7419 55.7333 L43.2419 55.7333 Z" fill="#000000" fill-opacity="1.000000"/>
  <path d="M46.5856 50.2333 Q46.5856 48.3271 46.9763 47.163 Q47.3669 45.999 48.1403 45.3661 Q48.9138 44.7333 50.0856 44.7333 Q50.945 44.7333 51.6013 45.0849 Q52.2575 45.4365 52.6794 46.0927 Q53.1013 46.749 53.3434 47.6943 Q53.5856 48.6396 53.5856 50.2333 Q53.5856 52.1396 53.195 53.3036 Q52.8044 54.4677 52.0309 55.1005 Q51.2575 55.7333 50.0856 55.7333 Q48.5388 55.7333 47.6481 54.624 Q46.5856 53.2646 46.5856 50.2333 ZM47.945 50.2333 Q47.945 52.9365 48.5622 53.8349 Q49.1794 54.7333 50.0856 54.7333 Q50.9919 54.7333 51.6091 53.8349 Q52.2263 52.9365 52.2263 50.2333 Q52.2263 47.5146 51.6091 46.624 Q50.9919 45.7333 50.07 45.7333 Q49.1638 45.7333 48.6169 46.5146 Q47.945 47.5302 47.945 50.2333 Z" fill="#000000" fill-opacity="1.000000"/>
  <path d="M97.8298 55.7333 L96.5017 55.7333 L96.5017 47.1552 Q96.0329 47.624 95.2595 48.0849 Q94.4861 48.5458 93.8767 48.7802 L93.8767 47.4833 Q94.9861 46.9521 95.8064 46.1943 Q96.6267 45.4365 96.9704 44.7333 L97.8298 44.7333 L97.8298 55.7333 Z" fill="#000000" fill-opacity="1.000000"/>
  <path d="M101.752 55.7333 L101.752 54.7333 L103.252 54.7333 L103.252 55.7333 L101.752 55.7333 Z" fill="#000000" fill-opacity="1.000000"/>
  <path d="M105.095 50.2333 Q105.095 48.3271 105.486 47.163 Q105.877 45.999 106.65 45.3661 Q107.424 44.7333 108.595 44.7333 Q109.455 44.7333 110.111 45.0849 Q110.767 45.4365 111.189 46.0927 Q111.611 46.749 111.853 47.6943 Q112.095 48.6396 112.095 50.2333 Q112.095 52.1396 111.705 53.3036 Q111.314 54.4677 110.541 55.1005 Q109.767 55.7333 108.595 55.7333 Q107.049 55.7333 106.158 54.624 Q105.095 53.2646 105.095 50.2333 ZM106.455 50.2333 Q106.455 52.9365 107.072 53.8349 Q107.689 54.7333 108.595 54.7333 Q109.502 54.7333 110.119 53.8349 Q110.736 52.9365 110.736 50.2333 Q110.736 47.5146 110.119 46.624 Q109.502 45.7333 108.58 45.7333 Q107.674 45.7333 107.127 46.5146 Q106.455 47.5302 106.455 50.2333 Z" fill="#000000" fill-opacity="1.000000"/>
  <path d="M158.293 54.7333 L158.293 55.7333 L151.199 55.7333 Q151.183 55.3427 151.355 54.9677 Q151.621 54.3583 152.222 53.7724 Q152.824 53.1865 153.949 52.124 Q155.699 50.4677 156.316 49.538 Q156.933 48.6083 156.933 47.7958 Q156.933 46.9208 156.371 46.3271 Q155.808 45.7333 154.918 45.7333 Q153.965 45.7333 153.386 46.2646 Q152.808 46.7958 152.808 47.7333 L151.449 47.7333 Q151.59 46.2646 152.496 45.499 Q153.402 44.7333 154.933 44.7333 Q156.48 44.7333 157.379 45.624 Q158.277 46.5146 158.277 47.8427 Q158.277 48.5146 158.011 49.163 Q157.746 49.8115 157.136 50.5302 Q156.527 51.249 155.105 52.5302 Q153.918 53.5927 153.582 53.9677 Q153.246 54.3427 153.027 54.7333 L158.293 54.7333 Z" fill="#000000" fill-opacity="1.000000"/>
  <path d="M160.261 55.7333 L160.261 54.7333 L161.761 54.7333 L161.761 55.7333 L160.261 55.7333 Z" fill="#000000" fill-opacity="1.000000"/>
  <path d="M163.605 50.2333 Q163.605 48.3271 163.996 47.163 Q164.386 45.999 165.16 45.3661 Q165.933 44.7333 167.105 44.7333 Q167.965 44.7333 168.621 45.0849 Q169.277 45.4365 169.699 46.0927 Q170.121 46.749 170.363 47.6943 Q170.605 48.6396 170.605 50.2333 Q170.605 52.1396 170.215 53.3036 Q169.824 54.4677 169.051 55.1005 Q168.277 55.7333 167.105 55.7333 Q165.558 55.7333 164.668 54.624 Q163.605 53.2646 163.605 50.2333 ZM164.965 50.2333 Q164.965 52.9365 165.582 53.8349 Q166.199 54.7333 167.105 54.7333 Q168.011 54.7333 168.629 53.8349 Q169.246 52.9365 169.246 50.2333 Q169.246 47.5146 168.629 46.624 Q168.011 45.7333 167.09 45.7333 Q166.183 45.7333 165.636 46.5146 Q164.965 47.5302 164.965 50.2333 Z" fill="#000000" fill-opacity="1.000000"/>
  <path d="M209.881 52.7333 L211.209 52.7333 Q211.443 53.7958 211.982 54.2646 Q212.521 54.7333 213.303 54.7333 Q214.24 54.7333 214.881 54.1161 Q215.521 53.499 215.521 52.5927 Q215.521 51.7177 214.928 51.1474 Q214.334 50.5771 213.412 50.5771 Q213.037 50.5771 212.49 50.7333 L212.631 49.7333 Q212.771 49.749 212.849 49.749 Q213.693 49.749 214.365 49.2411 Q215.037 48.7333 215.037 47.6708 Q215.037 46.8427 214.545 46.288 Q214.053 45.7333 213.271 45.7333 Q212.506 45.7333 211.99 46.2333 Q211.474 46.7333 211.334 47.7333 L210.021 47.7333 Q210.256 46.3115 211.115 45.5224 Q211.974 44.7333 213.256 44.7333 Q214.131 44.7333 214.873 45.1396 Q215.615 45.5458 216.006 46.249 Q216.396 46.9521 216.396 47.749 Q216.396 48.499 216.021 49.1161 Q215.646 49.7333 214.912 50.0927 Q215.865 50.2958 216.388 50.9443 Q216.912 51.5927 216.912 52.5771 Q216.912 53.8896 215.888 54.8115 Q214.865 55.7333 213.287 55.7333 Q211.881 55.7333 210.943 54.8974 Q210.006 54.0615 209.881 52.7333 Z" fill="#000000" fill-opacity="1.000000"/>
  <path d="M218.771 55.7333 L218.771 54.7333 L220.271 54.7333 L220.271 55.7333 L218.771 55.7333 Z" fill="#000000" fill-opacity="1.000000"/>
  <path d="M222.115 50.2333 Q222.115 48.3271 222.506 47.163 Q222.896 45.999 223.67 45.3661 Q224.443 44.7333 225.615 44.7333 Q226.474 44.7333 227.131 45.0849 Q227.787 45.4365 228.209 46.0927 Q228.631 46.749 228.873 47.6943 Q229.115 48.6396 229.115 50.2333 Q229.115 52.1396 228.724 53.3036 Q228.334 54.4677 227.56 55.1005 Q226.787 55.7333 225.615 55.7333 Q224.068 55.7333 223.178 54.624 Q222.115 53.2646 222.115 50.2333 ZM223.474 50.2333 Q223.474 52.9365 224.092 53.8349 Q224.709 54.7333 225.615 54.7333 Q226.521 54.7333 227.138 53.8349 Q227.756 52.9365 227.756 50.2333 Q227.756 47.5146 227.138 46.624 Q226.521 45.7333 225.599 45.7333 Q224.693 45.7333 224.146 46.5146 Q223.474 47.5302 223.474 50.2333 Z" fill="#000000" fill-opacity="1.000000"/>
  <path d="M272.609 55.7333 L272.609 52.7333 L267.953 52.7333 L267.953 51.7333 L272.859 44.7333 L273.937 44.7333 L273.937 51.7333 L275.39 51.7333 L275.39 52.7333 L273.937 52.7333 L273.937 55.7333 L272.609 55.7333 ZM272.609 51.7333 L272.609 46.9365 L269.25 51.7333 L272.609 51.7333 Z" fill="#000000" fill-opacity="1.000000"/>
  <path d="M277.281 55.7333 L277.281 54.7333 L278.781 54.7333 L278.781 55.7333 L277.281 55.7333 Z" fill="#000000" fill-opacity="1.000000"/>
  <path d="M280.625 50.2333 Q280.625 48.3271 281.015 47.163 Q281.406 45.999 282.18 45.3661 Q282.953 44.7333 284.125 44.7333 Q284.984 44.7333 285.64 45.0849 Q286.297 45.4365 286.719 46.0927 Q287.14 46.749 287.383 47.6943 Q287.625 48.6396 287.625 50.2333 Q287.625 52.1396 287.234 53.3036 Q286.844 54.4677 286.07 55.1005 Q285.297 55.7333 284.125 55.7333 Q282.578 55.7333 281.687 54.624 Q280.625 53.2646 280.625 50.2333 ZM281.984 50.2333 Q281.984 52.9365 282.601 53.8349 Q283.219 54.7333 284.125 54.7333 Q285.031 54.7333 285.648 53.8349 Q286.265 52.9365 286.265 50.2333 Q286.265 47.5146 285.648 46.624 Q285.031 45.7333 284.109 45.7333 Q283.203 45.7333 282.656 46.5146 Q281.984 47.5302 281.984 50.2333 Z" fill="#000000" fill-opacity="1.000000"/>
  <path d="M326.9 52.7333 L328.275 52.7333 Q328.432 53.7333 328.994 54.2333 Q329.557 54.7333 330.338 54.7333 Q331.291 54.7333 331.955 54.0224 Q332.619 53.3115 332.619 52.1396 Q332.619 51.0302 331.986 50.3818 Q331.353 49.7333 330.322 49.7333 Q329.682 49.7333 329.174 50.0146 Q328.666 50.2958 328.369 50.7333 L327.135 50.7333 L328.166 44.7333 L333.51 44.7333 L333.51 45.7333 L329.228 45.7333 L328.65 49.3115 Q329.619 48.7333 330.682 48.7333 Q332.072 48.7333 333.041 49.6708 Q334.01 50.6083 334.01 52.0615 Q334.01 53.4677 333.166 54.4833 Q332.135 55.7333 330.338 55.7333 Q328.885 55.7333 327.955 54.913 Q327.025 54.0927 326.9 52.7333 Z" fill="#000000" fill-opacity="1.000000"/>
  <path d="M335.791 55.7333 L335.791 54.7333 L337.291 54.7333 L337.291 55.7333 L335.791 55.7333 Z" fill="#000000" fill-opacity="1.000000"/>
  <path d="M339.135 50.2333 Q339.135 48.3271 339.525 47.163 Q339.916 45.999 340.689 45.3661 Q341.463 44.7333 342.635 44.7333 Q343.494 44.7333 344.15 45.0849 Q344.807 45.4365 345.228 46.0927 Q345.65 46.749 345.892 47.6943 Q346.135 48.6396 346.135 50.2333 Q346.135 52.1396 345.744 53.3036 Q345.353 54.4677 344.58 55.1005 Q343.807 55.7333 342.635 55.7333 Q341.088 55.7333 340.197 54.624 Q339.135 53.2646 339.135 50.2333 ZM340.494 50.2333 Q340.494 52.9365 341.111 53.8349 Q341.728 54.7333 342.635 54.7333 Q343.541 54.7333 344.158 53.8349 Q344.775 52.9365 344.775 50.2333 Q344.775 47.5146 344.158 46.624 Q343.541 45.7333 342.619 45.7333 Q341.713 45.7333 341.166 46.5146 Q340.494 47.5302 340.494 50.2333 Z" fill="#000000" fill-opacity="1.000000"/>
  <path d="M392.254 47.7333 L390.941 47.7333 Q390.769 46.8115 390.441 46.4052 Q389.91 45.7333 389.129 45.7333 Q388.488 45.7333 388.019 46.124 Q387.394 46.624 387.035 47.5771 Q386.676 48.5302 386.66 50.1708 Q387.129 49.4365 387.824 49.0849 Q388.519 48.7333 389.269 48.7333 Q390.582 48.7333 391.512 49.6865 Q392.441 50.6396 392.441 52.1396 Q392.441 53.124 392.004 53.9755 Q391.566 54.8271 390.809 55.2802 Q390.051 55.7333 389.082 55.7333 Q387.426 55.7333 386.387 54.5146 Q385.348 53.2958 385.348 50.5146 Q385.348 47.3896 386.504 45.9677 Q387.504 44.7333 389.207 44.7333 Q390.473 44.7333 391.285 45.5302 Q392.098 46.3271 392.254 47.7333 ZM386.863 52.1083 Q386.863 52.7958 387.152 53.4286 Q387.441 54.0615 387.965 54.3974 Q388.488 54.7333 389.051 54.7333 Q389.894 54.7333 390.496 54.0458 Q391.098 53.3583 391.098 52.1708 Q391.098 51.0458 390.504 50.3896 Q389.91 49.7333 389.004 49.7333 Q388.113 49.7333 387.488 50.3896 Q386.863 51.0458 386.863 52.1083 Z" fill="#000000" fill-opacity="1.000000"/>
  <path d="M394.301 55.7333 L394.301 54.7333 L395.801 54.7333 L395.801 55.7333 L394.301 55.7333 Z" fill="#000000" fill-opacity="1.000000"/>
  <path d="M397.644 50.2333 Q397.644 48.3271 398.035 47.163 Q398.426 45.999 399.199 45.3661 Q399.973 44.7333 401.144 44.7333 Q402.004 44.7333 402.66 45.0849 Q403.316 45.4365 403.738 46.0927 Q404.16 46.749 404.402 47.6943 Q404.644 48.6396 404.644 50.2333 Q404.644 52.1396 404.254 53.3036 Q403.863 54.4677 403.09 55.1005 Q402.316 55.7333 401.144 55.7333 Q399.598 55.7333 398.707 54.624 Q397.644 53.2646 397.644 50.2333 ZM399.004 50.2333 Q399.004 52.9365 399.621 53.8349 Q400.238 54.7333 401.144 54.7333 Q402.051 54.7333 402.668 53.8349 Q403.285 52.9365 403.285 50.2333 Q403.285 47.5146 402.668 46.624 Q402.051 45.7333 401.129 45.7333 Q400.223 45.7333 399.676 46.5146 Q399.004 47.5302 399.004 50.2333 Z" fill="#000000" fill-opacity="1.000000"/>
  <path d="M443.998 45.7333 L443.998 44.7333 L450.951 44.7333 L450.951 45.5458 Q449.936 46.6396 448.928 48.5771 Q447.92 50.5146 447.357 52.5615 Q446.967 54.0146 446.857 55.7333 L445.514 55.7333 Q445.529 54.374 446.006 52.4521 Q446.482 50.5302 447.373 48.7411 Q448.264 46.9521 449.264 45.7333 L443.998 45.7333 Z" fill="#000000" fill-opacity="1.000000"/>
  <path d="M452.811 55.7333 L452.811 54.7333 L454.311 54.7333 L454.311 55.7333 L452.811 55.7333 Z" fill="#000000" fill-opacity="1.000000"/>
  <path d="M456.154 50.2333 Q456.154 48.3271 456.545 47.163 Q456.936 45.999 457.709 45.3661 Q458.482 44.7333 459.654 44.7333 Q460.514 44.7333 461.17 45.0849 Q461.826 45.4365 462.248 46.0927 Q462.67 46.749 462.912 47.6943 Q463.154 48.6396 463.154 50.2333 Q463.154 52.1396 462.764 53.3036 Q462.373 54.4677 461.6 55.1005 Q460.826 55.7333 459.654 55.7333 Q458.107 55.7333 457.217 54.624 Q456.154 53.2646 456.154 50.2333 ZM457.514 50.2333 Q457.514 52.9365 458.131 53.8349 Q458.748 54.7333 459.654 54.7333 Q460.561 54.7333 461.178 53.8349 Q461.795 52.9365 461.795 50.2333 Q461.795 47.5146 461.178 46.624 Q460.561 45.7333 459.639 45.7333 Q458.732 45.7333 458.186 46.5146 Q457.514 47.5302 457.514 50.2333 Z" fill="#000000" fill-opacity="1.000000"/>
  <path d="M504.461 50.2021 Q503.648 49.874 503.25 49.2568 Q502.852 48.6396 502.852 47.7802 Q502.852 46.499 503.695 45.6161 Q504.539 44.7333 505.93 44.7333 Q507.336 44.7333 508.195 45.6318 Q509.055 46.5302 509.055 47.8271 Q509.055 48.6552 508.656 49.2646 Q508.258 49.874 507.461 50.2021 Q508.461 50.499 508.977 51.163 Q509.492 51.8271 509.492 52.7333 Q509.492 53.999 508.516 54.8661 Q507.539 55.7333 505.961 55.7333 Q504.367 55.7333 503.391 54.8661 Q502.414 53.999 502.414 52.7021 Q502.414 51.7333 502.945 51.0849 Q503.477 50.4365 504.461 50.2021 ZM504.195 47.6865 Q504.195 48.5927 504.688 49.163 Q505.18 49.7333 505.961 49.7333 Q506.727 49.7333 507.211 49.163 Q507.695 48.5927 507.695 47.7646 Q507.695 46.9052 507.195 46.3193 Q506.695 45.7333 505.945 45.7333 Q505.195 45.7333 504.695 46.3036 Q504.195 46.874 504.195 47.6865 ZM503.773 52.7177 Q503.773 53.2333 504.039 53.7177 Q504.305 54.2021 504.828 54.4677 Q505.352 54.7333 505.961 54.7333 Q506.898 54.7333 507.516 54.1708 Q508.133 53.6083 508.133 52.749 Q508.133 51.874 507.5 51.3036 Q506.867 50.7333 505.914 50.7333 Q504.992 50.7333 504.383 51.2958 Q503.773 51.8583 503.773 52.7177 Z" fill="#000000" fill-opacity="1.000000"/>
  <path d="M511.32 55.7333 L511.32 54.7333 L512.82 54.7333 L512.82 55.7333 L511.32 55.7333 Z" fill="#000000" fill-opacity="1.000000"/>
  <path d="M514.664 50.2333 Q514.664 48.3271 515.055 47.163 Q515.445 45.999 516.219 45.3661 Q516.992 44.7333 518.164 44.7333 Q519.023 44.7333 519.68 45.0849 Q520.336 45.4365 520.758 46.0927 Q521.18 46.749 521.422 47.6943 Q521.664 48.6396 521.664 50.2333 Q521.664 52.1396 521.273 53.3036 Q520.883 54.4677 520.109 55.1005 Q519.336 55.7333 518.164 55.7333 Q516.617 55.7333 515.727 54.624 Q514.664 53.2646 514.664 50.2333 ZM516.023 50.2333 Q516.023 52.9365 516.641 53.8349 Q517.258 54.7333 518.164 54.7333 Q519.07 54.7333 519.688 53.8349 Q520.305 52.9365 520.305 50.2333 Q520.305 47.5146 519.688 46.624 Q519.07 45.7333 518.148 45.7333 Q517.242 45.7333 516.695 46.5146 Q516.023 47.5302 516.023 50.2333 Z" fill="#000000" fill-opacity="1.000000"/>
  <path d="M561.143 52.7333 L562.408 52.7333 Q562.564 53.7802 563.018 54.2568 Q563.471 54.7333 564.189 54.7333 Q564.783 54.7333 565.244 54.4286 Q565.705 54.124 565.994 53.6161 Q566.283 53.1083 566.486 52.2568 Q566.689 51.4052 566.689 50.5771 Q566.689 50.499 566.674 50.3271 Q566.283 50.9521 565.596 51.3427 Q564.908 51.7333 564.111 51.7333 Q562.783 51.7333 561.861 50.788 Q560.939 49.8427 560.939 48.2802 Q560.939 46.6865 561.9 45.7099 Q562.861 44.7333 564.314 44.7333 Q565.361 44.7333 566.229 45.2958 Q567.096 45.8583 567.549 46.9052 Q568.002 47.9521 568.002 49.9365 Q568.002 52.0146 567.557 53.2333 Q567.111 54.4521 566.229 55.0927 Q565.346 55.7333 564.158 55.7333 Q562.893 55.7333 562.096 54.9443 Q561.299 54.1552 561.143 52.7333 ZM566.533 48.2646 Q566.533 47.0927 565.932 46.413 Q565.33 45.7333 564.471 45.7333 Q563.596 45.7333 562.947 46.4677 Q562.299 47.2021 562.299 48.374 Q562.299 49.4208 562.916 50.0771 Q563.533 50.7333 564.439 50.7333 Q565.361 50.7333 565.947 50.0771 Q566.533 49.4208 566.533 48.2646 Z" fill="#000000" fill-opacity="1.000000"/>
  <path d="M569.83 55.7333 L569.83 54.7333 L571.33 54.7333 L571.33 55.7333 L569.83 55.7333 Z" fill="#000000" fill-opacity="1.000000"/>
  <path d="M573.174 50.2333 Q573.174 48.3271 573.564 47.163 Q573.955 45.999 574.729 45.3661 Q575.502 44.7333 576.674 44.7333 Q577.533 44.7333 578.189 45.0849 Q578.846 45.4365 579.268 46.0927 Q579.689 46.749 579.932 47.6943 Q580.174 48.6396 580.174 50.2333 Q580.174 52.1396 579.783 53.3036 Q579.393 54.4677 578.619 55.1005 Q577.846 55.7333 576.674 55.7333 Q575.127 55.7333 574.236 54.624 Q573.174 53.2646 573.174 50.2333 ZM574.533 50.2333 Q574.533 52.9365 575.15 53.8349 Q575.768 54.7333 576.674 54.7333 Q577.58 54.7333 578.197 53.8349 Q578.814 52.9365 578.814 50.2333 Q578.814 47.5146 578.197 46.624 Q577.58 45.7333 576.658 45.7333 Q575.752 45.7333 575.205 46.5146 Q574.533 47.5302 574.533 50.2333 Z" fill="#000000" fill-opacity="1.000000"/>
  <path d="M620.34 55.7333 L619.012 55.7333 L619.012 47.1552 Q618.543 47.624 617.77 48.0849 Q616.996 48.5458 616.387 48.7802 L616.387 47.4833 Q617.496 46.9521 618.316 46.1943 Q619.137 45.4365 619.481 44.7333 L620.34 44.7333 L620.34 55.7333 Z" fill="#000000" fill-opacity="1.000000"/>
  <path d="M623.527 50.2333 Q623.527 48.3271 623.918 47.163 Q624.309 45.999 625.082 45.3661 Q625.856 44.7333 627.027 44.7333 Q627.887 44.7333 628.543 45.0849 Q629.199 45.4365 629.621 46.0927 Q630.043 46.749 630.285 47.6943 Q630.527 48.6396 630.527 50.2333 Q630.527 52.1396 630.137 53.3036 Q629.746 54.4677 628.973 55.1005 Q628.199 55.7333 627.027 55.7333 Q625.481 55.7333 624.59 54.624 Q623.527 53.2646 623.527 50.2333 ZM624.887 50.2333 Q624.887 52.9365 625.504 53.8349 Q626.121 54.7333 627.027 54.7333 Q627.934 54.7333 628.551 53.8349 Q629.168 52.9365 629.168 50.2333 Q629.168 47.5146 628.551 46.624 Q627.934 45.7333 627.012 45.7333 Q626.106 45.7333 625.559 46.5146 Q624.887 47.5302 624.887 50.2333 Z" fill="#000000" fill-opacity="1.000000"/>
  <path d="M632.418 55.7333 L632.418 54.7333 L633.918 54.7333 L633.918 55.7333 L632.418 55.7333 Z" fill="#000000" fill-opacity="1.000000"/>
  <path d="M635.762 50.2333 Q635.762 48.3271 636.152 47.163 Q636.543 45.999 637.316 45.3661 Q638.09 44.7333 639.262 44.7333 Q640.121 44.7333 640.777 45.0849 Q641.434 45.4365 641.856 46.0927 Q642.277 46.749 642.52 47.6943 Q642.762 48.6396 642.762 50.2333 Q642.762 52.1396 642.371 53.3036 Q641.981 54.4677 641.207 55.1005 Q640.434 55.7333 639.262 55.7333 Q637.715 55.7333 636.824 54.624 Q635.762 53.2646 635.762 50.2333 ZM637.121 50.2333 Q637.121 52.9365 637.738 53.8349 Q638.356 54.7333 639.262 54.7333 Q640.168 54.7333 640.785 53.8349 Q641.402 52.9365 641.402 50.2333 Q641.402 47.5146 640.785 46.624 Q640.168 45.7333 639.246 45.7333 Q638.34 45.7333 637.793 46.5146 Q637.121 47.5302 637.121 50.2333 Z" fill="#000000" fill-opacity="1.000000"/>
  <path d="M679.397 55.7333 L678.068 55.7333 L678.068 47.1552 Q677.6 47.624 676.826 48.0849 Q676.053 48.5458 675.443 48.7802 L675.443 47.4833 Q676.553 46.9521 677.373 46.1943 Q678.193 45.4365 678.537 44.7333 L679.397 44.7333 L679.397 55.7333 Z" fill="#000000" fill-opacity="1.000000"/>
  <path d="M687.006 55.7333 L685.678 55.7333 L685.678 47.1552 Q685.209 47.624 684.436 48.0849 Q683.662 48.5458 683.053 48.7802 L683.053 47.4833 Q684.162 46.9521 684.983 46.1943 Q685.803 45.4365 686.147 44.7333 L687.006 44.7333 L687.006 55.7333 Z" fill="#000000" fill-opacity="1.000000"/>
  <path d="M690.381 55.7333 L690.381 54.7333 L691.881 54.7333 L691.881 55.7333 L690.381 55.7333 Z" fill="#000000" fill-opacity="1.000000"/>
  <path d="M693.725 50.2333 Q693.725 48.3271 694.115 47.163 Q694.506 45.999 695.279 45.3661 Q696.053 44.7333 697.225 44.7333 Q698.084 44.7333 698.74 45.0849 Q699.397 45.4365 699.818 46.0927 Q700.24 46.749 700.483 47.6943 Q700.725 48.6396 700.725 50.2333 Q700.725 52.1396 700.334 53.3036 Q699.943 54.4677 699.17 55.1005 Q698.397 55.7333 697.225 55.7333 Q695.678 55.7333 694.787 54.624 Q693.725 53.2646 693.725 50.2333 ZM695.084 50.2333 Q695.084 52.9365 695.701 53.8349 Q696.318 54.7333 697.225 54.7333 Q698.131 54.7333 698.748 53.8349 Q699.365 52.9365 699.365 50.2333 Q699.365 47.5146 698.748 46.624 Q698.131 45.7333 697.209 45.7333 Q696.303 45.7333 695.756 46.5146 Q695.084 47.5302 695.084 50.2333 Z" fill="#000000" fill-opacity="1.000000"/>
  <path d="M737.36 55.7333 L736.031 55.7333 L736.031 47.1552 Q735.563 47.624 734.789 48.0849 Q734.016 48.5458 733.406 48.7802 L733.406 47.4833 Q734.516 46.9521 735.336 46.1943 Q736.156 45.4365 736.5 44.7333 L737.36 44.7333 L737.36 55.7333 Z" fill="#000000" fill-opacity="1.000000"/>
  <path d="M747.469 54.7333 L747.469 55.7333 L740.375 55.7333 Q740.36 55.3427 740.531 54.9677 Q740.797 54.3583 741.399 53.7724 Q742 53.1865 743.125 52.124 Q744.875 50.4677 745.492 49.538 Q746.11 48.6083 746.11 47.7958 Q746.11 46.9208 745.547 46.3271 Q744.985 45.7333 744.094 45.7333 Q743.141 45.7333 742.563 46.2646 Q741.985 46.7958 741.985 47.7333 L740.625 47.7333 Q740.766 46.2646 741.672 45.499 Q742.578 44.7333 744.11 44.7333 Q745.656 44.7333 746.555 45.624 Q747.453 46.5146 747.453 47.8427 Q747.453 48.5146 747.188 49.163 Q746.922 49.8115 746.313 50.5302 Q745.703 51.249 744.281 52.5302 Q743.094 53.5927 742.758 53.9677 Q742.422 54.3427 742.203 54.7333 L747.469 54.7333 Z" fill="#000000" fill-opacity="1.000000"/>
  <path d="M749.438 55.7333 L749.438 54.7333 L750.938 54.7333 L750.938 55.7333 L749.438 55.7333 Z" fill="#000000" fill-opacity="1.000000"/>
  <path d="M752.781 50.2333 Q752.781 48.3271 753.172 47.163 Q753.563 45.999 754.336 45.3661 Q755.11 44.7333 756.281 44.7333 Q757.141 44.7333 757.797 45.0849 Q758.453 45.4365 758.875 46.0927 Q759.297 46.749 759.539 47.6943 Q759.781 48.6396 759.781 50.2333 Q759.781 52.1396 759.391 53.3036 Q759 54.4677 758.227 55.1005 Q757.453 55.7333 756.281 55.7333 Q754.735 55.7333 753.844 54.624 Q752.781 53.2646 752.781 50.2333 ZM754.141 50.2333 Q754.141 52.9365 754.758 53.8349 Q755.375 54.7333 756.281 54.7333 Q757.188 54.7333 757.805 53.8349 Q758.422 52.9365 758.422 50.2333 Q758.422 47.5146 757.805 46.624 Q757.188 45.7333 756.266 45.7333 Q755.36 45.7333 754.813 46.5146 Q754.141 47.5302 754.141 50.2333 Z" fill="#000000" fill-opacity="1.000000"/>
  <path d="M795.869 55.7333 L794.541 55.7333 L794.541 47.1552 Q794.072 47.624 793.299 48.0849 Q792.526 48.5458 791.916 48.7802 L791.916 47.4833 Q793.026 46.9521 793.846 46.1943 Q794.666 45.4365 795.01 44.7333 L795.869 44.7333 L795.869 55.7333 Z" fill="#000000" fill-opacity="1.000000"/>
  <path d="M799.057 52.7333 L800.385 52.7333 Q800.619 53.7958 801.158 54.2646 Q801.697 54.7333 802.479 54.7333 Q803.416 54.7333 804.057 54.1161 Q804.697 53.499 804.697 52.5927 Q804.697 51.7177 804.104 51.1474 Q803.51 50.5771 802.588 50.5771 Q802.213 50.5771 801.666 50.7333 L801.807 49.7333 Q801.947 49.749 802.026 49.749 Q802.869 49.749 803.541 49.2411 Q804.213 48.7333 804.213 47.6708 Q804.213 46.8427 803.721 46.288 Q803.229 45.7333 802.447 45.7333 Q801.682 45.7333 801.166 46.2333 Q800.651 46.7333 800.51 47.7333 L799.197 47.7333 Q799.432 46.3115 800.291 45.5224 Q801.151 44.7333 802.432 44.7333 Q803.307 44.7333 804.049 45.1396 Q804.791 45.5458 805.182 46.249 Q805.572 46.9521 805.572 47.749 Q805.572 48.499 805.197 49.1161 Q804.822 49.7333 804.088 50.0927 Q805.041 50.2958 805.565 50.9443 Q806.088 51.5927 806.088 52.5771 Q806.088 53.8896 805.065 54.8115 Q804.041 55.7333 802.463 55.7333 Q801.057 55.7333 800.119 54.8974 Q799.182 54.0615 799.057 52.7333 Z" fill="#000000" fill-opacity="1.000000"/>
  <path d="M807.947 55.7333 L807.947 54.7333 L809.447 54.7333 L809.447 55.7333 L807.947 55.7333 Z" fill="#000000" fill-opacity="1.000000"/>
  <path d="M811.291 50.2333 Q811.291 48.3271 811.682 47.163 Q812.072 45.999 812.846 45.3661 Q813.619 44.7333 814.791 44.7333 Q815.651 44.7333 816.307 45.0849 Q816.963 45.4365 817.385 46.0927 Q817.807 46.749 818.049 47.6943 Q818.291 48.6396 818.291 50.2333 Q818.291 52.1396 817.901 53.3036 Q817.51 54.4677 816.737 55.1005 Q815.963 55.7333 814.791 55.7333 Q813.244 55.7333 812.354 54.624 Q811.291 53.2646 811.291 50.2333 ZM812.651 50.2333 Q812.651 52.9365 813.268 53.8349 Q813.885 54.7333 814.791 54.7333 Q815.697 54.7333 816.315 53.8349 Q816.932 52.9365 816.932 50.2333 Q816.932 47.5146 816.315 46.624 Q815.697 45.7333 814.776 45.7333 Q813.869 45.7333 813.322 46.5146 Q812.651 47.5302 812.651 50.2333 Z" fill="#000000" fill-opacity="1.000000"/>
  <path d="M854.379 55.7333 L853.051 55.7333 L853.051 47.1552 Q852.582 47.624 851.809 48.0849 Q851.035 48.5458 850.426 48.7802 L850.426 47.4833 Q851.535 46.9521 852.356 46.1943 Q853.176 45.4365 853.52 44.7333 L854.379 44.7333 L854.379 55.7333 Z" fill="#000000" fill-opacity="1.000000"/>
  <path d="M861.785 55.7333 L861.785 52.7333 L857.129 52.7333 L857.129 51.7333 L862.035 44.7333 L863.114 44.7333 L863.114 51.7333 L864.567 51.7333 L864.567 52.7333 L863.114 52.7333 L863.114 55.7333 L861.785 55.7333 ZM861.785 51.7333 L861.785 46.9365 L858.426 51.7333 L861.785 51.7333 Z" fill="#000000" fill-opacity="1.000000"/>
  <path d="M866.457 55.7333 L866.457 54.7333 L867.957 54.7333 L867.957 55.7333 L866.457 55.7333 Z" fill="#000000" fill-opacity="1.000000"/>
  <path d="M869.801 50.2333 Q869.801 48.3271 870.192 47.163 Q870.582 45.999 871.356 45.3661 Q872.129 44.7333 873.301 44.7333 Q874.16 44.7333 874.817 45.0849 Q875.473 45.4365 875.895 46.0927 Q876.317 46.749 876.559 47.6943 Q876.801 48.6396 876.801 50.2333 Q876.801 52.1396 876.41 53.3036 Q876.02 54.4677 875.246 55.1005 Q874.473 55.7333 873.301 55.7333 Q871.754 55.7333 870.864 54.624 Q869.801 53.2646 869.801 50.2333 ZM871.16 50.2333 Q871.16 52.9365 871.778 53.8349 Q872.395 54.7333 873.301 54.7333 Q874.207 54.7333 874.824 53.8349 Q875.442 52.9365 875.442 50.2333 Q875.442 47.5146 874.824 46.624 Q874.207 45.7333 873.285 45.7333 Q872.379 45.7333 871.832 46.5146 Q871.16 47.5302 871.16 50.2333 Z" fill="#000000" fill-opacity="1.000000"/>
  <path d="M912.889 55.7333 L911.561 55.7333 L911.561 47.1552 Q911.092 47.624 910.319 48.0849 Q909.545 48.5458 908.936 48.7802 L908.936 47.4833 Q910.045 46.9521 910.866 46.1943 Q911.686 45.4365 912.03 44.7333 L912.889 44.7333 L912.889 55.7333 Z" fill="#000000" fill-opacity="1.000000"/>
  <path d="M916.076 52.7333 L917.451 52.7333 Q917.608 53.7333 918.17 54.2333 Q918.733 54.7333 919.514 54.7333 Q920.467 54.7333 921.131 54.0224 Q921.795 53.3115 921.795 52.1396 Q921.795 51.0302 921.162 50.3818 Q920.53 49.7333 919.498 49.7333 Q918.858 49.7333 918.35 50.0146 Q917.842 50.2958 917.545 50.7333 L916.311 50.7333 L917.342 44.7333 L922.686 44.7333 L922.686 45.7333 L918.405 45.7333 L917.826 49.3115 Q918.795 48.7333 919.858 48.7333 Q921.248 48.7333 922.217 49.6708 Q923.186 50.6083 923.186 52.0615 Q923.186 53.4677 922.342 54.4833 Q921.311 55.7333 919.514 55.7333 Q918.061 55.7333 917.131 54.913 Q916.201 54.0927 916.076 52.7333 Z" fill="#000000" fill-opacity="1.000000"/>
  <path d="M924.967 55.7333 L924.967 54.7333 L926.467 54.7333 L926.467 55.7333 L924.967 55.7333 Z" fill="#000000" fill-opacity="1.000000"/>
  <path d="M928.311 50.2333 Q928.311 48.3271 928.701 47.163 Q929.092 45.999 929.866 45.3661 Q930.639 44.7333 931.811 44.7333 Q932.67 44.7333 933.326 45.0849 Q933.983 45.4365 934.405 46.0927 Q934.826 46.749 935.069 47.6943 Q935.311 48.6396 935.311 50.2333 Q935.311 52.1396 934.92 53.3036 Q934.53 54.4677 933.756 55.1005 Q932.983 55.7333 931.811 55.7333 Q930.264 55.7333 929.373 54.624 Q928.311 53.2646 928.311 50.2333 ZM929.67 50.2333 Q929.67 52.9365 930.287 53.8349 Q930.905 54.7333 931.811 54.7333 Q932.717 54.7333 933.334 53.8349 Q933.951 52.9365 933.951 50.2333 Q933.951 47.5146 933.334 46.624 Q932.717 45.7333 931.795 45.7333 Q930.889 45.7333 930.342 46.5146 Q929.67 47.5302 929.67 50.2333 Z" fill="#000000" fill-opacity="1.000000"/>
  <path d="M971.399 55.7333 L970.071 55.7333 L970.071 47.1552 Q969.602 47.624 968.828 48.0849 Q968.055 48.5458 967.446 48.7802 L967.446 47.4833 Q968.555 46.9521 969.375 46.1943 Q970.196 45.4365 970.539 44.7333 L971.399 44.7333 L971.399 55.7333 Z" fill="#000000" fill-opacity="1.000000"/>
  <path d="M981.43 47.7333 L980.117 47.7333 Q979.946 46.8115 979.617 46.4052 Q979.086 45.7333 978.305 45.7333 Q977.664 45.7333 977.196 46.124 Q976.571 46.624 976.211 47.5771 Q975.852 48.5302 975.836 50.1708 Q976.305 49.4365 977 49.0849 Q977.696 48.7333 978.446 48.7333 Q979.758 48.7333 980.688 49.6865 Q981.617 50.6396 981.617 52.1396 Q981.617 53.124 981.18 53.9755 Q980.742 54.8271 979.985 55.2802 Q979.227 55.7333 978.258 55.7333 Q976.602 55.7333 975.563 54.5146 Q974.524 53.2958 974.524 50.5146 Q974.524 47.3896 975.68 45.9677 Q976.68 44.7333 978.383 44.7333 Q979.649 44.7333 980.461 45.5302 Q981.274 46.3271 981.43 47.7333 ZM976.039 52.1083 Q976.039 52.7958 976.328 53.4286 Q976.617 54.0615 977.141 54.3974 Q977.664 54.7333 978.227 54.7333 Q979.071 54.7333 979.672 54.0458 Q980.274 53.3583 980.274 52.1708 Q980.274 51.0458 979.68 50.3896 Q979.086 49.7333 978.18 49.7333 Q977.289 49.7333 976.664 50.3896 Q976.039 51.0458 976.039 52.1083 Z" fill="#000000" fill-opacity="1.000000"/>
  <path d="M983.477 55.7333 L983.477 54.7333 L984.977 54.7333 L984.977 55.7333 L983.477 55.7333 Z" fill="#000000" fill-opacity="1.000000"/>
  <path d="M986.821 50.2333 Q986.821 48.3271 987.211 47.163 Q987.602 45.999 988.375 45.3661 Q989.149 44.7333 990.321 44.7333 Q991.18 44.7333 991.836 45.0849 Q992.492 45.4365 992.914 46.0927 Q993.336 46.749 993.578 47.6943 Q993.821 48.6396 993.821 50.2333 Q993.821 52.1396 993.43 53.3036 Q993.039 54.4677 992.266 55.1005 Q991.492 55.7333 990.321 55.7333 Q988.774 55.7333 987.883 54.624 Q986.821 53.2646 986.821 50.2333 ZM988.18 50.2333 Q988.18 52.9365 988.797 53.8349 Q989.414 54.7333 990.321 54.7333 Q991.227 54.7333 991.844 53.8349 Q992.461 52.9365 992.461 50.2333 Q992.461 47.5146 991.844 46.624 Q991.227 45.7333 990.305 45.7333 Q989.399 45.7333 988.852 46.5146 Q988.18 47.5302 988.18 50.2333 Z" fill="#000000" fill-opacity="1.000000"/>
</svg>