<?xml version="1.0" encoding="UTF-8" ?>
<!-- Generated by clip v0.7.0 (clip-lang.org) -->
<svg xmlns="http://www.w3.org/2000/svg" width="1024.000000" height="60.000000">
  <rect width="1024.000000" height="60.000000" fill="#ffffff" fill-opacity="1.000000"/>
  <path d="M14.6667 30 L1009.33 30 " fill="none" stroke-width="1.333333" stroke="#000000ff"/>
  <path d="M14.6667 32.6667 L14.6667 27.3333 " fill="none" stroke-width="1.333333" stroke="#000000ff"/>
  <path d="M89.5228 32.6667 L89.5228 27.3333 " fill="none" stroke-width="1.333333" stroke="#000000ff"/>
  <path d="M133.311 32.6667 L133.311 27.3333 " fill="none" stroke-width="1.333333" stroke="#000000ff"/>
  <path d="M164.379 32.6667 L164.379 27.3333 " fill="none" stroke-width="1.333333" stroke="#000000ff"/>
  <path d="M188.477 32.6667 L188.477 27.3333 " fill="none" stroke-width="1.333333" stroke="#000000ff"/>
  <path d="M208.167 32.6667 L208.167 27.3333 " fill="none" stroke-width="1.333333" stroke="#000000ff"/>
  <path d="M224.814 32.6667 L224.814 27.3333 " fill="none" stroke-width="1.333333" stroke="#000000ff"/>
  <path d="M239.235 32.6667 L239.235 27.3333 " fill="none" stroke-width="1.333333" stroke="#000000ff"/>
  <path d="M251.955 32.6667 L251.955 27.3333 " fill="none" stroke-width="1.333333" stroke="#000000ff"/>
  <path d="M263.333 32.6667 L263.333 27.3333 " fill="none" stroke-width="1.333333" stroke="#000000ff"/>
  <path d="M338.189 32.6667 L338.189 27.3333 " fill="none" stroke-width="1.333333" stroke="#000000ff"/>
  <path d="M381.977 32.6667 L381.977 27.3333 " fill="none" stroke-width="1.333333" stroke="#000000ff"/>
  <path d="M413.046 32.6667 L413.046 27.3333 " fill="none" stroke-width="1.333333" stroke="#000000ff"/>
  <path d="M437.144 32.6667 L437.144 27.3333 " fill="none" stroke-width="1.333333" stroke="#000000ff"/>
  <path d="M456.834 32.6667 L456.834 27.3333 " fill="none" stroke-width="1.333333" stroke="#000000ff"/>
  <path d="M473.481 32.6667 L473.481 27.3333 " fill="none" stroke-width="1.333333" stroke="#000000ff"/>
  <path d="M487.902 32.6667 L487.902 27.3333 " fill="none" stroke-width="1.333333" stroke="#000000ff"/>
  <path d="M500.622 32.6667 L500.622 27.3333 " fill="none" stroke-width="1.333333" stroke="#000000ff"/>
  <path d="M512 32.6667 L512 27.3333 " fill="none" stroke-width="1.333333" stroke="#000000ff"/>
  <path d="M586.856 32.6667 L586.856 27.3333 " fill="none" stroke-width="1.333333" stroke="#000000ff"/>
  <path d="M630.644 32.6667 L630.644 27.3333 " fill="none" stroke-width="1.333333" stroke="#000000ff"/>
  <path d="M661.712 32.6667 L661.712 27.3333 " fill="none" stroke-width="1.333333" stroke="#000000ff"/>
  <path d="M685.811 32.6667 L685.811 27.3333 " fill="none" stroke-width="1.333333" stroke="#000000ff"/>
  <path d="M705.5 32.6667 L705.5 27.3333 " fill="none" stroke-width="1.333333" stroke="#000000ff"/>
  <path d="M722.148 32.6667 L722.148 27.3333 " fill="none" stroke-width="1.333333" stroke="#000000ff"/>
  <path d="M736.568 32.6667 L736.568 27.3333 " fill="none" stroke-width="1.333333" stroke="#000000ff"/>
  <path d="M749.288 32.6667 L749.288 27.3333 " fill="none" stroke-width="1.333333" stroke="#000000ff"/>
  <path d="M760.667 32.6667 L760.667 27.3333 " fill="none" stroke-width="1.333333" stroke="#000000ff"/>
  <path d="M835.523 32.6667 L835.523 27.3333 " fill="none" stroke-width="1.333333" stroke="#000000ff"/>
  <path d="M879.311 32.6667 L879.311 27.3333 " fill="none" stroke-width="1.333333" stroke="#000000ff"/>
  <path d="M910.379 32.6667 L910.379 27.3333 " fill="none" stroke-width="1.333333" stroke="#000000ff"/>
  <path d="M934.477 32.6667 L934.477 27.3333 " fill="none" stroke-width="1.333333" stroke="#000000ff"/>
  <path d="M954.167 32.6667 L954.167 27.3333 " fill="none" stroke-width="1.333333" stroke="#000000ff"/>
  <path d="M970.814 32.6667 L970.814 27.3333 " fill="none" stroke-width="1.333333" stroke="#000000ff"/>
  <path d="M985.235 32.6667 L985.235 27.3333 " fill="none" stroke-width="1.333333" stroke="#000000ff"/>
  <path d="M997.955 32.6667 L997.955 27.3333 " fill="none" stroke-width="1.333333" stroke="#000000ff"/>
  <path d="M1009.33 32.6667 L1009.33 27.3333 " fill="none" stroke-width="1.333333" stroke="#000000ff"/>
  <path d="M7.86198 45.1865 L7.86198 52.7333 L9.14323 52.7333 L9.14323 42.124 L8.29948 42.124 C7.84635 43.7646 7.54948 43.9833 5.54948 44.249 L5.54948 45.1865 L7.86198 45.1865 Z" fill="#000000" fill-opacity="1.000000"/>
  <path d="M16.2526 41.7333 C15.2839 41.7333 14.3932 42.1865 13.862 42.9052 C13.1901 43.8427 12.8464 45.2646 12.8464 47.249 C12.8464 50.8427 14.0182 52.7333 16.2526 52.7333 C18.4557 52.7333 19.6589 50.8427 19.6589 47.3271 C19.6589 45.2646 19.3307 43.874 18.6432 42.9052 C18.0964 42.1708 17.237 41.7333 16.2526 41.7333 ZM16.2526 42.8896 C17.6432 42.8896 18.3307 44.3271 18.3307 47.2177 C18.3307 50.249 17.6589 51.6708 16.2214 51.6708 C14.862 51.6708 14.1589 50.1865 14.1589 47.2646 C14.1589 44.3271 14.862 42.8896 16.2526 42.8896 Z" fill="#000000" fill-opacity="1.000000"/>
  <path d="M22.7839 41.7333 C21.3464 41.7333 20.5964 42.874 20.5964 45.0927 C20.5964 47.3427 21.3464 48.4677 22.7995 48.4677 C24.2057 48.4677 24.9714 47.3427 24.9714 45.1552 C24.9714 42.8583 24.237 41.7333 22.7839 41.7333 ZM22.7839 42.5146 C23.6276 42.5146 24.0495 43.374 24.0495 45.0771 C24.0495 46.9052 23.6432 47.7333 22.7682 47.7333 C21.9245 47.7333 21.5182 46.8583 21.5182 45.1083 C21.5182 43.3583 21.9245 42.5146 22.7839 42.5146 Z" fill="#000000" fill-opacity="1.000000"/>
  <path d="M258.326 55.7333 L256.997 55.7333 L256.997 47.1552 Q256.529 47.624 255.755 48.0849 Q254.982 48.5458 254.372 48.7802 L254.372 47.4833 Q255.482 46.9521 256.302 46.1943 Q257.122 45.4365 257.466 44.7333 L258.326 44.7333 L258.326 55.7333 Z" fill="#000000" fill-opacity="1.000000"/>
  <path d="M261.513 50.2333 Q261.513 48.3271 261.904 47.163 Q262.294 45.999 263.068 45.3661 Q263.841 44.7333 265.013 44.7333 Q265.872 44.7333 266.529 45.0849 Q267.185 45.4365 267.607 46.0927 Q268.029 46.749 268.271 47.6943 Q268.513 48.6396 268.513 50.2333 Q268.513 52.1396 268.122 53.3036 Q267.732 54.4677 266.958 55.1005 Q266.185 55.7333 265.013 55.7333 Q263.466 55.7333 262.576 54.624 Q261.513 53.2646 261.513 50.2333 ZM262.872 50.2333 Q262.872 52.9365 263.49 53.8349 Q264.107 54.7333 265.013 54.7333 Q265.919 54.7333 266.536 53.8349 Q267.154 52.9365 267.154 50.2333 Q267.154 47.5146 266.536 46.624 Q265.919 45.7333 264.997 45.7333 Q264.091 45.7333 263.544 46.5146 Q262.872 47.5302 262.872 50.2333 Z" fill="#000000" fill-opacity="1.000000"/>
  <path d="M271.466 50.7333 L271.466 45.8115 Q270.716 46.4677 269.826 46.7333 L269.826 45.7333 Q270.279 45.624 270.841 45.3427 Q271.404 45.0615 271.747 44.7333 L272.529 44.7333 L272.529 50.7333 L271.466 50.7333 Z" fill="#000000" fill-opacity="1.000000"/>
  <path d="M506.992 55.7333 L505.664 55.7333 L505.664 47.1552 Q505.195 47.624 504.422 48.0849 Q503.648 48.5458 503.039 48.7802 L503.039 47.4833 Q504.148 46.9521 504.969 46.1943 Q505.789 45.4365 506.133 44.7333 L506.992 44.7333 L506.992 55.7333 Z" fill="#000000" fill-opacity="1.000000"/>
  <path d="M510.18 50.2333 Q510.18 48.3271 510.57 47.163 Q510.961 45.999 511.734 45.3661 Q512.508 44.7333 513.68 44.7333 Q514.539 44.7333 515.195 45.0849 Q515.852 45.4365 516.273 46.0927 Q516.695 46.749 516.938 47.6943 Q517.18 48.6396 517.18 50.2333 Q517.18 52.1396 516.789 53.3036 Q516.398 54.4677 515.625 55.1005 Q514.852 55.7333 513.68 55.7333 Q512.133 55.7333 511.242 54.624 Q510.18 53.2646 510.18 50.2333 ZM511.539 50.2333 Q511.539 52.9365 512.156 53.8349 Q512.773 54.7333 513.68 54.7333 Q514.586 54.7333 515.203 53.8349 Q515.82 52.9365 515.82 50.2333 Q515.82 47.5146 515.203 46.624 Q514.586 45.7333 513.664 45.7333 Q512.758 45.7333 512.211 46.5146 Q511.539 47.5302 511.539 50.2333 Z" fill="#000000" fill-opacity="1.000000"/>
  <path d="M517.898 50.7333 Q517.945 50.2802 518.242 49.8271 Q518.695 49.1552 519.75 48.3271 Q520.805 47.499 521.008 47.2646 Q521.273 46.9365 521.273 46.6083 Q521.273 46.2177 521.016 45.9755 Q520.758 45.7333 520.258 45.7333 Q519.773 45.7333 519.539 45.9365 Q519.305 46.1396 519.148 46.7333 L518.055 46.7333 Q518.273 45.7021 518.797 45.2177 Q519.32 44.7333 520.289 44.7333 Q521.398 44.7333 521.914 45.2021 Q522.43 45.6708 522.43 46.3583 Q522.43 47.0146 521.992 47.624 Q521.664 48.0615 520.492 48.9833 Q519.883 49.4521 519.633 49.7333 L522.461 49.7333 L522.461 50.7333 L517.898 50.7333 Z" fill="#000000" fill-opacity="1.000000"/>
  <path d="M755.659 55.7333 L754.331 55.7333 L754.331 47.1552 Q753.862 47.624 753.089 48.0849 Q752.315 48.5458 751.706 48.7802 L751.706 47.4833 Q752.815 46.9521 753.635 46.1943 Q754.456 45.4365 754.799 44.7333 L755.659 44.7333 L755.659 55.7333 Z" fill="#000000" fill-opacity="1.000000"/>
  <path d="M758.846 50.2333 Q758.846 48.3271 759.237 47.163 Q759.628 45.999 760.401 45.3661 Q761.174 44.7333 762.346 44.7333 Q763.206 44.7333 763.862 45.0849 Q764.518 45.4365 764.94 46.0927 Q765.362 46.749 765.604 47.6943 Q765.846 48.6396 765.846 50.2333 Q765.846 52.1396 765.456 53.3036 Q765.065 54.4677 764.292 55.1005 Q763.518 55.7333 762.346 55.7333 Q760.799 55.7333 759.909 54.624 Q758.846 53.2646 758.846 50.2333 ZM760.206 50.2333 Q760.206 52.9365 760.823 53.8349 Q761.44 54.7333 762.346 54.7333 Q763.253 54.7333 763.87 53.8349 Q764.487 52.9365 764.487 50.2333 Q764.487 47.5146 763.87 46.624 Q763.253 45.7333 762.331 45.7333 Q761.424 45.7333 760.878 46.5146 Q760.206 47.5302 760.206 50.2333 Z" fill="#000000" fill-opacity="1.000000"/>
  <path d="M766.565 50.7333 Q766.612 50.2802 766.909 49.8271 Q767.362 49.1552 768.417 48.3271 Q769.471 47.499 769.674 47.2646 Q769.94 46.9365 769.94 46.6083 Q769.94 46.2177 769.682 45.9755 Q769.424 45.7333 768.924 45.7333 Q768.44 45.7333 768.206 45.9365 Q767.971 46.1396 767.815 46.7333 L766.721 46.7333 Q766.94 45.7021 767.464 45.2177 Q767.987 44.7333 768.956 44.7333 Q770.065 44.7333 770.581 45.2021 Q771.096 45.6708 771.096 46.3583 Q771.096 47.0146 770.659 47.624 Q770.331 48.0615 769.159 48.9833 Q768.549 49.4521 768.299 49.7333 L771.128 49.7333 L771.128 50.7333 L766.565 50.7333 Z" fill="#000000" fill-opacity="1.000000"/>
  <path d="M1002.53 45.1865 L1002.53 52.7333 L1003.81 52.7333 L1003.81 42.124 L1002.97 42.124 C1002.51 43.7646 1002.22 43.9833 1000.22 44.249 L1000.22 45.1865 L1002.53 45.1865 Z" fill="#000000" fill-opacity="1.000000"/>
  <path d="M1010.92 41.7333 C1009.95 41.7333 1009.06 42.1865 1008.53 42.9052 C1007.86 43.8427 1007.51 45.2646 1007.51 47.249 C1007.51 50.8427 1008.68 52.7333 1010.92 52.7333 C1013.12 52.7333 1014.33 50.8427 1014.33 47.3271 C1014.33 45.2646 1014 43.874 1013.31 42.9052 C1012.76 42.1708 1011.9 41.7333 1010.92 41.7333 ZM1010.92 42.8896 C1012.31 42.8896 1013 44.3271 1013 47.2177 C1013 50.249 1012.33 51.6708 1010.89 51.6708 C1009.53 51.6708 1008.83 50.1865 1008.83 47.2646 C1008.83 44.3271 1009.53 42.8896 1010.92 42.8896 Z" fill="#000000" fill-opacity="1.000000"/>
  <path d="M1017.87 46.7333 L1017.87 48.2021 L1018.78 48.2021 L1018.78 46.7333 L1019.76 46.7333 L1019.76 45.9677 L1018.78 45.9677 L1018.78 41.9677 L1018.11 41.9677 L1015.11 45.874 L1015.11 46.7333 L1017.87 46.7333 ZM1017.87 45.9677 L1015.98 45.9677 L1017.87 43.4677 L1017.87 45.9677 Z" fill="#000000" fill-opacity="1.000000"/>
</svg>