<?xml version="1.0" encoding="UTF-8" ?>
<!-- Generated by clip v0.7.0 (clip-lang.org) -->
<svg xmlns="http://www.w3.org/2000/svg" width="1024.000000" height="60.000000">
  <rect width="1024.000000" height="60.000000" fill="#ffffff" fill-opacity="1.000000"/>
  <path d="M14.6667 30 L1009.33 30 " fill="none" stroke-width="1.333333" stroke="#000000ff"/>
  <path d="M139 32.6667 L139 27.3333 " fill="none" stroke-width="1.333333" stroke="#000000ff"/>
  <path d="M201.167 32.6667 L201.167 27.3333 " fill="none" stroke-width="1.333333" stroke="#000000ff"/>
  <path d="M263.333 32.6667 L263.333 27.3333 " fill="none" stroke-width="1.333333" stroke="#000000ff"/>
  <path d="M325.5 32.6667 L325.5 27.3333 " fill="none" stroke-width="1.333333" stroke="#000000ff"/>
  <path d="M387.667 32.6667 L387.667 27.3333 " fill="none" stroke-width="1.333333" stroke="#000000ff"/>
  <path d="M449.833 32.6667 L449.833 27.3333 " fill="none" stroke-width="1.333333" stroke="#000000ff"/>
  <path d="M512 32.6667 L512 27.3333 " fill="none" stroke-width="1.333333" stroke="#000000ff"/>
  <path d="M574.167 32.6667 L574.167 27.3333 " fill="none" stroke-width="1.333333" stroke="#000000ff"/>
  <path d="M636.333 32.6667 L636.333 27.3333 " fill="none" stroke-width="1.333333" stroke="#000000ff"/>
  <path d="M698.5 32.6667 L698.5 27.3333 " fill="none" stroke-width="1.333333" stroke="#000000ff"/>
  <path d="M760.667 32.6667 L760.667 27.3333 " fill="none" stroke-width="1.333333" stroke="#000000ff"/>
  <path d="M822.833 32.6667 L822.833 27.3333 " fill="none" stroke-width="1.333333" stroke="#000000ff"/>
  <path d="M885 32.6667 L885 27.3333 " fill="none" stroke-width="1.333333" stroke="#000000ff"/>
  <path d="M136.352 54.7333 L136.352 55.7333 L129.258 55.7333 Q129.242 55.3427 129.414 54.9677 Q129.68 54.3583 130.281 53.7724 Q130.883 53.1865 132.008 52.124 Q133.758 50.4677 134.375 49.538 Q134.992 48.6083 134.992 47.7958 Q134.992 46.9208 134.43 46.3271 Q133.867 45.7333 132.977 45.7333 Q132.023 45.7333 131.445 46.2646 Q130.867 46.7958 130.867 47.7333 L129.508 47.7333 Q129.648 46.2646 130.555 45.499 Q131.461 44.7333 132.992 44.7333 Q134.539 44.7333 135.438 45.624 Q136.336 46.5146 136.336 47.8427 Q136.336 48.5146 136.07 49.163 Q135.805 49.8115 135.195 50.5302 Q134.586 51.249 133.164 52.5302 Q131.977 53.5927 131.641 53.9677 Q131.305 54.3427 131.086 54.7333 L136.352 54.7333 Z" fill="#000000" fill-opacity="1.000000"/>
  <path d="M138.32 55.7333 L138.32 54.7333 L139.82 54.7333 L139.82 55.7333 L138.32 55.7333 Z" fill="#000000" fill-opacity="1.000000"/>
  <path d="M141.664 50.2333 Q141.664 48.3271 142.055 47.163 Q142.445 45.999 143.219 45.3661 Q143.992 44.7333 145.164 44.7333 Q146.023 44.7333 146.68 45.0849 Q147.336 45.4365 147.758 46.0927 Q148.18 46.749 148.422 47.6943 Q148.664 48.6396 148.664 50.2333 Q148.664 52.1396 148.273 53.3036 Q147.883 54.4677 147.109 55.1005 Q146.336 55.7333 145.164 55.7333 Q143.617 55.7333 142.727 54.624 Q141.664 53.2646 141.664 50.2333 ZM143.023 50.2333 Q143.023 52.9365 143.641 53.8349 Q144.258 54.7333 145.164 54.7333 Q146.07 54.7333 146.688 53.8349 Q147.305 52.9365 147.305 50.2333 Q147.305 47.5146 146.688 46.624 Q146.07 45.7333 145.148 45.7333 Q144.242 45.7333 143.695 46.5146 Q143.023 47.5302 143.023 50.2333 Z" fill="#000000" fill-opacity="1.000000"/>
  <path d="M191.596 52.7333 L192.924 52.7333 Q193.159 53.7958 193.698 54.2646 Q194.237 54.7333 195.018 54.7333 Q195.956 54.7333 196.596 54.1161 Q197.237 53.499 197.237 52.5927 Q197.237 51.7177 196.643 51.1474 Q196.049 50.5771 195.128 50.5771 Q194.753 50.5771 194.206 50.7333 L194.346 49.7333 Q194.487 49.749 194.565 49.749 Q195.409 49.749 196.081 49.2411 Q196.753 48.7333 196.753 47.6708 Q196.753 46.8427 196.26 46.288 Q195.768 45.7333 194.987 45.7333 Q194.221 45.7333 193.706 46.2333 Q193.19 46.7333 193.049 47.7333 L191.737 47.7333 Q191.971 46.3115 192.831 45.5224 Q193.69 44.7333 194.971 44.7333 Q195.846 44.7333 196.589 45.1396 Q197.331 45.5458 197.721 46.249 Q198.112 46.9521 198.112 47.749 Q198.112 48.499 197.737 49.1161 Q197.362 49.7333 196.628 50.0927 Q197.581 50.2958 198.104 50.9443 Q198.628 51.5927 198.628 52.5771 Q198.628 53.8896 197.604 54.8115 Q196.581 55.7333 195.003 55.7333 Q193.596 55.7333 192.659 54.8974 Q191.721 54.0615 191.596 52.7333 Z" fill="#000000" fill-opacity="1.000000"/>
  <path d="M200.487 55.7333 L200.487 54.7333 L201.987 54.7333 L201.987 55.7333 L200.487 55.7333 Z" fill="#000000" fill-opacity="1.000000"/>
  <path d="M203.831 50.2333 Q203.831 48.3271 204.221 47.163 Q204.612 45.999 205.385 45.3661 Q206.159 44.7333 207.331 44.7333 Q208.19 44.7333 208.846 45.0849 Q209.503 45.4365 209.924 46.0927 Q210.346 46.749 210.589 47.6943 Q210.831 48.6396 210.831 50.2333 Q210.831 52.1396 210.44 53.3036 Q210.049 54.4677 209.276 55.1005 Q208.503 55.7333 207.331 55.7333 Q205.784 55.7333 204.893 54.624 Q203.831 53.2646 203.831 50.2333 ZM205.19 50.2333 Q205.19 52.9365 205.807 53.8349 Q206.424 54.7333 207.331 54.7333 Q208.237 54.7333 208.854 53.8349 Q209.471 52.9365 209.471 50.2333 Q209.471 47.5146 208.854 46.624 Q208.237 45.7333 207.315 45.7333 Q206.409 45.7333 205.862 46.5146 Q205.19 47.5302 205.19 50.2333 Z" fill="#000000" fill-opacity="1.000000"/>
  <path d="M257.982 55.7333 L257.982 52.7333 L253.326 52.7333 L253.326 51.7333 L258.232 44.7333 L259.31 44.7333 L259.31 51.7333 L260.763 51.7333 L260.763 52.7333 L259.31 52.7333 L259.31 55.7333 L257.982 55.7333 ZM257.982 51.7333 L257.982 46.9365 L254.622 51.7333 L257.982 51.7333 Z" fill="#000000" fill-opacity="1.000000"/>
  <path d="M262.654 55.7333 L262.654 54.7333 L264.154 54.7333 L264.154 55.7333 L262.654 55.7333 Z" fill="#000000" fill-opacity="1.000000"/>
  <path d="M265.997 50.2333 Q265.997 48.3271 266.388 47.163 Q266.779 45.999 267.552 45.3661 Q268.326 44.7333 269.497 44.7333 Q270.357 44.7333 271.013 45.0849 Q271.669 45.4365 272.091 46.0927 Q272.513 46.749 272.755 47.6943 Q272.997 48.6396 272.997 50.2333 Q272.997 52.1396 272.607 53.3036 Q272.216 54.4677 271.443 55.1005 Q270.669 55.7333 269.497 55.7333 Q267.951 55.7333 267.06 54.624 Q265.997 53.2646 265.997 50.2333 ZM267.357 50.2333 Q267.357 52.9365 267.974 53.8349 Q268.591 54.7333 269.497 54.7333 Q270.404 54.7333 271.021 53.8349 Q271.638 52.9365 271.638 50.2333 Q271.638 47.5146 271.021 46.624 Q270.404 45.7333 269.482 45.7333 Q268.576 45.7333 268.029 46.5146 Q267.357 47.5302 267.357 50.2333 Z" fill="#000000" fill-opacity="1.000000"/>
  <path d="M315.93 52.7333 L317.305 52.7333 Q317.461 53.7333 318.023 54.2333 Q318.586 54.7333 319.367 54.7333 Q320.32 54.7333 320.984 54.0224 Q321.648 53.3115 321.648 52.1396 Q321.648 51.0302 321.016 50.3818 Q320.383 49.7333 319.352 49.7333 Q318.711 49.7333 318.203 50.0146 Q317.695 50.2958 317.398 50.7333 L316.164 50.7333 L317.195 44.7333 L322.539 44.7333 L322.539 45.7333 L318.258 45.7333 L317.68 49.3115 Q318.648 48.7333 319.711 48.7333 Q321.102 48.7333 322.07 49.6708 Q323.039 50.6083 323.039 52.0615 Q323.039 53.4677 322.195 54.4833 Q321.164 55.7333 319.367 55.7333 Q317.914 55.7333 316.984 54.913 Q316.055 54.0927 315.93 52.7333 Z" fill="#000000" fill-opacity="1.000000"/>
  <path d="M324.82 55.7333 L324.82 54.7333 L326.32 54.7333 L326.32 55.7333 L324.82 55.7333 Z" fill="#000000" fill-opacity="1.000000"/>
  <path d="M328.164 50.2333 Q328.164 48.3271 328.555 47.163 Q328.945 45.999 329.719 45.3661 Q330.492 44.7333 331.664 44.7333 Q332.523 44.7333 333.18 45.0849 Q333.836 45.4365 334.258 46.0927 Q334.68 46.749 334.922 47.6943 Q335.164 48.6396 335.164 50.2333 Q335.164 52.1396 334.773 53.3036 Q334.383 54.4677 333.609 55.1005 Q332.836 55.7333 331.664 55.7333 Q330.117 55.7333 329.227 54.624 Q328.164 53.2646 328.164 50.2333 ZM329.523 50.2333 Q329.523 52.9365 330.141 53.8349 Q330.758 54.7333 331.664 54.7333 Q332.57 54.7333 333.188 53.8349 Q333.805 52.9365 333.805 50.2333 Q333.805 47.5146 333.188 46.624 Q332.57 45.7333 331.648 45.7333 Q330.742 45.7333 330.195 46.5146 Q329.523 47.5302 329.523 50.2333 Z" fill="#000000" fill-opacity="1.000000"/>
  <path d="M384.94 47.7333 L383.628 47.7333 Q383.456 46.8115 383.128 46.4052 Q382.596 45.7333 381.815 45.7333 Q381.174 45.7333 380.706 46.124 Q380.081 46.624 379.721 47.5771 Q379.362 48.5302 379.346 50.1708 Q379.815 49.4365 380.51 49.0849 Q381.206 48.7333 381.956 48.7333 Q383.268 48.7333 384.198 49.6865 Q385.128 50.6396 385.128 52.1396 Q385.128 53.124 384.69 53.9755 Q384.253 54.8271 383.495 55.2802 Q382.737 55.7333 381.768 55.7333 Q380.112 55.7333 379.073 54.5146 Q378.034 53.2958 378.034 50.5146 Q378.034 47.3896 379.19 45.9677 Q380.19 44.7333 381.893 44.7333 Q383.159 44.7333 383.971 45.5302 Q384.784 46.3271 384.94 47.7333 ZM379.549 52.1083 Q379.549 52.7958 379.839 53.4286 Q380.128 54.0615 380.651 54.3974 Q381.174 54.7333 381.737 54.7333 Q382.581 54.7333 383.182 54.0458 Q383.784 53.3583 383.784 52.1708 Q383.784 51.0458 383.19 50.3896 Q382.596 49.7333 381.69 49.7333 Q380.799 49.7333 380.174 50.3896 Q379.549 51.0458 379.549 52.1083 Z" fill="#000000" fill-opacity="1.000000"/>
  <path d="M386.987 55.7333 L386.987 54.7333 L388.487 54.7333 L388.487 55.7333 L386.987 55.7333 Z" fill="#000000" fill-opacity="1.000000"/>
  <path d="M390.331 50.2333 Q390.331 48.3271 390.721 47.163 Q391.112 45.999 391.885 45.3661 Q392.659 44.7333 393.831 44.7333 Q394.69 44.7333 395.346 45.0849 Q396.003 45.4365 396.424 46.0927 Q396.846 46.749 397.089 47.6943 Q397.331 48.6396 397.331 50.2333 Q397.331 52.1396 396.94 53.3036 Q396.549 54.4677 395.776 55.1005 Q395.003 55.7333 393.831 55.7333 Q392.284 55.7333 391.393 54.624 Q390.331 53.2646 390.331 50.2333 ZM391.69 50.2333 Q391.69 52.9365 392.307 53.8349 Q392.924 54.7333 393.831 54.7333 Q394.737 54.7333 395.354 53.8349 Q395.971 52.9365 395.971 50.2333 Q395.971 47.5146 395.354 46.624 Q394.737 45.7333 393.815 45.7333 Q392.909 45.7333 392.362 46.5146 Q391.69 47.5302 391.69 50.2333 Z" fill="#000000" fill-opacity="1.000000"/>
  <path d="M440.341 45.7333 L440.341 44.7333 L447.294 44.7333 L447.294 45.5458 Q446.279 46.6396 445.271 48.5771 Q444.263 50.5146 443.701 52.5615 Q443.31 54.0146 443.201 55.7333 L441.857 55.7333 Q441.872 54.374 442.349 52.4521 Q442.826 50.5302 443.716 48.7411 Q444.607 46.9521 445.607 45.7333 L440.341 45.7333 Z" fill="#000000" fill-opacity="1.000000"/>
  <path d="M449.154 55.7333 L449.154 54.7333 L450.654 54.7333 L450.654 55.7333 L449.154 55.7333 Z" fill="#000000" fill-opacity="1.000000"/>
  <path d="M452.497 50.2333 Q452.497 48.3271 452.888 47.163 Q453.279 45.999 454.052 45.3661 Q454.826 44.7333 455.997 44.7333 Q456.857 44.7333 457.513 45.0849 Q458.169 45.4365 458.591 46.0927 Q459.013 46.749 459.255 47.6943 Q459.497 48.6396 459.497 50.2333 Q459.497 52.1396 459.107 53.3036 Q458.716 54.4677 457.943 55.1005 Q457.169 55.7333 455.997 55.7333 Q454.451 55.7333 453.56 54.624 Q452.497 53.2646 452.497 50.2333 ZM453.857 50.2333 Q453.857 52.9365 454.474 53.8349 Q455.091 54.7333 455.997 54.7333 Q456.904 54.7333 457.521 53.8349 Q458.138 52.9365 458.138 50.2333 Q458.138 47.5146 457.521 46.624 Q456.904 45.7333 455.982 45.7333 Q455.076 45.7333 454.529 46.5146 Q453.857 47.5302 453.857 50.2333 Z" fill="#000000" fill-opacity="1.000000"/>
  <path d="M504.461 50.2021 Q503.648 49.874 503.25 49.2568 Q502.852 48.6396 502.852 47.7802 Q502.852 46.499 503.695 45.6161 Q504.539 44.7333 505.93 44.7333 Q507.336 44.7333 508.195 45.6318 Q509.055 46.5302 509.055 47.8271 Q509.055 48.6552 508.656 49.2646 Q508.258 49.874 507.461 50.2021 Q508.461 50.499 508.977 51.163 Q509.492 51.8271 509.492 52.7333 Q509.492 53.999 508.516 54.8661 Q507.539 55.7333 505.961 55.7333 Q504.367 55.7333 503.391 54.8661 Q502.414 53.999 502.414 52.7021 Q502.414 51.7333 502.945 51.0849 Q503.477 50.4365 504.461 50.2021 ZM504.195 47.6865 Q504.195 48.5927 504.688 49.163 Q505.18 49.7333 505.961 49.7333 Q506.727 49.7333 507.211 49.163 Q507.695 48.5927 507.695 47.7646 Q507.695 46.9052 507.195 46.3193 Q506.695 45.7333 505.945 45.7333 Q505.195 45.7333 504.695 46.3036 Q504.195 46.874 504.195 47.6865 ZM503.773 52.7177 Q503.773 53.2333 504.039 53.7177 Q504.305 54.2021 504.828 54.4677 Q505.352 54.7333 505.961 54.7333 Q506.898 54.7333 507.516 54.1708 Q508.133 53.6083 508.133 52.749 Q508.133 51.874 507.5 51.3036 Q506.867 50.7333 505.914 50.7333 Q504.992 50.7333 504.383 51.2958 Q503.773 51.8583 503.773 52.7177 Z" fill="#000000" fill-opacity="1.000000"/>
  <path d="M511.32 55.7333 L511.32 54.7333 L512.82 54.7333 L512.82 55.7333 L511.32 55.7333 Z" fill="#000000" fill-opacity="1.000000"/>
  <path d="M514.664 50.2333 Q514.664 48.3271 515.055 47.163 Q515.445 45.999 516.219 45.3661 Q516.992 44.7333 518.164 44.7333 Q519.023 44.7333 519.68 45.0849 Q520.336 45.4365 520.758 46.0927 Q521.18 46.749 521.422 47.6943 Q521.664 48.6396 521.664 50.2333 Q521.664 52.1396 521.273 53.3036 Q520.883 54.4677 520.109 55.1005 Q519.336 55.7333 518.164 55.7333 Q516.617 55.7333 515.727 54.624 Q514.664 53.2646 514.664 50.2333 ZM516.023 50.2333 Q516.023 52.9365 516.641 53.8349 Q517.258 54.7333 518.164 54.7333 Q519.07 54.7333 519.688 53.8349 Q520.305 52.9365 520.305 50.2333 Q520.305 47.5146 519.688 46.624 Q519.07 45.7333 518.148 45.7333 Q517.242 45.7333 516.695 46.5146 Q516.023 47.5302 516.023 50.2333 Z" fill="#000000" fill-opacity="1.000000"/>
  <path d="M564.799 52.7333 L566.065 52.7333 Q566.221 53.7802 566.674 54.2568 Q567.128 54.7333 567.846 54.7333 Q568.44 54.7333 568.901 54.4286 Q569.362 54.124 569.651 53.6161 Q569.94 53.1083 570.143 52.2568 Q570.346 51.4052 570.346 50.5771 Q570.346 50.499 570.331 50.3271 Q569.94 50.9521 569.253 51.3427 Q568.565 51.7333 567.768 51.7333 Q566.44 51.7333 565.518 50.788 Q564.596 49.8427 564.596 48.2802 Q564.596 46.6865 565.557 45.7099 Q566.518 44.7333 567.971 44.7333 Q569.018 44.7333 569.885 45.2958 Q570.753 45.8583 571.206 46.9052 Q571.659 47.9521 571.659 49.9365 Q571.659 52.0146 571.214 53.2333 Q570.768 54.4521 569.885 55.0927 Q569.003 55.7333 567.815 55.7333 Q566.549 55.7333 565.753 54.9443 Q564.956 54.1552 564.799 52.7333 ZM570.19 48.2646 Q570.19 47.0927 569.589 46.413 Q568.987 45.7333 568.128 45.7333 Q567.253 45.7333 566.604 46.4677 Q565.956 47.2021 565.956 48.374 Q565.956 49.4208 566.573 50.0771 Q567.19 50.7333 568.096 50.7333 Q569.018 50.7333 569.604 50.0771 Q570.19 49.4208 570.19 48.2646 Z" fill="#000000" fill-opacity="1.000000"/>
  <path d="M573.487 55.7333 L573.487 54.7333 L574.987 54.7333 L574.987 55.7333 L573.487 55.7333 Z" fill="#000000" fill-opacity="1.000000"/>
  <path d="M576.831 50.2333 Q576.831 48.3271 577.221 47.163 Q577.612 45.999 578.385 45.3661 Q579.159 44.7333 580.331 44.7333 Q581.19 44.7333 581.846 45.0849 Q582.503 45.4365 582.924 46.0927 Q583.346 46.749 583.589 47.6943 Q583.831 48.6396 583.831 50.2333 Q583.831 52.1396 583.44 53.3036 Q583.049 54.4677 582.276 55.1005 Q581.503 55.7333 580.331 55.7333 Q578.784 55.7333 577.893 54.624 Q576.831 53.2646 576.831 50.2333 ZM578.19 50.2333 Q578.19 52.9365 578.807 53.8349 Q579.424 54.7333 580.331 54.7333 Q581.237 54.7333 581.854 53.8349 Q582.471 52.9365 582.471 50.2333 Q582.471 47.5146 581.854 46.624 Q581.237 45.7333 580.315 45.7333 Q579.409 45.7333 578.862 46.5146 Q578.19 47.5302 578.19 50.2333 Z" fill="#000000" fill-opacity="1.000000"/>
  <path d="M627.654 55.7333 L626.326 55.7333 L626.326 47.1552 Q625.857 47.624 625.083 48.0849 Q624.31 48.5458 623.701 48.7802 L623.701 47.4833 Q624.81 46.9521 625.63 46.1943 Q626.451 45.4365 626.794 44.7333 L627.654 44.7333 L627.654 55.7333 Z" fill="#000000" fill-opacity="1.000000"/>
  <path d="M630.841 50.2333 Q630.841 48.3271 631.232 47.163 Q631.622 45.999 632.396 45.3661 Q633.169 44.7333 634.341 44.7333 Q635.201 44.7333 635.857 45.0849 Q636.513 45.4365 636.935 46.0927 Q637.357 46.749 637.599 47.6943 Q637.841 48.6396 637.841 50.2333 Q637.841 52.1396 637.451 53.3036 Q637.06 54.4677 636.286 55.1005 Q635.513 55.7333 634.341 55.7333 Q632.794 55.7333 631.904 54.624 Q630.841 53.2646 630.841 50.2333 ZM632.201 50.2333 Q632.201 52.9365 632.818 53.8349 Q633.435 54.7333 634.341 54.7333 Q635.247 54.7333 635.865 53.8349 Q636.482 52.9365 636.482 50.2333 Q636.482 47.5146 635.865 46.624 Q635.247 45.7333 634.326 45.7333 Q633.419 45.7333 632.872 46.5146 Q632.201 47.5302 632.201 50.2333 Z" fill="#000000" fill-opacity="1.000000"/>
  <path d="M639.732 55.7333 L639.732 54.7333 L641.232 54.7333 L641.232 55.7333 L639.732 55.7333 Z" fill="#000000" fill-opacity="1.000000"/>
  <path d="M643.076 50.2333 Q643.076 48.3271 643.466 47.163 Q643.857 45.999 644.63 45.3661 Q645.404 44.7333 646.576 44.7333 Q647.435 44.7333 648.091 45.0849 Q648.747 45.4365 649.169 46.0927 Q649.591 46.749 649.833 47.6943 Q650.076 48.6396 650.076 50.2333 Q650.076 52.1396 649.685 53.3036 Q649.294 54.4677 648.521 55.1005 Q647.747 55.7333 646.576 55.7333 Q645.029 55.7333 644.138 54.624 Q643.076 53.2646 643.076 50.2333 ZM644.435 50.2333 Q644.435 52.9365 645.052 53.8349 Q645.669 54.7333 646.576 54.7333 Q647.482 54.7333 648.099 53.8349 Q648.716 52.9365 648.716 50.2333 Q648.716 47.5146 648.099 46.624 Q647.482 45.7333 646.56 45.7333 Q645.654 45.7333 645.107 46.5146 Q644.435 47.5302 644.435 50.2333 Z" fill="#000000" fill-opacity="1.000000"/>
  <path d="M690.367 55.7333 L689.039 55.7333 L689.039 47.1552 Q688.57 47.624 687.797 48.0849 Q687.023 48.5458 686.414 48.7802 L686.414 47.4833 Q687.523 46.9521 688.344 46.1943 Q689.164 45.4365 689.508 44.7333 L690.367 44.7333 L690.367 55.7333 Z" fill="#000000" fill-opacity="1.000000"/>
  <path d="M697.977 55.7333 L696.648 55.7333 L696.648 47.1552 Q696.18 47.624 695.406 48.0849 Q694.633 48.5458 694.023 48.7802 L694.023 47.4833 Q695.133 46.9521 695.953 46.1943 Q696.773 45.4365 697.117 44.7333 L697.977 44.7333 L697.977 55.7333 Z" fill="#000000" fill-opacity="1.000000"/>
  <path d="M701.352 55.7333 L701.352 54.7333 L702.852 54.7333 L702.852 55.7333 L701.352 55.7333 Z" fill="#000000" fill-opacity="1.000000"/>
  <path d="M704.695 50.2333 Q704.695 48.3271 705.086 47.163 Q705.477 45.999 706.25 45.3661 Q707.023 44.7333 708.195 44.7333 Q709.055 44.7333 709.711 45.0849 Q710.367 45.4365 710.789 46.0927 Q711.211 46.749 711.453 47.6943 Q711.695 48.6396 711.695 50.2333 Q711.695 52.1396 711.305 53.3036 Q710.914 54.4677 710.141 55.1005 Q709.367 55.7333 708.195 55.7333 Q706.648 55.7333 705.758 54.624 Q704.695 53.2646 704.695 50.2333 ZM706.055 50.2333 Q706.055 52.9365 706.672 53.8349 Q707.289 54.7333 708.195 54.7333 Q709.102 54.7333 709.719 53.8349 Q710.336 52.9365 710.336 50.2333 Q710.336 47.5146 709.719 46.624 Q709.102 45.7333 708.18 45.7333 Q707.273 45.7333 706.727 46.5146 Q706.055 47.5302 706.055 50.2333 Z" fill="#000000" fill-opacity="1.000000"/>
  <path d="M751.987 55.7333 L750.659 55.7333 L750.659 47.1552 Q750.19 47.624 749.417 48.0849 Q748.643 48.5458 748.034 48.7802 L748.034 47.4833 Q749.143 46.9521 749.964 46.1943 Q750.784 45.4365 751.128 44.7333 L751.987 44.7333 L751.987 55.7333 Z" fill="#000000" fill-opacity="1.000000"/>
  <path d="M762.096 54.7333 L762.096 55.7333 L755.003 55.7333 Q754.987 55.3427 755.159 54.9677 Q755.424 54.3583 756.026 53.7724 Q756.628 53.1865 757.753 52.124 Q759.503 50.4677 760.12 49.538 Q760.737 48.6083 760.737 47.7958 Q760.737 46.9208 760.174 46.3271 Q759.612 45.7333 758.721 45.7333 Q757.768 45.7333 757.19 46.2646 Q756.612 46.7958 756.612 47.7333 L755.253 47.7333 Q755.393 46.2646 756.299 45.499 Q757.206 44.7333 758.737 44.7333 Q760.284 44.7333 761.182 45.624 Q762.081 46.5146 762.081 47.8427 Q762.081 48.5146 761.815 49.163 Q761.549 49.8115 760.94 50.5302 Q760.331 51.249 758.909 52.5302 Q757.721 53.5927 757.385 53.9677 Q757.049 54.3427 756.831 54.7333 L762.096 54.7333 Z" fill="#000000" fill-opacity="1.000000"/>
  <path d="M764.065 55.7333 L764.065 54.7333 L765.565 54.7333 L765.565 55.7333 L764.065 55.7333 Z" fill="#000000" fill-opacity="1.000000"/>
  <path d="M767.409 50.2333 Q767.409 48.3271 767.799 47.163 Q768.19 45.999 768.964 45.3661 Q769.737 44.7333 770.909 44.7333 Q771.768 44.7333 772.424 45.0849 Q773.081 45.4365 773.503 46.0927 Q773.924 46.749 774.167 47.6943 Q774.409 48.6396 774.409 50.2333 Q774.409 52.1396 774.018 53.3036 Q773.628 54.4677 772.854 55.1005 Q772.081 55.7333 770.909 55.7333 Q769.362 55.7333 768.471 54.624 Q767.409 53.2646 767.409 50.2333 ZM768.768 50.2333 Q768.768 52.9365 769.385 53.8349 Q770.003 54.7333 770.909 54.7333 Q771.815 54.7333 772.432 53.8349 Q773.049 52.9365 773.049 50.2333 Q773.049 47.5146 772.432 46.624 Q771.815 45.7333 770.893 45.7333 Q769.987 45.7333 769.44 46.5146 Q768.768 47.5302 768.768 50.2333 Z" fill="#000000" fill-opacity="1.000000"/>
  <path d="M814.154 55.7333 L812.826 55.7333 L812.826 47.1552 Q812.357 47.624 811.583 48.0849 Q810.81 48.5458 810.201 48.7802 L810.201 47.4833 Q811.31 46.9521 812.13 46.1943 Q812.951 45.4365 813.294 44.7333 L814.154 44.7333 L814.154 55.7333 Z" fill="#000000" fill-opacity="1.000000"/>
  <path d="M817.341 52.7333 L818.669 52.7333 Q818.904 53.7958 819.443 54.2646 Q819.982 54.7333 820.763 54.7333 Q821.701 54.7333 822.341 54.1161 Q822.982 53.499 822.982 52.5927 Q822.982 51.7177 822.388 51.1474 Q821.794 50.5771 820.872 50.5771 Q820.497 50.5771 819.951 50.7333 L820.091 49.7333 Q820.232 49.749 820.31 49.749 Q821.154 49.749 821.826 49.2411 Q822.497 48.7333 822.497 47.6708 Q822.497 46.8427 822.005 46.288 Q821.513 45.7333 820.732 45.7333 Q819.966 45.7333 819.451 46.2333 Q818.935 46.7333 818.794 47.7333 L817.482 47.7333 Q817.716 46.3115 818.576 45.5224 Q819.435 44.7333 820.716 44.7333 Q821.591 44.7333 822.333 45.1396 Q823.076 45.5458 823.466 46.249 Q823.857 46.9521 823.857 47.749 Q823.857 48.499 823.482 49.1161 Q823.107 49.7333 822.372 50.0927 Q823.326 50.2958 823.849 50.9443 Q824.372 51.5927 824.372 52.5771 Q824.372 53.8896 823.349 54.8115 Q822.326 55.7333 820.747 55.7333 Q819.341 55.7333 818.404 54.8974 Q817.466 54.0615 817.341 52.7333 Z" fill="#000000" fill-opacity="1.000000"/>
  <path d="M826.232 55.7333 L826.232 54.7333 L827.732 54.7333 L827.732 55.7333 L826.232 55.7333 Z" fill="#000000" fill-opacity="1.000000"/>
  <path d="M829.576 50.2333 Q829.576 48.3271 829.966 47.163 Q830.357 45.999 831.13 45.3661 Q831.904 44.7333 833.076 44.7333 Q833.935 44.7333 834.591 45.0849 Q835.247 45.4365 835.669 46.0927 Q836.091 46.749 836.333 47.6943 Q836.576 48.6396 836.576 50.2333 Q836.576 52.1396 836.185 53.3036 Q835.794 54.4677 835.021 55.1005 Q834.247 55.7333 833.076 55.7333 Q831.529 55.7333 830.638 54.624 Q829.576 53.2646 829.576 50.2333 ZM830.935 50.2333 Q830.935 52.9365 831.552 53.8349 Q832.169 54.7333 833.076 54.7333 Q833.982 54.7333 834.599 53.8349 Q835.216 52.9365 835.216 50.2333 Q835.216 47.5146 834.599 46.624 Q833.982 45.7333 833.06 45.7333 Q832.154 45.7333 831.607 46.5146 Q830.935 47.5302 830.935 50.2333 Z" fill="#000000" fill-opacity="1.000000"/>
  <path d="M876.32 55.7333 L874.992 55.7333 L874.992 47.1552 Q874.523 47.624 873.75 48.0849 Q872.977 48.5458 872.367 48.7802 L872.367 47.4833 Q873.477 46.9521 874.297 46.1943 Q875.117 45.4365 875.461 44.7333 L876.32 44.7333 L876.32 55.7333 Z" fill="#000000" fill-opacity="1.000000"/>
  <path d="M883.727 55.7333 L883.727 52.7333 L879.07 52.7333 L879.07 51.7333 L883.977 44.7333 L885.055 44.7333 L885.055 51.7333 L886.508 51.7333 L886.508 52.7333 L885.055 52.7333 L885.055 55.7333 L883.727 55.7333 ZM883.727 51.7333 L883.727 46.9365 L880.367 51.7333 L883.727 51.7333 Z" fill="#000000" fill-opacity="1.000000"/>
  <path d="M888.398 55.7333 L888.398 54.7333 L889.898 54.7333 L889.898 55.7333 L888.398 55.7333 Z" fill="#000000" fill-opacity="1.000000"/>
  <path d="M891.742 50.2333 Q891.742 48.3271 892.133 47.163 Q892.523 45.999 893.297 45.3661 Q894.07 44.7333 895.242 44.7333 Q896.102 44.7333 896.758 45.0849 Q897.414 45.4365 897.836 46.0927 Q898.258 46.749 898.5 47.6943 Q898.742 48.6396 898.742 50.2333 Q898.742 52.1396 898.352 53.3036 Q897.961 54.4677 897.187 55.1005 Q896.414 55.7333 895.242 55.7333 Q893.695 55.7333 892.805 54.624 Q891.742 53.2646 891.742 50.2333 ZM893.102 50.2333 Q893.102 52.9365 893.719 53.8349 Q894.336 54.7333 895.242 54.7333 Q896.148 54.7333 896.766 53.8349 Q897.383 52.9365 897.383 50.2333 Q897.383 47.5146 896.766 46.624 Q896.148 45.7333 895.227 45.7333 Q894.32 45.7333 893.773 46.5146 Q893.102 47.5302 893.102 50.2333 Z" fill="#000000" fill-opacity="1.000000"/>
</svg>