<?xml version="1.0" encoding="UTF-8" ?>
<!-- Generated by clip v0.8.0 (clip-lang.org) -->
<svg xmlns="http://www.w3.org/2000/svg" width="1024" height="60">
  <rect width="1024" height="60" fill="#ffffff" fill-opacity="1"/>
  <path d="M14.667 30 L1009.333 30" fill="none" stroke="#000000" stroke-width="1.333"/>
  <path d="M14.667 32.667 L14.667 27.333" fill="none" stroke="#000000" stroke-width="1.333"/>
  <path d="M180.444 32.667 L180.444 27.333" fill="none" stroke="#000000" stroke-width="1.333"/>
  <path d="M346.222 32.667 L346.222 27.333" fill="none" stroke="#000000" stroke-width="1.333"/>
  <path d="M512 32.667 L512 27.333" fill="none" stroke="#000000" stroke-width="1.333"/>
  <path d="M677.778 32.667 L677.778 27.333" fill="none" stroke="#000000" stroke-width="1.333"/>
  <path d="M843.556 32.667 L843.556 27.333" fill="none" stroke="#000000" stroke-width="1.333"/>
  <path d="M1009.333 32.667 L1009.333 27.333" fill="none" stroke="#000000" stroke-width="1.333"/>
  <path d="M92.649 55.733 L96.774 44.733 L98.290 44.733 L102.696 55.733 L101.071 55.733 L99.821 52.733 L95.337 52.733 L94.149 55.733 L92.649 55.733 Z M95.743 51.733 L99.384 51.733 L98.259 48.296 Q97.743 46.936 97.493 45.733 Q97.290 47.077 96.915 48.108 L95.743 51.733 Z"/>
  <path d="M259.536 55.733 L259.536 44.733 L263.568 44.733 Q264.802 44.733 265.544 45.061 Q266.286 45.390 266.708 46.061 Q267.130 46.733 267.130 47.468 Q267.130 48.155 266.755 48.757 Q266.380 49.358 265.630 49.733 Q266.599 50.030 267.122 50.757 Q267.646 51.483 267.646 52.468 Q267.646 53.249 267.326 53.936 Q267.005 54.624 266.536 54.991 Q266.068 55.358 265.365 55.546 Q264.661 55.733 263.630 55.733 L259.536 55.733 Z M260.958 49.733 L263.286 49.733 Q264.224 49.733 264.630 49.577 Q265.177 49.374 265.451 48.913 Q265.724 48.452 265.724 47.765 Q265.724 47.108 265.466 46.608 Q265.208 46.108 264.732 45.921 Q264.255 45.733 263.099 45.733 L260.958 45.733 L260.958 49.733 Z M260.958 54.733 L263.630 54.733 Q264.318 54.733 264.599 54.671 Q265.099 54.577 265.427 54.358 Q265.755 54.140 265.966 53.718 Q266.177 53.296 266.177 52.733 Q266.177 52.077 265.872 51.601 Q265.568 51.124 265.021 50.929 Q264.474 50.733 263.443 50.733 L260.958 50.733 L260.958 54.733 Z"/>
  <path d="M432.627 51.905 L434.049 52.265 Q433.595 53.952 432.439 54.843 Q431.283 55.733 429.611 55.733 Q427.877 55.733 426.791 55.030 Q425.705 54.327 425.135 52.999 Q424.564 51.671 424.564 50.155 Q424.564 48.499 425.205 47.257 Q425.845 46.015 427.033 45.374 Q428.220 44.733 429.627 44.733 Q431.252 44.733 432.345 45.515 Q433.439 46.296 433.877 47.718 L432.470 48.061 Q432.095 46.843 431.385 46.288 Q430.674 45.733 429.595 45.733 Q428.361 45.733 427.533 46.351 Q426.705 46.968 426.369 48.007 Q426.033 49.046 426.033 50.140 Q426.033 51.561 426.431 52.624 Q426.830 53.686 427.674 54.210 Q428.517 54.733 429.486 54.733 Q430.689 54.733 431.510 54.022 Q432.330 53.311 432.627 51.905 Z"/>
  <path d="M590.748 55.733 L590.748 44.733 L594.451 44.733 Q595.701 44.733 596.358 44.890 Q597.280 45.108 597.936 45.671 Q598.780 46.421 599.201 47.561 Q599.623 48.702 599.623 50.171 Q599.623 51.421 599.334 52.390 Q599.045 53.358 598.600 53.991 Q598.155 54.624 597.623 54.991 Q597.092 55.358 596.342 55.546 Q595.592 55.733 594.623 55.733 L590.748 55.733 Z M592.170 54.733 L594.467 54.733 Q595.514 54.733 596.123 54.515 Q596.733 54.296 597.092 53.905 Q597.592 53.358 597.873 52.421 Q598.155 51.483 598.155 50.140 Q598.155 48.296 597.600 47.304 Q597.045 46.311 596.264 45.968 Q595.686 45.733 594.420 45.733 L592.170 45.733 L592.170 54.733 Z"/>
  <path d="M756.964 55.733 L756.964 44.733 L764.729 44.733 L764.729 45.733 L758.385 45.733 L758.385 49.733 L764.323 49.733 L764.323 50.733 L758.385 50.733 L758.385 54.733 L764.979 54.733 L764.979 55.733 L756.964 55.733 Z"/>
  <path d="M923.194 55.733 L923.194 44.733 L930.429 44.733 L930.429 45.733 L924.616 45.733 L924.616 49.733 L929.648 49.733 L929.648 50.733 L924.616 50.733 L924.616 55.733 L923.194 55.733 Z"/>
</svg>
