<?xml version="1.0" encoding="UTF-8" ?>
<!-- Generated by clip v0.8.0 (clip-lang.org) -->
<svg xmlns="http://www.w3.org/2000/svg" width="1024" height="60">
  <rect width="1024" height="60" fill="#ffffff" fill-opacity="1"/>
  <path d="M14.667 30 L1009.333 30" fill="none" stroke="#000000" stroke-width="1.333"/>
  <path d="M1009.333 32.667 L1009.333 27.333" fill="none" stroke="#000000" stroke-width="1.333"/>
  <path d="M943.022 32.667 L943.022 27.333" fill="none" stroke="#000000" stroke-width="1.333"/>
  <path d="M876.711 32.667 L876.711 27.333" fill="none" stroke="#000000" stroke-width="1.333"/>
  <path d="M810.400 32.667 L810.400 27.333" fill="none" stroke="#000000" stroke-width="1.333"/>
  <path d="M744.089 32.667 L744.089 27.333" fill="none" stroke="#000000" stroke-width="1.333"/>
  <path d="M677.778 32.667 L677.778 27.333" fill="none" stroke="#000000" stroke-width="1.333"/>
  <path d="M611.467 32.667 L611.467 27.333" fill="none" stroke="#000000" stroke-width="1.333"/>
  <path d="M545.156 32.667 L545.156 27.333" fill="none" stroke="#000000" stroke-width="1.333"/>
  <path d="M478.844 32.667 L478.844 27.333" fill="none" stroke="#000000" stroke-width="1.333"/>
  <path d="M412.533 32.667 L412.533 27.333" fill="none" stroke="#000000" stroke-width="1.333"/>
  <path d="M346.222 32.667 L346.222 27.333" fill="none" stroke="#000000" stroke-width="1.333"/>
  <path d="M279.911 32.667 L279.911 27.333" fill="none" stroke="#000000" stroke-width="1.333"/>
  <path d="M213.600 32.667 L213.600 27.333" fill="none" stroke="#000000" stroke-width="1.333"/>
  <path d="M147.289 32.667 L147.289 27.333" fill="none" stroke="#000000" stroke-width="1.333"/>
  <path d="M80.978 32.667 L80.978 27.333" fill="none" stroke="#000000" stroke-width="1.333"/>
  <path d="M14.667 32.667 L14.667 27.333" fill="none" stroke="#000000" stroke-width="1.333"/>
  <path d="M1004.732 55.733 L1003.404 55.733 L1003.404 47.155 Q1002.935 47.624 1002.161 48.085 Q1001.388 48.546 1000.779 48.780 L1000.779 47.483 Q1001.888 46.952 1002.708 46.194 Q1003.529 45.436 1003.872 44.733 L1004.732 44.733 L1004.732 55.733 Z"/>
  <path d="M1008.654 55.733 L1008.654 54.733 L1010.154 54.733 L1010.154 55.733 L1008.654 55.733 Z"/>
  <path d="M1011.997 50.233 Q1011.997 48.327 1012.388 47.163 Q1012.779 45.999 1013.552 45.366 Q1014.326 44.733 1015.497 44.733 Q1016.357 44.733 1017.013 45.085 Q1017.669 45.436 1018.091 46.093 Q1018.513 46.749 1018.755 47.694 Q1018.997 48.640 1018.997 50.233 Q1018.997 52.140 1018.607 53.304 Q1018.216 54.468 1017.443 55.101 Q1016.669 55.733 1015.497 55.733 Q1013.951 55.733 1013.060 54.624 Q1011.997 53.265 1011.997 50.233 Z M1013.357 50.233 Q1013.357 52.936 1013.974 53.835 Q1014.591 54.733 1015.497 54.733 Q1016.404 54.733 1017.021 53.835 Q1017.638 52.936 1017.638 50.233 Q1017.638 47.515 1017.021 46.624 Q1016.404 45.733 1015.482 45.733 Q1014.576 45.733 1014.029 46.515 Q1013.357 47.530 1013.357 50.233 Z"/>
  <path d="M940.374 54.733 L940.374 55.733 L933.280 55.733 Q933.264 55.343 933.436 54.968 Q933.702 54.358 934.303 53.772 Q934.905 53.186 936.030 52.124 Q937.780 50.468 938.397 49.538 Q939.014 48.608 939.014 47.796 Q939.014 46.921 938.452 46.327 Q937.889 45.733 936.999 45.733 Q936.046 45.733 935.468 46.265 Q934.889 46.796 934.889 47.733 L933.530 47.733 Q933.671 46.265 934.577 45.499 Q935.483 44.733 937.014 44.733 Q938.561 44.733 939.460 45.624 Q940.358 46.515 940.358 47.843 Q940.358 48.515 940.093 49.163 Q939.827 49.811 939.218 50.530 Q938.608 51.249 937.186 52.530 Q935.999 53.593 935.663 53.968 Q935.327 54.343 935.108 54.733 L940.374 54.733 Z"/>
  <path d="M942.343 55.733 L942.343 54.733 L943.843 54.733 L943.843 55.733 L942.343 55.733 Z"/>
  <path d="M945.686 50.233 Q945.686 48.327 946.077 47.163 Q946.468 45.999 947.241 45.366 Q948.014 44.733 949.186 44.733 Q950.046 44.733 950.702 45.085 Q951.358 45.436 951.780 46.093 Q952.202 46.749 952.444 47.694 Q952.686 48.640 952.686 50.233 Q952.686 52.140 952.296 53.304 Q951.905 54.468 951.132 55.101 Q950.358 55.733 949.186 55.733 Q947.639 55.733 946.749 54.624 Q945.686 53.265 945.686 50.233 Z M947.046 50.233 Q947.046 52.936 947.663 53.835 Q948.280 54.733 949.186 54.733 Q950.093 54.733 950.710 53.835 Q951.327 52.936 951.327 50.233 Q951.327 47.515 950.710 46.624 Q950.093 45.733 949.171 45.733 Q948.264 45.733 947.718 46.515 Q947.046 47.530 947.046 50.233 Z"/>
  <path d="M867.141 52.733 L868.469 52.733 Q868.703 53.796 869.242 54.265 Q869.781 54.733 870.563 54.733 Q871.500 54.733 872.141 54.116 Q872.781 53.499 872.781 52.593 Q872.781 51.718 872.188 51.147 Q871.594 50.577 870.672 50.577 Q870.297 50.577 869.750 50.733 L869.891 49.733 Q870.031 49.749 870.110 49.749 Q870.953 49.749 871.625 49.241 Q872.297 48.733 872.297 47.671 Q872.297 46.843 871.805 46.288 Q871.313 45.733 870.531 45.733 Q869.766 45.733 869.250 46.233 Q868.735 46.733 868.594 47.733 L867.281 47.733 Q867.516 46.311 868.375 45.522 Q869.235 44.733 870.516 44.733 Q871.391 44.733 872.133 45.140 Q872.875 45.546 873.266 46.249 Q873.656 46.952 873.656 47.749 Q873.656 48.499 873.281 49.116 Q872.906 49.733 872.172 50.093 Q873.125 50.296 873.649 50.944 Q874.172 51.593 874.172 52.577 Q874.172 53.890 873.149 54.811 Q872.125 55.733 870.547 55.733 Q869.141 55.733 868.203 54.897 Q867.266 54.061 867.141 52.733 Z"/>
  <path d="M876.031 55.733 L876.031 54.733 L877.531 54.733 L877.531 55.733 L876.031 55.733 Z"/>
  <path d="M879.375 50.233 Q879.375 48.327 879.766 47.163 Q880.156 45.999 880.930 45.366 Q881.703 44.733 882.875 44.733 Q883.735 44.733 884.391 45.085 Q885.047 45.436 885.469 46.093 Q885.891 46.749 886.133 47.694 Q886.375 48.640 886.375 50.233 Q886.375 52.140 885.985 53.304 Q885.594 54.468 884.820 55.101 Q884.047 55.733 882.875 55.733 Q881.328 55.733 880.438 54.624 Q879.375 53.265 879.375 50.233 Z M880.735 50.233 Q880.735 52.936 881.352 53.835 Q881.969 54.733 882.875 54.733 Q883.781 54.733 884.399 53.835 Q885.016 52.936 885.016 50.233 Q885.016 47.515 884.399 46.624 Q883.781 45.733 882.860 45.733 Q881.953 45.733 881.406 46.515 Q880.735 47.530 880.735 50.233 Z"/>
  <path d="M805.048 55.733 L805.048 52.733 L800.392 52.733 L800.392 51.733 L805.298 44.733 L806.377 44.733 L806.377 51.733 L807.830 51.733 L807.830 52.733 L806.377 52.733 L806.377 55.733 L805.048 55.733 Z M805.048 51.733 L805.048 46.936 L801.689 51.733 L805.048 51.733 Z"/>
  <path d="M809.720 55.733 L809.720 54.733 L811.220 54.733 L811.220 55.733 L809.720 55.733 Z"/>
  <path d="M813.064 50.233 Q813.064 48.327 813.455 47.163 Q813.845 45.999 814.619 45.366 Q815.392 44.733 816.564 44.733 Q817.423 44.733 818.080 45.085 Q818.736 45.436 819.158 46.093 Q819.580 46.749 819.822 47.694 Q820.064 48.640 820.064 50.233 Q820.064 52.140 819.673 53.304 Q819.283 54.468 818.509 55.101 Q817.736 55.733 816.564 55.733 Q815.017 55.733 814.127 54.624 Q813.064 53.265 813.064 50.233 Z M814.423 50.233 Q814.423 52.936 815.041 53.835 Q815.658 54.733 816.564 54.733 Q817.470 54.733 818.087 53.835 Q818.705 52.936 818.705 50.233 Q818.705 47.515 818.087 46.624 Q817.470 45.733 816.548 45.733 Q815.642 45.733 815.095 46.515 Q814.423 47.530 814.423 50.233 Z"/>
  <path d="M734.519 52.733 L735.894 52.733 Q736.050 53.733 736.612 54.233 Q737.175 54.733 737.956 54.733 Q738.909 54.733 739.573 54.022 Q740.237 53.311 740.237 52.140 Q740.237 51.030 739.605 50.382 Q738.972 49.733 737.940 49.733 Q737.300 49.733 736.792 50.015 Q736.284 50.296 735.987 50.733 L734.753 50.733 L735.784 44.733 L741.128 44.733 L741.128 45.733 L736.847 45.733 L736.269 49.311 Q737.237 48.733 738.300 48.733 Q739.690 48.733 740.659 49.671 Q741.628 50.608 741.628 52.061 Q741.628 53.468 740.784 54.483 Q739.753 55.733 737.956 55.733 Q736.503 55.733 735.573 54.913 Q734.644 54.093 734.519 52.733 Z"/>
  <path d="M743.409 55.733 L743.409 54.733 L744.909 54.733 L744.909 55.733 L743.409 55.733 Z"/>
  <path d="M746.753 50.233 Q746.753 48.327 747.144 47.163 Q747.534 45.999 748.308 45.366 Q749.081 44.733 750.253 44.733 Q751.112 44.733 751.769 45.085 Q752.425 45.436 752.847 46.093 Q753.269 46.749 753.511 47.694 Q753.753 48.640 753.753 50.233 Q753.753 52.140 753.362 53.304 Q752.972 54.468 752.198 55.101 Q751.425 55.733 750.253 55.733 Q748.706 55.733 747.815 54.624 Q746.753 53.265 746.753 50.233 Z M748.112 50.233 Q748.112 52.936 748.730 53.835 Q749.347 54.733 750.253 54.733 Q751.159 54.733 751.776 53.835 Q752.394 52.936 752.394 50.233 Q752.394 47.515 751.776 46.624 Q751.159 45.733 750.237 45.733 Q749.331 45.733 748.784 46.515 Q748.112 47.530 748.112 50.233 Z"/>
  <path d="M675.051 47.733 L673.739 47.733 Q673.567 46.811 673.239 46.405 Q672.707 45.733 671.926 45.733 Q671.286 45.733 670.817 46.124 Q670.192 46.624 669.832 47.577 Q669.473 48.530 669.457 50.171 Q669.926 49.436 670.622 49.085 Q671.317 48.733 672.067 48.733 Q673.379 48.733 674.309 49.686 Q675.239 50.640 675.239 52.140 Q675.239 53.124 674.801 53.976 Q674.364 54.827 673.606 55.280 Q672.848 55.733 671.879 55.733 Q670.223 55.733 669.184 54.515 Q668.145 53.296 668.145 50.515 Q668.145 47.390 669.301 45.968 Q670.301 44.733 672.004 44.733 Q673.270 44.733 674.082 45.530 Q674.895 46.327 675.051 47.733 Z M669.661 52.108 Q669.661 52.796 669.950 53.429 Q670.239 54.061 670.762 54.397 Q671.286 54.733 671.848 54.733 Q672.692 54.733 673.293 54.046 Q673.895 53.358 673.895 52.171 Q673.895 51.046 673.301 50.390 Q672.707 49.733 671.801 49.733 Q670.911 49.733 670.286 50.390 Q669.661 51.046 669.661 52.108 Z"/>
  <path d="M677.098 55.733 L677.098 54.733 L678.598 54.733 L678.598 55.733 L677.098 55.733 Z"/>
  <path d="M680.442 50.233 Q680.442 48.327 680.832 47.163 Q681.223 45.999 681.997 45.366 Q682.770 44.733 683.942 44.733 Q684.801 44.733 685.457 45.085 Q686.114 45.436 686.536 46.093 Q686.957 46.749 687.200 47.694 Q687.442 48.640 687.442 50.233 Q687.442 52.140 687.051 53.304 Q686.661 54.468 685.887 55.101 Q685.114 55.733 683.942 55.733 Q682.395 55.733 681.504 54.624 Q680.442 53.265 680.442 50.233 Z M681.801 50.233 Q681.801 52.936 682.418 53.835 Q683.036 54.733 683.942 54.733 Q684.848 54.733 685.465 53.835 Q686.082 52.936 686.082 50.233 Q686.082 47.515 685.465 46.624 Q684.848 45.733 683.926 45.733 Q683.020 45.733 682.473 46.515 Q681.801 47.530 681.801 50.233 Z"/>
  <path d="M601.974 45.733 L601.974 44.733 L608.928 44.733 L608.928 45.546 Q607.912 46.640 606.904 48.577 Q605.896 50.515 605.334 52.561 Q604.943 54.015 604.834 55.733 L603.490 55.733 Q603.506 54.374 603.982 52.452 Q604.459 50.530 605.349 48.741 Q606.240 46.952 607.240 45.733 L601.974 45.733 Z"/>
  <path d="M610.787 55.733 L610.787 54.733 L612.287 54.733 L612.287 55.733 L610.787 55.733 Z"/>
  <path d="M614.131 50.233 Q614.131 48.327 614.521 47.163 Q614.912 45.999 615.685 45.366 Q616.459 44.733 617.631 44.733 Q618.490 44.733 619.146 45.085 Q619.803 45.436 620.224 46.093 Q620.646 46.749 620.889 47.694 Q621.131 48.640 621.131 50.233 Q621.131 52.140 620.740 53.304 Q620.349 54.468 619.576 55.101 Q618.803 55.733 617.631 55.733 Q616.084 55.733 615.193 54.624 Q614.131 53.265 614.131 50.233 Z M615.490 50.233 Q615.490 52.936 616.107 53.835 Q616.724 54.733 617.631 54.733 Q618.537 54.733 619.154 53.835 Q619.771 52.936 619.771 50.233 Q619.771 47.515 619.154 46.624 Q618.537 45.733 617.615 45.733 Q616.709 45.733 616.162 46.515 Q615.490 47.530 615.490 50.233 Z"/>
  <path d="M537.616 50.202 Q536.804 49.874 536.406 49.257 Q536.007 48.640 536.007 47.780 Q536.007 46.499 536.851 45.616 Q537.695 44.733 539.085 44.733 Q540.491 44.733 541.351 45.632 Q542.210 46.530 542.210 47.827 Q542.210 48.655 541.812 49.265 Q541.413 49.874 540.616 50.202 Q541.616 50.499 542.132 51.163 Q542.648 51.827 542.648 52.733 Q542.648 53.999 541.671 54.866 Q540.695 55.733 539.116 55.733 Q537.523 55.733 536.546 54.866 Q535.570 53.999 535.570 52.702 Q535.570 51.733 536.101 51.085 Q536.632 50.436 537.616 50.202 Z M537.351 47.686 Q537.351 48.593 537.843 49.163 Q538.335 49.733 539.116 49.733 Q539.882 49.733 540.366 49.163 Q540.851 48.593 540.851 47.765 Q540.851 46.905 540.351 46.319 Q539.851 45.733 539.101 45.733 Q538.351 45.733 537.851 46.304 Q537.351 46.874 537.351 47.686 Z M536.929 52.718 Q536.929 53.233 537.195 53.718 Q537.460 54.202 537.984 54.468 Q538.507 54.733 539.116 54.733 Q540.054 54.733 540.671 54.171 Q541.288 53.608 541.288 52.749 Q541.288 51.874 540.656 51.304 Q540.023 50.733 539.070 50.733 Q538.148 50.733 537.538 51.296 Q536.929 51.858 536.929 52.718 Z"/>
  <path d="M544.476 55.733 L544.476 54.733 L545.976 54.733 L545.976 55.733 L544.476 55.733 Z"/>
  <path d="M547.820 50.233 Q547.820 48.327 548.210 47.163 Q548.601 45.999 549.374 45.366 Q550.148 44.733 551.320 44.733 Q552.179 44.733 552.835 45.085 Q553.491 45.436 553.913 46.093 Q554.335 46.749 554.577 47.694 Q554.820 48.640 554.820 50.233 Q554.820 52.140 554.429 53.304 Q554.038 54.468 553.265 55.101 Q552.491 55.733 551.320 55.733 Q549.773 55.733 548.882 54.624 Q547.820 53.265 547.820 50.233 Z M549.179 50.233 Q549.179 52.936 549.796 53.835 Q550.413 54.733 551.320 54.733 Q552.226 54.733 552.843 53.835 Q553.460 52.936 553.460 50.233 Q553.460 47.515 552.843 46.624 Q552.226 45.733 551.304 45.733 Q550.398 45.733 549.851 46.515 Q549.179 47.530 549.179 50.233 Z"/>
  <path d="M469.477 52.733 L470.743 52.733 Q470.899 53.780 471.352 54.257 Q471.805 54.733 472.524 54.733 Q473.118 54.733 473.579 54.429 Q474.040 54.124 474.329 53.616 Q474.618 53.108 474.821 52.257 Q475.024 51.405 475.024 50.577 Q475.024 50.499 475.009 50.327 Q474.618 50.952 473.930 51.343 Q473.243 51.733 472.446 51.733 Q471.118 51.733 470.196 50.788 Q469.274 49.843 469.274 48.280 Q469.274 46.686 470.235 45.710 Q471.196 44.733 472.649 44.733 Q473.696 44.733 474.563 45.296 Q475.430 45.858 475.884 46.905 Q476.337 47.952 476.337 49.936 Q476.337 52.015 475.891 53.233 Q475.446 54.452 474.563 55.093 Q473.680 55.733 472.493 55.733 Q471.227 55.733 470.430 54.944 Q469.634 54.155 469.477 52.733 Z M474.868 48.265 Q474.868 47.093 474.266 46.413 Q473.665 45.733 472.805 45.733 Q471.930 45.733 471.282 46.468 Q470.634 47.202 470.634 48.374 Q470.634 49.421 471.251 50.077 Q471.868 50.733 472.774 50.733 Q473.696 50.733 474.282 50.077 Q474.868 49.421 474.868 48.265 Z"/>
  <path d="M478.165 55.733 L478.165 54.733 L479.665 54.733 L479.665 55.733 L478.165 55.733 Z"/>
  <path d="M481.509 50.233 Q481.509 48.327 481.899 47.163 Q482.290 45.999 483.063 45.366 Q483.837 44.733 485.009 44.733 Q485.868 44.733 486.524 45.085 Q487.180 45.436 487.602 46.093 Q488.024 46.749 488.266 47.694 Q488.509 48.640 488.509 50.233 Q488.509 52.140 488.118 53.304 Q487.727 54.468 486.954 55.101 Q486.180 55.733 485.009 55.733 Q483.462 55.733 482.571 54.624 Q481.509 53.265 481.509 50.233 Z M482.868 50.233 Q482.868 52.936 483.485 53.835 Q484.102 54.733 485.009 54.733 Q485.915 54.733 486.532 53.835 Q487.149 52.936 487.149 50.233 Q487.149 47.515 486.532 46.624 Q485.915 45.733 484.993 45.733 Q484.087 45.733 483.540 46.515 Q482.868 47.530 482.868 50.233 Z"/>
  <path d="M403.854 55.733 L402.526 55.733 L402.526 47.155 Q402.057 47.624 401.283 48.085 Q400.510 48.546 399.901 48.780 L399.901 47.483 Q401.010 46.952 401.830 46.194 Q402.651 45.436 402.994 44.733 L403.854 44.733 L403.854 55.733 Z"/>
  <path d="M407.041 50.233 Q407.041 48.327 407.432 47.163 Q407.822 45.999 408.596 45.366 Q409.369 44.733 410.541 44.733 Q411.401 44.733 412.057 45.085 Q412.713 45.436 413.135 46.093 Q413.557 46.749 413.799 47.694 Q414.041 48.640 414.041 50.233 Q414.041 52.140 413.651 53.304 Q413.260 54.468 412.486 55.101 Q411.713 55.733 410.541 55.733 Q408.994 55.733 408.104 54.624 Q407.041 53.265 407.041 50.233 Z M408.401 50.233 Q408.401 52.936 409.018 53.835 Q409.635 54.733 410.541 54.733 Q411.447 54.733 412.065 53.835 Q412.682 52.936 412.682 50.233 Q412.682 47.515 412.065 46.624 Q411.447 45.733 410.526 45.733 Q409.619 45.733 409.072 46.515 Q408.401 47.530 408.401 50.233 Z"/>
  <path d="M415.932 55.733 L415.932 54.733 L417.432 54.733 L417.432 55.733 L415.932 55.733 Z"/>
  <path d="M419.276 50.233 Q419.276 48.327 419.666 47.163 Q420.057 45.999 420.830 45.366 Q421.604 44.733 422.776 44.733 Q423.635 44.733 424.291 45.085 Q424.947 45.436 425.369 46.093 Q425.791 46.749 426.033 47.694 Q426.276 48.640 426.276 50.233 Q426.276 52.140 425.885 53.304 Q425.494 54.468 424.721 55.101 Q423.947 55.733 422.776 55.733 Q421.229 55.733 420.338 54.624 Q419.276 53.265 419.276 50.233 Z M420.635 50.233 Q420.635 52.936 421.252 53.835 Q421.869 54.733 422.776 54.733 Q423.682 54.733 424.299 53.835 Q424.916 52.936 424.916 50.233 Q424.916 47.515 424.299 46.624 Q423.682 45.733 422.760 45.733 Q421.854 45.733 421.307 46.515 Q420.635 47.530 420.635 50.233 Z"/>
  <path d="M338.089 55.733 L336.761 55.733 L336.761 47.155 Q336.293 47.624 335.519 48.085 Q334.746 48.546 334.136 48.780 L334.136 47.483 Q335.246 46.952 336.066 46.194 Q336.886 45.436 337.230 44.733 L338.089 44.733 L338.089 55.733 Z"/>
  <path d="M345.699 55.733 L344.371 55.733 L344.371 47.155 Q343.902 47.624 343.128 48.085 Q342.355 48.546 341.746 48.780 L341.746 47.483 Q342.855 46.952 343.675 46.194 Q344.496 45.436 344.839 44.733 L345.699 44.733 L345.699 55.733 Z"/>
  <path d="M349.074 55.733 L349.074 54.733 L350.574 54.733 L350.574 55.733 L349.074 55.733 Z"/>
  <path d="M352.418 50.233 Q352.418 48.327 352.808 47.163 Q353.199 45.999 353.972 45.366 Q354.746 44.733 355.918 44.733 Q356.777 44.733 357.433 45.085 Q358.089 45.436 358.511 46.093 Q358.933 46.749 359.175 47.694 Q359.418 48.640 359.418 50.233 Q359.418 52.140 359.027 53.304 Q358.636 54.468 357.863 55.101 Q357.089 55.733 355.918 55.733 Q354.371 55.733 353.480 54.624 Q352.418 53.265 352.418 50.233 Z M353.777 50.233 Q353.777 52.936 354.394 53.835 Q355.011 54.733 355.918 54.733 Q356.824 54.733 357.441 53.835 Q358.058 52.936 358.058 50.233 Q358.058 47.515 357.441 46.624 Q356.824 45.733 355.902 45.733 Q354.996 45.733 354.449 46.515 Q353.777 47.530 353.777 50.233 Z"/>
  <path d="M271.231 55.733 L269.903 55.733 L269.903 47.155 Q269.435 47.624 268.661 48.085 Q267.888 48.546 267.278 48.780 L267.278 47.483 Q268.388 46.952 269.208 46.194 Q270.028 45.436 270.372 44.733 L271.231 44.733 L271.231 55.733 Z"/>
  <path d="M281.341 54.733 L281.341 55.733 L274.247 55.733 Q274.231 55.343 274.403 54.968 Q274.669 54.358 275.270 53.772 Q275.872 53.186 276.997 52.124 Q278.747 50.468 279.364 49.538 Q279.981 48.608 279.981 47.796 Q279.981 46.921 279.419 46.327 Q278.856 45.733 277.966 45.733 Q277.013 45.733 276.435 46.265 Q275.856 46.796 275.856 47.733 L274.497 47.733 Q274.638 46.265 275.544 45.499 Q276.450 44.733 277.981 44.733 Q279.528 44.733 280.427 45.624 Q281.325 46.515 281.325 47.843 Q281.325 48.515 281.060 49.163 Q280.794 49.811 280.185 50.530 Q279.575 51.249 278.153 52.530 Q276.966 53.593 276.630 53.968 Q276.294 54.343 276.075 54.733 L281.341 54.733 Z"/>
  <path d="M283.310 55.733 L283.310 54.733 L284.810 54.733 L284.810 55.733 L283.310 55.733 Z"/>
  <path d="M286.653 50.233 Q286.653 48.327 287.044 47.163 Q287.435 45.999 288.208 45.366 Q288.981 44.733 290.153 44.733 Q291.013 44.733 291.669 45.085 Q292.325 45.436 292.747 46.093 Q293.169 46.749 293.411 47.694 Q293.653 48.640 293.653 50.233 Q293.653 52.140 293.263 53.304 Q292.872 54.468 292.099 55.101 Q291.325 55.733 290.153 55.733 Q288.606 55.733 287.716 54.624 Q286.653 53.265 286.653 50.233 Z M288.013 50.233 Q288.013 52.936 288.630 53.835 Q289.247 54.733 290.153 54.733 Q291.060 54.733 291.677 53.835 Q292.294 52.936 292.294 50.233 Q292.294 47.515 291.677 46.624 Q291.060 45.733 290.138 45.733 Q289.231 45.733 288.685 46.515 Q288.013 47.530 288.013 50.233 Z"/>
  <path d="M204.920 55.733 L203.592 55.733 L203.592 47.155 Q203.123 47.624 202.350 48.085 Q201.577 48.546 200.967 48.780 L200.967 47.483 Q202.077 46.952 202.897 46.194 Q203.717 45.436 204.061 44.733 L204.920 44.733 L204.920 55.733 Z"/>
  <path d="M208.108 52.733 L209.436 52.733 Q209.670 53.796 210.209 54.265 Q210.748 54.733 211.530 54.733 Q212.467 54.733 213.108 54.116 Q213.748 53.499 213.748 52.593 Q213.748 51.718 213.155 51.147 Q212.561 50.577 211.639 50.577 Q211.264 50.577 210.717 50.733 L210.858 49.733 Q210.998 49.749 211.077 49.749 Q211.920 49.749 212.592 49.241 Q213.264 48.733 213.264 47.671 Q213.264 46.843 212.772 46.288 Q212.280 45.733 211.498 45.733 Q210.733 45.733 210.217 46.233 Q209.702 46.733 209.561 47.733 L208.248 47.733 Q208.483 46.311 209.342 45.522 Q210.202 44.733 211.483 44.733 Q212.358 44.733 213.100 45.140 Q213.842 45.546 214.233 46.249 Q214.623 46.952 214.623 47.749 Q214.623 48.499 214.248 49.116 Q213.873 49.733 213.139 50.093 Q214.092 50.296 214.616 50.944 Q215.139 51.593 215.139 52.577 Q215.139 53.890 214.116 54.811 Q213.092 55.733 211.514 55.733 Q210.108 55.733 209.170 54.897 Q208.233 54.061 208.108 52.733 Z"/>
  <path d="M216.998 55.733 L216.998 54.733 L218.498 54.733 L218.498 55.733 L216.998 55.733 Z"/>
  <path d="M220.342 50.233 Q220.342 48.327 220.733 47.163 Q221.123 45.999 221.897 45.366 Q222.670 44.733 223.842 44.733 Q224.702 44.733 225.358 45.085 Q226.014 45.436 226.436 46.093 Q226.858 46.749 227.100 47.694 Q227.342 48.640 227.342 50.233 Q227.342 52.140 226.952 53.304 Q226.561 54.468 225.787 55.101 Q225.014 55.733 223.842 55.733 Q222.295 55.733 221.405 54.624 Q220.342 53.265 220.342 50.233 Z M221.702 50.233 Q221.702 52.936 222.319 53.835 Q222.936 54.733 223.842 54.733 Q224.748 54.733 225.366 53.835 Q225.983 52.936 225.983 50.233 Q225.983 47.515 225.366 46.624 Q224.748 45.733 223.827 45.733 Q222.920 45.733 222.373 46.515 Q221.702 47.530 221.702 50.233 Z"/>
  <path d="M138.609 55.733 L137.281 55.733 L137.281 47.155 Q136.812 47.624 136.039 48.085 Q135.265 48.546 134.656 48.780 L134.656 47.483 Q135.765 46.952 136.586 46.194 Q137.406 45.436 137.750 44.733 L138.609 44.733 L138.609 55.733 Z"/>
  <path d="M146.015 55.733 L146.015 52.733 L141.359 52.733 L141.359 51.733 L146.265 44.733 L147.344 44.733 L147.344 51.733 L148.797 51.733 L148.797 52.733 L147.344 52.733 L147.344 55.733 L146.015 55.733 Z M146.015 51.733 L146.015 46.936 L142.656 51.733 L146.015 51.733 Z"/>
  <path d="M150.687 55.733 L150.687 54.733 L152.187 54.733 L152.187 55.733 L150.687 55.733 Z"/>
  <path d="M154.031 50.233 Q154.031 48.327 154.422 47.163 Q154.812 45.999 155.586 45.366 Q156.359 44.733 157.531 44.733 Q158.390 44.733 159.047 45.085 Q159.703 45.436 160.125 46.093 Q160.547 46.749 160.789 47.694 Q161.031 48.640 161.031 50.233 Q161.031 52.140 160.640 53.304 Q160.250 54.468 159.476 55.101 Q158.703 55.733 157.531 55.733 Q155.984 55.733 155.094 54.624 Q154.031 53.265 154.031 50.233 Z M155.390 50.233 Q155.390 52.936 156.008 53.835 Q156.625 54.733 157.531 54.733 Q158.437 54.733 159.055 53.835 Q159.672 52.936 159.672 50.233 Q159.672 47.515 159.055 46.624 Q158.437 45.733 157.515 45.733 Q156.609 45.733 156.062 46.515 Q155.390 47.530 155.390 50.233 Z"/>
  <path d="M72.298 55.733 L70.970 55.733 L70.970 47.155 Q70.501 47.624 69.728 48.085 Q68.954 48.546 68.345 48.780 L68.345 47.483 Q69.454 46.952 70.275 46.194 Q71.095 45.436 71.439 44.733 L72.298 44.733 L72.298 55.733 Z"/>
  <path d="M75.486 52.733 L76.861 52.733 Q77.017 53.733 77.579 54.233 Q78.142 54.733 78.923 54.733 Q79.876 54.733 80.540 54.022 Q81.204 53.311 81.204 52.140 Q81.204 51.030 80.572 50.382 Q79.939 49.733 78.907 49.733 Q78.267 49.733 77.759 50.015 Q77.251 50.296 76.954 50.733 L75.720 50.733 L76.751 44.733 L82.095 44.733 L82.095 45.733 L77.814 45.733 L77.236 49.311 Q78.204 48.733 79.267 48.733 Q80.657 48.733 81.626 49.671 Q82.595 50.608 82.595 52.061 Q82.595 53.468 81.751 54.483 Q80.720 55.733 78.923 55.733 Q77.470 55.733 76.540 54.913 Q75.611 54.093 75.486 52.733 Z"/>
  <path d="M84.376 55.733 L84.376 54.733 L85.876 54.733 L85.876 55.733 L84.376 55.733 Z"/>
  <path d="M87.720 50.233 Q87.720 48.327 88.111 47.163 Q88.501 45.999 89.275 45.366 Q90.048 44.733 91.220 44.733 Q92.079 44.733 92.736 45.085 Q93.392 45.436 93.814 46.093 Q94.236 46.749 94.478 47.694 Q94.720 48.640 94.720 50.233 Q94.720 52.140 94.329 53.304 Q93.939 54.468 93.165 55.101 Q92.392 55.733 91.220 55.733 Q89.673 55.733 88.782 54.624 Q87.720 53.265 87.720 50.233 Z M89.079 50.233 Q89.079 52.936 89.697 53.835 Q90.314 54.733 91.220 54.733 Q92.126 54.733 92.743 53.835 Q93.361 52.936 93.361 50.233 Q93.361 47.515 92.743 46.624 Q92.126 45.733 91.204 45.733 Q90.298 45.733 89.751 46.515 Q89.079 47.530 89.079 50.233 Z"/>
  <path d="M5.987 55.733 L4.659 55.733 L4.659 47.155 Q4.190 47.624 3.417 48.085 Q2.643 48.546 2.034 48.780 L2.034 47.483 Q3.143 46.952 3.964 46.194 Q4.784 45.436 5.128 44.733 L5.987 44.733 L5.987 55.733 Z"/>
  <path d="M16.018 47.733 L14.706 47.733 Q14.534 46.811 14.206 46.405 Q13.674 45.733 12.893 45.733 Q12.253 45.733 11.784 46.124 Q11.159 46.624 10.799 47.577 Q10.440 48.530 10.424 50.171 Q10.893 49.436 11.589 49.085 Q12.284 48.733 13.034 48.733 Q14.346 48.733 15.276 49.686 Q16.206 50.640 16.206 52.140 Q16.206 53.124 15.768 53.976 Q15.331 54.827 14.573 55.280 Q13.815 55.733 12.846 55.733 Q11.190 55.733 10.151 54.515 Q9.112 53.296 9.112 50.515 Q9.112 47.390 10.268 45.968 Q11.268 44.733 12.971 44.733 Q14.237 44.733 15.049 45.530 Q15.862 46.327 16.018 47.733 Z M10.628 52.108 Q10.628 52.796 10.917 53.429 Q11.206 54.061 11.729 54.397 Q12.253 54.733 12.815 54.733 Q13.659 54.733 14.260 54.046 Q14.862 53.358 14.862 52.171 Q14.862 51.046 14.268 50.390 Q13.674 49.733 12.768 49.733 Q11.878 49.733 11.253 50.390 Q10.628 51.046 10.628 52.108 Z"/>
  <path d="M18.065 55.733 L18.065 54.733 L19.565 54.733 L19.565 55.733 L18.065 55.733 Z"/>
  <path d="M21.409 50.233 Q21.409 48.327 21.799 47.163 Q22.190 45.999 22.964 45.366 Q23.737 44.733 24.909 44.733 Q25.768 44.733 26.424 45.085 Q27.081 45.436 27.503 46.093 Q27.924 46.749 28.167 47.694 Q28.409 48.640 28.409 50.233 Q28.409 52.140 28.018 53.304 Q27.628 54.468 26.854 55.101 Q26.081 55.733 24.909 55.733 Q23.362 55.733 22.471 54.624 Q21.409 53.265 21.409 50.233 Z M22.768 50.233 Q22.768 52.936 23.385 53.835 Q24.003 54.733 24.909 54.733 Q25.815 54.733 26.432 53.835 Q27.049 52.936 27.049 50.233 Q27.049 47.515 26.432 46.624 Q25.815 45.733 24.893 45.733 Q23.987 45.733 23.440 46.515 Q22.768 47.530 22.768 50.233 Z"/>
</svg>
