<?xml version="1.0" encoding="UTF-8" ?>
<!-- Generated by clip v0.7.0 (clip-lang.org) -->
<svg xmlns="http://www.w3.org/2000/svg" width="1024.000000" height="60.000000">
  <rect width="1024.000000" height="60.000000" fill="#ffffff" fill-opacity="1.000000"/>
  <path d="M14.6667 30 L1009.33 30 " fill="none" stroke-width="1.333333" stroke="#000000ff"/>
  <path d="M14.6667 32.6667 L14.6667 27.3333 " fill="none" stroke-width="1.333333" stroke="#000000ff"/>
  <path d="M114.133 32.6667 L114.133 27.3333 " fill="none" stroke-width="1.333333" stroke="#000000ff"/>
  <path d="M213.6 32.6667 L213.6 27.3333 " fill="none" stroke-width="1.333333" stroke="#000000ff"/>
  <path d="M313.067 32.6667 L313.067 27.3333 " fill="none" stroke-width="1.333333" stroke="#000000ff"/>
  <path d="M412.533 32.6667 L412.533 27.3333 " fill="none" stroke-width="1.333333" stroke="#000000ff"/>
  <path d="M512 32.6667 L512 27.3333 " fill="none" stroke-width="1.333333" stroke="#000000ff"/>
  <path d="M611.467 32.6667 L611.467 27.3333 " fill="none" stroke-width="1.333333" stroke="#000000ff"/>
  <path d="M710.933 32.6667 L710.933 27.3333 " fill="none" stroke-width="1.333333" stroke="#000000ff"/>
  <path d="M810.4 32.6667 L810.4 27.3333 " fill="none" stroke-width="1.333333" stroke="#000000ff"/>
  <path d="M909.867 32.6667 L909.867 27.3333 " fill="none" stroke-width="1.333333" stroke="#000000ff"/>
  <path d="M1009.33 32.6667 L1009.33 27.3333 " fill="none" stroke-width="1.333333" stroke="#000000ff"/>
  <path d="M10.0651 55.7333 L8.73698 55.7333 L8.73698 47.1552 Q8.26823 47.624 7.49479 48.0849 Q6.72135 48.5458 6.11198 48.7802 L6.11198 47.4833 Q7.22135 46.9521 8.04167 46.1943 Q8.86198 45.4365 9.20573 44.7333 L10.0651 44.7333 L10.0651 55.7333 Z" fill="#000000" fill-opacity="1.000000"/>
  <path d="M13.987 55.7333 L13.987 54.7333 L15.487 54.7333 L15.487 55.7333 L13.987 55.7333 Z" fill="#000000" fill-opacity="1.000000"/>
  <path d="M17.3307 50.2333 Q17.3307 48.3271 17.7214 47.163 Q18.112 45.999 18.8854 45.3661 Q19.6589 44.7333 20.8307 44.7333 Q21.6901 44.7333 22.3464 45.0849 Q23.0026 45.4365 23.4245 46.0927 Q23.8464 46.749 24.0885 47.6943 Q24.3307 48.6396 24.3307 50.2333 Q24.3307 52.1396 23.9401 53.3036 Q23.5495 54.4677 22.776 55.1005 Q22.0026 55.7333 20.8307 55.7333 Q19.2839 55.7333 18.3932 54.624 Q17.3307 53.2646 17.3307 50.2333 ZM18.6901 50.2333 Q18.6901 52.9365 19.3073 53.8349 Q19.9245 54.7333 20.8307 54.7333 Q21.737 54.7333 22.3542 53.8349 Q22.9714 52.9365 22.9714 50.2333 Q22.9714 47.5146 22.3542 46.624 Q21.737 45.7333 20.8151 45.7333 Q19.9089 45.7333 19.362 46.5146 Q18.6901 47.5302 18.6901 50.2333 Z" fill="#000000" fill-opacity="1.000000"/>
  <path d="M111.485 54.7333 L111.485 55.7333 L104.391 55.7333 Q104.376 55.3427 104.547 54.9677 Q104.813 54.3583 105.415 53.7724 Q106.016 53.1865 107.141 52.124 Q108.891 50.4677 109.508 49.538 Q110.126 48.6083 110.126 47.7958 Q110.126 46.9208 109.563 46.3271 Q109.001 45.7333 108.11 45.7333 Q107.157 45.7333 106.579 46.2646 Q106.001 46.7958 106.001 47.7333 L104.641 47.7333 Q104.782 46.2646 105.688 45.499 Q106.594 44.7333 108.126 44.7333 Q109.672 44.7333 110.571 45.624 Q111.469 46.5146 111.469 47.8427 Q111.469 48.5146 111.204 49.163 Q110.938 49.8115 110.329 50.5302 Q109.719 51.249 108.297 52.5302 Q107.11 53.5927 106.774 53.9677 Q106.438 54.3427 106.219 54.7333 L111.485 54.7333 Z" fill="#000000" fill-opacity="1.000000"/>
  <path d="M113.454 55.7333 L113.454 54.7333 L114.954 54.7333 L114.954 55.7333 L113.454 55.7333 Z" fill="#000000" fill-opacity="1.000000"/>
  <path d="M116.797 52.7333 L118.172 52.7333 Q118.329 53.7333 118.891 54.2333 Q119.454 54.7333 120.235 54.7333 Q121.188 54.7333 121.852 54.0224 Q122.516 53.3115 122.516 52.1396 Q122.516 51.0302 121.883 50.3818 Q121.251 49.7333 120.219 49.7333 Q119.579 49.7333 119.071 50.0146 Q118.563 50.2958 118.266 50.7333 L117.032 50.7333 L118.063 44.7333 L123.407 44.7333 L123.407 45.7333 L119.126 45.7333 L118.547 49.3115 Q119.516 48.7333 120.579 48.7333 Q121.969 48.7333 122.938 49.6708 Q123.907 50.6083 123.907 52.0615 Q123.907 53.4677 123.063 54.4833 Q122.032 55.7333 120.235 55.7333 Q118.782 55.7333 117.852 54.913 Q116.922 54.0927 116.797 52.7333 Z" fill="#000000" fill-opacity="1.000000"/>
  <path d="M208.248 55.7333 L208.248 52.7333 L203.592 52.7333 L203.592 51.7333 L208.498 44.7333 L209.577 44.7333 L209.577 51.7333 L211.03 51.7333 L211.03 52.7333 L209.577 52.7333 L209.577 55.7333 L208.248 55.7333 ZM208.248 51.7333 L208.248 46.9365 L204.889 51.7333 L208.248 51.7333 Z" fill="#000000" fill-opacity="1.000000"/>
  <path d="M212.92 55.7333 L212.92 54.7333 L214.42 54.7333 L214.42 55.7333 L212.92 55.7333 Z" fill="#000000" fill-opacity="1.000000"/>
  <path d="M216.264 50.2333 Q216.264 48.3271 216.655 47.163 Q217.045 45.999 217.819 45.3661 Q218.592 44.7333 219.764 44.7333 Q220.623 44.7333 221.28 45.0849 Q221.936 45.4365 222.358 46.0927 Q222.78 46.749 223.022 47.6943 Q223.264 48.6396 223.264 50.2333 Q223.264 52.1396 222.873 53.3036 Q222.483 54.4677 221.709 55.1005 Q220.936 55.7333 219.764 55.7333 Q218.217 55.7333 217.327 54.624 Q216.264 53.2646 216.264 50.2333 ZM217.623 50.2333 Q217.623 52.9365 218.241 53.8349 Q218.858 54.7333 219.764 54.7333 Q220.67 54.7333 221.288 53.8349 Q221.905 52.9365 221.905 50.2333 Q221.905 47.5146 221.288 46.624 Q220.67 45.7333 219.748 45.7333 Q218.842 45.7333 218.295 46.5146 Q217.623 47.5302 217.623 50.2333 Z" fill="#000000" fill-opacity="1.000000"/>
  <path d="M303.496 52.7333 L304.871 52.7333 Q305.028 53.7333 305.59 54.2333 Q306.153 54.7333 306.934 54.7333 Q307.887 54.7333 308.551 54.0224 Q309.215 53.3115 309.215 52.1396 Q309.215 51.0302 308.582 50.3818 Q307.949 49.7333 306.918 49.7333 Q306.278 49.7333 305.77 50.0146 Q305.262 50.2958 304.965 50.7333 L303.731 50.7333 L304.762 44.7333 L310.106 44.7333 L310.106 45.7333 L305.824 45.7333 L305.246 49.3115 Q306.215 48.7333 307.278 48.7333 Q308.668 48.7333 309.637 49.6708 Q310.606 50.6083 310.606 52.0615 Q310.606 53.4677 309.762 54.4833 Q308.731 55.7333 306.934 55.7333 Q305.481 55.7333 304.551 54.913 Q303.621 54.0927 303.496 52.7333 Z" fill="#000000" fill-opacity="1.000000"/>
  <path d="M312.387 55.7333 L312.387 54.7333 L313.887 54.7333 L313.887 55.7333 L312.387 55.7333 Z" fill="#000000" fill-opacity="1.000000"/>
  <path d="M315.731 52.7333 L317.106 52.7333 Q317.262 53.7333 317.824 54.2333 Q318.387 54.7333 319.168 54.7333 Q320.121 54.7333 320.785 54.0224 Q321.449 53.3115 321.449 52.1396 Q321.449 51.0302 320.817 50.3818 Q320.184 49.7333 319.153 49.7333 Q318.512 49.7333 318.004 50.0146 Q317.496 50.2958 317.199 50.7333 L315.965 50.7333 L316.996 44.7333 L322.34 44.7333 L322.34 45.7333 L318.059 45.7333 L317.481 49.3115 Q318.449 48.7333 319.512 48.7333 Q320.903 48.7333 321.871 49.6708 Q322.84 50.6083 322.84 52.0615 Q322.84 53.4677 321.996 54.4833 Q320.965 55.7333 319.168 55.7333 Q317.715 55.7333 316.785 54.913 Q315.856 54.0927 315.731 52.7333 Z" fill="#000000" fill-opacity="1.000000"/>
  <path d="M403.041 45.7333 L403.041 44.7333 L409.994 44.7333 L409.994 45.5458 Q408.979 46.6396 407.971 48.5771 Q406.963 50.5146 406.401 52.5615 Q406.01 54.0146 405.901 55.7333 L404.557 55.7333 Q404.572 54.374 405.049 52.4521 Q405.526 50.5302 406.416 48.7411 Q407.307 46.9521 408.307 45.7333 L403.041 45.7333 Z" fill="#000000" fill-opacity="1.000000"/>
  <path d="M411.854 55.7333 L411.854 54.7333 L413.354 54.7333 L413.354 55.7333 L411.854 55.7333 Z" fill="#000000" fill-opacity="1.000000"/>
  <path d="M415.197 50.2333 Q415.197 48.3271 415.588 47.163 Q415.979 45.999 416.752 45.3661 Q417.526 44.7333 418.697 44.7333 Q419.557 44.7333 420.213 45.0849 Q420.869 45.4365 421.291 46.0927 Q421.713 46.749 421.955 47.6943 Q422.197 48.6396 422.197 50.2333 Q422.197 52.1396 421.807 53.3036 Q421.416 54.4677 420.643 55.1005 Q419.869 55.7333 418.697 55.7333 Q417.151 55.7333 416.26 54.624 Q415.197 53.2646 415.197 50.2333 ZM416.557 50.2333 Q416.557 52.9365 417.174 53.8349 Q417.791 54.7333 418.697 54.7333 Q419.604 54.7333 420.221 53.8349 Q420.838 52.9365 420.838 50.2333 Q420.838 47.5146 420.221 46.624 Q419.604 45.7333 418.682 45.7333 Q417.776 45.7333 417.229 46.5146 Q416.557 47.5302 416.557 50.2333 Z" fill="#000000" fill-opacity="1.000000"/>
  <path d="M504.461 50.2021 Q503.648 49.874 503.25 49.2568 Q502.852 48.6396 502.852 47.7802 Q502.852 46.499 503.695 45.6161 Q504.539 44.7333 505.93 44.7333 Q507.336 44.7333 508.195 45.6318 Q509.055 46.5302 509.055 47.8271 Q509.055 48.6552 508.656 49.2646 Q508.258 49.874 507.461 50.2021 Q508.461 50.499 508.977 51.163 Q509.492 51.8271 509.492 52.7333 Q509.492 53.999 508.516 54.8661 Q507.539 55.7333 505.961 55.7333 Q504.367 55.7333 503.391 54.8661 Q502.414 53.999 502.414 52.7021 Q502.414 51.7333 502.945 51.0849 Q503.477 50.4365 504.461 50.2021 ZM504.195 47.6865 Q504.195 48.5927 504.688 49.163 Q505.18 49.7333 505.961 49.7333 Q506.727 49.7333 507.211 49.163 Q507.695 48.5927 507.695 47.7646 Q507.695 46.9052 507.195 46.3193 Q506.695 45.7333 505.945 45.7333 Q505.195 45.7333 504.695 46.3036 Q504.195 46.874 504.195 47.6865 ZM503.773 52.7177 Q503.773 53.2333 504.039 53.7177 Q504.305 54.2021 504.828 54.4677 Q505.352 54.7333 505.961 54.7333 Q506.898 54.7333 507.516 54.1708 Q508.133 53.6083 508.133 52.749 Q508.133 51.874 507.5 51.3036 Q506.867 50.7333 505.914 50.7333 Q504.992 50.7333 504.383 51.2958 Q503.773 51.8583 503.773 52.7177 Z" fill="#000000" fill-opacity="1.000000"/>
  <path d="M511.32 55.7333 L511.32 54.7333 L512.82 54.7333 L512.82 55.7333 L511.32 55.7333 Z" fill="#000000" fill-opacity="1.000000"/>
  <path d="M514.664 52.7333 L516.039 52.7333 Q516.195 53.7333 516.758 54.2333 Q517.32 54.7333 518.102 54.7333 Q519.055 54.7333 519.719 54.0224 Q520.383 53.3115 520.383 52.1396 Q520.383 51.0302 519.75 50.3818 Q519.117 49.7333 518.086 49.7333 Q517.445 49.7333 516.938 50.0146 Q516.43 50.2958 516.133 50.7333 L514.898 50.7333 L515.93 44.7333 L521.273 44.7333 L521.273 45.7333 L516.992 45.7333 L516.414 49.3115 Q517.383 48.7333 518.445 48.7333 Q519.836 48.7333 520.805 49.6708 Q521.773 50.6083 521.773 52.0615 Q521.773 53.4677 520.93 54.4833 Q519.898 55.7333 518.102 55.7333 Q516.648 55.7333 515.719 54.913 Q514.789 54.0927 514.664 52.7333 Z" fill="#000000" fill-opacity="1.000000"/>
  <path d="M602.787 55.7333 L601.459 55.7333 L601.459 47.1552 Q600.99 47.624 600.217 48.0849 Q599.443 48.5458 598.834 48.7802 L598.834 47.4833 Q599.943 46.9521 600.764 46.1943 Q601.584 45.4365 601.928 44.7333 L602.787 44.7333 L602.787 55.7333 Z" fill="#000000" fill-opacity="1.000000"/>
  <path d="M605.975 50.2333 Q605.975 48.3271 606.365 47.163 Q606.756 45.999 607.529 45.3661 Q608.303 44.7333 609.475 44.7333 Q610.334 44.7333 610.99 45.0849 Q611.646 45.4365 612.068 46.0927 Q612.49 46.749 612.732 47.6943 Q612.975 48.6396 612.975 50.2333 Q612.975 52.1396 612.584 53.3036 Q612.193 54.4677 611.42 55.1005 Q610.646 55.7333 609.475 55.7333 Q607.928 55.7333 607.037 54.624 Q605.975 53.2646 605.975 50.2333 ZM607.334 50.2333 Q607.334 52.9365 607.951 53.8349 Q608.568 54.7333 609.475 54.7333 Q610.381 54.7333 610.998 53.8349 Q611.615 52.9365 611.615 50.2333 Q611.615 47.5146 610.998 46.624 Q610.381 45.7333 609.459 45.7333 Q608.553 45.7333 608.006 46.5146 Q607.334 47.5302 607.334 50.2333 Z" fill="#000000" fill-opacity="1.000000"/>
  <path d="M614.865 55.7333 L614.865 54.7333 L616.365 54.7333 L616.365 55.7333 L614.865 55.7333 Z" fill="#000000" fill-opacity="1.000000"/>
  <path d="M618.209 50.2333 Q618.209 48.3271 618.6 47.163 Q618.99 45.999 619.764 45.3661 Q620.537 44.7333 621.709 44.7333 Q622.568 44.7333 623.225 45.0849 Q623.881 45.4365 624.303 46.0927 Q624.725 46.749 624.967 47.6943 Q625.209 48.6396 625.209 50.2333 Q625.209 52.1396 624.818 53.3036 Q624.428 54.4677 623.654 55.1005 Q622.881 55.7333 621.709 55.7333 Q620.162 55.7333 619.271 54.624 Q618.209 53.2646 618.209 50.2333 ZM619.568 50.2333 Q619.568 52.9365 620.185 53.8349 Q620.803 54.7333 621.709 54.7333 Q622.615 54.7333 623.232 53.8349 Q623.85 52.9365 623.85 50.2333 Q623.85 47.5146 623.232 46.624 Q622.615 45.7333 621.693 45.7333 Q620.787 45.7333 620.24 46.5146 Q619.568 47.5302 619.568 50.2333 Z" fill="#000000" fill-opacity="1.000000"/>
  <path d="M702.801 55.7333 L701.472 55.7333 L701.472 47.1552 Q701.004 47.624 700.23 48.0849 Q699.457 48.5458 698.847 48.7802 L698.847 47.4833 Q699.957 46.9521 700.777 46.1943 Q701.597 45.4365 701.941 44.7333 L702.801 44.7333 L702.801 55.7333 Z" fill="#000000" fill-opacity="1.000000"/>
  <path d="M710.41 55.7333 L709.082 55.7333 L709.082 47.1552 Q708.613 47.624 707.84 48.0849 Q707.066 48.5458 706.457 48.7802 L706.457 47.4833 Q707.566 46.9521 708.386 46.1943 Q709.207 45.4365 709.551 44.7333 L710.41 44.7333 L710.41 55.7333 Z" fill="#000000" fill-opacity="1.000000"/>
  <path d="M713.785 55.7333 L713.785 54.7333 L715.285 54.7333 L715.285 55.7333 L713.785 55.7333 Z" fill="#000000" fill-opacity="1.000000"/>
  <path d="M717.129 52.7333 L718.504 52.7333 Q718.66 53.7333 719.222 54.2333 Q719.785 54.7333 720.566 54.7333 Q721.519 54.7333 722.183 54.0224 Q722.847 53.3115 722.847 52.1396 Q722.847 51.0302 722.215 50.3818 Q721.582 49.7333 720.551 49.7333 Q719.91 49.7333 719.402 50.0146 Q718.894 50.2958 718.597 50.7333 L717.363 50.7333 L718.394 44.7333 L723.738 44.7333 L723.738 45.7333 L719.457 45.7333 L718.879 49.3115 Q719.847 48.7333 720.91 48.7333 Q722.301 48.7333 723.269 49.6708 Q724.238 50.6083 724.238 52.0615 Q724.238 53.4677 723.394 54.4833 Q722.363 55.7333 720.566 55.7333 Q719.113 55.7333 718.183 54.913 Q717.254 54.0927 717.129 52.7333 Z" fill="#000000" fill-opacity="1.000000"/>
  <path d="M801.72 55.7333 L800.392 55.7333 L800.392 47.1552 Q799.923 47.624 799.15 48.0849 Q798.377 48.5458 797.767 48.7802 L797.767 47.4833 Q798.877 46.9521 799.697 46.1943 Q800.517 45.4365 800.861 44.7333 L801.72 44.7333 L801.72 55.7333 Z" fill="#000000" fill-opacity="1.000000"/>
  <path d="M804.908 52.7333 L806.236 52.7333 Q806.47 53.7958 807.009 54.2646 Q807.548 54.7333 808.33 54.7333 Q809.267 54.7333 809.908 54.1161 Q810.548 53.499 810.548 52.5927 Q810.548 51.7177 809.955 51.1474 Q809.361 50.5771 808.439 50.5771 Q808.064 50.5771 807.517 50.7333 L807.658 49.7333 Q807.798 49.749 807.877 49.749 Q808.72 49.749 809.392 49.2411 Q810.064 48.7333 810.064 47.6708 Q810.064 46.8427 809.572 46.288 Q809.08 45.7333 808.298 45.7333 Q807.533 45.7333 807.017 46.2333 Q806.502 46.7333 806.361 47.7333 L805.048 47.7333 Q805.283 46.3115 806.142 45.5224 Q807.002 44.7333 808.283 44.7333 Q809.158 44.7333 809.9 45.1396 Q810.642 45.5458 811.033 46.249 Q811.423 46.9521 811.423 47.749 Q811.423 48.499 811.048 49.1161 Q810.673 49.7333 809.939 50.0927 Q810.892 50.2958 811.416 50.9443 Q811.939 51.5927 811.939 52.5771 Q811.939 53.8896 810.916 54.8115 Q809.892 55.7333 808.314 55.7333 Q806.908 55.7333 805.97 54.8974 Q805.033 54.0615 804.908 52.7333 Z" fill="#000000" fill-opacity="1.000000"/>
  <path d="M813.798 55.7333 L813.798 54.7333 L815.298 54.7333 L815.298 55.7333 L813.798 55.7333 Z" fill="#000000" fill-opacity="1.000000"/>
  <path d="M817.142 50.2333 Q817.142 48.3271 817.533 47.163 Q817.923 45.999 818.697 45.3661 Q819.47 44.7333 820.642 44.7333 Q821.502 44.7333 822.158 45.0849 Q822.814 45.4365 823.236 46.0927 Q823.658 46.749 823.9 47.6943 Q824.142 48.6396 824.142 50.2333 Q824.142 52.1396 823.752 53.3036 Q823.361 54.4677 822.588 55.1005 Q821.814 55.7333 820.642 55.7333 Q819.095 55.7333 818.205 54.624 Q817.142 53.2646 817.142 50.2333 ZM818.502 50.2333 Q818.502 52.9365 819.119 53.8349 Q819.736 54.7333 820.642 54.7333 Q821.548 54.7333 822.166 53.8349 Q822.783 52.9365 822.783 50.2333 Q822.783 47.5146 822.166 46.624 Q821.548 45.7333 820.627 45.7333 Q819.72 45.7333 819.173 46.5146 Q818.502 47.5302 818.502 50.2333 Z" fill="#000000" fill-opacity="1.000000"/>
  <path d="M901.187 55.7333 L899.859 55.7333 L899.859 47.1552 Q899.39 47.624 898.617 48.0849 Q897.843 48.5458 897.234 48.7802 L897.234 47.4833 Q898.343 46.9521 899.164 46.1943 Q899.984 45.4365 900.328 44.7333 L901.187 44.7333 L901.187 55.7333 Z" fill="#000000" fill-opacity="1.000000"/>
  <path d="M908.593 55.7333 L908.593 52.7333 L903.937 52.7333 L903.937 51.7333 L908.843 44.7333 L909.921 44.7333 L909.921 51.7333 L911.375 51.7333 L911.375 52.7333 L909.921 52.7333 L909.921 55.7333 L908.593 55.7333 ZM908.593 51.7333 L908.593 46.9365 L905.234 51.7333 L908.593 51.7333 Z" fill="#000000" fill-opacity="1.000000"/>
  <path d="M913.265 55.7333 L913.265 54.7333 L914.765 54.7333 L914.765 55.7333 L913.265 55.7333 Z" fill="#000000" fill-opacity="1.000000"/>
  <path d="M916.609 52.7333 L917.984 52.7333 Q918.14 53.7333 918.703 54.2333 Q919.265 54.7333 920.046 54.7333 Q921 54.7333 921.664 54.0224 Q922.328 53.3115 922.328 52.1396 Q922.328 51.0302 921.695 50.3818 Q921.062 49.7333 920.031 49.7333 Q919.39 49.7333 918.882 50.0146 Q918.375 50.2958 918.078 50.7333 L916.843 50.7333 L917.875 44.7333 L923.218 44.7333 L923.218 45.7333 L918.937 45.7333 L918.359 49.3115 Q919.328 48.7333 920.39 48.7333 Q921.781 48.7333 922.75 49.6708 Q923.718 50.6083 923.718 52.0615 Q923.718 53.4677 922.875 54.4833 Q921.843 55.7333 920.046 55.7333 Q918.593 55.7333 917.664 54.913 Q916.734 54.0927 916.609 52.7333 Z" fill="#000000" fill-opacity="1.000000"/>
  <path d="M1000.65 55.7333 L999.326 55.7333 L999.326 47.1552 Q998.857 47.624 998.083 48.0849 Q997.31 48.5458 996.701 48.7802 L996.701 47.4833 Q997.81 46.9521 998.63 46.1943 Q999.451 45.4365 999.794 44.7333 L1000.65 44.7333 L1000.65 55.7333 Z" fill="#000000" fill-opacity="1.000000"/>
  <path d="M1010.68 47.7333 L1009.37 47.7333 Q1009.2 46.8115 1008.87 46.4052 Q1008.34 45.7333 1007.56 45.7333 Q1006.92 45.7333 1006.45 46.124 Q1005.83 46.624 1005.47 47.5771 Q1005.11 48.5302 1005.09 50.1708 Q1005.56 49.4365 1006.26 49.0849 Q1006.95 48.7333 1007.7 48.7333 Q1009.01 48.7333 1009.94 49.6865 Q1010.87 50.6396 1010.87 52.1396 Q1010.87 53.124 1010.43 53.9755 Q1010 54.8271 1009.24 55.2802 Q1008.48 55.7333 1007.51 55.7333 Q1005.86 55.7333 1004.82 54.5146 Q1003.78 53.2958 1003.78 50.5146 Q1003.78 47.3896 1004.93 45.9677 Q1005.93 44.7333 1007.64 44.7333 Q1008.9 44.7333 1009.72 45.5302 Q1010.53 46.3271 1010.68 47.7333 ZM1005.29 52.1083 Q1005.29 52.7958 1005.58 53.4286 Q1005.87 54.0615 1006.4 54.3974 Q1006.92 54.7333 1007.48 54.7333 Q1008.33 54.7333 1008.93 54.0458 Q1009.53 53.3583 1009.53 52.1708 Q1009.53 51.0458 1008.93 50.3896 Q1008.34 49.7333 1007.43 49.7333 Q1006.54 49.7333 1005.92 50.3896 Q1005.29 51.0458 1005.29 52.1083 Z" fill="#000000" fill-opacity="1.000000"/>
  <path d="M1012.73 55.7333 L1012.73 54.7333 L1014.23 54.7333 L1014.23 55.7333 L1012.73 55.7333 Z" fill="#000000" fill-opacity="1.000000"/>
  <path d="M1016.08 50.2333 Q1016.08 48.3271 1016.47 47.163 Q1016.86 45.999 1017.63 45.3661 Q1018.4 44.7333 1019.58 44.7333 Q1020.43 44.7333 1021.09 45.0849 Q1021.75 45.4365 1022.17 46.0927 Q1022.59 46.749 1022.83 47.6943 Q1023.08 48.6396 1023.08 50.2333 Q1023.08 52.1396 1022.68 53.3036 Q1022.29 54.4677 1021.52 55.1005 Q1020.75 55.7333 1019.58 55.7333 Q1018.03 55.7333 1017.14 54.624 Q1016.08 53.2646 1016.08 50.2333 ZM1017.43 50.2333 Q1017.43 52.9365 1018.05 53.8349 Q1018.67 54.7333 1019.58 54.7333 Q1020.48 54.7333 1021.1 53.8349 Q1021.72 52.9365 1021.72 50.2333 Q1021.72 47.5146 1021.1 46.624 Q1020.48 45.7333 1019.56 45.7333 Q1018.65 45.7333 1018.11 46.5146 Q1017.43 47.5302 1017.43 50.2333 Z" fill="#000000" fill-opacity="1.000000"/>
</svg>