<?xml version="1.0" encoding="UTF-8" ?>
<!-- Generated by clip v0.7.0 (clip-lang.org) -->
<svg xmlns="http://www.w3.org/2000/svg" width="1024.000000" height="60.000000">
  <rect width="1024.000000" height="60.000000" fill="#ffffff" fill-opacity="1.000000"/>
  <path d="M14.6667 30 L1009.33 30 " fill="none" stroke-width="1.333333" stroke="#000000ff"/>
  <path d="M1009.33 32.6667 L1009.33 27.3333 " fill="none" stroke-width="1.333333" stroke="#000000ff"/>
  <path d="M943.022 32.6667 L943.022 27.3333 " fill="none" stroke-width="1.333333" stroke="#000000ff"/>
  <path d="M876.711 32.6667 L876.711 27.3333 " fill="none" stroke-width="1.333333" stroke="#000000ff"/>
  <path d="M810.4 32.6667 L810.4 27.3333 " fill="none" stroke-width="1.333333" stroke="#000000ff"/>
  <path d="M744.089 32.6667 L744.089 27.3333 " fill="none" stroke-width="1.333333" stroke="#000000ff"/>
  <path d="M677.778 32.6667 L677.778 27.3333 " fill="none" stroke-width="1.333333" stroke="#000000ff"/>
  <path d="M611.467 32.6667 L611.467 27.3333 " fill="none" stroke-width="1.333333" stroke="#000000ff"/>
  <path d="M545.156 32.6667 L545.156 27.3333 " fill="none" stroke-width="1.333333" stroke="#000000ff"/>
  <path d="M478.844 32.6667 L478.844 27.3333 " fill="none" stroke-width="1.333333" stroke="#000000ff"/>
  <path d="M412.533 32.6667 L412.533 27.3333 " fill="none" stroke-width="1.333333" stroke="#000000ff"/>
  <path d="M346.222 32.6667 L346.222 27.3333 " fill="none" stroke-width="1.333333" stroke="#000000ff"/>
  <path d="M279.911 32.6667 L279.911 27.3333 " fill="none" stroke-width="1.333333" stroke="#000000ff"/>
  <path d="M213.6 32.6667 L213.6 27.3333 " fill="none" stroke-width="1.333333" stroke="#000000ff"/>
  <path d="M147.289 32.6667 L147.289 27.3333 " fill="none" stroke-width="1.333333" stroke="#000000ff"/>
  <path d="M80.9778 32.6667 L80.9778 27.3333 " fill="none" stroke-width="1.333333" stroke="#000000ff"/>
  <path d="M14.6667 32.6667 L14.6667 27.3333 " fill="none" stroke-width="1.333333" stroke="#000000ff"/>
  <path d="M1004.73 55.7333 L1003.4 55.7333 L1003.4 47.1552 Q1002.93 47.624 1002.16 48.0849 Q1001.39 48.5458 1000.78 48.7802 L1000.78 47.4833 Q1001.89 46.9521 1002.71 46.1943 Q1003.53 45.4365 1003.87 44.7333 L1004.73 44.7333 L1004.73 55.7333 Z" fill="#000000" fill-opacity="1.000000"/>
  <path d="M1008.65 55.7333 L1008.65 54.7333 L1010.15 54.7333 L1010.15 55.7333 L1008.65 55.7333 Z" fill="#000000" fill-opacity="1.000000"/>
  <path d="M1012 50.2333 Q1012 48.3271 1012.39 47.163 Q1012.78 45.999 1013.55 45.3661 Q1014.33 44.7333 1015.5 44.7333 Q1016.36 44.7333 1017.01 45.0849 Q1017.67 45.4365 1018.09 46.0927 Q1018.51 46.749 1018.76 47.6943 Q1019 48.6396 1019 50.2333 Q1019 52.1396 1018.61 53.3036 Q1018.22 54.4677 1017.44 55.1005 Q1016.67 55.7333 1015.5 55.7333 Q1013.95 55.7333 1013.06 54.624 Q1012 53.2646 1012 50.2333 ZM1013.36 50.2333 Q1013.36 52.9365 1013.97 53.8349 Q1014.59 54.7333 1015.5 54.7333 Q1016.4 54.7333 1017.02 53.8349 Q1017.64 52.9365 1017.64 50.2333 Q1017.64 47.5146 1017.02 46.624 Q1016.4 45.7333 1015.48 45.7333 Q1014.58 45.7333 1014.03 46.5146 Q1013.36 47.5302 1013.36 50.2333 Z" fill="#000000" fill-opacity="1.000000"/>
  <path d="M940.374 54.7333 L940.374 55.7333 L933.28 55.7333 Q933.264 55.3427 933.436 54.9677 Q933.702 54.3583 934.303 53.7724 Q934.905 53.1865 936.03 52.124 Q937.78 50.4677 938.397 49.538 Q939.014 48.6083 939.014 47.7958 Q939.014 46.9208 938.452 46.3271 Q937.889 45.7333 936.999 45.7333 Q936.046 45.7333 935.468 46.2646 Q934.889 46.7958 934.889 47.7333 L933.53 47.7333 Q933.671 46.2646 934.577 45.499 Q935.483 44.7333 937.014 44.7333 Q938.561 44.7333 939.46 45.624 Q940.358 46.5146 940.358 47.8427 Q940.358 48.5146 940.093 49.163 Q939.827 49.8115 939.218 50.5302 Q938.608 51.249 937.186 52.5302 Q935.999 53.5927 935.663 53.9677 Q935.327 54.3427 935.108 54.7333 L940.374 54.7333 Z" fill="#000000" fill-opacity="1.000000"/>
  <path d="M942.343 55.7333 L942.343 54.7333 L943.843 54.7333 L943.843 55.7333 L942.343 55.7333 Z" fill="#000000" fill-opacity="1.000000"/>
  <path d="M945.686 50.2333 Q945.686 48.3271 946.077 47.163 Q946.468 45.999 947.241 45.3661 Q948.014 44.7333 949.186 44.7333 Q950.046 44.7333 950.702 45.0849 Q951.358 45.4365 951.78 46.0927 Q952.202 46.749 952.444 47.6943 Q952.686 48.6396 952.686 50.2333 Q952.686 52.1396 952.296 53.3036 Q951.905 54.4677 951.132 55.1005 Q950.358 55.7333 949.186 55.7333 Q947.639 55.7333 946.749 54.624 Q945.686 53.2646 945.686 50.2333 ZM947.046 50.2333 Q947.046 52.9365 947.663 53.8349 Q948.28 54.7333 949.186 54.7333 Q950.093 54.7333 950.71 53.8349 Q951.327 52.9365 951.327 50.2333 Q951.327 47.5146 950.71 46.624 Q950.093 45.7333 949.171 45.7333 Q948.264 45.7333 947.718 46.5146 Q947.046 47.5302 947.046 50.2333 Z" fill="#000000" fill-opacity="1.000000"/>
  <path d="M867.141 52.7333 L868.469 52.7333 Q868.703 53.7958 869.242 54.2646 Q869.781 54.7333 870.563 54.7333 Q871.5 54.7333 872.141 54.1161 Q872.781 53.499 872.781 52.5927 Q872.781 51.7177 872.188 51.1474 Q871.594 50.5771 870.672 50.5771 Q870.297 50.5771 869.75 50.7333 L869.891 49.7333 Q870.031 49.749 870.11 49.749 Q870.953 49.749 871.625 49.2411 Q872.297 48.7333 872.297 47.6708 Q872.297 46.8427 871.805 46.288 Q871.313 45.7333 870.531 45.7333 Q869.766 45.7333 869.25 46.2333 Q868.735 46.7333 868.594 47.7333 L867.281 47.7333 Q867.516 46.3115 868.375 45.5224 Q869.235 44.7333 870.516 44.7333 Q871.391 44.7333 872.133 45.1396 Q872.875 45.5458 873.266 46.249 Q873.656 46.9521 873.656 47.749 Q873.656 48.499 873.281 49.1161 Q872.906 49.7333 872.172 50.0927 Q873.125 50.2958 873.649 50.9443 Q874.172 51.5927 874.172 52.5771 Q874.172 53.8896 873.149 54.8115 Q872.125 55.7333 870.547 55.7333 Q869.141 55.7333 868.203 54.8974 Q867.266 54.0615 867.141 52.7333 Z" fill="#000000" fill-opacity="1.000000"/>
  <path d="M876.031 55.7333 L876.031 54.7333 L877.531 54.7333 L877.531 55.7333 L876.031 55.7333 Z" fill="#000000" fill-opacity="1.000000"/>
  <path d="M879.375 50.2333 Q879.375 48.3271 879.766 47.163 Q880.156 45.999 880.93 45.3661 Q881.703 44.7333 882.875 44.7333 Q883.735 44.7333 884.391 45.0849 Q885.047 45.4365 885.469 46.0927 Q885.891 46.749 886.133 47.6943 Q886.375 48.6396 886.375 50.2333 Q886.375 52.1396 885.985 53.3036 Q885.594 54.4677 884.82 55.1005 Q884.047 55.7333 882.875 55.7333 Q881.328 55.7333 880.438 54.624 Q879.375 53.2646 879.375 50.2333 ZM880.735 50.2333 Q880.735 52.9365 881.352 53.8349 Q881.969 54.7333 882.875 54.7333 Q883.781 54.7333 884.399 53.8349 Q885.016 52.9365 885.016 50.2333 Q885.016 47.5146 884.399 46.624 Q883.781 45.7333 882.86 45.7333 Q881.953 45.7333 881.406 46.5146 Q880.735 47.5302 880.735 50.2333 Z" fill="#000000" fill-opacity="1.000000"/>
  <path d="M805.048 55.7333 L805.048 52.7333 L800.392 52.7333 L800.392 51.7333 L805.298 44.7333 L806.377 44.7333 L806.377 51.7333 L807.83 51.7333 L807.83 52.7333 L806.377 52.7333 L806.377 55.7333 L805.048 55.7333 ZM805.048 51.7333 L805.048 46.9365 L801.689 51.7333 L805.048 51.7333 Z" fill="#000000" fill-opacity="1.000000"/>
  <path d="M809.72 55.7333 L809.72 54.7333 L811.22 54.7333 L811.22 55.7333 L809.72 55.7333 Z" fill="#000000" fill-opacity="1.000000"/>
  <path d="M813.064 50.2333 Q813.064 48.3271 813.455 47.163 Q813.845 45.999 814.619 45.3661 Q815.392 44.7333 816.564 44.7333 Q817.423 44.7333 818.08 45.0849 Q818.736 45.4365 819.158 46.0927 Q819.58 46.749 819.822 47.6943 Q820.064 48.6396 820.064 50.2333 Q820.064 52.1396 819.673 53.3036 Q819.283 54.4677 818.509 55.1005 Q817.736 55.7333 816.564 55.7333 Q815.017 55.7333 814.127 54.624 Q813.064 53.2646 813.064 50.2333 ZM814.423 50.2333 Q814.423 52.9365 815.041 53.8349 Q815.658 54.7333 816.564 54.7333 Q817.47 54.7333 818.087 53.8349 Q818.705 52.9365 818.705 50.2333 Q818.705 47.5146 818.087 46.624 Q817.47 45.7333 816.548 45.7333 Q815.642 45.7333 815.095 46.5146 Q814.423 47.5302 814.423 50.2333 Z" fill="#000000" fill-opacity="1.000000"/>
  <path d="M734.519 52.7333 L735.894 52.7333 Q736.05 53.7333 736.612 54.2333 Q737.175 54.7333 737.956 54.7333 Q738.909 54.7333 739.573 54.0224 Q740.237 53.3115 740.237 52.1396 Q740.237 51.0302 739.605 50.3818 Q738.972 49.7333 737.94 49.7333 Q737.3 49.7333 736.792 50.0146 Q736.284 50.2958 735.987 50.7333 L734.753 50.7333 L735.784 44.7333 L741.128 44.7333 L741.128 45.7333 L736.847 45.7333 L736.269 49.3115 Q737.237 48.7333 738.3 48.7333 Q739.69 48.7333 740.659 49.6708 Q741.628 50.6083 741.628 52.0615 Q741.628 53.4677 740.784 54.4833 Q739.753 55.7333 737.956 55.7333 Q736.503 55.7333 735.573 54.913 Q734.644 54.0927 734.519 52.7333 Z" fill="#000000" fill-opacity="1.000000"/>
  <path d="M743.409 55.7333 L743.409 54.7333 L744.909 54.7333 L744.909 55.7333 L743.409 55.7333 Z" fill="#000000" fill-opacity="1.000000"/>
  <path d="M746.753 50.2333 Q746.753 48.3271 747.144 47.163 Q747.534 45.999 748.308 45.3661 Q749.081 44.7333 750.253 44.7333 Q751.112 44.7333 751.769 45.0849 Q752.425 45.4365 752.847 46.0927 Q753.269 46.749 753.511 47.6943 Q753.753 48.6396 753.753 50.2333 Q753.753 52.1396 753.362 53.3036 Q752.972 54.4677 752.198 55.1005 Q751.425 55.7333 750.253 55.7333 Q748.706 55.7333 747.815 54.624 Q746.753 53.2646 746.753 50.2333 ZM748.112 50.2333 Q748.112 52.9365 748.73 53.8349 Q749.347 54.7333 750.253 54.7333 Q751.159 54.7333 751.776 53.8349 Q752.394 52.9365 752.394 50.2333 Q752.394 47.5146 751.776 46.624 Q751.159 45.7333 750.237 45.7333 Q749.331 45.7333 748.784 46.5146 Q748.112 47.5302 748.112 50.2333 Z" fill="#000000" fill-opacity="1.000000"/>
  <path d="M675.051 47.7333 L673.739 47.7333 Q673.567 46.8115 673.239 46.4052 Q672.707 45.7333 671.926 45.7333 Q671.286 45.7333 670.817 46.124 Q670.192 46.624 669.832 47.5771 Q669.473 48.5302 669.457 50.1708 Q669.926 49.4365 670.622 49.0849 Q671.317 48.7333 672.067 48.7333 Q673.379 48.7333 674.309 49.6865 Q675.239 50.6396 675.239 52.1396 Q675.239 53.124 674.801 53.9755 Q674.364 54.8271 673.606 55.2802 Q672.848 55.7333 671.879 55.7333 Q670.223 55.7333 669.184 54.5146 Q668.145 53.2958 668.145 50.5146 Q668.145 47.3896 669.301 45.9677 Q670.301 44.7333 672.004 44.7333 Q673.27 44.7333 674.082 45.5302 Q674.895 46.3271 675.051 47.7333 ZM669.661 52.1083 Q669.661 52.7958 669.95 53.4286 Q670.239 54.0615 670.762 54.3974 Q671.286 54.7333 671.848 54.7333 Q672.692 54.7333 673.293 54.0458 Q673.895 53.3583 673.895 52.1708 Q673.895 51.0458 673.301 50.3896 Q672.707 49.7333 671.801 49.7333 Q670.911 49.7333 670.286 50.3896 Q669.661 51.0458 669.661 52.1083 Z" fill="#000000" fill-opacity="1.000000"/>
  <path d="M677.098 55.7333 L677.098 54.7333 L678.598 54.7333 L678.598 55.7333 L677.098 55.7333 Z" fill="#000000" fill-opacity="1.000000"/>
  <path d="M680.442 50.2333 Q680.442 48.3271 680.832 47.163 Q681.223 45.999 681.997 45.3661 Q682.77 44.7333 683.942 44.7333 Q684.801 44.7333 685.457 45.0849 Q686.114 45.4365 686.536 46.0927 Q686.957 46.749 687.2 47.6943 Q687.442 48.6396 687.442 50.2333 Q687.442 52.1396 687.051 53.3036 Q686.661 54.4677 685.887 55.1005 Q685.114 55.7333 683.942 55.7333 Q682.395 55.7333 681.504 54.624 Q680.442 53.2646 680.442 50.2333 ZM681.801 50.2333 Q681.801 52.9365 682.418 53.8349 Q683.036 54.7333 683.942 54.7333 Q684.848 54.7333 685.465 53.8349 Q686.082 52.9365 686.082 50.2333 Q686.082 47.5146 685.465 46.624 Q684.848 45.7333 683.926 45.7333 Q683.02 45.7333 682.473 46.5146 Q681.801 47.5302 681.801 50.2333 Z" fill="#000000" fill-opacity="1.000000"/>
  <path d="M601.974 45.7333 L601.974 44.7333 L608.928 44.7333 L608.928 45.5458 Q607.912 46.6396 606.904 48.5771 Q605.896 50.5146 605.334 52.5615 Q604.943 54.0146 604.834 55.7333 L603.49 55.7333 Q603.506 54.374 603.982 52.4521 Q604.459 50.5302 605.349 48.7411 Q606.24 46.9521 607.24 45.7333 L601.974 45.7333 Z" fill="#000000" fill-opacity="1.000000"/>
  <path d="M610.787 55.7333 L610.787 54.7333 L612.287 54.7333 L612.287 55.7333 L610.787 55.7333 Z" fill="#000000" fill-opacity="1.000000"/>
  <path d="M614.131 50.2333 Q614.131 48.3271 614.521 47.163 Q614.912 45.999 615.685 45.3661 Q616.459 44.7333 617.631 44.7333 Q618.49 44.7333 619.146 45.0849 Q619.803 45.4365 620.224 46.0927 Q620.646 46.749 620.889 47.6943 Q621.131 48.6396 621.131 50.2333 Q621.131 52.1396 620.74 53.3036 Q620.349 54.4677 619.576 55.1005 Q618.803 55.7333 617.631 55.7333 Q616.084 55.7333 615.193 54.624 Q614.131 53.2646 614.131 50.2333 ZM615.49 50.2333 Q615.49 52.9365 616.107 53.8349 Q616.724 54.7333 617.631 54.7333 Q618.537 54.7333 619.154 53.8349 Q619.771 52.9365 619.771 50.2333 Q619.771 47.5146 619.154 46.624 Q618.537 45.7333 617.615 45.7333 Q616.709 45.7333 616.162 46.5146 Q615.49 47.5302 615.49 50.2333 Z" fill="#000000" fill-opacity="1.000000"/>
  <path d="M537.616 50.2021 Q536.804 49.874 536.406 49.2568 Q536.007 48.6396 536.007 47.7802 Q536.007 46.499 536.851 45.6161 Q537.695 44.7333 539.085 44.7333 Q540.491 44.7333 541.351 45.6318 Q542.21 46.5302 542.21 47.8271 Q542.21 48.6552 541.812 49.2646 Q541.413 49.874 540.616 50.2021 Q541.616 50.499 542.132 51.163 Q542.648 51.8271 542.648 52.7333 Q542.648 53.999 541.671 54.8661 Q540.695 55.7333 539.116 55.7333 Q537.523 55.7333 536.546 54.8661 Q535.57 53.999 535.57 52.7021 Q535.57 51.7333 536.101 51.0849 Q536.632 50.4365 537.616 50.2021 ZM537.351 47.6865 Q537.351 48.5927 537.843 49.163 Q538.335 49.7333 539.116 49.7333 Q539.882 49.7333 540.366 49.163 Q540.851 48.5927 540.851 47.7646 Q540.851 46.9052 540.351 46.3193 Q539.851 45.7333 539.101 45.7333 Q538.351 45.7333 537.851 46.3036 Q537.351 46.874 537.351 47.6865 ZM536.929 52.7177 Q536.929 53.2333 537.195 53.7177 Q537.46 54.2021 537.984 54.4677 Q538.507 54.7333 539.116 54.7333 Q540.054 54.7333 540.671 54.1708 Q541.288 53.6083 541.288 52.749 Q541.288 51.874 540.656 51.3036 Q540.023 50.7333 539.07 50.7333 Q538.148 50.7333 537.538 51.2958 Q536.929 51.8583 536.929 52.7177 Z" fill="#000000" fill-opacity="1.000000"/>
  <path d="M544.476 55.7333 L544.476 54.7333 L545.976 54.7333 L545.976 55.7333 L544.476 55.7333 Z" fill="#000000" fill-opacity="1.000000"/>
  <path d="M547.82 50.2333 Q547.82 48.3271 548.21 47.163 Q548.601 45.999 549.374 45.3661 Q550.148 44.7333 551.32 44.7333 Q552.179 44.7333 552.835 45.0849 Q553.491 45.4365 553.913 46.0927 Q554.335 46.749 554.577 47.6943 Q554.82 48.6396 554.82 50.2333 Q554.82 52.1396 554.429 53.3036 Q554.038 54.4677 553.265 55.1005 Q552.491 55.7333 551.32 55.7333 Q549.773 55.7333 548.882 54.624 Q547.82 53.2646 547.82 50.2333 ZM549.179 50.2333 Q549.179 52.9365 549.796 53.8349 Q550.413 54.7333 551.32 54.7333 Q552.226 54.7333 552.843 53.8349 Q553.46 52.9365 553.46 50.2333 Q553.46 47.5146 552.843 46.624 Q552.226 45.7333 551.304 45.7333 Q550.398 45.7333 549.851 46.5146 Q549.179 47.5302 549.179 50.2333 Z" fill="#000000" fill-opacity="1.000000"/>
  <path d="M469.477 52.7333 L470.743 52.7333 Q470.899 53.7802 471.352 54.2568 Q471.805 54.7333 472.524 54.7333 Q473.118 54.7333 473.579 54.4286 Q474.04 54.124 474.329 53.6161 Q474.618 53.1083 474.821 52.2568 Q475.024 51.4052 475.024 50.5771 Q475.024 50.499 475.009 50.3271 Q474.618 50.9521 473.93 51.3427 Q473.243 51.7333 472.446 51.7333 Q471.118 51.7333 470.196 50.788 Q469.274 49.8427 469.274 48.2802 Q469.274 46.6865 470.235 45.7099 Q471.196 44.7333 472.649 44.7333 Q473.696 44.7333 474.563 45.2958 Q475.43 45.8583 475.884 46.9052 Q476.337 47.9521 476.337 49.9365 Q476.337 52.0146 475.891 53.2333 Q475.446 54.4521 474.563 55.0927 Q473.68 55.7333 472.493 55.7333 Q471.227 55.7333 470.43 54.9443 Q469.634 54.1552 469.477 52.7333 ZM474.868 48.2646 Q474.868 47.0927 474.266 46.413 Q473.665 45.7333 472.805 45.7333 Q471.93 45.7333 471.282 46.4677 Q470.634 47.2021 470.634 48.374 Q470.634 49.4208 471.251 50.0771 Q471.868 50.7333 472.774 50.7333 Q473.696 50.7333 474.282 50.0771 Q474.868 49.4208 474.868 48.2646 Z" fill="#000000" fill-opacity="1.000000"/>
  <path d="M478.165 55.7333 L478.165 54.7333 L479.665 54.7333 L479.665 55.7333 L478.165 55.7333 Z" fill="#000000" fill-opacity="1.000000"/>
  <path d="M481.509 50.2333 Q481.509 48.3271 481.899 47.163 Q482.29 45.999 483.063 45.3661 Q483.837 44.7333 485.009 44.7333 Q485.868 44.7333 486.524 45.0849 Q487.18 45.4365 487.602 46.0927 Q488.024 46.749 488.266 47.6943 Q488.509 48.6396 488.509 50.2333 Q488.509 52.1396 488.118 53.3036 Q487.727 54.4677 486.954 55.1005 Q486.18 55.7333 485.009 55.7333 Q483.462 55.7333 482.571 54.624 Q481.509 53.2646 481.509 50.2333 ZM482.868 50.2333 Q482.868 52.9365 483.485 53.8349 Q484.102 54.7333 485.009 54.7333 Q485.915 54.7333 486.532 53.8349 Q487.149 52.9365 487.149 50.2333 Q487.149 47.5146 486.532 46.624 Q485.915 45.7333 484.993 45.7333 Q484.087 45.7333 483.54 46.5146 Q482.868 47.5302 482.868 50.2333 Z" fill="#000000" fill-opacity="1.000000"/>
  <path d="M403.854 55.7333 L402.526 55.7333 L402.526 47.1552 Q402.057 47.624 401.283 48.0849 Q400.51 48.5458 399.901 48.7802 L399.901 47.4833 Q401.01 46.9521 401.83 46.1943 Q402.651 45.4365 402.994 44.7333 L403.854 44.7333 L403.854 55.7333 Z" fill="#000000" fill-opacity="1.000000"/>
  <path d="M407.041 50.2333 Q407.041 48.3271 407.432 47.163 Q407.822 45.999 408.596 45.3661 Q409.369 44.7333 410.541 44.7333 Q411.401 44.7333 412.057 45.0849 Q412.713 45.4365 413.135 46.0927 Q413.557 46.749 413.799 47.6943 Q414.041 48.6396 414.041 50.2333 Q414.041 52.1396 413.651 53.3036 Q413.26 54.4677 412.486 55.1005 Q411.713 55.7333 410.541 55.7333 Q408.994 55.7333 408.104 54.624 Q407.041 53.2646 407.041 50.2333 ZM408.401 50.2333 Q408.401 52.9365 409.018 53.8349 Q409.635 54.7333 410.541 54.7333 Q411.447 54.7333 412.065 53.8349 Q412.682 52.9365 412.682 50.2333 Q412.682 47.5146 412.065 46.624 Q411.447 45.7333 410.526 45.7333 Q409.619 45.7333 409.072 46.5146 Q408.401 47.5302 408.401 50.2333 Z" fill="#000000" fill-opacity="1.000000"/>
  <path d="M415.932 55.7333 L415.932 54.7333 L417.432 54.7333 L417.432 55.7333 L415.932 55.7333 Z" fill="#000000" fill-opacity="1.000000"/>
  <path d="M419.276 50.2333 Q419.276 48.3271 419.666 47.163 Q420.057 45.999 420.83 45.3661 Q421.604 44.7333 422.776 44.7333 Q423.635 44.7333 424.291 45.0849 Q424.947 45.4365 425.369 46.0927 Q425.791 46.749 426.033 47.6943 Q426.276 48.6396 426.276 50.2333 Q426.276 52.1396 425.885 53.3036 Q425.494 54.4677 424.721 55.1005 Q423.947 55.7333 422.776 55.7333 Q421.229 55.7333 420.338 54.624 Q419.276 53.2646 419.276 50.2333 ZM420.635 50.2333 Q420.635 52.9365 421.252 53.8349 Q421.869 54.7333 422.776 54.7333 Q423.682 54.7333 424.299 53.8349 Q424.916 52.9365 424.916 50.2333 Q424.916 47.5146 424.299 46.624 Q423.682 45.7333 422.76 45.7333 Q421.854 45.7333 421.307 46.5146 Q420.635 47.5302 420.635 50.2333 Z" fill="#000000" fill-opacity="1.000000"/>
  <path d="M338.089 55.7333 L336.761 55.7333 L336.761 47.1552 Q336.293 47.624 335.519 48.0849 Q334.746 48.5458 334.136 48.7802 L334.136 47.4833 Q335.246 46.9521 336.066 46.1943 Q336.886 45.4365 337.23 44.7333 L338.089 44.7333 L338.089 55.7333 Z" fill="#000000" fill-opacity="1.000000"/>
  <path d="M345.699 55.7333 L344.371 55.7333 L344.371 47.1552 Q343.902 47.624 343.128 48.0849 Q342.355 48.5458 341.746 48.7802 L341.746 47.4833 Q342.855 46.9521 343.675 46.1943 Q344.496 45.4365 344.839 44.7333 L345.699 44.7333 L345.699 55.7333 Z" fill="#000000" fill-opacity="1.000000"/>
  <path d="M349.074 55.7333 L349.074 54.7333 L350.574 54.7333 L350.574 55.7333 L349.074 55.7333 Z" fill="#000000" fill-opacity="1.000000"/>
  <path d="M352.418 50.2333 Q352.418 48.3271 352.808 47.163 Q353.199 45.999 353.972 45.3661 Q354.746 44.7333 355.918 44.7333 Q356.777 44.7333 357.433 45.0849 Q358.089 45.4365 358.511 46.0927 Q358.933 46.749 359.175 47.6943 Q359.418 48.6396 359.418 50.2333 Q359.418 52.1396 359.027 53.3036 Q358.636 54.4677 357.863 55.1005 Q357.089 55.7333 355.918 55.7333 Q354.371 55.7333 353.48 54.624 Q352.418 53.2646 352.418 50.2333 ZM353.777 50.2333 Q353.777 52.9365 354.394 53.8349 Q355.011 54.7333 355.918 54.7333 Q356.824 54.7333 357.441 53.8349 Q358.058 52.9365 358.058 50.2333 Q358.058 47.5146 357.441 46.624 Q356.824 45.7333 355.902 45.7333 Q354.996 45.7333 354.449 46.5146 Q353.777 47.5302 353.777 50.2333 Z" fill="#000000" fill-opacity="1.000000"/>
  <path d="M271.231 55.7333 L269.903 55.7333 L269.903 47.1552 Q269.435 47.624 268.661 48.0849 Q267.888 48.5458 267.278 48.7802 L267.278 47.4833 Q268.388 46.9521 269.208 46.1943 Q270.028 45.4365 270.372 44.7333 L271.231 44.7333 L271.231 55.7333 Z" fill="#000000" fill-opacity="1.000000"/>
  <path d="M281.341 54.7333 L281.341 55.7333 L274.247 55.7333 Q274.231 55.3427 274.403 54.9677 Q274.669 54.3583 275.27 53.7724 Q275.872 53.1865 276.997 52.124 Q278.747 50.4677 279.364 49.538 Q279.981 48.6083 279.981 47.7958 Q279.981 46.9208 279.419 46.3271 Q278.856 45.7333 277.966 45.7333 Q277.013 45.7333 276.435 46.2646 Q275.856 46.7958 275.856 47.7333 L274.497 47.7333 Q274.638 46.2646 275.544 45.499 Q276.45 44.7333 277.981 44.7333 Q279.528 44.7333 280.427 45.624 Q281.325 46.5146 281.325 47.8427 Q281.325 48.5146 281.06 49.163 Q280.794 49.8115 280.185 50.5302 Q279.575 51.249 278.153 52.5302 Q276.966 53.5927 276.63 53.9677 Q276.294 54.3427 276.075 54.7333 L281.341 54.7333 Z" fill="#000000" fill-opacity="1.000000"/>
  <path d="M283.31 55.7333 L283.31 54.7333 L284.81 54.7333 L284.81 55.7333 L283.31 55.7333 Z" fill="#000000" fill-opacity="1.000000"/>
  <path d="M286.653 50.2333 Q286.653 48.3271 287.044 47.163 Q287.435 45.999 288.208 45.3661 Q288.981 44.7333 290.153 44.7333 Q291.013 44.7333 291.669 45.0849 Q292.325 45.4365 292.747 46.0927 Q293.169 46.749 293.411 47.6943 Q293.653 48.6396 293.653 50.2333 Q293.653 52.1396 293.263 53.3036 Q292.872 54.4677 292.099 55.1005 Q291.325 55.7333 290.153 55.7333 Q288.606 55.7333 287.716 54.624 Q286.653 53.2646 286.653 50.2333 ZM288.013 50.2333 Q288.013 52.9365 288.63 53.8349 Q289.247 54.7333 290.153 54.7333 Q291.06 54.7333 291.677 53.8349 Q292.294 52.9365 292.294 50.2333 Q292.294 47.5146 291.677 46.624 Q291.06 45.7333 290.138 45.7333 Q289.231 45.7333 288.685 46.5146 Q288.013 47.5302 288.013 50.2333 Z" fill="#000000" fill-opacity="1.000000"/>
  <path d="M204.92 55.7333 L203.592 55.7333 L203.592 47.1552 Q203.123 47.624 202.35 48.0849 Q201.577 48.5458 200.967 48.7802 L200.967 47.4833 Q202.077 46.9521 202.897 46.1943 Q203.717 45.4365 204.061 44.7333 L204.92 44.7333 L204.92 55.7333 Z" fill="#000000" fill-opacity="1.000000"/>
  <path d="M208.108 52.7333 L209.436 52.7333 Q209.67 53.7958 210.209 54.2646 Q210.748 54.7333 211.53 54.7333 Q212.467 54.7333 213.108 54.1161 Q213.748 53.499 213.748 52.5927 Q213.748 51.7177 213.155 51.1474 Q212.561 50.5771 211.639 50.5771 Q211.264 50.5771 210.717 50.7333 L210.858 49.7333 Q210.998 49.749 211.077 49.749 Q211.92 49.749 212.592 49.2411 Q213.264 48.7333 213.264 47.6708 Q213.264 46.8427 212.772 46.288 Q212.28 45.7333 211.498 45.7333 Q210.733 45.7333 210.217 46.2333 Q209.702 46.7333 209.561 47.7333 L208.248 47.7333 Q208.483 46.3115 209.342 45.5224 Q210.202 44.7333 211.483 44.7333 Q212.358 44.7333 213.1 45.1396 Q213.842 45.5458 214.233 46.249 Q214.623 46.9521 214.623 47.749 Q214.623 48.499 214.248 49.1161 Q213.873 49.7333 213.139 50.0927 Q214.092 50.2958 214.616 50.9443 Q215.139 51.5927 215.139 52.5771 Q215.139 53.8896 214.116 54.8115 Q213.092 55.7333 211.514 55.7333 Q210.108 55.7333 209.17 54.8974 Q208.233 54.0615 208.108 52.7333 Z" fill="#000000" fill-opacity="1.000000"/>
  <path d="M216.998 55.7333 L216.998 54.7333 L218.498 54.7333 L218.498 55.7333 L216.998 55.7333 Z" fill="#000000" fill-opacity="1.000000"/>
  <path d="M220.342 50.2333 Q220.342 48.3271 220.733 47.163 Q221.123 45.999 221.897 45.3661 Q222.67 44.7333 223.842 44.7333 Q224.702 44.7333 225.358 45.0849 Q226.014 45.4365 226.436 46.0927 Q226.858 46.749 227.1 47.6943 Q227.342 48.6396 227.342 50.2333 Q227.342 52.1396 226.952 53.3036 Q226.561 54.4677 225.787 55.1005 Q225.014 55.7333 223.842 55.7333 Q222.295 55.7333 221.405 54.624 Q220.342 53.2646 220.342 50.2333 ZM221.702 50.2333 Q221.702 52.9365 222.319 53.8349 Q222.936 54.7333 223.842 54.7333 Q224.748 54.7333 225.366 53.8349 Q225.983 52.9365 225.983 50.2333 Q225.983 47.5146 225.366 46.624 Q224.748 45.7333 223.827 45.7333 Q222.92 45.7333 222.373 46.5146 Q221.702 47.5302 221.702 50.2333 Z" fill="#000000" fill-opacity="1.000000"/>
  <path d="M138.609 55.7333 L137.281 55.7333 L137.281 47.1552 Q136.812 47.624 136.039 48.0849 Q135.265 48.5458 134.656 48.7802 L134.656 47.4833 Q135.765 46.9521 136.586 46.1943 Q137.406 45.4365 137.75 44.7333 L138.609 44.7333 L138.609 55.7333 Z" fill="#000000" fill-opacity="1.000000"/>
  <path d="M146.015 55.7333 L146.015 52.7333 L141.359 52.7333 L141.359 51.7333 L146.265 44.7333 L147.344 44.7333 L147.344 51.7333 L148.797 51.7333 L148.797 52.7333 L147.344 52.7333 L147.344 55.7333 L146.015 55.7333 ZM146.015 51.7333 L146.015 46.9365 L142.656 51.7333 L146.015 51.7333 Z" fill="#000000" fill-opacity="1.000000"/>
  <path d="M150.687 55.7333 L150.687 54.7333 L152.187 54.7333 L152.187 55.7333 L150.687 55.7333 Z" fill="#000000" fill-opacity="1.000000"/>
  <path d="M154.031 50.2333 Q154.031 48.3271 154.422 47.163 Q154.812 45.999 155.586 45.3661 Q156.359 44.7333 157.531 44.7333 Q158.39 44.7333 159.047 45.0849 Q159.703 45.4365 160.125 46.0927 Q160.547 46.749 160.789 47.6943 Q161.031 48.6396 161.031 50.2333 Q161.031 52.1396 160.64 53.3036 Q160.25 54.4677 159.476 55.1005 Q158.703 55.7333 157.531 55.7333 Q155.984 55.7333 155.094 54.624 Q154.031 53.2646 154.031 50.2333 ZM155.39 50.2333 Q155.39 52.9365 156.008 53.8349 Q156.625 54.7333 157.531 54.7333 Q158.437 54.7333 159.055 53.8349 Q159.672 52.9365 159.672 50.2333 Q159.672 47.5146 159.055 46.624 Q158.437 45.7333 157.515 45.7333 Q156.609 45.7333 156.062 46.5146 Q155.39 47.5302 155.39 50.2333 Z" fill="#000000" fill-opacity="1.000000"/>
  <path d="M72.2981 55.7333 L70.97 55.7333 L70.97 47.1552 Q70.5012 47.624 69.7278 48.0849 Q68.9543 48.5458 68.345 48.7802 L68.345 47.4833 Q69.4543 46.9521 70.2747 46.1943 Q71.095 45.4365 71.4387 44.7333 L72.2981 44.7333 L72.2981 55.7333 Z" fill="#000000" fill-opacity="1.000000"/>
  <path d="M75.4856 52.7333 L76.8606 52.7333 Q77.0168 53.7333 77.5793 54.2333 Q78.1418 54.7333 78.9231 54.7333 Q79.8762 54.7333 80.5403 54.0224 Q81.2043 53.3115 81.2043 52.1396 Q81.2043 51.0302 80.5715 50.3818 Q79.9387 49.7333 78.9075 49.7333 Q78.2668 49.7333 77.759 50.0146 Q77.2512 50.2958 76.9543 50.7333 L75.72 50.7333 L76.7512 44.7333 L82.095 44.7333 L82.095 45.7333 L77.8137 45.7333 L77.2356 49.3115 Q78.2043 48.7333 79.2668 48.7333 Q80.6575 48.7333 81.6262 49.6708 Q82.595 50.6083 82.595 52.0615 Q82.595 53.4677 81.7512 54.4833 Q80.72 55.7333 78.9231 55.7333 Q77.47 55.7333 76.5403 54.913 Q75.6106 54.0927 75.4856 52.7333 Z" fill="#000000" fill-opacity="1.000000"/>
  <path d="M84.3762 55.7333 L84.3762 54.7333 L85.8762 54.7333 L85.8762 55.7333 L84.3762 55.7333 Z" fill="#000000" fill-opacity="1.000000"/>
  <path d="M87.72 50.2333 Q87.72 48.3271 88.1106 47.163 Q88.5012 45.999 89.2747 45.3661 Q90.0481 44.7333 91.22 44.7333 Q92.0793 44.7333 92.7356 45.0849 Q93.3918 45.4365 93.8137 46.0927 Q94.2356 46.749 94.4778 47.6943 Q94.72 48.6396 94.72 50.2333 Q94.72 52.1396 94.3293 53.3036 Q93.9387 54.4677 93.1653 55.1005 Q92.3918 55.7333 91.22 55.7333 Q89.6731 55.7333 88.7825 54.624 Q87.72 53.2646 87.72 50.2333 ZM89.0793 50.2333 Q89.0793 52.9365 89.6965 53.8349 Q90.3137 54.7333 91.22 54.7333 Q92.1262 54.7333 92.7434 53.8349 Q93.3606 52.9365 93.3606 50.2333 Q93.3606 47.5146 92.7434 46.624 Q92.1262 45.7333 91.2043 45.7333 Q90.2981 45.7333 89.7512 46.5146 Q89.0793 47.5302 89.0793 50.2333 Z" fill="#000000" fill-opacity="1.000000"/>
  <path d="M5.98698 55.7333 L4.65885 55.7333 L4.65885 47.1552 Q4.1901 47.624 3.41667 48.0849 Q2.64323 48.5458 2.03385 48.7802 L2.03385 47.4833 Q3.14323 46.9521 3.96354 46.1943 Q4.78385 45.4365 5.1276 44.7333 L5.98698 44.7333 L5.98698 55.7333 Z" fill="#000000" fill-opacity="1.000000"/>
  <path d="M16.0182 47.7333 L14.7057 47.7333 Q14.5339 46.8115 14.2057 46.4052 Q13.6745 45.7333 12.8932 45.7333 Q12.2526 45.7333 11.7839 46.124 Q11.1589 46.624 10.7995 47.5771 Q10.4401 48.5302 10.4245 50.1708 Q10.8932 49.4365 11.5885 49.0849 Q12.2839 48.7333 13.0339 48.7333 Q14.3464 48.7333 15.276 49.6865 Q16.2057 50.6396 16.2057 52.1396 Q16.2057 53.124 15.7682 53.9755 Q15.3307 54.8271 14.5729 55.2802 Q13.8151 55.7333 12.8464 55.7333 Q11.1901 55.7333 10.151 54.5146 Q9.11198 53.2958 9.11198 50.5146 Q9.11198 47.3896 10.2682 45.9677 Q11.2682 44.7333 12.9714 44.7333 Q14.237 44.7333 15.0495 45.5302 Q15.862 46.3271 16.0182 47.7333 ZM10.6276 52.1083 Q10.6276 52.7958 10.9167 53.4286 Q11.2057 54.0615 11.7292 54.3974 Q12.2526 54.7333 12.8151 54.7333 Q13.6589 54.7333 14.2604 54.0458 Q14.862 53.3583 14.862 52.1708 Q14.862 51.0458 14.2682 50.3896 Q13.6745 49.7333 12.7682 49.7333 Q11.8776 49.7333 11.2526 50.3896 Q10.6276 51.0458 10.6276 52.1083 Z" fill="#000000" fill-opacity="1.000000"/>
  <path d="M18.0651 55.7333 L18.0651 54.7333 L19.5651 54.7333 L19.5651 55.7333 L18.0651 55.7333 Z" fill="#000000" fill-opacity="1.000000"/>
  <path d="M21.4089 50.2333 Q21.4089 48.3271 21.7995 47.163 Q22.1901 45.999 22.9635 45.3661 Q23.737 44.7333 24.9089 44.7333 Q25.7682 44.7333 26.4245 45.0849 Q27.0807 45.4365 27.5026 46.0927 Q27.9245 46.749 28.1667 47.6943 Q28.4089 48.6396 28.4089 50.2333 Q28.4089 52.1396 28.0182 53.3036 Q27.6276 54.4677 26.8542 55.1005 Q26.0807 55.7333 24.9089 55.7333 Q23.362 55.7333 22.4714 54.624 Q21.4089 53.2646 21.4089 50.2333 ZM22.7682 50.2333 Q22.7682 52.9365 23.3854 53.8349 Q24.0026 54.7333 24.9089 54.7333 Q25.8151 54.7333 26.4323 53.8349 Q27.0495 52.9365 27.0495 50.2333 Q27.0495 47.5146 26.4323 46.624 Q25.8151 45.7333 24.8932 45.7333 Q23.987 45.7333 23.4401 46.5146 Q22.7682 47.5302 22.7682 50.2333 Z" fill="#000000" fill-opacity="1.000000"/>
</svg>