<?xml version="1.0" encoding="UTF-8" ?>
<!-- Generated by clip v0.7.0 (clip-lang.org) -->
<svg xmlns="http://www.w3.org/2000/svg" width="1024.000000" height="60.000000">
  <rect width="1024.000000" height="60.000000" fill="#ffffff" fill-opacity="1.000000"/>
  <path d="M14.6667 30 L1009.33 30 " fill="none" stroke-width="1.333333" stroke="#000000ff"/>
  <path d="M14.6667 32.6667 L14.6667 27.3333 " fill="none" stroke-width="1.333333" stroke="#000000ff"/>
  <path d="M80.9778 32.6667 L80.9778 27.3333 " fill="none" stroke-width="1.333333" stroke="#000000ff"/>
  <path d="M147.289 32.6667 L147.289 27.3333 " fill="none" stroke-width="1.333333" stroke="#000000ff"/>
  <path d="M213.6 32.6667 L213.6 27.3333 " fill="none" stroke-width="1.333333" stroke="#000000ff"/>
  <path d="M279.911 32.6667 L279.911 27.3333 " fill="none" stroke-width="1.333333" stroke="#000000ff"/>
  <path d="M346.222 32.6667 L346.222 27.3333 " fill="none" stroke-width="1.333333" stroke="#000000ff"/>
  <path d="M412.533 32.6667 L412.533 27.3333 " fill="none" stroke-width="1.333333" stroke="#000000ff"/>
  <path d="M478.844 32.6667 L478.844 27.3333 " fill="none" stroke-width="1.333333" stroke="#000000ff"/>
  <path d="M545.156 32.6667 L545.156 27.3333 " fill="none" stroke-width="1.333333" stroke="#000000ff"/>
  <path d="M611.467 32.6667 L611.467 27.3333 " fill="none" stroke-width="1.333333" stroke="#000000ff"/>
  <path d="M677.778 32.6667 L677.778 27.3333 " fill="none" stroke-width="1.333333" stroke="#000000ff"/>
  <path d="M744.089 32.6667 L744.089 27.3333 " fill="none" stroke-width="1.333333" stroke="#000000ff"/>
  <path d="M810.4 32.6667 L810.4 27.3333 " fill="none" stroke-width="1.333333" stroke="#000000ff"/>
  <path d="M876.711 32.6667 L876.711 27.3333 " fill="none" stroke-width="1.333333" stroke="#000000ff"/>
  <path d="M943.022 32.6667 L943.022 27.3333 " fill="none" stroke-width="1.333333" stroke="#000000ff"/>
  <path d="M1009.33 32.6667 L1009.33 27.3333 " fill="none" stroke-width="1.333333" stroke="#000000ff"/>
  <path d="M10.0651 55.7333 L8.73698 55.7333 L8.73698 47.1552 Q8.26823 47.624 7.49479 48.0849 Q6.72135 48.5458 6.11198 48.7802 L6.11198 47.4833 Q7.22135 46.9521 8.04167 46.1943 Q8.86198 45.4365 9.20573 44.7333 L10.0651 44.7333 L10.0651 55.7333 Z" fill="#000000" fill-opacity="1.000000"/>
  <path d="M13.987 55.7333 L13.987 54.7333 L15.487 54.7333 L15.487 55.7333 L13.987 55.7333 Z" fill="#000000" fill-opacity="1.000000"/>
  <path d="M17.3307 50.2333 Q17.3307 48.3271 17.7214 47.163 Q18.112 45.999 18.8854 45.3661 Q19.6589 44.7333 20.8307 44.7333 Q21.6901 44.7333 22.3464 45.0849 Q23.0026 45.4365 23.4245 46.0927 Q23.8464 46.749 24.0885 47.6943 Q24.3307 48.6396 24.3307 50.2333 Q24.3307 52.1396 23.9401 53.3036 Q23.5495 54.4677 22.776 55.1005 Q22.0026 55.7333 20.8307 55.7333 Q19.2839 55.7333 18.3932 54.624 Q17.3307 53.2646 17.3307 50.2333 ZM18.6901 50.2333 Q18.6901 52.9365 19.3073 53.8349 Q19.9245 54.7333 20.8307 54.7333 Q21.737 54.7333 22.3542 53.8349 Q22.9714 52.9365 22.9714 50.2333 Q22.9714 47.5146 22.3542 46.624 Q21.737 45.7333 20.8151 45.7333 Q19.9089 45.7333 19.362 46.5146 Q18.6901 47.5302 18.6901 50.2333 Z" fill="#000000" fill-opacity="1.000000"/>
  <path d="M78.3293 54.7333 L78.3293 55.7333 L71.2356 55.7333 Q71.22 55.3427 71.3918 54.9677 Q71.6575 54.3583 72.259 53.7724 Q72.8606 53.1865 73.9856 52.124 Q75.7356 50.4677 76.3528 49.538 Q76.97 48.6083 76.97 47.7958 Q76.97 46.9208 76.4075 46.3271 Q75.845 45.7333 74.9543 45.7333 Q74.0012 45.7333 73.4231 46.2646 Q72.845 46.7958 72.845 47.7333 L71.4856 47.7333 Q71.6262 46.2646 72.5325 45.499 Q73.4387 44.7333 74.97 44.7333 Q76.5168 44.7333 77.4153 45.624 Q78.3137 46.5146 78.3137 47.8427 Q78.3137 48.5146 78.0481 49.163 Q77.7825 49.8115 77.1731 50.5302 Q76.5637 51.249 75.1418 52.5302 Q73.9543 53.5927 73.6184 53.9677 Q73.2825 54.3427 73.0637 54.7333 L78.3293 54.7333 Z" fill="#000000" fill-opacity="1.000000"/>
  <path d="M80.2981 55.7333 L80.2981 54.7333 L81.7981 54.7333 L81.7981 55.7333 L80.2981 55.7333 Z" fill="#000000" fill-opacity="1.000000"/>
  <path d="M83.6418 50.2333 Q83.6418 48.3271 84.0325 47.163 Q84.4231 45.999 85.1965 45.3661 Q85.97 44.7333 87.1418 44.7333 Q88.0012 44.7333 88.6575 45.0849 Q89.3137 45.4365 89.7356 46.0927 Q90.1575 46.749 90.3997 47.6943 Q90.6418 48.6396 90.6418 50.2333 Q90.6418 52.1396 90.2512 53.3036 Q89.8606 54.4677 89.0872 55.1005 Q88.3137 55.7333 87.1418 55.7333 Q85.595 55.7333 84.7043 54.624 Q83.6418 53.2646 83.6418 50.2333 ZM85.0012 50.2333 Q85.0012 52.9365 85.6184 53.8349 Q86.2356 54.7333 87.1418 54.7333 Q88.0481 54.7333 88.6653 53.8349 Q89.2825 52.9365 89.2825 50.2333 Q89.2825 47.5146 88.6653 46.624 Q88.0481 45.7333 87.1262 45.7333 Q86.22 45.7333 85.6731 46.5146 Q85.0012 47.5302 85.0012 50.2333 Z" fill="#000000" fill-opacity="1.000000"/>
  <path d="M137.719 52.7333 L139.047 52.7333 Q139.281 53.7958 139.82 54.2646 Q140.359 54.7333 141.14 54.7333 Q142.078 54.7333 142.719 54.1161 Q143.359 53.499 143.359 52.5927 Q143.359 51.7177 142.765 51.1474 Q142.172 50.5771 141.25 50.5771 Q140.875 50.5771 140.328 50.7333 L140.469 49.7333 Q140.609 49.749 140.687 49.749 Q141.531 49.749 142.203 49.2411 Q142.875 48.7333 142.875 47.6708 Q142.875 46.8427 142.383 46.288 Q141.89 45.7333 141.109 45.7333 Q140.344 45.7333 139.828 46.2333 Q139.312 46.7333 139.172 47.7333 L137.859 47.7333 Q138.094 46.3115 138.953 45.5224 Q139.812 44.7333 141.094 44.7333 Q141.969 44.7333 142.711 45.1396 Q143.453 45.5458 143.844 46.249 Q144.234 46.9521 144.234 47.749 Q144.234 48.499 143.859 49.1161 Q143.484 49.7333 142.75 50.0927 Q143.703 50.2958 144.226 50.9443 Q144.75 51.5927 144.75 52.5771 Q144.75 53.8896 143.726 54.8115 Q142.703 55.7333 141.125 55.7333 Q139.719 55.7333 138.781 54.8974 Q137.844 54.0615 137.719 52.7333 Z" fill="#000000" fill-opacity="1.000000"/>
  <path d="M146.609 55.7333 L146.609 54.7333 L148.109 54.7333 L148.109 55.7333 L146.609 55.7333 Z" fill="#000000" fill-opacity="1.000000"/>
  <path d="M149.953 50.2333 Q149.953 48.3271 150.344 47.163 Q150.734 45.999 151.508 45.3661 Q152.281 44.7333 153.453 44.7333 Q154.312 44.7333 154.969 45.0849 Q155.625 45.4365 156.047 46.0927 Q156.469 46.749 156.711 47.6943 Q156.953 48.6396 156.953 50.2333 Q156.953 52.1396 156.562 53.3036 Q156.172 54.4677 155.398 55.1005 Q154.625 55.7333 153.453 55.7333 Q151.906 55.7333 151.015 54.624 Q149.953 53.2646 149.953 50.2333 ZM151.312 50.2333 Q151.312 52.9365 151.93 53.8349 Q152.547 54.7333 153.453 54.7333 Q154.359 54.7333 154.976 53.8349 Q155.594 52.9365 155.594 50.2333 Q155.594 47.5146 154.976 46.624 Q154.359 45.7333 153.437 45.7333 Q152.531 45.7333 151.984 46.5146 Q151.312 47.5302 151.312 50.2333 Z" fill="#000000" fill-opacity="1.000000"/>
  <path d="M208.248 55.7333 L208.248 52.7333 L203.592 52.7333 L203.592 51.7333 L208.498 44.7333 L209.577 44.7333 L209.577 51.7333 L211.03 51.7333 L211.03 52.7333 L209.577 52.7333 L209.577 55.7333 L208.248 55.7333 ZM208.248 51.7333 L208.248 46.9365 L204.889 51.7333 L208.248 51.7333 Z" fill="#000000" fill-opacity="1.000000"/>
  <path d="M212.92 55.7333 L212.92 54.7333 L214.42 54.7333 L214.42 55.7333 L212.92 55.7333 Z" fill="#000000" fill-opacity="1.000000"/>
  <path d="M216.264 50.2333 Q216.264 48.3271 216.655 47.163 Q217.045 45.999 217.819 45.3661 Q218.592 44.7333 219.764 44.7333 Q220.623 44.7333 221.28 45.0849 Q221.936 45.4365 222.358 46.0927 Q222.78 46.749 223.022 47.6943 Q223.264 48.6396 223.264 50.2333 Q223.264 52.1396 222.873 53.3036 Q222.483 54.4677 221.709 55.1005 Q220.936 55.7333 219.764 55.7333 Q218.217 55.7333 217.327 54.624 Q216.264 53.2646 216.264 50.2333 ZM217.623 50.2333 Q217.623 52.9365 218.241 53.8349 Q218.858 54.7333 219.764 54.7333 Q220.67 54.7333 221.287 53.8349 Q221.905 52.9365 221.905 50.2333 Q221.905 47.5146 221.287 46.624 Q220.67 45.7333 219.748 45.7333 Q218.842 45.7333 218.295 46.5146 Q217.623 47.5302 217.623 50.2333 Z" fill="#000000" fill-opacity="1.000000"/>
  <path d="M270.341 52.7333 L271.716 52.7333 Q271.872 53.7333 272.435 54.2333 Q272.997 54.7333 273.778 54.7333 Q274.731 54.7333 275.395 54.0224 Q276.06 53.3115 276.06 52.1396 Q276.06 51.0302 275.427 50.3818 Q274.794 49.7333 273.763 49.7333 Q273.122 49.7333 272.614 50.0146 Q272.106 50.2958 271.81 50.7333 L270.575 50.7333 L271.606 44.7333 L276.95 44.7333 L276.95 45.7333 L272.669 45.7333 L272.091 49.3115 Q273.06 48.7333 274.122 48.7333 Q275.513 48.7333 276.481 49.6708 Q277.45 50.6083 277.45 52.0615 Q277.45 53.4677 276.606 54.4833 Q275.575 55.7333 273.778 55.7333 Q272.325 55.7333 271.395 54.913 Q270.466 54.0927 270.341 52.7333 Z" fill="#000000" fill-opacity="1.000000"/>
  <path d="M279.231 55.7333 L279.231 54.7333 L280.731 54.7333 L280.731 55.7333 L279.231 55.7333 Z" fill="#000000" fill-opacity="1.000000"/>
  <path d="M282.575 50.2333 Q282.575 48.3271 282.966 47.163 Q283.356 45.999 284.13 45.3661 Q284.903 44.7333 286.075 44.7333 Q286.935 44.7333 287.591 45.0849 Q288.247 45.4365 288.669 46.0927 Q289.091 46.749 289.333 47.6943 Q289.575 48.6396 289.575 50.2333 Q289.575 52.1396 289.185 53.3036 Q288.794 54.4677 288.02 55.1005 Q287.247 55.7333 286.075 55.7333 Q284.528 55.7333 283.638 54.624 Q282.575 53.2646 282.575 50.2333 ZM283.935 50.2333 Q283.935 52.9365 284.552 53.8349 Q285.169 54.7333 286.075 54.7333 Q286.981 54.7333 287.599 53.8349 Q288.216 52.9365 288.216 50.2333 Q288.216 47.5146 287.599 46.624 Q286.981 45.7333 286.06 45.7333 Q285.153 45.7333 284.606 46.5146 Q283.935 47.5302 283.935 50.2333 Z" fill="#000000" fill-opacity="1.000000"/>
  <path d="M343.496 47.7333 L342.183 47.7333 Q342.011 46.8115 341.683 46.4052 Q341.152 45.7333 340.371 45.7333 Q339.73 45.7333 339.261 46.124 Q338.636 46.624 338.277 47.5771 Q337.918 48.5302 337.902 50.1708 Q338.371 49.4365 339.066 49.0849 Q339.761 48.7333 340.511 48.7333 Q341.824 48.7333 342.753 49.6865 Q343.683 50.6396 343.683 52.1396 Q343.683 53.124 343.246 53.9755 Q342.808 54.8271 342.05 55.2802 Q341.293 55.7333 340.324 55.7333 Q338.668 55.7333 337.628 54.5146 Q336.589 53.2958 336.589 50.5146 Q336.589 47.3896 337.746 45.9677 Q338.746 44.7333 340.449 44.7333 Q341.714 44.7333 342.527 45.5302 Q343.339 46.3271 343.496 47.7333 ZM338.105 52.1083 Q338.105 52.7958 338.394 53.4286 Q338.683 54.0615 339.207 54.3974 Q339.73 54.7333 340.293 54.7333 Q341.136 54.7333 341.738 54.0458 Q342.339 53.3583 342.339 52.1708 Q342.339 51.0458 341.746 50.3896 Q341.152 49.7333 340.246 49.7333 Q339.355 49.7333 338.73 50.3896 Q338.105 51.0458 338.105 52.1083 Z" fill="#000000" fill-opacity="1.000000"/>
  <path d="M345.543 55.7333 L345.543 54.7333 L347.043 54.7333 L347.043 55.7333 L345.543 55.7333 Z" fill="#000000" fill-opacity="1.000000"/>
  <path d="M348.886 50.2333 Q348.886 48.3271 349.277 47.163 Q349.668 45.999 350.441 45.3661 Q351.214 44.7333 352.386 44.7333 Q353.246 44.7333 353.902 45.0849 Q354.558 45.4365 354.98 46.0927 Q355.402 46.749 355.644 47.6943 Q355.886 48.6396 355.886 50.2333 Q355.886 52.1396 355.496 53.3036 Q355.105 54.4677 354.332 55.1005 Q353.558 55.7333 352.386 55.7333 Q350.839 55.7333 349.949 54.624 Q348.886 53.2646 348.886 50.2333 ZM350.246 50.2333 Q350.246 52.9365 350.863 53.8349 Q351.48 54.7333 352.386 54.7333 Q353.293 54.7333 353.91 53.8349 Q354.527 52.9365 354.527 50.2333 Q354.527 47.5146 353.91 46.624 Q353.293 45.7333 352.371 45.7333 Q351.464 45.7333 350.918 46.5146 Q350.246 47.5302 350.246 50.2333 Z" fill="#000000" fill-opacity="1.000000"/>
  <path d="M403.041 45.7333 L403.041 44.7333 L409.994 44.7333 L409.994 45.5458 Q408.979 46.6396 407.971 48.5771 Q406.963 50.5146 406.401 52.5615 Q406.01 54.0146 405.901 55.7333 L404.557 55.7333 Q404.572 54.374 405.049 52.4521 Q405.526 50.5302 406.416 48.7411 Q407.307 46.9521 408.307 45.7333 L403.041 45.7333 Z" fill="#000000" fill-opacity="1.000000"/>
  <path d="M411.854 55.7333 L411.854 54.7333 L413.354 54.7333 L413.354 55.7333 L411.854 55.7333 Z" fill="#000000" fill-opacity="1.000000"/>
  <path d="M415.197 50.2333 Q415.197 48.3271 415.588 47.163 Q415.979 45.999 416.752 45.3661 Q417.526 44.7333 418.697 44.7333 Q419.557 44.7333 420.213 45.0849 Q420.869 45.4365 421.291 46.0927 Q421.713 46.749 421.955 47.6943 Q422.197 48.6396 422.197 50.2333 Q422.197 52.1396 421.807 53.3036 Q421.416 54.4677 420.643 55.1005 Q419.869 55.7333 418.697 55.7333 Q417.151 55.7333 416.26 54.624 Q415.197 53.2646 415.197 50.2333 ZM416.557 50.2333 Q416.557 52.9365 417.174 53.8349 Q417.791 54.7333 418.697 54.7333 Q419.604 54.7333 420.221 53.8349 Q420.838 52.9365 420.838 50.2333 Q420.838 47.5146 420.221 46.624 Q419.604 45.7333 418.682 45.7333 Q417.776 45.7333 417.229 46.5146 Q416.557 47.5302 416.557 50.2333 Z" fill="#000000" fill-opacity="1.000000"/>
  <path d="M471.305 50.2021 Q470.493 49.874 470.094 49.2568 Q469.696 48.6396 469.696 47.7802 Q469.696 46.499 470.54 45.6161 Q471.384 44.7333 472.774 44.7333 Q474.18 44.7333 475.04 45.6318 Q475.899 46.5302 475.899 47.8271 Q475.899 48.6552 475.501 49.2646 Q475.102 49.874 474.305 50.2021 Q475.305 50.499 475.821 51.163 Q476.337 51.8271 476.337 52.7333 Q476.337 53.999 475.36 54.8661 Q474.384 55.7333 472.805 55.7333 Q471.212 55.7333 470.235 54.8661 Q469.259 53.999 469.259 52.7021 Q469.259 51.7333 469.79 51.0849 Q470.321 50.4365 471.305 50.2021 ZM471.04 47.6865 Q471.04 48.5927 471.532 49.163 Q472.024 49.7333 472.805 49.7333 Q473.571 49.7333 474.055 49.163 Q474.54 48.5927 474.54 47.7646 Q474.54 46.9052 474.04 46.3193 Q473.54 45.7333 472.79 45.7333 Q472.04 45.7333 471.54 46.3036 Q471.04 46.874 471.04 47.6865 ZM470.618 52.7177 Q470.618 53.2333 470.884 53.7177 Q471.149 54.2021 471.673 54.4677 Q472.196 54.7333 472.805 54.7333 Q473.743 54.7333 474.36 54.1708 Q474.977 53.6083 474.977 52.749 Q474.977 51.874 474.344 51.3036 Q473.712 50.7333 472.759 50.7333 Q471.837 50.7333 471.227 51.2958 Q470.618 51.8583 470.618 52.7177 Z" fill="#000000" fill-opacity="1.000000"/>
  <path d="M478.165 55.7333 L478.165 54.7333 L479.665 54.7333 L479.665 55.7333 L478.165 55.7333 Z" fill="#000000" fill-opacity="1.000000"/>
  <path d="M481.509 50.2333 Q481.509 48.3271 481.899 47.163 Q482.29 45.999 483.063 45.3661 Q483.837 44.7333 485.009 44.7333 Q485.868 44.7333 486.524 45.0849 Q487.18 45.4365 487.602 46.0927 Q488.024 46.749 488.266 47.6943 Q488.509 48.6396 488.509 50.2333 Q488.509 52.1396 488.118 53.3036 Q487.727 54.4677 486.954 55.1005 Q486.18 55.7333 485.009 55.7333 Q483.462 55.7333 482.571 54.624 Q481.509 53.2646 481.509 50.2333 ZM482.868 50.2333 Q482.868 52.9365 483.485 53.8349 Q484.102 54.7333 485.009 54.7333 Q485.915 54.7333 486.532 53.8349 Q487.149 52.9365 487.149 50.2333 Q487.149 47.5146 486.532 46.624 Q485.915 45.7333 484.993 45.7333 Q484.087 45.7333 483.54 46.5146 Q482.868 47.5302 482.868 50.2333 Z" fill="#000000" fill-opacity="1.000000"/>
  <path d="M535.788 52.7333 L537.054 52.7333 Q537.21 53.7802 537.663 54.2568 Q538.116 54.7333 538.835 54.7333 Q539.429 54.7333 539.89 54.4286 Q540.351 54.124 540.64 53.6161 Q540.929 53.1083 541.132 52.2568 Q541.335 51.4052 541.335 50.5771 Q541.335 50.499 541.32 50.3271 Q540.929 50.9521 540.241 51.3427 Q539.554 51.7333 538.757 51.7333 Q537.429 51.7333 536.507 50.788 Q535.585 49.8427 535.585 48.2802 Q535.585 46.6865 536.546 45.7099 Q537.507 44.7333 538.96 44.7333 Q540.007 44.7333 540.874 45.2958 Q541.741 45.8583 542.195 46.9052 Q542.648 47.9521 542.648 49.9365 Q542.648 52.0146 542.202 53.2333 Q541.757 54.4521 540.874 55.0927 Q539.991 55.7333 538.804 55.7333 Q537.538 55.7333 536.741 54.9443 Q535.945 54.1552 535.788 52.7333 ZM541.179 48.2646 Q541.179 47.0927 540.577 46.413 Q539.976 45.7333 539.116 45.7333 Q538.241 45.7333 537.593 46.4677 Q536.945 47.2021 536.945 48.374 Q536.945 49.4208 537.562 50.0771 Q538.179 50.7333 539.085 50.7333 Q540.007 50.7333 540.593 50.0771 Q541.179 49.4208 541.179 48.2646 Z" fill="#000000" fill-opacity="1.000000"/>
  <path d="M544.476 55.7333 L544.476 54.7333 L545.976 54.7333 L545.976 55.7333 L544.476 55.7333 Z" fill="#000000" fill-opacity="1.000000"/>
  <path d="M547.82 50.2333 Q547.82 48.3271 548.21 47.163 Q548.601 45.999 549.374 45.3661 Q550.148 44.7333 551.32 44.7333 Q552.179 44.7333 552.835 45.0849 Q553.491 45.4365 553.913 46.0927 Q554.335 46.749 554.577 47.6943 Q554.82 48.6396 554.82 50.2333 Q554.82 52.1396 554.429 53.3036 Q554.038 54.4677 553.265 55.1005 Q552.491 55.7333 551.32 55.7333 Q549.773 55.7333 548.882 54.624 Q547.82 53.2646 547.82 50.2333 ZM549.179 50.2333 Q549.179 52.9365 549.796 53.8349 Q550.413 54.7333 551.32 54.7333 Q552.226 54.7333 552.843 53.8349 Q553.46 52.9365 553.46 50.2333 Q553.46 47.5146 552.843 46.624 Q552.226 45.7333 551.304 45.7333 Q550.398 45.7333 549.851 46.5146 Q549.179 47.5302 549.179 50.2333 Z" fill="#000000" fill-opacity="1.000000"/>
  <path d="M602.787 55.7333 L601.459 55.7333 L601.459 47.1552 Q600.99 47.624 600.217 48.0849 Q599.443 48.5458 598.834 48.7802 L598.834 47.4833 Q599.943 46.9521 600.764 46.1943 Q601.584 45.4365 601.928 44.7333 L602.787 44.7333 L602.787 55.7333 Z" fill="#000000" fill-opacity="1.000000"/>
  <path d="M605.974 50.2333 Q605.974 48.3271 606.365 47.163 Q606.756 45.999 607.529 45.3661 Q608.303 44.7333 609.474 44.7333 Q610.334 44.7333 610.99 45.0849 Q611.646 45.4365 612.068 46.0927 Q612.49 46.749 612.732 47.6943 Q612.974 48.6396 612.974 50.2333 Q612.974 52.1396 612.584 53.3036 Q612.193 54.4677 611.42 55.1005 Q610.646 55.7333 609.474 55.7333 Q607.928 55.7333 607.037 54.624 Q605.974 53.2646 605.974 50.2333 ZM607.334 50.2333 Q607.334 52.9365 607.951 53.8349 Q608.568 54.7333 609.474 54.7333 Q610.381 54.7333 610.998 53.8349 Q611.615 52.9365 611.615 50.2333 Q611.615 47.5146 610.998 46.624 Q610.381 45.7333 609.459 45.7333 Q608.553 45.7333 608.006 46.5146 Q607.334 47.5302 607.334 50.2333 Z" fill="#000000" fill-opacity="1.000000"/>
  <path d="M614.865 55.7333 L614.865 54.7333 L616.365 54.7333 L616.365 55.7333 L614.865 55.7333 Z" fill="#000000" fill-opacity="1.000000"/>
  <path d="M618.209 50.2333 Q618.209 48.3271 618.599 47.163 Q618.99 45.999 619.764 45.3661 Q620.537 44.7333 621.709 44.7333 Q622.568 44.7333 623.224 45.0849 Q623.881 45.4365 624.303 46.0927 Q624.724 46.749 624.967 47.6943 Q625.209 48.6396 625.209 50.2333 Q625.209 52.1396 624.818 53.3036 Q624.428 54.4677 623.654 55.1005 Q622.881 55.7333 621.709 55.7333 Q620.162 55.7333 619.271 54.624 Q618.209 53.2646 618.209 50.2333 ZM619.568 50.2333 Q619.568 52.9365 620.185 53.8349 Q620.803 54.7333 621.709 54.7333 Q622.615 54.7333 623.232 53.8349 Q623.849 52.9365 623.849 50.2333 Q623.849 47.5146 623.232 46.624 Q622.615 45.7333 621.693 45.7333 Q620.787 45.7333 620.24 46.5146 Q619.568 47.5302 619.568 50.2333 Z" fill="#000000" fill-opacity="1.000000"/>
  <path d="M669.645 55.7333 L668.317 55.7333 L668.317 47.1552 Q667.848 47.624 667.075 48.0849 Q666.301 48.5458 665.692 48.7802 L665.692 47.4833 Q666.801 46.9521 667.622 46.1943 Q668.442 45.4365 668.786 44.7333 L669.645 44.7333 L669.645 55.7333 Z" fill="#000000" fill-opacity="1.000000"/>
  <path d="M677.254 55.7333 L675.926 55.7333 L675.926 47.1552 Q675.457 47.624 674.684 48.0849 Q673.911 48.5458 673.301 48.7802 L673.301 47.4833 Q674.411 46.9521 675.231 46.1943 Q676.051 45.4365 676.395 44.7333 L677.254 44.7333 L677.254 55.7333 Z" fill="#000000" fill-opacity="1.000000"/>
  <path d="M680.629 55.7333 L680.629 54.7333 L682.129 54.7333 L682.129 55.7333 L680.629 55.7333 Z" fill="#000000" fill-opacity="1.000000"/>
  <path d="M683.973 50.2333 Q683.973 48.3271 684.364 47.163 Q684.754 45.999 685.528 45.3661 Q686.301 44.7333 687.473 44.7333 Q688.332 44.7333 688.989 45.0849 Q689.645 45.4365 690.067 46.0927 Q690.489 46.749 690.731 47.6943 Q690.973 48.6396 690.973 50.2333 Q690.973 52.1396 690.582 53.3036 Q690.192 54.4677 689.418 55.1005 Q688.645 55.7333 687.473 55.7333 Q685.926 55.7333 685.036 54.624 Q683.973 53.2646 683.973 50.2333 ZM685.332 50.2333 Q685.332 52.9365 685.95 53.8349 Q686.567 54.7333 687.473 54.7333 Q688.379 54.7333 688.997 53.8349 Q689.614 52.9365 689.614 50.2333 Q689.614 47.5146 688.997 46.624 Q688.379 45.7333 687.457 45.7333 Q686.551 45.7333 686.004 46.5146 Q685.332 47.5302 685.332 50.2333 Z" fill="#000000" fill-opacity="1.000000"/>
  <path d="M735.409 55.7333 L734.081 55.7333 L734.081 47.1552 Q733.612 47.624 732.839 48.0849 Q732.065 48.5458 731.456 48.7802 L731.456 47.4833 Q732.565 46.9521 733.386 46.1943 Q734.206 45.4365 734.55 44.7333 L735.409 44.7333 L735.409 55.7333 Z" fill="#000000" fill-opacity="1.000000"/>
  <path d="M745.519 54.7333 L745.519 55.7333 L738.425 55.7333 Q738.409 55.3427 738.581 54.9677 Q738.847 54.3583 739.448 53.7724 Q740.05 53.1865 741.175 52.124 Q742.925 50.4677 743.542 49.538 Q744.159 48.6083 744.159 47.7958 Q744.159 46.9208 743.597 46.3271 Q743.034 45.7333 742.144 45.7333 Q741.19 45.7333 740.612 46.2646 Q740.034 46.7958 740.034 47.7333 L738.675 47.7333 Q738.815 46.2646 739.722 45.499 Q740.628 44.7333 742.159 44.7333 Q743.706 44.7333 744.605 45.624 Q745.503 46.5146 745.503 47.8427 Q745.503 48.5146 745.237 49.163 Q744.972 49.8115 744.362 50.5302 Q743.753 51.249 742.331 52.5302 Q741.144 53.5927 740.808 53.9677 Q740.472 54.3427 740.253 54.7333 L745.519 54.7333 Z" fill="#000000" fill-opacity="1.000000"/>
  <path d="M747.487 55.7333 L747.487 54.7333 L748.987 54.7333 L748.987 55.7333 L747.487 55.7333 Z" fill="#000000" fill-opacity="1.000000"/>
  <path d="M750.831 50.2333 Q750.831 48.3271 751.222 47.163 Q751.612 45.999 752.386 45.3661 Q753.159 44.7333 754.331 44.7333 Q755.19 44.7333 755.847 45.0849 Q756.503 45.4365 756.925 46.0927 Q757.347 46.749 757.589 47.6943 Q757.831 48.6396 757.831 50.2333 Q757.831 52.1396 757.44 53.3036 Q757.05 54.4677 756.276 55.1005 Q755.503 55.7333 754.331 55.7333 Q752.784 55.7333 751.894 54.624 Q750.831 53.2646 750.831 50.2333 ZM752.19 50.2333 Q752.19 52.9365 752.808 53.8349 Q753.425 54.7333 754.331 54.7333 Q755.237 54.7333 755.855 53.8349 Q756.472 52.9365 756.472 50.2333 Q756.472 47.5146 755.855 46.624 Q755.237 45.7333 754.315 45.7333 Q753.409 45.7333 752.862 46.5146 Q752.19 47.5302 752.19 50.2333 Z" fill="#000000" fill-opacity="1.000000"/>
  <path d="M801.72 55.7333 L800.392 55.7333 L800.392 47.1552 Q799.923 47.624 799.15 48.0849 Q798.377 48.5458 797.767 48.7802 L797.767 47.4833 Q798.877 46.9521 799.697 46.1943 Q800.517 45.4365 800.861 44.7333 L801.72 44.7333 L801.72 55.7333 Z" fill="#000000" fill-opacity="1.000000"/>
  <path d="M804.908 52.7333 L806.236 52.7333 Q806.47 53.7958 807.009 54.2646 Q807.548 54.7333 808.33 54.7333 Q809.267 54.7333 809.908 54.1161 Q810.548 53.499 810.548 52.5927 Q810.548 51.7177 809.955 51.1474 Q809.361 50.5771 808.439 50.5771 Q808.064 50.5771 807.517 50.7333 L807.658 49.7333 Q807.798 49.749 807.877 49.749 Q808.72 49.749 809.392 49.2411 Q810.064 48.7333 810.064 47.6708 Q810.064 46.8427 809.572 46.288 Q809.08 45.7333 808.298 45.7333 Q807.533 45.7333 807.017 46.2333 Q806.502 46.7333 806.361 47.7333 L805.048 47.7333 Q805.283 46.3115 806.142 45.5224 Q807.002 44.7333 808.283 44.7333 Q809.158 44.7333 809.9 45.1396 Q810.642 45.5458 811.033 46.249 Q811.423 46.9521 811.423 47.749 Q811.423 48.499 811.048 49.1161 Q810.673 49.7333 809.939 50.0927 Q810.892 50.2958 811.416 50.9443 Q811.939 51.5927 811.939 52.5771 Q811.939 53.8896 810.916 54.8115 Q809.892 55.7333 808.314 55.7333 Q806.908 55.7333 805.97 54.8974 Q805.033 54.0615 804.908 52.7333 Z" fill="#000000" fill-opacity="1.000000"/>
  <path d="M813.798 55.7333 L813.798 54.7333 L815.298 54.7333 L815.298 55.7333 L813.798 55.7333 Z" fill="#000000" fill-opacity="1.000000"/>
  <path d="M817.142 50.2333 Q817.142 48.3271 817.533 47.163 Q817.923 45.999 818.697 45.3661 Q819.47 44.7333 820.642 44.7333 Q821.502 44.7333 822.158 45.0849 Q822.814 45.4365 823.236 46.0927 Q823.658 46.749 823.9 47.6943 Q824.142 48.6396 824.142 50.2333 Q824.142 52.1396 823.752 53.3036 Q823.361 54.4677 822.587 55.1005 Q821.814 55.7333 820.642 55.7333 Q819.095 55.7333 818.205 54.624 Q817.142 53.2646 817.142 50.2333 ZM818.502 50.2333 Q818.502 52.9365 819.119 53.8349 Q819.736 54.7333 820.642 54.7333 Q821.548 54.7333 822.166 53.8349 Q822.783 52.9365 822.783 50.2333 Q822.783 47.5146 822.166 46.624 Q821.548 45.7333 820.627 45.7333 Q819.72 45.7333 819.173 46.5146 Q818.502 47.5302 818.502 50.2333 Z" fill="#000000" fill-opacity="1.000000"/>
  <path d="M868.031 55.7333 L866.703 55.7333 L866.703 47.1552 Q866.235 47.624 865.461 48.0849 Q864.688 48.5458 864.078 48.7802 L864.078 47.4833 Q865.188 46.9521 866.008 46.1943 Q866.828 45.4365 867.172 44.7333 L868.031 44.7333 L868.031 55.7333 Z" fill="#000000" fill-opacity="1.000000"/>
  <path d="M875.438 55.7333 L875.438 52.7333 L870.781 52.7333 L870.781 51.7333 L875.688 44.7333 L876.766 44.7333 L876.766 51.7333 L878.219 51.7333 L878.219 52.7333 L876.766 52.7333 L876.766 55.7333 L875.438 55.7333 ZM875.438 51.7333 L875.438 46.9365 L872.078 51.7333 L875.438 51.7333 Z" fill="#000000" fill-opacity="1.000000"/>
  <path d="M880.11 55.7333 L880.11 54.7333 L881.61 54.7333 L881.61 55.7333 L880.11 55.7333 Z" fill="#000000" fill-opacity="1.000000"/>
  <path d="M883.453 50.2333 Q883.453 48.3271 883.844 47.163 Q884.235 45.999 885.008 45.3661 Q885.781 44.7333 886.953 44.7333 Q887.813 44.7333 888.469 45.0849 Q889.125 45.4365 889.547 46.0927 Q889.969 46.749 890.211 47.6943 Q890.453 48.6396 890.453 50.2333 Q890.453 52.1396 890.063 53.3036 Q889.672 54.4677 888.899 55.1005 Q888.125 55.7333 886.953 55.7333 Q885.406 55.7333 884.516 54.624 Q883.453 53.2646 883.453 50.2333 ZM884.813 50.2333 Q884.813 52.9365 885.43 53.8349 Q886.047 54.7333 886.953 54.7333 Q887.86 54.7333 888.477 53.8349 Q889.094 52.9365 889.094 50.2333 Q889.094 47.5146 888.477 46.624 Q887.86 45.7333 886.938 45.7333 Q886.031 45.7333 885.485 46.5146 Q884.813 47.5302 884.813 50.2333 Z" fill="#000000" fill-opacity="1.000000"/>
  <path d="M934.343 55.7333 L933.014 55.7333 L933.014 47.1552 Q932.546 47.624 931.772 48.0849 Q930.999 48.5458 930.389 48.7802 L930.389 47.4833 Q931.499 46.9521 932.319 46.1943 Q933.139 45.4365 933.483 44.7333 L934.343 44.7333 L934.343 55.7333 Z" fill="#000000" fill-opacity="1.000000"/>
  <path d="M937.53 52.7333 L938.905 52.7333 Q939.061 53.7333 939.624 54.2333 Q940.186 54.7333 940.968 54.7333 Q941.921 54.7333 942.585 54.0224 Q943.249 53.3115 943.249 52.1396 Q943.249 51.0302 942.616 50.3818 Q941.983 49.7333 940.952 49.7333 Q940.311 49.7333 939.803 50.0146 Q939.296 50.2958 938.999 50.7333 L937.764 50.7333 L938.796 44.7333 L944.139 44.7333 L944.139 45.7333 L939.858 45.7333 L939.28 49.3115 Q940.249 48.7333 941.311 48.7333 Q942.702 48.7333 943.671 49.6708 Q944.639 50.6083 944.639 52.0615 Q944.639 53.4677 943.796 54.4833 Q942.764 55.7333 940.968 55.7333 Q939.514 55.7333 938.585 54.913 Q937.655 54.0927 937.53 52.7333 Z" fill="#000000" fill-opacity="1.000000"/>
  <path d="M946.421 55.7333 L946.421 54.7333 L947.921 54.7333 L947.921 55.7333 L946.421 55.7333 Z" fill="#000000" fill-opacity="1.000000"/>
  <path d="M949.764 50.2333 Q949.764 48.3271 950.155 47.163 Q950.546 45.999 951.319 45.3661 Q952.093 44.7333 953.264 44.7333 Q954.124 44.7333 954.78 45.0849 Q955.436 45.4365 955.858 46.0927 Q956.28 46.749 956.522 47.6943 Q956.764 48.6396 956.764 50.2333 Q956.764 52.1396 956.374 53.3036 Q955.983 54.4677 955.21 55.1005 Q954.436 55.7333 953.264 55.7333 Q951.718 55.7333 950.827 54.624 Q949.764 53.2646 949.764 50.2333 ZM951.124 50.2333 Q951.124 52.9365 951.741 53.8349 Q952.358 54.7333 953.264 54.7333 Q954.171 54.7333 954.788 53.8349 Q955.405 52.9365 955.405 50.2333 Q955.405 47.5146 954.788 46.624 Q954.171 45.7333 953.249 45.7333 Q952.343 45.7333 951.796 46.5146 Q951.124 47.5302 951.124 50.2333 Z" fill="#000000" fill-opacity="1.000000"/>
  <path d="M1000.65 55.7333 L999.326 55.7333 L999.326 47.1552 Q998.857 47.624 998.083 48.0849 Q997.31 48.5458 996.701 48.7802 L996.701 47.4833 Q997.81 46.9521 998.63 46.1943 Q999.451 45.4365 999.794 44.7333 L1000.65 44.7333 L1000.65 55.7333 Z" fill="#000000" fill-opacity="1.000000"/>
  <path d="M1010.68 47.7333 L1009.37 47.7333 Q1009.2 46.8115 1008.87 46.4052 Q1008.34 45.7333 1007.56 45.7333 Q1006.92 45.7333 1006.45 46.124 Q1005.83 46.624 1005.47 47.5771 Q1005.11 48.5302 1005.09 50.1708 Q1005.56 49.4365 1006.26 49.0849 Q1006.95 48.7333 1007.7 48.7333 Q1009.01 48.7333 1009.94 49.6865 Q1010.87 50.6396 1010.87 52.1396 Q1010.87 53.124 1010.43 53.9755 Q1010 54.8271 1009.24 55.2802 Q1008.48 55.7333 1007.51 55.7333 Q1005.86 55.7333 1004.82 54.5146 Q1003.78 53.2958 1003.78 50.5146 Q1003.78 47.3896 1004.93 45.9677 Q1005.93 44.7333 1007.64 44.7333 Q1008.9 44.7333 1009.72 45.5302 Q1010.53 46.3271 1010.68 47.7333 ZM1005.29 52.1083 Q1005.29 52.7958 1005.58 53.4286 Q1005.87 54.0615 1006.4 54.3974 Q1006.92 54.7333 1007.48 54.7333 Q1008.33 54.7333 1008.93 54.0458 Q1009.53 53.3583 1009.53 52.1708 Q1009.53 51.0458 1008.93 50.3896 Q1008.34 49.7333 1007.43 49.7333 Q1006.54 49.7333 1005.92 50.3896 Q1005.29 51.0458 1005.29 52.1083 Z" fill="#000000" fill-opacity="1.000000"/>
  <path d="M1012.73 55.7333 L1012.73 54.7333 L1014.23 54.7333 L1014.23 55.7333 L1012.73 55.7333 Z" fill="#000000" fill-opacity="1.000000"/>
  <path d="M1016.08 50.2333 Q1016.08 48.3271 1016.47 47.163 Q1016.86 45.999 1017.63 45.3661 Q1018.4 44.7333 1019.58 44.7333 Q1020.43 44.7333 1021.09 45.0849 Q1021.75 45.4365 1022.17 46.0927 Q1022.59 46.749 1022.83 47.6943 Q1023.08 48.6396 1023.08 50.2333 Q1023.08 52.1396 1022.68 53.3036 Q1022.29 54.4677 1021.52 55.1005 Q1020.75 55.7333 1019.58 55.7333 Q1018.03 55.7333 1017.14 54.624 Q1016.08 53.2646 1016.08 50.2333 ZM1017.43 50.2333 Q1017.43 52.9365 1018.05 53.8349 Q1018.67 54.7333 1019.58 54.7333 Q1020.48 54.7333 1021.1 53.8349 Q1021.72 52.9365 1021.72 50.2333 Q1021.72 47.5146 1021.1 46.624 Q1020.48 45.7333 1019.56 45.7333 Q1018.65 45.7333 1018.11 46.5146 Q1017.43 47.5302 1017.43 50.2333 Z" fill="#000000" fill-opacity="1.000000"/>
</svg>