<?xml version="1.0" encoding="UTF-8" ?>
<!-- Generated by clip v0.8.0 (clip-lang.org) -->
<svg xmlns="http://www.w3.org/2000/svg" width="1024" height="60">
  <rect width="1024" height="60" fill="#ffffff" fill-opacity="1"/>
  <path d="M14.667 30 L1009.333 30" fill="none" stroke="#000000" stroke-width="1.333"/>
  <path d="M14.667 32.667 L14.667 27.333" fill="none" stroke="#000000" stroke-width="1.333"/>
  <path d="M89.523 32.667 L89.523 27.333" fill="none" stroke="#000000" stroke-width="1.333"/>
  <path d="M133.311 32.667 L133.311 27.333" fill="none" stroke="#000000" stroke-width="1.333"/>
  <path d="M164.379 32.667 L164.379 27.333" fill="none" stroke="#000000" stroke-width="1.333"/>
  <path d="M188.477 32.667 L188.477 27.333" fill="none" stroke="#000000" stroke-width="1.333"/>
  <path d="M208.167 32.667 L208.167 27.333" fill="none" stroke="#000000" stroke-width="1.333"/>
  <path d="M224.814 32.667 L224.814 27.333" fill="none" stroke="#000000" stroke-width="1.333"/>
  <path d="M239.235 32.667 L239.235 27.333" fill="none" stroke="#000000" stroke-width="1.333"/>
  <path d="M251.955 32.667 L251.955 27.333" fill="none" stroke="#000000" stroke-width="1.333"/>
  <path d="M263.333 32.667 L263.333 27.333" fill="none" stroke="#000000" stroke-width="1.333"/>
  <path d="M338.189 32.667 L338.189 27.333" fill="none" stroke="#000000" stroke-width="1.333"/>
  <path d="M381.977 32.667 L381.977 27.333" fill="none" stroke="#000000" stroke-width="1.333"/>
  <path d="M413.046 32.667 L413.046 27.333" fill="none" stroke="#000000" stroke-width="1.333"/>
  <path d="M437.144 32.667 L437.144 27.333" fill="none" stroke="#000000" stroke-width="1.333"/>
  <path d="M456.834 32.667 L456.834 27.333" fill="none" stroke="#000000" stroke-width="1.333"/>
  <path d="M473.481 32.667 L473.481 27.333" fill="none" stroke="#000000" stroke-width="1.333"/>
  <path d="M487.902 32.667 L487.902 27.333" fill="none" stroke="#000000" stroke-width="1.333"/>
  <path d="M500.622 32.667 L500.622 27.333" fill="none" stroke="#000000" stroke-width="1.333"/>
  <path d="M512 32.667 L512 27.333" fill="none" stroke="#000000" stroke-width="1.333"/>
  <path d="M586.856 32.667 L586.856 27.333" fill="none" stroke="#000000" stroke-width="1.333"/>
  <path d="M630.644 32.667 L630.644 27.333" fill="none" stroke="#000000" stroke-width="1.333"/>
  <path d="M661.712 32.667 L661.712 27.333" fill="none" stroke="#000000" stroke-width="1.333"/>
  <path d="M685.811 32.667 L685.811 27.333" fill="none" stroke="#000000" stroke-width="1.333"/>
  <path d="M705.500 32.667 L705.500 27.333" fill="none" stroke="#000000" stroke-width="1.333"/>
  <path d="M722.148 32.667 L722.148 27.333" fill="none" stroke="#000000" stroke-width="1.333"/>
  <path d="M736.568 32.667 L736.568 27.333" fill="none" stroke="#000000" stroke-width="1.333"/>
  <path d="M749.288 32.667 L749.288 27.333" fill="none" stroke="#000000" stroke-width="1.333"/>
  <path d="M760.667 32.667 L760.667 27.333" fill="none" stroke="#000000" stroke-width="1.333"/>
  <path d="M835.523 32.667 L835.523 27.333" fill="none" stroke="#000000" stroke-width="1.333"/>
  <path d="M879.311 32.667 L879.311 27.333" fill="none" stroke="#000000" stroke-width="1.333"/>
  <path d="M910.379 32.667 L910.379 27.333" fill="none" stroke="#000000" stroke-width="1.333"/>
  <path d="M934.477 32.667 L934.477 27.333" fill="none" stroke="#000000" stroke-width="1.333"/>
  <path d="M954.167 32.667 L954.167 27.333" fill="none" stroke="#000000" stroke-width="1.333"/>
  <path d="M970.814 32.667 L970.814 27.333" fill="none" stroke="#000000" stroke-width="1.333"/>
  <path d="M985.235 32.667 L985.235 27.333" fill="none" stroke="#000000" stroke-width="1.333"/>
  <path d="M997.955 32.667 L997.955 27.333" fill="none" stroke="#000000" stroke-width="1.333"/>
  <path d="M1009.333 32.667 L1009.333 27.333" fill="none" stroke="#000000" stroke-width="1.333"/>
  <path d="M7.862 45.186 L7.862 52.733 L9.143 52.733 L9.143 42.124 L8.299 42.124 C7.846 43.765 7.549 43.983 5.549 44.249 L5.549 45.186 L7.862 45.186 Z"/>
  <path d="M16.253 41.733 C15.284 41.733 14.393 42.186 13.862 42.905 C13.190 43.843 12.846 45.265 12.846 47.249 C12.846 50.843 14.018 52.733 16.253 52.733 C18.456 52.733 19.659 50.843 19.659 47.327 C19.659 45.265 19.331 43.874 18.643 42.905 C18.096 42.171 17.237 41.733 16.253 41.733 Z M16.253 42.890 C17.643 42.890 18.331 44.327 18.331 47.218 C18.331 50.249 17.659 51.671 16.221 51.671 C14.862 51.671 14.159 50.186 14.159 47.265 C14.159 44.327 14.862 42.890 16.253 42.890 Z"/>
  <path d="M22.784 41.733 C21.346 41.733 20.596 42.874 20.596 45.093 C20.596 47.343 21.346 48.468 22.799 48.468 C24.206 48.468 24.971 47.343 24.971 45.155 C24.971 42.858 24.237 41.733 22.784 41.733 Z M22.784 42.515 C23.628 42.515 24.049 43.374 24.049 45.077 C24.049 46.905 23.643 47.733 22.768 47.733 C21.924 47.733 21.518 46.858 21.518 45.108 C21.518 43.358 21.924 42.515 22.784 42.515 Z"/>
  <path d="M258.326 55.733 L256.997 55.733 L256.997 47.155 Q256.529 47.624 255.755 48.085 Q254.982 48.546 254.372 48.780 L254.372 47.483 Q255.482 46.952 256.302 46.194 Q257.122 45.436 257.466 44.733 L258.326 44.733 L258.326 55.733 Z"/>
  <path d="M261.513 50.233 Q261.513 48.327 261.904 47.163 Q262.294 45.999 263.068 45.366 Q263.841 44.733 265.013 44.733 Q265.872 44.733 266.529 45.085 Q267.185 45.436 267.607 46.093 Q268.029 46.749 268.271 47.694 Q268.513 48.640 268.513 50.233 Q268.513 52.140 268.122 53.304 Q267.732 54.468 266.958 55.101 Q266.185 55.733 265.013 55.733 Q263.466 55.733 262.576 54.624 Q261.513 53.265 261.513 50.233 Z M262.872 50.233 Q262.872 52.936 263.490 53.835 Q264.107 54.733 265.013 54.733 Q265.919 54.733 266.536 53.835 Q267.154 52.936 267.154 50.233 Q267.154 47.515 266.536 46.624 Q265.919 45.733 264.997 45.733 Q264.091 45.733 263.544 46.515 Q262.872 47.530 262.872 50.233 Z"/>
  <path d="M271.466 50.733 L271.466 45.811 Q270.716 46.468 269.826 46.733 L269.826 45.733 Q270.279 45.624 270.841 45.343 Q271.404 45.061 271.747 44.733 L272.529 44.733 L272.529 50.733 L271.466 50.733 Z"/>
  <path d="M506.992 55.733 L505.664 55.733 L505.664 47.155 Q505.195 47.624 504.422 48.085 Q503.648 48.546 503.039 48.780 L503.039 47.483 Q504.148 46.952 504.969 46.194 Q505.789 45.436 506.133 44.733 L506.992 44.733 L506.992 55.733 Z"/>
  <path d="M510.180 50.233 Q510.180 48.327 510.570 47.163 Q510.961 45.999 511.734 45.366 Q512.508 44.733 513.680 44.733 Q514.539 44.733 515.195 45.085 Q515.852 45.436 516.273 46.093 Q516.695 46.749 516.938 47.694 Q517.180 48.640 517.180 50.233 Q517.180 52.140 516.789 53.304 Q516.398 54.468 515.625 55.101 Q514.852 55.733 513.680 55.733 Q512.133 55.733 511.242 54.624 Q510.180 53.265 510.180 50.233 Z M511.539 50.233 Q511.539 52.936 512.156 53.835 Q512.773 54.733 513.680 54.733 Q514.586 54.733 515.203 53.835 Q515.820 52.936 515.820 50.233 Q515.820 47.515 515.203 46.624 Q514.586 45.733 513.664 45.733 Q512.758 45.733 512.211 46.515 Q511.539 47.530 511.539 50.233 Z"/>
  <path d="M517.898 50.733 Q517.945 50.280 518.242 49.827 Q518.695 49.155 519.750 48.327 Q520.805 47.499 521.008 47.265 Q521.273 46.936 521.273 46.608 Q521.273 46.218 521.016 45.976 Q520.758 45.733 520.258 45.733 Q519.773 45.733 519.539 45.936 Q519.305 46.140 519.148 46.733 L518.055 46.733 Q518.273 45.702 518.797 45.218 Q519.320 44.733 520.289 44.733 Q521.398 44.733 521.914 45.202 Q522.430 45.671 522.430 46.358 Q522.430 47.015 521.992 47.624 Q521.664 48.061 520.492 48.983 Q519.883 49.452 519.633 49.733 L522.461 49.733 L522.461 50.733 L517.898 50.733 Z"/>
  <path d="M755.659 55.733 L754.331 55.733 L754.331 47.155 Q753.862 47.624 753.089 48.085 Q752.315 48.546 751.706 48.780 L751.706 47.483 Q752.815 46.952 753.635 46.194 Q754.456 45.436 754.799 44.733 L755.659 44.733 L755.659 55.733 Z"/>
  <path d="M758.846 50.233 Q758.846 48.327 759.237 47.163 Q759.628 45.999 760.401 45.366 Q761.174 44.733 762.346 44.733 Q763.206 44.733 763.862 45.085 Q764.518 45.436 764.940 46.093 Q765.362 46.749 765.604 47.694 Q765.846 48.640 765.846 50.233 Q765.846 52.140 765.456 53.304 Q765.065 54.468 764.292 55.101 Q763.518 55.733 762.346 55.733 Q760.799 55.733 759.909 54.624 Q758.846 53.265 758.846 50.233 Z M760.206 50.233 Q760.206 52.936 760.823 53.835 Q761.440 54.733 762.346 54.733 Q763.253 54.733 763.870 53.835 Q764.487 52.936 764.487 50.233 Q764.487 47.515 763.870 46.624 Q763.253 45.733 762.331 45.733 Q761.424 45.733 760.878 46.515 Q760.206 47.530 760.206 50.233 Z"/>
  <path d="M766.565 50.733 Q766.612 50.280 766.909 49.827 Q767.362 49.155 768.417 48.327 Q769.471 47.499 769.674 47.265 Q769.940 46.936 769.940 46.608 Q769.940 46.218 769.682 45.976 Q769.424 45.733 768.924 45.733 Q768.440 45.733 768.206 45.936 Q767.971 46.140 767.815 46.733 L766.721 46.733 Q766.940 45.702 767.464 45.218 Q767.987 44.733 768.956 44.733 Q770.065 44.733 770.581 45.202 Q771.096 45.671 771.096 46.358 Q771.096 47.015 770.659 47.624 Q770.331 48.061 769.159 48.983 Q768.549 49.452 768.299 49.733 L771.128 49.733 L771.128 50.733 L766.565 50.733 Z"/>
  <path d="M1002.529 45.186 L1002.529 52.733 L1003.810 52.733 L1003.810 42.124 L1002.966 42.124 C1002.513 43.765 1002.216 43.983 1000.216 44.249 L1000.216 45.186 L1002.529 45.186 Z"/>
  <path d="M1010.919 41.733 C1009.951 41.733 1009.060 42.186 1008.529 42.905 C1007.857 43.843 1007.513 45.265 1007.513 47.249 C1007.513 50.843 1008.685 52.733 1010.919 52.733 C1013.122 52.733 1014.326 50.843 1014.326 47.327 C1014.326 45.265 1013.997 43.874 1013.310 42.905 C1012.763 42.171 1011.904 41.733 1010.919 41.733 Z M1010.919 42.890 C1012.310 42.890 1012.997 44.327 1012.997 47.218 C1012.997 50.249 1012.326 51.671 1010.888 51.671 C1009.529 51.671 1008.826 50.186 1008.826 47.265 C1008.826 44.327 1009.529 42.890 1010.919 42.890 Z"/>
  <path d="M1017.872 46.733 L1017.872 48.202 L1018.779 48.202 L1018.779 46.733 L1019.763 46.733 L1019.763 45.968 L1018.779 45.968 L1018.779 41.968 L1018.107 41.968 L1015.107 45.874 L1015.107 46.733 L1017.872 46.733 Z M1017.872 45.968 L1015.982 45.968 L1017.872 43.468 L1017.872 45.968 Z"/>
</svg>
