<?xml version="1.0" encoding="UTF-8" ?>
<!-- Generated by clip v0.7.0 (clip-lang.org) -->
<svg xmlns="http://www.w3.org/2000/svg" width="1024.000000" height="60.000000">
  <rect width="1024.000000" height="60.000000" fill="#ffffff" fill-opacity="1.000000"/>
  <path d="M14.6667 30 L1009.33 30 " fill="none" stroke-width="1.333333" stroke="#000000ff"/>
  <path d="M14.6667 32.6667 L14.6667 27.3333 " fill="none" stroke-width="1.333333" stroke="#000000ff"/>
  <path d="M97.5556 32.6667 L97.5556 27.3333 " fill="none" stroke-width="1.333333" stroke="#000000ff"/>
  <path d="M180.444 32.6667 L180.444 27.3333 " fill="none" stroke-width="1.333333" stroke="#000000ff"/>
  <path d="M263.333 32.6667 L263.333 27.3333 " fill="none" stroke-width="1.333333" stroke="#000000ff"/>
  <path d="M346.222 32.6667 L346.222 27.3333 " fill="none" stroke-width="1.333333" stroke="#000000ff"/>
  <path d="M429.111 32.6667 L429.111 27.3333 " fill="none" stroke-width="1.333333" stroke="#000000ff"/>
  <path d="M512 32.6667 L512 27.3333 " fill="none" stroke-width="1.333333" stroke="#000000ff"/>
  <path d="M594.889 32.6667 L594.889 27.3333 " fill="none" stroke-width="1.333333" stroke="#000000ff"/>
  <path d="M677.778 32.6667 L677.778 27.3333 " fill="none" stroke-width="1.333333" stroke="#000000ff"/>
  <path d="M760.667 32.6667 L760.667 27.3333 " fill="none" stroke-width="1.333333" stroke="#000000ff"/>
  <path d="M843.556 32.6667 L843.556 27.3333 " fill="none" stroke-width="1.333333" stroke="#000000ff"/>
  <path d="M926.444 32.6667 L926.444 27.3333 " fill="none" stroke-width="1.333333" stroke="#000000ff"/>
  <path d="M1009.33 32.6667 L1009.33 27.3333 " fill="none" stroke-width="1.333333" stroke="#000000ff"/>
  <path d="M10.0651 55.7333 L8.73698 55.7333 L8.73698 47.1552 Q8.26823 47.624 7.49479 48.0849 Q6.72135 48.5458 6.11198 48.7802 L6.11198 47.4833 Q7.22135 46.9521 8.04167 46.1943 Q8.86198 45.4365 9.20573 44.7333 L10.0651 44.7333 L10.0651 55.7333 Z" fill="#000000" fill-opacity="1.000000"/>
  <path d="M13.987 55.7333 L13.987 54.7333 L15.487 54.7333 L15.487 55.7333 L13.987 55.7333 Z" fill="#000000" fill-opacity="1.000000"/>
  <path d="M17.3307 50.2333 Q17.3307 48.3271 17.7214 47.163 Q18.112 45.999 18.8854 45.3661 Q19.6589 44.7333 20.8307 44.7333 Q21.6901 44.7333 22.3464 45.0849 Q23.0026 45.4365 23.4245 46.0927 Q23.8464 46.749 24.0885 47.6943 Q24.3307 48.6396 24.3307 50.2333 Q24.3307 52.1396 23.9401 53.3036 Q23.5495 54.4677 22.776 55.1005 Q22.0026 55.7333 20.8307 55.7333 Q19.2839 55.7333 18.3932 54.624 Q17.3307 53.2646 17.3307 50.2333 ZM18.6901 50.2333 Q18.6901 52.9365 19.3073 53.8349 Q19.9245 54.7333 20.8307 54.7333 Q21.737 54.7333 22.3542 53.8349 Q22.9714 52.9365 22.9714 50.2333 Q22.9714 47.5146 22.3542 46.624 Q21.737 45.7333 20.8151 45.7333 Q19.9089 45.7333 19.362 46.5146 Q18.6901 47.5302 18.6901 50.2333 Z" fill="#000000" fill-opacity="1.000000"/>
  <path d="M94.9071 54.7333 L94.9071 55.7333 L87.8134 55.7333 Q87.7977 55.3427 87.9696 54.9677 Q88.2352 54.3583 88.8368 53.7724 Q89.4384 53.1865 90.5634 52.124 Q92.3134 50.4677 92.9306 49.538 Q93.5477 48.6083 93.5477 47.7958 Q93.5477 46.9208 92.9852 46.3271 Q92.4227 45.7333 91.5321 45.7333 Q90.579 45.7333 90.0009 46.2646 Q89.4227 46.7958 89.4227 47.7333 L88.0634 47.7333 Q88.204 46.2646 89.1102 45.499 Q90.0165 44.7333 91.5477 44.7333 Q93.0946 44.7333 93.9931 45.624 Q94.8915 46.5146 94.8915 47.8427 Q94.8915 48.5146 94.6259 49.163 Q94.3602 49.8115 93.7509 50.5302 Q93.1415 51.249 91.7196 52.5302 Q90.5321 53.5927 90.1962 53.9677 Q89.8602 54.3427 89.6415 54.7333 L94.9071 54.7333 Z" fill="#000000" fill-opacity="1.000000"/>
  <path d="M96.8759 55.7333 L96.8759 54.7333 L98.3759 54.7333 L98.3759 55.7333 L96.8759 55.7333 Z" fill="#000000" fill-opacity="1.000000"/>
  <path d="M100.22 50.2333 Q100.22 48.3271 100.61 47.163 Q101.001 45.999 101.774 45.3661 Q102.548 44.7333 103.72 44.7333 Q104.579 44.7333 105.235 45.0849 Q105.891 45.4365 106.313 46.0927 Q106.735 46.749 106.977 47.6943 Q107.22 48.6396 107.22 50.2333 Q107.22 52.1396 106.829 53.3036 Q106.438 54.4677 105.665 55.1005 Q104.891 55.7333 103.72 55.7333 Q102.173 55.7333 101.282 54.624 Q100.22 53.2646 100.22 50.2333 ZM101.579 50.2333 Q101.579 52.9365 102.196 53.8349 Q102.813 54.7333 103.72 54.7333 Q104.626 54.7333 105.243 53.8349 Q105.86 52.9365 105.86 50.2333 Q105.86 47.5146 105.243 46.624 Q104.626 45.7333 103.704 45.7333 Q102.798 45.7333 102.251 46.5146 Q101.579 47.5302 101.579 50.2333 Z" fill="#000000" fill-opacity="1.000000"/>
  <path d="M175.093 55.7333 L175.093 52.7333 L170.437 52.7333 L170.437 51.7333 L175.343 44.7333 L176.421 44.7333 L176.421 51.7333 L177.874 51.7333 L177.874 52.7333 L176.421 52.7333 L176.421 55.7333 L175.093 55.7333 ZM175.093 51.7333 L175.093 46.9365 L171.734 51.7333 L175.093 51.7333 Z" fill="#000000" fill-opacity="1.000000"/>
  <path d="M179.765 55.7333 L179.765 54.7333 L181.265 54.7333 L181.265 55.7333 L179.765 55.7333 Z" fill="#000000" fill-opacity="1.000000"/>
  <path d="M183.109 50.2333 Q183.109 48.3271 183.499 47.163 Q183.89 45.999 184.663 45.3661 Q185.437 44.7333 186.609 44.7333 Q187.468 44.7333 188.124 45.0849 Q188.78 45.4365 189.202 46.0927 Q189.624 46.749 189.866 47.6943 Q190.109 48.6396 190.109 50.2333 Q190.109 52.1396 189.718 53.3036 Q189.327 54.4677 188.554 55.1005 Q187.78 55.7333 186.609 55.7333 Q185.062 55.7333 184.171 54.624 Q183.109 53.2646 183.109 50.2333 ZM184.468 50.2333 Q184.468 52.9365 185.085 53.8349 Q185.702 54.7333 186.609 54.7333 Q187.515 54.7333 188.132 53.8349 Q188.749 52.9365 188.749 50.2333 Q188.749 47.5146 188.132 46.624 Q187.515 45.7333 186.593 45.7333 Q185.687 45.7333 185.14 46.5146 Q184.468 47.5302 184.468 50.2333 Z" fill="#000000" fill-opacity="1.000000"/>
  <path d="M255.794 50.2021 Q254.982 49.874 254.583 49.2568 Q254.185 48.6396 254.185 47.7802 Q254.185 46.499 255.029 45.6161 Q255.872 44.7333 257.263 44.7333 Q258.669 44.7333 259.529 45.6318 Q260.388 46.5302 260.388 47.8271 Q260.388 48.6552 259.99 49.2646 Q259.591 49.874 258.794 50.2021 Q259.794 50.499 260.31 51.163 Q260.826 51.8271 260.826 52.7333 Q260.826 53.999 259.849 54.8661 Q258.872 55.7333 257.294 55.7333 Q255.701 55.7333 254.724 54.8661 Q253.747 53.999 253.747 52.7021 Q253.747 51.7333 254.279 51.0849 Q254.81 50.4365 255.794 50.2021 ZM255.529 47.6865 Q255.529 48.5927 256.021 49.163 Q256.513 49.7333 257.294 49.7333 Q258.06 49.7333 258.544 49.163 Q259.029 48.5927 259.029 47.7646 Q259.029 46.9052 258.529 46.3193 Q258.029 45.7333 257.279 45.7333 Q256.529 45.7333 256.029 46.3036 Q255.529 46.874 255.529 47.6865 ZM255.107 52.7177 Q255.107 53.2333 255.372 53.7177 Q255.638 54.2021 256.161 54.4677 Q256.685 54.7333 257.294 54.7333 Q258.232 54.7333 258.849 54.1708 Q259.466 53.6083 259.466 52.749 Q259.466 51.874 258.833 51.3036 Q258.201 50.7333 257.247 50.7333 Q256.326 50.7333 255.716 51.2958 Q255.107 51.8583 255.107 52.7177 Z" fill="#000000" fill-opacity="1.000000"/>
  <path d="M262.654 55.7333 L262.654 54.7333 L264.154 54.7333 L264.154 55.7333 L262.654 55.7333 Z" fill="#000000" fill-opacity="1.000000"/>
  <path d="M265.997 50.2333 Q265.997 48.3271 266.388 47.163 Q266.779 45.999 267.552 45.3661 Q268.326 44.7333 269.497 44.7333 Q270.357 44.7333 271.013 45.0849 Q271.669 45.4365 272.091 46.0927 Q272.513 46.749 272.755 47.6943 Q272.997 48.6396 272.997 50.2333 Q272.997 52.1396 272.607 53.3036 Q272.216 54.4677 271.443 55.1005 Q270.669 55.7333 269.497 55.7333 Q267.951 55.7333 267.06 54.624 Q265.997 53.2646 265.997 50.2333 ZM267.357 50.2333 Q267.357 52.9365 267.974 53.8349 Q268.591 54.7333 269.497 54.7333 Q270.404 54.7333 271.021 53.8349 Q271.638 52.9365 271.638 50.2333 Q271.638 47.5146 271.021 46.624 Q270.404 45.7333 269.482 45.7333 Q268.576 45.7333 268.029 46.5146 Q267.357 47.5302 267.357 50.2333 Z" fill="#000000" fill-opacity="1.000000"/>
  <path d="M337.543 55.7333 L336.214 55.7333 L336.214 47.1552 Q335.746 47.624 334.972 48.0849 Q334.199 48.5458 333.589 48.7802 L333.589 47.4833 Q334.699 46.9521 335.519 46.1943 Q336.339 45.4365 336.683 44.7333 L337.543 44.7333 L337.543 55.7333 Z" fill="#000000" fill-opacity="1.000000"/>
  <path d="M347.574 47.7333 L346.261 47.7333 Q346.089 46.8115 345.761 46.4052 Q345.23 45.7333 344.449 45.7333 Q343.808 45.7333 343.339 46.124 Q342.714 46.624 342.355 47.5771 Q341.996 48.5302 341.98 50.1708 Q342.449 49.4365 343.144 49.0849 Q343.839 48.7333 344.589 48.7333 Q345.902 48.7333 346.832 49.6865 Q347.761 50.6396 347.761 52.1396 Q347.761 53.124 347.324 53.9755 Q346.886 54.8271 346.128 55.2802 Q345.371 55.7333 344.402 55.7333 Q342.746 55.7333 341.707 54.5146 Q340.668 53.2958 340.668 50.5146 Q340.668 47.3896 341.824 45.9677 Q342.824 44.7333 344.527 44.7333 Q345.793 44.7333 346.605 45.5302 Q347.418 46.3271 347.574 47.7333 ZM342.183 52.1083 Q342.183 52.7958 342.472 53.4286 Q342.761 54.0615 343.285 54.3974 Q343.808 54.7333 344.371 54.7333 Q345.214 54.7333 345.816 54.0458 Q346.418 53.3583 346.418 52.1708 Q346.418 51.0458 345.824 50.3896 Q345.23 49.7333 344.324 49.7333 Q343.433 49.7333 342.808 50.3896 Q342.183 51.0458 342.183 52.1083 Z" fill="#000000" fill-opacity="1.000000"/>
  <path d="M349.621 55.7333 L349.621 54.7333 L351.121 54.7333 L351.121 55.7333 L349.621 55.7333 Z" fill="#000000" fill-opacity="1.000000"/>
  <path d="M352.964 50.2333 Q352.964 48.3271 353.355 47.163 Q353.746 45.999 354.519 45.3661 Q355.293 44.7333 356.464 44.7333 Q357.324 44.7333 357.98 45.0849 Q358.636 45.4365 359.058 46.0927 Q359.48 46.749 359.722 47.6943 Q359.964 48.6396 359.964 50.2333 Q359.964 52.1396 359.574 53.3036 Q359.183 54.4677 358.41 55.1005 Q357.636 55.7333 356.464 55.7333 Q354.918 55.7333 354.027 54.624 Q352.964 53.2646 352.964 50.2333 ZM354.324 50.2333 Q354.324 52.9365 354.941 53.8349 Q355.558 54.7333 356.464 54.7333 Q357.371 54.7333 357.988 53.8349 Q358.605 52.9365 358.605 50.2333 Q358.605 47.5146 357.988 46.624 Q357.371 45.7333 356.449 45.7333 Q355.543 45.7333 354.996 46.5146 Q354.324 47.5302 354.324 50.2333 Z" fill="#000000" fill-opacity="1.000000"/>
  <path d="M415.463 52.7333 L416.791 52.7333 Q417.025 53.7958 417.564 54.2646 Q418.103 54.7333 418.885 54.7333 Q419.822 54.7333 420.463 54.1161 Q421.103 53.499 421.103 52.5927 Q421.103 51.7177 420.51 51.1474 Q419.916 50.5771 418.994 50.5771 Q418.619 50.5771 418.072 50.7333 L418.213 49.7333 Q418.353 49.749 418.431 49.749 Q419.275 49.749 419.947 49.2411 Q420.619 48.7333 420.619 47.6708 Q420.619 46.8427 420.127 46.288 Q419.635 45.7333 418.853 45.7333 Q418.088 45.7333 417.572 46.2333 Q417.056 46.7333 416.916 47.7333 L415.603 47.7333 Q415.838 46.3115 416.697 45.5224 Q417.556 44.7333 418.838 44.7333 Q419.713 44.7333 420.455 45.1396 Q421.197 45.5458 421.588 46.249 Q421.978 46.9521 421.978 47.749 Q421.978 48.499 421.603 49.1161 Q421.228 49.7333 420.494 50.0927 Q421.447 50.2958 421.97 50.9443 Q422.494 51.5927 422.494 52.5771 Q422.494 53.8896 421.47 54.8115 Q420.447 55.7333 418.869 55.7333 Q417.463 55.7333 416.525 54.8974 Q415.588 54.0615 415.463 52.7333 Z" fill="#000000" fill-opacity="1.000000"/>
  <path d="M430.541 54.7333 L430.541 55.7333 L423.447 55.7333 Q423.431 55.3427 423.603 54.9677 Q423.869 54.3583 424.47 53.7724 Q425.072 53.1865 426.197 52.124 Q427.947 50.4677 428.564 49.538 Q429.181 48.6083 429.181 47.7958 Q429.181 46.9208 428.619 46.3271 Q428.056 45.7333 427.166 45.7333 Q426.213 45.7333 425.635 46.2646 Q425.056 46.7958 425.056 47.7333 L423.697 47.7333 Q423.838 46.2646 424.744 45.499 Q425.65 44.7333 427.181 44.7333 Q428.728 44.7333 429.627 45.624 Q430.525 46.5146 430.525 47.8427 Q430.525 48.5146 430.26 49.163 Q429.994 49.8115 429.385 50.5302 Q428.775 51.249 427.353 52.5302 Q426.166 53.5927 425.83 53.9677 Q425.494 54.3427 425.275 54.7333 L430.541 54.7333 Z" fill="#000000" fill-opacity="1.000000"/>
  <path d="M432.51 55.7333 L432.51 54.7333 L434.01 54.7333 L434.01 55.7333 L432.51 55.7333 Z" fill="#000000" fill-opacity="1.000000"/>
  <path d="M435.853 50.2333 Q435.853 48.3271 436.244 47.163 Q436.635 45.999 437.408 45.3661 Q438.181 44.7333 439.353 44.7333 Q440.213 44.7333 440.869 45.0849 Q441.525 45.4365 441.947 46.0927 Q442.369 46.749 442.611 47.6943 Q442.853 48.6396 442.853 50.2333 Q442.853 52.1396 442.463 53.3036 Q442.072 54.4677 441.299 55.1005 Q440.525 55.7333 439.353 55.7333 Q437.806 55.7333 436.916 54.624 Q435.853 53.2646 435.853 50.2333 ZM437.213 50.2333 Q437.213 52.9365 437.83 53.8349 Q438.447 54.7333 439.353 54.7333 Q440.26 54.7333 440.877 53.8349 Q441.494 52.9365 441.494 50.2333 Q441.494 47.5146 440.877 46.624 Q440.26 45.7333 439.338 45.7333 Q438.431 45.7333 437.885 46.5146 Q437.213 47.5302 437.213 50.2333 Z" fill="#000000" fill-opacity="1.000000"/>
  <path d="M505.195 47.7333 L503.883 47.7333 Q503.711 46.8115 503.383 46.4052 Q502.852 45.7333 502.07 45.7333 Q501.43 45.7333 500.961 46.124 Q500.336 46.624 499.977 47.5771 Q499.617 48.5302 499.602 50.1708 Q500.07 49.4365 500.766 49.0849 Q501.461 48.7333 502.211 48.7333 Q503.523 48.7333 504.453 49.6865 Q505.383 50.6396 505.383 52.1396 Q505.383 53.124 504.945 53.9755 Q504.508 54.8271 503.75 55.2802 Q502.992 55.7333 502.023 55.7333 Q500.367 55.7333 499.328 54.5146 Q498.289 53.2958 498.289 50.5146 Q498.289 47.3896 499.445 45.9677 Q500.445 44.7333 502.148 44.7333 Q503.414 44.7333 504.227 45.5302 Q505.039 46.3271 505.195 47.7333 ZM499.805 52.1083 Q499.805 52.7958 500.094 53.4286 Q500.383 54.0615 500.906 54.3974 Q501.43 54.7333 501.992 54.7333 Q502.836 54.7333 503.438 54.0458 Q504.039 53.3583 504.039 52.1708 Q504.039 51.0458 503.445 50.3896 Q502.852 49.7333 501.945 49.7333 Q501.055 49.7333 500.43 50.3896 Q499.805 51.0458 499.805 52.1083 Z" fill="#000000" fill-opacity="1.000000"/>
  <path d="M510.727 55.7333 L510.727 52.7333 L506.07 52.7333 L506.07 51.7333 L510.977 44.7333 L512.055 44.7333 L512.055 51.7333 L513.508 51.7333 L513.508 52.7333 L512.055 52.7333 L512.055 55.7333 L510.727 55.7333 ZM510.727 51.7333 L510.727 46.9365 L507.367 51.7333 L510.727 51.7333 Z" fill="#000000" fill-opacity="1.000000"/>
  <path d="M515.398 55.7333 L515.398 54.7333 L516.898 54.7333 L516.898 55.7333 L515.398 55.7333 Z" fill="#000000" fill-opacity="1.000000"/>
  <path d="M518.742 50.2333 Q518.742 48.3271 519.133 47.163 Q519.523 45.999 520.297 45.3661 Q521.07 44.7333 522.242 44.7333 Q523.102 44.7333 523.758 45.0849 Q524.414 45.4365 524.836 46.0927 Q525.258 46.749 525.5 47.6943 Q525.742 48.6396 525.742 50.2333 Q525.742 52.1396 525.352 53.3036 Q524.961 54.4677 524.188 55.1005 Q523.414 55.7333 522.242 55.7333 Q520.695 55.7333 519.805 54.624 Q518.742 53.2646 518.742 50.2333 ZM520.102 50.2333 Q520.102 52.9365 520.719 53.8349 Q521.336 54.7333 522.242 54.7333 Q523.148 54.7333 523.766 53.8349 Q524.383 52.9365 524.383 50.2333 Q524.383 47.5146 523.766 46.624 Q523.148 45.7333 522.227 45.7333 Q521.32 45.7333 520.773 46.5146 Q520.102 47.5302 520.102 50.2333 Z" fill="#000000" fill-opacity="1.000000"/>
  <path d="M582.131 55.7333 L580.803 55.7333 L580.803 47.1552 Q580.334 47.624 579.561 48.0849 Q578.787 48.5458 578.178 48.7802 L578.178 47.4833 Q579.287 46.9521 580.108 46.1943 Q580.928 45.4365 581.272 44.7333 L582.131 44.7333 L582.131 55.7333 Z" fill="#000000" fill-opacity="1.000000"/>
  <path d="M592.24 54.7333 L592.24 55.7333 L585.147 55.7333 Q585.131 55.3427 585.303 54.9677 Q585.569 54.3583 586.17 53.7724 Q586.772 53.1865 587.897 52.124 Q589.647 50.4677 590.264 49.538 Q590.881 48.6083 590.881 47.7958 Q590.881 46.9208 590.319 46.3271 Q589.756 45.7333 588.865 45.7333 Q587.912 45.7333 587.334 46.2646 Q586.756 46.7958 586.756 47.7333 L585.397 47.7333 Q585.537 46.2646 586.444 45.499 Q587.35 44.7333 588.881 44.7333 Q590.428 44.7333 591.326 45.624 Q592.225 46.5146 592.225 47.8427 Q592.225 48.5146 591.959 49.163 Q591.694 49.8115 591.084 50.5302 Q590.475 51.249 589.053 52.5302 Q587.865 53.5927 587.53 53.9677 Q587.194 54.3427 586.975 54.7333 L592.24 54.7333 Z" fill="#000000" fill-opacity="1.000000"/>
  <path d="M595.506 50.2021 Q594.694 49.874 594.295 49.2568 Q593.897 48.6396 593.897 47.7802 Q593.897 46.499 594.74 45.6161 Q595.584 44.7333 596.975 44.7333 Q598.381 44.7333 599.24 45.6318 Q600.1 46.5302 600.1 47.8271 Q600.1 48.6552 599.701 49.2646 Q599.303 49.874 598.506 50.2021 Q599.506 50.499 600.022 51.163 Q600.537 51.8271 600.537 52.7333 Q600.537 53.999 599.561 54.8661 Q598.584 55.7333 597.006 55.7333 Q595.412 55.7333 594.436 54.8661 Q593.459 53.999 593.459 52.7021 Q593.459 51.7333 593.99 51.0849 Q594.522 50.4365 595.506 50.2021 ZM595.24 47.6865 Q595.24 48.5927 595.733 49.163 Q596.225 49.7333 597.006 49.7333 Q597.772 49.7333 598.256 49.163 Q598.74 48.5927 598.74 47.7646 Q598.74 46.9052 598.24 46.3193 Q597.74 45.7333 596.99 45.7333 Q596.24 45.7333 595.74 46.3036 Q595.24 46.874 595.24 47.6865 ZM594.819 52.7177 Q594.819 53.2333 595.084 53.7177 Q595.35 54.2021 595.873 54.4677 Q596.397 54.7333 597.006 54.7333 Q597.944 54.7333 598.561 54.1708 Q599.178 53.6083 599.178 52.749 Q599.178 51.874 598.545 51.3036 Q597.912 50.7333 596.959 50.7333 Q596.037 50.7333 595.428 51.2958 Q594.819 51.8583 594.819 52.7177 Z" fill="#000000" fill-opacity="1.000000"/>
  <path d="M602.365 55.7333 L602.365 54.7333 L603.865 54.7333 L603.865 55.7333 L602.365 55.7333 Z" fill="#000000" fill-opacity="1.000000"/>
  <path d="M605.709 50.2333 Q605.709 48.3271 606.1 47.163 Q606.49 45.999 607.264 45.3661 Q608.037 44.7333 609.209 44.7333 Q610.069 44.7333 610.725 45.0849 Q611.381 45.4365 611.803 46.0927 Q612.225 46.749 612.467 47.6943 Q612.709 48.6396 612.709 50.2333 Q612.709 52.1396 612.319 53.3036 Q611.928 54.4677 611.155 55.1005 Q610.381 55.7333 609.209 55.7333 Q607.662 55.7333 606.772 54.624 Q605.709 53.2646 605.709 50.2333 ZM607.069 50.2333 Q607.069 52.9365 607.686 53.8349 Q608.303 54.7333 609.209 54.7333 Q610.115 54.7333 610.733 53.8349 Q611.35 52.9365 611.35 50.2333 Q611.35 47.5146 610.733 46.624 Q610.115 45.7333 609.194 45.7333 Q608.287 45.7333 607.74 46.5146 Q607.069 47.5302 607.069 50.2333 Z" fill="#000000" fill-opacity="1.000000"/>
  <path d="M666.973 54.7333 L666.973 55.7333 L659.879 55.7333 Q659.864 55.3427 660.036 54.9677 Q660.301 54.3583 660.903 53.7724 Q661.504 53.1865 662.629 52.124 Q664.379 50.4677 664.997 49.538 Q665.614 48.6083 665.614 47.7958 Q665.614 46.9208 665.051 46.3271 Q664.489 45.7333 663.598 45.7333 Q662.645 45.7333 662.067 46.2646 Q661.489 46.7958 661.489 47.7333 L660.129 47.7333 Q660.27 46.2646 661.176 45.499 Q662.082 44.7333 663.614 44.7333 Q665.161 44.7333 666.059 45.624 Q666.957 46.5146 666.957 47.8427 Q666.957 48.5146 666.692 49.163 Q666.426 49.8115 665.817 50.5302 Q665.207 51.249 663.786 52.5302 Q662.598 53.5927 662.262 53.9677 Q661.926 54.3427 661.707 54.7333 L666.973 54.7333 Z" fill="#000000" fill-opacity="1.000000"/>
  <path d="M668.207 52.7333 L669.582 52.7333 Q669.739 53.7333 670.301 54.2333 Q670.864 54.7333 671.645 54.7333 Q672.598 54.7333 673.262 54.0224 Q673.926 53.3115 673.926 52.1396 Q673.926 51.0302 673.293 50.3818 Q672.661 49.7333 671.629 49.7333 Q670.989 49.7333 670.481 50.0146 Q669.973 50.2958 669.676 50.7333 L668.442 50.7333 L669.473 44.7333 L674.817 44.7333 L674.817 45.7333 L670.536 45.7333 L669.957 49.3115 Q670.926 48.7333 671.989 48.7333 Q673.379 48.7333 674.348 49.6708 Q675.317 50.6083 675.317 52.0615 Q675.317 53.4677 674.473 54.4833 Q673.442 55.7333 671.645 55.7333 Q670.192 55.7333 669.262 54.913 Q668.332 54.0927 668.207 52.7333 Z" fill="#000000" fill-opacity="1.000000"/>
  <path d="M683.207 47.7333 L681.895 47.7333 Q681.723 46.8115 681.395 46.4052 Q680.864 45.7333 680.082 45.7333 Q679.442 45.7333 678.973 46.124 Q678.348 46.624 677.989 47.5771 Q677.629 48.5302 677.614 50.1708 Q678.082 49.4365 678.778 49.0849 Q679.473 48.7333 680.223 48.7333 Q681.536 48.7333 682.465 49.6865 Q683.395 50.6396 683.395 52.1396 Q683.395 53.124 682.957 53.9755 Q682.52 54.8271 681.762 55.2802 Q681.004 55.7333 680.036 55.7333 Q678.379 55.7333 677.34 54.5146 Q676.301 53.2958 676.301 50.5146 Q676.301 47.3896 677.457 45.9677 Q678.457 44.7333 680.161 44.7333 Q681.426 44.7333 682.239 45.5302 Q683.051 46.3271 683.207 47.7333 ZM677.817 52.1083 Q677.817 52.7958 678.106 53.4286 Q678.395 54.0615 678.918 54.3974 Q679.442 54.7333 680.004 54.7333 Q680.848 54.7333 681.45 54.0458 Q682.051 53.3583 682.051 52.1708 Q682.051 51.0458 681.457 50.3896 Q680.864 49.7333 679.957 49.7333 Q679.067 49.7333 678.442 50.3896 Q677.817 51.0458 677.817 52.1083 Z" fill="#000000" fill-opacity="1.000000"/>
  <path d="M685.254 55.7333 L685.254 54.7333 L686.754 54.7333 L686.754 55.7333 L685.254 55.7333 Z" fill="#000000" fill-opacity="1.000000"/>
  <path d="M688.598 50.2333 Q688.598 48.3271 688.989 47.163 Q689.379 45.999 690.153 45.3661 Q690.926 44.7333 692.098 44.7333 Q692.957 44.7333 693.614 45.0849 Q694.27 45.4365 694.692 46.0927 Q695.114 46.749 695.356 47.6943 Q695.598 48.6396 695.598 50.2333 Q695.598 52.1396 695.207 53.3036 Q694.817 54.4677 694.043 55.1005 Q693.27 55.7333 692.098 55.7333 Q690.551 55.7333 689.661 54.624 Q688.598 53.2646 688.598 50.2333 ZM689.957 50.2333 Q689.957 52.9365 690.575 53.8349 Q691.192 54.7333 692.098 54.7333 Q693.004 54.7333 693.622 53.8349 Q694.239 52.9365 694.239 50.2333 Q694.239 47.5146 693.622 46.624 Q693.004 45.7333 692.082 45.7333 Q691.176 45.7333 690.629 46.5146 Q689.957 47.5302 689.957 50.2333 Z" fill="#000000" fill-opacity="1.000000"/>
  <path d="M742.94 52.7333 L744.315 52.7333 Q744.471 53.7333 745.034 54.2333 Q745.596 54.7333 746.378 54.7333 Q747.331 54.7333 747.995 54.0224 Q748.659 53.3115 748.659 52.1396 Q748.659 51.0302 748.026 50.3818 Q747.393 49.7333 746.362 49.7333 Q745.721 49.7333 745.214 50.0146 Q744.706 50.2958 744.409 50.7333 L743.174 50.7333 L744.206 44.7333 L749.549 44.7333 L749.549 45.7333 L745.268 45.7333 L744.69 49.3115 Q745.659 48.7333 746.721 48.7333 Q748.112 48.7333 749.081 49.6708 Q750.049 50.6083 750.049 52.0615 Q750.049 53.4677 749.206 54.4833 Q748.174 55.7333 746.378 55.7333 Q744.924 55.7333 743.995 54.913 Q743.065 54.0927 742.94 52.7333 Z" fill="#000000" fill-opacity="1.000000"/>
  <path d="M756.065 55.7333 L754.737 55.7333 L754.737 47.1552 Q754.268 47.624 753.495 48.0849 Q752.721 48.5458 752.112 48.7802 L752.112 47.4833 Q753.221 46.9521 754.042 46.1943 Q754.862 45.4365 755.206 44.7333 L756.065 44.7333 L756.065 55.7333 Z" fill="#000000" fill-opacity="1.000000"/>
  <path d="M766.174 54.7333 L766.174 55.7333 L759.081 55.7333 Q759.065 55.3427 759.237 54.9677 Q759.503 54.3583 760.104 53.7724 Q760.706 53.1865 761.831 52.124 Q763.581 50.4677 764.198 49.538 Q764.815 48.6083 764.815 47.7958 Q764.815 46.9208 764.253 46.3271 Q763.69 45.7333 762.799 45.7333 Q761.846 45.7333 761.268 46.2646 Q760.69 46.7958 760.69 47.7333 L759.331 47.7333 Q759.471 46.2646 760.378 45.499 Q761.284 44.7333 762.815 44.7333 Q764.362 44.7333 765.26 45.624 Q766.159 46.5146 766.159 47.8427 Q766.159 48.5146 765.893 49.163 Q765.628 49.8115 765.018 50.5302 Q764.409 51.249 762.987 52.5302 Q761.799 53.5927 761.464 53.9677 Q761.128 54.3427 760.909 54.7333 L766.174 54.7333 Z" fill="#000000" fill-opacity="1.000000"/>
  <path d="M768.143 55.7333 L768.143 54.7333 L769.643 54.7333 L769.643 55.7333 L768.143 55.7333 Z" fill="#000000" fill-opacity="1.000000"/>
  <path d="M771.487 50.2333 Q771.487 48.3271 771.878 47.163 Q772.268 45.999 773.042 45.3661 Q773.815 44.7333 774.987 44.7333 Q775.846 44.7333 776.503 45.0849 Q777.159 45.4365 777.581 46.0927 Q778.003 46.749 778.245 47.6943 Q778.487 48.6396 778.487 50.2333 Q778.487 52.1396 778.096 53.3036 Q777.706 54.4677 776.932 55.1005 Q776.159 55.7333 774.987 55.7333 Q773.44 55.7333 772.549 54.624 Q771.487 53.2646 771.487 50.2333 ZM772.846 50.2333 Q772.846 52.9365 773.464 53.8349 Q774.081 54.7333 774.987 54.7333 Q775.893 54.7333 776.51 53.8349 Q777.128 52.9365 777.128 50.2333 Q777.128 47.5146 776.51 46.624 Q775.893 45.7333 774.971 45.7333 Q774.065 45.7333 773.518 46.5146 Q772.846 47.5302 772.846 50.2333 Z" fill="#000000" fill-opacity="1.000000"/>
  <path d="M826.72 55.7333 L825.391 55.7333 L825.391 47.1552 Q824.923 47.624 824.149 48.0849 Q823.376 48.5458 822.766 48.7802 L822.766 47.4833 Q823.876 46.9521 824.696 46.1943 Q825.516 45.4365 825.86 44.7333 L826.72 44.7333 L826.72 55.7333 Z" fill="#000000" fill-opacity="1.000000"/>
  <path d="M829.907 50.2333 Q829.907 48.3271 830.298 47.163 Q830.688 45.999 831.462 45.3661 Q832.235 44.7333 833.407 44.7333 Q834.266 44.7333 834.923 45.0849 Q835.579 45.4365 836.001 46.0927 Q836.423 46.749 836.665 47.6943 Q836.907 48.6396 836.907 50.2333 Q836.907 52.1396 836.516 53.3036 Q836.126 54.4677 835.352 55.1005 Q834.579 55.7333 833.407 55.7333 Q831.86 55.7333 830.97 54.624 Q829.907 53.2646 829.907 50.2333 ZM831.266 50.2333 Q831.266 52.9365 831.884 53.8349 Q832.501 54.7333 833.407 54.7333 Q834.313 54.7333 834.931 53.8349 Q835.548 52.9365 835.548 50.2333 Q835.548 47.5146 834.931 46.624 Q834.313 45.7333 833.391 45.7333 Q832.485 45.7333 831.938 46.5146 Q831.266 47.5302 831.266 50.2333 Z" fill="#000000" fill-opacity="1.000000"/>
  <path d="M844.985 54.7333 L844.985 55.7333 L837.891 55.7333 Q837.876 55.3427 838.048 54.9677 Q838.313 54.3583 838.915 53.7724 Q839.516 53.1865 840.641 52.124 Q842.391 50.4677 843.009 49.538 Q843.626 48.6083 843.626 47.7958 Q843.626 46.9208 843.063 46.3271 Q842.501 45.7333 841.61 45.7333 Q840.657 45.7333 840.079 46.2646 Q839.501 46.7958 839.501 47.7333 L838.141 47.7333 Q838.282 46.2646 839.188 45.499 Q840.095 44.7333 841.626 44.7333 Q843.173 44.7333 844.071 45.624 Q844.97 46.5146 844.97 47.8427 Q844.97 48.5146 844.704 49.163 Q844.438 49.8115 843.829 50.5302 Q843.22 51.249 841.798 52.5302 Q840.61 53.5927 840.274 53.9677 Q839.938 54.3427 839.72 54.7333 L844.985 54.7333 Z" fill="#000000" fill-opacity="1.000000"/>
  <path d="M850.438 55.7333 L850.438 52.7333 L845.782 52.7333 L845.782 51.7333 L850.688 44.7333 L851.766 44.7333 L851.766 51.7333 L853.22 51.7333 L853.22 52.7333 L851.766 52.7333 L851.766 55.7333 L850.438 55.7333 ZM850.438 51.7333 L850.438 46.9365 L847.079 51.7333 L850.438 51.7333 Z" fill="#000000" fill-opacity="1.000000"/>
  <path d="M855.11 55.7333 L855.11 54.7333 L856.61 54.7333 L856.61 55.7333 L855.11 55.7333 Z" fill="#000000" fill-opacity="1.000000"/>
  <path d="M858.454 50.2333 Q858.454 48.3271 858.845 47.163 Q859.235 45.999 860.009 45.3661 Q860.782 44.7333 861.954 44.7333 Q862.813 44.7333 863.47 45.0849 Q864.126 45.4365 864.548 46.0927 Q864.97 46.749 865.212 47.6943 Q865.454 48.6396 865.454 50.2333 Q865.454 52.1396 865.063 53.3036 Q864.673 54.4677 863.899 55.1005 Q863.126 55.7333 861.954 55.7333 Q860.407 55.7333 859.516 54.624 Q858.454 53.2646 858.454 50.2333 ZM859.813 50.2333 Q859.813 52.9365 860.431 53.8349 Q861.048 54.7333 861.954 54.7333 Q862.86 54.7333 863.477 53.8349 Q864.095 52.9365 864.095 50.2333 Q864.095 47.5146 863.477 46.624 Q862.86 45.7333 861.938 45.7333 Q861.032 45.7333 860.485 46.5146 Q859.813 47.5302 859.813 50.2333 Z" fill="#000000" fill-opacity="1.000000"/>
  <path d="M911.562 54.7333 L911.562 55.7333 L904.468 55.7333 Q904.452 55.3427 904.624 54.9677 Q904.89 54.3583 905.491 53.7724 Q906.093 53.1865 907.218 52.124 Q908.968 50.4677 909.585 49.538 Q910.202 48.6083 910.202 47.7958 Q910.202 46.9208 909.64 46.3271 Q909.077 45.7333 908.187 45.7333 Q907.234 45.7333 906.655 46.2646 Q906.077 46.7958 906.077 47.7333 L904.718 47.7333 Q904.859 46.2646 905.765 45.499 Q906.671 44.7333 908.202 44.7333 Q909.749 44.7333 910.648 45.624 Q911.546 46.5146 911.546 47.8427 Q911.546 48.5146 911.28 49.163 Q911.015 49.8115 910.405 50.5302 Q909.796 51.249 908.374 52.5302 Q907.187 53.5927 906.851 53.9677 Q906.515 54.3427 906.296 54.7333 L911.562 54.7333 Z" fill="#000000" fill-opacity="1.000000"/>
  <path d="M912.796 50.2333 Q912.796 48.3271 913.187 47.163 Q913.577 45.999 914.351 45.3661 Q915.124 44.7333 916.296 44.7333 Q917.155 44.7333 917.812 45.0849 Q918.468 45.4365 918.89 46.0927 Q919.312 46.749 919.554 47.6943 Q919.796 48.6396 919.796 50.2333 Q919.796 52.1396 919.405 53.3036 Q919.015 54.4677 918.241 55.1005 Q917.468 55.7333 916.296 55.7333 Q914.749 55.7333 913.859 54.624 Q912.796 53.2646 912.796 50.2333 ZM914.155 50.2333 Q914.155 52.9365 914.773 53.8349 Q915.39 54.7333 916.296 54.7333 Q917.202 54.7333 917.819 53.8349 Q918.437 52.9365 918.437 50.2333 Q918.437 47.5146 917.819 46.624 Q917.202 45.7333 916.28 45.7333 Q915.374 45.7333 914.827 46.5146 Q914.155 47.5302 914.155 50.2333 Z" fill="#000000" fill-opacity="1.000000"/>
  <path d="M925.171 55.7333 L925.171 52.7333 L920.515 52.7333 L920.515 51.7333 L925.421 44.7333 L926.499 44.7333 L926.499 51.7333 L927.952 51.7333 L927.952 52.7333 L926.499 52.7333 L926.499 55.7333 L925.171 55.7333 ZM925.171 51.7333 L925.171 46.9365 L921.812 51.7333 L925.171 51.7333 Z" fill="#000000" fill-opacity="1.000000"/>
  <path d="M931.14 50.2021 Q930.327 49.874 929.929 49.2568 Q929.53 48.6396 929.53 47.7802 Q929.53 46.499 930.374 45.6161 Q931.218 44.7333 932.609 44.7333 Q934.015 44.7333 934.874 45.6318 Q935.734 46.5302 935.734 47.8271 Q935.734 48.6552 935.335 49.2646 Q934.937 49.874 934.14 50.2021 Q935.14 50.499 935.655 51.163 Q936.171 51.8271 936.171 52.7333 Q936.171 53.999 935.194 54.8661 Q934.218 55.7333 932.64 55.7333 Q931.046 55.7333 930.069 54.8661 Q929.093 53.999 929.093 52.7021 Q929.093 51.7333 929.624 51.0849 Q930.155 50.4365 931.14 50.2021 ZM930.874 47.6865 Q930.874 48.5927 931.366 49.163 Q931.859 49.7333 932.64 49.7333 Q933.405 49.7333 933.89 49.163 Q934.374 48.5927 934.374 47.7646 Q934.374 46.9052 933.874 46.3193 Q933.374 45.7333 932.624 45.7333 Q931.874 45.7333 931.374 46.3036 Q930.874 46.874 930.874 47.6865 ZM930.452 52.7177 Q930.452 53.2333 930.718 53.7177 Q930.984 54.2021 931.507 54.4677 Q932.03 54.7333 932.64 54.7333 Q933.577 54.7333 934.194 54.1708 Q934.812 53.6083 934.812 52.749 Q934.812 51.874 934.179 51.3036 Q933.546 50.7333 932.593 50.7333 Q931.671 50.7333 931.062 51.2958 Q930.452 51.8583 930.452 52.7177 Z" fill="#000000" fill-opacity="1.000000"/>
  <path d="M937.999 55.7333 L937.999 54.7333 L939.499 54.7333 L939.499 55.7333 L937.999 55.7333 Z" fill="#000000" fill-opacity="1.000000"/>
  <path d="M941.343 50.2333 Q941.343 48.3271 941.734 47.163 Q942.124 45.999 942.898 45.3661 Q943.671 44.7333 944.843 44.7333 Q945.702 44.7333 946.359 45.0849 Q947.015 45.4365 947.437 46.0927 Q947.859 46.749 948.101 47.6943 Q948.343 48.6396 948.343 50.2333 Q948.343 52.1396 947.952 53.3036 Q947.562 54.4677 946.788 55.1005 Q946.015 55.7333 944.843 55.7333 Q943.296 55.7333 942.405 54.624 Q941.343 53.2646 941.343 50.2333 ZM942.702 50.2333 Q942.702 52.9365 943.319 53.8349 Q943.937 54.7333 944.843 54.7333 Q945.749 54.7333 946.366 53.8349 Q946.984 52.9365 946.984 50.2333 Q946.984 47.5146 946.366 46.624 Q945.749 45.7333 944.827 45.7333 Q943.921 45.7333 943.374 46.5146 Q942.702 47.5302 942.702 50.2333 Z" fill="#000000" fill-opacity="1.000000"/>
  <path d="M991.747 55.7333 L991.747 52.7333 L987.091 52.7333 L987.091 51.7333 L991.997 44.7333 L993.076 44.7333 L993.076 51.7333 L994.529 51.7333 L994.529 52.7333 L993.076 52.7333 L993.076 55.7333 L991.747 55.7333 ZM991.747 51.7333 L991.747 46.9365 L988.388 51.7333 L991.747 51.7333 Z" fill="#000000" fill-opacity="1.000000"/>
  <path d="M995.685 50.2333 Q995.685 48.3271 996.076 47.163 Q996.466 45.999 997.24 45.3661 Q998.013 44.7333 999.185 44.7333 Q1000.04 44.7333 1000.7 45.0849 Q1001.36 45.4365 1001.78 46.0927 Q1002.2 46.749 1002.44 47.6943 Q1002.68 48.6396 1002.68 50.2333 Q1002.68 52.1396 1002.29 53.3036 Q1001.9 54.4677 1001.13 55.1005 Q1000.36 55.7333 999.185 55.7333 Q997.638 55.7333 996.747 54.624 Q995.685 53.2646 995.685 50.2333 ZM997.044 50.2333 Q997.044 52.9365 997.661 53.8349 Q998.279 54.7333 999.185 54.7333 Q1000.09 54.7333 1000.71 53.8349 Q1001.33 52.9365 1001.33 50.2333 Q1001.33 47.5146 1000.71 46.624 Q1000.09 45.7333 999.169 45.7333 Q998.263 45.7333 997.716 46.5146 Q997.044 47.5302 997.044 50.2333 Z" fill="#000000" fill-opacity="1.000000"/>
  <path d="M1004.04 52.7333 L1005.31 52.7333 Q1005.47 53.7802 1005.92 54.2568 Q1006.37 54.7333 1007.09 54.7333 Q1007.68 54.7333 1008.15 54.4286 Q1008.61 54.124 1008.9 53.6161 Q1009.18 53.1083 1009.39 52.2568 Q1009.59 51.4052 1009.59 50.5771 Q1009.59 50.499 1009.58 50.3271 Q1009.18 50.9521 1008.5 51.3427 Q1007.81 51.7333 1007.01 51.7333 Q1005.68 51.7333 1004.76 50.788 Q1003.84 49.8427 1003.84 48.2802 Q1003.84 46.6865 1004.8 45.7099 Q1005.76 44.7333 1007.22 44.7333 Q1008.26 44.7333 1009.13 45.2958 Q1010 45.8583 1010.45 46.9052 Q1010.9 47.9521 1010.9 49.9365 Q1010.9 52.0146 1010.46 53.2333 Q1010.01 54.4521 1009.13 55.0927 Q1008.25 55.7333 1007.06 55.7333 Q1005.79 55.7333 1005 54.9443 Q1004.2 54.1552 1004.04 52.7333 ZM1009.43 48.2646 Q1009.43 47.0927 1008.83 46.413 Q1008.23 45.7333 1007.37 45.7333 Q1006.5 45.7333 1005.85 46.4677 Q1005.2 47.2021 1005.2 48.374 Q1005.2 49.4208 1005.82 50.0771 Q1006.43 50.7333 1007.34 50.7333 Q1008.26 50.7333 1008.85 50.0771 Q1009.43 49.4208 1009.43 48.2646 Z" fill="#000000" fill-opacity="1.000000"/>
  <path d="M1018.84 47.7333 L1017.53 47.7333 Q1017.36 46.8115 1017.03 46.4052 Q1016.5 45.7333 1015.72 45.7333 Q1015.08 45.7333 1014.61 46.124 Q1013.98 46.624 1013.62 47.5771 Q1013.26 48.5302 1013.25 50.1708 Q1013.72 49.4365 1014.41 49.0849 Q1015.11 48.7333 1015.86 48.7333 Q1017.17 48.7333 1018.1 49.6865 Q1019.03 50.6396 1019.03 52.1396 Q1019.03 53.124 1018.59 53.9755 Q1018.15 54.8271 1017.4 55.2802 Q1016.64 55.7333 1015.67 55.7333 Q1014.01 55.7333 1012.97 54.5146 Q1011.93 53.2958 1011.93 50.5146 Q1011.93 47.3896 1013.09 45.9677 Q1014.09 44.7333 1015.79 44.7333 Q1017.06 44.7333 1017.87 45.5302 Q1018.68 46.3271 1018.84 47.7333 ZM1013.45 52.1083 Q1013.45 52.7958 1013.74 53.4286 Q1014.03 54.0615 1014.55 54.3974 Q1015.08 54.7333 1015.64 54.7333 Q1016.48 54.7333 1017.08 54.0458 Q1017.68 53.3583 1017.68 52.1708 Q1017.68 51.0458 1017.09 50.3896 Q1016.5 49.7333 1015.59 49.7333 Q1014.7 49.7333 1014.08 50.3896 Q1013.45 51.0458 1013.45 52.1083 Z" fill="#000000" fill-opacity="1.000000"/>
  <path d="M1020.89 55.7333 L1020.89 54.7333 L1022.39 54.7333 L1022.39 55.7333 L1020.89 55.7333 Z" fill="#000000" fill-opacity="1.000000"/>
  <path d="M1024.23 50.2333 Q1024.23 48.3271 1024.62 47.163 Q1025.01 45.999 1025.79 45.3661 Q1026.56 44.7333 1027.73 44.7333 Q1028.59 44.7333 1029.25 45.0849 Q1029.9 45.4365 1030.33 46.0927 Q1030.75 46.749 1030.99 47.6943 Q1031.23 48.6396 1031.23 50.2333 Q1031.23 52.1396 1030.84 53.3036 Q1030.45 54.4677 1029.68 55.1005 Q1028.9 55.7333 1027.73 55.7333 Q1026.18 55.7333 1025.29 54.624 Q1024.23 53.2646 1024.23 50.2333 ZM1025.59 50.2333 Q1025.59 52.9365 1026.21 53.8349 Q1026.83 54.7333 1027.73 54.7333 Q1028.64 54.7333 1029.26 53.8349 Q1029.87 52.9365 1029.87 50.2333 Q1029.87 47.5146 1029.26 46.624 Q1028.64 45.7333 1027.72 45.7333 Q1026.81 45.7333 1026.26 46.5146 Q1025.59 47.5302 1025.59 50.2333 Z" fill="#000000" fill-opacity="1.000000"/>
</svg>