<?xml version="1.0" encoding="UTF-8" ?>
<!-- Generated by clip v0.7.0 (clip-lang.org) -->
<svg xmlns="http://www.w3.org/2000/svg" width="1024.000000" height="60.000000">
  <rect width="1024.000000" height="60.000000" fill="#ffffff" fill-opacity="1.000000"/>
  <path d="M14.6667 30 L1009.33 30 " fill="none" stroke-width="1.333333" stroke="#000000ff"/>
  <path d="M14.6667 32.6667 L14.6667 27.3333 " fill="none" stroke-width="1.333333" stroke="#000000ff"/>
  <path d="M114.133 32.6667 L114.133 27.3333 " fill="none" stroke-width="1.333333" stroke="#000000ff"/>
  <path d="M213.6 32.6667 L213.6 27.3333 " fill="none" stroke-width="1.333333" stroke="#000000ff"/>
  <path d="M313.067 32.6667 L313.067 27.3333 " fill="none" stroke-width="1.333333" stroke="#000000ff"/>
  <path d="M412.533 32.6667 L412.533 27.3333 " fill="none" stroke-width="1.333333" stroke="#000000ff"/>
  <path d="M512 32.6667 L512 27.3333 " fill="none" stroke-width="1.333333" stroke="#000000ff"/>
  <path d="M611.467 32.6667 L611.467 27.3333 " fill="none" stroke-width="1.333333" stroke="#000000ff"/>
  <path d="M710.933 32.6667 L710.933 27.3333 " fill="none" stroke-width="1.333333" stroke="#000000ff"/>
  <path d="M810.4 32.6667 L810.4 27.3333 " fill="none" stroke-width="1.333333" stroke="#000000ff"/>
  <path d="M909.867 32.6667 L909.867 27.3333 " fill="none" stroke-width="1.333333" stroke="#000000ff"/>
  <path d="M1009.33 32.6667 L1009.33 27.3333 " fill="none" stroke-width="1.333333" stroke="#000000ff"/>
  <path d="M10.0651 55.7333 L8.73698 55.7333 L8.73698 47.1552 Q8.26823 47.624 7.49479 48.0849 Q6.72135 48.5458 6.11198 48.7802 L6.11198 47.4833 Q7.22135 46.9521 8.04167 46.1943 Q8.86198 45.4365 9.20573 44.7333 L10.0651 44.7333 L10.0651 55.7333 Z" fill="#000000" fill-opacity="1.000000"/>
  <path d="M13.987 55.7333 L13.987 54.7333 L15.487 54.7333 L15.487 55.7333 L13.987 55.7333 Z" fill="#000000" fill-opacity="1.000000"/>
  <path d="M17.3307 50.2333 Q17.3307 48.3271 17.7214 47.163 Q18.112 45.999 18.8854 45.3661 Q19.6589 44.7333 20.8307 44.7333 Q21.6901 44.7333 22.3464 45.0849 Q23.0026 45.4365 23.4245 46.0927 Q23.8464 46.749 24.0885 47.6943 Q24.3307 48.6396 24.3307 50.2333 Q24.3307 52.1396 23.9401 53.3036 Q23.5495 54.4677 22.776 55.1005 Q22.0026 55.7333 20.8307 55.7333 Q19.2839 55.7333 18.3932 54.624 Q17.3307 53.2646 17.3307 50.2333 ZM18.6901 50.2333 Q18.6901 52.9365 19.3073 53.8349 Q19.9245 54.7333 20.8307 54.7333 Q21.737 54.7333 22.3542 53.8349 Q22.9714 52.9365 22.9714 50.2333 Q22.9714 47.5146 22.3542 46.624 Q21.737 45.7333 20.8151 45.7333 Q19.9089 45.7333 19.362 46.5146 Q18.6901 47.5302 18.6901 50.2333 Z" fill="#000000" fill-opacity="1.000000"/>
  <path d="M111.485 54.7333 L111.485 55.7333 L104.391 55.7333 Q104.376 55.3427 104.547 54.9677 Q104.813 54.3583 105.415 53.7724 Q106.016 53.1865 107.141 52.124 Q108.891 50.4677 109.508 49.538 Q110.126 48.6083 110.126 47.7958 Q110.126 46.9208 109.563 46.3271 Q109.001 45.7333 108.11 45.7333 Q107.157 45.7333 106.579 46.2646 Q106.001 46.7958 106.001 47.7333 L104.641 47.7333 Q104.782 46.2646 105.688 45.499 Q106.594 44.7333 108.126 44.7333 Q109.672 44.7333 110.571 45.624 Q111.469 46.5146 111.469 47.8427 Q111.469 48.5146 111.204 49.163 Q110.938 49.8115 110.329 50.5302 Q109.719 51.249 108.297 52.5302 Q107.11 53.5927 106.774 53.9677 Q106.438 54.3427 106.219 54.7333 L111.485 54.7333 Z" fill="#000000" fill-opacity="1.000000"/>
  <path d="M113.454 55.7333 L113.454 54.7333 L114.954 54.7333 L114.954 55.7333 L113.454 55.7333 Z" fill="#000000" fill-opacity="1.000000"/>
  <path d="M116.797 50.2333 Q116.797 48.3271 117.188 47.163 Q117.579 45.999 118.352 45.3661 Q119.126 44.7333 120.297 44.7333 Q121.157 44.7333 121.813 45.0849 Q122.469 45.4365 122.891 46.0927 Q123.313 46.749 123.555 47.6943 Q123.797 48.6396 123.797 50.2333 Q123.797 52.1396 123.407 53.3036 Q123.016 54.4677 122.243 55.1005 Q121.469 55.7333 120.297 55.7333 Q118.751 55.7333 117.86 54.624 Q116.797 53.2646 116.797 50.2333 ZM118.157 50.2333 Q118.157 52.9365 118.774 53.8349 Q119.391 54.7333 120.297 54.7333 Q121.204 54.7333 121.821 53.8349 Q122.438 52.9365 122.438 50.2333 Q122.438 47.5146 121.821 46.624 Q121.204 45.7333 120.282 45.7333 Q119.376 45.7333 118.829 46.5146 Q118.157 47.5302 118.157 50.2333 Z" fill="#000000" fill-opacity="1.000000"/>
  <path d="M208.248 55.7333 L208.248 52.7333 L203.592 52.7333 L203.592 51.7333 L208.498 44.7333 L209.577 44.7333 L209.577 51.7333 L211.03 51.7333 L211.03 52.7333 L209.577 52.7333 L209.577 55.7333 L208.248 55.7333 ZM208.248 51.7333 L208.248 46.9365 L204.889 51.7333 L208.248 51.7333 Z" fill="#000000" fill-opacity="1.000000"/>
  <path d="M212.92 55.7333 L212.92 54.7333 L214.42 54.7333 L214.42 55.7333 L212.92 55.7333 Z" fill="#000000" fill-opacity="1.000000"/>
  <path d="M216.264 50.2333 Q216.264 48.3271 216.655 47.163 Q217.045 45.999 217.819 45.3661 Q218.592 44.7333 219.764 44.7333 Q220.623 44.7333 221.28 45.0849 Q221.936 45.4365 222.358 46.0927 Q222.78 46.749 223.022 47.6943 Q223.264 48.6396 223.264 50.2333 Q223.264 52.1396 222.873 53.3036 Q222.483 54.4677 221.709 55.1005 Q220.936 55.7333 219.764 55.7333 Q218.217 55.7333 217.327 54.624 Q216.264 53.2646 216.264 50.2333 ZM217.623 50.2333 Q217.623 52.9365 218.241 53.8349 Q218.858 54.7333 219.764 54.7333 Q220.67 54.7333 221.287 53.8349 Q221.905 52.9365 221.905 50.2333 Q221.905 47.5146 221.287 46.624 Q220.67 45.7333 219.748 45.7333 Q218.842 45.7333 218.295 46.5146 Q217.623 47.5302 217.623 50.2333 Z" fill="#000000" fill-opacity="1.000000"/>
  <path d="M305.528 50.2021 Q304.715 49.874 304.317 49.2568 Q303.918 48.6396 303.918 47.7802 Q303.918 46.499 304.762 45.6161 Q305.606 44.7333 306.996 44.7333 Q308.403 44.7333 309.262 45.6318 Q310.121 46.5302 310.121 47.8271 Q310.121 48.6552 309.723 49.2646 Q309.324 49.874 308.528 50.2021 Q309.528 50.499 310.043 51.163 Q310.559 51.8271 310.559 52.7333 Q310.559 53.999 309.582 54.8661 Q308.606 55.7333 307.028 55.7333 Q305.434 55.7333 304.457 54.8661 Q303.481 53.999 303.481 52.7021 Q303.481 51.7333 304.012 51.0849 Q304.543 50.4365 305.528 50.2021 ZM305.262 47.6865 Q305.262 48.5927 305.754 49.163 Q306.246 49.7333 307.028 49.7333 Q307.793 49.7333 308.278 49.163 Q308.762 48.5927 308.762 47.7646 Q308.762 46.9052 308.262 46.3193 Q307.762 45.7333 307.012 45.7333 Q306.262 45.7333 305.762 46.3036 Q305.262 46.874 305.262 47.6865 ZM304.84 52.7177 Q304.84 53.2333 305.106 53.7177 Q305.371 54.2021 305.895 54.4677 Q306.418 54.7333 307.028 54.7333 Q307.965 54.7333 308.582 54.1708 Q309.199 53.6083 309.199 52.749 Q309.199 51.874 308.567 51.3036 Q307.934 50.7333 306.981 50.7333 Q306.059 50.7333 305.449 51.2958 Q304.84 51.8583 304.84 52.7177 Z" fill="#000000" fill-opacity="1.000000"/>
  <path d="M312.387 55.7333 L312.387 54.7333 L313.887 54.7333 L313.887 55.7333 L312.387 55.7333 Z" fill="#000000" fill-opacity="1.000000"/>
  <path d="M315.731 50.2333 Q315.731 48.3271 316.121 47.163 Q316.512 45.999 317.285 45.3661 Q318.059 44.7333 319.231 44.7333 Q320.09 44.7333 320.746 45.0849 Q321.403 45.4365 321.824 46.0927 Q322.246 46.749 322.489 47.6943 Q322.731 48.6396 322.731 50.2333 Q322.731 52.1396 322.34 53.3036 Q321.949 54.4677 321.176 55.1005 Q320.403 55.7333 319.231 55.7333 Q317.684 55.7333 316.793 54.624 Q315.731 53.2646 315.731 50.2333 ZM317.09 50.2333 Q317.09 52.9365 317.707 53.8349 Q318.324 54.7333 319.231 54.7333 Q320.137 54.7333 320.754 53.8349 Q321.371 52.9365 321.371 50.2333 Q321.371 47.5146 320.754 46.624 Q320.137 45.7333 319.215 45.7333 Q318.309 45.7333 317.762 46.5146 Q317.09 47.5302 317.09 50.2333 Z" fill="#000000" fill-opacity="1.000000"/>
  <path d="M403.854 55.7333 L402.526 55.7333 L402.526 47.1552 Q402.057 47.624 401.283 48.0849 Q400.51 48.5458 399.901 48.7802 L399.901 47.4833 Q401.01 46.9521 401.83 46.1943 Q402.651 45.4365 402.994 44.7333 L403.854 44.7333 L403.854 55.7333 Z" fill="#000000" fill-opacity="1.000000"/>
  <path d="M413.885 47.7333 L412.572 47.7333 Q412.401 46.8115 412.072 46.4052 Q411.541 45.7333 410.76 45.7333 Q410.119 45.7333 409.651 46.124 Q409.026 46.624 408.666 47.5771 Q408.307 48.5302 408.291 50.1708 Q408.76 49.4365 409.455 49.0849 Q410.151 48.7333 410.901 48.7333 Q412.213 48.7333 413.143 49.6865 Q414.072 50.6396 414.072 52.1396 Q414.072 53.124 413.635 53.9755 Q413.197 54.8271 412.44 55.2802 Q411.682 55.7333 410.713 55.7333 Q409.057 55.7333 408.018 54.5146 Q406.979 53.2958 406.979 50.5146 Q406.979 47.3896 408.135 45.9677 Q409.135 44.7333 410.838 44.7333 Q412.104 44.7333 412.916 45.5302 Q413.729 46.3271 413.885 47.7333 ZM408.494 52.1083 Q408.494 52.7958 408.783 53.4286 Q409.072 54.0615 409.596 54.3974 Q410.119 54.7333 410.682 54.7333 Q411.526 54.7333 412.127 54.0458 Q412.729 53.3583 412.729 52.1708 Q412.729 51.0458 412.135 50.3896 Q411.541 49.7333 410.635 49.7333 Q409.744 49.7333 409.119 50.3896 Q408.494 51.0458 408.494 52.1083 Z" fill="#000000" fill-opacity="1.000000"/>
  <path d="M415.932 55.7333 L415.932 54.7333 L417.432 54.7333 L417.432 55.7333 L415.932 55.7333 Z" fill="#000000" fill-opacity="1.000000"/>
  <path d="M419.276 50.2333 Q419.276 48.3271 419.666 47.163 Q420.057 45.999 420.83 45.3661 Q421.604 44.7333 422.776 44.7333 Q423.635 44.7333 424.291 45.0849 Q424.947 45.4365 425.369 46.0927 Q425.791 46.749 426.033 47.6943 Q426.276 48.6396 426.276 50.2333 Q426.276 52.1396 425.885 53.3036 Q425.494 54.4677 424.721 55.1005 Q423.947 55.7333 422.776 55.7333 Q421.229 55.7333 420.338 54.624 Q419.276 53.2646 419.276 50.2333 ZM420.635 50.2333 Q420.635 52.9365 421.252 53.8349 Q421.869 54.7333 422.776 54.7333 Q423.682 54.7333 424.299 53.8349 Q424.916 52.9365 424.916 50.2333 Q424.916 47.5146 424.299 46.624 Q423.682 45.7333 422.76 45.7333 Q421.854 45.7333 421.307 46.5146 Q420.635 47.5302 420.635 50.2333 Z" fill="#000000" fill-opacity="1.000000"/>
  <path d="M498.352 52.7333 L499.68 52.7333 Q499.914 53.7958 500.453 54.2646 Q500.992 54.7333 501.773 54.7333 Q502.711 54.7333 503.352 54.1161 Q503.992 53.499 503.992 52.5927 Q503.992 51.7177 503.398 51.1474 Q502.805 50.5771 501.883 50.5771 Q501.508 50.5771 500.961 50.7333 L501.102 49.7333 Q501.242 49.749 501.32 49.749 Q502.164 49.749 502.836 49.2411 Q503.508 48.7333 503.508 47.6708 Q503.508 46.8427 503.016 46.288 Q502.523 45.7333 501.742 45.7333 Q500.977 45.7333 500.461 46.2333 Q499.945 46.7333 499.805 47.7333 L498.492 47.7333 Q498.727 46.3115 499.586 45.5224 Q500.445 44.7333 501.727 44.7333 Q502.602 44.7333 503.344 45.1396 Q504.086 45.5458 504.477 46.249 Q504.867 46.9521 504.867 47.749 Q504.867 48.499 504.492 49.1161 Q504.117 49.7333 503.383 50.0927 Q504.336 50.2958 504.859 50.9443 Q505.383 51.5927 505.383 52.5771 Q505.383 53.8896 504.359 54.8115 Q503.336 55.7333 501.758 55.7333 Q500.352 55.7333 499.414 54.8974 Q498.477 54.0615 498.352 52.7333 Z" fill="#000000" fill-opacity="1.000000"/>
  <path d="M513.43 54.7333 L513.43 55.7333 L506.336 55.7333 Q506.32 55.3427 506.492 54.9677 Q506.758 54.3583 507.359 53.7724 Q507.961 53.1865 509.086 52.124 Q510.836 50.4677 511.453 49.538 Q512.07 48.6083 512.07 47.7958 Q512.07 46.9208 511.508 46.3271 Q510.945 45.7333 510.055 45.7333 Q509.102 45.7333 508.523 46.2646 Q507.945 46.7958 507.945 47.7333 L506.586 47.7333 Q506.727 46.2646 507.633 45.499 Q508.539 44.7333 510.07 44.7333 Q511.617 44.7333 512.516 45.624 Q513.414 46.5146 513.414 47.8427 Q513.414 48.5146 513.148 49.163 Q512.883 49.8115 512.273 50.5302 Q511.664 51.249 510.242 52.5302 Q509.055 53.5927 508.719 53.9677 Q508.383 54.3427 508.164 54.7333 L513.43 54.7333 Z" fill="#000000" fill-opacity="1.000000"/>
  <path d="M515.398 55.7333 L515.398 54.7333 L516.898 54.7333 L516.898 55.7333 L515.398 55.7333 Z" fill="#000000" fill-opacity="1.000000"/>
  <path d="M518.742 50.2333 Q518.742 48.3271 519.133 47.163 Q519.523 45.999 520.297 45.3661 Q521.07 44.7333 522.242 44.7333 Q523.102 44.7333 523.758 45.0849 Q524.414 45.4365 524.836 46.0927 Q525.258 46.749 525.5 47.6943 Q525.742 48.6396 525.742 50.2333 Q525.742 52.1396 525.352 53.3036 Q524.961 54.4677 524.188 55.1005 Q523.414 55.7333 522.242 55.7333 Q520.695 55.7333 519.805 54.624 Q518.742 53.2646 518.742 50.2333 ZM520.102 50.2333 Q520.102 52.9365 520.719 53.8349 Q521.336 54.7333 522.242 54.7333 Q523.148 54.7333 523.766 53.8349 Q524.383 52.9365 524.383 50.2333 Q524.383 47.5146 523.766 46.624 Q523.148 45.7333 522.227 45.7333 Q521.32 45.7333 520.773 46.5146 Q520.102 47.5302 520.102 50.2333 Z" fill="#000000" fill-opacity="1.000000"/>
  <path d="M604.662 47.7333 L603.349 47.7333 Q603.178 46.8115 602.849 46.4052 Q602.318 45.7333 601.537 45.7333 Q600.896 45.7333 600.428 46.124 Q599.803 46.624 599.443 47.5771 Q599.084 48.5302 599.068 50.1708 Q599.537 49.4365 600.232 49.0849 Q600.928 48.7333 601.678 48.7333 Q602.99 48.7333 603.92 49.6865 Q604.849 50.6396 604.849 52.1396 Q604.849 53.124 604.412 53.9755 Q603.974 54.8271 603.217 55.2802 Q602.459 55.7333 601.49 55.7333 Q599.834 55.7333 598.795 54.5146 Q597.756 53.2958 597.756 50.5146 Q597.756 47.3896 598.912 45.9677 Q599.912 44.7333 601.615 44.7333 Q602.881 44.7333 603.693 45.5302 Q604.506 46.3271 604.662 47.7333 ZM599.271 52.1083 Q599.271 52.7958 599.56 53.4286 Q599.849 54.0615 600.373 54.3974 Q600.896 54.7333 601.459 54.7333 Q602.303 54.7333 602.904 54.0458 Q603.506 53.3583 603.506 52.1708 Q603.506 51.0458 602.912 50.3896 Q602.318 49.7333 601.412 49.7333 Q600.521 49.7333 599.896 50.3896 Q599.271 51.0458 599.271 52.1083 Z" fill="#000000" fill-opacity="1.000000"/>
  <path d="M610.193 55.7333 L610.193 52.7333 L605.537 52.7333 L605.537 51.7333 L610.443 44.7333 L611.521 44.7333 L611.521 51.7333 L612.974 51.7333 L612.974 52.7333 L611.521 52.7333 L611.521 55.7333 L610.193 55.7333 ZM610.193 51.7333 L610.193 46.9365 L606.834 51.7333 L610.193 51.7333 Z" fill="#000000" fill-opacity="1.000000"/>
  <path d="M614.865 55.7333 L614.865 54.7333 L616.365 54.7333 L616.365 55.7333 L614.865 55.7333 Z" fill="#000000" fill-opacity="1.000000"/>
  <path d="M618.209 50.2333 Q618.209 48.3271 618.599 47.163 Q618.99 45.999 619.764 45.3661 Q620.537 44.7333 621.709 44.7333 Q622.568 44.7333 623.224 45.0849 Q623.881 45.4365 624.303 46.0927 Q624.724 46.749 624.967 47.6943 Q625.209 48.6396 625.209 50.2333 Q625.209 52.1396 624.818 53.3036 Q624.428 54.4677 623.654 55.1005 Q622.881 55.7333 621.709 55.7333 Q620.162 55.7333 619.271 54.624 Q618.209 53.2646 618.209 50.2333 ZM619.568 50.2333 Q619.568 52.9365 620.185 53.8349 Q620.803 54.7333 621.709 54.7333 Q622.615 54.7333 623.232 53.8349 Q623.849 52.9365 623.849 50.2333 Q623.849 47.5146 623.232 46.624 Q622.615 45.7333 621.693 45.7333 Q620.787 45.7333 620.24 46.5146 Q619.568 47.5302 619.568 50.2333 Z" fill="#000000" fill-opacity="1.000000"/>
  <path d="M698.176 55.7333 L696.847 55.7333 L696.847 47.1552 Q696.379 47.624 695.605 48.0849 Q694.832 48.5458 694.222 48.7802 L694.222 47.4833 Q695.332 46.9521 696.152 46.1943 Q696.972 45.4365 697.316 44.7333 L698.176 44.7333 L698.176 55.7333 Z" fill="#000000" fill-opacity="1.000000"/>
  <path d="M708.285 54.7333 L708.285 55.7333 L701.191 55.7333 Q701.176 55.3427 701.347 54.9677 Q701.613 54.3583 702.215 53.7724 Q702.816 53.1865 703.941 52.124 Q705.691 50.4677 706.308 49.538 Q706.926 48.6083 706.926 47.7958 Q706.926 46.9208 706.363 46.3271 Q705.801 45.7333 704.91 45.7333 Q703.957 45.7333 703.379 46.2646 Q702.801 46.7958 702.801 47.7333 L701.441 47.7333 Q701.582 46.2646 702.488 45.499 Q703.394 44.7333 704.926 44.7333 Q706.472 44.7333 707.371 45.624 Q708.269 46.5146 708.269 47.8427 Q708.269 48.5146 708.004 49.163 Q707.738 49.8115 707.129 50.5302 Q706.519 51.249 705.097 52.5302 Q703.91 53.5927 703.574 53.9677 Q703.238 54.3427 703.019 54.7333 L708.285 54.7333 Z" fill="#000000" fill-opacity="1.000000"/>
  <path d="M711.551 50.2021 Q710.738 49.874 710.34 49.2568 Q709.941 48.6396 709.941 47.7802 Q709.941 46.499 710.785 45.6161 Q711.629 44.7333 713.019 44.7333 Q714.426 44.7333 715.285 45.6318 Q716.144 46.5302 716.144 47.8271 Q716.144 48.6552 715.746 49.2646 Q715.347 49.874 714.551 50.2021 Q715.551 50.499 716.066 51.163 Q716.582 51.8271 716.582 52.7333 Q716.582 53.999 715.605 54.8661 Q714.629 55.7333 713.051 55.7333 Q711.457 55.7333 710.48 54.8661 Q709.504 53.999 709.504 52.7021 Q709.504 51.7333 710.035 51.0849 Q710.566 50.4365 711.551 50.2021 ZM711.285 47.6865 Q711.285 48.5927 711.777 49.163 Q712.269 49.7333 713.051 49.7333 Q713.816 49.7333 714.301 49.163 Q714.785 48.5927 714.785 47.7646 Q714.785 46.9052 714.285 46.3193 Q713.785 45.7333 713.035 45.7333 Q712.285 45.7333 711.785 46.3036 Q711.285 46.874 711.285 47.6865 ZM710.863 52.7177 Q710.863 53.2333 711.129 53.7177 Q711.394 54.2021 711.918 54.4677 Q712.441 54.7333 713.051 54.7333 Q713.988 54.7333 714.605 54.1708 Q715.222 53.6083 715.222 52.749 Q715.222 51.874 714.59 51.3036 Q713.957 50.7333 713.004 50.7333 Q712.082 50.7333 711.472 51.2958 Q710.863 51.8583 710.863 52.7177 Z" fill="#000000" fill-opacity="1.000000"/>
  <path d="M718.41 55.7333 L718.41 54.7333 L719.91 54.7333 L719.91 55.7333 L718.41 55.7333 Z" fill="#000000" fill-opacity="1.000000"/>
  <path d="M721.754 50.2333 Q721.754 48.3271 722.144 47.163 Q722.535 45.999 723.308 45.3661 Q724.082 44.7333 725.254 44.7333 Q726.113 44.7333 726.769 45.0849 Q727.426 45.4365 727.847 46.0927 Q728.269 46.749 728.511 47.6943 Q728.754 48.6396 728.754 50.2333 Q728.754 52.1396 728.363 53.3036 Q727.972 54.4677 727.199 55.1005 Q726.426 55.7333 725.254 55.7333 Q723.707 55.7333 722.816 54.624 Q721.754 53.2646 721.754 50.2333 ZM723.113 50.2333 Q723.113 52.9365 723.73 53.8349 Q724.347 54.7333 725.254 54.7333 Q726.16 54.7333 726.777 53.8349 Q727.394 52.9365 727.394 50.2333 Q727.394 47.5146 726.777 46.624 Q726.16 45.7333 725.238 45.7333 Q724.332 45.7333 723.785 46.5146 Q723.113 47.5302 723.113 50.2333 Z" fill="#000000" fill-opacity="1.000000"/>
  <path d="M799.595 54.7333 L799.595 55.7333 L792.502 55.7333 Q792.486 55.3427 792.658 54.9677 Q792.923 54.3583 793.525 53.7724 Q794.127 53.1865 795.252 52.124 Q797.002 50.4677 797.619 49.538 Q798.236 48.6083 798.236 47.7958 Q798.236 46.9208 797.673 46.3271 Q797.111 45.7333 796.22 45.7333 Q795.267 45.7333 794.689 46.2646 Q794.111 46.7958 794.111 47.7333 L792.752 47.7333 Q792.892 46.2646 793.798 45.499 Q794.705 44.7333 796.236 44.7333 Q797.783 44.7333 798.681 45.624 Q799.58 46.5146 799.58 47.8427 Q799.58 48.5146 799.314 49.163 Q799.048 49.8115 798.439 50.5302 Q797.83 51.249 796.408 52.5302 Q795.22 53.5927 794.884 53.9677 Q794.548 54.3427 794.33 54.7333 L799.595 54.7333 Z" fill="#000000" fill-opacity="1.000000"/>
  <path d="M800.83 52.7333 L802.205 52.7333 Q802.361 53.7333 802.923 54.2333 Q803.486 54.7333 804.267 54.7333 Q805.22 54.7333 805.884 54.0224 Q806.548 53.3115 806.548 52.1396 Q806.548 51.0302 805.916 50.3818 Q805.283 49.7333 804.252 49.7333 Q803.611 49.7333 803.103 50.0146 Q802.595 50.2958 802.298 50.7333 L801.064 50.7333 L802.095 44.7333 L807.439 44.7333 L807.439 45.7333 L803.158 45.7333 L802.58 49.3115 Q803.548 48.7333 804.611 48.7333 Q806.002 48.7333 806.97 49.6708 Q807.939 50.6083 807.939 52.0615 Q807.939 53.4677 807.095 54.4833 Q806.064 55.7333 804.267 55.7333 Q802.814 55.7333 801.884 54.913 Q800.955 54.0927 800.83 52.7333 Z" fill="#000000" fill-opacity="1.000000"/>
  <path d="M815.83 47.7333 L814.517 47.7333 Q814.345 46.8115 814.017 46.4052 Q813.486 45.7333 812.705 45.7333 Q812.064 45.7333 811.595 46.124 Q810.97 46.624 810.611 47.5771 Q810.252 48.5302 810.236 50.1708 Q810.705 49.4365 811.4 49.0849 Q812.095 48.7333 812.845 48.7333 Q814.158 48.7333 815.087 49.6865 Q816.017 50.6396 816.017 52.1396 Q816.017 53.124 815.58 53.9755 Q815.142 54.8271 814.384 55.2802 Q813.627 55.7333 812.658 55.7333 Q811.002 55.7333 809.962 54.5146 Q808.923 53.2958 808.923 50.5146 Q808.923 47.3896 810.08 45.9677 Q811.08 44.7333 812.783 44.7333 Q814.048 44.7333 814.861 45.5302 Q815.673 46.3271 815.83 47.7333 ZM810.439 52.1083 Q810.439 52.7958 810.728 53.4286 Q811.017 54.0615 811.541 54.3974 Q812.064 54.7333 812.627 54.7333 Q813.47 54.7333 814.072 54.0458 Q814.673 53.3583 814.673 52.1708 Q814.673 51.0458 814.08 50.3896 Q813.486 49.7333 812.58 49.7333 Q811.689 49.7333 811.064 50.3896 Q810.439 51.0458 810.439 52.1083 Z" fill="#000000" fill-opacity="1.000000"/>
  <path d="M817.877 55.7333 L817.877 54.7333 L819.377 54.7333 L819.377 55.7333 L817.877 55.7333 Z" fill="#000000" fill-opacity="1.000000"/>
  <path d="M821.22 50.2333 Q821.22 48.3271 821.611 47.163 Q822.002 45.999 822.775 45.3661 Q823.548 44.7333 824.72 44.7333 Q825.58 44.7333 826.236 45.0849 Q826.892 45.4365 827.314 46.0927 Q827.736 46.749 827.978 47.6943 Q828.22 48.6396 828.22 50.2333 Q828.22 52.1396 827.83 53.3036 Q827.439 54.4677 826.666 55.1005 Q825.892 55.7333 824.72 55.7333 Q823.173 55.7333 822.283 54.624 Q821.22 53.2646 821.22 50.2333 ZM822.58 50.2333 Q822.58 52.9365 823.197 53.8349 Q823.814 54.7333 824.72 54.7333 Q825.627 54.7333 826.244 53.8349 Q826.861 52.9365 826.861 50.2333 Q826.861 47.5146 826.244 46.624 Q825.627 45.7333 824.705 45.7333 Q823.798 45.7333 823.252 46.5146 Q822.58 47.5302 822.58 50.2333 Z" fill="#000000" fill-opacity="1.000000"/>
  <path d="M892.14 52.7333 L893.515 52.7333 Q893.671 53.7333 894.234 54.2333 Q894.796 54.7333 895.578 54.7333 Q896.531 54.7333 897.195 54.0224 Q897.859 53.3115 897.859 52.1396 Q897.859 51.0302 897.226 50.3818 Q896.593 49.7333 895.562 49.7333 Q894.921 49.7333 894.414 50.0146 Q893.906 50.2958 893.609 50.7333 L892.374 50.7333 L893.406 44.7333 L898.749 44.7333 L898.749 45.7333 L894.468 45.7333 L893.89 49.3115 Q894.859 48.7333 895.921 48.7333 Q897.312 48.7333 898.281 49.6708 Q899.249 50.6083 899.249 52.0615 Q899.249 53.4677 898.406 54.4833 Q897.374 55.7333 895.578 55.7333 Q894.124 55.7333 893.195 54.913 Q892.265 54.0927 892.14 52.7333 Z" fill="#000000" fill-opacity="1.000000"/>
  <path d="M905.265 55.7333 L903.937 55.7333 L903.937 47.1552 Q903.468 47.624 902.695 48.0849 Q901.921 48.5458 901.312 48.7802 L901.312 47.4833 Q902.421 46.9521 903.242 46.1943 Q904.062 45.4365 904.406 44.7333 L905.265 44.7333 L905.265 55.7333 Z" fill="#000000" fill-opacity="1.000000"/>
  <path d="M915.374 54.7333 L915.374 55.7333 L908.281 55.7333 Q908.265 55.3427 908.437 54.9677 Q908.703 54.3583 909.304 53.7724 Q909.906 53.1865 911.031 52.124 Q912.781 50.4677 913.398 49.538 Q914.015 48.6083 914.015 47.7958 Q914.015 46.9208 913.453 46.3271 Q912.89 45.7333 911.999 45.7333 Q911.046 45.7333 910.468 46.2646 Q909.89 46.7958 909.89 47.7333 L908.531 47.7333 Q908.671 46.2646 909.578 45.499 Q910.484 44.7333 912.015 44.7333 Q913.562 44.7333 914.46 45.624 Q915.359 46.5146 915.359 47.8427 Q915.359 48.5146 915.093 49.163 Q914.828 49.8115 914.218 50.5302 Q913.609 51.249 912.187 52.5302 Q910.999 53.5927 910.664 53.9677 Q910.328 54.3427 910.109 54.7333 L915.374 54.7333 Z" fill="#000000" fill-opacity="1.000000"/>
  <path d="M917.343 55.7333 L917.343 54.7333 L918.843 54.7333 L918.843 55.7333 L917.343 55.7333 Z" fill="#000000" fill-opacity="1.000000"/>
  <path d="M920.687 50.2333 Q920.687 48.3271 921.078 47.163 Q921.468 45.999 922.242 45.3661 Q923.015 44.7333 924.187 44.7333 Q925.046 44.7333 925.703 45.0849 Q926.359 45.4365 926.781 46.0927 Q927.203 46.749 927.445 47.6943 Q927.687 48.6396 927.687 50.2333 Q927.687 52.1396 927.296 53.3036 Q926.906 54.4677 926.132 55.1005 Q925.359 55.7333 924.187 55.7333 Q922.64 55.7333 921.749 54.624 Q920.687 53.2646 920.687 50.2333 ZM922.046 50.2333 Q922.046 52.9365 922.664 53.8349 Q923.281 54.7333 924.187 54.7333 Q925.093 54.7333 925.71 53.8349 Q926.328 52.9365 926.328 50.2333 Q926.328 47.5146 925.71 46.624 Q925.093 45.7333 924.171 45.7333 Q923.265 45.7333 922.718 46.5146 Q922.046 47.5302 922.046 50.2333 Z" fill="#000000" fill-opacity="1.000000"/>
  <path d="M992.497 55.7333 L991.169 55.7333 L991.169 47.1552 Q990.701 47.624 989.927 48.0849 Q989.154 48.5458 988.544 48.7802 L988.544 47.4833 Q989.654 46.9521 990.474 46.1943 Q991.294 45.4365 991.638 44.7333 L992.497 44.7333 L992.497 55.7333 Z" fill="#000000" fill-opacity="1.000000"/>
  <path d="M995.685 50.2333 Q995.685 48.3271 996.076 47.163 Q996.466 45.999 997.24 45.3661 Q998.013 44.7333 999.185 44.7333 Q1000.04 44.7333 1000.7 45.0849 Q1001.36 45.4365 1001.78 46.0927 Q1002.2 46.749 1002.44 47.6943 Q1002.68 48.6396 1002.68 50.2333 Q1002.68 52.1396 1002.29 53.3036 Q1001.9 54.4677 1001.13 55.1005 Q1000.36 55.7333 999.185 55.7333 Q997.638 55.7333 996.747 54.624 Q995.685 53.2646 995.685 50.2333 ZM997.044 50.2333 Q997.044 52.9365 997.661 53.8349 Q998.279 54.7333 999.185 54.7333 Q1000.09 54.7333 1000.71 53.8349 Q1001.33 52.9365 1001.33 50.2333 Q1001.33 47.5146 1000.71 46.624 Q1000.09 45.7333 999.169 45.7333 Q998.263 45.7333 997.716 46.5146 Q997.044 47.5302 997.044 50.2333 Z" fill="#000000" fill-opacity="1.000000"/>
  <path d="M1010.76 54.7333 L1010.76 55.7333 L1003.67 55.7333 Q1003.65 55.3427 1003.83 54.9677 Q1004.09 54.3583 1004.69 53.7724 Q1005.29 53.1865 1006.42 52.124 Q1008.17 50.4677 1008.79 49.538 Q1009.4 48.6083 1009.4 47.7958 Q1009.4 46.9208 1008.84 46.3271 Q1008.28 45.7333 1007.39 45.7333 Q1006.43 45.7333 1005.86 46.2646 Q1005.28 46.7958 1005.28 47.7333 L1003.92 47.7333 Q1004.06 46.2646 1004.97 45.499 Q1005.87 44.7333 1007.4 44.7333 Q1008.95 44.7333 1009.85 45.624 Q1010.75 46.5146 1010.75 47.8427 Q1010.75 48.5146 1010.48 49.163 Q1010.22 49.8115 1009.61 50.5302 Q1009 51.249 1007.58 52.5302 Q1006.39 53.5927 1006.05 53.9677 Q1005.72 54.3427 1005.5 54.7333 L1010.76 54.7333 Z" fill="#000000" fill-opacity="1.000000"/>
  <path d="M1016.22 55.7333 L1016.22 52.7333 L1011.56 52.7333 L1011.56 51.7333 L1016.47 44.7333 L1017.54 44.7333 L1017.54 51.7333 L1019 51.7333 L1019 52.7333 L1017.54 52.7333 L1017.54 55.7333 L1016.22 55.7333 ZM1016.22 51.7333 L1016.22 46.9365 L1012.86 51.7333 L1016.22 51.7333 Z" fill="#000000" fill-opacity="1.000000"/>
  <path d="M1020.89 55.7333 L1020.89 54.7333 L1022.39 54.7333 L1022.39 55.7333 L1020.89 55.7333 Z" fill="#000000" fill-opacity="1.000000"/>
  <path d="M1024.23 50.2333 Q1024.23 48.3271 1024.62 47.163 Q1025.01 45.999 1025.79 45.3661 Q1026.56 44.7333 1027.73 44.7333 Q1028.59 44.7333 1029.25 45.0849 Q1029.9 45.4365 1030.33 46.0927 Q1030.75 46.749 1030.99 47.6943 Q1031.23 48.6396 1031.23 50.2333 Q1031.23 52.1396 1030.84 53.3036 Q1030.45 54.4677 1029.68 55.1005 Q1028.9 55.7333 1027.73 55.7333 Q1026.18 55.7333 1025.29 54.624 Q1024.23 53.2646 1024.23 50.2333 ZM1025.59 50.2333 Q1025.59 52.9365 1026.21 53.8349 Q1026.83 54.7333 1027.73 54.7333 Q1028.64 54.7333 1029.26 53.8349 Q1029.87 52.9365 1029.87 50.2333 Q1029.87 47.5146 1029.26 46.624 Q1028.64 45.7333 1027.72 45.7333 Q1026.81 45.7333 1026.26 46.5146 Q1025.59 47.5302 1025.59 50.2333 Z" fill="#000000" fill-opacity="1.000000"/>
</svg>