<?xml version="1.0" encoding="UTF-8" ?>
<!-- Generated by clip v0.8.0 (clip-lang.org) -->
<svg xmlns="http://www.w3.org/2000/svg" width="1024" height="60">
  <rect width="1024" height="60" fill="#ffffff" fill-opacity="1"/>
  <path d="M14.667 30 L1009.333 30" fill="none" stroke="#000000" stroke-width="1.333"/>
  <path d="M14.667 32.667 L14.667 27.333" fill="none" stroke="#000000" stroke-width="1.333"/>
  <path d="M114.133 32.667 L114.133 27.333" fill="none" stroke="#000000" stroke-width="1.333"/>
  <path d="M213.600 32.667 L213.600 27.333" fill="none" stroke="#000000" stroke-width="1.333"/>
  <path d="M313.067 32.667 L313.067 27.333" fill="none" stroke="#000000" stroke-width="1.333"/>
  <path d="M412.533 32.667 L412.533 27.333" fill="none" stroke="#000000" stroke-width="1.333"/>
  <path d="M512 32.667 L512 27.333" fill="none" stroke="#000000" stroke-width="1.333"/>
  <path d="M611.467 32.667 L611.467 27.333" fill="none" stroke="#000000" stroke-width="1.333"/>
  <path d="M710.933 32.667 L710.933 27.333" fill="none" stroke="#000000" stroke-width="1.333"/>
  <path d="M810.400 32.667 L810.400 27.333" fill="none" stroke="#000000" stroke-width="1.333"/>
  <path d="M909.867 32.667 L909.867 27.333" fill="none" stroke="#000000" stroke-width="1.333"/>
  <path d="M1009.333 32.667 L1009.333 27.333" fill="none" stroke="#000000" stroke-width="1.333"/>
  <path d="M10.065 55.733 L8.737 55.733 L8.737 47.155 Q8.268 47.624 7.495 48.085 Q6.721 48.546 6.112 48.780 L6.112 47.483 Q7.221 46.952 8.042 46.194 Q8.862 45.436 9.206 44.733 L10.065 44.733 L10.065 55.733 Z"/>
  <path d="M13.987 55.733 L13.987 54.733 L15.487 54.733 L15.487 55.733 L13.987 55.733 Z"/>
  <path d="M17.331 50.233 Q17.331 48.327 17.721 47.163 Q18.112 45.999 18.885 45.366 Q19.659 44.733 20.831 44.733 Q21.690 44.733 22.346 45.085 Q23.003 45.436 23.424 46.093 Q23.846 46.749 24.089 47.694 Q24.331 48.640 24.331 50.233 Q24.331 52.140 23.940 53.304 Q23.549 54.468 22.776 55.101 Q22.003 55.733 20.831 55.733 Q19.284 55.733 18.393 54.624 Q17.331 53.265 17.331 50.233 Z M18.690 50.233 Q18.690 52.936 19.307 53.835 Q19.924 54.733 20.831 54.733 Q21.737 54.733 22.354 53.835 Q22.971 52.936 22.971 50.233 Q22.971 47.515 22.354 46.624 Q21.737 45.733 20.815 45.733 Q19.909 45.733 19.362 46.515 Q18.690 47.530 18.690 50.233 Z"/>
  <path d="M111.485 54.733 L111.485 55.733 L104.391 55.733 Q104.376 55.343 104.547 54.968 Q104.813 54.358 105.415 53.772 Q106.016 53.186 107.141 52.124 Q108.891 50.468 109.508 49.538 Q110.126 48.608 110.126 47.796 Q110.126 46.921 109.563 46.327 Q109.001 45.733 108.110 45.733 Q107.157 45.733 106.579 46.265 Q106.001 46.796 106.001 47.733 L104.641 47.733 Q104.782 46.265 105.688 45.499 Q106.594 44.733 108.126 44.733 Q109.672 44.733 110.571 45.624 Q111.469 46.515 111.469 47.843 Q111.469 48.515 111.204 49.163 Q110.938 49.811 110.329 50.530 Q109.719 51.249 108.297 52.530 Q107.110 53.593 106.774 53.968 Q106.438 54.343 106.219 54.733 L111.485 54.733 Z"/>
  <path d="M113.454 55.733 L113.454 54.733 L114.954 54.733 L114.954 55.733 L113.454 55.733 Z"/>
  <path d="M116.797 50.233 Q116.797 48.327 117.188 47.163 Q117.579 45.999 118.352 45.366 Q119.126 44.733 120.297 44.733 Q121.157 44.733 121.813 45.085 Q122.469 45.436 122.891 46.093 Q123.313 46.749 123.555 47.694 Q123.797 48.640 123.797 50.233 Q123.797 52.140 123.407 53.304 Q123.016 54.468 122.243 55.101 Q121.469 55.733 120.297 55.733 Q118.751 55.733 117.860 54.624 Q116.797 53.265 116.797 50.233 Z M118.157 50.233 Q118.157 52.936 118.774 53.835 Q119.391 54.733 120.297 54.733 Q121.204 54.733 121.821 53.835 Q122.438 52.936 122.438 50.233 Q122.438 47.515 121.821 46.624 Q121.204 45.733 120.282 45.733 Q119.376 45.733 118.829 46.515 Q118.157 47.530 118.157 50.233 Z"/>
  <path d="M208.248 55.733 L208.248 52.733 L203.592 52.733 L203.592 51.733 L208.498 44.733 L209.577 44.733 L209.577 51.733 L211.030 51.733 L211.030 52.733 L209.577 52.733 L209.577 55.733 L208.248 55.733 Z M208.248 51.733 L208.248 46.936 L204.889 51.733 L208.248 51.733 Z"/>
  <path d="M212.920 55.733 L212.920 54.733 L214.420 54.733 L214.420 55.733 L212.920 55.733 Z"/>
  <path d="M216.264 50.233 Q216.264 48.327 216.655 47.163 Q217.045 45.999 217.819 45.366 Q218.592 44.733 219.764 44.733 Q220.623 44.733 221.280 45.085 Q221.936 45.436 222.358 46.093 Q222.780 46.749 223.022 47.694 Q223.264 48.640 223.264 50.233 Q223.264 52.140 222.873 53.304 Q222.483 54.468 221.709 55.101 Q220.936 55.733 219.764 55.733 Q218.217 55.733 217.327 54.624 Q216.264 53.265 216.264 50.233 Z M217.623 50.233 Q217.623 52.936 218.241 53.835 Q218.858 54.733 219.764 54.733 Q220.670 54.733 221.287 53.835 Q221.905 52.936 221.905 50.233 Q221.905 47.515 221.287 46.624 Q220.670 45.733 219.748 45.733 Q218.842 45.733 218.295 46.515 Q217.623 47.530 217.623 50.233 Z"/>
  <path d="M305.528 50.202 Q304.715 49.874 304.317 49.257 Q303.918 48.640 303.918 47.780 Q303.918 46.499 304.762 45.616 Q305.606 44.733 306.996 44.733 Q308.403 44.733 309.262 45.632 Q310.121 46.530 310.121 47.827 Q310.121 48.655 309.723 49.265 Q309.324 49.874 308.528 50.202 Q309.528 50.499 310.043 51.163 Q310.559 51.827 310.559 52.733 Q310.559 53.999 309.582 54.866 Q308.606 55.733 307.028 55.733 Q305.434 55.733 304.457 54.866 Q303.481 53.999 303.481 52.702 Q303.481 51.733 304.012 51.085 Q304.543 50.436 305.528 50.202 Z M305.262 47.686 Q305.262 48.593 305.754 49.163 Q306.246 49.733 307.028 49.733 Q307.793 49.733 308.278 49.163 Q308.762 48.593 308.762 47.765 Q308.762 46.905 308.262 46.319 Q307.762 45.733 307.012 45.733 Q306.262 45.733 305.762 46.304 Q305.262 46.874 305.262 47.686 Z M304.840 52.718 Q304.840 53.233 305.106 53.718 Q305.371 54.202 305.895 54.468 Q306.418 54.733 307.028 54.733 Q307.965 54.733 308.582 54.171 Q309.199 53.608 309.199 52.749 Q309.199 51.874 308.567 51.304 Q307.934 50.733 306.981 50.733 Q306.059 50.733 305.449 51.296 Q304.840 51.858 304.840 52.718 Z"/>
  <path d="M312.387 55.733 L312.387 54.733 L313.887 54.733 L313.887 55.733 L312.387 55.733 Z"/>
  <path d="M315.731 50.233 Q315.731 48.327 316.121 47.163 Q316.512 45.999 317.285 45.366 Q318.059 44.733 319.231 44.733 Q320.090 44.733 320.746 45.085 Q321.403 45.436 321.824 46.093 Q322.246 46.749 322.489 47.694 Q322.731 48.640 322.731 50.233 Q322.731 52.140 322.340 53.304 Q321.949 54.468 321.176 55.101 Q320.403 55.733 319.231 55.733 Q317.684 55.733 316.793 54.624 Q315.731 53.265 315.731 50.233 Z M317.090 50.233 Q317.090 52.936 317.707 53.835 Q318.324 54.733 319.231 54.733 Q320.137 54.733 320.754 53.835 Q321.371 52.936 321.371 50.233 Q321.371 47.515 320.754 46.624 Q320.137 45.733 319.215 45.733 Q318.309 45.733 317.762 46.515 Q317.090 47.530 317.090 50.233 Z"/>
  <path d="M403.854 55.733 L402.526 55.733 L402.526 47.155 Q402.057 47.624 401.283 48.085 Q400.510 48.546 399.901 48.780 L399.901 47.483 Q401.010 46.952 401.830 46.194 Q402.651 45.436 402.994 44.733 L403.854 44.733 L403.854 55.733 Z"/>
  <path d="M413.885 47.733 L412.572 47.733 Q412.401 46.811 412.072 46.405 Q411.541 45.733 410.760 45.733 Q410.119 45.733 409.651 46.124 Q409.026 46.624 408.666 47.577 Q408.307 48.530 408.291 50.171 Q408.760 49.436 409.455 49.085 Q410.151 48.733 410.901 48.733 Q412.213 48.733 413.143 49.686 Q414.072 50.640 414.072 52.140 Q414.072 53.124 413.635 53.976 Q413.197 54.827 412.440 55.280 Q411.682 55.733 410.713 55.733 Q409.057 55.733 408.018 54.515 Q406.979 53.296 406.979 50.515 Q406.979 47.390 408.135 45.968 Q409.135 44.733 410.838 44.733 Q412.104 44.733 412.916 45.530 Q413.729 46.327 413.885 47.733 Z M408.494 52.108 Q408.494 52.796 408.783 53.429 Q409.072 54.061 409.596 54.397 Q410.119 54.733 410.682 54.733 Q411.526 54.733 412.127 54.046 Q412.729 53.358 412.729 52.171 Q412.729 51.046 412.135 50.390 Q411.541 49.733 410.635 49.733 Q409.744 49.733 409.119 50.390 Q408.494 51.046 408.494 52.108 Z"/>
  <path d="M415.932 55.733 L415.932 54.733 L417.432 54.733 L417.432 55.733 L415.932 55.733 Z"/>
  <path d="M419.276 50.233 Q419.276 48.327 419.666 47.163 Q420.057 45.999 420.830 45.366 Q421.604 44.733 422.776 44.733 Q423.635 44.733 424.291 45.085 Q424.947 45.436 425.369 46.093 Q425.791 46.749 426.033 47.694 Q426.276 48.640 426.276 50.233 Q426.276 52.140 425.885 53.304 Q425.494 54.468 424.721 55.101 Q423.947 55.733 422.776 55.733 Q421.229 55.733 420.338 54.624 Q419.276 53.265 419.276 50.233 Z M420.635 50.233 Q420.635 52.936 421.252 53.835 Q421.869 54.733 422.776 54.733 Q423.682 54.733 424.299 53.835 Q424.916 52.936 424.916 50.233 Q424.916 47.515 424.299 46.624 Q423.682 45.733 422.760 45.733 Q421.854 45.733 421.307 46.515 Q420.635 47.530 420.635 50.233 Z"/>
  <path d="M498.352 52.733 L499.680 52.733 Q499.914 53.796 500.453 54.265 Q500.992 54.733 501.773 54.733 Q502.711 54.733 503.352 54.116 Q503.992 53.499 503.992 52.593 Q503.992 51.718 503.398 51.147 Q502.805 50.577 501.883 50.577 Q501.508 50.577 500.961 50.733 L501.102 49.733 Q501.242 49.749 501.320 49.749 Q502.164 49.749 502.836 49.241 Q503.508 48.733 503.508 47.671 Q503.508 46.843 503.016 46.288 Q502.523 45.733 501.742 45.733 Q500.977 45.733 500.461 46.233 Q499.945 46.733 499.805 47.733 L498.492 47.733 Q498.727 46.311 499.586 45.522 Q500.445 44.733 501.727 44.733 Q502.602 44.733 503.344 45.140 Q504.086 45.546 504.477 46.249 Q504.867 46.952 504.867 47.749 Q504.867 48.499 504.492 49.116 Q504.117 49.733 503.383 50.093 Q504.336 50.296 504.859 50.944 Q505.383 51.593 505.383 52.577 Q505.383 53.890 504.359 54.811 Q503.336 55.733 501.758 55.733 Q500.352 55.733 499.414 54.897 Q498.477 54.061 498.352 52.733 Z"/>
  <path d="M513.430 54.733 L513.430 55.733 L506.336 55.733 Q506.320 55.343 506.492 54.968 Q506.758 54.358 507.359 53.772 Q507.961 53.186 509.086 52.124 Q510.836 50.468 511.453 49.538 Q512.070 48.608 512.070 47.796 Q512.070 46.921 511.508 46.327 Q510.945 45.733 510.055 45.733 Q509.102 45.733 508.523 46.265 Q507.945 46.796 507.945 47.733 L506.586 47.733 Q506.727 46.265 507.633 45.499 Q508.539 44.733 510.070 44.733 Q511.617 44.733 512.516 45.624 Q513.414 46.515 513.414 47.843 Q513.414 48.515 513.148 49.163 Q512.883 49.811 512.273 50.530 Q511.664 51.249 510.242 52.530 Q509.055 53.593 508.719 53.968 Q508.383 54.343 508.164 54.733 L513.430 54.733 Z"/>
  <path d="M515.398 55.733 L515.398 54.733 L516.898 54.733 L516.898 55.733 L515.398 55.733 Z"/>
  <path d="M518.742 50.233 Q518.742 48.327 519.133 47.163 Q519.523 45.999 520.297 45.366 Q521.070 44.733 522.242 44.733 Q523.102 44.733 523.758 45.085 Q524.414 45.436 524.836 46.093 Q525.258 46.749 525.500 47.694 Q525.742 48.640 525.742 50.233 Q525.742 52.140 525.352 53.304 Q524.961 54.468 524.188 55.101 Q523.414 55.733 522.242 55.733 Q520.695 55.733 519.805 54.624 Q518.742 53.265 518.742 50.233 Z M520.102 50.233 Q520.102 52.936 520.719 53.835 Q521.336 54.733 522.242 54.733 Q523.148 54.733 523.766 53.835 Q524.383 52.936 524.383 50.233 Q524.383 47.515 523.766 46.624 Q523.148 45.733 522.227 45.733 Q521.320 45.733 520.773 46.515 Q520.102 47.530 520.102 50.233 Z"/>
  <path d="M604.662 47.733 L603.349 47.733 Q603.178 46.811 602.849 46.405 Q602.318 45.733 601.537 45.733 Q600.896 45.733 600.428 46.124 Q599.803 46.624 599.443 47.577 Q599.084 48.530 599.068 50.171 Q599.537 49.436 600.232 49.085 Q600.928 48.733 601.678 48.733 Q602.990 48.733 603.920 49.686 Q604.849 50.640 604.849 52.140 Q604.849 53.124 604.412 53.976 Q603.974 54.827 603.217 55.280 Q602.459 55.733 601.490 55.733 Q599.834 55.733 598.795 54.515 Q597.756 53.296 597.756 50.515 Q597.756 47.390 598.912 45.968 Q599.912 44.733 601.615 44.733 Q602.881 44.733 603.693 45.530 Q604.506 46.327 604.662 47.733 Z M599.271 52.108 Q599.271 52.796 599.560 53.429 Q599.849 54.061 600.373 54.397 Q600.896 54.733 601.459 54.733 Q602.303 54.733 602.904 54.046 Q603.506 53.358 603.506 52.171 Q603.506 51.046 602.912 50.390 Q602.318 49.733 601.412 49.733 Q600.521 49.733 599.896 50.390 Q599.271 51.046 599.271 52.108 Z"/>
  <path d="M610.193 55.733 L610.193 52.733 L605.537 52.733 L605.537 51.733 L610.443 44.733 L611.521 44.733 L611.521 51.733 L612.974 51.733 L612.974 52.733 L611.521 52.733 L611.521 55.733 L610.193 55.733 Z M610.193 51.733 L610.193 46.936 L606.834 51.733 L610.193 51.733 Z"/>
  <path d="M614.865 55.733 L614.865 54.733 L616.365 54.733 L616.365 55.733 L614.865 55.733 Z"/>
  <path d="M618.209 50.233 Q618.209 48.327 618.599 47.163 Q618.990 45.999 619.764 45.366 Q620.537 44.733 621.709 44.733 Q622.568 44.733 623.224 45.085 Q623.881 45.436 624.303 46.093 Q624.724 46.749 624.967 47.694 Q625.209 48.640 625.209 50.233 Q625.209 52.140 624.818 53.304 Q624.428 54.468 623.654 55.101 Q622.881 55.733 621.709 55.733 Q620.162 55.733 619.271 54.624 Q618.209 53.265 618.209 50.233 Z M619.568 50.233 Q619.568 52.936 620.185 53.835 Q620.803 54.733 621.709 54.733 Q622.615 54.733 623.232 53.835 Q623.849 52.936 623.849 50.233 Q623.849 47.515 623.232 46.624 Q622.615 45.733 621.693 45.733 Q620.787 45.733 620.240 46.515 Q619.568 47.530 619.568 50.233 Z"/>
  <path d="M698.176 55.733 L696.847 55.733 L696.847 47.155 Q696.379 47.624 695.605 48.085 Q694.832 48.546 694.222 48.780 L694.222 47.483 Q695.332 46.952 696.152 46.194 Q696.972 45.436 697.316 44.733 L698.176 44.733 L698.176 55.733 Z"/>
  <path d="M708.285 54.733 L708.285 55.733 L701.191 55.733 Q701.176 55.343 701.347 54.968 Q701.613 54.358 702.215 53.772 Q702.816 53.186 703.941 52.124 Q705.691 50.468 706.308 49.538 Q706.926 48.608 706.926 47.796 Q706.926 46.921 706.363 46.327 Q705.801 45.733 704.910 45.733 Q703.957 45.733 703.379 46.265 Q702.801 46.796 702.801 47.733 L701.441 47.733 Q701.582 46.265 702.488 45.499 Q703.394 44.733 704.926 44.733 Q706.472 44.733 707.371 45.624 Q708.269 46.515 708.269 47.843 Q708.269 48.515 708.004 49.163 Q707.738 49.811 707.129 50.530 Q706.519 51.249 705.097 52.530 Q703.910 53.593 703.574 53.968 Q703.238 54.343 703.019 54.733 L708.285 54.733 Z"/>
  <path d="M711.551 50.202 Q710.738 49.874 710.340 49.257 Q709.941 48.640 709.941 47.780 Q709.941 46.499 710.785 45.616 Q711.629 44.733 713.019 44.733 Q714.426 44.733 715.285 45.632 Q716.144 46.530 716.144 47.827 Q716.144 48.655 715.746 49.265 Q715.347 49.874 714.551 50.202 Q715.551 50.499 716.066 51.163 Q716.582 51.827 716.582 52.733 Q716.582 53.999 715.605 54.866 Q714.629 55.733 713.051 55.733 Q711.457 55.733 710.480 54.866 Q709.504 53.999 709.504 52.702 Q709.504 51.733 710.035 51.085 Q710.566 50.436 711.551 50.202 Z M711.285 47.686 Q711.285 48.593 711.777 49.163 Q712.269 49.733 713.051 49.733 Q713.816 49.733 714.301 49.163 Q714.785 48.593 714.785 47.765 Q714.785 46.905 714.285 46.319 Q713.785 45.733 713.035 45.733 Q712.285 45.733 711.785 46.304 Q711.285 46.874 711.285 47.686 Z M710.863 52.718 Q710.863 53.233 711.129 53.718 Q711.394 54.202 711.918 54.468 Q712.441 54.733 713.051 54.733 Q713.988 54.733 714.605 54.171 Q715.222 53.608 715.222 52.749 Q715.222 51.874 714.590 51.304 Q713.957 50.733 713.004 50.733 Q712.082 50.733 711.472 51.296 Q710.863 51.858 710.863 52.718 Z"/>
  <path d="M718.410 55.733 L718.410 54.733 L719.910 54.733 L719.910 55.733 L718.410 55.733 Z"/>
  <path d="M721.754 50.233 Q721.754 48.327 722.144 47.163 Q722.535 45.999 723.308 45.366 Q724.082 44.733 725.254 44.733 Q726.113 44.733 726.769 45.085 Q727.426 45.436 727.847 46.093 Q728.269 46.749 728.511 47.694 Q728.754 48.640 728.754 50.233 Q728.754 52.140 728.363 53.304 Q727.972 54.468 727.199 55.101 Q726.426 55.733 725.254 55.733 Q723.707 55.733 722.816 54.624 Q721.754 53.265 721.754 50.233 Z M723.113 50.233 Q723.113 52.936 723.730 53.835 Q724.347 54.733 725.254 54.733 Q726.160 54.733 726.777 53.835 Q727.394 52.936 727.394 50.233 Q727.394 47.515 726.777 46.624 Q726.160 45.733 725.238 45.733 Q724.332 45.733 723.785 46.515 Q723.113 47.530 723.113 50.233 Z"/>
  <path d="M799.595 54.733 L799.595 55.733 L792.502 55.733 Q792.486 55.343 792.658 54.968 Q792.923 54.358 793.525 53.772 Q794.127 53.186 795.252 52.124 Q797.002 50.468 797.619 49.538 Q798.236 48.608 798.236 47.796 Q798.236 46.921 797.673 46.327 Q797.111 45.733 796.220 45.733 Q795.267 45.733 794.689 46.265 Q794.111 46.796 794.111 47.733 L792.752 47.733 Q792.892 46.265 793.798 45.499 Q794.705 44.733 796.236 44.733 Q797.783 44.733 798.681 45.624 Q799.580 46.515 799.580 47.843 Q799.580 48.515 799.314 49.163 Q799.048 49.811 798.439 50.530 Q797.830 51.249 796.408 52.530 Q795.220 53.593 794.884 53.968 Q794.548 54.343 794.330 54.733 L799.595 54.733 Z"/>
  <path d="M800.830 52.733 L802.205 52.733 Q802.361 53.733 802.923 54.233 Q803.486 54.733 804.267 54.733 Q805.220 54.733 805.884 54.022 Q806.548 53.311 806.548 52.140 Q806.548 51.030 805.916 50.382 Q805.283 49.733 804.252 49.733 Q803.611 49.733 803.103 50.015 Q802.595 50.296 802.298 50.733 L801.064 50.733 L802.095 44.733 L807.439 44.733 L807.439 45.733 L803.158 45.733 L802.580 49.311 Q803.548 48.733 804.611 48.733 Q806.002 48.733 806.970 49.671 Q807.939 50.608 807.939 52.061 Q807.939 53.468 807.095 54.483 Q806.064 55.733 804.267 55.733 Q802.814 55.733 801.884 54.913 Q800.955 54.093 800.830 52.733 Z"/>
  <path d="M815.830 47.733 L814.517 47.733 Q814.345 46.811 814.017 46.405 Q813.486 45.733 812.705 45.733 Q812.064 45.733 811.595 46.124 Q810.970 46.624 810.611 47.577 Q810.252 48.530 810.236 50.171 Q810.705 49.436 811.400 49.085 Q812.095 48.733 812.845 48.733 Q814.158 48.733 815.087 49.686 Q816.017 50.640 816.017 52.140 Q816.017 53.124 815.580 53.976 Q815.142 54.827 814.384 55.280 Q813.627 55.733 812.658 55.733 Q811.002 55.733 809.962 54.515 Q808.923 53.296 808.923 50.515 Q808.923 47.390 810.080 45.968 Q811.080 44.733 812.783 44.733 Q814.048 44.733 814.861 45.530 Q815.673 46.327 815.830 47.733 Z M810.439 52.108 Q810.439 52.796 810.728 53.429 Q811.017 54.061 811.541 54.397 Q812.064 54.733 812.627 54.733 Q813.470 54.733 814.072 54.046 Q814.673 53.358 814.673 52.171 Q814.673 51.046 814.080 50.390 Q813.486 49.733 812.580 49.733 Q811.689 49.733 811.064 50.390 Q810.439 51.046 810.439 52.108 Z"/>
  <path d="M817.877 55.733 L817.877 54.733 L819.377 54.733 L819.377 55.733 L817.877 55.733 Z"/>
  <path d="M821.220 50.233 Q821.220 48.327 821.611 47.163 Q822.002 45.999 822.775 45.366 Q823.548 44.733 824.720 44.733 Q825.580 44.733 826.236 45.085 Q826.892 45.436 827.314 46.093 Q827.736 46.749 827.978 47.694 Q828.220 48.640 828.220 50.233 Q828.220 52.140 827.830 53.304 Q827.439 54.468 826.666 55.101 Q825.892 55.733 824.720 55.733 Q823.173 55.733 822.283 54.624 Q821.220 53.265 821.220 50.233 Z M822.580 50.233 Q822.580 52.936 823.197 53.835 Q823.814 54.733 824.720 54.733 Q825.627 54.733 826.244 53.835 Q826.861 52.936 826.861 50.233 Q826.861 47.515 826.244 46.624 Q825.627 45.733 824.705 45.733 Q823.798 45.733 823.252 46.515 Q822.580 47.530 822.580 50.233 Z"/>
  <path d="M892.140 52.733 L893.515 52.733 Q893.671 53.733 894.234 54.233 Q894.796 54.733 895.578 54.733 Q896.531 54.733 897.195 54.022 Q897.859 53.311 897.859 52.140 Q897.859 51.030 897.226 50.382 Q896.593 49.733 895.562 49.733 Q894.921 49.733 894.414 50.015 Q893.906 50.296 893.609 50.733 L892.374 50.733 L893.406 44.733 L898.749 44.733 L898.749 45.733 L894.468 45.733 L893.890 49.311 Q894.859 48.733 895.921 48.733 Q897.312 48.733 898.281 49.671 Q899.249 50.608 899.249 52.061 Q899.249 53.468 898.406 54.483 Q897.374 55.733 895.578 55.733 Q894.124 55.733 893.195 54.913 Q892.265 54.093 892.140 52.733 Z"/>
  <path d="M905.265 55.733 L903.937 55.733 L903.937 47.155 Q903.468 47.624 902.695 48.085 Q901.921 48.546 901.312 48.780 L901.312 47.483 Q902.421 46.952 903.242 46.194 Q904.062 45.436 904.406 44.733 L905.265 44.733 L905.265 55.733 Z"/>
  <path d="M915.374 54.733 L915.374 55.733 L908.281 55.733 Q908.265 55.343 908.437 54.968 Q908.703 54.358 909.304 53.772 Q909.906 53.186 911.031 52.124 Q912.781 50.468 913.398 49.538 Q914.015 48.608 914.015 47.796 Q914.015 46.921 913.453 46.327 Q912.890 45.733 911.999 45.733 Q911.046 45.733 910.468 46.265 Q909.890 46.796 909.890 47.733 L908.531 47.733 Q908.671 46.265 909.578 45.499 Q910.484 44.733 912.015 44.733 Q913.562 44.733 914.460 45.624 Q915.359 46.515 915.359 47.843 Q915.359 48.515 915.093 49.163 Q914.828 49.811 914.218 50.530 Q913.609 51.249 912.187 52.530 Q910.999 53.593 910.664 53.968 Q910.328 54.343 910.109 54.733 L915.374 54.733 Z"/>
  <path d="M917.343 55.733 L917.343 54.733 L918.843 54.733 L918.843 55.733 L917.343 55.733 Z"/>
  <path d="M920.687 50.233 Q920.687 48.327 921.078 47.163 Q921.468 45.999 922.242 45.366 Q923.015 44.733 924.187 44.733 Q925.046 44.733 925.703 45.085 Q926.359 45.436 926.781 46.093 Q927.203 46.749 927.445 47.694 Q927.687 48.640 927.687 50.233 Q927.687 52.140 927.296 53.304 Q926.906 54.468 926.132 55.101 Q925.359 55.733 924.187 55.733 Q922.640 55.733 921.749 54.624 Q920.687 53.265 920.687 50.233 Z M922.046 50.233 Q922.046 52.936 922.664 53.835 Q923.281 54.733 924.187 54.733 Q925.093 54.733 925.710 53.835 Q926.328 52.936 926.328 50.233 Q926.328 47.515 925.710 46.624 Q925.093 45.733 924.171 45.733 Q923.265 45.733 922.718 46.515 Q922.046 47.530 922.046 50.233 Z"/>
  <path d="M992.497 55.733 L991.169 55.733 L991.169 47.155 Q990.701 47.624 989.927 48.085 Q989.154 48.546 988.544 48.780 L988.544 47.483 Q989.654 46.952 990.474 46.194 Q991.294 45.436 991.638 44.733 L992.497 44.733 L992.497 55.733 Z"/>
  <path d="M995.685 50.233 Q995.685 48.327 996.076 47.163 Q996.466 45.999 997.240 45.366 Q998.013 44.733 999.185 44.733 Q1000.044 44.733 1000.701 45.085 Q1001.357 45.436 1001.779 46.093 Q1002.201 46.749 1002.443 47.694 Q1002.685 48.640 1002.685 50.233 Q1002.685 52.140 1002.294 53.304 Q1001.904 54.468 1001.130 55.101 Q1000.357 55.733 999.185 55.733 Q997.638 55.733 996.747 54.624 Q995.685 53.265 995.685 50.233 Z M997.044 50.233 Q997.044 52.936 997.661 53.835 Q998.279 54.733 999.185 54.733 Q1000.091 54.733 1000.708 53.835 Q1001.326 52.936 1001.326 50.233 Q1001.326 47.515 1000.708 46.624 Q1000.091 45.733 999.169 45.733 Q998.263 45.733 997.716 46.515 Q997.044 47.530 997.044 50.233 Z"/>
  <path d="M1010.763 54.733 L1010.763 55.733 L1003.669 55.733 Q1003.654 55.343 1003.826 54.968 Q1004.091 54.358 1004.693 53.772 Q1005.294 53.186 1006.419 52.124 Q1008.169 50.468 1008.786 49.538 Q1009.404 48.608 1009.404 47.796 Q1009.404 46.921 1008.841 46.327 Q1008.279 45.733 1007.388 45.733 Q1006.435 45.733 1005.857 46.265 Q1005.279 46.796 1005.279 47.733 L1003.919 47.733 Q1004.060 46.265 1004.966 45.499 Q1005.872 44.733 1007.404 44.733 Q1008.951 44.733 1009.849 45.624 Q1010.747 46.515 1010.747 47.843 Q1010.747 48.515 1010.482 49.163 Q1010.216 49.811 1009.607 50.530 Q1008.997 51.249 1007.576 52.530 Q1006.388 53.593 1006.052 53.968 Q1005.716 54.343 1005.497 54.733 L1010.763 54.733 Z"/>
  <path d="M1016.216 55.733 L1016.216 52.733 L1011.560 52.733 L1011.560 51.733 L1016.466 44.733 L1017.544 44.733 L1017.544 51.733 L1018.997 51.733 L1018.997 52.733 L1017.544 52.733 L1017.544 55.733 L1016.216 55.733 Z M1016.216 51.733 L1016.216 46.936 L1012.857 51.733 L1016.216 51.733 Z"/>
  <path d="M1020.888 55.733 L1020.888 54.733 L1022.388 54.733 L1022.388 55.733 L1020.888 55.733 Z"/>
  <path d="M1024.232 50.233 Q1024.232 48.327 1024.622 47.163 Q1025.013 45.999 1025.786 45.366 Q1026.560 44.733 1027.732 44.733 Q1028.591 44.733 1029.247 45.085 Q1029.904 45.436 1030.326 46.093 Q1030.747 46.749 1030.990 47.694 Q1031.232 48.640 1031.232 50.233 Q1031.232 52.140 1030.841 53.304 Q1030.451 54.468 1029.677 55.101 Q1028.904 55.733 1027.732 55.733 Q1026.185 55.733 1025.294 54.624 Q1024.232 53.265 1024.232 50.233 Z M1025.591 50.233 Q1025.591 52.936 1026.208 53.835 Q1026.826 54.733 1027.732 54.733 Q1028.638 54.733 1029.255 53.835 Q1029.872 52.936 1029.872 50.233 Q1029.872 47.515 1029.255 46.624 Q1028.638 45.733 1027.716 45.733 Q1026.810 45.733 1026.263 46.515 Q1025.591 47.530 1025.591 50.233 Z"/>
</svg>
