<?xml version="1.0" encoding="UTF-8" ?>
<!-- Generated by clip v0.8.0 (clip-lang.org) -->
<svg xmlns="http://www.w3.org/2000/svg" width="1024" height="60">
  <rect width="1024" height="60" fill="#ffffff" fill-opacity="1"/>
  <path d="M14.667 30 L1009.333 30" fill="none" stroke="#000000" stroke-width="1.333"/>
  <path d="M45.750 32.667 L45.750 27.333" fill="none" stroke="#000000" stroke-width="1.333"/>
  <path d="M107.917 32.667 L107.917 27.333" fill="none" stroke="#000000" stroke-width="1.333"/>
  <path d="M170.083 32.667 L170.083 27.333" fill="none" stroke="#000000" stroke-width="1.333"/>
  <path d="M232.250 32.667 L232.250 27.333" fill="none" stroke="#000000" stroke-width="1.333"/>
  <path d="M294.417 32.667 L294.417 27.333" fill="none" stroke="#000000" stroke-width="1.333"/>
  <path d="M356.583 32.667 L356.583 27.333" fill="none" stroke="#000000" stroke-width="1.333"/>
  <path d="M418.750 32.667 L418.750 27.333" fill="none" stroke="#000000" stroke-width="1.333"/>
  <path d="M480.917 32.667 L480.917 27.333" fill="none" stroke="#000000" stroke-width="1.333"/>
  <path d="M543.083 32.667 L543.083 27.333" fill="none" stroke="#000000" stroke-width="1.333"/>
  <path d="M605.250 32.667 L605.250 27.333" fill="none" stroke="#000000" stroke-width="1.333"/>
  <path d="M667.417 32.667 L667.417 27.333" fill="none" stroke="#000000" stroke-width="1.333"/>
  <path d="M729.583 32.667 L729.583 27.333" fill="none" stroke="#000000" stroke-width="1.333"/>
  <path d="M791.750 32.667 L791.750 27.333" fill="none" stroke="#000000" stroke-width="1.333"/>
  <path d="M853.917 32.667 L853.917 27.333" fill="none" stroke="#000000" stroke-width="1.333"/>
  <path d="M916.083 32.667 L916.083 27.333" fill="none" stroke="#000000" stroke-width="1.333"/>
  <path d="M978.250 32.667 L978.250 27.333" fill="none" stroke="#000000" stroke-width="1.333"/>
  <path d="M36.180 50.233 Q36.180 48.327 36.570 47.163 Q36.961 45.999 37.734 45.366 Q38.508 44.733 39.680 44.733 Q40.539 44.733 41.195 45.085 Q41.852 45.436 42.273 46.093 Q42.695 46.749 42.938 47.694 Q43.180 48.640 43.180 50.233 Q43.180 52.140 42.789 53.304 Q42.398 54.468 41.625 55.101 Q40.852 55.733 39.680 55.733 Q38.133 55.733 37.242 54.624 Q36.180 53.265 36.180 50.233 Z M37.539 50.233 Q37.539 52.936 38.156 53.835 Q38.773 54.733 39.680 54.733 Q40.586 54.733 41.203 53.835 Q41.820 52.936 41.820 50.233 Q41.820 47.515 41.203 46.624 Q40.586 45.733 39.664 45.733 Q38.758 45.733 38.211 46.515 Q37.539 47.530 37.539 50.233 Z"/>
  <path d="M45.070 55.733 L45.070 54.733 L46.570 54.733 L46.570 55.733 L45.070 55.733 Z"/>
  <path d="M48.414 52.733 L49.789 52.733 Q49.945 53.733 50.508 54.233 Q51.070 54.733 51.852 54.733 Q52.805 54.733 53.469 54.022 Q54.133 53.311 54.133 52.140 Q54.133 51.030 53.500 50.382 Q52.867 49.733 51.836 49.733 Q51.195 49.733 50.688 50.015 Q50.180 50.296 49.883 50.733 L48.648 50.733 L49.680 44.733 L55.023 44.733 L55.023 45.733 L50.742 45.733 L50.164 49.311 Q51.133 48.733 52.195 48.733 Q53.586 48.733 54.555 49.671 Q55.523 50.608 55.523 52.061 Q55.523 53.468 54.680 54.483 Q53.648 55.733 51.852 55.733 Q50.398 55.733 49.469 54.913 Q48.539 54.093 48.414 52.733 Z"/>
  <path d="M103.315 55.733 L101.987 55.733 L101.987 47.155 Q101.518 47.624 100.745 48.085 Q99.971 48.546 99.362 48.780 L99.362 47.483 Q100.471 46.952 101.292 46.194 Q102.112 45.436 102.456 44.733 L103.315 44.733 L103.315 55.733 Z"/>
  <path d="M107.237 55.733 L107.237 54.733 L108.737 54.733 L108.737 55.733 L107.237 55.733 Z"/>
  <path d="M110.581 52.733 L111.956 52.733 Q112.112 53.733 112.674 54.233 Q113.237 54.733 114.018 54.733 Q114.971 54.733 115.635 54.022 Q116.299 53.311 116.299 52.140 Q116.299 51.030 115.667 50.382 Q115.034 49.733 114.003 49.733 Q113.362 49.733 112.854 50.015 Q112.346 50.296 112.049 50.733 L110.815 50.733 L111.846 44.733 L117.190 44.733 L117.190 45.733 L112.909 45.733 L112.331 49.311 Q113.299 48.733 114.362 48.733 Q115.753 48.733 116.721 49.671 Q117.690 50.608 117.690 52.061 Q117.690 53.468 116.846 54.483 Q115.815 55.733 114.018 55.733 Q112.565 55.733 111.635 54.913 Q110.706 54.093 110.581 52.733 Z"/>
  <path d="M167.435 54.733 L167.435 55.733 L160.341 55.733 Q160.326 55.343 160.497 54.968 Q160.763 54.358 161.365 53.772 Q161.966 53.186 163.091 52.124 Q164.841 50.468 165.458 49.538 Q166.076 48.608 166.076 47.796 Q166.076 46.921 165.513 46.327 Q164.951 45.733 164.060 45.733 Q163.107 45.733 162.529 46.265 Q161.951 46.796 161.951 47.733 L160.591 47.733 Q160.732 46.265 161.638 45.499 Q162.544 44.733 164.076 44.733 Q165.622 44.733 166.521 45.624 Q167.419 46.515 167.419 47.843 Q167.419 48.515 167.154 49.163 Q166.888 49.811 166.279 50.530 Q165.669 51.249 164.247 52.530 Q163.060 53.593 162.724 53.968 Q162.388 54.343 162.169 54.733 L167.435 54.733 Z"/>
  <path d="M169.404 55.733 L169.404 54.733 L170.904 54.733 L170.904 55.733 L169.404 55.733 Z"/>
  <path d="M172.747 52.733 L174.122 52.733 Q174.279 53.733 174.841 54.233 Q175.404 54.733 176.185 54.733 Q177.138 54.733 177.802 54.022 Q178.466 53.311 178.466 52.140 Q178.466 51.030 177.833 50.382 Q177.201 49.733 176.169 49.733 Q175.529 49.733 175.021 50.015 Q174.513 50.296 174.216 50.733 L172.982 50.733 L174.013 44.733 L179.357 44.733 L179.357 45.733 L175.076 45.733 L174.497 49.311 Q175.466 48.733 176.529 48.733 Q177.919 48.733 178.888 49.671 Q179.857 50.608 179.857 52.061 Q179.857 53.468 179.013 54.483 Q177.982 55.733 176.185 55.733 Q174.732 55.733 173.802 54.913 Q172.872 54.093 172.747 52.733 Z"/>
  <path d="M222.680 52.733 L224.008 52.733 Q224.242 53.796 224.781 54.265 Q225.320 54.733 226.102 54.733 Q227.039 54.733 227.680 54.116 Q228.320 53.499 228.320 52.593 Q228.320 51.718 227.727 51.147 Q227.133 50.577 226.211 50.577 Q225.836 50.577 225.289 50.733 L225.430 49.733 Q225.570 49.749 225.648 49.749 Q226.492 49.749 227.164 49.241 Q227.836 48.733 227.836 47.671 Q227.836 46.843 227.344 46.288 Q226.852 45.733 226.070 45.733 Q225.305 45.733 224.789 46.233 Q224.273 46.733 224.133 47.733 L222.820 47.733 Q223.055 46.311 223.914 45.522 Q224.773 44.733 226.055 44.733 Q226.930 44.733 227.672 45.140 Q228.414 45.546 228.805 46.249 Q229.195 46.952 229.195 47.749 Q229.195 48.499 228.820 49.116 Q228.445 49.733 227.711 50.093 Q228.664 50.296 229.187 50.944 Q229.711 51.593 229.711 52.577 Q229.711 53.890 228.687 54.811 Q227.664 55.733 226.086 55.733 Q224.680 55.733 223.742 54.897 Q222.805 54.061 222.680 52.733 Z"/>
  <path d="M231.570 55.733 L231.570 54.733 L233.070 54.733 L233.070 55.733 L231.570 55.733 Z"/>
  <path d="M234.914 52.733 L236.289 52.733 Q236.445 53.733 237.008 54.233 Q237.570 54.733 238.352 54.733 Q239.305 54.733 239.969 54.022 Q240.633 53.311 240.633 52.140 Q240.633 51.030 240.000 50.382 Q239.367 49.733 238.336 49.733 Q237.695 49.733 237.187 50.015 Q236.680 50.296 236.383 50.733 L235.148 50.733 L236.180 44.733 L241.523 44.733 L241.523 45.733 L237.242 45.733 L236.664 49.311 Q237.633 48.733 238.695 48.733 Q240.086 48.733 241.055 49.671 Q242.023 50.608 242.023 52.061 Q242.023 53.468 241.180 54.483 Q240.148 55.733 238.352 55.733 Q236.898 55.733 235.969 54.913 Q235.039 54.093 234.914 52.733 Z"/>
  <path d="M289.065 55.733 L289.065 52.733 L284.409 52.733 L284.409 51.733 L289.315 44.733 L290.393 44.733 L290.393 51.733 L291.846 51.733 L291.846 52.733 L290.393 52.733 L290.393 55.733 L289.065 55.733 Z M289.065 51.733 L289.065 46.936 L285.706 51.733 L289.065 51.733 Z"/>
  <path d="M293.737 55.733 L293.737 54.733 L295.237 54.733 L295.237 55.733 L293.737 55.733 Z"/>
  <path d="M297.081 52.733 L298.456 52.733 Q298.612 53.733 299.174 54.233 Q299.737 54.733 300.518 54.733 Q301.471 54.733 302.135 54.022 Q302.799 53.311 302.799 52.140 Q302.799 51.030 302.167 50.382 Q301.534 49.733 300.503 49.733 Q299.862 49.733 299.354 50.015 Q298.846 50.296 298.549 50.733 L297.315 50.733 L298.346 44.733 L303.690 44.733 L303.690 45.733 L299.409 45.733 L298.831 49.311 Q299.799 48.733 300.862 48.733 Q302.253 48.733 303.221 49.671 Q304.190 50.608 304.190 52.061 Q304.190 53.468 303.346 54.483 Q302.315 55.733 300.518 55.733 Q299.065 55.733 298.135 54.913 Q297.206 54.093 297.081 52.733 Z"/>
  <path d="M347.013 52.733 L348.388 52.733 Q348.544 53.733 349.107 54.233 Q349.669 54.733 350.451 54.733 Q351.404 54.733 352.068 54.022 Q352.732 53.311 352.732 52.140 Q352.732 51.030 352.099 50.382 Q351.466 49.733 350.435 49.733 Q349.794 49.733 349.286 50.015 Q348.779 50.296 348.482 50.733 L347.247 50.733 L348.279 44.733 L353.622 44.733 L353.622 45.733 L349.341 45.733 L348.763 49.311 Q349.732 48.733 350.794 48.733 Q352.185 48.733 353.154 49.671 Q354.122 50.608 354.122 52.061 Q354.122 53.468 353.279 54.483 Q352.247 55.733 350.451 55.733 Q348.997 55.733 348.068 54.913 Q347.138 54.093 347.013 52.733 Z"/>
  <path d="M355.904 55.733 L355.904 54.733 L357.404 54.733 L357.404 55.733 L355.904 55.733 Z"/>
  <path d="M359.247 52.733 L360.622 52.733 Q360.779 53.733 361.341 54.233 Q361.904 54.733 362.685 54.733 Q363.638 54.733 364.302 54.022 Q364.966 53.311 364.966 52.140 Q364.966 51.030 364.333 50.382 Q363.701 49.733 362.669 49.733 Q362.029 49.733 361.521 50.015 Q361.013 50.296 360.716 50.733 L359.482 50.733 L360.513 44.733 L365.857 44.733 L365.857 45.733 L361.576 45.733 L360.997 49.311 Q361.966 48.733 363.029 48.733 Q364.419 48.733 365.388 49.671 Q366.357 50.608 366.357 52.061 Q366.357 53.468 365.513 54.483 Q364.482 55.733 362.685 55.733 Q361.232 55.733 360.302 54.913 Q359.372 54.093 359.247 52.733 Z"/>
  <path d="M416.023 47.733 L414.711 47.733 Q414.539 46.811 414.211 46.405 Q413.680 45.733 412.898 45.733 Q412.258 45.733 411.789 46.124 Q411.164 46.624 410.805 47.577 Q410.445 48.530 410.430 50.171 Q410.898 49.436 411.594 49.085 Q412.289 48.733 413.039 48.733 Q414.352 48.733 415.281 49.686 Q416.211 50.640 416.211 52.140 Q416.211 53.124 415.773 53.976 Q415.336 54.827 414.578 55.280 Q413.820 55.733 412.852 55.733 Q411.195 55.733 410.156 54.515 Q409.117 53.296 409.117 50.515 Q409.117 47.390 410.273 45.968 Q411.273 44.733 412.977 44.733 Q414.242 44.733 415.055 45.530 Q415.867 46.327 416.023 47.733 Z M410.633 52.108 Q410.633 52.796 410.922 53.429 Q411.211 54.061 411.734 54.397 Q412.258 54.733 412.820 54.733 Q413.664 54.733 414.266 54.046 Q414.867 53.358 414.867 52.171 Q414.867 51.046 414.273 50.390 Q413.680 49.733 412.773 49.733 Q411.883 49.733 411.258 50.390 Q410.633 51.046 410.633 52.108 Z"/>
  <path d="M418.070 55.733 L418.070 54.733 L419.570 54.733 L419.570 55.733 L418.070 55.733 Z"/>
  <path d="M421.414 52.733 L422.789 52.733 Q422.945 53.733 423.508 54.233 Q424.070 54.733 424.852 54.733 Q425.805 54.733 426.469 54.022 Q427.133 53.311 427.133 52.140 Q427.133 51.030 426.500 50.382 Q425.867 49.733 424.836 49.733 Q424.195 49.733 423.688 50.015 Q423.180 50.296 422.883 50.733 L421.648 50.733 L422.680 44.733 L428.023 44.733 L428.023 45.733 L423.742 45.733 L423.164 49.311 Q424.133 48.733 425.195 48.733 Q426.586 48.733 427.555 49.671 Q428.523 50.608 428.523 52.061 Q428.523 53.468 427.680 54.483 Q426.648 55.733 424.852 55.733 Q423.398 55.733 422.469 54.913 Q421.539 54.093 421.414 52.733 Z"/>
  <path d="M471.424 45.733 L471.424 44.733 L478.378 44.733 L478.378 45.546 Q477.362 46.640 476.354 48.577 Q475.346 50.515 474.784 52.561 Q474.393 54.015 474.284 55.733 L472.940 55.733 Q472.956 54.374 473.432 52.452 Q473.909 50.530 474.799 48.741 Q475.690 46.952 476.690 45.733 L471.424 45.733 Z"/>
  <path d="M480.237 55.733 L480.237 54.733 L481.737 54.733 L481.737 55.733 L480.237 55.733 Z"/>
  <path d="M483.581 52.733 L484.956 52.733 Q485.112 53.733 485.674 54.233 Q486.237 54.733 487.018 54.733 Q487.971 54.733 488.635 54.022 Q489.299 53.311 489.299 52.140 Q489.299 51.030 488.667 50.382 Q488.034 49.733 487.003 49.733 Q486.362 49.733 485.854 50.015 Q485.346 50.296 485.049 50.733 L483.815 50.733 L484.846 44.733 L490.190 44.733 L490.190 45.733 L485.909 45.733 L485.331 49.311 Q486.299 48.733 487.362 48.733 Q488.753 48.733 489.721 49.671 Q490.690 50.608 490.690 52.061 Q490.690 53.468 489.846 54.483 Q488.815 55.733 487.018 55.733 Q485.565 55.733 484.635 54.913 Q483.706 54.093 483.581 52.733 Z"/>
  <path d="M535.544 50.202 Q534.732 49.874 534.333 49.257 Q533.935 48.640 533.935 47.780 Q533.935 46.499 534.779 45.616 Q535.622 44.733 537.013 44.733 Q538.419 44.733 539.279 45.632 Q540.138 46.530 540.138 47.827 Q540.138 48.655 539.740 49.265 Q539.341 49.874 538.544 50.202 Q539.544 50.499 540.060 51.163 Q540.576 51.827 540.576 52.733 Q540.576 53.999 539.599 54.866 Q538.622 55.733 537.044 55.733 Q535.451 55.733 534.474 54.866 Q533.497 53.999 533.497 52.702 Q533.497 51.733 534.029 51.085 Q534.560 50.436 535.544 50.202 Z M535.279 47.686 Q535.279 48.593 535.771 49.163 Q536.263 49.733 537.044 49.733 Q537.810 49.733 538.294 49.163 Q538.779 48.593 538.779 47.765 Q538.779 46.905 538.279 46.319 Q537.779 45.733 537.029 45.733 Q536.279 45.733 535.779 46.304 Q535.279 46.874 535.279 47.686 Z M534.857 52.718 Q534.857 53.233 535.122 53.718 Q535.388 54.202 535.911 54.468 Q536.435 54.733 537.044 54.733 Q537.982 54.733 538.599 54.171 Q539.216 53.608 539.216 52.749 Q539.216 51.874 538.583 51.304 Q537.951 50.733 536.997 50.733 Q536.076 50.733 535.466 51.296 Q534.857 51.858 534.857 52.718 Z"/>
  <path d="M542.404 55.733 L542.404 54.733 L543.904 54.733 L543.904 55.733 L542.404 55.733 Z"/>
  <path d="M545.747 52.733 L547.122 52.733 Q547.279 53.733 547.841 54.233 Q548.404 54.733 549.185 54.733 Q550.138 54.733 550.802 54.022 Q551.466 53.311 551.466 52.140 Q551.466 51.030 550.833 50.382 Q550.201 49.733 549.169 49.733 Q548.529 49.733 548.021 50.015 Q547.513 50.296 547.216 50.733 L545.982 50.733 L547.013 44.733 L552.357 44.733 L552.357 45.733 L548.076 45.733 L547.497 49.311 Q548.466 48.733 549.529 48.733 Q550.919 48.733 551.888 49.671 Q552.857 50.608 552.857 52.061 Q552.857 53.468 552.013 54.483 Q550.982 55.733 549.185 55.733 Q547.732 55.733 546.802 54.913 Q545.872 54.093 545.747 52.733 Z"/>
  <path d="M595.883 52.733 L597.148 52.733 Q597.305 53.780 597.758 54.257 Q598.211 54.733 598.930 54.733 Q599.523 54.733 599.984 54.429 Q600.445 54.124 600.734 53.616 Q601.023 53.108 601.227 52.257 Q601.430 51.405 601.430 50.577 Q601.430 50.499 601.414 50.327 Q601.023 50.952 600.336 51.343 Q599.648 51.733 598.852 51.733 Q597.523 51.733 596.602 50.788 Q595.680 49.843 595.680 48.280 Q595.680 46.686 596.641 45.710 Q597.602 44.733 599.055 44.733 Q600.102 44.733 600.969 45.296 Q601.836 45.858 602.289 46.905 Q602.742 47.952 602.742 49.936 Q602.742 52.015 602.297 53.233 Q601.852 54.452 600.969 55.093 Q600.086 55.733 598.898 55.733 Q597.633 55.733 596.836 54.944 Q596.039 54.155 595.883 52.733 Z M601.273 48.265 Q601.273 47.093 600.672 46.413 Q600.070 45.733 599.211 45.733 Q598.336 45.733 597.687 46.468 Q597.039 47.202 597.039 48.374 Q597.039 49.421 597.656 50.077 Q598.273 50.733 599.180 50.733 Q600.102 50.733 600.687 50.077 Q601.273 49.421 601.273 48.265 Z"/>
  <path d="M604.570 55.733 L604.570 54.733 L606.070 54.733 L606.070 55.733 L604.570 55.733 Z"/>
  <path d="M607.914 52.733 L609.289 52.733 Q609.445 53.733 610.008 54.233 Q610.570 54.733 611.352 54.733 Q612.305 54.733 612.969 54.022 Q613.633 53.311 613.633 52.140 Q613.633 51.030 613.000 50.382 Q612.367 49.733 611.336 49.733 Q610.695 49.733 610.187 50.015 Q609.680 50.296 609.383 50.733 L608.148 50.733 L609.180 44.733 L614.523 44.733 L614.523 45.733 L610.242 45.733 L609.664 49.311 Q610.633 48.733 611.695 48.733 Q613.086 48.733 614.055 49.671 Q615.023 50.608 615.023 52.061 Q615.023 53.468 614.180 54.483 Q613.148 55.733 611.352 55.733 Q609.898 55.733 608.969 54.913 Q608.039 54.093 607.914 52.733 Z"/>
  <path d="M658.737 55.733 L657.409 55.733 L657.409 47.155 Q656.940 47.624 656.167 48.085 Q655.393 48.546 654.784 48.780 L654.784 47.483 Q655.893 46.952 656.714 46.194 Q657.534 45.436 657.878 44.733 L658.737 44.733 L658.737 55.733 Z"/>
  <path d="M661.924 50.233 Q661.924 48.327 662.315 47.163 Q662.706 45.999 663.479 45.366 Q664.253 44.733 665.424 44.733 Q666.284 44.733 666.940 45.085 Q667.596 45.436 668.018 46.093 Q668.440 46.749 668.682 47.694 Q668.924 48.640 668.924 50.233 Q668.924 52.140 668.534 53.304 Q668.143 54.468 667.370 55.101 Q666.596 55.733 665.424 55.733 Q663.878 55.733 662.987 54.624 Q661.924 53.265 661.924 50.233 Z M663.284 50.233 Q663.284 52.936 663.901 53.835 Q664.518 54.733 665.424 54.733 Q666.331 54.733 666.948 53.835 Q667.565 52.936 667.565 50.233 Q667.565 47.515 666.948 46.624 Q666.331 45.733 665.409 45.733 Q664.503 45.733 663.956 46.515 Q663.284 47.530 663.284 50.233 Z"/>
  <path d="M670.815 55.733 L670.815 54.733 L672.315 54.733 L672.315 55.733 L670.815 55.733 Z"/>
  <path d="M674.159 52.733 L675.534 52.733 Q675.690 53.733 676.253 54.233 Q676.815 54.733 677.596 54.733 Q678.549 54.733 679.214 54.022 Q679.878 53.311 679.878 52.140 Q679.878 51.030 679.245 50.382 Q678.612 49.733 677.581 49.733 Q676.940 49.733 676.432 50.015 Q675.924 50.296 675.628 50.733 L674.393 50.733 L675.424 44.733 L680.768 44.733 L680.768 45.733 L676.487 45.733 L675.909 49.311 Q676.878 48.733 677.940 48.733 Q679.331 48.733 680.299 49.671 Q681.268 50.608 681.268 52.061 Q681.268 53.468 680.424 54.483 Q679.393 55.733 677.596 55.733 Q676.143 55.733 675.214 54.913 Q674.284 54.093 674.159 52.733 Z"/>
  <path d="M721.451 55.733 L720.122 55.733 L720.122 47.155 Q719.654 47.624 718.880 48.085 Q718.107 48.546 717.497 48.780 L717.497 47.483 Q718.607 46.952 719.427 46.194 Q720.247 45.436 720.591 44.733 L721.451 44.733 L721.451 55.733 Z"/>
  <path d="M729.060 55.733 L727.732 55.733 L727.732 47.155 Q727.263 47.624 726.490 48.085 Q725.716 48.546 725.107 48.780 L725.107 47.483 Q726.216 46.952 727.036 46.194 Q727.857 45.436 728.201 44.733 L729.060 44.733 L729.060 55.733 Z"/>
  <path d="M732.435 55.733 L732.435 54.733 L733.935 54.733 L733.935 55.733 L732.435 55.733 Z"/>
  <path d="M735.779 52.733 L737.154 52.733 Q737.310 53.733 737.872 54.233 Q738.435 54.733 739.216 54.733 Q740.169 54.733 740.833 54.022 Q741.497 53.311 741.497 52.140 Q741.497 51.030 740.865 50.382 Q740.232 49.733 739.201 49.733 Q738.560 49.733 738.052 50.015 Q737.544 50.296 737.247 50.733 L736.013 50.733 L737.044 44.733 L742.388 44.733 L742.388 45.733 L738.107 45.733 L737.529 49.311 Q738.497 48.733 739.560 48.733 Q740.951 48.733 741.919 49.671 Q742.888 50.608 742.888 52.061 Q742.888 53.468 742.044 54.483 Q741.013 55.733 739.216 55.733 Q737.763 55.733 736.833 54.913 Q735.904 54.093 735.779 52.733 Z"/>
  <path d="M783.070 55.733 L781.742 55.733 L781.742 47.155 Q781.273 47.624 780.500 48.085 Q779.727 48.546 779.117 48.780 L779.117 47.483 Q780.227 46.952 781.047 46.194 Q781.867 45.436 782.211 44.733 L783.070 44.733 L783.070 55.733 Z"/>
  <path d="M793.180 54.733 L793.180 55.733 L786.086 55.733 Q786.070 55.343 786.242 54.968 Q786.508 54.358 787.109 53.772 Q787.711 53.186 788.836 52.124 Q790.586 50.468 791.203 49.538 Q791.820 48.608 791.820 47.796 Q791.820 46.921 791.258 46.327 Q790.695 45.733 789.805 45.733 Q788.852 45.733 788.273 46.265 Q787.695 46.796 787.695 47.733 L786.336 47.733 Q786.477 46.265 787.383 45.499 Q788.289 44.733 789.820 44.733 Q791.367 44.733 792.266 45.624 Q793.164 46.515 793.164 47.843 Q793.164 48.515 792.898 49.163 Q792.633 49.811 792.023 50.530 Q791.414 51.249 789.992 52.530 Q788.805 53.593 788.469 53.968 Q788.133 54.343 787.914 54.733 L793.180 54.733 Z"/>
  <path d="M795.148 55.733 L795.148 54.733 L796.648 54.733 L796.648 55.733 L795.148 55.733 Z"/>
  <path d="M798.492 52.733 L799.867 52.733 Q800.023 53.733 800.586 54.233 Q801.148 54.733 801.930 54.733 Q802.883 54.733 803.547 54.022 Q804.211 53.311 804.211 52.140 Q804.211 51.030 803.578 50.382 Q802.945 49.733 801.914 49.733 Q801.273 49.733 800.766 50.015 Q800.258 50.296 799.961 50.733 L798.727 50.733 L799.758 44.733 L805.102 44.733 L805.102 45.733 L800.820 45.733 L800.242 49.311 Q801.211 48.733 802.273 48.733 Q803.664 48.733 804.633 49.671 Q805.602 50.608 805.602 52.061 Q805.602 53.468 804.758 54.483 Q803.727 55.733 801.930 55.733 Q800.477 55.733 799.547 54.913 Q798.617 54.093 798.492 52.733 Z"/>
  <path d="M845.237 55.733 L843.909 55.733 L843.909 47.155 Q843.440 47.624 842.667 48.085 Q841.893 48.546 841.284 48.780 L841.284 47.483 Q842.393 46.952 843.214 46.194 Q844.034 45.436 844.378 44.733 L845.237 44.733 L845.237 55.733 Z"/>
  <path d="M848.424 52.733 L849.753 52.733 Q849.987 53.796 850.526 54.265 Q851.065 54.733 851.846 54.733 Q852.784 54.733 853.424 54.116 Q854.065 53.499 854.065 52.593 Q854.065 51.718 853.471 51.147 Q852.878 50.577 851.956 50.577 Q851.581 50.577 851.034 50.733 L851.174 49.733 Q851.315 49.749 851.393 49.749 Q852.237 49.749 852.909 49.241 Q853.581 48.733 853.581 47.671 Q853.581 46.843 853.089 46.288 Q852.596 45.733 851.815 45.733 Q851.049 45.733 850.534 46.233 Q850.018 46.733 849.878 47.733 L848.565 47.733 Q848.799 46.311 849.659 45.522 Q850.518 44.733 851.799 44.733 Q852.674 44.733 853.417 45.140 Q854.159 45.546 854.549 46.249 Q854.940 46.952 854.940 47.749 Q854.940 48.499 854.565 49.116 Q854.190 49.733 853.456 50.093 Q854.409 50.296 854.932 50.944 Q855.456 51.593 855.456 52.577 Q855.456 53.890 854.432 54.811 Q853.409 55.733 851.831 55.733 Q850.424 55.733 849.487 54.897 Q848.549 54.061 848.424 52.733 Z"/>
  <path d="M857.315 55.733 L857.315 54.733 L858.815 54.733 L858.815 55.733 L857.315 55.733 Z"/>
  <path d="M860.659 52.733 L862.034 52.733 Q862.190 53.733 862.753 54.233 Q863.315 54.733 864.096 54.733 Q865.049 54.733 865.714 54.022 Q866.378 53.311 866.378 52.140 Q866.378 51.030 865.745 50.382 Q865.112 49.733 864.081 49.733 Q863.440 49.733 862.932 50.015 Q862.424 50.296 862.128 50.733 L860.893 50.733 L861.924 44.733 L867.268 44.733 L867.268 45.733 L862.987 45.733 L862.409 49.311 Q863.378 48.733 864.440 48.733 Q865.831 48.733 866.799 49.671 Q867.768 50.608 867.768 52.061 Q867.768 53.468 866.924 54.483 Q865.893 55.733 864.096 55.733 Q862.643 55.733 861.714 54.913 Q860.784 54.093 860.659 52.733 Z"/>
  <path d="M907.404 55.733 L906.076 55.733 L906.076 47.155 Q905.607 47.624 904.833 48.085 Q904.060 48.546 903.451 48.780 L903.451 47.483 Q904.560 46.952 905.380 46.194 Q906.201 45.436 906.544 44.733 L907.404 44.733 L907.404 55.733 Z"/>
  <path d="M914.810 55.733 L914.810 52.733 L910.154 52.733 L910.154 51.733 L915.060 44.733 L916.138 44.733 L916.138 51.733 L917.591 51.733 L917.591 52.733 L916.138 52.733 L916.138 55.733 L914.810 55.733 Z M914.810 51.733 L914.810 46.936 L911.451 51.733 L914.810 51.733 Z"/>
  <path d="M919.482 55.733 L919.482 54.733 L920.982 54.733 L920.982 55.733 L919.482 55.733 Z"/>
  <path d="M922.826 52.733 L924.201 52.733 Q924.357 53.733 924.919 54.233 Q925.482 54.733 926.263 54.733 Q927.216 54.733 927.880 54.022 Q928.544 53.311 928.544 52.140 Q928.544 51.030 927.911 50.382 Q927.279 49.733 926.247 49.733 Q925.607 49.733 925.099 50.015 Q924.591 50.296 924.294 50.733 L923.060 50.733 L924.091 44.733 L929.435 44.733 L929.435 45.733 L925.154 45.733 L924.576 49.311 Q925.544 48.733 926.607 48.733 Q927.997 48.733 928.966 49.671 Q929.935 50.608 929.935 52.061 Q929.935 53.468 929.091 54.483 Q928.060 55.733 926.263 55.733 Q924.810 55.733 923.880 54.913 Q922.951 54.093 922.826 52.733 Z"/>
  <path d="M969.570 55.733 L968.242 55.733 L968.242 47.155 Q967.773 47.624 967.000 48.085 Q966.227 48.546 965.617 48.780 L965.617 47.483 Q966.727 46.952 967.547 46.194 Q968.367 45.436 968.711 44.733 L969.570 44.733 L969.570 55.733 Z"/>
  <path d="M972.758 52.733 L974.133 52.733 Q974.289 53.733 974.852 54.233 Q975.414 54.733 976.195 54.733 Q977.148 54.733 977.812 54.022 Q978.477 53.311 978.477 52.140 Q978.477 51.030 977.844 50.382 Q977.211 49.733 976.180 49.733 Q975.539 49.733 975.031 50.015 Q974.523 50.296 974.227 50.733 L972.992 50.733 L974.023 44.733 L979.367 44.733 L979.367 45.733 L975.086 45.733 L974.508 49.311 Q975.477 48.733 976.539 48.733 Q977.930 48.733 978.898 49.671 Q979.867 50.608 979.867 52.061 Q979.867 53.468 979.023 54.483 Q977.992 55.733 976.195 55.733 Q974.742 55.733 973.812 54.913 Q972.883 54.093 972.758 52.733 Z"/>
  <path d="M981.648 55.733 L981.648 54.733 L983.148 54.733 L983.148 55.733 L981.648 55.733 Z"/>
  <path d="M984.992 52.733 L986.367 52.733 Q986.523 53.733 987.086 54.233 Q987.648 54.733 988.430 54.733 Q989.383 54.733 990.047 54.022 Q990.711 53.311 990.711 52.140 Q990.711 51.030 990.078 50.382 Q989.445 49.733 988.414 49.733 Q987.773 49.733 987.266 50.015 Q986.758 50.296 986.461 50.733 L985.227 50.733 L986.258 44.733 L991.602 44.733 L991.602 45.733 L987.320 45.733 L986.742 49.311 Q987.711 48.733 988.773 48.733 Q990.164 48.733 991.133 49.671 Q992.102 50.608 992.102 52.061 Q992.102 53.468 991.258 54.483 Q990.227 55.733 988.430 55.733 Q986.977 55.733 986.047 54.913 Q985.117 54.093 984.992 52.733 Z"/>
</svg>
