<?xml version="1.0" encoding="UTF-8" ?>
<!-- Generated by clip v0.8.0 (clip-lang.org) -->
<svg xmlns="http://www.w3.org/2000/svg" width="1024" height="60">
  <rect width="1024" height="60" fill="#ffffff" fill-opacity="1"/>
  <path d="M14.667 30 L1009.333 30" fill="none" stroke="#000000" stroke-width="1.333"/>
  <path d="M14.667 32.667 L14.667 27.333" fill="none" stroke="#000000" stroke-width="1.333"/>
  <path d="M114.133 32.667 L114.133 27.333" fill="none" stroke="#000000" stroke-width="1.333"/>
  <path d="M213.600 32.667 L213.600 27.333" fill="none" stroke="#000000" stroke-width="1.333"/>
  <path d="M313.067 32.667 L313.067 27.333" fill="none" stroke="#000000" stroke-width="1.333"/>
  <path d="M412.533 32.667 L412.533 27.333" fill="none" stroke="#000000" stroke-width="1.333"/>
  <path d="M512 32.667 L512 27.333" fill="none" stroke="#000000" stroke-width="1.333"/>
  <path d="M611.467 32.667 L611.467 27.333" fill="none" stroke="#000000" stroke-width="1.333"/>
  <path d="M710.933 32.667 L710.933 27.333" fill="none" stroke="#000000" stroke-width="1.333"/>
  <path d="M810.400 32.667 L810.400 27.333" fill="none" stroke="#000000" stroke-width="1.333"/>
  <path d="M909.867 32.667 L909.867 27.333" fill="none" stroke="#000000" stroke-width="1.333"/>
  <path d="M1009.333 32.667 L1009.333 27.333" fill="none" stroke="#000000" stroke-width="1.333"/>
  <path d="M10.065 55.733 L8.737 55.733 L8.737 47.155 Q8.268 47.624 7.495 48.085 Q6.721 48.546 6.112 48.780 L6.112 47.483 Q7.221 46.952 8.042 46.194 Q8.862 45.436 9.206 44.733 L10.065 44.733 L10.065 55.733 Z"/>
  <path d="M13.987 55.733 L13.987 54.733 L15.487 54.733 L15.487 55.733 L13.987 55.733 Z"/>
  <path d="M17.331 50.233 Q17.331 48.327 17.721 47.163 Q18.112 45.999 18.885 45.366 Q19.659 44.733 20.831 44.733 Q21.690 44.733 22.346 45.085 Q23.003 45.436 23.424 46.093 Q23.846 46.749 24.089 47.694 Q24.331 48.640 24.331 50.233 Q24.331 52.140 23.940 53.304 Q23.549 54.468 22.776 55.101 Q22.003 55.733 20.831 55.733 Q19.284 55.733 18.393 54.624 Q17.331 53.265 17.331 50.233 Z M18.690 50.233 Q18.690 52.936 19.307 53.835 Q19.924 54.733 20.831 54.733 Q21.737 54.733 22.354 53.835 Q22.971 52.936 22.971 50.233 Q22.971 47.515 22.354 46.624 Q21.737 45.733 20.815 45.733 Q19.909 45.733 19.362 46.515 Q18.690 47.530 18.690 50.233 Z"/>
  <path d="M111.485 54.733 L111.485 55.733 L104.391 55.733 Q104.376 55.343 104.547 54.968 Q104.813 54.358 105.415 53.772 Q106.016 53.186 107.141 52.124 Q108.891 50.468 109.508 49.538 Q110.126 48.608 110.126 47.796 Q110.126 46.921 109.563 46.327 Q109.001 45.733 108.110 45.733 Q107.157 45.733 106.579 46.265 Q106.001 46.796 106.001 47.733 L104.641 47.733 Q104.782 46.265 105.688 45.499 Q106.594 44.733 108.126 44.733 Q109.672 44.733 110.571 45.624 Q111.469 46.515 111.469 47.843 Q111.469 48.515 111.204 49.163 Q110.938 49.811 110.329 50.530 Q109.719 51.249 108.297 52.530 Q107.110 53.593 106.774 53.968 Q106.438 54.343 106.219 54.733 L111.485 54.733 Z"/>
  <path d="M113.454 55.733 L113.454 54.733 L114.954 54.733 L114.954 55.733 L113.454 55.733 Z"/>
  <path d="M116.797 52.733 L118.172 52.733 Q118.329 53.733 118.891 54.233 Q119.454 54.733 120.235 54.733 Q121.188 54.733 121.852 54.022 Q122.516 53.311 122.516 52.140 Q122.516 51.030 121.883 50.382 Q121.251 49.733 120.219 49.733 Q119.579 49.733 119.071 50.015 Q118.563 50.296 118.266 50.733 L117.032 50.733 L118.063 44.733 L123.407 44.733 L123.407 45.733 L119.126 45.733 L118.547 49.311 Q119.516 48.733 120.579 48.733 Q121.969 48.733 122.938 49.671 Q123.907 50.608 123.907 52.061 Q123.907 53.468 123.063 54.483 Q122.032 55.733 120.235 55.733 Q118.782 55.733 117.852 54.913 Q116.922 54.093 116.797 52.733 Z"/>
  <path d="M208.248 55.733 L208.248 52.733 L203.592 52.733 L203.592 51.733 L208.498 44.733 L209.577 44.733 L209.577 51.733 L211.030 51.733 L211.030 52.733 L209.577 52.733 L209.577 55.733 L208.248 55.733 Z M208.248 51.733 L208.248 46.936 L204.889 51.733 L208.248 51.733 Z"/>
  <path d="M212.920 55.733 L212.920 54.733 L214.420 54.733 L214.420 55.733 L212.920 55.733 Z"/>
  <path d="M216.264 50.233 Q216.264 48.327 216.655 47.163 Q217.045 45.999 217.819 45.366 Q218.592 44.733 219.764 44.733 Q220.623 44.733 221.280 45.085 Q221.936 45.436 222.358 46.093 Q222.780 46.749 223.022 47.694 Q223.264 48.640 223.264 50.233 Q223.264 52.140 222.873 53.304 Q222.483 54.468 221.709 55.101 Q220.936 55.733 219.764 55.733 Q218.217 55.733 217.327 54.624 Q216.264 53.265 216.264 50.233 Z M217.623 50.233 Q217.623 52.936 218.241 53.835 Q218.858 54.733 219.764 54.733 Q220.670 54.733 221.288 53.835 Q221.905 52.936 221.905 50.233 Q221.905 47.515 221.288 46.624 Q220.670 45.733 219.748 45.733 Q218.842 45.733 218.295 46.515 Q217.623 47.530 217.623 50.233 Z"/>
  <path d="M303.496 52.733 L304.871 52.733 Q305.028 53.733 305.590 54.233 Q306.153 54.733 306.934 54.733 Q307.887 54.733 308.551 54.022 Q309.215 53.311 309.215 52.140 Q309.215 51.030 308.582 50.382 Q307.949 49.733 306.918 49.733 Q306.278 49.733 305.770 50.015 Q305.262 50.296 304.965 50.733 L303.731 50.733 L304.762 44.733 L310.106 44.733 L310.106 45.733 L305.824 45.733 L305.246 49.311 Q306.215 48.733 307.278 48.733 Q308.668 48.733 309.637 49.671 Q310.606 50.608 310.606 52.061 Q310.606 53.468 309.762 54.483 Q308.731 55.733 306.934 55.733 Q305.481 55.733 304.551 54.913 Q303.621 54.093 303.496 52.733 Z"/>
  <path d="M312.387 55.733 L312.387 54.733 L313.887 54.733 L313.887 55.733 L312.387 55.733 Z"/>
  <path d="M315.731 52.733 L317.106 52.733 Q317.262 53.733 317.824 54.233 Q318.387 54.733 319.168 54.733 Q320.121 54.733 320.785 54.022 Q321.449 53.311 321.449 52.140 Q321.449 51.030 320.817 50.382 Q320.184 49.733 319.153 49.733 Q318.512 49.733 318.004 50.015 Q317.496 50.296 317.199 50.733 L315.965 50.733 L316.996 44.733 L322.340 44.733 L322.340 45.733 L318.059 45.733 L317.481 49.311 Q318.449 48.733 319.512 48.733 Q320.903 48.733 321.871 49.671 Q322.840 50.608 322.840 52.061 Q322.840 53.468 321.996 54.483 Q320.965 55.733 319.168 55.733 Q317.715 55.733 316.785 54.913 Q315.856 54.093 315.731 52.733 Z"/>
  <path d="M403.041 45.733 L403.041 44.733 L409.994 44.733 L409.994 45.546 Q408.979 46.640 407.971 48.577 Q406.963 50.515 406.401 52.561 Q406.010 54.015 405.901 55.733 L404.557 55.733 Q404.572 54.374 405.049 52.452 Q405.526 50.530 406.416 48.741 Q407.307 46.952 408.307 45.733 L403.041 45.733 Z"/>
  <path d="M411.854 55.733 L411.854 54.733 L413.354 54.733 L413.354 55.733 L411.854 55.733 Z"/>
  <path d="M415.197 50.233 Q415.197 48.327 415.588 47.163 Q415.979 45.999 416.752 45.366 Q417.526 44.733 418.697 44.733 Q419.557 44.733 420.213 45.085 Q420.869 45.436 421.291 46.093 Q421.713 46.749 421.955 47.694 Q422.197 48.640 422.197 50.233 Q422.197 52.140 421.807 53.304 Q421.416 54.468 420.643 55.101 Q419.869 55.733 418.697 55.733 Q417.151 55.733 416.260 54.624 Q415.197 53.265 415.197 50.233 Z M416.557 50.233 Q416.557 52.936 417.174 53.835 Q417.791 54.733 418.697 54.733 Q419.604 54.733 420.221 53.835 Q420.838 52.936 420.838 50.233 Q420.838 47.515 420.221 46.624 Q419.604 45.733 418.682 45.733 Q417.776 45.733 417.229 46.515 Q416.557 47.530 416.557 50.233 Z"/>
  <path d="M504.461 50.202 Q503.648 49.874 503.250 49.257 Q502.852 48.640 502.852 47.780 Q502.852 46.499 503.695 45.616 Q504.539 44.733 505.930 44.733 Q507.336 44.733 508.195 45.632 Q509.055 46.530 509.055 47.827 Q509.055 48.655 508.656 49.265 Q508.258 49.874 507.461 50.202 Q508.461 50.499 508.977 51.163 Q509.492 51.827 509.492 52.733 Q509.492 53.999 508.516 54.866 Q507.539 55.733 505.961 55.733 Q504.367 55.733 503.391 54.866 Q502.414 53.999 502.414 52.702 Q502.414 51.733 502.945 51.085 Q503.477 50.436 504.461 50.202 Z M504.195 47.686 Q504.195 48.593 504.688 49.163 Q505.180 49.733 505.961 49.733 Q506.727 49.733 507.211 49.163 Q507.695 48.593 507.695 47.765 Q507.695 46.905 507.195 46.319 Q506.695 45.733 505.945 45.733 Q505.195 45.733 504.695 46.304 Q504.195 46.874 504.195 47.686 Z M503.773 52.718 Q503.773 53.233 504.039 53.718 Q504.305 54.202 504.828 54.468 Q505.352 54.733 505.961 54.733 Q506.898 54.733 507.516 54.171 Q508.133 53.608 508.133 52.749 Q508.133 51.874 507.500 51.304 Q506.867 50.733 505.914 50.733 Q504.992 50.733 504.383 51.296 Q503.773 51.858 503.773 52.718 Z"/>
  <path d="M511.320 55.733 L511.320 54.733 L512.820 54.733 L512.820 55.733 L511.320 55.733 Z"/>
  <path d="M514.664 52.733 L516.039 52.733 Q516.195 53.733 516.758 54.233 Q517.320 54.733 518.102 54.733 Q519.055 54.733 519.719 54.022 Q520.383 53.311 520.383 52.140 Q520.383 51.030 519.750 50.382 Q519.117 49.733 518.086 49.733 Q517.445 49.733 516.938 50.015 Q516.430 50.296 516.133 50.733 L514.898 50.733 L515.930 44.733 L521.273 44.733 L521.273 45.733 L516.992 45.733 L516.414 49.311 Q517.383 48.733 518.445 48.733 Q519.836 48.733 520.805 49.671 Q521.773 50.608 521.773 52.061 Q521.773 53.468 520.930 54.483 Q519.898 55.733 518.102 55.733 Q516.648 55.733 515.719 54.913 Q514.789 54.093 514.664 52.733 Z"/>
  <path d="M602.787 55.733 L601.459 55.733 L601.459 47.155 Q600.990 47.624 600.217 48.085 Q599.443 48.546 598.834 48.780 L598.834 47.483 Q599.943 46.952 600.764 46.194 Q601.584 45.436 601.928 44.733 L602.787 44.733 L602.787 55.733 Z"/>
  <path d="M605.975 50.233 Q605.975 48.327 606.365 47.163 Q606.756 45.999 607.529 45.366 Q608.303 44.733 609.475 44.733 Q610.334 44.733 610.990 45.085 Q611.646 45.436 612.068 46.093 Q612.490 46.749 612.732 47.694 Q612.975 48.640 612.975 50.233 Q612.975 52.140 612.584 53.304 Q612.193 54.468 611.420 55.101 Q610.646 55.733 609.475 55.733 Q607.928 55.733 607.037 54.624 Q605.975 53.265 605.975 50.233 Z M607.334 50.233 Q607.334 52.936 607.951 53.835 Q608.568 54.733 609.475 54.733 Q610.381 54.733 610.998 53.835 Q611.615 52.936 611.615 50.233 Q611.615 47.515 610.998 46.624 Q610.381 45.733 609.459 45.733 Q608.553 45.733 608.006 46.515 Q607.334 47.530 607.334 50.233 Z"/>
  <path d="M614.865 55.733 L614.865 54.733 L616.365 54.733 L616.365 55.733 L614.865 55.733 Z"/>
  <path d="M618.209 50.233 Q618.209 48.327 618.600 47.163 Q618.990 45.999 619.764 45.366 Q620.537 44.733 621.709 44.733 Q622.568 44.733 623.225 45.085 Q623.881 45.436 624.303 46.093 Q624.725 46.749 624.967 47.694 Q625.209 48.640 625.209 50.233 Q625.209 52.140 624.818 53.304 Q624.428 54.468 623.654 55.101 Q622.881 55.733 621.709 55.733 Q620.162 55.733 619.271 54.624 Q618.209 53.265 618.209 50.233 Z M619.568 50.233 Q619.568 52.936 620.185 53.835 Q620.803 54.733 621.709 54.733 Q622.615 54.733 623.232 53.835 Q623.850 52.936 623.850 50.233 Q623.850 47.515 623.232 46.624 Q622.615 45.733 621.693 45.733 Q620.787 45.733 620.240 46.515 Q619.568 47.530 619.568 50.233 Z"/>
  <path d="M702.801 55.733 L701.472 55.733 L701.472 47.155 Q701.004 47.624 700.230 48.085 Q699.457 48.546 698.847 48.780 L698.847 47.483 Q699.957 46.952 700.777 46.194 Q701.597 45.436 701.941 44.733 L702.801 44.733 L702.801 55.733 Z"/>
  <path d="M710.410 55.733 L709.082 55.733 L709.082 47.155 Q708.613 47.624 707.840 48.085 Q707.066 48.546 706.457 48.780 L706.457 47.483 Q707.566 46.952 708.386 46.194 Q709.207 45.436 709.551 44.733 L710.410 44.733 L710.410 55.733 Z"/>
  <path d="M713.785 55.733 L713.785 54.733 L715.285 54.733 L715.285 55.733 L713.785 55.733 Z"/>
  <path d="M717.129 52.733 L718.504 52.733 Q718.660 53.733 719.222 54.233 Q719.785 54.733 720.566 54.733 Q721.519 54.733 722.183 54.022 Q722.847 53.311 722.847 52.140 Q722.847 51.030 722.215 50.382 Q721.582 49.733 720.551 49.733 Q719.910 49.733 719.402 50.015 Q718.894 50.296 718.597 50.733 L717.363 50.733 L718.394 44.733 L723.738 44.733 L723.738 45.733 L719.457 45.733 L718.879 49.311 Q719.847 48.733 720.910 48.733 Q722.301 48.733 723.269 49.671 Q724.238 50.608 724.238 52.061 Q724.238 53.468 723.394 54.483 Q722.363 55.733 720.566 55.733 Q719.113 55.733 718.183 54.913 Q717.254 54.093 717.129 52.733 Z"/>
  <path d="M801.720 55.733 L800.392 55.733 L800.392 47.155 Q799.923 47.624 799.150 48.085 Q798.377 48.546 797.767 48.780 L797.767 47.483 Q798.877 46.952 799.697 46.194 Q800.517 45.436 800.861 44.733 L801.720 44.733 L801.720 55.733 Z"/>
  <path d="M804.908 52.733 L806.236 52.733 Q806.470 53.796 807.009 54.265 Q807.548 54.733 808.330 54.733 Q809.267 54.733 809.908 54.116 Q810.548 53.499 810.548 52.593 Q810.548 51.718 809.955 51.147 Q809.361 50.577 808.439 50.577 Q808.064 50.577 807.517 50.733 L807.658 49.733 Q807.798 49.749 807.877 49.749 Q808.720 49.749 809.392 49.241 Q810.064 48.733 810.064 47.671 Q810.064 46.843 809.572 46.288 Q809.080 45.733 808.298 45.733 Q807.533 45.733 807.017 46.233 Q806.502 46.733 806.361 47.733 L805.048 47.733 Q805.283 46.311 806.142 45.522 Q807.002 44.733 808.283 44.733 Q809.158 44.733 809.900 45.140 Q810.642 45.546 811.033 46.249 Q811.423 46.952 811.423 47.749 Q811.423 48.499 811.048 49.116 Q810.673 49.733 809.939 50.093 Q810.892 50.296 811.416 50.944 Q811.939 51.593 811.939 52.577 Q811.939 53.890 810.916 54.811 Q809.892 55.733 808.314 55.733 Q806.908 55.733 805.970 54.897 Q805.033 54.061 804.908 52.733 Z"/>
  <path d="M813.798 55.733 L813.798 54.733 L815.298 54.733 L815.298 55.733 L813.798 55.733 Z"/>
  <path d="M817.142 50.233 Q817.142 48.327 817.533 47.163 Q817.923 45.999 818.697 45.366 Q819.470 44.733 820.642 44.733 Q821.502 44.733 822.158 45.085 Q822.814 45.436 823.236 46.093 Q823.658 46.749 823.900 47.694 Q824.142 48.640 824.142 50.233 Q824.142 52.140 823.752 53.304 Q823.361 54.468 822.588 55.101 Q821.814 55.733 820.642 55.733 Q819.095 55.733 818.205 54.624 Q817.142 53.265 817.142 50.233 Z M818.502 50.233 Q818.502 52.936 819.119 53.835 Q819.736 54.733 820.642 54.733 Q821.548 54.733 822.166 53.835 Q822.783 52.936 822.783 50.233 Q822.783 47.515 822.166 46.624 Q821.548 45.733 820.627 45.733 Q819.720 45.733 819.173 46.515 Q818.502 47.530 818.502 50.233 Z"/>
  <path d="M901.187 55.733 L899.859 55.733 L899.859 47.155 Q899.390 47.624 898.617 48.085 Q897.843 48.546 897.234 48.780 L897.234 47.483 Q898.343 46.952 899.164 46.194 Q899.984 45.436 900.328 44.733 L901.187 44.733 L901.187 55.733 Z"/>
  <path d="M908.593 55.733 L908.593 52.733 L903.937 52.733 L903.937 51.733 L908.843 44.733 L909.921 44.733 L909.921 51.733 L911.375 51.733 L911.375 52.733 L909.921 52.733 L909.921 55.733 L908.593 55.733 Z M908.593 51.733 L908.593 46.936 L905.234 51.733 L908.593 51.733 Z"/>
  <path d="M913.265 55.733 L913.265 54.733 L914.765 54.733 L914.765 55.733 L913.265 55.733 Z"/>
  <path d="M916.609 52.733 L917.984 52.733 Q918.140 53.733 918.703 54.233 Q919.265 54.733 920.046 54.733 Q921.000 54.733 921.664 54.022 Q922.328 53.311 922.328 52.140 Q922.328 51.030 921.695 50.382 Q921.062 49.733 920.031 49.733 Q919.390 49.733 918.882 50.015 Q918.375 50.296 918.078 50.733 L916.843 50.733 L917.875 44.733 L923.218 44.733 L923.218 45.733 L918.937 45.733 L918.359 49.311 Q919.328 48.733 920.390 48.733 Q921.781 48.733 922.750 49.671 Q923.718 50.608 923.718 52.061 Q923.718 53.468 922.875 54.483 Q921.843 55.733 920.046 55.733 Q918.593 55.733 917.664 54.913 Q916.734 54.093 916.609 52.733 Z"/>
  <path d="M1000.654 55.733 L999.326 55.733 L999.326 47.155 Q998.857 47.624 998.083 48.085 Q997.310 48.546 996.701 48.780 L996.701 47.483 Q997.810 46.952 998.630 46.194 Q999.451 45.436 999.794 44.733 L1000.654 44.733 L1000.654 55.733 Z"/>
  <path d="M1010.685 47.733 L1009.372 47.733 Q1009.201 46.811 1008.872 46.405 Q1008.341 45.733 1007.560 45.733 Q1006.919 45.733 1006.451 46.124 Q1005.826 46.624 1005.466 47.577 Q1005.107 48.530 1005.091 50.171 Q1005.560 49.436 1006.255 49.085 Q1006.951 48.733 1007.701 48.733 Q1009.013 48.733 1009.943 49.686 Q1010.872 50.640 1010.872 52.140 Q1010.872 53.124 1010.435 53.976 Q1009.997 54.827 1009.240 55.280 Q1008.482 55.733 1007.513 55.733 Q1005.857 55.733 1004.818 54.515 Q1003.779 53.296 1003.779 50.515 Q1003.779 47.390 1004.935 45.968 Q1005.935 44.733 1007.638 44.733 Q1008.904 44.733 1009.716 45.530 Q1010.529 46.327 1010.685 47.733 Z M1005.294 52.108 Q1005.294 52.796 1005.583 53.429 Q1005.872 54.061 1006.396 54.397 Q1006.919 54.733 1007.482 54.733 Q1008.326 54.733 1008.927 54.046 Q1009.529 53.358 1009.529 52.171 Q1009.529 51.046 1008.935 50.390 Q1008.341 49.733 1007.435 49.733 Q1006.544 49.733 1005.919 50.390 Q1005.294 51.046 1005.294 52.108 Z"/>
  <path d="M1012.732 55.733 L1012.732 54.733 L1014.232 54.733 L1014.232 55.733 L1012.732 55.733 Z"/>
  <path d="M1016.076 50.233 Q1016.076 48.327 1016.466 47.163 Q1016.857 45.999 1017.630 45.366 Q1018.404 44.733 1019.576 44.733 Q1020.435 44.733 1021.091 45.085 Q1021.747 45.436 1022.169 46.093 Q1022.591 46.749 1022.833 47.694 Q1023.076 48.640 1023.076 50.233 Q1023.076 52.140 1022.685 53.304 Q1022.294 54.468 1021.521 55.101 Q1020.747 55.733 1019.576 55.733 Q1018.029 55.733 1017.138 54.624 Q1016.076 53.265 1016.076 50.233 Z M1017.435 50.233 Q1017.435 52.936 1018.052 53.835 Q1018.669 54.733 1019.576 54.733 Q1020.482 54.733 1021.099 53.835 Q1021.716 52.936 1021.716 50.233 Q1021.716 47.515 1021.099 46.624 Q1020.482 45.733 1019.560 45.733 Q1018.654 45.733 1018.107 46.515 Q1017.435 47.530 1017.435 50.233 Z"/>
</svg>
