<?xml version="1.0" encoding="UTF-8" ?>
<!-- Generated by clip v0.8.0 (clip-lang.org) -->
<svg xmlns="http://www.w3.org/2000/svg" width="1024" height="60">
  <rect width="1024" height="60" fill="#ffffff" fill-opacity="1"/>
  <path d="M14.667 30 L1009.333 30" fill="none" stroke="#000000" stroke-width="1.333"/>
  <path d="M14.667 32.667 L14.667 27.333" fill="none" stroke="#000000" stroke-width="1.333"/>
  <path d="M139 32.667 L139 27.333" fill="none" stroke="#000000" stroke-width="1.333"/>
  <path d="M263.333 32.667 L263.333 27.333" fill="none" stroke="#000000" stroke-width="1.333"/>
  <path d="M387.667 32.667 L387.667 27.333" fill="none" stroke="#000000" stroke-width="1.333"/>
  <path d="M512 32.667 L512 27.333" fill="none" stroke="#000000" stroke-width="1.333"/>
  <path d="M636.333 32.667 L636.333 27.333" fill="none" stroke="#000000" stroke-width="1.333"/>
  <path d="M760.667 32.667 L760.667 27.333" fill="none" stroke="#000000" stroke-width="1.333"/>
  <path d="M885.000 32.667 L885.000 27.333" fill="none" stroke="#000000" stroke-width="1.333"/>
  <path d="M1009.333 32.667 L1009.333 27.333" fill="none" stroke="#000000" stroke-width="1.333"/>
  <path d="M71.927 55.733 L76.052 44.733 L77.568 44.733 L81.974 55.733 L80.349 55.733 L79.099 52.733 L74.615 52.733 L73.427 55.733 L71.927 55.733 Z M75.021 51.733 L78.661 51.733 L77.536 48.296 Q77.021 46.936 76.771 45.733 Q76.568 47.077 76.193 48.108 L75.021 51.733 Z"/>
  <path d="M197.370 55.733 L197.370 44.733 L201.401 44.733 Q202.635 44.733 203.378 45.061 Q204.120 45.390 204.542 46.061 Q204.964 46.733 204.964 47.468 Q204.964 48.155 204.589 48.757 Q204.214 49.358 203.464 49.733 Q204.432 50.030 204.956 50.757 Q205.479 51.483 205.479 52.468 Q205.479 53.249 205.159 53.936 Q204.839 54.624 204.370 54.991 Q203.901 55.358 203.198 55.546 Q202.495 55.733 201.464 55.733 L197.370 55.733 Z M198.792 49.733 L201.120 49.733 Q202.057 49.733 202.464 49.577 Q203.010 49.374 203.284 48.913 Q203.557 48.452 203.557 47.765 Q203.557 47.108 203.299 46.608 Q203.042 46.108 202.565 45.921 Q202.089 45.733 200.932 45.733 L198.792 45.733 L198.792 49.733 Z M198.792 54.733 L201.464 54.733 Q202.151 54.733 202.432 54.671 Q202.932 54.577 203.260 54.358 Q203.589 54.140 203.799 53.718 Q204.010 53.296 204.010 52.733 Q204.010 52.077 203.706 51.601 Q203.401 51.124 202.854 50.929 Q202.307 50.733 201.276 50.733 L198.792 50.733 L198.792 54.733 Z"/>
  <path d="M329.016 51.905 L330.438 52.265 Q329.984 53.952 328.828 54.843 Q327.672 55.733 326 55.733 Q324.266 55.733 323.180 55.030 Q322.094 54.327 321.523 52.999 Q320.953 51.671 320.953 50.155 Q320.953 48.499 321.594 47.257 Q322.234 46.015 323.422 45.374 Q324.609 44.733 326.016 44.733 Q327.641 44.733 328.734 45.515 Q329.828 46.296 330.266 47.718 L328.859 48.061 Q328.484 46.843 327.773 46.288 Q327.062 45.733 325.984 45.733 Q324.750 45.733 323.922 46.351 Q323.094 46.968 322.758 48.007 Q322.422 49.046 322.422 50.140 Q322.422 51.561 322.820 52.624 Q323.219 53.686 324.062 54.210 Q324.906 54.733 325.875 54.733 Q327.078 54.733 327.898 54.022 Q328.719 53.311 329.016 51.905 Z"/>
  <path d="M445.693 55.733 L445.693 44.733 L449.396 44.733 Q450.646 44.733 451.302 44.890 Q452.224 45.108 452.880 45.671 Q453.724 46.421 454.146 47.561 Q454.568 48.702 454.568 50.171 Q454.568 51.421 454.279 52.390 Q453.990 53.358 453.544 53.991 Q453.099 54.624 452.568 54.991 Q452.036 55.358 451.286 55.546 Q450.536 55.733 449.568 55.733 L445.693 55.733 Z M447.115 54.733 L449.411 54.733 Q450.458 54.733 451.068 54.515 Q451.677 54.296 452.036 53.905 Q452.536 53.358 452.818 52.421 Q453.099 51.483 453.099 50.140 Q453.099 48.296 452.544 47.304 Q451.990 46.311 451.208 45.968 Q450.630 45.733 449.365 45.733 L447.115 45.733 L447.115 54.733 Z"/>
  <path d="M570.464 55.733 L570.464 44.733 L578.229 44.733 L578.229 45.733 L571.885 45.733 L571.885 49.733 L577.823 49.733 L577.823 50.733 L571.885 50.733 L571.885 54.733 L578.479 54.733 L578.479 55.733 L570.464 55.733 Z"/>
  <path d="M695.250 55.733 L695.250 44.733 L702.484 44.733 L702.484 45.733 L696.672 45.733 L696.672 49.733 L701.703 49.733 L701.703 50.733 L696.672 50.733 L696.672 55.733 L695.250 55.733 Z"/>
  <path d="M823.318 50.733 L823.318 49.733 L827.865 49.733 L827.865 53.952 Q826.818 54.843 825.701 55.288 Q824.583 55.733 823.411 55.733 Q821.833 55.733 820.536 55.061 Q819.240 54.390 818.583 53.124 Q817.927 51.858 817.927 50.280 Q817.927 48.733 818.583 47.390 Q819.240 46.046 820.466 45.390 Q821.693 44.733 823.302 44.733 Q824.458 44.733 825.404 45.069 Q826.349 45.405 826.880 46.015 Q827.411 46.624 827.693 47.593 L826.411 47.936 Q826.177 47.155 825.818 46.710 Q825.458 46.265 824.786 45.999 Q824.115 45.733 823.302 45.733 Q822.333 45.733 821.622 46.046 Q820.911 46.358 820.482 46.858 Q820.052 47.358 819.802 47.968 Q819.396 49.015 819.396 50.233 Q819.396 51.733 819.888 52.741 Q820.380 53.749 821.326 54.241 Q822.271 54.733 823.333 54.733 Q824.255 54.733 825.138 54.272 Q826.021 53.811 826.474 53.296 L826.474 50.733 L823.318 50.733 Z"/>
  <path d="M943.073 55.733 L943.073 44.733 L944.495 44.733 L944.495 49.733 L950.073 49.733 L950.073 44.733 L951.495 44.733 L951.495 55.733 L950.073 55.733 L950.073 50.733 L944.495 50.733 L944.495 55.733 L943.073 55.733 Z"/>
</svg>
