<?xml version="1.0" encoding="UTF-8" ?>
<!-- Generated by clip v0.7.0 (clip-lang.org) -->
<svg xmlns="http://www.w3.org/2000/svg" width="1024.000000" height="60.000000">
  <rect width="1024.000000" height="60.000000" fill="#ffffff" fill-opacity="1.000000"/>
  <path d="M14.6667 30 L1009.33 30 " fill="none" stroke-width="1.333333" stroke="#000000ff"/>
  <path d="M45.75 32.6667 L45.75 27.3333 " fill="none" stroke-width="1.333333" stroke="#000000ff"/>
  <path d="M107.917 32.6667 L107.917 27.3333 " fill="none" stroke-width="1.333333" stroke="#000000ff"/>
  <path d="M170.083 32.6667 L170.083 27.3333 " fill="none" stroke-width="1.333333" stroke="#000000ff"/>
  <path d="M232.25 32.6667 L232.25 27.3333 " fill="none" stroke-width="1.333333" stroke="#000000ff"/>
  <path d="M294.417 32.6667 L294.417 27.3333 " fill="none" stroke-width="1.333333" stroke="#000000ff"/>
  <path d="M356.583 32.6667 L356.583 27.3333 " fill="none" stroke-width="1.333333" stroke="#000000ff"/>
  <path d="M418.75 32.6667 L418.75 27.3333 " fill="none" stroke-width="1.333333" stroke="#000000ff"/>
  <path d="M480.917 32.6667 L480.917 27.3333 " fill="none" stroke-width="1.333333" stroke="#000000ff"/>
  <path d="M543.083 32.6667 L543.083 27.3333 " fill="none" stroke-width="1.333333" stroke="#000000ff"/>
  <path d="M605.25 32.6667 L605.25 27.3333 " fill="none" stroke-width="1.333333" stroke="#000000ff"/>
  <path d="M667.417 32.6667 L667.417 27.3333 " fill="none" stroke-width="1.333333" stroke="#000000ff"/>
  <path d="M729.583 32.6667 L729.583 27.3333 " fill="none" stroke-width="1.333333" stroke="#000000ff"/>
  <path d="M791.75 32.6667 L791.75 27.3333 " fill="none" stroke-width="1.333333" stroke="#000000ff"/>
  <path d="M853.917 32.6667 L853.917 27.3333 " fill="none" stroke-width="1.333333" stroke="#000000ff"/>
  <path d="M916.083 32.6667 L916.083 27.3333 " fill="none" stroke-width="1.333333" stroke="#000000ff"/>
  <path d="M978.25 32.6667 L978.25 27.3333 " fill="none" stroke-width="1.333333" stroke="#000000ff"/>
  <path d="M36.1797 50.2333 Q36.1797 48.3271 36.5703 47.163 Q36.9609 45.999 37.7344 45.3661 Q38.5078 44.7333 39.6797 44.7333 Q40.5391 44.7333 41.1953 45.0849 Q41.8516 45.4365 42.2734 46.0927 Q42.6953 46.749 42.9375 47.6943 Q43.1797 48.6396 43.1797 50.2333 Q43.1797 52.1396 42.7891 53.3036 Q42.3984 54.4677 41.625 55.1005 Q40.8516 55.7333 39.6797 55.7333 Q38.1328 55.7333 37.2422 54.624 Q36.1797 53.2646 36.1797 50.2333 ZM37.5391 50.2333 Q37.5391 52.9365 38.1562 53.8349 Q38.7734 54.7333 39.6797 54.7333 Q40.5859 54.7333 41.2031 53.8349 Q41.8203 52.9365 41.8203 50.2333 Q41.8203 47.5146 41.2031 46.624 Q40.5859 45.7333 39.6641 45.7333 Q38.7578 45.7333 38.2109 46.5146 Q37.5391 47.5302 37.5391 50.2333 Z" fill="#000000" fill-opacity="1.000000"/>
  <path d="M45.0703 55.7333 L45.0703 54.7333 L46.5703 54.7333 L46.5703 55.7333 L45.0703 55.7333 Z" fill="#000000" fill-opacity="1.000000"/>
  <path d="M48.4141 52.7333 L49.7891 52.7333 Q49.9453 53.7333 50.5078 54.2333 Q51.0703 54.7333 51.8516 54.7333 Q52.8047 54.7333 53.4688 54.0224 Q54.1328 53.3115 54.1328 52.1396 Q54.1328 51.0302 53.5 50.3818 Q52.8672 49.7333 51.8359 49.7333 Q51.1953 49.7333 50.6875 50.0146 Q50.1797 50.2958 49.8828 50.7333 L48.6484 50.7333 L49.6797 44.7333 L55.0234 44.7333 L55.0234 45.7333 L50.7422 45.7333 L50.1641 49.3115 Q51.1328 48.7333 52.1953 48.7333 Q53.5859 48.7333 54.5547 49.6708 Q55.5234 50.6083 55.5234 52.0615 Q55.5234 53.4677 54.6797 54.4833 Q53.6484 55.7333 51.8516 55.7333 Q50.3984 55.7333 49.4688 54.913 Q48.5391 54.0927 48.4141 52.7333 Z" fill="#000000" fill-opacity="1.000000"/>
  <path d="M103.315 55.7333 L101.987 55.7333 L101.987 47.1552 Q101.518 47.624 100.745 48.0849 Q99.9714 48.5458 99.362 48.7802 L99.362 47.4833 Q100.471 46.9521 101.292 46.1943 Q102.112 45.4365 102.456 44.7333 L103.315 44.7333 L103.315 55.7333 Z" fill="#000000" fill-opacity="1.000000"/>
  <path d="M107.237 55.7333 L107.237 54.7333 L108.737 54.7333 L108.737 55.7333 L107.237 55.7333 Z" fill="#000000" fill-opacity="1.000000"/>
  <path d="M110.581 52.7333 L111.956 52.7333 Q112.112 53.7333 112.674 54.2333 Q113.237 54.7333 114.018 54.7333 Q114.971 54.7333 115.635 54.0224 Q116.299 53.3115 116.299 52.1396 Q116.299 51.0302 115.667 50.3818 Q115.034 49.7333 114.003 49.7333 Q113.362 49.7333 112.854 50.0146 Q112.346 50.2958 112.049 50.7333 L110.815 50.7333 L111.846 44.7333 L117.19 44.7333 L117.19 45.7333 L112.909 45.7333 L112.331 49.3115 Q113.299 48.7333 114.362 48.7333 Q115.753 48.7333 116.721 49.6708 Q117.69 50.6083 117.69 52.0615 Q117.69 53.4677 116.846 54.4833 Q115.815 55.7333 114.018 55.7333 Q112.565 55.7333 111.635 54.913 Q110.706 54.0927 110.581 52.7333 Z" fill="#000000" fill-opacity="1.000000"/>
  <path d="M167.435 54.7333 L167.435 55.7333 L160.341 55.7333 Q160.326 55.3427 160.497 54.9677 Q160.763 54.3583 161.365 53.7724 Q161.966 53.1865 163.091 52.124 Q164.841 50.4677 165.458 49.538 Q166.076 48.6083 166.076 47.7958 Q166.076 46.9208 165.513 46.3271 Q164.951 45.7333 164.06 45.7333 Q163.107 45.7333 162.529 46.2646 Q161.951 46.7958 161.951 47.7333 L160.591 47.7333 Q160.732 46.2646 161.638 45.499 Q162.544 44.7333 164.076 44.7333 Q165.622 44.7333 166.521 45.624 Q167.419 46.5146 167.419 47.8427 Q167.419 48.5146 167.154 49.163 Q166.888 49.8115 166.279 50.5302 Q165.669 51.249 164.247 52.5302 Q163.06 53.5927 162.724 53.9677 Q162.388 54.3427 162.169 54.7333 L167.435 54.7333 Z" fill="#000000" fill-opacity="1.000000"/>
  <path d="M169.404 55.7333 L169.404 54.7333 L170.904 54.7333 L170.904 55.7333 L169.404 55.7333 Z" fill="#000000" fill-opacity="1.000000"/>
  <path d="M172.747 52.7333 L174.122 52.7333 Q174.279 53.7333 174.841 54.2333 Q175.404 54.7333 176.185 54.7333 Q177.138 54.7333 177.802 54.0224 Q178.466 53.3115 178.466 52.1396 Q178.466 51.0302 177.833 50.3818 Q177.201 49.7333 176.169 49.7333 Q175.529 49.7333 175.021 50.0146 Q174.513 50.2958 174.216 50.7333 L172.982 50.7333 L174.013 44.7333 L179.357 44.7333 L179.357 45.7333 L175.076 45.7333 L174.497 49.3115 Q175.466 48.7333 176.529 48.7333 Q177.919 48.7333 178.888 49.6708 Q179.857 50.6083 179.857 52.0615 Q179.857 53.4677 179.013 54.4833 Q177.982 55.7333 176.185 55.7333 Q174.732 55.7333 173.802 54.913 Q172.872 54.0927 172.747 52.7333 Z" fill="#000000" fill-opacity="1.000000"/>
  <path d="M222.68 52.7333 L224.008 52.7333 Q224.242 53.7958 224.781 54.2646 Q225.32 54.7333 226.102 54.7333 Q227.039 54.7333 227.68 54.1161 Q228.32 53.499 228.32 52.5927 Q228.32 51.7177 227.727 51.1474 Q227.133 50.5771 226.211 50.5771 Q225.836 50.5771 225.289 50.7333 L225.43 49.7333 Q225.57 49.749 225.648 49.749 Q226.492 49.749 227.164 49.2411 Q227.836 48.7333 227.836 47.6708 Q227.836 46.8427 227.344 46.288 Q226.852 45.7333 226.07 45.7333 Q225.305 45.7333 224.789 46.2333 Q224.273 46.7333 224.133 47.7333 L222.82 47.7333 Q223.055 46.3115 223.914 45.5224 Q224.773 44.7333 226.055 44.7333 Q226.93 44.7333 227.672 45.1396 Q228.414 45.5458 228.805 46.249 Q229.195 46.9521 229.195 47.749 Q229.195 48.499 228.82 49.1161 Q228.445 49.7333 227.711 50.0927 Q228.664 50.2958 229.187 50.9443 Q229.711 51.5927 229.711 52.5771 Q229.711 53.8896 228.687 54.8115 Q227.664 55.7333 226.086 55.7333 Q224.68 55.7333 223.742 54.8974 Q222.805 54.0615 222.68 52.7333 Z" fill="#000000" fill-opacity="1.000000"/>
  <path d="M231.57 55.7333 L231.57 54.7333 L233.07 54.7333 L233.07 55.7333 L231.57 55.7333 Z" fill="#000000" fill-opacity="1.000000"/>
  <path d="M234.914 52.7333 L236.289 52.7333 Q236.445 53.7333 237.008 54.2333 Q237.57 54.7333 238.352 54.7333 Q239.305 54.7333 239.969 54.0224 Q240.633 53.3115 240.633 52.1396 Q240.633 51.0302 240 50.3818 Q239.367 49.7333 238.336 49.7333 Q237.695 49.7333 237.187 50.0146 Q236.68 50.2958 236.383 50.7333 L235.148 50.7333 L236.18 44.7333 L241.523 44.7333 L241.523 45.7333 L237.242 45.7333 L236.664 49.3115 Q237.633 48.7333 238.695 48.7333 Q240.086 48.7333 241.055 49.6708 Q242.023 50.6083 242.023 52.0615 Q242.023 53.4677 241.18 54.4833 Q240.148 55.7333 238.352 55.7333 Q236.898 55.7333 235.969 54.913 Q235.039 54.0927 234.914 52.7333 Z" fill="#000000" fill-opacity="1.000000"/>
  <path d="M289.065 55.7333 L289.065 52.7333 L284.409 52.7333 L284.409 51.7333 L289.315 44.7333 L290.393 44.7333 L290.393 51.7333 L291.846 51.7333 L291.846 52.7333 L290.393 52.7333 L290.393 55.7333 L289.065 55.7333 ZM289.065 51.7333 L289.065 46.9365 L285.706 51.7333 L289.065 51.7333 Z" fill="#000000" fill-opacity="1.000000"/>
  <path d="M293.737 55.7333 L293.737 54.7333 L295.237 54.7333 L295.237 55.7333 L293.737 55.7333 Z" fill="#000000" fill-opacity="1.000000"/>
  <path d="M297.081 52.7333 L298.456 52.7333 Q298.612 53.7333 299.174 54.2333 Q299.737 54.7333 300.518 54.7333 Q301.471 54.7333 302.135 54.0224 Q302.799 53.3115 302.799 52.1396 Q302.799 51.0302 302.167 50.3818 Q301.534 49.7333 300.503 49.7333 Q299.862 49.7333 299.354 50.0146 Q298.846 50.2958 298.549 50.7333 L297.315 50.7333 L298.346 44.7333 L303.69 44.7333 L303.69 45.7333 L299.409 45.7333 L298.831 49.3115 Q299.799 48.7333 300.862 48.7333 Q302.253 48.7333 303.221 49.6708 Q304.19 50.6083 304.19 52.0615 Q304.19 53.4677 303.346 54.4833 Q302.315 55.7333 300.518 55.7333 Q299.065 55.7333 298.135 54.913 Q297.206 54.0927 297.081 52.7333 Z" fill="#000000" fill-opacity="1.000000"/>
  <path d="M347.013 52.7333 L348.388 52.7333 Q348.544 53.7333 349.107 54.2333 Q349.669 54.7333 350.451 54.7333 Q351.404 54.7333 352.068 54.0224 Q352.732 53.3115 352.732 52.1396 Q352.732 51.0302 352.099 50.3818 Q351.466 49.7333 350.435 49.7333 Q349.794 49.7333 349.286 50.0146 Q348.779 50.2958 348.482 50.7333 L347.247 50.7333 L348.279 44.7333 L353.622 44.7333 L353.622 45.7333 L349.341 45.7333 L348.763 49.3115 Q349.732 48.7333 350.794 48.7333 Q352.185 48.7333 353.154 49.6708 Q354.122 50.6083 354.122 52.0615 Q354.122 53.4677 353.279 54.4833 Q352.247 55.7333 350.451 55.7333 Q348.997 55.7333 348.068 54.913 Q347.138 54.0927 347.013 52.7333 Z" fill="#000000" fill-opacity="1.000000"/>
  <path d="M355.904 55.7333 L355.904 54.7333 L357.404 54.7333 L357.404 55.7333 L355.904 55.7333 Z" fill="#000000" fill-opacity="1.000000"/>
  <path d="M359.247 52.7333 L360.622 52.7333 Q360.779 53.7333 361.341 54.2333 Q361.904 54.7333 362.685 54.7333 Q363.638 54.7333 364.302 54.0224 Q364.966 53.3115 364.966 52.1396 Q364.966 51.0302 364.333 50.3818 Q363.701 49.7333 362.669 49.7333 Q362.029 49.7333 361.521 50.0146 Q361.013 50.2958 360.716 50.7333 L359.482 50.7333 L360.513 44.7333 L365.857 44.7333 L365.857 45.7333 L361.576 45.7333 L360.997 49.3115 Q361.966 48.7333 363.029 48.7333 Q364.419 48.7333 365.388 49.6708 Q366.357 50.6083 366.357 52.0615 Q366.357 53.4677 365.513 54.4833 Q364.482 55.7333 362.685 55.7333 Q361.232 55.7333 360.302 54.913 Q359.372 54.0927 359.247 52.7333 Z" fill="#000000" fill-opacity="1.000000"/>
  <path d="M416.023 47.7333 L414.711 47.7333 Q414.539 46.8115 414.211 46.4052 Q413.68 45.7333 412.898 45.7333 Q412.258 45.7333 411.789 46.124 Q411.164 46.624 410.805 47.5771 Q410.445 48.5302 410.43 50.1708 Q410.898 49.4365 411.594 49.0849 Q412.289 48.7333 413.039 48.7333 Q414.352 48.7333 415.281 49.6865 Q416.211 50.6396 416.211 52.1396 Q416.211 53.124 415.773 53.9755 Q415.336 54.8271 414.578 55.2802 Q413.82 55.7333 412.852 55.7333 Q411.195 55.7333 410.156 54.5146 Q409.117 53.2958 409.117 50.5146 Q409.117 47.3896 410.273 45.9677 Q411.273 44.7333 412.977 44.7333 Q414.242 44.7333 415.055 45.5302 Q415.867 46.3271 416.023 47.7333 ZM410.633 52.1083 Q410.633 52.7958 410.922 53.4286 Q411.211 54.0615 411.734 54.3974 Q412.258 54.7333 412.82 54.7333 Q413.664 54.7333 414.266 54.0458 Q414.867 53.3583 414.867 52.1708 Q414.867 51.0458 414.273 50.3896 Q413.68 49.7333 412.773 49.7333 Q411.883 49.7333 411.258 50.3896 Q410.633 51.0458 410.633 52.1083 Z" fill="#000000" fill-opacity="1.000000"/>
  <path d="M418.07 55.7333 L418.07 54.7333 L419.57 54.7333 L419.57 55.7333 L418.07 55.7333 Z" fill="#000000" fill-opacity="1.000000"/>
  <path d="M421.414 52.7333 L422.789 52.7333 Q422.945 53.7333 423.508 54.2333 Q424.07 54.7333 424.852 54.7333 Q425.805 54.7333 426.469 54.0224 Q427.133 53.3115 427.133 52.1396 Q427.133 51.0302 426.5 50.3818 Q425.867 49.7333 424.836 49.7333 Q424.195 49.7333 423.688 50.0146 Q423.18 50.2958 422.883 50.7333 L421.648 50.7333 L422.68 44.7333 L428.023 44.7333 L428.023 45.7333 L423.742 45.7333 L423.164 49.3115 Q424.133 48.7333 425.195 48.7333 Q426.586 48.7333 427.555 49.6708 Q428.523 50.6083 428.523 52.0615 Q428.523 53.4677 427.68 54.4833 Q426.648 55.7333 424.852 55.7333 Q423.398 55.7333 422.469 54.913 Q421.539 54.0927 421.414 52.7333 Z" fill="#000000" fill-opacity="1.000000"/>
  <path d="M471.424 45.7333 L471.424 44.7333 L478.378 44.7333 L478.378 45.5458 Q477.362 46.6396 476.354 48.5771 Q475.346 50.5146 474.784 52.5615 Q474.393 54.0146 474.284 55.7333 L472.94 55.7333 Q472.956 54.374 473.432 52.4521 Q473.909 50.5302 474.799 48.7411 Q475.69 46.9521 476.69 45.7333 L471.424 45.7333 Z" fill="#000000" fill-opacity="1.000000"/>
  <path d="M480.237 55.7333 L480.237 54.7333 L481.737 54.7333 L481.737 55.7333 L480.237 55.7333 Z" fill="#000000" fill-opacity="1.000000"/>
  <path d="M483.581 52.7333 L484.956 52.7333 Q485.112 53.7333 485.674 54.2333 Q486.237 54.7333 487.018 54.7333 Q487.971 54.7333 488.635 54.0224 Q489.299 53.3115 489.299 52.1396 Q489.299 51.0302 488.667 50.3818 Q488.034 49.7333 487.003 49.7333 Q486.362 49.7333 485.854 50.0146 Q485.346 50.2958 485.049 50.7333 L483.815 50.7333 L484.846 44.7333 L490.19 44.7333 L490.19 45.7333 L485.909 45.7333 L485.331 49.3115 Q486.299 48.7333 487.362 48.7333 Q488.753 48.7333 489.721 49.6708 Q490.69 50.6083 490.69 52.0615 Q490.69 53.4677 489.846 54.4833 Q488.815 55.7333 487.018 55.7333 Q485.565 55.7333 484.635 54.913 Q483.706 54.0927 483.581 52.7333 Z" fill="#000000" fill-opacity="1.000000"/>
  <path d="M535.544 50.2021 Q534.732 49.874 534.333 49.2568 Q533.935 48.6396 533.935 47.7802 Q533.935 46.499 534.779 45.6161 Q535.622 44.7333 537.013 44.7333 Q538.419 44.7333 539.279 45.6318 Q540.138 46.5302 540.138 47.8271 Q540.138 48.6552 539.74 49.2646 Q539.341 49.874 538.544 50.2021 Q539.544 50.499 540.06 51.163 Q540.576 51.8271 540.576 52.7333 Q540.576 53.999 539.599 54.8661 Q538.622 55.7333 537.044 55.7333 Q535.451 55.7333 534.474 54.8661 Q533.497 53.999 533.497 52.7021 Q533.497 51.7333 534.029 51.0849 Q534.56 50.4365 535.544 50.2021 ZM535.279 47.6865 Q535.279 48.5927 535.771 49.163 Q536.263 49.7333 537.044 49.7333 Q537.81 49.7333 538.294 49.163 Q538.779 48.5927 538.779 47.7646 Q538.779 46.9052 538.279 46.3193 Q537.779 45.7333 537.029 45.7333 Q536.279 45.7333 535.779 46.3036 Q535.279 46.874 535.279 47.6865 ZM534.857 52.7177 Q534.857 53.2333 535.122 53.7177 Q535.388 54.2021 535.911 54.4677 Q536.435 54.7333 537.044 54.7333 Q537.982 54.7333 538.599 54.1708 Q539.216 53.6083 539.216 52.749 Q539.216 51.874 538.583 51.3036 Q537.951 50.7333 536.997 50.7333 Q536.076 50.7333 535.466 51.2958 Q534.857 51.8583 534.857 52.7177 Z" fill="#000000" fill-opacity="1.000000"/>
  <path d="M542.404 55.7333 L542.404 54.7333 L543.904 54.7333 L543.904 55.7333 L542.404 55.7333 Z" fill="#000000" fill-opacity="1.000000"/>
  <path d="M545.747 52.7333 L547.122 52.7333 Q547.279 53.7333 547.841 54.2333 Q548.404 54.7333 549.185 54.7333 Q550.138 54.7333 550.802 54.0224 Q551.466 53.3115 551.466 52.1396 Q551.466 51.0302 550.833 50.3818 Q550.201 49.7333 549.169 49.7333 Q548.529 49.7333 548.021 50.0146 Q547.513 50.2958 547.216 50.7333 L545.982 50.7333 L547.013 44.7333 L552.357 44.7333 L552.357 45.7333 L548.076 45.7333 L547.497 49.3115 Q548.466 48.7333 549.529 48.7333 Q550.919 48.7333 551.888 49.6708 Q552.857 50.6083 552.857 52.0615 Q552.857 53.4677 552.013 54.4833 Q550.982 55.7333 549.185 55.7333 Q547.732 55.7333 546.802 54.913 Q545.872 54.0927 545.747 52.7333 Z" fill="#000000" fill-opacity="1.000000"/>
  <path d="M595.883 52.7333 L597.148 52.7333 Q597.305 53.7802 597.758 54.2568 Q598.211 54.7333 598.93 54.7333 Q599.523 54.7333 599.984 54.4286 Q600.445 54.124 600.734 53.6161 Q601.023 53.1083 601.227 52.2568 Q601.43 51.4052 601.43 50.5771 Q601.43 50.499 601.414 50.3271 Q601.023 50.9521 600.336 51.3427 Q599.648 51.7333 598.852 51.7333 Q597.523 51.7333 596.602 50.788 Q595.68 49.8427 595.68 48.2802 Q595.68 46.6865 596.641 45.7099 Q597.602 44.7333 599.055 44.7333 Q600.102 44.7333 600.969 45.2958 Q601.836 45.8583 602.289 46.9052 Q602.742 47.9521 602.742 49.9365 Q602.742 52.0146 602.297 53.2333 Q601.852 54.4521 600.969 55.0927 Q600.086 55.7333 598.898 55.7333 Q597.633 55.7333 596.836 54.9443 Q596.039 54.1552 595.883 52.7333 ZM601.273 48.2646 Q601.273 47.0927 600.672 46.413 Q600.07 45.7333 599.211 45.7333 Q598.336 45.7333 597.687 46.4677 Q597.039 47.2021 597.039 48.374 Q597.039 49.4208 597.656 50.0771 Q598.273 50.7333 599.18 50.7333 Q600.102 50.7333 600.687 50.0771 Q601.273 49.4208 601.273 48.2646 Z" fill="#000000" fill-opacity="1.000000"/>
  <path d="M604.57 55.7333 L604.57 54.7333 L606.07 54.7333 L606.07 55.7333 L604.57 55.7333 Z" fill="#000000" fill-opacity="1.000000"/>
  <path d="M607.914 52.7333 L609.289 52.7333 Q609.445 53.7333 610.008 54.2333 Q610.57 54.7333 611.352 54.7333 Q612.305 54.7333 612.969 54.0224 Q613.633 53.3115 613.633 52.1396 Q613.633 51.0302 613 50.3818 Q612.367 49.7333 611.336 49.7333 Q610.695 49.7333 610.187 50.0146 Q609.68 50.2958 609.383 50.7333 L608.148 50.7333 L609.18 44.7333 L614.523 44.7333 L614.523 45.7333 L610.242 45.7333 L609.664 49.3115 Q610.633 48.7333 611.695 48.7333 Q613.086 48.7333 614.055 49.6708 Q615.023 50.6083 615.023 52.0615 Q615.023 53.4677 614.18 54.4833 Q613.148 55.7333 611.352 55.7333 Q609.898 55.7333 608.969 54.913 Q608.039 54.0927 607.914 52.7333 Z" fill="#000000" fill-opacity="1.000000"/>
  <path d="M658.737 55.7333 L657.409 55.7333 L657.409 47.1552 Q656.94 47.624 656.167 48.0849 Q655.393 48.5458 654.784 48.7802 L654.784 47.4833 Q655.893 46.9521 656.714 46.1943 Q657.534 45.4365 657.878 44.7333 L658.737 44.7333 L658.737 55.7333 Z" fill="#000000" fill-opacity="1.000000"/>
  <path d="M661.924 50.2333 Q661.924 48.3271 662.315 47.163 Q662.706 45.999 663.479 45.3661 Q664.253 44.7333 665.424 44.7333 Q666.284 44.7333 666.94 45.0849 Q667.596 45.4365 668.018 46.0927 Q668.44 46.749 668.682 47.6943 Q668.924 48.6396 668.924 50.2333 Q668.924 52.1396 668.534 53.3036 Q668.143 54.4677 667.37 55.1005 Q666.596 55.7333 665.424 55.7333 Q663.878 55.7333 662.987 54.624 Q661.924 53.2646 661.924 50.2333 ZM663.284 50.2333 Q663.284 52.9365 663.901 53.8349 Q664.518 54.7333 665.424 54.7333 Q666.331 54.7333 666.948 53.8349 Q667.565 52.9365 667.565 50.2333 Q667.565 47.5146 666.948 46.624 Q666.331 45.7333 665.409 45.7333 Q664.503 45.7333 663.956 46.5146 Q663.284 47.5302 663.284 50.2333 Z" fill="#000000" fill-opacity="1.000000"/>
  <path d="M670.815 55.7333 L670.815 54.7333 L672.315 54.7333 L672.315 55.7333 L670.815 55.7333 Z" fill="#000000" fill-opacity="1.000000"/>
  <path d="M674.159 52.7333 L675.534 52.7333 Q675.69 53.7333 676.253 54.2333 Q676.815 54.7333 677.596 54.7333 Q678.549 54.7333 679.214 54.0224 Q679.878 53.3115 679.878 52.1396 Q679.878 51.0302 679.245 50.3818 Q678.612 49.7333 677.581 49.7333 Q676.94 49.7333 676.432 50.0146 Q675.924 50.2958 675.628 50.7333 L674.393 50.7333 L675.424 44.7333 L680.768 44.7333 L680.768 45.7333 L676.487 45.7333 L675.909 49.3115 Q676.878 48.7333 677.94 48.7333 Q679.331 48.7333 680.299 49.6708 Q681.268 50.6083 681.268 52.0615 Q681.268 53.4677 680.424 54.4833 Q679.393 55.7333 677.596 55.7333 Q676.143 55.7333 675.214 54.913 Q674.284 54.0927 674.159 52.7333 Z" fill="#000000" fill-opacity="1.000000"/>
  <path d="M721.451 55.7333 L720.122 55.7333 L720.122 47.1552 Q719.654 47.624 718.88 48.0849 Q718.107 48.5458 717.497 48.7802 L717.497 47.4833 Q718.607 46.9521 719.427 46.1943 Q720.247 45.4365 720.591 44.7333 L721.451 44.7333 L721.451 55.7333 Z" fill="#000000" fill-opacity="1.000000"/>
  <path d="M729.06 55.7333 L727.732 55.7333 L727.732 47.1552 Q727.263 47.624 726.49 48.0849 Q725.716 48.5458 725.107 48.7802 L725.107 47.4833 Q726.216 46.9521 727.036 46.1943 Q727.857 45.4365 728.201 44.7333 L729.06 44.7333 L729.06 55.7333 Z" fill="#000000" fill-opacity="1.000000"/>
  <path d="M732.435 55.7333 L732.435 54.7333 L733.935 54.7333 L733.935 55.7333 L732.435 55.7333 Z" fill="#000000" fill-opacity="1.000000"/>
  <path d="M735.779 52.7333 L737.154 52.7333 Q737.31 53.7333 737.872 54.2333 Q738.435 54.7333 739.216 54.7333 Q740.169 54.7333 740.833 54.0224 Q741.497 53.3115 741.497 52.1396 Q741.497 51.0302 740.865 50.3818 Q740.232 49.7333 739.201 49.7333 Q738.56 49.7333 738.052 50.0146 Q737.544 50.2958 737.247 50.7333 L736.013 50.7333 L737.044 44.7333 L742.388 44.7333 L742.388 45.7333 L738.107 45.7333 L737.529 49.3115 Q738.497 48.7333 739.56 48.7333 Q740.951 48.7333 741.919 49.6708 Q742.888 50.6083 742.888 52.0615 Q742.888 53.4677 742.044 54.4833 Q741.013 55.7333 739.216 55.7333 Q737.763 55.7333 736.833 54.913 Q735.904 54.0927 735.779 52.7333 Z" fill="#000000" fill-opacity="1.000000"/>
  <path d="M783.07 55.7333 L781.742 55.7333 L781.742 47.1552 Q781.273 47.624 780.5 48.0849 Q779.727 48.5458 779.117 48.7802 L779.117 47.4833 Q780.227 46.9521 781.047 46.1943 Q781.867 45.4365 782.211 44.7333 L783.07 44.7333 L783.07 55.7333 Z" fill="#000000" fill-opacity="1.000000"/>
  <path d="M793.18 54.7333 L793.18 55.7333 L786.086 55.7333 Q786.07 55.3427 786.242 54.9677 Q786.508 54.3583 787.109 53.7724 Q787.711 53.1865 788.836 52.124 Q790.586 50.4677 791.203 49.538 Q791.82 48.6083 791.82 47.7958 Q791.82 46.9208 791.258 46.3271 Q790.695 45.7333 789.805 45.7333 Q788.852 45.7333 788.273 46.2646 Q787.695 46.7958 787.695 47.7333 L786.336 47.7333 Q786.477 46.2646 787.383 45.499 Q788.289 44.7333 789.82 44.7333 Q791.367 44.7333 792.266 45.624 Q793.164 46.5146 793.164 47.8427 Q793.164 48.5146 792.898 49.163 Q792.633 49.8115 792.023 50.5302 Q791.414 51.249 789.992 52.5302 Q788.805 53.5927 788.469 53.9677 Q788.133 54.3427 787.914 54.7333 L793.18 54.7333 Z" fill="#000000" fill-opacity="1.000000"/>
  <path d="M795.148 55.7333 L795.148 54.7333 L796.648 54.7333 L796.648 55.7333 L795.148 55.7333 Z" fill="#000000" fill-opacity="1.000000"/>
  <path d="M798.492 52.7333 L799.867 52.7333 Q800.023 53.7333 800.586 54.2333 Q801.148 54.7333 801.93 54.7333 Q802.883 54.7333 803.547 54.0224 Q804.211 53.3115 804.211 52.1396 Q804.211 51.0302 803.578 50.3818 Q802.945 49.7333 801.914 49.7333 Q801.273 49.7333 800.766 50.0146 Q800.258 50.2958 799.961 50.7333 L798.727 50.7333 L799.758 44.7333 L805.102 44.7333 L805.102 45.7333 L800.82 45.7333 L800.242 49.3115 Q801.211 48.7333 802.273 48.7333 Q803.664 48.7333 804.633 49.6708 Q805.602 50.6083 805.602 52.0615 Q805.602 53.4677 804.758 54.4833 Q803.727 55.7333 801.93 55.7333 Q800.477 55.7333 799.547 54.913 Q798.617 54.0927 798.492 52.7333 Z" fill="#000000" fill-opacity="1.000000"/>
  <path d="M845.237 55.7333 L843.909 55.7333 L843.909 47.1552 Q843.44 47.624 842.667 48.0849 Q841.893 48.5458 841.284 48.7802 L841.284 47.4833 Q842.393 46.9521 843.214 46.1943 Q844.034 45.4365 844.378 44.7333 L845.237 44.7333 L845.237 55.7333 Z" fill="#000000" fill-opacity="1.000000"/>
  <path d="M848.424 52.7333 L849.753 52.7333 Q849.987 53.7958 850.526 54.2646 Q851.065 54.7333 851.846 54.7333 Q852.784 54.7333 853.424 54.1161 Q854.065 53.499 854.065 52.5927 Q854.065 51.7177 853.471 51.1474 Q852.878 50.5771 851.956 50.5771 Q851.581 50.5771 851.034 50.7333 L851.174 49.7333 Q851.315 49.749 851.393 49.749 Q852.237 49.749 852.909 49.2411 Q853.581 48.7333 853.581 47.6708 Q853.581 46.8427 853.089 46.288 Q852.596 45.7333 851.815 45.7333 Q851.049 45.7333 850.534 46.2333 Q850.018 46.7333 849.878 47.7333 L848.565 47.7333 Q848.799 46.3115 849.659 45.5224 Q850.518 44.7333 851.799 44.7333 Q852.674 44.7333 853.417 45.1396 Q854.159 45.5458 854.549 46.249 Q854.94 46.9521 854.94 47.749 Q854.94 48.499 854.565 49.1161 Q854.19 49.7333 853.456 50.0927 Q854.409 50.2958 854.932 50.9443 Q855.456 51.5927 855.456 52.5771 Q855.456 53.8896 854.432 54.8115 Q853.409 55.7333 851.831 55.7333 Q850.424 55.7333 849.487 54.8974 Q848.549 54.0615 848.424 52.7333 Z" fill="#000000" fill-opacity="1.000000"/>
  <path d="M857.315 55.7333 L857.315 54.7333 L858.815 54.7333 L858.815 55.7333 L857.315 55.7333 Z" fill="#000000" fill-opacity="1.000000"/>
  <path d="M860.659 52.7333 L862.034 52.7333 Q862.19 53.7333 862.753 54.2333 Q863.315 54.7333 864.096 54.7333 Q865.049 54.7333 865.714 54.0224 Q866.378 53.3115 866.378 52.1396 Q866.378 51.0302 865.745 50.3818 Q865.112 49.7333 864.081 49.7333 Q863.44 49.7333 862.932 50.0146 Q862.424 50.2958 862.128 50.7333 L860.893 50.7333 L861.924 44.7333 L867.268 44.7333 L867.268 45.7333 L862.987 45.7333 L862.409 49.3115 Q863.378 48.7333 864.44 48.7333 Q865.831 48.7333 866.799 49.6708 Q867.768 50.6083 867.768 52.0615 Q867.768 53.4677 866.924 54.4833 Q865.893 55.7333 864.096 55.7333 Q862.643 55.7333 861.714 54.913 Q860.784 54.0927 860.659 52.7333 Z" fill="#000000" fill-opacity="1.000000"/>
  <path d="M907.404 55.7333 L906.076 55.7333 L906.076 47.1552 Q905.607 47.624 904.833 48.0849 Q904.06 48.5458 903.451 48.7802 L903.451 47.4833 Q904.56 46.9521 905.38 46.1943 Q906.201 45.4365 906.544 44.7333 L907.404 44.7333 L907.404 55.7333 Z" fill="#000000" fill-opacity="1.000000"/>
  <path d="M914.81 55.7333 L914.81 52.7333 L910.154 52.7333 L910.154 51.7333 L915.06 44.7333 L916.138 44.7333 L916.138 51.7333 L917.591 51.7333 L917.591 52.7333 L916.138 52.7333 L916.138 55.7333 L914.81 55.7333 ZM914.81 51.7333 L914.81 46.9365 L911.451 51.7333 L914.81 51.7333 Z" fill="#000000" fill-opacity="1.000000"/>
  <path d="M919.482 55.7333 L919.482 54.7333 L920.982 54.7333 L920.982 55.7333 L919.482 55.7333 Z" fill="#000000" fill-opacity="1.000000"/>
  <path d="M922.826 52.7333 L924.201 52.7333 Q924.357 53.7333 924.919 54.2333 Q925.482 54.7333 926.263 54.7333 Q927.216 54.7333 927.88 54.0224 Q928.544 53.3115 928.544 52.1396 Q928.544 51.0302 927.911 50.3818 Q927.279 49.7333 926.247 49.7333 Q925.607 49.7333 925.099 50.0146 Q924.591 50.2958 924.294 50.7333 L923.06 50.7333 L924.091 44.7333 L929.435 44.7333 L929.435 45.7333 L925.154 45.7333 L924.576 49.3115 Q925.544 48.7333 926.607 48.7333 Q927.997 48.7333 928.966 49.6708 Q929.935 50.6083 929.935 52.0615 Q929.935 53.4677 929.091 54.4833 Q928.06 55.7333 926.263 55.7333 Q924.81 55.7333 923.88 54.913 Q922.951 54.0927 922.826 52.7333 Z" fill="#000000" fill-opacity="1.000000"/>
  <path d="M969.57 55.7333 L968.242 55.7333 L968.242 47.1552 Q967.773 47.624 967 48.0849 Q966.227 48.5458 965.617 48.7802 L965.617 47.4833 Q966.727 46.9521 967.547 46.1943 Q968.367 45.4365 968.711 44.7333 L969.57 44.7333 L969.57 55.7333 Z" fill="#000000" fill-opacity="1.000000"/>
  <path d="M972.758 52.7333 L974.133 52.7333 Q974.289 53.7333 974.852 54.2333 Q975.414 54.7333 976.195 54.7333 Q977.148 54.7333 977.812 54.0224 Q978.477 53.3115 978.477 52.1396 Q978.477 51.0302 977.844 50.3818 Q977.211 49.7333 976.18 49.7333 Q975.539 49.7333 975.031 50.0146 Q974.523 50.2958 974.227 50.7333 L972.992 50.7333 L974.023 44.7333 L979.367 44.7333 L979.367 45.7333 L975.086 45.7333 L974.508 49.3115 Q975.477 48.7333 976.539 48.7333 Q977.93 48.7333 978.898 49.6708 Q979.867 50.6083 979.867 52.0615 Q979.867 53.4677 979.023 54.4833 Q977.992 55.7333 976.195 55.7333 Q974.742 55.7333 973.812 54.913 Q972.883 54.0927 972.758 52.7333 Z" fill="#000000" fill-opacity="1.000000"/>
  <path d="M981.648 55.7333 L981.648 54.7333 L983.148 54.7333 L983.148 55.7333 L981.648 55.7333 Z" fill="#000000" fill-opacity="1.000000"/>
  <path d="M984.992 52.7333 L986.367 52.7333 Q986.523 53.7333 987.086 54.2333 Q987.648 54.7333 988.43 54.7333 Q989.383 54.7333 990.047 54.0224 Q990.711 53.3115 990.711 52.1396 Q990.711 51.0302 990.078 50.3818 Q989.445 49.7333 988.414 49.7333 Q987.773 49.7333 987.266 50.0146 Q986.758 50.2958 986.461 50.7333 L985.227 50.7333 L986.258 44.7333 L991.602 44.7333 L991.602 45.7333 L987.32 45.7333 L986.742 49.3115 Q987.711 48.7333 988.773 48.7333 Q990.164 48.7333 991.133 49.6708 Q992.102 50.6083 992.102 52.0615 Q992.102 53.4677 991.258 54.4833 Q990.227 55.7333 988.43 55.7333 Q986.977 55.7333 986.047 54.913 Q985.117 54.0927 984.992 52.7333 Z" fill="#000000" fill-opacity="1.000000"/>
</svg>