<?xml version="1.0" encoding="UTF-8" ?>
<!-- Generated by clip v0.8.0 (clip-lang.org) -->
<svg xmlns="http://www.w3.org/2000/svg" width="1024" height="60">
  <rect width="1024" height="60" fill="#ffffff" fill-opacity="1"/>
  <path d="M14.667 30 L1009.333 30" fill="none" stroke="#000000" stroke-width="1.333"/>
  <path d="M43.922 32.667 L43.922 27.333" fill="none" stroke="#000000" stroke-width="1.333"/>
  <path d="M102.431 32.667 L102.431 27.333" fill="none" stroke="#000000" stroke-width="1.333"/>
  <path d="M160.941 32.667 L160.941 27.333" fill="none" stroke="#000000" stroke-width="1.333"/>
  <path d="M219.451 32.667 L219.451 27.333" fill="none" stroke="#000000" stroke-width="1.333"/>
  <path d="M277.961 32.667 L277.961 27.333" fill="none" stroke="#000000" stroke-width="1.333"/>
  <path d="M336.471 32.667 L336.471 27.333" fill="none" stroke="#000000" stroke-width="1.333"/>
  <path d="M394.980 32.667 L394.980 27.333" fill="none" stroke="#000000" stroke-width="1.333"/>
  <path d="M453.490 32.667 L453.490 27.333" fill="none" stroke="#000000" stroke-width="1.333"/>
  <path d="M512 32.667 L512 27.333" fill="none" stroke="#000000" stroke-width="1.333"/>
  <path d="M570.510 32.667 L570.510 27.333" fill="none" stroke="#000000" stroke-width="1.333"/>
  <path d="M629.020 32.667 L629.020 27.333" fill="none" stroke="#000000" stroke-width="1.333"/>
  <path d="M687.529 32.667 L687.529 27.333" fill="none" stroke="#000000" stroke-width="1.333"/>
  <path d="M746.039 32.667 L746.039 27.333" fill="none" stroke="#000000" stroke-width="1.333"/>
  <path d="M804.549 32.667 L804.549 27.333" fill="none" stroke="#000000" stroke-width="1.333"/>
  <path d="M863.059 32.667 L863.059 27.333" fill="none" stroke="#000000" stroke-width="1.333"/>
  <path d="M921.569 32.667 L921.569 27.333" fill="none" stroke="#000000" stroke-width="1.333"/>
  <path d="M980.078 32.667 L980.078 27.333" fill="none" stroke="#000000" stroke-width="1.333"/>
  <path d="M34.351 50.233 Q34.351 48.327 34.742 47.163 Q35.133 45.999 35.906 45.366 Q36.679 44.733 37.851 44.733 Q38.711 44.733 39.367 45.085 Q40.023 45.436 40.445 46.093 Q40.867 46.749 41.109 47.694 Q41.351 48.640 41.351 50.233 Q41.351 52.140 40.961 53.304 Q40.570 54.468 39.797 55.101 Q39.023 55.733 37.851 55.733 Q36.304 55.733 35.414 54.624 Q34.351 53.265 34.351 50.233 Z M35.711 50.233 Q35.711 52.936 36.328 53.835 Q36.945 54.733 37.851 54.733 Q38.758 54.733 39.375 53.835 Q39.992 52.936 39.992 50.233 Q39.992 47.515 39.375 46.624 Q38.758 45.733 37.836 45.733 Q36.929 45.733 36.383 46.515 Q35.711 47.530 35.711 50.233 Z"/>
  <path d="M43.242 55.733 L43.242 54.733 L44.742 54.733 L44.742 55.733 L43.242 55.733 Z"/>
  <path d="M46.586 50.233 Q46.586 48.327 46.976 47.163 Q47.367 45.999 48.140 45.366 Q48.914 44.733 50.086 44.733 Q50.945 44.733 51.601 45.085 Q52.258 45.436 52.679 46.093 Q53.101 46.749 53.343 47.694 Q53.586 48.640 53.586 50.233 Q53.586 52.140 53.195 53.304 Q52.804 54.468 52.031 55.101 Q51.258 55.733 50.086 55.733 Q48.539 55.733 47.648 54.624 Q46.586 53.265 46.586 50.233 Z M47.945 50.233 Q47.945 52.936 48.562 53.835 Q49.179 54.733 50.086 54.733 Q50.992 54.733 51.609 53.835 Q52.226 52.936 52.226 50.233 Q52.226 47.515 51.609 46.624 Q50.992 45.733 50.070 45.733 Q49.164 45.733 48.617 46.515 Q47.945 47.530 47.945 50.233 Z"/>
  <path d="M97.830 55.733 L96.502 55.733 L96.502 47.155 Q96.033 47.624 95.259 48.085 Q94.486 48.546 93.877 48.780 L93.877 47.483 Q94.986 46.952 95.806 46.194 Q96.627 45.436 96.970 44.733 L97.830 44.733 L97.830 55.733 Z"/>
  <path d="M101.752 55.733 L101.752 54.733 L103.252 54.733 L103.252 55.733 L101.752 55.733 Z"/>
  <path d="M105.095 50.233 Q105.095 48.327 105.486 47.163 Q105.877 45.999 106.650 45.366 Q107.424 44.733 108.595 44.733 Q109.455 44.733 110.111 45.085 Q110.767 45.436 111.189 46.093 Q111.611 46.749 111.853 47.694 Q112.095 48.640 112.095 50.233 Q112.095 52.140 111.705 53.304 Q111.314 54.468 110.541 55.101 Q109.767 55.733 108.595 55.733 Q107.049 55.733 106.158 54.624 Q105.095 53.265 105.095 50.233 Z M106.455 50.233 Q106.455 52.936 107.072 53.835 Q107.689 54.733 108.595 54.733 Q109.502 54.733 110.119 53.835 Q110.736 52.936 110.736 50.233 Q110.736 47.515 110.119 46.624 Q109.502 45.733 108.580 45.733 Q107.674 45.733 107.127 46.515 Q106.455 47.530 106.455 50.233 Z"/>
  <path d="M158.293 54.733 L158.293 55.733 L151.199 55.733 Q151.183 55.343 151.355 54.968 Q151.621 54.358 152.222 53.772 Q152.824 53.186 153.949 52.124 Q155.699 50.468 156.316 49.538 Q156.933 48.608 156.933 47.796 Q156.933 46.921 156.371 46.327 Q155.808 45.733 154.918 45.733 Q153.965 45.733 153.386 46.265 Q152.808 46.796 152.808 47.733 L151.449 47.733 Q151.590 46.265 152.496 45.499 Q153.402 44.733 154.933 44.733 Q156.480 44.733 157.379 45.624 Q158.277 46.515 158.277 47.843 Q158.277 48.515 158.011 49.163 Q157.746 49.811 157.136 50.530 Q156.527 51.249 155.105 52.530 Q153.918 53.593 153.582 53.968 Q153.246 54.343 153.027 54.733 L158.293 54.733 Z"/>
  <path d="M160.261 55.733 L160.261 54.733 L161.761 54.733 L161.761 55.733 L160.261 55.733 Z"/>
  <path d="M163.605 50.233 Q163.605 48.327 163.996 47.163 Q164.386 45.999 165.160 45.366 Q165.933 44.733 167.105 44.733 Q167.965 44.733 168.621 45.085 Q169.277 45.436 169.699 46.093 Q170.121 46.749 170.363 47.694 Q170.605 48.640 170.605 50.233 Q170.605 52.140 170.215 53.304 Q169.824 54.468 169.051 55.101 Q168.277 55.733 167.105 55.733 Q165.558 55.733 164.668 54.624 Q163.605 53.265 163.605 50.233 Z M164.965 50.233 Q164.965 52.936 165.582 53.835 Q166.199 54.733 167.105 54.733 Q168.011 54.733 168.629 53.835 Q169.246 52.936 169.246 50.233 Q169.246 47.515 168.629 46.624 Q168.011 45.733 167.090 45.733 Q166.183 45.733 165.636 46.515 Q164.965 47.530 164.965 50.233 Z"/>
  <path d="M209.881 52.733 L211.209 52.733 Q211.443 53.796 211.982 54.265 Q212.521 54.733 213.303 54.733 Q214.240 54.733 214.881 54.116 Q215.521 53.499 215.521 52.593 Q215.521 51.718 214.928 51.147 Q214.334 50.577 213.412 50.577 Q213.037 50.577 212.490 50.733 L212.631 49.733 Q212.771 49.749 212.849 49.749 Q213.693 49.749 214.365 49.241 Q215.037 48.733 215.037 47.671 Q215.037 46.843 214.545 46.288 Q214.053 45.733 213.271 45.733 Q212.506 45.733 211.990 46.233 Q211.474 46.733 211.334 47.733 L210.021 47.733 Q210.256 46.311 211.115 45.522 Q211.974 44.733 213.256 44.733 Q214.131 44.733 214.873 45.140 Q215.615 45.546 216.006 46.249 Q216.396 46.952 216.396 47.749 Q216.396 48.499 216.021 49.116 Q215.646 49.733 214.912 50.093 Q215.865 50.296 216.388 50.944 Q216.912 51.593 216.912 52.577 Q216.912 53.890 215.888 54.811 Q214.865 55.733 213.287 55.733 Q211.881 55.733 210.943 54.897 Q210.006 54.061 209.881 52.733 Z"/>
  <path d="M218.771 55.733 L218.771 54.733 L220.271 54.733 L220.271 55.733 L218.771 55.733 Z"/>
  <path d="M222.115 50.233 Q222.115 48.327 222.506 47.163 Q222.896 45.999 223.670 45.366 Q224.443 44.733 225.615 44.733 Q226.474 44.733 227.131 45.085 Q227.787 45.436 228.209 46.093 Q228.631 46.749 228.873 47.694 Q229.115 48.640 229.115 50.233 Q229.115 52.140 228.724 53.304 Q228.334 54.468 227.560 55.101 Q226.787 55.733 225.615 55.733 Q224.068 55.733 223.178 54.624 Q222.115 53.265 222.115 50.233 Z M223.474 50.233 Q223.474 52.936 224.092 53.835 Q224.709 54.733 225.615 54.733 Q226.521 54.733 227.138 53.835 Q227.756 52.936 227.756 50.233 Q227.756 47.515 227.138 46.624 Q226.521 45.733 225.599 45.733 Q224.693 45.733 224.146 46.515 Q223.474 47.530 223.474 50.233 Z"/>
  <path d="M272.609 55.733 L272.609 52.733 L267.953 52.733 L267.953 51.733 L272.859 44.733 L273.937 44.733 L273.937 51.733 L275.390 51.733 L275.390 52.733 L273.937 52.733 L273.937 55.733 L272.609 55.733 Z M272.609 51.733 L272.609 46.936 L269.250 51.733 L272.609 51.733 Z"/>
  <path d="M277.281 55.733 L277.281 54.733 L278.781 54.733 L278.781 55.733 L277.281 55.733 Z"/>
  <path d="M280.625 50.233 Q280.625 48.327 281.015 47.163 Q281.406 45.999 282.180 45.366 Q282.953 44.733 284.125 44.733 Q284.984 44.733 285.640 45.085 Q286.297 45.436 286.719 46.093 Q287.140 46.749 287.383 47.694 Q287.625 48.640 287.625 50.233 Q287.625 52.140 287.234 53.304 Q286.844 54.468 286.070 55.101 Q285.297 55.733 284.125 55.733 Q282.578 55.733 281.687 54.624 Q280.625 53.265 280.625 50.233 Z M281.984 50.233 Q281.984 52.936 282.601 53.835 Q283.219 54.733 284.125 54.733 Q285.031 54.733 285.648 53.835 Q286.265 52.936 286.265 50.233 Q286.265 47.515 285.648 46.624 Q285.031 45.733 284.109 45.733 Q283.203 45.733 282.656 46.515 Q281.984 47.530 281.984 50.233 Z"/>
  <path d="M326.900 52.733 L328.275 52.733 Q328.432 53.733 328.994 54.233 Q329.557 54.733 330.338 54.733 Q331.291 54.733 331.955 54.022 Q332.619 53.311 332.619 52.140 Q332.619 51.030 331.986 50.382 Q331.353 49.733 330.322 49.733 Q329.682 49.733 329.174 50.015 Q328.666 50.296 328.369 50.733 L327.135 50.733 L328.166 44.733 L333.510 44.733 L333.510 45.733 L329.228 45.733 L328.650 49.311 Q329.619 48.733 330.682 48.733 Q332.072 48.733 333.041 49.671 Q334.010 50.608 334.010 52.061 Q334.010 53.468 333.166 54.483 Q332.135 55.733 330.338 55.733 Q328.885 55.733 327.955 54.913 Q327.025 54.093 326.900 52.733 Z"/>
  <path d="M335.791 55.733 L335.791 54.733 L337.291 54.733 L337.291 55.733 L335.791 55.733 Z"/>
  <path d="M339.135 50.233 Q339.135 48.327 339.525 47.163 Q339.916 45.999 340.689 45.366 Q341.463 44.733 342.635 44.733 Q343.494 44.733 344.150 45.085 Q344.807 45.436 345.228 46.093 Q345.650 46.749 345.892 47.694 Q346.135 48.640 346.135 50.233 Q346.135 52.140 345.744 53.304 Q345.353 54.468 344.580 55.101 Q343.807 55.733 342.635 55.733 Q341.088 55.733 340.197 54.624 Q339.135 53.265 339.135 50.233 Z M340.494 50.233 Q340.494 52.936 341.111 53.835 Q341.728 54.733 342.635 54.733 Q343.541 54.733 344.158 53.835 Q344.775 52.936 344.775 50.233 Q344.775 47.515 344.158 46.624 Q343.541 45.733 342.619 45.733 Q341.713 45.733 341.166 46.515 Q340.494 47.530 340.494 50.233 Z"/>
  <path d="M392.254 47.733 L390.941 47.733 Q390.769 46.811 390.441 46.405 Q389.910 45.733 389.129 45.733 Q388.488 45.733 388.019 46.124 Q387.394 46.624 387.035 47.577 Q386.676 48.530 386.660 50.171 Q387.129 49.436 387.824 49.085 Q388.519 48.733 389.269 48.733 Q390.582 48.733 391.512 49.686 Q392.441 50.640 392.441 52.140 Q392.441 53.124 392.004 53.976 Q391.566 54.827 390.809 55.280 Q390.051 55.733 389.082 55.733 Q387.426 55.733 386.387 54.515 Q385.348 53.296 385.348 50.515 Q385.348 47.390 386.504 45.968 Q387.504 44.733 389.207 44.733 Q390.473 44.733 391.285 45.530 Q392.098 46.327 392.254 47.733 Z M386.863 52.108 Q386.863 52.796 387.152 53.429 Q387.441 54.061 387.965 54.397 Q388.488 54.733 389.051 54.733 Q389.894 54.733 390.496 54.046 Q391.098 53.358 391.098 52.171 Q391.098 51.046 390.504 50.390 Q389.910 49.733 389.004 49.733 Q388.113 49.733 387.488 50.390 Q386.863 51.046 386.863 52.108 Z"/>
  <path d="M394.301 55.733 L394.301 54.733 L395.801 54.733 L395.801 55.733 L394.301 55.733 Z"/>
  <path d="M397.644 50.233 Q397.644 48.327 398.035 47.163 Q398.426 45.999 399.199 45.366 Q399.973 44.733 401.144 44.733 Q402.004 44.733 402.660 45.085 Q403.316 45.436 403.738 46.093 Q404.160 46.749 404.402 47.694 Q404.644 48.640 404.644 50.233 Q404.644 52.140 404.254 53.304 Q403.863 54.468 403.090 55.101 Q402.316 55.733 401.144 55.733 Q399.598 55.733 398.707 54.624 Q397.644 53.265 397.644 50.233 Z M399.004 50.233 Q399.004 52.936 399.621 53.835 Q400.238 54.733 401.144 54.733 Q402.051 54.733 402.668 53.835 Q403.285 52.936 403.285 50.233 Q403.285 47.515 402.668 46.624 Q402.051 45.733 401.129 45.733 Q400.223 45.733 399.676 46.515 Q399.004 47.530 399.004 50.233 Z"/>
  <path d="M443.998 45.733 L443.998 44.733 L450.951 44.733 L450.951 45.546 Q449.936 46.640 448.928 48.577 Q447.920 50.515 447.357 52.561 Q446.967 54.015 446.857 55.733 L445.514 55.733 Q445.529 54.374 446.006 52.452 Q446.482 50.530 447.373 48.741 Q448.264 46.952 449.264 45.733 L443.998 45.733 Z"/>
  <path d="M452.811 55.733 L452.811 54.733 L454.311 54.733 L454.311 55.733 L452.811 55.733 Z"/>
  <path d="M456.154 50.233 Q456.154 48.327 456.545 47.163 Q456.936 45.999 457.709 45.366 Q458.482 44.733 459.654 44.733 Q460.514 44.733 461.170 45.085 Q461.826 45.436 462.248 46.093 Q462.670 46.749 462.912 47.694 Q463.154 48.640 463.154 50.233 Q463.154 52.140 462.764 53.304 Q462.373 54.468 461.600 55.101 Q460.826 55.733 459.654 55.733 Q458.107 55.733 457.217 54.624 Q456.154 53.265 456.154 50.233 Z M457.514 50.233 Q457.514 52.936 458.131 53.835 Q458.748 54.733 459.654 54.733 Q460.561 54.733 461.178 53.835 Q461.795 52.936 461.795 50.233 Q461.795 47.515 461.178 46.624 Q460.561 45.733 459.639 45.733 Q458.732 45.733 458.186 46.515 Q457.514 47.530 457.514 50.233 Z"/>
  <path d="M504.461 50.202 Q503.648 49.874 503.250 49.257 Q502.852 48.640 502.852 47.780 Q502.852 46.499 503.695 45.616 Q504.539 44.733 505.930 44.733 Q507.336 44.733 508.195 45.632 Q509.055 46.530 509.055 47.827 Q509.055 48.655 508.656 49.265 Q508.258 49.874 507.461 50.202 Q508.461 50.499 508.977 51.163 Q509.492 51.827 509.492 52.733 Q509.492 53.999 508.516 54.866 Q507.539 55.733 505.961 55.733 Q504.367 55.733 503.391 54.866 Q502.414 53.999 502.414 52.702 Q502.414 51.733 502.945 51.085 Q503.477 50.436 504.461 50.202 Z M504.195 47.686 Q504.195 48.593 504.688 49.163 Q505.180 49.733 505.961 49.733 Q506.727 49.733 507.211 49.163 Q507.695 48.593 507.695 47.765 Q507.695 46.905 507.195 46.319 Q506.695 45.733 505.945 45.733 Q505.195 45.733 504.695 46.304 Q504.195 46.874 504.195 47.686 Z M503.773 52.718 Q503.773 53.233 504.039 53.718 Q504.305 54.202 504.828 54.468 Q505.352 54.733 505.961 54.733 Q506.898 54.733 507.516 54.171 Q508.133 53.608 508.133 52.749 Q508.133 51.874 507.500 51.304 Q506.867 50.733 505.914 50.733 Q504.992 50.733 504.383 51.296 Q503.773 51.858 503.773 52.718 Z"/>
  <path d="M511.320 55.733 L511.320 54.733 L512.820 54.733 L512.820 55.733 L511.320 55.733 Z"/>
  <path d="M514.664 50.233 Q514.664 48.327 515.055 47.163 Q515.445 45.999 516.219 45.366 Q516.992 44.733 518.164 44.733 Q519.023 44.733 519.680 45.085 Q520.336 45.436 520.758 46.093 Q521.180 46.749 521.422 47.694 Q521.664 48.640 521.664 50.233 Q521.664 52.140 521.273 53.304 Q520.883 54.468 520.109 55.101 Q519.336 55.733 518.164 55.733 Q516.617 55.733 515.727 54.624 Q514.664 53.265 514.664 50.233 Z M516.023 50.233 Q516.023 52.936 516.641 53.835 Q517.258 54.733 518.164 54.733 Q519.070 54.733 519.688 53.835 Q520.305 52.936 520.305 50.233 Q520.305 47.515 519.688 46.624 Q519.070 45.733 518.148 45.733 Q517.242 45.733 516.695 46.515 Q516.023 47.530 516.023 50.233 Z"/>
  <path d="M561.143 52.733 L562.408 52.733 Q562.564 53.780 563.018 54.257 Q563.471 54.733 564.189 54.733 Q564.783 54.733 565.244 54.429 Q565.705 54.124 565.994 53.616 Q566.283 53.108 566.486 52.257 Q566.689 51.405 566.689 50.577 Q566.689 50.499 566.674 50.327 Q566.283 50.952 565.596 51.343 Q564.908 51.733 564.111 51.733 Q562.783 51.733 561.861 50.788 Q560.939 49.843 560.939 48.280 Q560.939 46.686 561.900 45.710 Q562.861 44.733 564.314 44.733 Q565.361 44.733 566.229 45.296 Q567.096 45.858 567.549 46.905 Q568.002 47.952 568.002 49.936 Q568.002 52.015 567.557 53.233 Q567.111 54.452 566.229 55.093 Q565.346 55.733 564.158 55.733 Q562.893 55.733 562.096 54.944 Q561.299 54.155 561.143 52.733 Z M566.533 48.265 Q566.533 47.093 565.932 46.413 Q565.330 45.733 564.471 45.733 Q563.596 45.733 562.947 46.468 Q562.299 47.202 562.299 48.374 Q562.299 49.421 562.916 50.077 Q563.533 50.733 564.439 50.733 Q565.361 50.733 565.947 50.077 Q566.533 49.421 566.533 48.265 Z"/>
  <path d="M569.830 55.733 L569.830 54.733 L571.330 54.733 L571.330 55.733 L569.830 55.733 Z"/>
  <path d="M573.174 50.233 Q573.174 48.327 573.564 47.163 Q573.955 45.999 574.729 45.366 Q575.502 44.733 576.674 44.733 Q577.533 44.733 578.189 45.085 Q578.846 45.436 579.268 46.093 Q579.689 46.749 579.932 47.694 Q580.174 48.640 580.174 50.233 Q580.174 52.140 579.783 53.304 Q579.393 54.468 578.619 55.101 Q577.846 55.733 576.674 55.733 Q575.127 55.733 574.236 54.624 Q573.174 53.265 573.174 50.233 Z M574.533 50.233 Q574.533 52.936 575.150 53.835 Q575.768 54.733 576.674 54.733 Q577.580 54.733 578.197 53.835 Q578.814 52.936 578.814 50.233 Q578.814 47.515 578.197 46.624 Q577.580 45.733 576.658 45.733 Q575.752 45.733 575.205 46.515 Q574.533 47.530 574.533 50.233 Z"/>
  <path d="M620.340 55.733 L619.012 55.733 L619.012 47.155 Q618.543 47.624 617.770 48.085 Q616.996 48.546 616.387 48.780 L616.387 47.483 Q617.496 46.952 618.316 46.194 Q619.137 45.436 619.481 44.733 L620.340 44.733 L620.340 55.733 Z"/>
  <path d="M623.527 50.233 Q623.527 48.327 623.918 47.163 Q624.309 45.999 625.082 45.366 Q625.856 44.733 627.027 44.733 Q627.887 44.733 628.543 45.085 Q629.199 45.436 629.621 46.093 Q630.043 46.749 630.285 47.694 Q630.527 48.640 630.527 50.233 Q630.527 52.140 630.137 53.304 Q629.746 54.468 628.973 55.101 Q628.199 55.733 627.027 55.733 Q625.481 55.733 624.590 54.624 Q623.527 53.265 623.527 50.233 Z M624.887 50.233 Q624.887 52.936 625.504 53.835 Q626.121 54.733 627.027 54.733 Q627.934 54.733 628.551 53.835 Q629.168 52.936 629.168 50.233 Q629.168 47.515 628.551 46.624 Q627.934 45.733 627.012 45.733 Q626.106 45.733 625.559 46.515 Q624.887 47.530 624.887 50.233 Z"/>
  <path d="M632.418 55.733 L632.418 54.733 L633.918 54.733 L633.918 55.733 L632.418 55.733 Z"/>
  <path d="M635.762 50.233 Q635.762 48.327 636.152 47.163 Q636.543 45.999 637.316 45.366 Q638.090 44.733 639.262 44.733 Q640.121 44.733 640.777 45.085 Q641.434 45.436 641.856 46.093 Q642.277 46.749 642.520 47.694 Q642.762 48.640 642.762 50.233 Q642.762 52.140 642.371 53.304 Q641.981 54.468 641.207 55.101 Q640.434 55.733 639.262 55.733 Q637.715 55.733 636.824 54.624 Q635.762 53.265 635.762 50.233 Z M637.121 50.233 Q637.121 52.936 637.738 53.835 Q638.356 54.733 639.262 54.733 Q640.168 54.733 640.785 53.835 Q641.402 52.936 641.402 50.233 Q641.402 47.515 640.785 46.624 Q640.168 45.733 639.246 45.733 Q638.340 45.733 637.793 46.515 Q637.121 47.530 637.121 50.233 Z"/>
  <path d="M679.397 55.733 L678.068 55.733 L678.068 47.155 Q677.600 47.624 676.826 48.085 Q676.053 48.546 675.443 48.780 L675.443 47.483 Q676.553 46.952 677.373 46.194 Q678.193 45.436 678.537 44.733 L679.397 44.733 L679.397 55.733 Z"/>
  <path d="M687.006 55.733 L685.678 55.733 L685.678 47.155 Q685.209 47.624 684.436 48.085 Q683.662 48.546 683.053 48.780 L683.053 47.483 Q684.162 46.952 684.983 46.194 Q685.803 45.436 686.147 44.733 L687.006 44.733 L687.006 55.733 Z"/>
  <path d="M690.381 55.733 L690.381 54.733 L691.881 54.733 L691.881 55.733 L690.381 55.733 Z"/>
  <path d="M693.725 50.233 Q693.725 48.327 694.115 47.163 Q694.506 45.999 695.279 45.366 Q696.053 44.733 697.225 44.733 Q698.084 44.733 698.740 45.085 Q699.397 45.436 699.818 46.093 Q700.240 46.749 700.483 47.694 Q700.725 48.640 700.725 50.233 Q700.725 52.140 700.334 53.304 Q699.943 54.468 699.170 55.101 Q698.397 55.733 697.225 55.733 Q695.678 55.733 694.787 54.624 Q693.725 53.265 693.725 50.233 Z M695.084 50.233 Q695.084 52.936 695.701 53.835 Q696.318 54.733 697.225 54.733 Q698.131 54.733 698.748 53.835 Q699.365 52.936 699.365 50.233 Q699.365 47.515 698.748 46.624 Q698.131 45.733 697.209 45.733 Q696.303 45.733 695.756 46.515 Q695.084 47.530 695.084 50.233 Z"/>
  <path d="M737.360 55.733 L736.031 55.733 L736.031 47.155 Q735.563 47.624 734.789 48.085 Q734.016 48.546 733.406 48.780 L733.406 47.483 Q734.516 46.952 735.336 46.194 Q736.156 45.436 736.500 44.733 L737.360 44.733 L737.360 55.733 Z"/>
  <path d="M747.469 54.733 L747.469 55.733 L740.375 55.733 Q740.360 55.343 740.531 54.968 Q740.797 54.358 741.399 53.772 Q742.000 53.186 743.125 52.124 Q744.875 50.468 745.492 49.538 Q746.110 48.608 746.110 47.796 Q746.110 46.921 745.547 46.327 Q744.985 45.733 744.094 45.733 Q743.141 45.733 742.563 46.265 Q741.985 46.796 741.985 47.733 L740.625 47.733 Q740.766 46.265 741.672 45.499 Q742.578 44.733 744.110 44.733 Q745.656 44.733 746.555 45.624 Q747.453 46.515 747.453 47.843 Q747.453 48.515 747.188 49.163 Q746.922 49.811 746.313 50.530 Q745.703 51.249 744.281 52.530 Q743.094 53.593 742.758 53.968 Q742.422 54.343 742.203 54.733 L747.469 54.733 Z"/>
  <path d="M749.438 55.733 L749.438 54.733 L750.938 54.733 L750.938 55.733 L749.438 55.733 Z"/>
  <path d="M752.781 50.233 Q752.781 48.327 753.172 47.163 Q753.563 45.999 754.336 45.366 Q755.110 44.733 756.281 44.733 Q757.141 44.733 757.797 45.085 Q758.453 45.436 758.875 46.093 Q759.297 46.749 759.539 47.694 Q759.781 48.640 759.781 50.233 Q759.781 52.140 759.391 53.304 Q759.000 54.468 758.227 55.101 Q757.453 55.733 756.281 55.733 Q754.735 55.733 753.844 54.624 Q752.781 53.265 752.781 50.233 Z M754.141 50.233 Q754.141 52.936 754.758 53.835 Q755.375 54.733 756.281 54.733 Q757.188 54.733 757.805 53.835 Q758.422 52.936 758.422 50.233 Q758.422 47.515 757.805 46.624 Q757.188 45.733 756.266 45.733 Q755.360 45.733 754.813 46.515 Q754.141 47.530 754.141 50.233 Z"/>
  <path d="M795.869 55.733 L794.541 55.733 L794.541 47.155 Q794.072 47.624 793.299 48.085 Q792.526 48.546 791.916 48.780 L791.916 47.483 Q793.026 46.952 793.846 46.194 Q794.666 45.436 795.010 44.733 L795.869 44.733 L795.869 55.733 Z"/>
  <path d="M799.057 52.733 L800.385 52.733 Q800.619 53.796 801.158 54.265 Q801.697 54.733 802.479 54.733 Q803.416 54.733 804.057 54.116 Q804.697 53.499 804.697 52.593 Q804.697 51.718 804.104 51.147 Q803.510 50.577 802.588 50.577 Q802.213 50.577 801.666 50.733 L801.807 49.733 Q801.947 49.749 802.026 49.749 Q802.869 49.749 803.541 49.241 Q804.213 48.733 804.213 47.671 Q804.213 46.843 803.721 46.288 Q803.229 45.733 802.447 45.733 Q801.682 45.733 801.166 46.233 Q800.651 46.733 800.510 47.733 L799.197 47.733 Q799.432 46.311 800.291 45.522 Q801.151 44.733 802.432 44.733 Q803.307 44.733 804.049 45.140 Q804.791 45.546 805.182 46.249 Q805.572 46.952 805.572 47.749 Q805.572 48.499 805.197 49.116 Q804.822 49.733 804.088 50.093 Q805.041 50.296 805.565 50.944 Q806.088 51.593 806.088 52.577 Q806.088 53.890 805.065 54.811 Q804.041 55.733 802.463 55.733 Q801.057 55.733 800.119 54.897 Q799.182 54.061 799.057 52.733 Z"/>
  <path d="M807.947 55.733 L807.947 54.733 L809.447 54.733 L809.447 55.733 L807.947 55.733 Z"/>
  <path d="M811.291 50.233 Q811.291 48.327 811.682 47.163 Q812.072 45.999 812.846 45.366 Q813.619 44.733 814.791 44.733 Q815.651 44.733 816.307 45.085 Q816.963 45.436 817.385 46.093 Q817.807 46.749 818.049 47.694 Q818.291 48.640 818.291 50.233 Q818.291 52.140 817.901 53.304 Q817.510 54.468 816.737 55.101 Q815.963 55.733 814.791 55.733 Q813.244 55.733 812.354 54.624 Q811.291 53.265 811.291 50.233 Z M812.651 50.233 Q812.651 52.936 813.268 53.835 Q813.885 54.733 814.791 54.733 Q815.697 54.733 816.315 53.835 Q816.932 52.936 816.932 50.233 Q816.932 47.515 816.315 46.624 Q815.697 45.733 814.776 45.733 Q813.869 45.733 813.322 46.515 Q812.651 47.530 812.651 50.233 Z"/>
  <path d="M854.379 55.733 L853.051 55.733 L853.051 47.155 Q852.582 47.624 851.809 48.085 Q851.035 48.546 850.426 48.780 L850.426 47.483 Q851.535 46.952 852.356 46.194 Q853.176 45.436 853.520 44.733 L854.379 44.733 L854.379 55.733 Z"/>
  <path d="M861.785 55.733 L861.785 52.733 L857.129 52.733 L857.129 51.733 L862.035 44.733 L863.114 44.733 L863.114 51.733 L864.567 51.733 L864.567 52.733 L863.114 52.733 L863.114 55.733 L861.785 55.733 Z M861.785 51.733 L861.785 46.936 L858.426 51.733 L861.785 51.733 Z"/>
  <path d="M866.457 55.733 L866.457 54.733 L867.957 54.733 L867.957 55.733 L866.457 55.733 Z"/>
  <path d="M869.801 50.233 Q869.801 48.327 870.192 47.163 Q870.582 45.999 871.356 45.366 Q872.129 44.733 873.301 44.733 Q874.160 44.733 874.817 45.085 Q875.473 45.436 875.895 46.093 Q876.317 46.749 876.559 47.694 Q876.801 48.640 876.801 50.233 Q876.801 52.140 876.410 53.304 Q876.020 54.468 875.246 55.101 Q874.473 55.733 873.301 55.733 Q871.754 55.733 870.864 54.624 Q869.801 53.265 869.801 50.233 Z M871.160 50.233 Q871.160 52.936 871.778 53.835 Q872.395 54.733 873.301 54.733 Q874.207 54.733 874.824 53.835 Q875.442 52.936 875.442 50.233 Q875.442 47.515 874.824 46.624 Q874.207 45.733 873.285 45.733 Q872.379 45.733 871.832 46.515 Q871.160 47.530 871.160 50.233 Z"/>
  <path d="M912.889 55.733 L911.561 55.733 L911.561 47.155 Q911.092 47.624 910.319 48.085 Q909.545 48.546 908.936 48.780 L908.936 47.483 Q910.045 46.952 910.866 46.194 Q911.686 45.436 912.030 44.733 L912.889 44.733 L912.889 55.733 Z"/>
  <path d="M916.076 52.733 L917.451 52.733 Q917.608 53.733 918.170 54.233 Q918.733 54.733 919.514 54.733 Q920.467 54.733 921.131 54.022 Q921.795 53.311 921.795 52.140 Q921.795 51.030 921.162 50.382 Q920.530 49.733 919.498 49.733 Q918.858 49.733 918.350 50.015 Q917.842 50.296 917.545 50.733 L916.311 50.733 L917.342 44.733 L922.686 44.733 L922.686 45.733 L918.405 45.733 L917.826 49.311 Q918.795 48.733 919.858 48.733 Q921.248 48.733 922.217 49.671 Q923.186 50.608 923.186 52.061 Q923.186 53.468 922.342 54.483 Q921.311 55.733 919.514 55.733 Q918.061 55.733 917.131 54.913 Q916.201 54.093 916.076 52.733 Z"/>
  <path d="M924.967 55.733 L924.967 54.733 L926.467 54.733 L926.467 55.733 L924.967 55.733 Z"/>
  <path d="M928.311 50.233 Q928.311 48.327 928.701 47.163 Q929.092 45.999 929.866 45.366 Q930.639 44.733 931.811 44.733 Q932.670 44.733 933.326 45.085 Q933.983 45.436 934.405 46.093 Q934.826 46.749 935.069 47.694 Q935.311 48.640 935.311 50.233 Q935.311 52.140 934.920 53.304 Q934.530 54.468 933.756 55.101 Q932.983 55.733 931.811 55.733 Q930.264 55.733 929.373 54.624 Q928.311 53.265 928.311 50.233 Z M929.670 50.233 Q929.670 52.936 930.287 53.835 Q930.905 54.733 931.811 54.733 Q932.717 54.733 933.334 53.835 Q933.951 52.936 933.951 50.233 Q933.951 47.515 933.334 46.624 Q932.717 45.733 931.795 45.733 Q930.889 45.733 930.342 46.515 Q929.670 47.530 929.670 50.233 Z"/>
  <path d="M971.399 55.733 L970.071 55.733 L970.071 47.155 Q969.602 47.624 968.828 48.085 Q968.055 48.546 967.446 48.780 L967.446 47.483 Q968.555 46.952 969.375 46.194 Q970.196 45.436 970.539 44.733 L971.399 44.733 L971.399 55.733 Z"/>
  <path d="M981.430 47.733 L980.117 47.733 Q979.946 46.811 979.617 46.405 Q979.086 45.733 978.305 45.733 Q977.664 45.733 977.196 46.124 Q976.571 46.624 976.211 47.577 Q975.852 48.530 975.836 50.171 Q976.305 49.436 977.000 49.085 Q977.696 48.733 978.446 48.733 Q979.758 48.733 980.688 49.686 Q981.617 50.640 981.617 52.140 Q981.617 53.124 981.180 53.976 Q980.742 54.827 979.985 55.280 Q979.227 55.733 978.258 55.733 Q976.602 55.733 975.563 54.515 Q974.524 53.296 974.524 50.515 Q974.524 47.390 975.680 45.968 Q976.680 44.733 978.383 44.733 Q979.649 44.733 980.461 45.530 Q981.274 46.327 981.430 47.733 Z M976.039 52.108 Q976.039 52.796 976.328 53.429 Q976.617 54.061 977.141 54.397 Q977.664 54.733 978.227 54.733 Q979.071 54.733 979.672 54.046 Q980.274 53.358 980.274 52.171 Q980.274 51.046 979.680 50.390 Q979.086 49.733 978.180 49.733 Q977.289 49.733 976.664 50.390 Q976.039 51.046 976.039 52.108 Z"/>
  <path d="M983.477 55.733 L983.477 54.733 L984.977 54.733 L984.977 55.733 L983.477 55.733 Z"/>
  <path d="M986.821 50.233 Q986.821 48.327 987.211 47.163 Q987.602 45.999 988.375 45.366 Q989.149 44.733 990.321 44.733 Q991.180 44.733 991.836 45.085 Q992.492 45.436 992.914 46.093 Q993.336 46.749 993.578 47.694 Q993.821 48.640 993.821 50.233 Q993.821 52.140 993.430 53.304 Q993.039 54.468 992.266 55.101 Q991.492 55.733 990.321 55.733 Q988.774 55.733 987.883 54.624 Q986.821 53.265 986.821 50.233 Z M988.180 50.233 Q988.180 52.936 988.797 53.835 Q989.414 54.733 990.321 54.733 Q991.227 54.733 991.844 53.835 Q992.461 52.936 992.461 50.233 Q992.461 47.515 991.844 46.624 Q991.227 45.733 990.305 45.733 Q989.399 45.733 988.852 46.515 Q988.180 47.530 988.180 50.233 Z"/>
</svg>
