<?xml version="1.0" encoding="UTF-8" ?>
<!-- Generated by clip v0.8.0 (clip-lang.org) -->
<svg xmlns="http://www.w3.org/2000/svg" width="1024" height="60">
  <rect width="1024" height="60" fill="#ffffff" fill-opacity="1"/>
  <path d="M14.667 30 L1009.333 30" fill="none" stroke="#000000" stroke-width="1.333"/>
  <path d="M14.667 32.667 L14.667 27.333" fill="none" stroke="#000000" stroke-width="1.333"/>
  <path d="M80.978 32.667 L80.978 27.333" fill="none" stroke="#000000" stroke-width="1.333"/>
  <path d="M147.289 32.667 L147.289 27.333" fill="none" stroke="#000000" stroke-width="1.333"/>
  <path d="M213.600 32.667 L213.600 27.333" fill="none" stroke="#000000" stroke-width="1.333"/>
  <path d="M279.911 32.667 L279.911 27.333" fill="none" stroke="#000000" stroke-width="1.333"/>
  <path d="M346.222 32.667 L346.222 27.333" fill="none" stroke="#000000" stroke-width="1.333"/>
  <path d="M412.533 32.667 L412.533 27.333" fill="none" stroke="#000000" stroke-width="1.333"/>
  <path d="M478.844 32.667 L478.844 27.333" fill="none" stroke="#000000" stroke-width="1.333"/>
  <path d="M545.156 32.667 L545.156 27.333" fill="none" stroke="#000000" stroke-width="1.333"/>
  <path d="M611.467 32.667 L611.467 27.333" fill="none" stroke="#000000" stroke-width="1.333"/>
  <path d="M677.778 32.667 L677.778 27.333" fill="none" stroke="#000000" stroke-width="1.333"/>
  <path d="M744.089 32.667 L744.089 27.333" fill="none" stroke="#000000" stroke-width="1.333"/>
  <path d="M810.400 32.667 L810.400 27.333" fill="none" stroke="#000000" stroke-width="1.333"/>
  <path d="M876.711 32.667 L876.711 27.333" fill="none" stroke="#000000" stroke-width="1.333"/>
  <path d="M943.022 32.667 L943.022 27.333" fill="none" stroke="#000000" stroke-width="1.333"/>
  <path d="M1009.333 32.667 L1009.333 27.333" fill="none" stroke="#000000" stroke-width="1.333"/>
  <path d="M10.065 55.733 L8.737 55.733 L8.737 47.155 Q8.268 47.624 7.495 48.085 Q6.721 48.546 6.112 48.780 L6.112 47.483 Q7.221 46.952 8.042 46.194 Q8.862 45.436 9.206 44.733 L10.065 44.733 L10.065 55.733 Z"/>
  <path d="M13.987 55.733 L13.987 54.733 L15.487 54.733 L15.487 55.733 L13.987 55.733 Z"/>
  <path d="M17.331 50.233 Q17.331 48.327 17.721 47.163 Q18.112 45.999 18.885 45.366 Q19.659 44.733 20.831 44.733 Q21.690 44.733 22.346 45.085 Q23.003 45.436 23.424 46.093 Q23.846 46.749 24.089 47.694 Q24.331 48.640 24.331 50.233 Q24.331 52.140 23.940 53.304 Q23.549 54.468 22.776 55.101 Q22.003 55.733 20.831 55.733 Q19.284 55.733 18.393 54.624 Q17.331 53.265 17.331 50.233 Z M18.690 50.233 Q18.690 52.936 19.307 53.835 Q19.924 54.733 20.831 54.733 Q21.737 54.733 22.354 53.835 Q22.971 52.936 22.971 50.233 Q22.971 47.515 22.354 46.624 Q21.737 45.733 20.815 45.733 Q19.909 45.733 19.362 46.515 Q18.690 47.530 18.690 50.233 Z"/>
  <path d="M78.329 54.733 L78.329 55.733 L71.236 55.733 Q71.220 55.343 71.392 54.968 Q71.657 54.358 72.259 53.772 Q72.861 53.186 73.986 52.124 Q75.736 50.468 76.353 49.538 Q76.970 48.608 76.970 47.796 Q76.970 46.921 76.407 46.327 Q75.845 45.733 74.954 45.733 Q74.001 45.733 73.423 46.265 Q72.845 46.796 72.845 47.733 L71.486 47.733 Q71.626 46.265 72.532 45.499 Q73.439 44.733 74.970 44.733 Q76.517 44.733 77.415 45.624 Q78.314 46.515 78.314 47.843 Q78.314 48.515 78.048 49.163 Q77.782 49.811 77.173 50.530 Q76.564 51.249 75.142 52.530 Q73.954 53.593 73.618 53.968 Q73.282 54.343 73.064 54.733 L78.329 54.733 Z"/>
  <path d="M80.298 55.733 L80.298 54.733 L81.798 54.733 L81.798 55.733 L80.298 55.733 Z"/>
  <path d="M83.642 50.233 Q83.642 48.327 84.032 47.163 Q84.423 45.999 85.197 45.366 Q85.970 44.733 87.142 44.733 Q88.001 44.733 88.657 45.085 Q89.314 45.436 89.736 46.093 Q90.157 46.749 90.400 47.694 Q90.642 48.640 90.642 50.233 Q90.642 52.140 90.251 53.304 Q89.861 54.468 89.087 55.101 Q88.314 55.733 87.142 55.733 Q85.595 55.733 84.704 54.624 Q83.642 53.265 83.642 50.233 Z M85.001 50.233 Q85.001 52.936 85.618 53.835 Q86.236 54.733 87.142 54.733 Q88.048 54.733 88.665 53.835 Q89.282 52.936 89.282 50.233 Q89.282 47.515 88.665 46.624 Q88.048 45.733 87.126 45.733 Q86.220 45.733 85.673 46.515 Q85.001 47.530 85.001 50.233 Z"/>
  <path d="M137.719 52.733 L139.047 52.733 Q139.281 53.796 139.820 54.265 Q140.359 54.733 141.140 54.733 Q142.078 54.733 142.719 54.116 Q143.359 53.499 143.359 52.593 Q143.359 51.718 142.765 51.147 Q142.172 50.577 141.250 50.577 Q140.875 50.577 140.328 50.733 L140.469 49.733 Q140.609 49.749 140.687 49.749 Q141.531 49.749 142.203 49.241 Q142.875 48.733 142.875 47.671 Q142.875 46.843 142.383 46.288 Q141.890 45.733 141.109 45.733 Q140.344 45.733 139.828 46.233 Q139.312 46.733 139.172 47.733 L137.859 47.733 Q138.094 46.311 138.953 45.522 Q139.812 44.733 141.094 44.733 Q141.969 44.733 142.711 45.140 Q143.453 45.546 143.844 46.249 Q144.234 46.952 144.234 47.749 Q144.234 48.499 143.859 49.116 Q143.484 49.733 142.750 50.093 Q143.703 50.296 144.226 50.944 Q144.750 51.593 144.750 52.577 Q144.750 53.890 143.726 54.811 Q142.703 55.733 141.125 55.733 Q139.719 55.733 138.781 54.897 Q137.844 54.061 137.719 52.733 Z"/>
  <path d="M146.609 55.733 L146.609 54.733 L148.109 54.733 L148.109 55.733 L146.609 55.733 Z"/>
  <path d="M149.953 50.233 Q149.953 48.327 150.344 47.163 Q150.734 45.999 151.508 45.366 Q152.281 44.733 153.453 44.733 Q154.312 44.733 154.969 45.085 Q155.625 45.436 156.047 46.093 Q156.469 46.749 156.711 47.694 Q156.953 48.640 156.953 50.233 Q156.953 52.140 156.562 53.304 Q156.172 54.468 155.398 55.101 Q154.625 55.733 153.453 55.733 Q151.906 55.733 151.015 54.624 Q149.953 53.265 149.953 50.233 Z M151.312 50.233 Q151.312 52.936 151.930 53.835 Q152.547 54.733 153.453 54.733 Q154.359 54.733 154.976 53.835 Q155.594 52.936 155.594 50.233 Q155.594 47.515 154.976 46.624 Q154.359 45.733 153.437 45.733 Q152.531 45.733 151.984 46.515 Q151.312 47.530 151.312 50.233 Z"/>
  <path d="M208.248 55.733 L208.248 52.733 L203.592 52.733 L203.592 51.733 L208.498 44.733 L209.577 44.733 L209.577 51.733 L211.030 51.733 L211.030 52.733 L209.577 52.733 L209.577 55.733 L208.248 55.733 Z M208.248 51.733 L208.248 46.936 L204.889 51.733 L208.248 51.733 Z"/>
  <path d="M212.920 55.733 L212.920 54.733 L214.420 54.733 L214.420 55.733 L212.920 55.733 Z"/>
  <path d="M216.264 50.233 Q216.264 48.327 216.655 47.163 Q217.045 45.999 217.819 45.366 Q218.592 44.733 219.764 44.733 Q220.623 44.733 221.280 45.085 Q221.936 45.436 222.358 46.093 Q222.780 46.749 223.022 47.694 Q223.264 48.640 223.264 50.233 Q223.264 52.140 222.873 53.304 Q222.483 54.468 221.709 55.101 Q220.936 55.733 219.764 55.733 Q218.217 55.733 217.327 54.624 Q216.264 53.265 216.264 50.233 Z M217.623 50.233 Q217.623 52.936 218.241 53.835 Q218.858 54.733 219.764 54.733 Q220.670 54.733 221.287 53.835 Q221.905 52.936 221.905 50.233 Q221.905 47.515 221.287 46.624 Q220.670 45.733 219.748 45.733 Q218.842 45.733 218.295 46.515 Q217.623 47.530 217.623 50.233 Z"/>
  <path d="M270.341 52.733 L271.716 52.733 Q271.872 53.733 272.435 54.233 Q272.997 54.733 273.778 54.733 Q274.731 54.733 275.395 54.022 Q276.060 53.311 276.060 52.140 Q276.060 51.030 275.427 50.382 Q274.794 49.733 273.763 49.733 Q273.122 49.733 272.614 50.015 Q272.106 50.296 271.810 50.733 L270.575 50.733 L271.606 44.733 L276.950 44.733 L276.950 45.733 L272.669 45.733 L272.091 49.311 Q273.060 48.733 274.122 48.733 Q275.513 48.733 276.481 49.671 Q277.450 50.608 277.450 52.061 Q277.450 53.468 276.606 54.483 Q275.575 55.733 273.778 55.733 Q272.325 55.733 271.395 54.913 Q270.466 54.093 270.341 52.733 Z"/>
  <path d="M279.231 55.733 L279.231 54.733 L280.731 54.733 L280.731 55.733 L279.231 55.733 Z"/>
  <path d="M282.575 50.233 Q282.575 48.327 282.966 47.163 Q283.356 45.999 284.130 45.366 Q284.903 44.733 286.075 44.733 Q286.935 44.733 287.591 45.085 Q288.247 45.436 288.669 46.093 Q289.091 46.749 289.333 47.694 Q289.575 48.640 289.575 50.233 Q289.575 52.140 289.185 53.304 Q288.794 54.468 288.020 55.101 Q287.247 55.733 286.075 55.733 Q284.528 55.733 283.638 54.624 Q282.575 53.265 282.575 50.233 Z M283.935 50.233 Q283.935 52.936 284.552 53.835 Q285.169 54.733 286.075 54.733 Q286.981 54.733 287.599 53.835 Q288.216 52.936 288.216 50.233 Q288.216 47.515 287.599 46.624 Q286.981 45.733 286.060 45.733 Q285.153 45.733 284.606 46.515 Q283.935 47.530 283.935 50.233 Z"/>
  <path d="M343.496 47.733 L342.183 47.733 Q342.011 46.811 341.683 46.405 Q341.152 45.733 340.371 45.733 Q339.730 45.733 339.261 46.124 Q338.636 46.624 338.277 47.577 Q337.918 48.530 337.902 50.171 Q338.371 49.436 339.066 49.085 Q339.761 48.733 340.511 48.733 Q341.824 48.733 342.753 49.686 Q343.683 50.640 343.683 52.140 Q343.683 53.124 343.246 53.976 Q342.808 54.827 342.050 55.280 Q341.293 55.733 340.324 55.733 Q338.668 55.733 337.628 54.515 Q336.589 53.296 336.589 50.515 Q336.589 47.390 337.746 45.968 Q338.746 44.733 340.449 44.733 Q341.714 44.733 342.527 45.530 Q343.339 46.327 343.496 47.733 Z M338.105 52.108 Q338.105 52.796 338.394 53.429 Q338.683 54.061 339.207 54.397 Q339.730 54.733 340.293 54.733 Q341.136 54.733 341.738 54.046 Q342.339 53.358 342.339 52.171 Q342.339 51.046 341.746 50.390 Q341.152 49.733 340.246 49.733 Q339.355 49.733 338.730 50.390 Q338.105 51.046 338.105 52.108 Z"/>
  <path d="M345.543 55.733 L345.543 54.733 L347.043 54.733 L347.043 55.733 L345.543 55.733 Z"/>
  <path d="M348.886 50.233 Q348.886 48.327 349.277 47.163 Q349.668 45.999 350.441 45.366 Q351.214 44.733 352.386 44.733 Q353.246 44.733 353.902 45.085 Q354.558 45.436 354.980 46.093 Q355.402 46.749 355.644 47.694 Q355.886 48.640 355.886 50.233 Q355.886 52.140 355.496 53.304 Q355.105 54.468 354.332 55.101 Q353.558 55.733 352.386 55.733 Q350.839 55.733 349.949 54.624 Q348.886 53.265 348.886 50.233 Z M350.246 50.233 Q350.246 52.936 350.863 53.835 Q351.480 54.733 352.386 54.733 Q353.293 54.733 353.910 53.835 Q354.527 52.936 354.527 50.233 Q354.527 47.515 353.910 46.624 Q353.293 45.733 352.371 45.733 Q351.464 45.733 350.918 46.515 Q350.246 47.530 350.246 50.233 Z"/>
  <path d="M403.041 45.733 L403.041 44.733 L409.994 44.733 L409.994 45.546 Q408.979 46.640 407.971 48.577 Q406.963 50.515 406.401 52.561 Q406.010 54.015 405.901 55.733 L404.557 55.733 Q404.572 54.374 405.049 52.452 Q405.526 50.530 406.416 48.741 Q407.307 46.952 408.307 45.733 L403.041 45.733 Z"/>
  <path d="M411.854 55.733 L411.854 54.733 L413.354 54.733 L413.354 55.733 L411.854 55.733 Z"/>
  <path d="M415.197 50.233 Q415.197 48.327 415.588 47.163 Q415.979 45.999 416.752 45.366 Q417.526 44.733 418.697 44.733 Q419.557 44.733 420.213 45.085 Q420.869 45.436 421.291 46.093 Q421.713 46.749 421.955 47.694 Q422.197 48.640 422.197 50.233 Q422.197 52.140 421.807 53.304 Q421.416 54.468 420.643 55.101 Q419.869 55.733 418.697 55.733 Q417.151 55.733 416.260 54.624 Q415.197 53.265 415.197 50.233 Z M416.557 50.233 Q416.557 52.936 417.174 53.835 Q417.791 54.733 418.697 54.733 Q419.604 54.733 420.221 53.835 Q420.838 52.936 420.838 50.233 Q420.838 47.515 420.221 46.624 Q419.604 45.733 418.682 45.733 Q417.776 45.733 417.229 46.515 Q416.557 47.530 416.557 50.233 Z"/>
  <path d="M471.305 50.202 Q470.493 49.874 470.094 49.257 Q469.696 48.640 469.696 47.780 Q469.696 46.499 470.540 45.616 Q471.384 44.733 472.774 44.733 Q474.180 44.733 475.040 45.632 Q475.899 46.530 475.899 47.827 Q475.899 48.655 475.501 49.265 Q475.102 49.874 474.305 50.202 Q475.305 50.499 475.821 51.163 Q476.337 51.827 476.337 52.733 Q476.337 53.999 475.360 54.866 Q474.384 55.733 472.805 55.733 Q471.212 55.733 470.235 54.866 Q469.259 53.999 469.259 52.702 Q469.259 51.733 469.790 51.085 Q470.321 50.436 471.305 50.202 Z M471.040 47.686 Q471.040 48.593 471.532 49.163 Q472.024 49.733 472.805 49.733 Q473.571 49.733 474.055 49.163 Q474.540 48.593 474.540 47.765 Q474.540 46.905 474.040 46.319 Q473.540 45.733 472.790 45.733 Q472.040 45.733 471.540 46.304 Q471.040 46.874 471.040 47.686 Z M470.618 52.718 Q470.618 53.233 470.884 53.718 Q471.149 54.202 471.673 54.468 Q472.196 54.733 472.805 54.733 Q473.743 54.733 474.360 54.171 Q474.977 53.608 474.977 52.749 Q474.977 51.874 474.344 51.304 Q473.712 50.733 472.759 50.733 Q471.837 50.733 471.227 51.296 Q470.618 51.858 470.618 52.718 Z"/>
  <path d="M478.165 55.733 L478.165 54.733 L479.665 54.733 L479.665 55.733 L478.165 55.733 Z"/>
  <path d="M481.509 50.233 Q481.509 48.327 481.899 47.163 Q482.290 45.999 483.063 45.366 Q483.837 44.733 485.009 44.733 Q485.868 44.733 486.524 45.085 Q487.180 45.436 487.602 46.093 Q488.024 46.749 488.266 47.694 Q488.509 48.640 488.509 50.233 Q488.509 52.140 488.118 53.304 Q487.727 54.468 486.954 55.101 Q486.180 55.733 485.009 55.733 Q483.462 55.733 482.571 54.624 Q481.509 53.265 481.509 50.233 Z M482.868 50.233 Q482.868 52.936 483.485 53.835 Q484.102 54.733 485.009 54.733 Q485.915 54.733 486.532 53.835 Q487.149 52.936 487.149 50.233 Q487.149 47.515 486.532 46.624 Q485.915 45.733 484.993 45.733 Q484.087 45.733 483.540 46.515 Q482.868 47.530 482.868 50.233 Z"/>
  <path d="M535.788 52.733 L537.054 52.733 Q537.210 53.780 537.663 54.257 Q538.116 54.733 538.835 54.733 Q539.429 54.733 539.890 54.429 Q540.351 54.124 540.640 53.616 Q540.929 53.108 541.132 52.257 Q541.335 51.405 541.335 50.577 Q541.335 50.499 541.320 50.327 Q540.929 50.952 540.241 51.343 Q539.554 51.733 538.757 51.733 Q537.429 51.733 536.507 50.788 Q535.585 49.843 535.585 48.280 Q535.585 46.686 536.546 45.710 Q537.507 44.733 538.960 44.733 Q540.007 44.733 540.874 45.296 Q541.741 45.858 542.195 46.905 Q542.648 47.952 542.648 49.936 Q542.648 52.015 542.202 53.233 Q541.757 54.452 540.874 55.093 Q539.991 55.733 538.804 55.733 Q537.538 55.733 536.741 54.944 Q535.945 54.155 535.788 52.733 Z M541.179 48.265 Q541.179 47.093 540.577 46.413 Q539.976 45.733 539.116 45.733 Q538.241 45.733 537.593 46.468 Q536.945 47.202 536.945 48.374 Q536.945 49.421 537.562 50.077 Q538.179 50.733 539.085 50.733 Q540.007 50.733 540.593 50.077 Q541.179 49.421 541.179 48.265 Z"/>
  <path d="M544.476 55.733 L544.476 54.733 L545.976 54.733 L545.976 55.733 L544.476 55.733 Z"/>
  <path d="M547.820 50.233 Q547.820 48.327 548.210 47.163 Q548.601 45.999 549.374 45.366 Q550.148 44.733 551.320 44.733 Q552.179 44.733 552.835 45.085 Q553.491 45.436 553.913 46.093 Q554.335 46.749 554.577 47.694 Q554.820 48.640 554.820 50.233 Q554.820 52.140 554.429 53.304 Q554.038 54.468 553.265 55.101 Q552.491 55.733 551.320 55.733 Q549.773 55.733 548.882 54.624 Q547.820 53.265 547.820 50.233 Z M549.179 50.233 Q549.179 52.936 549.796 53.835 Q550.413 54.733 551.320 54.733 Q552.226 54.733 552.843 53.835 Q553.460 52.936 553.460 50.233 Q553.460 47.515 552.843 46.624 Q552.226 45.733 551.304 45.733 Q550.398 45.733 549.851 46.515 Q549.179 47.530 549.179 50.233 Z"/>
  <path d="M602.787 55.733 L601.459 55.733 L601.459 47.155 Q600.990 47.624 600.217 48.085 Q599.443 48.546 598.834 48.780 L598.834 47.483 Q599.943 46.952 600.764 46.194 Q601.584 45.436 601.928 44.733 L602.787 44.733 L602.787 55.733 Z"/>
  <path d="M605.974 50.233 Q605.974 48.327 606.365 47.163 Q606.756 45.999 607.529 45.366 Q608.303 44.733 609.474 44.733 Q610.334 44.733 610.990 45.085 Q611.646 45.436 612.068 46.093 Q612.490 46.749 612.732 47.694 Q612.974 48.640 612.974 50.233 Q612.974 52.140 612.584 53.304 Q612.193 54.468 611.420 55.101 Q610.646 55.733 609.474 55.733 Q607.928 55.733 607.037 54.624 Q605.974 53.265 605.974 50.233 Z M607.334 50.233 Q607.334 52.936 607.951 53.835 Q608.568 54.733 609.474 54.733 Q610.381 54.733 610.998 53.835 Q611.615 52.936 611.615 50.233 Q611.615 47.515 610.998 46.624 Q610.381 45.733 609.459 45.733 Q608.553 45.733 608.006 46.515 Q607.334 47.530 607.334 50.233 Z"/>
  <path d="M614.865 55.733 L614.865 54.733 L616.365 54.733 L616.365 55.733 L614.865 55.733 Z"/>
  <path d="M618.209 50.233 Q618.209 48.327 618.599 47.163 Q618.990 45.999 619.764 45.366 Q620.537 44.733 621.709 44.733 Q622.568 44.733 623.224 45.085 Q623.881 45.436 624.303 46.093 Q624.724 46.749 624.967 47.694 Q625.209 48.640 625.209 50.233 Q625.209 52.140 624.818 53.304 Q624.428 54.468 623.654 55.101 Q622.881 55.733 621.709 55.733 Q620.162 55.733 619.271 54.624 Q618.209 53.265 618.209 50.233 Z M619.568 50.233 Q619.568 52.936 620.185 53.835 Q620.803 54.733 621.709 54.733 Q622.615 54.733 623.232 53.835 Q623.849 52.936 623.849 50.233 Q623.849 47.515 623.232 46.624 Q622.615 45.733 621.693 45.733 Q620.787 45.733 620.240 46.515 Q619.568 47.530 619.568 50.233 Z"/>
  <path d="M669.645 55.733 L668.317 55.733 L668.317 47.155 Q667.848 47.624 667.075 48.085 Q666.301 48.546 665.692 48.780 L665.692 47.483 Q666.801 46.952 667.622 46.194 Q668.442 45.436 668.786 44.733 L669.645 44.733 L669.645 55.733 Z"/>
  <path d="M677.254 55.733 L675.926 55.733 L675.926 47.155 Q675.457 47.624 674.684 48.085 Q673.911 48.546 673.301 48.780 L673.301 47.483 Q674.411 46.952 675.231 46.194 Q676.051 45.436 676.395 44.733 L677.254 44.733 L677.254 55.733 Z"/>
  <path d="M680.629 55.733 L680.629 54.733 L682.129 54.733 L682.129 55.733 L680.629 55.733 Z"/>
  <path d="M683.973 50.233 Q683.973 48.327 684.364 47.163 Q684.754 45.999 685.528 45.366 Q686.301 44.733 687.473 44.733 Q688.332 44.733 688.989 45.085 Q689.645 45.436 690.067 46.093 Q690.489 46.749 690.731 47.694 Q690.973 48.640 690.973 50.233 Q690.973 52.140 690.582 53.304 Q690.192 54.468 689.418 55.101 Q688.645 55.733 687.473 55.733 Q685.926 55.733 685.036 54.624 Q683.973 53.265 683.973 50.233 Z M685.332 50.233 Q685.332 52.936 685.950 53.835 Q686.567 54.733 687.473 54.733 Q688.379 54.733 688.997 53.835 Q689.614 52.936 689.614 50.233 Q689.614 47.515 688.997 46.624 Q688.379 45.733 687.457 45.733 Q686.551 45.733 686.004 46.515 Q685.332 47.530 685.332 50.233 Z"/>
  <path d="M735.409 55.733 L734.081 55.733 L734.081 47.155 Q733.612 47.624 732.839 48.085 Q732.065 48.546 731.456 48.780 L731.456 47.483 Q732.565 46.952 733.386 46.194 Q734.206 45.436 734.550 44.733 L735.409 44.733 L735.409 55.733 Z"/>
  <path d="M745.519 54.733 L745.519 55.733 L738.425 55.733 Q738.409 55.343 738.581 54.968 Q738.847 54.358 739.448 53.772 Q740.050 53.186 741.175 52.124 Q742.925 50.468 743.542 49.538 Q744.159 48.608 744.159 47.796 Q744.159 46.921 743.597 46.327 Q743.034 45.733 742.144 45.733 Q741.190 45.733 740.612 46.265 Q740.034 46.796 740.034 47.733 L738.675 47.733 Q738.815 46.265 739.722 45.499 Q740.628 44.733 742.159 44.733 Q743.706 44.733 744.605 45.624 Q745.503 46.515 745.503 47.843 Q745.503 48.515 745.237 49.163 Q744.972 49.811 744.362 50.530 Q743.753 51.249 742.331 52.530 Q741.144 53.593 740.808 53.968 Q740.472 54.343 740.253 54.733 L745.519 54.733 Z"/>
  <path d="M747.487 55.733 L747.487 54.733 L748.987 54.733 L748.987 55.733 L747.487 55.733 Z"/>
  <path d="M750.831 50.233 Q750.831 48.327 751.222 47.163 Q751.612 45.999 752.386 45.366 Q753.159 44.733 754.331 44.733 Q755.190 44.733 755.847 45.085 Q756.503 45.436 756.925 46.093 Q757.347 46.749 757.589 47.694 Q757.831 48.640 757.831 50.233 Q757.831 52.140 757.440 53.304 Q757.050 54.468 756.276 55.101 Q755.503 55.733 754.331 55.733 Q752.784 55.733 751.894 54.624 Q750.831 53.265 750.831 50.233 Z M752.190 50.233 Q752.190 52.936 752.808 53.835 Q753.425 54.733 754.331 54.733 Q755.237 54.733 755.855 53.835 Q756.472 52.936 756.472 50.233 Q756.472 47.515 755.855 46.624 Q755.237 45.733 754.315 45.733 Q753.409 45.733 752.862 46.515 Q752.190 47.530 752.190 50.233 Z"/>
  <path d="M801.720 55.733 L800.392 55.733 L800.392 47.155 Q799.923 47.624 799.150 48.085 Q798.377 48.546 797.767 48.780 L797.767 47.483 Q798.877 46.952 799.697 46.194 Q800.517 45.436 800.861 44.733 L801.720 44.733 L801.720 55.733 Z"/>
  <path d="M804.908 52.733 L806.236 52.733 Q806.470 53.796 807.009 54.265 Q807.548 54.733 808.330 54.733 Q809.267 54.733 809.908 54.116 Q810.548 53.499 810.548 52.593 Q810.548 51.718 809.955 51.147 Q809.361 50.577 808.439 50.577 Q808.064 50.577 807.517 50.733 L807.658 49.733 Q807.798 49.749 807.877 49.749 Q808.720 49.749 809.392 49.241 Q810.064 48.733 810.064 47.671 Q810.064 46.843 809.572 46.288 Q809.080 45.733 808.298 45.733 Q807.533 45.733 807.017 46.233 Q806.502 46.733 806.361 47.733 L805.048 47.733 Q805.283 46.311 806.142 45.522 Q807.002 44.733 808.283 44.733 Q809.158 44.733 809.900 45.140 Q810.642 45.546 811.033 46.249 Q811.423 46.952 811.423 47.749 Q811.423 48.499 811.048 49.116 Q810.673 49.733 809.939 50.093 Q810.892 50.296 811.416 50.944 Q811.939 51.593 811.939 52.577 Q811.939 53.890 810.916 54.811 Q809.892 55.733 808.314 55.733 Q806.908 55.733 805.970 54.897 Q805.033 54.061 804.908 52.733 Z"/>
  <path d="M813.798 55.733 L813.798 54.733 L815.298 54.733 L815.298 55.733 L813.798 55.733 Z"/>
  <path d="M817.142 50.233 Q817.142 48.327 817.533 47.163 Q817.923 45.999 818.697 45.366 Q819.470 44.733 820.642 44.733 Q821.502 44.733 822.158 45.085 Q822.814 45.436 823.236 46.093 Q823.658 46.749 823.900 47.694 Q824.142 48.640 824.142 50.233 Q824.142 52.140 823.752 53.304 Q823.361 54.468 822.587 55.101 Q821.814 55.733 820.642 55.733 Q819.095 55.733 818.205 54.624 Q817.142 53.265 817.142 50.233 Z M818.502 50.233 Q818.502 52.936 819.119 53.835 Q819.736 54.733 820.642 54.733 Q821.548 54.733 822.166 53.835 Q822.783 52.936 822.783 50.233 Q822.783 47.515 822.166 46.624 Q821.548 45.733 820.627 45.733 Q819.720 45.733 819.173 46.515 Q818.502 47.530 818.502 50.233 Z"/>
  <path d="M868.031 55.733 L866.703 55.733 L866.703 47.155 Q866.235 47.624 865.461 48.085 Q864.688 48.546 864.078 48.780 L864.078 47.483 Q865.188 46.952 866.008 46.194 Q866.828 45.436 867.172 44.733 L868.031 44.733 L868.031 55.733 Z"/>
  <path d="M875.438 55.733 L875.438 52.733 L870.781 52.733 L870.781 51.733 L875.688 44.733 L876.766 44.733 L876.766 51.733 L878.219 51.733 L878.219 52.733 L876.766 52.733 L876.766 55.733 L875.438 55.733 Z M875.438 51.733 L875.438 46.936 L872.078 51.733 L875.438 51.733 Z"/>
  <path d="M880.110 55.733 L880.110 54.733 L881.610 54.733 L881.610 55.733 L880.110 55.733 Z"/>
  <path d="M883.453 50.233 Q883.453 48.327 883.844 47.163 Q884.235 45.999 885.008 45.366 Q885.781 44.733 886.953 44.733 Q887.813 44.733 888.469 45.085 Q889.125 45.436 889.547 46.093 Q889.969 46.749 890.211 47.694 Q890.453 48.640 890.453 50.233 Q890.453 52.140 890.063 53.304 Q889.672 54.468 888.899 55.101 Q888.125 55.733 886.953 55.733 Q885.406 55.733 884.516 54.624 Q883.453 53.265 883.453 50.233 Z M884.813 50.233 Q884.813 52.936 885.430 53.835 Q886.047 54.733 886.953 54.733 Q887.860 54.733 888.477 53.835 Q889.094 52.936 889.094 50.233 Q889.094 47.515 888.477 46.624 Q887.860 45.733 886.938 45.733 Q886.031 45.733 885.485 46.515 Q884.813 47.530 884.813 50.233 Z"/>
  <path d="M934.343 55.733 L933.014 55.733 L933.014 47.155 Q932.546 47.624 931.772 48.085 Q930.999 48.546 930.389 48.780 L930.389 47.483 Q931.499 46.952 932.319 46.194 Q933.139 45.436 933.483 44.733 L934.343 44.733 L934.343 55.733 Z"/>
  <path d="M937.530 52.733 L938.905 52.733 Q939.061 53.733 939.624 54.233 Q940.186 54.733 940.968 54.733 Q941.921 54.733 942.585 54.022 Q943.249 53.311 943.249 52.140 Q943.249 51.030 942.616 50.382 Q941.983 49.733 940.952 49.733 Q940.311 49.733 939.803 50.015 Q939.296 50.296 938.999 50.733 L937.764 50.733 L938.796 44.733 L944.139 44.733 L944.139 45.733 L939.858 45.733 L939.280 49.311 Q940.249 48.733 941.311 48.733 Q942.702 48.733 943.671 49.671 Q944.639 50.608 944.639 52.061 Q944.639 53.468 943.796 54.483 Q942.764 55.733 940.968 55.733 Q939.514 55.733 938.585 54.913 Q937.655 54.093 937.530 52.733 Z"/>
  <path d="M946.421 55.733 L946.421 54.733 L947.921 54.733 L947.921 55.733 L946.421 55.733 Z"/>
  <path d="M949.764 50.233 Q949.764 48.327 950.155 47.163 Q950.546 45.999 951.319 45.366 Q952.093 44.733 953.264 44.733 Q954.124 44.733 954.780 45.085 Q955.436 45.436 955.858 46.093 Q956.280 46.749 956.522 47.694 Q956.764 48.640 956.764 50.233 Q956.764 52.140 956.374 53.304 Q955.983 54.468 955.210 55.101 Q954.436 55.733 953.264 55.733 Q951.718 55.733 950.827 54.624 Q949.764 53.265 949.764 50.233 Z M951.124 50.233 Q951.124 52.936 951.741 53.835 Q952.358 54.733 953.264 54.733 Q954.171 54.733 954.788 53.835 Q955.405 52.936 955.405 50.233 Q955.405 47.515 954.788 46.624 Q954.171 45.733 953.249 45.733 Q952.343 45.733 951.796 46.515 Q951.124 47.530 951.124 50.233 Z"/>
  <path d="M1000.654 55.733 L999.326 55.733 L999.326 47.155 Q998.857 47.624 998.083 48.085 Q997.310 48.546 996.701 48.780 L996.701 47.483 Q997.810 46.952 998.630 46.194 Q999.451 45.436 999.794 44.733 L1000.654 44.733 L1000.654 55.733 Z"/>
  <path d="M1010.685 47.733 L1009.372 47.733 Q1009.201 46.811 1008.872 46.405 Q1008.341 45.733 1007.560 45.733 Q1006.919 45.733 1006.451 46.124 Q1005.826 46.624 1005.466 47.577 Q1005.107 48.530 1005.091 50.171 Q1005.560 49.436 1006.255 49.085 Q1006.951 48.733 1007.701 48.733 Q1009.013 48.733 1009.943 49.686 Q1010.872 50.640 1010.872 52.140 Q1010.872 53.124 1010.435 53.976 Q1009.997 54.827 1009.240 55.280 Q1008.482 55.733 1007.513 55.733 Q1005.857 55.733 1004.818 54.515 Q1003.779 53.296 1003.779 50.515 Q1003.779 47.390 1004.935 45.968 Q1005.935 44.733 1007.638 44.733 Q1008.904 44.733 1009.716 45.530 Q1010.529 46.327 1010.685 47.733 Z M1005.294 52.108 Q1005.294 52.796 1005.583 53.429 Q1005.872 54.061 1006.396 54.397 Q1006.919 54.733 1007.482 54.733 Q1008.326 54.733 1008.927 54.046 Q1009.529 53.358 1009.529 52.171 Q1009.529 51.046 1008.935 50.390 Q1008.341 49.733 1007.435 49.733 Q1006.544 49.733 1005.919 50.390 Q1005.294 51.046 1005.294 52.108 Z"/>
  <path d="M1012.732 55.733 L1012.732 54.733 L1014.232 54.733 L1014.232 55.733 L1012.732 55.733 Z"/>
  <path d="M1016.076 50.233 Q1016.076 48.327 1016.466 47.163 Q1016.857 45.999 1017.630 45.366 Q1018.404 44.733 1019.576 44.733 Q1020.435 44.733 1021.091 45.085 Q1021.747 45.436 1022.169 46.093 Q1022.591 46.749 1022.833 47.694 Q1023.076 48.640 1023.076 50.233 Q1023.076 52.140 1022.685 53.304 Q1022.294 54.468 1021.521 55.101 Q1020.747 55.733 1019.576 55.733 Q1018.029 55.733 1017.138 54.624 Q1016.076 53.265 1016.076 50.233 Z M1017.435 50.233 Q1017.435 52.936 1018.052 53.835 Q1018.669 54.733 1019.576 54.733 Q1020.482 54.733 1021.099 53.835 Q1021.716 52.936 1021.716 50.233 Q1021.716 47.515 1021.099 46.624 Q1020.482 45.733 1019.560 45.733 Q1018.654 45.733 1018.107 46.515 Q1017.435 47.530 1017.435 50.233 Z"/>
</svg>
