<?xml version="1.0" encoding="UTF-8" ?>
<!-- Generated by clip v0.8.0 (clip-lang.org) -->
<svg xmlns="http://www.w3.org/2000/svg" width="1024" height="60">
  <rect width="1024" height="60" fill="#ffffff" fill-opacity="1"/>
  <path d="M14.667 30 L1009.333 30" fill="none" stroke="#000000" stroke-width="1.333"/>
  <path d="M14.667 32.667 L14.667 27.333" fill="none" stroke="#000000" stroke-width="1.333"/>
  <path d="M97.556 32.667 L97.556 27.333" fill="none" stroke="#000000" stroke-width="1.333"/>
  <path d="M180.444 32.667 L180.444 27.333" fill="none" stroke="#000000" stroke-width="1.333"/>
  <path d="M263.333 32.667 L263.333 27.333" fill="none" stroke="#000000" stroke-width="1.333"/>
  <path d="M346.222 32.667 L346.222 27.333" fill="none" stroke="#000000" stroke-width="1.333"/>
  <path d="M429.111 32.667 L429.111 27.333" fill="none" stroke="#000000" stroke-width="1.333"/>
  <path d="M512 32.667 L512 27.333" fill="none" stroke="#000000" stroke-width="1.333"/>
  <path d="M594.889 32.667 L594.889 27.333" fill="none" stroke="#000000" stroke-width="1.333"/>
  <path d="M677.778 32.667 L677.778 27.333" fill="none" stroke="#000000" stroke-width="1.333"/>
  <path d="M760.667 32.667 L760.667 27.333" fill="none" stroke="#000000" stroke-width="1.333"/>
  <path d="M843.556 32.667 L843.556 27.333" fill="none" stroke="#000000" stroke-width="1.333"/>
  <path d="M926.444 32.667 L926.444 27.333" fill="none" stroke="#000000" stroke-width="1.333"/>
  <path d="M1009.333 32.667 L1009.333 27.333" fill="none" stroke="#000000" stroke-width="1.333"/>
  <path d="M10.065 55.733 L8.737 55.733 L8.737 47.155 Q8.268 47.624 7.495 48.085 Q6.721 48.546 6.112 48.780 L6.112 47.483 Q7.221 46.952 8.042 46.194 Q8.862 45.436 9.206 44.733 L10.065 44.733 L10.065 55.733 Z"/>
  <path d="M13.987 55.733 L13.987 54.733 L15.487 54.733 L15.487 55.733 L13.987 55.733 Z"/>
  <path d="M17.331 50.233 Q17.331 48.327 17.721 47.163 Q18.112 45.999 18.885 45.366 Q19.659 44.733 20.831 44.733 Q21.690 44.733 22.346 45.085 Q23.003 45.436 23.424 46.093 Q23.846 46.749 24.089 47.694 Q24.331 48.640 24.331 50.233 Q24.331 52.140 23.940 53.304 Q23.549 54.468 22.776 55.101 Q22.003 55.733 20.831 55.733 Q19.284 55.733 18.393 54.624 Q17.331 53.265 17.331 50.233 Z M18.690 50.233 Q18.690 52.936 19.307 53.835 Q19.924 54.733 20.831 54.733 Q21.737 54.733 22.354 53.835 Q22.971 52.936 22.971 50.233 Q22.971 47.515 22.354 46.624 Q21.737 45.733 20.815 45.733 Q19.909 45.733 19.362 46.515 Q18.690 47.530 18.690 50.233 Z"/>
  <path d="M94.907 54.733 L94.907 55.733 L87.813 55.733 Q87.798 55.343 87.970 54.968 Q88.235 54.358 88.837 53.772 Q89.438 53.186 90.563 52.124 Q92.313 50.468 92.931 49.538 Q93.548 48.608 93.548 47.796 Q93.548 46.921 92.985 46.327 Q92.423 45.733 91.532 45.733 Q90.579 45.733 90.001 46.265 Q89.423 46.796 89.423 47.733 L88.063 47.733 Q88.204 46.265 89.110 45.499 Q90.016 44.733 91.548 44.733 Q93.095 44.733 93.993 45.624 Q94.891 46.515 94.891 47.843 Q94.891 48.515 94.626 49.163 Q94.360 49.811 93.751 50.530 Q93.141 51.249 91.720 52.530 Q90.532 53.593 90.196 53.968 Q89.860 54.343 89.641 54.733 L94.907 54.733 Z"/>
  <path d="M96.876 55.733 L96.876 54.733 L98.376 54.733 L98.376 55.733 L96.876 55.733 Z"/>
  <path d="M100.220 50.233 Q100.220 48.327 100.610 47.163 Q101.001 45.999 101.774 45.366 Q102.548 44.733 103.720 44.733 Q104.579 44.733 105.235 45.085 Q105.891 45.436 106.313 46.093 Q106.735 46.749 106.977 47.694 Q107.220 48.640 107.220 50.233 Q107.220 52.140 106.829 53.304 Q106.438 54.468 105.665 55.101 Q104.891 55.733 103.720 55.733 Q102.173 55.733 101.282 54.624 Q100.220 53.265 100.220 50.233 Z M101.579 50.233 Q101.579 52.936 102.196 53.835 Q102.813 54.733 103.720 54.733 Q104.626 54.733 105.243 53.835 Q105.860 52.936 105.860 50.233 Q105.860 47.515 105.243 46.624 Q104.626 45.733 103.704 45.733 Q102.798 45.733 102.251 46.515 Q101.579 47.530 101.579 50.233 Z"/>
  <path d="M175.093 55.733 L175.093 52.733 L170.437 52.733 L170.437 51.733 L175.343 44.733 L176.421 44.733 L176.421 51.733 L177.874 51.733 L177.874 52.733 L176.421 52.733 L176.421 55.733 L175.093 55.733 Z M175.093 51.733 L175.093 46.936 L171.734 51.733 L175.093 51.733 Z"/>
  <path d="M179.765 55.733 L179.765 54.733 L181.265 54.733 L181.265 55.733 L179.765 55.733 Z"/>
  <path d="M183.109 50.233 Q183.109 48.327 183.499 47.163 Q183.890 45.999 184.663 45.366 Q185.437 44.733 186.609 44.733 Q187.468 44.733 188.124 45.085 Q188.780 45.436 189.202 46.093 Q189.624 46.749 189.866 47.694 Q190.109 48.640 190.109 50.233 Q190.109 52.140 189.718 53.304 Q189.327 54.468 188.554 55.101 Q187.780 55.733 186.609 55.733 Q185.062 55.733 184.171 54.624 Q183.109 53.265 183.109 50.233 Z M184.468 50.233 Q184.468 52.936 185.085 53.835 Q185.702 54.733 186.609 54.733 Q187.515 54.733 188.132 53.835 Q188.749 52.936 188.749 50.233 Q188.749 47.515 188.132 46.624 Q187.515 45.733 186.593 45.733 Q185.687 45.733 185.140 46.515 Q184.468 47.530 184.468 50.233 Z"/>
  <path d="M255.794 50.202 Q254.982 49.874 254.583 49.257 Q254.185 48.640 254.185 47.780 Q254.185 46.499 255.029 45.616 Q255.872 44.733 257.263 44.733 Q258.669 44.733 259.529 45.632 Q260.388 46.530 260.388 47.827 Q260.388 48.655 259.990 49.265 Q259.591 49.874 258.794 50.202 Q259.794 50.499 260.310 51.163 Q260.826 51.827 260.826 52.733 Q260.826 53.999 259.849 54.866 Q258.872 55.733 257.294 55.733 Q255.701 55.733 254.724 54.866 Q253.747 53.999 253.747 52.702 Q253.747 51.733 254.279 51.085 Q254.810 50.436 255.794 50.202 Z M255.529 47.686 Q255.529 48.593 256.021 49.163 Q256.513 49.733 257.294 49.733 Q258.060 49.733 258.544 49.163 Q259.029 48.593 259.029 47.765 Q259.029 46.905 258.529 46.319 Q258.029 45.733 257.279 45.733 Q256.529 45.733 256.029 46.304 Q255.529 46.874 255.529 47.686 Z M255.107 52.718 Q255.107 53.233 255.372 53.718 Q255.638 54.202 256.161 54.468 Q256.685 54.733 257.294 54.733 Q258.232 54.733 258.849 54.171 Q259.466 53.608 259.466 52.749 Q259.466 51.874 258.833 51.304 Q258.201 50.733 257.247 50.733 Q256.326 50.733 255.716 51.296 Q255.107 51.858 255.107 52.718 Z"/>
  <path d="M262.654 55.733 L262.654 54.733 L264.154 54.733 L264.154 55.733 L262.654 55.733 Z"/>
  <path d="M265.997 50.233 Q265.997 48.327 266.388 47.163 Q266.779 45.999 267.552 45.366 Q268.326 44.733 269.497 44.733 Q270.357 44.733 271.013 45.085 Q271.669 45.436 272.091 46.093 Q272.513 46.749 272.755 47.694 Q272.997 48.640 272.997 50.233 Q272.997 52.140 272.607 53.304 Q272.216 54.468 271.443 55.101 Q270.669 55.733 269.497 55.733 Q267.951 55.733 267.060 54.624 Q265.997 53.265 265.997 50.233 Z M267.357 50.233 Q267.357 52.936 267.974 53.835 Q268.591 54.733 269.497 54.733 Q270.404 54.733 271.021 53.835 Q271.638 52.936 271.638 50.233 Q271.638 47.515 271.021 46.624 Q270.404 45.733 269.482 45.733 Q268.576 45.733 268.029 46.515 Q267.357 47.530 267.357 50.233 Z"/>
  <path d="M337.543 55.733 L336.214 55.733 L336.214 47.155 Q335.746 47.624 334.972 48.085 Q334.199 48.546 333.589 48.780 L333.589 47.483 Q334.699 46.952 335.519 46.194 Q336.339 45.436 336.683 44.733 L337.543 44.733 L337.543 55.733 Z"/>
  <path d="M347.574 47.733 L346.261 47.733 Q346.089 46.811 345.761 46.405 Q345.230 45.733 344.449 45.733 Q343.808 45.733 343.339 46.124 Q342.714 46.624 342.355 47.577 Q341.996 48.530 341.980 50.171 Q342.449 49.436 343.144 49.085 Q343.839 48.733 344.589 48.733 Q345.902 48.733 346.832 49.686 Q347.761 50.640 347.761 52.140 Q347.761 53.124 347.324 53.976 Q346.886 54.827 346.128 55.280 Q345.371 55.733 344.402 55.733 Q342.746 55.733 341.707 54.515 Q340.668 53.296 340.668 50.515 Q340.668 47.390 341.824 45.968 Q342.824 44.733 344.527 44.733 Q345.793 44.733 346.605 45.530 Q347.418 46.327 347.574 47.733 Z M342.183 52.108 Q342.183 52.796 342.472 53.429 Q342.761 54.061 343.285 54.397 Q343.808 54.733 344.371 54.733 Q345.214 54.733 345.816 54.046 Q346.418 53.358 346.418 52.171 Q346.418 51.046 345.824 50.390 Q345.230 49.733 344.324 49.733 Q343.433 49.733 342.808 50.390 Q342.183 51.046 342.183 52.108 Z"/>
  <path d="M349.621 55.733 L349.621 54.733 L351.121 54.733 L351.121 55.733 L349.621 55.733 Z"/>
  <path d="M352.964 50.233 Q352.964 48.327 353.355 47.163 Q353.746 45.999 354.519 45.366 Q355.293 44.733 356.464 44.733 Q357.324 44.733 357.980 45.085 Q358.636 45.436 359.058 46.093 Q359.480 46.749 359.722 47.694 Q359.964 48.640 359.964 50.233 Q359.964 52.140 359.574 53.304 Q359.183 54.468 358.410 55.101 Q357.636 55.733 356.464 55.733 Q354.918 55.733 354.027 54.624 Q352.964 53.265 352.964 50.233 Z M354.324 50.233 Q354.324 52.936 354.941 53.835 Q355.558 54.733 356.464 54.733 Q357.371 54.733 357.988 53.835 Q358.605 52.936 358.605 50.233 Q358.605 47.515 357.988 46.624 Q357.371 45.733 356.449 45.733 Q355.543 45.733 354.996 46.515 Q354.324 47.530 354.324 50.233 Z"/>
  <path d="M415.463 52.733 L416.791 52.733 Q417.025 53.796 417.564 54.265 Q418.103 54.733 418.885 54.733 Q419.822 54.733 420.463 54.116 Q421.103 53.499 421.103 52.593 Q421.103 51.718 420.510 51.147 Q419.916 50.577 418.994 50.577 Q418.619 50.577 418.072 50.733 L418.213 49.733 Q418.353 49.749 418.431 49.749 Q419.275 49.749 419.947 49.241 Q420.619 48.733 420.619 47.671 Q420.619 46.843 420.127 46.288 Q419.635 45.733 418.853 45.733 Q418.088 45.733 417.572 46.233 Q417.056 46.733 416.916 47.733 L415.603 47.733 Q415.838 46.311 416.697 45.522 Q417.556 44.733 418.838 44.733 Q419.713 44.733 420.455 45.140 Q421.197 45.546 421.588 46.249 Q421.978 46.952 421.978 47.749 Q421.978 48.499 421.603 49.116 Q421.228 49.733 420.494 50.093 Q421.447 50.296 421.970 50.944 Q422.494 51.593 422.494 52.577 Q422.494 53.890 421.470 54.811 Q420.447 55.733 418.869 55.733 Q417.463 55.733 416.525 54.897 Q415.588 54.061 415.463 52.733 Z"/>
  <path d="M430.541 54.733 L430.541 55.733 L423.447 55.733 Q423.431 55.343 423.603 54.968 Q423.869 54.358 424.470 53.772 Q425.072 53.186 426.197 52.124 Q427.947 50.468 428.564 49.538 Q429.181 48.608 429.181 47.796 Q429.181 46.921 428.619 46.327 Q428.056 45.733 427.166 45.733 Q426.213 45.733 425.635 46.265 Q425.056 46.796 425.056 47.733 L423.697 47.733 Q423.838 46.265 424.744 45.499 Q425.650 44.733 427.181 44.733 Q428.728 44.733 429.627 45.624 Q430.525 46.515 430.525 47.843 Q430.525 48.515 430.260 49.163 Q429.994 49.811 429.385 50.530 Q428.775 51.249 427.353 52.530 Q426.166 53.593 425.830 53.968 Q425.494 54.343 425.275 54.733 L430.541 54.733 Z"/>
  <path d="M432.510 55.733 L432.510 54.733 L434.010 54.733 L434.010 55.733 L432.510 55.733 Z"/>
  <path d="M435.853 50.233 Q435.853 48.327 436.244 47.163 Q436.635 45.999 437.408 45.366 Q438.181 44.733 439.353 44.733 Q440.213 44.733 440.869 45.085 Q441.525 45.436 441.947 46.093 Q442.369 46.749 442.611 47.694 Q442.853 48.640 442.853 50.233 Q442.853 52.140 442.463 53.304 Q442.072 54.468 441.299 55.101 Q440.525 55.733 439.353 55.733 Q437.806 55.733 436.916 54.624 Q435.853 53.265 435.853 50.233 Z M437.213 50.233 Q437.213 52.936 437.830 53.835 Q438.447 54.733 439.353 54.733 Q440.260 54.733 440.877 53.835 Q441.494 52.936 441.494 50.233 Q441.494 47.515 440.877 46.624 Q440.260 45.733 439.338 45.733 Q438.431 45.733 437.885 46.515 Q437.213 47.530 437.213 50.233 Z"/>
  <path d="M505.195 47.733 L503.883 47.733 Q503.711 46.811 503.383 46.405 Q502.852 45.733 502.070 45.733 Q501.430 45.733 500.961 46.124 Q500.336 46.624 499.977 47.577 Q499.617 48.530 499.602 50.171 Q500.070 49.436 500.766 49.085 Q501.461 48.733 502.211 48.733 Q503.523 48.733 504.453 49.686 Q505.383 50.640 505.383 52.140 Q505.383 53.124 504.945 53.976 Q504.508 54.827 503.750 55.280 Q502.992 55.733 502.023 55.733 Q500.367 55.733 499.328 54.515 Q498.289 53.296 498.289 50.515 Q498.289 47.390 499.445 45.968 Q500.445 44.733 502.148 44.733 Q503.414 44.733 504.227 45.530 Q505.039 46.327 505.195 47.733 Z M499.805 52.108 Q499.805 52.796 500.094 53.429 Q500.383 54.061 500.906 54.397 Q501.430 54.733 501.992 54.733 Q502.836 54.733 503.438 54.046 Q504.039 53.358 504.039 52.171 Q504.039 51.046 503.445 50.390 Q502.852 49.733 501.945 49.733 Q501.055 49.733 500.430 50.390 Q499.805 51.046 499.805 52.108 Z"/>
  <path d="M510.727 55.733 L510.727 52.733 L506.070 52.733 L506.070 51.733 L510.977 44.733 L512.055 44.733 L512.055 51.733 L513.508 51.733 L513.508 52.733 L512.055 52.733 L512.055 55.733 L510.727 55.733 Z M510.727 51.733 L510.727 46.936 L507.367 51.733 L510.727 51.733 Z"/>
  <path d="M515.398 55.733 L515.398 54.733 L516.898 54.733 L516.898 55.733 L515.398 55.733 Z"/>
  <path d="M518.742 50.233 Q518.742 48.327 519.133 47.163 Q519.523 45.999 520.297 45.366 Q521.070 44.733 522.242 44.733 Q523.102 44.733 523.758 45.085 Q524.414 45.436 524.836 46.093 Q525.258 46.749 525.500 47.694 Q525.742 48.640 525.742 50.233 Q525.742 52.140 525.352 53.304 Q524.961 54.468 524.188 55.101 Q523.414 55.733 522.242 55.733 Q520.695 55.733 519.805 54.624 Q518.742 53.265 518.742 50.233 Z M520.102 50.233 Q520.102 52.936 520.719 53.835 Q521.336 54.733 522.242 54.733 Q523.148 54.733 523.766 53.835 Q524.383 52.936 524.383 50.233 Q524.383 47.515 523.766 46.624 Q523.148 45.733 522.227 45.733 Q521.320 45.733 520.773 46.515 Q520.102 47.530 520.102 50.233 Z"/>
  <path d="M582.131 55.733 L580.803 55.733 L580.803 47.155 Q580.334 47.624 579.561 48.085 Q578.787 48.546 578.178 48.780 L578.178 47.483 Q579.287 46.952 580.108 46.194 Q580.928 45.436 581.272 44.733 L582.131 44.733 L582.131 55.733 Z"/>
  <path d="M592.240 54.733 L592.240 55.733 L585.147 55.733 Q585.131 55.343 585.303 54.968 Q585.569 54.358 586.170 53.772 Q586.772 53.186 587.897 52.124 Q589.647 50.468 590.264 49.538 Q590.881 48.608 590.881 47.796 Q590.881 46.921 590.319 46.327 Q589.756 45.733 588.865 45.733 Q587.912 45.733 587.334 46.265 Q586.756 46.796 586.756 47.733 L585.397 47.733 Q585.537 46.265 586.444 45.499 Q587.350 44.733 588.881 44.733 Q590.428 44.733 591.326 45.624 Q592.225 46.515 592.225 47.843 Q592.225 48.515 591.959 49.163 Q591.694 49.811 591.084 50.530 Q590.475 51.249 589.053 52.530 Q587.865 53.593 587.530 53.968 Q587.194 54.343 586.975 54.733 L592.240 54.733 Z"/>
  <path d="M595.506 50.202 Q594.694 49.874 594.295 49.257 Q593.897 48.640 593.897 47.780 Q593.897 46.499 594.740 45.616 Q595.584 44.733 596.975 44.733 Q598.381 44.733 599.240 45.632 Q600.100 46.530 600.100 47.827 Q600.100 48.655 599.701 49.265 Q599.303 49.874 598.506 50.202 Q599.506 50.499 600.022 51.163 Q600.537 51.827 600.537 52.733 Q600.537 53.999 599.561 54.866 Q598.584 55.733 597.006 55.733 Q595.412 55.733 594.436 54.866 Q593.459 53.999 593.459 52.702 Q593.459 51.733 593.990 51.085 Q594.522 50.436 595.506 50.202 Z M595.240 47.686 Q595.240 48.593 595.733 49.163 Q596.225 49.733 597.006 49.733 Q597.772 49.733 598.256 49.163 Q598.740 48.593 598.740 47.765 Q598.740 46.905 598.240 46.319 Q597.740 45.733 596.990 45.733 Q596.240 45.733 595.740 46.304 Q595.240 46.874 595.240 47.686 Z M594.819 52.718 Q594.819 53.233 595.084 53.718 Q595.350 54.202 595.873 54.468 Q596.397 54.733 597.006 54.733 Q597.944 54.733 598.561 54.171 Q599.178 53.608 599.178 52.749 Q599.178 51.874 598.545 51.304 Q597.912 50.733 596.959 50.733 Q596.037 50.733 595.428 51.296 Q594.819 51.858 594.819 52.718 Z"/>
  <path d="M602.365 55.733 L602.365 54.733 L603.865 54.733 L603.865 55.733 L602.365 55.733 Z"/>
  <path d="M605.709 50.233 Q605.709 48.327 606.100 47.163 Q606.490 45.999 607.264 45.366 Q608.037 44.733 609.209 44.733 Q610.069 44.733 610.725 45.085 Q611.381 45.436 611.803 46.093 Q612.225 46.749 612.467 47.694 Q612.709 48.640 612.709 50.233 Q612.709 52.140 612.319 53.304 Q611.928 54.468 611.155 55.101 Q610.381 55.733 609.209 55.733 Q607.662 55.733 606.772 54.624 Q605.709 53.265 605.709 50.233 Z M607.069 50.233 Q607.069 52.936 607.686 53.835 Q608.303 54.733 609.209 54.733 Q610.115 54.733 610.733 53.835 Q611.350 52.936 611.350 50.233 Q611.350 47.515 610.733 46.624 Q610.115 45.733 609.194 45.733 Q608.287 45.733 607.740 46.515 Q607.069 47.530 607.069 50.233 Z"/>
  <path d="M666.973 54.733 L666.973 55.733 L659.879 55.733 Q659.864 55.343 660.036 54.968 Q660.301 54.358 660.903 53.772 Q661.504 53.186 662.629 52.124 Q664.379 50.468 664.997 49.538 Q665.614 48.608 665.614 47.796 Q665.614 46.921 665.051 46.327 Q664.489 45.733 663.598 45.733 Q662.645 45.733 662.067 46.265 Q661.489 46.796 661.489 47.733 L660.129 47.733 Q660.270 46.265 661.176 45.499 Q662.082 44.733 663.614 44.733 Q665.161 44.733 666.059 45.624 Q666.957 46.515 666.957 47.843 Q666.957 48.515 666.692 49.163 Q666.426 49.811 665.817 50.530 Q665.207 51.249 663.786 52.530 Q662.598 53.593 662.262 53.968 Q661.926 54.343 661.707 54.733 L666.973 54.733 Z"/>
  <path d="M668.207 52.733 L669.582 52.733 Q669.739 53.733 670.301 54.233 Q670.864 54.733 671.645 54.733 Q672.598 54.733 673.262 54.022 Q673.926 53.311 673.926 52.140 Q673.926 51.030 673.293 50.382 Q672.661 49.733 671.629 49.733 Q670.989 49.733 670.481 50.015 Q669.973 50.296 669.676 50.733 L668.442 50.733 L669.473 44.733 L674.817 44.733 L674.817 45.733 L670.536 45.733 L669.957 49.311 Q670.926 48.733 671.989 48.733 Q673.379 48.733 674.348 49.671 Q675.317 50.608 675.317 52.061 Q675.317 53.468 674.473 54.483 Q673.442 55.733 671.645 55.733 Q670.192 55.733 669.262 54.913 Q668.332 54.093 668.207 52.733 Z"/>
  <path d="M683.207 47.733 L681.895 47.733 Q681.723 46.811 681.395 46.405 Q680.864 45.733 680.082 45.733 Q679.442 45.733 678.973 46.124 Q678.348 46.624 677.989 47.577 Q677.629 48.530 677.614 50.171 Q678.082 49.436 678.778 49.085 Q679.473 48.733 680.223 48.733 Q681.536 48.733 682.465 49.686 Q683.395 50.640 683.395 52.140 Q683.395 53.124 682.957 53.976 Q682.520 54.827 681.762 55.280 Q681.004 55.733 680.036 55.733 Q678.379 55.733 677.340 54.515 Q676.301 53.296 676.301 50.515 Q676.301 47.390 677.457 45.968 Q678.457 44.733 680.161 44.733 Q681.426 44.733 682.239 45.530 Q683.051 46.327 683.207 47.733 Z M677.817 52.108 Q677.817 52.796 678.106 53.429 Q678.395 54.061 678.918 54.397 Q679.442 54.733 680.004 54.733 Q680.848 54.733 681.450 54.046 Q682.051 53.358 682.051 52.171 Q682.051 51.046 681.457 50.390 Q680.864 49.733 679.957 49.733 Q679.067 49.733 678.442 50.390 Q677.817 51.046 677.817 52.108 Z"/>
  <path d="M685.254 55.733 L685.254 54.733 L686.754 54.733 L686.754 55.733 L685.254 55.733 Z"/>
  <path d="M688.598 50.233 Q688.598 48.327 688.989 47.163 Q689.379 45.999 690.153 45.366 Q690.926 44.733 692.098 44.733 Q692.957 44.733 693.614 45.085 Q694.270 45.436 694.692 46.093 Q695.114 46.749 695.356 47.694 Q695.598 48.640 695.598 50.233 Q695.598 52.140 695.207 53.304 Q694.817 54.468 694.043 55.101 Q693.270 55.733 692.098 55.733 Q690.551 55.733 689.661 54.624 Q688.598 53.265 688.598 50.233 Z M689.957 50.233 Q689.957 52.936 690.575 53.835 Q691.192 54.733 692.098 54.733 Q693.004 54.733 693.622 53.835 Q694.239 52.936 694.239 50.233 Q694.239 47.515 693.622 46.624 Q693.004 45.733 692.082 45.733 Q691.176 45.733 690.629 46.515 Q689.957 47.530 689.957 50.233 Z"/>
  <path d="M742.940 52.733 L744.315 52.733 Q744.471 53.733 745.034 54.233 Q745.596 54.733 746.378 54.733 Q747.331 54.733 747.995 54.022 Q748.659 53.311 748.659 52.140 Q748.659 51.030 748.026 50.382 Q747.393 49.733 746.362 49.733 Q745.721 49.733 745.214 50.015 Q744.706 50.296 744.409 50.733 L743.174 50.733 L744.206 44.733 L749.549 44.733 L749.549 45.733 L745.268 45.733 L744.690 49.311 Q745.659 48.733 746.721 48.733 Q748.112 48.733 749.081 49.671 Q750.049 50.608 750.049 52.061 Q750.049 53.468 749.206 54.483 Q748.174 55.733 746.378 55.733 Q744.924 55.733 743.995 54.913 Q743.065 54.093 742.940 52.733 Z"/>
  <path d="M756.065 55.733 L754.737 55.733 L754.737 47.155 Q754.268 47.624 753.495 48.085 Q752.721 48.546 752.112 48.780 L752.112 47.483 Q753.221 46.952 754.042 46.194 Q754.862 45.436 755.206 44.733 L756.065 44.733 L756.065 55.733 Z"/>
  <path d="M766.174 54.733 L766.174 55.733 L759.081 55.733 Q759.065 55.343 759.237 54.968 Q759.503 54.358 760.104 53.772 Q760.706 53.186 761.831 52.124 Q763.581 50.468 764.198 49.538 Q764.815 48.608 764.815 47.796 Q764.815 46.921 764.253 46.327 Q763.690 45.733 762.799 45.733 Q761.846 45.733 761.268 46.265 Q760.690 46.796 760.690 47.733 L759.331 47.733 Q759.471 46.265 760.378 45.499 Q761.284 44.733 762.815 44.733 Q764.362 44.733 765.260 45.624 Q766.159 46.515 766.159 47.843 Q766.159 48.515 765.893 49.163 Q765.628 49.811 765.018 50.530 Q764.409 51.249 762.987 52.530 Q761.799 53.593 761.464 53.968 Q761.128 54.343 760.909 54.733 L766.174 54.733 Z"/>
  <path d="M768.143 55.733 L768.143 54.733 L769.643 54.733 L769.643 55.733 L768.143 55.733 Z"/>
  <path d="M771.487 50.233 Q771.487 48.327 771.878 47.163 Q772.268 45.999 773.042 45.366 Q773.815 44.733 774.987 44.733 Q775.846 44.733 776.503 45.085 Q777.159 45.436 777.581 46.093 Q778.003 46.749 778.245 47.694 Q778.487 48.640 778.487 50.233 Q778.487 52.140 778.096 53.304 Q777.706 54.468 776.932 55.101 Q776.159 55.733 774.987 55.733 Q773.440 55.733 772.549 54.624 Q771.487 53.265 771.487 50.233 Z M772.846 50.233 Q772.846 52.936 773.464 53.835 Q774.081 54.733 774.987 54.733 Q775.893 54.733 776.510 53.835 Q777.128 52.936 777.128 50.233 Q777.128 47.515 776.510 46.624 Q775.893 45.733 774.971 45.733 Q774.065 45.733 773.518 46.515 Q772.846 47.530 772.846 50.233 Z"/>
  <path d="M826.720 55.733 L825.391 55.733 L825.391 47.155 Q824.923 47.624 824.149 48.085 Q823.376 48.546 822.766 48.780 L822.766 47.483 Q823.876 46.952 824.696 46.194 Q825.516 45.436 825.860 44.733 L826.720 44.733 L826.720 55.733 Z"/>
  <path d="M829.907 50.233 Q829.907 48.327 830.298 47.163 Q830.688 45.999 831.462 45.366 Q832.235 44.733 833.407 44.733 Q834.266 44.733 834.923 45.085 Q835.579 45.436 836.001 46.093 Q836.423 46.749 836.665 47.694 Q836.907 48.640 836.907 50.233 Q836.907 52.140 836.516 53.304 Q836.126 54.468 835.352 55.101 Q834.579 55.733 833.407 55.733 Q831.860 55.733 830.970 54.624 Q829.907 53.265 829.907 50.233 Z M831.266 50.233 Q831.266 52.936 831.884 53.835 Q832.501 54.733 833.407 54.733 Q834.313 54.733 834.931 53.835 Q835.548 52.936 835.548 50.233 Q835.548 47.515 834.931 46.624 Q834.313 45.733 833.391 45.733 Q832.485 45.733 831.938 46.515 Q831.266 47.530 831.266 50.233 Z"/>
  <path d="M844.985 54.733 L844.985 55.733 L837.891 55.733 Q837.876 55.343 838.048 54.968 Q838.313 54.358 838.915 53.772 Q839.516 53.186 840.641 52.124 Q842.391 50.468 843.009 49.538 Q843.626 48.608 843.626 47.796 Q843.626 46.921 843.063 46.327 Q842.501 45.733 841.610 45.733 Q840.657 45.733 840.079 46.265 Q839.501 46.796 839.501 47.733 L838.141 47.733 Q838.282 46.265 839.188 45.499 Q840.095 44.733 841.626 44.733 Q843.173 44.733 844.071 45.624 Q844.970 46.515 844.970 47.843 Q844.970 48.515 844.704 49.163 Q844.438 49.811 843.829 50.530 Q843.220 51.249 841.798 52.530 Q840.610 53.593 840.274 53.968 Q839.938 54.343 839.720 54.733 L844.985 54.733 Z"/>
  <path d="M850.438 55.733 L850.438 52.733 L845.782 52.733 L845.782 51.733 L850.688 44.733 L851.766 44.733 L851.766 51.733 L853.220 51.733 L853.220 52.733 L851.766 52.733 L851.766 55.733 L850.438 55.733 Z M850.438 51.733 L850.438 46.936 L847.079 51.733 L850.438 51.733 Z"/>
  <path d="M855.110 55.733 L855.110 54.733 L856.610 54.733 L856.610 55.733 L855.110 55.733 Z"/>
  <path d="M858.454 50.233 Q858.454 48.327 858.845 47.163 Q859.235 45.999 860.009 45.366 Q860.782 44.733 861.954 44.733 Q862.813 44.733 863.470 45.085 Q864.126 45.436 864.548 46.093 Q864.970 46.749 865.212 47.694 Q865.454 48.640 865.454 50.233 Q865.454 52.140 865.063 53.304 Q864.673 54.468 863.899 55.101 Q863.126 55.733 861.954 55.733 Q860.407 55.733 859.516 54.624 Q858.454 53.265 858.454 50.233 Z M859.813 50.233 Q859.813 52.936 860.431 53.835 Q861.048 54.733 861.954 54.733 Q862.860 54.733 863.477 53.835 Q864.095 52.936 864.095 50.233 Q864.095 47.515 863.477 46.624 Q862.860 45.733 861.938 45.733 Q861.032 45.733 860.485 46.515 Q859.813 47.530 859.813 50.233 Z"/>
  <path d="M911.562 54.733 L911.562 55.733 L904.468 55.733 Q904.452 55.343 904.624 54.968 Q904.890 54.358 905.491 53.772 Q906.093 53.186 907.218 52.124 Q908.968 50.468 909.585 49.538 Q910.202 48.608 910.202 47.796 Q910.202 46.921 909.640 46.327 Q909.077 45.733 908.187 45.733 Q907.234 45.733 906.655 46.265 Q906.077 46.796 906.077 47.733 L904.718 47.733 Q904.859 46.265 905.765 45.499 Q906.671 44.733 908.202 44.733 Q909.749 44.733 910.648 45.624 Q911.546 46.515 911.546 47.843 Q911.546 48.515 911.280 49.163 Q911.015 49.811 910.405 50.530 Q909.796 51.249 908.374 52.530 Q907.187 53.593 906.851 53.968 Q906.515 54.343 906.296 54.733 L911.562 54.733 Z"/>
  <path d="M912.796 50.233 Q912.796 48.327 913.187 47.163 Q913.577 45.999 914.351 45.366 Q915.124 44.733 916.296 44.733 Q917.155 44.733 917.812 45.085 Q918.468 45.436 918.890 46.093 Q919.312 46.749 919.554 47.694 Q919.796 48.640 919.796 50.233 Q919.796 52.140 919.405 53.304 Q919.015 54.468 918.241 55.101 Q917.468 55.733 916.296 55.733 Q914.749 55.733 913.859 54.624 Q912.796 53.265 912.796 50.233 Z M914.155 50.233 Q914.155 52.936 914.773 53.835 Q915.390 54.733 916.296 54.733 Q917.202 54.733 917.819 53.835 Q918.437 52.936 918.437 50.233 Q918.437 47.515 917.819 46.624 Q917.202 45.733 916.280 45.733 Q915.374 45.733 914.827 46.515 Q914.155 47.530 914.155 50.233 Z"/>
  <path d="M925.171 55.733 L925.171 52.733 L920.515 52.733 L920.515 51.733 L925.421 44.733 L926.499 44.733 L926.499 51.733 L927.952 51.733 L927.952 52.733 L926.499 52.733 L926.499 55.733 L925.171 55.733 Z M925.171 51.733 L925.171 46.936 L921.812 51.733 L925.171 51.733 Z"/>
  <path d="M931.140 50.202 Q930.327 49.874 929.929 49.257 Q929.530 48.640 929.530 47.780 Q929.530 46.499 930.374 45.616 Q931.218 44.733 932.609 44.733 Q934.015 44.733 934.874 45.632 Q935.734 46.530 935.734 47.827 Q935.734 48.655 935.335 49.265 Q934.937 49.874 934.140 50.202 Q935.140 50.499 935.655 51.163 Q936.171 51.827 936.171 52.733 Q936.171 53.999 935.194 54.866 Q934.218 55.733 932.640 55.733 Q931.046 55.733 930.069 54.866 Q929.093 53.999 929.093 52.702 Q929.093 51.733 929.624 51.085 Q930.155 50.436 931.140 50.202 Z M930.874 47.686 Q930.874 48.593 931.366 49.163 Q931.859 49.733 932.640 49.733 Q933.405 49.733 933.890 49.163 Q934.374 48.593 934.374 47.765 Q934.374 46.905 933.874 46.319 Q933.374 45.733 932.624 45.733 Q931.874 45.733 931.374 46.304 Q930.874 46.874 930.874 47.686 Z M930.452 52.718 Q930.452 53.233 930.718 53.718 Q930.984 54.202 931.507 54.468 Q932.030 54.733 932.640 54.733 Q933.577 54.733 934.194 54.171 Q934.812 53.608 934.812 52.749 Q934.812 51.874 934.179 51.304 Q933.546 50.733 932.593 50.733 Q931.671 50.733 931.062 51.296 Q930.452 51.858 930.452 52.718 Z"/>
  <path d="M937.999 55.733 L937.999 54.733 L939.499 54.733 L939.499 55.733 L937.999 55.733 Z"/>
  <path d="M941.343 50.233 Q941.343 48.327 941.734 47.163 Q942.124 45.999 942.898 45.366 Q943.671 44.733 944.843 44.733 Q945.702 44.733 946.359 45.085 Q947.015 45.436 947.437 46.093 Q947.859 46.749 948.101 47.694 Q948.343 48.640 948.343 50.233 Q948.343 52.140 947.952 53.304 Q947.562 54.468 946.788 55.101 Q946.015 55.733 944.843 55.733 Q943.296 55.733 942.405 54.624 Q941.343 53.265 941.343 50.233 Z M942.702 50.233 Q942.702 52.936 943.319 53.835 Q943.937 54.733 944.843 54.733 Q945.749 54.733 946.366 53.835 Q946.984 52.936 946.984 50.233 Q946.984 47.515 946.366 46.624 Q945.749 45.733 944.827 45.733 Q943.921 45.733 943.374 46.515 Q942.702 47.530 942.702 50.233 Z"/>
  <path d="M991.747 55.733 L991.747 52.733 L987.091 52.733 L987.091 51.733 L991.997 44.733 L993.076 44.733 L993.076 51.733 L994.529 51.733 L994.529 52.733 L993.076 52.733 L993.076 55.733 L991.747 55.733 Z M991.747 51.733 L991.747 46.936 L988.388 51.733 L991.747 51.733 Z"/>
  <path d="M995.685 50.233 Q995.685 48.327 996.076 47.163 Q996.466 45.999 997.240 45.366 Q998.013 44.733 999.185 44.733 Q1000.044 44.733 1000.701 45.085 Q1001.357 45.436 1001.779 46.093 Q1002.201 46.749 1002.443 47.694 Q1002.685 48.640 1002.685 50.233 Q1002.685 52.140 1002.294 53.304 Q1001.904 54.468 1001.130 55.101 Q1000.357 55.733 999.185 55.733 Q997.638 55.733 996.747 54.624 Q995.685 53.265 995.685 50.233 Z M997.044 50.233 Q997.044 52.936 997.661 53.835 Q998.279 54.733 999.185 54.733 Q1000.091 54.733 1000.708 53.835 Q1001.326 52.936 1001.326 50.233 Q1001.326 47.515 1000.708 46.624 Q1000.091 45.733 999.169 45.733 Q998.263 45.733 997.716 46.515 Q997.044 47.530 997.044 50.233 Z"/>
  <path d="M1004.044 52.733 L1005.310 52.733 Q1005.466 53.780 1005.919 54.257 Q1006.372 54.733 1007.091 54.733 Q1007.685 54.733 1008.146 54.429 Q1008.607 54.124 1008.896 53.616 Q1009.185 53.108 1009.388 52.257 Q1009.591 51.405 1009.591 50.577 Q1009.591 50.499 1009.576 50.327 Q1009.185 50.952 1008.497 51.343 Q1007.810 51.733 1007.013 51.733 Q1005.685 51.733 1004.763 50.788 Q1003.841 49.843 1003.841 48.280 Q1003.841 46.686 1004.802 45.710 Q1005.763 44.733 1007.216 44.733 Q1008.263 44.733 1009.130 45.296 Q1009.997 45.858 1010.451 46.905 Q1010.904 47.952 1010.904 49.936 Q1010.904 52.015 1010.458 53.233 Q1010.013 54.452 1009.130 55.093 Q1008.247 55.733 1007.060 55.733 Q1005.794 55.733 1004.997 54.944 Q1004.201 54.155 1004.044 52.733 Z M1009.435 48.265 Q1009.435 47.093 1008.833 46.413 Q1008.232 45.733 1007.372 45.733 Q1006.497 45.733 1005.849 46.468 Q1005.201 47.202 1005.201 48.374 Q1005.201 49.421 1005.818 50.077 Q1006.435 50.733 1007.341 50.733 Q1008.263 50.733 1008.849 50.077 Q1009.435 49.421 1009.435 48.265 Z"/>
  <path d="M1018.841 47.733 L1017.529 47.733 Q1017.357 46.811 1017.029 46.405 Q1016.497 45.733 1015.716 45.733 Q1015.076 45.733 1014.607 46.124 Q1013.982 46.624 1013.622 47.577 Q1013.263 48.530 1013.247 50.171 Q1013.716 49.436 1014.411 49.085 Q1015.107 48.733 1015.857 48.733 Q1017.169 48.733 1018.099 49.686 Q1019.029 50.640 1019.029 52.140 Q1019.029 53.124 1018.591 53.976 Q1018.154 54.827 1017.396 55.280 Q1016.638 55.733 1015.669 55.733 Q1014.013 55.733 1012.974 54.515 Q1011.935 53.296 1011.935 50.515 Q1011.935 47.390 1013.091 45.968 Q1014.091 44.733 1015.794 44.733 Q1017.060 44.733 1017.872 45.530 Q1018.685 46.327 1018.841 47.733 Z M1013.451 52.108 Q1013.451 52.796 1013.740 53.429 Q1014.029 54.061 1014.552 54.397 Q1015.076 54.733 1015.638 54.733 Q1016.482 54.733 1017.083 54.046 Q1017.685 53.358 1017.685 52.171 Q1017.685 51.046 1017.091 50.390 Q1016.497 49.733 1015.591 49.733 Q1014.701 49.733 1014.076 50.390 Q1013.451 51.046 1013.451 52.108 Z"/>
  <path d="M1020.888 55.733 L1020.888 54.733 L1022.388 54.733 L1022.388 55.733 L1020.888 55.733 Z"/>
  <path d="M1024.232 50.233 Q1024.232 48.327 1024.622 47.163 Q1025.013 45.999 1025.786 45.366 Q1026.560 44.733 1027.732 44.733 Q1028.591 44.733 1029.247 45.085 Q1029.904 45.436 1030.326 46.093 Q1030.747 46.749 1030.990 47.694 Q1031.232 48.640 1031.232 50.233 Q1031.232 52.140 1030.841 53.304 Q1030.451 54.468 1029.677 55.101 Q1028.904 55.733 1027.732 55.733 Q1026.185 55.733 1025.294 54.624 Q1024.232 53.265 1024.232 50.233 Z M1025.591 50.233 Q1025.591 52.936 1026.208 53.835 Q1026.826 54.733 1027.732 54.733 Q1028.638 54.733 1029.255 53.835 Q1029.872 52.936 1029.872 50.233 Q1029.872 47.515 1029.255 46.624 Q1028.638 45.733 1027.716 45.733 Q1026.810 45.733 1026.263 46.515 Q1025.591 47.530 1025.591 50.233 Z"/>
</svg>
