<?xml version="1.0" encoding="UTF-8" ?>
<!-- Generated by clip v0.7.0 (clip-lang.org) -->
<svg xmlns="http://www.w3.org/2000/svg" width="1024.000000" height="60.000000">
  <rect width="1024.000000" height="60.000000" fill="#ffffff" fill-opacity="1.000000"/>
  <path d="M14.6667 30 L1009.33 30 " fill="none" stroke-width="1.333333" stroke="#000000ff"/>
  <path d="M14.6667 32.6667 L14.6667 27.3333 " fill="none" stroke-width="1.333333" stroke="#000000ff"/>
  <path d="M180.444 32.6667 L180.444 27.3333 " fill="none" stroke-width="1.333333" stroke="#000000ff"/>
  <path d="M346.222 32.6667 L346.222 27.3333 " fill="none" stroke-width="1.333333" stroke="#000000ff"/>
  <path d="M512 32.6667 L512 27.3333 " fill="none" stroke-width="1.333333" stroke="#000000ff"/>
  <path d="M677.778 32.6667 L677.778 27.3333 " fill="none" stroke-width="1.333333" stroke="#000000ff"/>
  <path d="M843.556 32.6667 L843.556 27.3333 " fill="none" stroke-width="1.333333" stroke="#000000ff"/>
  <path d="M1009.33 32.6667 L1009.33 27.3333 " fill="none" stroke-width="1.333333" stroke="#000000ff"/>
  <path d="M92.6493 55.7333 L96.7743 44.7333 L98.2899 44.7333 L102.696 55.7333 L101.071 55.7333 L99.8212 52.7333 L95.3368 52.7333 L94.1493 55.7333 L92.6493 55.7333 ZM95.7431 51.7333 L99.3837 51.7333 L98.2587 48.2958 Q97.7431 46.9365 97.4931 45.7333 Q97.2899 47.0771 96.9149 48.1083 L95.7431 51.7333 Z" fill="#000000" fill-opacity="1.000000"/>
  <path d="M259.536 55.7333 L259.536 44.7333 L263.568 44.7333 Q264.802 44.7333 265.544 45.0615 Q266.286 45.3896 266.708 46.0615 Q267.13 46.7333 267.13 47.4677 Q267.13 48.1552 266.755 48.7568 Q266.38 49.3583 265.63 49.7333 Q266.599 50.0302 267.122 50.7568 Q267.646 51.4833 267.646 52.4677 Q267.646 53.249 267.326 53.9365 Q267.005 54.624 266.536 54.9911 Q266.068 55.3583 265.365 55.5458 Q264.661 55.7333 263.63 55.7333 L259.536 55.7333 ZM260.958 49.7333 L263.286 49.7333 Q264.224 49.7333 264.63 49.5771 Q265.177 49.374 265.451 48.913 Q265.724 48.4521 265.724 47.7646 Q265.724 47.1083 265.466 46.6083 Q265.208 46.1083 264.732 45.9208 Q264.255 45.7333 263.099 45.7333 L260.958 45.7333 L260.958 49.7333 ZM260.958 54.7333 L263.63 54.7333 Q264.318 54.7333 264.599 54.6708 Q265.099 54.5771 265.427 54.3583 Q265.755 54.1396 265.966 53.7177 Q266.177 53.2958 266.177 52.7333 Q266.177 52.0771 265.872 51.6005 Q265.568 51.124 265.021 50.9286 Q264.474 50.7333 263.443 50.7333 L260.958 50.7333 L260.958 54.7333 Z" fill="#000000" fill-opacity="1.000000"/>
  <path d="M432.627 51.9052 L434.049 52.2646 Q433.595 53.9521 432.439 54.8427 Q431.283 55.7333 429.611 55.7333 Q427.877 55.7333 426.791 55.0302 Q425.705 54.3271 425.135 52.999 Q424.564 51.6708 424.564 50.1552 Q424.564 48.499 425.205 47.2568 Q425.845 46.0146 427.033 45.374 Q428.22 44.7333 429.627 44.7333 Q431.252 44.7333 432.345 45.5146 Q433.439 46.2958 433.877 47.7177 L432.47 48.0615 Q432.095 46.8427 431.385 46.288 Q430.674 45.7333 429.595 45.7333 Q428.361 45.7333 427.533 46.3505 Q426.705 46.9677 426.369 48.0068 Q426.033 49.0458 426.033 50.1396 Q426.033 51.5615 426.431 52.624 Q426.83 53.6865 427.674 54.2099 Q428.517 54.7333 429.486 54.7333 Q430.689 54.7333 431.51 54.0224 Q432.33 53.3115 432.627 51.9052 Z" fill="#000000" fill-opacity="1.000000"/>
  <path d="M590.748 55.7333 L590.748 44.7333 L594.451 44.7333 Q595.701 44.7333 596.358 44.8896 Q597.28 45.1083 597.936 45.6708 Q598.78 46.4208 599.201 47.5615 Q599.623 48.7021 599.623 50.1708 Q599.623 51.4208 599.334 52.3896 Q599.045 53.3583 598.6 53.9911 Q598.155 54.624 597.623 54.9911 Q597.092 55.3583 596.342 55.5458 Q595.592 55.7333 594.623 55.7333 L590.748 55.7333 ZM592.17 54.7333 L594.467 54.7333 Q595.514 54.7333 596.123 54.5146 Q596.733 54.2958 597.092 53.9052 Q597.592 53.3583 597.873 52.4208 Q598.155 51.4833 598.155 50.1396 Q598.155 48.2958 597.6 47.3036 Q597.045 46.3115 596.264 45.9677 Q595.686 45.7333 594.42 45.7333 L592.17 45.7333 L592.17 54.7333 Z" fill="#000000" fill-opacity="1.000000"/>
  <path d="M756.964 55.7333 L756.964 44.7333 L764.729 44.7333 L764.729 45.7333 L758.385 45.7333 L758.385 49.7333 L764.323 49.7333 L764.323 50.7333 L758.385 50.7333 L758.385 54.7333 L764.979 54.7333 L764.979 55.7333 L756.964 55.7333 Z" fill="#000000" fill-opacity="1.000000"/>
  <path d="M923.194 55.7333 L923.194 44.7333 L930.429 44.7333 L930.429 45.7333 L924.616 45.7333 L924.616 49.7333 L929.648 49.7333 L929.648 50.7333 L924.616 50.7333 L924.616 55.7333 L923.194 55.7333 Z" fill="#000000" fill-opacity="1.000000"/>
</svg>