<?xml version="1.0" encoding="UTF-8" ?>
<!-- Generated by clip v0.7.0 (clip-lang.org) -->
<svg xmlns="http://www.w3.org/2000/svg" width="1024.000000" height="60.000000">
  <rect width="1024.000000" height="60.000000" fill="#ffffff" fill-opacity="1.000000"/>
  <path d="M14.6667 30 L1009.33 30 " fill="none" stroke-width="1.333333" stroke="#000000ff"/>
  <path d="M14.6667 32.6667 L14.6667 27.3333 " fill="none" stroke-width="1.333333" stroke="#000000ff"/>
  <path d="M139 32.6667 L139 27.3333 " fill="none" stroke-width="1.333333" stroke="#000000ff"/>
  <path d="M263.333 32.6667 L263.333 27.3333 " fill="none" stroke-width="1.333333" stroke="#000000ff"/>
  <path d="M387.667 32.6667 L387.667 27.3333 " fill="none" stroke-width="1.333333" stroke="#000000ff"/>
  <path d="M512 32.6667 L512 27.3333 " fill="none" stroke-width="1.333333" stroke="#000000ff"/>
  <path d="M636.333 32.6667 L636.333 27.3333 " fill="none" stroke-width="1.333333" stroke="#000000ff"/>
  <path d="M760.667 32.6667 L760.667 27.3333 " fill="none" stroke-width="1.333333" stroke="#000000ff"/>
  <path d="M885 32.6667 L885 27.3333 " fill="none" stroke-width="1.333333" stroke="#000000ff"/>
  <path d="M1009.33 32.6667 L1009.33 27.3333 " fill="none" stroke-width="1.333333" stroke="#000000ff"/>
  <path d="M71.9271 55.7333 L76.0521 44.7333 L77.5677 44.7333 L81.974 55.7333 L80.349 55.7333 L79.099 52.7333 L74.6146 52.7333 L73.4271 55.7333 L71.9271 55.7333 ZM75.0208 51.7333 L78.6615 51.7333 L77.5365 48.2958 Q77.0208 46.9365 76.7708 45.7333 Q76.5677 47.0771 76.1927 48.1083 L75.0208 51.7333 Z" fill="#000000" fill-opacity="1.000000"/>
  <path d="M197.37 55.7333 L197.37 44.7333 L201.401 44.7333 Q202.635 44.7333 203.378 45.0615 Q204.12 45.3896 204.542 46.0615 Q204.964 46.7333 204.964 47.4677 Q204.964 48.1552 204.589 48.7568 Q204.214 49.3583 203.464 49.7333 Q204.432 50.0302 204.956 50.7568 Q205.479 51.4833 205.479 52.4677 Q205.479 53.249 205.159 53.9365 Q204.839 54.624 204.37 54.9911 Q203.901 55.3583 203.198 55.5458 Q202.495 55.7333 201.464 55.7333 L197.37 55.7333 ZM198.792 49.7333 L201.12 49.7333 Q202.057 49.7333 202.464 49.5771 Q203.01 49.374 203.284 48.913 Q203.557 48.4521 203.557 47.7646 Q203.557 47.1083 203.299 46.6083 Q203.042 46.1083 202.565 45.9208 Q202.089 45.7333 200.932 45.7333 L198.792 45.7333 L198.792 49.7333 ZM198.792 54.7333 L201.464 54.7333 Q202.151 54.7333 202.432 54.6708 Q202.932 54.5771 203.26 54.3583 Q203.589 54.1396 203.799 53.7177 Q204.01 53.2958 204.01 52.7333 Q204.01 52.0771 203.706 51.6005 Q203.401 51.124 202.854 50.9286 Q202.307 50.7333 201.276 50.7333 L198.792 50.7333 L198.792 54.7333 Z" fill="#000000" fill-opacity="1.000000"/>
  <path d="M329.016 51.9052 L330.438 52.2646 Q329.984 53.9521 328.828 54.8427 Q327.672 55.7333 326 55.7333 Q324.266 55.7333 323.18 55.0302 Q322.094 54.3271 321.523 52.999 Q320.953 51.6708 320.953 50.1552 Q320.953 48.499 321.594 47.2568 Q322.234 46.0146 323.422 45.374 Q324.609 44.7333 326.016 44.7333 Q327.641 44.7333 328.734 45.5146 Q329.828 46.2958 330.266 47.7177 L328.859 48.0615 Q328.484 46.8427 327.773 46.288 Q327.062 45.7333 325.984 45.7333 Q324.75 45.7333 323.922 46.3505 Q323.094 46.9677 322.758 48.0068 Q322.422 49.0458 322.422 50.1396 Q322.422 51.5615 322.82 52.624 Q323.219 53.6865 324.062 54.2099 Q324.906 54.7333 325.875 54.7333 Q327.078 54.7333 327.898 54.0224 Q328.719 53.3115 329.016 51.9052 Z" fill="#000000" fill-opacity="1.000000"/>
  <path d="M445.693 55.7333 L445.693 44.7333 L449.396 44.7333 Q450.646 44.7333 451.302 44.8896 Q452.224 45.1083 452.88 45.6708 Q453.724 46.4208 454.146 47.5615 Q454.568 48.7021 454.568 50.1708 Q454.568 51.4208 454.279 52.3896 Q453.99 53.3583 453.544 53.9911 Q453.099 54.624 452.568 54.9911 Q452.036 55.3583 451.286 55.5458 Q450.536 55.7333 449.568 55.7333 L445.693 55.7333 ZM447.115 54.7333 L449.411 54.7333 Q450.458 54.7333 451.068 54.5146 Q451.677 54.2958 452.036 53.9052 Q452.536 53.3583 452.818 52.4208 Q453.099 51.4833 453.099 50.1396 Q453.099 48.2958 452.544 47.3036 Q451.99 46.3115 451.208 45.9677 Q450.63 45.7333 449.365 45.7333 L447.115 45.7333 L447.115 54.7333 Z" fill="#000000" fill-opacity="1.000000"/>
  <path d="M570.464 55.7333 L570.464 44.7333 L578.229 44.7333 L578.229 45.7333 L571.885 45.7333 L571.885 49.7333 L577.823 49.7333 L577.823 50.7333 L571.885 50.7333 L571.885 54.7333 L578.479 54.7333 L578.479 55.7333 L570.464 55.7333 Z" fill="#000000" fill-opacity="1.000000"/>
  <path d="M695.25 55.7333 L695.25 44.7333 L702.484 44.7333 L702.484 45.7333 L696.672 45.7333 L696.672 49.7333 L701.703 49.7333 L701.703 50.7333 L696.672 50.7333 L696.672 55.7333 L695.25 55.7333 Z" fill="#000000" fill-opacity="1.000000"/>
  <path d="M823.318 50.7333 L823.318 49.7333 L827.865 49.7333 L827.865 53.9521 Q826.818 54.8427 825.701 55.288 Q824.583 55.7333 823.411 55.7333 Q821.833 55.7333 820.536 55.0615 Q819.24 54.3896 818.583 53.124 Q817.927 51.8583 817.927 50.2802 Q817.927 48.7333 818.583 47.3896 Q819.24 46.0458 820.466 45.3896 Q821.693 44.7333 823.302 44.7333 Q824.458 44.7333 825.404 45.0693 Q826.349 45.4052 826.88 46.0146 Q827.411 46.624 827.693 47.5927 L826.411 47.9365 Q826.177 47.1552 825.818 46.7099 Q825.458 46.2646 824.786 45.999 Q824.115 45.7333 823.302 45.7333 Q822.333 45.7333 821.622 46.0458 Q820.911 46.3583 820.482 46.8583 Q820.052 47.3583 819.802 47.9677 Q819.396 49.0146 819.396 50.2333 Q819.396 51.7333 819.888 52.7411 Q820.38 53.749 821.326 54.2411 Q822.271 54.7333 823.333 54.7333 Q824.255 54.7333 825.138 54.2724 Q826.021 53.8115 826.474 53.2958 L826.474 50.7333 L823.318 50.7333 Z" fill="#000000" fill-opacity="1.000000"/>
  <path d="M943.073 55.7333 L943.073 44.7333 L944.495 44.7333 L944.495 49.7333 L950.073 49.7333 L950.073 44.7333 L951.495 44.7333 L951.495 55.7333 L950.073 55.7333 L950.073 50.7333 L944.495 50.7333 L944.495 55.7333 L943.073 55.7333 Z" fill="#000000" fill-opacity="1.000000"/>
</svg>