<?xml version="1.0" encoding="UTF-8" ?>
<!-- Generated by clip v0.8.0 (clip-lang.org) -->
<svg xmlns="http://www.w3.org/2000/svg" width="1024" height="60">
  <rect width="1024" height="60" fill="#ffffff" fill-opacity="1"/>
  <path d="M14.667 30 L1009.333 30" fill="none" stroke="#000000" stroke-width="1.333"/>
  <path d="M139 32.667 L139 27.333" fill="none" stroke="#000000" stroke-width="1.333"/>
  <path d="M201.167 32.667 L201.167 27.333" fill="none" stroke="#000000" stroke-width="1.333"/>
  <path d="M263.333 32.667 L263.333 27.333" fill="none" stroke="#000000" stroke-width="1.333"/>
  <path d="M325.500 32.667 L325.500 27.333" fill="none" stroke="#000000" stroke-width="1.333"/>
  <path d="M387.667 32.667 L387.667 27.333" fill="none" stroke="#000000" stroke-width="1.333"/>
  <path d="M449.833 32.667 L449.833 27.333" fill="none" stroke="#000000" stroke-width="1.333"/>
  <path d="M512 32.667 L512 27.333" fill="none" stroke="#000000" stroke-width="1.333"/>
  <path d="M574.167 32.667 L574.167 27.333" fill="none" stroke="#000000" stroke-width="1.333"/>
  <path d="M636.333 32.667 L636.333 27.333" fill="none" stroke="#000000" stroke-width="1.333"/>
  <path d="M698.500 32.667 L698.500 27.333" fill="none" stroke="#000000" stroke-width="1.333"/>
  <path d="M760.667 32.667 L760.667 27.333" fill="none" stroke="#000000" stroke-width="1.333"/>
  <path d="M822.833 32.667 L822.833 27.333" fill="none" stroke="#000000" stroke-width="1.333"/>
  <path d="M885.000 32.667 L885.000 27.333" fill="none" stroke="#000000" stroke-width="1.333"/>
  <path d="M136.352 54.733 L136.352 55.733 L129.258 55.733 Q129.242 55.343 129.414 54.968 Q129.680 54.358 130.281 53.772 Q130.883 53.186 132.008 52.124 Q133.758 50.468 134.375 49.538 Q134.992 48.608 134.992 47.796 Q134.992 46.921 134.430 46.327 Q133.867 45.733 132.977 45.733 Q132.023 45.733 131.445 46.265 Q130.867 46.796 130.867 47.733 L129.508 47.733 Q129.648 46.265 130.555 45.499 Q131.461 44.733 132.992 44.733 Q134.539 44.733 135.438 45.624 Q136.336 46.515 136.336 47.843 Q136.336 48.515 136.070 49.163 Q135.805 49.811 135.195 50.530 Q134.586 51.249 133.164 52.530 Q131.977 53.593 131.641 53.968 Q131.305 54.343 131.086 54.733 L136.352 54.733 Z"/>
  <path d="M138.320 55.733 L138.320 54.733 L139.820 54.733 L139.820 55.733 L138.320 55.733 Z"/>
  <path d="M141.664 50.233 Q141.664 48.327 142.055 47.163 Q142.445 45.999 143.219 45.366 Q143.992 44.733 145.164 44.733 Q146.023 44.733 146.680 45.085 Q147.336 45.436 147.758 46.093 Q148.180 46.749 148.422 47.694 Q148.664 48.640 148.664 50.233 Q148.664 52.140 148.273 53.304 Q147.883 54.468 147.109 55.101 Q146.336 55.733 145.164 55.733 Q143.617 55.733 142.727 54.624 Q141.664 53.265 141.664 50.233 Z M143.023 50.233 Q143.023 52.936 143.641 53.835 Q144.258 54.733 145.164 54.733 Q146.070 54.733 146.688 53.835 Q147.305 52.936 147.305 50.233 Q147.305 47.515 146.688 46.624 Q146.070 45.733 145.148 45.733 Q144.242 45.733 143.695 46.515 Q143.023 47.530 143.023 50.233 Z"/>
  <path d="M191.596 52.733 L192.924 52.733 Q193.159 53.796 193.698 54.265 Q194.237 54.733 195.018 54.733 Q195.956 54.733 196.596 54.116 Q197.237 53.499 197.237 52.593 Q197.237 51.718 196.643 51.147 Q196.049 50.577 195.128 50.577 Q194.753 50.577 194.206 50.733 L194.346 49.733 Q194.487 49.749 194.565 49.749 Q195.409 49.749 196.081 49.241 Q196.753 48.733 196.753 47.671 Q196.753 46.843 196.260 46.288 Q195.768 45.733 194.987 45.733 Q194.221 45.733 193.706 46.233 Q193.190 46.733 193.049 47.733 L191.737 47.733 Q191.971 46.311 192.831 45.522 Q193.690 44.733 194.971 44.733 Q195.846 44.733 196.589 45.140 Q197.331 45.546 197.721 46.249 Q198.112 46.952 198.112 47.749 Q198.112 48.499 197.737 49.116 Q197.362 49.733 196.628 50.093 Q197.581 50.296 198.104 50.944 Q198.628 51.593 198.628 52.577 Q198.628 53.890 197.604 54.811 Q196.581 55.733 195.003 55.733 Q193.596 55.733 192.659 54.897 Q191.721 54.061 191.596 52.733 Z"/>
  <path d="M200.487 55.733 L200.487 54.733 L201.987 54.733 L201.987 55.733 L200.487 55.733 Z"/>
  <path d="M203.831 50.233 Q203.831 48.327 204.221 47.163 Q204.612 45.999 205.385 45.366 Q206.159 44.733 207.331 44.733 Q208.190 44.733 208.846 45.085 Q209.503 45.436 209.924 46.093 Q210.346 46.749 210.589 47.694 Q210.831 48.640 210.831 50.233 Q210.831 52.140 210.440 53.304 Q210.049 54.468 209.276 55.101 Q208.503 55.733 207.331 55.733 Q205.784 55.733 204.893 54.624 Q203.831 53.265 203.831 50.233 Z M205.190 50.233 Q205.190 52.936 205.807 53.835 Q206.424 54.733 207.331 54.733 Q208.237 54.733 208.854 53.835 Q209.471 52.936 209.471 50.233 Q209.471 47.515 208.854 46.624 Q208.237 45.733 207.315 45.733 Q206.409 45.733 205.862 46.515 Q205.190 47.530 205.190 50.233 Z"/>
  <path d="M257.982 55.733 L257.982 52.733 L253.326 52.733 L253.326 51.733 L258.232 44.733 L259.310 44.733 L259.310 51.733 L260.763 51.733 L260.763 52.733 L259.310 52.733 L259.310 55.733 L257.982 55.733 Z M257.982 51.733 L257.982 46.936 L254.622 51.733 L257.982 51.733 Z"/>
  <path d="M262.654 55.733 L262.654 54.733 L264.154 54.733 L264.154 55.733 L262.654 55.733 Z"/>
  <path d="M265.997 50.233 Q265.997 48.327 266.388 47.163 Q266.779 45.999 267.552 45.366 Q268.326 44.733 269.497 44.733 Q270.357 44.733 271.013 45.085 Q271.669 45.436 272.091 46.093 Q272.513 46.749 272.755 47.694 Q272.997 48.640 272.997 50.233 Q272.997 52.140 272.607 53.304 Q272.216 54.468 271.443 55.101 Q270.669 55.733 269.497 55.733 Q267.951 55.733 267.060 54.624 Q265.997 53.265 265.997 50.233 Z M267.357 50.233 Q267.357 52.936 267.974 53.835 Q268.591 54.733 269.497 54.733 Q270.404 54.733 271.021 53.835 Q271.638 52.936 271.638 50.233 Q271.638 47.515 271.021 46.624 Q270.404 45.733 269.482 45.733 Q268.576 45.733 268.029 46.515 Q267.357 47.530 267.357 50.233 Z"/>
  <path d="M315.930 52.733 L317.305 52.733 Q317.461 53.733 318.023 54.233 Q318.586 54.733 319.367 54.733 Q320.320 54.733 320.984 54.022 Q321.648 53.311 321.648 52.140 Q321.648 51.030 321.016 50.382 Q320.383 49.733 319.352 49.733 Q318.711 49.733 318.203 50.015 Q317.695 50.296 317.398 50.733 L316.164 50.733 L317.195 44.733 L322.539 44.733 L322.539 45.733 L318.258 45.733 L317.680 49.311 Q318.648 48.733 319.711 48.733 Q321.102 48.733 322.070 49.671 Q323.039 50.608 323.039 52.061 Q323.039 53.468 322.195 54.483 Q321.164 55.733 319.367 55.733 Q317.914 55.733 316.984 54.913 Q316.055 54.093 315.930 52.733 Z"/>
  <path d="M324.820 55.733 L324.820 54.733 L326.320 54.733 L326.320 55.733 L324.820 55.733 Z"/>
  <path d="M328.164 50.233 Q328.164 48.327 328.555 47.163 Q328.945 45.999 329.719 45.366 Q330.492 44.733 331.664 44.733 Q332.523 44.733 333.180 45.085 Q333.836 45.436 334.258 46.093 Q334.680 46.749 334.922 47.694 Q335.164 48.640 335.164 50.233 Q335.164 52.140 334.773 53.304 Q334.383 54.468 333.609 55.101 Q332.836 55.733 331.664 55.733 Q330.117 55.733 329.227 54.624 Q328.164 53.265 328.164 50.233 Z M329.523 50.233 Q329.523 52.936 330.141 53.835 Q330.758 54.733 331.664 54.733 Q332.570 54.733 333.188 53.835 Q333.805 52.936 333.805 50.233 Q333.805 47.515 333.188 46.624 Q332.570 45.733 331.648 45.733 Q330.742 45.733 330.195 46.515 Q329.523 47.530 329.523 50.233 Z"/>
  <path d="M384.940 47.733 L383.628 47.733 Q383.456 46.811 383.128 46.405 Q382.596 45.733 381.815 45.733 Q381.174 45.733 380.706 46.124 Q380.081 46.624 379.721 47.577 Q379.362 48.530 379.346 50.171 Q379.815 49.436 380.510 49.085 Q381.206 48.733 381.956 48.733 Q383.268 48.733 384.198 49.686 Q385.128 50.640 385.128 52.140 Q385.128 53.124 384.690 53.976 Q384.253 54.827 383.495 55.280 Q382.737 55.733 381.768 55.733 Q380.112 55.733 379.073 54.515 Q378.034 53.296 378.034 50.515 Q378.034 47.390 379.190 45.968 Q380.190 44.733 381.893 44.733 Q383.159 44.733 383.971 45.530 Q384.784 46.327 384.940 47.733 Z M379.549 52.108 Q379.549 52.796 379.839 53.429 Q380.128 54.061 380.651 54.397 Q381.174 54.733 381.737 54.733 Q382.581 54.733 383.182 54.046 Q383.784 53.358 383.784 52.171 Q383.784 51.046 383.190 50.390 Q382.596 49.733 381.690 49.733 Q380.799 49.733 380.174 50.390 Q379.549 51.046 379.549 52.108 Z"/>
  <path d="M386.987 55.733 L386.987 54.733 L388.487 54.733 L388.487 55.733 L386.987 55.733 Z"/>
  <path d="M390.331 50.233 Q390.331 48.327 390.721 47.163 Q391.112 45.999 391.885 45.366 Q392.659 44.733 393.831 44.733 Q394.690 44.733 395.346 45.085 Q396.003 45.436 396.424 46.093 Q396.846 46.749 397.089 47.694 Q397.331 48.640 397.331 50.233 Q397.331 52.140 396.940 53.304 Q396.549 54.468 395.776 55.101 Q395.003 55.733 393.831 55.733 Q392.284 55.733 391.393 54.624 Q390.331 53.265 390.331 50.233 Z M391.690 50.233 Q391.690 52.936 392.307 53.835 Q392.924 54.733 393.831 54.733 Q394.737 54.733 395.354 53.835 Q395.971 52.936 395.971 50.233 Q395.971 47.515 395.354 46.624 Q394.737 45.733 393.815 45.733 Q392.909 45.733 392.362 46.515 Q391.690 47.530 391.690 50.233 Z"/>
  <path d="M440.341 45.733 L440.341 44.733 L447.294 44.733 L447.294 45.546 Q446.279 46.640 445.271 48.577 Q444.263 50.515 443.701 52.561 Q443.310 54.015 443.201 55.733 L441.857 55.733 Q441.872 54.374 442.349 52.452 Q442.826 50.530 443.716 48.741 Q444.607 46.952 445.607 45.733 L440.341 45.733 Z"/>
  <path d="M449.154 55.733 L449.154 54.733 L450.654 54.733 L450.654 55.733 L449.154 55.733 Z"/>
  <path d="M452.497 50.233 Q452.497 48.327 452.888 47.163 Q453.279 45.999 454.052 45.366 Q454.826 44.733 455.997 44.733 Q456.857 44.733 457.513 45.085 Q458.169 45.436 458.591 46.093 Q459.013 46.749 459.255 47.694 Q459.497 48.640 459.497 50.233 Q459.497 52.140 459.107 53.304 Q458.716 54.468 457.943 55.101 Q457.169 55.733 455.997 55.733 Q454.451 55.733 453.560 54.624 Q452.497 53.265 452.497 50.233 Z M453.857 50.233 Q453.857 52.936 454.474 53.835 Q455.091 54.733 455.997 54.733 Q456.904 54.733 457.521 53.835 Q458.138 52.936 458.138 50.233 Q458.138 47.515 457.521 46.624 Q456.904 45.733 455.982 45.733 Q455.076 45.733 454.529 46.515 Q453.857 47.530 453.857 50.233 Z"/>
  <path d="M504.461 50.202 Q503.648 49.874 503.250 49.257 Q502.852 48.640 502.852 47.780 Q502.852 46.499 503.695 45.616 Q504.539 44.733 505.930 44.733 Q507.336 44.733 508.195 45.632 Q509.055 46.530 509.055 47.827 Q509.055 48.655 508.656 49.265 Q508.258 49.874 507.461 50.202 Q508.461 50.499 508.977 51.163 Q509.492 51.827 509.492 52.733 Q509.492 53.999 508.516 54.866 Q507.539 55.733 505.961 55.733 Q504.367 55.733 503.391 54.866 Q502.414 53.999 502.414 52.702 Q502.414 51.733 502.945 51.085 Q503.477 50.436 504.461 50.202 Z M504.195 47.686 Q504.195 48.593 504.688 49.163 Q505.180 49.733 505.961 49.733 Q506.727 49.733 507.211 49.163 Q507.695 48.593 507.695 47.765 Q507.695 46.905 507.195 46.319 Q506.695 45.733 505.945 45.733 Q505.195 45.733 504.695 46.304 Q504.195 46.874 504.195 47.686 Z M503.773 52.718 Q503.773 53.233 504.039 53.718 Q504.305 54.202 504.828 54.468 Q505.352 54.733 505.961 54.733 Q506.898 54.733 507.516 54.171 Q508.133 53.608 508.133 52.749 Q508.133 51.874 507.500 51.304 Q506.867 50.733 505.914 50.733 Q504.992 50.733 504.383 51.296 Q503.773 51.858 503.773 52.718 Z"/>
  <path d="M511.320 55.733 L511.320 54.733 L512.820 54.733 L512.820 55.733 L511.320 55.733 Z"/>
  <path d="M514.664 50.233 Q514.664 48.327 515.055 47.163 Q515.445 45.999 516.219 45.366 Q516.992 44.733 518.164 44.733 Q519.023 44.733 519.680 45.085 Q520.336 45.436 520.758 46.093 Q521.180 46.749 521.422 47.694 Q521.664 48.640 521.664 50.233 Q521.664 52.140 521.273 53.304 Q520.883 54.468 520.109 55.101 Q519.336 55.733 518.164 55.733 Q516.617 55.733 515.727 54.624 Q514.664 53.265 514.664 50.233 Z M516.023 50.233 Q516.023 52.936 516.641 53.835 Q517.258 54.733 518.164 54.733 Q519.070 54.733 519.688 53.835 Q520.305 52.936 520.305 50.233 Q520.305 47.515 519.688 46.624 Q519.070 45.733 518.148 45.733 Q517.242 45.733 516.695 46.515 Q516.023 47.530 516.023 50.233 Z"/>
  <path d="M564.799 52.733 L566.065 52.733 Q566.221 53.780 566.674 54.257 Q567.128 54.733 567.846 54.733 Q568.440 54.733 568.901 54.429 Q569.362 54.124 569.651 53.616 Q569.940 53.108 570.143 52.257 Q570.346 51.405 570.346 50.577 Q570.346 50.499 570.331 50.327 Q569.940 50.952 569.253 51.343 Q568.565 51.733 567.768 51.733 Q566.440 51.733 565.518 50.788 Q564.596 49.843 564.596 48.280 Q564.596 46.686 565.557 45.710 Q566.518 44.733 567.971 44.733 Q569.018 44.733 569.885 45.296 Q570.753 45.858 571.206 46.905 Q571.659 47.952 571.659 49.936 Q571.659 52.015 571.214 53.233 Q570.768 54.452 569.885 55.093 Q569.003 55.733 567.815 55.733 Q566.549 55.733 565.753 54.944 Q564.956 54.155 564.799 52.733 Z M570.190 48.265 Q570.190 47.093 569.589 46.413 Q568.987 45.733 568.128 45.733 Q567.253 45.733 566.604 46.468 Q565.956 47.202 565.956 48.374 Q565.956 49.421 566.573 50.077 Q567.190 50.733 568.096 50.733 Q569.018 50.733 569.604 50.077 Q570.190 49.421 570.190 48.265 Z"/>
  <path d="M573.487 55.733 L573.487 54.733 L574.987 54.733 L574.987 55.733 L573.487 55.733 Z"/>
  <path d="M576.831 50.233 Q576.831 48.327 577.221 47.163 Q577.612 45.999 578.385 45.366 Q579.159 44.733 580.331 44.733 Q581.190 44.733 581.846 45.085 Q582.503 45.436 582.924 46.093 Q583.346 46.749 583.589 47.694 Q583.831 48.640 583.831 50.233 Q583.831 52.140 583.440 53.304 Q583.049 54.468 582.276 55.101 Q581.503 55.733 580.331 55.733 Q578.784 55.733 577.893 54.624 Q576.831 53.265 576.831 50.233 Z M578.190 50.233 Q578.190 52.936 578.807 53.835 Q579.424 54.733 580.331 54.733 Q581.237 54.733 581.854 53.835 Q582.471 52.936 582.471 50.233 Q582.471 47.515 581.854 46.624 Q581.237 45.733 580.315 45.733 Q579.409 45.733 578.862 46.515 Q578.190 47.530 578.190 50.233 Z"/>
  <path d="M627.654 55.733 L626.326 55.733 L626.326 47.155 Q625.857 47.624 625.083 48.085 Q624.310 48.546 623.701 48.780 L623.701 47.483 Q624.810 46.952 625.630 46.194 Q626.451 45.436 626.794 44.733 L627.654 44.733 L627.654 55.733 Z"/>
  <path d="M630.841 50.233 Q630.841 48.327 631.232 47.163 Q631.622 45.999 632.396 45.366 Q633.169 44.733 634.341 44.733 Q635.201 44.733 635.857 45.085 Q636.513 45.436 636.935 46.093 Q637.357 46.749 637.599 47.694 Q637.841 48.640 637.841 50.233 Q637.841 52.140 637.451 53.304 Q637.060 54.468 636.286 55.101 Q635.513 55.733 634.341 55.733 Q632.794 55.733 631.904 54.624 Q630.841 53.265 630.841 50.233 Z M632.201 50.233 Q632.201 52.936 632.818 53.835 Q633.435 54.733 634.341 54.733 Q635.247 54.733 635.865 53.835 Q636.482 52.936 636.482 50.233 Q636.482 47.515 635.865 46.624 Q635.247 45.733 634.326 45.733 Q633.419 45.733 632.872 46.515 Q632.201 47.530 632.201 50.233 Z"/>
  <path d="M639.732 55.733 L639.732 54.733 L641.232 54.733 L641.232 55.733 L639.732 55.733 Z"/>
  <path d="M643.076 50.233 Q643.076 48.327 643.466 47.163 Q643.857 45.999 644.630 45.366 Q645.404 44.733 646.576 44.733 Q647.435 44.733 648.091 45.085 Q648.747 45.436 649.169 46.093 Q649.591 46.749 649.833 47.694 Q650.076 48.640 650.076 50.233 Q650.076 52.140 649.685 53.304 Q649.294 54.468 648.521 55.101 Q647.747 55.733 646.576 55.733 Q645.029 55.733 644.138 54.624 Q643.076 53.265 643.076 50.233 Z M644.435 50.233 Q644.435 52.936 645.052 53.835 Q645.669 54.733 646.576 54.733 Q647.482 54.733 648.099 53.835 Q648.716 52.936 648.716 50.233 Q648.716 47.515 648.099 46.624 Q647.482 45.733 646.560 45.733 Q645.654 45.733 645.107 46.515 Q644.435 47.530 644.435 50.233 Z"/>
  <path d="M690.367 55.733 L689.039 55.733 L689.039 47.155 Q688.570 47.624 687.797 48.085 Q687.023 48.546 686.414 48.780 L686.414 47.483 Q687.523 46.952 688.344 46.194 Q689.164 45.436 689.508 44.733 L690.367 44.733 L690.367 55.733 Z"/>
  <path d="M697.977 55.733 L696.648 55.733 L696.648 47.155 Q696.180 47.624 695.406 48.085 Q694.633 48.546 694.023 48.780 L694.023 47.483 Q695.133 46.952 695.953 46.194 Q696.773 45.436 697.117 44.733 L697.977 44.733 L697.977 55.733 Z"/>
  <path d="M701.352 55.733 L701.352 54.733 L702.852 54.733 L702.852 55.733 L701.352 55.733 Z"/>
  <path d="M704.695 50.233 Q704.695 48.327 705.086 47.163 Q705.477 45.999 706.250 45.366 Q707.023 44.733 708.195 44.733 Q709.055 44.733 709.711 45.085 Q710.367 45.436 710.789 46.093 Q711.211 46.749 711.453 47.694 Q711.695 48.640 711.695 50.233 Q711.695 52.140 711.305 53.304 Q710.914 54.468 710.141 55.101 Q709.367 55.733 708.195 55.733 Q706.648 55.733 705.758 54.624 Q704.695 53.265 704.695 50.233 Z M706.055 50.233 Q706.055 52.936 706.672 53.835 Q707.289 54.733 708.195 54.733 Q709.102 54.733 709.719 53.835 Q710.336 52.936 710.336 50.233 Q710.336 47.515 709.719 46.624 Q709.102 45.733 708.180 45.733 Q707.273 45.733 706.727 46.515 Q706.055 47.530 706.055 50.233 Z"/>
  <path d="M751.987 55.733 L750.659 55.733 L750.659 47.155 Q750.190 47.624 749.417 48.085 Q748.643 48.546 748.034 48.780 L748.034 47.483 Q749.143 46.952 749.964 46.194 Q750.784 45.436 751.128 44.733 L751.987 44.733 L751.987 55.733 Z"/>
  <path d="M762.096 54.733 L762.096 55.733 L755.003 55.733 Q754.987 55.343 755.159 54.968 Q755.424 54.358 756.026 53.772 Q756.628 53.186 757.753 52.124 Q759.503 50.468 760.120 49.538 Q760.737 48.608 760.737 47.796 Q760.737 46.921 760.174 46.327 Q759.612 45.733 758.721 45.733 Q757.768 45.733 757.190 46.265 Q756.612 46.796 756.612 47.733 L755.253 47.733 Q755.393 46.265 756.299 45.499 Q757.206 44.733 758.737 44.733 Q760.284 44.733 761.182 45.624 Q762.081 46.515 762.081 47.843 Q762.081 48.515 761.815 49.163 Q761.549 49.811 760.940 50.530 Q760.331 51.249 758.909 52.530 Q757.721 53.593 757.385 53.968 Q757.049 54.343 756.831 54.733 L762.096 54.733 Z"/>
  <path d="M764.065 55.733 L764.065 54.733 L765.565 54.733 L765.565 55.733 L764.065 55.733 Z"/>
  <path d="M767.409 50.233 Q767.409 48.327 767.799 47.163 Q768.190 45.999 768.964 45.366 Q769.737 44.733 770.909 44.733 Q771.768 44.733 772.424 45.085 Q773.081 45.436 773.503 46.093 Q773.924 46.749 774.167 47.694 Q774.409 48.640 774.409 50.233 Q774.409 52.140 774.018 53.304 Q773.628 54.468 772.854 55.101 Q772.081 55.733 770.909 55.733 Q769.362 55.733 768.471 54.624 Q767.409 53.265 767.409 50.233 Z M768.768 50.233 Q768.768 52.936 769.385 53.835 Q770.003 54.733 770.909 54.733 Q771.815 54.733 772.432 53.835 Q773.049 52.936 773.049 50.233 Q773.049 47.515 772.432 46.624 Q771.815 45.733 770.893 45.733 Q769.987 45.733 769.440 46.515 Q768.768 47.530 768.768 50.233 Z"/>
  <path d="M814.154 55.733 L812.826 55.733 L812.826 47.155 Q812.357 47.624 811.583 48.085 Q810.810 48.546 810.201 48.780 L810.201 47.483 Q811.310 46.952 812.130 46.194 Q812.951 45.436 813.294 44.733 L814.154 44.733 L814.154 55.733 Z"/>
  <path d="M817.341 52.733 L818.669 52.733 Q818.904 53.796 819.443 54.265 Q819.982 54.733 820.763 54.733 Q821.701 54.733 822.341 54.116 Q822.982 53.499 822.982 52.593 Q822.982 51.718 822.388 51.147 Q821.794 50.577 820.872 50.577 Q820.497 50.577 819.951 50.733 L820.091 49.733 Q820.232 49.749 820.310 49.749 Q821.154 49.749 821.826 49.241 Q822.497 48.733 822.497 47.671 Q822.497 46.843 822.005 46.288 Q821.513 45.733 820.732 45.733 Q819.966 45.733 819.451 46.233 Q818.935 46.733 818.794 47.733 L817.482 47.733 Q817.716 46.311 818.576 45.522 Q819.435 44.733 820.716 44.733 Q821.591 44.733 822.333 45.140 Q823.076 45.546 823.466 46.249 Q823.857 46.952 823.857 47.749 Q823.857 48.499 823.482 49.116 Q823.107 49.733 822.372 50.093 Q823.326 50.296 823.849 50.944 Q824.372 51.593 824.372 52.577 Q824.372 53.890 823.349 54.811 Q822.326 55.733 820.747 55.733 Q819.341 55.733 818.404 54.897 Q817.466 54.061 817.341 52.733 Z"/>
  <path d="M826.232 55.733 L826.232 54.733 L827.732 54.733 L827.732 55.733 L826.232 55.733 Z"/>
  <path d="M829.576 50.233 Q829.576 48.327 829.966 47.163 Q830.357 45.999 831.130 45.366 Q831.904 44.733 833.076 44.733 Q833.935 44.733 834.591 45.085 Q835.247 45.436 835.669 46.093 Q836.091 46.749 836.333 47.694 Q836.576 48.640 836.576 50.233 Q836.576 52.140 836.185 53.304 Q835.794 54.468 835.021 55.101 Q834.247 55.733 833.076 55.733 Q831.529 55.733 830.638 54.624 Q829.576 53.265 829.576 50.233 Z M830.935 50.233 Q830.935 52.936 831.552 53.835 Q832.169 54.733 833.076 54.733 Q833.982 54.733 834.599 53.835 Q835.216 52.936 835.216 50.233 Q835.216 47.515 834.599 46.624 Q833.982 45.733 833.060 45.733 Q832.154 45.733 831.607 46.515 Q830.935 47.530 830.935 50.233 Z"/>
  <path d="M876.320 55.733 L874.992 55.733 L874.992 47.155 Q874.523 47.624 873.750 48.085 Q872.977 48.546 872.367 48.780 L872.367 47.483 Q873.477 46.952 874.297 46.194 Q875.117 45.436 875.461 44.733 L876.320 44.733 L876.320 55.733 Z"/>
  <path d="M883.727 55.733 L883.727 52.733 L879.070 52.733 L879.070 51.733 L883.977 44.733 L885.055 44.733 L885.055 51.733 L886.508 51.733 L886.508 52.733 L885.055 52.733 L885.055 55.733 L883.727 55.733 Z M883.727 51.733 L883.727 46.936 L880.367 51.733 L883.727 51.733 Z"/>
  <path d="M888.398 55.733 L888.398 54.733 L889.898 54.733 L889.898 55.733 L888.398 55.733 Z"/>
  <path d="M891.742 50.233 Q891.742 48.327 892.133 47.163 Q892.523 45.999 893.297 45.366 Q894.070 44.733 895.242 44.733 Q896.102 44.733 896.758 45.085 Q897.414 45.436 897.836 46.093 Q898.258 46.749 898.500 47.694 Q898.742 48.640 898.742 50.233 Q898.742 52.140 898.352 53.304 Q897.961 54.468 897.187 55.101 Q896.414 55.733 895.242 55.733 Q893.695 55.733 892.805 54.624 Q891.742 53.265 891.742 50.233 Z M893.102 50.233 Q893.102 52.936 893.719 53.835 Q894.336 54.733 895.242 54.733 Q896.148 54.733 896.766 53.835 Q897.383 52.936 897.383 50.233 Q897.383 47.515 896.766 46.624 Q896.148 45.733 895.227 45.733 Q894.320 45.733 893.773 46.515 Q893.102 47.530 893.102 50.233 Z"/>
</svg>
